<?xml version="1.0" encoding="UTF-8" standalone="no"?>
<!DOCTYPE svg PUBLIC "-//W3C//DTD SVG 1.1//EN"
 "http://www.w3.org/Graphics/SVG/1.1/DTD/svg11.dtd">
<!-- Generated by graphviz version 2.40.1 (20161225.0304)
 -->
<!-- Title: %3 Pages: 1 -->
<svg width="2914pt" height="2212pt"
 viewBox="0.00 0.00 2914.00 2212.38" xmlns="http://www.w3.org/2000/svg" xmlns:xlink="http://www.w3.org/1999/xlink">
<g id="graph0" class="graph" transform="scale(1 1) rotate(0) translate(4 2208.3762)">
<title>%3</title>
<polygon fill="#242424" stroke="transparent" points="-4,4 -4,-2208.3762 2910,-2208.3762 2910,4 -4,4"/>
<!-- cli -->
<g id="node1" class="node">
<title>cli</title>
<polygon fill="#343434" stroke="#343434" points="72.5,-1194.3762 18.5,-1194.3762 18.5,-1158.3762 72.5,-1158.3762 72.5,-1194.3762"/>
<text text-anchor="middle" x="45.5" y="-1172.6762" font-family="Courier,monospace" font-size="14.00" fill="#b6ecf3">cli</text>
</g>
<!-- hidebound.core.config -->
<g id="node2" class="node">
<title>hidebound.core.config</title>
<polygon fill="#343434" stroke="#343434" points="1636,-688.3762 1446,-688.3762 1446,-652.3762 1636,-652.3762 1636,-688.3762"/>
<text text-anchor="middle" x="1541" y="-666.6762" font-family="Courier,monospace" font-size="14.00" fill="#b6ecf3">hidebound.core.config</text>
</g>
<!-- hidebound.core.database -->
<g id="node4" class="node">
<title>hidebound.core.database</title>
<polygon fill="#343434" stroke="#343434" points="1903,-1446.3762 1697,-1446.3762 1697,-1410.3762 1903,-1410.3762 1903,-1446.3762"/>
<text text-anchor="middle" x="1800" y="-1424.6762" font-family="Courier,monospace" font-size="14.00" fill="#b6ecf3">hidebound.core.database</text>
</g>
<!-- hidebound.core.config&#45;&gt;hidebound.core.database -->
<g id="edge1" class="edge">
<title>hidebound.core.config&#45;&gt;hidebound.core.database</title>
<path fill="none" stroke="#b6ecf3" d="M1562.9693,-688.5366C1585.8444,-708.9296 1620.4626,-744.3204 1636,-783.3762 1661.4256,-847.2875 1627.1364,-1349.2383 1672,-1401.3762 1676.628,-1406.7547 1682.0328,-1411.2224 1687.9559,-1414.9218"/>
<polygon fill="#b6ecf3" stroke="#b6ecf3" points="1686.5149,-1418.1217 1696.9746,-1419.8084 1689.8497,-1411.9671 1686.5149,-1418.1217"/>
</g>
<!-- hidebound.server.extension -->
<g id="node20" class="node">
<title>hidebound.server.extension</title>
<polygon fill="#343434" stroke="#343434" points="2413,-1720.3762 2182,-1720.3762 2182,-1684.3762 2413,-1684.3762 2413,-1720.3762"/>
<text text-anchor="middle" x="2297.5" y="-1698.6762" font-family="Courier,monospace" font-size="14.00" fill="#b6ecf3">hidebound.server.extension</text>
</g>
<!-- hidebound.core.config&#45;&gt;hidebound.server.extension -->
<g id="edge2" class="edge">
<title>hidebound.core.config&#45;&gt;hidebound.server.extension</title>
<path fill="none" stroke="#b6ecf3" d="M1624.0369,-688.447C1628.1328,-689.9696 1632.1427,-691.6101 1636,-693.3762 1781.1079,-759.8165 1826.2727,-779.404 1928,-902.3762 2142.227,-1161.3427 2260.8824,-1564.9761 2290.2357,-1674.2813"/>
<polygon fill="#b6ecf3" stroke="#b6ecf3" points="2286.9217,-1675.4389 2292.8712,-1684.2055 2293.6872,-1673.6421 2286.9217,-1675.4389"/>
</g>
<!-- hidebound.core.connection -->
<g id="node3" class="node">
<title>hidebound.core.connection</title>
<polygon fill="#343434" stroke="#343434" points="744,-1170.3762 521,-1170.3762 521,-1134.3762 744,-1134.3762 744,-1170.3762"/>
<text text-anchor="middle" x="632.5" y="-1148.6762" font-family="Courier,monospace" font-size="14.00" fill="#b6ecf3">hidebound.core.connection</text>
</g>
<!-- hidebound.core.connection&#45;&gt;hidebound.core.database -->
<g id="edge3" class="edge">
<title>hidebound.core.connection&#45;&gt;hidebound.core.database</title>
<path fill="none" stroke="#b6ecf3" d="M744.2738,-1152.6718C991.9347,-1154.3817 1570.2443,-1164.5894 1636,-1222.3762 1696.9552,-1275.9444 1614.8902,-1343.7259 1672,-1401.3762 1676.6677,-1406.0881 1681.9361,-1410.0763 1687.6074,-1413.4446"/>
<polygon fill="#b6ecf3" stroke="#b6ecf3" points="1686.3366,-1416.7289 1696.8228,-1418.2424 1689.5692,-1410.52 1686.3366,-1416.7289"/>
</g>
<!-- hidebound.exporters.exporter_base -->
<g id="node14" class="node">
<title>hidebound.exporters.exporter_base</title>
<polygon fill="#343434" stroke="#343434" points="1069,-688.3762 780,-688.3762 780,-652.3762 1069,-652.3762 1069,-688.3762"/>
<text text-anchor="middle" x="924.5" y="-666.6762" font-family="Courier,monospace" font-size="14.00" fill="#b6ecf3">hidebound.exporters.exporter_base</text>
</g>
<!-- hidebound.core.connection&#45;&gt;hidebound.exporters.exporter_base -->
<g id="edge4" class="edge">
<title>hidebound.core.connection&#45;&gt;hidebound.exporters.exporter_base</title>
<path fill="none" stroke="#b6ecf3" d="M658.3479,-1134.3388C684.8391,-1114.2603 724.7895,-1079.2086 744,-1038.3762 776.4387,-969.427 728.3041,-753.3566 780,-697.3762 780.6628,-696.6585 781.3381,-695.9562 782.0254,-695.269"/>
<polygon fill="#b6ecf3" stroke="#b6ecf3" points="784.5851,-697.6808 789.8231,-688.4714 779.9853,-692.4042 784.5851,-697.6808"/>
</g>
<!-- hidebound.server.api -->
<g id="node17" class="node">
<title>hidebound.server.api</title>
<polygon fill="#343434" stroke="#343434" points="2146,-1474.3762 1964,-1474.3762 1964,-1438.3762 2146,-1438.3762 2146,-1474.3762"/>
<text text-anchor="middle" x="2055" y="-1452.6762" font-family="Courier,monospace" font-size="14.00" fill="#b6ecf3">hidebound.server.api</text>
</g>
<!-- hidebound.core.database&#45;&gt;hidebound.server.api -->
<g id="edge5" class="edge">
<title>hidebound.core.database&#45;&gt;hidebound.server.api</title>
<path fill="none" stroke="#b6ecf3" d="M1903.3507,-1439.7246C1919.9283,-1441.5448 1937.0713,-1443.4272 1953.6027,-1445.2424"/>
<polygon fill="#b6ecf3" stroke="#b6ecf3" points="1953.484,-1448.7503 1963.8063,-1446.3628 1954.2481,-1441.7922 1953.484,-1448.7503"/>
</g>
<!-- hidebound.core.database&#45;&gt;hidebound.server.extension -->
<g id="edge6" class="edge">
<title>hidebound.core.database&#45;&gt;hidebound.server.extension</title>
<path fill="none" stroke="#b6ecf3" d="M1846.7716,-1446.4143C1916.6206,-1474.7893 2050.2128,-1534.7161 2146,-1612.3762 2165.3608,-1628.0732 2161.862,-1640.6897 2182,-1655.3762 2195.8905,-1665.5066 2212.2777,-1673.8746 2228.2759,-1680.599"/>
<polygon fill="#b6ecf3" stroke="#b6ecf3" points="2227.0453,-1683.8765 2237.6286,-1684.3691 2229.6624,-1677.3842 2227.0453,-1683.8765"/>
</g>
<!-- hidebound.core.database_tools -->
<g id="node5" class="node">
<title>hidebound.core.database_tools</title>
<polygon fill="#343434" stroke="#343434" points="1385.5,-1449.3762 1129.5,-1449.3762 1129.5,-1413.3762 1385.5,-1413.3762 1385.5,-1449.3762"/>
<text text-anchor="middle" x="1257.5" y="-1427.6762" font-family="Courier,monospace" font-size="14.00" fill="#b6ecf3">hidebound.core.database_tools</text>
</g>
<!-- hidebound.core.database_tools&#45;&gt;hidebound.core.database -->
<g id="edge7" class="edge">
<title>hidebound.core.database_tools&#45;&gt;hidebound.core.database</title>
<path fill="none" stroke="#b6ecf3" d="M1381.2426,-1449.401C1402.7863,-1451.8892 1425.0111,-1454.0455 1446,-1455.3762 1530.2752,-1460.7197 1551.8364,-1462.258 1636,-1455.3762 1655.8053,-1453.7568 1676.8228,-1451.0549 1696.9671,-1447.9699"/>
<polygon fill="#b6ecf3" stroke="#b6ecf3" points="1697.7579,-1451.3887 1707.0924,-1446.3769 1696.67,-1444.4737 1697.7579,-1451.3887"/>
</g>
<!-- hidebound.core.logging -->
<g id="node6" class="node">
<title>hidebound.core.logging</title>
<polygon fill="#343434" stroke="#343434" points="731.5,-1029.3762 533.5,-1029.3762 533.5,-993.3762 731.5,-993.3762 731.5,-1029.3762"/>
<text text-anchor="middle" x="632.5" y="-1007.6762" font-family="Courier,monospace" font-size="14.00" fill="#b6ecf3">hidebound.core.logging</text>
</g>
<!-- hidebound.core.logging&#45;&gt;hidebound.core.database -->
<g id="edge8" class="edge">
<title>hidebound.core.logging&#45;&gt;hidebound.core.database</title>
<path fill="none" stroke="#b6ecf3" d="M731.6505,-1026.6266C735.989,-1028.8886 740.1352,-1031.4585 744,-1034.3762 771.6059,-1055.2175 751.1838,-1084.2433 780,-1103.3762 859.5234,-1156.1772 1566.3119,-1111.1422 1636,-1176.3762 1709.9338,-1245.5846 1602.1743,-1328.0252 1672,-1401.3762 1676.7344,-1406.3497 1682.1359,-1410.525 1687.9809,-1414.0213"/>
<polygon fill="#b6ecf3" stroke="#b6ecf3" points="1686.3551,-1417.1208 1696.8358,-1418.6719 1689.6099,-1410.9235 1686.3551,-1417.1208"/>
</g>
<!-- hidebound.core.logging&#45;&gt;hidebound.exporters.exporter_base -->
<g id="edge9" class="edge">
<title>hidebound.core.logging&#45;&gt;hidebound.exporters.exporter_base</title>
<path fill="none" stroke="#b6ecf3" d="M639.927,-993.1257C666.1424,-929.0814 754.1513,-717.3624 780,-697.3762 781.6278,-696.1176 783.2964,-694.9115 785.0016,-693.7558"/>
<polygon fill="#b6ecf3" stroke="#b6ecf3" points="787.0938,-696.5797 793.8133,-688.3883 783.4522,-690.6014 787.0938,-696.5797"/>
</g>
<!-- hidebound.core.logging&#45;&gt;hidebound.server.api -->
<g id="edge10" class="edge">
<title>hidebound.core.logging&#45;&gt;hidebound.server.api</title>
<path fill="none" stroke="#b6ecf3" d="M731.5178,-1006.5079C854.7313,-1000.8785 1071.596,-992.3762 1257.5,-992.3762 1257.5,-992.3762 1257.5,-992.3762 1541,-992.3762 1803.3545,-992.3762 1991.9375,-1329.5692 2041.87,-1429.0598"/>
<polygon fill="#b6ecf3" stroke="#b6ecf3" points="2038.8172,-1430.7819 2046.3946,-1438.1869 2045.0888,-1427.6728 2038.8172,-1430.7819"/>
</g>
<!-- hidebound.server.server_tools -->
<g id="node22" class="node">
<title>hidebound.server.server_tools</title>
<polygon fill="#343434" stroke="#343434" points="1928,-1896.3762 1672,-1896.3762 1672,-1860.3762 1928,-1860.3762 1928,-1896.3762"/>
<text text-anchor="middle" x="1800" y="-1874.6762" font-family="Courier,monospace" font-size="14.00" fill="#b6ecf3">hidebound.server.server_tools</text>
</g>
<!-- hidebound.core.logging&#45;&gt;hidebound.server.server_tools -->
<g id="edge11" class="edge">
<title>hidebound.core.logging&#45;&gt;hidebound.server.server_tools</title>
<path fill="none" stroke="#b6ecf3" d="M731.6008,-1025.7522C736.0073,-1028.2359 740.1759,-1031.0931 744,-1034.3762 778.8902,-1064.3303 744.289,-1102.4057 780,-1131.3762 880.8467,-1213.188 947.9553,-1127.3507 1069,-1174.3762 1239.3997,-1240.5761 1317.6755,-1246.5959 1410,-1404.3762 1459.6583,-1489.2411 1376.8739,-1775.4507 1446,-1845.3762 1461.4391,-1860.9939 1569.1135,-1869.4458 1661.7018,-1873.8725"/>
<polygon fill="#b6ecf3" stroke="#b6ecf3" points="1661.6056,-1877.3717 1671.7575,-1874.3405 1661.9311,-1870.3792 1661.6056,-1877.3717"/>
</g>
<!-- hidebound.core.parser -->
<g id="node7" class="node">
<title>hidebound.core.parser</title>
<polygon fill="#343434" stroke="#343434" points="485,-926.3762 295,-926.3762 295,-890.3762 485,-890.3762 485,-926.3762"/>
<text text-anchor="middle" x="390" y="-904.6762" font-family="Courier,monospace" font-size="14.00" fill="#b6ecf3">hidebound.core.parser</text>
</g>
<!-- hidebound.core.parser&#45;&gt;hidebound.core.database_tools -->
<g id="edge12" class="edge">
<title>hidebound.core.parser&#45;&gt;hidebound.core.database_tools</title>
<path fill="none" stroke="#b6ecf3" d="M427.8452,-926.6035C447.3504,-937.7032 470.1047,-953.5724 485,-973.3762 515.6668,-1014.1489 482.6827,-1048.6917 521,-1082.3762 596.8087,-1149.0192 671.674,-1054.9689 744,-1125.3762 797.1608,-1177.1269 730.0165,-1233.5506 780,-1288.3762 805.5441,-1316.3949 1068.562,-1381.8969 1105,-1392.3762 1127.077,-1398.7255 1151.0983,-1405.11 1173.4066,-1410.8222"/>
<polygon fill="#b6ecf3" stroke="#b6ecf3" points="1172.6315,-1414.2364 1183.1859,-1413.3116 1174.3584,-1407.4528 1172.6315,-1414.2364"/>
</g>
<!-- hidebound.core.specification_base -->
<g id="node8" class="node">
<title>hidebound.core.specification_base</title>
<polygon fill="#343434" stroke="#343434" points="1069,-926.3762 780,-926.3762 780,-890.3762 1069,-890.3762 1069,-926.3762"/>
<text text-anchor="middle" x="924.5" y="-904.6762" font-family="Courier,monospace" font-size="14.00" fill="#b6ecf3">hidebound.core.specification_base</text>
</g>
<!-- hidebound.core.parser&#45;&gt;hidebound.core.specification_base -->
<g id="edge13" class="edge">
<title>hidebound.core.parser&#45;&gt;hidebound.core.specification_base</title>
<path fill="none" stroke="#b6ecf3" d="M485.2498,-908.3762C564.0807,-908.3762 677.6269,-908.3762 769.5253,-908.3762"/>
<polygon fill="#b6ecf3" stroke="#b6ecf3" points="769.7661,-911.8763 779.7661,-908.3762 769.7661,-904.8763 769.7661,-911.8763"/>
</g>
<!-- hidebound.core.validators -->
<g id="node12" class="node">
<title>hidebound.core.validators</title>
<polygon fill="#343434" stroke="#343434" points="744,-600.3762 521,-600.3762 521,-564.3762 744,-564.3762 744,-600.3762"/>
<text text-anchor="middle" x="632.5" y="-578.6762" font-family="Courier,monospace" font-size="14.00" fill="#b6ecf3">hidebound.core.validators</text>
</g>
<!-- hidebound.core.parser&#45;&gt;hidebound.core.validators -->
<g id="edge14" class="edge">
<title>hidebound.core.parser&#45;&gt;hidebound.core.validators</title>
<path fill="none" stroke="#b6ecf3" d="M421.1886,-890.1336C442.676,-875.8545 469.9686,-853.9848 485,-827.3762 533.3007,-741.8748 454.1746,-681.3333 521,-609.3762 521.7793,-608.5371 522.5799,-607.722 523.4004,-606.9303"/>
<polygon fill="#b6ecf3" stroke="#b6ecf3" points="525.8027,-609.4857 531.2853,-600.4197 521.3457,-604.0879 525.8027,-609.4857"/>
</g>
<!-- hidebound.core.specification_base&#45;&gt;hidebound.core.config -->
<g id="edge15" class="edge">
<title>hidebound.core.specification_base&#45;&gt;hidebound.core.config</title>
<path fill="none" stroke="#b6ecf3" d="M971.7599,-890.285C1007.8143,-877.0688 1058.9538,-859.5717 1105,-848.3762 1238.3394,-815.9566 1287.5829,-862.3801 1410,-800.3762 1458.1289,-775.9991 1499.6179,-727.45 1522.3806,-697.0719"/>
<polygon fill="#b6ecf3" stroke="#b6ecf3" points="1525.4679,-698.7806 1528.5624,-688.6477 1519.8244,-694.6392 1525.4679,-698.7806"/>
</g>
<!-- hidebound.core.specification_base&#45;&gt;hidebound.core.database -->
<g id="edge16" class="edge">
<title>hidebound.core.specification_base&#45;&gt;hidebound.core.database</title>
<path fill="none" stroke="#b6ecf3" d="M972.4323,-890.2994C1063.7141,-859.0502 1266.2059,-805.2189 1410,-881.3762 1435.1642,-894.7039 1425.6799,-914.4274 1446,-934.3762 1517.9568,-1005.0184 1583.4165,-972.3351 1636,-1058.3762 1675.966,-1123.7716 1620.6773,-1344.457 1672,-1401.3762 1676.6493,-1406.5326 1682.0135,-1410.8424 1687.8556,-1414.4344"/>
<polygon fill="#b6ecf3" stroke="#b6ecf3" points="1686.263,-1417.5519 1696.7292,-1419.1985 1689.5742,-1411.3846 1686.263,-1417.5519"/>
</g>
<!-- hidebound.core.specification_base&#45;&gt;hidebound.core.database_tools -->
<g id="edge17" class="edge">
<title>hidebound.core.specification_base&#45;&gt;hidebound.core.database_tools</title>
<path fill="none" stroke="#b6ecf3" d="M947.3955,-926.4543C978.0475,-951.5325 1032.7541,-999.4575 1069,-1049.3762 1156.6463,-1170.0848 1223.2009,-1337.7305 1247.488,-1403.4083"/>
<polygon fill="#b6ecf3" stroke="#b6ecf3" points="1244.294,-1404.8646 1251.0198,-1413.0508 1250.867,-1402.4571 1244.294,-1404.8646"/>
</g>
<!-- hidebound.core.specifications -->
<g id="node9" class="node">
<title>hidebound.core.specifications</title>
<polygon fill="#343434" stroke="#343434" points="1385.5,-926.3762 1129.5,-926.3762 1129.5,-890.3762 1385.5,-890.3762 1385.5,-926.3762"/>
<text text-anchor="middle" x="1257.5" y="-904.6762" font-family="Courier,monospace" font-size="14.00" fill="#b6ecf3">hidebound.core.specifications</text>
</g>
<!-- hidebound.core.specification_base&#45;&gt;hidebound.core.specifications -->
<g id="edge18" class="edge">
<title>hidebound.core.specification_base&#45;&gt;hidebound.core.specifications</title>
<path fill="none" stroke="#b6ecf3" d="M1069.1058,-908.3762C1085.7489,-908.3762 1102.689,-908.3762 1119.2452,-908.3762"/>
<polygon fill="#b6ecf3" stroke="#b6ecf3" points="1119.4981,-911.8763 1129.4981,-908.3762 1119.4981,-904.8763 1119.4981,-911.8763"/>
</g>
<!-- hidebound.core.tools -->
<g id="node10" class="node">
<title>hidebound.core.tools</title>
<polygon fill="#343434" stroke="#343434" points="723.5,-1544.3762 541.5,-1544.3762 541.5,-1508.3762 723.5,-1508.3762 723.5,-1544.3762"/>
<text text-anchor="middle" x="632.5" y="-1522.6762" font-family="Courier,monospace" font-size="14.00" fill="#b6ecf3">hidebound.core.tools</text>
</g>
<!-- hidebound.core.tools&#45;&gt;hidebound.core.database -->
<g id="edge19" class="edge">
<title>hidebound.core.tools&#45;&gt;hidebound.core.database</title>
<path fill="none" stroke="#b6ecf3" d="M723.6083,-1528.5433C900.8073,-1531.1848 1303.6391,-1529.4773 1636,-1471.3762 1667.6509,-1465.8432 1702.1284,-1457.2105 1731.2671,-1449.1275"/>
<polygon fill="#b6ecf3" stroke="#b6ecf3" points="1732.2515,-1452.4865 1740.9325,-1446.4127 1730.3586,-1445.7473 1732.2515,-1452.4865"/>
</g>
<!-- hidebound.core.tools&#45;&gt;hidebound.core.database_tools -->
<g id="edge20" class="edge">
<title>hidebound.core.tools&#45;&gt;hidebound.core.database_tools</title>
<path fill="none" stroke="#b6ecf3" d="M723.6754,-1526.2736C812.604,-1524.6343 951.2867,-1517.9761 1069,-1494.3762 1115.7401,-1485.0055 1166.9307,-1467.4009 1204.1557,-1453.1785"/>
<polygon fill="#b6ecf3" stroke="#b6ecf3" points="1205.7222,-1456.3255 1213.7874,-1449.4551 1203.1981,-1449.7963 1205.7222,-1456.3255"/>
</g>
<!-- hidebound.core.tools&#45;&gt;hidebound.core.specification_base -->
<g id="edge21" class="edge">
<title>hidebound.core.tools&#45;&gt;hidebound.core.specification_base</title>
<path fill="none" stroke="#b6ecf3" d="M685.0239,-1508.3424C706.9218,-1498.0644 730.3818,-1482.8545 744,-1461.3762 793.2132,-1383.7587 740.6543,-1132.4324 780,-1049.3762 803.7246,-999.2952 853.2591,-957.2939 887.6751,-932.4938"/>
<polygon fill="#b6ecf3" stroke="#b6ecf3" points="889.9231,-935.1912 896.0743,-926.5649 885.8862,-929.4724 889.9231,-935.1912"/>
</g>
<!-- hidebound.core.traits -->
<g id="node11" class="node">
<title>hidebound.core.traits</title>
<polygon fill="#343434" stroke="#343434" points="1019.5,-1452.3762 829.5,-1452.3762 829.5,-1416.3762 1019.5,-1416.3762 1019.5,-1452.3762"/>
<text text-anchor="middle" x="924.5" y="-1430.6762" font-family="Courier,monospace" font-size="14.00" fill="#b6ecf3">hidebound.core.traits</text>
</g>
<!-- hidebound.core.tools&#45;&gt;hidebound.core.traits -->
<g id="edge22" class="edge">
<title>hidebound.core.tools&#45;&gt;hidebound.core.traits</title>
<path fill="none" stroke="#b6ecf3" d="M709.8494,-1508.3557C721.5782,-1504.4402 733.318,-1499.8059 744,-1494.3762 762.0695,-1485.1916 761.6565,-1475.0006 780,-1466.3762 792.3494,-1460.5701 805.794,-1455.7957 819.3478,-1451.875"/>
<polygon fill="#b6ecf3" stroke="#b6ecf3" points="820.5033,-1455.1875 829.2223,-1449.1684 818.6528,-1448.4365 820.5033,-1455.1875"/>
</g>
<!-- hidebound.exporters.disk_exporter -->
<g id="node13" class="node">
<title>hidebound.exporters.disk_exporter</title>
<polygon fill="#343434" stroke="#343434" points="1402,-318.3762 1113,-318.3762 1113,-282.3762 1402,-282.3762 1402,-318.3762"/>
<text text-anchor="middle" x="1257.5" y="-296.6762" font-family="Courier,monospace" font-size="14.00" fill="#b6ecf3">hidebound.exporters.disk_exporter</text>
</g>
<!-- hidebound.core.tools&#45;&gt;hidebound.exporters.disk_exporter -->
<g id="edge23" class="edge">
<title>hidebound.core.tools&#45;&gt;hidebound.exporters.disk_exporter</title>
<path fill="none" stroke="#b6ecf3" d="M708.7766,-1508.3076C731.5941,-1503.3146 756.7321,-1498.2188 780,-1494.3762 843.7757,-1483.8441 1025.0338,-1508.7603 1069,-1461.3762 1138.9597,-1385.9779 1073.9862,-634.4447 1105,-536.3762 1131.9591,-451.1292 1198.4833,-366.9788 1234.1015,-326.0501"/>
<polygon fill="#b6ecf3" stroke="#b6ecf3" points="1236.8094,-328.2709 1240.7921,-318.4531 1231.5563,-323.6444 1236.8094,-328.2709"/>
</g>
<!-- hidebound.core.tools&#45;&gt;hidebound.exporters.exporter_base -->
<g id="edge24" class="edge">
<title>hidebound.core.tools&#45;&gt;hidebound.exporters.exporter_base</title>
<path fill="none" stroke="#b6ecf3" d="M686.0076,-1508.3205C707.8156,-1498.0943 730.931,-1482.9314 744,-1461.3762 788.0599,-1388.7068 724.1823,-761.4583 780,-697.3762 780.6234,-696.6606 781.2591,-695.96 781.9067,-695.2743"/>
<polygon fill="#b6ecf3" stroke="#b6ecf3" points="784.2968,-697.8313 789.2782,-688.4805 779.5528,-692.684 784.2968,-697.8313"/>
</g>
<!-- hidebound.server.app -->
<g id="node18" class="node">
<title>hidebound.server.app</title>
<polygon fill="#343434" stroke="#343434" points="2906,-1714.3762 2724,-1714.3762 2724,-1678.3762 2906,-1678.3762 2906,-1714.3762"/>
<text text-anchor="middle" x="2815" y="-1692.6762" font-family="Courier,monospace" font-size="14.00" fill="#b6ecf3">hidebound.server.app</text>
</g>
<!-- hidebound.core.tools&#45;&gt;hidebound.server.app -->
<g id="edge25" class="edge">
<title>hidebound.core.tools&#45;&gt;hidebound.server.app</title>
<path fill="none" stroke="#b6ecf3" d="M723.7153,-1535.7181C742.3246,-1537.4314 761.7827,-1539.0838 780,-1540.3762 1232.6971,-1572.4936 1346.165,-1588.3762 1800,-1588.3762 1800,-1588.3762 1800,-1588.3762 2297.5,-1588.3762 2465.6472,-1588.3762 2658.1681,-1643.6899 2754.0573,-1675.1462"/>
<polygon fill="#b6ecf3" stroke="#b6ecf3" points="2752.9967,-1678.4818 2763.59,-1678.2995 2755.1951,-1671.8359 2752.9967,-1678.4818"/>
</g>
<!-- hidebound.core.tools&#45;&gt;hidebound.server.extension -->
<g id="edge26" class="edge">
<title>hidebound.core.tools&#45;&gt;hidebound.server.extension</title>
<path fill="none" stroke="#b6ecf3" d="M647.4429,-1544.7621C670.4572,-1573.7245 714.9525,-1632.3529 744,-1687.3762 764.8854,-1726.9386 743.141,-1756.0228 780,-1781.3762 832.9132,-1817.7725 1005.2963,-1789.5207 1069,-1781.3762 1074.3664,-1780.6902 1440.6336,-1684.0623 1446,-1683.3762 1529.7627,-1672.6673 1551.5588,-1682.6312 1636,-1683.3762 1862.6931,-1685.3763 1919.4959,-1682.9078 2146,-1692.3762 2154.3289,-1692.7244 2162.9119,-1693.1392 2171.5593,-1693.5987"/>
<polygon fill="#b6ecf3" stroke="#b6ecf3" points="2171.5518,-1697.1035 2181.7287,-1694.1575 2171.9359,-1690.1141 2171.5518,-1697.1035"/>
</g>
<!-- hidebound.core.traits&#45;&gt;hidebound.core.specifications -->
<g id="edge27" class="edge">
<title>hidebound.core.traits&#45;&gt;hidebound.core.specifications</title>
<path fill="none" stroke="#b6ecf3" d="M935.9626,-1416.2701C985.5469,-1337.9479 1181.7209,-1028.0754 1240.6642,-934.9697"/>
<polygon fill="#b6ecf3" stroke="#b6ecf3" points="1243.6938,-936.7275 1246.0856,-926.4062 1237.7794,-932.9832 1243.6938,-936.7275"/>
</g>
<!-- hidebound.core.validators&#45;&gt;hidebound.core.config -->
<g id="edge28" class="edge">
<title>hidebound.core.validators&#45;&gt;hidebound.core.config</title>
<path fill="none" stroke="#b6ecf3" d="M655.9596,-564.2099C681.9783,-542.6654 723.0417,-504.2309 744,-461.3762 786.7576,-373.9475 705.7397,-308.2842 780,-245.3762 886.9282,-154.7944 1299.896,-186.6824 1410,-273.3762 1470.0923,-320.6919 1520.0303,-559.1865 1535.803,-641.9988"/>
<polygon fill="#b6ecf3" stroke="#b6ecf3" points="1532.3889,-642.7818 1537.6782,-651.9619 1539.2681,-641.487 1532.3889,-642.7818"/>
</g>
<!-- hidebound.core.validators&#45;&gt;hidebound.core.specification_base -->
<g id="edge29" class="edge">
<title>hidebound.core.validators&#45;&gt;hidebound.core.specification_base</title>
<path fill="none" stroke="#b6ecf3" d="M733.64,-600.4897C737.3708,-603.0994 740.8526,-606.0477 744,-609.3762 804.8516,-673.7302 732.4603,-730.6479 780,-805.3762 802.6511,-840.9818 842.4329,-867.9734 874.5281,-885.3753"/>
<polygon fill="#b6ecf3" stroke="#b6ecf3" points="873.3048,-888.6866 883.7841,-890.2474 876.5653,-882.4923 873.3048,-888.6866"/>
</g>
<!-- hidebound.core.validators&#45;&gt;hidebound.core.specifications -->
<g id="edge30" class="edge">
<title>hidebound.core.validators&#45;&gt;hidebound.core.specifications</title>
<path fill="none" stroke="#b6ecf3" d="M744.1102,-573.7095C837.762,-571.8095 971.4812,-582.1252 1069,-643.3762 1093.426,-658.7181 1088.5489,-673.6831 1105,-697.3762 1151.6131,-764.5093 1208.4621,-842.0769 1237.8305,-881.8441"/>
<polygon fill="#b6ecf3" stroke="#b6ecf3" points="1235.2468,-884.2369 1244.006,-890.1974 1240.8756,-880.0755 1235.2468,-884.2369"/>
</g>
<!-- hidebound.core.validators&#45;&gt;hidebound.exporters.disk_exporter -->
<g id="edge31" class="edge">
<title>hidebound.core.validators&#45;&gt;hidebound.exporters.disk_exporter</title>
<path fill="none" stroke="#b6ecf3" d="M654.9719,-564.3286C680.4737,-542.6088 721.4439,-503.7358 744,-461.3762 776.4269,-400.4796 726.3037,-353.6961 780,-310.3762 898.664,-214.6434 1093.21,-251.2754 1193.4105,-279.5146"/>
<polygon fill="#b6ecf3" stroke="#b6ecf3" points="1192.5224,-282.901 1203.1003,-282.3026 1194.458,-276.1739 1192.5224,-282.901"/>
</g>
<!-- hidebound.core.validators&#45;&gt;hidebound.exporters.exporter_base -->
<g id="edge32" class="edge">
<title>hidebound.core.validators&#45;&gt;hidebound.exporters.exporter_base</title>
<path fill="none" stroke="#b6ecf3" d="M710.7103,-600.3874C721.9242,-603.2389 733.2862,-606.2752 744,-609.3762 784.9509,-621.229 830.4181,-636.6084 865.4747,-648.9592"/>
<polygon fill="#b6ecf3" stroke="#b6ecf3" points="864.4792,-652.3195 875.0739,-652.357 866.815,-645.7207 864.4792,-652.3195"/>
</g>
<!-- hidebound.exporters.girder_exporter -->
<g id="node15" class="node">
<title>hidebound.exporters.girder_exporter</title>
<polygon fill="#343434" stroke="#343434" points="1410,-581.3762 1105,-581.3762 1105,-545.3762 1410,-545.3762 1410,-581.3762"/>
<text text-anchor="middle" x="1257.5" y="-559.6762" font-family="Courier,monospace" font-size="14.00" fill="#b6ecf3">hidebound.exporters.girder_exporter</text>
</g>
<!-- hidebound.core.validators&#45;&gt;hidebound.exporters.girder_exporter -->
<g id="edge33" class="edge">
<title>hidebound.core.validators&#45;&gt;hidebound.exporters.girder_exporter</title>
<path fill="none" stroke="#b6ecf3" d="M653.7076,-564.2536C678.3952,-542.167 718.9703,-502.6572 744,-461.3762 768.4907,-420.9843 741.3535,-388.538 780,-361.3762 885.0861,-287.519 951.1998,-310.1797 1069,-361.3762 1152.1363,-397.5077 1215.2518,-490.3735 1242.6005,-536.5208"/>
<polygon fill="#b6ecf3" stroke="#b6ecf3" points="1239.6869,-538.4731 1247.7385,-545.3595 1245.7387,-534.9551 1239.6869,-538.4731"/>
</g>
<!-- hidebound.exporters.s3_exporter -->
<g id="node16" class="node">
<title>hidebound.exporters.s3_exporter</title>
<polygon fill="#343434" stroke="#343434" points="1393.5,-688.3762 1121.5,-688.3762 1121.5,-652.3762 1393.5,-652.3762 1393.5,-688.3762"/>
<text text-anchor="middle" x="1257.5" y="-666.6762" font-family="Courier,monospace" font-size="14.00" fill="#b6ecf3">hidebound.exporters.s3_exporter</text>
</g>
<!-- hidebound.core.validators&#45;&gt;hidebound.exporters.s3_exporter -->
<g id="edge34" class="edge">
<title>hidebound.core.validators&#45;&gt;hidebound.exporters.s3_exporter</title>
<path fill="none" stroke="#b6ecf3" d="M670.6655,-564.302C750.2277,-529.4573 937.3446,-462.4988 1069,-534.3762 1094.9699,-548.5545 1083.1759,-570.3971 1105,-590.3762 1132.2794,-615.3495 1168.8035,-634.8676 1199.2682,-648.3714"/>
<polygon fill="#b6ecf3" stroke="#b6ecf3" points="1197.9435,-651.6118 1208.5113,-652.3685 1200.722,-645.1868 1197.9435,-651.6118"/>
</g>
<!-- hidebound.core.validators&#45;&gt;hidebound.server.api -->
<g id="edge35" class="edge">
<title>hidebound.core.validators&#45;&gt;hidebound.server.api</title>
<path fill="none" stroke="#b6ecf3" d="M656.2288,-564.3387C682.4946,-542.9124 723.7842,-504.5861 744,-461.3762 796.0489,-350.1254 697.4976,-278.3662 780,-187.3762 926.3528,-25.9671 1039.6192,-76.3762 1257.5,-76.3762 1257.5,-76.3762 1257.5,-76.3762 1541,-76.3762 1840.3773,-76.3762 2022.1709,-1231.3264 2050.9649,-1428.0524"/>
<polygon fill="#b6ecf3" stroke="#b6ecf3" points="2047.533,-1428.775 2052.4336,-1438.1683 2054.4603,-1427.7691 2047.533,-1428.775"/>
</g>
<!-- hidebound.exporters.disk_exporter&#45;&gt;hidebound.core.config -->
<g id="edge36" class="edge">
<title>hidebound.exporters.disk_exporter&#45;&gt;hidebound.core.config</title>
<path fill="none" stroke="#b6ecf3" d="M1391.2189,-318.4262C1398.0033,-322.3337 1404.3388,-326.945 1410,-332.3762 1456.9824,-377.4503 1423.6864,-413.2116 1446,-474.3762 1468.7818,-536.8244 1505.0716,-605.929 1525.5755,-643.1019"/>
<polygon fill="#b6ecf3" stroke="#b6ecf3" points="1522.7563,-645.2342 1530.6733,-652.2749 1528.8749,-641.8338 1522.7563,-645.2342"/>
</g>
<!-- hidebound.exporters.disk_exporter&#45;&gt;hidebound.core.database -->
<g id="edge37" class="edge">
<title>hidebound.exporters.disk_exporter&#45;&gt;hidebound.core.database</title>
<path fill="none" stroke="#b6ecf3" d="M1382.5316,-318.4676C1392.1916,-322.2776 1401.4846,-326.8626 1410,-332.3762 1553.424,-425.2419 1579.3517,-482.1762 1636,-643.3762 1663.9545,-722.9245 1617.3479,-1337.1693 1672,-1401.3762 1676.5991,-1406.7794 1681.982,-1411.2659 1687.889,-1414.979"/>
<polygon fill="#b6ecf3" stroke="#b6ecf3" points="1686.4324,-1418.1711 1696.8881,-1419.8824 1689.7817,-1412.0243 1686.4324,-1418.1711"/>
</g>
<!-- hidebound.exporters.exporter_base&#45;&gt;hidebound.exporters.disk_exporter -->
<g id="edge38" class="edge">
<title>hidebound.exporters.exporter_base&#45;&gt;hidebound.exporters.disk_exporter</title>
<path fill="none" stroke="#b6ecf3" d="M940.7867,-652.2799C995.2291,-591.7884 1171.0223,-396.4626 1234.4279,-326.0119"/>
<polygon fill="#b6ecf3" stroke="#b6ecf3" points="1237.1565,-328.2121 1241.2446,-318.4378 1231.9534,-323.5293 1237.1565,-328.2121"/>
</g>
<!-- hidebound.exporters.exporter_base&#45;&gt;hidebound.exporters.girder_exporter -->
<g id="edge39" class="edge">
<title>hidebound.exporters.exporter_base&#45;&gt;hidebound.exporters.girder_exporter</title>
<path fill="none" stroke="#b6ecf3" d="M1016.4245,-652.3484C1034.0103,-648.2449 1052.1765,-643.5491 1069,-638.3762 1117.2599,-623.5372 1170.5785,-601.7997 1208.1579,-585.5425"/>
<polygon fill="#b6ecf3" stroke="#b6ecf3" points="1209.5894,-588.7367 1217.3602,-581.5349 1206.7944,-582.3189 1209.5894,-588.7367"/>
</g>
<!-- hidebound.exporters.exporter_base&#45;&gt;hidebound.exporters.s3_exporter -->
<g id="edge40" class="edge">
<title>hidebound.exporters.exporter_base&#45;&gt;hidebound.exporters.s3_exporter</title>
<path fill="none" stroke="#b6ecf3" d="M1069.1058,-670.3762C1083.0886,-670.3762 1097.2811,-670.3762 1111.2794,-670.3762"/>
<polygon fill="#b6ecf3" stroke="#b6ecf3" points="1111.4323,-673.8763 1121.4323,-670.3762 1111.4323,-666.8763 1111.4323,-673.8763"/>
</g>
<!-- hidebound.exporters.girder_exporter&#45;&gt;hidebound.core.config -->
<g id="edge41" class="edge">
<title>hidebound.exporters.girder_exporter&#45;&gt;hidebound.core.config</title>
<path fill="none" stroke="#b6ecf3" d="M1305.2713,-581.4063C1354.4437,-599.9652 1431.0768,-628.8885 1483.5317,-648.6863"/>
<polygon fill="#b6ecf3" stroke="#b6ecf3" points="1482.4411,-652.0156 1493.0328,-652.2722 1484.9129,-645.4665 1482.4411,-652.0156"/>
</g>
<!-- hidebound.exporters.girder_exporter&#45;&gt;hidebound.core.database -->
<g id="edge42" class="edge">
<title>hidebound.exporters.girder_exporter&#45;&gt;hidebound.core.database</title>
<path fill="none" stroke="#b6ecf3" d="M1305.9881,-581.3995C1338.0245,-594.9868 1379.5589,-615.9713 1410,-643.3762 1431.4371,-662.6752 1425.4293,-677.1563 1446,-697.3762 1517.5685,-767.7244 1585.1912,-732.835 1636,-819.3762 1701.6061,-931.1213 1587.3052,-1303.3054 1672,-1401.3762 1676.5878,-1406.6886 1681.9335,-1411.1118 1687.7871,-1414.7831"/>
<polygon fill="#b6ecf3" stroke="#b6ecf3" points="1686.2424,-1417.9272 1696.6979,-1419.6399 1689.5925,-1411.7809 1686.2424,-1417.9272"/>
</g>
<!-- hidebound.exporters.s3_exporter&#45;&gt;hidebound.core.config -->
<g id="edge43" class="edge">
<title>hidebound.exporters.s3_exporter&#45;&gt;hidebound.core.config</title>
<path fill="none" stroke="#b6ecf3" d="M1393.8525,-670.3762C1407.8691,-670.3762 1421.9563,-670.3762 1435.5646,-670.3762"/>
<polygon fill="#b6ecf3" stroke="#b6ecf3" points="1435.8686,-673.8763 1445.8685,-670.3762 1435.8685,-666.8763 1435.8686,-673.8763"/>
</g>
<!-- hidebound.exporters.s3_exporter&#45;&gt;hidebound.core.database -->
<g id="edge44" class="edge">
<title>hidebound.exporters.s3_exporter&#45;&gt;hidebound.core.database</title>
<path fill="none" stroke="#b6ecf3" d="M1281.5619,-688.5775C1358.1331,-747.0406 1593.6104,-931.1892 1636,-1016.3762 1674.2811,-1093.3068 1614.8203,-1337.2339 1672,-1401.3762 1676.6708,-1406.6158 1682.0794,-1410.9837 1687.9796,-1414.6142"/>
<polygon fill="#b6ecf3" stroke="#b6ecf3" points="1686.48,-1417.7814 1696.9472,-1419.4211 1689.7871,-1411.6119 1686.48,-1417.7814"/>
</g>
<!-- hidebound.server.api&#45;&gt;hidebound.server.extension -->
<g id="edge45" class="edge">
<title>hidebound.server.api&#45;&gt;hidebound.server.extension</title>
<path fill="none" stroke="#b6ecf3" d="M2092.1566,-1474.4743C2110.867,-1485.358 2132.4054,-1500.8935 2146,-1520.3762 2181.5341,-1571.301 2140.9393,-1608.7928 2182,-1655.3762 2191.0425,-1665.6349 2202.6548,-1673.6926 2215.0181,-1680.0108"/>
<polygon fill="#b6ecf3" stroke="#b6ecf3" points="2213.5901,-1683.207 2224.1273,-1684.3106 2216.5782,-1676.8768 2213.5901,-1683.207"/>
</g>
<!-- hidebound.server.components -->
<g id="node19" class="node">
<title>hidebound.server.components</title>
<polygon fill="#343434" stroke="#343434" points="1919.5,-1950.3762 1680.5,-1950.3762 1680.5,-1914.3762 1919.5,-1914.3762 1919.5,-1950.3762"/>
<text text-anchor="middle" x="1800" y="-1928.6762" font-family="Courier,monospace" font-size="14.00" fill="#b6ecf3">hidebound.server.components</text>
</g>
<!-- hidebound.server.components&#45;&gt;hidebound.server.app -->
<g id="edge46" class="edge">
<title>hidebound.server.components&#45;&gt;hidebound.server.app</title>
<path fill="none" stroke="#b6ecf3" d="M1860.7956,-1950.4203C2013.4506,-1991.903 2419.8384,-2078.3144 2688,-1912.3762 2757.7881,-1869.1914 2793.6883,-1772.3499 2807.7466,-1724.3885"/>
<polygon fill="#b6ecf3" stroke="#b6ecf3" points="2811.1441,-1725.2357 2810.4932,-1714.6609 2804.4075,-1723.3336 2811.1441,-1725.2357"/>
</g>
<!-- hidebound.server.extensions -->
<g id="node21" class="node">
<title>hidebound.server.extensions</title>
<polygon fill="#343434" stroke="#343434" points="2688,-1869.3762 2449,-1869.3762 2449,-1833.3762 2688,-1833.3762 2688,-1869.3762"/>
<text text-anchor="middle" x="2568.5" y="-1847.6762" font-family="Courier,monospace" font-size="14.00" fill="#b6ecf3">hidebound.server.extensions</text>
</g>
<!-- hidebound.server.extension&#45;&gt;hidebound.server.extensions -->
<g id="edge47" class="edge">
<title>hidebound.server.extension&#45;&gt;hidebound.server.extensions</title>
<path fill="none" stroke="#b6ecf3" d="M2330.459,-1720.4976C2379.6631,-1747.5508 2472.3108,-1798.4899 2526.3683,-1828.2116"/>
<polygon fill="#b6ecf3" stroke="#b6ecf3" points="2524.8977,-1831.3972 2535.3469,-1833.1482 2528.2703,-1825.2632 2524.8977,-1831.3972"/>
</g>
<!-- hidebound.server.extensions&#45;&gt;hidebound.server.api -->
<g id="edge48" class="edge">
<title>hidebound.server.extensions&#45;&gt;hidebound.server.api</title>
<path fill="none" stroke="#b6ecf3" d="M2555.0381,-1833.2953C2529.5896,-1799.8099 2471.693,-1726.8711 2413,-1675.3762 2305.4212,-1580.9909 2271.6613,-1563.8673 2146,-1495.3762 2135.044,-1489.4047 2122.9841,-1483.6838 2111.3274,-1478.5516"/>
<polygon fill="#b6ecf3" stroke="#b6ecf3" points="2112.6626,-1475.3159 2102.0942,-1474.5683 2109.8898,-1481.7433 2112.6626,-1475.3159"/>
</g>
<!-- hidebound.server.extensions&#45;&gt;hidebound.server.app -->
<g id="edge49" class="edge">
<title>hidebound.server.extensions&#45;&gt;hidebound.server.app</title>
<path fill="none" stroke="#b6ecf3" d="M2656.7006,-1833.2896C2667.5833,-1829.4715 2678.2832,-1824.8821 2688,-1819.3762 2731.9936,-1794.4481 2771.9578,-1750.6682 2794.8606,-1722.6219"/>
<polygon fill="#b6ecf3" stroke="#b6ecf3" points="2797.6013,-1724.7988 2801.1317,-1714.8095 2792.1424,-1720.4169 2797.6013,-1724.7988"/>
</g>
<!-- hidebound.server.server_tools&#45;&gt;hidebound.server.api -->
<g id="edge50" class="edge">
<title>hidebound.server.server_tools&#45;&gt;hidebound.server.api</title>
<path fill="none" stroke="#b6ecf3" d="M1857.1386,-1860.2588C1881.8013,-1849.935 1909.2364,-1834.7117 1928,-1813.3762 2015.4497,-1713.9404 2043.8961,-1550.1542 2052.0604,-1484.6942"/>
<polygon fill="#b6ecf3" stroke="#b6ecf3" points="2055.5431,-1485.0459 2053.242,-1474.704 2048.5916,-1484.2236 2055.5431,-1485.0459"/>
</g>
<!-- hidebound.server.server_tools&#45;&gt;hidebound.server.app -->
<g id="edge51" class="edge">
<title>hidebound.server.server_tools&#45;&gt;hidebound.server.app</title>
<path fill="none" stroke="#b6ecf3" d="M1928.3586,-1893.4401C2142.5255,-1916.1141 2561.7252,-1949.2818 2688,-1878.3762 2749.4522,-1843.8697 2787.9254,-1765.7557 2804.8836,-1723.9684"/>
<polygon fill="#b6ecf3" stroke="#b6ecf3" points="2808.2369,-1725.0049 2808.6404,-1714.4177 2801.7227,-1722.4425 2808.2369,-1725.0049"/>
</g>
<!-- dash -->
<g id="node23" class="node">
<title>dash</title>
<polygon fill="#343434" stroke="#343434" points="1568,-1132.3762 1514,-1132.3762 1514,-1096.3762 1568,-1096.3762 1568,-1132.3762"/>
<text text-anchor="middle" x="1541" y="-1110.6762" font-family="Courier,monospace" font-size="14.00" fill="#de958e">dash</text>
</g>
<!-- dash&#45;&gt;hidebound.server.app -->
<g id="edge52" class="edge">
<title>dash&#45;&gt;hidebound.server.app</title>
<path fill="none" stroke="#de958e" d="M1568.3279,-1120.1697C1587.4774,-1124.4982 1613.5561,-1130.9342 1636,-1138.3762 1756.0999,-1178.1996 2582.1006,-1505.1289 2688,-1574.3762 2729.5097,-1601.5194 2769.4076,-1643.2502 2793.0688,-1670.1824"/>
<polygon fill="#de958e" stroke="#de958e" points="2790.6795,-1672.7696 2799.8744,-1678.033 2795.9687,-1668.1843 2790.6795,-1672.7696"/>
</g>
<!-- dash&#45;&gt;hidebound.server.components -->
<g id="edge53" class="edge">
<title>dash&#45;&gt;hidebound.server.components</title>
<path fill="none" stroke="#de958e" d="M1554.1135,-1132.5718C1575.7357,-1163.7163 1618.24,-1230.0287 1636,-1293.3762 1654.3883,-1358.9649 1627.5558,-1853.7554 1672,-1905.3762 1672.5279,-1905.9894 1673.0659,-1906.5907 1673.6136,-1907.1804"/>
<polygon fill="#de958e" stroke="#de958e" points="1671.5215,-1910.0117 1681.2497,-1914.2085 1676.262,-1904.8611 1671.5215,-1910.0117"/>
</g>
<!-- dash_cytoscape -->
<g id="node24" class="node">
<title>dash_cytoscape</title>
<polygon fill="#343434" stroke="#343434" points="1607,-2112.3762 1475,-2112.3762 1475,-2076.3762 1607,-2076.3762 1607,-2112.3762"/>
<text text-anchor="middle" x="1541" y="-2090.6762" font-family="Courier,monospace" font-size="14.00" fill="#de958e">dash_cytoscape</text>
</g>
<!-- dash_cytoscape&#45;&gt;hidebound.server.components -->
<g id="edge54" class="edge">
<title>dash_cytoscape&#45;&gt;hidebound.server.components</title>
<path fill="none" stroke="#de958e" d="M1607.1985,-2080.6932C1617.7786,-2076.2122 1627.8932,-2070.266 1636,-2062.3762 1669.2529,-2030.0138 1637.4807,-1995.3843 1672,-1964.3762 1675.6424,-1961.1043 1679.5689,-1958.1557 1683.7067,-1955.4992"/>
<polygon fill="#de958e" stroke="#de958e" points="1685.5571,-1958.4725 1692.4735,-1950.4466 1682.0617,-1952.4076 1685.5571,-1958.4725"/>
</g>
<!-- dash.dependencies -->
<g id="node25" class="node">
<title>dash.dependencies</title>
<polygon fill="#343434" stroke="#343434" points="2647,-1444.3762 2490,-1444.3762 2490,-1408.3762 2647,-1408.3762 2647,-1444.3762"/>
<text text-anchor="middle" x="2568.5" y="-1422.6762" font-family="Courier,monospace" font-size="14.00" fill="#de958e">dash.dependencies</text>
</g>
<!-- dash.dependencies&#45;&gt;hidebound.server.app -->
<g id="edge55" class="edge">
<title>dash.dependencies&#45;&gt;hidebound.server.app</title>
<path fill="none" stroke="#de958e" d="M2647.1251,-1437.6002C2661.7527,-1442.3033 2676.1423,-1448.9601 2688,-1458.3762 2757.8519,-1513.8455 2794.0611,-1618.5078 2808.024,-1668.4673"/>
<polygon fill="#de958e" stroke="#de958e" points="2804.6827,-1669.5195 2810.67,-1678.2604 2811.4404,-1667.6936 2804.6827,-1669.5195"/>
</g>
<!-- dash.exceptions -->
<g id="node26" class="node">
<title>dash.exceptions</title>
<polygon fill="#343434" stroke="#343434" points="2638.5,-1390.3762 2498.5,-1390.3762 2498.5,-1354.3762 2638.5,-1354.3762 2638.5,-1390.3762"/>
<text text-anchor="middle" x="2568.5" y="-1368.6762" font-family="Courier,monospace" font-size="14.00" fill="#de958e">dash.exceptions</text>
</g>
<!-- dash.exceptions&#45;&gt;hidebound.server.app -->
<g id="edge56" class="edge">
<title>dash.exceptions&#45;&gt;hidebound.server.app</title>
<path fill="none" stroke="#de958e" d="M2638.6308,-1376.9359C2656.267,-1380.9427 2674.1081,-1387.8061 2688,-1399.3762 2773.1885,-1470.327 2802.5423,-1608.8154 2811.4943,-1668.2173"/>
<polygon fill="#de958e" stroke="#de958e" points="2808.0628,-1668.9475 2812.9372,-1678.3544 2814.993,-1667.961 2808.0628,-1668.9475"/>
</g>
<!-- flask_monitoringdashboard -->
<g id="node27" class="node">
<title>flask_monitoringdashboard</title>
<polygon fill="#343434" stroke="#343434" points="2680,-1336.3762 2457,-1336.3762 2457,-1300.3762 2680,-1300.3762 2680,-1336.3762"/>
<text text-anchor="middle" x="2568.5" y="-1314.6762" font-family="Courier,monospace" font-size="14.00" fill="#de958e">flask_monitoringdashboard</text>
</g>
<!-- flask_monitoringdashboard&#45;&gt;hidebound.server.app -->
<g id="edge57" class="edge">
<title>flask_monitoringdashboard&#45;&gt;hidebound.server.app</title>
<path fill="none" stroke="#de958e" d="M2675.6147,-1336.388C2680.0117,-1339.0179 2684.1721,-1341.9991 2688,-1345.3762 2786.2788,-1432.0823 2808.5378,-1600.8537 2813.5525,-1667.9125"/>
<polygon fill="#de958e" stroke="#de958e" points="2810.0767,-1668.392 2814.2398,-1678.1347 2817.061,-1667.9223 2810.0767,-1668.392"/>
</g>
<!-- hidebound.server -->
<g id="node28" class="node">
<title>hidebound.server</title>
<polygon fill="#343434" stroke="#343434" points="1615.5,-2204.3762 1466.5,-2204.3762 1466.5,-2168.3762 1615.5,-2168.3762 1615.5,-2204.3762"/>
<text text-anchor="middle" x="1541" y="-2182.6762" font-family="Courier,monospace" font-size="14.00" fill="#a0d17b">hidebound.server</text>
</g>
<!-- hidebound.server&#45;&gt;hidebound.server.api -->
<g id="edge58" class="edge">
<title>hidebound.server&#45;&gt;hidebound.server.api</title>
<path fill="none" stroke="#a0d17b" d="M1576.6834,-2168.3509C1596.2499,-2157.0271 1619.7571,-2140.8777 1636,-2121.3762 1661.2127,-2091.1055 1642.6306,-2066.6334 1672,-2040.3762 1760.9664,-1960.8378 1846.1469,-2046.2177 1928,-1959.3762 1994.6222,-1888.6939 2039.1338,-1580.0581 2051.5003,-1484.6086"/>
<polygon fill="#a0d17b" stroke="#a0d17b" points="2054.9899,-1484.9117 2052.7862,-1474.5486 2048.0464,-1484.0241 2054.9899,-1484.9117"/>
</g>
<!-- hidebound.server&#45;&gt;hidebound.server.app -->
<g id="edge59" class="edge">
<title>hidebound.server&#45;&gt;hidebound.server.app</title>
<path fill="none" stroke="#a0d17b" d="M1615.9018,-2184.2434C1715.9704,-2181.5819 1898.8129,-2177.3762 2055,-2177.3762 2055,-2177.3762 2055,-2177.3762 2297.5,-2177.3762 2494.3499,-2177.3762 2552.6568,-2111.3171 2688,-1968.3762 2757.2008,-1895.2908 2794.2693,-1777.6776 2808.3034,-1724.3135"/>
<polygon fill="#a0d17b" stroke="#a0d17b" points="2811.7187,-1725.0849 2810.8058,-1714.5295 2804.937,-1723.3504 2811.7187,-1725.0849"/>
</g>
<!-- hidebound.server&#45;&gt;hidebound.server.components -->
<g id="edge60" class="edge">
<title>hidebound.server&#45;&gt;hidebound.server.components</title>
<path fill="none" stroke="#a0d17b" d="M1580.5539,-2168.1542C1600.0533,-2157.2317 1622.2724,-2141.5249 1636,-2121.3762 1676.3082,-2062.2138 1621.8771,-2015.4901 1672,-1964.3762 1675.0221,-1961.2944 1678.2929,-1958.4928 1681.7592,-1955.947"/>
<polygon fill="#a0d17b" stroke="#a0d17b" points="1683.7116,-1958.8524 1690.1776,-1950.4594 1679.889,-1952.9882 1683.7116,-1958.8524"/>
</g>
<!-- hidebound.server&#45;&gt;hidebound.server.extension -->
<g id="edge61" class="edge">
<title>hidebound.server&#45;&gt;hidebound.server.extension</title>
<path fill="none" stroke="#a0d17b" d="M1614.8678,-2168.3211C1622.5144,-2164.5201 1629.7565,-2159.9263 1636,-2154.3762 1663.9344,-2129.5446 1642.4023,-2101.1998 1672,-2078.3762 1763.6705,-2007.6867 1824.0504,-2081.3171 1928,-2030.3762 2008.4491,-1990.9518 2203.6264,-1797.4804 2272.7383,-1727.6069"/>
<polygon fill="#a0d17b" stroke="#a0d17b" points="2275.2446,-1730.0501 2279.7793,-1720.4747 2270.2631,-1725.1323 2275.2446,-1730.0501"/>
</g>
<!-- hidebound.server&#45;&gt;hidebound.server.extensions -->
<g id="edge62" class="edge">
<title>hidebound.server&#45;&gt;hidebound.server.extensions</title>
<path fill="none" stroke="#a0d17b" d="M1602.1762,-2168.355C1678.6137,-2145.6929 1813.3264,-2105.2748 1928,-2068.3762 2141.6666,-1999.6247 2393.4083,-1912.5394 2507.1965,-1872.8456"/>
<polygon fill="#a0d17b" stroke="#a0d17b" points="2508.5018,-1876.0971 2516.7899,-1869.4972 2506.1951,-1869.4881 2508.5018,-1876.0971"/>
</g>
<!-- hidebound.server&#45;&gt;hidebound.server.server_tools -->
<g id="edge63" class="edge">
<title>hidebound.server&#45;&gt;hidebound.server.server_tools</title>
<path fill="none" stroke="#a0d17b" d="M1581.5413,-2168.2192C1601.0584,-2157.3969 1622.9931,-2141.7608 1636,-2121.3762 1688.351,-2039.3313 1604.6677,-1975.6497 1672,-1905.3762 1672.7856,-1904.5563 1673.5894,-1903.7581 1674.4103,-1902.9811"/>
<polygon fill="#a0d17b" stroke="#a0d17b" points="1676.7342,-1905.6015 1682.2336,-1896.5457 1672.2873,-1900.1954 1676.7342,-1905.6015"/>
</g>
<!-- rolling_pin.blob_etl -->
<g id="node29" class="node">
<title>rolling_pin.blob_etl</title>
<polygon fill="#343434" stroke="#343434" points="1632,-2020.3762 1450,-2020.3762 1450,-1984.3762 1632,-1984.3762 1632,-2020.3762"/>
<text text-anchor="middle" x="1541" y="-1998.6762" font-family="Courier,monospace" font-size="14.00" fill="#de958e">rolling_pin.blob_etl</text>
</g>
<!-- rolling_pin.blob_etl&#45;&gt;hidebound.server.components -->
<g id="edge64" class="edge">
<title>rolling_pin.blob_etl&#45;&gt;hidebound.server.components</title>
<path fill="none" stroke="#de958e" d="M1605.182,-1984.3203C1615.4971,-1981.3651 1626.05,-1978.31 1636,-1975.3762 1652.0472,-1970.6447 1655.8793,-1968.851 1672,-1964.3762 1685.8982,-1960.5184 1700.7036,-1956.6223 1715.1289,-1952.9402"/>
<polygon fill="#de958e" stroke="#de958e" points="1716.2056,-1956.2781 1725.0392,-1950.4284 1714.4857,-1949.4926 1716.2056,-1956.2781"/>
</g>
<!-- rolling_pin.blob_etl&#45;&gt;hidebound.server.server_tools -->
<g id="edge65" class="edge">
<title>rolling_pin.blob_etl&#45;&gt;hidebound.server.server_tools</title>
<path fill="none" stroke="#de958e" d="M1622.6295,-1984.2742C1627.3792,-1981.6932 1631.8882,-1978.7447 1636,-1975.3762 1663.0627,-1953.2061 1644.1885,-1926.5994 1672,-1905.3762 1673.6588,-1904.1104 1675.3634,-1902.9007 1677.1083,-1901.7446"/>
<polygon fill="#de958e" stroke="#de958e" points="1679.3187,-1904.5037 1686.1445,-1896.4006 1675.7554,-1898.4785 1679.3187,-1904.5037"/>
</g>
<!-- flask -->
<g id="node30" class="node">
<title>flask</title>
<polygon fill="#343434" stroke="#343434" points="1570,-1836.3762 1512,-1836.3762 1512,-1800.3762 1570,-1800.3762 1570,-1836.3762"/>
<text text-anchor="middle" x="1541" y="-1814.6762" font-family="Courier,monospace" font-size="14.00" fill="#de958e">flask</text>
</g>
<!-- flask&#45;&gt;hidebound.server.api -->
<g id="edge66" class="edge">
<title>flask&#45;&gt;hidebound.server.api</title>
<path fill="none" stroke="#de958e" d="M1570.259,-1815.9622C1590.5496,-1812.9766 1617.1988,-1806.3008 1636,-1791.3762 1661.8651,-1770.8442 1649.9462,-1750.9567 1672,-1726.3762 1774.1965,-1612.4711 1932.9912,-1520.1831 2010.0338,-1479.242"/>
<polygon fill="#de958e" stroke="#de958e" points="2011.802,-1482.2664 2019.0147,-1474.5057 2008.5366,-1476.0747 2011.802,-1482.2664"/>
</g>
<!-- flask&#45;&gt;hidebound.server.app -->
<g id="edge67" class="edge">
<title>flask&#45;&gt;hidebound.server.app</title>
<path fill="none" stroke="#de958e" d="M1570.1784,-1819.1743C1634.7599,-1820.6831 1794.6325,-1822.9998 1928,-1813.3762 2214.2327,-1792.7221 2549.3161,-1740.9398 2713.6514,-1713.7181"/>
<polygon fill="#de958e" stroke="#de958e" points="2714.4558,-1717.1325 2723.747,-1712.041 2713.3086,-1710.2271 2714.4558,-1717.1325"/>
</g>
<!-- flask&#45;&gt;hidebound.server.components -->
<g id="edge68" class="edge">
<title>flask&#45;&gt;hidebound.server.components</title>
<path fill="none" stroke="#de958e" d="M1562.6919,-1836.5757C1587.5313,-1856.4722 1630.2051,-1887.8501 1672,-1905.3762 1677.0397,-1907.4896 1682.2629,-1909.4442 1687.5905,-1911.2512"/>
<polygon fill="#de958e" stroke="#de958e" points="1686.6851,-1914.6362 1697.276,-1914.3469 1688.8163,-1907.9685 1686.6851,-1914.6362"/>
</g>
<!-- flask&#45;&gt;hidebound.server.extension -->
<g id="edge69" class="edge">
<title>flask&#45;&gt;hidebound.server.extension</title>
<path fill="none" stroke="#de958e" d="M1570.1482,-1813.6218C1589.6461,-1809.6129 1615.4053,-1802.6747 1636,-1791.3762 1654.7684,-1781.0797 1652.3564,-1767.885 1672,-1759.3762 1694.5449,-1749.6108 1995.4421,-1725.3386 2171.5361,-1711.8296"/>
<polygon fill="#de958e" stroke="#de958e" points="2171.944,-1715.3087 2181.6475,-1711.0552 2171.4094,-1708.3291 2171.944,-1715.3087"/>
</g>
<!-- flask&#45;&gt;hidebound.server.server_tools -->
<g id="edge70" class="edge">
<title>flask&#45;&gt;hidebound.server.server_tools</title>
<path fill="none" stroke="#de958e" d="M1570.2071,-1825.1424C1604.5005,-1833.0868 1662.9712,-1846.6321 1712.3477,-1858.0707"/>
<polygon fill="#de958e" stroke="#de958e" points="1711.56,-1861.4808 1722.0919,-1860.328 1713.1398,-1854.6614 1711.56,-1861.4808"/>
</g>
<!-- jinja2 -->
<g id="node31" class="node">
<title>jinja2</title>
<polygon fill="#343434" stroke="#343434" points="1574,-1966.3762 1508,-1966.3762 1508,-1930.3762 1574,-1930.3762 1574,-1966.3762"/>
<text text-anchor="middle" x="1541" y="-1944.6762" font-family="Courier,monospace" font-size="14.00" fill="#de958e">jinja2</text>
</g>
<!-- jinja2&#45;&gt;hidebound.server.server_tools -->
<g id="edge71" class="edge">
<title>jinja2&#45;&gt;hidebound.server.server_tools</title>
<path fill="none" stroke="#de958e" d="M1574.0432,-1937.0725C1606.3751,-1926.0953 1653.391,-1910.377 1672,-1905.3762 1680.6173,-1903.0605 1689.6045,-1900.8197 1698.645,-1898.6852"/>
<polygon fill="#de958e" stroke="#de958e" points="1699.5082,-1902.078 1708.4609,-1896.4123 1697.9291,-1895.2584 1699.5082,-1902.078"/>
</g>
<!-- pandasql -->
<g id="node32" class="node">
<title>pandasql</title>
<polygon fill="#343434" stroke="#343434" points="1582.5,-1446.3762 1499.5,-1446.3762 1499.5,-1410.3762 1582.5,-1410.3762 1582.5,-1446.3762"/>
<text text-anchor="middle" x="1541" y="-1424.6762" font-family="Courier,monospace" font-size="14.00" fill="#de958e">pandasql</text>
</g>
<!-- pandasql&#45;&gt;hidebound.core.database -->
<g id="edge72" class="edge">
<title>pandasql&#45;&gt;hidebound.core.database</title>
<path fill="none" stroke="#de958e" d="M1582.6128,-1428.3762C1610.78,-1428.3762 1649.4504,-1428.3762 1686.3731,-1428.3762"/>
<polygon fill="#de958e" stroke="#de958e" points="1686.7307,-1431.8763 1696.7307,-1428.3762 1686.7307,-1424.8763 1686.7307,-1431.8763"/>
</g>
<!-- requests.exceptions -->
<g id="node33" class="node">
<title>requests.exceptions</title>
<polygon fill="#343434" stroke="#343434" points="1627.5,-1392.3762 1454.5,-1392.3762 1454.5,-1356.3762 1627.5,-1356.3762 1627.5,-1392.3762"/>
<text text-anchor="middle" x="1541" y="-1370.6762" font-family="Courier,monospace" font-size="14.00" fill="#de958e">requests.exceptions</text>
</g>
<!-- requests.exceptions&#45;&gt;hidebound.core.database -->
<g id="edge73" class="edge">
<title>requests.exceptions&#45;&gt;hidebound.core.database</title>
<path fill="none" stroke="#de958e" d="M1627.6033,-1392.4325C1652.0102,-1397.5212 1678.7088,-1403.0877 1703.6489,-1408.2876"/>
<polygon fill="#de958e" stroke="#de958e" points="1702.9744,-1411.7222 1713.4783,-1410.337 1704.4032,-1404.8695 1702.9744,-1411.7222"/>
</g>
<!-- flasgger -->
<g id="node34" class="node">
<title>flasgger</title>
<polygon fill="#343434" stroke="#343434" points="1841.5,-1804.3762 1758.5,-1804.3762 1758.5,-1768.3762 1841.5,-1768.3762 1841.5,-1804.3762"/>
<text text-anchor="middle" x="1800" y="-1782.6762" font-family="Courier,monospace" font-size="14.00" fill="#de958e">flasgger</text>
</g>
<!-- flasgger&#45;&gt;hidebound.server.api -->
<g id="edge74" class="edge">
<title>flasgger&#45;&gt;hidebound.server.api</title>
<path fill="none" stroke="#de958e" d="M1826.6463,-1768.2046C1854.3293,-1748.405 1897.7509,-1714.6716 1928,-1678.3762 1980.5932,-1615.2706 2023.4987,-1527.4309 2043.2506,-1483.5656"/>
<polygon fill="#de958e" stroke="#de958e" points="2046.4624,-1484.9567 2047.329,-1474.3973 2040.0667,-1482.1116 2046.4624,-1484.9567"/>
</g>
<!-- flasgger&#45;&gt;hidebound.server.extensions -->
<g id="edge75" class="edge">
<title>flasgger&#45;&gt;hidebound.server.extensions</title>
<path fill="none" stroke="#de958e" d="M1841.5228,-1799.8077C1911.052,-1821.5173 2055.8343,-1863.3977 2182,-1878.3762 2283.9507,-1890.48 2310.7124,-1887.1906 2413,-1878.3762 2431.5123,-1876.781 2451.1282,-1874.1364 2469.9641,-1871.1102"/>
<polygon fill="#de958e" stroke="#de958e" points="2470.7381,-1874.5298 2480.0333,-1869.4455 2469.5963,-1867.6236 2470.7381,-1874.5298"/>
</g>
<!-- yaml -->
<g id="node35" class="node">
<title>yaml</title>
<polygon fill="#343434" stroke="#343434" points="1568,-1782.3762 1514,-1782.3762 1514,-1746.3762 1568,-1746.3762 1568,-1782.3762"/>
<text text-anchor="middle" x="1541" y="-1760.6762" font-family="Courier,monospace" font-size="14.00" fill="#de958e">yaml</text>
</g>
<!-- yaml&#45;&gt;hidebound.core.database -->
<g id="edge76" class="edge">
<title>yaml&#45;&gt;hidebound.core.database</title>
<path fill="none" stroke="#de958e" d="M1568.1926,-1762.9279C1589.0364,-1760.4675 1617.307,-1754.0271 1636,-1737.3762 1667.2474,-1709.5426 1653.5095,-1687.9157 1672,-1650.3762 1707.7298,-1577.8376 1757.2454,-1496.3977 1782.9615,-1455.2601"/>
<polygon fill="#de958e" stroke="#de958e" points="1786.0206,-1456.97 1788.3716,-1446.6393 1780.0914,-1453.2491 1786.0206,-1456.97"/>
</g>
<!-- yaml&#45;&gt;hidebound.server.extension -->
<g id="edge77" class="edge">
<title>yaml&#45;&gt;hidebound.server.extension</title>
<path fill="none" stroke="#de958e" d="M1568.067,-1756.836C1587.0969,-1751.4974 1613.1397,-1744.1166 1636,-1737.3762 1652.0472,-1732.6447 1655.5038,-1729.1646 1672,-1726.3762 1843.3593,-1697.4112 2044.7168,-1695.2687 2171.7241,-1697.7405"/>
<polygon fill="#de958e" stroke="#de958e" points="2171.8066,-1701.2428 2181.877,-1697.951 2171.9518,-1694.2443 2171.8066,-1701.2428"/>
</g>
<!-- yaml&#45;&gt;hidebound.server.server_tools -->
<g id="edge78" class="edge">
<title>yaml&#45;&gt;hidebound.server.server_tools</title>
<path fill="none" stroke="#de958e" d="M1568.2954,-1770.0525C1587.6606,-1774.5754 1614.011,-1781.7477 1636,-1791.3762 1653.1766,-1798.8975 1655.6279,-1804.2352 1672,-1813.3762 1698.6286,-1828.2437 1729.046,-1843.7493 1753.546,-1855.8859"/>
<polygon fill="#de958e" stroke="#de958e" points="1752.1092,-1859.0798 1762.6259,-1860.3641 1755.2055,-1852.8018 1752.1092,-1859.0798"/>
</g>
<!-- werkzeug.exceptions -->
<g id="node36" class="node">
<title>werkzeug.exceptions</title>
<polygon fill="#343434" stroke="#343434" points="1886.5,-1392.3762 1713.5,-1392.3762 1713.5,-1356.3762 1886.5,-1356.3762 1886.5,-1392.3762"/>
<text text-anchor="middle" x="1800" y="-1370.6762" font-family="Courier,monospace" font-size="14.00" fill="#de958e">werkzeug.exceptions</text>
</g>
<!-- werkzeug.exceptions&#45;&gt;hidebound.server.api -->
<g id="edge79" class="edge">
<title>werkzeug.exceptions&#45;&gt;hidebound.server.api</title>
<path fill="none" stroke="#de958e" d="M1886.683,-1390.1907C1900.622,-1393.4392 1914.7993,-1397.1726 1928,-1401.3762 1955.791,-1410.2261 1985.7809,-1423.0492 2009.6359,-1434.0878"/>
<polygon fill="#de958e" stroke="#de958e" points="2008.2514,-1437.3042 2018.7919,-1438.376 2011.2203,-1430.965 2008.2514,-1437.3042"/>
</g>
<!-- flask_healthz -->
<g id="node37" class="node">
<title>flask_healthz</title>
<polygon fill="#343434" stroke="#343434" points="2359.5,-1869.3762 2235.5,-1869.3762 2235.5,-1833.3762 2359.5,-1833.3762 2359.5,-1869.3762"/>
<text text-anchor="middle" x="2297.5" y="-1847.6762" font-family="Courier,monospace" font-size="14.00" fill="#de958e">flask_healthz</text>
</g>
<!-- flask_healthz&#45;&gt;hidebound.server.extensions -->
<g id="edge80" class="edge">
<title>flask_healthz&#45;&gt;hidebound.server.extensions</title>
<path fill="none" stroke="#de958e" d="M2359.6729,-1851.3762C2383.263,-1851.3762 2411.0964,-1851.3762 2438.6201,-1851.3762"/>
<polygon fill="#de958e" stroke="#de958e" points="2438.738,-1854.8763 2448.7379,-1851.3762 2438.7379,-1847.8763 2438.738,-1854.8763"/>
</g>
<!-- requests -->
<g id="node38" class="node">
<title>requests</title>
<polygon fill="#343434" stroke="#343434" points="1582.5,-1728.3762 1499.5,-1728.3762 1499.5,-1692.3762 1582.5,-1692.3762 1582.5,-1728.3762"/>
<text text-anchor="middle" x="1541" y="-1706.6762" font-family="Courier,monospace" font-size="14.00" fill="#de958e">requests</text>
</g>
<!-- requests&#45;&gt;hidebound.core.database -->
<g id="edge81" class="edge">
<title>requests&#45;&gt;hidebound.core.database</title>
<path fill="none" stroke="#de958e" d="M1582.7156,-1702.7002C1600.4603,-1697.9037 1620.5723,-1690.2895 1636,-1678.3762 1714.9596,-1617.4035 1767.7944,-1507.0794 1789.2283,-1455.8674"/>
<polygon fill="#de958e" stroke="#de958e" points="1792.5363,-1457.0255 1793.0948,-1446.4454 1786.0604,-1454.3679 1792.5363,-1457.0255"/>
</g>
<!-- requests&#45;&gt;hidebound.server.server_tools -->
<g id="edge82" class="edge">
<title>requests&#45;&gt;hidebound.server.server_tools</title>
<path fill="none" stroke="#de958e" d="M1582.9708,-1714.5174C1600.9719,-1718.1269 1621.2143,-1724.8549 1636,-1737.3762 1664.5222,-1761.5304 1645.9374,-1786.5867 1672,-1813.3762 1689.948,-1831.8248 1714.2455,-1845.9667 1736.8489,-1856.2743"/>
<polygon fill="#de958e" stroke="#de958e" points="1735.5101,-1859.5089 1746.0741,-1860.3177 1738.3202,-1853.0977 1735.5101,-1859.5089"/>
</g>
<!-- requests.models -->
<g id="node39" class="node">
<title>requests.models</title>
<polygon fill="#343434" stroke="#343434" points="1611,-1338.3762 1471,-1338.3762 1471,-1302.3762 1611,-1302.3762 1611,-1338.3762"/>
<text text-anchor="middle" x="1541" y="-1316.6762" font-family="Courier,monospace" font-size="14.00" fill="#de958e">requests.models</text>
</g>
<!-- requests.models&#45;&gt;hidebound.core.database -->
<g id="edge83" class="edge">
<title>requests.models&#45;&gt;hidebound.core.database</title>
<path fill="none" stroke="#de958e" d="M1611.1264,-1334.0921C1619.965,-1337.5682 1628.5177,-1341.9225 1636,-1347.3762 1659.3096,-1364.3663 1648.1181,-1385.2005 1672,-1401.3762 1676.8787,-1404.6807 1682.0833,-1407.5927 1687.4976,-1410.1578"/>
<polygon fill="#de958e" stroke="#de958e" points="1686.2178,-1413.4174 1696.7869,-1414.1553 1688.9849,-1406.9875 1686.2178,-1413.4174"/>
</g>
<!-- lunchbox.tools -->
<g id="node40" class="node">
<title>lunchbox.tools</title>
<polygon fill="#343434" stroke="#343434" points="990.5,-1772.3762 858.5,-1772.3762 858.5,-1736.3762 990.5,-1736.3762 990.5,-1772.3762"/>
<text text-anchor="middle" x="924.5" y="-1750.6762" font-family="Courier,monospace" font-size="14.00" fill="#de958e">lunchbox.tools</text>
</g>
<!-- lunchbox.tools&#45;&gt;hidebound.core.database_tools -->
<g id="edge84" class="edge">
<title>lunchbox.tools&#45;&gt;hidebound.core.database_tools</title>
<path fill="none" stroke="#de958e" d="M976.4677,-1736.2878C1005.6566,-1724.4731 1041.6069,-1707.0211 1069,-1684.3762 1149.9085,-1617.4921 1215.3198,-1508.9587 1243.0926,-1458.6202"/>
<polygon fill="#de958e" stroke="#de958e" points="1246.2749,-1460.0948 1247.9874,-1449.6392 1240.1286,-1456.7448 1246.2749,-1460.0948"/>
</g>
<!-- lunchbox.tools&#45;&gt;hidebound.server.server_tools -->
<g id="edge85" class="edge">
<title>lunchbox.tools&#45;&gt;hidebound.server.server_tools</title>
<path fill="none" stroke="#de958e" d="M981.2062,-1772.4803C1076.1553,-1801.7421 1273.8506,-1858.1912 1446,-1878.3762 1516.6874,-1886.6646 1595.8617,-1887.4543 1661.3798,-1885.8334"/>
<polygon fill="#de958e" stroke="#de958e" points="1661.8723,-1889.3215 1671.7744,-1885.5534 1661.6837,-1882.3241 1661.8723,-1889.3215"/>
</g>
<!-- botocore.exceptions -->
<g id="node41" class="node">
<title>botocore.exceptions</title>
<polygon fill="#343434" stroke="#343434" points="1011,-796.3762 838,-796.3762 838,-760.3762 1011,-760.3762 1011,-796.3762"/>
<text text-anchor="middle" x="924.5" y="-774.6762" font-family="Courier,monospace" font-size="14.00" fill="#de958e">botocore.exceptions</text>
</g>
<!-- botocore.exceptions&#45;&gt;hidebound.exporters.s3_exporter -->
<g id="edge86" class="edge">
<title>botocore.exceptions&#45;&gt;hidebound.exporters.s3_exporter</title>
<path fill="none" stroke="#de958e" d="M1011.2149,-765.3992C1030.4362,-761.6319 1050.5656,-756.9836 1069,-751.3762 1119.7356,-735.9435 1175.2141,-711.0649 1212.7587,-692.9471"/>
<polygon fill="#de958e" stroke="#de958e" points="1214.4437,-696.0196 1221.9038,-688.4964 1211.3804,-689.7254 1214.4437,-696.0196"/>
</g>
<!-- lunchbox.enforce -->
<g id="node42" class="node">
<title>lunchbox.enforce</title>
<polygon fill="#343434" stroke="#343434" points="464.5,-1164.3762 315.5,-1164.3762 315.5,-1128.3762 464.5,-1128.3762 464.5,-1164.3762"/>
<text text-anchor="middle" x="390" y="-1142.6762" font-family="Courier,monospace" font-size="14.00" fill="#de958e">lunchbox.enforce</text>
</g>
<!-- lunchbox.enforce&#45;&gt;hidebound.core.connection -->
<g id="edge87" class="edge">
<title>lunchbox.enforce&#45;&gt;hidebound.core.connection</title>
<path fill="none" stroke="#de958e" d="M464.7367,-1148.2254C479.2348,-1148.5841 494.7787,-1148.9687 510.3426,-1149.3538"/>
<polygon fill="#de958e" stroke="#de958e" points="510.4788,-1152.8581 520.5623,-1149.6067 510.652,-1145.8603 510.4788,-1152.8581"/>
</g>
<!-- boto3 -->
<g id="node43" class="node">
<title>boto3</title>
<polygon fill="#343434" stroke="#343434" points="953.5,-742.3762 895.5,-742.3762 895.5,-706.3762 953.5,-706.3762 953.5,-742.3762"/>
<text text-anchor="middle" x="924.5" y="-720.6762" font-family="Courier,monospace" font-size="14.00" fill="#de958e">boto3</text>
</g>
<!-- boto3&#45;&gt;hidebound.exporters.s3_exporter -->
<g id="edge88" class="edge">
<title>boto3&#45;&gt;hidebound.exporters.s3_exporter</title>
<path fill="none" stroke="#de958e" d="M953.7597,-719.6314C994.4428,-713.0342 1070.5261,-700.6963 1136.3643,-690.0199"/>
<polygon fill="#de958e" stroke="#de958e" points="1137.1057,-693.4455 1146.4165,-688.3898 1135.9852,-686.5357 1137.1057,-693.4455"/>
</g>
<!-- girder_client -->
<g id="node44" class="node">
<title>girder_client</title>
<polygon fill="#343434" stroke="#343434" points="986.5,-406.3762 862.5,-406.3762 862.5,-370.3762 986.5,-370.3762 986.5,-406.3762"/>
<text text-anchor="middle" x="924.5" y="-384.6762" font-family="Courier,monospace" font-size="14.00" fill="#de958e">girder_client</text>
</g>
<!-- girder_client&#45;&gt;hidebound.exporters.girder_exporter -->
<g id="edge89" class="edge">
<title>girder_client&#45;&gt;hidebound.exporters.girder_exporter</title>
<path fill="none" stroke="#de958e" d="M986.5042,-396.0802C1012.7882,-400.8584 1043.2333,-408.4509 1069,-420.3762 1133.8812,-450.4047 1197.67,-505.7003 1231.8621,-538.0263"/>
<polygon fill="#de958e" stroke="#de958e" points="1229.8547,-540.9496 1239.5002,-545.3332 1234.6936,-535.8914 1229.8547,-540.9496"/>
</g>
<!-- dask.distributed -->
<g id="node45" class="node">
<title>dask.distributed</title>
<polygon fill="#343434" stroke="#343434" points="464.5,-1110.3762 315.5,-1110.3762 315.5,-1074.3762 464.5,-1074.3762 464.5,-1110.3762"/>
<text text-anchor="middle" x="390" y="-1088.6762" font-family="Courier,monospace" font-size="14.00" fill="#de958e">dask.distributed</text>
</g>
<!-- dask.distributed&#45;&gt;hidebound.core.connection -->
<g id="edge90" class="edge">
<title>dask.distributed&#45;&gt;hidebound.core.connection</title>
<path fill="none" stroke="#de958e" d="M462.758,-1110.3782C490.0886,-1117.1404 521.3548,-1124.8764 549.5437,-1131.851"/>
<polygon fill="#de958e" stroke="#de958e" points="548.8266,-1135.279 559.3746,-1134.2834 550.508,-1128.4839 548.8266,-1135.279"/>
</g>
<!-- numpy -->
<g id="node46" class="node">
<title>numpy</title>
<polygon fill="#343434" stroke="#343434" points="953.5,-1094.3762 895.5,-1094.3762 895.5,-1058.3762 953.5,-1058.3762 953.5,-1094.3762"/>
<text text-anchor="middle" x="924.5" y="-1072.6762" font-family="Courier,monospace" font-size="14.00" fill="#de958e">numpy</text>
</g>
<!-- numpy&#45;&gt;hidebound.core.database -->
<g id="edge91" class="edge">
<title>numpy&#45;&gt;hidebound.core.database</title>
<path fill="none" stroke="#de958e" d="M953.5168,-1074.6224C1080.6977,-1067.2252 1584.842,-1041.0335 1636,-1087.3762 1688.0528,-1134.5296 1624.7178,-1349.4404 1672,-1401.3762 1676.674,-1406.5102 1682.0569,-1410.8031 1687.9129,-1414.3825"/>
<polygon fill="#de958e" stroke="#de958e" points="1686.3339,-1417.5071 1696.8035,-1419.1311 1689.6318,-1411.3326 1686.3339,-1417.5071"/>
</g>
<!-- numpy&#45;&gt;hidebound.core.database_tools -->
<g id="edge92" class="edge">
<title>numpy&#45;&gt;hidebound.core.database_tools</title>
<path fill="none" stroke="#de958e" d="M941.4713,-1094.4688C996.4749,-1153.1063 1169.9436,-1338.0354 1233.6941,-1405.9975"/>
<polygon fill="#de958e" stroke="#de958e" points="1231.1686,-1408.4212 1240.5628,-1413.3201 1236.2741,-1403.6321 1231.1686,-1408.4212"/>
</g>
<!-- numpy&#45;&gt;hidebound.server.api -->
<g id="edge93" class="edge">
<title>numpy&#45;&gt;hidebound.server.api</title>
<path fill="none" stroke="#de958e" d="M953.7364,-1067.713C1053.6376,-1039.7191 1388.9194,-959.0977 1636,-1058.3762 1831.0203,-1136.7366 1987.4385,-1353.3583 2037.8427,-1429.4922"/>
<polygon fill="#de958e" stroke="#de958e" points="2035.0504,-1431.6168 2043.4595,-1438.0617 2040.9049,-1427.7794 2035.0504,-1431.6168"/>
</g>
<!-- json_logging -->
<g id="node47" class="node">
<title>json_logging</title>
<polygon fill="#343434" stroke="#343434" points="448,-1018.3762 332,-1018.3762 332,-982.3762 448,-982.3762 448,-1018.3762"/>
<text text-anchor="middle" x="390" y="-996.6762" font-family="Courier,monospace" font-size="14.00" fill="#de958e">json_logging</text>
</g>
<!-- json_logging&#45;&gt;hidebound.core.logging -->
<g id="edge94" class="edge">
<title>json_logging&#45;&gt;hidebound.core.logging</title>
<path fill="none" stroke="#de958e" d="M448.0848,-1003.011C470.5981,-1004.0322 497.1424,-1005.2363 522.9707,-1006.4079"/>
<polygon fill="#de958e" stroke="#de958e" points="523.0589,-1009.9154 533.2073,-1006.8722 523.3762,-1002.9226 523.0589,-1009.9154"/>
</g>
<!-- hidebound.exporters -->
<g id="node48" class="node">
<title>hidebound.exporters</title>
<polygon fill="#343434" stroke="#343434" points="719,-452.3762 546,-452.3762 546,-416.3762 719,-416.3762 719,-452.3762"/>
<text text-anchor="middle" x="632.5" y="-430.6762" font-family="Courier,monospace" font-size="14.00" fill="#a0d17b">hidebound.exporters</text>
</g>
<!-- hidebound.exporters&#45;&gt;hidebound.exporters.disk_exporter -->
<g id="edge95" class="edge">
<title>hidebound.exporters&#45;&gt;hidebound.exporters.disk_exporter</title>
<path fill="none" stroke="#a0d17b" d="M636.3218,-416.2468C647.8173,-366.8925 687.1743,-230.2321 780,-176.3762 891.0996,-111.9181 945.953,-139.533 1069,-176.3762 1133.6173,-195.7242 1196.5918,-245.1466 1230.8979,-275.4312"/>
<polygon fill="#a0d17b" stroke="#a0d17b" points="1228.7999,-278.251 1238.5821,-282.3205 1233.4728,-273.039 1228.7999,-278.251"/>
</g>
<!-- hidebound.exporters&#45;&gt;hidebound.exporters.exporter_base -->
<g id="edge96" class="edge">
<title>hidebound.exporters&#45;&gt;hidebound.exporters.exporter_base</title>
<path fill="none" stroke="#a0d17b" d="M654.9279,-452.5029C706.8394,-494.4588 835.3095,-598.2908 894.1677,-645.8611"/>
<polygon fill="#a0d17b" stroke="#a0d17b" points="892.0182,-648.624 901.9957,-652.1878 896.4183,-643.1798 892.0182,-648.624"/>
</g>
<!-- hidebound.exporters&#45;&gt;hidebound.exporters.girder_exporter -->
<g id="edge97" class="edge">
<title>hidebound.exporters&#45;&gt;hidebound.exporters.girder_exporter</title>
<path fill="none" stroke="#a0d17b" d="M646.8254,-415.9437C670.7166,-386.8895 721.8516,-331.571 780,-310.3762 900.678,-266.3898 954.207,-252.7521 1069,-310.3762 1164.6257,-358.3787 1224.0706,-480.4338 1246.8724,-535.5797"/>
<polygon fill="#a0d17b" stroke="#a0d17b" points="1243.7132,-537.1039 1250.704,-545.0651 1250.2037,-534.4821 1243.7132,-537.1039"/>
</g>
<!-- hidebound.exporters&#45;&gt;hidebound.exporters.s3_exporter -->
<g id="edge98" class="edge">
<title>hidebound.exporters&#45;&gt;hidebound.exporters.s3_exporter</title>
<path fill="none" stroke="#a0d17b" d="M719.047,-423.5408C814.9593,-416.4348 969.2359,-420.1825 1069,-499.3762 1103.0659,-526.4181 1075.924,-558.029 1105,-590.3762 1128.4451,-616.4591 1162.4241,-635.4359 1192.3605,-648.3423"/>
<polygon fill="#a0d17b" stroke="#a0d17b" points="1191.3424,-651.7096 1201.9196,-652.3208 1194.0322,-645.247 1191.3424,-651.7096"/>
</g>
<!-- schematics -->
<g id="node49" class="node">
<title>schematics</title>
<polygon fill="#343434" stroke="#343434" points="682,-740.3762 583,-740.3762 583,-704.3762 682,-704.3762 682,-740.3762"/>
<text text-anchor="middle" x="632.5" y="-718.6762" font-family="Courier,monospace" font-size="14.00" fill="#de958e">schematics</text>
</g>
<!-- schematics&#45;&gt;hidebound.core.config -->
<g id="edge99" class="edge">
<title>schematics&#45;&gt;hidebound.core.config</title>
<path fill="none" stroke="#de958e" d="M655.8773,-740.6207C683.6475,-761.0286 732.2479,-792.8634 780,-805.3762 904.2496,-837.9342 941.7996,-823.2094 1069,-805.3762 1223.1679,-783.7623 1397.6205,-724.2672 1484.9306,-691.9493"/>
<polygon fill="#de958e" stroke="#de958e" points="1486.2261,-695.2018 1494.3767,-688.4328 1483.7839,-688.6416 1486.2261,-695.2018"/>
</g>
<!-- schematics&#45;&gt;hidebound.core.specification_base -->
<g id="edge100" class="edge">
<title>schematics&#45;&gt;hidebound.core.specification_base</title>
<path fill="none" stroke="#de958e" d="M668.9377,-740.4956C692.789,-753.8365 723.2637,-773.8799 744,-798.3762 768.6686,-827.5179 750.2675,-852.423 780,-876.3762 784.1456,-879.7161 788.5667,-882.7249 793.1915,-885.4344"/>
<polygon fill="#de958e" stroke="#de958e" points="791.8446,-888.6822 802.3176,-890.2845 795.1297,-882.5008 791.8446,-888.6822"/>
</g>
<!-- schematics&#45;&gt;hidebound.exporters.exporter_base -->
<g id="edge101" class="edge">
<title>schematics&#45;&gt;hidebound.exporters.exporter_base</title>
<path fill="none" stroke="#de958e" d="M682.0338,-713.5552C717.9606,-707.1572 767.9932,-698.2473 813.284,-690.1818"/>
<polygon fill="#de958e" stroke="#de958e" points="813.9382,-693.6205 823.1697,-688.4214 812.7109,-686.7289 813.9382,-693.6205"/>
</g>
<!-- schematics&#45;&gt;hidebound.exporters.girder_exporter -->
<g id="edge102" class="edge">
<title>schematics&#45;&gt;hidebound.exporters.girder_exporter</title>
<path fill="none" stroke="#de958e" d="M667.2521,-704.2201C689.2996,-692.6439 718.3947,-677.2615 744,-663.3762 760.0899,-654.6511 762.5713,-648.9667 780,-643.3762 903.1012,-603.8897 941.7871,-633.3969 1069,-610.3762 1107.2116,-603.4614 1149.1803,-593.2597 1183.7975,-584.1262"/>
<polygon fill="#de958e" stroke="#de958e" points="1185.0605,-587.412 1193.8233,-581.4569 1183.2594,-580.6476 1185.0605,-587.412"/>
</g>
<!-- schematics.models -->
<g id="node50" class="node">
<title>schematics.models</title>
<polygon fill="#343434" stroke="#343434" points="468.5,-623.3762 311.5,-623.3762 311.5,-587.3762 468.5,-587.3762 468.5,-623.3762"/>
<text text-anchor="middle" x="390" y="-601.6762" font-family="Courier,monospace" font-size="14.00" fill="#de958e">schematics.models</text>
</g>
<!-- schematics.models&#45;&gt;hidebound.core.validators -->
<g id="edge103" class="edge">
<title>schematics.models&#45;&gt;hidebound.core.validators</title>
<path fill="none" stroke="#de958e" d="M468.7328,-597.9088C482.0872,-596.6422 496.2294,-595.3009 510.3874,-593.9581"/>
<polygon fill="#de958e" stroke="#de958e" points="511.0634,-597.4097 520.6883,-592.9811 510.4024,-590.441 511.0634,-597.4097"/>
</g>
<!-- wrapt -->
<g id="node51" class="node">
<title>wrapt</title>
<polygon fill="#343434" stroke="#343434" points="419,-677.3762 361,-677.3762 361,-641.3762 419,-641.3762 419,-677.3762"/>
<text text-anchor="middle" x="390" y="-655.6762" font-family="Courier,monospace" font-size="14.00" fill="#de958e">wrapt</text>
</g>
<!-- wrapt&#45;&gt;hidebound.core.validators -->
<g id="edge104" class="edge">
<title>wrapt&#45;&gt;hidebound.core.validators</title>
<path fill="none" stroke="#de958e" d="M419.0344,-653.4462C438.2513,-648.9648 463.7337,-641.9426 485,-632.3762 502.3154,-624.5872 503.5348,-616.8233 521,-609.3762 525.7449,-607.3531 530.6709,-605.4629 535.6928,-603.6995"/>
<polygon fill="#de958e" stroke="#de958e" points="537.0572,-606.9345 545.446,-600.4632 534.8526,-600.2907 537.0572,-606.9345"/>
</g>
<!-- pandas -->
<g id="node52" class="node">
<title>pandas</title>
<polygon fill="#343434" stroke="#343434" points="423,-1636.3762 357,-1636.3762 357,-1600.3762 423,-1600.3762 423,-1636.3762"/>
<text text-anchor="middle" x="390" y="-1614.6762" font-family="Courier,monospace" font-size="14.00" fill="#de958e">pandas</text>
</g>
<!-- pandas&#45;&gt;hidebound.core.database -->
<g id="edge105" class="edge">
<title>pandas&#45;&gt;hidebound.core.database</title>
<path fill="none" stroke="#de958e" d="M423.2416,-1619.3178C486.0193,-1620.8038 626.2886,-1622.7313 744,-1614.3762 1142.8368,-1586.0672 1250.0477,-1601.8417 1636,-1497.3762 1677.928,-1486.0276 1723.2771,-1466.3275 1755.6382,-1450.8749"/>
<polygon fill="#de958e" stroke="#de958e" points="1757.345,-1453.9374 1764.8261,-1446.4351 1754.2994,-1447.6347 1757.345,-1453.9374"/>
</g>
<!-- pandas&#45;&gt;hidebound.core.database_tools -->
<g id="edge106" class="edge">
<title>pandas&#45;&gt;hidebound.core.database_tools</title>
<path fill="none" stroke="#de958e" d="M423.2861,-1617.2927C523.2341,-1613.278 828.6547,-1595.437 1069,-1522.3762 1123.3288,-1505.8612 1181.5637,-1475.6036 1218.6952,-1454.5328"/>
<polygon fill="#de958e" stroke="#de958e" points="1220.7325,-1457.3992 1227.6655,-1449.3877 1217.2496,-1451.3271 1220.7325,-1457.3992"/>
</g>
<!-- pandas&#45;&gt;hidebound.core.tools -->
<g id="edge107" class="edge">
<title>pandas&#45;&gt;hidebound.core.tools</title>
<path fill="none" stroke="#de958e" d="M423.1297,-1612.9036C442.0896,-1608.8294 465.8396,-1602.0794 485,-1591.3762 503.9491,-1580.7911 502.0646,-1568.9857 521,-1558.3762 527.9323,-1554.4921 535.3764,-1551.0451 543.0099,-1547.9927"/>
<polygon fill="#de958e" stroke="#de958e" points="544.2663,-1551.2596 552.3934,-1544.4624 541.8014,-1544.7079 544.2663,-1551.2596"/>
</g>
<!-- pandas&#45;&gt;hidebound.core.validators -->
<g id="edge108" class="edge">
<title>pandas&#45;&gt;hidebound.core.validators</title>
<path fill="none" stroke="#de958e" d="M423.0991,-1618.2779C444.3124,-1616.2905 470.5002,-1609.8573 485,-1591.3762 552.396,-1505.4751 451.9279,-693.9355 521,-609.3762 521.4961,-608.7689 522.0034,-608.1738 522.5213,-607.5908"/>
<polygon fill="#de958e" stroke="#de958e" points="524.9692,-610.0929 529.8169,-600.6721 520.1524,-605.0137 524.9692,-610.0929"/>
</g>
<!-- pandas&#45;&gt;hidebound.server.components -->
<g id="edge109" class="edge">
<title>pandas&#45;&gt;hidebound.server.components</title>
<path fill="none" stroke="#de958e" d="M421.4108,-1636.4807C545.8714,-1706.9142 1018.4594,-1962.0763 1446,-2029.3762 1529.4173,-2042.5071 1564.4096,-2074.161 1636,-2029.3762 1667.007,-2009.9792 1642.8375,-1977.4494 1672,-1955.3762 1672.0844,-1955.3124 1672.1689,-1955.2487 1672.2535,-1955.1851"/>
<polygon fill="#de958e" stroke="#de958e" points="1674.0737,-1958.1783 1680.4465,-1949.7143 1670.1865,-1952.3568 1674.0737,-1958.1783"/>
</g>
<!-- pyparsing -->
<g id="node53" class="node">
<title>pyparsing</title>
<polygon fill="#343434" stroke="#343434" points="238.5,-880.3762 147.5,-880.3762 147.5,-844.3762 238.5,-844.3762 238.5,-880.3762"/>
<text text-anchor="middle" x="193" y="-858.6762" font-family="Courier,monospace" font-size="14.00" fill="#de958e">pyparsing</text>
</g>
<!-- pyparsing&#45;&gt;hidebound.core.parser -->
<g id="edge110" class="edge">
<title>pyparsing&#45;&gt;hidebound.core.parser</title>
<path fill="none" stroke="#de958e" d="M238.6909,-873.0452C257.8002,-877.5073 280.6743,-882.8484 302.7804,-888.0102"/>
<polygon fill="#de958e" stroke="#de958e" points="301.9952,-891.421 312.5292,-890.2866 303.587,-884.6044 301.9952,-891.421"/>
</g>
<!-- pyparsing&#45;&gt;hidebound.core.specification_base -->
<g id="edge111" class="edge">
<title>pyparsing&#45;&gt;hidebound.core.specification_base</title>
<path fill="none" stroke="#de958e" d="M238.7586,-865.2538C342.8981,-871.8025 601.58,-888.0696 769.7715,-898.6462"/>
<polygon fill="#de958e" stroke="#de958e" points="769.7638,-902.1526 779.9638,-899.2872 770.2032,-895.1664 769.7638,-902.1526"/>
</g>
<!-- pyparsing&#45;&gt;hidebound.core.validators -->
<g id="edge112" class="edge">
<title>pyparsing&#45;&gt;hidebound.core.validators</title>
<path fill="none" stroke="#de958e" d="M196.7181,-844.1534C208.8678,-786.5898 249.257,-610.5512 295,-578.3762 375.9088,-521.4662 496.8669,-541.35 569.8749,-561.4959"/>
<polygon fill="#de958e" stroke="#de958e" points="569.2732,-564.9635 579.8492,-564.3323 571.1879,-558.2304 569.2732,-564.9635"/>
</g>
<!-- schematics.types -->
<g id="node54" class="node">
<title>schematics.types</title>
<polygon fill="#343434" stroke="#343434" points="707,-654.3762 558,-654.3762 558,-618.3762 707,-618.3762 707,-654.3762"/>
<text text-anchor="middle" x="632.5" y="-632.6762" font-family="Courier,monospace" font-size="14.00" fill="#de958e">schematics.types</text>
</g>
<!-- schematics.types&#45;&gt;hidebound.core.config -->
<g id="edge113" class="edge">
<title>schematics.types&#45;&gt;hidebound.core.config</title>
<path fill="none" stroke="#de958e" d="M707.2506,-631.1024C721.119,-626.8471 734.2774,-620.0524 744,-609.3762 818.9923,-527.0289 695.7771,-434.2559 780,-361.3762 828.5644,-319.3525 1006.5741,-346.293 1069,-361.3762 1234.5833,-401.3842 1272.9014,-435.2701 1410,-536.3762 1453.373,-568.3625 1495.4644,-615.0592 1519.7729,-644.0367"/>
<polygon fill="#de958e" stroke="#de958e" points="1517.3574,-646.6069 1526.4358,-652.0689 1522.745,-642.1377 1517.3574,-646.6069"/>
</g>
<!-- schematics.types&#45;&gt;hidebound.core.specification_base -->
<g id="edge114" class="edge">
<title>schematics.types&#45;&gt;hidebound.core.specification_base</title>
<path fill="none" stroke="#de958e" d="M688.7768,-654.4933C709.0373,-663.6953 730.2631,-676.9345 744,-695.3762 792.9964,-761.1536 722.6328,-817.7562 780,-876.3762 782.8993,-879.3389 786.0071,-882.0552 789.2855,-884.5445"/>
<polygon fill="#de958e" stroke="#de958e" points="787.5196,-887.5754 797.7646,-890.2754 791.4395,-881.7758 787.5196,-887.5754"/>
</g>
<!-- schematics.types&#45;&gt;hidebound.core.specifications -->
<g id="edge115" class="edge">
<title>schematics.types&#45;&gt;hidebound.core.specifications</title>
<path fill="none" stroke="#de958e" d="M685.6421,-654.4681C706.327,-663.8384 728.6884,-677.2049 744,-695.3762 777.1465,-734.7136 741.7875,-770.9389 780,-805.3762 806.4397,-829.2039 1003.5426,-866.0739 1136.108,-888.6342"/>
<polygon fill="#de958e" stroke="#de958e" points="1135.8889,-892.1469 1146.3333,-890.3678 1137.0591,-885.2454 1135.8889,-892.1469"/>
</g>
<!-- schematics.types&#45;&gt;hidebound.exporters.disk_exporter -->
<g id="edge116" class="edge">
<title>schematics.types&#45;&gt;hidebound.exporters.disk_exporter</title>
<path fill="none" stroke="#de958e" d="M707.102,-631.3151C721.0664,-627.0572 734.3006,-620.2076 744,-609.3762 827.9952,-515.5784 687.957,-414.2908 780,-328.3762 803.4438,-306.4934 972.4601,-300.8244 1102.8298,-299.7696"/>
<polygon fill="#de958e" stroke="#de958e" points="1102.9627,-303.2689 1112.9371,-299.6964 1102.9119,-296.269 1102.9627,-303.2689"/>
</g>
<!-- schematics.types&#45;&gt;hidebound.exporters.exporter_base -->
<g id="edge117" class="edge">
<title>schematics.types&#45;&gt;hidebound.exporters.exporter_base</title>
<path fill="none" stroke="#de958e" d="M707.3181,-645.0879C726.5872,-647.3316 748.0465,-649.8303 769.7646,-652.3591"/>
<polygon fill="#de958e" stroke="#de958e" points="769.4166,-655.8422 779.7544,-653.5223 770.2263,-648.8891 769.4166,-655.8422"/>
</g>
<!-- schematics.types&#45;&gt;hidebound.exporters.girder_exporter -->
<g id="edge118" class="edge">
<title>schematics.types&#45;&gt;hidebound.exporters.girder_exporter</title>
<path fill="none" stroke="#de958e" d="M707.2688,-627.6432C802.462,-616.5247 969.5801,-597.0053 1094.7361,-582.3871"/>
<polygon fill="#de958e" stroke="#de958e" points="1095.2833,-585.847 1104.8097,-581.2105 1094.4711,-578.8943 1095.2833,-585.847"/>
</g>
<!-- schematics.types&#45;&gt;hidebound.exporters.s3_exporter -->
<g id="edge119" class="edge">
<title>schematics.types&#45;&gt;hidebound.exporters.s3_exporter</title>
<path fill="none" stroke="#de958e" d="M707.1684,-634.7144C794.192,-633.4396 942.2587,-633.3234 1069,-643.3762 1091.3922,-645.1523 1115.1766,-647.8876 1138.0369,-650.9478"/>
<polygon fill="#de958e" stroke="#de958e" points="1137.7355,-654.4391 1148.1174,-652.3256 1138.6836,-647.5035 1137.7355,-654.4391"/>
</g>
<!-- hidebound -->
<g id="node55" class="node">
<title>hidebound</title>
<polygon fill="#343434" stroke="#343434" points="91,-1248.3762 0,-1248.3762 0,-1212.3762 91,-1212.3762 91,-1248.3762"/>
<text text-anchor="middle" x="45.5" y="-1226.6762" font-family="Courier,monospace" font-size="14.00" fill="#a0d17b">hidebound</text>
</g>
<!-- hidebound&#45;&gt;hidebound.server -->
<g id="edge120" class="edge">
<title>hidebound&#45;&gt;hidebound.server</title>
<path fill="none" stroke="#a0d17b" d="M47.905,-1248.5436C65.8182,-1380.1576 183.4744,-2182.3762 390,-2182.3762 390,-2182.3762 390,-2182.3762 924.5,-2182.3762 1114.3042,-2182.3762 1336.9715,-2184.2956 1455.8986,-2185.4752"/>
<polygon fill="#a0d17b" stroke="#a0d17b" points="1455.995,-2188.9762 1466.0295,-2185.5764 1456.065,-2181.9766 1455.995,-2188.9762"/>
</g>
<!-- hidebound&#45;&gt;hidebound.exporters -->
<g id="edge121" class="edge">
<title>hidebound&#45;&gt;hidebound.exporters</title>
<path fill="none" stroke="#a0d17b" d="M83.3882,-1212.1427C86.3144,-1209.5457 88.9299,-1206.6317 91,-1203.3762 135.0897,-1134.0386 102.2917,-913.7415 127,-835.3762 172.7195,-690.3715 176.4741,-632.6036 295,-537.3762 364.1021,-481.8575 462.9089,-456.1936 535.7658,-444.3722"/>
<polygon fill="#a0d17b" stroke="#a0d17b" points="536.5281,-447.7957 545.8682,-442.7944 535.4478,-440.8795 536.5281,-447.7957"/>
</g>
<!-- hidebound.core -->
<g id="node60" class="node">
<title>hidebound.core</title>
<polygon fill="#343434" stroke="#343434" points="259,-1248.3762 127,-1248.3762 127,-1212.3762 259,-1212.3762 259,-1248.3762"/>
<text text-anchor="middle" x="193" y="-1226.6762" font-family="Courier,monospace" font-size="14.00" fill="#a0d17b">hidebound.core</text>
</g>
<!-- hidebound&#45;&gt;hidebound.core -->
<g id="edge122" class="edge">
<title>hidebound&#45;&gt;hidebound.core</title>
<path fill="none" stroke="#a0d17b" d="M91.3614,-1230.3762C99.4456,-1230.3762 108.0541,-1230.3762 116.7093,-1230.3762"/>
<polygon fill="#a0d17b" stroke="#a0d17b" points="116.8627,-1233.8763 126.8626,-1230.3762 116.8626,-1226.8763 116.8627,-1233.8763"/>
</g>
<!-- jsoncomment -->
<g id="node56" class="node">
<title>jsoncomment</title>
<polygon fill="#343434" stroke="#343434" points="443.5,-1894.3762 336.5,-1894.3762 336.5,-1858.3762 443.5,-1858.3762 443.5,-1894.3762"/>
<text text-anchor="middle" x="390" y="-1872.6762" font-family="Courier,monospace" font-size="14.00" fill="#de958e">jsoncomment</text>
</g>
<!-- jsoncomment&#45;&gt;hidebound.core.database -->
<g id="edge123" class="edge">
<title>jsoncomment&#45;&gt;hidebound.core.database</title>
<path fill="none" stroke="#de958e" d="M443.5894,-1878.0588C559.8889,-1880.2971 843.1368,-1878.0734 1069,-1814.3762 1360.2926,-1732.2269 1667.7237,-1523.4832 1767.034,-1452.4609"/>
<polygon fill="#de958e" stroke="#de958e" points="1769.3717,-1455.0911 1775.4509,-1446.4139 1765.2874,-1449.4061 1769.3717,-1455.0911"/>
</g>
<!-- jsoncomment&#45;&gt;hidebound.core.tools -->
<g id="edge124" class="edge">
<title>jsoncomment&#45;&gt;hidebound.core.tools</title>
<path fill="none" stroke="#de958e" d="M402.6964,-1858.0515C442.8008,-1800.1689 566.8957,-1621.0629 614.0568,-1552.9953"/>
<polygon fill="#de958e" stroke="#de958e" points="617.111,-1554.7327 619.9293,-1544.5196 611.3571,-1550.7461 617.111,-1554.7327"/>
</g>
<!-- jsoncomment&#45;&gt;hidebound.server.extension -->
<g id="edge125" class="edge">
<title>jsoncomment&#45;&gt;hidebound.server.extension</title>
<path fill="none" stroke="#de958e" d="M409.6155,-1894.522C476.2216,-1954.1671 701.9814,-2140.3762 924.5,-2140.3762 924.5,-2140.3762 924.5,-2140.3762 1257.5,-2140.3762 1341.717,-2140.3762 1567.5615,-2170.4545 1636,-2121.3762 1671.3454,-2096.0295 1639.6564,-2059.4562 1672,-2030.3762 1759.8022,-1951.4338 1842.5121,-2040.8192 1928,-1959.3762 1964.9387,-1924.1853 1929.7476,-1888.1868 1964,-1850.3762 2025.9666,-1781.9725 2125.4335,-1743.4901 2199.6379,-1723.0282"/>
<polygon fill="#de958e" stroke="#de958e" points="2200.728,-1726.3594 2209.4743,-1720.38 2198.9082,-1719.6001 2200.728,-1726.3594"/>
</g>
<!-- dask.dataframe -->
<g id="node57" class="node">
<title>dask.dataframe</title>
<polygon fill="#343434" stroke="#343434" points="456,-1391.3762 324,-1391.3762 324,-1355.3762 456,-1355.3762 456,-1391.3762"/>
<text text-anchor="middle" x="390" y="-1369.6762" font-family="Courier,monospace" font-size="14.00" fill="#de958e">dask.dataframe</text>
</g>
<!-- dask.dataframe&#45;&gt;hidebound.core.database -->
<g id="edge126" class="edge">
<title>dask.dataframe&#45;&gt;hidebound.core.database</title>
<path fill="none" stroke="#de958e" d="M456.1924,-1364.2725C700.161,-1331.3719 1539.9426,-1224.142 1636,-1293.3762 1677.046,-1322.9605 1634.2452,-1367.6928 1672,-1401.3762 1676.7822,-1405.6428 1682.0655,-1409.2968 1687.6811,-1412.4214"/>
<polygon fill="#de958e" stroke="#de958e" points="1686.2397,-1415.6131 1696.7551,-1416.9079 1689.3422,-1409.3382 1686.2397,-1415.6131"/>
</g>
<!-- dask.dataframe&#45;&gt;hidebound.core.database_tools -->
<g id="edge127" class="edge">
<title>dask.dataframe&#45;&gt;hidebound.core.database_tools</title>
<path fill="none" stroke="#de958e" d="M456.1397,-1375.0057C577.6975,-1378.3744 844.7363,-1387.5141 1069,-1407.3762 1085.3446,-1408.8238 1102.4537,-1410.6149 1119.4131,-1412.5613"/>
<polygon fill="#de958e" stroke="#de958e" points="1119.036,-1416.0409 1129.3744,-1413.7238 1119.8475,-1409.0881 1119.036,-1416.0409"/>
</g>
<!-- dask.dataframe&#45;&gt;hidebound.core.tools -->
<g id="edge128" class="edge">
<title>dask.dataframe&#45;&gt;hidebound.core.tools</title>
<path fill="none" stroke="#de958e" d="M415.7769,-1391.4018C441.9663,-1409.5466 483.8509,-1438.1034 521,-1461.3762 543.9284,-1475.7402 570.0338,-1491.0151 591.218,-1503.1459"/>
<polygon fill="#de958e" stroke="#de958e" points="589.5518,-1506.2248 599.972,-1508.1405 593.0208,-1500.1448 589.5518,-1506.2248"/>
</g>
<!-- dask.dataframe&#45;&gt;hidebound.exporters.exporter_base -->
<g id="edge129" class="edge">
<title>dask.dataframe&#45;&gt;hidebound.exporters.exporter_base</title>
<path fill="none" stroke="#de958e" d="M434.4191,-1355.3669C520.9763,-1319.3179 707.0113,-1236.8291 744,-1179.3762 802.1434,-1089.0649 708.3469,-777.3926 780,-697.3762 780.6331,-696.6692 781.2783,-695.9771 781.9352,-695.2994"/>
<polygon fill="#de958e" stroke="#de958e" points="784.3047,-697.8756 789.3949,-688.5836 779.6212,-692.6732 784.3047,-697.8756"/>
</g>
<!-- OpenEXR -->
<g id="node58" class="node">
<title>OpenEXR</title>
<polygon fill="#343434" stroke="#343434" points="427,-1582.3762 353,-1582.3762 353,-1546.3762 427,-1546.3762 427,-1582.3762"/>
<text text-anchor="middle" x="390" y="-1560.6762" font-family="Courier,monospace" font-size="14.00" fill="#de958e">OpenEXR</text>
</g>
<!-- OpenEXR&#45;&gt;hidebound.core.tools -->
<g id="edge130" class="edge">
<title>OpenEXR&#45;&gt;hidebound.core.tools</title>
<path fill="none" stroke="#de958e" d="M427.0945,-1558.5635C454.8668,-1554.2115 494.2626,-1548.0382 531.1359,-1542.2601"/>
<polygon fill="#de958e" stroke="#de958e" points="532.1198,-1545.6487 541.4574,-1540.6427 531.0361,-1538.7331 532.1198,-1545.6487"/>
</g>
<!-- schematics.exceptions -->
<g id="node59" class="node">
<title>schematics.exceptions</title>
<polygon fill="#343434" stroke="#343434" points="485,-818.3762 295,-818.3762 295,-782.3762 485,-782.3762 485,-818.3762"/>
<text text-anchor="middle" x="390" y="-796.6762" font-family="Courier,monospace" font-size="14.00" fill="#de958e">schematics.exceptions</text>
</g>
<!-- schematics.exceptions&#45;&gt;hidebound.core.config -->
<g id="edge131" class="edge">
<title>schematics.exceptions&#45;&gt;hidebound.core.config</title>
<path fill="none" stroke="#de958e" d="M411.0321,-782.1714C433.4462,-761.4322 467.9959,-725.3361 485,-686.3762 535.0128,-571.7869 467.3268,-520.2974 521,-407.3762 592.7984,-256.3222 626.3371,-200.4069 780,-134.3762 1038.3052,-23.3797 1201.3883,-2.901 1410,-191.3762 1478.7654,-253.504 1524.4217,-549.1008 1537.2855,-642.2178"/>
<polygon fill="#de958e" stroke="#de958e" points="1533.8409,-642.8629 1538.6586,-652.2991 1540.7769,-641.9181 1533.8409,-642.8629"/>
</g>
<!-- schematics.exceptions&#45;&gt;hidebound.core.database_tools -->
<g id="edge132" class="edge">
<title>schematics.exceptions&#45;&gt;hidebound.core.database_tools</title>
<path fill="none" stroke="#de958e" d="M420.2446,-818.6018C441.558,-833.0155 469.042,-855.059 485,-881.3762 522.1184,-942.5903 469.6107,-988.5357 521,-1038.3762 593.5177,-1108.7085 666.4944,-1017.5818 744,-1082.3762 777.6868,-1110.5383 748.995,-1143.2862 780,-1174.3762 877.501,-1272.1445 973.4609,-1188.6899 1069,-1288.3762 1102.8444,-1323.6898 1069.0101,-1359.2519 1105,-1392.3762 1112.0141,-1398.8319 1119.9481,-1404.2523 1128.4212,-1408.7998"/>
<polygon fill="#de958e" stroke="#de958e" points="1126.912,-1411.9579 1137.4303,-1413.2296 1130.0008,-1405.6762 1126.912,-1411.9579"/>
</g>
<!-- schematics.exceptions&#45;&gt;hidebound.core.specification_base -->
<g id="edge133" class="edge">
<title>schematics.exceptions&#45;&gt;hidebound.core.specification_base</title>
<path fill="none" stroke="#de958e" d="M485.1868,-799.969C558.5377,-802.7582 661.0958,-813.5293 744,-848.3762 762.6862,-856.2306 761.6565,-867.7519 780,-876.3762 788.807,-880.5169 798.171,-884.1328 807.7344,-887.2886"/>
<polygon fill="#de958e" stroke="#de958e" points="806.7622,-890.6516 817.3509,-890.2934 808.8499,-883.9702 806.7622,-890.6516"/>
</g>
<!-- schematics.exceptions&#45;&gt;hidebound.core.tools -->
<g id="edge134" class="edge">
<title>schematics.exceptions&#45;&gt;hidebound.core.tools</title>
<path fill="none" stroke="#de958e" d="M422.4855,-818.4778C444.2966,-832.5521 471.4369,-854.2322 485,-881.3762 542.7212,-996.8951 453.2273,-1351.4526 521,-1461.3762 532.4713,-1479.9821 551.3906,-1493.8465 570.4158,-1503.8813"/>
<polygon fill="#de958e" stroke="#de958e" points="568.9212,-1507.0469 579.4338,-1508.3644 572.0373,-1500.7787 568.9212,-1507.0469"/>
</g>
<!-- schematics.exceptions&#45;&gt;hidebound.core.validators -->
<g id="edge135" class="edge">
<title>schematics.exceptions&#45;&gt;hidebound.core.validators</title>
<path fill="none" stroke="#de958e" d="M443.9335,-782.2702C459.122,-774.831 474.3785,-764.7432 485,-751.3762 525.5046,-700.4018 474.716,-655.1671 521,-609.3762 521.9557,-608.4307 522.9385,-607.5163 523.9464,-606.6319"/>
<polygon fill="#de958e" stroke="#de958e" points="526.2765,-609.2575 532.1287,-600.4256 522.0461,-603.6804 526.2765,-609.2575"/>
</g>
<!-- schematics.exceptions&#45;&gt;hidebound.server.api -->
<g id="edge136" class="edge">
<title>schematics.exceptions&#45;&gt;hidebound.server.api</title>
<path fill="none" stroke="#de958e" d="M411.4893,-782.3626C434.3036,-761.7908 469.2019,-725.8405 485,-686.3762 529.5312,-575.1355 450.127,-244.9917 521,-148.3762 633.9824,5.6437 733.4839,-.3762 924.5,-.3762 924.5,-.3762 924.5,-.3762 1541,-.3762 1728.3311,-.3762 1817.5122,-16.0971 1928,-167.3762 2005.0085,-272.8157 2046.8189,-1247.9092 2053.9124,-1427.8868"/>
<polygon fill="#de958e" stroke="#de958e" points="2050.4161,-1428.0514 2054.3037,-1437.9071 2057.4108,-1427.7782 2050.4161,-1428.0514"/>
</g>
<!-- hidebound.core&#45;&gt;hidebound.core.config -->
<g id="edge137" class="edge">
<title>hidebound.core&#45;&gt;hidebound.core.config</title>
<path fill="none" stroke="#a0d17b" d="M193.9208,-1212.1206C197.4528,-1163.6535 214.3936,-1031.4843 295,-973.3762 355.9358,-929.4484 557.3812,-954.3762 632.5,-954.3762 632.5,-954.3762 632.5,-954.3762 924.5,-954.3762 1032.4715,-954.3762 1319.4147,-994.1312 1410,-935.3762 1494.1367,-880.8039 1526.1546,-755.1439 1536.5978,-698.7152"/>
<polygon fill="#a0d17b" stroke="#a0d17b" points="1540.0732,-699.16 1538.3563,-688.7052 1533.1788,-697.9488 1540.0732,-699.16"/>
</g>
<!-- hidebound.core&#45;&gt;hidebound.core.connection -->
<g id="edge138" class="edge">
<title>hidebound.core&#45;&gt;hidebound.core.connection</title>
<path fill="none" stroke="#a0d17b" d="M259.2734,-1218.6144C328.5189,-1206.3251 438.3739,-1186.8287 521.0061,-1172.1636"/>
<polygon fill="#a0d17b" stroke="#a0d17b" points="521.7092,-1175.5936 530.9437,-1170.3999 520.4859,-1168.7013 521.7092,-1175.5936"/>
</g>
<!-- hidebound.core&#45;&gt;hidebound.core.database -->
<g id="edge139" class="edge">
<title>hidebound.core&#45;&gt;hidebound.core.database</title>
<path fill="none" stroke="#a0d17b" d="M216.5814,-1248.5194C236.3157,-1262.4878 265.8527,-1280.6687 295,-1288.3762 376.6384,-1309.9641 400.5677,-1289.8057 485,-1288.3762 612.8939,-1286.2109 1534.567,-1188.4475 1636,-1266.3762 1685.242,-1304.2078 1626.9491,-1358.6396 1672,-1401.3762 1676.7577,-1405.8895 1682.0706,-1409.7282 1687.7529,-1412.987"/>
<polygon fill="#a0d17b" stroke="#a0d17b" points="1686.4564,-1416.2535 1696.9596,-1417.6443 1689.6162,-1410.0072 1686.4564,-1416.2535"/>
</g>
<!-- hidebound.core&#45;&gt;hidebound.core.database_tools -->
<g id="edge140" class="edge">
<title>hidebound.core&#45;&gt;hidebound.core.database_tools</title>
<path fill="none" stroke="#a0d17b" d="M194.5804,-1248.6903C201.3421,-1322.2647 230.4808,-1594.7945 295,-1645.3762 567.1281,-1858.7189 748.404,-1695.9409 1069,-1566.3762 1133.4366,-1540.335 1196.6996,-1488.0121 1231.0613,-1456.7043"/>
<polygon fill="#a0d17b" stroke="#a0d17b" points="1233.7794,-1458.9585 1238.7539,-1449.6041 1229.0317,-1453.8146 1233.7794,-1458.9585"/>
</g>
<!-- hidebound.core&#45;&gt;hidebound.core.logging -->
<g id="edge141" class="edge">
<title>hidebound.core&#45;&gt;hidebound.core.logging</title>
<path fill="none" stroke="#a0d17b" d="M198.5742,-1212.1366C210.2477,-1177.2916 240.7745,-1101.5174 295,-1065.3762 313.9776,-1052.7277 431.8784,-1035.7963 523.0446,-1024.2876"/>
<polygon fill="#a0d17b" stroke="#a0d17b" points="523.6913,-1027.734 533.178,-1023.0167 522.8202,-1020.7884 523.6913,-1027.734"/>
</g>
<!-- hidebound.core&#45;&gt;hidebound.core.parser -->
<g id="edge142" class="edge">
<title>hidebound.core&#45;&gt;hidebound.core.parser</title>
<path fill="none" stroke="#a0d17b" d="M194.051,-1212.2018C197.9467,-1161.7478 215.793,-1018.5364 295,-940.3762 298.2228,-937.1961 301.7716,-934.3318 305.547,-931.752"/>
<polygon fill="#a0d17b" stroke="#a0d17b" points="307.3974,-934.7232 314.1351,-926.5468 303.7691,-928.7369 307.3974,-934.7232"/>
</g>
<!-- hidebound.core&#45;&gt;hidebound.core.specification_base -->
<g id="edge143" class="edge">
<title>hidebound.core&#45;&gt;hidebound.core.specification_base</title>
<path fill="none" stroke="#a0d17b" d="M259.0733,-1228.6323C397.6107,-1224.3574 708.6584,-1211.2834 744,-1179.3762 799.0679,-1129.6598 739.7671,-1078.7101 780,-1016.3762 804.0634,-979.0942 845.7508,-949.9991 878.1843,-931.4483"/>
<polygon fill="#a0d17b" stroke="#a0d17b" points="880.0344,-934.424 887.0645,-926.4975 876.6258,-928.31 880.0344,-934.424"/>
</g>
<!-- hidebound.core&#45;&gt;hidebound.core.specifications -->
<g id="edge144" class="edge">
<title>hidebound.core&#45;&gt;hidebound.core.specifications</title>
<path fill="none" stroke="#a0d17b" d="M247.7351,-1248.4805C357.1117,-1280.8616 604.16,-1334.3757 744,-1210.3762 798.8609,-1161.7298 729.9226,-1102.9342 780,-1049.3762 829.4313,-996.5093 1018.5248,-952.4718 1143.4048,-928.3351"/>
<polygon fill="#a0d17b" stroke="#a0d17b" points="1144.2429,-931.7382 1153.4052,-926.4181 1142.9251,-924.8634 1144.2429,-931.7382"/>
</g>
<!-- hidebound.core&#45;&gt;hidebound.core.tools -->
<g id="edge145" class="edge">
<title>hidebound.core&#45;&gt;hidebound.core.tools</title>
<path fill="none" stroke="#a0d17b" d="M193.8451,-1248.5835C197.194,-1297.6043 213.7309,-1432.8107 295,-1494.3762 331.0459,-1521.6828 445.4222,-1527.7374 531.1046,-1528.2144"/>
<polygon fill="#a0d17b" stroke="#a0d17b" points="531.1296,-1531.7144 541.1406,-1528.2458 531.1516,-1524.7144 531.1296,-1531.7144"/>
</g>
<!-- hidebound.core&#45;&gt;hidebound.core.traits -->
<g id="edge146" class="edge">
<title>hidebound.core&#45;&gt;hidebound.core.traits</title>
<path fill="none" stroke="#a0d17b" d="M198.6755,-1248.3777C210.6172,-1283.2524 241.7226,-1360.1259 295,-1400.3762 455.6869,-1521.773 543.166,-1476.314 744,-1461.3762 759.2541,-1460.2417 788.6769,-1456.1223 819.4111,-1451.431"/>
<polygon fill="#a0d17b" stroke="#a0d17b" points="820.0683,-1454.8712 829.4196,-1449.8909 819.0035,-1447.9527 820.0683,-1454.8712"/>
</g>
<!-- hidebound.core&#45;&gt;hidebound.core.validators -->
<g id="edge147" class="edge">
<title>hidebound.core&#45;&gt;hidebound.core.validators</title>
<path fill="none" stroke="#a0d17b" d="M196.601,-1212.1267C213.025,-1129.1942 280.6467,-791.1077 295,-773.3762 353.4357,-701.1873 419.0665,-751.7884 485,-686.3762 511.8187,-659.7696 491.7566,-633.2924 521,-609.3762 522.4045,-608.2276 523.8501,-607.1266 525.3323,-606.0712"/>
<polygon fill="#a0d17b" stroke="#a0d17b" points="527.5793,-608.7932 534.1878,-600.5119 523.8574,-602.8646 527.5793,-608.7932"/>
</g>
<!-- skimage.io -->
<g id="node61" class="node">
<title>skimage.io</title>
<polygon fill="#343434" stroke="#343434" points="682,-1452.3762 583,-1452.3762 583,-1416.3762 682,-1416.3762 682,-1452.3762"/>
<text text-anchor="middle" x="632.5" y="-1430.6762" font-family="Courier,monospace" font-size="14.00" fill="#de958e">skimage.io</text>
</g>
<!-- skimage.io&#45;&gt;hidebound.core.traits -->
<g id="edge148" class="edge">
<title>skimage.io&#45;&gt;hidebound.core.traits</title>
<path fill="none" stroke="#de958e" d="M682.0338,-1434.3762C719.5523,-1434.3762 772.4542,-1434.3762 819.2741,-1434.3762"/>
<polygon fill="#de958e" stroke="#de958e" points="819.4737,-1437.8763 829.4737,-1434.3762 819.4737,-1430.8763 819.4737,-1437.8763"/>
</g>
</g>
</svg>
