<?xml version="1.0" encoding="UTF-8" standalone="no"?>
<!DOCTYPE svg PUBLIC "-//W3C//DTD SVG 1.1//EN"
 "http://www.w3.org/Graphics/SVG/1.1/DTD/svg11.dtd">
<!-- Generated by graphviz version 2.40.1 (20161225.0304)
 -->
<!-- Title: %3 Pages: 1 -->
<svg width="1690pt" height="1479pt"
 viewBox="0.00 0.00 1690.00 1479.38" xmlns="http://www.w3.org/2000/svg" xmlns:xlink="http://www.w3.org/1999/xlink">
<g id="graph0" class="graph" transform="scale(1 1) rotate(0) translate(4 1475.3802)">
<title>%3</title>
<polygon fill="#242424" stroke="transparent" points="-4,4 -4,-1475.3802 1686,-1475.3802 1686,4 -4,4"/>
<!-- cli -->
<g id="node1" class="node">
<title>cli</title>
<polygon fill="#343434" stroke="#343434" points="72.5,-367.3802 18.5,-367.3802 18.5,-331.3802 72.5,-331.3802 72.5,-367.3802"/>
<text text-anchor="middle" x="45.5" y="-345.6802" font-family="Courier,monospace" font-size="14.00" fill="#b6ecf3">cli</text>
</g>
<!-- hidebound.app -->
<g id="node2" class="node">
<title>hidebound.app</title>
<polygon fill="#343434" stroke="#343434" points="1682,-909.3802 1558,-909.3802 1558,-873.3802 1682,-873.3802 1682,-909.3802"/>
<text text-anchor="middle" x="1620" y="-887.6802" font-family="Courier,monospace" font-size="14.00" fill="#b6ecf3">hidebound.app</text>
</g>
<!-- hidebound.client -->
<g id="node3" class="node">
<title>hidebound.client</title>
<polygon fill="#343434" stroke="#343434" points="1518,-1209.3802 1369,-1209.3802 1369,-1173.3802 1518,-1173.3802 1518,-1209.3802"/>
<text text-anchor="middle" x="1443.5" y="-1187.6802" font-family="Courier,monospace" font-size="14.00" fill="#b6ecf3">hidebound.client</text>
</g>
<!-- hidebound.client&#45;&gt;hidebound.app -->
<g id="edge1" class="edge">
<title>hidebound.client&#45;&gt;hidebound.app</title>
<path fill="none" stroke="#b6ecf3" d="M1454.2752,-1173.0655C1484.256,-1122.1066 1568.764,-978.4669 1604.128,-918.3581"/>
<polygon fill="#b6ecf3" stroke="#b6ecf3" points="1607.3116,-919.849 1609.3659,-909.4553 1601.2783,-916.2994 1607.3116,-919.849"/>
</g>
<!-- hidebound.config -->
<g id="node4" class="node">
<title>hidebound.config</title>
<polygon fill="#343434" stroke="#343434" points="1057.5,-679.3802 908.5,-679.3802 908.5,-643.3802 1057.5,-643.3802 1057.5,-679.3802"/>
<text text-anchor="middle" x="983" y="-657.6802" font-family="Courier,monospace" font-size="14.00" fill="#b6ecf3">hidebound.config</text>
</g>
<!-- hidebound.database -->
<g id="node5" class="node">
<title>hidebound.database</title>
<polygon fill="#343434" stroke="#343434" points="1320.5,-1012.3802 1155.5,-1012.3802 1155.5,-976.3802 1320.5,-976.3802 1320.5,-1012.3802"/>
<text text-anchor="middle" x="1238" y="-990.6802" font-family="Courier,monospace" font-size="14.00" fill="#b6ecf3">hidebound.database</text>
</g>
<!-- hidebound.config&#45;&gt;hidebound.database -->
<g id="edge2" class="edge">
<title>hidebound.config&#45;&gt;hidebound.database</title>
<path fill="none" stroke="#b6ecf3" d="M993.3049,-679.5326C1015.0747,-717.8901 1067.3357,-810.0209 1111,-887.3802 1127.0417,-915.8011 1123.119,-929.1364 1147,-951.3802 1155.5048,-959.302 1165.7335,-966.0101 1176.216,-971.6005"/>
<polygon fill="#b6ecf3" stroke="#b6ecf3" points="1174.9477,-974.8796 1185.4564,-976.2279 1178.0821,-968.6205 1174.9477,-974.8796"/>
</g>
<!-- hidebound.database&#45;&gt;hidebound.app -->
<g id="edge3" class="edge">
<title>hidebound.database&#45;&gt;hidebound.app</title>
<path fill="none" stroke="#b6ecf3" d="M1320.5234,-1006.0496C1379.0294,-1010.8365 1458.1599,-1010.0912 1522,-983.3802 1554.8334,-969.6425 1583.3285,-939.6197 1601.0008,-917.5919"/>
<polygon fill="#b6ecf3" stroke="#b6ecf3" points="1603.8481,-919.632 1607.2304,-909.5916 1598.325,-915.3313 1603.8481,-919.632"/>
</g>
<!-- hidebound.database&#45;&gt;hidebound.client -->
<g id="edge4" class="edge">
<title>hidebound.database&#45;&gt;hidebound.client</title>
<path fill="none" stroke="#b6ecf3" d="M1257.2405,-1012.4295C1275.7051,-1029.7826 1304.3458,-1056.782 1329,-1080.3802 1359.5479,-1109.6197 1394.4016,-1143.4804 1417.5496,-1166.0402"/>
<polygon fill="#b6ecf3" stroke="#b6ecf3" points="1415.3248,-1168.7593 1424.928,-1173.2347 1420.2117,-1163.7475 1415.3248,-1168.7593"/>
</g>
<!-- hidebound.database_test_base -->
<g id="node6" class="node">
<title>hidebound.database_test_base</title>
<polygon fill="#343434" stroke="#343434" points="1107,-489.3802 859,-489.3802 859,-453.3802 1107,-453.3802 1107,-489.3802"/>
<text text-anchor="middle" x="983" y="-467.6802" font-family="Courier,monospace" font-size="14.00" fill="#b6ecf3">hidebound.database_test_base</text>
</g>
<!-- hidebound.database_tools -->
<g id="node7" class="node">
<title>hidebound.database_tools</title>
<polygon fill="#343434" stroke="#343434" points="802.5,-1003.3802 587.5,-1003.3802 587.5,-967.3802 802.5,-967.3802 802.5,-1003.3802"/>
<text text-anchor="middle" x="695" y="-981.6802" font-family="Courier,monospace" font-size="14.00" fill="#b6ecf3">hidebound.database_tools</text>
</g>
<!-- hidebound.database_tools&#45;&gt;hidebound.database -->
<g id="edge5" class="edge">
<title>hidebound.database_tools&#45;&gt;hidebound.database</title>
<path fill="none" stroke="#b6ecf3" d="M802.6038,-987.1637C902.6876,-988.8226 1050.256,-991.2684 1145.2602,-992.8431"/>
<polygon fill="#b6ecf3" stroke="#b6ecf3" points="1145.3744,-996.3454 1155.4311,-993.0117 1145.4905,-989.3463 1145.3744,-996.3454"/>
</g>
<!-- hidebound.parser -->
<g id="node8" class="node">
<title>hidebound.parser</title>
<polygon fill="#343434" stroke="#343434" points="296.5,-635.3802 147.5,-635.3802 147.5,-599.3802 296.5,-599.3802 296.5,-635.3802"/>
<text text-anchor="middle" x="222" y="-613.6802" font-family="Courier,monospace" font-size="14.00" fill="#b6ecf3">hidebound.parser</text>
</g>
<!-- hidebound.parser&#45;&gt;hidebound.database_tools -->
<g id="edge6" class="edge">
<title>hidebound.parser&#45;&gt;hidebound.database_tools</title>
<path fill="none" stroke="#b6ecf3" d="M234.9745,-635.5351C254.9081,-664.1071 293.2469,-721.8397 317,-775.3802 339.408,-825.8888 311.7583,-857.6058 353,-894.3802 414.3578,-949.0917 459.3595,-895.1833 535,-927.3802 553.1598,-935.1101 553.1351,-944.9912 571,-953.3802 579.5884,-957.4132 588.7592,-960.9908 598.0798,-964.1528"/>
<polygon fill="#b6ecf3" stroke="#b6ecf3" points="597.2371,-967.5586 607.8287,-967.2992 599.3871,-960.8969 597.2371,-967.5586"/>
</g>
<!-- hidebound.specification_base -->
<g id="node9" class="node">
<title>hidebound.specification_base</title>
<polygon fill="#343434" stroke="#343434" points="819,-679.3802 571,-679.3802 571,-643.3802 819,-643.3802 819,-679.3802"/>
<text text-anchor="middle" x="695" y="-657.6802" font-family="Courier,monospace" font-size="14.00" fill="#b6ecf3">hidebound.specification_base</text>
</g>
<!-- hidebound.parser&#45;&gt;hidebound.specification_base -->
<g id="edge7" class="edge">
<title>hidebound.parser&#45;&gt;hidebound.specification_base</title>
<path fill="none" stroke="#b6ecf3" d="M296.7464,-621.234C360.2341,-624.8423 453.725,-630.9457 535,-639.3802 543.3189,-640.2435 551.8713,-641.2043 560.49,-642.2282"/>
<polygon fill="#b6ecf3" stroke="#b6ecf3" points="560.2795,-645.7282 570.628,-643.457 561.1219,-638.7791 560.2795,-645.7282"/>
</g>
<!-- hidebound.validators -->
<g id="node14" class="node">
<title>hidebound.validators</title>
<polygon fill="#343434" stroke="#343434" points="535,-572.3802 353,-572.3802 353,-536.3802 535,-536.3802 535,-572.3802"/>
<text text-anchor="middle" x="444" y="-550.6802" font-family="Courier,monospace" font-size="14.00" fill="#b6ecf3">hidebound.validators</text>
</g>
<!-- hidebound.parser&#45;&gt;hidebound.validators -->
<g id="edge8" class="edge">
<title>hidebound.parser&#45;&gt;hidebound.validators</title>
<path fill="none" stroke="#b6ecf3" d="M285.6163,-599.3269C312.0904,-591.814 342.9915,-583.0448 370.4348,-575.2568"/>
<polygon fill="#b6ecf3" stroke="#b6ecf3" points="371.7098,-578.5333 380.3744,-572.4361 369.7987,-571.7992 371.7098,-578.5333"/>
</g>
<!-- hidebound.specification_base&#45;&gt;hidebound.config -->
<g id="edge9" class="edge">
<title>hidebound.specification_base&#45;&gt;hidebound.config</title>
<path fill="none" stroke="#b6ecf3" d="M819.2276,-661.3802C845.8547,-661.3802 873.4013,-661.3802 898.1318,-661.3802"/>
<polygon fill="#b6ecf3" stroke="#b6ecf3" points="898.1837,-664.8803 908.1836,-661.3802 898.1836,-657.8803 898.1837,-664.8803"/>
</g>
<!-- hidebound.specification_base&#45;&gt;hidebound.database -->
<g id="edge10" class="edge">
<title>hidebound.specification_base&#45;&gt;hidebound.database</title>
<path fill="none" stroke="#b6ecf3" d="M724.9012,-679.5035C793.8235,-721.4619 968.8391,-829.0622 1111,-925.3802 1127.3394,-936.4506 1130.0058,-941.3439 1147,-951.3802 1159.3492,-958.6733 1173.1341,-965.71 1186.1646,-971.9051"/>
<polygon fill="#b6ecf3" stroke="#b6ecf3" points="1184.9465,-975.199 1195.4882,-976.2589 1187.9083,-968.8565 1184.9465,-975.199"/>
</g>
<!-- hidebound.specification_base&#45;&gt;hidebound.database_test_base -->
<g id="edge11" class="edge">
<title>hidebound.specification_base&#45;&gt;hidebound.database_test_base</title>
<path fill="none" stroke="#b6ecf3" d="M722.354,-643.3342C774.5734,-608.8839 888.4555,-533.7533 946.8662,-495.2185"/>
<polygon fill="#b6ecf3" stroke="#b6ecf3" points="948.9875,-498.0121 955.4073,-489.5837 945.1327,-492.1691 948.9875,-498.0121"/>
</g>
<!-- hidebound.specifications -->
<g id="node10" class="node">
<title>hidebound.specifications</title>
<polygon fill="#343434" stroke="#343434" points="1090.5,-367.3802 875.5,-367.3802 875.5,-331.3802 1090.5,-331.3802 1090.5,-367.3802"/>
<text text-anchor="middle" x="983" y="-345.6802" font-family="Courier,monospace" font-size="14.00" fill="#b6ecf3">hidebound.specifications</text>
</g>
<!-- hidebound.specification_base&#45;&gt;hidebound.specifications -->
<g id="edge12" class="edge">
<title>hidebound.specification_base&#45;&gt;hidebound.specifications</title>
<path fill="none" stroke="#b6ecf3" d="M712.9621,-643.155C738.5515,-616.5821 786.0457,-564.9535 819,-515.3802 838.5864,-485.9163 832.1861,-471.4224 855,-444.3802 879.6362,-415.1779 914.9272,-389.8433 942.2157,-372.6979"/>
<polygon fill="#b6ecf3" stroke="#b6ecf3" points="944.0947,-375.6513 950.7708,-367.4245 940.4215,-369.6924 944.0947,-375.6513"/>
</g>
<!-- hidebound.test_specifications -->
<g id="node11" class="node">
<title>hidebound.test_specifications</title>
<polygon fill="#343434" stroke="#343434" points="1111,-245.3802 855,-245.3802 855,-209.3802 1111,-209.3802 1111,-245.3802"/>
<text text-anchor="middle" x="983" y="-223.6802" font-family="Courier,monospace" font-size="14.00" fill="#b6ecf3">hidebound.test_specifications</text>
</g>
<!-- hidebound.specification_base&#45;&gt;hidebound.test_specifications -->
<g id="edge13" class="edge">
<title>hidebound.specification_base&#45;&gt;hidebound.test_specifications</title>
<path fill="none" stroke="#b6ecf3" d="M710.6906,-643.1328C737.0522,-611.5256 790.1692,-543.6041 819,-477.3802 847.23,-412.5362 816.2268,-381.5268 855,-322.3802 875.3303,-291.3674 909.4469,-266.7926 937.3474,-250.4131"/>
<polygon fill="#b6ecf3" stroke="#b6ecf3" points="939.21,-253.3801 946.1623,-245.3852 935.7418,-247.2996 939.21,-253.3801"/>
</g>
<!-- hidebound.tools -->
<g id="node12" class="node">
<title>hidebound.tools</title>
<polygon fill="#343434" stroke="#343434" points="514,-1053.3802 374,-1053.3802 374,-1017.3802 514,-1017.3802 514,-1053.3802"/>
<text text-anchor="middle" x="444" y="-1031.6802" font-family="Courier,monospace" font-size="14.00" fill="#b6ecf3">hidebound.tools</text>
</g>
<!-- hidebound.tools&#45;&gt;hidebound.client -->
<g id="edge14" class="edge">
<title>hidebound.tools&#45;&gt;hidebound.client</title>
<path fill="none" stroke="#b6ecf3" d="M490.1076,-1053.4475C513.934,-1062.1521 543.6734,-1072.0501 571,-1078.3802 609.1792,-1087.2243 1147.0631,-1154.5335 1358.7699,-1180.8661"/>
<polygon fill="#b6ecf3" stroke="#b6ecf3" points="1358.5498,-1184.3656 1368.9053,-1182.1264 1359.4136,-1177.4191 1358.5498,-1184.3656"/>
</g>
<!-- hidebound.tools&#45;&gt;hidebound.database -->
<g id="edge15" class="edge">
<title>hidebound.tools&#45;&gt;hidebound.database</title>
<path fill="none" stroke="#b6ecf3" d="M514.1017,-1047.3469C636.702,-1065.9844 897.3547,-1095.3923 1111,-1050.3802 1141.526,-1043.9488 1173.6565,-1029.7008 1197.962,-1017.1868"/>
<polygon fill="#b6ecf3" stroke="#b6ecf3" points="1199.6558,-1020.2505 1206.8745,-1012.4955 1196.3952,-1014.0563 1199.6558,-1020.2505"/>
</g>
<!-- hidebound.tools&#45;&gt;hidebound.database_tools -->
<g id="edge16" class="edge">
<title>hidebound.tools&#45;&gt;hidebound.database_tools</title>
<path fill="none" stroke="#b6ecf3" d="M514.2513,-1021.3859C539.1803,-1016.42 567.7431,-1010.7302 594.69,-1005.3623"/>
<polygon fill="#b6ecf3" stroke="#b6ecf3" points="595.4114,-1008.7874 604.535,-1003.4011 594.0438,-1001.9223 595.4114,-1008.7874"/>
</g>
<!-- hidebound.tools&#45;&gt;hidebound.specification_base -->
<g id="edge17" class="edge">
<title>hidebound.tools&#45;&gt;hidebound.specification_base</title>
<path fill="none" stroke="#b6ecf3" d="M456.1063,-1017.3414C496.7691,-956.7521 628.6072,-760.3082 676.9854,-688.2226"/>
<polygon fill="#b6ecf3" stroke="#b6ecf3" points="680.0547,-689.93 682.7212,-679.6762 674.2423,-686.0291 680.0547,-689.93"/>
</g>
<!-- hidebound.traits -->
<g id="node13" class="node">
<title>hidebound.traits</title>
<polygon fill="#343434" stroke="#343434" points="769.5,-245.3802 620.5,-245.3802 620.5,-209.3802 769.5,-209.3802 769.5,-245.3802"/>
<text text-anchor="middle" x="695" y="-223.6802" font-family="Courier,monospace" font-size="14.00" fill="#b6ecf3">hidebound.traits</text>
</g>
<!-- hidebound.traits&#45;&gt;hidebound.database_test_base -->
<g id="edge18" class="edge">
<title>hidebound.traits&#45;&gt;hidebound.database_test_base</title>
<path fill="none" stroke="#b6ecf3" d="M769.7425,-233.9223C787.7153,-238.6959 805.5748,-246.5581 819,-259.3802 858.3443,-296.9571 823.592,-331.9557 855,-376.3802 876.5516,-406.8635 910.9329,-431.5999 938.6382,-448.1814"/>
<polygon fill="#b6ecf3" stroke="#b6ecf3" points="936.9724,-451.2616 947.3741,-453.2755 940.4985,-445.2146 936.9724,-451.2616"/>
</g>
<!-- hidebound.traits&#45;&gt;hidebound.specifications -->
<g id="edge19" class="edge">
<title>hidebound.traits&#45;&gt;hidebound.specifications</title>
<path fill="none" stroke="#b6ecf3" d="M769.7311,-243.4505C786.2081,-247.8778 803.3943,-253.1972 819,-259.3802 864.953,-277.587 914.2302,-305.9545 946.6381,-325.9669"/>
<polygon fill="#b6ecf3" stroke="#b6ecf3" points="944.9767,-329.0555 955.3147,-331.3744 948.6792,-323.1148 944.9767,-329.0555"/>
</g>
<!-- hidebound.traits&#45;&gt;hidebound.test_specifications -->
<g id="edge20" class="edge">
<title>hidebound.traits&#45;&gt;hidebound.test_specifications</title>
<path fill="none" stroke="#b6ecf3" d="M769.5417,-227.3802C792.5684,-227.3802 818.711,-227.3802 844.6111,-227.3802"/>
<polygon fill="#b6ecf3" stroke="#b6ecf3" points="844.9047,-230.8803 854.9047,-227.3802 844.9047,-223.8803 844.9047,-230.8803"/>
</g>
<!-- hidebound.validators&#45;&gt;hidebound.config -->
<g id="edge21" class="edge">
<title>hidebound.validators&#45;&gt;hidebound.config</title>
<path fill="none" stroke="#b6ecf3" d="M500.8474,-572.4593C522.6419,-578.9896 547.8348,-586.0565 571,-591.3802 586.8456,-595.0218 782.5469,-627.8917 898.4298,-647.2673"/>
<polygon fill="#b6ecf3" stroke="#b6ecf3" points="897.9122,-650.7293 908.3524,-648.926 899.0664,-643.8251 897.9122,-650.7293"/>
</g>
<!-- hidebound.validators&#45;&gt;hidebound.database_test_base -->
<g id="edge22" class="edge">
<title>hidebound.validators&#45;&gt;hidebound.database_test_base</title>
<path fill="none" stroke="#b6ecf3" d="M535.126,-548.9591C611.4231,-543.4527 722.937,-533.1461 819,-515.3802 850.9033,-509.48 885.6869,-500.5206 914.9776,-492.2228"/>
<polygon fill="#b6ecf3" stroke="#b6ecf3" points="916.0398,-495.5594 924.6883,-489.4396 914.111,-488.8304 916.0398,-495.5594"/>
</g>
<!-- hidebound.validators&#45;&gt;hidebound.specification_base -->
<g id="edge23" class="edge">
<title>hidebound.validators&#45;&gt;hidebound.specification_base</title>
<path fill="none" stroke="#b6ecf3" d="M482.9549,-572.5231C499.4024,-580.6841 518.5212,-590.8435 535,-601.3802 552.0772,-612.2996 552.8085,-620.4397 571,-629.3802 579.2059,-633.4131 587.9753,-636.9761 596.9155,-640.1161"/>
<polygon fill="#b6ecf3" stroke="#b6ecf3" points="596.0714,-643.5239 606.665,-643.3595 598.2811,-636.8818 596.0714,-643.5239"/>
</g>
<!-- hidebound.validators&#45;&gt;hidebound.specifications -->
<g id="edge24" class="edge">
<title>hidebound.validators&#45;&gt;hidebound.specifications</title>
<path fill="none" stroke="#b6ecf3" d="M496.6737,-536.3173C519.3421,-529.0372 546.2682,-521.0406 571,-515.3802 679.6981,-490.5025 718.4471,-525.5807 819,-477.3802 838.5726,-467.998 838.263,-458.1999 855,-444.3802 885.6757,-419.0513 922.2607,-392.2137 948.4462,-373.5481"/>
<polygon fill="#b6ecf3" stroke="#b6ecf3" points="950.775,-376.1872 956.9043,-367.5453 946.7236,-370.4787 950.775,-376.1872"/>
</g>
<!-- hidebound.validators&#45;&gt;hidebound.test_specifications -->
<g id="edge25" class="edge">
<title>hidebound.validators&#45;&gt;hidebound.test_specifications</title>
<path fill="none" stroke="#b6ecf3" d="M473.7467,-536.3335C565.1152,-480.9022 841.6918,-313.109 944.2164,-250.9094"/>
<polygon fill="#b6ecf3" stroke="#b6ecf3" points="946.2796,-253.7515 953.0138,-245.5722 942.6487,-247.7668 946.2796,-253.7515"/>
</g>
<!-- dash.dependencies -->
<g id="node15" class="node">
<title>dash.dependencies</title>
<polygon fill="#343434" stroke="#343434" points="1522,-974.3802 1365,-974.3802 1365,-938.3802 1522,-938.3802 1522,-974.3802"/>
<text text-anchor="middle" x="1443.5" y="-952.6802" font-family="Courier,monospace" font-size="14.00" fill="#de958e">dash.dependencies</text>
</g>
<!-- dash.dependencies&#45;&gt;hidebound.app -->
<g id="edge26" class="edge">
<title>dash.dependencies&#45;&gt;hidebound.app</title>
<path fill="none" stroke="#de958e" d="M1492.6651,-938.2741C1514.0855,-930.3856 1539.3558,-921.0792 1561.7143,-912.8452"/>
<polygon fill="#de958e" stroke="#de958e" points="1562.9242,-916.1295 1571.0986,-909.3892 1560.5051,-909.5608 1562.9242,-916.1295"/>
</g>
<!-- dash -->
<g id="node16" class="node">
<title>dash</title>
<polygon fill="#343434" stroke="#343434" points="1265,-1471.3802 1211,-1471.3802 1211,-1435.3802 1265,-1435.3802 1265,-1471.3802"/>
<text text-anchor="middle" x="1238" y="-1449.6802" font-family="Courier,monospace" font-size="14.00" fill="#de958e">dash</text>
</g>
<!-- dash&#45;&gt;hidebound.client -->
<g id="edge27" class="edge">
<title>dash&#45;&gt;hidebound.client</title>
<path fill="none" stroke="#de958e" d="M1265.0293,-1451.1469C1284.7331,-1448.2536 1311.0206,-1441.6141 1329,-1426.3802 1394.6467,-1370.7581 1425.8587,-1268.6331 1437.6348,-1219.3901"/>
<polygon fill="#de958e" stroke="#de958e" points="1441.0918,-1219.9736 1439.919,-1209.4438 1434.2694,-1218.4067 1441.0918,-1219.9736"/>
</g>
<!-- dash_ace_editor -->
<g id="node17" class="node">
<title>dash_ace_editor</title>
<polygon fill="#343434" stroke="#343434" points="1308,-1417.3802 1168,-1417.3802 1168,-1381.3802 1308,-1381.3802 1308,-1417.3802"/>
<text text-anchor="middle" x="1238" y="-1395.6802" font-family="Courier,monospace" font-size="14.00" fill="#de958e">dash_ace_editor</text>
</g>
<!-- dash_ace_editor&#45;&gt;hidebound.client -->
<g id="edge28" class="edge">
<title>dash_ace_editor&#45;&gt;hidebound.client</title>
<path fill="none" stroke="#de958e" d="M1308.1081,-1384.3225C1315.5493,-1381.0838 1322.6914,-1377.1521 1329,-1372.3802 1382.4464,-1331.9528 1417.3889,-1258.7389 1433.3916,-1218.9397"/>
<polygon fill="#de958e" stroke="#de958e" points="1436.6688,-1220.1693 1437.0518,-1209.5814 1430.1497,-1217.6196 1436.6688,-1220.1693"/>
</g>
<!-- dash_core_components -->
<g id="node18" class="node">
<title>dash_core_components</title>
<polygon fill="#343434" stroke="#343434" points="1329,-1363.3802 1147,-1363.3802 1147,-1327.3802 1329,-1327.3802 1329,-1363.3802"/>
<text text-anchor="middle" x="1238" y="-1341.6802" font-family="Courier,monospace" font-size="14.00" fill="#de958e">dash_core_components</text>
</g>
<!-- dash_core_components&#45;&gt;hidebound.client -->
<g id="edge29" class="edge">
<title>dash_core_components&#45;&gt;hidebound.client</title>
<path fill="none" stroke="#de958e" d="M1312.0579,-1327.2567C1317.9745,-1324.6654 1323.7036,-1321.7213 1329,-1318.3802 1370.6406,-1292.1126 1406.3828,-1246.5794 1426.3931,-1217.7661"/>
<polygon fill="#de958e" stroke="#de958e" points="1429.3536,-1219.6368 1432.0872,-1209.4007 1423.5669,-1215.6979 1429.3536,-1219.6368"/>
</g>
<!-- dash_html_components -->
<g id="node19" class="node">
<title>dash_html_components</title>
<polygon fill="#343434" stroke="#343434" points="1329,-1309.3802 1147,-1309.3802 1147,-1273.3802 1329,-1273.3802 1329,-1309.3802"/>
<text text-anchor="middle" x="1238" y="-1287.6802" font-family="Courier,monospace" font-size="14.00" fill="#de958e">dash_html_components</text>
</g>
<!-- dash_html_components&#45;&gt;hidebound.client -->
<g id="edge30" class="edge">
<title>dash_html_components&#45;&gt;hidebound.client</title>
<path fill="none" stroke="#de958e" d="M1306.3495,-1273.374C1314.1064,-1270.6645 1321.8034,-1267.6633 1329,-1264.3802 1358.349,-1250.991 1389.0364,-1231.0587 1411.2463,-1215.4034"/>
<polygon fill="#de958e" stroke="#de958e" points="1413.5181,-1218.0819 1419.6198,-1209.4204 1409.4485,-1212.3863 1413.5181,-1218.0819"/>
</g>
<!-- dash_table -->
<g id="node20" class="node">
<title>dash_table</title>
<polygon fill="#343434" stroke="#343434" points="1287.5,-1255.3802 1188.5,-1255.3802 1188.5,-1219.3802 1287.5,-1219.3802 1287.5,-1255.3802"/>
<text text-anchor="middle" x="1238" y="-1233.6802" font-family="Courier,monospace" font-size="14.00" fill="#de958e">dash_table</text>
</g>
<!-- dash_table&#45;&gt;hidebound.client -->
<g id="edge31" class="edge">
<title>dash_table&#45;&gt;hidebound.client</title>
<path fill="none" stroke="#de958e" d="M1287.7458,-1226.2449C1309.1481,-1221.4541 1334.7755,-1215.7176 1359.0038,-1210.2942"/>
<polygon fill="#de958e" stroke="#de958e" points="1359.9299,-1213.6736 1368.9238,-1208.0737 1358.4008,-1206.8426 1359.9299,-1213.6736"/>
</g>
<!-- flasgger -->
<g id="node21" class="node">
<title>flasgger</title>
<polygon fill="#343434" stroke="#343434" points="1279.5,-942.3802 1196.5,-942.3802 1196.5,-906.3802 1279.5,-906.3802 1279.5,-942.3802"/>
<text text-anchor="middle" x="1238" y="-920.6802" font-family="Courier,monospace" font-size="14.00" fill="#de958e">flasgger</text>
</g>
<!-- flasgger&#45;&gt;hidebound.app -->
<g id="edge32" class="edge">
<title>flasgger&#45;&gt;hidebound.app</title>
<path fill="none" stroke="#de958e" d="M1279.6079,-920.7858C1343.917,-915.2303 1468.298,-904.4854 1547.579,-897.6365"/>
<polygon fill="#de958e" stroke="#de958e" points="1548.3138,-901.0861 1557.9754,-896.7384 1547.7112,-894.1121 1548.3138,-901.0861"/>
</g>
<!-- flasgger&#45;&gt;hidebound.client -->
<g id="edge33" class="edge">
<title>flasgger&#45;&gt;hidebound.client</title>
<path fill="none" stroke="#de958e" d="M1279.5678,-937.3314C1296.4568,-944.1815 1315.199,-954.002 1329,-967.3802 1387.6005,-1024.1856 1421.6588,-1117.414 1435.7802,-1163.6241"/>
<polygon fill="#de958e" stroke="#de958e" points="1432.4415,-1164.6763 1438.644,-1173.2658 1439.1517,-1162.6831 1432.4415,-1164.6763"/>
</g>
<!-- jinja2 -->
<g id="node22" class="node">
<title>jinja2</title>
<polygon fill="#343434" stroke="#343434" points="1271,-1125.3802 1205,-1125.3802 1205,-1089.3802 1271,-1089.3802 1271,-1125.3802"/>
<text text-anchor="middle" x="1238" y="-1103.6802" font-family="Courier,monospace" font-size="14.00" fill="#de958e">jinja2</text>
</g>
<!-- jinja2&#45;&gt;hidebound.client -->
<g id="edge34" class="edge">
<title>jinja2&#45;&gt;hidebound.client</title>
<path fill="none" stroke="#de958e" d="M1271.115,-1118.2407C1288.4873,-1124.1349 1310.0431,-1131.7597 1329,-1139.3802 1351.5731,-1148.4544 1376.1895,-1159.4815 1396.7933,-1169.0421"/>
<polygon fill="#de958e" stroke="#de958e" points="1395.414,-1172.2607 1405.9559,-1173.3193 1398.3751,-1165.9178 1395.414,-1172.2607"/>
</g>
<!-- pandasql -->
<g id="node23" class="node">
<title>pandasql</title>
<polygon fill="#343434" stroke="#343434" points="1024.5,-1041.3802 941.5,-1041.3802 941.5,-1005.3802 1024.5,-1005.3802 1024.5,-1041.3802"/>
<text text-anchor="middle" x="983" y="-1019.6802" font-family="Courier,monospace" font-size="14.00" fill="#de958e">pandasql</text>
</g>
<!-- pandasql&#45;&gt;hidebound.database -->
<g id="edge35" class="edge">
<title>pandasql&#45;&gt;hidebound.database</title>
<path fill="none" stroke="#de958e" d="M1024.5377,-1018.6563C1057.1973,-1014.9421 1103.9425,-1009.626 1145.3681,-1004.9148"/>
<polygon fill="#de958e" stroke="#de958e" points="1145.9552,-1008.3707 1155.4956,-1003.7631 1145.1642,-1001.4155 1145.9552,-1008.3707"/>
</g>
<!-- numpy -->
<g id="node24" class="node">
<title>numpy</title>
<polygon fill="#343434" stroke="#343434" points="473,-885.3802 415,-885.3802 415,-849.3802 473,-849.3802 473,-885.3802"/>
<text text-anchor="middle" x="444" y="-863.6802" font-family="Courier,monospace" font-size="14.00" fill="#de958e">numpy</text>
</g>
<!-- numpy&#45;&gt;hidebound.app -->
<g id="edge36" class="edge">
<title>numpy&#45;&gt;hidebound.app</title>
<path fill="none" stroke="#de958e" d="M473.0698,-867.9735C623.9907,-871.0535 1319.9358,-885.2565 1547.6588,-889.9039"/>
<polygon fill="#de958e" stroke="#de958e" points="1547.7538,-893.4064 1557.8232,-890.1113 1547.8967,-886.4079 1547.7538,-893.4064"/>
</g>
<!-- numpy&#45;&gt;hidebound.database -->
<g id="edge37" class="edge">
<title>numpy&#45;&gt;hidebound.database</title>
<path fill="none" stroke="#de958e" d="M473.2005,-872.0508C582.0069,-889.4544 966.7657,-950.9964 1145.494,-979.5839"/>
<polygon fill="#de958e" stroke="#de958e" points="1144.9794,-983.046 1155.4067,-981.1694 1146.085,-976.1339 1144.9794,-983.046"/>
</g>
<!-- numpy&#45;&gt;hidebound.database_test_base -->
<g id="edge38" class="edge">
<title>numpy&#45;&gt;hidebound.database_test_base</title>
<path fill="none" stroke="#de958e" d="M473.0651,-859.3673C540.3192,-839.6733 709.2848,-783.4632 819,-688.3802 840.7978,-669.4895 838.08,-657.7407 855,-634.3802 890.8438,-584.8929 935.4604,-529.3319 961.4368,-497.5333"/>
<polygon fill="#de958e" stroke="#de958e" points="964.3064,-499.5534 967.9346,-489.5992 958.8907,-495.1182 964.3064,-499.5534"/>
</g>
<!-- numpy&#45;&gt;hidebound.database_tools -->
<g id="edge39" class="edge">
<title>numpy&#45;&gt;hidebound.database_tools</title>
<path fill="none" stroke="#de958e" d="M473.3838,-872.6717C492.4553,-877.2496 517.0138,-885.4075 535,-899.3802 557.7786,-917.0759 547.4852,-936.6753 571,-953.3802 576.1147,-957.0137 581.6084,-960.2349 587.3355,-963.0907"/>
<polygon fill="#de958e" stroke="#de958e" points="585.9566,-966.3087 596.5064,-967.2842 588.8676,-959.9426 585.9566,-966.3087"/>
</g>
<!-- flask -->
<g id="node25" class="node">
<title>flask</title>
<polygon fill="#343434" stroke="#343434" points="1472.5,-844.3802 1414.5,-844.3802 1414.5,-808.3802 1472.5,-808.3802 1472.5,-844.3802"/>
<text text-anchor="middle" x="1443.5" y="-822.6802" font-family="Courier,monospace" font-size="14.00" fill="#de958e">flask</text>
</g>
<!-- flask&#45;&gt;hidebound.app -->
<g id="edge40" class="edge">
<title>flask&#45;&gt;hidebound.app</title>
<path fill="none" stroke="#de958e" d="M1472.6454,-837.1136C1496.6767,-845.9637 1531.5296,-858.7991 1561.3068,-869.7652"/>
<polygon fill="#de958e" stroke="#de958e" points="1560.1828,-873.081 1570.7763,-873.2525 1562.6019,-866.5122 1560.1828,-873.081"/>
</g>
<!-- hidebound -->
<g id="node26" class="node">
<title>hidebound</title>
<polygon fill="#343434" stroke="#343434" points="91,-421.3802 0,-421.3802 0,-385.3802 91,-385.3802 91,-421.3802"/>
<text text-anchor="middle" x="45.5" y="-399.6802" font-family="Courier,monospace" font-size="14.00" fill="#a0d17b">hidebound</text>
</g>
<!-- hidebound&#45;&gt;hidebound.app -->
<g id="edge41" class="edge">
<title>hidebound&#45;&gt;hidebound.app</title>
<path fill="none" stroke="#a0d17b" d="M83.3468,-385.1202C86.2815,-382.5286 88.9102,-379.6231 91,-376.3802 130.6005,-314.9291 74.1151,-99.8543 127,-49.3802 229.1222,48.0865 302.831,-29.3802 444,-29.3802 444,-29.3802 444,-29.3802 1238,-29.3802 1424.8409,-29.3802 1582.2233,-714.8528 1614.1081,-863.2624"/>
<polygon fill="#a0d17b" stroke="#a0d17b" points="1610.7561,-864.3259 1616.2646,-873.3761 1617.6022,-862.8661 1610.7561,-864.3259"/>
</g>
<!-- hidebound&#45;&gt;hidebound.client -->
<g id="edge42" class="edge">
<title>hidebound&#45;&gt;hidebound.client</title>
<path fill="none" stroke="#a0d17b" d="M51.0258,-421.4837C60.8909,-454.6313 81.3977,-527.4579 91,-590.3802 100.4062,-652.0173 82.1886,-1107.0265 127,-1150.3802 215.221,-1235.7314 1081.6229,-1206.7489 1358.7337,-1195.1833"/>
<polygon fill="#a0d17b" stroke="#a0d17b" points="1358.8906,-1198.6799 1368.7347,-1194.7628 1358.5964,-1191.6861 1358.8906,-1198.6799"/>
</g>
<!-- hidebound&#45;&gt;hidebound.config -->
<g id="edge43" class="edge">
<title>hidebound&#45;&gt;hidebound.config</title>
<path fill="none" stroke="#a0d17b" d="M91.3493,-403.4416C145.5006,-404.0452 238.1855,-406.7456 317,-417.3802 415.3187,-430.6466 445.1928,-423.2231 535,-465.3802 553.3487,-473.9935 553.3963,-483.3317 571,-493.3802 673.9277,-552.1332 709.3779,-546.3357 819,-591.3802 857.1803,-607.0688 900.0789,-625.4045 932.4231,-639.3738"/>
<polygon fill="#a0d17b" stroke="#a0d17b" points="931.1104,-642.6194 941.6782,-643.3763 933.889,-636.1944 931.1104,-642.6194"/>
</g>
<!-- hidebound&#45;&gt;hidebound.database -->
<g id="edge44" class="edge">
<title>hidebound&#45;&gt;hidebound.database</title>
<path fill="none" stroke="#a0d17b" d="M83.254,-385.0595C86.2075,-382.4802 88.866,-379.5941 91,-376.3802 155.7741,-278.8286 44.7478,-198.7263 127,-115.3802 227.0913,-13.9577 301.5051,-67.3802 444,-67.3802 444,-67.3802 444,-67.3802 695,-67.3802 889.1083,-67.3802 992.8145,-46.399 1111,-200.3802 1212.7292,-332.921 1054.2327,-812.4193 1147,-951.3802 1152.2011,-959.1712 1159.2144,-965.5848 1167.053,-970.8562"/>
<polygon fill="#a0d17b" stroke="#a0d17b" points="1165.4626,-973.9839 1175.8359,-976.1392 1169.0707,-967.9854 1165.4626,-973.9839"/>
</g>
<!-- hidebound&#45;&gt;hidebound.database_test_base -->
<g id="edge45" class="edge">
<title>hidebound&#45;&gt;hidebound.database_test_base</title>
<path fill="none" stroke="#a0d17b" d="M91.0066,-389.0487C150.5058,-371.1308 258.3115,-341.4656 353,-330.3802 559.3191,-306.226 623.7086,-295.5826 819,-366.3802 870.4965,-385.0489 922.5006,-422.1455 953.7424,-446.8661"/>
<polygon fill="#a0d17b" stroke="#a0d17b" points="951.6152,-449.6467 961.6053,-453.1749 955.9959,-444.1869 951.6152,-449.6467"/>
</g>
<!-- hidebound&#45;&gt;hidebound.database_tools -->
<g id="edge46" class="edge">
<title>hidebound&#45;&gt;hidebound.database_tools</title>
<path fill="none" stroke="#a0d17b" d="M50.5006,-421.5754C59.5224,-454.8701 78.7234,-527.9246 91,-590.3802 111.7187,-695.7837 66.5685,-740.5703 127,-829.3802 224.4476,-972.5888 441.6103,-994.5821 577.4031,-993.0711"/>
<polygon fill="#a0d17b" stroke="#a0d17b" points="577.4974,-996.5702 587.4417,-992.9151 577.3885,-989.571 577.4974,-996.5702"/>
</g>
<!-- hidebound&#45;&gt;hidebound.parser -->
<g id="edge47" class="edge">
<title>hidebound&#45;&gt;hidebound.parser</title>
<path fill="none" stroke="#a0d17b" d="M52.8925,-421.7597C65.172,-450.7432 91.9333,-507.8311 127,-547.3802 142.7684,-565.1643 163.7557,-581.2058 181.993,-593.4317"/>
<polygon fill="#a0d17b" stroke="#a0d17b" points="180.4049,-596.5751 190.6901,-599.1179 184.2356,-590.7162 180.4049,-596.5751"/>
</g>
<!-- hidebound&#45;&gt;hidebound.specification_base -->
<g id="edge48" class="edge">
<title>hidebound&#45;&gt;hidebound.specification_base</title>
<path fill="none" stroke="#a0d17b" d="M91.4314,-411.6979C145.6608,-421.8234 238.4199,-440.1012 317,-460.3802 415.146,-485.7086 456.0752,-463.7795 535,-527.3802 560.4116,-547.8579 547.9408,-568.2857 571,-591.3802 590.8149,-611.2255 617.4179,-627.2282 640.9019,-638.897"/>
<polygon fill="#a0d17b" stroke="#a0d17b" points="639.538,-642.1248 650.066,-643.3135 642.5771,-635.819 639.538,-642.1248"/>
</g>
<!-- hidebound&#45;&gt;hidebound.specifications -->
<g id="edge49" class="edge">
<title>hidebound&#45;&gt;hidebound.specifications</title>
<path fill="none" stroke="#a0d17b" d="M82.5686,-385.245C85.7426,-382.6087 88.6373,-379.6592 91,-376.3802 135.1339,-315.1318 69.6188,-259.4369 127,-210.3802 203.4728,-145.0015 252.431,-200.2703 353,-197.3802 560.0299,-191.4307 636.9103,-101.6881 819,-200.3802 844.3591,-214.1248 835.1252,-233.4759 855,-254.3802 881.7557,-282.5218 917.635,-308.354 944.5987,-325.9542"/>
<polygon fill="#a0d17b" stroke="#a0d17b" points="942.7138,-328.9033 953.017,-331.3718 946.502,-323.0169 942.7138,-328.9033"/>
</g>
<!-- hidebound&#45;&gt;hidebound.test_specifications -->
<g id="edge50" class="edge">
<title>hidebound&#45;&gt;hidebound.test_specifications</title>
<path fill="none" stroke="#a0d17b" d="M82.6949,-385.3342C85.8442,-382.6805 88.6986,-379.7026 91,-376.3802 142.9269,-301.4159 58.222,-234.2604 127,-174.3802 243.0154,-73.3737 668.2945,-126.5624 819,-157.3802 863.0296,-166.3839 909.8607,-187.6859 942.1575,-204.4429"/>
<polygon fill="#a0d17b" stroke="#a0d17b" points="940.8025,-207.6853 951.2802,-209.2563 944.069,-201.4942 940.8025,-207.6853"/>
</g>
<!-- hidebound&#45;&gt;hidebound.tools -->
<g id="edge51" class="edge">
<title>hidebound&#45;&gt;hidebound.tools</title>
<path fill="none" stroke="#a0d17b" d="M50.8802,-421.5069C60.5114,-454.6915 80.656,-527.5756 91,-590.3802 98.4138,-635.3939 95.1521,-966.7166 127,-999.3802 158.7832,-1031.9774 280.4682,-1037.5547 363.4856,-1037.3721"/>
<polygon fill="#a0d17b" stroke="#a0d17b" points="363.68,-1040.8713 373.6622,-1037.3208 363.6446,-1033.8714 363.68,-1040.8713"/>
</g>
<!-- hidebound&#45;&gt;hidebound.traits -->
<g id="edge52" class="edge">
<title>hidebound&#45;&gt;hidebound.traits</title>
<path fill="none" stroke="#a0d17b" d="M80.9688,-385.3705C84.615,-382.6616 88.0551,-379.6615 91,-376.3802 116.7716,-347.6641 97.471,-322.2163 127,-297.3802 263.639,-182.4568 488.3213,-194.3825 610.1177,-211.7008"/>
<polygon fill="#a0d17b" stroke="#a0d17b" points="609.7393,-215.1827 620.1415,-213.1715 610.7555,-208.2569 609.7393,-215.1827"/>
</g>
<!-- hidebound&#45;&gt;hidebound.validators -->
<g id="edge53" class="edge">
<title>hidebound&#45;&gt;hidebound.validators</title>
<path fill="none" stroke="#a0d17b" d="M53.1718,-421.579C64.9618,-447.0643 90.109,-492.6912 127,-514.3802 162.5817,-535.2995 263.92,-545.4145 342.539,-550.2174"/>
<polygon fill="#a0d17b" stroke="#a0d17b" points="342.7946,-553.7384 352.9831,-550.8327 343.2063,-546.7506 342.7946,-553.7384"/>
</g>
<!-- pyparsing -->
<g id="node27" class="node">
<title>pyparsing</title>
<polygon fill="#343434" stroke="#343434" points="91,-635.3802 0,-635.3802 0,-599.3802 91,-599.3802 91,-635.3802"/>
<text text-anchor="middle" x="45.5" y="-613.6802" font-family="Courier,monospace" font-size="14.00" fill="#de958e">pyparsing</text>
</g>
<!-- pyparsing&#45;&gt;hidebound.parser -->
<g id="edge54" class="edge">
<title>pyparsing&#45;&gt;hidebound.parser</title>
<path fill="none" stroke="#de958e" d="M91.4125,-617.3802C105.4051,-617.3802 121.2586,-617.3802 136.9755,-617.3802"/>
<polygon fill="#de958e" stroke="#de958e" points="137.2631,-620.8803 147.263,-617.3802 137.263,-613.8803 137.2631,-620.8803"/>
</g>
<!-- pyparsing&#45;&gt;hidebound.specification_base -->
<g id="edge55" class="edge">
<title>pyparsing&#45;&gt;hidebound.specification_base</title>
<path fill="none" stroke="#de958e" d="M91.0181,-635.0361C102.5859,-638.8046 115.1107,-642.2791 127,-644.3802 207.1084,-658.537 419.7255,-661.5091 560.8801,-661.8318"/>
<polygon fill="#de958e" stroke="#de958e" points="560.9103,-665.3318 570.9169,-661.8506 560.9235,-658.3318 560.9103,-665.3318"/>
</g>
<!-- pyparsing&#45;&gt;hidebound.validators -->
<g id="edge56" class="edge">
<title>pyparsing&#45;&gt;hidebound.validators</title>
<path fill="none" stroke="#de958e" d="M91.1549,-600.4146C102.7194,-596.629 115.2083,-592.9737 127,-590.3802 198.2275,-574.7143 280.0449,-565.64 342.716,-560.521"/>
<polygon fill="#de958e" stroke="#de958e" points="343.3089,-563.9849 352.9996,-559.7024 342.7534,-557.007 343.3089,-563.9849"/>
</g>
<!-- schematics.exceptions -->
<g id="node28" class="node">
<title>schematics.exceptions</title>
<polygon fill="#343434" stroke="#343434" points="317,-820.3802 127,-820.3802 127,-784.3802 317,-784.3802 317,-820.3802"/>
<text text-anchor="middle" x="222" y="-798.6802" font-family="Courier,monospace" font-size="14.00" fill="#de958e">schematics.exceptions</text>
</g>
<!-- schematics.exceptions&#45;&gt;hidebound.app -->
<g id="edge57" class="edge">
<title>schematics.exceptions&#45;&gt;hidebound.app</title>
<path fill="none" stroke="#de958e" d="M317.2092,-802.0459C513.2705,-801.3761 976.3095,-799.8903 1365,-799.3802 1434.7777,-799.2886 1457.1203,-773.6983 1522,-799.3802 1555.2856,-812.556 1583.8691,-842.976 1601.4338,-865.2427"/>
<polygon fill="#de958e" stroke="#de958e" points="1598.7587,-867.5063 1607.613,-873.3245 1604.3195,-863.2545 1598.7587,-867.5063"/>
</g>
<!-- schematics.exceptions&#45;&gt;hidebound.config -->
<g id="edge58" class="edge">
<title>schematics.exceptions&#45;&gt;hidebound.config</title>
<path fill="none" stroke="#de958e" d="M317.0774,-795.6717C435.9319,-785.8054 644.9252,-763.5577 819,-719.3802 856.5373,-709.8538 897.6188,-695.3181 929.2752,-683.1819"/>
<polygon fill="#de958e" stroke="#de958e" points="930.721,-686.3754 938.7826,-679.5008 928.1934,-679.8476 930.721,-686.3754"/>
</g>
<!-- schematics.exceptions&#45;&gt;hidebound.database_tools -->
<g id="edge59" class="edge">
<title>schematics.exceptions&#45;&gt;hidebound.database_tools</title>
<path fill="none" stroke="#de958e" d="M235.338,-820.7836C256.7336,-848.7936 301.5804,-901.5848 353,-927.3802 391.6008,-946.7449 494.2915,-962.616 577.1461,-972.8303"/>
<polygon fill="#de958e" stroke="#de958e" points="576.7966,-976.3135 587.1463,-974.0477 577.6426,-969.3648 576.7966,-976.3135"/>
</g>
<!-- schematics.exceptions&#45;&gt;hidebound.specification_base -->
<g id="edge60" class="edge">
<title>schematics.exceptions&#45;&gt;hidebound.specification_base</title>
<path fill="none" stroke="#de958e" d="M241.5482,-784.101C265.7214,-762.6443 309.0775,-727.7852 353,-710.3802 418.5022,-684.4239 495.899,-671.9711 560.4836,-666.0945"/>
<polygon fill="#de958e" stroke="#de958e" points="561.0745,-669.5565 570.7352,-665.2068 560.4705,-662.5826 561.0745,-669.5565"/>
</g>
<!-- schematics.exceptions&#45;&gt;hidebound.tools -->
<g id="edge61" class="edge">
<title>schematics.exceptions&#45;&gt;hidebound.tools</title>
<path fill="none" stroke="#de958e" d="M234.4946,-820.6662C256.4399,-852.1081 304.2266,-917.6341 353,-965.3802 370.1364,-982.1557 391.265,-998.6243 408.8484,-1011.3692"/>
<polygon fill="#de958e" stroke="#de958e" points="406.9917,-1014.3442 417.1624,-1017.3117 411.0621,-1008.6493 406.9917,-1014.3442"/>
</g>
<!-- schematics.exceptions&#45;&gt;hidebound.validators -->
<g id="edge62" class="edge">
<title>schematics.exceptions&#45;&gt;hidebound.validators</title>
<path fill="none" stroke="#de958e" d="M238.3242,-784.1442C277.294,-740.6104 375.8554,-630.5057 420.8994,-580.1863"/>
<polygon fill="#de958e" stroke="#de958e" points="423.5899,-582.4283 427.6519,-572.643 418.3743,-577.7594 423.5899,-582.4283"/>
</g>
<!-- humanfriendly -->
<g id="node29" class="node">
<title>humanfriendly</title>
<polygon fill="#343434" stroke="#343434" points="284,-1087.3802 160,-1087.3802 160,-1051.3802 284,-1051.3802 284,-1087.3802"/>
<text text-anchor="middle" x="222" y="-1065.6802" font-family="Courier,monospace" font-size="14.00" fill="#de958e">humanfriendly</text>
</g>
<!-- humanfriendly&#45;&gt;hidebound.tools -->
<g id="edge63" class="edge">
<title>humanfriendly&#45;&gt;hidebound.tools</title>
<path fill="none" stroke="#de958e" d="M284.1346,-1059.8641C308.8165,-1056.084 337.5257,-1051.6871 363.7492,-1047.6709"/>
<polygon fill="#de958e" stroke="#de958e" points="364.3095,-1051.126 373.6643,-1046.1523 363.2497,-1044.2067 364.3095,-1051.126"/>
</g>
<!-- pandas -->
<g id="node30" class="node">
<title>pandas</title>
<polygon fill="#343434" stroke="#343434" points="255,-1141.3802 189,-1141.3802 189,-1105.3802 255,-1105.3802 255,-1141.3802"/>
<text text-anchor="middle" x="222" y="-1119.6802" font-family="Courier,monospace" font-size="14.00" fill="#de958e">pandas</text>
</g>
<!-- pandas&#45;&gt;hidebound.database -->
<g id="edge64" class="edge">
<title>pandas&#45;&gt;hidebound.database</title>
<path fill="none" stroke="#de958e" d="M255.0705,-1127.7935C374.4421,-1142.4512 792.8335,-1182.7432 1111,-1075.3802 1147.5727,-1063.039 1184.1898,-1038.003 1208.6427,-1019.0131"/>
<polygon fill="#de958e" stroke="#de958e" points="1211.0995,-1021.532 1216.7647,-1012.579 1206.7529,-1016.045 1211.0995,-1021.532"/>
</g>
<!-- pandas&#45;&gt;hidebound.database_test_base -->
<g id="edge65" class="edge">
<title>pandas&#45;&gt;hidebound.database_test_base</title>
<path fill="none" stroke="#de958e" d="M255.0605,-1122.5503C369.5815,-1118.9137 746.2966,-1100.343 819,-1012.3802 872.757,-947.3404 823.6762,-712.7308 855,-634.3802 877.2874,-578.6325 924.9002,-526.3086 955.356,-496.6289"/>
<polygon fill="#de958e" stroke="#de958e" points="957.9084,-499.0305 962.7035,-489.5828 953.0634,-493.9782 957.9084,-499.0305"/>
</g>
<!-- pandas&#45;&gt;hidebound.database_tools -->
<g id="edge66" class="edge">
<title>pandas&#45;&gt;hidebound.database_tools</title>
<path fill="none" stroke="#de958e" d="M255.1718,-1118.0214C324.5919,-1106.6267 483.0478,-1079.6258 535,-1062.3802 577.3396,-1048.3256 622.9396,-1025.5551 654.5839,-1008.4141"/>
<polygon fill="#de958e" stroke="#de958e" points="656.4396,-1011.3884 663.5305,-1003.5163 653.0782,-1005.2483 656.4396,-1011.3884"/>
</g>
<!-- pandas&#45;&gt;hidebound.tools -->
<g id="edge67" class="edge">
<title>pandas&#45;&gt;hidebound.tools</title>
<path fill="none" stroke="#de958e" d="M255.3242,-1117.3454C274.1287,-1113.1109 297.6601,-1106.3877 317,-1096.3802 335.2474,-1086.938 335.0502,-1077.3766 353,-1067.3802 359.6869,-1063.6563 366.8865,-1060.2421 374.2027,-1057.1457"/>
<polygon fill="#de958e" stroke="#de958e" points="375.5379,-1060.3812 383.5024,-1053.3942 372.9192,-1053.8895 375.5379,-1060.3812"/>
</g>
<!-- schematics -->
<g id="node31" class="node">
<title>schematics</title>
<polygon fill="#343434" stroke="#343434" points="493.5,-755.3802 394.5,-755.3802 394.5,-719.3802 493.5,-719.3802 493.5,-755.3802"/>
<text text-anchor="middle" x="444" y="-733.6802" font-family="Courier,monospace" font-size="14.00" fill="#de958e">schematics</text>
</g>
<!-- schematics&#45;&gt;hidebound.config -->
<g id="edge68" class="edge">
<title>schematics&#45;&gt;hidebound.config</title>
<path fill="none" stroke="#de958e" d="M493.5126,-731.4425C565.3351,-722.7085 702.5703,-705.5663 819,-688.3802 844.831,-684.5673 872.8913,-680.0765 898.3776,-675.8634"/>
<polygon fill="#de958e" stroke="#de958e" points="899.0882,-679.2935 908.3798,-674.2026 897.9415,-672.388 899.0882,-679.2935"/>
</g>
<!-- schematics&#45;&gt;hidebound.specification_base -->
<g id="edge69" class="edge">
<title>schematics&#45;&gt;hidebound.specification_base</title>
<path fill="none" stroke="#de958e" d="M493.7803,-719.918C525.932,-708.6773 563.1811,-695.7393 571,-693.3802 583.9317,-689.4785 597.7092,-685.6264 611.2028,-682.0201"/>
<polygon fill="#de958e" stroke="#de958e" points="612.1885,-685.3799 620.962,-679.4405 610.3995,-678.6123 612.1885,-685.3799"/>
</g>
<!-- schematics.types -->
<g id="node32" class="node">
<title>schematics.types</title>
<polygon fill="#343434" stroke="#343434" points="518.5,-375.3802 369.5,-375.3802 369.5,-339.3802 518.5,-339.3802 518.5,-375.3802"/>
<text text-anchor="middle" x="444" y="-353.6802" font-family="Courier,monospace" font-size="14.00" fill="#de958e">schematics.types</text>
</g>
<!-- schematics.types&#45;&gt;hidebound.config -->
<g id="edge70" class="edge">
<title>schematics.types&#45;&gt;hidebound.config</title>
<path fill="none" stroke="#de958e" d="M501.0445,-375.3946C512.4659,-379.5694 524.2518,-384.2952 535,-389.3802 697.4219,-466.2224 875.837,-586.3622 948.9269,-637.2792"/>
<polygon fill="#de958e" stroke="#de958e" points="947.1084,-640.2783 957.3101,-643.1378 951.1183,-634.5406 947.1084,-640.2783"/>
</g>
<!-- schematics.types&#45;&gt;hidebound.database_test_base -->
<g id="edge71" class="edge">
<title>schematics.types&#45;&gt;hidebound.database_test_base</title>
<path fill="none" stroke="#de958e" d="M518.5287,-363.513C594.8433,-370.8607 716.4713,-385.5416 819,-411.3802 857.4985,-421.0823 899.524,-436.5586 931.3942,-449.3629"/>
<polygon fill="#de958e" stroke="#de958e" points="930.3617,-452.7212 940.9438,-453.2416 932.9959,-446.2357 930.3617,-452.7212"/>
</g>
<!-- schematics.types&#45;&gt;hidebound.specification_base -->
<g id="edge72" class="edge">
<title>schematics.types&#45;&gt;hidebound.specification_base</title>
<path fill="none" stroke="#de958e" d="M472.1333,-375.5479C491.1347,-388.6142 516.1018,-407.3939 535,-427.3802 598.2918,-494.3163 654.5696,-588.4726 680.2519,-634.2557"/>
<polygon fill="#de958e" stroke="#de958e" points="677.3416,-636.224 685.2594,-643.2638 683.4599,-632.8229 677.3416,-636.224"/>
</g>
<!-- schematics.types&#45;&gt;hidebound.specifications -->
<g id="edge73" class="edge">
<title>schematics.types&#45;&gt;hidebound.specifications</title>
<path fill="none" stroke="#de958e" d="M518.6625,-356.2721C608.2613,-354.9422 759.5841,-352.6962 865.0408,-351.131"/>
<polygon fill="#de958e" stroke="#de958e" points="865.1526,-354.6298 875.0995,-350.9817 865.0487,-347.6306 865.1526,-354.6298"/>
</g>
<!-- schematics.types&#45;&gt;hidebound.test_specifications -->
<g id="edge74" class="edge">
<title>schematics.types&#45;&gt;hidebound.test_specifications</title>
<path fill="none" stroke="#de958e" d="M478.4909,-339.3173C497.3337,-327.9814 519.848,-311.8323 535,-292.3802 561.9819,-257.741 534.7341,-225.1327 571,-200.3802 681.1992,-125.166 848.9499,-173.5972 932.309,-205.6363"/>
<polygon fill="#de958e" stroke="#de958e" points="931.2171,-208.9675 941.8048,-209.3562 933.7704,-202.4498 931.2171,-208.9675"/>
</g>
<!-- wrapt -->
<g id="node33" class="node">
<title>wrapt</title>
<polygon fill="#343434" stroke="#343434" points="251,-505.3802 193,-505.3802 193,-469.3802 251,-469.3802 251,-505.3802"/>
<text text-anchor="middle" x="222" y="-483.6802" font-family="Courier,monospace" font-size="14.00" fill="#de958e">wrapt</text>
</g>
<!-- wrapt&#45;&gt;hidebound.validators -->
<g id="edge75" class="edge">
<title>wrapt&#45;&gt;hidebound.validators</title>
<path fill="none" stroke="#de958e" d="M251.0226,-496.1393C282.1416,-505.5311 332.683,-520.7845 374.2365,-533.3255"/>
<polygon fill="#de958e" stroke="#de958e" points="373.4577,-536.7463 384.0425,-536.2849 375.4802,-530.0448 373.4577,-536.7463"/>
</g>
<!-- skimage.io -->
<g id="node34" class="node">
<title>skimage.io</title>
<polygon fill="#343434" stroke="#343434" points="493.5,-283.3802 394.5,-283.3802 394.5,-247.3802 493.5,-247.3802 493.5,-283.3802"/>
<text text-anchor="middle" x="444" y="-261.6802" font-family="Courier,monospace" font-size="14.00" fill="#de958e">skimage.io</text>
</g>
<!-- skimage.io&#45;&gt;hidebound.database_test_base -->
<g id="edge76" class="edge">
<title>skimage.io&#45;&gt;hidebound.database_test_base</title>
<path fill="none" stroke="#de958e" d="M493.6825,-263.5845C583.3948,-261.3058 767.8697,-261.3259 819,-297.3802 850.5335,-319.6159 830.7397,-346.3764 855,-376.3802 878.8653,-405.8955 913.9,-431.0535 941.2853,-448.051"/>
<polygon fill="#de958e" stroke="#de958e" points="939.5208,-451.0743 949.884,-453.2781 943.157,-445.0928 939.5208,-451.0743"/>
</g>
<!-- skimage.io&#45;&gt;hidebound.traits -->
<g id="edge77" class="edge">
<title>skimage.io&#45;&gt;hidebound.traits</title>
<path fill="none" stroke="#de958e" d="M493.5895,-257.8726C526.7704,-252.8492 571.291,-246.1091 610.0366,-240.2432"/>
<polygon fill="#de958e" stroke="#de958e" points="610.9098,-243.651 620.2732,-238.6934 609.8619,-236.7298 610.9098,-243.651"/>
</g>
</g>
</svg>
