<?xml version="1.0" encoding="UTF-8" standalone="no"?>
<!DOCTYPE svg PUBLIC "-//W3C//DTD SVG 1.1//EN"
 "http://www.w3.org/Graphics/SVG/1.1/DTD/svg11.dtd">
<!-- Generated by graphviz version 2.40.1 (20161225.0304)
 -->
<!-- Title: %3 Pages: 1 -->
<svg width="2947pt" height="2264pt"
 viewBox="0.00 0.00 2947.00 2264.00" xmlns="http://www.w3.org/2000/svg" xmlns:xlink="http://www.w3.org/1999/xlink">
<g id="graph0" class="graph" transform="scale(1 1) rotate(0) translate(4 2260)">
<title>%3</title>
<polygon fill="#242424" stroke="transparent" points="-4,4 -4,-2260 2943,-2260 2943,4 -4,4"/>
<!-- cli -->
<g id="node1" class="node">
<title>cli</title>
<polygon fill="#343434" stroke="#343434" points="72.5,-1580 18.5,-1580 18.5,-1544 72.5,-1544 72.5,-1580"/>
<text text-anchor="middle" x="45.5" y="-1558.3" font-family="Courier,monospace" font-size="14.00" fill="#b6ecf3">cli</text>
</g>
<!-- hidebound.core.config -->
<g id="node2" class="node">
<title>hidebound.core.config</title>
<polygon fill="#343434" stroke="#343434" points="1669,-1473 1479,-1473 1479,-1437 1669,-1437 1669,-1473"/>
<text text-anchor="middle" x="1574" y="-1451.3" font-family="Courier,monospace" font-size="14.00" fill="#b6ecf3">hidebound.core.config</text>
</g>
<!-- hidebound.core.database -->
<g id="node3" class="node">
<title>hidebound.core.database</title>
<polygon fill="#343434" stroke="#343434" points="1936,-787 1730,-787 1730,-751 1936,-751 1936,-787"/>
<text text-anchor="middle" x="1833" y="-765.3" font-family="Courier,monospace" font-size="14.00" fill="#b6ecf3">hidebound.core.database</text>
</g>
<!-- hidebound.core.config&#45;&gt;hidebound.core.database -->
<g id="edge1" class="edge">
<title>hidebound.core.config&#45;&gt;hidebound.core.database</title>
<path fill="none" stroke="#b6ecf3" d="M1580.9276,-1436.6512C1616.6143,-1342.1296 1779.6913,-910.1959 1822.6196,-796.4941"/>
<polygon fill="#b6ecf3" stroke="#b6ecf3" points="1825.9135,-797.6785 1826.1713,-787.0868 1819.3647,-795.206 1825.9135,-797.6785"/>
</g>
<!-- hidebound.server.app -->
<g id="node17" class="node">
<title>hidebound.server.app</title>
<polygon fill="#343434" stroke="#343434" points="2939,-276 2757,-276 2757,-240 2939,-240 2939,-276"/>
<text text-anchor="middle" x="2848" y="-254.3" font-family="Courier,monospace" font-size="14.00" fill="#b6ecf3">hidebound.server.app</text>
</g>
<!-- hidebound.core.config&#45;&gt;hidebound.server.app -->
<g id="edge2" class="edge">
<title>hidebound.core.config&#45;&gt;hidebound.server.app</title>
<path fill="none" stroke="#b6ecf3" d="M1669.1936,-1451.7443C1772.3606,-1448.5007 1941.8424,-1444 2088,-1444 2088,-1444 2088,-1444 2330.5,-1444 2591.6566,-1444 2805.2984,-465.7451 2842.3204,-286.1464"/>
<polygon fill="#b6ecf3" stroke="#b6ecf3" points="2845.7891,-286.6536 2844.3671,-276.1546 2838.9315,-285.2488 2845.7891,-286.6536"/>
</g>
<!-- hidebound.server.api -->
<g id="node16" class="node">
<title>hidebound.server.api</title>
<polygon fill="#343434" stroke="#343434" points="2179,-490 1997,-490 1997,-454 2179,-454 2179,-490"/>
<text text-anchor="middle" x="2088" y="-468.3" font-family="Courier,monospace" font-size="14.00" fill="#b6ecf3">hidebound.server.api</text>
</g>
<!-- hidebound.core.database&#45;&gt;hidebound.server.api -->
<g id="edge3" class="edge">
<title>hidebound.core.database&#45;&gt;hidebound.server.api</title>
<path fill="none" stroke="#b6ecf3" d="M1848.5675,-750.8684C1892.0466,-700.228 2014.9026,-557.137 2065.6464,-498.0354"/>
<polygon fill="#b6ecf3" stroke="#b6ecf3" points="2068.4535,-500.1388 2072.3122,-490.2717 2063.1424,-495.5789 2068.4535,-500.1388"/>
</g>
<!-- hidebound.server.extension -->
<g id="node19" class="node">
<title>hidebound.server.extension</title>
<polygon fill="#343434" stroke="#343434" points="2446,-787 2215,-787 2215,-751 2446,-751 2446,-787"/>
<text text-anchor="middle" x="2330.5" y="-765.3" font-family="Courier,monospace" font-size="14.00" fill="#b6ecf3">hidebound.server.extension</text>
</g>
<!-- hidebound.core.database&#45;&gt;hidebound.server.extension -->
<g id="edge4" class="edge">
<title>hidebound.core.database&#45;&gt;hidebound.server.extension</title>
<path fill="none" stroke="#b6ecf3" d="M1936.0823,-769C2014.1647,-769 2121.8135,-769 2204.9242,-769"/>
<polygon fill="#b6ecf3" stroke="#b6ecf3" points="2204.9344,-772.5001 2214.9344,-769 2204.9344,-765.5001 2204.9344,-772.5001"/>
</g>
<!-- hidebound.core.database_tools -->
<g id="node4" class="node">
<title>hidebound.core.database_tools</title>
<polygon fill="#343434" stroke="#343434" points="1402,-734 1146,-734 1146,-698 1402,-698 1402,-734"/>
<text text-anchor="middle" x="1274" y="-712.3" font-family="Courier,monospace" font-size="14.00" fill="#b6ecf3">hidebound.core.database_tools</text>
</g>
<!-- hidebound.core.database_tools&#45;&gt;hidebound.core.database -->
<g id="edge5" class="edge">
<title>hidebound.core.database_tools&#45;&gt;hidebound.core.database</title>
<path fill="none" stroke="#b6ecf3" d="M1402.1399,-715.3243C1479.6799,-716.3698 1580.3742,-720.3061 1669,-732 1697.607,-735.7746 1728.5765,-742.1516 1755.8177,-748.5582"/>
<polygon fill="#b6ecf3" stroke="#b6ecf3" points="1755.1342,-751.9934 1765.674,-750.9151 1756.7623,-745.1853 1755.1342,-751.9934"/>
</g>
<!-- hidebound.core.logging -->
<g id="node5" class="node">
<title>hidebound.core.logging</title>
<polygon fill="#343434" stroke="#343434" points="731.5,-437 533.5,-437 533.5,-401 731.5,-401 731.5,-437"/>
<text text-anchor="middle" x="632.5" y="-415.3" font-family="Courier,monospace" font-size="14.00" fill="#b6ecf3">hidebound.core.logging</text>
</g>
<!-- hidebound.core.logging&#45;&gt;hidebound.core.database -->
<g id="edge6" class="edge">
<title>hidebound.core.logging&#45;&gt;hidebound.core.database</title>
<path fill="none" stroke="#b6ecf3" d="M682.7733,-437.0625C711.0234,-446.6065 747.1143,-457.8022 780,-465 877.2975,-486.2958 1581.2304,-532.9169 1669,-580 1739.6484,-617.8986 1793.6635,-699.372 1818.3134,-741.9024"/>
<polygon fill="#b6ecf3" stroke="#b6ecf3" points="1815.4132,-743.883 1823.3968,-750.8482 1821.4992,-740.4246 1815.4132,-743.883"/>
</g>
<!-- hidebound.exporters.exporter_base -->
<g id="node12" class="node">
<title>hidebound.exporters.exporter_base</title>
<polygon fill="#343434" stroke="#343434" points="1069,-1118 780,-1118 780,-1082 1069,-1082 1069,-1118"/>
<text text-anchor="middle" x="924.5" y="-1096.3" font-family="Courier,monospace" font-size="14.00" fill="#b6ecf3">hidebound.exporters.exporter_base</text>
</g>
<!-- hidebound.core.logging&#45;&gt;hidebound.exporters.exporter_base -->
<g id="edge7" class="edge">
<title>hidebound.core.logging&#45;&gt;hidebound.exporters.exporter_base</title>
<path fill="none" stroke="#b6ecf3" d="M640.3103,-437.2151C680.4999,-530.9451 863.997,-958.8954 912.6376,-1072.3347"/>
<polygon fill="#b6ecf3" stroke="#b6ecf3" points="909.5079,-1073.9171 916.6655,-1081.7285 915.9414,-1071.1585 909.5079,-1073.9171"/>
</g>
<!-- hidebound.core.logging&#45;&gt;hidebound.server.api -->
<g id="edge8" class="edge">
<title>hidebound.core.logging&#45;&gt;hidebound.server.api</title>
<path fill="none" stroke="#b6ecf3" d="M686.5126,-400.986C714.1567,-392.5372 748.5331,-383.2032 780,-378 996.9619,-342.1246 1054.0921,-350 1274,-350 1274,-350 1274,-350 1574,-350 1746.9163,-350 1797.8765,-332.6348 1961,-390 1997.5434,-402.8511 2034.1649,-428.1415 2058.6269,-447.2554"/>
<polygon fill="#b6ecf3" stroke="#b6ecf3" points="2056.7499,-450.2349 2066.7523,-453.7281 2061.1114,-444.7597 2056.7499,-450.2349"/>
</g>
<!-- hidebound.server.server_tools -->
<g id="node21" class="node">
<title>hidebound.server.server_tools</title>
<polygon fill="#343434" stroke="#343434" points="1961,-230 1705,-230 1705,-194 1961,-194 1961,-230"/>
<text text-anchor="middle" x="1833" y="-208.3" font-family="Courier,monospace" font-size="14.00" fill="#b6ecf3">hidebound.server.server_tools</text>
</g>
<!-- hidebound.core.logging&#45;&gt;hidebound.server.server_tools -->
<g id="edge9" class="edge">
<title>hidebound.core.logging&#45;&gt;hidebound.server.server_tools</title>
<path fill="none" stroke="#b6ecf3" d="M644.4767,-400.8524C666.738,-368.9268 717.9147,-303.5836 780,-277 1143.5476,-121.3364 1275.6218,-279.6398 1669,-239 1687.3692,-237.1023 1706.8034,-234.466 1725.6222,-231.579"/>
<polygon fill="#b6ecf3" stroke="#b6ecf3" points="1726.3613,-235.006 1735.6994,-230.001 1725.2783,-228.0903 1726.3613,-235.006"/>
</g>
<!-- hidebound.core.parser -->
<g id="node6" class="node">
<title>hidebound.core.parser</title>
<polygon fill="#343434" stroke="#343434" points="485,-1684 295,-1684 295,-1648 485,-1648 485,-1684"/>
<text text-anchor="middle" x="390" y="-1662.3" font-family="Courier,monospace" font-size="14.00" fill="#b6ecf3">hidebound.core.parser</text>
</g>
<!-- hidebound.core.parser&#45;&gt;hidebound.core.database_tools -->
<g id="edge10" class="edge">
<title>hidebound.core.parser&#45;&gt;hidebound.core.database_tools</title>
<path fill="none" stroke="#b6ecf3" d="M475.8974,-1647.8819C479.2462,-1645.286 482.3138,-1642.3405 485,-1639 567.732,-1536.1175 460.0638,-1163.116 521,-1046 588.8879,-915.5231 648.1368,-905.1542 780,-840 893.0669,-784.1331 1033.4829,-752.0276 1135.6784,-734.5479"/>
<polygon fill="#b6ecf3" stroke="#b6ecf3" points="1136.4784,-737.9625 1145.7581,-732.85 1135.3156,-731.0597 1136.4784,-737.9625"/>
</g>
<!-- hidebound.core.specification_base -->
<g id="node7" class="node">
<title>hidebound.core.specification_base</title>
<polygon fill="#343434" stroke="#343434" points="1069,-1790 780,-1790 780,-1754 1069,-1754 1069,-1790"/>
<text text-anchor="middle" x="924.5" y="-1768.3" font-family="Courier,monospace" font-size="14.00" fill="#b6ecf3">hidebound.core.specification_base</text>
</g>
<!-- hidebound.core.parser&#45;&gt;hidebound.core.specification_base -->
<g id="edge11" class="edge">
<title>hidebound.core.parser&#45;&gt;hidebound.core.specification_base</title>
<path fill="none" stroke="#b6ecf3" d="M485.1758,-1655.7921C559.6907,-1652.0867 663.7899,-1656.6324 744,-1698 765.8506,-1709.2692 758.9135,-1727.3586 780,-1740 786.3634,-1743.8149 793.1297,-1747.1763 800.127,-1750.138"/>
<polygon fill="#b6ecf3" stroke="#b6ecf3" points="799.2084,-1753.5374 809.7958,-1753.9339 801.7666,-1747.0215 799.2084,-1753.5374"/>
</g>
<!-- hidebound.core.validators -->
<g id="node11" class="node">
<title>hidebound.core.validators</title>
<polygon fill="#343434" stroke="#343434" points="744,-1630 521,-1630 521,-1594 744,-1594 744,-1630"/>
<text text-anchor="middle" x="632.5" y="-1608.3" font-family="Courier,monospace" font-size="14.00" fill="#b6ecf3">hidebound.core.validators</text>
</g>
<!-- hidebound.core.parser&#45;&gt;hidebound.core.validators -->
<g id="edge12" class="edge">
<title>hidebound.core.parser&#45;&gt;hidebound.core.validators</title>
<path fill="none" stroke="#b6ecf3" d="M471.0861,-1647.9437C493.7359,-1642.9001 518.4936,-1637.387 541.6667,-1632.2268"/>
<polygon fill="#b6ecf3" stroke="#b6ecf3" points="542.4901,-1635.6292 551.4903,-1630.0393 540.9686,-1628.7966 542.4901,-1635.6292"/>
</g>
<!-- hidebound.core.specification_base&#45;&gt;hidebound.core.config -->
<g id="edge13" class="edge">
<title>hidebound.core.specification_base&#45;&gt;hidebound.core.config</title>
<path fill="none" stroke="#b6ecf3" d="M1069.0666,-1782.6944C1203.408,-1789.2568 1390.4279,-1788.6722 1443,-1740 1527.9576,-1661.3447 1402.9838,-1569.3269 1479,-1482 1479.6403,-1481.2644 1480.299,-1480.5483 1480.975,-1479.8509"/>
<polygon fill="#b6ecf3" stroke="#b6ecf3" points="1483.5412,-1482.2596 1488.8287,-1473.0785 1478.9698,-1476.9584 1483.5412,-1482.2596"/>
</g>
<!-- hidebound.core.specification_base&#45;&gt;hidebound.core.database -->
<g id="edge14" class="edge">
<title>hidebound.core.specification_base&#45;&gt;hidebound.core.database</title>
<path fill="none" stroke="#b6ecf3" d="M981.5635,-1753.8642C1092.2699,-1715.3593 1334.8,-1614.0675 1443,-1436 1486.243,-1364.8339 1423.9513,-1125.4837 1479,-1063 1536.2341,-998.0357 1605.2079,-1078.5378 1669,-1020 1707.8362,-984.3626 1678.4392,-952.528 1705,-907 1731.1896,-862.1082 1774.2433,-819.731 1803.0977,-794.0713"/>
<polygon fill="#b6ecf3" stroke="#b6ecf3" points="1805.6217,-796.5133 1810.8338,-787.2891 1801.0071,-791.2496 1805.6217,-796.5133"/>
</g>
<!-- hidebound.core.specification_base&#45;&gt;hidebound.core.database_tools -->
<g id="edge15" class="edge">
<title>hidebound.core.specification_base&#45;&gt;hidebound.core.database_tools</title>
<path fill="none" stroke="#b6ecf3" d="M945.7173,-1753.9614C978.9018,-1724.2885 1042.0698,-1661.5893 1069,-1593 1153.6662,-1377.3615 1046.4232,-1297.1364 1105,-1073 1139.3157,-941.6956 1221.5799,-800.0427 1257.1455,-742.5193"/>
<polygon fill="#b6ecf3" stroke="#b6ecf3" points="1260.121,-744.3624 1262.4381,-734.024 1254.1796,-740.6609 1260.121,-744.3624"/>
</g>
<!-- hidebound.core.specifications -->
<g id="node8" class="node">
<title>hidebound.core.specifications</title>
<polygon fill="#343434" stroke="#343434" points="1402,-1920 1146,-1920 1146,-1884 1402,-1884 1402,-1920"/>
<text text-anchor="middle" x="1274" y="-1898.3" font-family="Courier,monospace" font-size="14.00" fill="#b6ecf3">hidebound.core.specifications</text>
</g>
<!-- hidebound.core.specification_base&#45;&gt;hidebound.core.specifications -->
<g id="edge16" class="edge">
<title>hidebound.core.specification_base&#45;&gt;hidebound.core.specifications</title>
<path fill="none" stroke="#b6ecf3" d="M1020.5724,-1790.051C1036.9109,-1794.0349 1053.5746,-1798.683 1069,-1804 1127.9922,-1824.3339 1192.3489,-1856.9544 1232.9187,-1878.915"/>
<polygon fill="#b6ecf3" stroke="#b6ecf3" points="1231.4974,-1882.1265 1241.9525,-1883.842 1234.8491,-1875.9811 1231.4974,-1882.1265"/>
</g>
<!-- hidebound.core.tools -->
<g id="node9" class="node">
<title>hidebound.core.tools</title>
<polygon fill="#343434" stroke="#343434" points="723.5,-1145 541.5,-1145 541.5,-1109 723.5,-1109 723.5,-1145"/>
<text text-anchor="middle" x="632.5" y="-1123.3" font-family="Courier,monospace" font-size="14.00" fill="#b6ecf3">hidebound.core.tools</text>
</g>
<!-- hidebound.core.tools&#45;&gt;hidebound.core.database -->
<g id="edge17" class="edge">
<title>hidebound.core.tools&#45;&gt;hidebound.core.database</title>
<path fill="none" stroke="#b6ecf3" d="M723.7028,-1111.3307C730.8927,-1108.2082 737.7704,-1104.4712 744,-1100 768.3421,-1082.5288 756.9486,-1062.1419 780,-1043 812.1517,-1016.3012 1437.9544,-772.8626 1479,-765 1558.3984,-749.7905 1649.6584,-751.2661 1719.6312,-756.2964"/>
<polygon fill="#b6ecf3" stroke="#b6ecf3" points="1719.5618,-759.801 1729.7967,-757.0628 1720.0881,-752.8208 1719.5618,-759.801"/>
</g>
<!-- hidebound.core.tools&#45;&gt;hidebound.core.database_tools -->
<g id="edge18" class="edge">
<title>hidebound.core.tools&#45;&gt;hidebound.core.database_tools</title>
<path fill="none" stroke="#b6ecf3" d="M723.7199,-1114.0774C731.1722,-1110.3996 738.0937,-1105.7824 744,-1100 788.6787,-1056.2582 739.1424,-1011.3306 780,-964 871.3312,-858.1992 944.6829,-903.8785 1069,-840 1130.3518,-808.4753 1198.2408,-765.7599 1238.4531,-739.5804"/>
<polygon fill="#b6ecf3" stroke="#b6ecf3" points="1240.3887,-742.4966 1246.8443,-734.0957 1236.5588,-736.6372 1240.3887,-742.4966"/>
</g>
<!-- hidebound.core.tools&#45;&gt;hidebound.core.specification_base -->
<g id="edge19" class="edge">
<title>hidebound.core.tools&#45;&gt;hidebound.core.specification_base</title>
<path fill="none" stroke="#b6ecf3" d="M644.7714,-1145.1777C668.4593,-1181.2802 720.2405,-1265.3396 744,-1344 785.3828,-1481.0059 708.8255,-1539.8334 780,-1664 801.8537,-1702.1246 843.1589,-1730.9009 876.0289,-1749.1237"/>
<polygon fill="#b6ecf3" stroke="#b6ecf3" points="874.589,-1752.3235 885.0531,-1753.9827 877.9076,-1746.1601 874.589,-1752.3235"/>
</g>
<!-- hidebound.core.traits -->
<g id="node10" class="node">
<title>hidebound.core.traits</title>
<polygon fill="#343434" stroke="#343434" points="1019.5,-2034 829.5,-2034 829.5,-1998 1019.5,-1998 1019.5,-2034"/>
<text text-anchor="middle" x="924.5" y="-2012.3" font-family="Courier,monospace" font-size="14.00" fill="#b6ecf3">hidebound.core.traits</text>
</g>
<!-- hidebound.core.tools&#45;&gt;hidebound.core.traits -->
<g id="edge20" class="edge">
<title>hidebound.core.tools&#45;&gt;hidebound.core.traits</title>
<path fill="none" stroke="#b6ecf3" d="M645.0008,-1145.1104C669.0909,-1181.0951 721.5445,-1264.9575 744,-1344 799.436,-1539.1325 713.6501,-1607.3036 780,-1799 806.6059,-1875.8692 867.0701,-1951.7553 900.7421,-1990.1552"/>
<polygon fill="#b6ecf3" stroke="#b6ecf3" points="898.2428,-1992.6119 907.4988,-1997.7672 903.4779,-1987.965 898.2428,-1992.6119"/>
</g>
<!-- hidebound.core.tools&#45;&gt;hidebound.exporters.exporter_base -->
<g id="edge21" class="edge">
<title>hidebound.core.tools&#45;&gt;hidebound.exporters.exporter_base</title>
<path fill="none" stroke="#b6ecf3" d="M723.6895,-1118.5681C738.3772,-1117.21 753.9306,-1115.7718 769.6213,-1114.321"/>
<polygon fill="#b6ecf3" stroke="#b6ecf3" points="770.3092,-1117.7724 779.9444,-1113.3664 769.6646,-1110.8021 770.3092,-1117.7724"/>
</g>
<!-- hidebound.exporters.local_disk_exporter -->
<g id="node14" class="node">
<title>hidebound.exporters.local_disk_exporter</title>
<polygon fill="#343434" stroke="#343434" points="1443,-1118 1105,-1118 1105,-1082 1443,-1082 1443,-1118"/>
<text text-anchor="middle" x="1274" y="-1096.3" font-family="Courier,monospace" font-size="14.00" fill="#b6ecf3">hidebound.exporters.local_disk_exporter</text>
</g>
<!-- hidebound.core.tools&#45;&gt;hidebound.exporters.local_disk_exporter -->
<g id="edge22" class="edge">
<title>hidebound.core.tools&#45;&gt;hidebound.exporters.local_disk_exporter</title>
<path fill="none" stroke="#b6ecf3" d="M721.587,-1108.9283C729.3092,-1106.3172 736.8839,-1103.3548 744,-1100 762.0904,-1091.4714 761.0263,-1079.3246 780,-1073 922.9833,-1025.3389 1102.0502,-1055.7013 1200.5558,-1079.5185"/>
<polygon fill="#b6ecf3" stroke="#b6ecf3" points="1199.8683,-1082.9537 1210.4151,-1081.9459 1201.5418,-1076.1567 1199.8683,-1082.9537"/>
</g>
<!-- hidebound.exporters.s3_exporter -->
<g id="node15" class="node">
<title>hidebound.exporters.s3_exporter</title>
<polygon fill="#343434" stroke="#343434" points="1410,-1427 1138,-1427 1138,-1391 1410,-1391 1410,-1427"/>
<text text-anchor="middle" x="1274" y="-1405.3" font-family="Courier,monospace" font-size="14.00" fill="#b6ecf3">hidebound.exporters.s3_exporter</text>
</g>
<!-- hidebound.core.tools&#45;&gt;hidebound.exporters.s3_exporter -->
<g id="edge23" class="edge">
<title>hidebound.core.tools&#45;&gt;hidebound.exporters.s3_exporter</title>
<path fill="none" stroke="#b6ecf3" d="M641.936,-1145.3188C673.4937,-1206.5064 773.728,-1400.1907 780,-1404 836.3854,-1438.2458 1003.3875,-1433.1395 1127.7034,-1423.6095"/>
<polygon fill="#b6ecf3" stroke="#b6ecf3" points="1128.0101,-1427.0963 1137.7063,-1422.8262 1127.4636,-1420.1177 1128.0101,-1427.0963"/>
</g>
<!-- hidebound.core.tools&#45;&gt;hidebound.server.app -->
<g id="edge24" class="edge">
<title>hidebound.core.tools&#45;&gt;hidebound.server.app</title>
<path fill="none" stroke="#b6ecf3" d="M723.5331,-1116.1788C731.3262,-1112.1249 738.3688,-1106.8443 744,-1100 802.1551,-1029.3171 723.0038,-348.6207 780,-277 873.3295,-159.7234 956.7974,-209.365 1105,-187 1815.3987,-79.7949 2010.3389,-121.5487 2721,-227 2738.3594,-229.5759 2756.8186,-233.4239 2774.1296,-237.5406"/>
<polygon fill="#b6ecf3" stroke="#b6ecf3" points="2773.6279,-241.0207 2784.1723,-239.9878 2775.2853,-234.2197 2773.6279,-241.0207"/>
</g>
<!-- hidebound.core.tools&#45;&gt;hidebound.server.extension -->
<g id="edge25" class="edge">
<title>hidebound.core.tools&#45;&gt;hidebound.server.extension</title>
<path fill="none" stroke="#b6ecf3" d="M644.5535,-1145.2454C667.8596,-1181.4665 719.0025,-1265.7242 744,-1344 761.0083,-1397.2588 737.7327,-1556.4042 780,-1593 877.1048,-1677.0752 964.0307,-1667.0232 1069,-1593 1107.9454,-1565.5361 1068.4378,-1522.565 1105,-1492 1221.8253,-1394.3372 1303.4977,-1497.0351 1443,-1436 1822.5457,-1269.9408 1912.5824,-1181.2575 2179,-864 2200.9909,-837.8126 2187.9177,-816.8789 2215,-796 2216.6513,-794.727 2218.3526,-793.5124 2220.0974,-792.3537"/>
<polygon fill="#b6ecf3" stroke="#b6ecf3" points="2222.3179,-795.1075 2229.1539,-787.0131 2218.7622,-789.0779 2222.3179,-795.1075"/>
</g>
<!-- hidebound.core.traits&#45;&gt;hidebound.core.specifications -->
<g id="edge26" class="edge">
<title>hidebound.core.traits&#45;&gt;hidebound.core.specifications</title>
<path fill="none" stroke="#b6ecf3" d="M979.8793,-1997.9364C1042.0354,-1977.6623 1142.786,-1944.7994 1208.722,-1923.2924"/>
<polygon fill="#b6ecf3" stroke="#b6ecf3" points="1210.1696,-1926.5018 1218.5913,-1920.0732 1207.9989,-1919.8468 1210.1696,-1926.5018"/>
</g>
<!-- hidebound.core.validators&#45;&gt;hidebound.core.config -->
<g id="edge27" class="edge">
<title>hidebound.core.validators&#45;&gt;hidebound.core.config</title>
<path fill="none" stroke="#b6ecf3" d="M640.0361,-1630.0464C657.6588,-1669.548 705.7737,-1763.0099 780,-1799 845.9832,-1830.9933 1439.8869,-1778.9305 1443,-1776 1538.8547,-1685.7689 1393.4042,-1582.0157 1479,-1482 1479.6341,-1481.2591 1480.2869,-1480.5378 1480.9573,-1479.8356"/>
<polygon fill="#b6ecf3" stroke="#b6ecf3" points="1483.5316,-1482.2341 1488.76,-1473.0192 1478.9263,-1476.9624 1483.5316,-1482.2341"/>
</g>
<!-- hidebound.core.validators&#45;&gt;hidebound.core.specification_base -->
<g id="edge28" class="edge">
<title>hidebound.core.validators&#45;&gt;hidebound.core.specification_base</title>
<path fill="none" stroke="#b6ecf3" d="M702.9478,-1630.0767C717.8391,-1636.4058 732.5061,-1644.835 744,-1656 773.1348,-1684.3009 748.7237,-1714.0854 780,-1740 784.039,-1743.3466 788.3527,-1746.3629 792.8716,-1749.0804"/>
<polygon fill="#b6ecf3" stroke="#b6ecf3" points="791.3411,-1752.2324 801.7965,-1753.9462 794.6919,-1746.0864 791.3411,-1752.2324"/>
</g>
<!-- hidebound.core.validators&#45;&gt;hidebound.core.specifications -->
<g id="edge29" class="edge">
<title>hidebound.core.validators&#45;&gt;hidebound.core.specifications</title>
<path fill="none" stroke="#b6ecf3" d="M636.5975,-1630.1675C648.6835,-1679.0163 689.1833,-1813.3071 780,-1870 837.3181,-1905.7812 1010.5965,-1909.6797 1135.7591,-1907.3625"/>
<polygon fill="#b6ecf3" stroke="#b6ecf3" points="1135.8908,-1910.8607 1145.8187,-1907.1611 1135.7506,-1903.8621 1135.8908,-1910.8607"/>
</g>
<!-- hidebound.core.validators&#45;&gt;hidebound.exporters.exporter_base -->
<g id="edge30" class="edge">
<title>hidebound.core.validators&#45;&gt;hidebound.exporters.exporter_base</title>
<path fill="none" stroke="#b6ecf3" d="M684.9437,-1593.9151C706.8258,-1583.627 730.2955,-1568.4233 744,-1547 834.7023,-1405.2116 683.9294,-1308.2075 780,-1170 795.3778,-1147.8775 819.7413,-1132.4816 844.1134,-1121.8865"/>
<polygon fill="#b6ecf3" stroke="#b6ecf3" points="845.516,-1125.0942 853.436,-1118.0569 842.8561,-1118.6192 845.516,-1125.0942"/>
</g>
<!-- hidebound.exporters.girder_exporter -->
<g id="node13" class="node">
<title>hidebound.exporters.girder_exporter</title>
<polygon fill="#343434" stroke="#343434" points="1426.5,-1271 1121.5,-1271 1121.5,-1235 1426.5,-1235 1426.5,-1271"/>
<text text-anchor="middle" x="1274" y="-1249.3" font-family="Courier,monospace" font-size="14.00" fill="#b6ecf3">hidebound.exporters.girder_exporter</text>
</g>
<!-- hidebound.core.validators&#45;&gt;hidebound.exporters.girder_exporter -->
<g id="edge31" class="edge">
<title>hidebound.core.validators&#45;&gt;hidebound.exporters.girder_exporter</title>
<path fill="none" stroke="#b6ecf3" d="M678.9036,-1593.9528C701.2214,-1583.2377 726.7962,-1567.6639 744,-1547 774.2235,-1510.6978 747.0805,-1480.8765 780,-1447 788.0673,-1438.6982 1088.0419,-1323.8227 1216.5341,-1274.857"/>
<polygon fill="#b6ecf3" stroke="#b6ecf3" points="1218.1205,-1277.9981 1226.2192,-1271.1673 1215.6284,-1271.4568 1218.1205,-1277.9981"/>
</g>
<!-- hidebound.core.validators&#45;&gt;hidebound.exporters.local_disk_exporter -->
<g id="edge32" class="edge">
<title>hidebound.core.validators&#45;&gt;hidebound.exporters.local_disk_exporter</title>
<path fill="none" stroke="#b6ecf3" d="M684.5646,-1593.993C706.5107,-1583.6914 730.1377,-1568.455 744,-1547 785.7122,-1482.4411 726.5618,-1258.2459 780,-1203 825.0761,-1156.399 1005.6979,-1177.0124 1069,-1163 1118.3684,-1152.0719 1173.0477,-1135.0093 1213.5105,-1121.396"/>
<polygon fill="#b6ecf3" stroke="#b6ecf3" points="1214.8719,-1124.6302 1223.2184,-1118.1043 1212.6241,-1118.0009 1214.8719,-1124.6302"/>
</g>
<!-- hidebound.core.validators&#45;&gt;hidebound.exporters.s3_exporter -->
<g id="edge33" class="edge">
<title>hidebound.core.validators&#45;&gt;hidebound.exporters.s3_exporter</title>
<path fill="none" stroke="#b6ecf3" d="M696.8092,-1630.0297C789.3483,-1651.7932 960.8056,-1675.9707 1069,-1593 1111.1626,-1560.6669 1069.0949,-1518.1655 1105,-1479 1125.6305,-1456.4961 1154.5982,-1441.0224 1182.7323,-1430.4724"/>
<polygon fill="#b6ecf3" stroke="#b6ecf3" points="1183.9884,-1433.7404 1192.2282,-1427.0803 1181.6336,-1427.1484 1183.9884,-1433.7404"/>
</g>
<!-- hidebound.exporters.exporter_base&#45;&gt;hidebound.exporters.girder_exporter -->
<g id="edge34" class="edge">
<title>hidebound.exporters.exporter_base&#45;&gt;hidebound.exporters.girder_exporter</title>
<path fill="none" stroke="#b6ecf3" d="M965.6198,-1118.001C1029.8159,-1146.104 1153.6917,-1200.3329 1223.314,-1230.8113"/>
<polygon fill="#b6ecf3" stroke="#b6ecf3" points="1222.2018,-1234.145 1232.7661,-1234.9491 1225.0091,-1227.7326 1222.2018,-1234.145"/>
</g>
<!-- hidebound.exporters.exporter_base&#45;&gt;hidebound.exporters.local_disk_exporter -->
<g id="edge35" class="edge">
<title>hidebound.exporters.exporter_base&#45;&gt;hidebound.exporters.local_disk_exporter</title>
<path fill="none" stroke="#b6ecf3" d="M1069.1779,-1100C1077.6139,-1100 1086.1463,-1100 1094.6932,-1100"/>
<polygon fill="#b6ecf3" stroke="#b6ecf3" points="1094.7283,-1103.5001 1104.7283,-1100 1094.7283,-1096.5001 1094.7283,-1103.5001"/>
</g>
<!-- hidebound.exporters.exporter_base&#45;&gt;hidebound.exporters.s3_exporter -->
<g id="edge36" class="edge">
<title>hidebound.exporters.exporter_base&#45;&gt;hidebound.exporters.s3_exporter</title>
<path fill="none" stroke="#b6ecf3" d="M959.65,-1118.1387C991.6142,-1136.0941 1038.3426,-1166.1883 1069,-1203 1093.1759,-1232.0291 1081.3019,-1250.5796 1105,-1280 1141.0123,-1324.7082 1195.646,-1362.7071 1232.982,-1385.6469"/>
<polygon fill="#b6ecf3" stroke="#b6ecf3" points="1231.2423,-1388.6851 1241.6095,-1390.8694 1234.8672,-1382.6968 1231.2423,-1388.6851"/>
</g>
<!-- hidebound.exporters.girder_exporter&#45;&gt;hidebound.core.config -->
<g id="edge37" class="edge">
<title>hidebound.exporters.girder_exporter&#45;&gt;hidebound.core.config</title>
<path fill="none" stroke="#b6ecf3" d="M1300.887,-1271.1039C1355.1697,-1307.6543 1477.8399,-1390.2522 1538.5702,-1431.1439"/>
<polygon fill="#b6ecf3" stroke="#b6ecf3" points="1536.8157,-1434.182 1547.0654,-1436.8641 1540.7254,-1428.3756 1536.8157,-1434.182"/>
</g>
<!-- hidebound.exporters.girder_exporter&#45;&gt;hidebound.core.database -->
<g id="edge38" class="edge">
<title>hidebound.exporters.girder_exporter&#45;&gt;hidebound.core.database</title>
<path fill="none" stroke="#b6ecf3" d="M1311.1044,-1234.941C1349.8141,-1214.1969 1409.4426,-1176.5412 1443,-1127 1477.8249,-1075.5877 1434.8033,-1035.6194 1479,-992 1540.9908,-930.819 1593.9684,-988.2293 1669,-944 1733.7549,-905.8286 1788.7363,-834.468 1815.5268,-795.7093"/>
<polygon fill="#b6ecf3" stroke="#b6ecf3" points="1818.6865,-797.2871 1821.417,-787.0501 1812.8986,-793.35 1818.6865,-797.2871"/>
</g>
<!-- hidebound.exporters.local_disk_exporter&#45;&gt;hidebound.core.config -->
<g id="edge39" class="edge">
<title>hidebound.exporters.local_disk_exporter&#45;&gt;hidebound.core.config</title>
<path fill="none" stroke="#b6ecf3" d="M1305.7286,-1118.1144C1342.1909,-1140.0939 1402.2336,-1179.9746 1443,-1226 1499.5861,-1289.8859 1543.1987,-1382.0882 1562.7462,-1427.5431"/>
<polygon fill="#b6ecf3" stroke="#b6ecf3" points="1559.53,-1428.9239 1566.6561,-1436.7642 1565.9746,-1426.1913 1559.53,-1428.9239"/>
</g>
<!-- hidebound.exporters.local_disk_exporter&#45;&gt;hidebound.core.database -->
<g id="edge40" class="edge">
<title>hidebound.exporters.local_disk_exporter&#45;&gt;hidebound.core.database</title>
<path fill="none" stroke="#b6ecf3" d="M1300.9374,-1081.8216C1334.5438,-1058.9993 1393.6029,-1018.4178 1443,-982 1459.3152,-969.9717 1460.7858,-962.8941 1479,-954 1557.265,-915.7827 1591.4136,-945.5769 1669,-906 1725.6675,-877.0939 1779.9989,-825.4478 1809.7007,-794.4925"/>
<polygon fill="#b6ecf3" stroke="#b6ecf3" points="1812.3721,-796.7618 1816.7078,-787.0947 1807.29,-791.948 1812.3721,-796.7618"/>
</g>
<!-- hidebound.exporters.s3_exporter&#45;&gt;hidebound.core.config -->
<g id="edge41" class="edge">
<title>hidebound.exporters.s3_exporter&#45;&gt;hidebound.core.config</title>
<path fill="none" stroke="#b6ecf3" d="M1391.7069,-1427.0484C1417.0994,-1430.9419 1443.7881,-1435.0342 1468.6719,-1438.8497"/>
<polygon fill="#b6ecf3" stroke="#b6ecf3" points="1468.4313,-1442.3536 1478.8463,-1440.4098 1469.4923,-1435.4345 1468.4313,-1442.3536"/>
</g>
<!-- hidebound.exporters.s3_exporter&#45;&gt;hidebound.core.database -->
<g id="edge42" class="edge">
<title>hidebound.exporters.s3_exporter&#45;&gt;hidebound.core.database</title>
<path fill="none" stroke="#b6ecf3" d="M1312.6445,-1390.8371C1352.3521,-1369.994 1412.5367,-1331.8827 1443,-1280 1499.8391,-1183.1961 1403.8735,-1113.4127 1479,-1030 1537.2888,-965.2822 1596.1964,-1029.808 1669,-982 1742.2053,-933.9282 1796.2086,-841.8834 1819.8265,-796.1612"/>
<polygon fill="#b6ecf3" stroke="#b6ecf3" points="1822.9999,-797.642 1824.4011,-787.1402 1816.7567,-794.476 1822.9999,-797.642"/>
</g>
<!-- hidebound.server.api&#45;&gt;hidebound.server.extension -->
<g id="edge43" class="edge">
<title>hidebound.server.api&#45;&gt;hidebound.server.extension</title>
<path fill="none" stroke="#b6ecf3" d="M2102.8044,-490.1316C2144.1522,-540.772 2260.9858,-683.863 2309.2422,-742.9646"/>
<polygon fill="#b6ecf3" stroke="#b6ecf3" points="2306.5455,-745.196 2315.5812,-750.7283 2311.9677,-740.7687 2306.5455,-745.196"/>
</g>
<!-- hidebound.server.components -->
<g id="node18" class="node">
<title>hidebound.server.components</title>
<polygon fill="#343434" stroke="#343434" points="1952.5,-1622 1713.5,-1622 1713.5,-1586 1952.5,-1586 1952.5,-1622"/>
<text text-anchor="middle" x="1833" y="-1600.3" font-family="Courier,monospace" font-size="14.00" fill="#b6ecf3">hidebound.server.components</text>
</g>
<!-- hidebound.server.components&#45;&gt;hidebound.server.app -->
<g id="edge44" class="edge">
<title>hidebound.server.components&#45;&gt;hidebound.server.app</title>
<path fill="none" stroke="#b6ecf3" d="M1883.6993,-1622.0637C2034.4279,-1672.1788 2483.9974,-1795.1184 2721,-1572 2818.0982,-1480.59 2843.6155,-469.2737 2847.4502,-286.2952"/>
<polygon fill="#b6ecf3" stroke="#b6ecf3" points="2850.9527,-286.2029 2847.6585,-276.1332 2843.9542,-286.0594 2850.9527,-286.2029"/>
</g>
<!-- hidebound.server.extensions -->
<g id="node20" class="node">
<title>hidebound.server.extensions</title>
<polygon fill="#343434" stroke="#343434" points="2721,-707 2482,-707 2482,-671 2721,-671 2721,-707"/>
<text text-anchor="middle" x="2601.5" y="-685.3" font-family="Courier,monospace" font-size="14.00" fill="#b6ecf3">hidebound.server.extensions</text>
</g>
<!-- hidebound.server.extension&#45;&gt;hidebound.server.extensions -->
<g id="edge45" class="edge">
<title>hidebound.server.extension&#45;&gt;hidebound.server.extensions</title>
<path fill="none" stroke="#b6ecf3" d="M2391.6556,-750.9467C2432.7871,-738.8046 2487.156,-722.7547 2530.246,-710.0344"/>
<polygon fill="#b6ecf3" stroke="#b6ecf3" points="2531.4986,-713.314 2540.0985,-707.1259 2529.5167,-706.6004 2531.4986,-713.314"/>
</g>
<!-- hidebound.server.extensions&#45;&gt;hidebound.server.api -->
<g id="edge46" class="edge">
<title>hidebound.server.extensions&#45;&gt;hidebound.server.api</title>
<path fill="none" stroke="#b6ecf3" d="M2558.7252,-670.9238C2465.0833,-631.3516 2242.1913,-537.1597 2140.3653,-494.1291"/>
<polygon fill="#b6ecf3" stroke="#b6ecf3" points="2141.4712,-490.7968 2130.8975,-490.1281 2138.7464,-497.2447 2141.4712,-490.7968"/>
</g>
<!-- hidebound.server.extensions&#45;&gt;hidebound.server.app -->
<g id="edge47" class="edge">
<title>hidebound.server.extensions&#45;&gt;hidebound.server.app</title>
<path fill="none" stroke="#b6ecf3" d="M2611.9344,-670.7558C2650.6792,-603.0113 2786.4188,-365.6735 2832.5332,-285.0433"/>
<polygon fill="#b6ecf3" stroke="#b6ecf3" points="2835.7736,-286.4274 2837.7001,-276.0091 2829.6972,-282.9521 2835.7736,-286.4274"/>
</g>
<!-- hidebound.server.server_tools&#45;&gt;hidebound.server.api -->
<g id="edge48" class="edge">
<title>hidebound.server.server_tools&#45;&gt;hidebound.server.api</title>
<path fill="none" stroke="#b6ecf3" d="M1882.901,-230.0849C1908.2456,-240.9698 1938.3764,-256.6844 1961,-277 2015.684,-326.1052 2056.7807,-403.8895 2075.9871,-444.7972"/>
<polygon fill="#b6ecf3" stroke="#b6ecf3" points="2072.8144,-446.2752 2080.18,-453.8909 2079.1713,-443.3442 2072.8144,-446.2752"/>
</g>
<!-- hidebound.server.server_tools&#45;&gt;hidebound.server.app -->
<g id="edge49" class="edge">
<title>hidebound.server.server_tools&#45;&gt;hidebound.server.app</title>
<path fill="none" stroke="#b6ecf3" d="M1961.0975,-213.6525C2133.8461,-216.5581 2450.9811,-224.2789 2721,-244 2729.3481,-244.6097 2737.9944,-245.3439 2746.6698,-246.1525"/>
<polygon fill="#b6ecf3" stroke="#b6ecf3" points="2746.5615,-249.6582 2756.851,-247.133 2747.2326,-242.6904 2746.5615,-249.6582"/>
</g>
<!-- dash -->
<g id="node22" class="node">
<title>dash</title>
<polygon fill="#343434" stroke="#343434" points="1601,-1596 1547,-1596 1547,-1560 1601,-1560 1601,-1596"/>
<text text-anchor="middle" x="1574" y="-1574.3" font-family="Courier,monospace" font-size="14.00" fill="#de958e">dash</text>
</g>
<!-- dash&#45;&gt;hidebound.server.app -->
<g id="edge50" class="edge">
<title>dash&#45;&gt;hidebound.server.app</title>
<path fill="none" stroke="#de958e" d="M1601.0144,-1576.2075C1677.4126,-1571.2985 1901.5787,-1558 2088,-1558 2088,-1558 2088,-1558 2330.5,-1558 2541.5013,-1558 2623.2194,-1474.9772 2721,-1288 2816.005,-1106.3304 2842.4601,-433.7116 2847.1642,-286.5638"/>
<polygon fill="#de958e" stroke="#de958e" points="2850.6754,-286.2553 2847.4883,-276.1512 2843.6788,-286.0374 2850.6754,-286.2553"/>
</g>
<!-- dash&#45;&gt;hidebound.server.components -->
<g id="edge51" class="edge">
<title>dash&#45;&gt;hidebound.server.components</title>
<path fill="none" stroke="#de958e" d="M1601.228,-1580.7333C1626.0265,-1583.2227 1664.5622,-1587.0912 1703.1405,-1590.9639"/>
<polygon fill="#de958e" stroke="#de958e" points="1703.1744,-1594.4848 1713.474,-1592.0013 1703.8737,-1587.5198 1703.1744,-1594.4848"/>
</g>
<!-- hidebound.server -->
<g id="node23" class="node">
<title>hidebound.server</title>
<polygon fill="#343434" stroke="#343434" points="1648.5,-1527 1499.5,-1527 1499.5,-1491 1648.5,-1491 1648.5,-1527"/>
<text text-anchor="middle" x="1574" y="-1505.3" font-family="Courier,monospace" font-size="14.00" fill="#a0d17b">hidebound.server</text>
</g>
<!-- hidebound.server&#45;&gt;hidebound.server.api -->
<g id="edge52" class="edge">
<title>hidebound.server&#45;&gt;hidebound.server.api</title>
<path fill="none" stroke="#a0d17b" d="M1648.6005,-1495.1851C1656.0242,-1491.7203 1663.0142,-1487.3957 1669,-1482 1700.9995,-1453.155 1688.4974,-1431.7953 1705,-1392 1815.4319,-1125.6988 1851.4924,-1062.6826 1961,-796 2005.7218,-687.0894 2055.9478,-556.2463 2077.3842,-499.9695"/>
<polygon fill="#a0d17b" stroke="#a0d17b" points="2080.7588,-500.9422 2081.044,-490.3512 2074.2164,-498.4527 2080.7588,-500.9422"/>
</g>
<!-- hidebound.server&#45;&gt;hidebound.server.app -->
<g id="edge53" class="edge">
<title>hidebound.server&#45;&gt;hidebound.server.app</title>
<path fill="none" stroke="#a0d17b" d="M1648.8982,-1511.6068C1748.9629,-1514.8597 1931.801,-1520 2088,-1520 2088,-1520 2088,-1520 2330.5,-1520 2597.3245,-1520 2609.2283,-1306.2858 2721,-1064 2787.3799,-920.1092 2834.7349,-412.1201 2845.6189,-286.3348"/>
<polygon fill="#a0d17b" stroke="#a0d17b" points="2849.1097,-286.5915 2846.4772,-276.3289 2842.1353,-285.9932 2849.1097,-286.5915"/>
</g>
<!-- hidebound.server&#45;&gt;hidebound.server.components -->
<g id="edge54" class="edge">
<title>hidebound.server&#45;&gt;hidebound.server.components</title>
<path fill="none" stroke="#a0d17b" d="M1623.3256,-1527.0924C1666.3511,-1542.874 1728.8431,-1565.7957 1774.4056,-1582.5078"/>
<polygon fill="#a0d17b" stroke="#a0d17b" points="1773.2644,-1585.8172 1783.8581,-1585.975 1775.675,-1579.2454 1773.2644,-1585.8172"/>
</g>
<!-- hidebound.server&#45;&gt;hidebound.server.extension -->
<g id="edge55" class="edge">
<title>hidebound.server&#45;&gt;hidebound.server.extension</title>
<path fill="none" stroke="#a0d17b" d="M1640.4281,-1490.9824C1650.0586,-1488.1207 1659.8161,-1485.0832 1669,-1482 1685.2746,-1476.5362 1688.6688,-1473.2923 1705,-1468 1912.1506,-1400.871 2040.346,-1511.907 2179,-1344 2256.7079,-1249.8974 2136.0648,-889.0756 2215,-796 2215.6119,-795.2785 2216.2389,-794.5743 2216.8805,-793.8868"/>
<polygon fill="#a0d17b" stroke="#a0d17b" points="2219.242,-796.4702 2224.2751,-787.1471 2214.5266,-791.2966 2219.242,-796.4702"/>
</g>
<!-- hidebound.server&#45;&gt;hidebound.server.extensions -->
<g id="edge56" class="edge">
<title>hidebound.server&#45;&gt;hidebound.server.extensions</title>
<path fill="none" stroke="#a0d17b" d="M1648.6261,-1504.7248C1791.251,-1495.2374 2095.7799,-1468.2353 2179,-1407 2434.9196,-1218.6884 2562.7409,-824.8315 2593.8557,-716.8782"/>
<polygon fill="#a0d17b" stroke="#a0d17b" points="2597.278,-717.6388 2596.6435,-707.063 2590.5443,-715.7262 2597.278,-717.6388"/>
</g>
<!-- hidebound.server&#45;&gt;hidebound.server.server_tools -->
<g id="edge57" class="edge">
<title>hidebound.server&#45;&gt;hidebound.server.server_tools</title>
<path fill="none" stroke="#a0d17b" d="M1648.8521,-1498.058C1656.6222,-1494.1193 1663.6256,-1488.8981 1669,-1482 1751.3246,-1376.336 1633.2374,-390.1033 1705,-277 1717.1582,-257.8378 1736.8607,-244.0838 1757.2027,-234.3149"/>
<polygon fill="#a0d17b" stroke="#a0d17b" points="1758.8851,-237.396 1766.5692,-230.1019 1756.0136,-231.0121 1758.8851,-237.396"/>
</g>
<!-- dash_cytoscape -->
<g id="node24" class="node">
<title>dash_cytoscape</title>
<polygon fill="#343434" stroke="#343434" points="1640,-2202 1508,-2202 1508,-2166 1640,-2166 1640,-2202"/>
<text text-anchor="middle" x="1574" y="-2180.3" font-family="Courier,monospace" font-size="14.00" fill="#de958e">dash_cytoscape</text>
</g>
<!-- dash_cytoscape&#45;&gt;hidebound.server.components -->
<g id="edge58" class="edge">
<title>dash_cytoscape&#45;&gt;hidebound.server.components</title>
<path fill="none" stroke="#de958e" d="M1640.1216,-2170.9331C1650.8368,-2166.3871 1661.0176,-2160.2595 1669,-2152 1744.0769,-2074.3169 1809.9991,-1732.8492 1828.0984,-1632.0852"/>
<polygon fill="#de958e" stroke="#de958e" points="1831.5773,-1632.5124 1829.8845,-1622.0537 1824.6857,-1631.2853 1831.5773,-1632.5124"/>
</g>
<!-- flask -->
<g id="node25" class="node">
<title>flask</title>
<polygon fill="#343434" stroke="#343434" points="1603,-452 1545,-452 1545,-416 1603,-416 1603,-452"/>
<text text-anchor="middle" x="1574" y="-430.3" font-family="Courier,monospace" font-size="14.00" fill="#de958e">flask</text>
</g>
<!-- flask&#45;&gt;hidebound.server.api -->
<g id="edge59" class="edge">
<title>flask&#45;&gt;hidebound.server.api</title>
<path fill="none" stroke="#de958e" d="M1603.261,-433.0325C1668.0073,-431.2848 1828.188,-429.1274 1961,-445 1975.0937,-446.6844 1989.9379,-449.1737 2004.3107,-451.97"/>
<polygon fill="#de958e" stroke="#de958e" points="2003.6775,-455.4127 2014.1707,-453.9489 2005.0549,-448.5495 2003.6775,-455.4127"/>
</g>
<!-- flask&#45;&gt;hidebound.server.app -->
<g id="edge60" class="edge">
<title>flask&#45;&gt;hidebound.server.app</title>
<path fill="none" stroke="#de958e" d="M1592.4327,-415.8031C1612.2837,-395.8094 1644.3347,-362.3574 1669,-331 1686.8329,-308.3287 1679.9137,-291.2365 1705,-277 1779.1131,-234.9407 2002.7842,-258 2088,-258 2088,-258 2088,-258 2330.5,-258 2475.0517,-258 2642.3156,-258 2746.646,-258"/>
<polygon fill="#de958e" stroke="#de958e" points="2746.856,-261.5001 2756.856,-258 2746.8559,-254.5001 2746.856,-261.5001"/>
</g>
<!-- flask&#45;&gt;hidebound.server.components -->
<g id="edge61" class="edge">
<title>flask&#45;&gt;hidebound.server.components</title>
<path fill="none" stroke="#de958e" d="M1579.8106,-452.1529C1595.5836,-501.8384 1639.962,-644.392 1669,-765 1744.9906,-1080.6237 1810.8541,-1469.4148 1828.4177,-1575.9092"/>
<polygon fill="#de958e" stroke="#de958e" points="1824.979,-1576.5683 1830.0548,-1585.8681 1831.8863,-1575.4328 1824.979,-1576.5683"/>
</g>
<!-- flask&#45;&gt;hidebound.server.extension -->
<g id="edge62" class="edge">
<title>flask&#45;&gt;hidebound.server.extension</title>
<path fill="none" stroke="#de958e" d="M1603.1806,-449.0344C1629.5873,-462.5063 1669.6419,-482.6107 1705,-499 1914.6367,-596.1712 2168.5689,-702.2669 2277.1162,-747.0814"/>
<polygon fill="#de958e" stroke="#de958e" points="2275.9628,-750.3916 2286.5419,-750.9696 2278.6323,-743.9206 2275.9628,-750.3916"/>
</g>
<!-- flask&#45;&gt;hidebound.server.server_tools -->
<g id="edge63" class="edge">
<title>flask&#45;&gt;hidebound.server.server_tools</title>
<path fill="none" stroke="#de958e" d="M1594.4352,-415.9684C1615.3718,-396.6327 1647.7774,-364.2067 1669,-331 1691.535,-295.7398 1673.3123,-271.3313 1705,-244 1708.9109,-240.6268 1713.1257,-237.5996 1717.5607,-234.8835"/>
<polygon fill="#de958e" stroke="#de958e" points="1719.2777,-237.9336 1726.3388,-230.0348 1715.8931,-231.8062 1719.2777,-237.9336"/>
</g>
<!-- jinja2 -->
<g id="node26" class="node">
<title>jinja2</title>
<polygon fill="#343434" stroke="#343434" points="1607,-230 1541,-230 1541,-194 1607,-194 1607,-230"/>
<text text-anchor="middle" x="1574" y="-208.3" font-family="Courier,monospace" font-size="14.00" fill="#de958e">jinja2</text>
</g>
<!-- jinja2&#45;&gt;hidebound.server.server_tools -->
<g id="edge64" class="edge">
<title>jinja2&#45;&gt;hidebound.server.server_tools</title>
<path fill="none" stroke="#de958e" d="M1607.0656,-212C1629.8677,-212 1661.8721,-212 1694.6367,-212"/>
<polygon fill="#de958e" stroke="#de958e" points="1694.8201,-215.5001 1704.8201,-212 1694.82,-208.5001 1694.8201,-215.5001"/>
</g>
<!-- flasgger -->
<g id="node27" class="node">
<title>flasgger</title>
<polygon fill="#343434" stroke="#343434" points="1874.5,-322 1791.5,-322 1791.5,-286 1874.5,-286 1874.5,-322"/>
<text text-anchor="middle" x="1833" y="-300.3" font-family="Courier,monospace" font-size="14.00" fill="#de958e">flasgger</text>
</g>
<!-- flasgger&#45;&gt;hidebound.server.api -->
<g id="edge65" class="edge">
<title>flasgger&#45;&gt;hidebound.server.api</title>
<path fill="none" stroke="#de958e" d="M1874.7777,-307.7781C1901.1332,-311.7078 1934.984,-319.7119 1961,-336 1982.1257,-349.2264 1980.2716,-360.5231 1997,-379 2018.2257,-402.4441 2043.4513,-428.06 2061.954,-446.4607"/>
<polygon fill="#de958e" stroke="#de958e" points="2059.8734,-449.3263 2069.4408,-453.8776 2064.7999,-444.3533 2059.8734,-449.3263"/>
</g>
<!-- flasgger&#45;&gt;hidebound.server.extensions -->
<g id="edge66" class="edge">
<title>flasgger&#45;&gt;hidebound.server.extensions</title>
<path fill="none" stroke="#de958e" d="M1874.8711,-311.829C1978.8538,-332.7485 2254.2825,-397.3124 2446,-526 2503.1782,-564.38 2555.2648,-627.0755 2582.2142,-662.4811"/>
<polygon fill="#de958e" stroke="#de958e" points="2579.7069,-664.9707 2588.512,-670.8632 2585.3033,-660.7659 2579.7069,-664.9707"/>
</g>
<!-- flask_healthz -->
<g id="node28" class="node">
<title>flask_healthz</title>
<polygon fill="#343434" stroke="#343434" points="2392.5,-841 2268.5,-841 2268.5,-805 2392.5,-805 2392.5,-841"/>
<text text-anchor="middle" x="2330.5" y="-819.3" font-family="Courier,monospace" font-size="14.00" fill="#de958e">flask_healthz</text>
</g>
<!-- flask_healthz&#45;&gt;hidebound.server.extensions -->
<g id="edge67" class="edge">
<title>flask_healthz&#45;&gt;hidebound.server.extensions</title>
<path fill="none" stroke="#de958e" d="M2392.7252,-812.9114C2410.3836,-808.8678 2429.331,-803.3674 2446,-796 2493.9454,-774.8088 2542.6862,-738.3237 2572.5089,-713.9311"/>
<polygon fill="#de958e" stroke="#de958e" points="2574.9326,-716.4683 2580.4024,-707.3946 2570.468,-711.0769 2574.9326,-716.4683"/>
</g>
<!-- requests -->
<g id="node29" class="node">
<title>requests</title>
<polygon fill="#343434" stroke="#343434" points="1615.5,-322 1532.5,-322 1532.5,-286 1615.5,-286 1615.5,-322"/>
<text text-anchor="middle" x="1574" y="-300.3" font-family="Courier,monospace" font-size="14.00" fill="#de958e">requests</text>
</g>
<!-- requests&#45;&gt;hidebound.core.database -->
<g id="edge68" class="edge">
<title>requests&#45;&gt;hidebound.core.database</title>
<path fill="none" stroke="#de958e" d="M1594.9566,-322.3075C1616.0092,-341.6174 1648.2288,-373.7958 1669,-407 1692.2861,-444.2244 1687.5849,-458.6935 1705,-499 1743.8834,-588.9942 1795.1121,-693.2556 1819.27,-741.678"/>
<polygon fill="#de958e" stroke="#de958e" points="1816.2622,-743.4887 1823.8647,-750.8679 1822.5233,-740.3583 1816.2622,-743.4887"/>
</g>
<!-- requests&#45;&gt;hidebound.server.server_tools -->
<g id="edge69" class="edge">
<title>requests&#45;&gt;hidebound.server.server_tools</title>
<path fill="none" stroke="#de958e" d="M1615.9399,-293.1995C1632.947,-287.9803 1652.4422,-280.8951 1669,-272 1686.8562,-262.4074 1686.7748,-252.8716 1705,-244 1713.4072,-239.9076 1722.3878,-236.3067 1731.5451,-233.1445"/>
<polygon fill="#de958e" stroke="#de958e" points="1732.7201,-236.4427 1741.1354,-230.0059 1730.5427,-229.79 1732.7201,-236.4427"/>
</g>
<!-- pandasql -->
<g id="node30" class="node">
<title>pandasql</title>
<polygon fill="#343434" stroke="#343434" points="1615.5,-864 1532.5,-864 1532.5,-828 1615.5,-828 1615.5,-864"/>
<text text-anchor="middle" x="1574" y="-842.3" font-family="Courier,monospace" font-size="14.00" fill="#de958e">pandasql</text>
</g>
<!-- pandasql&#45;&gt;hidebound.core.database -->
<g id="edge70" class="edge">
<title>pandasql&#45;&gt;hidebound.core.database</title>
<path fill="none" stroke="#de958e" d="M1615.6684,-834.3424C1632.2813,-829.6464 1651.5654,-824.1348 1669,-819 1700.5538,-809.7069 1735.4256,-799.1199 1764.8712,-790.0878"/>
<polygon fill="#de958e" stroke="#de958e" points="1766.1048,-793.3704 1774.6364,-787.0885 1764.0495,-786.6789 1766.1048,-793.3704"/>
</g>
<!-- yaml -->
<g id="node31" class="node">
<title>yaml</title>
<polygon fill="#343434" stroke="#343434" points="1601,-1108 1547,-1108 1547,-1072 1601,-1072 1601,-1108"/>
<text text-anchor="middle" x="1574" y="-1086.3" font-family="Courier,monospace" font-size="14.00" fill="#de958e">yaml</text>
</g>
<!-- yaml&#45;&gt;hidebound.core.database -->
<g id="edge71" class="edge">
<title>yaml&#45;&gt;hidebound.core.database</title>
<path fill="none" stroke="#de958e" d="M1601.1136,-1086.226C1621.6416,-1082.192 1649.5338,-1074.0587 1669,-1058 1756.3481,-985.9421 1806.163,-854.4859 1824.6505,-797.0776"/>
<polygon fill="#de958e" stroke="#de958e" points="1828.0795,-797.8404 1827.7399,-787.251 1821.4018,-795.7409 1828.0795,-797.8404"/>
</g>
<!-- yaml&#45;&gt;hidebound.server.extension -->
<g id="edge72" class="edge">
<title>yaml&#45;&gt;hidebound.server.extension</title>
<path fill="none" stroke="#de958e" d="M1601.3494,-1081.7667C1620.5087,-1075.7621 1646.5903,-1067.111 1669,-1058 1918.3392,-956.6274 1961.1169,-885.3857 2215,-796 2221.2642,-793.7945 2227.7832,-791.7162 2234.3932,-789.7681"/>
<polygon fill="#de958e" stroke="#de958e" points="2235.4589,-793.1039 2244.1239,-787.0073 2233.5482,-786.3697 2235.4589,-793.1039"/>
</g>
<!-- werkzeug.exceptions -->
<g id="node32" class="node">
<title>werkzeug.exceptions</title>
<polygon fill="#343434" stroke="#343434" points="1919.5,-490 1746.5,-490 1746.5,-454 1919.5,-454 1919.5,-490"/>
<text text-anchor="middle" x="1833" y="-468.3" font-family="Courier,monospace" font-size="14.00" fill="#de958e">werkzeug.exceptions</text>
</g>
<!-- werkzeug.exceptions&#45;&gt;hidebound.server.api -->
<g id="edge73" class="edge">
<title>werkzeug.exceptions&#45;&gt;hidebound.server.api</title>
<path fill="none" stroke="#de958e" d="M1919.6872,-472C1941.223,-472 1964.4956,-472 1986.6652,-472"/>
<polygon fill="#de958e" stroke="#de958e" points="1986.7634,-475.5001 1996.7634,-472 1986.7634,-468.5001 1986.7634,-475.5001"/>
</g>
<!-- dask.distributed -->
<g id="node33" class="node">
<title>dask.distributed</title>
<polygon fill="#343434" stroke="#343434" points="1648.5,-810 1499.5,-810 1499.5,-774 1648.5,-774 1648.5,-810"/>
<text text-anchor="middle" x="1574" y="-788.3" font-family="Courier,monospace" font-size="14.00" fill="#de958e">dask.distributed</text>
</g>
<!-- dask.distributed&#45;&gt;hidebound.core.database -->
<g id="edge74" class="edge">
<title>dask.distributed&#45;&gt;hidebound.core.database</title>
<path fill="none" stroke="#de958e" d="M1648.5661,-785.3783C1670.6646,-783.4159 1695.383,-781.2208 1719.3645,-779.0912"/>
<polygon fill="#de958e" stroke="#de958e" points="1719.9362,-782.5543 1729.5874,-778.1834 1719.317,-775.5817 1719.9362,-782.5543"/>
</g>
<!-- botocore.exceptions -->
<g id="node34" class="node">
<title>botocore.exceptions</title>
<polygon fill="#343434" stroke="#343434" points="1011,-1492 838,-1492 838,-1456 1011,-1456 1011,-1492"/>
<text text-anchor="middle" x="924.5" y="-1470.3" font-family="Courier,monospace" font-size="14.00" fill="#de958e">botocore.exceptions</text>
</g>
<!-- botocore.exceptions&#45;&gt;hidebound.exporters.s3_exporter -->
<g id="edge75" class="edge">
<title>botocore.exceptions&#45;&gt;hidebound.exporters.s3_exporter</title>
<path fill="none" stroke="#de958e" d="M1011.3423,-1457.8491C1058.5354,-1449.0721 1117.2946,-1438.1441 1167.2629,-1428.851"/>
<polygon fill="#de958e" stroke="#de958e" points="1167.9419,-1432.2848 1177.1334,-1427.0153 1166.6619,-1425.4028 1167.9419,-1432.2848"/>
</g>
<!-- boto3 -->
<g id="node35" class="node">
<title>boto3</title>
<polygon fill="#343434" stroke="#343434" points="953.5,-1584 895.5,-1584 895.5,-1548 953.5,-1548 953.5,-1584"/>
<text text-anchor="middle" x="924.5" y="-1562.3" font-family="Courier,monospace" font-size="14.00" fill="#de958e">boto3</text>
</g>
<!-- boto3&#45;&gt;hidebound.exporters.s3_exporter -->
<g id="edge76" class="edge">
<title>boto3&#45;&gt;hidebound.exporters.s3_exporter</title>
<path fill="none" stroke="#de958e" d="M953.5246,-1567.221C985.4925,-1566.997 1036.6452,-1561.793 1069,-1534 1102.6208,-1505.1195 1070.9384,-1469.3593 1105,-1441 1112.1625,-1435.0366 1120.0906,-1430.0516 1128.491,-1425.8951"/>
<polygon fill="#de958e" stroke="#de958e" points="1130.1035,-1429.0074 1137.7779,-1421.703 1127.2235,-1422.6273 1130.1035,-1429.0074"/>
</g>
<!-- lunchbox.tools -->
<g id="node36" class="node">
<title>lunchbox.tools</title>
<polygon fill="#343434" stroke="#343434" points="990.5,-322 858.5,-322 858.5,-286 990.5,-286 990.5,-322"/>
<text text-anchor="middle" x="924.5" y="-300.3" font-family="Courier,monospace" font-size="14.00" fill="#de958e">lunchbox.tools</text>
</g>
<!-- lunchbox.tools&#45;&gt;hidebound.core.database_tools -->
<g id="edge77" class="edge">
<title>lunchbox.tools&#45;&gt;hidebound.core.database_tools</title>
<path fill="none" stroke="#de958e" d="M954.7973,-322.0755C985.7802,-341.5044 1034.1743,-374.5486 1069,-411 1155.6594,-501.7046 1230.1333,-633.0023 1260.0176,-689.0277"/>
<polygon fill="#de958e" stroke="#de958e" points="1256.9799,-690.7706 1264.7502,-697.973 1263.1674,-687.497 1256.9799,-690.7706"/>
</g>
<!-- lunchbox.tools&#45;&gt;hidebound.server.server_tools -->
<g id="edge78" class="edge">
<title>lunchbox.tools&#45;&gt;hidebound.server.server_tools</title>
<path fill="none" stroke="#de958e" d="M987.4131,-285.937C1089.5147,-257.6606 1298.1117,-204.1915 1479,-185 1562.9732,-176.0908 1584.8364,-178.1182 1669,-185 1688.8053,-186.6194 1709.8228,-189.3214 1729.9671,-192.4063"/>
<polygon fill="#de958e" stroke="#de958e" points="1729.67,-195.9025 1740.0924,-193.9993 1730.7579,-188.9876 1729.67,-195.9025"/>
</g>
<!-- girder_client -->
<g id="node37" class="node">
<title>girder_client</title>
<polygon fill="#343434" stroke="#343434" points="986.5,-1248 862.5,-1248 862.5,-1212 986.5,-1212 986.5,-1248"/>
<text text-anchor="middle" x="924.5" y="-1226.3" font-family="Courier,monospace" font-size="14.00" fill="#de958e">girder_client</text>
</g>
<!-- girder_client&#45;&gt;hidebound.exporters.girder_exporter -->
<g id="edge79" class="edge">
<title>girder_client&#45;&gt;hidebound.exporters.girder_exporter</title>
<path fill="none" stroke="#de958e" d="M986.5809,-1234.0854C1021.5037,-1236.3836 1066.8921,-1239.3706 1111.2451,-1242.2894"/>
<polygon fill="#de958e" stroke="#de958e" points="1111.0773,-1245.7858 1121.2856,-1242.9501 1111.5371,-1238.8009 1111.0773,-1245.7858"/>
</g>
<!-- numpy -->
<g id="node38" class="node">
<title>numpy</title>
<polygon fill="#343434" stroke="#343434" points="953.5,-456 895.5,-456 895.5,-420 953.5,-420 953.5,-456"/>
<text text-anchor="middle" x="924.5" y="-434.3" font-family="Courier,monospace" font-size="14.00" fill="#de958e">numpy</text>
</g>
<!-- numpy&#45;&gt;hidebound.core.database -->
<g id="edge80" class="edge">
<title>numpy&#45;&gt;hidebound.core.database</title>
<path fill="none" stroke="#de958e" d="M953.8976,-440.2294C1085.165,-450.4316 1613.6912,-494.2264 1669,-542 1712.106,-579.2333 1673.4705,-617.5623 1705,-665 1727.4787,-698.8203 1764.3378,-727.0878 1792.7439,-745.5745"/>
<polygon fill="#de958e" stroke="#de958e" points="1790.9467,-748.5793 1801.2629,-750.9931 1794.7035,-742.6729 1790.9467,-748.5793"/>
</g>
<!-- numpy&#45;&gt;hidebound.core.database_tools -->
<g id="edge81" class="edge">
<title>numpy&#45;&gt;hidebound.core.database_tools</title>
<path fill="none" stroke="#de958e" d="M947.1624,-456.0262C1007.7757,-504.2393 1173.708,-636.2255 1242.9788,-691.325"/>
<polygon fill="#de958e" stroke="#de958e" points="1240.9287,-694.1666 1250.9337,-697.6526 1245.2863,-688.6883 1240.9287,-694.1666"/>
</g>
<!-- numpy&#45;&gt;hidebound.server.api -->
<g id="edge82" class="edge">
<title>numpy&#45;&gt;hidebound.server.api</title>
<path fill="none" stroke="#de958e" d="M953.792,-433.1771C1077.6286,-413.7262 1569.8143,-345.8859 1961,-427 1986.5529,-432.2985 2013.9534,-441.5251 2036.7384,-450.2498"/>
<polygon fill="#de958e" stroke="#de958e" points="2035.6138,-453.568 2046.2019,-453.9453 2038.1601,-447.0475 2035.6138,-453.568"/>
</g>
<!-- dash.dependencies -->
<g id="node39" class="node">
<title>dash.dependencies</title>
<polygon fill="#343434" stroke="#343434" points="2680,-144 2523,-144 2523,-108 2680,-108 2680,-144"/>
<text text-anchor="middle" x="2601.5" y="-122.3" font-family="Courier,monospace" font-size="14.00" fill="#de958e">dash.dependencies</text>
</g>
<!-- dash.dependencies&#45;&gt;hidebound.server.app -->
<g id="edge83" class="edge">
<title>dash.dependencies&#45;&gt;hidebound.server.app</title>
<path fill="none" stroke="#de958e" d="M2680.006,-142.1299C2694.0303,-146.3716 2708.2297,-151.604 2721,-158 2759.9436,-177.5049 2798.3465,-210.115 2822.5504,-232.7709"/>
<polygon fill="#de958e" stroke="#de958e" points="2820.2325,-235.3965 2829.8926,-239.7477 2825.0544,-230.322 2820.2325,-235.3965"/>
</g>
<!-- hidebound.exporters -->
<g id="node40" class="node">
<title>hidebound.exporters</title>
<polygon fill="#343434" stroke="#343434" points="719,-1091 546,-1091 546,-1055 719,-1055 719,-1091"/>
<text text-anchor="middle" x="632.5" y="-1069.3" font-family="Courier,monospace" font-size="14.00" fill="#a0d17b">hidebound.exporters</text>
</g>
<!-- hidebound.exporters&#45;&gt;hidebound.exporters.exporter_base -->
<g id="edge84" class="edge">
<title>hidebound.exporters&#45;&gt;hidebound.exporters.exporter_base</title>
<path fill="none" stroke="#a0d17b" d="M719.319,-1081.0278C735.2694,-1082.5026 752.3541,-1084.0824 769.605,-1085.6775"/>
<polygon fill="#a0d17b" stroke="#a0d17b" points="769.4942,-1089.1821 779.774,-1086.6178 770.1388,-1082.2118 769.4942,-1089.1821"/>
</g>
<!-- hidebound.exporters&#45;&gt;hidebound.exporters.girder_exporter -->
<g id="edge85" class="edge">
<title>hidebound.exporters&#45;&gt;hidebound.exporters.girder_exporter</title>
<path fill="none" stroke="#a0d17b" d="M697.7624,-1054.9182C787.3449,-1033.9372 950.7385,-1009.7084 1069,-1073 1094.4314,-1086.6105 1085.1479,-1106.0741 1105,-1127 1144.3584,-1168.4872 1198.6331,-1206.2717 1234.9513,-1229.4168"/>
<polygon fill="#a0d17b" stroke="#a0d17b" points="1233.4516,-1232.6087 1243.7779,-1234.9791 1237.1836,-1226.6865 1233.4516,-1232.6087"/>
</g>
<!-- hidebound.exporters&#45;&gt;hidebound.exporters.local_disk_exporter -->
<g id="edge86" class="edge">
<title>hidebound.exporters&#45;&gt;hidebound.exporters.local_disk_exporter</title>
<path fill="none" stroke="#a0d17b" d="M660.1989,-1054.9659C688.8424,-1037.4779 735.5288,-1012.1461 780,-1002 905.2266,-973.4295 943.7351,-973.5979 1069,-1002 1131.9951,-1016.2833 1198.2739,-1052.3889 1237.8629,-1076.5567"/>
<polygon fill="#a0d17b" stroke="#a0d17b" points="1236.2687,-1079.6861 1246.6142,-1081.9711 1239.9517,-1073.7333 1236.2687,-1079.6861"/>
</g>
<!-- hidebound.exporters&#45;&gt;hidebound.exporters.s3_exporter -->
<g id="edge87" class="edge">
<title>hidebound.exporters&#45;&gt;hidebound.exporters.s3_exporter</title>
<path fill="none" stroke="#a0d17b" d="M719.0303,-1083.4302C728.3125,-1087.4616 736.9313,-1092.8447 744,-1100 794.3117,-1150.9281 731.2626,-1204.5633 780,-1257 869.0079,-1352.7639 1016.7189,-1388.7575 1127.4796,-1401.9962"/>
<polygon fill="#a0d17b" stroke="#a0d17b" points="1127.4089,-1405.5109 1137.742,-1403.1707 1128.2049,-1398.5563 1127.4089,-1405.5109"/>
</g>
<!-- json_logging -->
<g id="node41" class="node">
<title>json_logging</title>
<polygon fill="#343434" stroke="#343434" points="448,-418 332,-418 332,-382 448,-382 448,-418"/>
<text text-anchor="middle" x="390" y="-396.3" font-family="Courier,monospace" font-size="14.00" fill="#de958e">json_logging</text>
</g>
<!-- json_logging&#45;&gt;hidebound.core.logging -->
<g id="edge88" class="edge">
<title>json_logging&#45;&gt;hidebound.core.logging</title>
<path fill="none" stroke="#de958e" d="M448.0848,-404.551C470.5981,-406.3149 497.1424,-408.3947 522.9707,-410.4183"/>
<polygon fill="#de958e" stroke="#de958e" points="522.9644,-413.9285 533.2073,-411.2204 523.5113,-406.9499 522.9644,-413.9285"/>
</g>
<!-- schematics.types -->
<g id="node42" class="node">
<title>schematics.types</title>
<polygon fill="#343434" stroke="#343434" points="707,-1538 558,-1538 558,-1502 707,-1502 707,-1538"/>
<text text-anchor="middle" x="632.5" y="-1516.3" font-family="Courier,monospace" font-size="14.00" fill="#de958e">schematics.types</text>
</g>
<!-- schematics.types&#45;&gt;hidebound.core.config -->
<g id="edge89" class="edge">
<title>schematics.types&#45;&gt;hidebound.core.config</title>
<path fill="none" stroke="#de958e" d="M707.0449,-1523.1989C720.7605,-1526.9412 733.9114,-1533.1037 744,-1543 795.7241,-1593.7385 723.3914,-1656.7756 780,-1702 837.555,-1747.9805 1386.8612,-1749.6991 1443,-1702 1518.5041,-1637.8469 1413.0723,-1555.9597 1479,-1482 1479.6489,-1481.272 1480.3159,-1480.5631 1480.9998,-1479.8727"/>
<polygon fill="#de958e" stroke="#de958e" points="1483.5543,-1482.2958 1488.9241,-1473.1625 1479.0308,-1476.9537 1483.5543,-1482.2958"/>
</g>
<!-- schematics.types&#45;&gt;hidebound.core.specification_base -->
<g id="edge90" class="edge">
<title>schematics.types&#45;&gt;hidebound.core.specification_base</title>
<path fill="none" stroke="#de958e" d="M707.0575,-1529.1383C720.9393,-1533.9797 734.1521,-1541.2203 744,-1552 801.3802,-1614.8096 720.7144,-1678.9857 780,-1740 782.8887,-1742.973 785.9872,-1745.6983 789.2576,-1748.1954"/>
<polygon fill="#de958e" stroke="#de958e" points="787.4805,-1751.2194 797.7192,-1753.9435 791.414,-1745.4291 787.4805,-1751.2194"/>
</g>
<!-- schematics.types&#45;&gt;hidebound.core.specifications -->
<g id="edge91" class="edge">
<title>schematics.types&#45;&gt;hidebound.core.specifications</title>
<path fill="none" stroke="#de958e" d="M683.0927,-1538.0084C705.1505,-1548.4012 729.2841,-1563.7113 744,-1585 798.8424,-1664.3375 713.1404,-1729.4881 780,-1799 793.3537,-1812.8835 1021.5919,-1856.3178 1163.1059,-1882.1379"/>
<polygon fill="#de958e" stroke="#de958e" points="1162.6755,-1885.6171 1173.1409,-1883.9659 1163.9301,-1878.7304 1162.6755,-1885.6171"/>
</g>
<!-- schematics.types&#45;&gt;hidebound.exporters.exporter_base -->
<g id="edge92" class="edge">
<title>schematics.types&#45;&gt;hidebound.exporters.exporter_base</title>
<path fill="none" stroke="#de958e" d="M656.1977,-1501.7548C682.435,-1480.0978 723.6984,-1441.4056 744,-1398 794.5436,-1289.9359 699.2328,-1219.8018 780,-1132 782.6338,-1129.1368 785.4615,-1126.5004 788.4509,-1124.0739"/>
<polygon fill="#de958e" stroke="#de958e" points="790.6431,-1126.8085 796.7199,-1118.1296 786.5572,-1121.1247 790.6431,-1126.8085"/>
</g>
<!-- schematics.types&#45;&gt;hidebound.exporters.girder_exporter -->
<g id="edge93" class="edge">
<title>schematics.types&#45;&gt;hidebound.exporters.girder_exporter</title>
<path fill="none" stroke="#de958e" d="M651.1106,-1501.9963C674.3136,-1479.0426 714.509,-1437.5731 744,-1398 762.5828,-1373.0643 754.1133,-1355.2333 780,-1338 888.0421,-1266.0741 941.2008,-1318.667 1069,-1296 1106.8019,-1289.2953 1148.2898,-1280.8075 1183.9945,-1273.1476"/>
<polygon fill="#de958e" stroke="#de958e" points="1184.866,-1276.5402 1193.9038,-1271.0112 1183.3907,-1269.6974 1184.866,-1276.5402"/>
</g>
<!-- schematics.types&#45;&gt;hidebound.exporters.local_disk_exporter -->
<g id="edge94" class="edge">
<title>schematics.types&#45;&gt;hidebound.exporters.local_disk_exporter</title>
<path fill="none" stroke="#de958e" d="M656.0244,-1501.6726C682.1026,-1479.9401 723.2204,-1441.1788 744,-1398 788.4868,-1305.5588 706.8866,-1241.9644 780,-1170 783.1627,-1166.887 984.8652,-1139.0539 1129.5237,-1119.4385"/>
<polygon fill="#de958e" stroke="#de958e" points="1130.3977,-1122.8522 1139.8371,-1118.0409 1129.4576,-1115.9156 1130.3977,-1122.8522"/>
</g>
<!-- schematics.types&#45;&gt;hidebound.exporters.s3_exporter -->
<g id="edge95" class="edge">
<title>schematics.types&#45;&gt;hidebound.exporters.s3_exporter</title>
<path fill="none" stroke="#de958e" d="M707.3828,-1527.8957C795.8767,-1534.7088 946.5657,-1538.3408 1069,-1501 1086.9355,-1495.5299 1088.2873,-1487.5025 1105,-1479 1140.6805,-1460.8477 1182.199,-1443.5995 1215.1549,-1430.7663"/>
<polygon fill="#de958e" stroke="#de958e" points="1216.5832,-1433.9667 1224.6502,-1427.0983 1214.0607,-1427.4369 1216.5832,-1433.9667"/>
</g>
<!-- wrapt -->
<g id="node43" class="node">
<title>wrapt</title>
<polygon fill="#343434" stroke="#343434" points="419,-1630 361,-1630 361,-1594 419,-1594 419,-1630"/>
<text text-anchor="middle" x="390" y="-1608.3" font-family="Courier,monospace" font-size="14.00" fill="#de958e">wrapt</text>
</g>
<!-- wrapt&#45;&gt;hidebound.core.validators -->
<g id="edge96" class="edge">
<title>wrapt&#45;&gt;hidebound.core.validators</title>
<path fill="none" stroke="#de958e" d="M419.2512,-1612C442.4686,-1612 476.6038,-1612 510.7879,-1612"/>
<polygon fill="#de958e" stroke="#de958e" points="510.9021,-1615.5001 520.9021,-1612 510.902,-1608.5001 510.9021,-1615.5001"/>
</g>
<!-- pandas -->
<g id="node44" class="node">
<title>pandas</title>
<polygon fill="#343434" stroke="#343434" points="423,-1287 357,-1287 357,-1251 423,-1251 423,-1287"/>
<text text-anchor="middle" x="390" y="-1265.3" font-family="Courier,monospace" font-size="14.00" fill="#de958e">pandas</text>
</g>
<!-- pandas&#45;&gt;hidebound.core.database -->
<g id="edge97" class="edge">
<title>pandas&#45;&gt;hidebound.core.database</title>
<path fill="none" stroke="#de958e" d="M423.1723,-1268.086C443.863,-1265.7002 469.4302,-1259.1284 485,-1242 544.5744,-1176.462 461.0026,-1111.1511 521,-1046 601.7756,-958.2859 664.0803,-1003.948 780,-976 923.5507,-941.3903 958.6738,-926.8311 1105,-907 1229.4234,-890.1373 1549.5273,-911.6238 1669,-873 1721.1234,-856.1493 1773.1467,-818.7941 1804.2,-793.7504"/>
<polygon fill="#de958e" stroke="#de958e" points="1806.4896,-796.3993 1812.0077,-787.3549 1802.0538,-790.9841 1806.4896,-796.3993"/>
</g>
<!-- pandas&#45;&gt;hidebound.core.database_tools -->
<g id="edge98" class="edge">
<title>pandas&#45;&gt;hidebound.core.database_tools</title>
<path fill="none" stroke="#de958e" d="M423.3237,-1268.6646C444.3517,-1266.5455 470.2408,-1260.0537 485,-1242 551.019,-1161.2442 447.2474,-847.7601 521,-774 542.3785,-752.6194 923.9734,-731.9343 1135.5245,-722.0452"/>
<polygon fill="#de958e" stroke="#de958e" points="1135.9527,-725.5292 1145.7792,-721.5681 1135.6273,-718.5367 1135.9527,-725.5292"/>
</g>
<!-- pandas&#45;&gt;hidebound.core.tools -->
<g id="edge99" class="edge">
<title>pandas&#45;&gt;hidebound.core.tools</title>
<path fill="none" stroke="#de958e" d="M423.264,-1262.8478C442.0491,-1258.5753 465.5811,-1251.8534 485,-1242 532.1132,-1218.0941 578.9204,-1178.1228 606.7799,-1152.1636"/>
<polygon fill="#de958e" stroke="#de958e" points="609.2482,-1154.6468 614.1198,-1145.2384 604.4443,-1149.5553 609.2482,-1154.6468"/>
</g>
<!-- pandas&#45;&gt;hidebound.core.validators -->
<g id="edge100" class="edge">
<title>pandas&#45;&gt;hidebound.core.validators</title>
<path fill="none" stroke="#de958e" d="M392.2018,-1287.2233C399.6383,-1340.6289 428.7561,-1498.1432 521,-1580 524.7117,-1583.2937 528.7419,-1586.2499 532.9948,-1588.9029"/>
<polygon fill="#de958e" stroke="#de958e" points="531.5692,-1592.1154 542.0068,-1593.9339 534.9813,-1586.0034 531.5692,-1592.1154"/>
</g>
<!-- pandas&#45;&gt;hidebound.server.components -->
<g id="edge101" class="edge">
<title>pandas&#45;&gt;hidebound.server.components</title>
<path fill="none" stroke="#de958e" d="M396.9689,-1287.1804C414.995,-1335.0738 463.2646,-1469.0084 485,-1585 494.4017,-1635.1726 487.7651,-2004.2557 521,-2043 640.9525,-2182.8376 740.2633,-2138 924.5,-2138 924.5,-2138 924.5,-2138 1274,-2138 1349.8647,-2138 1377.5246,-2152.32 1443,-2114 1648.4048,-1993.7852 1782.4772,-1719.3146 1821.3158,-1631.5368"/>
<polygon fill="#de958e" stroke="#de958e" points="1824.5815,-1632.8041 1825.3805,-1622.2395 1818.1677,-1630 1824.5815,-1632.8041"/>
</g>
<!-- pyparsing -->
<g id="node45" class="node">
<title>pyparsing</title>
<polygon fill="#343434" stroke="#343434" points="238.5,-1768 147.5,-1768 147.5,-1732 238.5,-1732 238.5,-1768"/>
<text text-anchor="middle" x="193" y="-1746.3" font-family="Courier,monospace" font-size="14.00" fill="#de958e">pyparsing</text>
</g>
<!-- pyparsing&#45;&gt;hidebound.core.parser -->
<g id="edge102" class="edge">
<title>pyparsing&#45;&gt;hidebound.core.parser</title>
<path fill="none" stroke="#de958e" d="M235.2614,-1731.9799C265.411,-1719.1243 306.132,-1701.761 338.2331,-1688.0732"/>
<polygon fill="#de958e" stroke="#de958e" points="339.6431,-1691.2769 347.469,-1684.135 336.8975,-1684.8378 339.6431,-1691.2769"/>
</g>
<!-- pyparsing&#45;&gt;hidebound.core.specification_base -->
<g id="edge103" class="edge">
<title>pyparsing&#45;&gt;hidebound.core.specification_base</title>
<path fill="none" stroke="#de958e" d="M238.7586,-1751.3762C342.8981,-1754.5082 601.58,-1762.2881 769.7715,-1767.3465"/>
<polygon fill="#de958e" stroke="#de958e" points="769.8631,-1770.8508 779.9638,-1767.653 770.0735,-1763.8539 769.8631,-1770.8508"/>
</g>
<!-- pyparsing&#45;&gt;hidebound.core.validators -->
<g id="edge104" class="edge">
<title>pyparsing&#45;&gt;hidebound.core.validators</title>
<path fill="none" stroke="#de958e" d="M238.6851,-1745.506C297.1702,-1738.7622 400.984,-1723.4292 485,-1693 525.4519,-1678.349 568.1741,-1653.7497 597.1682,-1635.496"/>
<polygon fill="#de958e" stroke="#de958e" points="599.1565,-1638.3792 605.7079,-1630.0528 595.394,-1632.4763 599.1565,-1638.3792"/>
</g>
<!-- schematics -->
<g id="node46" class="node">
<title>schematics</title>
<polygon fill="#343434" stroke="#343434" points="682,-1389 583,-1389 583,-1353 682,-1353 682,-1389"/>
<text text-anchor="middle" x="632.5" y="-1367.3" font-family="Courier,monospace" font-size="14.00" fill="#de958e">schematics</text>
</g>
<!-- schematics&#45;&gt;hidebound.core.config -->
<g id="edge105" class="edge">
<title>schematics&#45;&gt;hidebound.core.config</title>
<path fill="none" stroke="#de958e" d="M655.1682,-1389.1324C680.8543,-1410.9712 721.9975,-1450.1086 744,-1493 779.449,-1562.104 719.6897,-1615.0646 780,-1664 829.8707,-1704.4648 1006.1738,-1677.3178 1069,-1664 1264.0351,-1622.6569 1291.5371,-1549.8648 1479,-1482 1484.5773,-1479.9809 1490.382,-1478.0145 1496.2509,-1476.1233"/>
<polygon fill="#de958e" stroke="#de958e" points="1497.665,-1479.348 1506.1594,-1473.0158 1495.5702,-1472.6688 1497.665,-1479.348"/>
</g>
<!-- schematics&#45;&gt;hidebound.core.specification_base -->
<g id="edge106" class="edge">
<title>schematics&#45;&gt;hidebound.core.specification_base</title>
<path fill="none" stroke="#de958e" d="M655.9152,-1389.3804C681.8932,-1411.1615 722.9193,-1449.9675 744,-1493 785.4661,-1577.6458 723.3232,-1626.6867 780,-1702 796.4977,-1723.9224 821.6696,-1739.3351 846.4071,-1750.0031"/>
<polygon fill="#de958e" stroke="#de958e" points="845.2669,-1753.3181 855.8477,-1753.863 847.9161,-1746.8387 845.2669,-1753.3181"/>
</g>
<!-- schematics&#45;&gt;hidebound.exporters.exporter_base -->
<g id="edge107" class="edge">
<title>schematics&#45;&gt;hidebound.exporters.exporter_base</title>
<path fill="none" stroke="#de958e" d="M638.1387,-1352.8878C653.1759,-1307.7537 698.725,-1189.7653 780,-1132 784.9643,-1128.4717 790.2481,-1125.3224 795.7497,-1122.5122"/>
<polygon fill="#de958e" stroke="#de958e" points="797.6194,-1125.5018 805.1961,-1118.096 794.6548,-1119.1605 797.6194,-1125.5018"/>
</g>
<!-- schematics&#45;&gt;hidebound.exporters.girder_exporter -->
<g id="edge108" class="edge">
<title>schematics&#45;&gt;hidebound.exporters.girder_exporter</title>
<path fill="none" stroke="#de958e" d="M662.0553,-1352.8911C690.988,-1336.1198 736.8811,-1312.0143 780,-1300 840.4396,-1283.1597 992.0218,-1270.2675 1111.4669,-1262.2824"/>
<polygon fill="#de958e" stroke="#de958e" points="1111.7148,-1265.7738 1121.4617,-1261.6206 1111.2523,-1258.7891 1111.7148,-1265.7738"/>
</g>
<!-- jsoncomment -->
<g id="node47" class="node">
<title>jsoncomment</title>
<polygon fill="#343434" stroke="#343434" points="443.5,-920 336.5,-920 336.5,-884 443.5,-884 443.5,-920"/>
<text text-anchor="middle" x="390" y="-898.3" font-family="Courier,monospace" font-size="14.00" fill="#de958e">jsoncomment</text>
</g>
<!-- jsoncomment&#45;&gt;hidebound.core.database -->
<g id="edge109" class="edge">
<title>jsoncomment&#45;&gt;hidebound.core.database</title>
<path fill="none" stroke="#de958e" d="M395.4062,-883.7813C408.7911,-842.3741 447.8043,-741.6426 521,-701 700.1429,-601.5294 1238.3804,-678.1657 1443,-689 1543.8679,-694.3408 1570.3689,-691.2108 1669,-713 1706.6727,-721.3225 1747.754,-735.3586 1779.3764,-747.2959"/>
<polygon fill="#de958e" stroke="#de958e" points="1778.2817,-750.6244 1788.8723,-750.9246 1780.7804,-744.0856 1778.2817,-750.6244"/>
</g>
<!-- jsoncomment&#45;&gt;hidebound.core.tools -->
<g id="edge110" class="edge">
<title>jsoncomment&#45;&gt;hidebound.core.tools</title>
<path fill="none" stroke="#de958e" d="M396.6059,-920.069C411.9438,-959.3734 453.8613,-1052.8815 521,-1100 524.5306,-1102.4778 528.2618,-1104.7296 532.1343,-1106.7759"/>
<polygon fill="#de958e" stroke="#de958e" points="530.8656,-1110.0483 541.399,-1111.1873 533.875,-1103.7281 530.8656,-1110.0483"/>
</g>
<!-- jsoncomment&#45;&gt;hidebound.server.extension -->
<g id="edge111" class="edge">
<title>jsoncomment&#45;&gt;hidebound.server.extension</title>
<path fill="none" stroke="#de958e" d="M443.6399,-905.1881C558.8777,-912.618 838.3456,-933.7512 1069,-976 1237.9117,-1006.9394 1298.3732,-980.4177 1443,-1073 1464.2802,-1086.6225 1456.167,-1106.1799 1479,-1117 1555.3099,-1153.1617 1587.5197,-1139.1772 1669,-1117 1940.6164,-1043.0716 1953.642,-900.5604 2215,-796 2220.328,-793.8684 2225.8647,-791.881 2231.5015,-790.0316"/>
<polygon fill="#de958e" stroke="#de958e" points="2232.5595,-793.368 2241.0632,-787.0483 2230.4745,-786.6856 2232.5595,-793.368"/>
</g>
<!-- hidebound -->
<g id="node48" class="node">
<title>hidebound</title>
<polygon fill="#343434" stroke="#343434" points="91,-1634 0,-1634 0,-1598 91,-1598 91,-1634"/>
<text text-anchor="middle" x="45.5" y="-1612.3" font-family="Courier,monospace" font-size="14.00" fill="#a0d17b">hidebound</text>
</g>
<!-- hidebound&#45;&gt;hidebound.server -->
<g id="edge112" class="edge">
<title>hidebound&#45;&gt;hidebound.server</title>
<path fill="none" stroke="#a0d17b" d="M48.9218,-1634.09C66.6804,-1721.9558 156.6465,-2100 390,-2100 390,-2100 390,-2100 924.5,-2100 1157.8085,-2100 1284.7478,-2189.4324 1443,-2018 1513.6009,-1941.519 1418.8847,-1635.9705 1479,-1551 1484.2775,-1543.5405 1491.1878,-1537.3884 1498.8777,-1532.3186"/>
<polygon fill="#a0d17b" stroke="#a0d17b" points="1500.6587,-1535.3316 1507.4877,-1527.2313 1497.0978,-1529.305 1500.6587,-1535.3316"/>
</g>
<!-- hidebound&#45;&gt;hidebound.exporters -->
<g id="edge113" class="edge">
<title>hidebound&#45;&gt;hidebound.exporters</title>
<path fill="none" stroke="#a0d17b" d="M81.5362,-1597.7495C84.9924,-1595.1117 88.2337,-1592.1938 91,-1589 246.249,-1409.7575 102.4546,-1234.4067 295,-1096 364.0013,-1046.4 462.8213,-1045.5214 535.7086,-1054.1337"/>
<polygon fill="#a0d17b" stroke="#a0d17b" points="535.4562,-1057.6295 545.8154,-1055.4079 536.3318,-1050.6845 535.4562,-1057.6295"/>
</g>
<!-- hidebound.core -->
<g id="node53" class="node">
<title>hidebound.core</title>
<polygon fill="#343434" stroke="#343434" points="259,-1634 127,-1634 127,-1598 259,-1598 259,-1634"/>
<text text-anchor="middle" x="193" y="-1612.3" font-family="Courier,monospace" font-size="14.00" fill="#a0d17b">hidebound.core</text>
</g>
<!-- hidebound&#45;&gt;hidebound.core -->
<g id="edge114" class="edge">
<title>hidebound&#45;&gt;hidebound.core</title>
<path fill="none" stroke="#a0d17b" d="M91.3614,-1616C99.4456,-1616 108.0541,-1616 116.7093,-1616"/>
<polygon fill="#a0d17b" stroke="#a0d17b" points="116.8627,-1619.5001 126.8626,-1616 116.8626,-1612.5001 116.8627,-1619.5001"/>
</g>
<!-- OpenEXR -->
<g id="node49" class="node">
<title>OpenEXR</title>
<polygon fill="#343434" stroke="#343434" points="427,-1141 353,-1141 353,-1105 427,-1105 427,-1141"/>
<text text-anchor="middle" x="390" y="-1119.3" font-family="Courier,monospace" font-size="14.00" fill="#de958e">OpenEXR</text>
</g>
<!-- OpenEXR&#45;&gt;hidebound.core.tools -->
<g id="edge115" class="edge">
<title>OpenEXR&#45;&gt;hidebound.core.tools</title>
<path fill="none" stroke="#de958e" d="M427.0945,-1123.6119C454.8668,-1124.07 494.2626,-1124.7198 531.1359,-1125.328"/>
<polygon fill="#de958e" stroke="#de958e" points="531.401,-1128.8328 541.4574,-1125.4983 531.5165,-1121.8337 531.401,-1128.8328"/>
</g>
<!-- dask.dataframe -->
<g id="node50" class="node">
<title>dask.dataframe</title>
<polygon fill="#343434" stroke="#343434" points="456,-646 324,-646 324,-610 456,-610 456,-646"/>
<text text-anchor="middle" x="390" y="-624.3" font-family="Courier,monospace" font-size="14.00" fill="#de958e">dask.dataframe</text>
</g>
<!-- dask.dataframe&#45;&gt;hidebound.core.database -->
<g id="edge116" class="edge">
<title>dask.dataframe&#45;&gt;hidebound.core.database</title>
<path fill="none" stroke="#de958e" d="M456.0411,-627.4845C622.1406,-626.6949 1070.6146,-627.703 1443,-657 1543.9561,-664.9426 1572.1973,-656.2603 1669,-686 1715.006,-700.134 1763.7263,-726.4224 1795.9946,-745.6382"/>
<polygon fill="#de958e" stroke="#de958e" points="1794.2729,-748.6871 1804.6437,-750.8545 1797.8881,-742.6929 1794.2729,-748.6871"/>
</g>
<!-- dask.dataframe&#45;&gt;hidebound.core.database_tools -->
<g id="edge117" class="edge">
<title>dask.dataframe&#45;&gt;hidebound.core.database_tools</title>
<path fill="none" stroke="#de958e" d="M456.2172,-619.6835C580.1486,-606.5807 854.0241,-589.3438 1069,-660 1087.2682,-666.0042 1087.1966,-676.7324 1105,-684 1115.4777,-688.2772 1126.557,-691.9892 1137.8301,-695.2098"/>
<polygon fill="#de958e" stroke="#de958e" points="1137.2083,-698.6678 1147.7764,-697.9154 1139.0457,-691.9132 1137.2083,-698.6678"/>
</g>
<!-- dask.dataframe&#45;&gt;hidebound.core.tools -->
<g id="edge118" class="edge">
<title>dask.dataframe&#45;&gt;hidebound.core.tools</title>
<path fill="none" stroke="#de958e" d="M398.4977,-646.152C417.0134,-686.4315 461.2379,-786.7126 485,-875 511.3202,-972.7919 452.2708,-1025.6206 521,-1100 524.451,-1103.7348 528.3227,-1106.9931 532.4969,-1109.833"/>
<polygon fill="#de958e" stroke="#de958e" points="531.0565,-1113.046 541.4517,-1115.0929 534.6018,-1107.0102 531.0565,-1113.046"/>
</g>
<!-- schematics.exceptions -->
<g id="node51" class="node">
<title>schematics.exceptions</title>
<polygon fill="#343434" stroke="#343434" points="485,-1233 295,-1233 295,-1197 485,-1197 485,-1233"/>
<text text-anchor="middle" x="390" y="-1211.3" font-family="Courier,monospace" font-size="14.00" fill="#de958e">schematics.exceptions</text>
</g>
<!-- schematics.exceptions&#45;&gt;hidebound.core.config -->
<g id="edge119" class="edge">
<title>schematics.exceptions&#45;&gt;hidebound.core.config</title>
<path fill="none" stroke="#de958e" d="M475.7766,-1233.2168C479.1569,-1235.7869 482.2643,-1238.6999 485,-1242 541.5346,-1310.1982 483.7433,-1558.6315 521,-1639 589.9976,-1787.8385 631.431,-1832.424 780,-1902 913.5376,-1964.5366 1334.6289,-2028.9941 1443,-1929 1516.2405,-1861.4209 1415.7871,-1559.0405 1479,-1482 1479.5098,-1481.3787 1480.0328,-1480.771 1480.5683,-1480.1768"/>
<polygon fill="#de958e" stroke="#de958e" points="1483.1853,-1482.5254 1488.1827,-1473.1832 1478.4502,-1477.37 1483.1853,-1482.5254"/>
</g>
<!-- schematics.exceptions&#45;&gt;hidebound.core.database_tools -->
<g id="edge120" class="edge">
<title>schematics.exceptions&#45;&gt;hidebound.core.database_tools</title>
<path fill="none" stroke="#de958e" d="M431.7049,-1196.9886C451.2728,-1186.2825 472.9029,-1170.7062 485,-1150 531.5843,-1070.2636 453.7656,-799.3051 521,-736 564.5388,-695.0058 930.2753,-702.3821 1135.5617,-709.9354"/>
<polygon fill="#de958e" stroke="#de958e" points="1135.6955,-713.4428 1145.819,-710.3179 1135.9564,-706.4476 1135.6955,-713.4428"/>
</g>
<!-- schematics.exceptions&#45;&gt;hidebound.core.specification_base -->
<g id="edge121" class="edge">
<title>schematics.exceptions&#45;&gt;hidebound.core.specification_base</title>
<path fill="none" stroke="#de958e" d="M475.2578,-1233.004C478.8248,-1235.6242 482.1087,-1238.6067 485,-1242 573.5259,-1345.8964 426.9892,-1448.039 521,-1547 590.2459,-1619.8921 670.8268,-1516.0512 744,-1585 795.4721,-1633.5005 729.7353,-1690.2492 780,-1740 783.0817,-1743.0502 786.385,-1745.8373 789.8673,-1748.3828"/>
<polygon fill="#de958e" stroke="#de958e" points="788.0121,-1751.3515 798.2974,-1753.8937 791.8424,-1745.4924 788.0121,-1751.3515"/>
</g>
<!-- schematics.exceptions&#45;&gt;hidebound.core.tools -->
<g id="edge122" class="edge">
<title>schematics.exceptions&#45;&gt;hidebound.core.tools</title>
<path fill="none" stroke="#de958e" d="M444.6298,-1196.9934C457.8769,-1192.5181 471.9742,-1187.6646 485,-1183 515.4494,-1172.0959 549.1895,-1159.337 576.7068,-1148.754"/>
<polygon fill="#de958e" stroke="#de958e" points="578.093,-1151.9708 586.1648,-1145.1081 575.5752,-1145.4393 578.093,-1151.9708"/>
</g>
<!-- schematics.exceptions&#45;&gt;hidebound.core.validators -->
<g id="edge123" class="edge">
<title>schematics.exceptions&#45;&gt;hidebound.core.validators</title>
<path fill="none" stroke="#de958e" d="M475.7136,-1233.2694C479.1104,-1235.8258 482.2385,-1238.7215 485,-1242 582.323,-1357.5463 423.8259,-1464.3285 521,-1580 523.3712,-1582.8226 525.9734,-1585.4051 528.7614,-1587.7675"/>
<polygon fill="#de958e" stroke="#de958e" points="526.9381,-1590.7706 537.0729,-1593.8588 531.076,-1585.1245 526.9381,-1590.7706"/>
</g>
<!-- schematics.exceptions&#45;&gt;hidebound.server.api -->
<g id="edge124" class="edge">
<title>schematics.exceptions&#45;&gt;hidebound.server.api</title>
<path fill="none" stroke="#de958e" d="M432.254,-1196.7545C451.7066,-1186.0657 473.0728,-1170.5739 485,-1150 535.203,-1063.4017 481.6056,-793.02 521,-701 525.2507,-691.0711 770.1421,-415.4129 780,-411 897.2339,-358.5196 940.7201,-404.4998 1069,-411 1235.8639,-419.4553 1279.6451,-413.9253 1443,-449 1459.4897,-452.5406 1462.6348,-456.9228 1479,-461 1491.3542,-464.0779 1692.3123,-497.9408 1705,-499 1818.3833,-508.4658 1847.8457,-510.8953 1961,-499 1975.5716,-497.4682 1990.931,-494.9736 2005.7389,-492.1039"/>
<polygon fill="#de958e" stroke="#de958e" points="2006.7716,-495.4664 2015.8858,-490.0645 2005.3922,-488.6036 2006.7716,-495.4664"/>
</g>
<!-- dash.exceptions -->
<g id="node52" class="node">
<title>dash.exceptions</title>
<polygon fill="#343434" stroke="#343434" points="2671.5,-90 2531.5,-90 2531.5,-54 2671.5,-54 2671.5,-90"/>
<text text-anchor="middle" x="2601.5" y="-68.3" font-family="Courier,monospace" font-size="14.00" fill="#de958e">dash.exceptions</text>
</g>
<!-- dash.exceptions&#45;&gt;hidebound.server.app -->
<g id="edge125" class="edge">
<title>dash.exceptions&#45;&gt;hidebound.server.app</title>
<path fill="none" stroke="#de958e" d="M2671.5864,-79.6342C2688.6458,-83.6457 2706.2186,-89.7427 2721,-99 2773.7722,-132.05 2814.0775,-194.9577 2834.0683,-230.9447"/>
<polygon fill="#de958e" stroke="#de958e" points="2831.0872,-232.7894 2838.9352,-239.9069 2837.2387,-229.4488 2831.0872,-232.7894"/>
</g>
<!-- hidebound.core&#45;&gt;hidebound.core.config -->
<g id="edge126" class="edge">
<title>hidebound.core&#45;&gt;hidebound.core.config</title>
<path fill="none" stroke="#a0d17b" d="M207.1536,-1634.221C222.3244,-1654.6794 245.978,-1689.4238 259,-1723 290.0778,-1803.1314 245.2001,-1842.9512 295,-1913 390.0072,-2046.6376 468.5324,-2062 632.5,-2062 632.5,-2062 632.5,-2062 924.5,-2062 1066.603,-2062 1432.9226,-1979.4111 1443,-1968 1514.6861,-1886.8267 1410.5753,-1565.9408 1479,-1482 1479.5078,-1481.377 1480.0289,-1480.7678 1480.5626,-1480.1721"/>
<polygon fill="#a0d17b" stroke="#a0d17b" points="1483.1827,-1482.5166 1488.1567,-1473.1619 1478.4347,-1477.3731 1483.1827,-1482.5166"/>
</g>
<!-- hidebound.core&#45;&gt;hidebound.core.database -->
<g id="edge127" class="edge">
<title>hidebound.core&#45;&gt;hidebound.core.database</title>
<path fill="none" stroke="#a0d17b" d="M193.3984,-1597.6214C196.434,-1466.063 217.9185,-670.7236 295,-601 313.2564,-584.4863 502.2419,-574.1401 1443,-634 1543.6735,-640.4058 1574.2405,-620.4048 1669,-655 1723.1199,-674.7583 1776.0725,-716.8908 1806.5755,-744.0313"/>
<polygon fill="#a0d17b" stroke="#a0d17b" points="1804.4338,-746.8133 1814.1998,-750.9214 1809.1272,-741.6198 1804.4338,-746.8133"/>
</g>
<!-- hidebound.core&#45;&gt;hidebound.core.database_tools -->
<g id="edge128" class="edge">
<title>hidebound.core&#45;&gt;hidebound.core.database_tools</title>
<path fill="none" stroke="#a0d17b" d="M193.6487,-1597.9667C197.542,-1497.2142 220.2182,-1003.8898 295,-875 471.9929,-569.9444 716.5843,-686.2681 1069,-700 1090.5763,-700.8407 1113.4011,-702.1774 1135.6798,-703.7287"/>
<polygon fill="#a0d17b" stroke="#a0d17b" points="1135.6474,-707.2352 1145.871,-704.4555 1136.1454,-700.2529 1135.6474,-707.2352"/>
</g>
<!-- hidebound.core&#45;&gt;hidebound.core.logging -->
<g id="edge129" class="edge">
<title>hidebound.core&#45;&gt;hidebound.core.logging</title>
<path fill="none" stroke="#a0d17b" d="M193.2919,-1597.6809C195.6988,-1457.3451 214.2566,-555.8429 295,-470 310.7183,-453.289 430.9176,-438.1335 523.4428,-428.7665"/>
<polygon fill="#a0d17b" stroke="#a0d17b" points="523.8386,-432.2445 533.4403,-427.7659 523.1414,-425.2793 523.8386,-432.2445"/>
</g>
<!-- hidebound.core&#45;&gt;hidebound.core.parser -->
<g id="edge130" class="edge">
<title>hidebound.core&#45;&gt;hidebound.core.parser</title>
<path fill="none" stroke="#a0d17b" d="M259.1462,-1632.7884C275.2178,-1636.8675 292.5822,-1641.2747 309.2459,-1645.504"/>
<polygon fill="#a0d17b" stroke="#a0d17b" points="308.4074,-1648.9021 318.9611,-1647.9698 310.1295,-1642.1172 308.4074,-1648.9021"/>
</g>
<!-- hidebound.core&#45;&gt;hidebound.core.specification_base -->
<g id="edge131" class="edge">
<title>hidebound.core&#45;&gt;hidebound.core.specification_base</title>
<path fill="none" stroke="#a0d17b" d="M210.6873,-1634.0509C229.6972,-1652.2338 261.6972,-1679.4764 295,-1693 448.4185,-1755.3003 638.7337,-1771.6733 769.7046,-1774.5755"/>
<polygon fill="#a0d17b" stroke="#a0d17b" points="769.7511,-1778.077 779.8183,-1774.7754 769.8895,-1771.0784 769.7511,-1778.077"/>
</g>
<!-- hidebound.core&#45;&gt;hidebound.core.specifications -->
<g id="edge132" class="edge">
<title>hidebound.core&#45;&gt;hidebound.core.specifications</title>
<path fill="none" stroke="#a0d17b" d="M204.6151,-1634.311C221.5706,-1659.6547 255.4241,-1705.3103 295,-1732 484.3738,-1859.7122 554.8237,-1863.6791 780,-1902 898.831,-1922.2229 1036.0825,-1920.2404 1135.7104,-1914.3392"/>
<polygon fill="#a0d17b" stroke="#a0d17b" points="1136.0727,-1917.8236 1145.8397,-1913.7181 1135.6442,-1910.8368 1136.0727,-1917.8236"/>
</g>
<!-- hidebound.core&#45;&gt;hidebound.core.tools -->
<g id="edge133" class="edge">
<title>hidebound.core&#45;&gt;hidebound.core.tools</title>
<path fill="none" stroke="#a0d17b" d="M194.7103,-1597.9436C202.078,-1524.0866 233.5537,-1246.148 295,-1188 299.3837,-1183.8516 433.6664,-1160.4774 531.5024,-1143.9021"/>
<polygon fill="#a0d17b" stroke="#a0d17b" points="532.1709,-1147.3388 541.4468,-1142.2195 531.003,-1140.4369 532.1709,-1147.3388"/>
</g>
<!-- hidebound.core&#45;&gt;hidebound.core.traits -->
<g id="edge134" class="edge">
<title>hidebound.core&#45;&gt;hidebound.core.traits</title>
<path fill="none" stroke="#a0d17b" d="M206.8186,-1634.356C221.6961,-1654.9327 245.0943,-1689.7801 259,-1723 284.9727,-1785.0472 247.2163,-1822.6591 295,-1870 332.2149,-1906.87 650.2244,-1967.6584 819.4789,-1997.8363"/>
<polygon fill="#a0d17b" stroke="#a0d17b" points="818.9549,-2001.2979 829.4132,-1999.6029 820.1805,-1994.406 818.9549,-2001.2979"/>
</g>
<!-- hidebound.core&#45;&gt;hidebound.core.validators -->
<g id="edge135" class="edge">
<title>hidebound.core&#45;&gt;hidebound.core.validators</title>
<path fill="none" stroke="#a0d17b" d="M241.8726,-1597.9512C258.4925,-1592.6763 277.3337,-1587.6253 295,-1585 378.5272,-1572.5874 400.9013,-1577.3663 485,-1585 502.3384,-1586.5738 520.6837,-1589.1679 538.3268,-1592.1418"/>
<polygon fill="#a0d17b" stroke="#a0d17b" points="538.1688,-1595.6668 548.6206,-1593.9318 539.3681,-1588.7703 538.1688,-1595.6668"/>
</g>
<!-- rolling_pin.blob_etl -->
<g id="node54" class="node">
<title>rolling_pin.blob_etl</title>
<polygon fill="#343434" stroke="#343434" points="1665,-2256 1483,-2256 1483,-2220 1665,-2220 1665,-2256"/>
<text text-anchor="middle" x="1574" y="-2234.3" font-family="Courier,monospace" font-size="14.00" fill="#de958e">rolling_pin.blob_etl</text>
</g>
<!-- rolling_pin.blob_etl&#45;&gt;hidebound.server.components -->
<g id="edge136" class="edge">
<title>rolling_pin.blob_etl&#45;&gt;hidebound.server.components</title>
<path fill="none" stroke="#de958e" d="M1658.2457,-2219.747C1662.125,-2217.1949 1665.7479,-2214.2948 1669,-2211 1753.1461,-2125.7504 1813.5467,-1740.5671 1829.0737,-1632.3546"/>
<polygon fill="#de958e" stroke="#de958e" points="1832.5737,-1632.6015 1830.5139,-1622.2088 1825.6432,-1631.6177 1832.5737,-1632.6015"/>
</g>
<!-- skimage.io -->
<g id="node55" class="node">
<title>skimage.io</title>
<polygon fill="#343434" stroke="#343434" points="682,-2034 583,-2034 583,-1998 682,-1998 682,-2034"/>
<text text-anchor="middle" x="632.5" y="-2012.3" font-family="Courier,monospace" font-size="14.00" fill="#de958e">skimage.io</text>
</g>
<!-- skimage.io&#45;&gt;hidebound.core.traits -->
<g id="edge137" class="edge">
<title>skimage.io&#45;&gt;hidebound.core.traits</title>
<path fill="none" stroke="#de958e" d="M682.0338,-2016C719.5523,-2016 772.4542,-2016 819.2741,-2016"/>
<polygon fill="#de958e" stroke="#de958e" points="819.4737,-2019.5001 829.4737,-2016 819.4737,-2012.5001 819.4737,-2019.5001"/>
</g>
<!-- flask_monitoringdashboard -->
<g id="node56" class="node">
<title>flask_monitoringdashboard</title>
<polygon fill="#343434" stroke="#343434" points="2713,-36 2490,-36 2490,0 2713,0 2713,-36"/>
<text text-anchor="middle" x="2601.5" y="-14.3" font-family="Courier,monospace" font-size="14.00" fill="#de958e">flask_monitoringdashboard</text>
</g>
<!-- flask_monitoringdashboard&#45;&gt;hidebound.server.app -->
<g id="edge138" class="edge">
<title>flask_monitoringdashboard&#45;&gt;hidebound.server.app</title>
<path fill="none" stroke="#de958e" d="M2706.1344,-36.0664C2711.3549,-38.666 2716.3518,-41.6275 2721,-45 2786.118,-92.2472 2823.8393,-184.0103 2839.4637,-230.126"/>
<polygon fill="#de958e" stroke="#de958e" points="2836.1848,-231.3594 2842.6318,-239.767 2842.8349,-229.1741 2836.1848,-231.3594"/>
</g>
</g>
</svg>
