<?xml version="1.0" encoding="UTF-8" standalone="no"?>
<!DOCTYPE svg PUBLIC "-//W3C//DTD SVG 1.1//EN"
 "http://www.w3.org/Graphics/SVG/1.1/DTD/svg11.dtd">
<!-- Generated by graphviz version 2.40.1 (20161225.0304)
 -->
<!-- Title: %3 Pages: 1 -->
<svg width="2644pt" height="2352pt"
 viewBox="0.00 0.00 2644.00 2351.79" xmlns="http://www.w3.org/2000/svg" xmlns:xlink="http://www.w3.org/1999/xlink">
<g id="graph0" class="graph" transform="scale(1 1) rotate(0) translate(4 2347.7886)">
<title>%3</title>
<polygon fill="#242424" stroke="transparent" points="-4,4 -4,-2347.7886 2640,-2347.7886 2640,4 -4,4"/>
<!-- cli -->
<g id="node1" class="node">
<title>cli</title>
<polygon fill="#343434" stroke="#343434" points="171.5,-1387.5384 117.5,-1387.5384 117.5,-1351.5384 171.5,-1351.5384 171.5,-1387.5384"/>
<text text-anchor="middle" x="144.5" y="-1365.8384" font-family="Courier,monospace" font-size="14.00" fill="#b6ecf3">cli</text>
</g>
<!-- hidebound.core.config -->
<g id="node2" class="node">
<title>hidebound.core.config</title>
<polygon fill="#343434" stroke="#343434" points="1867,-1798.5384 1677,-1798.5384 1677,-1762.5384 1867,-1762.5384 1867,-1798.5384"/>
<text text-anchor="middle" x="1772" y="-1776.8384" font-family="Courier,monospace" font-size="14.00" fill="#b6ecf3">hidebound.core.config</text>
</g>
<!-- hidebound.core.database -->
<g id="node3" class="node">
<title>hidebound.core.database</title>
<polygon fill="#343434" stroke="#343434" points="2134,-1183.5384 1928,-1183.5384 1928,-1147.5384 2134,-1147.5384 2134,-1183.5384"/>
<text text-anchor="middle" x="2031" y="-1161.8384" font-family="Courier,monospace" font-size="14.00" fill="#b6ecf3">hidebound.core.database</text>
</g>
<!-- hidebound.core.config&#45;&gt;hidebound.core.database -->
<g id="edge1" class="edge">
<title>hidebound.core.config&#45;&gt;hidebound.core.database</title>
<path fill="none" stroke="#b6ecf3" d="M1837.0378,-1762.4419C1848.5362,-1756.5327 1859.2809,-1748.7533 1867,-1738.5384 1936.2704,-1646.8705 1873.2693,-1593.5225 1903,-1482.5384 1932.7834,-1371.3575 1990.8972,-1246.7093 2017.3271,-1192.8005"/>
<polygon fill="#b6ecf3" stroke="#b6ecf3" points="2020.5921,-1194.0932 2021.8795,-1183.5769 2014.315,-1190.9951 2020.5921,-1194.0932"/>
</g>
<!-- hidebound.server.app -->
<g id="node17" class="node">
<title>hidebound.server.app</title>
<polygon fill="#343434" stroke="#343434" points="2636,-328.5384 2454,-328.5384 2454,-292.5384 2636,-292.5384 2636,-328.5384"/>
<text text-anchor="middle" x="2545" y="-306.8384" font-family="Courier,monospace" font-size="14.00" fill="#b6ecf3">hidebound.server.app</text>
</g>
<!-- hidebound.core.config&#45;&gt;hidebound.server.app -->
<g id="edge2" class="edge">
<title>hidebound.core.config&#45;&gt;hidebound.server.app</title>
<path fill="none" stroke="#b6ecf3" d="M1785.5536,-1762.4651C1837.9962,-1692.0471 2031.0276,-1428.2948 2159,-1192.5384 2334.7229,-868.8137 2493.945,-448.8531 2534.8617,-338.2251"/>
<polygon fill="#b6ecf3" stroke="#b6ecf3" points="2538.1683,-339.3743 2538.3448,-328.7809 2531.6007,-336.952 2538.1683,-339.3743"/>
</g>
<!-- hidebound.server.api -->
<g id="node16" class="node">
<title>hidebound.server.api</title>
<polygon fill="#343434" stroke="#343434" points="2397.5,-531.5384 2215.5,-531.5384 2215.5,-495.5384 2397.5,-495.5384 2397.5,-531.5384"/>
<text text-anchor="middle" x="2306.5" y="-509.8384" font-family="Courier,monospace" font-size="14.00" fill="#b6ecf3">hidebound.server.api</text>
</g>
<!-- hidebound.core.database&#45;&gt;hidebound.server.api -->
<g id="edge3" class="edge">
<title>hidebound.core.database&#45;&gt;hidebound.server.api</title>
<path fill="none" stroke="#b6ecf3" d="M2038.656,-1147.4197C2077.0427,-1056.5733 2248.5463,-650.6919 2294.9123,-540.9619"/>
<polygon fill="#b6ecf3" stroke="#b6ecf3" points="2298.2127,-542.1433 2298.881,-531.5695 2291.7647,-539.4186 2298.2127,-542.1433"/>
</g>
<!-- hidebound.core.database_tools -->
<g id="node4" class="node">
<title>hidebound.core.database_tools</title>
<polygon fill="#343434" stroke="#343434" points="1600,-983.5384 1344,-983.5384 1344,-947.5384 1600,-947.5384 1600,-983.5384"/>
<text text-anchor="middle" x="1472" y="-961.8384" font-family="Courier,monospace" font-size="14.00" fill="#b6ecf3">hidebound.core.database_tools</text>
</g>
<!-- hidebound.core.database_tools&#45;&gt;hidebound.core.database -->
<g id="edge4" class="edge">
<title>hidebound.core.database_tools&#45;&gt;hidebound.core.database</title>
<path fill="none" stroke="#b6ecf3" d="M1600.0596,-963.798C1680.0823,-967.2019 1783.4336,-980.0019 1867,-1018.5384 1927.8173,-1046.5841 1982.1859,-1105.0677 2010.4595,-1139.2086"/>
<polygon fill="#b6ecf3" stroke="#b6ecf3" points="2008.0451,-1141.7865 2017.0735,-1147.3306 2013.473,-1137.3663 2008.0451,-1141.7865"/>
</g>
<!-- hidebound.core.logging -->
<g id="node5" class="node">
<title>hidebound.core.logging</title>
<polygon fill="#343434" stroke="#343434" points="929.5,-1042.5384 731.5,-1042.5384 731.5,-1006.5384 929.5,-1006.5384 929.5,-1042.5384"/>
<text text-anchor="middle" x="830.5" y="-1020.8384" font-family="Courier,monospace" font-size="14.00" fill="#b6ecf3">hidebound.core.logging</text>
</g>
<!-- hidebound.core.logging&#45;&gt;hidebound.core.database -->
<g id="edge5" class="edge">
<title>hidebound.core.logging&#45;&gt;hidebound.core.database</title>
<path fill="none" stroke="#b6ecf3" d="M929.5076,-1036.1669C1150.6097,-1062.1356 1683.4431,-1124.7174 1917.501,-1152.2078"/>
<polygon fill="#b6ecf3" stroke="#b6ecf3" points="1917.3995,-1155.7198 1927.7395,-1153.4103 1918.2161,-1148.7676 1917.3995,-1155.7198"/>
</g>
<!-- hidebound.exporters.exporter_base -->
<g id="node12" class="node">
<title>hidebound.exporters.exporter_base</title>
<polygon fill="#343434" stroke="#343434" points="1267,-1508.5384 978,-1508.5384 978,-1472.5384 1267,-1472.5384 1267,-1508.5384"/>
<text text-anchor="middle" x="1122.5" y="-1486.8384" font-family="Courier,monospace" font-size="14.00" fill="#b6ecf3">hidebound.exporters.exporter_base</text>
</g>
<!-- hidebound.core.logging&#45;&gt;hidebound.exporters.exporter_base -->
<g id="edge6" class="edge">
<title>hidebound.core.logging&#45;&gt;hidebound.exporters.exporter_base</title>
<path fill="none" stroke="#b6ecf3" d="M862.1786,-1042.6258C888.0584,-1059.1764 923.309,-1086.1388 942,-1119.5384 992.5279,-1209.8285 930.5464,-1257.5952 978,-1349.5384 1003.5641,-1399.0698 1053.1265,-1441.4727 1087.008,-1466.4905"/>
<polygon fill="#b6ecf3" stroke="#b6ecf3" points="1085.1086,-1469.4365 1095.2599,-1472.4702 1089.2161,-1463.7683 1085.1086,-1469.4365"/>
</g>
<!-- hidebound.server.progress -->
<g id="node19" class="node">
<title>hidebound.server.progress</title>
<polygon fill="#343434" stroke="#343434" points="2142.5,-661.5384 1919.5,-661.5384 1919.5,-625.5384 2142.5,-625.5384 2142.5,-661.5384"/>
<text text-anchor="middle" x="2031" y="-639.8384" font-family="Courier,monospace" font-size="14.00" fill="#b6ecf3">hidebound.server.progress</text>
</g>
<!-- hidebound.core.logging&#45;&gt;hidebound.server.progress -->
<g id="edge7" class="edge">
<title>hidebound.core.logging&#45;&gt;hidebound.server.progress</title>
<path fill="none" stroke="#b6ecf3" d="M839.2828,-1006.2538C859.2545,-964.2384 908.9032,-857.2845 942,-764.5384 961.4309,-710.0878 931.8078,-674.3047 978,-639.5384 1050.7004,-584.8207 1647.1895,-617.6297 1908.8003,-634.9209"/>
<polygon fill="#b6ecf3" stroke="#b6ecf3" points="1908.8941,-638.4348 1919.1041,-635.6054 1909.3581,-631.4502 1908.8941,-638.4348"/>
</g>
<!-- hidebound.core.parser -->
<g id="node6" class="node">
<title>hidebound.core.parser</title>
<polygon fill="#343434" stroke="#343434" points="683,-1691.5384 493,-1691.5384 493,-1655.5384 683,-1655.5384 683,-1691.5384"/>
<text text-anchor="middle" x="588" y="-1669.8384" font-family="Courier,monospace" font-size="14.00" fill="#b6ecf3">hidebound.core.parser</text>
</g>
<!-- hidebound.core.parser&#45;&gt;hidebound.core.database_tools -->
<g id="edge8" class="edge">
<title>hidebound.core.parser&#45;&gt;hidebound.core.database_tools</title>
<path fill="none" stroke="#b6ecf3" d="M630.3117,-1655.3262C649.7785,-1644.6455 671.14,-1629.151 683,-1608.5384 737.3405,-1514.0949 647.0486,-1201.364 719,-1119.5384 740.1044,-1095.5378 1151.4682,-1021.1901 1357.0622,-985.3092"/>
<polygon fill="#b6ecf3" stroke="#b6ecf3" points="1357.7448,-988.743 1366.9952,-983.5776 1356.5427,-981.847 1357.7448,-988.743"/>
</g>
<!-- hidebound.core.specification_base -->
<g id="node7" class="node">
<title>hidebound.core.specification_base</title>
<polygon fill="#343434" stroke="#343434" points="1267,-1996.5384 978,-1996.5384 978,-1960.5384 1267,-1960.5384 1267,-1996.5384"/>
<text text-anchor="middle" x="1122.5" y="-1974.8384" font-family="Courier,monospace" font-size="14.00" fill="#b6ecf3">hidebound.core.specification_base</text>
</g>
<!-- hidebound.core.parser&#45;&gt;hidebound.core.specification_base -->
<g id="edge9" class="edge">
<title>hidebound.core.parser&#45;&gt;hidebound.core.specification_base</title>
<path fill="none" stroke="#b6ecf3" d="M599.9045,-1691.7613C618.1014,-1719.7161 653.7978,-1774.9486 683,-1822.5384 699.4645,-1849.3699 692.8817,-1865.9644 719,-1883.5384 802.1251,-1939.4699 849.1889,-1878.7995 942,-1916.5384 960.2829,-1923.9726 960.1001,-1934.2243 978,-1942.5384 990.5473,-1948.3663 1004.1628,-1953.3307 1017.8517,-1957.5381"/>
<polygon fill="#b6ecf3" stroke="#b6ecf3" points="1017.2368,-1961.0054 1027.8181,-1960.4694 1019.2121,-1954.2898 1017.2368,-1961.0054"/>
</g>
<!-- hidebound.core.validators -->
<g id="node11" class="node">
<title>hidebound.core.validators</title>
<polygon fill="#343434" stroke="#343434" points="942,-1668.5384 719,-1668.5384 719,-1632.5384 942,-1632.5384 942,-1668.5384"/>
<text text-anchor="middle" x="830.5" y="-1646.8384" font-family="Courier,monospace" font-size="14.00" fill="#b6ecf3">hidebound.core.validators</text>
</g>
<!-- hidebound.core.parser&#45;&gt;hidebound.core.validators -->
<g id="edge10" class="edge">
<title>hidebound.core.parser&#45;&gt;hidebound.core.validators</title>
<path fill="none" stroke="#b6ecf3" d="M683.1464,-1664.5142C691.5391,-1663.7182 700.107,-1662.9055 708.6787,-1662.0926"/>
<polygon fill="#b6ecf3" stroke="#b6ecf3" points="709.1077,-1665.5677 718.7325,-1661.139 708.4467,-1658.5989 709.1077,-1665.5677"/>
</g>
<!-- hidebound.core.specification_base&#45;&gt;hidebound.core.config -->
<g id="edge11" class="edge">
<title>hidebound.core.specification_base&#45;&gt;hidebound.core.config</title>
<path fill="none" stroke="#b6ecf3" d="M1181.5722,-1960.5302C1301.9574,-1923.8308 1575.1052,-1840.5617 1703.2329,-1801.502"/>
<polygon fill="#b6ecf3" stroke="#b6ecf3" points="1704.4016,-1804.8048 1712.9464,-1798.5409 1702.3604,-1798.109 1704.4016,-1804.8048"/>
</g>
<!-- hidebound.core.specification_base&#45;&gt;hidebound.core.database -->
<g id="edge12" class="edge">
<title>hidebound.core.specification_base&#45;&gt;hidebound.core.database</title>
<path fill="none" stroke="#b6ecf3" d="M1143.79,-1960.4351C1172.18,-1936.19 1223.867,-1891.6839 1267,-1852.5384 1283.2969,-1837.748 1284.2564,-1830.0719 1303,-1818.5384 1439.0204,-1734.8412 1499.7559,-1771.0828 1641,-1696.5384 1750.5259,-1638.7339 1788.8783,-1629.6335 1867,-1533.5384 1912.9332,-1477.0374 1992.6319,-1269.0205 2020.7891,-1193.3199"/>
<polygon fill="#b6ecf3" stroke="#b6ecf3" points="2024.2181,-1194.139 2024.4112,-1183.5459 2017.6543,-1191.7065 2024.2181,-1194.139"/>
</g>
<!-- hidebound.core.specification_base&#45;&gt;hidebound.core.database_tools -->
<g id="edge13" class="edge">
<title>hidebound.core.specification_base&#45;&gt;hidebound.core.database_tools</title>
<path fill="none" stroke="#b6ecf3" d="M1139.5153,-1960.3104C1171.1949,-1925.0974 1238.578,-1843.9017 1267,-1761.5384 1334.7618,-1565.173 1246.5523,-1495.45 1303,-1295.5384 1337.1316,-1174.6599 1417.4234,-1046.3217 1453.6724,-992.13"/>
<polygon fill="#b6ecf3" stroke="#b6ecf3" points="1456.612,-994.0308 1459.3013,-983.7829 1450.8083,-990.117 1456.612,-994.0308"/>
</g>
<!-- hidebound.core.specifications -->
<g id="node8" class="node">
<title>hidebound.core.specifications</title>
<polygon fill="#343434" stroke="#343434" points="1600,-1996.5384 1344,-1996.5384 1344,-1960.5384 1600,-1960.5384 1600,-1996.5384"/>
<text text-anchor="middle" x="1472" y="-1974.8384" font-family="Courier,monospace" font-size="14.00" fill="#b6ecf3">hidebound.core.specifications</text>
</g>
<!-- hidebound.core.specification_base&#45;&gt;hidebound.core.specifications -->
<g id="edge14" class="edge">
<title>hidebound.core.specification_base&#45;&gt;hidebound.core.specifications</title>
<path fill="none" stroke="#b6ecf3" d="M1267.1779,-1978.5384C1289.2442,-1978.5384 1311.9701,-1978.5384 1333.8906,-1978.5384"/>
<polygon fill="#b6ecf3" stroke="#b6ecf3" points="1333.9003,-1982.0385 1343.9003,-1978.5384 1333.9002,-1975.0385 1333.9003,-1982.0385"/>
</g>
<!-- hidebound.core.tools -->
<g id="node9" class="node">
<title>hidebound.core.tools</title>
<polygon fill="#343434" stroke="#343434" points="921.5,-1164.5384 739.5,-1164.5384 739.5,-1128.5384 921.5,-1128.5384 921.5,-1164.5384"/>
<text text-anchor="middle" x="830.5" y="-1142.8384" font-family="Courier,monospace" font-size="14.00" fill="#b6ecf3">hidebound.core.tools</text>
</g>
<!-- hidebound.core.tools&#45;&gt;hidebound.core.database -->
<g id="edge15" class="edge">
<title>hidebound.core.tools&#45;&gt;hidebound.core.database</title>
<path fill="none" stroke="#b6ecf3" d="M921.718,-1147.9821C1137.8939,-1151.4034 1680.9369,-1159.998 1917.6906,-1163.7451"/>
<polygon fill="#b6ecf3" stroke="#b6ecf3" points="1917.6469,-1167.2447 1927.701,-1163.9035 1917.7577,-1160.2456 1917.6469,-1167.2447"/>
</g>
<!-- hidebound.core.tools&#45;&gt;hidebound.core.database_tools -->
<g id="edge16" class="edge">
<title>hidebound.core.tools&#45;&gt;hidebound.core.database_tools</title>
<path fill="none" stroke="#b6ecf3" d="M878.3255,-1128.5378C907.0287,-1118.0207 944.379,-1104.8349 978,-1094.5384 1119.142,-1051.3132 1285.6983,-1009.7367 1384.8782,-985.9553"/>
<polygon fill="#b6ecf3" stroke="#b6ecf3" points="1385.9433,-989.2993 1394.8546,-983.5687 1384.3146,-982.4914 1385.9433,-989.2993"/>
</g>
<!-- hidebound.core.tools&#45;&gt;hidebound.core.specification_base -->
<g id="edge17" class="edge">
<title>hidebound.core.tools&#45;&gt;hidebound.core.specification_base</title>
<path fill="none" stroke="#b6ecf3" d="M841.0203,-1164.6044C863.8419,-1204.762 917.7862,-1305.1182 942,-1396.5384 983.736,-1554.1143 923.1944,-1608.0184 978,-1761.5384 1005.4196,-1838.3455 1065.8255,-1914.5329 1099.1999,-1952.9232"/>
<polygon fill="#b6ecf3" stroke="#b6ecf3" points="1096.6569,-1955.3314 1105.8897,-1960.5281 1101.9127,-1950.708 1096.6569,-1955.3314"/>
</g>
<!-- hidebound.core.traits -->
<g id="node10" class="node">
<title>hidebound.core.traits</title>
<polygon fill="#343434" stroke="#343434" points="1217.5,-2164.5384 1027.5,-2164.5384 1027.5,-2128.5384 1217.5,-2128.5384 1217.5,-2164.5384"/>
<text text-anchor="middle" x="1122.5" y="-2142.8384" font-family="Courier,monospace" font-size="14.00" fill="#b6ecf3">hidebound.core.traits</text>
</g>
<!-- hidebound.core.tools&#45;&gt;hidebound.core.traits -->
<g id="edge18" class="edge">
<title>hidebound.core.tools&#45;&gt;hidebound.core.traits</title>
<path fill="none" stroke="#b6ecf3" d="M841.4646,-1164.8391C864.9192,-1205.0611 919.642,-1304.8913 942,-1396.5384 974.1309,-1528.2453 921.6883,-1882.2172 978,-2005.5384 1001.0183,-2055.9479 1050.7189,-2097.872 1085.3653,-2122.5649"/>
<polygon fill="#b6ecf3" stroke="#b6ecf3" points="1083.62,-2125.6149 1093.8239,-2128.4662 1087.6252,-2119.8739 1083.62,-2125.6149"/>
</g>
<!-- hidebound.core.tools&#45;&gt;hidebound.exporters.exporter_base -->
<g id="edge19" class="edge">
<title>hidebound.core.tools&#45;&gt;hidebound.exporters.exporter_base</title>
<path fill="none" stroke="#b6ecf3" d="M838.8941,-1164.6408C858.8167,-1206.342 912.2454,-1311.0692 978,-1382.5384 1009.1702,-1416.4174 1052.185,-1446.9969 1083.1662,-1466.8965"/>
<polygon fill="#b6ecf3" stroke="#b6ecf3" points="1081.6453,-1470.0762 1091.9662,-1472.4702 1085.3909,-1464.1626 1081.6453,-1470.0762"/>
</g>
<!-- hidebound.exporters.local_disk_exporter -->
<g id="node14" class="node">
<title>hidebound.exporters.local_disk_exporter</title>
<polygon fill="#343434" stroke="#343434" points="1641,-1508.5384 1303,-1508.5384 1303,-1472.5384 1641,-1472.5384 1641,-1508.5384"/>
<text text-anchor="middle" x="1472" y="-1486.8384" font-family="Courier,monospace" font-size="14.00" fill="#b6ecf3">hidebound.exporters.local_disk_exporter</text>
</g>
<!-- hidebound.core.tools&#45;&gt;hidebound.exporters.local_disk_exporter -->
<g id="edge20" class="edge">
<title>hidebound.core.tools&#45;&gt;hidebound.exporters.local_disk_exporter</title>
<path fill="none" stroke="#b6ecf3" d="M838.4691,-1164.5682C856.9668,-1204.2961 906.7371,-1299.7892 978,-1349.5384 1087.4767,-1425.9649 1138.6243,-1394.8525 1267,-1431.5384 1311.153,-1444.156 1360.6263,-1458.3918 1399.9084,-1469.7184"/>
<polygon fill="#b6ecf3" stroke="#b6ecf3" points="1399.0881,-1473.1244 1409.6664,-1472.5326 1401.0279,-1466.3985 1399.0881,-1473.1244"/>
</g>
<!-- hidebound.exporters.s3_exporter -->
<g id="node15" class="node">
<title>hidebound.exporters.s3_exporter</title>
<polygon fill="#343434" stroke="#343434" points="1608,-1340.5384 1336,-1340.5384 1336,-1304.5384 1608,-1304.5384 1608,-1340.5384"/>
<text text-anchor="middle" x="1472" y="-1318.8384" font-family="Courier,monospace" font-size="14.00" fill="#b6ecf3">hidebound.exporters.s3_exporter</text>
</g>
<!-- hidebound.core.tools&#45;&gt;hidebound.exporters.s3_exporter -->
<g id="edge21" class="edge">
<title>hidebound.core.tools&#45;&gt;hidebound.exporters.s3_exporter</title>
<path fill="none" stroke="#b6ecf3" d="M921.9174,-1155.5579C1030.5396,-1166.9667 1204.8774,-1187.6544 1267,-1208.5384 1331.5954,-1230.2536 1399.3382,-1272.2918 1438.5117,-1298.8042"/>
<polygon fill="#b6ecf3" stroke="#b6ecf3" points="1436.6656,-1301.7819 1446.8958,-1304.5377 1440.617,-1296.0038 1436.6656,-1301.7819"/>
</g>
<!-- hidebound.core.traits&#45;&gt;hidebound.core.specifications -->
<g id="edge22" class="edge">
<title>hidebound.core.traits&#45;&gt;hidebound.core.specifications</title>
<path fill="none" stroke="#b6ecf3" d="M1160.2347,-2128.3998C1224.5953,-2097.4625 1355.4062,-2034.5834 1425.3778,-2000.9491"/>
<polygon fill="#b6ecf3" stroke="#b6ecf3" points="1426.9266,-2004.088 1434.4231,-1996.6011 1423.8939,-1997.779 1426.9266,-2004.088"/>
</g>
<!-- hidebound.core.validators&#45;&gt;hidebound.core.config -->
<g id="edge23" class="edge">
<title>hidebound.core.validators&#45;&gt;hidebound.core.config</title>
<path fill="none" stroke="#b6ecf3" d="M846.9535,-1668.6336C872.1608,-1694.8909 923.2075,-1742.4931 978,-1761.5384 1101.9734,-1804.6302 1480.648,-1794.1393 1666.6529,-1785.9285"/>
<polygon fill="#b6ecf3" stroke="#b6ecf3" points="1666.8878,-1789.4216 1676.7213,-1785.4779 1666.5748,-1782.4286 1666.8878,-1789.4216"/>
</g>
<!-- hidebound.core.validators&#45;&gt;hidebound.core.specification_base -->
<g id="edge24" class="edge">
<title>hidebound.core.validators&#45;&gt;hidebound.core.specification_base</title>
<path fill="none" stroke="#b6ecf3" d="M851.8245,-1668.6631C877.0128,-1691.2091 918.4569,-1732.0676 942,-1775.5384 971.1634,-1829.3865 938.9246,-1861.3872 978,-1908.5384 996.0593,-1930.3301 1022.5231,-1945.8471 1047.8842,-1956.6388"/>
<polygon fill="#b6ecf3" stroke="#b6ecf3" points="1046.5781,-1959.8859 1057.1603,-1960.4038 1049.2107,-1953.3998 1046.5781,-1959.8859"/>
</g>
<!-- hidebound.core.validators&#45;&gt;hidebound.core.specifications -->
<g id="edge25" class="edge">
<title>hidebound.core.validators&#45;&gt;hidebound.core.specifications</title>
<path fill="none" stroke="#b6ecf3" d="M844.9432,-1668.9564C869.3899,-1699.0321 921.779,-1758.9001 978,-1794.5384 1015.9122,-1818.5708 1285.8425,-1913.8318 1409.9084,-1957.0343"/>
<polygon fill="#b6ecf3" stroke="#b6ecf3" points="1409.0647,-1960.4465 1419.6595,-1960.4272 1411.3651,-1953.8353 1409.0647,-1960.4465"/>
</g>
<!-- hidebound.core.validators&#45;&gt;hidebound.exporters.exporter_base -->
<g id="edge26" class="edge">
<title>hidebound.core.validators&#45;&gt;hidebound.exporters.exporter_base</title>
<path fill="none" stroke="#b6ecf3" d="M845.7158,-1632.515C870.4562,-1604.4414 922.2755,-1550.5881 978,-1522.5384 986.0902,-1518.466 994.6922,-1514.9085 1003.5116,-1511.8011"/>
<polygon fill="#b6ecf3" stroke="#b6ecf3" points="1004.7635,-1515.0734 1013.153,-1508.6029 1002.5596,-1508.4294 1004.7635,-1515.0734"/>
</g>
<!-- hidebound.exporters.girder_exporter -->
<g id="node13" class="node">
<title>hidebound.exporters.girder_exporter</title>
<polygon fill="#343434" stroke="#343434" points="1624.5,-1687.5384 1319.5,-1687.5384 1319.5,-1651.5384 1624.5,-1651.5384 1624.5,-1687.5384"/>
<text text-anchor="middle" x="1472" y="-1665.8384" font-family="Courier,monospace" font-size="14.00" fill="#b6ecf3">hidebound.exporters.girder_exporter</text>
</g>
<!-- hidebound.core.validators&#45;&gt;hidebound.exporters.girder_exporter -->
<g id="edge27" class="edge">
<title>hidebound.core.validators&#45;&gt;hidebound.exporters.girder_exporter</title>
<path fill="none" stroke="#b6ecf3" d="M942.2408,-1653.8479C1043.6414,-1656.8512 1194.4041,-1661.3165 1309.1974,-1664.7165"/>
<polygon fill="#b6ecf3" stroke="#b6ecf3" points="1309.3912,-1668.2237 1319.4905,-1665.0213 1309.5985,-1661.2267 1309.3912,-1668.2237"/>
</g>
<!-- hidebound.core.validators&#45;&gt;hidebound.exporters.local_disk_exporter -->
<g id="edge28" class="edge">
<title>hidebound.core.validators&#45;&gt;hidebound.exporters.local_disk_exporter</title>
<path fill="none" stroke="#b6ecf3" d="M902.8412,-1632.4954C1022.9572,-1602.5366 1262.8282,-1542.7091 1389.4023,-1511.1395"/>
<polygon fill="#b6ecf3" stroke="#b6ecf3" points="1390.576,-1514.4541 1399.4317,-1508.638 1388.8819,-1507.6621 1390.576,-1514.4541"/>
</g>
<!-- hidebound.core.validators&#45;&gt;hidebound.exporters.s3_exporter -->
<g id="edge29" class="edge">
<title>hidebound.core.validators&#45;&gt;hidebound.exporters.s3_exporter</title>
<path fill="none" stroke="#b6ecf3" d="M839.7621,-1632.2601C859.723,-1594.7428 910.5073,-1508.776 978,-1463.5384 1082.5171,-1393.4847 1221.8591,-1357.8213 1325.9043,-1339.9191"/>
<polygon fill="#b6ecf3" stroke="#b6ecf3" points="1326.5813,-1343.3545 1335.8607,-1338.2416 1325.4181,-1336.4518 1326.5813,-1343.3545"/>
</g>
<!-- hidebound.exporters.exporter_base&#45;&gt;hidebound.exporters.girder_exporter -->
<g id="edge30" class="edge">
<title>hidebound.exporters.exporter_base&#45;&gt;hidebound.exporters.girder_exporter</title>
<path fill="none" stroke="#b6ecf3" d="M1160.7225,-1508.5733C1189.9632,-1522.4863 1231.2102,-1542.3628 1267,-1560.5384 1323.8013,-1589.3845 1388.6027,-1624.1581 1429.8766,-1646.5457"/>
<polygon fill="#b6ecf3" stroke="#b6ecf3" points="1428.3658,-1649.708 1438.8239,-1651.4047 1431.7065,-1643.5565 1428.3658,-1649.708"/>
</g>
<!-- hidebound.exporters.exporter_base&#45;&gt;hidebound.exporters.local_disk_exporter -->
<g id="edge31" class="edge">
<title>hidebound.exporters.exporter_base&#45;&gt;hidebound.exporters.local_disk_exporter</title>
<path fill="none" stroke="#b6ecf3" d="M1267.1779,-1490.5384C1275.6139,-1490.5384 1284.1463,-1490.5384 1292.6932,-1490.5384"/>
<polygon fill="#b6ecf3" stroke="#b6ecf3" points="1292.7283,-1494.0385 1302.7283,-1490.5384 1292.7283,-1487.0385 1292.7283,-1494.0385"/>
</g>
<!-- hidebound.exporters.exporter_base&#45;&gt;hidebound.exporters.s3_exporter -->
<g id="edge32" class="edge">
<title>hidebound.exporters.exporter_base&#45;&gt;hidebound.exporters.s3_exporter</title>
<path fill="none" stroke="#b6ecf3" d="M1226.1872,-1472.4515C1240.1623,-1468.6107 1254.1119,-1464.0154 1267,-1458.5384 1334.7892,-1429.7302 1404.2774,-1378.0166 1442.4114,-1347.3322"/>
<polygon fill="#b6ecf3" stroke="#b6ecf3" points="1444.958,-1349.7728 1450.5114,-1340.7501 1440.5434,-1344.3403 1444.958,-1349.7728"/>
</g>
<!-- hidebound.exporters.girder_exporter&#45;&gt;hidebound.core.config -->
<g id="edge33" class="edge">
<title>hidebound.exporters.girder_exporter&#45;&gt;hidebound.core.config</title>
<path fill="none" stroke="#b6ecf3" d="M1520.8679,-1687.6195C1573.6039,-1707.1318 1657.5569,-1738.1944 1713.6999,-1758.9673"/>
<polygon fill="#b6ecf3" stroke="#b6ecf3" points="1712.5599,-1762.2774 1723.153,-1762.465 1714.989,-1755.7123 1712.5599,-1762.2774"/>
</g>
<!-- hidebound.exporters.girder_exporter&#45;&gt;hidebound.core.database -->
<g id="edge34" class="edge">
<title>hidebound.exporters.girder_exporter&#45;&gt;hidebound.core.database</title>
<path fill="none" stroke="#b6ecf3" d="M1526.5873,-1651.5028C1608.8968,-1622.0382 1765.8843,-1556.7353 1867,-1457.5384 1948.2722,-1377.8083 2001.1654,-1249.2104 2021.5441,-1193.1489"/>
<polygon fill="#b6ecf3" stroke="#b6ecf3" points="2024.9038,-1194.1479 2024.9704,-1183.5532 2018.3114,-1191.7939 2024.9038,-1194.1479"/>
</g>
<!-- hidebound.exporters.local_disk_exporter&#45;&gt;hidebound.core.config -->
<g id="edge35" class="edge">
<title>hidebound.exporters.local_disk_exporter&#45;&gt;hidebound.core.config</title>
<path fill="none" stroke="#b6ecf3" d="M1493.2994,-1508.7399C1525.83,-1536.7503 1589.5371,-1592.4412 1641,-1642.5384 1679.9455,-1680.4503 1722.9418,-1726.633 1748.695,-1754.7952"/>
<polygon fill="#b6ecf3" stroke="#b6ecf3" points="1746.1591,-1757.2086 1755.4838,-1762.2386 1751.331,-1752.4915 1746.1591,-1757.2086"/>
</g>
<!-- hidebound.exporters.local_disk_exporter&#45;&gt;hidebound.core.database -->
<g id="edge36" class="edge">
<title>hidebound.exporters.local_disk_exporter&#45;&gt;hidebound.core.database</title>
<path fill="none" stroke="#b6ecf3" d="M1502.6837,-1472.4953C1540.4067,-1448.819 1603.9653,-1403.8333 1641,-1349.5384 1669.511,-1307.7398 1639.069,-1275.0232 1677,-1241.5384 1741.5599,-1184.5461 1782.821,-1221.7043 1867,-1203.5384 1892.4732,-1198.0412 1920.0969,-1191.7635 1945.2829,-1185.9159"/>
<polygon fill="#b6ecf3" stroke="#b6ecf3" points="1946.2275,-1189.2896 1955.1731,-1183.6128 1944.6398,-1182.4721 1946.2275,-1189.2896"/>
</g>
<!-- hidebound.exporters.s3_exporter&#45;&gt;hidebound.core.config -->
<g id="edge37" class="edge">
<title>hidebound.exporters.s3_exporter&#45;&gt;hidebound.core.config</title>
<path fill="none" stroke="#b6ecf3" d="M1501.4319,-1340.5931C1538.4402,-1364.6034 1601.8585,-1410.2672 1641,-1463.5384 1710.2086,-1557.7304 1750.3003,-1693.8394 1765.2386,-1752.214"/>
<polygon fill="#b6ecf3" stroke="#b6ecf3" points="1761.9105,-1753.3324 1767.7365,-1762.1816 1768.7006,-1751.6307 1761.9105,-1753.3324"/>
</g>
<!-- hidebound.exporters.s3_exporter&#45;&gt;hidebound.core.database -->
<g id="edge38" class="edge">
<title>hidebound.exporters.s3_exporter&#45;&gt;hidebound.core.database</title>
<path fill="none" stroke="#b6ecf3" d="M1497.0427,-1304.3517C1534.2589,-1278.349 1607.2867,-1231.1923 1677,-1208.5384 1754.8656,-1183.2353 1846.7515,-1172.5996 1917.393,-1168.2298"/>
<polygon fill="#b6ecf3" stroke="#b6ecf3" points="1917.8786,-1171.7075 1927.6572,-1167.6295 1917.4699,-1164.7194 1917.8786,-1171.7075"/>
</g>
<!-- hidebound.server.api&#45;&gt;hidebound.server.app -->
<g id="edge39" class="edge">
<title>hidebound.server.api&#45;&gt;hidebound.server.app</title>
<path fill="none" stroke="#b6ecf3" d="M2342.0508,-495.5002C2364.8089,-483.1701 2394.3878,-465.646 2418,-446.5384 2459.5988,-412.8755 2500.5373,-365.8346 2524.2529,-336.8229"/>
<polygon fill="#b6ecf3" stroke="#b6ecf3" points="2527.1851,-338.7634 2530.7566,-328.7887 2521.7443,-334.3591 2527.1851,-338.7634"/>
</g>
<!-- hidebound.server.components -->
<g id="node18" class="node">
<title>hidebound.server.components</title>
<polygon fill="#343434" stroke="#343434" points="2150.5,-293.5384 1911.5,-293.5384 1911.5,-257.5384 2150.5,-257.5384 2150.5,-293.5384"/>
<text text-anchor="middle" x="2031" y="-271.8384" font-family="Courier,monospace" font-size="14.00" fill="#b6ecf3">hidebound.server.components</text>
</g>
<!-- hidebound.server.components&#45;&gt;hidebound.server.app -->
<g id="edge40" class="edge">
<title>hidebound.server.components&#45;&gt;hidebound.server.app</title>
<path fill="none" stroke="#b6ecf3" d="M2150.5375,-283.6781C2239.4636,-289.7334 2359.5033,-297.9073 2443.7259,-303.6423"/>
<polygon fill="#b6ecf3" stroke="#b6ecf3" points="2443.6002,-307.1417 2453.8149,-304.3293 2444.0758,-300.1579 2443.6002,-307.1417"/>
</g>
<!-- hidebound.server.server_tools -->
<g id="node20" class="node">
<title>hidebound.server.server_tools</title>
<polygon fill="#343434" stroke="#343434" points="2159,-477.5384 1903,-477.5384 1903,-441.5384 2159,-441.5384 2159,-477.5384"/>
<text text-anchor="middle" x="2031" y="-455.8384" font-family="Courier,monospace" font-size="14.00" fill="#b6ecf3">hidebound.server.server_tools</text>
</g>
<!-- hidebound.server.server_tools&#45;&gt;hidebound.server.api -->
<g id="edge41" class="edge">
<title>hidebound.server.server_tools&#45;&gt;hidebound.server.api</title>
<path fill="none" stroke="#b6ecf3" d="M2123.1205,-477.5947C2149.5907,-482.783 2178.595,-488.4681 2205.5669,-493.7548"/>
<polygon fill="#b6ecf3" stroke="#b6ecf3" points="2204.917,-497.1939 2215.4036,-495.6828 2206.2635,-490.3246 2204.917,-497.1939"/>
</g>
<!-- hidebound.server.server_tools&#45;&gt;hidebound.server.app -->
<g id="edge42" class="edge">
<title>hidebound.server.server_tools&#45;&gt;hidebound.server.app</title>
<path fill="none" stroke="#b6ecf3" d="M2131.9563,-441.483C2210.961,-426.0004 2322.9841,-401.0493 2418,-368.5384 2446.4459,-358.8052 2477.1406,-344.8881 2501.2272,-333.1263"/>
<polygon fill="#b6ecf3" stroke="#b6ecf3" points="2503.0333,-336.1379 2510.4491,-328.5711 2499.9332,-329.8618 2503.0333,-336.1379"/>
</g>
<!-- dash -->
<g id="node21" class="node">
<title>dash</title>
<polygon fill="#343434" stroke="#343434" points="1799,-124.5384 1745,-124.5384 1745,-88.5384 1799,-88.5384 1799,-124.5384"/>
<text text-anchor="middle" x="1772" y="-102.8384" font-family="Courier,monospace" font-size="14.00" fill="#de958e">dash</text>
</g>
<!-- dash&#45;&gt;hidebound.server.app -->
<g id="edge43" class="edge">
<title>dash&#45;&gt;hidebound.server.app</title>
<path fill="none" stroke="#de958e" d="M1799.2477,-93.9018C1893.514,-52.2155 2211.3135,71.2009 2418,-56.5384 2499.5844,-106.9603 2530.5123,-227.4193 2540.6611,-282.3596"/>
<polygon fill="#de958e" stroke="#de958e" points="2537.2524,-283.1862 2542.4226,-292.4339 2544.1478,-281.9805 2537.2524,-283.1862"/>
</g>
<!-- dash&#45;&gt;hidebound.server.components -->
<g id="edge44" class="edge">
<title>dash&#45;&gt;hidebound.server.components</title>
<path fill="none" stroke="#de958e" d="M1799.228,-124.3049C1846.128,-154.9076 1942.1635,-217.5717 1994.695,-251.849"/>
<polygon fill="#de958e" stroke="#de958e" points="1993.0698,-254.9677 2003.3573,-257.5012 1996.8951,-249.1053 1993.0698,-254.9677"/>
</g>
<!-- dash_cytoscape -->
<g id="node22" class="node">
<title>dash_cytoscape</title>
<polygon fill="#343434" stroke="#343434" points="1838,-297.5384 1706,-297.5384 1706,-261.5384 1838,-261.5384 1838,-297.5384"/>
<text text-anchor="middle" x="1772" y="-275.8384" font-family="Courier,monospace" font-size="14.00" fill="#de958e">dash_cytoscape</text>
</g>
<!-- dash_cytoscape&#45;&gt;hidebound.server.components -->
<g id="edge45" class="edge">
<title>dash_cytoscape&#45;&gt;hidebound.server.components</title>
<path fill="none" stroke="#de958e" d="M1838.0268,-278.5187C1857.4571,-278.2186 1879.4201,-277.8794 1901.3875,-277.5401"/>
<polygon fill="#de958e" stroke="#de958e" points="1901.5271,-281.0385 1911.4718,-277.3844 1901.4189,-274.0393 1901.5271,-281.0385"/>
</g>
<!-- hidebound.server -->
<g id="node23" class="node">
<title>hidebound.server</title>
<polygon fill="#343434" stroke="#343434" points="1846.5,-592.5384 1697.5,-592.5384 1697.5,-556.5384 1846.5,-556.5384 1846.5,-592.5384"/>
<text text-anchor="middle" x="1772" y="-570.8384" font-family="Courier,monospace" font-size="14.00" fill="#a0d17b">hidebound.server</text>
</g>
<!-- hidebound.server&#45;&gt;hidebound.server.api -->
<g id="edge46" class="edge">
<title>hidebound.server&#45;&gt;hidebound.server.api</title>
<path fill="none" stroke="#a0d17b" d="M1846.781,-570.0477C1924.8976,-564.8706 2050.8885,-555.1499 2159,-540.5384 2174.0257,-538.5076 2189.849,-536.0034 2205.3293,-533.3462"/>
<polygon fill="#a0d17b" stroke="#a0d17b" points="2206.1915,-536.7487 2215.4408,-531.5814 2204.9879,-529.8529 2206.1915,-536.7487"/>
</g>
<!-- hidebound.server&#45;&gt;hidebound.server.app -->
<g id="edge47" class="edge">
<title>hidebound.server&#45;&gt;hidebound.server.app</title>
<path fill="none" stroke="#a0d17b" d="M1846.7028,-579.8276C1996.3165,-588.9607 2326.2449,-601.3217 2418,-540.5384 2490.4227,-492.5618 2525.3776,-388.6716 2538.5296,-338.6162"/>
<polygon fill="#a0d17b" stroke="#a0d17b" points="2541.9556,-339.3441 2541.0108,-328.7915 2535.1687,-337.63 2541.9556,-339.3441"/>
</g>
<!-- hidebound.server&#45;&gt;hidebound.server.components -->
<g id="edge48" class="edge">
<title>hidebound.server&#45;&gt;hidebound.server.components</title>
<path fill="none" stroke="#a0d17b" d="M1794.0912,-556.3066C1815.7264,-537.2981 1848.1144,-505.5722 1867,-471.5384 1896.2973,-418.7416 1864.8197,-387.3154 1903,-340.5384 1918.4445,-321.6164 1940.8221,-307.6561 1962.5614,-297.6316"/>
<polygon fill="#a0d17b" stroke="#a0d17b" points="1964.0641,-300.7945 1971.817,-293.5734 1961.2532,-294.3836 1964.0641,-300.7945"/>
</g>
<!-- hidebound.server&#45;&gt;hidebound.server.progress -->
<g id="edge49" class="edge">
<title>hidebound.server&#45;&gt;hidebound.server.progress</title>
<path fill="none" stroke="#a0d17b" d="M1834.5296,-592.6159C1856.176,-598.7632 1880.619,-605.5815 1903,-611.5384 1917.2082,-615.32 1932.3385,-619.217 1947.0352,-622.9338"/>
<polygon fill="#a0d17b" stroke="#a0d17b" points="1946.5719,-626.4263 1957.1239,-625.4745 1948.2814,-619.6383 1946.5719,-626.4263"/>
</g>
<!-- hidebound.server&#45;&gt;hidebound.server.server_tools -->
<g id="edge50" class="edge">
<title>hidebound.server&#45;&gt;hidebound.server.server_tools</title>
<path fill="none" stroke="#a0d17b" d="M1843.725,-556.3407C1852.0188,-552.5485 1860.0001,-547.9956 1867,-542.5384 1890.3347,-524.3464 1878.6414,-503.3347 1903,-486.5384 1905.1268,-485.0718 1907.3173,-483.6823 1909.5617,-482.3659"/>
<polygon fill="#a0d17b" stroke="#a0d17b" points="1911.2714,-485.4209 1918.4646,-477.6422 1907.9906,-479.2374 1911.2714,-485.4209"/>
</g>
<!-- flask -->
<g id="node24" class="node">
<title>flask</title>
<polygon fill="#343434" stroke="#343434" points="1801,-408.5384 1743,-408.5384 1743,-372.5384 1801,-372.5384 1801,-408.5384"/>
<text text-anchor="middle" x="1772" y="-386.8384" font-family="Courier,monospace" font-size="14.00" fill="#de958e">flask</text>
</g>
<!-- flask&#45;&gt;hidebound.server.api -->
<g id="edge51" class="edge">
<title>flask&#45;&gt;hidebound.server.api</title>
<path fill="none" stroke="#de958e" d="M1801.2069,-392.2214C1879.4062,-396.9631 2092.1229,-411.473 2159,-432.5384 2200.5409,-445.6232 2243.7198,-470.9368 2272.5418,-489.7995"/>
<polygon fill="#de958e" stroke="#de958e" points="2270.7421,-492.8058 2281.0079,-495.4256 2274.6164,-486.9758 2270.7421,-492.8058"/>
</g>
<!-- flask&#45;&gt;hidebound.server.app -->
<g id="edge52" class="edge">
<title>flask&#45;&gt;hidebound.server.app</title>
<path fill="none" stroke="#de958e" d="M1801.069,-381.8984C1820.0754,-375.969 1845.3078,-367.5637 1867,-358.5384 1883.516,-351.6667 1885.6907,-345.0536 1903,-340.5384 2002.0116,-314.7104 2288.6872,-310.4923 2443.3013,-310.1768"/>
<polygon fill="#de958e" stroke="#de958e" points="2443.7513,-313.6762 2453.7459,-310.161 2443.7406,-306.6762 2443.7513,-313.6762"/>
</g>
<!-- flask&#45;&gt;hidebound.server.components -->
<g id="edge53" class="edge">
<title>flask&#45;&gt;hidebound.server.components</title>
<path fill="none" stroke="#de958e" d="M1801.2379,-385.6549C1821.2634,-381.1869 1847.604,-372.9952 1867,-358.5384 1889.2454,-341.9577 1880.1099,-323.217 1903,-307.5384 1908.3328,-303.8857 1914.0452,-300.6494 1919.9887,-297.7822"/>
<polygon fill="#de958e" stroke="#de958e" points="1921.7697,-300.8214 1929.4975,-293.5735 1918.9365,-294.4204 1921.7697,-300.8214"/>
</g>
<!-- flask&#45;&gt;hidebound.server.progress -->
<g id="edge54" class="edge">
<title>flask&#45;&gt;hidebound.server.progress</title>
<path fill="none" stroke="#de958e" d="M1801.0149,-391.5817C1821.9918,-393.8677 1849.5947,-400.2687 1867,-417.5384 1907.434,-457.6574 1871.3586,-493.1753 1903,-540.5384 1925.3289,-573.9618 1961.8618,-601.7991 1990.1946,-620.0722"/>
<polygon fill="#de958e" stroke="#de958e" points="1988.3732,-623.0614 1998.6995,-625.4318 1992.1052,-617.1392 1988.3732,-623.0614"/>
</g>
<!-- flask&#45;&gt;hidebound.server.server_tools -->
<g id="edge55" class="edge">
<title>flask&#45;&gt;hidebound.server.server_tools</title>
<path fill="none" stroke="#de958e" d="M1801.2672,-398.8554C1836.7701,-408.9365 1893.1227,-424.9095 1903,-427.5384 1917.2082,-431.32 1932.3385,-435.217 1947.0352,-438.9338"/>
<polygon fill="#de958e" stroke="#de958e" points="1946.5719,-442.4263 1957.1239,-441.4745 1948.2814,-435.6383 1946.5719,-442.4263"/>
</g>
<!-- dash.dependencies -->
<g id="node25" class="node">
<title>dash.dependencies</title>
<polygon fill="#343434" stroke="#343434" points="2385,-263.5384 2228,-263.5384 2228,-227.5384 2385,-227.5384 2385,-263.5384"/>
<text text-anchor="middle" x="2306.5" y="-241.8384" font-family="Courier,monospace" font-size="14.00" fill="#de958e">dash.dependencies</text>
</g>
<!-- dash.dependencies&#45;&gt;hidebound.server.app -->
<g id="edge56" class="edge">
<title>dash.dependencies&#45;&gt;hidebound.server.app</title>
<path fill="none" stroke="#de958e" d="M2372.6188,-263.5582C2402.4735,-271.6947 2437.9128,-281.3532 2468.8713,-289.7905"/>
<polygon fill="#de958e" stroke="#de958e" points="2468.1841,-293.2308 2478.7526,-292.4835 2470.0248,-286.4771 2468.1841,-293.2308"/>
</g>
<!-- rolling_pin.blob_etl -->
<g id="node26" class="node">
<title>rolling_pin.blob_etl</title>
<polygon fill="#343434" stroke="#343434" points="1863,-243.5384 1681,-243.5384 1681,-207.5384 1863,-207.5384 1863,-243.5384"/>
<text text-anchor="middle" x="1772" y="-221.8384" font-family="Courier,monospace" font-size="14.00" fill="#de958e">rolling_pin.blob_etl</text>
</g>
<!-- rolling_pin.blob_etl&#45;&gt;hidebound.server.components -->
<g id="edge57" class="edge">
<title>rolling_pin.blob_etl&#45;&gt;hidebound.server.components</title>
<path fill="none" stroke="#de958e" d="M1863.3137,-243.1665C1884.0589,-247.1714 1906.2398,-251.4534 1927.4521,-255.5484"/>
<polygon fill="#de958e" stroke="#de958e" points="1926.9657,-259.0191 1937.4479,-257.4781 1928.2926,-252.146 1926.9657,-259.0191"/>
</g>
<!-- dash.exceptions -->
<g id="node27" class="node">
<title>dash.exceptions</title>
<polygon fill="#343434" stroke="#343434" points="2376.5,-209.5384 2236.5,-209.5384 2236.5,-173.5384 2376.5,-173.5384 2376.5,-209.5384"/>
<text text-anchor="middle" x="2306.5" y="-187.8384" font-family="Courier,monospace" font-size="14.00" fill="#de958e">dash.exceptions</text>
</g>
<!-- dash.exceptions&#45;&gt;hidebound.server.app -->
<g id="edge58" class="edge">
<title>dash.exceptions&#45;&gt;hidebound.server.app</title>
<path fill="none" stroke="#de958e" d="M2376.6158,-204.1004C2390.6635,-207.8333 2405.0691,-212.5727 2418,-218.5384 2455.3146,-235.7533 2492.7765,-264.6502 2517.2405,-285.4692"/>
<polygon fill="#de958e" stroke="#de958e" points="2515.1649,-288.3013 2525.0197,-292.1914 2519.7417,-283.0048 2515.1649,-288.3013"/>
</g>
<!-- flask_healthz -->
<g id="node28" class="node">
<title>flask_healthz</title>
<polygon fill="#343434" stroke="#343434" points="2368.5,-155.5384 2244.5,-155.5384 2244.5,-119.5384 2368.5,-119.5384 2368.5,-155.5384"/>
<text text-anchor="middle" x="2306.5" y="-133.8384" font-family="Courier,monospace" font-size="14.00" fill="#de958e">flask_healthz</text>
</g>
<!-- flask_healthz&#45;&gt;hidebound.server.app -->
<g id="edge59" class="edge">
<title>flask_healthz&#45;&gt;hidebound.server.app</title>
<path fill="none" stroke="#de958e" d="M2368.7618,-145.5344C2385.5733,-149.5355 2403.1935,-155.537 2418,-164.5384 2467.3304,-194.5279 2507.659,-250.0426 2528.8429,-283.3011"/>
<polygon fill="#de958e" stroke="#de958e" points="2526.0393,-285.4198 2534.3017,-292.0518 2531.9785,-281.7148 2526.0393,-285.4198"/>
</g>
<!-- flask_monitoringdashboard -->
<g id="node29" class="node">
<title>flask_monitoringdashboard</title>
<polygon fill="#343434" stroke="#343434" points="2418,-101.5384 2195,-101.5384 2195,-65.5384 2418,-65.5384 2418,-101.5384"/>
<text text-anchor="middle" x="2306.5" y="-79.8384" font-family="Courier,monospace" font-size="14.00" fill="#de958e">flask_monitoringdashboard</text>
</g>
<!-- flask_monitoringdashboard&#45;&gt;hidebound.server.app -->
<g id="edge60" class="edge">
<title>flask_monitoringdashboard&#45;&gt;hidebound.server.app</title>
<path fill="none" stroke="#de958e" d="M2402.9534,-101.6467C2408.2402,-104.2293 2413.3035,-107.1762 2418,-110.5384 2479.7449,-154.7407 2518.4835,-239.2052 2535.2861,-282.8713"/>
<polygon fill="#de958e" stroke="#de958e" points="2532.0299,-284.1563 2538.8138,-292.2944 2538.5856,-281.702 2532.0299,-284.1563"/>
</g>
<!-- jinja2 -->
<g id="node30" class="node">
<title>jinja2</title>
<polygon fill="#343434" stroke="#343434" points="1805,-462.5384 1739,-462.5384 1739,-426.5384 1805,-426.5384 1805,-462.5384"/>
<text text-anchor="middle" x="1772" y="-440.8384" font-family="Courier,monospace" font-size="14.00" fill="#de958e">jinja2</text>
</g>
<!-- jinja2&#45;&gt;hidebound.server.server_tools -->
<g id="edge61" class="edge">
<title>jinja2&#45;&gt;hidebound.server.server_tools</title>
<path fill="none" stroke="#de958e" d="M1805.0656,-446.4534C1827.8677,-447.7739 1859.8721,-449.6275 1892.6367,-451.5251"/>
<polygon fill="#de958e" stroke="#de958e" points="1892.6344,-455.0307 1902.8201,-452.1148 1893.0392,-448.0424 1892.6344,-455.0307"/>
</g>
<!-- pandasql -->
<g id="node31" class="node">
<title>pandasql</title>
<polygon fill="#343434" stroke="#343434" points="1813.5,-1448.5384 1730.5,-1448.5384 1730.5,-1412.5384 1813.5,-1412.5384 1813.5,-1448.5384"/>
<text text-anchor="middle" x="1772" y="-1426.8384" font-family="Courier,monospace" font-size="14.00" fill="#de958e">pandasql</text>
</g>
<!-- pandasql&#45;&gt;hidebound.core.database -->
<g id="edge62" class="edge">
<title>pandasql&#45;&gt;hidebound.core.database</title>
<path fill="none" stroke="#de958e" d="M1813.5471,-1425.144C1831.2605,-1421.2974 1851.3947,-1414.7304 1867,-1403.5384 1944.8223,-1347.7244 1997.7591,-1242.8524 2019.6625,-1193.0901"/>
<polygon fill="#de958e" stroke="#de958e" points="2022.9986,-1194.1925 2023.7456,-1183.624 2016.5711,-1191.42 2022.9986,-1194.1925"/>
</g>
<!-- requests -->
<g id="node32" class="node">
<title>requests</title>
<polygon fill="#343434" stroke="#343434" points="1813.5,-1394.5384 1730.5,-1394.5384 1730.5,-1358.5384 1813.5,-1358.5384 1813.5,-1394.5384"/>
<text text-anchor="middle" x="1772" y="-1372.8384" font-family="Courier,monospace" font-size="14.00" fill="#de958e">requests</text>
</g>
<!-- requests&#45;&gt;hidebound.core.database -->
<g id="edge63" class="edge">
<title>requests&#45;&gt;hidebound.core.database</title>
<path fill="none" stroke="#de958e" d="M1813.8593,-1369.9831C1831.2312,-1365.9483 1851.0186,-1359.5547 1867,-1349.5384 1933.0699,-1308.129 1988.174,-1232.4461 2014.4489,-1192.2609"/>
<polygon fill="#de958e" stroke="#de958e" points="2017.437,-1194.0853 2019.908,-1183.7826 2011.5515,-1190.2957 2017.437,-1194.0853"/>
</g>
<!-- flasgger -->
<g id="node33" class="node">
<title>flasgger</title>
<polygon fill="#343434" stroke="#343434" points="2072.5,-385.5384 1989.5,-385.5384 1989.5,-349.5384 2072.5,-349.5384 2072.5,-385.5384"/>
<text text-anchor="middle" x="2031" y="-363.8384" font-family="Courier,monospace" font-size="14.00" fill="#de958e">flasgger</text>
</g>
<!-- flasgger&#45;&gt;hidebound.server.api -->
<g id="edge64" class="edge">
<title>flasgger&#45;&gt;hidebound.server.api</title>
<path fill="none" stroke="#de958e" d="M2072.5591,-373.4495C2098.361,-378.1896 2131.6904,-386.2964 2159,-399.5384 2206.3818,-422.5131 2253.1162,-462.3328 2280.8869,-488.3053"/>
<polygon fill="#de958e" stroke="#de958e" points="2278.5359,-490.8993 2288.2016,-495.2382 2283.3513,-485.8187 2278.5359,-490.8993"/>
</g>
<!-- flasgger&#45;&gt;hidebound.server.app -->
<g id="edge65" class="edge">
<title>flasgger&#45;&gt;hidebound.server.app</title>
<path fill="none" stroke="#de958e" d="M2072.524,-367.5707C2143.6926,-367.0462 2293.3552,-363.4078 2418,-343.5384 2436.8788,-340.5289 2457.0274,-335.9465 2475.5846,-331.1456"/>
<polygon fill="#de958e" stroke="#de958e" points="2476.6471,-334.4851 2485.4193,-328.5439 2474.8568,-327.7179 2476.6471,-334.4851"/>
</g>
<!-- werkzeug.exceptions -->
<g id="node34" class="node">
<title>werkzeug.exceptions</title>
<polygon fill="#343434" stroke="#343434" points="2117.5,-531.5384 1944.5,-531.5384 1944.5,-495.5384 2117.5,-495.5384 2117.5,-531.5384"/>
<text text-anchor="middle" x="2031" y="-509.8384" font-family="Courier,monospace" font-size="14.00" fill="#de958e">werkzeug.exceptions</text>
</g>
<!-- werkzeug.exceptions&#45;&gt;hidebound.server.api -->
<g id="edge66" class="edge">
<title>werkzeug.exceptions&#45;&gt;hidebound.server.api</title>
<path fill="none" stroke="#de958e" d="M2117.7918,-513.5384C2145.5862,-513.5384 2176.6028,-513.5384 2205.3309,-513.5384"/>
<polygon fill="#de958e" stroke="#de958e" points="2205.3879,-517.0385 2215.3879,-513.5384 2205.3878,-510.0385 2205.3879,-517.0385"/>
</g>
<!-- yaml -->
<g id="node35" class="node">
<title>yaml</title>
<polygon fill="#343434" stroke="#343434" points="1799,-1340.5384 1745,-1340.5384 1745,-1304.5384 1799,-1304.5384 1799,-1340.5384"/>
<text text-anchor="middle" x="1772" y="-1318.8384" font-family="Courier,monospace" font-size="14.00" fill="#de958e">yaml</text>
</g>
<!-- yaml&#45;&gt;hidebound.core.database -->
<g id="edge67" class="edge">
<title>yaml&#45;&gt;hidebound.core.database</title>
<path fill="none" stroke="#de958e" d="M1799.2633,-1317.7632C1818.8506,-1313.6355 1845.4847,-1306.5647 1867,-1295.5384 1921.5479,-1267.5834 1975.4234,-1220.0169 2005.8238,-1190.827"/>
<polygon fill="#de958e" stroke="#de958e" points="2008.2982,-1193.3028 2013.0331,-1183.8249 2003.4211,-1188.2815 2008.2982,-1193.3028"/>
</g>
<!-- json_logging -->
<g id="node36" class="node">
<title>json_logging</title>
<polygon fill="#343434" stroke="#343434" points="646,-1088.5384 530,-1088.5384 530,-1052.5384 646,-1052.5384 646,-1088.5384"/>
<text text-anchor="middle" x="588" y="-1066.8384" font-family="Courier,monospace" font-size="14.00" fill="#de958e">json_logging</text>
</g>
<!-- json_logging&#45;&gt;hidebound.core.logging -->
<g id="edge68" class="edge">
<title>json_logging&#45;&gt;hidebound.core.logging</title>
<path fill="none" stroke="#de958e" d="M646.0848,-1059.5202C669.9205,-1054.9988 698.2746,-1049.6203 725.5136,-1044.4533"/>
<polygon fill="#de958e" stroke="#de958e" points="726.3156,-1047.8637 735.4881,-1042.5613 725.011,-1040.9863 726.3156,-1047.8637"/>
</g>
<!-- dask.distributed -->
<g id="node37" class="node">
<title>dask.distributed</title>
<polygon fill="#343434" stroke="#343434" points="1846.5,-1286.5384 1697.5,-1286.5384 1697.5,-1250.5384 1846.5,-1250.5384 1846.5,-1286.5384"/>
<text text-anchor="middle" x="1772" y="-1264.8384" font-family="Courier,monospace" font-size="14.00" fill="#de958e">dask.distributed</text>
</g>
<!-- dask.distributed&#45;&gt;hidebound.core.database -->
<g id="edge69" class="edge">
<title>dask.distributed&#45;&gt;hidebound.core.database</title>
<path fill="none" stroke="#de958e" d="M1828.0382,-1250.5296C1840.9114,-1246.153 1854.4903,-1241.3435 1867,-1236.5384 1906.4092,-1221.4008 1950.2568,-1202.2968 1982.6911,-1187.7193"/>
<polygon fill="#de958e" stroke="#de958e" points="1984.2716,-1190.846 1991.9472,-1183.5428 1981.3926,-1184.4654 1984.2716,-1190.846"/>
</g>
<!-- boto3 -->
<g id="node38" class="node">
<title>boto3</title>
<polygon fill="#343434" stroke="#343434" points="1151.5,-1340.5384 1093.5,-1340.5384 1093.5,-1304.5384 1151.5,-1304.5384 1151.5,-1340.5384"/>
<text text-anchor="middle" x="1122.5" y="-1318.8384" font-family="Courier,monospace" font-size="14.00" fill="#de958e">boto3</text>
</g>
<!-- boto3&#45;&gt;hidebound.exporters.s3_exporter -->
<g id="edge70" class="edge">
<title>boto3&#45;&gt;hidebound.exporters.s3_exporter</title>
<path fill="none" stroke="#de958e" d="M1151.697,-1322.5384C1190.1621,-1322.5384 1260.5647,-1322.5384 1325.589,-1322.5384"/>
<polygon fill="#de958e" stroke="#de958e" points="1325.9732,-1326.0385 1335.9731,-1322.5384 1325.9731,-1319.0385 1325.9732,-1326.0385"/>
</g>
<!-- botocore.exceptions -->
<g id="node39" class="node">
<title>botocore.exceptions</title>
<polygon fill="#343434" stroke="#343434" points="1209,-1286.5384 1036,-1286.5384 1036,-1250.5384 1209,-1250.5384 1209,-1286.5384"/>
<text text-anchor="middle" x="1122.5" y="-1264.8384" font-family="Courier,monospace" font-size="14.00" fill="#de958e">botocore.exceptions</text>
</g>
<!-- botocore.exceptions&#45;&gt;hidebound.exporters.s3_exporter -->
<g id="edge71" class="edge">
<title>botocore.exceptions&#45;&gt;hidebound.exporters.s3_exporter</title>
<path fill="none" stroke="#de958e" d="M1209.3423,-1281.9561C1250.3156,-1288.2867 1300.0073,-1295.9644 1345.0949,-1302.9307"/>
<polygon fill="#de958e" stroke="#de958e" points="1344.8229,-1306.4301 1355.2401,-1304.4982 1345.8918,-1299.5122 1344.8229,-1306.4301"/>
</g>
<!-- lunchbox.tools -->
<g id="node40" class="node">
<title>lunchbox.tools</title>
<polygon fill="#343434" stroke="#343434" points="1188.5,-684.5384 1056.5,-684.5384 1056.5,-648.5384 1188.5,-648.5384 1188.5,-684.5384"/>
<text text-anchor="middle" x="1122.5" y="-662.8384" font-family="Courier,monospace" font-size="14.00" fill="#de958e">lunchbox.tools</text>
</g>
<!-- lunchbox.tools&#45;&gt;hidebound.core.database_tools -->
<g id="edge72" class="edge">
<title>lunchbox.tools&#45;&gt;hidebound.core.database_tools</title>
<path fill="none" stroke="#de958e" d="M1176.9575,-684.6453C1205.3811,-695.6214 1239.8014,-711.4129 1267,-731.5384 1349.3912,-792.5034 1422.2802,-891.6678 1454.4802,-938.8975"/>
<polygon fill="#de958e" stroke="#de958e" points="1451.695,-941.0273 1460.1906,-947.3579 1457.4971,-937.1112 1451.695,-941.0273"/>
</g>
<!-- lunchbox.tools&#45;&gt;hidebound.server.server_tools -->
<g id="edge73" class="edge">
<title>lunchbox.tools&#45;&gt;hidebound.server.server_tools</title>
<path fill="none" stroke="#de958e" d="M1188.5256,-652.3992C1367.6949,-614.0009 1850.753,-510.2664 1867,-504.5384 1883.8708,-498.5905 1886.1104,-492.4326 1903,-486.5384 1909.4111,-484.301 1916.0706,-482.218 1922.8331,-480.2837"/>
<polygon fill="#de958e" stroke="#de958e" points="1924.0768,-483.5721 1932.7976,-477.5556 1922.2283,-476.8205 1924.0768,-483.5721"/>
</g>
<!-- girder_client -->
<g id="node41" class="node">
<title>girder_client</title>
<polygon fill="#343434" stroke="#343434" points="1184.5,-1752.5384 1060.5,-1752.5384 1060.5,-1716.5384 1184.5,-1716.5384 1184.5,-1752.5384"/>
<text text-anchor="middle" x="1122.5" y="-1730.8384" font-family="Courier,monospace" font-size="14.00" fill="#de958e">girder_client</text>
</g>
<!-- girder_client&#45;&gt;hidebound.exporters.girder_exporter -->
<g id="edge74" class="edge">
<title>girder_client&#45;&gt;hidebound.exporters.girder_exporter</title>
<path fill="none" stroke="#de958e" d="M1184.5809,-1722.9926C1234.4614,-1713.7158 1305.6923,-1700.4683 1364.7619,-1689.4825"/>
<polygon fill="#de958e" stroke="#de958e" points="1365.6936,-1692.8693 1374.8851,-1687.5998 1364.4137,-1685.9873 1365.6936,-1692.8693"/>
</g>
<!-- numpy -->
<g id="node42" class="node">
<title>numpy</title>
<polygon fill="#343434" stroke="#343434" points="1151.5,-776.5384 1093.5,-776.5384 1093.5,-740.5384 1151.5,-740.5384 1151.5,-776.5384"/>
<text text-anchor="middle" x="1122.5" y="-754.8384" font-family="Courier,monospace" font-size="14.00" fill="#de958e">numpy</text>
</g>
<!-- numpy&#45;&gt;hidebound.core.database -->
<g id="edge75" class="edge">
<title>numpy&#45;&gt;hidebound.core.database</title>
<path fill="none" stroke="#de958e" d="M1151.6897,-758.2479C1282.0562,-757.1872 1807.256,-755.5086 1867,-796.5384 1985.4549,-877.8884 2019.3597,-1065.5352 2028.1692,-1137.1021"/>
<polygon fill="#de958e" stroke="#de958e" points="2024.7086,-1137.6449 2029.3356,-1147.176 2031.6621,-1136.8397 2024.7086,-1137.6449"/>
</g>
<!-- numpy&#45;&gt;hidebound.core.database_tools -->
<g id="edge76" class="edge">
<title>numpy&#45;&gt;hidebound.core.database_tools</title>
<path fill="none" stroke="#de958e" d="M1151.697,-775.831C1214.3935,-812.9645 1361.9405,-900.3529 1432.745,-942.2886"/>
<polygon fill="#de958e" stroke="#de958e" points="1431.0084,-945.3279 1441.3961,-947.4125 1434.5756,-939.305 1431.0084,-945.3279"/>
</g>
<!-- numpy&#45;&gt;hidebound.server.api -->
<g id="edge77" class="edge">
<title>numpy&#45;&gt;hidebound.server.api</title>
<path fill="none" stroke="#de958e" d="M1151.5512,-757.3109C1309.9753,-750.4535 2065.931,-715.5696 2159,-670.5384 2166.9628,-666.6856 2243.74,-582.7523 2283.2526,-539.2267"/>
<polygon fill="#de958e" stroke="#de958e" points="2286.046,-541.3566 2290.1719,-531.5981 2280.861,-536.6538 2286.046,-541.3566"/>
</g>
<!-- hidebound.exporters -->
<g id="node43" class="node">
<title>hidebound.exporters</title>
<polygon fill="#343434" stroke="#343434" points="917,-1441.5384 744,-1441.5384 744,-1405.5384 917,-1405.5384 917,-1441.5384"/>
<text text-anchor="middle" x="830.5" y="-1419.8384" font-family="Courier,monospace" font-size="14.00" fill="#a0d17b">hidebound.exporters</text>
</g>
<!-- hidebound.exporters&#45;&gt;hidebound.exporters.exporter_base -->
<g id="edge78" class="edge">
<title>hidebound.exporters&#45;&gt;hidebound.exporters.exporter_base</title>
<path fill="none" stroke="#a0d17b" d="M909.1348,-1441.5813C947.6758,-1450.4246 994.2384,-1461.1085 1034.0195,-1470.2363"/>
<polygon fill="#a0d17b" stroke="#a0d17b" points="1033.4487,-1473.6963 1043.9782,-1472.5214 1035.0143,-1466.8736 1033.4487,-1473.6963"/>
</g>
<!-- hidebound.exporters&#45;&gt;hidebound.exporters.girder_exporter -->
<g id="edge79" class="edge">
<title>hidebound.exporters&#45;&gt;hidebound.exporters.girder_exporter</title>
<path fill="none" stroke="#a0d17b" d="M854.3894,-1441.6372C882.6406,-1462.3415 931.6925,-1496.1356 978,-1517.5384 1112.4015,-1579.6571 1278.7765,-1624.8463 1380.0711,-1649.1229"/>
<polygon fill="#a0d17b" stroke="#a0d17b" points="1379.4316,-1652.5684 1389.9702,-1651.4784 1381.0521,-1645.7585 1379.4316,-1652.5684"/>
</g>
<!-- hidebound.exporters&#45;&gt;hidebound.exporters.local_disk_exporter -->
<g id="edge80" class="edge">
<title>hidebound.exporters&#45;&gt;hidebound.exporters.local_disk_exporter</title>
<path fill="none" stroke="#a0d17b" d="M917.1488,-1430.4619C1005.299,-1437.7443 1145.8045,-1450.0095 1267,-1463.5384 1287.712,-1465.8504 1309.5728,-1468.5024 1330.9962,-1471.2212"/>
<polygon fill="#a0d17b" stroke="#a0d17b" points="1330.7725,-1474.721 1341.1355,-1472.5169 1331.6599,-1467.7775 1330.7725,-1474.721"/>
</g>
<!-- hidebound.exporters&#45;&gt;hidebound.exporters.s3_exporter -->
<g id="edge81" class="edge">
<title>hidebound.exporters&#45;&gt;hidebound.exporters.s3_exporter</title>
<path fill="none" stroke="#a0d17b" d="M838.4517,-1405.3757C856.5819,-1366.5689 905.1255,-1276.28 978,-1241.5384 1132.4123,-1167.925 1341.4076,-1255.3911 1429.7725,-1299.7579"/>
<polygon fill="#a0d17b" stroke="#a0d17b" points="1428.4432,-1303.0086 1438.9428,-1304.4261 1431.6189,-1296.7704 1428.4432,-1303.0086"/>
</g>
<!-- hidebound -->
<g id="node44" class="node">
<title>hidebound</title>
<polygon fill="#343434" stroke="#343434" points="190,-1441.5384 99,-1441.5384 99,-1405.5384 190,-1405.5384 190,-1441.5384"/>
<text text-anchor="middle" x="144.5" y="-1419.8384" font-family="Courier,monospace" font-size="14.00" fill="#a0d17b">hidebound</text>
</g>
<!-- hidebound&#45;&gt;hidebound.server -->
<g id="edge82" class="edge">
<title>hidebound&#45;&gt;hidebound.server</title>
<path fill="none" stroke="#a0d17b" d="M190.2998,-1427.0644C221.9799,-1426.9165 262.9624,-1421.1913 289,-1396.5384 592.0096,-1109.6432 170.7187,-506.5384 588,-506.5384 588,-506.5384 588,-506.5384 830.5,-506.5384 1147.326,-506.5384 1522.5688,-545.319 1687.3104,-564.3072"/>
<polygon fill="#a0d17b" stroke="#a0d17b" points="1687.0425,-567.7995 1697.3788,-565.4733 1687.8479,-560.846 1687.0425,-567.7995"/>
</g>
<!-- hidebound&#45;&gt;hidebound.exporters -->
<g id="edge83" class="edge">
<title>hidebound&#45;&gt;hidebound.exporters</title>
<path fill="none" stroke="#a0d17b" d="M190.0416,-1423.5384C300.3243,-1423.5384 583.6659,-1423.5384 733.7973,-1423.5384"/>
<polygon fill="#a0d17b" stroke="#a0d17b" points="733.9313,-1427.0385 743.9313,-1423.5384 733.9313,-1420.0385 733.9313,-1427.0385"/>
</g>
<!-- hidebound.core -->
<g id="node54" class="node">
<title>hidebound.core</title>
<polygon fill="#343434" stroke="#343434" points="457,-1645.5384 325,-1645.5384 325,-1609.5384 457,-1609.5384 457,-1645.5384"/>
<text text-anchor="middle" x="391" y="-1623.8384" font-family="Courier,monospace" font-size="14.00" fill="#a0d17b">hidebound.core</text>
</g>
<!-- hidebound&#45;&gt;hidebound.core -->
<g id="edge84" class="edge">
<title>hidebound&#45;&gt;hidebound.core</title>
<path fill="none" stroke="#a0d17b" d="M190.3153,-1422.4987C220.8049,-1423.9695 260.366,-1430.253 289,-1450.5384 341.0472,-1487.4104 370.3065,-1559.8311 383.1087,-1599.6557"/>
<polygon fill="#a0d17b" stroke="#a0d17b" points="379.7836,-1600.7504 386.082,-1609.2698 386.4711,-1598.6821 379.7836,-1600.7504"/>
</g>
<!-- schematics -->
<g id="node45" class="node">
<title>schematics</title>
<polygon fill="#343434" stroke="#343434" points="880,-1874.5384 781,-1874.5384 781,-1838.5384 880,-1838.5384 880,-1874.5384"/>
<text text-anchor="middle" x="830.5" y="-1852.8384" font-family="Courier,monospace" font-size="14.00" fill="#de958e">schematics</text>
</g>
<!-- schematics&#45;&gt;hidebound.core.config -->
<g id="edge85" class="edge">
<title>schematics&#45;&gt;hidebound.core.config</title>
<path fill="none" stroke="#de958e" d="M837.5758,-1874.6251C854.5695,-1915.1959 902.0003,-2012.8499 978,-2050.5384 1109.9945,-2115.9949 1516.1347,-2128.7418 1641,-2050.5384 1727.6978,-1996.2393 1758.4663,-1866.4045 1768.0983,-1808.8436"/>
<polygon fill="#de958e" stroke="#de958e" points="1771.6045,-1809.0779 1769.7065,-1798.6545 1764.6901,-1807.9865 1771.6045,-1809.0779"/>
</g>
<!-- schematics&#45;&gt;hidebound.core.specification_base -->
<g id="edge86" class="edge">
<title>schematics&#45;&gt;hidebound.core.specification_base</title>
<path fill="none" stroke="#de958e" d="M880.1296,-1862.7313C900.8382,-1867.2495 924.1688,-1875.0562 942,-1888.5384 966.2007,-1906.8365 953.2478,-1928.9935 978,-1946.5384 982.9688,-1950.0603 988.2563,-1953.2044 993.7608,-1956.0105"/>
<polygon fill="#de958e" stroke="#de958e" points="992.6695,-1959.3635 1003.2115,-1960.4206 995.6297,-1953.0202 992.6695,-1959.3635"/>
</g>
<!-- schematics&#45;&gt;hidebound.exporters.exporter_base -->
<g id="edge87" class="edge">
<title>schematics&#45;&gt;hidebound.exporters.exporter_base</title>
<path fill="none" stroke="#de958e" d="M880.1793,-1855.2817C901.6438,-1852.2588 925.5535,-1845.1925 942,-1829.5384 982.9496,-1790.5617 954.0632,-1758.7544 978,-1707.5384 1012.5647,-1633.5827 1070.1499,-1556.1245 1101.1618,-1516.8078"/>
<polygon fill="#de958e" stroke="#de958e" points="1104.2361,-1518.5651 1107.7207,-1508.5597 1098.7572,-1514.2083 1104.2361,-1518.5651"/>
</g>
<!-- schematics&#45;&gt;hidebound.exporters.girder_exporter -->
<g id="edge88" class="edge">
<title>schematics&#45;&gt;hidebound.exporters.girder_exporter</title>
<path fill="none" stroke="#de958e" d="M880.0986,-1865.5967C968.0153,-1878.6905 1152.6707,-1892.48 1267,-1803.5384 1301.9829,-1776.3237 1269.6707,-1739.7548 1303,-1710.5384 1311.5164,-1703.0729 1321.1656,-1696.915 1331.4328,-1691.8416"/>
<polygon fill="#de958e" stroke="#de958e" points="1332.9576,-1694.9931 1340.6016,-1687.6569 1330.0511,-1688.625 1332.9576,-1694.9931"/>
</g>
<!-- schematics.types -->
<g id="node46" class="node">
<title>schematics.types</title>
<polygon fill="#343434" stroke="#343434" points="905,-1820.5384 756,-1820.5384 756,-1784.5384 905,-1784.5384 905,-1820.5384"/>
<text text-anchor="middle" x="830.5" y="-1798.8384" font-family="Courier,monospace" font-size="14.00" fill="#de958e">schematics.types</text>
</g>
<!-- schematics.types&#45;&gt;hidebound.core.config -->
<g id="edge89" class="edge">
<title>schematics.types&#45;&gt;hidebound.core.config</title>
<path fill="none" stroke="#de958e" d="M905.0704,-1808.3384C918.8671,-1812.5675 932.0431,-1819.2183 942,-1829.5384 997.4366,-1886.997 916.1446,-1955.0545 978,-2005.5384 1092.1427,-2098.6971 1513.2715,-2078.9723 1641,-2005.5384 1715.8145,-1962.5259 1751.8993,-1858.5266 1765.4112,-1808.4292"/>
<polygon fill="#de958e" stroke="#de958e" points="1768.8382,-1809.1566 1767.9576,-1798.5984 1762.0618,-1807.4013 1768.8382,-1809.1566"/>
</g>
<!-- schematics.types&#45;&gt;hidebound.core.specification_base -->
<g id="edge90" class="edge">
<title>schematics.types&#45;&gt;hidebound.core.specification_base</title>
<path fill="none" stroke="#de958e" d="M905.1802,-1809.367C918.7232,-1813.5465 931.7733,-1819.9165 942,-1829.5384 981.6246,-1866.8197 938.0112,-1909.648 978,-1946.5384 981.4393,-1949.7112 985.1205,-1952.5945 988.9917,-1955.2134"/>
<polygon fill="#de958e" stroke="#de958e" points="987.3865,-1958.3335 997.7502,-1960.5344 991.021,-1952.3509 987.3865,-1958.3335"/>
</g>
<!-- schematics.types&#45;&gt;hidebound.core.specifications -->
<g id="edge91" class="edge">
<title>schematics.types&#45;&gt;hidebound.core.specifications</title>
<path fill="none" stroke="#de958e" d="M905.1051,-1810.7015C918.4203,-1814.7908 931.4044,-1820.7864 942,-1829.5384 971.7486,-1854.1109 947.0972,-1885.4342 978,-1908.5384 981.6018,-1911.2312 1188.5862,-1939.9107 1333.4555,-1959.7133"/>
<polygon fill="#de958e" stroke="#de958e" points="1333.3934,-1963.2373 1343.7751,-1961.1233 1334.341,-1956.3017 1333.3934,-1963.2373"/>
</g>
<!-- schematics.types&#45;&gt;hidebound.exporters.exporter_base -->
<g id="edge92" class="edge">
<title>schematics.types&#45;&gt;hidebound.exporters.exporter_base</title>
<path fill="none" stroke="#de958e" d="M852.5425,-1784.1579C878.033,-1761.6694 919.3798,-1721.1691 942,-1677.5384 974.5512,-1614.7522 927.7353,-1572.2892 978,-1522.5384 981.0817,-1519.4882 984.385,-1516.7011 987.8673,-1514.1556"/>
<polygon fill="#de958e" stroke="#de958e" points="989.8424,-1517.046 996.2974,-1508.6446 986.0121,-1511.1869 989.8424,-1517.046"/>
</g>
<!-- schematics.types&#45;&gt;hidebound.exporters.girder_exporter -->
<g id="edge93" class="edge">
<title>schematics.types&#45;&gt;hidebound.exporters.girder_exporter</title>
<path fill="none" stroke="#de958e" d="M905.2554,-1813.5096C996.9863,-1823.134 1154.201,-1826.8578 1267,-1761.5384 1291.0098,-1747.6348 1280.0554,-1726.1371 1303,-1710.5384 1314.6647,-1702.6082 1327.7003,-1696.207 1341.218,-1691.0408"/>
<polygon fill="#de958e" stroke="#de958e" points="1342.413,-1694.3306 1350.6426,-1687.6579 1340.0481,-1687.7422 1342.413,-1694.3306"/>
</g>
<!-- schematics.types&#45;&gt;hidebound.exporters.local_disk_exporter -->
<g id="edge94" class="edge">
<title>schematics.types&#45;&gt;hidebound.exporters.local_disk_exporter</title>
<path fill="none" stroke="#de958e" d="M855.4714,-1784.3842C884.1272,-1764.0499 932.9796,-1730.887 978,-1707.5384 1101.012,-1643.7416 1140.4304,-1646.9485 1267,-1590.5384 1323.1557,-1565.5106 1386.5989,-1534.059 1427.8354,-1513.1809"/>
<polygon fill="#de958e" stroke="#de958e" points="1429.4643,-1516.2793 1436.7978,-1508.6327 1426.2964,-1510.0371 1429.4643,-1516.2793"/>
</g>
<!-- schematics.types&#45;&gt;hidebound.exporters.s3_exporter -->
<g id="edge95" class="edge">
<title>schematics.types&#45;&gt;hidebound.exporters.s3_exporter</title>
<path fill="none" stroke="#de958e" d="M850.582,-1784.3469C874.9189,-1761.4193 915.9003,-1719.866 942,-1677.5384 964.8282,-1640.5164 945.1357,-1615.0286 978,-1586.5384 1077.7805,-1500.0383 1158.6544,-1593.0344 1267,-1517.5384 1290.6657,-1501.0479 1283.7272,-1484.999 1303,-1463.5384 1344.6,-1417.2161 1401.7072,-1372.7406 1437.7296,-1346.5262"/>
<polygon fill="#de958e" stroke="#de958e" points="1439.9063,-1349.2716 1445.9678,-1340.582 1435.8104,-1343.595 1439.9063,-1349.2716"/>
</g>
<!-- wrapt -->
<g id="node47" class="node">
<title>wrapt</title>
<polygon fill="#343434" stroke="#343434" points="617,-1599.5384 559,-1599.5384 559,-1563.5384 617,-1563.5384 617,-1599.5384"/>
<text text-anchor="middle" x="588" y="-1577.8384" font-family="Courier,monospace" font-size="14.00" fill="#de958e">wrapt</text>
</g>
<!-- wrapt&#45;&gt;hidebound.core.validators -->
<g id="edge96" class="edge">
<title>wrapt&#45;&gt;hidebound.core.validators</title>
<path fill="none" stroke="#de958e" d="M617.2512,-1589.8614C651.7099,-1599.6661 710.2178,-1616.3137 757.2418,-1629.6938"/>
<polygon fill="#de958e" stroke="#de958e" points="756.513,-1633.1253 767.0891,-1632.4957 758.4288,-1626.3925 756.513,-1633.1253"/>
</g>
<!-- pyparsing -->
<g id="node48" class="node">
<title>pyparsing</title>
<polygon fill="#343434" stroke="#343434" points="436.5,-1737.5384 345.5,-1737.5384 345.5,-1701.5384 436.5,-1701.5384 436.5,-1737.5384"/>
<text text-anchor="middle" x="391" y="-1715.8384" font-family="Courier,monospace" font-size="14.00" fill="#de958e">pyparsing</text>
</g>
<!-- pyparsing&#45;&gt;hidebound.core.parser -->
<g id="edge97" class="edge">
<title>pyparsing&#45;&gt;hidebound.core.parser</title>
<path fill="none" stroke="#de958e" d="M436.6909,-1708.8694C455.8002,-1704.4074 478.6743,-1699.0662 500.7804,-1693.9044"/>
<polygon fill="#de958e" stroke="#de958e" points="501.587,-1697.3103 510.5292,-1691.628 499.9952,-1690.4936 501.587,-1697.3103"/>
</g>
<!-- pyparsing&#45;&gt;hidebound.core.specification_base -->
<g id="edge98" class="edge">
<title>pyparsing&#45;&gt;hidebound.core.specification_base</title>
<path fill="none" stroke="#de958e" d="M395.0087,-1737.8523C407.7092,-1794.0181 448.8332,-1961.8914 493,-1992.5384 669.8952,-2115.2847 947.2248,-2040.8649 1065.729,-2000.0126"/>
<polygon fill="#de958e" stroke="#de958e" points="1067.0565,-2003.2563 1075.341,-1996.6519 1064.7462,-1996.6485 1067.0565,-2003.2563"/>
</g>
<!-- pyparsing&#45;&gt;hidebound.core.validators -->
<g id="edge99" class="edge">
<title>pyparsing&#45;&gt;hidebound.core.validators</title>
<path fill="none" stroke="#de958e" d="M436.7482,-1720.2374C494.6434,-1720.2849 597.1679,-1717.5715 683,-1700.5384 715.1467,-1694.159 749.9183,-1682.6117 777.6225,-1672.2203"/>
<polygon fill="#de958e" stroke="#de958e" points="779.0138,-1675.4358 787.1112,-1668.6034 776.5204,-1668.8948 779.0138,-1675.4358"/>
</g>
<!-- jsoncomment -->
<g id="node49" class="node">
<title>jsoncomment</title>
<polygon fill="#343434" stroke="#343434" points="641.5,-692.5384 534.5,-692.5384 534.5,-656.5384 641.5,-656.5384 641.5,-692.5384"/>
<text text-anchor="middle" x="588" y="-670.8384" font-family="Courier,monospace" font-size="14.00" fill="#de958e">jsoncomment</text>
</g>
<!-- jsoncomment&#45;&gt;hidebound.core.database -->
<g id="edge100" class="edge">
<title>jsoncomment&#45;&gt;hidebound.core.database</title>
<path fill="none" stroke="#de958e" d="M637.9869,-692.5576C711.4164,-718.1524 853.2587,-764.2835 978,-785.5384 1173.9284,-818.923 1708.492,-763.6314 1867,-883.5384 1955.6567,-950.6047 2004.7735,-1080.6086 2022.8641,-1137.6109"/>
<polygon fill="#de958e" stroke="#de958e" points="2019.5849,-1138.854 2025.8835,-1147.3733 2026.2724,-1136.7856 2019.5849,-1138.854"/>
</g>
<!-- jsoncomment&#45;&gt;hidebound.core.tools -->
<g id="edge101" class="edge">
<title>jsoncomment&#45;&gt;hidebound.core.tools</title>
<path fill="none" stroke="#de958e" d="M602.5668,-692.8635C623.8656,-720.6728 663.1267,-775.9795 683,-829.5384 717.7724,-923.2506 669.9471,-964.4469 719,-1051.5384 735.8018,-1081.3692 765.7679,-1106.0976 790.4059,-1122.8403"/>
<polygon fill="#de958e" stroke="#de958e" points="788.5939,-1125.838 798.8682,-1128.4247 792.4495,-1119.9955 788.5939,-1125.838"/>
</g>
<!-- jsoncomment&#45;&gt;hidebound.server.server_tools -->
<g id="edge102" class="edge">
<title>jsoncomment&#45;&gt;hidebound.server.server_tools</title>
<path fill="none" stroke="#de958e" d="M641.5652,-664.7213C716.6797,-651.0325 857.6165,-625.6312 978,-605.5384 1287.61,-553.8623 1365.7423,-545.1273 1677,-504.5384 1748.1423,-495.2612 1827.3603,-485.1689 1892.7897,-476.8973"/>
<polygon fill="#de958e" stroke="#de958e" points="1893.2718,-480.3643 1902.7541,-475.6382 1892.3942,-473.4195 1893.2718,-480.3643"/>
</g>
<!-- pandas -->
<g id="node50" class="node">
<title>pandas</title>
<polygon fill="#343434" stroke="#343434" points="621,-928.5384 555,-928.5384 555,-892.5384 621,-892.5384 621,-928.5384"/>
<text text-anchor="middle" x="588" y="-906.8384" font-family="Courier,monospace" font-size="14.00" fill="#de958e">pandas</text>
</g>
<!-- pandas&#45;&gt;hidebound.core.database -->
<g id="edge103" class="edge">
<title>pandas&#45;&gt;hidebound.core.database</title>
<path fill="none" stroke="#de958e" d="M621.198,-902.0004C774.9869,-864.3707 1429.2234,-725.5595 1867,-965.5384 1940.5505,-1005.857 1994.0819,-1093.8194 2017.6496,-1138.4317"/>
<polygon fill="#de958e" stroke="#de958e" points="2014.6457,-1140.2425 2022.3495,-1147.5159 2020.8629,-1137.0258 2014.6457,-1140.2425"/>
</g>
<!-- pandas&#45;&gt;hidebound.core.database_tools -->
<g id="edge104" class="edge">
<title>pandas&#45;&gt;hidebound.core.database_tools</title>
<path fill="none" stroke="#de958e" d="M621.2554,-911.3441C719.8878,-913.8976 1019.3659,-922.8322 1267,-942.5384 1288.5941,-944.2568 1311.4281,-946.4471 1333.7107,-948.7905"/>
<polygon fill="#de958e" stroke="#de958e" points="1333.5888,-952.2973 1343.9035,-949.8768 1334.3307,-945.3367 1333.5888,-952.2973"/>
</g>
<!-- pandas&#45;&gt;hidebound.core.tools -->
<g id="edge105" class="edge">
<title>pandas&#45;&gt;hidebound.core.tools</title>
<path fill="none" stroke="#de958e" d="M603.8975,-928.9812C627.9237,-956.5401 675.3258,-1009.7023 719,-1051.5384 745.1698,-1076.6068 776.7534,-1103.2026 799.615,-1121.858"/>
<polygon fill="#de958e" stroke="#de958e" points="797.6473,-1124.7687 807.6169,-1128.3543 802.0593,-1119.3341 797.6473,-1124.7687"/>
</g>
<!-- pandas&#45;&gt;hidebound.core.validators -->
<g id="edge106" class="edge">
<title>pandas&#45;&gt;hidebound.core.validators</title>
<path fill="none" stroke="#de958e" d="M606.1133,-928.8953C628.5738,-952.9445 665.972,-997.4963 683,-1043.5384 745.9906,-1213.8586 665.6121,-1276.9684 719,-1450.5384 739.666,-1517.7259 784.9791,-1587.5167 811.0312,-1624.2597"/>
<polygon fill="#de958e" stroke="#de958e" points="808.2287,-1626.3576 816.9029,-1632.4411 813.9157,-1622.2761 808.2287,-1626.3576"/>
</g>
<!-- pandas&#45;&gt;hidebound.server.components -->
<g id="edge107" class="edge">
<title>pandas&#45;&gt;hidebound.server.components</title>
<path fill="none" stroke="#de958e" d="M621.1381,-905.9207C640.3255,-902.118 664.302,-895.3544 683,-883.5384 703.4995,-870.5839 702.0297,-859.8605 719,-842.5384 828.1929,-731.0817 843.9454,-685.3822 978,-605.5384 1260.4538,-437.307 1361.8261,-457.0658 1677,-363.5384 1765.4267,-337.2979 1867.8224,-312.4308 1939.6685,-295.8683"/>
<polygon fill="#de958e" stroke="#de958e" points="1940.6364,-299.2372 1949.5989,-293.5871 1939.0691,-292.4149 1940.6364,-299.2372"/>
</g>
<!-- dask.dataframe -->
<g id="node51" class="node">
<title>dask.dataframe</title>
<polygon fill="#343434" stroke="#343434" points="654,-874.5384 522,-874.5384 522,-838.5384 654,-838.5384 654,-874.5384"/>
<text text-anchor="middle" x="588" y="-852.8384" font-family="Courier,monospace" font-size="14.00" fill="#de958e">dask.dataframe</text>
</g>
<!-- dask.dataframe&#45;&gt;hidebound.core.database -->
<g id="edge108" class="edge">
<title>dask.dataframe&#45;&gt;hidebound.core.database</title>
<path fill="none" stroke="#de958e" d="M629.6578,-838.4307C699.8778,-809.0015 846.9879,-752.0207 978,-731.5384 1175.1637,-700.7139 1848.6887,-751.5 1867,-764.5384 1994.0161,-854.9787 2022.864,-1061.9005 2029.243,-1137.3479"/>
<polygon fill="#de958e" stroke="#de958e" points="2025.7672,-1137.7967 2030.0301,-1147.496 2032.7462,-1137.2553 2025.7672,-1137.7967"/>
</g>
<!-- dask.dataframe&#45;&gt;hidebound.core.database_tools -->
<g id="edge109" class="edge">
<title>dask.dataframe&#45;&gt;hidebound.core.database_tools</title>
<path fill="none" stroke="#de958e" d="M654.3572,-860.0952C776.2664,-867.2276 1043.8523,-885.6635 1267,-920.5384 1307.8136,-926.917 1352.6822,-936.4712 1390.0102,-945.1375"/>
<polygon fill="#de958e" stroke="#de958e" points="1389.2937,-948.5643 1399.8284,-947.4367 1390.8898,-941.7487 1389.2937,-948.5643"/>
</g>
<!-- dask.dataframe&#45;&gt;hidebound.core.tools -->
<g id="edge110" class="edge">
<title>dask.dataframe&#45;&gt;hidebound.core.tools</title>
<path fill="none" stroke="#de958e" d="M654.0458,-865.2454C664.8995,-869.3064 675.1484,-875.1523 683,-883.5384 735.1901,-939.2816 679.8634,-985.9683 719,-1051.5384 736.6636,-1081.1323 766.8729,-1106.0165 791.3948,-1122.8839"/>
<polygon fill="#de958e" stroke="#de958e" points="789.5443,-1125.8569 799.8015,-1128.5104 793.4378,-1120.0396 789.5443,-1125.8569"/>
</g>
<!-- OpenEXR -->
<g id="node52" class="node">
<title>OpenEXR</title>
<polygon fill="#343434" stroke="#343434" points="625,-1164.5384 551,-1164.5384 551,-1128.5384 625,-1128.5384 625,-1164.5384"/>
<text text-anchor="middle" x="588" y="-1142.8384" font-family="Courier,monospace" font-size="14.00" fill="#de958e">OpenEXR</text>
</g>
<!-- OpenEXR&#45;&gt;hidebound.core.tools -->
<g id="edge111" class="edge">
<title>OpenEXR&#45;&gt;hidebound.core.tools</title>
<path fill="none" stroke="#de958e" d="M625.0945,-1146.5384C652.8668,-1146.5384 692.2626,-1146.5384 729.1359,-1146.5384"/>
<polygon fill="#de958e" stroke="#de958e" points="729.4574,-1150.0385 739.4574,-1146.5384 729.4574,-1143.0385 729.4574,-1150.0385"/>
</g>
<!-- schematics.exceptions -->
<g id="node53" class="node">
<title>schematics.exceptions</title>
<polygon fill="#343434" stroke="#343434" points="683,-1867.5384 493,-1867.5384 493,-1831.5384 683,-1831.5384 683,-1867.5384"/>
<text text-anchor="middle" x="588" y="-1845.8384" font-family="Courier,monospace" font-size="14.00" fill="#de958e">schematics.exceptions</text>
</g>
<!-- schematics.exceptions&#45;&gt;hidebound.core.config -->
<g id="edge112" class="edge">
<title>schematics.exceptions&#45;&gt;hidebound.core.config</title>
<path fill="none" stroke="#de958e" d="M595.3106,-1867.8136C622.6331,-1936.091 717.2786,-2172.3776 719,-2173.5384 819.967,-2241.6228 1145.9475,-2186.8092 1267,-2173.5384 1436.2523,-2154.9834 1510.1916,-2199.5327 1641,-2090.5384 1730.3479,-2016.0904 1759.951,-1870.0006 1768.7004,-1808.6852"/>
<polygon fill="#de958e" stroke="#de958e" points="1772.1937,-1808.9691 1770.0593,-1798.5915 1765.2563,-1808.0351 1772.1937,-1808.9691"/>
</g>
<!-- schematics.exceptions&#45;&gt;hidebound.core.database_tools -->
<g id="edge113" class="edge">
<title>schematics.exceptions&#45;&gt;hidebound.core.database_tools</title>
<path fill="none" stroke="#de958e" d="M603.6048,-1831.245C625.4521,-1804.4988 664.5451,-1752.2592 683,-1700.5384 728.7232,-1572.3963 650.1731,-1513.9005 719,-1396.5384 799.6076,-1259.0878 1261.2889,-1054.4494 1419.1137,-987.558"/>
<polygon fill="#de958e" stroke="#de958e" points="1420.7727,-990.6567 1428.6211,-983.5395 1418.0474,-984.209 1420.7727,-990.6567"/>
</g>
<!-- schematics.exceptions&#45;&gt;hidebound.core.specification_base -->
<g id="edge114" class="edge">
<title>schematics.exceptions&#45;&gt;hidebound.core.specification_base</title>
<path fill="none" stroke="#de958e" d="M616.747,-1867.6626C642.54,-1883.0749 681.9319,-1904.5575 719,-1916.5384 799.0313,-1942.4055 891.5717,-1957.6138 967.8257,-1966.4867"/>
<polygon fill="#de958e" stroke="#de958e" points="967.664,-1969.9908 977.9956,-1967.6439 968.4554,-1963.0356 967.664,-1969.9908"/>
</g>
<!-- schematics.exceptions&#45;&gt;hidebound.core.tools -->
<g id="edge115" class="edge">
<title>schematics.exceptions&#45;&gt;hidebound.core.tools</title>
<path fill="none" stroke="#de958e" d="M603.9503,-1831.3636C626.2179,-1804.7615 665.8181,-1752.6959 683,-1700.5384 719.3806,-1590.1008 645.8791,-1268.9449 719,-1178.5384 722.5224,-1174.1833 726.5954,-1170.3969 731.0579,-1167.1069"/>
<polygon fill="#de958e" stroke="#de958e" points="732.9499,-1170.0515 739.4763,-1161.7054 729.1697,-1164.16 732.9499,-1170.0515"/>
</g>
<!-- schematics.exceptions&#45;&gt;hidebound.core.validators -->
<g id="edge116" class="edge">
<title>schematics.exceptions&#45;&gt;hidebound.core.validators</title>
<path fill="none" stroke="#de958e" d="M609.948,-1831.5275C653.5721,-1795.7287 751.2253,-1715.5927 800.6402,-1675.0418"/>
<polygon fill="#de958e" stroke="#de958e" points="802.9169,-1677.7013 808.4269,-1668.652 798.4763,-1672.29 802.9169,-1677.7013"/>
</g>
<!-- schematics.exceptions&#45;&gt;hidebound.server.api -->
<g id="edge117" class="edge">
<title>schematics.exceptions&#45;&gt;hidebound.server.api</title>
<path fill="none" stroke="#de958e" d="M597.1227,-1867.7277C615.3216,-1904.5358 656.6489,-1990.7963 683,-2066.5384 703.6866,-2125.9986 670.4584,-2163.4488 719,-2203.5384 788.2912,-2260.7646 1032.6328,-2230.5384 1122.5,-2230.5384 1122.5,-2230.5384 1122.5,-2230.5384 1772,-2230.5384 2141.1878,-2230.5384 2284.4241,-765.0595 2304.0966,-541.8868"/>
<polygon fill="#de958e" stroke="#de958e" points="2307.6064,-541.9254 2304.9878,-531.6593 2300.6328,-541.3177 2307.6064,-541.9254"/>
</g>
<!-- hidebound.core&#45;&gt;hidebound.core.config -->
<g id="edge118" class="edge">
<title>hidebound.core&#45;&gt;hidebound.core.config</title>
<path fill="none" stroke="#a0d17b" d="M416.7001,-1645.5559C431.1402,-1657.1917 448.0195,-1673.6585 457,-1692.5384 529.4905,-1844.9363 411.3803,-1922.8285 493,-2070.5384 554.3094,-2181.4919 598.9949,-2203.6934 719,-2244.5384 1109.2444,-2377.3621 1323.1914,-2406.0846 1641,-2143.5384 1694.8959,-2099.0142 1747.9734,-1885.8632 1765.7524,-1808.5926"/>
<polygon fill="#a0d17b" stroke="#a0d17b" points="1769.2149,-1809.1504 1768.0233,-1798.6228 1762.3898,-1807.5958 1769.2149,-1809.1504"/>
</g>
<!-- hidebound.core&#45;&gt;hidebound.core.database -->
<g id="edge119" class="edge">
<title>hidebound.core&#45;&gt;hidebound.core.database</title>
<path fill="none" stroke="#a0d17b" d="M391.473,-1609.3961C394.9947,-1481.2215 419.0656,-715.2903 493,-647.5384 718.6251,-440.7804 1629.9342,-547.0045 1867,-740.5384 1994.2967,-844.4598 2022.9918,-1059.6631 2029.2854,-1137.0452"/>
<polygon fill="#a0d17b" stroke="#a0d17b" points="2025.826,-1137.7208 2030.0605,-1147.4326 2032.8066,-1137.1999 2025.826,-1137.7208"/>
</g>
<!-- hidebound.core&#45;&gt;hidebound.core.database_tools -->
<g id="edge120" class="edge">
<title>hidebound.core&#45;&gt;hidebound.core.database_tools</title>
<path fill="none" stroke="#a0d17b" d="M392.523,-1609.4819C401.0878,-1510.015 444.5998,-1031.8507 493,-989.5384 554.6957,-935.6029 1078.7445,-949.2948 1333.7363,-959.3425"/>
<polygon fill="#a0d17b" stroke="#a0d17b" points="1333.6791,-962.8429 1343.8103,-959.7431 1333.9573,-955.8485 1333.6791,-962.8429"/>
</g>
<!-- hidebound.core&#45;&gt;hidebound.core.logging -->
<g id="edge121" class="edge">
<title>hidebound.core&#45;&gt;hidebound.core.logging</title>
<path fill="none" stroke="#a0d17b" d="M391.276,-1609.4461C393.0544,-1519.4331 405.8174,-1121.0992 493,-1043.5384 563.4971,-980.8216 678.5691,-989.389 754.4178,-1004.4389"/>
<polygon fill="#a0d17b" stroke="#a0d17b" points="753.8879,-1007.9033 764.3893,-1006.4994 755.3045,-1001.0481 753.8879,-1007.9033"/>
</g>
<!-- hidebound.core&#45;&gt;hidebound.core.parser -->
<g id="edge122" class="edge">
<title>hidebound.core&#45;&gt;hidebound.core.parser</title>
<path fill="none" stroke="#a0d17b" d="M457.1462,-1642.9837C471.1325,-1646.2495 486.0978,-1649.7439 500.7283,-1653.1602"/>
<polygon fill="#a0d17b" stroke="#a0d17b" points="500.2535,-1656.6434 510.7875,-1655.509 501.8453,-1649.8268 500.2535,-1656.6434"/>
</g>
<!-- hidebound.core&#45;&gt;hidebound.core.specification_base -->
<g id="edge123" class="edge">
<title>hidebound.core&#45;&gt;hidebound.core.specification_base</title>
<path fill="none" stroke="#a0d17b" d="M415.7068,-1645.6225C429.9782,-1657.395 447.027,-1673.9807 457,-1692.5384 496.4458,-1765.9389 438.067,-1813.8808 493,-1876.5384 621.2073,-2022.7738 869.8568,-2016.3493 1013.2977,-1997.9141"/>
<polygon fill="#a0d17b" stroke="#a0d17b" points="1013.9879,-2001.3533 1023.4405,-1996.568 1013.0669,-1994.4141 1013.9879,-2001.3533"/>
</g>
<!-- hidebound.core&#45;&gt;hidebound.core.specifications -->
<g id="edge124" class="edge">
<title>hidebound.core&#45;&gt;hidebound.core.specifications</title>
<path fill="none" stroke="#a0d17b" d="M416.3761,-1645.7147C430.7013,-1657.4069 447.5736,-1673.8771 457,-1692.5384 507.8121,-1793.1305 419.3249,-1858.2587 493,-1943.5384 605.8043,-2074.1103 1094.9107,-2018.1524 1267,-2005.5384 1291.7318,-2003.7255 1318.0433,-2000.9251 1343.2812,-1997.8019"/>
<polygon fill="#a0d17b" stroke="#a0d17b" points="1343.7852,-2001.2662 1353.2688,-1996.5427 1342.9095,-1994.3212 1343.7852,-2001.2662"/>
</g>
<!-- hidebound.core&#45;&gt;hidebound.core.tools -->
<g id="edge125" class="edge">
<title>hidebound.core&#45;&gt;hidebound.core.tools</title>
<path fill="none" stroke="#a0d17b" d="M398.9206,-1609.2325C429.3936,-1541.0147 546.0736,-1299.3186 719,-1178.5384 724.2008,-1174.9058 729.81,-1171.6828 735.6481,-1168.8234"/>
<polygon fill="#a0d17b" stroke="#a0d17b" points="737.3015,-1171.9175 744.9852,-1164.6228 734.4296,-1165.5337 737.3015,-1171.9175"/>
</g>
<!-- hidebound.core&#45;&gt;hidebound.core.traits -->
<g id="edge126" class="edge">
<title>hidebound.core&#45;&gt;hidebound.core.traits</title>
<path fill="none" stroke="#a0d17b" d="M416.6403,-1645.5844C431.0592,-1657.2304 447.9372,-1673.6978 457,-1692.5384 490.5098,-1762.2018 440.1778,-1982.0962 493,-2038.5384 501.9423,-2048.0935 840.2054,-2102.3154 1017.0876,-2130.1097"/>
<polygon fill="#a0d17b" stroke="#a0d17b" points="1016.7809,-2133.6044 1027.2028,-2131.698 1017.8668,-2126.6891 1016.7809,-2133.6044"/>
</g>
<!-- hidebound.core&#45;&gt;hidebound.core.validators -->
<g id="edge127" class="edge">
<title>hidebound.core&#45;&gt;hidebound.core.validators</title>
<path fill="none" stroke="#a0d17b" d="M457.2734,-1631.0066C523.6186,-1634.4786 627.2426,-1639.9015 708.4847,-1644.153"/>
<polygon fill="#a0d17b" stroke="#a0d17b" points="708.6121,-1647.6644 718.7814,-1644.6919 708.978,-1640.674 708.6121,-1647.6644"/>
</g>
<!-- selenium.webdriver.chrome.options -->
<g id="node55" class="node">
<title>selenium.webdriver.chrome.options</title>
<polygon fill="#343434" stroke="#343434" points="289,-1495.5384 0,-1495.5384 0,-1459.5384 289,-1459.5384 289,-1495.5384"/>
<text text-anchor="middle" x="144.5" y="-1473.8384" font-family="Courier,monospace" font-size="14.00" fill="#de958e">selenium.webdriver.chrome.options</text>
</g>
<!-- skimage.io -->
<g id="node56" class="node">
<title>skimage.io</title>
<polygon fill="#343434" stroke="#343434" points="880,-2164.5384 781,-2164.5384 781,-2128.5384 880,-2128.5384 880,-2164.5384"/>
<text text-anchor="middle" x="830.5" y="-2142.8384" font-family="Courier,monospace" font-size="14.00" fill="#de958e">skimage.io</text>
</g>
<!-- skimage.io&#45;&gt;hidebound.core.traits -->
<g id="edge128" class="edge">
<title>skimage.io&#45;&gt;hidebound.core.traits</title>
<path fill="none" stroke="#de958e" d="M880.0338,-2146.5384C917.5523,-2146.5384 970.4542,-2146.5384 1017.2741,-2146.5384"/>
<polygon fill="#de958e" stroke="#de958e" points="1017.4737,-2150.0385 1027.4737,-2146.5384 1017.4737,-2143.0385 1017.4737,-2150.0385"/>
</g>
</g>
</svg>
