<?xml version="1.0" encoding="UTF-8" standalone="no"?>
<!DOCTYPE svg PUBLIC "-//W3C//DTD SVG 1.1//EN"
 "http://www.w3.org/Graphics/SVG/1.1/DTD/svg11.dtd">
<!-- Generated by graphviz version 2.40.1 (20161225.0304)
 -->
<!-- Title: %3 Pages: 1 -->
<svg width="2269pt" height="1637pt"
 viewBox="0.00 0.00 2269.00 1637.26" xmlns="http://www.w3.org/2000/svg" xmlns:xlink="http://www.w3.org/1999/xlink">
<g id="graph0" class="graph" transform="scale(1 1) rotate(0) translate(4 1633.2617)">
<title>%3</title>
<polygon fill="#242424" stroke="transparent" points="-4,4 -4,-1633.2617 2265,-1633.2617 2265,4 -4,4"/>
<!-- cli -->
<g id="node1" class="node">
<title>cli</title>
<polygon fill="#343434" stroke="#343434" points="72.5,-648.4839 18.5,-648.4839 18.5,-612.4839 72.5,-612.4839 72.5,-648.4839"/>
<text text-anchor="middle" x="45.5" y="-626.7839" font-family="Courier,monospace" font-size="14.00" fill="#b6ecf3">cli</text>
</g>
<!-- hidebound.core.config -->
<g id="node2" class="node">
<title>hidebound.core.config</title>
<polygon fill="#343434" stroke="#343434" points="1443,-410.4839 1253,-410.4839 1253,-374.4839 1443,-374.4839 1443,-410.4839"/>
<text text-anchor="middle" x="1348" y="-388.7839" font-family="Courier,monospace" font-size="14.00" fill="#b6ecf3">hidebound.core.config</text>
</g>
<!-- hidebound.core.database -->
<g id="node3" class="node">
<title>hidebound.core.database</title>
<polygon fill="#343434" stroke="#343434" points="1743,-730.4839 1537,-730.4839 1537,-694.4839 1743,-694.4839 1743,-730.4839"/>
<text text-anchor="middle" x="1640" y="-708.7839" font-family="Courier,monospace" font-size="14.00" fill="#b6ecf3">hidebound.core.database</text>
</g>
<!-- hidebound.core.config&#45;&gt;hidebound.core.database -->
<g id="edge1" class="edge">
<title>hidebound.core.config&#45;&gt;hidebound.core.database</title>
<path fill="none" stroke="#b6ecf3" d="M1374.1476,-410.4936C1403.2977,-431.9345 1449.7793,-470.4288 1476,-514.4839 1507.3201,-567.1069 1473.3687,-599.9682 1512,-647.4839 1527.4081,-666.4356 1549.7772,-680.4028 1571.5197,-690.4246"/>
<polygon fill="#b6ecf3" stroke="#b6ecf3" points="1570.2135,-693.6734 1580.7775,-694.4811 1573.0229,-687.2619 1570.2135,-693.6734"/>
</g>
<!-- hidebound.server.app -->
<g id="node16" class="node">
<title>hidebound.server.app</title>
<polygon fill="#343434" stroke="#343434" points="2261,-1086.4839 2079,-1086.4839 2079,-1050.4839 2261,-1050.4839 2261,-1086.4839"/>
<text text-anchor="middle" x="2170" y="-1064.7839" font-family="Courier,monospace" font-size="14.00" fill="#b6ecf3">hidebound.server.app</text>
</g>
<!-- hidebound.core.config&#45;&gt;hidebound.server.app -->
<g id="edge2" class="edge">
<title>hidebound.core.config&#45;&gt;hidebound.server.app</title>
<path fill="none" stroke="#b6ecf3" d="M1435.1923,-410.5416C1531.3778,-435.1072 1683.679,-488.5781 1768,-593.4839 1812.0357,-648.2699 1765.2325,-688.8518 1804,-747.4839 1876.6118,-857.3023 1946.0854,-833.3766 2043,-922.4839 2084.5936,-960.7268 2126.3511,-1011.7372 2150.1044,-1042.2325"/>
<polygon fill="#b6ecf3" stroke="#b6ecf3" points="2147.4263,-1044.491 2156.3115,-1050.2621 2152.9645,-1040.2098 2147.4263,-1044.491"/>
</g>
<!-- hidebound.server.api -->
<g id="node15" class="node">
<title>hidebound.server.api</title>
<polygon fill="#343434" stroke="#343434" points="2014.5,-967.4839 1832.5,-967.4839 1832.5,-931.4839 2014.5,-931.4839 2014.5,-967.4839"/>
<text text-anchor="middle" x="1923.5" y="-945.7839" font-family="Courier,monospace" font-size="14.00" fill="#b6ecf3">hidebound.server.api</text>
</g>
<!-- hidebound.core.database&#45;&gt;hidebound.server.api -->
<g id="edge3" class="edge">
<title>hidebound.core.database&#45;&gt;hidebound.server.api</title>
<path fill="none" stroke="#b6ecf3" d="M1661.775,-730.6874C1712.0723,-772.7349 1836.396,-876.6668 1893.6993,-924.5712"/>
<polygon fill="#b6ecf3" stroke="#b6ecf3" points="1891.7337,-927.4899 1901.6508,-931.2184 1896.2234,-922.1193 1891.7337,-927.4899"/>
</g>
<!-- hidebound.core.database_tools -->
<g id="node4" class="node">
<title>hidebound.core.database_tools</title>
<polygon fill="#343434" stroke="#343434" points="1476,-776.4839 1220,-776.4839 1220,-740.4839 1476,-740.4839 1476,-776.4839"/>
<text text-anchor="middle" x="1348" y="-754.7839" font-family="Courier,monospace" font-size="14.00" fill="#b6ecf3">hidebound.core.database_tools</text>
</g>
<!-- hidebound.core.database_tools&#45;&gt;hidebound.core.database -->
<g id="edge4" class="edge">
<title>hidebound.core.database_tools&#45;&gt;hidebound.core.database</title>
<path fill="none" stroke="#b6ecf3" d="M1462.5681,-740.4355C1483.6716,-737.111 1505.695,-733.6416 1526.7591,-730.3232"/>
<polygon fill="#b6ecf3" stroke="#b6ecf3" points="1527.3539,-733.7728 1536.6874,-728.7592 1526.2645,-726.8581 1527.3539,-733.7728"/>
</g>
<!-- hidebound.core.parser -->
<g id="node5" class="node">
<title>hidebound.core.parser</title>
<polygon fill="#343434" stroke="#343434" points="485,-656.4839 295,-656.4839 295,-620.4839 485,-620.4839 485,-656.4839"/>
<text text-anchor="middle" x="390" y="-634.7839" font-family="Courier,monospace" font-size="14.00" fill="#b6ecf3">hidebound.core.parser</text>
</g>
<!-- hidebound.core.parser&#45;&gt;hidebound.core.database_tools -->
<g id="edge5" class="edge">
<title>hidebound.core.parser&#45;&gt;hidebound.core.database_tools</title>
<path fill="none" stroke="#b6ecf3" d="M485.3591,-650.4287C655.6161,-671.7553 1012.4915,-716.4578 1209.6857,-741.1585"/>
<polygon fill="#b6ecf3" stroke="#b6ecf3" points="1209.4674,-744.6585 1219.8249,-742.4286 1210.3375,-737.7127 1209.4674,-744.6585"/>
</g>
<!-- hidebound.core.specification_base -->
<g id="node6" class="node">
<title>hidebound.core.specification_base</title>
<polygon fill="#343434" stroke="#343434" points="1159.5,-678.4839 870.5,-678.4839 870.5,-642.4839 1159.5,-642.4839 1159.5,-678.4839"/>
<text text-anchor="middle" x="1015" y="-656.7839" font-family="Courier,monospace" font-size="14.00" fill="#b6ecf3">hidebound.core.specification_base</text>
</g>
<!-- hidebound.core.parser&#45;&gt;hidebound.core.specification_base -->
<g id="edge6" class="edge">
<title>hidebound.core.parser&#45;&gt;hidebound.core.specification_base</title>
<path fill="none" stroke="#b6ecf3" d="M485.2824,-620.5853C497.2696,-618.8937 509.3942,-617.4517 521,-616.4839 649.0002,-605.8105 683.2141,-595.9094 810,-616.4839 826.6477,-619.1855 829.6775,-624.2388 846,-628.4839 862.5487,-632.7879 880.1497,-636.7675 897.5042,-640.3525"/>
<polygon fill="#b6ecf3" stroke="#b6ecf3" points="897.1878,-643.8595 907.684,-642.4171 898.5793,-636.9992 897.1878,-643.8595"/>
</g>
<!-- hidebound.core.validators -->
<g id="node10" class="node">
<title>hidebound.core.validators</title>
<polygon fill="#343434" stroke="#343434" points="777,-526.4839 554,-526.4839 554,-490.4839 777,-490.4839 777,-526.4839"/>
<text text-anchor="middle" x="665.5" y="-504.7839" font-family="Courier,monospace" font-size="14.00" fill="#b6ecf3">hidebound.core.validators</text>
</g>
<!-- hidebound.core.parser&#45;&gt;hidebound.core.validators -->
<g id="edge7" class="edge">
<title>hidebound.core.parser&#45;&gt;hidebound.core.validators</title>
<path fill="none" stroke="#b6ecf3" d="M453.3466,-620.4724C464.1749,-616.4631 475.1113,-611.7963 485,-606.4839 502.8562,-596.8913 503.7842,-589.1835 521,-578.4839 550.2475,-560.3066 584.9165,-543.3721 612.9639,-530.7138"/>
<polygon fill="#b6ecf3" stroke="#b6ecf3" points="614.4993,-533.8614 622.2043,-526.5893 611.6461,-527.4692 614.4993,-533.8614"/>
</g>
<!-- hidebound.core.specification_base&#45;&gt;hidebound.core.config -->
<g id="edge8" class="edge">
<title>hidebound.core.specification_base&#45;&gt;hidebound.core.config</title>
<path fill="none" stroke="#b6ecf3" d="M1049.9323,-642.4361C1085.2666,-623.453 1140.7018,-591.6389 1184,-557.4839 1239.6312,-513.6002 1296.034,-452.3742 1326.0249,-418.1842"/>
<polygon fill="#b6ecf3" stroke="#b6ecf3" points="1328.7848,-420.3445 1332.7146,-410.5055 1323.5068,-415.7463 1328.7848,-420.3445"/>
</g>
<!-- hidebound.core.specification_base&#45;&gt;hidebound.core.database -->
<g id="edge9" class="edge">
<title>hidebound.core.specification_base&#45;&gt;hidebound.core.database</title>
<path fill="none" stroke="#b6ecf3" d="M1112.4569,-678.5083C1146.384,-684.161 1184.7679,-689.8633 1220,-693.4839 1323.4378,-704.1138 1441.815,-708.7968 1526.473,-710.8598"/>
<polygon fill="#b6ecf3" stroke="#b6ecf3" points="1526.5471,-714.3624 1536.6267,-711.0986 1526.7118,-707.3643 1526.5471,-714.3624"/>
</g>
<!-- hidebound.core.specification_base&#45;&gt;hidebound.core.database_tools -->
<g id="edge10" class="edge">
<title>hidebound.core.specification_base&#45;&gt;hidebound.core.database_tools</title>
<path fill="none" stroke="#b6ecf3" d="M1149.3095,-678.5058C1161.3487,-682.3132 1173.0953,-686.9175 1184,-692.4839 1203.6017,-702.4899 1200.6959,-715.9153 1220,-726.4839 1227.2928,-730.4766 1235.0907,-733.9803 1243.104,-737.0536"/>
<polygon fill="#b6ecf3" stroke="#b6ecf3" points="1241.998,-740.3752 1252.5924,-740.467 1244.3676,-733.7885 1241.998,-740.3752"/>
</g>
<!-- hidebound.core.specifications -->
<g id="node7" class="node">
<title>hidebound.core.specifications</title>
<polygon fill="#343434" stroke="#343434" points="1476,-684.4839 1220,-684.4839 1220,-648.4839 1476,-648.4839 1476,-684.4839"/>
<text text-anchor="middle" x="1348" y="-662.7839" font-family="Courier,monospace" font-size="14.00" fill="#b6ecf3">hidebound.core.specifications</text>
</g>
<!-- hidebound.core.specification_base&#45;&gt;hidebound.core.specifications -->
<g id="edge11" class="edge">
<title>hidebound.core.specification_base&#45;&gt;hidebound.core.specifications</title>
<path fill="none" stroke="#b6ecf3" d="M1159.6058,-663.0894C1176.2489,-663.3893 1193.189,-663.6945 1209.7452,-663.9928"/>
<polygon fill="#b6ecf3" stroke="#b6ecf3" points="1209.9366,-667.4968 1219.9981,-664.1776 1210.0628,-660.4979 1209.9366,-667.4968"/>
</g>
<!-- hidebound.core.tools -->
<g id="node8" class="node">
<title>hidebound.core.tools</title>
<polygon fill="#343434" stroke="#343434" points="756.5,-846.4839 574.5,-846.4839 574.5,-810.4839 756.5,-810.4839 756.5,-846.4839"/>
<text text-anchor="middle" x="665.5" y="-824.7839" font-family="Courier,monospace" font-size="14.00" fill="#b6ecf3">hidebound.core.tools</text>
</g>
<!-- hidebound.core.tools&#45;&gt;hidebound.core.database -->
<g id="edge12" class="edge">
<title>hidebound.core.tools&#45;&gt;hidebound.core.database</title>
<path fill="none" stroke="#b6ecf3" d="M756.692,-837.3664C939.7312,-853.9511 1345.5071,-884.1029 1476,-839.4839 1534.4269,-819.5062 1588.1608,-769.3144 1617.2762,-738.3459"/>
<polygon fill="#b6ecf3" stroke="#b6ecf3" points="1619.9234,-740.6383 1624.1359,-730.9168 1614.7805,-735.8895 1619.9234,-740.6383"/>
</g>
<!-- hidebound.core.tools&#45;&gt;hidebound.core.database_tools -->
<g id="edge13" class="edge">
<title>hidebound.core.tools&#45;&gt;hidebound.core.database_tools</title>
<path fill="none" stroke="#b6ecf3" d="M756.6605,-829.2961C860.8269,-828.7405 1036.0158,-823.2738 1184,-796.4839 1200.4627,-793.5037 1203.7991,-789.659 1220,-785.4839 1228.9775,-783.1704 1238.3464,-780.9081 1247.7538,-778.7397"/>
<polygon fill="#b6ecf3" stroke="#b6ecf3" points="1248.5786,-782.1416 1257.5563,-776.5157 1247.0298,-775.3151 1248.5786,-782.1416"/>
</g>
<!-- hidebound.core.tools&#45;&gt;hidebound.core.specification_base -->
<g id="edge14" class="edge">
<title>hidebound.core.tools&#45;&gt;hidebound.core.specification_base</title>
<path fill="none" stroke="#b6ecf3" d="M703.2347,-810.3454C767.5953,-779.4081 898.4062,-716.529 968.3778,-682.8946"/>
<polygon fill="#b6ecf3" stroke="#b6ecf3" points="969.9266,-686.0335 977.4231,-678.5467 966.8939,-679.7246 969.9266,-686.0335"/>
</g>
<!-- hidebound.core.traits -->
<g id="node9" class="node">
<title>hidebound.core.traits</title>
<polygon fill="#343434" stroke="#343434" points="1110,-922.4839 920,-922.4839 920,-886.4839 1110,-886.4839 1110,-922.4839"/>
<text text-anchor="middle" x="1015" y="-900.7839" font-family="Courier,monospace" font-size="14.00" fill="#b6ecf3">hidebound.core.traits</text>
</g>
<!-- hidebound.core.tools&#45;&gt;hidebound.core.traits -->
<g id="edge15" class="edge">
<title>hidebound.core.tools&#45;&gt;hidebound.core.traits</title>
<path fill="none" stroke="#b6ecf3" d="M736.0258,-846.5761C769.2913,-854.8784 809.589,-864.6044 846,-872.4839 866.5345,-876.9277 888.5471,-881.346 909.6742,-885.4171"/>
<polygon fill="#b6ecf3" stroke="#b6ecf3" points="909.1562,-888.8814 919.6359,-887.3239 910.4723,-882.0062 909.1562,-888.8814"/>
</g>
<!-- hidebound.exporters.local_disk_exporter -->
<g id="node13" class="node">
<title>hidebound.exporters.local_disk_exporter</title>
<polygon fill="#343434" stroke="#343434" points="1184,-456.4839 846,-456.4839 846,-420.4839 1184,-420.4839 1184,-456.4839"/>
<text text-anchor="middle" x="1015" y="-434.7839" font-family="Courier,monospace" font-size="14.00" fill="#b6ecf3">hidebound.exporters.local_disk_exporter</text>
</g>
<!-- hidebound.core.tools&#45;&gt;hidebound.exporters.local_disk_exporter -->
<g id="edge16" class="edge">
<title>hidebound.core.tools&#45;&gt;hidebound.exporters.local_disk_exporter</title>
<path fill="none" stroke="#b6ecf3" d="M670.7431,-810.1689C687.2441,-755.6753 743.214,-592.8193 846,-503.4839 868.7098,-483.746 898.0624,-469.6811 925.916,-459.8063"/>
<polygon fill="#b6ecf3" stroke="#b6ecf3" points="927.3492,-463.016 935.6923,-456.4858 925.0979,-456.3879 927.3492,-463.016"/>
</g>
<!-- hidebound.core.traits&#45;&gt;hidebound.core.specifications -->
<g id="edge17" class="edge">
<title>hidebound.core.traits&#45;&gt;hidebound.core.specifications</title>
<path fill="none" stroke="#b6ecf3" d="M1033.3271,-886.4558C1067.8313,-853.1209 1145.6687,-780.7603 1220,-731.4839 1244.299,-715.3754 1273.1162,-700.4169 1297.2495,-688.9207"/>
<polygon fill="#b6ecf3" stroke="#b6ecf3" points="1299.0291,-691.9517 1306.591,-684.531 1296.0519,-685.6163 1299.0291,-691.9517"/>
</g>
<!-- hidebound.core.validators&#45;&gt;hidebound.core.config -->
<g id="edge18" class="edge">
<title>hidebound.core.validators&#45;&gt;hidebound.core.config</title>
<path fill="none" stroke="#b6ecf3" d="M777.1177,-503.6082C905.9814,-497.2092 1109.7333,-484.5079 1184,-465.4839 1227.8278,-454.2571 1274.686,-432.2885 1307.044,-415.3711"/>
<polygon fill="#b6ecf3" stroke="#b6ecf3" points="1308.9903,-418.3008 1316.1857,-410.5241 1305.7112,-412.1163 1308.9903,-418.3008"/>
</g>
<!-- hidebound.core.validators&#45;&gt;hidebound.core.specification_base -->
<g id="edge19" class="edge">
<title>hidebound.core.validators&#45;&gt;hidebound.core.specification_base</title>
<path fill="none" stroke="#b6ecf3" d="M777.2598,-521.5024C789.1358,-526.1915 800.372,-532.371 810,-540.4839 842.3145,-567.7135 813.2699,-601.7552 846,-628.4839 850.7415,-632.356 855.8073,-635.8131 861.115,-638.897"/>
<polygon fill="#b6ecf3" stroke="#b6ecf3" points="859.7864,-642.1538 870.2616,-643.7417 863.063,-635.968 859.7864,-642.1538"/>
</g>
<!-- hidebound.core.validators&#45;&gt;hidebound.core.specifications -->
<g id="edge20" class="edge">
<title>hidebound.core.validators&#45;&gt;hidebound.core.specifications</title>
<path fill="none" stroke="#b6ecf3" d="M777.0093,-524.3632C788.661,-528.5602 799.9141,-533.842 810,-540.4839 832.8694,-555.5443 822.4664,-576.484 846,-590.4839 976.145,-667.9063 1034.5633,-608.9762 1184,-633.4839 1206.8435,-637.2303 1231.3602,-641.8427 1254.2938,-646.4188"/>
<polygon fill="#b6ecf3" stroke="#b6ecf3" points="1253.8665,-649.9029 1264.3606,-648.445 1255.2478,-643.0405 1253.8665,-649.9029"/>
</g>
<!-- hidebound.exporters.girder_exporter -->
<g id="node12" class="node">
<title>hidebound.exporters.girder_exporter</title>
<polygon fill="#343434" stroke="#343434" points="1167.5,-326.4839 862.5,-326.4839 862.5,-290.4839 1167.5,-290.4839 1167.5,-326.4839"/>
<text text-anchor="middle" x="1015" y="-304.7839" font-family="Courier,monospace" font-size="14.00" fill="#b6ecf3">hidebound.exporters.girder_exporter</text>
</g>
<!-- hidebound.core.validators&#45;&gt;hidebound.exporters.girder_exporter -->
<g id="edge21" class="edge">
<title>hidebound.core.validators&#45;&gt;hidebound.exporters.girder_exporter</title>
<path fill="none" stroke="#b6ecf3" d="M715.2478,-490.4723C744.0383,-478.9999 780.3301,-462.6977 810,-443.4839 827.9686,-431.8477 828.791,-424.2166 846,-411.4839 887.0763,-381.0921 937.4586,-351.2526 972.474,-331.5793"/>
<polygon fill="#b6ecf3" stroke="#b6ecf3" points="974.449,-334.4853 981.4754,-326.5556 971.0375,-328.3728 974.449,-334.4853"/>
</g>
<!-- hidebound.core.validators&#45;&gt;hidebound.exporters.local_disk_exporter -->
<g id="edge22" class="edge">
<title>hidebound.core.validators&#45;&gt;hidebound.exporters.local_disk_exporter</title>
<path fill="none" stroke="#b6ecf3" d="M749.4544,-490.4387C779.8421,-484.0051 814.4406,-476.7932 846,-470.4839 866.0057,-466.4845 887.37,-462.3406 907.9428,-458.4142"/>
<polygon fill="#b6ecf3" stroke="#b6ecf3" points="908.8001,-461.814 917.9692,-456.5058 907.4911,-454.9375 908.8001,-461.814"/>
</g>
<!-- hidebound.exporters.s3_exporter -->
<g id="node14" class="node">
<title>hidebound.exporters.s3_exporter</title>
<polygon fill="#343434" stroke="#343434" points="1151,-272.4839 879,-272.4839 879,-236.4839 1151,-236.4839 1151,-272.4839"/>
<text text-anchor="middle" x="1015" y="-250.7839" font-family="Courier,monospace" font-size="14.00" fill="#b6ecf3">hidebound.exporters.s3_exporter</text>
</g>
<!-- hidebound.core.validators&#45;&gt;hidebound.exporters.s3_exporter -->
<g id="edge23" class="edge">
<title>hidebound.core.validators&#45;&gt;hidebound.exporters.s3_exporter</title>
<path fill="none" stroke="#b6ecf3" d="M738.7276,-490.4128C764.7011,-480.5552 791.9362,-465.6681 810,-443.4839 856.5709,-386.29 792.2993,-332.0431 846,-281.4839 853.0645,-274.8327 861.0768,-269.439 869.68,-265.0902"/>
<polygon fill="#b6ecf3" stroke="#b6ecf3" points="871.1869,-268.2499 878.8443,-260.9277 868.2921,-261.8765 871.1869,-268.2499"/>
</g>
<!-- hidebound.exporters.exporter_base -->
<g id="node11" class="node">
<title>hidebound.exporters.exporter_base</title>
<polygon fill="#343434" stroke="#343434" points="810,-272.4839 521,-272.4839 521,-236.4839 810,-236.4839 810,-272.4839"/>
<text text-anchor="middle" x="665.5" y="-250.7839" font-family="Courier,monospace" font-size="14.00" fill="#b6ecf3">hidebound.exporters.exporter_base</text>
</g>
<!-- hidebound.exporters.exporter_base&#45;&gt;hidebound.exporters.girder_exporter -->
<g id="edge24" class="edge">
<title>hidebound.exporters.exporter_base&#45;&gt;hidebound.exporters.girder_exporter</title>
<path fill="none" stroke="#b6ecf3" d="M782.3643,-272.5402C816.3196,-277.7865 853.562,-283.5407 888.102,-288.8774"/>
<polygon fill="#b6ecf3" stroke="#b6ecf3" points="887.8286,-292.3766 898.2458,-290.4446 888.8975,-285.4587 887.8286,-292.3766"/>
</g>
<!-- hidebound.exporters.exporter_base&#45;&gt;hidebound.exporters.local_disk_exporter -->
<g id="edge25" class="edge">
<title>hidebound.exporters.exporter_base&#45;&gt;hidebound.exporters.local_disk_exporter</title>
<path fill="none" stroke="#b6ecf3" d="M793.8359,-272.4988C799.4668,-275.1278 804.8893,-278.108 810,-281.4839 834.0677,-297.3819 825.1936,-315.5066 846,-335.4839 881.3792,-369.4534 929.8479,-397.5644 965.8091,-415.7887"/>
<polygon fill="#b6ecf3" stroke="#b6ecf3" points="964.6206,-419.1069 975.1319,-420.4346 967.7428,-412.8417 964.6206,-419.1069"/>
</g>
<!-- hidebound.exporters.exporter_base&#45;&gt;hidebound.exporters.s3_exporter -->
<g id="edge26" class="edge">
<title>hidebound.exporters.exporter_base&#45;&gt;hidebound.exporters.s3_exporter</title>
<path fill="none" stroke="#b6ecf3" d="M810.1779,-254.4839C829.5278,-254.4839 849.385,-254.4839 868.7614,-254.4839"/>
<polygon fill="#b6ecf3" stroke="#b6ecf3" points="868.8451,-257.984 878.845,-254.4839 868.845,-250.984 868.8451,-257.984"/>
</g>
<!-- hidebound.exporters.girder_exporter&#45;&gt;hidebound.core.config -->
<g id="edge27" class="edge">
<title>hidebound.exporters.girder_exporter&#45;&gt;hidebound.core.config</title>
<path fill="none" stroke="#b6ecf3" d="M1120.9044,-326.518C1141.9119,-330.6622 1163.7317,-335.3714 1184,-340.4839 1218.3658,-349.1525 1256.1077,-360.9568 1286.7129,-371.1277"/>
<polygon fill="#b6ecf3" stroke="#b6ecf3" points="1285.7916,-374.5102 1296.3855,-374.3665 1288.0143,-367.8724 1285.7916,-374.5102"/>
</g>
<!-- hidebound.exporters.girder_exporter&#45;&gt;hidebound.core.database -->
<g id="edge28" class="edge">
<title>hidebound.exporters.girder_exporter&#45;&gt;hidebound.core.database</title>
<path fill="none" stroke="#b6ecf3" d="M1167.5659,-307.827C1284.7486,-310.7733 1433.5046,-323.1562 1476,-365.4839 1565.5197,-454.6505 1439.2099,-544.2074 1512,-647.4839 1525.4454,-666.5607 1546.1812,-680.3784 1567.0749,-690.232"/>
<polygon fill="#b6ecf3" stroke="#b6ecf3" points="1565.7783,-693.4858 1576.3378,-694.3502 1568.6221,-687.0895 1565.7783,-693.4858"/>
</g>
<!-- hidebound.exporters.local_disk_exporter&#45;&gt;hidebound.core.config -->
<g id="edge29" class="edge">
<title>hidebound.exporters.local_disk_exporter&#45;&gt;hidebound.core.config</title>
<path fill="none" stroke="#b6ecf3" d="M1145.6547,-420.4355C1177.9625,-415.9726 1212.1607,-411.2485 1243.0652,-406.9794"/>
<polygon fill="#b6ecf3" stroke="#b6ecf3" points="1243.5499,-410.4458 1252.9768,-405.6102 1242.5919,-403.5116 1243.5499,-410.4458"/>
</g>
<!-- hidebound.exporters.local_disk_exporter&#45;&gt;hidebound.core.database -->
<g id="edge30" class="edge">
<title>hidebound.exporters.local_disk_exporter&#45;&gt;hidebound.core.database</title>
<path fill="none" stroke="#b6ecf3" d="M1184.0712,-437.6455C1280.3215,-445.8532 1397.0626,-471.672 1476,-542.4839 1512.7227,-575.4266 1479.6336,-610.2523 1512,-647.4839 1528.3107,-666.2464 1551.3443,-680.256 1573.3852,-690.368"/>
<polygon fill="#b6ecf3" stroke="#b6ecf3" points="1572.1836,-693.6627 1582.748,-694.4656 1574.9902,-687.2499 1572.1836,-693.6627"/>
</g>
<!-- hidebound.exporters.s3_exporter&#45;&gt;hidebound.core.config -->
<g id="edge31" class="edge">
<title>hidebound.exporters.s3_exporter&#45;&gt;hidebound.core.config</title>
<path fill="none" stroke="#b6ecf3" d="M1151.0941,-270.84C1162.3952,-273.8151 1173.501,-277.3304 1184,-281.4839 1236.2383,-302.1498 1288.6046,-341.6555 1319.6538,-367.5319"/>
<polygon fill="#b6ecf3" stroke="#b6ecf3" points="1317.5539,-370.3397 1327.4517,-374.1193 1322.0712,-364.9923 1317.5539,-370.3397"/>
</g>
<!-- hidebound.exporters.s3_exporter&#45;&gt;hidebound.core.database -->
<g id="edge32" class="edge">
<title>hidebound.exporters.s3_exporter&#45;&gt;hidebound.core.database</title>
<path fill="none" stroke="#b6ecf3" d="M1096.2024,-236.461C1199.7729,-218.7513 1377.258,-207.0343 1476,-306.4839 1529.688,-360.5567 1468.7832,-584.7258 1512,-647.4839 1525.1752,-666.6166 1545.7244,-680.4338 1566.5314,-690.2698"/>
<polygon fill="#b6ecf3" stroke="#b6ecf3" points="1565.2034,-693.5097 1575.7625,-694.3792 1568.0503,-687.1147 1565.2034,-693.5097"/>
</g>
<!-- hidebound.server.api&#45;&gt;hidebound.server.app -->
<g id="edge33" class="edge">
<title>hidebound.server.api&#45;&gt;hidebound.server.app</title>
<path fill="none" stroke="#b6ecf3" d="M1978.7875,-967.4915C1999.2919,-974.7785 2022.5278,-983.7679 2043,-993.4839 2074.7287,-1008.5423 2108.9138,-1028.9935 2133.8157,-1044.7366"/>
<polygon fill="#b6ecf3" stroke="#b6ecf3" points="2132.2348,-1047.8795 2142.5483,-1050.3049 2135.9984,-1041.9773 2132.2348,-1047.8795"/>
</g>
<!-- hidebound.server.components -->
<g id="node17" class="node">
<title>hidebound.server.components</title>
<polygon fill="#343434" stroke="#343434" points="2043,-1327.4839 1804,-1327.4839 1804,-1291.4839 2043,-1291.4839 2043,-1327.4839"/>
<text text-anchor="middle" x="1923.5" y="-1305.7839" font-family="Courier,monospace" font-size="14.00" fill="#b6ecf3">hidebound.server.components</text>
</g>
<!-- hidebound.server.components&#45;&gt;hidebound.server.app -->
<g id="edge34" class="edge">
<title>hidebound.server.components&#45;&gt;hidebound.server.app</title>
<path fill="none" stroke="#b6ecf3" d="M1945.6663,-1291.1417C1970.1051,-1270.6613 2010.2937,-1236.2142 2043,-1204.4839 2080.9861,-1167.6314 2122.3652,-1122.2491 2147.2377,-1094.347"/>
<polygon fill="#b6ecf3" stroke="#b6ecf3" points="2150.077,-1096.4209 2154.1017,-1086.6202 2144.8437,-1091.7719 2150.077,-1096.4209"/>
</g>
<!-- hidebound.server.server_tools -->
<g id="node18" class="node">
<title>hidebound.server.server_tools</title>
<polygon fill="#343434" stroke="#343434" points="1768,-1002.4839 1512,-1002.4839 1512,-966.4839 1768,-966.4839 1768,-1002.4839"/>
<text text-anchor="middle" x="1640" y="-980.7839" font-family="Courier,monospace" font-size="14.00" fill="#b6ecf3">hidebound.server.server_tools</text>
</g>
<!-- hidebound.server.server_tools&#45;&gt;hidebound.server.api -->
<g id="edge35" class="edge">
<title>hidebound.server.server_tools&#45;&gt;hidebound.server.api</title>
<path fill="none" stroke="#b6ecf3" d="M1768.0646,-968.6735C1786.2188,-966.4322 1804.6753,-964.1536 1822.2278,-961.9867"/>
<polygon fill="#b6ecf3" stroke="#b6ecf3" points="1822.9532,-965.4238 1832.449,-960.7248 1822.0955,-958.4765 1822.9532,-965.4238"/>
</g>
<!-- hidebound.server.server_tools&#45;&gt;hidebound.server.app -->
<g id="edge36" class="edge">
<title>hidebound.server.server_tools&#45;&gt;hidebound.server.app</title>
<path fill="none" stroke="#b6ecf3" d="M1753.6983,-1002.504C1847.367,-1017.3496 1978.9635,-1038.2064 2068.9757,-1052.4725"/>
<polygon fill="#b6ecf3" stroke="#b6ecf3" points="2068.4946,-1055.9399 2078.9192,-1054.0485 2069.5904,-1049.0262 2068.4946,-1055.9399"/>
</g>
<!-- dash -->
<g id="node19" class="node">
<title>dash</title>
<polygon fill="#343434" stroke="#343434" points="1667,-1554.4839 1613,-1554.4839 1613,-1518.4839 1667,-1518.4839 1667,-1554.4839"/>
<text text-anchor="middle" x="1640" y="-1532.7839" font-family="Courier,monospace" font-size="14.00" fill="#de958e">dash</text>
</g>
<!-- dash&#45;&gt;hidebound.server.app -->
<g id="edge37" class="edge">
<title>dash&#45;&gt;hidebound.server.app</title>
<path fill="none" stroke="#de958e" d="M1667.0586,-1535.9778C1738.7383,-1533.1509 1935.3845,-1515.5089 2043,-1408.4839 2132.5377,-1319.4375 2159.7184,-1161.4453 2167.3012,-1097.0246"/>
<polygon fill="#de958e" stroke="#de958e" points="2170.8097,-1097.1389 2168.4287,-1086.8151 2163.852,-1096.3704 2170.8097,-1097.1389"/>
</g>
<!-- dash&#45;&gt;hidebound.server.components -->
<g id="edge38" class="edge">
<title>dash&#45;&gt;hidebound.server.components</title>
<path fill="none" stroke="#de958e" d="M1667.2463,-1536.0847C1694.6291,-1534.5179 1737.0951,-1528.8127 1768,-1509.4839 1837.1623,-1466.2278 1887.7306,-1380.6692 1910.3442,-1336.81"/>
<polygon fill="#de958e" stroke="#de958e" points="1913.6064,-1338.1146 1914.9913,-1327.6106 1907.3583,-1334.9583 1913.6064,-1338.1146"/>
</g>
<!-- dash_core_components -->
<g id="node20" class="node">
<title>dash_core_components</title>
<polygon fill="#343434" stroke="#343434" points="1731,-1500.4839 1549,-1500.4839 1549,-1464.4839 1731,-1464.4839 1731,-1500.4839"/>
<text text-anchor="middle" x="1640" y="-1478.7839" font-family="Courier,monospace" font-size="14.00" fill="#de958e">dash_core_components</text>
</g>
<!-- dash_core_components&#45;&gt;hidebound.server.app -->
<g id="edge39" class="edge">
<title>dash_core_components&#45;&gt;hidebound.server.app</title>
<path fill="none" stroke="#de958e" d="M1731.3925,-1471.1954C1821.3662,-1455.5717 1957.3841,-1419.2259 2043,-1336.4839 2114.5013,-1267.3827 2150.3993,-1150.0189 2163.7197,-1096.5368"/>
<polygon fill="#de958e" stroke="#de958e" points="2167.1438,-1097.2673 2166.0866,-1086.7254 2160.339,-1095.6257 2167.1438,-1097.2673"/>
</g>
<!-- dash_core_components&#45;&gt;hidebound.server.components -->
<g id="edge40" class="edge">
<title>dash_core_components&#45;&gt;hidebound.server.components</title>
<path fill="none" stroke="#de958e" d="M1731.1245,-1472.0172C1744.1385,-1468.0825 1756.8673,-1462.7353 1768,-1455.4839 1790.9448,-1440.5386 1785.1547,-1425.3506 1804,-1405.4839 1829.9982,-1378.0767 1863.9075,-1351.5467 1888.9605,-1333.3481"/>
<polygon fill="#de958e" stroke="#de958e" points="1891.013,-1336.1832 1897.093,-1327.5066 1886.9292,-1330.4979 1891.013,-1336.1832"/>
</g>
<!-- dash_cytoscape -->
<g id="node21" class="node">
<title>dash_cytoscape</title>
<polygon fill="#343434" stroke="#343434" points="1706,-1392.4839 1574,-1392.4839 1574,-1356.4839 1706,-1356.4839 1706,-1392.4839"/>
<text text-anchor="middle" x="1640" y="-1370.7839" font-family="Courier,monospace" font-size="14.00" fill="#de958e">dash_cytoscape</text>
</g>
<!-- dash_cytoscape&#45;&gt;hidebound.server.components -->
<g id="edge41" class="edge">
<title>dash_cytoscape&#45;&gt;hidebound.server.components</title>
<path fill="none" stroke="#de958e" d="M1706.1104,-1359.3263C1744.5089,-1350.5224 1793.3803,-1339.3174 1835.0559,-1329.7621"/>
<polygon fill="#de958e" stroke="#de958e" points="1835.9664,-1333.1443 1844.9313,-1327.4979 1834.402,-1326.3213 1835.9664,-1333.1443"/>
</g>
<!-- hidebound.server -->
<g id="node22" class="node">
<title>hidebound.server</title>
<polygon fill="#343434" stroke="#343434" points="1422.5,-1350.4839 1273.5,-1350.4839 1273.5,-1314.4839 1422.5,-1314.4839 1422.5,-1350.4839"/>
<text text-anchor="middle" x="1348" y="-1328.7839" font-family="Courier,monospace" font-size="14.00" fill="#a0d17b">hidebound.server</text>
</g>
<!-- hidebound.server&#45;&gt;hidebound.server.api -->
<g id="edge42" class="edge">
<title>hidebound.server&#45;&gt;hidebound.server.api</title>
<path fill="none" stroke="#a0d17b" d="M1407.7163,-1314.4781C1432.1238,-1304.3144 1458.643,-1289.1863 1476,-1267.4839 1516.6655,-1216.6378 1467.1515,-1172.6816 1512,-1125.4839 1594.0212,-1039.1665 1659.6945,-1095.9621 1768,-1046.4839 1812.6482,-1026.0869 1859.9548,-995.0473 1890.5017,-973.5994"/>
<polygon fill="#a0d17b" stroke="#a0d17b" points="1892.9048,-976.186 1899.0391,-967.5477 1888.8568,-970.4752 1892.9048,-976.186"/>
</g>
<!-- hidebound.server&#45;&gt;hidebound.server.app -->
<g id="edge43" class="edge">
<title>hidebound.server&#45;&gt;hidebound.server.app</title>
<path fill="none" stroke="#a0d17b" d="M1354.144,-1350.4905C1370.891,-1396.3341 1422.1966,-1517.1062 1512,-1563.4839 1724.4841,-1673.2183 1874.29,-1645.9774 2043,-1476.4839 2098.2769,-1420.9503 2148.802,-1179.2627 2164.78,-1096.4466"/>
<polygon fill="#a0d17b" stroke="#a0d17b" points="2168.2413,-1096.9803 2166.6794,-1086.5012 2161.3655,-1095.667 2168.2413,-1096.9803"/>
</g>
<!-- hidebound.server&#45;&gt;hidebound.server.components -->
<g id="edge44" class="edge">
<title>hidebound.server&#45;&gt;hidebound.server.components</title>
<path fill="none" stroke="#a0d17b" d="M1422.6466,-1329.5007C1516.5275,-1325.7487 1679.2603,-1319.245 1793.6992,-1314.6714"/>
<polygon fill="#a0d17b" stroke="#a0d17b" points="1794.0735,-1318.1594 1803.9257,-1314.2627 1793.7939,-1311.165 1794.0735,-1318.1594"/>
</g>
<!-- hidebound.server&#45;&gt;hidebound.server.server_tools -->
<g id="edge45" class="edge">
<title>hidebound.server&#45;&gt;hidebound.server.server_tools</title>
<path fill="none" stroke="#a0d17b" d="M1409.181,-1314.4391C1433.3951,-1304.3433 1459.367,-1289.2775 1476,-1267.4839 1524.1758,-1204.3612 1471.4189,-1160.7375 1512,-1092.4839 1533.2766,-1056.6987 1570.7963,-1027.1574 1599.7325,-1008.0704"/>
<polygon fill="#a0d17b" stroke="#a0d17b" points="1601.894,-1010.8417 1608.4096,-1002.4872 1598.1062,-1004.955 1601.894,-1010.8417"/>
</g>
<!-- dash_html_components -->
<g id="node23" class="node">
<title>dash_html_components</title>
<polygon fill="#343434" stroke="#343434" points="1731,-1224.4839 1549,-1224.4839 1549,-1188.4839 1731,-1188.4839 1731,-1224.4839"/>
<text text-anchor="middle" x="1640" y="-1202.7839" font-family="Courier,monospace" font-size="14.00" fill="#de958e">dash_html_components</text>
</g>
<!-- dash_html_components&#45;&gt;hidebound.server.app -->
<g id="edge46" class="edge">
<title>dash_html_components&#45;&gt;hidebound.server.app</title>
<path fill="none" stroke="#de958e" d="M1731.2246,-1191.8405C1813.6944,-1177.4692 1937.9185,-1152.9876 2043,-1120.4839 2069.5066,-1112.2849 2098.1783,-1100.7848 2121.5601,-1090.6835"/>
<polygon fill="#de958e" stroke="#de958e" points="2123.1421,-1093.8118 2130.9038,-1086.6002 2120.339,-1087.3975 2123.1421,-1093.8118"/>
</g>
<!-- dash_html_components&#45;&gt;hidebound.server.components -->
<g id="edge47" class="edge">
<title>dash_html_components&#45;&gt;hidebound.server.components</title>
<path fill="none" stroke="#de958e" d="M1721.5768,-1224.4954C1737.1412,-1228.6004 1753.1901,-1233.3009 1768,-1238.4839 1806.7129,-1252.0324 1848.9466,-1271.6449 1879.617,-1286.8255"/>
<polygon fill="#de958e" stroke="#de958e" points="1878.237,-1290.0485 1888.7475,-1291.3828 1881.3632,-1283.7853 1878.237,-1290.0485"/>
</g>
<!-- dash_table -->
<g id="node24" class="node">
<title>dash_table</title>
<polygon fill="#343434" stroke="#343434" points="1689.5,-1170.4839 1590.5,-1170.4839 1590.5,-1134.4839 1689.5,-1134.4839 1689.5,-1170.4839"/>
<text text-anchor="middle" x="1640" y="-1148.7839" font-family="Courier,monospace" font-size="14.00" fill="#de958e">dash_table</text>
</g>
<!-- dash_table&#45;&gt;hidebound.server.app -->
<g id="edge48" class="edge">
<title>dash_table&#45;&gt;hidebound.server.app</title>
<path fill="none" stroke="#de958e" d="M1689.8611,-1144.5814C1776.2839,-1130.8842 1955.5004,-1102.4801 2068.8629,-1084.5132"/>
<polygon fill="#de958e" stroke="#de958e" points="2069.6139,-1087.9379 2078.9427,-1082.9156 2068.5181,-1081.0242 2069.6139,-1087.9379"/>
</g>
<!-- dash_table&#45;&gt;hidebound.server.components -->
<g id="edge49" class="edge">
<title>dash_table&#45;&gt;hidebound.server.components</title>
<path fill="none" stroke="#de958e" d="M1689.5432,-1157.2142C1714.0745,-1160.957 1743.5868,-1167.6276 1768,-1179.4839 1821.4633,-1205.4485 1872.0702,-1253.7427 1900.3161,-1283.5978"/>
<polygon fill="#de958e" stroke="#de958e" points="1897.9597,-1286.203 1907.3389,-1291.1307 1903.0798,-1281.4296 1897.9597,-1286.203"/>
</g>
<!-- flask -->
<g id="node25" class="node">
<title>flask</title>
<polygon fill="#343434" stroke="#343434" points="1377,-1258.4839 1319,-1258.4839 1319,-1222.4839 1377,-1222.4839 1377,-1258.4839"/>
<text text-anchor="middle" x="1348" y="-1236.7839" font-family="Courier,monospace" font-size="14.00" fill="#de958e">flask</text>
</g>
<!-- flask&#45;&gt;hidebound.server.api -->
<g id="edge50" class="edge">
<title>flask&#45;&gt;hidebound.server.api</title>
<path fill="none" stroke="#de958e" d="M1377.1079,-1241.39C1406.1678,-1240.6428 1450.1234,-1234.7604 1476,-1208.4839 1525.3197,-1158.4019 1460.7515,-1102.5904 1512,-1054.4839 1596.1179,-975.5232 1656.8981,-1042.5802 1768,-1011.4839 1804.9979,-1001.1286 1845.2497,-984.9356 1875.5294,-971.6952"/>
<polygon fill="#de958e" stroke="#de958e" points="1877.2625,-974.7558 1884.9933,-967.5112 1874.432,-968.3536 1877.2625,-974.7558"/>
</g>
<!-- flask&#45;&gt;hidebound.server.app -->
<g id="edge51" class="edge">
<title>flask&#45;&gt;hidebound.server.app</title>
<path fill="none" stroke="#de958e" d="M1377.2397,-1240.3276C1405.5715,-1238.6775 1448.2206,-1232.0376 1476,-1208.4839 1506.6691,-1182.4801 1480.0028,-1149.8349 1512,-1125.4839 1596.9616,-1060.8254 1906.5115,-1060.0749 2068.9386,-1064.469"/>
<polygon fill="#de958e" stroke="#de958e" points="2068.8493,-1067.9678 2078.9441,-1064.7512 2069.0468,-1060.9706 2068.8493,-1067.9678"/>
</g>
<!-- flask&#45;&gt;hidebound.server.components -->
<g id="edge52" class="edge">
<title>flask&#45;&gt;hidebound.server.components</title>
<path fill="none" stroke="#de958e" d="M1377.168,-1241.7411C1445.6846,-1244.9645 1622.1313,-1254.8391 1768,-1276.4839 1790.8287,-1279.8714 1815.3358,-1284.5671 1837.9889,-1289.3548"/>
<polygon fill="#de958e" stroke="#de958e" points="1837.4008,-1292.8082 1847.9124,-1291.4824 1838.8683,-1285.9638 1837.4008,-1292.8082"/>
</g>
<!-- flask&#45;&gt;hidebound.server.server_tools -->
<g id="edge53" class="edge">
<title>flask&#45;&gt;hidebound.server.server_tools</title>
<path fill="none" stroke="#de958e" d="M1377.0788,-1241.6292C1406.3302,-1241.0987 1450.6331,-1235.4104 1476,-1208.4839 1535.5339,-1145.2898 1452.4661,-1079.678 1512,-1016.4839 1514.8346,-1013.475 1517.9057,-1010.7313 1521.1658,-1008.2304"/>
<polygon fill="#de958e" stroke="#de958e" points="1523.3118,-1011.0043 1529.6319,-1002.501 1519.3885,-1005.2071 1523.3118,-1011.0043"/>
</g>
<!-- rolling_pin.blob_etl -->
<g id="node26" class="node">
<title>rolling_pin.blob_etl</title>
<polygon fill="#343434" stroke="#343434" points="1731,-1446.4839 1549,-1446.4839 1549,-1410.4839 1731,-1410.4839 1731,-1446.4839"/>
<text text-anchor="middle" x="1640" y="-1424.7839" font-family="Courier,monospace" font-size="14.00" fill="#de958e">rolling_pin.blob_etl</text>
</g>
<!-- rolling_pin.blob_etl&#45;&gt;hidebound.server.components -->
<g id="edge54" class="edge">
<title>rolling_pin.blob_etl&#45;&gt;hidebound.server.components</title>
<path fill="none" stroke="#de958e" d="M1731.285,-1413.064C1743.8118,-1409.8429 1756.359,-1406.0134 1768,-1401.4839 1812.8316,-1384.0402 1859.7551,-1354.4793 1890.1748,-1333.5794"/>
<polygon fill="#de958e" stroke="#de958e" points="1892.4707,-1336.2459 1898.6829,-1327.6634 1888.4745,-1330.4988 1892.4707,-1336.2459"/>
</g>
<!-- dash.dependencies -->
<g id="node27" class="node">
<title>dash.dependencies</title>
<polygon fill="#343434" stroke="#343434" points="2002,-738.4839 1845,-738.4839 1845,-702.4839 2002,-702.4839 2002,-738.4839"/>
<text text-anchor="middle" x="1923.5" y="-716.7839" font-family="Courier,monospace" font-size="14.00" fill="#de958e">dash.dependencies</text>
</g>
<!-- dash.dependencies&#45;&gt;hidebound.server.app -->
<g id="edge55" class="edge">
<title>dash.dependencies&#45;&gt;hidebound.server.app</title>
<path fill="none" stroke="#de958e" d="M2002.0231,-730.4187C2016.911,-735.2092 2031.4269,-742.2276 2043,-752.4839 2131.079,-830.5412 2158.9682,-978.2549 2167.0178,-1040.1143"/>
<polygon fill="#de958e" stroke="#de958e" points="2163.5746,-1040.7929 2168.2619,-1050.2944 2170.5229,-1039.9437 2163.5746,-1040.7929"/>
</g>
<!-- jinja2 -->
<g id="node28" class="node">
<title>jinja2</title>
<polygon fill="#343434" stroke="#343434" points="1381,-1166.4839 1315,-1166.4839 1315,-1130.4839 1381,-1130.4839 1381,-1166.4839"/>
<text text-anchor="middle" x="1348" y="-1144.7839" font-family="Courier,monospace" font-size="14.00" fill="#de958e">jinja2</text>
</g>
<!-- jinja2&#45;&gt;hidebound.server.server_tools -->
<g id="edge56" class="edge">
<title>jinja2&#45;&gt;hidebound.server.server_tools</title>
<path fill="none" stroke="#de958e" d="M1381.1435,-1148.5098C1409.6262,-1146.783 1450.089,-1139.9116 1476,-1116.4839 1511.0382,-1084.8037 1476.9618,-1048.1641 1512,-1016.4839 1515.6318,-1013.2002 1519.5495,-1010.2418 1523.6799,-1007.5771"/>
<polygon fill="#de958e" stroke="#de958e" points="1525.5324,-1010.549 1532.4338,-1002.5103 1522.0257,-1004.4906 1525.5324,-1010.549"/>
</g>
<!-- hidebound.exporters -->
<g id="node29" class="node">
<title>hidebound.exporters</title>
<polygon fill="#343434" stroke="#343434" points="476.5,-272.4839 303.5,-272.4839 303.5,-236.4839 476.5,-236.4839 476.5,-272.4839"/>
<text text-anchor="middle" x="390" y="-250.7839" font-family="Courier,monospace" font-size="14.00" fill="#a0d17b">hidebound.exporters</text>
</g>
<!-- hidebound.exporters&#45;&gt;hidebound.exporters.exporter_base -->
<g id="edge57" class="edge">
<title>hidebound.exporters&#45;&gt;hidebound.exporters.exporter_base</title>
<path fill="none" stroke="#a0d17b" d="M476.7918,-254.4839C487.7098,-254.4839 499.125,-254.4839 510.7034,-254.4839"/>
<polygon fill="#a0d17b" stroke="#a0d17b" points="510.912,-257.984 520.912,-254.4839 510.912,-250.984 510.912,-257.984"/>
</g>
<!-- hidebound.exporters&#45;&gt;hidebound.exporters.girder_exporter -->
<g id="edge58" class="edge">
<title>hidebound.exporters&#45;&gt;hidebound.exporters.girder_exporter</title>
<path fill="none" stroke="#a0d17b" d="M464.4112,-236.4186C482.7956,-232.7121 502.519,-229.3687 521,-227.4839 648.7817,-214.4525 696.7538,-166.8764 810,-227.4839 835.4314,-241.0944 821.7253,-265.9038 846,-281.4839 848.4614,-283.0637 850.9835,-284.562 853.5578,-285.9826"/>
<polygon fill="#a0d17b" stroke="#a0d17b" points="851.9983,-289.1161 862.4998,-290.5193 855.1654,-282.8735 851.9983,-289.1161"/>
</g>
<!-- hidebound.exporters&#45;&gt;hidebound.exporters.local_disk_exporter -->
<g id="edge59" class="edge">
<title>hidebound.exporters&#45;&gt;hidebound.exporters.local_disk_exporter</title>
<path fill="none" stroke="#a0d17b" d="M396.0154,-272.6399C410.2973,-312.3955 450.4394,-406.5382 521,-443.4839 575.0431,-471.781 721.5569,-467.0867 841.0888,-457.3283"/>
<polygon fill="#a0d17b" stroke="#a0d17b" points="841.4283,-460.8122 851.1032,-456.4939 840.8471,-453.8364 841.4283,-460.8122"/>
</g>
<!-- hidebound.exporters&#45;&gt;hidebound.exporters.s3_exporter -->
<g id="edge60" class="edge">
<title>hidebound.exporters&#45;&gt;hidebound.exporters.s3_exporter</title>
<path fill="none" stroke="#a0d17b" d="M402.7437,-236.375C423.6614,-208.4213 468.2644,-155.8604 521,-135.4839 640.8117,-89.1901 685.9713,-102.0943 810,-135.4839 878.1603,-153.8333 947.0143,-201.0171 985.0326,-230.1579"/>
<polygon fill="#a0d17b" stroke="#a0d17b" points="983.0721,-233.067 993.1158,-236.4397 987.3676,-227.5398 983.0721,-233.067"/>
</g>
<!-- jsoncomment -->
<g id="node30" class="node">
<title>jsoncomment</title>
<polygon fill="#343434" stroke="#343434" points="443.5,-1204.4839 336.5,-1204.4839 336.5,-1168.4839 443.5,-1168.4839 443.5,-1204.4839"/>
<text text-anchor="middle" x="390" y="-1182.7839" font-family="Courier,monospace" font-size="14.00" fill="#de958e">jsoncomment</text>
</g>
<!-- jsoncomment&#45;&gt;hidebound.core.database -->
<g id="edge61" class="edge">
<title>jsoncomment&#45;&gt;hidebound.core.database</title>
<path fill="none" stroke="#de958e" d="M443.6563,-1185.7579C598.6131,-1183.1902 1044.609,-1172.3541 1184,-1131.4839 1326.0051,-1089.8473 1368.1055,-1072.7649 1476,-971.4839 1550.3943,-901.6497 1605.3405,-791.1524 1628.2438,-740.064"/>
<polygon fill="#de958e" stroke="#de958e" points="1631.5551,-741.2297 1632.3935,-730.6681 1625.1518,-738.4017 1631.5551,-741.2297"/>
</g>
<!-- jsoncomment&#45;&gt;hidebound.exporters.exporter_base -->
<g id="edge62" class="edge">
<title>jsoncomment&#45;&gt;hidebound.exporters.exporter_base</title>
<path fill="none" stroke="#de958e" d="M401.1178,-1168.3197C422.0358,-1133.0579 466.7781,-1052.2191 485,-977.4839 503.3432,-902.2511 470.0048,-339.7586 521,-281.4839 521.625,-280.7697 522.2623,-280.0706 522.9115,-279.3862"/>
<polygon fill="#de958e" stroke="#de958e" points="525.2982,-281.9464 530.2978,-272.6053 520.5643,-276.7898 525.2982,-281.9464"/>
</g>
<!-- jsoncomment&#45;&gt;hidebound.server.server_tools -->
<g id="edge63" class="edge">
<title>jsoncomment&#45;&gt;hidebound.server.server_tools</title>
<path fill="none" stroke="#de958e" d="M443.6534,-1189.8211C651.5154,-1202.232 1396.192,-1241.7035 1476,-1175.4839 1532.2414,-1128.8184 1463.534,-1066.2259 1510.5407,-1010.1302"/>
<polygon fill="#de958e" stroke="#de958e" points="1513.3021,-1012.3024 1517.5938,-1002.6157 1508.1981,-1007.5118 1513.3021,-1012.3024"/>
</g>
<!-- dash.exceptions -->
<g id="node31" class="node">
<title>dash.exceptions</title>
<polygon fill="#343434" stroke="#343434" points="1993.5,-684.4839 1853.5,-684.4839 1853.5,-648.4839 1993.5,-648.4839 1993.5,-684.4839"/>
<text text-anchor="middle" x="1923.5" y="-662.7839" font-family="Courier,monospace" font-size="14.00" fill="#de958e">dash.exceptions</text>
</g>
<!-- dash.exceptions&#45;&gt;hidebound.server.app -->
<g id="edge64" class="edge">
<title>dash.exceptions&#45;&gt;hidebound.server.app</title>
<path fill="none" stroke="#de958e" d="M1993.6227,-670.1943C2011.4633,-674.1777 2029.4089,-681.2417 2043,-693.4839 2096.4118,-741.5949 2147.3238,-961.4213 2164.1656,-1040.2499"/>
<polygon fill="#de958e" stroke="#de958e" points="2160.8197,-1041.345 2166.3127,-1050.4047 2167.6683,-1039.8969 2160.8197,-1041.345"/>
</g>
<!-- requests -->
<g id="node32" class="node">
<title>requests</title>
<polygon fill="#343434" stroke="#343434" points="1389.5,-630.4839 1306.5,-630.4839 1306.5,-594.4839 1389.5,-594.4839 1389.5,-630.4839"/>
<text text-anchor="middle" x="1348" y="-608.7839" font-family="Courier,monospace" font-size="14.00" fill="#de958e">requests</text>
</g>
<!-- requests&#45;&gt;hidebound.core.database -->
<g id="edge65" class="edge">
<title>requests&#45;&gt;hidebound.core.database</title>
<path fill="none" stroke="#de958e" d="M1389.6031,-614.5698C1415.889,-617.4459 1449.7278,-624.1235 1476,-639.4839 1496.9343,-651.7234 1491.2963,-667.8583 1512,-680.4839 1518.252,-684.2965 1524.9386,-687.6559 1531.8538,-690.6159"/>
<polygon fill="#de958e" stroke="#de958e" points="1530.8202,-693.9713 1541.406,-694.4096 1533.404,-687.4656 1530.8202,-693.9713"/>
</g>
<!-- pandasql -->
<g id="node33" class="node">
<title>pandasql</title>
<polygon fill="#343434" stroke="#343434" points="1389.5,-830.4839 1306.5,-830.4839 1306.5,-794.4839 1389.5,-794.4839 1389.5,-830.4839"/>
<text text-anchor="middle" x="1348" y="-808.7839" font-family="Courier,monospace" font-size="14.00" fill="#de958e">pandasql</text>
</g>
<!-- pandasql&#45;&gt;hidebound.core.database -->
<g id="edge66" class="edge">
<title>pandasql&#45;&gt;hidebound.core.database</title>
<path fill="none" stroke="#de958e" d="M1389.5065,-806.0178C1414.8427,-801.5097 1447.6969,-794.6545 1476,-785.4839 1517.9606,-771.8881 1563.6508,-751.0133 1596.1218,-735.0633"/>
<polygon fill="#de958e" stroke="#de958e" points="1597.9302,-738.0733 1605.3349,-730.4956 1594.8209,-731.8018 1597.9302,-738.0733"/>
</g>
<!-- lunchbox.tools -->
<g id="node34" class="node">
<title>lunchbox.tools</title>
<polygon fill="#343434" stroke="#343434" points="1081,-1090.4839 949,-1090.4839 949,-1054.4839 1081,-1054.4839 1081,-1090.4839"/>
<text text-anchor="middle" x="1015" y="-1068.7839" font-family="Courier,monospace" font-size="14.00" fill="#de958e">lunchbox.tools</text>
</g>
<!-- lunchbox.tools&#45;&gt;hidebound.core.database_tools -->
<g id="edge67" class="edge">
<title>lunchbox.tools&#45;&gt;hidebound.core.database_tools</title>
<path fill="none" stroke="#de958e" d="M1081.3811,-1061.1316C1117.1263,-1051.54 1158.9147,-1034.0656 1184,-1002.4839 1244.8053,-925.9317 1152.3908,-856.0992 1220,-785.4839 1220.7853,-784.6637 1221.5888,-783.8652 1222.4094,-783.0879"/>
<polygon fill="#de958e" stroke="#de958e" points="1224.7338,-785.7078 1230.2305,-776.6504 1220.2853,-780.3032 1224.7338,-785.7078"/>
</g>
<!-- lunchbox.tools&#45;&gt;hidebound.server.server_tools -->
<g id="edge68" class="edge">
<title>lunchbox.tools&#45;&gt;hidebound.server.server_tools</title>
<path fill="none" stroke="#de958e" d="M1081.2107,-1078.3169C1172.6711,-1084.0694 1341.5979,-1086.3178 1476,-1040.4839 1494.2004,-1034.2772 1494.4142,-1024.2633 1512,-1016.4839 1521.2867,-1012.3758 1531.1955,-1008.7308 1541.2325,-1005.5119"/>
<polygon fill="#de958e" stroke="#de958e" points="1542.3436,-1008.8321 1550.8787,-1002.5549 1540.2921,-1002.1394 1542.3436,-1008.8321"/>
</g>
<!-- flasgger -->
<g id="node35" class="node">
<title>flasgger</title>
<polygon fill="#343434" stroke="#343434" points="1681.5,-638.4839 1598.5,-638.4839 1598.5,-602.4839 1681.5,-602.4839 1681.5,-638.4839"/>
<text text-anchor="middle" x="1640" y="-616.7839" font-family="Courier,monospace" font-size="14.00" fill="#de958e">flasgger</text>
</g>
<!-- flasgger&#45;&gt;hidebound.server.api -->
<g id="edge69" class="edge">
<title>flasgger&#45;&gt;hidebound.server.api</title>
<path fill="none" stroke="#de958e" d="M1681.7596,-620.5504C1709.6436,-622.8276 1745.242,-630.3807 1768,-652.4839 1810.3926,-693.6569 1778.5712,-727.1386 1804,-780.4839 1830.1169,-835.2727 1873.7916,-891.3329 1900.4858,-923.1359"/>
<polygon fill="#de958e" stroke="#de958e" points="1898.0724,-925.7014 1907.2107,-931.0625 1903.4102,-921.1728 1898.0724,-925.7014"/>
</g>
<!-- flasgger&#45;&gt;hidebound.server.app -->
<g id="edge70" class="edge">
<title>flasgger&#45;&gt;hidebound.server.app</title>
<path fill="none" stroke="#de958e" d="M1681.5711,-608.2932C1761.1355,-587.7081 1936.4882,-555.9552 2043,-639.4839 2108.0545,-690.5011 2152.7325,-953.3015 2165.94,-1040.4022"/>
<polygon fill="#de958e" stroke="#de958e" points="2162.4879,-1040.983 2167.4276,-1050.3558 2169.411,-1039.9482 2162.4879,-1040.983"/>
</g>
<!-- boto3 -->
<g id="node36" class="node">
<title>boto3</title>
<polygon fill="#343434" stroke="#343434" points="694.5,-180.4839 636.5,-180.4839 636.5,-144.4839 694.5,-144.4839 694.5,-180.4839"/>
<text text-anchor="middle" x="665.5" y="-158.7839" font-family="Courier,monospace" font-size="14.00" fill="#de958e">boto3</text>
</g>
<!-- boto3&#45;&gt;hidebound.exporters.s3_exporter -->
<g id="edge71" class="edge">
<title>boto3&#45;&gt;hidebound.exporters.s3_exporter</title>
<path fill="none" stroke="#de958e" d="M694.6967,-168.3521C723.9804,-174.3779 770.3047,-184.2917 810,-194.4839 856.1234,-206.3267 907.5554,-221.3853 947.3652,-233.4538"/>
<polygon fill="#de958e" stroke="#de958e" points="946.3801,-236.8124 956.9659,-236.3745 948.4175,-230.1155 946.3801,-236.8124"/>
</g>
<!-- girder_client -->
<g id="node37" class="node">
<title>girder_client</title>
<polygon fill="#343434" stroke="#343434" points="727.5,-326.4839 603.5,-326.4839 603.5,-290.4839 727.5,-290.4839 727.5,-326.4839"/>
<text text-anchor="middle" x="665.5" y="-304.7839" font-family="Courier,monospace" font-size="14.00" fill="#de958e">girder_client</text>
</g>
<!-- girder_client&#45;&gt;hidebound.exporters.girder_exporter -->
<g id="edge72" class="edge">
<title>girder_client&#45;&gt;hidebound.exporters.girder_exporter</title>
<path fill="none" stroke="#de958e" d="M727.5809,-308.4839C762.5037,-308.4839 807.8921,-308.4839 852.2451,-308.4839"/>
<polygon fill="#de958e" stroke="#de958e" points="852.2857,-311.984 862.2856,-308.4839 852.2856,-304.984 852.2857,-311.984"/>
</g>
<!-- hidebound -->
<g id="node38" class="node">
<title>hidebound</title>
<polygon fill="#343434" stroke="#343434" points="91,-702.4839 0,-702.4839 0,-666.4839 91,-666.4839 91,-702.4839"/>
<text text-anchor="middle" x="45.5" y="-680.7839" font-family="Courier,monospace" font-size="14.00" fill="#a0d17b">hidebound</text>
</g>
<!-- hidebound&#45;&gt;hidebound.server -->
<g id="edge73" class="edge">
<title>hidebound&#45;&gt;hidebound.server</title>
<path fill="none" stroke="#a0d17b" d="M46.7328,-702.6154C54.7225,-804.5298 108.1332,-1301.4839 390,-1301.4839 390,-1301.4839 390,-1301.4839 665.5,-1301.4839 880.8782,-1301.4839 1134.0947,-1317.0805 1263.1113,-1326.1482"/>
<polygon fill="#a0d17b" stroke="#a0d17b" points="1263.0946,-1329.6556 1273.3166,-1326.8701 1263.5885,-1322.6731 1263.0946,-1329.6556"/>
</g>
<!-- hidebound&#45;&gt;hidebound.exporters -->
<g id="edge74" class="edge">
<title>hidebound&#45;&gt;hidebound.exporters</title>
<path fill="none" stroke="#a0d17b" d="M82.3797,-666.2084C85.5905,-663.5995 88.5454,-660.6948 91,-657.4839 127.4108,-609.8549 97.2917,-579.5578 127,-527.4839 188.4186,-419.8271 301.8084,-322.8193 357.4613,-279.0574"/>
<polygon fill="#a0d17b" stroke="#a0d17b" points="359.8251,-281.6526 365.5608,-272.7446 355.5219,-276.1315 359.8251,-281.6526"/>
</g>
<!-- hidebound.core -->
<g id="node45" class="node">
<title>hidebound.core</title>
<polygon fill="#343434" stroke="#343434" points="259,-702.4839 127,-702.4839 127,-666.4839 259,-666.4839 259,-702.4839"/>
<text text-anchor="middle" x="193" y="-680.7839" font-family="Courier,monospace" font-size="14.00" fill="#a0d17b">hidebound.core</text>
</g>
<!-- hidebound&#45;&gt;hidebound.core -->
<g id="edge75" class="edge">
<title>hidebound&#45;&gt;hidebound.core</title>
<path fill="none" stroke="#a0d17b" d="M91.3614,-684.4839C99.4456,-684.4839 108.0541,-684.4839 116.7093,-684.4839"/>
<polygon fill="#a0d17b" stroke="#a0d17b" points="116.8627,-687.984 126.8626,-684.4839 116.8626,-680.984 116.8627,-687.984"/>
</g>
<!-- numpy -->
<g id="node39" class="node">
<title>numpy</title>
<polygon fill="#343434" stroke="#343434" points="1044,-548.4839 986,-548.4839 986,-512.4839 1044,-512.4839 1044,-548.4839"/>
<text text-anchor="middle" x="1015" y="-526.7839" font-family="Courier,monospace" font-size="14.00" fill="#de958e">numpy</text>
</g>
<!-- numpy&#45;&gt;hidebound.core.database -->
<g id="edge76" class="edge">
<title>numpy&#45;&gt;hidebound.core.database</title>
<path fill="none" stroke="#de958e" d="M1044.0602,-532.2107C1139.9078,-538.142 1441.8719,-558.7964 1476,-585.4839 1511.5684,-613.2977 1478.2568,-650.482 1512,-680.4839 1516.8306,-684.7789 1522.1514,-688.5158 1527.7959,-691.7655"/>
<polygon fill="#de958e" stroke="#de958e" points="1526.4182,-694.9934 1536.908,-696.4814 1529.6356,-688.7767 1526.4182,-694.9934"/>
</g>
<!-- numpy&#45;&gt;hidebound.core.database_tools -->
<g id="edge77" class="edge">
<title>numpy&#45;&gt;hidebound.core.database_tools</title>
<path fill="none" stroke="#de958e" d="M1044.1948,-542.9305C1080.3815,-559.4688 1142.3555,-591.5498 1184,-633.4839 1205.9135,-655.5499 1197.2483,-672.2831 1220,-693.4839 1239.3914,-711.5535 1264.7611,-725.8274 1287.7957,-736.341"/>
<polygon fill="#de958e" stroke="#de958e" points="1286.5999,-739.6389 1297.1619,-740.4725 1289.4251,-733.2343 1286.5999,-739.6389"/>
</g>
<!-- numpy&#45;&gt;hidebound.server.api -->
<g id="edge78" class="edge">
<title>numpy&#45;&gt;hidebound.server.api</title>
<path fill="none" stroke="#de958e" d="M1044.1498,-527.0802C1134.4125,-517.1667 1407.3477,-492.0848 1476,-542.4839 1515.7677,-571.6783 1474.0756,-615.9321 1512,-647.4839 1600.4237,-721.0493 1678.4132,-613.3395 1768,-685.4839 1803.1668,-713.8038 1782.796,-740.6203 1804,-780.4839 1832.6581,-834.3613 1875.8821,-891.1282 1901.7351,-923.2412"/>
<polygon fill="#de958e" stroke="#de958e" points="1899.2076,-925.6811 1908.227,-931.24 1904.6428,-921.2698 1899.2076,-925.6811"/>
</g>
<!-- schematics -->
<g id="node40" class="node">
<title>schematics</title>
<polygon fill="#343434" stroke="#343434" points="715,-380.4839 616,-380.4839 616,-344.4839 715,-344.4839 715,-380.4839"/>
<text text-anchor="middle" x="665.5" y="-358.7839" font-family="Courier,monospace" font-size="14.00" fill="#de958e">schematics</text>
</g>
<!-- schematics&#45;&gt;hidebound.core.config -->
<g id="edge79" class="edge">
<title>schematics&#45;&gt;hidebound.core.config</title>
<path fill="none" stroke="#de958e" d="M715.1335,-364.6656C825.4813,-369.5161 1093.185,-381.2833 1242.6524,-387.8533"/>
<polygon fill="#de958e" stroke="#de958e" points="1242.6206,-391.3552 1252.7647,-388.2978 1242.9281,-384.3619 1242.6206,-391.3552"/>
</g>
<!-- schematics&#45;&gt;hidebound.core.specification_base -->
<g id="edge80" class="edge">
<title>schematics&#45;&gt;hidebound.core.specification_base</title>
<path fill="none" stroke="#de958e" d="M715.2875,-358.7665C746.4843,-359.2513 785.3187,-365.4451 810,-389.4839 864.7032,-442.7631 801.8011,-495.2138 846,-557.4839 872.768,-595.1962 918.1041,-621.7248 955.0845,-638.4051"/>
<polygon fill="#de958e" stroke="#de958e" points="953.7255,-641.6308 964.2898,-642.4344 956.5325,-635.2182 953.7255,-641.6308"/>
</g>
<!-- schematics&#45;&gt;hidebound.exporters.girder_exporter -->
<g id="edge81" class="edge">
<title>schematics&#45;&gt;hidebound.exporters.girder_exporter</title>
<path fill="none" stroke="#de958e" d="M715.2037,-354.8044C760.1908,-347.8536 828.3965,-337.3154 888.3913,-328.0458"/>
<polygon fill="#de958e" stroke="#de958e" points="888.981,-331.4963 898.3293,-326.5103 887.9121,-324.5784 888.981,-331.4963"/>
</g>
<!-- schematics&#45;&gt;hidebound.exporters.local_disk_exporter -->
<g id="edge82" class="edge">
<title>schematics&#45;&gt;hidebound.exporters.local_disk_exporter</title>
<path fill="none" stroke="#de958e" d="M715.1112,-371.1225C743.0515,-376.1456 778.5478,-382.7909 810,-389.4839 850.7407,-398.1535 895.7811,-408.801 933.2429,-417.9534"/>
<polygon fill="#de958e" stroke="#de958e" points="932.55,-421.3871 943.0958,-420.3687 934.2167,-414.5884 932.55,-421.3871"/>
</g>
<!-- schematics&#45;&gt;hidebound.exporters.s3_exporter -->
<g id="edge83" class="edge">
<title>schematics&#45;&gt;hidebound.exporters.s3_exporter</title>
<path fill="none" stroke="#de958e" d="M715.2577,-362.6383C744.9196,-360.5489 782.104,-353.9107 810,-335.4839 834.0677,-319.586 821.7253,-297.0641 846,-281.4839 853.3579,-276.7614 861.2572,-272.7678 869.4762,-269.3979"/>
<polygon fill="#de958e" stroke="#de958e" points="870.7574,-272.6555 878.8798,-265.8527 868.2879,-266.1055 870.7574,-272.6555"/>
</g>
<!-- schematics.types -->
<g id="node41" class="node">
<title>schematics.types</title>
<polygon fill="#343434" stroke="#343434" points="740,-434.4839 591,-434.4839 591,-398.4839 740,-398.4839 740,-434.4839"/>
<text text-anchor="middle" x="665.5" y="-412.7839" font-family="Courier,monospace" font-size="14.00" fill="#de958e">schematics.types</text>
</g>
<!-- schematics.types&#45;&gt;hidebound.core.config -->
<g id="edge84" class="edge">
<title>schematics.types&#45;&gt;hidebound.core.config</title>
<path fill="none" stroke="#de958e" d="M740.1649,-413.8583C861.8961,-409.5777 1103.4776,-401.0825 1242.6238,-396.1895"/>
<polygon fill="#de958e" stroke="#de958e" points="1243.0035,-399.6784 1252.8743,-395.829 1242.7575,-392.6827 1243.0035,-399.6784"/>
</g>
<!-- schematics.types&#45;&gt;hidebound.core.specification_base -->
<g id="edge85" class="edge">
<title>schematics.types&#45;&gt;hidebound.core.specification_base</title>
<path fill="none" stroke="#de958e" d="M734.973,-434.551C761.5509,-444.5385 790.202,-459.5182 810,-481.4839 844.1569,-519.3807 811.2781,-553.1041 846,-590.4839 866.8748,-612.9566 896.0532,-628.4361 924.2986,-639.0004"/>
<polygon fill="#de958e" stroke="#de958e" points="923.2337,-642.3364 933.8283,-642.3976 925.5843,-635.7429 923.2337,-642.3364"/>
</g>
<!-- schematics.types&#45;&gt;hidebound.core.specifications -->
<g id="edge86" class="edge">
<title>schematics.types&#45;&gt;hidebound.core.specifications</title>
<path fill="none" stroke="#de958e" d="M730.345,-434.5713C757.5936,-444.7762 788.0016,-459.9139 810,-481.4839 836.6871,-507.6514 815.4268,-535.9847 846,-557.4839 969.4658,-644.3057 1052.8082,-515.8479 1184,-590.4839 1207.4885,-603.8467 1197.2858,-624.8437 1220,-639.4839 1222.4608,-641.07 1224.9983,-642.5648 1227.5985,-643.9735"/>
<polygon fill="#de958e" stroke="#de958e" points="1226.1437,-647.1584 1236.6609,-648.4388 1229.2377,-640.8793 1226.1437,-647.1584"/>
</g>
<!-- schematics.types&#45;&gt;hidebound.exporters.girder_exporter -->
<g id="edge87" class="edge">
<title>schematics.types&#45;&gt;hidebound.exporters.girder_exporter</title>
<path fill="none" stroke="#de958e" d="M740.0205,-405.3741C762.7025,-401.2414 787.561,-395.9487 810,-389.4839 864.9247,-373.6599 925.5436,-348.7269 966.5145,-330.7012"/>
<polygon fill="#de958e" stroke="#de958e" points="967.9946,-333.8736 975.7191,-326.6222 965.1585,-327.4739 967.9946,-333.8736"/>
</g>
<!-- schematics.types&#45;&gt;hidebound.exporters.local_disk_exporter -->
<g id="edge88" class="edge">
<title>schematics.types&#45;&gt;hidebound.exporters.local_disk_exporter</title>
<path fill="none" stroke="#de958e" d="M740.0478,-421.1765C768.33,-422.9568 801.901,-425.07 835.6992,-427.1975"/>
<polygon fill="#de958e" stroke="#de958e" points="835.5097,-430.6924 845.7098,-427.8276 835.9495,-423.7062 835.5097,-430.6924"/>
</g>
<!-- schematics.types&#45;&gt;hidebound.exporters.s3_exporter -->
<g id="edge89" class="edge">
<title>schematics.types&#45;&gt;hidebound.exporters.s3_exporter</title>
<path fill="none" stroke="#de958e" d="M740.0192,-417.2557C764.7657,-413.962 790.857,-406.1683 810,-389.4839 848.1425,-356.2401 807.4237,-314.2234 846,-281.4839 853.1536,-275.4127 861.1138,-270.4285 869.5728,-266.3554"/>
<polygon fill="#de958e" stroke="#de958e" points="871.1583,-269.4826 878.933,-262.285 868.3667,-263.0633 871.1583,-269.4826"/>
</g>
<!-- pandas -->
<g id="node42" class="node">
<title>pandas</title>
<polygon fill="#343434" stroke="#343434" points="423,-968.4839 357,-968.4839 357,-932.4839 423,-932.4839 423,-968.4839"/>
<text text-anchor="middle" x="390" y="-946.7839" font-family="Courier,monospace" font-size="14.00" fill="#de958e">pandas</text>
</g>
<!-- pandas&#45;&gt;hidebound.core.database -->
<g id="edge90" class="edge">
<title>pandas&#45;&gt;hidebound.core.database</title>
<path fill="none" stroke="#de958e" d="M423.3473,-961.5356C526.6438,-995.7491 835.0505,-1097.7404 846,-1099.4839 994.3532,-1123.1069 1049.9703,-1167.3275 1184,-1099.4839 1208.1107,-1087.2795 1200.8409,-1069.5417 1220,-1050.4839 1319.7096,-951.3015 1367.3442,-953.7761 1476,-864.4839 1527.1511,-822.4485 1582.9352,-768.9602 1614.4774,-737.935"/>
<polygon fill="#de958e" stroke="#de958e" points="1617.2988,-740.0679 1621.9567,-730.5519 1612.3812,-735.0862 1617.2988,-740.0679"/>
</g>
<!-- pandas&#45;&gt;hidebound.core.database_tools -->
<g id="edge91" class="edge">
<title>pandas&#45;&gt;hidebound.core.database_tools</title>
<path fill="none" stroke="#de958e" d="M423.3437,-954.8075C558.6366,-971.6017 1065.0548,-1026.9806 1184,-931.4839 1236.1145,-889.6432 1171.949,-831.9347 1220,-785.4839 1220.9644,-784.5516 1221.9525,-783.648 1222.9626,-782.7721"/>
<polygon fill="#de958e" stroke="#de958e" points="1225.2609,-785.4218 1231.1113,-776.5887 1221.0294,-779.8454 1225.2609,-785.4218"/>
</g>
<!-- pandas&#45;&gt;hidebound.core.tools -->
<g id="edge92" class="edge">
<title>pandas&#45;&gt;hidebound.core.tools</title>
<path fill="none" stroke="#de958e" d="M418.872,-932.3883C444.9085,-916.5612 484.5893,-893.642 521,-877.4839 544.4089,-867.0957 570.7459,-857.5653 594.4607,-849.7263"/>
<polygon fill="#de958e" stroke="#de958e" points="595.676,-853.0115 604.099,-846.5847 593.5066,-846.3561 595.676,-853.0115"/>
</g>
<!-- pandas&#45;&gt;hidebound.core.validators -->
<g id="edge93" class="edge">
<title>pandas&#45;&gt;hidebound.core.validators</title>
<path fill="none" stroke="#de958e" d="M411.5282,-932.4448C432.1319,-914.4283 463.2131,-885.2072 485,-855.4839 526.4089,-798.9909 618.2941,-608.2092 652.4128,-536.257"/>
<polygon fill="#de958e" stroke="#de958e" points="655.7178,-537.4553 656.8324,-526.9193 649.3907,-534.4606 655.7178,-537.4553"/>
</g>
<!-- pandas&#45;&gt;hidebound.server.components -->
<g id="edge94" class="edge">
<title>pandas&#45;&gt;hidebound.server.components</title>
<path fill="none" stroke="#de958e" d="M407.9019,-968.6228C431.7394,-991.8274 476.1347,-1031.8366 521,-1055.4839 808.1906,-1206.8548 900.4343,-1210.3055 1220,-1267.4839 1418.0382,-1302.918 1651.9048,-1310.1605 1793.8742,-1310.8081"/>
<polygon fill="#de958e" stroke="#de958e" points="1793.9231,-1314.3082 1803.9354,-1310.8436 1793.9479,-1307.3082 1793.9231,-1314.3082"/>
</g>
<!-- pyparsing -->
<g id="node43" class="node">
<title>pyparsing</title>
<polygon fill="#343434" stroke="#343434" points="238.5,-572.4839 147.5,-572.4839 147.5,-536.4839 238.5,-536.4839 238.5,-572.4839"/>
<text text-anchor="middle" x="193" y="-550.7839" font-family="Courier,monospace" font-size="14.00" fill="#de958e">pyparsing</text>
</g>
<!-- pyparsing&#45;&gt;hidebound.core.parser -->
<g id="edge95" class="edge">
<title>pyparsing&#45;&gt;hidebound.core.parser</title>
<path fill="none" stroke="#de958e" d="M235.2614,-572.504C265.411,-585.3597 306.132,-602.723 338.2331,-616.4107"/>
<polygon fill="#de958e" stroke="#de958e" points="336.8975,-619.6461 347.469,-620.3489 339.6431,-613.207 336.8975,-619.6461"/>
</g>
<!-- pyparsing&#45;&gt;hidebound.core.specification_base -->
<g id="edge96" class="edge">
<title>pyparsing&#45;&gt;hidebound.core.specification_base</title>
<path fill="none" stroke="#de958e" d="M238.8027,-549.8854C343.5133,-541.0637 607.0115,-528.519 810,-600.4839 828.36,-606.993 828.1008,-617.7978 846,-625.4839 859.0862,-631.1033 873.139,-635.8425 887.3482,-639.8348"/>
<polygon fill="#de958e" stroke="#de958e" points="886.6348,-643.2671 897.2004,-642.4809 888.4506,-636.5067 886.6348,-643.2671"/>
</g>
<!-- pyparsing&#45;&gt;hidebound.core.validators -->
<g id="edge97" class="edge">
<title>pyparsing&#45;&gt;hidebound.core.validators</title>
<path fill="none" stroke="#de958e" d="M210.923,-536.2131C229.8807,-518.3096 261.6177,-492.1988 295,-481.4839 375.4041,-455.6761 400.7882,-475.2204 485,-481.4839 507.1576,-483.132 530.7196,-485.903 553.2541,-489.0581"/>
<polygon fill="#de958e" stroke="#de958e" points="552.7872,-492.5269 563.1828,-490.4817 553.7808,-485.5978 552.7872,-492.5269"/>
</g>
<!-- wrapt -->
<g id="node44" class="node">
<title>wrapt</title>
<polygon fill="#343434" stroke="#343434" points="419,-526.4839 361,-526.4839 361,-490.4839 419,-490.4839 419,-526.4839"/>
<text text-anchor="middle" x="390" y="-504.7839" font-family="Courier,monospace" font-size="14.00" fill="#de958e">wrapt</text>
</g>
<!-- wrapt&#45;&gt;hidebound.core.validators -->
<g id="edge98" class="edge">
<title>wrapt&#45;&gt;hidebound.core.validators</title>
<path fill="none" stroke="#de958e" d="M419.2225,-508.4839C449.1543,-508.4839 497.7039,-508.4839 543.8181,-508.4839"/>
<polygon fill="#de958e" stroke="#de958e" points="543.9214,-511.984 553.9214,-508.4839 543.9214,-504.984 543.9214,-511.984"/>
</g>
<!-- hidebound.core&#45;&gt;hidebound.core.config -->
<g id="edge99" class="edge">
<title>hidebound.core&#45;&gt;hidebound.core.config</title>
<path fill="none" stroke="#a0d17b" d="M208.5776,-666.1609C224.2488,-646.5876 247.6688,-613.9702 259,-581.4839 285.0418,-506.8229 251.5493,-293.5482 295,-227.4839 358.1933,-131.4022 409.6981,-130.4143 521,-101.4839 587.6109,-84.1699 1182.9492,-113.8593 1184,-114.4839 1279.1996,-171.0691 1325.1528,-305.9725 1341.1583,-364.5453"/>
<polygon fill="#a0d17b" stroke="#a0d17b" points="1337.7809,-365.464 1343.7216,-374.2366 1344.5482,-363.6741 1337.7809,-365.464"/>
</g>
<!-- hidebound.core&#45;&gt;hidebound.core.database -->
<g id="edge100" class="edge">
<title>hidebound.core&#45;&gt;hidebound.core.database</title>
<path fill="none" stroke="#a0d17b" d="M208.7457,-666.2184C224.5542,-646.6919 248.0846,-614.1123 259,-581.4839 292.5138,-481.3044 228.1485,-189.2763 295,-107.4839 403.3122,25.0353 494.3483,-2.4839 665.5,-2.4839 665.5,-2.4839 665.5,-2.4839 1015,-2.4839 1241.8331,-2.4839 1346.8358,-35.0172 1476,-221.4839 1530.0976,-299.5815 1458.9374,-568.6795 1512,-647.4839 1524.9142,-666.663 1545.2781,-680.4777 1565.9964,-690.2973"/>
<polygon fill="#a0d17b" stroke="#a0d17b" points="1564.636,-693.5228 1575.1946,-694.3986 1567.4867,-687.1296 1564.636,-693.5228"/>
</g>
<!-- hidebound.core&#45;&gt;hidebound.core.database_tools -->
<g id="edge101" class="edge">
<title>hidebound.core&#45;&gt;hidebound.core.database_tools</title>
<path fill="none" stroke="#a0d17b" d="M210.0884,-702.7642C228.8464,-721.3738 260.8643,-749.0617 295,-760.4839 482.3468,-823.1723 986.4663,-766.4944 1184,-763.4839 1192.3933,-763.356 1201.0275,-763.1913 1209.7357,-762.9999"/>
<polygon fill="#a0d17b" stroke="#a0d17b" points="1210.0659,-766.4933 1219.9825,-762.7637 1209.9044,-759.4952 1210.0659,-766.4933"/>
</g>
<!-- hidebound.core&#45;&gt;hidebound.core.parser -->
<g id="edge102" class="edge">
<title>hidebound.core&#45;&gt;hidebound.core.parser</title>
<path fill="none" stroke="#a0d17b" d="M259.1462,-669.0386C273.1325,-665.7728 288.0978,-662.2784 302.7283,-658.8621"/>
<polygon fill="#a0d17b" stroke="#a0d17b" points="303.8453,-662.1955 312.7875,-656.5132 302.2535,-655.3789 303.8453,-662.1955"/>
</g>
<!-- hidebound.core&#45;&gt;hidebound.core.specification_base -->
<g id="edge103" class="edge">
<title>hidebound.core&#45;&gt;hidebound.core.specification_base</title>
<path fill="none" stroke="#a0d17b" d="M259.2244,-682.5504C388.8986,-678.7643 679.3767,-670.2831 860.0758,-665.0073"/>
<polygon fill="#a0d17b" stroke="#a0d17b" points="860.3113,-668.502 870.2048,-664.7115 860.1069,-661.505 860.3113,-668.502"/>
</g>
<!-- hidebound.core&#45;&gt;hidebound.core.specifications -->
<g id="edge104" class="edge">
<title>hidebound.core&#45;&gt;hidebound.core.specifications</title>
<path fill="none" stroke="#a0d17b" d="M195.9593,-702.8147C206.4563,-765.3076 244.0289,-968.1979 295,-1005.4839 363.1555,-1055.3406 400.5724,-1007.1718 485,-1005.4839 641.1702,-1002.3618 1072.6462,-1041.0247 1184,-931.4839 1248.3861,-868.1462 1166.0987,-803.9538 1220,-731.4839 1234.1229,-712.4957 1255.3777,-698.6512 1276.5312,-688.7469"/>
<polygon fill="#a0d17b" stroke="#a0d17b" points="1278.1636,-691.852 1285.8922,-684.6048 1275.3311,-685.4506 1278.1636,-691.852"/>
</g>
<!-- hidebound.core&#45;&gt;hidebound.core.tools -->
<g id="edge105" class="edge">
<title>hidebound.core&#45;&gt;hidebound.core.tools</title>
<path fill="none" stroke="#a0d17b" d="M197.4737,-702.747C207.5929,-739.5635 236.0846,-822.026 295,-855.4839 395.0971,-912.3289 535.7182,-876.783 611.698,-850.0457"/>
<polygon fill="#a0d17b" stroke="#a0d17b" points="613.3075,-853.1863 621.5316,-846.5068 610.9371,-846.5998 613.3075,-853.1863"/>
</g>
<!-- hidebound.core&#45;&gt;hidebound.core.traits -->
<g id="edge106" class="edge">
<title>hidebound.core&#45;&gt;hidebound.core.traits</title>
<path fill="none" stroke="#a0d17b" d="M196.5423,-702.8597C208.3092,-761.7826 248.0237,-944.096 295,-977.4839 396.4379,-1049.5799 772.0362,-966.3806 936.7404,-925.0598"/>
<polygon fill="#a0d17b" stroke="#a0d17b" points="937.9638,-928.3609 946.804,-922.5213 936.2516,-921.5735 937.9638,-928.3609"/>
</g>
<!-- hidebound.core&#45;&gt;hidebound.core.validators -->
<g id="edge107" class="edge">
<title>hidebound.core&#45;&gt;hidebound.core.validators</title>
<path fill="none" stroke="#a0d17b" d="M213.5042,-666.4797C233.1818,-650.0438 264.3545,-626.1427 295,-611.4839 378.0001,-571.7821 479.0079,-544.9763 554.5819,-528.6875"/>
<polygon fill="#a0d17b" stroke="#a0d17b" points="555.55,-532.06 564.6035,-526.5569 554.0942,-525.213 555.55,-532.06"/>
</g>
<!-- schematics.exceptions -->
<g id="node46" class="node">
<title>schematics.exceptions</title>
<polygon fill="#343434" stroke="#343434" points="485,-751.4839 295,-751.4839 295,-715.4839 485,-715.4839 485,-751.4839"/>
<text text-anchor="middle" x="390" y="-729.7839" font-family="Courier,monospace" font-size="14.00" fill="#de958e">schematics.exceptions</text>
</g>
<!-- schematics.exceptions&#45;&gt;hidebound.core.config -->
<g id="edge108" class="edge">
<title>schematics.exceptions&#45;&gt;hidebound.core.config</title>
<path fill="none" stroke="#de958e" d="M429.9558,-715.4111C450.0793,-704.0907 472.7509,-687.4502 485,-665.4839 542.4935,-562.3815 434.7446,-216.0792 521,-135.4839 629.6841,-33.9317 1054.535,-154.2452 1184,-227.4839 1246.811,-263.0163 1301.8344,-329.3265 1329.3433,-366.1425"/>
<polygon fill="#de958e" stroke="#de958e" points="1326.6723,-368.4181 1335.4187,-374.3973 1332.31,-364.2688 1326.6723,-368.4181"/>
</g>
<!-- schematics.exceptions&#45;&gt;hidebound.core.database_tools -->
<g id="edge109" class="edge">
<title>schematics.exceptions&#45;&gt;hidebound.core.database_tools</title>
<path fill="none" stroke="#de958e" d="M485.3591,-735.9724C655.6161,-740.4155 1012.4915,-749.7285 1209.6857,-754.8745"/>
<polygon fill="#de958e" stroke="#de958e" points="1209.737,-758.3769 1219.8249,-755.1391 1209.9197,-751.3793 1209.737,-758.3769"/>
</g>
<!-- schematics.exceptions&#45;&gt;hidebound.core.specification_base -->
<g id="edge110" class="edge">
<title>schematics.exceptions&#45;&gt;hidebound.core.specification_base</title>
<path fill="none" stroke="#de958e" d="M485.264,-722.3571C584.8774,-710.7222 742.7773,-692.2795 860.3038,-678.5524"/>
<polygon fill="#de958e" stroke="#de958e" points="860.9482,-682.0011 870.4746,-677.3645 860.1361,-675.0483 860.9482,-682.0011"/>
</g>
<!-- schematics.exceptions&#45;&gt;hidebound.core.tools -->
<g id="edge111" class="edge">
<title>schematics.exceptions&#45;&gt;hidebound.core.tools</title>
<path fill="none" stroke="#de958e" d="M442.4679,-751.5763C488.3302,-767.3909 554.9858,-790.3756 603.4767,-807.0966"/>
<polygon fill="#de958e" stroke="#de958e" points="602.6327,-810.5077 613.2274,-810.4589 604.9147,-803.8901 602.6327,-810.5077"/>
</g>
<!-- schematics.exceptions&#45;&gt;hidebound.core.validators -->
<g id="edge112" class="edge">
<title>schematics.exceptions&#45;&gt;hidebound.core.validators</title>
<path fill="none" stroke="#de958e" d="M416.7024,-715.3777C436.0182,-702.0392 462.5582,-683.2111 485,-665.4839 541.1202,-621.1536 603.409,-565.4265 638.1768,-533.6912"/>
<polygon fill="#de958e" stroke="#de958e" points="640.977,-535.873 645.9907,-526.5395 636.2509,-530.7093 640.977,-535.873"/>
</g>
<!-- schematics.exceptions&#45;&gt;hidebound.server.api -->
<g id="edge113" class="edge">
<title>schematics.exceptions&#45;&gt;hidebound.server.api</title>
<path fill="none" stroke="#de958e" d="M426.3478,-751.5225C446.3804,-763.202 470.1304,-780.202 485,-801.4839 519.3374,-850.6287 473.5186,-894.8809 521,-931.4839 572.3226,-971.0481 1508.2385,-957.2563 1821.9645,-951.49"/>
<polygon fill="#de958e" stroke="#de958e" points="1822.4779,-954.9812 1832.4114,-951.2967 1822.3483,-947.9824 1822.4779,-954.9812"/>
</g>
<!-- OpenEXR -->
<g id="node47" class="node">
<title>OpenEXR</title>
<polygon fill="#343434" stroke="#343434" points="427,-846.4839 353,-846.4839 353,-810.4839 427,-810.4839 427,-846.4839"/>
<text text-anchor="middle" x="390" y="-824.7839" font-family="Courier,monospace" font-size="14.00" fill="#de958e">OpenEXR</text>
</g>
<!-- OpenEXR&#45;&gt;hidebound.core.tools -->
<g id="edge114" class="edge">
<title>OpenEXR&#45;&gt;hidebound.core.tools</title>
<path fill="none" stroke="#de958e" d="M427.1552,-828.4839C462.1896,-828.4839 516.3125,-828.4839 564.1336,-828.4839"/>
<polygon fill="#de958e" stroke="#de958e" points="564.2333,-831.984 574.2333,-828.4839 564.2333,-824.984 564.2333,-831.984"/>
</g>
<!-- skimage.io -->
<g id="node48" class="node">
<title>skimage.io</title>
<polygon fill="#343434" stroke="#343434" points="715,-922.4839 616,-922.4839 616,-886.4839 715,-886.4839 715,-922.4839"/>
<text text-anchor="middle" x="665.5" y="-900.7839" font-family="Courier,monospace" font-size="14.00" fill="#de958e">skimage.io</text>
</g>
<!-- skimage.io&#45;&gt;hidebound.core.traits -->
<g id="edge115" class="edge">
<title>skimage.io&#45;&gt;hidebound.core.traits</title>
<path fill="none" stroke="#de958e" d="M715.2037,-904.4839C765.5607,-904.4839 845.0103,-904.4839 909.471,-904.4839"/>
<polygon fill="#de958e" stroke="#de958e" points="909.6812,-907.984 919.6812,-904.4839 909.6811,-900.984 909.6812,-907.984"/>
</g>
</g>
</svg>
