<?xml version="1.0" encoding="UTF-8" standalone="no"?>
<!DOCTYPE svg PUBLIC "-//W3C//DTD SVG 1.1//EN"
 "http://www.w3.org/Graphics/SVG/1.1/DTD/svg11.dtd">
<!-- Generated by graphviz version 2.40.1 (20161225.0304)
 -->
<!-- Title: %3 Pages: 1 -->
<svg width="2236pt" height="1516pt"
 viewBox="0.00 0.00 2236.00 1515.53" xmlns="http://www.w3.org/2000/svg" xmlns:xlink="http://www.w3.org/1999/xlink">
<g id="graph0" class="graph" transform="scale(1 1) rotate(0) translate(4 1511.5252)">
<title>%3</title>
<polygon fill="#242424" stroke="transparent" points="-4,4 -4,-1511.5252 2232,-1511.5252 2232,4 -4,4"/>
<!-- cli -->
<g id="node1" class="node">
<title>cli</title>
<polygon fill="#343434" stroke="#343434" points="72.5,-816.2852 18.5,-816.2852 18.5,-780.2852 72.5,-780.2852 72.5,-816.2852"/>
<text text-anchor="middle" x="45.5" y="-794.5852" font-family="Courier,monospace" font-size="14.00" fill="#b6ecf3">cli</text>
</g>
<!-- hidebound.core.config -->
<g id="node2" class="node">
<title>hidebound.core.config</title>
<polygon fill="#343434" stroke="#343434" points="1410,-496.2852 1220,-496.2852 1220,-460.2852 1410,-460.2852 1410,-496.2852"/>
<text text-anchor="middle" x="1315" y="-474.5852" font-family="Courier,monospace" font-size="14.00" fill="#b6ecf3">hidebound.core.config</text>
</g>
<!-- hidebound.core.database -->
<g id="node3" class="node">
<title>hidebound.core.database</title>
<polygon fill="#343434" stroke="#343434" points="1710,-797.2852 1504,-797.2852 1504,-761.2852 1710,-761.2852 1710,-797.2852"/>
<text text-anchor="middle" x="1607" y="-775.5852" font-family="Courier,monospace" font-size="14.00" fill="#b6ecf3">hidebound.core.database</text>
</g>
<!-- hidebound.core.config&#45;&gt;hidebound.core.database -->
<g id="edge1" class="edge">
<title>hidebound.core.config&#45;&gt;hidebound.core.database</title>
<path fill="none" stroke="#b6ecf3" d="M1351.6406,-496.421C1380.6941,-512.6614 1420.0968,-539.1632 1443,-573.2852 1479.0453,-626.9866 1438.5609,-663.8095 1479,-714.2852 1494.2034,-733.2619 1516.4094,-747.215 1538.0724,-757.2174"/>
<polygon fill="#b6ecf3" stroke="#b6ecf3" points="1536.7375,-760.4537 1547.3013,-761.2654 1539.5493,-754.0433 1536.7375,-760.4537"/>
</g>
<!-- hidebound.server.app -->
<g id="node15" class="node">
<title>hidebound.server.app</title>
<polygon fill="#343434" stroke="#343434" points="2228,-976.2852 2046,-976.2852 2046,-940.2852 2228,-940.2852 2228,-976.2852"/>
<text text-anchor="middle" x="2137" y="-954.5852" font-family="Courier,monospace" font-size="14.00" fill="#b6ecf3">hidebound.server.app</text>
</g>
<!-- hidebound.core.config&#45;&gt;hidebound.server.app -->
<g id="edge2" class="edge">
<title>hidebound.core.config&#45;&gt;hidebound.server.app</title>
<path fill="none" stroke="#b6ecf3" d="M1409.4147,-496.3324C1503.8947,-519.0613 1647.4405,-566.9951 1735,-660.2852 1767.3268,-694.7277 1735.5412,-729.0765 1771,-760.2852 1852.674,-832.1697 1916.3923,-757.8269 2010,-813.2852 2059.475,-842.5968 2099.7541,-897.8932 2120.8898,-931.0813"/>
<polygon fill="#b6ecf3" stroke="#b6ecf3" points="2118.0747,-933.1815 2126.3352,-939.8158 2124.0148,-929.4782 2118.0747,-933.1815"/>
</g>
<!-- hidebound.server.api -->
<g id="node14" class="node">
<title>hidebound.server.api</title>
<polygon fill="#343434" stroke="#343434" points="1981.5,-858.2852 1799.5,-858.2852 1799.5,-822.2852 1981.5,-822.2852 1981.5,-858.2852"/>
<text text-anchor="middle" x="1890.5" y="-836.5852" font-family="Courier,monospace" font-size="14.00" fill="#b6ecf3">hidebound.server.api</text>
</g>
<!-- hidebound.core.database&#45;&gt;hidebound.server.api -->
<g id="edge3" class="edge">
<title>hidebound.core.database&#45;&gt;hidebound.server.api</title>
<path fill="none" stroke="#b6ecf3" d="M1690.9087,-797.3396C1724.1965,-804.5021 1762.6212,-812.7698 1796.8137,-820.1269"/>
<polygon fill="#b6ecf3" stroke="#b6ecf3" points="1796.2941,-823.5952 1806.8066,-822.2771 1797.7667,-816.7518 1796.2941,-823.5952"/>
</g>
<!-- hidebound.core.database_tools -->
<g id="node4" class="node">
<title>hidebound.core.database_tools</title>
<polygon fill="#343434" stroke="#343434" points="1443,-889.2852 1187,-889.2852 1187,-853.2852 1443,-853.2852 1443,-889.2852"/>
<text text-anchor="middle" x="1315" y="-867.5852" font-family="Courier,monospace" font-size="14.00" fill="#b6ecf3">hidebound.core.database_tools</text>
</g>
<!-- hidebound.core.database_tools&#45;&gt;hidebound.core.database -->
<g id="edge4" class="edge">
<title>hidebound.core.database_tools&#45;&gt;hidebound.core.database</title>
<path fill="none" stroke="#b6ecf3" d="M1372.3414,-853.2187C1420.5559,-838.0278 1489.531,-816.2959 1540.2262,-800.3235"/>
<polygon fill="#b6ecf3" stroke="#b6ecf3" points="1541.3037,-803.6537 1549.7897,-797.3103 1539.2001,-796.9772 1541.3037,-803.6537"/>
</g>
<!-- hidebound.core.parser -->
<g id="node5" class="node">
<title>hidebound.core.parser</title>
<polygon fill="#343434" stroke="#343434" points="485,-634.2852 295,-634.2852 295,-598.2852 485,-598.2852 485,-634.2852"/>
<text text-anchor="middle" x="390" y="-612.5852" font-family="Courier,monospace" font-size="14.00" fill="#b6ecf3">hidebound.core.parser</text>
</g>
<!-- hidebound.core.parser&#45;&gt;hidebound.core.database_tools -->
<g id="edge5" class="edge">
<title>hidebound.core.parser&#45;&gt;hidebound.core.database_tools</title>
<path fill="none" stroke="#b6ecf3" d="M439.2424,-634.3094C522.1243,-664.0101 695.2353,-723.3211 846,-757.2852 979.6104,-787.3847 1019.8475,-761.8294 1151,-801.2852 1167.9441,-806.3826 1170.8211,-811.1207 1187,-818.2852 1210.8614,-828.8517 1237.4892,-839.9818 1260.2522,-849.2998"/>
<polygon fill="#b6ecf3" stroke="#b6ecf3" points="1259.1706,-852.6385 1269.7518,-853.1753 1261.8148,-846.1571 1259.1706,-852.6385"/>
</g>
<!-- hidebound.core.specification_base -->
<g id="node6" class="node">
<title>hidebound.core.specification_base</title>
<polygon fill="#343434" stroke="#343434" points="1143,-618.2852 854,-618.2852 854,-582.2852 1143,-582.2852 1143,-618.2852"/>
<text text-anchor="middle" x="998.5" y="-596.5852" font-family="Courier,monospace" font-size="14.00" fill="#b6ecf3">hidebound.core.specification_base</text>
</g>
<!-- hidebound.core.parser&#45;&gt;hidebound.core.specification_base -->
<g id="edge6" class="edge">
<title>hidebound.core.parser&#45;&gt;hidebound.core.specification_base</title>
<path fill="none" stroke="#b6ecf3" d="M485.2824,-598.3865C497.2696,-596.695 509.3942,-595.2529 521,-594.2852 628.515,-585.32 750.1104,-587.0198 843.6889,-590.8585"/>
<polygon fill="#b6ecf3" stroke="#b6ecf3" points="843.6655,-594.3606 853.8045,-591.2862 843.9613,-587.3668 843.6655,-594.3606"/>
</g>
<!-- hidebound.core.validators -->
<g id="node10" class="node">
<title>hidebound.core.validators</title>
<polygon fill="#343434" stroke="#343434" points="777,-542.2852 554,-542.2852 554,-506.2852 777,-506.2852 777,-542.2852"/>
<text text-anchor="middle" x="665.5" y="-520.5852" font-family="Courier,monospace" font-size="14.00" fill="#b6ecf3">hidebound.core.validators</text>
</g>
<!-- hidebound.core.parser&#45;&gt;hidebound.core.validators -->
<g id="edge7" class="edge">
<title>hidebound.core.parser&#45;&gt;hidebound.core.validators</title>
<path fill="none" stroke="#b6ecf3" d="M453.3466,-598.2736C464.1749,-594.2643 475.1113,-589.5975 485,-584.2852 502.8562,-574.6925 502.6565,-564.9095 521,-556.2852 529.807,-552.1445 539.171,-548.5286 548.7344,-545.3728"/>
<polygon fill="#b6ecf3" stroke="#b6ecf3" points="549.8499,-548.6912 558.3509,-542.368 547.7622,-542.0098 549.8499,-548.6912"/>
</g>
<!-- hidebound.core.specification_base&#45;&gt;hidebound.core.config -->
<g id="edge8" class="edge">
<title>hidebound.core.specification_base&#45;&gt;hidebound.core.config</title>
<path fill="none" stroke="#b6ecf3" d="M1045.2007,-582.2836C1102.0015,-560.3889 1197.8129,-523.4568 1258.6546,-500.0044"/>
<polygon fill="#b6ecf3" stroke="#b6ecf3" points="1260.0358,-503.2231 1268.1077,-496.3605 1257.5181,-496.6915 1260.0358,-503.2231"/>
</g>
<!-- hidebound.core.specification_base&#45;&gt;hidebound.core.database -->
<g id="edge9" class="edge">
<title>hidebound.core.specification_base&#45;&gt;hidebound.core.database</title>
<path fill="none" stroke="#b6ecf3" d="M1097.0826,-618.3506C1188.1446,-636.3113 1326.5263,-666.8522 1443,-706.2852 1484.5102,-720.3387 1529.9005,-740.979 1562.3836,-756.7297"/>
<polygon fill="#b6ecf3" stroke="#b6ecf3" points="1561.0885,-759.9924 1571.6096,-761.2401 1564.163,-753.7036 1561.0885,-759.9924"/>
</g>
<!-- hidebound.core.specification_base&#45;&gt;hidebound.core.database_tools -->
<g id="edge10" class="edge">
<title>hidebound.core.specification_base&#45;&gt;hidebound.core.database_tools</title>
<path fill="none" stroke="#b6ecf3" d="M1033.6136,-618.4272C1066.6347,-636.695 1116.0806,-667.2765 1151,-703.2852 1171.8591,-724.795 1167.4723,-737.5597 1187,-760.2852 1215.6652,-793.6444 1254.5145,-825.904 1281.8706,-846.967"/>
<polygon fill="#b6ecf3" stroke="#b6ecf3" points="1279.8912,-849.859 1289.9674,-853.1332 1284.1323,-844.29 1279.8912,-849.859"/>
</g>
<!-- hidebound.core.specifications -->
<g id="node7" class="node">
<title>hidebound.core.specifications</title>
<polygon fill="#343434" stroke="#343434" points="1443,-618.2852 1187,-618.2852 1187,-582.2852 1443,-582.2852 1443,-618.2852"/>
<text text-anchor="middle" x="1315" y="-596.5852" font-family="Courier,monospace" font-size="14.00" fill="#b6ecf3">hidebound.core.specifications</text>
</g>
<!-- hidebound.core.specification_base&#45;&gt;hidebound.core.specifications -->
<g id="edge11" class="edge">
<title>hidebound.core.specification_base&#45;&gt;hidebound.core.specifications</title>
<path fill="none" stroke="#b6ecf3" d="M1143.3193,-600.2852C1154.4106,-600.2852 1165.5905,-600.2852 1176.639,-600.2852"/>
<polygon fill="#b6ecf3" stroke="#b6ecf3" points="1176.7423,-603.7853 1186.7423,-600.2852 1176.7423,-596.7853 1176.7423,-603.7853"/>
</g>
<!-- hidebound.core.tools -->
<g id="node8" class="node">
<title>hidebound.core.tools</title>
<polygon fill="#343434" stroke="#343434" points="756.5,-954.2852 574.5,-954.2852 574.5,-918.2852 756.5,-918.2852 756.5,-954.2852"/>
<text text-anchor="middle" x="665.5" y="-932.5852" font-family="Courier,monospace" font-size="14.00" fill="#b6ecf3">hidebound.core.tools</text>
</g>
<!-- hidebound.core.tools&#45;&gt;hidebound.core.database -->
<g id="edge12" class="edge">
<title>hidebound.core.tools&#45;&gt;hidebound.core.database</title>
<path fill="none" stroke="#b6ecf3" d="M745.9461,-954.3313C894.464,-983.1356 1217.1358,-1024.2834 1443,-898.2852 1467.2297,-884.7686 1458.1822,-865.6263 1479,-847.2852 1500.3354,-828.4881 1527.7751,-813.0362 1551.7732,-801.6388"/>
<polygon fill="#b6ecf3" stroke="#b6ecf3" points="1553.5169,-804.6887 1561.1257,-797.316 1550.5799,-798.3346 1553.5169,-804.6887"/>
</g>
<!-- hidebound.core.tools&#45;&gt;hidebound.core.database_tools -->
<g id="edge13" class="edge">
<title>hidebound.core.tools&#45;&gt;hidebound.core.database_tools</title>
<path fill="none" stroke="#b6ecf3" d="M756.8368,-927.1445C866.0375,-916.216 1049.9012,-897.8155 1176.5862,-885.1372"/>
<polygon fill="#b6ecf3" stroke="#b6ecf3" points="1177.1484,-888.5985 1186.7501,-884.12 1176.4513,-881.6333 1177.1484,-888.5985"/>
</g>
<!-- hidebound.core.tools&#45;&gt;hidebound.core.specification_base -->
<g id="edge14" class="edge">
<title>hidebound.core.tools&#45;&gt;hidebound.core.specification_base</title>
<path fill="none" stroke="#b6ecf3" d="M739.1915,-918.1439C765.0626,-908.2941 792.1068,-893.4307 810,-871.2852 857.9914,-811.8887 803.2663,-766.5698 846,-703.2852 870.4324,-667.103 912.2343,-640.1999 945.9003,-622.9794"/>
<polygon fill="#b6ecf3" stroke="#b6ecf3" points="947.7606,-625.9633 955.1589,-618.3794 944.646,-619.6944 947.7606,-625.9633"/>
</g>
<!-- hidebound.core.traits -->
<g id="node9" class="node">
<title>hidebound.core.traits</title>
<polygon fill="#343434" stroke="#343434" points="1093.5,-878.2852 903.5,-878.2852 903.5,-842.2852 1093.5,-842.2852 1093.5,-878.2852"/>
<text text-anchor="middle" x="998.5" y="-856.5852" font-family="Courier,monospace" font-size="14.00" fill="#b6ecf3">hidebound.core.traits</text>
</g>
<!-- hidebound.core.tools&#45;&gt;hidebound.core.traits -->
<g id="edge15" class="edge">
<title>hidebound.core.tools&#45;&gt;hidebound.core.traits</title>
<path fill="none" stroke="#b6ecf3" d="M753.7374,-918.2728C772.4038,-914.036 791.9217,-909.2854 810,-904.2852 826.2552,-899.7892 829.7201,-896.6909 846,-892.2852 861.4617,-888.1009 877.9293,-884.1403 894.1102,-880.5238"/>
<polygon fill="#b6ecf3" stroke="#b6ecf3" points="895.1224,-883.8848 904.1366,-878.3175 893.618,-877.0484 895.1224,-883.8848"/>
</g>
<!-- hidebound.core.traits&#45;&gt;hidebound.core.specifications -->
<g id="edge16" class="edge">
<title>hidebound.core.traits&#45;&gt;hidebound.core.specifications</title>
<path fill="none" stroke="#b6ecf3" d="M1032.2706,-842.2643C1064.9866,-823.7608 1114.8254,-792.721 1151,-757.2852 1170.8199,-737.87 1168.151,-726.6443 1187,-706.2852 1215.8306,-675.1447 1253.7848,-644.797 1280.862,-624.6104"/>
<polygon fill="#b6ecf3" stroke="#b6ecf3" points="1283.2766,-627.1785 1289.2457,-618.4252 1279.1208,-621.5455 1283.2766,-627.1785"/>
</g>
<!-- hidebound.core.validators&#45;&gt;hidebound.core.config -->
<g id="edge17" class="edge">
<title>hidebound.core.validators&#45;&gt;hidebound.core.config</title>
<path fill="none" stroke="#b6ecf3" d="M777.153,-516.3775C898.4759,-507.7849 1090.8419,-494.1609 1209.6388,-485.7472"/>
<polygon fill="#b6ecf3" stroke="#b6ecf3" points="1210.1073,-489.2229 1219.835,-485.0251 1209.6127,-482.2404 1210.1073,-489.2229"/>
</g>
<!-- hidebound.core.validators&#45;&gt;hidebound.core.specification_base -->
<g id="edge18" class="edge">
<title>hidebound.core.validators&#45;&gt;hidebound.core.specification_base</title>
<path fill="none" stroke="#b6ecf3" d="M753.7374,-542.2976C772.4038,-546.5343 791.9217,-551.2849 810,-556.2852 826.2552,-560.7812 829.7201,-563.8795 846,-568.2852 861.4617,-572.4695 877.9293,-576.4301 894.1102,-580.0466"/>
<polygon fill="#b6ecf3" stroke="#b6ecf3" points="893.618,-583.5219 904.1366,-582.2528 895.1224,-576.6855 893.618,-583.5219"/>
</g>
<!-- hidebound.core.validators&#45;&gt;hidebound.core.specifications -->
<g id="edge19" class="edge">
<title>hidebound.core.validators&#45;&gt;hidebound.core.specifications</title>
<path fill="none" stroke="#b6ecf3" d="M777.0887,-533.549C875.6417,-542.2066 1023.1393,-556.3247 1151,-573.2852 1167.3797,-575.4579 1184.6371,-578.0095 1201.56,-580.6618"/>
<polygon fill="#b6ecf3" stroke="#b6ecf3" points="1201.0516,-584.1248 1211.4761,-582.233 1202.1471,-577.2111 1201.0516,-584.1248"/>
</g>
<!-- hidebound.exporters.girder_exporter -->
<g id="node12" class="node">
<title>hidebound.exporters.girder_exporter</title>
<polygon fill="#343434" stroke="#343434" points="1151,-358.2852 846,-358.2852 846,-322.2852 1151,-322.2852 1151,-358.2852"/>
<text text-anchor="middle" x="998.5" y="-336.5852" font-family="Courier,monospace" font-size="14.00" fill="#b6ecf3">hidebound.exporters.girder_exporter</text>
</g>
<!-- hidebound.core.validators&#45;&gt;hidebound.exporters.girder_exporter -->
<g id="edge20" class="edge">
<title>hidebound.core.validators&#45;&gt;hidebound.exporters.girder_exporter</title>
<path fill="none" stroke="#b6ecf3" d="M698.3407,-506.139C759.3019,-472.4547 889.8398,-400.3256 956.8809,-363.2819"/>
<polygon fill="#b6ecf3" stroke="#b6ecf3" points="958.8454,-366.1952 965.9054,-358.2954 955.4599,-360.0683 958.8454,-366.1952"/>
</g>
<!-- hidebound.exporters.s3_exporter -->
<g id="node13" class="node">
<title>hidebound.exporters.s3_exporter</title>
<polygon fill="#343434" stroke="#343434" points="1134.5,-266.2852 862.5,-266.2852 862.5,-230.2852 1134.5,-230.2852 1134.5,-266.2852"/>
<text text-anchor="middle" x="998.5" y="-244.5852" font-family="Courier,monospace" font-size="14.00" fill="#b6ecf3">hidebound.exporters.s3_exporter</text>
</g>
<!-- hidebound.core.validators&#45;&gt;hidebound.exporters.s3_exporter -->
<g id="edge21" class="edge">
<title>hidebound.core.validators&#45;&gt;hidebound.exporters.s3_exporter</title>
<path fill="none" stroke="#b6ecf3" d="M702.9244,-506.2592C735.5349,-488.7671 781.8864,-459.3108 810,-421.2852 840.0794,-380.6007 811.7038,-350.4843 846,-313.2852 864.0769,-293.6782 889.0475,-279.7491 913.5528,-269.9564"/>
<polygon fill="#b6ecf3" stroke="#b6ecf3" points="914.8017,-273.2261 922.9067,-266.4026 912.3155,-266.6825 914.8017,-273.2261"/>
</g>
<!-- hidebound.exporters.exporter_base -->
<g id="node11" class="node">
<title>hidebound.exporters.exporter_base</title>
<polygon fill="#343434" stroke="#343434" points="810,-174.2852 521,-174.2852 521,-138.2852 810,-138.2852 810,-174.2852"/>
<text text-anchor="middle" x="665.5" y="-152.5852" font-family="Courier,monospace" font-size="14.00" fill="#b6ecf3">hidebound.exporters.exporter_base</text>
</g>
<!-- hidebound.exporters.exporter_base&#45;&gt;hidebound.exporters.girder_exporter -->
<g id="edge22" class="edge">
<title>hidebound.exporters.exporter_base&#45;&gt;hidebound.exporters.girder_exporter</title>
<path fill="none" stroke="#b6ecf3" d="M724.607,-174.2971C752.5952,-184.8568 785.2312,-200.3059 810,-221.2852 832.0102,-239.9279 823.8063,-256.8612 846,-275.2852 868.7793,-294.1952 897.8752,-308.4033 924.5333,-318.6349"/>
<polygon fill="#b6ecf3" stroke="#b6ecf3" points="923.635,-322.0346 934.2282,-322.2259 926.0664,-315.4704 923.635,-322.0346"/>
</g>
<!-- hidebound.exporters.exporter_base&#45;&gt;hidebound.exporters.s3_exporter -->
<g id="edge23" class="edge">
<title>hidebound.exporters.exporter_base&#45;&gt;hidebound.exporters.s3_exporter</title>
<path fill="none" stroke="#b6ecf3" d="M752.9191,-174.3127C771.8204,-178.5814 791.6401,-183.341 810,-188.2852 852.6186,-199.7619 899.9523,-214.8367 936.5264,-227.0048"/>
<polygon fill="#b6ecf3" stroke="#b6ecf3" points="935.4688,-230.3415 946.0626,-230.1926 937.6881,-223.7027 935.4688,-230.3415"/>
</g>
<!-- hidebound.exporters.girder_exporter&#45;&gt;hidebound.core.config -->
<g id="edge24" class="edge">
<title>hidebound.exporters.girder_exporter&#45;&gt;hidebound.core.config</title>
<path fill="none" stroke="#b6ecf3" d="M1074.5926,-358.3803C1099.3936,-365.2916 1126.7686,-374.021 1151,-384.2852 1197.404,-403.9415 1247.148,-433.8395 1279.5276,-454.6193"/>
<polygon fill="#b6ecf3" stroke="#b6ecf3" points="1277.8861,-457.726 1288.1827,-460.2224 1281.6903,-451.8499 1277.8861,-457.726"/>
</g>
<!-- hidebound.exporters.girder_exporter&#45;&gt;hidebound.core.database -->
<g id="edge25" class="edge">
<title>hidebound.exporters.girder_exporter&#45;&gt;hidebound.core.database</title>
<path fill="none" stroke="#b6ecf3" d="M1151.2584,-337.4277C1248.9509,-344.2665 1370.511,-370.4569 1443,-451.2852 1521.7696,-539.1166 1410.5964,-618.1605 1479,-714.2852 1492.5947,-733.3892 1513.484,-747.2304 1534.4705,-757.0968"/>
<polygon fill="#b6ecf3" stroke="#b6ecf3" points="1533.21,-760.3665 1543.7704,-761.22 1536.0472,-753.9672 1533.21,-760.3665"/>
</g>
<!-- hidebound.exporters.s3_exporter&#45;&gt;hidebound.core.config -->
<g id="edge26" class="edge">
<title>hidebound.exporters.s3_exporter&#45;&gt;hidebound.core.config</title>
<path fill="none" stroke="#b6ecf3" d="M1121.598,-266.3891C1131.8947,-270.1854 1141.851,-274.7644 1151,-280.2852 1221.8519,-323.0396 1276.0948,-407.7137 1300.6254,-451.1671"/>
<polygon fill="#b6ecf3" stroke="#b6ecf3" points="1297.6308,-452.9843 1305.5401,-460.0337 1303.7532,-449.5906 1297.6308,-452.9843"/>
</g>
<!-- hidebound.server.api&#45;&gt;hidebound.server.app -->
<g id="edge27" class="edge">
<title>hidebound.server.api&#45;&gt;hidebound.server.app</title>
<path fill="none" stroke="#b6ecf3" d="M1947.6158,-858.3832C1967.6727,-865.3782 1990.1457,-873.9521 2010,-883.2852 2041.7841,-898.2262 2075.9653,-918.6858 2100.8515,-934.462"/>
<polygon fill="#b6ecf3" stroke="#b6ecf3" points="2099.2678,-937.6037 2109.5779,-940.0434 2103.0396,-931.7067 2099.2678,-937.6037"/>
</g>
<!-- hidebound.server.components -->
<g id="node16" class="node">
<title>hidebound.server.components</title>
<polygon fill="#343434" stroke="#343434" points="2010,-1229.2852 1771,-1229.2852 1771,-1193.2852 2010,-1193.2852 2010,-1229.2852"/>
<text text-anchor="middle" x="1890.5" y="-1207.5852" font-family="Courier,monospace" font-size="14.00" fill="#b6ecf3">hidebound.server.components</text>
</g>
<!-- hidebound.server.components&#45;&gt;hidebound.server.app -->
<g id="edge28" class="edge">
<title>hidebound.server.components&#45;&gt;hidebound.server.app</title>
<path fill="none" stroke="#b6ecf3" d="M1911.8649,-1193.0462C1936.2839,-1171.9187 1977.119,-1135.7209 2010,-1102.2852 2048.8825,-1062.7467 2090.8614,-1013.7854 2115.4925,-984.3448"/>
<polygon fill="#b6ecf3" stroke="#b6ecf3" points="2118.2482,-986.5051 2121.9627,-976.5827 2112.8713,-982.0231 2118.2482,-986.5051"/>
</g>
<!-- hidebound.server.server_tools -->
<g id="node17" class="node">
<title>hidebound.server.server_tools</title>
<polygon fill="#343434" stroke="#343434" points="1735,-892.2852 1479,-892.2852 1479,-856.2852 1735,-856.2852 1735,-892.2852"/>
<text text-anchor="middle" x="1607" y="-870.5852" font-family="Courier,monospace" font-size="14.00" fill="#b6ecf3">hidebound.server.server_tools</text>
</g>
<!-- hidebound.server.server_tools&#45;&gt;hidebound.server.api -->
<g id="edge29" class="edge">
<title>hidebound.server.server_tools&#45;&gt;hidebound.server.api</title>
<path fill="none" stroke="#b6ecf3" d="M1735.0646,-858.9264C1753.2188,-856.7492 1771.6753,-854.5358 1789.2278,-852.4307"/>
<polygon fill="#b6ecf3" stroke="#b6ecf3" points="1789.9369,-855.8708 1799.449,-851.2049 1789.1033,-848.9206 1789.9369,-855.8708"/>
</g>
<!-- hidebound.server.server_tools&#45;&gt;hidebound.server.app -->
<g id="edge30" class="edge">
<title>hidebound.server.server_tools&#45;&gt;hidebound.server.app</title>
<path fill="none" stroke="#b6ecf3" d="M1720.6983,-892.3053C1814.367,-907.1509 1945.9635,-928.0077 2035.9757,-942.2738"/>
<polygon fill="#b6ecf3" stroke="#b6ecf3" points="2035.4946,-945.7411 2045.9192,-943.8497 2036.5904,-938.8274 2035.4946,-945.7411"/>
</g>
<!-- dash -->
<g id="node18" class="node">
<title>dash</title>
<polygon fill="#343434" stroke="#343434" points="1634,-1444.2852 1580,-1444.2852 1580,-1408.2852 1634,-1408.2852 1634,-1444.2852"/>
<text text-anchor="middle" x="1607" y="-1422.5852" font-family="Courier,monospace" font-size="14.00" fill="#de958e">dash</text>
</g>
<!-- dash&#45;&gt;hidebound.server.app -->
<g id="edge31" class="edge">
<title>dash&#45;&gt;hidebound.server.app</title>
<path fill="none" stroke="#de958e" d="M1634.0118,-1426.4528C1705.576,-1425.3979 1901.9628,-1412.5325 2010,-1307.2852 2103.1859,-1216.5057 2128.3728,-1052.0282 2134.8623,-986.4147"/>
<polygon fill="#de958e" stroke="#de958e" points="2138.3522,-986.6835 2135.7807,-976.4055 2131.3815,-986.0438 2138.3522,-986.6835"/>
</g>
<!-- dash&#45;&gt;hidebound.server.components -->
<g id="edge32" class="edge">
<title>dash&#45;&gt;hidebound.server.components</title>
<path fill="none" stroke="#de958e" d="M1634.1259,-1425.6902C1661.414,-1423.9694 1703.8069,-1418.1452 1735,-1399.2852 1801.5537,-1359.0454 1852.6317,-1279.8154 1876.1963,-1238.2265"/>
<polygon fill="#de958e" stroke="#de958e" points="1879.2648,-1239.9102 1881.0655,-1229.4695 1873.1469,-1236.5084 1879.2648,-1239.9102"/>
</g>
<!-- dash_core_components -->
<g id="node19" class="node">
<title>dash_core_components</title>
<polygon fill="#343434" stroke="#343434" points="1698,-1390.2852 1516,-1390.2852 1516,-1354.2852 1698,-1354.2852 1698,-1390.2852"/>
<text text-anchor="middle" x="1607" y="-1368.5852" font-family="Courier,monospace" font-size="14.00" fill="#de958e">dash_core_components</text>
</g>
<!-- dash_core_components&#45;&gt;hidebound.server.app -->
<g id="edge33" class="edge">
<title>dash_core_components&#45;&gt;hidebound.server.app</title>
<path fill="none" stroke="#de958e" d="M1698.3021,-1363.518C1787.8824,-1350.4256 1923.3094,-1318.0243 2010,-1238.2852 2086.5827,-1167.8434 2120.1738,-1042.3257 2131.8415,-986.4544"/>
<polygon fill="#de958e" stroke="#de958e" points="2135.2924,-987.0464 2133.8298,-976.553 2128.4294,-985.6682 2135.2924,-987.0464"/>
</g>
<!-- dash_core_components&#45;&gt;hidebound.server.components -->
<g id="edge34" class="edge">
<title>dash_core_components&#45;&gt;hidebound.server.components</title>
<path fill="none" stroke="#de958e" d="M1698.0935,-1356.5188C1710.973,-1352.3164 1723.6706,-1347.0023 1735,-1340.2852 1755.2908,-1328.2549 1753.5079,-1317.1114 1771,-1301.2852 1797.8758,-1276.9689 1830.9595,-1252.4199 1855.4973,-1235.1172"/>
<polygon fill="#de958e" stroke="#de958e" points="1857.6085,-1237.9118 1863.7961,-1229.3115 1853.5958,-1232.1761 1857.6085,-1237.9118"/>
</g>
<!-- dash_cytoscape -->
<g id="node20" class="node">
<title>dash_cytoscape</title>
<polygon fill="#343434" stroke="#343434" points="1673,-1298.2852 1541,-1298.2852 1541,-1262.2852 1673,-1262.2852 1673,-1298.2852"/>
<text text-anchor="middle" x="1607" y="-1276.5852" font-family="Courier,monospace" font-size="14.00" fill="#de958e">dash_cytoscape</text>
</g>
<!-- dash_cytoscape&#45;&gt;hidebound.server.components -->
<g id="edge35" class="edge">
<title>dash_cytoscape&#45;&gt;hidebound.server.components</title>
<path fill="none" stroke="#de958e" d="M1673.1104,-1264.1948C1712.9561,-1254.4969 1764.0788,-1242.0543 1806.7362,-1231.6721"/>
<polygon fill="#de958e" stroke="#de958e" points="1807.6525,-1235.0514 1816.5412,-1229.2857 1805.9971,-1228.2499 1807.6525,-1235.0514"/>
</g>
<!-- hidebound.server -->
<g id="node21" class="node">
<title>hidebound.server</title>
<polygon fill="#343434" stroke="#343434" points="1389.5,-1252.2852 1240.5,-1252.2852 1240.5,-1216.2852 1389.5,-1216.2852 1389.5,-1252.2852"/>
<text text-anchor="middle" x="1315" y="-1230.5852" font-family="Courier,monospace" font-size="14.00" fill="#a0d17b">hidebound.server</text>
</g>
<!-- hidebound.server&#45;&gt;hidebound.server.api -->
<g id="edge36" class="edge">
<title>hidebound.server&#45;&gt;hidebound.server.api</title>
<path fill="none" stroke="#a0d17b" d="M1389.7651,-1233.6967C1409.5636,-1229.8539 1429.2299,-1222.0821 1443,-1207.2852 1523.3733,-1120.9189 1396.8531,-1028.9663 1479,-944.2852 1559.3316,-861.4754 1623.812,-932.0724 1735,-901.2852 1771.5669,-891.16 1811.3747,-875.4505 1841.5588,-862.5097"/>
<polygon fill="#a0d17b" stroke="#a0d17b" points="1843.2208,-865.604 1851.0043,-858.416 1840.4372,-859.1813 1843.2208,-865.604"/>
</g>
<!-- hidebound.server&#45;&gt;hidebound.server.app -->
<g id="edge37" class="edge">
<title>hidebound.server&#45;&gt;hidebound.server.app</title>
<path fill="none" stroke="#a0d17b" d="M1389.6383,-1233.1923C1409.3151,-1229.3187 1428.9486,-1221.6569 1443,-1207.2852 1503.6955,-1145.2059 1416.2176,-1075.2531 1479,-1015.2852 1556.4602,-941.2975 1871.3449,-944.9459 2035.832,-952.3175"/>
<polygon fill="#a0d17b" stroke="#a0d17b" points="2035.8117,-955.8202 2045.9624,-952.7848 2036.1343,-948.8276 2035.8117,-955.8202"/>
</g>
<!-- hidebound.server&#45;&gt;hidebound.server.components -->
<g id="edge38" class="edge">
<title>hidebound.server&#45;&gt;hidebound.server.components</title>
<path fill="none" stroke="#a0d17b" d="M1389.6466,-1231.3019C1483.5275,-1227.5499 1646.2603,-1221.0463 1760.6992,-1216.4727"/>
<polygon fill="#a0d17b" stroke="#a0d17b" points="1761.0735,-1219.9606 1770.9257,-1216.064 1760.7939,-1212.9662 1761.0735,-1219.9606"/>
</g>
<!-- hidebound.server&#45;&gt;hidebound.server.server_tools -->
<g id="edge39" class="edge">
<title>hidebound.server&#45;&gt;hidebound.server.server_tools</title>
<path fill="none" stroke="#a0d17b" d="M1389.5926,-1233.9098C1409.5076,-1230.0934 1429.2795,-1222.2824 1443,-1207.2852 1533.9442,-1107.8787 1389.9148,-1007.361 1479,-906.2852 1481.5345,-903.4095 1484.2847,-900.773 1487.2114,-898.3568"/>
<polygon fill="#a0d17b" stroke="#a0d17b" points="1489.3012,-901.1648 1495.3442,-892.4623 1485.1932,-895.4969 1489.3012,-901.1648"/>
</g>
<!-- dash_html_components -->
<g id="node22" class="node">
<title>dash_html_components</title>
<polygon fill="#343434" stroke="#343434" points="1698,-1114.2852 1516,-1114.2852 1516,-1078.2852 1698,-1078.2852 1698,-1114.2852"/>
<text text-anchor="middle" x="1607" y="-1092.5852" font-family="Courier,monospace" font-size="14.00" fill="#de958e">dash_html_components</text>
</g>
<!-- dash_html_components&#45;&gt;hidebound.server.app -->
<g id="edge40" class="edge">
<title>dash_html_components&#45;&gt;hidebound.server.app</title>
<path fill="none" stroke="#de958e" d="M1698.2246,-1081.6418C1780.6944,-1067.2705 1904.9185,-1042.7888 2010,-1010.2852 2036.5066,-1002.0862 2065.1783,-990.586 2088.5601,-980.4847"/>
<polygon fill="#de958e" stroke="#de958e" points="2090.1421,-983.613 2097.9038,-976.4015 2087.339,-977.1988 2090.1421,-983.613"/>
</g>
<!-- dash_html_components&#45;&gt;hidebound.server.components -->
<g id="edge41" class="edge">
<title>dash_html_components&#45;&gt;hidebound.server.components</title>
<path fill="none" stroke="#de958e" d="M1691.5731,-1114.3005C1706.2475,-1118.3094 1721.2128,-1122.9751 1735,-1128.2852 1777.1055,-1144.5019 1822.2927,-1169.5717 1853.0441,-1187.9171"/>
<polygon fill="#de958e" stroke="#de958e" points="1851.34,-1190.9765 1861.7119,-1193.1383 1854.9519,-1184.9803 1851.34,-1190.9765"/>
</g>
<!-- dash_table -->
<g id="node23" class="node">
<title>dash_table</title>
<polygon fill="#343434" stroke="#343434" points="1656.5,-1060.2852 1557.5,-1060.2852 1557.5,-1024.2852 1656.5,-1024.2852 1656.5,-1060.2852"/>
<text text-anchor="middle" x="1607" y="-1038.5852" font-family="Courier,monospace" font-size="14.00" fill="#de958e">dash_table</text>
</g>
<!-- dash_table&#45;&gt;hidebound.server.app -->
<g id="edge42" class="edge">
<title>dash_table&#45;&gt;hidebound.server.app</title>
<path fill="none" stroke="#de958e" d="M1656.8611,-1034.3827C1743.2839,-1020.6855 1922.5004,-992.2813 2035.8629,-974.3145"/>
<polygon fill="#de958e" stroke="#de958e" points="2036.6139,-977.7392 2045.9427,-972.7169 2035.5181,-970.8255 2036.6139,-977.7392"/>
</g>
<!-- dash_table&#45;&gt;hidebound.server.components -->
<g id="edge43" class="edge">
<title>dash_table&#45;&gt;hidebound.server.components</title>
<path fill="none" stroke="#de958e" d="M1656.7693,-1046.5626C1681.3572,-1050.192 1710.8519,-1056.8979 1735,-1069.2852 1791.3768,-1098.2048 1842.6898,-1153.0503 1869.9561,-1185.4631"/>
<polygon fill="#de958e" stroke="#de958e" points="1867.2835,-1187.7233 1876.3585,-1193.1908 1872.6738,-1183.2574 1867.2835,-1187.7233"/>
</g>
<!-- flask -->
<g id="node24" class="node">
<title>flask</title>
<polygon fill="#343434" stroke="#343434" points="1344,-1344.2852 1286,-1344.2852 1286,-1308.2852 1344,-1308.2852 1344,-1344.2852"/>
<text text-anchor="middle" x="1315" y="-1322.5852" font-family="Courier,monospace" font-size="14.00" fill="#de958e">flask</text>
</g>
<!-- flask&#45;&gt;hidebound.server.api -->
<g id="edge44" class="edge">
<title>flask&#45;&gt;hidebound.server.api</title>
<path fill="none" stroke="#de958e" d="M1344.018,-1319.8445C1373.8825,-1311.6063 1419.2926,-1294.2753 1443,-1261.2852 1507.4829,-1171.5537 1407.1086,-1099.1982 1479,-1015.2852 1556.4699,-924.8607 1626.5799,-985.5118 1735,-936.2852 1779.4353,-916.1099 1826.611,-885.5216 1857.1921,-864.3171"/>
<polygon fill="#de958e" stroke="#de958e" points="1859.559,-866.9327 1865.7446,-858.331 1855.545,-861.1978 1859.559,-866.9327"/>
</g>
<!-- flask&#45;&gt;hidebound.server.app -->
<g id="edge45" class="edge">
<title>flask&#45;&gt;hidebound.server.app</title>
<path fill="none" stroke="#de958e" d="M1330.8641,-1344.7181C1357.7655,-1374.3916 1415.6216,-1431.6144 1479,-1453.2852 1704.827,-1530.5014 1840.0725,-1540.8705 2010,-1373.2852 2066.7196,-1317.3474 2116.3875,-1070.6742 2131.9547,-986.5255"/>
<polygon fill="#de958e" stroke="#de958e" points="2135.4049,-987.1148 2133.7628,-976.648 2128.5193,-985.8543 2135.4049,-987.1148"/>
</g>
<!-- flask&#45;&gt;hidebound.server.components -->
<g id="edge46" class="edge">
<title>flask&#45;&gt;hidebound.server.components</title>
<path fill="none" stroke="#de958e" d="M1344.114,-1329.8778C1413.6143,-1337.4133 1593.9315,-1350.7911 1735,-1307.2852 1783.2194,-1292.4141 1831.5443,-1258.9666 1861.2316,-1235.7649"/>
<polygon fill="#de958e" stroke="#de958e" points="1863.4433,-1238.4779 1869.0951,-1229.5164 1859.0885,-1232.9974 1863.4433,-1238.4779"/>
</g>
<!-- flask&#45;&gt;hidebound.server.server_tools -->
<g id="edge47" class="edge">
<title>flask&#45;&gt;hidebound.server.server_tools</title>
<path fill="none" stroke="#de958e" d="M1344.1293,-1319.9237C1374.0867,-1311.7517 1419.5736,-1294.4755 1443,-1261.2852 1515.0972,-1159.1383 1419.1536,-1092.0595 1479,-982.2852 1498.7388,-946.0788 1535.8939,-916.8414 1565.109,-897.9641"/>
<polygon fill="#de958e" stroke="#de958e" points="1567.2896,-900.7275 1573.8928,-892.442 1563.5639,-894.8013 1567.2896,-900.7275"/>
</g>
<!-- rolling_pin.blob_etl -->
<g id="node25" class="node">
<title>rolling_pin.blob_etl</title>
<polygon fill="#343434" stroke="#343434" points="1698,-1206.2852 1516,-1206.2852 1516,-1170.2852 1698,-1170.2852 1698,-1206.2852"/>
<text text-anchor="middle" x="1607" y="-1184.5852" font-family="Courier,monospace" font-size="14.00" fill="#de958e">rolling_pin.blob_etl</text>
</g>
<!-- rolling_pin.blob_etl&#45;&gt;hidebound.server.components -->
<g id="edge48" class="edge">
<title>rolling_pin.blob_etl&#45;&gt;hidebound.server.components</title>
<path fill="none" stroke="#de958e" d="M1698.2617,-1195.6891C1718.2441,-1197.3103 1739.7663,-1199.0563 1760.924,-1200.7728"/>
<polygon fill="#de958e" stroke="#de958e" points="1760.691,-1204.2653 1770.9413,-1201.5855 1761.2571,-1197.2883 1760.691,-1204.2653"/>
</g>
<!-- dash.dependencies -->
<g id="node26" class="node">
<title>dash.dependencies</title>
<polygon fill="#343434" stroke="#343434" points="1969,-751.2852 1812,-751.2852 1812,-715.2852 1969,-715.2852 1969,-751.2852"/>
<text text-anchor="middle" x="1890.5" y="-729.5852" font-family="Courier,monospace" font-size="14.00" fill="#de958e">dash.dependencies</text>
</g>
<!-- dash.dependencies&#45;&gt;hidebound.server.app -->
<g id="edge49" class="edge">
<title>dash.dependencies&#45;&gt;hidebound.server.app</title>
<path fill="none" stroke="#de958e" d="M1969.0887,-745.5802C1983.5576,-750.1976 1997.8968,-756.5488 2010,-765.2852 2069.6162,-808.3173 2108.9714,-888.6765 2126.5153,-930.8451"/>
<polygon fill="#de958e" stroke="#de958e" points="2123.3121,-932.2597 2130.3134,-940.2116 2129.799,-929.6293 2123.3121,-932.2597"/>
</g>
<!-- jinja2 -->
<g id="node27" class="node">
<title>jinja2</title>
<polygon fill="#343434" stroke="#343434" points="1348,-1198.2852 1282,-1198.2852 1282,-1162.2852 1348,-1162.2852 1348,-1198.2852"/>
<text text-anchor="middle" x="1315" y="-1176.5852" font-family="Courier,monospace" font-size="14.00" fill="#de958e">jinja2</text>
</g>
<!-- jinja2&#45;&gt;hidebound.server.server_tools -->
<g id="edge50" class="edge">
<title>jinja2&#45;&gt;hidebound.server.server_tools</title>
<path fill="none" stroke="#de958e" d="M1348.1953,-1181.5444C1377.5233,-1180.7258 1419.2221,-1174.497 1443,-1148.2852 1516.0599,-1067.7467 1405.9401,-986.8236 1479,-906.2852 1481.6163,-903.401 1484.4497,-900.7588 1487.4596,-898.3391"/>
<polygon fill="#de958e" stroke="#de958e" points="1489.6626,-901.0682 1495.8118,-892.4404 1485.6244,-895.3503 1489.6626,-901.0682"/>
</g>
<!-- hidebound.exporters -->
<g id="node28" class="node">
<title>hidebound.exporters</title>
<polygon fill="#343434" stroke="#343434" points="476.5,-266.2852 303.5,-266.2852 303.5,-230.2852 476.5,-230.2852 476.5,-266.2852"/>
<text text-anchor="middle" x="390" y="-244.5852" font-family="Courier,monospace" font-size="14.00" fill="#a0d17b">hidebound.exporters</text>
</g>
<!-- hidebound.exporters&#45;&gt;hidebound.exporters.exporter_base -->
<g id="edge51" class="edge">
<title>hidebound.exporters&#45;&gt;hidebound.exporters.exporter_base</title>
<path fill="none" stroke="#a0d17b" d="M424.2159,-230.1855C450.1852,-217.052 487.0865,-199.6639 521,-188.2852 533.6434,-184.043 547.0997,-180.2057 560.5197,-176.7833"/>
<polygon fill="#a0d17b" stroke="#a0d17b" points="561.4092,-180.1688 570.2729,-174.3648 559.7244,-173.3746 561.4092,-180.1688"/>
</g>
<!-- hidebound.exporters&#45;&gt;hidebound.exporters.girder_exporter -->
<g id="edge52" class="edge">
<title>hidebound.exporters&#45;&gt;hidebound.exporters.girder_exporter</title>
<path fill="none" stroke="#a0d17b" d="M472.9894,-266.3355C488.8877,-269.5251 505.4293,-272.6604 521,-275.2852 648.7477,-296.8195 681.6551,-295.6561 810,-313.2852 827.4789,-315.686 845.8621,-318.2593 864.013,-320.8287"/>
<polygon fill="#a0d17b" stroke="#a0d17b" points="863.6733,-324.3154 874.0658,-322.2546 864.6564,-317.3848 863.6733,-324.3154"/>
</g>
<!-- hidebound.exporters&#45;&gt;hidebound.exporters.s3_exporter -->
<g id="edge53" class="edge">
<title>hidebound.exporters&#45;&gt;hidebound.exporters.s3_exporter</title>
<path fill="none" stroke="#a0d17b" d="M464.4112,-230.2199C482.7956,-226.5134 502.519,-223.1699 521,-221.2852 648.7817,-208.2538 681.8804,-212.1561 810,-221.2852 833.2275,-222.9402 857.9436,-225.7286 881.5707,-228.9013"/>
<polygon fill="#a0d17b" stroke="#a0d17b" points="881.239,-232.3885 891.6224,-230.2823 882.1919,-225.4537 881.239,-232.3885"/>
</g>
<!-- flasgger -->
<g id="node29" class="node">
<title>flasgger</title>
<polygon fill="#343434" stroke="#343434" points="1648.5,-705.2852 1565.5,-705.2852 1565.5,-669.2852 1648.5,-669.2852 1648.5,-705.2852"/>
<text text-anchor="middle" x="1607" y="-683.5852" font-family="Courier,monospace" font-size="14.00" fill="#de958e">flasgger</text>
</g>
<!-- flasgger&#45;&gt;hidebound.server.api -->
<g id="edge54" class="edge">
<title>flasgger&#45;&gt;hidebound.server.api</title>
<path fill="none" stroke="#de958e" d="M1648.7608,-688.818C1675.9386,-691.7986 1710.7172,-699.5884 1735,-719.2852 1763.4047,-742.3254 1744.1487,-768.452 1771,-793.2852 1782.2107,-803.6533 1795.9773,-811.8379 1810.1294,-818.2652"/>
<polygon fill="#de958e" stroke="#de958e" points="1808.8903,-821.5416 1819.4621,-822.2403 1811.6335,-815.1014 1808.8903,-821.5416"/>
</g>
<!-- flasgger&#45;&gt;hidebound.server.app -->
<g id="edge55" class="edge">
<title>flasgger&#45;&gt;hidebound.server.app</title>
<path fill="none" stroke="#de958e" d="M1648.6605,-684.096C1739.385,-677.9604 1951.3881,-668.2566 2010,-706.2852 2089.7579,-758.0337 2121.5743,-876.1374 2132.3011,-930.257"/>
<polygon fill="#de958e" stroke="#de958e" points="2128.8814,-931.0105 2134.1732,-940.1892 2135.7603,-929.7139 2128.8814,-931.0105"/>
</g>
<!-- pandasql -->
<g id="node30" class="node">
<title>pandasql</title>
<polygon fill="#343434" stroke="#343434" points="1356.5,-751.2852 1273.5,-751.2852 1273.5,-715.2852 1356.5,-715.2852 1356.5,-751.2852"/>
<text text-anchor="middle" x="1315" y="-729.5852" font-family="Courier,monospace" font-size="14.00" fill="#de958e">pandasql</text>
</g>
<!-- pandasql&#45;&gt;hidebound.core.database -->
<g id="edge56" class="edge">
<title>pandasql&#45;&gt;hidebound.core.database</title>
<path fill="none" stroke="#de958e" d="M1356.5264,-739.827C1392.3214,-745.4659 1445.7108,-753.8766 1494.0129,-761.4858"/>
<polygon fill="#de958e" stroke="#de958e" points="1493.4933,-764.9471 1503.9161,-763.0459 1494.5826,-758.0323 1493.4933,-764.9471"/>
</g>
<!-- dash.exceptions -->
<g id="node31" class="node">
<title>dash.exceptions</title>
<polygon fill="#343434" stroke="#343434" points="1960.5,-659.2852 1820.5,-659.2852 1820.5,-623.2852 1960.5,-623.2852 1960.5,-659.2852"/>
<text text-anchor="middle" x="1890.5" y="-637.5852" font-family="Courier,monospace" font-size="14.00" fill="#de958e">dash.exceptions</text>
</g>
<!-- dash.exceptions&#45;&gt;hidebound.server.app -->
<g id="edge57" class="edge">
<title>dash.exceptions&#45;&gt;hidebound.server.app</title>
<path fill="none" stroke="#de958e" d="M1960.6405,-649.1787C1978.2767,-653.9226 1996.1153,-661.4322 2010,-673.2852 2090.6993,-742.1756 2122.2569,-872.4947 2132.6288,-929.9081"/>
<polygon fill="#de958e" stroke="#de958e" points="2129.2313,-930.8034 2134.3776,-940.0644 2136.1298,-929.6155 2129.2313,-930.8034"/>
</g>
<!-- boto3 -->
<g id="node32" class="node">
<title>boto3</title>
<polygon fill="#343434" stroke="#343434" points="694.5,-120.2852 636.5,-120.2852 636.5,-84.2852 694.5,-84.2852 694.5,-120.2852"/>
<text text-anchor="middle" x="665.5" y="-98.5852" font-family="Courier,monospace" font-size="14.00" fill="#de958e">boto3</text>
</g>
<!-- boto3&#45;&gt;hidebound.exporters.s3_exporter -->
<g id="edge58" class="edge">
<title>boto3&#45;&gt;hidebound.exporters.s3_exporter</title>
<path fill="none" stroke="#de958e" d="M694.6265,-104.4797C724.4585,-107.467 771.7503,-114.2768 810,-129.2852 870.3695,-152.9729 932.4702,-196.6355 968.1708,-223.9748"/>
<polygon fill="#de958e" stroke="#de958e" points="966.1836,-226.8626 976.2335,-230.2167 970.4687,-221.3275 966.1836,-226.8626"/>
</g>
<!-- jsoncomment -->
<g id="node33" class="node">
<title>jsoncomment</title>
<polygon fill="#343434" stroke="#343434" points="443.5,-74.2852 336.5,-74.2852 336.5,-38.2852 443.5,-38.2852 443.5,-74.2852"/>
<text text-anchor="middle" x="390" y="-52.5852" font-family="Courier,monospace" font-size="14.00" fill="#de958e">jsoncomment</text>
</g>
<!-- jsoncomment&#45;&gt;hidebound.core.database -->
<g id="edge59" class="edge">
<title>jsoncomment&#45;&gt;hidebound.core.database</title>
<path fill="none" stroke="#de958e" d="M443.6309,-42.9611C572.1629,-13.8538 905.3475,44.7105 1151,-61.2852 1315.2443,-132.1543 1364.6127,-177.4932 1443,-338.2852 1516.5643,-489.1839 1384.462,-575.56 1479,-714.2852 1492.082,-733.4817 1512.6058,-747.3162 1533.4183,-757.1485"/>
<polygon fill="#de958e" stroke="#de958e" points="1532.0942,-760.3901 1542.6537,-761.255 1534.9383,-753.9939 1532.0942,-760.3901"/>
</g>
<!-- jsoncomment&#45;&gt;hidebound.exporters.exporter_base -->
<g id="edge60" class="edge">
<title>jsoncomment&#45;&gt;hidebound.exporters.exporter_base</title>
<path fill="none" stroke="#de958e" d="M416.3721,-74.3639C441.9934,-91.0903 482.5539,-115.401 521,-129.2852 527.2897,-131.5566 533.8057,-133.6459 540.4359,-135.5666"/>
<polygon fill="#de958e" stroke="#de958e" points="539.6478,-138.9798 550.2183,-138.2615 541.507,-132.2312 539.6478,-138.9798"/>
</g>
<!-- jsoncomment&#45;&gt;hidebound.server.server_tools -->
<g id="edge61" class="edge">
<title>jsoncomment&#45;&gt;hidebound.server.server_tools</title>
<path fill="none" stroke="#de958e" d="M443.5284,-52.6535C524.1505,-48.5335 681.0343,-45.7854 810,-75.2852 970.7117,-112.0466 1009.2461,-137.1098 1151,-221.2852 1293.0457,-305.6338 1363.4589,-306.4927 1443,-451.2852 1519.3562,-590.28 1390.5363,-674.6645 1479,-806.2852 1492.7561,-826.7521 1514.7379,-841.5141 1536.6319,-851.9397"/>
<polygon fill="#de958e" stroke="#de958e" points="1535.4296,-855.2367 1545.9854,-856.1463 1538.3008,-848.8526 1535.4296,-855.2367"/>
</g>
<!-- girder_client -->
<g id="node34" class="node">
<title>girder_client</title>
<polygon fill="#343434" stroke="#343434" points="727.5,-358.2852 603.5,-358.2852 603.5,-322.2852 727.5,-322.2852 727.5,-358.2852"/>
<text text-anchor="middle" x="665.5" y="-336.5852" font-family="Courier,monospace" font-size="14.00" fill="#de958e">girder_client</text>
</g>
<!-- girder_client&#45;&gt;hidebound.exporters.girder_exporter -->
<g id="edge62" class="edge">
<title>girder_client&#45;&gt;hidebound.exporters.girder_exporter</title>
<path fill="none" stroke="#de958e" d="M727.7441,-340.2852C758.5033,-340.2852 797.2059,-340.2852 835.6489,-340.2852"/>
<polygon fill="#de958e" stroke="#de958e" points="835.9429,-343.7853 845.9428,-340.2852 835.9428,-336.7853 835.9429,-343.7853"/>
</g>
<!-- lunchbox.tools -->
<g id="node35" class="node">
<title>lunchbox.tools</title>
<polygon fill="#343434" stroke="#343434" points="1064.5,-1160.2852 932.5,-1160.2852 932.5,-1124.2852 1064.5,-1124.2852 1064.5,-1160.2852"/>
<text text-anchor="middle" x="998.5" y="-1138.5852" font-family="Courier,monospace" font-size="14.00" fill="#de958e">lunchbox.tools</text>
</g>
<!-- lunchbox.tools&#45;&gt;hidebound.core.database_tools -->
<g id="edge63" class="edge">
<title>lunchbox.tools&#45;&gt;hidebound.core.database_tools</title>
<path fill="none" stroke="#de958e" d="M1052.9896,-1124.2574C1083.678,-1112.4627 1121.6205,-1095.0104 1151,-1072.2852 1216.5482,-1021.5834 1272.5931,-939.9292 1298.9337,-898.0088"/>
<polygon fill="#de958e" stroke="#de958e" points="1301.9455,-899.7932 1304.2442,-889.4508 1295.9976,-896.1024 1301.9455,-899.7932"/>
</g>
<!-- lunchbox.tools&#45;&gt;hidebound.server.server_tools -->
<g id="edge64" class="edge">
<title>lunchbox.tools&#45;&gt;hidebound.server.server_tools</title>
<path fill="none" stroke="#de958e" d="M1064.6242,-1140.7635C1174.913,-1136.8197 1389.6066,-1122.7003 1443,-1072.2852 1497.8904,-1020.4565 1426.4637,-960.4986 1479,-906.2852 1482.0038,-903.1855 1485.259,-900.3687 1488.7121,-897.81"/>
<polygon fill="#de958e" stroke="#de958e" points="1490.6682,-900.7127 1497.1039,-892.2965 1486.8245,-894.8624 1490.6682,-900.7127"/>
</g>
<!-- hidebound -->
<g id="node36" class="node">
<title>hidebound</title>
<polygon fill="#343434" stroke="#343434" points="91,-870.2852 0,-870.2852 0,-834.2852 91,-834.2852 91,-870.2852"/>
<text text-anchor="middle" x="45.5" y="-848.5852" font-family="Courier,monospace" font-size="14.00" fill="#a0d17b">hidebound</text>
</g>
<!-- hidebound&#45;&gt;hidebound.server -->
<g id="edge65" class="edge">
<title>hidebound&#45;&gt;hidebound.server</title>
<path fill="none" stroke="#a0d17b" d="M55.4754,-870.296C84.8563,-921.5786 176.4954,-1069.3664 295,-1142.2852 596.2932,-1327.6782 1045.3811,-1280.467 1230.5352,-1250.2276"/>
<polygon fill="#a0d17b" stroke="#a0d17b" points="1231.192,-1253.6665 1240.4845,-1248.5772 1230.0465,-1246.7609 1231.192,-1253.6665"/>
</g>
<!-- hidebound&#45;&gt;hidebound.exporters -->
<g id="edge66" class="edge">
<title>hidebound&#45;&gt;hidebound.exporters</title>
<path fill="none" stroke="#a0d17b" d="M83.3935,-834.055C86.3187,-831.4573 88.9325,-828.5422 91,-825.2852 180.494,-684.3006 46.2519,-597.4548 127,-451.2852 175.2825,-363.8845 278.5297,-301.8611 340.3262,-270.86"/>
<polygon fill="#a0d17b" stroke="#a0d17b" points="342.0837,-273.8957 349.5024,-266.3317 338.986,-267.6185 342.0837,-273.8957"/>
</g>
<!-- hidebound.core -->
<g id="node43" class="node">
<title>hidebound.core</title>
<polygon fill="#343434" stroke="#343434" points="259,-870.2852 127,-870.2852 127,-834.2852 259,-834.2852 259,-870.2852"/>
<text text-anchor="middle" x="193" y="-848.5852" font-family="Courier,monospace" font-size="14.00" fill="#a0d17b">hidebound.core</text>
</g>
<!-- hidebound&#45;&gt;hidebound.core -->
<g id="edge67" class="edge">
<title>hidebound&#45;&gt;hidebound.core</title>
<path fill="none" stroke="#a0d17b" d="M91.3614,-852.2852C99.4456,-852.2852 108.0541,-852.2852 116.7093,-852.2852"/>
<polygon fill="#a0d17b" stroke="#a0d17b" points="116.8627,-855.7853 126.8626,-852.2852 116.8626,-848.7853 116.8627,-855.7853"/>
</g>
<!-- numpy -->
<g id="node37" class="node">
<title>numpy</title>
<polygon fill="#343434" stroke="#343434" points="1027.5,-748.2852 969.5,-748.2852 969.5,-712.2852 1027.5,-712.2852 1027.5,-748.2852"/>
<text text-anchor="middle" x="998.5" y="-726.5852" font-family="Courier,monospace" font-size="14.00" fill="#de958e">numpy</text>
</g>
<!-- numpy&#45;&gt;hidebound.core.database -->
<g id="edge68" class="edge">
<title>numpy&#45;&gt;hidebound.core.database</title>
<path fill="none" stroke="#de958e" d="M1027.7515,-735.9897C1064.6966,-742.952 1130.2968,-754.509 1187,-760.2852 1290.4472,-770.8231 1408.8233,-775.5165 1493.4785,-777.6067"/>
<polygon fill="#de958e" stroke="#de958e" points="1493.5512,-781.1094 1503.6319,-777.849 1493.7182,-774.1114 1493.5512,-781.1094"/>
</g>
<!-- numpy&#45;&gt;hidebound.core.database_tools -->
<g id="edge69" class="edge">
<title>numpy&#45;&gt;hidebound.core.database_tools</title>
<path fill="none" stroke="#de958e" d="M1027.5447,-729.0228C1060.8358,-729.0974 1115.3811,-734.0575 1151,-762.2852 1180.6076,-785.749 1157.8453,-815.261 1187,-839.2852 1191.0935,-842.6583 1195.4937,-845.683 1200.1117,-848.3948"/>
<polygon fill="#de958e" stroke="#de958e" points="1198.7629,-851.6411 1209.2374,-853.2332 1202.0419,-845.4566 1198.7629,-851.6411"/>
</g>
<!-- numpy&#45;&gt;hidebound.server.api -->
<g id="edge70" class="edge">
<title>numpy&#45;&gt;hidebound.server.api</title>
<path fill="none" stroke="#de958e" d="M1027.5462,-733.9207C1058.7283,-738.3854 1109.3942,-747.2754 1151,-762.2852 1168.0181,-768.4246 1169.6407,-776.1896 1187,-781.2852 1394.5201,-842.1996 1650.2064,-847.1706 1789.0596,-844.379"/>
<polygon fill="#de958e" stroke="#de958e" points="1789.341,-847.8738 1799.2619,-844.1556 1789.1877,-840.8755 1789.341,-847.8738"/>
</g>
<!-- schematics -->
<g id="node38" class="node">
<title>schematics</title>
<polygon fill="#343434" stroke="#343434" points="715,-266.2852 616,-266.2852 616,-230.2852 715,-230.2852 715,-266.2852"/>
<text text-anchor="middle" x="665.5" y="-244.5852" font-family="Courier,monospace" font-size="14.00" fill="#de958e">schematics</text>
</g>
<!-- schematics&#45;&gt;hidebound.core.config -->
<g id="edge71" class="edge">
<title>schematics&#45;&gt;hidebound.core.config</title>
<path fill="none" stroke="#de958e" d="M715.252,-256.0627C751.4763,-261.6437 801.7374,-269.2183 846,-275.2852 981.3382,-293.8355 1028.3661,-253.1065 1151,-313.2852 1216.2885,-345.3234 1270.8694,-413.9237 1297.5048,-451.8016"/>
<polygon fill="#de958e" stroke="#de958e" points="1294.8005,-454.0449 1303.3631,-460.2845 1300.5604,-450.0671 1294.8005,-454.0449"/>
</g>
<!-- schematics&#45;&gt;hidebound.core.specification_base -->
<g id="edge72" class="edge">
<title>schematics&#45;&gt;hidebound.core.specification_base</title>
<path fill="none" stroke="#de958e" d="M715.2592,-262.7966C745.1029,-273.3022 782.478,-289.8112 810,-313.2852 811.4714,-314.5401 934.5415,-502.5329 981.0054,-573.5433"/>
<polygon fill="#de958e" stroke="#de958e" points="978.1274,-575.5372 986.5313,-581.9889 983.985,-571.7046 978.1274,-575.5372"/>
</g>
<!-- schematics&#45;&gt;hidebound.exporters.girder_exporter -->
<g id="edge73" class="edge">
<title>schematics&#45;&gt;hidebound.exporters.girder_exporter</title>
<path fill="none" stroke="#de958e" d="M715.0915,-253.7374C743.8291,-258.2292 780.1201,-266.2369 810,-280.2852 828.3435,-288.9095 827.6089,-299.7628 846,-308.2852 854.9282,-312.4225 864.3982,-316.0301 874.0756,-319.1751"/>
<polygon fill="#de958e" stroke="#de958e" points="873.2227,-322.5745 883.8098,-322.1683 875.2802,-315.8837 873.2227,-322.5745"/>
</g>
<!-- schematics&#45;&gt;hidebound.exporters.s3_exporter -->
<g id="edge74" class="edge">
<title>schematics&#45;&gt;hidebound.exporters.s3_exporter</title>
<path fill="none" stroke="#de958e" d="M715.3535,-248.2852C751.7633,-248.2852 803.1288,-248.2852 852.1331,-248.2852"/>
<polygon fill="#de958e" stroke="#de958e" points="852.2221,-251.7853 862.2221,-248.2852 852.222,-244.7853 852.2221,-251.7853"/>
</g>
<!-- pandas -->
<g id="node39" class="node">
<title>pandas</title>
<polygon fill="#343434" stroke="#343434" points="423,-1084.2852 357,-1084.2852 357,-1048.2852 423,-1048.2852 423,-1084.2852"/>
<text text-anchor="middle" x="390" y="-1062.5852" font-family="Courier,monospace" font-size="14.00" fill="#de958e">pandas</text>
</g>
<!-- pandas&#45;&gt;hidebound.core.database -->
<g id="edge75" class="edge">
<title>pandas&#45;&gt;hidebound.core.database</title>
<path fill="none" stroke="#de958e" d="M423.0092,-1071.444C449.4373,-1075.3015 487.4958,-1080.2467 521,-1082.2852 800.9648,-1099.319 876.7564,-1104.1143 1151,-1045.2852 1284.4378,-1016.6609 1345.4574,-1045.7337 1443,-950.2852 1477.66,-916.3693 1447.4142,-884.0811 1479,-847.2852 1496.1423,-827.3152 1520.6428,-812.3125 1543.6277,-801.5517"/>
<polygon fill="#de958e" stroke="#de958e" points="1545.3242,-804.6268 1553.0186,-797.3435 1542.4617,-798.2389 1545.3242,-804.6268"/>
</g>
<!-- pandas&#45;&gt;hidebound.core.database_tools -->
<g id="edge76" class="edge">
<title>pandas&#45;&gt;hidebound.core.database_tools</title>
<path fill="none" stroke="#de958e" d="M423.0653,-1069.7436C531.9121,-1079.8019 887.1379,-1102.0178 1151,-996.2852 1207.1293,-973.7935 1260.5844,-926.566 1290.4598,-897.0348"/>
<polygon fill="#de958e" stroke="#de958e" points="1293.3143,-899.1283 1297.8892,-889.5721 1288.3535,-894.1897 1293.3143,-899.1283"/>
</g>
<!-- pandas&#45;&gt;hidebound.core.tools -->
<g id="edge77" class="edge">
<title>pandas&#45;&gt;hidebound.core.tools</title>
<path fill="none" stroke="#de958e" d="M423.2317,-1050.6041C471.8001,-1027.6862 562.4216,-984.9247 618.0103,-958.6941"/>
<polygon fill="#de958e" stroke="#de958e" points="619.7412,-961.7475 627.2913,-954.3147 616.7539,-955.4169 619.7412,-961.7475"/>
</g>
<!-- pandas&#45;&gt;hidebound.core.validators -->
<g id="edge78" class="edge">
<title>pandas&#45;&gt;hidebound.core.validators</title>
<path fill="none" stroke="#de958e" d="M404.6226,-1048.1216C424.9344,-1022.1795 461.801,-972.4262 485,-925.2852 507.3408,-879.8881 501.7656,-864.083 521,-817.2852 562.3221,-716.7471 622.7584,-602.5305 650.5315,-551.4614"/>
<polygon fill="#de958e" stroke="#de958e" points="653.7614,-552.8492 655.4804,-542.3947 647.6171,-549.4953 653.7614,-552.8492"/>
</g>
<!-- pandas&#45;&gt;hidebound.server.components -->
<g id="edge79" class="edge">
<title>pandas&#45;&gt;hidebound.server.components</title>
<path fill="none" stroke="#de958e" d="M423.0508,-1075.3634C449.502,-1082.569 487.5715,-1092.8055 521,-1101.2852 722.5672,-1152.4156 1272.866,-1380.8598 1443,-1261.2852 1481.6465,-1234.1234 1440.3535,-1188.4469 1479,-1161.2852 1592.1579,-1081.7548 1767.3342,-1149.8165 1847.6348,-1188.6891"/>
<polygon fill="#de958e" stroke="#de958e" points="1846.429,-1191.9966 1856.9467,-1193.2731 1849.5207,-1185.7163 1846.429,-1191.9966"/>
</g>
<!-- pyparsing -->
<g id="node40" class="node">
<title>pyparsing</title>
<polygon fill="#343434" stroke="#343434" points="238.5,-496.2852 147.5,-496.2852 147.5,-460.2852 238.5,-460.2852 238.5,-496.2852"/>
<text text-anchor="middle" x="193" y="-474.5852" font-family="Courier,monospace" font-size="14.00" fill="#de958e">pyparsing</text>
</g>
<!-- pyparsing&#45;&gt;hidebound.core.parser -->
<g id="edge80" class="edge">
<title>pyparsing&#45;&gt;hidebound.core.parser</title>
<path fill="none" stroke="#de958e" d="M218.0456,-496.4335C238.6295,-511.2948 268.595,-532.8061 295,-551.2852 314.6987,-565.0709 336.8646,-580.2556 354.8279,-592.4794"/>
<polygon fill="#de958e" stroke="#de958e" points="353.0413,-595.497 363.2794,-598.2232 356.976,-589.7074 353.0413,-595.497"/>
</g>
<!-- pyparsing&#45;&gt;hidebound.core.specification_base -->
<g id="edge81" class="edge">
<title>pyparsing&#45;&gt;hidebound.core.specification_base</title>
<path fill="none" stroke="#de958e" d="M238.6761,-472.2252C342.5815,-460.0342 603.6168,-438.4504 810,-497.2852 868.5195,-513.9677 929.0207,-551.2291 965.2028,-576.0582"/>
<polygon fill="#de958e" stroke="#de958e" points="963.6541,-579.2445 973.8617,-582.0828 967.652,-573.4985 963.6541,-579.2445"/>
</g>
<!-- pyparsing&#45;&gt;hidebound.core.validators -->
<g id="edge82" class="edge">
<title>pyparsing&#45;&gt;hidebound.core.validators</title>
<path fill="none" stroke="#de958e" d="M238.6213,-480.0731C296.1705,-482.5997 398.1184,-487.9769 485,-497.2852 504.4052,-499.3642 524.9215,-502.0058 544.8909,-504.8189"/>
<polygon fill="#de958e" stroke="#de958e" points="544.5629,-508.3075 554.9575,-506.2575 545.5533,-501.3779 544.5629,-508.3075"/>
</g>
<!-- schematics.types -->
<g id="node41" class="node">
<title>schematics.types</title>
<polygon fill="#343434" stroke="#343434" points="740,-412.2852 591,-412.2852 591,-376.2852 740,-376.2852 740,-412.2852"/>
<text text-anchor="middle" x="665.5" y="-390.5852" font-family="Courier,monospace" font-size="14.00" fill="#de958e">schematics.types</text>
</g>
<!-- schematics.types&#45;&gt;hidebound.core.config -->
<g id="edge83" class="edge">
<title>schematics.types&#45;&gt;hidebound.core.config</title>
<path fill="none" stroke="#de958e" d="M740.2257,-393.6535C836.1643,-394.1075 1007.3972,-399.1986 1151,-426.2852 1187.7079,-433.2091 1227.69,-445.7781 1258.9868,-456.8243"/>
<polygon fill="#de958e" stroke="#de958e" points="1257.8129,-460.1215 1268.4075,-460.1956 1260.1715,-453.5308 1257.8129,-460.1215"/>
</g>
<!-- schematics.types&#45;&gt;hidebound.core.specification_base -->
<g id="edge84" class="edge">
<title>schematics.types&#45;&gt;hidebound.core.specification_base</title>
<path fill="none" stroke="#de958e" d="M708.7957,-412.3905C738.176,-425.3606 777.4462,-444.053 810,-464.2852 827.2158,-474.9848 829.7251,-480.2025 846,-492.2852 885.882,-521.8939 932.6068,-554.7166 963.7242,-576.3183"/>
<polygon fill="#de958e" stroke="#de958e" points="961.8556,-579.2817 972.0683,-582.1015 965.8432,-573.5284 961.8556,-579.2817"/>
</g>
<!-- schematics.types&#45;&gt;hidebound.core.specifications -->
<g id="edge85" class="edge">
<title>schematics.types&#45;&gt;hidebound.core.specifications</title>
<path fill="none" stroke="#de958e" d="M734.0322,-412.2955C828.5948,-437.6071 1004.0695,-486.2357 1151,-536.2852 1188.6239,-549.1011 1230.344,-565.412 1262.2894,-578.3597"/>
<polygon fill="#de958e" stroke="#de958e" points="1261.2927,-581.7329 1271.8743,-582.2624 1263.9325,-575.2497 1261.2927,-581.7329"/>
</g>
<!-- schematics.types&#45;&gt;hidebound.exporters.girder_exporter -->
<g id="edge86" class="edge">
<title>schematics.types&#45;&gt;hidebound.exporters.girder_exporter</title>
<path fill="none" stroke="#de958e" d="M740.2317,-382.1665C780.6062,-375.6193 831.4504,-367.3743 877.3254,-359.9351"/>
<polygon fill="#de958e" stroke="#de958e" points="878.0266,-363.3672 887.3374,-358.3115 876.906,-356.4575 878.0266,-363.3672"/>
</g>
<!-- schematics.types&#45;&gt;hidebound.exporters.s3_exporter -->
<g id="edge87" class="edge">
<title>schematics.types&#45;&gt;hidebound.exporters.s3_exporter</title>
<path fill="none" stroke="#de958e" d="M740.3228,-391.6526C764.1261,-387.9615 789.5571,-380.7887 810,-367.2852 834.0677,-351.3872 823.8063,-331.7091 846,-313.2852 868.7793,-294.3751 897.8752,-280.167 924.5333,-269.9354"/>
<polygon fill="#de958e" stroke="#de958e" points="926.0664,-273.1 934.2282,-266.3444 923.635,-266.5358 926.0664,-273.1"/>
</g>
<!-- wrapt -->
<g id="node42" class="node">
<title>wrapt</title>
<polygon fill="#343434" stroke="#343434" points="419,-542.2852 361,-542.2852 361,-506.2852 419,-506.2852 419,-542.2852"/>
<text text-anchor="middle" x="390" y="-520.5852" font-family="Courier,monospace" font-size="14.00" fill="#de958e">wrapt</text>
</g>
<!-- wrapt&#45;&gt;hidebound.core.validators -->
<g id="edge88" class="edge">
<title>wrapt&#45;&gt;hidebound.core.validators</title>
<path fill="none" stroke="#de958e" d="M419.2225,-524.2852C449.1543,-524.2852 497.7039,-524.2852 543.8181,-524.2852"/>
<polygon fill="#de958e" stroke="#de958e" points="543.9214,-527.7853 553.9214,-524.2852 543.9214,-520.7853 543.9214,-527.7853"/>
</g>
<!-- hidebound.core&#45;&gt;hidebound.core.config -->
<g id="edge89" class="edge">
<title>hidebound.core&#45;&gt;hidebound.core.config</title>
<path fill="none" stroke="#a0d17b" d="M195.4105,-833.9552C204.5753,-767.3539 239.5607,-539.8533 295,-497.2852 435.4117,-389.4724 978.4924,-438.4501 1209.7587,-465.0917"/>
<polygon fill="#a0d17b" stroke="#a0d17b" points="1209.527,-468.5882 1219.8638,-466.2645 1210.334,-461.6349 1209.527,-468.5882"/>
</g>
<!-- hidebound.core&#45;&gt;hidebound.core.database -->
<g id="edge90" class="edge">
<title>hidebound.core&#45;&gt;hidebound.core.database</title>
<path fill="none" stroke="#a0d17b" d="M194.7286,-870.4245C200.1342,-916.175 221.0655,-1036.6419 295,-1093.2852 446.5948,-1209.4262 966.1212,-1217.1347 1151,-1169.2852 1168.9598,-1164.6369 1431.8795,-1022.1343 1443,-1007.2852 1486.6923,-948.9433 1434.7791,-905.2274 1479,-847.2852 1494.4975,-826.979 1517.8313,-812.0847 1540.3497,-801.5032"/>
<polygon fill="#a0d17b" stroke="#a0d17b" points="1541.888,-804.6494 1549.5883,-797.3722 1539.0307,-798.2591 1541.888,-804.6494"/>
</g>
<!-- hidebound.core&#45;&gt;hidebound.core.database_tools -->
<g id="edge91" class="edge">
<title>hidebound.core&#45;&gt;hidebound.core.database_tools</title>
<path fill="none" stroke="#a0d17b" d="M199.4339,-870.4769C211.99,-902.8277 243.1591,-969.4772 295,-996.2852 379.5668,-1040.0163 1060.0294,-986.3618 1151,-958.2852 1198.2927,-943.689 1247.8592,-915.2993 1279.9545,-894.9162"/>
<polygon fill="#a0d17b" stroke="#a0d17b" points="1282.0134,-897.7534 1288.5274,-889.3976 1278.2244,-891.8675 1282.0134,-897.7534"/>
</g>
<!-- hidebound.core&#45;&gt;hidebound.core.parser -->
<g id="edge92" class="edge">
<title>hidebound.core&#45;&gt;hidebound.core.parser</title>
<path fill="none" stroke="#a0d17b" d="M197.077,-834.141C206.8927,-794.5876 235.5532,-700.0077 295,-648.2852 298.7419,-645.0294 302.8281,-642.102 307.1356,-639.4702"/>
<polygon fill="#a0d17b" stroke="#a0d17b" points="309.1634,-642.3499 316.2484,-634.4725 305.7974,-636.2123 309.1634,-642.3499"/>
</g>
<!-- hidebound.core&#45;&gt;hidebound.core.specification_base -->
<g id="edge93" class="edge">
<title>hidebound.core&#45;&gt;hidebound.core.specification_base</title>
<path fill="none" stroke="#a0d17b" d="M201.9334,-833.8554C217.089,-804.4463 250.5725,-746.9037 295,-714.2852 337.826,-682.8424 468.9702,-647.0377 521,-636.2852 627.3398,-614.309 749.4705,-605.3865 843.5959,-601.9181"/>
<polygon fill="#a0d17b" stroke="#a0d17b" points="843.9004,-605.4097 853.7712,-601.5603 843.6544,-598.414 843.9004,-605.4097"/>
</g>
<!-- hidebound.core&#45;&gt;hidebound.core.specifications -->
<g id="edge94" class="edge">
<title>hidebound.core&#45;&gt;hidebound.core.specifications</title>
<path fill="none" stroke="#a0d17b" d="M204.9405,-870.3573C221.7935,-894.0942 255.0071,-934.8047 295,-952.2852 387.1457,-992.5611 420.4664,-960.84 521,-963.2852 649.4065,-966.4083 682.3269,-977.3403 810,-963.2852 848.5854,-959.0374 1123.868,-915.0473 1151,-887.2852 1208.3275,-828.6263 1144.9898,-776.7299 1187,-706.2852 1207.9597,-671.1389 1244.9829,-642.4008 1273.8375,-623.7581"/>
<polygon fill="#a0d17b" stroke="#a0d17b" points="1275.9067,-626.5913 1282.5033,-618.3006 1272.1763,-620.668 1275.9067,-626.5913"/>
</g>
<!-- hidebound.core&#45;&gt;hidebound.core.tools -->
<g id="edge95" class="edge">
<title>hidebound.core&#45;&gt;hidebound.core.tools</title>
<path fill="none" stroke="#a0d17b" d="M210.9902,-870.3518C230.0015,-888.0927 261.7804,-914.076 295,-925.2852 382.3847,-954.771 488.0456,-954.6904 564.1328,-948.9065"/>
<polygon fill="#a0d17b" stroke="#a0d17b" points="564.5117,-952.3874 574.1981,-948.0951 563.9492,-945.41 564.5117,-952.3874"/>
</g>
<!-- hidebound.core&#45;&gt;hidebound.core.traits -->
<g id="edge96" class="edge">
<title>hidebound.core&#45;&gt;hidebound.core.traits</title>
<path fill="none" stroke="#a0d17b" d="M259.2284,-857.2494C325.4428,-861.9466 430.202,-868.6576 521,-871.2852 649.3907,-875.0007 681.6101,-875.0281 810,-871.2852 836.8763,-870.5016 865.8808,-869.091 892.8907,-867.5355"/>
<polygon fill="#a0d17b" stroke="#a0d17b" points="893.3589,-871.0141 903.1362,-866.9333 892.948,-864.0262 893.3589,-871.0141"/>
</g>
<!-- hidebound.core&#45;&gt;hidebound.core.validators -->
<g id="edge97" class="edge">
<title>hidebound.core&#45;&gt;hidebound.core.validators</title>
<path fill="none" stroke="#a0d17b" d="M194.1675,-834.1363C198.3119,-785.8608 216.6376,-653.5986 295,-589.2852 304.8112,-581.2329 439.3772,-558.9843 543.5365,-542.7542"/>
<polygon fill="#a0d17b" stroke="#a0d17b" points="544.1725,-546.1975 553.5163,-541.2031 543.0973,-539.2805 544.1725,-546.1975"/>
</g>
<!-- schematics.exceptions -->
<g id="node44" class="node">
<title>schematics.exceptions</title>
<polygon fill="#343434" stroke="#343434" points="485,-759.2852 295,-759.2852 295,-723.2852 485,-723.2852 485,-759.2852"/>
<text text-anchor="middle" x="390" y="-737.5852" font-family="Courier,monospace" font-size="14.00" fill="#de958e">schematics.exceptions</text>
</g>
<!-- schematics.exceptions&#45;&gt;hidebound.core.config -->
<g id="edge98" class="edge">
<title>schematics.exceptions&#45;&gt;hidebound.core.config</title>
<path fill="none" stroke="#de958e" d="M485.3138,-738.3991C571.7047,-733.6515 701.6935,-721.1471 810,-688.2852 827.1179,-683.0913 828.9203,-675.6033 846,-670.2852 976.7066,-629.5872 1035.118,-700.1679 1151,-627.2852 1175.4167,-611.9286 1167.1252,-594.1895 1187,-573.2852 1213.7557,-545.1436 1249.635,-519.3114 1276.5987,-501.7112"/>
<polygon fill="#de958e" stroke="#de958e" points="1278.502,-504.6485 1285.017,-496.2936 1274.7138,-498.7621 1278.502,-504.6485"/>
</g>
<!-- schematics.exceptions&#45;&gt;hidebound.core.database_tools -->
<g id="edge99" class="edge">
<title>schematics.exceptions&#45;&gt;hidebound.core.database_tools</title>
<path fill="none" stroke="#de958e" d="M453.2137,-759.2919C474.5902,-764.8226 498.6939,-770.4544 521,-774.2852 798.1676,-821.8846 873.3908,-788.3327 1151,-833.2852 1179.1362,-837.8412 1209.6357,-844.4407 1236.6146,-850.8655"/>
<polygon fill="#de958e" stroke="#de958e" points="1235.8422,-854.2795 1246.384,-853.2205 1237.4827,-847.4744 1235.8422,-854.2795"/>
</g>
<!-- schematics.exceptions&#45;&gt;hidebound.core.specification_base -->
<g id="edge100" class="edge">
<title>schematics.exceptions&#45;&gt;hidebound.core.specification_base</title>
<path fill="none" stroke="#de958e" d="M460.6513,-723.2529C480.1844,-718.3314 501.3997,-713.0453 521,-708.2852 665.1511,-673.2768 701.1785,-664.4081 846,-632.2852 863.7976,-628.3375 882.7925,-624.2507 901.1212,-620.3717"/>
<polygon fill="#de958e" stroke="#de958e" points="901.8661,-623.7917 910.928,-618.3024 900.4208,-616.9425 901.8661,-623.7917"/>
</g>
<!-- schematics.exceptions&#45;&gt;hidebound.core.tools -->
<g id="edge101" class="edge">
<title>schematics.exceptions&#45;&gt;hidebound.core.tools</title>
<path fill="none" stroke="#de958e" d="M404.4629,-759.313C427.0045,-786.4837 472.9414,-838.2554 521,-871.2852 546.4401,-888.7697 577.343,-903.4154 604.031,-914.3514"/>
<polygon fill="#de958e" stroke="#de958e" points="603.0705,-917.7372 613.6547,-918.211 605.6761,-911.2402 603.0705,-917.7372"/>
</g>
<!-- schematics.exceptions&#45;&gt;hidebound.core.validators -->
<g id="edge102" class="edge">
<title>schematics.exceptions&#45;&gt;hidebound.core.validators</title>
<path fill="none" stroke="#de958e" d="M413.0151,-723.1571C462.3417,-684.3046 578.2962,-592.972 634.2337,-548.9124"/>
<polygon fill="#de958e" stroke="#de958e" points="636.6666,-551.4515 642.3566,-542.5142 632.3352,-545.9524 636.6666,-551.4515"/>
</g>
<!-- schematics.exceptions&#45;&gt;hidebound.server.api -->
<g id="edge103" class="edge">
<title>schematics.exceptions&#45;&gt;hidebound.server.api</title>
<path fill="none" stroke="#de958e" d="M485.2413,-751.1344C571.866,-756.9629 702.2516,-757.8278 810,-725.2852 827.9503,-719.8637 827.9498,-708.3639 846,-703.2852 1101.4189,-631.419 1179.3999,-675.978 1443,-706.2852 1459.283,-708.1573 1462.8834,-711.3022 1479,-714.2852 1592.1034,-735.2191 1636.1849,-693.4108 1735,-752.2852 1757.9088,-765.9343 1749.3767,-784.6793 1771,-800.2852 1781.0787,-807.5591 1792.5694,-813.5745 1804.349,-818.5318"/>
<polygon fill="#de958e" stroke="#de958e" points="1803.2501,-821.8609 1813.8364,-822.2843 1805.8247,-815.3516 1803.2501,-821.8609"/>
</g>
<!-- OpenEXR -->
<g id="node45" class="node">
<title>OpenEXR</title>
<polygon fill="#343434" stroke="#343434" points="427,-916.2852 353,-916.2852 353,-880.2852 427,-880.2852 427,-916.2852"/>
<text text-anchor="middle" x="390" y="-894.5852" font-family="Courier,monospace" font-size="14.00" fill="#de958e">OpenEXR</text>
</g>
<!-- OpenEXR&#45;&gt;hidebound.core.tools -->
<g id="edge104" class="edge">
<title>OpenEXR&#45;&gt;hidebound.core.tools</title>
<path fill="none" stroke="#de958e" d="M427.1552,-903.41C462.1896,-908.2424 516.3125,-915.7076 564.1336,-922.3036"/>
<polygon fill="#de958e" stroke="#de958e" points="563.8488,-925.7974 574.2333,-923.6967 564.8054,-918.863 563.8488,-925.7974"/>
</g>
<!-- skimage.io -->
<g id="node46" class="node">
<title>skimage.io</title>
<polygon fill="#343434" stroke="#343434" points="715,-862.2852 616,-862.2852 616,-826.2852 715,-826.2852 715,-862.2852"/>
<text text-anchor="middle" x="665.5" y="-840.5852" font-family="Courier,monospace" font-size="14.00" fill="#de958e">skimage.io</text>
</g>
<!-- skimage.io&#45;&gt;hidebound.core.traits -->
<g id="edge105" class="edge">
<title>skimage.io&#45;&gt;hidebound.core.traits</title>
<path fill="none" stroke="#de958e" d="M715.3535,-846.6805C762.177,-848.9303 833.7345,-852.3685 893.196,-855.2255"/>
<polygon fill="#de958e" stroke="#de958e" points="893.2307,-858.7311 903.3872,-855.7152 893.5668,-851.7392 893.2307,-858.7311"/>
</g>
</g>
</svg>
