<?xml version="1.0" encoding="UTF-8" standalone="no"?>
<!DOCTYPE svg PUBLIC "-//W3C//DTD SVG 1.1//EN"
 "http://www.w3.org/Graphics/SVG/1.1/DTD/svg11.dtd">
<!-- Generated by graphviz version 2.40.1 (20161225.0304)
 -->
<!-- Title: %3 Pages: 1 -->
<svg width="2644pt" height="2228pt"
 viewBox="0.00 0.00 2644.00 2228.10" xmlns="http://www.w3.org/2000/svg" xmlns:xlink="http://www.w3.org/1999/xlink">
<g id="graph0" class="graph" transform="scale(1 1) rotate(0) translate(4 2224.0963)">
<title>%3</title>
<polygon fill="#242424" stroke="transparent" points="-4,4 -4,-2224.0963 2640,-2224.0963 2640,4 -4,4"/>
<!-- cli -->
<g id="node1" class="node">
<title>cli</title>
<polygon fill="#343434" stroke="#343434" points="171.5,-1206.2776 117.5,-1206.2776 117.5,-1170.2776 171.5,-1170.2776 171.5,-1206.2776"/>
<text text-anchor="middle" x="144.5" y="-1184.5776" font-family="Courier,monospace" font-size="14.00" fill="#b6ecf3">cli</text>
</g>
<!-- hidebound.core.config -->
<g id="node2" class="node">
<title>hidebound.core.config</title>
<polygon fill="#343434" stroke="#343434" points="1867,-1810.2776 1677,-1810.2776 1677,-1774.2776 1867,-1774.2776 1867,-1810.2776"/>
<text text-anchor="middle" x="1772" y="-1788.5776" font-family="Courier,monospace" font-size="14.00" fill="#b6ecf3">hidebound.core.config</text>
</g>
<!-- hidebound.core.database -->
<g id="node3" class="node">
<title>hidebound.core.database</title>
<polygon fill="#343434" stroke="#343434" points="2134,-1176.2776 1928,-1176.2776 1928,-1140.2776 2134,-1140.2776 2134,-1176.2776"/>
<text text-anchor="middle" x="2031" y="-1154.5776" font-family="Courier,monospace" font-size="14.00" fill="#b6ecf3">hidebound.core.database</text>
</g>
<!-- hidebound.core.config&#45;&gt;hidebound.core.database -->
<g id="edge1" class="edge">
<title>hidebound.core.config&#45;&gt;hidebound.core.database</title>
<path fill="none" stroke="#b6ecf3" d="M1779.472,-1773.987C1815.9907,-1684.5939 1975.7111,-1293.618 2019.731,-1185.8627"/>
<polygon fill="#b6ecf3" stroke="#b6ecf3" points="2023.08,-1186.9195 2023.6218,-1176.3386 2016.5999,-1184.2723 2023.08,-1186.9195"/>
</g>
<!-- hidebound.server.app -->
<g id="node17" class="node">
<title>hidebound.server.app</title>
<polygon fill="#343434" stroke="#343434" points="2636,-329.2776 2454,-329.2776 2454,-293.2776 2636,-293.2776 2636,-329.2776"/>
<text text-anchor="middle" x="2545" y="-307.5776" font-family="Courier,monospace" font-size="14.00" fill="#b6ecf3">hidebound.server.app</text>
</g>
<!-- hidebound.core.config&#45;&gt;hidebound.server.app -->
<g id="edge2" class="edge">
<title>hidebound.core.config&#45;&gt;hidebound.server.app</title>
<path fill="none" stroke="#b6ecf3" d="M1785.1051,-1774.0218C1836.6788,-1701.7303 2029.1801,-1427.6518 2159,-1185.2776 2331.4181,-863.3724 2492.7482,-448.7726 2534.5537,-338.9606"/>
<polygon fill="#b6ecf3" stroke="#b6ecf3" points="2537.9447,-339.8896 2538.2226,-329.2985 2531.4006,-337.4047 2537.9447,-339.8896"/>
</g>
<!-- hidebound.server.api -->
<g id="node16" class="node">
<title>hidebound.server.api</title>
<polygon fill="#343434" stroke="#343434" points="2397.5,-532.2776 2215.5,-532.2776 2215.5,-496.2776 2397.5,-496.2776 2397.5,-532.2776"/>
<text text-anchor="middle" x="2306.5" y="-510.5776" font-family="Courier,monospace" font-size="14.00" fill="#b6ecf3">hidebound.server.api</text>
</g>
<!-- hidebound.core.database&#45;&gt;hidebound.server.api -->
<g id="edge3" class="edge">
<title>hidebound.core.database&#45;&gt;hidebound.server.api</title>
<path fill="none" stroke="#b6ecf3" d="M2038.8014,-1140.0413C2077.438,-1049.7257 2248.2881,-650.3519 2294.7835,-541.6658"/>
<polygon fill="#b6ecf3" stroke="#b6ecf3" points="2298.0513,-542.9256 2298.7666,-532.3549 2291.6155,-540.1723 2298.0513,-542.9256"/>
</g>
<!-- hidebound.core.database_tools -->
<g id="node4" class="node">
<title>hidebound.core.database_tools</title>
<polygon fill="#343434" stroke="#343434" points="1600,-906.2776 1344,-906.2776 1344,-870.2776 1600,-870.2776 1600,-906.2776"/>
<text text-anchor="middle" x="1472" y="-884.5776" font-family="Courier,monospace" font-size="14.00" fill="#b6ecf3">hidebound.core.database_tools</text>
</g>
<!-- hidebound.core.database_tools&#45;&gt;hidebound.core.database -->
<g id="edge4" class="edge">
<title>hidebound.core.database_tools&#45;&gt;hidebound.core.database</title>
<path fill="none" stroke="#b6ecf3" d="M1600.3304,-871.7641C1681.9196,-867.4844 1786.8852,-873.9657 1867,-920.2776 1950.6957,-968.6596 2001.3004,-1079.0123 2021.2191,-1130.6607"/>
<polygon fill="#b6ecf3" stroke="#b6ecf3" points="2017.9995,-1132.0429 2024.7944,-1140.1719 2024.5519,-1129.5798 2017.9995,-1132.0429"/>
</g>
<!-- hidebound.core.logging -->
<g id="node5" class="node">
<title>hidebound.core.logging</title>
<polygon fill="#343434" stroke="#343434" points="929.5,-956.2776 731.5,-956.2776 731.5,-920.2776 929.5,-920.2776 929.5,-956.2776"/>
<text text-anchor="middle" x="830.5" y="-934.5776" font-family="Courier,monospace" font-size="14.00" fill="#b6ecf3">hidebound.core.logging</text>
</g>
<!-- hidebound.core.logging&#45;&gt;hidebound.core.database -->
<g id="edge5" class="edge">
<title>hidebound.core.logging&#45;&gt;hidebound.core.database</title>
<path fill="none" stroke="#b6ecf3" d="M929.7277,-928.9566C1119.3356,-914.9987 1543.0652,-902.533 1867,-1030.2776 1924.303,-1052.8752 1978.0422,-1102.1729 2007.5338,-1132.5663"/>
<polygon fill="#b6ecf3" stroke="#b6ecf3" points="2005.0593,-1135.0429 2014.4966,-1139.8583 2010.122,-1130.2088 2005.0593,-1135.0429"/>
</g>
<!-- hidebound.exporters.exporter_base -->
<g id="node12" class="node">
<title>hidebound.exporters.exporter_base</title>
<polygon fill="#343434" stroke="#343434" points="1267,-1336.2776 978,-1336.2776 978,-1300.2776 1267,-1300.2776 1267,-1336.2776"/>
<text text-anchor="middle" x="1122.5" y="-1314.5776" font-family="Courier,monospace" font-size="14.00" fill="#b6ecf3">hidebound.exporters.exporter_base</text>
</g>
<!-- hidebound.core.logging&#45;&gt;hidebound.exporters.exporter_base -->
<g id="edge6" class="edge">
<title>hidebound.core.logging&#45;&gt;hidebound.exporters.exporter_base</title>
<path fill="none" stroke="#b6ecf3" d="M844.3873,-956.3502C891.6551,-1017.863 1046.4425,-1219.2987 1102.2291,-1291.8977"/>
<polygon fill="#b6ecf3" stroke="#b6ecf3" points="1099.6593,-1294.2977 1108.5276,-1300.0944 1105.2098,-1290.0325 1099.6593,-1294.2977"/>
</g>
<!-- hidebound.server.progress -->
<g id="node19" class="node">
<title>hidebound.server.progress</title>
<polygon fill="#343434" stroke="#343434" points="2142.5,-624.2776 1919.5,-624.2776 1919.5,-588.2776 2142.5,-588.2776 2142.5,-624.2776"/>
<text text-anchor="middle" x="2031" y="-602.5776" font-family="Courier,monospace" font-size="14.00" fill="#b6ecf3">hidebound.server.progress</text>
</g>
<!-- hidebound.core.logging&#45;&gt;hidebound.server.progress -->
<g id="edge7" class="edge">
<title>hidebound.core.logging&#45;&gt;hidebound.server.progress</title>
<path fill="none" stroke="#b6ecf3" d="M838.1825,-920.1913C856.101,-880.479 904.7755,-785.8171 978,-743.2776 1133.97,-652.6675 1666.783,-620.5317 1909.176,-610.4191"/>
<polygon fill="#b6ecf3" stroke="#b6ecf3" points="1909.5916,-613.9051 1919.4392,-609.9969 1909.3037,-606.911 1909.5916,-613.9051"/>
</g>
<!-- hidebound.core.parser -->
<g id="node6" class="node">
<title>hidebound.core.parser</title>
<polygon fill="#343434" stroke="#343434" points="683,-1924.2776 493,-1924.2776 493,-1888.2776 683,-1888.2776 683,-1924.2776"/>
<text text-anchor="middle" x="588" y="-1902.5776" font-family="Courier,monospace" font-size="14.00" fill="#b6ecf3">hidebound.core.parser</text>
</g>
<!-- hidebound.core.parser&#45;&gt;hidebound.core.database_tools -->
<g id="edge8" class="edge">
<title>hidebound.core.parser&#45;&gt;hidebound.core.database_tools</title>
<path fill="none" stroke="#b6ecf3" d="M630.454,-1888.1466C649.9559,-1877.4859 671.3057,-1861.9848 683,-1841.2776 751.5206,-1719.9482 639.2589,-1329.546 719,-1215.2776 761.905,-1153.7951 1242.989,-972.4683 1412.9573,-909.8417"/>
<polygon fill="#b6ecf3" stroke="#b6ecf3" points="1414.3228,-913.0687 1422.4987,-906.3304 1411.9052,-906.4994 1414.3228,-913.0687"/>
</g>
<!-- hidebound.core.specification_base -->
<g id="node7" class="node">
<title>hidebound.core.specification_base</title>
<polygon fill="#343434" stroke="#343434" points="1267,-2008.2776 978,-2008.2776 978,-1972.2776 1267,-1972.2776 1267,-2008.2776"/>
<text text-anchor="middle" x="1122.5" y="-1986.5776" font-family="Courier,monospace" font-size="14.00" fill="#b6ecf3">hidebound.core.specification_base</text>
</g>
<!-- hidebound.core.parser&#45;&gt;hidebound.core.specification_base -->
<g id="edge9" class="edge">
<title>hidebound.core.parser&#45;&gt;hidebound.core.specification_base</title>
<path fill="none" stroke="#b6ecf3" d="M671.3609,-1924.2777C687.1495,-1927.4544 703.5565,-1930.5981 719,-1933.2776 801.2212,-1947.5437 893.3365,-1960.7644 968.773,-1970.8743"/>
<polygon fill="#b6ecf3" stroke="#b6ecf3" points="968.4553,-1974.3628 978.8305,-1972.217 969.3816,-1967.4244 968.4553,-1974.3628"/>
</g>
<!-- hidebound.core.validators -->
<g id="node11" class="node">
<title>hidebound.core.validators</title>
<polygon fill="#343434" stroke="#343434" points="942,-1924.2776 719,-1924.2776 719,-1888.2776 942,-1888.2776 942,-1924.2776"/>
<text text-anchor="middle" x="830.5" y="-1902.5776" font-family="Courier,monospace" font-size="14.00" fill="#b6ecf3">hidebound.core.validators</text>
</g>
<!-- hidebound.core.parser&#45;&gt;hidebound.core.validators -->
<g id="edge10" class="edge">
<title>hidebound.core.parser&#45;&gt;hidebound.core.validators</title>
<path fill="none" stroke="#b6ecf3" d="M683.1464,-1906.2776C691.5391,-1906.2776 700.107,-1906.2776 708.6787,-1906.2776"/>
<polygon fill="#b6ecf3" stroke="#b6ecf3" points="708.7326,-1909.7777 718.7325,-1906.2776 708.7325,-1902.7777 708.7326,-1909.7777"/>
</g>
<!-- hidebound.core.specification_base&#45;&gt;hidebound.core.config -->
<g id="edge11" class="edge">
<title>hidebound.core.specification_base&#45;&gt;hidebound.core.config</title>
<path fill="none" stroke="#b6ecf3" d="M1267.1303,-1989.1303C1397.4274,-1985.9533 1577.8969,-1975.5943 1641,-1943.2776 1695.3027,-1915.4679 1736.7989,-1854.6494 1757.471,-1819.2686"/>
<polygon fill="#b6ecf3" stroke="#b6ecf3" points="1760.5952,-1820.8553 1762.5083,-1810.4346 1754.5143,-1817.3879 1760.5952,-1820.8553"/>
</g>
<!-- hidebound.core.specification_base&#45;&gt;hidebound.core.database -->
<g id="edge12" class="edge">
<title>hidebound.core.specification_base&#45;&gt;hidebound.core.database</title>
<path fill="none" stroke="#b6ecf3" d="M1253.3723,-2008.2953C1360.4087,-2018.1665 1514.238,-2021.0928 1641,-1979.2776 1757.8739,-1940.7243 1797.6148,-1920.9219 1867,-1819.2776 1940.5378,-1711.5501 2009.1349,-1298.5342 2026.6851,-1186.4715"/>
<polygon fill="#b6ecf3" stroke="#b6ecf3" points="2030.144,-1187.0057 2028.2226,-1176.5865 2023.2272,-1185.9298 2030.144,-1187.0057"/>
</g>
<!-- hidebound.core.specification_base&#45;&gt;hidebound.core.database_tools -->
<g id="edge13" class="edge">
<title>hidebound.core.specification_base&#45;&gt;hidebound.core.database_tools</title>
<path fill="none" stroke="#b6ecf3" d="M1139.5839,-1972.0732C1171.3794,-1936.8998 1238.9499,-1855.7683 1267,-1773.2776 1342.723,-1550.5885 1243.6451,-1472.8769 1303,-1245.2776 1337.2471,-1113.9553 1419.5488,-972.3122 1455.1349,-914.7942"/>
<polygon fill="#b6ecf3" stroke="#b6ecf3" points="1458.1103,-916.6373 1460.4307,-906.2997 1452.1701,-912.934 1458.1103,-916.6373"/>
</g>
<!-- hidebound.core.specifications -->
<g id="node8" class="node">
<title>hidebound.core.specifications</title>
<polygon fill="#343434" stroke="#343434" points="1600,-2069.2776 1344,-2069.2776 1344,-2033.2776 1600,-2033.2776 1600,-2069.2776"/>
<text text-anchor="middle" x="1472" y="-2047.5776" font-family="Courier,monospace" font-size="14.00" fill="#b6ecf3">hidebound.core.specifications</text>
</g>
<!-- hidebound.core.specification_base&#45;&gt;hidebound.core.specifications -->
<g id="edge14" class="edge">
<title>hidebound.core.specification_base&#45;&gt;hidebound.core.specifications</title>
<path fill="none" stroke="#b6ecf3" d="M1225.9429,-2008.3321C1267.773,-2015.6329 1316.1826,-2024.082 1358.9395,-2031.5446"/>
<polygon fill="#b6ecf3" stroke="#b6ecf3" points="1358.3696,-2034.998 1368.8225,-2033.2695 1359.5732,-2028.1022 1358.3696,-2034.998"/>
</g>
<!-- hidebound.core.tools -->
<g id="node9" class="node">
<title>hidebound.core.tools</title>
<polygon fill="#343434" stroke="#343434" points="921.5,-1329.2776 739.5,-1329.2776 739.5,-1293.2776 921.5,-1293.2776 921.5,-1329.2776"/>
<text text-anchor="middle" x="830.5" y="-1307.5776" font-family="Courier,monospace" font-size="14.00" fill="#b6ecf3">hidebound.core.tools</text>
</g>
<!-- hidebound.core.tools&#45;&gt;hidebound.core.database -->
<g id="edge15" class="edge">
<title>hidebound.core.tools&#45;&gt;hidebound.core.database</title>
<path fill="none" stroke="#b6ecf3" d="M888.8064,-1293.2774C906.4298,-1286.8 925.4772,-1278.72 942,-1269.2776 959.8383,-1259.0835 958.9289,-1247.9206 978,-1240.2776 1267.3964,-1124.2986 1366.0945,-1204.4967 1677,-1181.2776 1757.4897,-1175.2665 1848.3433,-1169.3822 1917.8552,-1165.0703"/>
<polygon fill="#b6ecf3" stroke="#b6ecf3" points="1918.1877,-1168.5565 1927.9525,-1164.4457 1917.7554,-1161.5699 1918.1877,-1168.5565"/>
</g>
<!-- hidebound.core.tools&#45;&gt;hidebound.core.database_tools -->
<g id="edge16" class="edge">
<title>hidebound.core.tools&#45;&gt;hidebound.core.database_tools</title>
<path fill="none" stroke="#b6ecf3" d="M907.4272,-1293.1847C920.3003,-1287.3059 932.5288,-1279.5369 942,-1269.2776 981.2165,-1226.7984 939.7505,-1187.6297 978,-1144.2776 1070.4707,-1039.4712 1143.5919,-1085.895 1267,-1020.2776 1329.8927,-986.8369 1398.6781,-940.3257 1438.4356,-912.3756"/>
<polygon fill="#b6ecf3" stroke="#b6ecf3" points="1440.7946,-914.9945 1446.943,-906.3662 1436.7559,-909.277 1440.7946,-914.9945"/>
</g>
<!-- hidebound.core.tools&#45;&gt;hidebound.core.specification_base -->
<g id="edge17" class="edge">
<title>hidebound.core.tools&#45;&gt;hidebound.core.specification_base</title>
<path fill="none" stroke="#b6ecf3" d="M835.9609,-1329.4055C860.1794,-1409.6539 957.5883,-1730.8329 978,-1773.2776 1013.3796,-1846.8469 1070.6315,-1924.4631 1101.3752,-1963.907"/>
<polygon fill="#b6ecf3" stroke="#b6ecf3" points="1098.9458,-1966.4804 1107.8749,-1972.1832 1104.4511,-1962.1568 1098.9458,-1966.4804"/>
</g>
<!-- hidebound.core.traits -->
<g id="node10" class="node">
<title>hidebound.core.traits</title>
<polygon fill="#343434" stroke="#343434" points="1217.5,-2138.2776 1027.5,-2138.2776 1027.5,-2102.2776 1217.5,-2102.2776 1217.5,-2138.2776"/>
<text text-anchor="middle" x="1122.5" y="-2116.5776" font-family="Courier,monospace" font-size="14.00" fill="#b6ecf3">hidebound.core.traits</text>
</g>
<!-- hidebound.core.tools&#45;&gt;hidebound.core.traits -->
<g id="edge18" class="edge">
<title>hidebound.core.tools&#45;&gt;hidebound.core.traits</title>
<path fill="none" stroke="#b6ecf3" d="M837.4703,-1329.4091C857.3088,-1381.8059 914.4229,-1538.2969 942,-1673.2776 957.3854,-1748.584 939.2831,-1950.8792 978,-2017.2776 999.1354,-2053.5243 1038.6812,-2080.3564 1071.066,-2097.5322"/>
<polygon fill="#b6ecf3" stroke="#b6ecf3" points="1069.4954,-2100.6601 1079.9891,-2102.1204 1072.6964,-2094.4349 1069.4954,-2100.6601"/>
</g>
<!-- hidebound.core.tools&#45;&gt;hidebound.exporters.exporter_base -->
<g id="edge19" class="edge">
<title>hidebound.core.tools&#45;&gt;hidebound.exporters.exporter_base</title>
<path fill="none" stroke="#b6ecf3" d="M921.6895,-1313.4637C936.3772,-1313.8158 951.9306,-1314.1886 967.6213,-1314.5648"/>
<polygon fill="#b6ecf3" stroke="#b6ecf3" points="967.8634,-1318.0715 977.9444,-1314.8123 968.0312,-1311.0735 967.8634,-1318.0715"/>
</g>
<!-- hidebound.exporters.local_disk_exporter -->
<g id="node14" class="node">
<title>hidebound.exporters.local_disk_exporter</title>
<polygon fill="#343434" stroke="#343434" points="1641,-1290.2776 1303,-1290.2776 1303,-1254.2776 1641,-1254.2776 1641,-1290.2776"/>
<text text-anchor="middle" x="1472" y="-1268.5776" font-family="Courier,monospace" font-size="14.00" fill="#b6ecf3">hidebound.exporters.local_disk_exporter</text>
</g>
<!-- hidebound.core.tools&#45;&gt;hidebound.exporters.local_disk_exporter -->
<g id="edge20" class="edge">
<title>hidebound.core.tools&#45;&gt;hidebound.exporters.local_disk_exporter</title>
<path fill="none" stroke="#b6ecf3" d="M878.3226,-1293.1662C917.3939,-1278.525 967.7799,-1260.0581 978,-1258.2776 1095.1643,-1237.8666 1230.2803,-1243.6638 1329.5572,-1253.2717"/>
<polygon fill="#b6ecf3" stroke="#b6ecf3" points="1329.3599,-1256.7693 1339.6567,-1254.2742 1330.0514,-1249.8035 1329.3599,-1256.7693"/>
</g>
<!-- hidebound.exporters.s3_exporter -->
<g id="node15" class="node">
<title>hidebound.exporters.s3_exporter</title>
<polygon fill="#343434" stroke="#343434" points="1608,-1672.2776 1336,-1672.2776 1336,-1636.2776 1608,-1636.2776 1608,-1672.2776"/>
<text text-anchor="middle" x="1472" y="-1650.5776" font-family="Courier,monospace" font-size="14.00" fill="#b6ecf3">hidebound.exporters.s3_exporter</text>
</g>
<!-- hidebound.core.tools&#45;&gt;hidebound.exporters.s3_exporter -->
<g id="edge21" class="edge">
<title>hidebound.core.tools&#45;&gt;hidebound.exporters.s3_exporter</title>
<path fill="none" stroke="#b6ecf3" d="M836.3348,-1329.4313C851.6788,-1374.091 897.6128,-1489.7624 978,-1546.2776 1033.3272,-1585.1747 1201.0026,-1616.3723 1325.7475,-1635.0483"/>
<polygon fill="#b6ecf3" stroke="#b6ecf3" points="1325.3792,-1638.5319 1335.7847,-1636.538 1326.4069,-1631.6078 1325.3792,-1638.5319"/>
</g>
<!-- hidebound.core.traits&#45;&gt;hidebound.core.specifications -->
<g id="edge22" class="edge">
<title>hidebound.core.traits&#45;&gt;hidebound.core.specifications</title>
<path fill="none" stroke="#b6ecf3" d="M1213.8705,-2102.2388C1261.9317,-2092.7503 1320.9835,-2081.0921 1370.4712,-2071.322"/>
<polygon fill="#b6ecf3" stroke="#b6ecf3" points="1371.4237,-2074.7015 1380.5564,-2069.3309 1370.0679,-2067.8341 1371.4237,-2074.7015"/>
</g>
<!-- hidebound.core.validators&#45;&gt;hidebound.core.config -->
<g id="edge23" class="edge">
<title>hidebound.core.validators&#45;&gt;hidebound.core.config</title>
<path fill="none" stroke="#b6ecf3" d="M835.0937,-1924.6132C848.0553,-1971.9276 889.8458,-2097.8766 978,-2147.2776 1090.0497,-2210.0696 1139.0896,-2158.9781 1267,-2147.2776 1435.3247,-2131.8803 1507.6624,-2182.1591 1641,-2078.2776 1725.7656,-2012.238 1757.6163,-1878.7704 1767.8187,-1820.5306"/>
<polygon fill="#b6ecf3" stroke="#b6ecf3" points="1771.288,-1821.004 1769.4796,-1810.5647 1764.3832,-1819.8532 1771.288,-1821.004"/>
</g>
<!-- hidebound.core.validators&#45;&gt;hidebound.core.specification_base -->
<g id="edge24" class="edge">
<title>hidebound.core.validators&#45;&gt;hidebound.core.specification_base</title>
<path fill="none" stroke="#b6ecf3" d="M902.4096,-1924.3031C915.7575,-1928.381 929.444,-1933.0681 942,-1938.2776 958.9059,-1945.292 960.8862,-1951.7867 978,-1958.2776 989.2794,-1962.5557 1001.2817,-1966.3408 1013.3624,-1969.6701"/>
<polygon fill="#b6ecf3" stroke="#b6ecf3" points="1012.4921,-1973.0602 1023.0553,-1972.243 1014.288,-1966.2945 1012.4921,-1973.0602"/>
</g>
<!-- hidebound.core.validators&#45;&gt;hidebound.core.specifications -->
<g id="edge25" class="edge">
<title>hidebound.core.validators&#45;&gt;hidebound.core.specifications</title>
<path fill="none" stroke="#b6ecf3" d="M847.4894,-1924.4887C872.9849,-1950.4336 923.9481,-1997.1221 978,-2017.2776 1040.824,-2040.7042 1210.5031,-2048.2054 1333.4903,-2050.4909"/>
<polygon fill="#b6ecf3" stroke="#b6ecf3" points="1333.6885,-2053.9948 1343.7486,-2050.6715 1333.8118,-2046.9959 1333.6885,-2053.9948"/>
</g>
<!-- hidebound.core.validators&#45;&gt;hidebound.exporters.exporter_base -->
<g id="edge26" class="edge">
<title>hidebound.core.validators&#45;&gt;hidebound.exporters.exporter_base</title>
<path fill="none" stroke="#b6ecf3" d="M857.0338,-1887.9601C883.6858,-1867.8969 923.394,-1833.0849 942,-1792.2776 982.8835,-1702.6108 913.2371,-1424.5566 978,-1350.2776 980.4379,-1347.4815 983.0604,-1344.899 985.8389,-1342.5149"/>
<polygon fill="#b6ecf3" stroke="#b6ecf3" points="988.187,-1345.1277 994.0588,-1336.3087 983.9691,-1339.5411 988.187,-1345.1277"/>
</g>
<!-- hidebound.exporters.girder_exporter -->
<g id="node13" class="node">
<title>hidebound.exporters.girder_exporter</title>
<polygon fill="#343434" stroke="#343434" points="1624.5,-1451.2776 1319.5,-1451.2776 1319.5,-1415.2776 1624.5,-1415.2776 1624.5,-1451.2776"/>
<text text-anchor="middle" x="1472" y="-1429.5776" font-family="Courier,monospace" font-size="14.00" fill="#b6ecf3">hidebound.exporters.girder_exporter</text>
</g>
<!-- hidebound.core.validators&#45;&gt;hidebound.exporters.girder_exporter -->
<g id="edge27" class="edge">
<title>hidebound.core.validators&#45;&gt;hidebound.exporters.girder_exporter</title>
<path fill="none" stroke="#b6ecf3" d="M855.001,-1888.1739C880.7512,-1867.7861 920.4498,-1832.2398 942,-1792.2776 977.6263,-1726.213 925.9733,-1681.3794 978,-1627.2776 1069.9803,-1531.6288 1144.2618,-1602.7199 1267,-1552.2776 1330.5191,-1526.1729 1398.3375,-1483.5347 1437.8585,-1457.0112"/>
<polygon fill="#b6ecf3" stroke="#b6ecf3" points="1440.0036,-1459.7857 1446.3257,-1451.2839 1436.0817,-1453.9876 1440.0036,-1459.7857"/>
</g>
<!-- hidebound.core.validators&#45;&gt;hidebound.exporters.local_disk_exporter -->
<g id="edge28" class="edge">
<title>hidebound.core.validators&#45;&gt;hidebound.exporters.local_disk_exporter</title>
<path fill="none" stroke="#b6ecf3" d="M856.98,-1887.9355C883.5881,-1867.8522 923.2609,-1833.0239 942,-1792.2776 980.1227,-1709.3834 914.8835,-1449.1646 978,-1383.2776 1022.8089,-1336.5019 1204.0268,-1360.4493 1267,-1345.2776 1320.3841,-1332.4162 1379.2321,-1310.6273 1420.1308,-1294.1943"/>
<polygon fill="#b6ecf3" stroke="#b6ecf3" points="1421.6561,-1297.3527 1429.6091,-1290.3526 1419.0267,-1290.8653 1421.6561,-1297.3527"/>
</g>
<!-- hidebound.core.validators&#45;&gt;hidebound.exporters.s3_exporter -->
<g id="edge29" class="edge">
<title>hidebound.core.validators&#45;&gt;hidebound.exporters.s3_exporter</title>
<path fill="none" stroke="#b6ecf3" d="M908.9101,-1888.1929C997.8034,-1866.3733 1146.0741,-1825.9587 1267,-1773.2776 1329.6083,-1746.0025 1397.1902,-1704.0835 1436.9886,-1677.9675"/>
<polygon fill="#b6ecf3" stroke="#b6ecf3" points="1439.1131,-1680.7588 1445.5276,-1672.3264 1435.2546,-1674.9183 1439.1131,-1680.7588"/>
</g>
<!-- hidebound.exporters.exporter_base&#45;&gt;hidebound.exporters.girder_exporter -->
<g id="edge30" class="edge">
<title>hidebound.exporters.exporter_base&#45;&gt;hidebound.exporters.girder_exporter</title>
<path fill="none" stroke="#b6ecf3" d="M1177.4938,-1336.3729C1239.7536,-1356.8589 1341.0903,-1390.2029 1407.1537,-1411.9405"/>
<polygon fill="#b6ecf3" stroke="#b6ecf3" points="1406.4459,-1415.3922 1417.0389,-1415.1931 1408.6338,-1408.7429 1406.4459,-1415.3922"/>
</g>
<!-- hidebound.exporters.exporter_base&#45;&gt;hidebound.exporters.local_disk_exporter -->
<g id="edge31" class="edge">
<title>hidebound.exporters.exporter_base&#45;&gt;hidebound.exporters.local_disk_exporter</title>
<path fill="none" stroke="#b6ecf3" d="M1259.3779,-1300.2622C1280.9493,-1297.4231 1303.3295,-1294.4775 1325.1165,-1291.6099"/>
<polygon fill="#b6ecf3" stroke="#b6ecf3" points="1325.6222,-1295.0737 1335.08,-1290.2986 1324.7087,-1288.1335 1325.6222,-1295.0737"/>
</g>
<!-- hidebound.exporters.exporter_base&#45;&gt;hidebound.exporters.s3_exporter -->
<g id="edge32" class="edge">
<title>hidebound.exporters.exporter_base&#45;&gt;hidebound.exporters.s3_exporter</title>
<path fill="none" stroke="#b6ecf3" d="M1187.3966,-1336.3125C1214.6548,-1346.5077 1245.056,-1361.6523 1267,-1383.2776 1293.9076,-1409.7945 1282.3922,-1428.6157 1303,-1460.2776 1346.1082,-1526.5092 1410.3467,-1593.8506 1445.9221,-1629.1365"/>
<polygon fill="#b6ecf3" stroke="#b6ecf3" points="1443.48,-1631.6438 1453.0605,-1636.1676 1448.3921,-1626.6567 1443.48,-1631.6438"/>
</g>
<!-- hidebound.exporters.girder_exporter&#45;&gt;hidebound.core.config -->
<g id="edge33" class="edge">
<title>hidebound.exporters.girder_exporter&#45;&gt;hidebound.core.config</title>
<path fill="none" stroke="#b6ecf3" d="M1488.3611,-1451.4936C1518.8675,-1485.5821 1586.2985,-1561.5151 1641,-1627.2776 1681.1517,-1675.5483 1726.3582,-1733.273 1751.787,-1766.0689"/>
<polygon fill="#b6ecf3" stroke="#b6ecf3" points="1749.2232,-1768.4746 1758.1125,-1774.2392 1754.7582,-1764.1894 1749.2232,-1768.4746"/>
</g>
<!-- hidebound.exporters.girder_exporter&#45;&gt;hidebound.core.database -->
<g id="edge34" class="edge">
<title>hidebound.exporters.girder_exporter&#45;&gt;hidebound.core.database</title>
<path fill="none" stroke="#b6ecf3" d="M1498.4762,-1415.274C1533.1525,-1391.0497 1594.9446,-1345.6264 1641,-1299.2776 1659.2988,-1280.8622 1654.8613,-1266.837 1677,-1253.2776 1750.364,-1208.3442 1783.9979,-1238.9037 1867,-1216.2776 1903.9678,-1206.2004 1944.5752,-1191.8655 1976.1343,-1179.9686"/>
<polygon fill="#b6ecf3" stroke="#b6ecf3" points="1977.5197,-1183.1864 1985.624,-1176.3621 1975.0329,-1176.643 1977.5197,-1183.1864"/>
</g>
<!-- hidebound.exporters.local_disk_exporter&#45;&gt;hidebound.core.config -->
<g id="edge35" class="edge">
<title>hidebound.exporters.local_disk_exporter&#45;&gt;hidebound.core.config</title>
<path fill="none" stroke="#b6ecf3" d="M1504.9976,-1290.4635C1542.9422,-1312.967 1604.6601,-1354.7007 1641,-1406.2776 1723.434,-1523.2757 1757.3796,-1696.3212 1768.0012,-1763.8393"/>
<polygon fill="#b6ecf3" stroke="#b6ecf3" points="1764.5989,-1764.7464 1769.5626,-1774.1065 1771.5193,-1763.6939 1764.5989,-1764.7464"/>
</g>
<!-- hidebound.exporters.local_disk_exporter&#45;&gt;hidebound.core.database -->
<g id="edge36" class="edge">
<title>hidebound.exporters.local_disk_exporter&#45;&gt;hidebound.core.database</title>
<path fill="none" stroke="#b6ecf3" d="M1537.7158,-1254.2714C1577.7891,-1243.6253 1630.1455,-1230.3085 1677,-1220.2776 1757.1036,-1203.1287 1848.155,-1187.2621 1917.8551,-1175.8732"/>
<polygon fill="#b6ecf3" stroke="#b6ecf3" points="1918.6719,-1179.2864 1927.98,-1174.2257 1917.5477,-1172.3773 1918.6719,-1179.2864"/>
</g>
<!-- hidebound.exporters.s3_exporter&#45;&gt;hidebound.core.config -->
<g id="edge37" class="edge">
<title>hidebound.exporters.s3_exporter&#45;&gt;hidebound.core.config</title>
<path fill="none" stroke="#b6ecf3" d="M1511.2198,-1672.3187C1565.7949,-1697.4233 1664.5748,-1742.862 1723.6442,-1770.0339"/>
<polygon fill="#b6ecf3" stroke="#b6ecf3" points="1722.223,-1773.2327 1732.7706,-1774.2321 1725.1484,-1766.8733 1722.223,-1773.2327"/>
</g>
<!-- hidebound.exporters.s3_exporter&#45;&gt;hidebound.core.database -->
<g id="edge38" class="edge">
<title>hidebound.exporters.s3_exporter&#45;&gt;hidebound.core.database</title>
<path fill="none" stroke="#b6ecf3" d="M1515.1927,-1636.1615C1592.8002,-1601.9986 1757.8951,-1521.8106 1867,-1415.2776 1939.4261,-1344.5588 1995.1681,-1236.0685 2018.7324,-1185.7118"/>
<polygon fill="#b6ecf3" stroke="#b6ecf3" points="2021.9972,-1186.9902 2023.0116,-1176.444 2015.6419,-1184.0558 2021.9972,-1186.9902"/>
</g>
<!-- hidebound.server.api&#45;&gt;hidebound.server.app -->
<g id="edge39" class="edge">
<title>hidebound.server.api&#45;&gt;hidebound.server.app</title>
<path fill="none" stroke="#b6ecf3" d="M2342.0508,-496.2394C2364.8089,-483.9093 2394.3878,-466.3853 2418,-447.2776 2459.5988,-413.6148 2500.5373,-366.5739 2524.2529,-337.5622"/>
<polygon fill="#b6ecf3" stroke="#b6ecf3" points="2527.1851,-339.5027 2530.7566,-329.528 2521.7443,-335.0984 2527.1851,-339.5027"/>
</g>
<!-- hidebound.server.components -->
<g id="node18" class="node">
<title>hidebound.server.components</title>
<polygon fill="#343434" stroke="#343434" points="2150.5,-294.2776 1911.5,-294.2776 1911.5,-258.2776 2150.5,-258.2776 2150.5,-294.2776"/>
<text text-anchor="middle" x="2031" y="-272.5776" font-family="Courier,monospace" font-size="14.00" fill="#b6ecf3">hidebound.server.components</text>
</g>
<!-- hidebound.server.components&#45;&gt;hidebound.server.app -->
<g id="edge40" class="edge">
<title>hidebound.server.components&#45;&gt;hidebound.server.app</title>
<path fill="none" stroke="#b6ecf3" d="M2150.5375,-284.4174C2239.4636,-290.4726 2359.5033,-298.6465 2443.7259,-304.3815"/>
<polygon fill="#b6ecf3" stroke="#b6ecf3" points="2443.6002,-307.881 2453.8149,-305.0685 2444.0758,-300.8972 2443.6002,-307.881"/>
</g>
<!-- hidebound.server.server_tools -->
<g id="node20" class="node">
<title>hidebound.server.server_tools</title>
<polygon fill="#343434" stroke="#343434" points="2159,-478.2776 1903,-478.2776 1903,-442.2776 2159,-442.2776 2159,-478.2776"/>
<text text-anchor="middle" x="2031" y="-456.5776" font-family="Courier,monospace" font-size="14.00" fill="#b6ecf3">hidebound.server.server_tools</text>
</g>
<!-- hidebound.server.server_tools&#45;&gt;hidebound.server.api -->
<g id="edge41" class="edge">
<title>hidebound.server.server_tools&#45;&gt;hidebound.server.api</title>
<path fill="none" stroke="#b6ecf3" d="M2123.1205,-478.3339C2149.5907,-483.5223 2178.595,-489.2073 2205.5669,-494.494"/>
<polygon fill="#b6ecf3" stroke="#b6ecf3" points="2204.917,-497.9332 2215.4036,-496.4221 2206.2635,-491.0639 2204.917,-497.9332"/>
</g>
<!-- hidebound.server.server_tools&#45;&gt;hidebound.server.app -->
<g id="edge42" class="edge">
<title>hidebound.server.server_tools&#45;&gt;hidebound.server.app</title>
<path fill="none" stroke="#b6ecf3" d="M2131.9563,-442.2223C2210.961,-426.7397 2322.9841,-401.7886 2418,-369.2776 2446.4459,-359.5445 2477.1406,-345.6274 2501.2272,-333.8655"/>
<polygon fill="#b6ecf3" stroke="#b6ecf3" points="2503.0333,-336.8772 2510.4491,-329.3104 2499.9332,-330.601 2503.0333,-336.8772"/>
</g>
<!-- dash -->
<g id="node21" class="node">
<title>dash</title>
<polygon fill="#343434" stroke="#343434" points="1799,-121.2776 1745,-121.2776 1745,-85.2776 1799,-85.2776 1799,-121.2776"/>
<text text-anchor="middle" x="1772" y="-99.5776" font-family="Courier,monospace" font-size="14.00" fill="#de958e">dash</text>
</g>
<!-- dash&#45;&gt;hidebound.server.app -->
<g id="edge43" class="edge">
<title>dash&#45;&gt;hidebound.server.app</title>
<path fill="none" stroke="#de958e" d="M1799.2546,-90.9078C1893.5435,-50.1254 2211.4081,70.4032 2418,-57.2776 2499.5844,-107.6995 2530.5123,-228.1585 2540.6611,-283.0989"/>
<polygon fill="#de958e" stroke="#de958e" points="2537.2524,-283.9255 2542.4226,-293.1732 2544.1478,-282.7198 2537.2524,-283.9255"/>
</g>
<!-- dash&#45;&gt;hidebound.server.components -->
<g id="edge44" class="edge">
<title>dash&#45;&gt;hidebound.server.components</title>
<path fill="none" stroke="#de958e" d="M1799.228,-121.4647C1846.3479,-152.9386 1943.0652,-217.5413 1995.4311,-252.5193"/>
<polygon fill="#de958e" stroke="#de958e" points="1993.4885,-255.4307 2003.7482,-258.0747 1997.3766,-249.6098 1993.4885,-255.4307"/>
</g>
<!-- dash_cytoscape -->
<g id="node22" class="node">
<title>dash_cytoscape</title>
<polygon fill="#343434" stroke="#343434" points="1838,-248.2776 1706,-248.2776 1706,-212.2776 1838,-212.2776 1838,-248.2776"/>
<text text-anchor="middle" x="1772" y="-226.5776" font-family="Courier,monospace" font-size="14.00" fill="#de958e">dash_cytoscape</text>
</g>
<!-- dash_cytoscape&#45;&gt;hidebound.server.components -->
<g id="edge45" class="edge">
<title>dash_cytoscape&#45;&gt;hidebound.server.components</title>
<path fill="none" stroke="#de958e" d="M1838.0268,-242.0044C1862.7208,-246.3902 1891.5057,-251.5026 1919.1912,-256.4197"/>
<polygon fill="#de958e" stroke="#de958e" points="1918.8738,-259.918 1929.3318,-258.2207 1920.098,-253.0259 1918.8738,-259.918"/>
</g>
<!-- hidebound.server -->
<g id="node23" class="node">
<title>hidebound.server</title>
<polygon fill="#343434" stroke="#343434" points="1846.5,-586.2776 1697.5,-586.2776 1697.5,-550.2776 1846.5,-550.2776 1846.5,-586.2776"/>
<text text-anchor="middle" x="1772" y="-564.5776" font-family="Courier,monospace" font-size="14.00" fill="#a0d17b">hidebound.server</text>
</g>
<!-- hidebound.server&#45;&gt;hidebound.server.api -->
<g id="edge46" class="edge">
<title>hidebound.server&#45;&gt;hidebound.server.api</title>
<path fill="none" stroke="#a0d17b" d="M1846.7916,-565.5316C1924.917,-562.0852 2050.9148,-554.8976 2159,-541.2776 2174.6144,-539.3101 2191.0795,-536.7661 2207.1228,-534.0277"/>
<polygon fill="#a0d17b" stroke="#a0d17b" points="2207.7943,-537.4636 2217.0462,-532.301 2206.5942,-530.5672 2207.7943,-537.4636"/>
</g>
<!-- hidebound.server&#45;&gt;hidebound.server.app -->
<g id="edge47" class="edge">
<title>hidebound.server&#45;&gt;hidebound.server.app</title>
<path fill="none" stroke="#a0d17b" d="M1799.1916,-586.4523C1824.7445,-602.3611 1864.6863,-624.2948 1903,-633.2776 2013.7739,-659.2491 2046.875,-652.6003 2159,-633.2776 2279.3831,-612.5318 2324.8683,-620.328 2418,-541.2776 2483.606,-485.5911 2521.488,-387.0708 2536.8784,-339.0912"/>
<polygon fill="#a0d17b" stroke="#a0d17b" points="2540.2701,-339.9714 2539.905,-329.3829 2533.5873,-337.888 2540.2701,-339.9714"/>
</g>
<!-- hidebound.server&#45;&gt;hidebound.server.components -->
<g id="edge48" class="edge">
<title>hidebound.server&#45;&gt;hidebound.server.components</title>
<path fill="none" stroke="#a0d17b" d="M1811.6097,-550.0935C1831.1244,-539.1813 1853.3403,-523.4724 1867,-503.2776 1908.3232,-442.1843 1857.7908,-399.5539 1903,-341.2776 1917.7708,-322.2376 1939.6429,-308.3078 1961.1452,-298.3442"/>
<polygon fill="#a0d17b" stroke="#a0d17b" points="1962.5695,-301.5414 1970.316,-294.3135 1959.7529,-295.133 1962.5695,-301.5414"/>
</g>
<!-- hidebound.server&#45;&gt;hidebound.server.progress -->
<g id="edge49" class="edge">
<title>hidebound.server&#45;&gt;hidebound.server.progress</title>
<path fill="none" stroke="#a0d17b" d="M1846.5661,-579.2178C1866.1755,-582.0949 1887.8478,-585.2746 1909.2376,-588.4129"/>
<polygon fill="#a0d17b" stroke="#a0d17b" points="1908.9674,-591.9106 1919.3696,-589.8994 1909.9837,-584.9848 1908.9674,-591.9106"/>
</g>
<!-- hidebound.server&#45;&gt;hidebound.server.server_tools -->
<g id="edge50" class="edge">
<title>hidebound.server&#45;&gt;hidebound.server.server_tools</title>
<path fill="none" stroke="#a0d17b" d="M1842.4213,-550.0901C1851.1168,-546.2798 1859.5525,-541.7196 1867,-536.2776 1888.8193,-520.3343 1880.2858,-501.9178 1903,-487.2776 1905.4608,-485.6916 1907.9983,-484.1968 1910.5985,-482.7881"/>
<polygon fill="#a0d17b" stroke="#a0d17b" points="1912.2377,-485.8823 1919.6609,-478.3228 1909.1437,-479.6032 1912.2377,-485.8823"/>
</g>
<!-- flask -->
<g id="node24" class="node">
<title>flask</title>
<polygon fill="#343434" stroke="#343434" points="1801,-402.2776 1743,-402.2776 1743,-366.2776 1801,-366.2776 1801,-402.2776"/>
<text text-anchor="middle" x="1772" y="-380.5776" font-family="Courier,monospace" font-size="14.00" fill="#de958e">flask</text>
</g>
<!-- flask&#45;&gt;hidebound.server.api -->
<g id="edge51" class="edge">
<title>flask&#45;&gt;hidebound.server.api</title>
<path fill="none" stroke="#de958e" d="M1801.2123,-386.5501C1879.4253,-392.8606 2092.1734,-411.5711 2159,-433.2776 2200.2966,-446.6916 2243.3583,-471.8318 2272.2163,-490.5613"/>
<polygon fill="#de958e" stroke="#de958e" points="2270.422,-493.5704 2280.6985,-496.148 2274.2724,-487.7245 2270.422,-493.5704"/>
</g>
<!-- flask&#45;&gt;hidebound.server.app -->
<g id="edge52" class="edge">
<title>flask&#45;&gt;hidebound.server.app</title>
<path fill="none" stroke="#de958e" d="M1801.1817,-374.4779C1838.1854,-362.0841 1897.8355,-342.2277 1903,-341.2776 2003.5691,-322.7766 2289.2275,-315.3896 2443.385,-312.6858"/>
<polygon fill="#de958e" stroke="#de958e" points="2443.8608,-316.1782 2453.7991,-312.5068 2443.7404,-309.1793 2443.8608,-316.1782"/>
</g>
<!-- flask&#45;&gt;hidebound.server.components -->
<g id="edge53" class="edge">
<title>flask&#45;&gt;hidebound.server.components</title>
<path fill="none" stroke="#de958e" d="M1801.3538,-378.8554C1821.1832,-374.169 1847.2458,-365.9373 1867,-352.2776 1887.7823,-337.907 1881.6601,-321.8065 1903,-308.2776 1909.0517,-304.4411 1915.5356,-301.0643 1922.2557,-298.0923"/>
<polygon fill="#de958e" stroke="#de958e" points="1923.6211,-301.3153 1931.5476,-294.2852 1920.9671,-294.8379 1923.6211,-301.3153"/>
</g>
<!-- flask&#45;&gt;hidebound.server.progress -->
<g id="edge54" class="edge">
<title>flask&#45;&gt;hidebound.server.progress</title>
<path fill="none" stroke="#de958e" d="M1801.2299,-398.254C1822.039,-409.4978 1849.3365,-427.0677 1867,-449.2776 1894.3304,-483.6426 1873.4924,-508.763 1903,-541.2776 1919.854,-559.8492 1943.2347,-573.8636 1965.4072,-584.0341"/>
<polygon fill="#de958e" stroke="#de958e" points="1964.2495,-587.3481 1974.8132,-588.1596 1967.0612,-580.9376 1964.2495,-587.3481"/>
</g>
<!-- flask&#45;&gt;hidebound.server.server_tools -->
<g id="edge55" class="edge">
<title>flask&#45;&gt;hidebound.server.server_tools</title>
<path fill="none" stroke="#de958e" d="M1801.3191,-394.1572C1839.152,-406.901 1900.4598,-427.5348 1903,-428.2776 1916.3569,-432.1838 1930.5832,-436.0382 1944.5139,-439.6454"/>
<polygon fill="#de958e" stroke="#de958e" points="1944.033,-443.1351 1954.5887,-442.2255 1945.7697,-436.3539 1944.033,-443.1351"/>
</g>
<!-- dash.dependencies -->
<g id="node25" class="node">
<title>dash.dependencies</title>
<polygon fill="#343434" stroke="#343434" points="2385,-264.2776 2228,-264.2776 2228,-228.2776 2385,-228.2776 2385,-264.2776"/>
<text text-anchor="middle" x="2306.5" y="-242.5776" font-family="Courier,monospace" font-size="14.00" fill="#de958e">dash.dependencies</text>
</g>
<!-- dash.dependencies&#45;&gt;hidebound.server.app -->
<g id="edge56" class="edge">
<title>dash.dependencies&#45;&gt;hidebound.server.app</title>
<path fill="none" stroke="#de958e" d="M2372.6188,-264.2974C2402.4735,-272.4339 2437.9128,-282.0925 2468.8713,-290.5298"/>
<polygon fill="#de958e" stroke="#de958e" points="2468.1841,-293.9701 2478.7526,-293.2228 2470.0248,-287.2164 2468.1841,-293.9701"/>
</g>
<!-- rolling_pin.blob_etl -->
<g id="node26" class="node">
<title>rolling_pin.blob_etl</title>
<polygon fill="#343434" stroke="#343434" points="1863,-302.2776 1681,-302.2776 1681,-266.2776 1863,-266.2776 1863,-302.2776"/>
<text text-anchor="middle" x="1772" y="-280.5776" font-family="Courier,monospace" font-size="14.00" fill="#de958e">rolling_pin.blob_etl</text>
</g>
<!-- rolling_pin.blob_etl&#45;&gt;hidebound.server.components -->
<g id="edge57" class="edge">
<title>rolling_pin.blob_etl&#45;&gt;hidebound.server.components</title>
<path fill="none" stroke="#de958e" d="M1863.3137,-281.4571C1875.61,-281.0773 1888.4108,-280.6819 1901.2153,-280.2864"/>
<polygon fill="#de958e" stroke="#de958e" points="1901.5884,-283.7767 1911.4755,-279.9695 1901.3722,-276.78 1901.5884,-283.7767"/>
</g>
<!-- dash.exceptions -->
<g id="node27" class="node">
<title>dash.exceptions</title>
<polygon fill="#343434" stroke="#343434" points="2376.5,-210.2776 2236.5,-210.2776 2236.5,-174.2776 2376.5,-174.2776 2376.5,-210.2776"/>
<text text-anchor="middle" x="2306.5" y="-188.5776" font-family="Courier,monospace" font-size="14.00" fill="#de958e">dash.exceptions</text>
</g>
<!-- dash.exceptions&#45;&gt;hidebound.server.app -->
<g id="edge58" class="edge">
<title>dash.exceptions&#45;&gt;hidebound.server.app</title>
<path fill="none" stroke="#de958e" d="M2376.6158,-204.8397C2390.6635,-208.5725 2405.0691,-213.312 2418,-219.2776 2455.3146,-236.4926 2492.7765,-265.3894 2517.2405,-286.2085"/>
<polygon fill="#de958e" stroke="#de958e" points="2515.1649,-289.0406 2525.0197,-292.9307 2519.7417,-283.7441 2515.1649,-289.0406"/>
</g>
<!-- jinja2 -->
<g id="node28" class="node">
<title>jinja2</title>
<polygon fill="#343434" stroke="#343434" points="1805,-494.2776 1739,-494.2776 1739,-458.2776 1805,-458.2776 1805,-494.2776"/>
<text text-anchor="middle" x="1772" y="-472.5776" font-family="Courier,monospace" font-size="14.00" fill="#de958e">jinja2</text>
</g>
<!-- jinja2&#45;&gt;hidebound.server.server_tools -->
<g id="edge59" class="edge">
<title>jinja2&#45;&gt;hidebound.server.server_tools</title>
<path fill="none" stroke="#de958e" d="M1805.0656,-474.235C1827.8677,-472.8264 1859.8721,-470.8492 1892.6367,-468.8252"/>
<polygon fill="#de958e" stroke="#de958e" points="1893.0549,-472.3061 1902.8201,-468.1961 1892.6233,-465.3194 1893.0549,-472.3061"/>
</g>
<!-- flask_healthz -->
<g id="node29" class="node">
<title>flask_healthz</title>
<polygon fill="#343434" stroke="#343434" points="2368.5,-156.2776 2244.5,-156.2776 2244.5,-120.2776 2368.5,-120.2776 2368.5,-156.2776"/>
<text text-anchor="middle" x="2306.5" y="-134.5776" font-family="Courier,monospace" font-size="14.00" fill="#de958e">flask_healthz</text>
</g>
<!-- flask_healthz&#45;&gt;hidebound.server.app -->
<g id="edge60" class="edge">
<title>flask_healthz&#45;&gt;hidebound.server.app</title>
<path fill="none" stroke="#de958e" d="M2368.7618,-146.2736C2385.5733,-150.2747 2403.1935,-156.2763 2418,-165.2776 2467.3304,-195.2671 2507.659,-250.7819 2528.8429,-284.0404"/>
<polygon fill="#de958e" stroke="#de958e" points="2526.0393,-286.159 2534.3017,-292.7911 2531.9785,-282.4541 2526.0393,-286.159"/>
</g>
<!-- flask_monitoringdashboard -->
<g id="node30" class="node">
<title>flask_monitoringdashboard</title>
<polygon fill="#343434" stroke="#343434" points="2418,-102.2776 2195,-102.2776 2195,-66.2776 2418,-66.2776 2418,-102.2776"/>
<text text-anchor="middle" x="2306.5" y="-80.5776" font-family="Courier,monospace" font-size="14.00" fill="#de958e">flask_monitoringdashboard</text>
</g>
<!-- flask_monitoringdashboard&#45;&gt;hidebound.server.app -->
<g id="edge61" class="edge">
<title>flask_monitoringdashboard&#45;&gt;hidebound.server.app</title>
<path fill="none" stroke="#de958e" d="M2402.9534,-102.3859C2408.2402,-104.9685 2413.3035,-107.9155 2418,-111.2776 2479.7449,-155.48 2518.4835,-239.9445 2535.2861,-283.6106"/>
<polygon fill="#de958e" stroke="#de958e" points="2532.0299,-284.8956 2538.8138,-293.0337 2538.5856,-282.4413 2532.0299,-284.8956"/>
</g>
<!-- werkzeug.exceptions -->
<g id="node31" class="node">
<title>werkzeug.exceptions</title>
<polygon fill="#343434" stroke="#343434" points="2117.5,-532.2776 1944.5,-532.2776 1944.5,-496.2776 2117.5,-496.2776 2117.5,-532.2776"/>
<text text-anchor="middle" x="2031" y="-510.5776" font-family="Courier,monospace" font-size="14.00" fill="#de958e">werkzeug.exceptions</text>
</g>
<!-- werkzeug.exceptions&#45;&gt;hidebound.server.api -->
<g id="edge62" class="edge">
<title>werkzeug.exceptions&#45;&gt;hidebound.server.api</title>
<path fill="none" stroke="#de958e" d="M2117.7918,-514.2776C2145.5862,-514.2776 2176.6028,-514.2776 2205.3309,-514.2776"/>
<polygon fill="#de958e" stroke="#de958e" points="2205.3879,-517.7777 2215.3879,-514.2776 2205.3878,-510.7777 2205.3879,-517.7777"/>
</g>
<!-- flasgger -->
<g id="node32" class="node">
<title>flasgger</title>
<polygon fill="#343434" stroke="#343434" points="2072.5,-386.2776 1989.5,-386.2776 1989.5,-350.2776 2072.5,-350.2776 2072.5,-386.2776"/>
<text text-anchor="middle" x="2031" y="-364.5776" font-family="Courier,monospace" font-size="14.00" fill="#de958e">flasgger</text>
</g>
<!-- flasgger&#45;&gt;hidebound.server.api -->
<g id="edge63" class="edge">
<title>flasgger&#45;&gt;hidebound.server.api</title>
<path fill="none" stroke="#de958e" d="M2072.5591,-374.1888C2098.361,-378.9288 2131.6904,-387.0357 2159,-400.2776 2206.3818,-423.2523 2253.1162,-463.0721 2280.8869,-489.0446"/>
<polygon fill="#de958e" stroke="#de958e" points="2278.5359,-491.6386 2288.2016,-495.9774 2283.3513,-486.558 2278.5359,-491.6386"/>
</g>
<!-- flasgger&#45;&gt;hidebound.server.app -->
<g id="edge64" class="edge">
<title>flasgger&#45;&gt;hidebound.server.app</title>
<path fill="none" stroke="#de958e" d="M2072.524,-368.31C2143.6926,-367.7855 2293.3552,-364.1471 2418,-344.2776 2436.8788,-341.2682 2457.0274,-336.6857 2475.5846,-331.8849"/>
<polygon fill="#de958e" stroke="#de958e" points="2476.6471,-335.2243 2485.4193,-329.2832 2474.8568,-328.4571 2476.6471,-335.2243"/>
</g>
<!-- pandasql -->
<g id="node33" class="node">
<title>pandasql</title>
<polygon fill="#343434" stroke="#343434" points="1813.5,-1406.2776 1730.5,-1406.2776 1730.5,-1370.2776 1813.5,-1370.2776 1813.5,-1406.2776"/>
<text text-anchor="middle" x="1772" y="-1384.5776" font-family="Courier,monospace" font-size="14.00" fill="#de958e">pandasql</text>
</g>
<!-- pandasql&#45;&gt;hidebound.core.database -->
<g id="edge65" class="edge">
<title>pandasql&#45;&gt;hidebound.core.database</title>
<path fill="none" stroke="#de958e" d="M1813.6264,-1382.2051C1831.1539,-1378.2428 1851.1229,-1371.7728 1867,-1361.2776 1937.2484,-1314.8415 1991.939,-1228.8292 2016.6337,-1185.1844"/>
<polygon fill="#de958e" stroke="#de958e" points="2019.7767,-1186.734 2021.5795,-1176.2937 2013.6595,-1183.3311 2019.7767,-1186.734"/>
</g>
<!-- json_logging -->
<g id="node34" class="node">
<title>json_logging</title>
<polygon fill="#343434" stroke="#343434" points="646,-956.2776 530,-956.2776 530,-920.2776 646,-920.2776 646,-956.2776"/>
<text text-anchor="middle" x="588" y="-934.5776" font-family="Courier,monospace" font-size="14.00" fill="#de958e">json_logging</text>
</g>
<!-- json_logging&#45;&gt;hidebound.core.logging -->
<g id="edge66" class="edge">
<title>json_logging&#45;&gt;hidebound.core.logging</title>
<path fill="none" stroke="#de958e" d="M646.0848,-938.2776C668.5981,-938.2776 695.1424,-938.2776 720.9707,-938.2776"/>
<polygon fill="#de958e" stroke="#de958e" points="721.2073,-941.7777 731.2073,-938.2776 721.2073,-934.7777 721.2073,-941.7777"/>
</g>
<!-- requests -->
<g id="node35" class="node">
<title>requests</title>
<polygon fill="#343434" stroke="#343434" points="1813.5,-1352.2776 1730.5,-1352.2776 1730.5,-1316.2776 1813.5,-1316.2776 1813.5,-1352.2776"/>
<text text-anchor="middle" x="1772" y="-1330.5776" font-family="Courier,monospace" font-size="14.00" fill="#de958e">requests</text>
</g>
<!-- requests&#45;&gt;hidebound.core.database -->
<g id="edge67" class="edge">
<title>requests&#45;&gt;hidebound.core.database</title>
<path fill="none" stroke="#de958e" d="M1813.8388,-1326.7738C1831.0161,-1322.5982 1850.6635,-1316.3558 1867,-1307.2776 1925.587,-1274.7207 1980.3932,-1217.4606 2009.4263,-1184.2045"/>
<polygon fill="#de958e" stroke="#de958e" points="2012.3638,-1186.1571 2016.2389,-1176.2964 2007.0604,-1181.5883 2012.3638,-1186.1571"/>
</g>
<!-- dask.distributed -->
<g id="node36" class="node">
<title>dask.distributed</title>
<polygon fill="#343434" stroke="#343434" points="1846.5,-1298.2776 1697.5,-1298.2776 1697.5,-1262.2776 1846.5,-1262.2776 1846.5,-1298.2776"/>
<text text-anchor="middle" x="1772" y="-1276.5776" font-family="Courier,monospace" font-size="14.00" fill="#de958e">dask.distributed</text>
</g>
<!-- dask.distributed&#45;&gt;hidebound.core.database -->
<g id="edge68" class="edge">
<title>dask.distributed&#45;&gt;hidebound.core.database</title>
<path fill="none" stroke="#de958e" d="M1830.8991,-1262.2492C1842.9901,-1258.0451 1855.525,-1253.3116 1867,-1248.2776 1911.7208,-1228.6592 1960.4854,-1201.0379 1993.1155,-1181.583"/>
<polygon fill="#de958e" stroke="#de958e" points="1995.1014,-1184.4731 2001.8742,-1176.3256 1991.4989,-1178.4712 1995.1014,-1184.4731"/>
</g>
<!-- botocore.exceptions -->
<g id="node37" class="node">
<title>botocore.exceptions</title>
<polygon fill="#343434" stroke="#343434" points="1209,-1672.2776 1036,-1672.2776 1036,-1636.2776 1209,-1636.2776 1209,-1672.2776"/>
<text text-anchor="middle" x="1122.5" y="-1650.5776" font-family="Courier,monospace" font-size="14.00" fill="#de958e">botocore.exceptions</text>
</g>
<!-- botocore.exceptions&#45;&gt;hidebound.exporters.s3_exporter -->
<g id="edge69" class="edge">
<title>botocore.exceptions&#45;&gt;hidebound.exporters.s3_exporter</title>
<path fill="none" stroke="#de958e" d="M1209.3423,-1654.2776C1244.5665,-1654.2776 1286.2342,-1654.2776 1325.8806,-1654.2776"/>
<polygon fill="#de958e" stroke="#de958e" points="1325.9116,-1657.7777 1335.9115,-1654.2776 1325.9115,-1650.7777 1325.9116,-1657.7777"/>
</g>
<!-- boto3 -->
<g id="node38" class="node">
<title>boto3</title>
<polygon fill="#343434" stroke="#343434" points="1151.5,-1764.2776 1093.5,-1764.2776 1093.5,-1728.2776 1151.5,-1728.2776 1151.5,-1764.2776"/>
<text text-anchor="middle" x="1122.5" y="-1742.5776" font-family="Courier,monospace" font-size="14.00" fill="#de958e">boto3</text>
</g>
<!-- boto3&#45;&gt;hidebound.exporters.s3_exporter -->
<g id="edge70" class="edge">
<title>boto3&#45;&gt;hidebound.exporters.s3_exporter</title>
<path fill="none" stroke="#de958e" d="M1151.6967,-1740.4094C1180.9804,-1734.3836 1227.3047,-1724.4699 1267,-1714.2776 1313.1234,-1702.4349 1364.5554,-1687.3763 1404.3652,-1675.3078"/>
<polygon fill="#de958e" stroke="#de958e" points="1405.4175,-1678.6461 1413.9659,-1672.387 1403.3801,-1671.9492 1405.4175,-1678.6461"/>
</g>
<!-- lunchbox.tools -->
<g id="node39" class="node">
<title>lunchbox.tools</title>
<polygon fill="#343434" stroke="#343434" points="1188.5,-582.2776 1056.5,-582.2776 1056.5,-546.2776 1188.5,-546.2776 1188.5,-582.2776"/>
<text text-anchor="middle" x="1122.5" y="-560.5776" font-family="Courier,monospace" font-size="14.00" fill="#de958e">lunchbox.tools</text>
</g>
<!-- lunchbox.tools&#45;&gt;hidebound.core.database_tools -->
<g id="edge71" class="edge">
<title>lunchbox.tools&#45;&gt;hidebound.core.database_tools</title>
<path fill="none" stroke="#de958e" d="M1142.0395,-582.3915C1201.0067,-637.0564 1377.2751,-800.464 1445.0438,-863.2882"/>
<polygon fill="#de958e" stroke="#de958e" points="1442.6697,-865.8599 1452.3827,-870.0916 1447.4286,-860.7264 1442.6697,-865.8599"/>
</g>
<!-- lunchbox.tools&#45;&gt;hidebound.server.server_tools -->
<g id="edge72" class="edge">
<title>lunchbox.tools&#45;&gt;hidebound.server.server_tools</title>
<path fill="none" stroke="#de958e" d="M1188.6954,-566.2163C1320.2048,-568.4683 1622.7574,-565.6399 1867,-503.2776 1883.9648,-498.946 1886.3419,-492.6699 1903,-487.2776 1910.0612,-484.9919 1917.4055,-482.8498 1924.8455,-480.8518"/>
<polygon fill="#de958e" stroke="#de958e" points="1925.8626,-484.2039 1934.6656,-478.3083 1924.1074,-477.4275 1925.8626,-484.2039"/>
</g>
<!-- girder_client -->
<g id="node40" class="node">
<title>girder_client</title>
<polygon fill="#343434" stroke="#343434" points="1184.5,-1428.2776 1060.5,-1428.2776 1060.5,-1392.2776 1184.5,-1392.2776 1184.5,-1428.2776"/>
<text text-anchor="middle" x="1122.5" y="-1406.5776" font-family="Courier,monospace" font-size="14.00" fill="#de958e">girder_client</text>
</g>
<!-- girder_client&#45;&gt;hidebound.exporters.girder_exporter -->
<g id="edge73" class="edge">
<title>girder_client&#45;&gt;hidebound.exporters.girder_exporter</title>
<path fill="none" stroke="#de958e" d="M1184.5809,-1414.3631C1219.5037,-1416.6613 1264.8921,-1419.6482 1309.2451,-1422.567"/>
<polygon fill="#de958e" stroke="#de958e" points="1309.0773,-1426.0635 1319.2856,-1423.2278 1309.5371,-1419.0786 1309.0773,-1426.0635"/>
</g>
<!-- numpy -->
<g id="node41" class="node">
<title>numpy</title>
<polygon fill="#343434" stroke="#343434" points="1151.5,-788.2776 1093.5,-788.2776 1093.5,-752.2776 1151.5,-752.2776 1151.5,-788.2776"/>
<text text-anchor="middle" x="1122.5" y="-766.5776" font-family="Courier,monospace" font-size="14.00" fill="#de958e">numpy</text>
</g>
<!-- numpy&#45;&gt;hidebound.core.database -->
<g id="edge74" class="edge">
<title>numpy&#45;&gt;hidebound.core.database</title>
<path fill="none" stroke="#de958e" d="M1151.7163,-777.4005C1187.2696,-785.8425 1249.2196,-799.8267 1303,-808.2776 1427.4896,-827.8397 1761.6543,-798.1212 1867,-867.2776 1963.0392,-930.3246 2008.6489,-1070.0572 2024.3664,-1130.0339"/>
<polygon fill="#de958e" stroke="#de958e" points="2021.0278,-1131.1079 2026.8786,-1139.9407 2027.8131,-1129.3872 2021.0278,-1131.1079"/>
</g>
<!-- numpy&#45;&gt;hidebound.core.database_tools -->
<g id="edge75" class="edge">
<title>numpy&#45;&gt;hidebound.core.database_tools</title>
<path fill="none" stroke="#de958e" d="M1151.6014,-770.4819C1182.706,-772.0341 1232.2298,-778.4714 1267,-802.2776 1290.8004,-818.5731 1278.9515,-840.3506 1303,-856.2776 1312.5317,-862.5903 1322.9922,-867.7306 1333.8906,-871.9079"/>
<polygon fill="#de958e" stroke="#de958e" points="1332.9735,-875.2961 1343.5683,-875.3363 1335.311,-868.6979 1332.9735,-875.2961"/>
</g>
<!-- numpy&#45;&gt;hidebound.server.api -->
<g id="edge76" class="edge">
<title>numpy&#45;&gt;hidebound.server.api</title>
<path fill="none" stroke="#de958e" d="M1151.6283,-774.2874C1278.8845,-790.4389 1795.8881,-841.7759 2159,-666.2776 2174.4736,-658.799 2246.0097,-581.1808 2283.4738,-539.8542"/>
<polygon fill="#de958e" stroke="#de958e" points="2286.1546,-542.108 2290.2687,-532.3446 2280.964,-537.4115 2286.1546,-542.108"/>
</g>
<!-- hidebound.exporters -->
<g id="node42" class="node">
<title>hidebound.exporters</title>
<polygon fill="#343434" stroke="#343434" points="917,-1260.2776 744,-1260.2776 744,-1224.2776 917,-1224.2776 917,-1260.2776"/>
<text text-anchor="middle" x="830.5" y="-1238.5776" font-family="Courier,monospace" font-size="14.00" fill="#a0d17b">hidebound.exporters</text>
</g>
<!-- hidebound.exporters&#45;&gt;hidebound.exporters.exporter_base -->
<g id="edge77" class="edge">
<title>hidebound.exporters&#45;&gt;hidebound.exporters.exporter_base</title>
<path fill="none" stroke="#a0d17b" d="M899.6999,-1260.2886C942.908,-1271.5345 998.6617,-1286.0457 1043.5864,-1297.7385"/>
<polygon fill="#a0d17b" stroke="#a0d17b" points="1042.7322,-1301.1327 1053.2914,-1300.2644 1044.4954,-1294.3584 1042.7322,-1301.1327"/>
</g>
<!-- hidebound.exporters&#45;&gt;hidebound.exporters.girder_exporter -->
<g id="edge78" class="edge">
<title>hidebound.exporters&#45;&gt;hidebound.exporters.girder_exporter</title>
<path fill="none" stroke="#a0d17b" d="M917.05,-1239.6995C1007.2577,-1239.7989 1151.33,-1247.8984 1267,-1291.2776 1338.2292,-1317.9904 1408.2556,-1374.9304 1445.1739,-1408.0188"/>
<polygon fill="#a0d17b" stroke="#a0d17b" points="1443.2114,-1410.9643 1452.9684,-1415.0936 1447.9161,-1405.781 1443.2114,-1410.9643"/>
</g>
<!-- hidebound.exporters&#45;&gt;hidebound.exporters.local_disk_exporter -->
<g id="edge79" class="edge">
<title>hidebound.exporters&#45;&gt;hidebound.exporters.local_disk_exporter</title>
<path fill="none" stroke="#a0d17b" d="M864.2004,-1224.1758C893.3671,-1209.5977 937.1678,-1190.2647 978,-1182.2776 1104.0555,-1157.6202 1141.2935,-1155.8986 1267,-1182.2776 1327.8779,-1195.0526 1392.7545,-1227.0267 1432.8398,-1249.2036"/>
<polygon fill="#a0d17b" stroke="#a0d17b" points="1431.3078,-1252.3572 1441.7422,-1254.1939 1434.7307,-1246.2511 1431.3078,-1252.3572"/>
</g>
<!-- hidebound.exporters&#45;&gt;hidebound.exporters.s3_exporter -->
<g id="edge80" class="edge">
<title>hidebound.exporters&#45;&gt;hidebound.exporters.s3_exporter</title>
<path fill="none" stroke="#a0d17b" d="M908.6978,-1260.393C921.2138,-1266.2615 932.9894,-1274.0211 942,-1284.2776 988.1058,-1336.7587 931.9053,-1384.7869 978,-1437.2776 1068.581,-1540.4276 1141.81,-1489.9544 1267,-1546.2776 1325.6623,-1572.6699 1391.024,-1608.2293 1431.8276,-1631.2061"/>
<polygon fill="#a0d17b" stroke="#a0d17b" points="1430.223,-1634.3195 1440.6507,-1636.1941 1433.6679,-1628.2259 1430.223,-1634.3195"/>
</g>
<!-- schematics -->
<g id="node43" class="node">
<title>schematics</title>
<polygon fill="#343434" stroke="#343434" points="880,-1783.2776 781,-1783.2776 781,-1747.2776 880,-1747.2776 880,-1783.2776"/>
<text text-anchor="middle" x="830.5" y="-1761.5776" font-family="Courier,monospace" font-size="14.00" fill="#de958e">schematics</text>
</g>
<!-- schematics&#45;&gt;hidebound.core.config -->
<g id="edge81" class="edge">
<title>schematics&#45;&gt;hidebound.core.config</title>
<path fill="none" stroke="#de958e" d="M880.3083,-1782.7567C908.5682,-1791.7488 944.8183,-1801.7517 978,-1806.2776 1222.7039,-1839.6546 1513.7221,-1819.4661 1666.4217,-1804.3335"/>
<polygon fill="#de958e" stroke="#de958e" points="1667.1258,-1807.7805 1676.7262,-1803.2991 1666.4266,-1800.8155 1667.1258,-1807.7805"/>
</g>
<!-- schematics&#45;&gt;hidebound.core.specification_base -->
<g id="edge82" class="edge">
<title>schematics&#45;&gt;hidebound.core.specification_base</title>
<path fill="none" stroke="#de958e" d="M857.9814,-1783.4509C881.1189,-1799.1668 914.7087,-1822.97 942,-1846.2776 959.2064,-1860.9725 960.8937,-1867.4663 978,-1882.2776 1013.7734,-1913.2516 1057.6524,-1945.2829 1087.6092,-1966.3348"/>
<polygon fill="#de958e" stroke="#de958e" points="1085.8509,-1969.3761 1096.0523,-1972.2365 1089.8613,-1963.6387 1085.8509,-1969.3761"/>
</g>
<!-- schematics&#45;&gt;hidebound.exporters.exporter_base -->
<g id="edge83" class="edge">
<title>schematics&#45;&gt;hidebound.exporters.exporter_base</title>
<path fill="none" stroke="#de958e" d="M880.0118,-1760.5001C902.3895,-1755.683 927.101,-1746.1311 942,-1727.2776 994.1802,-1661.2478 922.2523,-1413.3245 978,-1350.2776 980.4573,-1347.4986 983.0971,-1344.9312 985.8908,-1342.5605"/>
<polygon fill="#de958e" stroke="#de958e" points="988.2347,-1345.1782 994.1484,-1336.3874 984.0434,-1339.5717 988.2347,-1345.1782"/>
</g>
<!-- schematics&#45;&gt;hidebound.exporters.girder_exporter -->
<g id="edge84" class="edge">
<title>schematics&#45;&gt;hidebound.exporters.girder_exporter</title>
<path fill="none" stroke="#de958e" d="M880.0721,-1759.0052C901.777,-1753.8429 925.9115,-1744.4323 942,-1727.2776 983.8917,-1682.6099 935.8098,-1638.6636 978,-1594.2776 1032.8899,-1536.5311 1247.2429,-1481.8194 1374.8546,-1453.4498"/>
<polygon fill="#de958e" stroke="#de958e" points="1375.6376,-1456.8613 1384.6473,-1451.2866 1374.1277,-1450.0261 1375.6376,-1456.8613"/>
</g>
<!-- schematics.types -->
<g id="node44" class="node">
<title>schematics.types</title>
<polygon fill="#343434" stroke="#343434" points="905,-1718.2776 756,-1718.2776 756,-1682.2776 905,-1682.2776 905,-1718.2776"/>
<text text-anchor="middle" x="830.5" y="-1696.5776" font-family="Courier,monospace" font-size="14.00" fill="#de958e">schematics.types</text>
</g>
<!-- schematics.types&#45;&gt;hidebound.core.config -->
<g id="edge85" class="edge">
<title>schematics.types&#45;&gt;hidebound.core.config</title>
<path fill="none" stroke="#de958e" d="M899.2857,-1718.3831C913.938,-1723.6815 928.9229,-1730.262 942,-1738.2776 961.0257,-1749.9395 957.4256,-1764.6366 978,-1773.2776 1039.7672,-1799.2193 1465.3496,-1796.7234 1666.7642,-1794.0165"/>
<polygon fill="#de958e" stroke="#de958e" points="1666.8193,-1797.5161 1676.7704,-1793.8793 1666.7233,-1790.5168 1666.8193,-1797.5161"/>
</g>
<!-- schematics.types&#45;&gt;hidebound.core.specification_base -->
<g id="edge86" class="edge">
<title>schematics.types&#45;&gt;hidebound.core.specification_base</title>
<path fill="none" stroke="#de958e" d="M905.0526,-1714.1551C918.8506,-1719.6931 932.0316,-1727.4403 942,-1738.2776 986.6604,-1786.8312 941.4634,-1827.3497 978,-1882.2776 1002.655,-1919.3431 1044.4772,-1948.5428 1076.8029,-1967.1849"/>
<polygon fill="#de958e" stroke="#de958e" points="1075.215,-1970.3074 1085.6465,-1972.1608 1078.6476,-1964.2068 1075.215,-1970.3074"/>
</g>
<!-- schematics.types&#45;&gt;hidebound.core.specifications -->
<g id="edge87" class="edge">
<title>schematics.types&#45;&gt;hidebound.core.specifications</title>
<path fill="none" stroke="#de958e" d="M905.1695,-1716.9414C918.4036,-1722.2403 931.3414,-1729.1868 942,-1738.2776 968.0181,-1760.4687 953.5014,-1782.4197 978,-1806.2776 1012.9318,-1840.296 1305.1372,-1975.3385 1422.9998,-2029.0636"/>
<polygon fill="#de958e" stroke="#de958e" points="1421.6319,-2032.2864 1432.1832,-2033.2459 1424.5332,-2025.916 1421.6319,-2032.2864"/>
</g>
<!-- schematics.types&#45;&gt;hidebound.exporters.exporter_base -->
<g id="edge88" class="edge">
<title>schematics.types&#45;&gt;hidebound.exporters.exporter_base</title>
<path fill="none" stroke="#de958e" d="M832.4053,-1681.9951C839.5061,-1623.645 869.868,-1440.4256 978,-1350.2776 982.0289,-1346.9188 986.334,-1343.8922 990.8458,-1341.1662"/>
<polygon fill="#de958e" stroke="#de958e" points="992.6684,-1344.1586 999.7587,-1336.286 989.3065,-1338.0187 992.6684,-1344.1586"/>
</g>
<!-- schematics.types&#45;&gt;hidebound.exporters.girder_exporter -->
<g id="edge89" class="edge">
<title>schematics.types&#45;&gt;hidebound.exporters.girder_exporter</title>
<path fill="none" stroke="#de958e" d="M836.538,-1682.0389C852.0506,-1638.4035 897.8153,-1528.0724 978,-1480.2776 1006.2183,-1463.4579 1176.1739,-1449.9965 1308.9538,-1441.8623"/>
<polygon fill="#de958e" stroke="#de958e" points="1309.4829,-1445.3367 1319.2525,-1441.2375 1309.0589,-1438.3496 1309.4829,-1445.3367"/>
</g>
<!-- schematics.types&#45;&gt;hidebound.exporters.local_disk_exporter -->
<g id="edge90" class="edge">
<title>schematics.types&#45;&gt;hidebound.exporters.local_disk_exporter</title>
<path fill="none" stroke="#de958e" d="M835.75,-1682.117C857.9025,-1606.0736 944.1496,-1316.0395 978,-1291.2776 1003.4018,-1272.6961 1161.8689,-1269.1702 1292.5791,-1269.5473"/>
<polygon fill="#de958e" stroke="#de958e" points="1292.7228,-1273.0478 1302.7356,-1269.5846 1292.7485,-1266.0478 1292.7228,-1273.0478"/>
</g>
<!-- schematics.types&#45;&gt;hidebound.exporters.s3_exporter -->
<g id="edge91" class="edge">
<title>schematics.types&#45;&gt;hidebound.exporters.s3_exporter</title>
<path fill="none" stroke="#de958e" d="M905.1619,-1699.0126C992.1794,-1697.0785 1140.2403,-1692.3626 1267,-1681.2776 1290.1554,-1679.2527 1314.7119,-1676.5249 1338.4795,-1673.5792"/>
<polygon fill="#de958e" stroke="#de958e" points="1339.126,-1677.0255 1348.611,-1672.3048 1338.2523,-1670.0802 1339.126,-1677.0255"/>
</g>
<!-- hidebound -->
<g id="node45" class="node">
<title>hidebound</title>
<polygon fill="#343434" stroke="#343434" points="190,-1260.2776 99,-1260.2776 99,-1224.2776 190,-1224.2776 190,-1260.2776"/>
<text text-anchor="middle" x="144.5" y="-1238.5776" font-family="Courier,monospace" font-size="14.00" fill="#a0d17b">hidebound</text>
</g>
<!-- hidebound&#45;&gt;hidebound.server -->
<g id="edge92" class="edge">
<title>hidebound&#45;&gt;hidebound.server</title>
<path fill="none" stroke="#a0d17b" d="M190.1334,-1245.6259C221.734,-1245.3931 262.6899,-1239.6395 289,-1215.2776 574.554,-950.8694 198.8306,-392.2776 588,-392.2776 588,-392.2776 588,-392.2776 1122.5,-392.2776 1355.2624,-392.2776 1619.1251,-498.8812 1724.6945,-546.1559"/>
<polygon fill="#a0d17b" stroke="#a0d17b" points="1723.2606,-549.3487 1733.8153,-550.2697 1726.1386,-542.9677 1723.2606,-549.3487"/>
</g>
<!-- hidebound&#45;&gt;hidebound.exporters -->
<g id="edge93" class="edge">
<title>hidebound&#45;&gt;hidebound.exporters</title>
<path fill="none" stroke="#a0d17b" d="M190.0416,-1242.2776C300.3243,-1242.2776 583.6659,-1242.2776 733.7973,-1242.2776"/>
<polygon fill="#a0d17b" stroke="#a0d17b" points="733.9313,-1245.7777 743.9313,-1242.2776 733.9313,-1238.7777 733.9313,-1245.7777"/>
</g>
<!-- hidebound.core -->
<g id="node53" class="node">
<title>hidebound.core</title>
<polygon fill="#343434" stroke="#343434" points="457,-1878.2776 325,-1878.2776 325,-1842.2776 457,-1842.2776 457,-1878.2776"/>
<text text-anchor="middle" x="391" y="-1856.5776" font-family="Courier,monospace" font-size="14.00" fill="#a0d17b">hidebound.core</text>
</g>
<!-- hidebound&#45;&gt;hidebound.core -->
<g id="edge94" class="edge">
<title>hidebound&#45;&gt;hidebound.core</title>
<path fill="none" stroke="#a0d17b" d="M190.1438,-1238.2196C222.1694,-1238.0295 263.6418,-1243.5667 289,-1269.2776 369.0602,-1350.4516 386.7887,-1725.2508 390.241,-1831.8962"/>
<polygon fill="#a0d17b" stroke="#a0d17b" points="386.7515,-1832.2979 390.556,-1842.1861 393.7483,-1832.0837 386.7515,-1832.2979"/>
</g>
<!-- wrapt -->
<g id="node46" class="node">
<title>wrapt</title>
<polygon fill="#343434" stroke="#343434" points="617,-1832.2776 559,-1832.2776 559,-1796.2776 617,-1796.2776 617,-1832.2776"/>
<text text-anchor="middle" x="588" y="-1810.5776" font-family="Courier,monospace" font-size="14.00" fill="#de958e">wrapt</text>
</g>
<!-- wrapt&#45;&gt;hidebound.core.validators -->
<g id="edge95" class="edge">
<title>wrapt&#45;&gt;hidebound.core.validators</title>
<path fill="none" stroke="#de958e" d="M617.3084,-1821.396C636.641,-1826.7452 662.1494,-1835.0764 683,-1846.2776 700.8562,-1855.8703 700.9305,-1865.093 719,-1874.2776 726.7611,-1878.2226 735.0807,-1881.7477 743.5487,-1884.8824"/>
<polygon fill="#de958e" stroke="#de958e" points="742.5557,-1888.2432 753.1506,-1888.257 744.8768,-1881.6392 742.5557,-1888.2432"/>
</g>
<!-- pyparsing -->
<g id="node47" class="node">
<title>pyparsing</title>
<polygon fill="#343434" stroke="#343434" points="436.5,-1970.2776 345.5,-1970.2776 345.5,-1934.2776 436.5,-1934.2776 436.5,-1970.2776"/>
<text text-anchor="middle" x="391" y="-1948.5776" font-family="Courier,monospace" font-size="14.00" fill="#de958e">pyparsing</text>
</g>
<!-- pyparsing&#45;&gt;hidebound.core.parser -->
<g id="edge96" class="edge">
<title>pyparsing&#45;&gt;hidebound.core.parser</title>
<path fill="none" stroke="#de958e" d="M436.6909,-1941.6087C455.8002,-1937.1466 478.6743,-1931.8055 500.7804,-1926.6436"/>
<polygon fill="#de958e" stroke="#de958e" points="501.587,-1930.0495 510.5292,-1924.3673 499.9952,-1923.2329 501.587,-1930.0495"/>
</g>
<!-- pyparsing&#45;&gt;hidebound.core.specification_base -->
<g id="edge97" class="edge">
<title>pyparsing&#45;&gt;hidebound.core.specification_base</title>
<path fill="none" stroke="#de958e" d="M417.7595,-1970.3677C437.5738,-1982.6221 465.7488,-1997.732 493,-2004.2776 687.0367,-2050.8844 742.5939,-2011.9992 942,-2004.2776 950.3524,-2003.9542 958.9173,-2003.5469 967.5605,-2003.0766"/>
<polygon fill="#de958e" stroke="#de958e" points="967.9501,-2006.5602 977.7347,-2002.4969 967.5518,-1999.5715 967.9501,-2006.5602"/>
</g>
<!-- pyparsing&#45;&gt;hidebound.core.validators -->
<g id="edge98" class="edge">
<title>pyparsing&#45;&gt;hidebound.core.validators</title>
<path fill="none" stroke="#de958e" d="M436.674,-1950.9462C494.2775,-1948.8905 596.2814,-1943.9992 683,-1933.2776 698.7259,-1931.3334 715.3121,-1928.7873 731.4604,-1926.0355"/>
<polygon fill="#de958e" stroke="#de958e" points="732.1943,-1929.4605 741.4469,-1924.2991 730.9951,-1922.564 732.1943,-1929.4605"/>
</g>
<!-- jsoncomment -->
<g id="node48" class="node">
<title>jsoncomment</title>
<polygon fill="#343434" stroke="#343434" points="641.5,-498.2776 534.5,-498.2776 534.5,-462.2776 641.5,-462.2776 641.5,-498.2776"/>
<text text-anchor="middle" x="588" y="-476.5776" font-family="Courier,monospace" font-size="14.00" fill="#de958e">jsoncomment</text>
</g>
<!-- jsoncomment&#45;&gt;hidebound.core.database -->
<g id="edge99" class="edge">
<title>jsoncomment&#45;&gt;hidebound.core.database</title>
<path fill="none" stroke="#de958e" d="M641.9028,-480.3384C757.6479,-481.4394 1038.0381,-489.3154 1267,-537.2776 1542.8155,-595.0546 1663.1776,-547.6786 1867,-742.2776 1982.866,-852.9005 2018.4983,-1055.4752 2027.9613,-1129.8888"/>
<polygon fill="#de958e" stroke="#de958e" points="2024.4981,-1130.4045 2029.174,-1139.9117 2031.4474,-1129.5636 2024.4981,-1130.4045"/>
</g>
<!-- jsoncomment&#45;&gt;hidebound.core.tools -->
<g id="edge100" class="edge">
<title>jsoncomment&#45;&gt;hidebound.core.tools</title>
<path fill="none" stroke="#de958e" d="M596.3261,-498.5172C615.5084,-541.489 662.7193,-652.8868 683,-751.2776 706.2947,-864.2906 650.0932,-1176.7227 719,-1269.2776 724.6244,-1276.8322 731.7751,-1283.0281 739.7314,-1288.1097"/>
<polygon fill="#de958e" stroke="#de958e" points="738.2269,-1291.2809 748.6469,-1293.1979 741.6967,-1285.2013 738.2269,-1291.2809"/>
</g>
<!-- jsoncomment&#45;&gt;hidebound.server.server_tools -->
<g id="edge101" class="edge">
<title>jsoncomment&#45;&gt;hidebound.server.server_tools</title>
<path fill="none" stroke="#de958e" d="M641.7104,-471.9088C737.8656,-457.675 945.8855,-430.2776 1122.5,-430.2776 1122.5,-430.2776 1122.5,-430.2776 1472,-430.2776 1615.6341,-430.2776 1779.7302,-440.276 1892.7926,-448.7286"/>
<polygon fill="#de958e" stroke="#de958e" points="1892.6534,-452.2279 1902.8882,-449.4893 1893.1795,-445.2477 1892.6534,-452.2279"/>
</g>
<!-- pandas -->
<g id="node49" class="node">
<title>pandas</title>
<polygon fill="#343434" stroke="#343434" points="621,-864.2776 555,-864.2776 555,-828.2776 621,-828.2776 621,-864.2776"/>
<text text-anchor="middle" x="588" y="-842.5776" font-family="Courier,monospace" font-size="14.00" fill="#de958e">pandas</text>
</g>
<!-- pandas&#45;&gt;hidebound.core.database -->
<g id="edge102" class="edge">
<title>pandas&#45;&gt;hidebound.core.database</title>
<path fill="none" stroke="#de958e" d="M621.0663,-834.426C687.5775,-811.2888 842.7519,-760.8363 978,-743.2776 1105.3755,-726.741 1139.3225,-729.2622 1267,-743.2776 1283.2924,-745.0661 1286.8441,-748.5155 1303,-751.2776 1365.2178,-761.9147 1815.6313,-782.5973 1867,-819.2776 1974.6068,-896.1154 2014.5475,-1063.1212 2026.5769,-1129.8737"/>
<polygon fill="#de958e" stroke="#de958e" points="2023.1845,-1130.7975 2028.3333,-1140.0571 2030.0826,-1129.6076 2023.1845,-1130.7975"/>
</g>
<!-- pandas&#45;&gt;hidebound.core.database_tools -->
<g id="edge103" class="edge">
<title>pandas&#45;&gt;hidebound.core.database_tools</title>
<path fill="none" stroke="#de958e" d="M621.2082,-847.8232C719.7109,-852.4121 1018.8682,-866.3787 1267,-878.2776 1288.5281,-879.31 1311.3274,-880.4128 1333.5954,-881.4951"/>
<polygon fill="#de958e" stroke="#de958e" points="1333.6245,-885.0005 1343.7827,-881.9906 1333.9646,-878.0088 1333.6245,-885.0005"/>
</g>
<!-- pandas&#45;&gt;hidebound.core.tools -->
<g id="edge104" class="edge">
<title>pandas&#45;&gt;hidebound.core.tools</title>
<path fill="none" stroke="#de958e" d="M621.4426,-860.0922C642.805,-870.7718 669.03,-887.7317 683,-911.2776 764.5971,-1048.8068 621.5381,-1142.4962 719,-1269.2776 724.8948,-1276.9458 732.3559,-1283.2139 740.6145,-1288.3376"/>
<polygon fill="#de958e" stroke="#de958e" points="739.0378,-1291.4657 749.4773,-1293.2735 742.4438,-1285.3501 739.0378,-1291.4657"/>
</g>
<!-- pandas&#45;&gt;hidebound.core.validators -->
<g id="edge105" class="edge">
<title>pandas&#45;&gt;hidebound.core.validators</title>
<path fill="none" stroke="#de958e" d="M621.4283,-859.5997C643.0763,-870.1491 669.6384,-887.1526 683,-911.2776 777.9338,-1082.6851 641.3318,-1612.3871 719,-1792.2776 735.0413,-1829.4316 769.1184,-1861.3252 795.4035,-1881.8516"/>
<polygon fill="#de958e" stroke="#de958e" points="793.5527,-1884.8413 803.6311,-1888.1089 797.7902,-1879.2695 793.5527,-1884.8413"/>
</g>
<!-- pandas&#45;&gt;hidebound.server.components -->
<g id="edge106" class="edge">
<title>pandas&#45;&gt;hidebound.server.components</title>
<path fill="none" stroke="#de958e" d="M621.2045,-837.6287C640.8852,-831.2106 665.3478,-820.8392 683,-805.2776 706.6144,-784.46 698.3647,-768.0515 719,-744.2776 815.5932,-632.9928 846.1658,-603.1132 978,-537.2776 1065.159,-493.7521 1699.2639,-350.0942 1939.2811,-296.5924"/>
<polygon fill="#de958e" stroke="#de958e" points="1940.3773,-299.9341 1949.3769,-294.3433 1938.8551,-293.1016 1940.3773,-299.9341"/>
</g>
<!-- OpenEXR -->
<g id="node50" class="node">
<title>OpenEXR</title>
<polygon fill="#343434" stroke="#343434" points="625,-1329.2776 551,-1329.2776 551,-1293.2776 625,-1293.2776 625,-1329.2776"/>
<text text-anchor="middle" x="588" y="-1307.5776" font-family="Courier,monospace" font-size="14.00" fill="#de958e">OpenEXR</text>
</g>
<!-- OpenEXR&#45;&gt;hidebound.core.tools -->
<g id="edge107" class="edge">
<title>OpenEXR&#45;&gt;hidebound.core.tools</title>
<path fill="none" stroke="#de958e" d="M625.0945,-1311.2776C652.8668,-1311.2776 692.2626,-1311.2776 729.1359,-1311.2776"/>
<polygon fill="#de958e" stroke="#de958e" points="729.4574,-1314.7777 739.4574,-1311.2776 729.4574,-1307.7777 729.4574,-1314.7777"/>
</g>
<!-- dask.dataframe -->
<g id="node51" class="node">
<title>dask.dataframe</title>
<polygon fill="#343434" stroke="#343434" points="654,-796.2776 522,-796.2776 522,-760.2776 654,-760.2776 654,-796.2776"/>
<text text-anchor="middle" x="588" y="-774.5776" font-family="Courier,monospace" font-size="14.00" fill="#de958e">dask.dataframe</text>
</g>
<!-- dask.dataframe&#45;&gt;hidebound.core.database -->
<g id="edge108" class="edge">
<title>dask.dataframe&#45;&gt;hidebound.core.database</title>
<path fill="none" stroke="#de958e" d="M647.8223,-760.2189C669.9868,-754.2013 695.4546,-748.0711 719,-744.2776 832.8901,-725.9284 862.7031,-731.0574 978,-727.2776 1076.9,-724.0354 1787.8987,-720.8242 1867,-780.2776 1984.4863,-868.5818 2019.0256,-1058.6142 2028.0847,-1130.2149"/>
<polygon fill="#de958e" stroke="#de958e" points="2024.625,-1130.7612 2029.2862,-1140.2756 2031.5756,-1129.9311 2024.625,-1130.7612"/>
</g>
<!-- dask.dataframe&#45;&gt;hidebound.core.database_tools -->
<g id="edge109" class="edge">
<title>dask.dataframe&#45;&gt;hidebound.core.database_tools</title>
<path fill="none" stroke="#de958e" d="M654.066,-785.9102C775.5048,-800.0169 1042.3583,-831.3735 1267,-860.2776 1288.5495,-863.0504 1311.36,-866.076 1333.6327,-869.0801"/>
<polygon fill="#de958e" stroke="#de958e" points="1333.443,-872.5863 1343.8218,-870.4579 1334.3811,-865.6494 1333.443,-872.5863"/>
</g>
<!-- dask.dataframe&#45;&gt;hidebound.core.tools -->
<g id="edge110" class="edge">
<title>dask.dataframe&#45;&gt;hidebound.core.tools</title>
<path fill="none" stroke="#de958e" d="M654.4618,-795.8179C665.5536,-801.5782 675.7821,-809.2013 683,-819.2776 741.4196,-900.8322 658.6728,-1189.1239 719,-1269.2776 724.7701,-1276.9441 732.1101,-1283.2113 740.2614,-1288.3345"/>
<polygon fill="#de958e" stroke="#de958e" points="738.5878,-1291.4089 749.0179,-1293.2701 742.025,-1285.3108 738.5878,-1291.4089"/>
</g>
<!-- schematics.exceptions -->
<g id="node52" class="node">
<title>schematics.exceptions</title>
<polygon fill="#343434" stroke="#343434" points="683,-1689.2776 493,-1689.2776 493,-1653.2776 683,-1653.2776 683,-1689.2776"/>
<text text-anchor="middle" x="588" y="-1667.5776" font-family="Courier,monospace" font-size="14.00" fill="#de958e">schematics.exceptions</text>
</g>
<!-- schematics.exceptions&#45;&gt;hidebound.core.config -->
<g id="edge111" class="edge">
<title>schematics.exceptions&#45;&gt;hidebound.core.config</title>
<path fill="none" stroke="#de958e" d="M601.7535,-1689.6988C623.3684,-1717.1326 668.1113,-1768.0825 719,-1792.2776 824.0145,-1842.207 862.0128,-1821.0347 978,-1829.2776 1271.9253,-1850.1663 1351.3856,-1883.6096 1641,-1829.2776 1657.8729,-1826.1123 1660.621,-1820.42 1677,-1815.2776 1679.2882,-1814.5593 1681.6132,-1813.8501 1683.9641,-1813.1513"/>
<polygon fill="#de958e" stroke="#de958e" points="1685.1018,-1816.4661 1693.7461,-1810.3401 1683.1683,-1809.7384 1685.1018,-1816.4661"/>
</g>
<!-- schematics.exceptions&#45;&gt;hidebound.core.database_tools -->
<g id="edge112" class="edge">
<title>schematics.exceptions&#45;&gt;hidebound.core.database_tools</title>
<path fill="none" stroke="#de958e" d="M594.3573,-1653.1321C611.5071,-1603.4414 659.0385,-1460.7019 683,-1338.2776 697.1695,-1265.8829 668.1413,-1061.7114 719,-1008.2776 729.6124,-997.1279 1122.5037,-938.8051 1336.4297,-907.7637"/>
<polygon fill="#de958e" stroke="#de958e" points="1337.085,-911.2054 1346.4792,-906.3065 1336.0804,-904.2778 1337.085,-911.2054"/>
</g>
<!-- schematics.exceptions&#45;&gt;hidebound.core.specification_base -->
<g id="edge113" class="edge">
<title>schematics.exceptions&#45;&gt;hidebound.core.specification_base</title>
<path fill="none" stroke="#de958e" d="M603.4397,-1689.5197C622.4915,-1712.1676 655.7116,-1752.1109 683,-1787.2776 699.5668,-1808.6274 696.1592,-1821.8356 719,-1836.2776 804.3135,-1890.2206 862.6865,-1816.8467 942,-1879.2776 972.3189,-1903.1429 948.0115,-1933.9985 978,-1958.2776 982.1376,-1961.6275 986.5519,-1964.6447 991.1711,-1967.3612"/>
<polygon fill="#de958e" stroke="#de958e" points="989.817,-1970.6056 1000.2877,-1972.2229 993.1109,-1964.429 989.817,-1970.6056"/>
</g>
<!-- schematics.exceptions&#45;&gt;hidebound.core.tools -->
<g id="edge114" class="edge">
<title>schematics.exceptions&#45;&gt;hidebound.core.tools</title>
<path fill="none" stroke="#de958e" d="M603.1147,-1653.1394C622.408,-1629.7065 656.4634,-1587.3907 683,-1549.2776 734.7342,-1474.9747 789.2656,-1382.8103 815.1399,-1338.1049"/>
<polygon fill="#de958e" stroke="#de958e" points="818.2488,-1339.7199 820.2149,-1329.3091 812.1857,-1336.2216 818.2488,-1339.7199"/>
</g>
<!-- schematics.exceptions&#45;&gt;hidebound.core.validators -->
<g id="edge115" class="edge">
<title>schematics.exceptions&#45;&gt;hidebound.core.validators</title>
<path fill="none" stroke="#de958e" d="M605.6312,-1689.2843C626.2441,-1711.0668 660.4098,-1749.5289 683,-1787.2776 704.4885,-1823.1853 687.7885,-1846.4038 719,-1874.2776 722.7013,-1877.5831 726.723,-1880.5487 730.9692,-1883.2093"/>
<polygon fill="#de958e" stroke="#de958e" points="729.5351,-1886.4177 739.9698,-1888.2531 732.9572,-1880.3111 729.5351,-1886.4177"/>
</g>
<!-- schematics.exceptions&#45;&gt;hidebound.server.api -->
<g id="edge116" class="edge">
<title>schematics.exceptions&#45;&gt;hidebound.server.api</title>
<path fill="none" stroke="#de958e" d="M594.5193,-1653.1628C612.0772,-1603.5493 660.543,-1460.9868 683,-1338.2776 700.1425,-1244.6078 670.0623,-992.9661 719,-911.2776 789.5124,-793.576 848.3822,-788.2767 978,-743.2776 1040.2504,-721.6663 2097.95,-658.0781 2159,-633.2776 2209.7118,-612.6769 2256.8027,-568.5976 2283.5634,-540.254"/>
<polygon fill="#de958e" stroke="#de958e" points="2286.3259,-542.4223 2290.5583,-532.7095 2281.1927,-537.663 2286.3259,-542.4223"/>
</g>
<!-- hidebound.core&#45;&gt;hidebound.core.config -->
<g id="edge117" class="edge">
<title>hidebound.core&#45;&gt;hidebound.core.config</title>
<path fill="none" stroke="#a0d17b" d="M415.7269,-1878.351C430.0057,-1890.1195 447.0551,-1906.7049 457,-1925.2776 496.9526,-1999.8916 436.4112,-2049.3399 493,-2112.2776 596.9501,-2227.8903 675.0268,-2204.2776 830.5,-2204.2776 830.5,-2204.2776 830.5,-2204.2776 1122.5,-2204.2776 1355.5374,-2204.2776 1458.7994,-2271.5682 1641,-2126.2776 1739.2587,-2047.9241 1764.0069,-1885.6033 1770.0828,-1820.3458"/>
<polygon fill="#a0d17b" stroke="#a0d17b" points="1773.5701,-1820.6423 1770.9334,-1810.3808 1766.5955,-1820.0469 1773.5701,-1820.6423"/>
</g>
<!-- hidebound.core&#45;&gt;hidebound.core.database -->
<g id="edge118" class="edge">
<title>hidebound.core&#45;&gt;hidebound.core.database</title>
<path fill="none" stroke="#a0d17b" d="M391.7262,-1842.2333C395.6252,-1754.1701 416.8268,-1370.2788 493,-1284.2776 880.8603,-846.375 1725.952,-1063.8049 1966.1484,-1137.2351"/>
<polygon fill="#a0d17b" stroke="#a0d17b" points="1965.1981,-1140.6046 1975.7853,-1140.2035 1967.2587,-1133.9148 1965.1981,-1140.6046"/>
</g>
<!-- hidebound.core&#45;&gt;hidebound.core.database_tools -->
<g id="edge119" class="edge">
<title>hidebound.core&#45;&gt;hidebound.core.database_tools</title>
<path fill="none" stroke="#a0d17b" d="M391.5496,-1841.9103C395.5148,-1715.4556 421.6506,-976.8995 493,-911.2776 523.3695,-883.346 1070.7984,-884.5526 1333.5192,-886.7657"/>
<polygon fill="#a0d17b" stroke="#a0d17b" points="1333.8647,-890.2687 1343.8944,-886.8549 1333.9249,-883.2689 1333.8647,-890.2687"/>
</g>
<!-- hidebound.core&#45;&gt;hidebound.core.logging -->
<g id="edge120" class="edge">
<title>hidebound.core&#45;&gt;hidebound.core.logging</title>
<path fill="none" stroke="#a0d17b" d="M392.119,-1842.2124C399.334,-1728.126 440.6473,-1110.291 493,-1046.2776 523.0486,-1009.5363 639.4889,-977.8496 727.2594,-958.4725"/>
<polygon fill="#a0d17b" stroke="#a0d17b" points="728.2491,-961.8389 737.273,-956.2874 726.7567,-954.9999 728.2491,-961.8389"/>
</g>
<!-- hidebound.core&#45;&gt;hidebound.core.parser -->
<g id="edge121" class="edge">
<title>hidebound.core&#45;&gt;hidebound.core.parser</title>
<path fill="none" stroke="#a0d17b" d="M457.1462,-1875.7229C471.1325,-1878.9888 486.0978,-1882.4832 500.7283,-1885.8995"/>
<polygon fill="#a0d17b" stroke="#a0d17b" points="500.2535,-1889.3827 510.7875,-1888.2483 501.8453,-1882.5661 500.2535,-1889.3827"/>
</g>
<!-- hidebound.core&#45;&gt;hidebound.core.specification_base -->
<g id="edge122" class="edge">
<title>hidebound.core&#45;&gt;hidebound.core.specification_base</title>
<path fill="none" stroke="#a0d17b" d="M409.9668,-1878.2931C429.2526,-1895.4684 460.8019,-1920.545 493,-1933.2776 646.4095,-1993.9428 836.7263,-2003.0144 967.7001,-2000.1677"/>
<polygon fill="#a0d17b" stroke="#a0d17b" points="967.9021,-2003.6639 977.814,-1999.9216 967.7318,-1996.6659 967.9021,-2003.6639"/>
</g>
<!-- hidebound.core&#45;&gt;hidebound.core.specifications -->
<g id="edge123" class="edge">
<title>hidebound.core&#45;&gt;hidebound.core.specifications</title>
<path fill="none" stroke="#a0d17b" d="M410.6663,-1878.4724C424.1181,-1891.1965 442.1357,-1908.7973 457,-1925.2776 474.1542,-1944.2969 470.9185,-1957.3005 493,-1970.2776 631.7232,-2051.804 1097.8348,-2057.1533 1333.3375,-2054.3308"/>
<polygon fill="#a0d17b" stroke="#a0d17b" points="1333.731,-2057.8262 1343.6859,-2054.1997 1333.6423,-2050.8268 1333.731,-2057.8262"/>
</g>
<!-- hidebound.core&#45;&gt;hidebound.core.tools -->
<g id="edge124" class="edge">
<title>hidebound.core&#45;&gt;hidebound.core.tools</title>
<path fill="none" stroke="#a0d17b" d="M397.1246,-1842.0624C410.6432,-1803.3771 445.6343,-1711.0977 493,-1644.2776 586.1632,-1512.85 734.1363,-1387.7491 798.664,-1336.1162"/>
<polygon fill="#a0d17b" stroke="#a0d17b" points="801.1924,-1338.5772 806.8383,-1329.612 796.8339,-1333.0996 801.1924,-1338.5772"/>
</g>
<!-- hidebound.core&#45;&gt;hidebound.core.traits -->
<g id="edge125" class="edge">
<title>hidebound.core&#45;&gt;hidebound.core.traits</title>
<path fill="none" stroke="#a0d17b" d="M415.5121,-1878.4682C429.7125,-1890.2796 446.7548,-1906.8688 457,-1925.2776 492.2348,-1988.5887 437.7061,-2037.455 493,-2084.2776 531.9634,-2117.2716 848.4627,-2121.2954 1017.2878,-2121.0509"/>
<polygon fill="#a0d17b" stroke="#a0d17b" points="1017.4528,-2124.5507 1027.4458,-2121.0308 1017.4389,-2117.5507 1017.4528,-2124.5507"/>
</g>
<!-- hidebound.core&#45;&gt;hidebound.core.validators -->
<g id="edge126" class="edge">
<title>hidebound.core&#45;&gt;hidebound.core.validators</title>
<path fill="none" stroke="#a0d17b" d="M457.0179,-1862.3863C516.3351,-1864.8004 605.7348,-1869.7249 683,-1879.2776 698.7259,-1881.2219 715.3121,-1883.768 731.4604,-1886.5198"/>
<polygon fill="#a0d17b" stroke="#a0d17b" points="730.9951,-1889.9913 741.4469,-1888.2562 732.1943,-1883.0948 730.9951,-1889.9913"/>
</g>
<!-- selenium.webdriver.chrome.options -->
<g id="node54" class="node">
<title>selenium.webdriver.chrome.options</title>
<polygon fill="#343434" stroke="#343434" points="289,-1314.2776 0,-1314.2776 0,-1278.2776 289,-1278.2776 289,-1314.2776"/>
<text text-anchor="middle" x="144.5" y="-1292.5776" font-family="Courier,monospace" font-size="14.00" fill="#de958e">selenium.webdriver.chrome.options</text>
</g>
<!-- skimage.io -->
<g id="node55" class="node">
<title>skimage.io</title>
<polygon fill="#343434" stroke="#343434" points="880,-2172.2776 781,-2172.2776 781,-2136.2776 880,-2136.2776 880,-2172.2776"/>
<text text-anchor="middle" x="830.5" y="-2150.5776" font-family="Courier,monospace" font-size="14.00" fill="#de958e">skimage.io</text>
</g>
<!-- skimage.io&#45;&gt;hidebound.core.traits -->
<g id="edge127" class="edge">
<title>skimage.io&#45;&gt;hidebound.core.traits</title>
<path fill="none" stroke="#de958e" d="M880.0338,-2148.51C917.5523,-2144.1414 970.4542,-2137.9816 1017.2741,-2132.53"/>
<polygon fill="#de958e" stroke="#de958e" points="1017.9456,-2135.9755 1027.4737,-2131.3423 1017.136,-2129.0225 1017.9456,-2135.9755"/>
</g>
</g>
</svg>
