<?xml version="1.0" encoding="UTF-8" standalone="no"?>
<!DOCTYPE svg PUBLIC "-//W3C//DTD SVG 1.1//EN"
 "http://www.w3.org/Graphics/SVG/1.1/DTD/svg11.dtd">
<!-- Generated by graphviz version 2.40.1 (20161225.0304)
 -->
<!-- Title: %3 Pages: 1 -->
<svg width="2914pt" height="2280pt"
 viewBox="0.00 0.00 2914.00 2279.68" xmlns="http://www.w3.org/2000/svg" xmlns:xlink="http://www.w3.org/1999/xlink">
<g id="graph0" class="graph" transform="scale(1 1) rotate(0) translate(4 2275.6768)">
<title>%3</title>
<polygon fill="#242424" stroke="transparent" points="-4,4 -4,-2275.6768 2910,-2275.6768 2910,4 -4,4"/>
<!-- cli -->
<g id="node1" class="node">
<title>cli</title>
<polygon fill="#343434" stroke="#343434" points="72.5,-1091.6768 18.5,-1091.6768 18.5,-1055.6768 72.5,-1055.6768 72.5,-1091.6768"/>
<text text-anchor="middle" x="45.5" y="-1069.9768" font-family="Courier,monospace" font-size="14.00" fill="#b6ecf3">cli</text>
</g>
<!-- hidebound.core.config -->
<g id="node2" class="node">
<title>hidebound.core.config</title>
<polygon fill="#343434" stroke="#343434" points="1636,-825.6768 1446,-825.6768 1446,-789.6768 1636,-789.6768 1636,-825.6768"/>
<text text-anchor="middle" x="1541" y="-803.9768" font-family="Courier,monospace" font-size="14.00" fill="#b6ecf3">hidebound.core.config</text>
</g>
<!-- hidebound.core.database -->
<g id="node4" class="node">
<title>hidebound.core.database</title>
<polygon fill="#343434" stroke="#343434" points="1903,-1315.6768 1697,-1315.6768 1697,-1279.6768 1903,-1279.6768 1903,-1315.6768"/>
<text text-anchor="middle" x="1800" y="-1293.9768" font-family="Courier,monospace" font-size="14.00" fill="#b6ecf3">hidebound.core.database</text>
</g>
<!-- hidebound.core.config&#45;&gt;hidebound.core.database -->
<g id="edge1" class="edge">
<title>hidebound.core.config&#45;&gt;hidebound.core.database</title>
<path fill="none" stroke="#b6ecf3" d="M1626.0422,-825.8695C1629.6648,-828.441 1633.0197,-831.3615 1636,-834.6768 1699.0136,-904.7742 1642.4678,-954.166 1672,-1043.6768 1700.8041,-1130.9807 1755.4098,-1225.6382 1783.0552,-1270.7802"/>
<polygon fill="#b6ecf3" stroke="#b6ecf3" points="1780.1367,-1272.7157 1788.3678,-1279.3866 1786.0933,-1269.0388 1780.1367,-1272.7157"/>
</g>
<!-- hidebound.server.extension -->
<g id="node20" class="node">
<title>hidebound.server.extension</title>
<polygon fill="#343434" stroke="#343434" points="2413,-1575.6768 2182,-1575.6768 2182,-1539.6768 2413,-1539.6768 2413,-1575.6768"/>
<text text-anchor="middle" x="2297.5" y="-1553.9768" font-family="Courier,monospace" font-size="14.00" fill="#b6ecf3">hidebound.server.extension</text>
</g>
<!-- hidebound.core.config&#45;&gt;hidebound.server.extension -->
<g id="edge2" class="edge">
<title>hidebound.core.config&#45;&gt;hidebound.server.extension</title>
<path fill="none" stroke="#b6ecf3" d="M1618.746,-825.8675C1624.762,-828.4393 1630.5915,-831.3608 1636,-834.6768 1920.1979,-1008.925 1922.8323,-1137.0339 2146,-1384.6768 2192.5167,-1436.2951 2245.8097,-1497.6906 2275.1638,-1531.7097"/>
<polygon fill="#b6ecf3" stroke="#b6ecf3" points="2272.5656,-1534.0562 2281.7463,-1539.3445 2277.8672,-1529.4853 2272.5656,-1534.0562"/>
</g>
<!-- hidebound.core.connection -->
<g id="node3" class="node">
<title>hidebound.core.connection</title>
<polygon fill="#343434" stroke="#343434" points="744,-1464.6768 521,-1464.6768 521,-1428.6768 744,-1428.6768 744,-1464.6768"/>
<text text-anchor="middle" x="632.5" y="-1442.9768" font-family="Courier,monospace" font-size="14.00" fill="#b6ecf3">hidebound.core.connection</text>
</g>
<!-- hidebound.core.connection&#45;&gt;hidebound.core.database -->
<g id="edge3" class="edge">
<title>hidebound.core.connection&#45;&gt;hidebound.core.database</title>
<path fill="none" stroke="#b6ecf3" d="M638.2291,-1464.8402C653.1919,-1508.7644 698.0732,-1620.3033 780,-1663.6768 903.73,-1729.1818 1301.4388,-1752.0763 1410,-1663.6768 1471.2372,-1613.8125 1391.3848,-1546.7174 1446,-1489.6768 1506.2353,-1426.7667 1558.9066,-1482.2057 1636,-1441.6768 1694.1257,-1411.1195 1748.7154,-1355.9372 1777.916,-1323.4776"/>
<polygon fill="#b6ecf3" stroke="#b6ecf3" points="1780.7597,-1325.5462 1784.7795,-1315.7435 1775.5241,-1320.8998 1780.7597,-1325.5462"/>
</g>
<!-- hidebound.exporters.exporter_base -->
<g id="node14" class="node">
<title>hidebound.exporters.exporter_base</title>
<polygon fill="#343434" stroke="#343434" points="1069,-971.6768 780,-971.6768 780,-935.6768 1069,-935.6768 1069,-971.6768"/>
<text text-anchor="middle" x="924.5" y="-949.9768" font-family="Courier,monospace" font-size="14.00" fill="#b6ecf3">hidebound.exporters.exporter_base</text>
</g>
<!-- hidebound.core.connection&#45;&gt;hidebound.exporters.exporter_base -->
<g id="edge4" class="edge">
<title>hidebound.core.connection&#45;&gt;hidebound.exporters.exporter_base</title>
<path fill="none" stroke="#b6ecf3" d="M640.2294,-1428.4695C659.4018,-1382.9035 710.0439,-1260.0401 744,-1154.6768 763.1793,-1095.1648 739.5558,-1066.3612 780,-1018.6768 796.4987,-999.2247 820.0029,-985.3363 843.2733,-975.5333"/>
<polygon fill="#b6ecf3" stroke="#b6ecf3" points="844.8674,-978.6657 852.8594,-971.7102 842.2743,-972.1637 844.8674,-978.6657"/>
</g>
<!-- hidebound.server.api -->
<g id="node17" class="node">
<title>hidebound.server.api</title>
<polygon fill="#343434" stroke="#343434" points="2146,-1864.6768 1964,-1864.6768 1964,-1828.6768 2146,-1828.6768 2146,-1864.6768"/>
<text text-anchor="middle" x="2055" y="-1842.9768" font-family="Courier,monospace" font-size="14.00" fill="#b6ecf3">hidebound.server.api</text>
</g>
<!-- hidebound.core.database&#45;&gt;hidebound.server.api -->
<g id="edge5" class="edge">
<title>hidebound.core.database&#45;&gt;hidebound.server.api</title>
<path fill="none" stroke="#b6ecf3" d="M1808.4843,-1315.9431C1846.0398,-1396.7977 1997.4391,-1722.7517 2042.3697,-1819.4845"/>
<polygon fill="#b6ecf3" stroke="#b6ecf3" points="2039.2263,-1821.0256 2046.6132,-1828.6206 2045.5749,-1818.0768 2039.2263,-1821.0256"/>
</g>
<!-- hidebound.core.database&#45;&gt;hidebound.server.extension -->
<g id="edge6" class="edge">
<title>hidebound.core.database&#45;&gt;hidebound.server.extension</title>
<path fill="none" stroke="#b6ecf3" d="M1834.5882,-1315.7531C1922.8578,-1361.8839 2156.363,-1483.9168 2253.8139,-1534.8459"/>
<polygon fill="#b6ecf3" stroke="#b6ecf3" points="2252.3267,-1538.0178 2262.8105,-1539.5477 2255.5689,-1531.8139 2252.3267,-1538.0178"/>
</g>
<!-- hidebound.core.database_tools -->
<g id="node5" class="node">
<title>hidebound.core.database_tools</title>
<polygon fill="#343434" stroke="#343434" points="1385.5,-567.6768 1129.5,-567.6768 1129.5,-531.6768 1385.5,-531.6768 1385.5,-567.6768"/>
<text text-anchor="middle" x="1257.5" y="-545.9768" font-family="Courier,monospace" font-size="14.00" fill="#b6ecf3">hidebound.core.database_tools</text>
</g>
<!-- hidebound.core.database_tools&#45;&gt;hidebound.core.database -->
<g id="edge7" class="edge">
<title>hidebound.core.database_tools&#45;&gt;hidebound.core.database</title>
<path fill="none" stroke="#b6ecf3" d="M1313.7878,-567.7679C1397.859,-597.8344 1554.9881,-666.3631 1636,-780.6768 1750.3749,-942.0683 1787.4719,-1186.7131 1797.1019,-1269.3061"/>
<polygon fill="#b6ecf3" stroke="#b6ecf3" points="1793.6444,-1269.8812 1798.2374,-1279.4287 1800.6008,-1269.1008 1793.6444,-1269.8812"/>
</g>
<!-- hidebound.core.logging -->
<g id="node6" class="node">
<title>hidebound.core.logging</title>
<polygon fill="#343434" stroke="#343434" points="731.5,-1865.6768 533.5,-1865.6768 533.5,-1829.6768 731.5,-1829.6768 731.5,-1865.6768"/>
<text text-anchor="middle" x="632.5" y="-1843.9768" font-family="Courier,monospace" font-size="14.00" fill="#b6ecf3">hidebound.core.logging</text>
</g>
<!-- hidebound.core.logging&#45;&gt;hidebound.core.database -->
<g id="edge8" class="edge">
<title>hidebound.core.logging&#45;&gt;hidebound.core.database</title>
<path fill="none" stroke="#b6ecf3" d="M731.6565,-1855.8641C918.7108,-1869.0204 1313.5694,-1885.1628 1410,-1796.6768 1488.1768,-1724.9408 1373.6919,-1638.3249 1446,-1560.6768 1505.0038,-1497.3156 1563.4082,-1564.8629 1636,-1517.6768 1711.3256,-1468.7137 1764.6704,-1372.5011 1787.5421,-1325.224"/>
<polygon fill="#b6ecf3" stroke="#b6ecf3" points="1790.8351,-1326.4482 1791.9571,-1315.913 1784.5101,-1323.4491 1790.8351,-1326.4482"/>
</g>
<!-- hidebound.core.logging&#45;&gt;hidebound.exporters.exporter_base -->
<g id="edge9" class="edge">
<title>hidebound.core.logging&#45;&gt;hidebound.exporters.exporter_base</title>
<path fill="none" stroke="#b6ecf3" d="M639.4801,-1829.3384C659.5972,-1775.6134 717.9185,-1613.5508 744,-1473.6768 762.5921,-1373.9683 721.6033,-1101.6062 780,-1018.6768 793.7888,-999.0954 814.9116,-985.3149 836.7852,-975.6544"/>
<polygon fill="#b6ecf3" stroke="#b6ecf3" points="838.2862,-978.8211 846.1864,-971.7616 835.6081,-972.3537 838.2862,-978.8211"/>
</g>
<!-- hidebound.core.logging&#45;&gt;hidebound.server.api -->
<g id="edge10" class="edge">
<title>hidebound.core.logging&#45;&gt;hidebound.server.api</title>
<path fill="none" stroke="#b6ecf3" d="M682.3058,-1865.784C710.5649,-1875.2304 746.8151,-1885.9784 780,-1891.6768 989.4249,-1927.6391 1045.0099,-1915.6768 1257.5,-1915.6768 1257.5,-1915.6768 1257.5,-1915.6768 1541,-1915.6768 1713.2072,-1915.6768 1759.6504,-1932.9221 1928,-1896.6768 1955.7913,-1890.6935 1985.4262,-1879.3372 2009.0734,-1868.9579"/>
<polygon fill="#b6ecf3" stroke="#b6ecf3" points="2010.7916,-1872.0233 2018.486,-1864.7401 2007.9291,-1865.6354 2010.7916,-1872.0233"/>
</g>
<!-- hidebound.server.server_tools -->
<g id="node22" class="node">
<title>hidebound.server.server_tools</title>
<polygon fill="#343434" stroke="#343434" points="1928,-2071.6768 1672,-2071.6768 1672,-2035.6768 1928,-2035.6768 1928,-2071.6768"/>
<text text-anchor="middle" x="1800" y="-2049.9768" font-family="Courier,monospace" font-size="14.00" fill="#b6ecf3">hidebound.server.server_tools</text>
</g>
<!-- hidebound.core.logging&#45;&gt;hidebound.server.server_tools -->
<g id="edge11" class="edge">
<title>hidebound.core.logging&#45;&gt;hidebound.server.server_tools</title>
<path fill="none" stroke="#b6ecf3" d="M656.7826,-1865.8141C684.8137,-1885.6035 733.1011,-1916.2523 780,-1929.6768 963.1082,-1982.0904 1470.3824,-1878.6203 1636,-1972.6768 1661.0818,-1986.9212 1648.1181,-2010.5011 1672,-2026.6768 1674.1801,-2028.1535 1676.4252,-2029.5517 1678.7251,-2030.8756"/>
<polygon fill="#b6ecf3" stroke="#b6ecf3" points="1677.3588,-2034.1102 1687.8452,-2035.6225 1680.5906,-2027.9009 1677.3588,-2034.1102"/>
</g>
<!-- hidebound.core.parser -->
<g id="node7" class="node">
<title>hidebound.core.parser</title>
<polygon fill="#343434" stroke="#343434" points="485,-659.6768 295,-659.6768 295,-623.6768 485,-623.6768 485,-659.6768"/>
<text text-anchor="middle" x="390" y="-637.9768" font-family="Courier,monospace" font-size="14.00" fill="#b6ecf3">hidebound.core.parser</text>
</g>
<!-- hidebound.core.parser&#45;&gt;hidebound.core.database_tools -->
<g id="edge12" class="edge">
<title>hidebound.core.parser&#45;&gt;hidebound.core.database_tools</title>
<path fill="none" stroke="#b6ecf3" d="M408.1648,-623.6149C431.9411,-601.1036 475.9165,-563.2193 521,-543.6768 745.2502,-446.4703 826.798,-464.8822 1069,-497.6768 1112.6973,-503.5936 1160.58,-516.8933 1197.1512,-528.5607"/>
<polygon fill="#b6ecf3" stroke="#b6ecf3" points="1196.0814,-531.8932 1206.6733,-531.643 1198.2372,-525.2334 1196.0814,-531.8932"/>
</g>
<!-- hidebound.core.specification_base -->
<g id="node8" class="node">
<title>hidebound.core.specification_base</title>
<polygon fill="#343434" stroke="#343434" points="1069,-651.6768 780,-651.6768 780,-615.6768 1069,-615.6768 1069,-651.6768"/>
<text text-anchor="middle" x="924.5" y="-629.9768" font-family="Courier,monospace" font-size="14.00" fill="#b6ecf3">hidebound.core.specification_base</text>
</g>
<!-- hidebound.core.parser&#45;&gt;hidebound.core.specification_base -->
<g id="edge13" class="edge">
<title>hidebound.core.parser&#45;&gt;hidebound.core.specification_base</title>
<path fill="none" stroke="#b6ecf3" d="M485.2498,-640.2512C564.0807,-639.0713 677.6269,-637.3719 769.5253,-635.9964"/>
<polygon fill="#b6ecf3" stroke="#b6ecf3" points="769.8196,-639.4925 779.7661,-635.8431 769.7148,-632.4933 769.8196,-639.4925"/>
</g>
<!-- hidebound.core.validators -->
<g id="node12" class="node">
<title>hidebound.core.validators</title>
<polygon fill="#343434" stroke="#343434" points="744,-963.6768 521,-963.6768 521,-927.6768 744,-927.6768 744,-963.6768"/>
<text text-anchor="middle" x="632.5" y="-941.9768" font-family="Courier,monospace" font-size="14.00" fill="#b6ecf3">hidebound.core.validators</text>
</g>
<!-- hidebound.core.parser&#45;&gt;hidebound.core.validators -->
<g id="edge14" class="edge">
<title>hidebound.core.parser&#45;&gt;hidebound.core.validators</title>
<path fill="none" stroke="#b6ecf3" d="M413.1697,-659.9236C434.6781,-678.0178 466.1348,-707.6124 485,-739.6768 513.0201,-787.3015 489.7551,-813.1028 521,-858.6768 539.0531,-885.0093 567.5334,-907.0372 591.1905,-922.3397"/>
<polygon fill="#b6ecf3" stroke="#b6ecf3" points="589.3319,-925.3054 599.6598,-927.6687 593.0598,-919.3807 589.3319,-925.3054"/>
</g>
<!-- hidebound.core.specification_base&#45;&gt;hidebound.core.config -->
<g id="edge15" class="edge">
<title>hidebound.core.specification_base&#45;&gt;hidebound.core.config</title>
<path fill="none" stroke="#b6ecf3" d="M1069.1068,-615.9308C1169.5472,-609.954 1303.8672,-614.965 1410,-665.6768 1462.4214,-690.7246 1503.8778,-746.8865 1525.2082,-780.5903"/>
<polygon fill="#b6ecf3" stroke="#b6ecf3" points="1522.451,-782.7869 1530.6832,-789.4565 1528.407,-779.109 1522.451,-782.7869"/>
</g>
<!-- hidebound.core.specification_base&#45;&gt;hidebound.core.database -->
<g id="edge16" class="edge">
<title>hidebound.core.specification_base&#45;&gt;hidebound.core.database</title>
<path fill="none" stroke="#b6ecf3" d="M960.2144,-651.7145C1070.0349,-708.3381 1409.0187,-891.8655 1636,-1110.6768 1691.6374,-1164.3117 1749.6339,-1234.3459 1779.5003,-1271.6384"/>
<polygon fill="#b6ecf3" stroke="#b6ecf3" points="1776.8104,-1273.879 1785.7808,-1279.5167 1782.2839,-1269.5155 1776.8104,-1273.879"/>
</g>
<!-- hidebound.core.specification_base&#45;&gt;hidebound.core.database_tools -->
<g id="edge17" class="edge">
<title>hidebound.core.specification_base&#45;&gt;hidebound.core.database_tools</title>
<path fill="none" stroke="#b6ecf3" d="M1009.4832,-615.6183C1029.0759,-611.244 1049.7991,-606.448 1069,-601.6768 1107.6976,-592.0611 1150.5666,-580.3224 1185.6329,-570.4331"/>
<polygon fill="#b6ecf3" stroke="#b6ecf3" points="1186.6371,-573.7865 1195.3066,-567.6962 1184.7314,-567.0509 1186.6371,-573.7865"/>
</g>
<!-- hidebound.core.specifications -->
<g id="node9" class="node">
<title>hidebound.core.specifications</title>
<polygon fill="#343434" stroke="#343434" points="1385.5,-1579.6768 1129.5,-1579.6768 1129.5,-1543.6768 1385.5,-1543.6768 1385.5,-1579.6768"/>
<text text-anchor="middle" x="1257.5" y="-1557.9768" font-family="Courier,monospace" font-size="14.00" fill="#b6ecf3">hidebound.core.specifications</text>
</g>
<!-- hidebound.core.specification_base&#45;&gt;hidebound.core.specifications -->
<g id="edge18" class="edge">
<title>hidebound.core.specification_base&#45;&gt;hidebound.core.specifications</title>
<path fill="none" stroke="#b6ecf3" d="M936.383,-651.9361C964.8293,-696.6601 1036.857,-816.1174 1069,-926.6768 1110.5581,-1069.6206 1062.7676,-1116.9308 1105,-1259.6768 1137.0681,-1368.0674 1207.1021,-1484.1589 1239.899,-1535.1204"/>
<polygon fill="#b6ecf3" stroke="#b6ecf3" points="1237.0084,-1537.0957 1245.3875,-1543.5796 1242.8807,-1533.2856 1237.0084,-1537.0957"/>
</g>
<!-- hidebound.core.tools -->
<g id="node10" class="node">
<title>hidebound.core.tools</title>
<polygon fill="#343434" stroke="#343434" points="723.5,-453.6768 541.5,-453.6768 541.5,-417.6768 723.5,-417.6768 723.5,-453.6768"/>
<text text-anchor="middle" x="632.5" y="-431.9768" font-family="Courier,monospace" font-size="14.00" fill="#b6ecf3">hidebound.core.tools</text>
</g>
<!-- hidebound.core.tools&#45;&gt;hidebound.core.database -->
<g id="edge19" class="edge">
<title>hidebound.core.tools&#45;&gt;hidebound.core.database</title>
<path fill="none" stroke="#b6ecf3" d="M723.5314,-419.7593C925.3889,-390.3343 1410.4721,-353.2048 1636,-626.6768 1720.355,-728.9646 1781.34,-1155.1488 1796.3935,-1269.3941"/>
<polygon fill="#b6ecf3" stroke="#b6ecf3" points="1792.9417,-1269.9919 1797.7062,-1279.455 1799.8829,-1269.0862 1792.9417,-1269.9919"/>
</g>
<!-- hidebound.core.tools&#45;&gt;hidebound.core.database_tools -->
<g id="edge20" class="edge">
<title>hidebound.core.tools&#45;&gt;hidebound.core.database_tools</title>
<path fill="none" stroke="#b6ecf3" d="M723.5012,-430.5084C812.8963,-427.7903 952.4506,-429.8936 1069,-459.6768 1124.3877,-473.8307 1183.0389,-504.6802 1219.932,-526.2965"/>
<polygon fill="#b6ecf3" stroke="#b6ecf3" points="1218.442,-529.4822 1228.8276,-531.5775 1222.0154,-523.463 1218.442,-529.4822"/>
</g>
<!-- hidebound.core.tools&#45;&gt;hidebound.core.specification_base -->
<g id="edge21" class="edge">
<title>hidebound.core.tools&#45;&gt;hidebound.core.specification_base</title>
<path fill="none" stroke="#b6ecf3" d="M670.1367,-453.7025C693.3021,-466.0746 722.5599,-484.1267 744,-505.6768 765.3984,-527.185 757.4567,-543.3718 780,-563.6768 803.0671,-584.4536 833.4117,-600.4011 860.3362,-611.7889"/>
<polygon fill="#b6ecf3" stroke="#b6ecf3" points="859.1193,-615.0726 869.6996,-615.6272 861.7744,-608.5957 859.1193,-615.0726"/>
</g>
<!-- hidebound.exporters.disk_exporter -->
<g id="node13" class="node">
<title>hidebound.exporters.disk_exporter</title>
<polygon fill="#343434" stroke="#343434" points="1402,-971.6768 1113,-971.6768 1113,-935.6768 1402,-935.6768 1402,-971.6768"/>
<text text-anchor="middle" x="1257.5" y="-949.9768" font-family="Courier,monospace" font-size="14.00" fill="#b6ecf3">hidebound.exporters.disk_exporter</text>
</g>
<!-- hidebound.core.tools&#45;&gt;hidebound.exporters.disk_exporter -->
<g id="edge22" class="edge">
<title>hidebound.core.tools&#45;&gt;hidebound.exporters.disk_exporter</title>
<path fill="none" stroke="#b6ecf3" d="M723.65,-452.1218C819.3215,-473.4188 969.3968,-518.7398 1069,-606.6768 1172.4532,-698.0129 1229.7598,-860.2544 1249.5278,-925.424"/>
<polygon fill="#b6ecf3" stroke="#b6ecf3" points="1246.281,-926.7858 1252.4817,-935.3765 1252.9916,-924.794 1246.281,-926.7858"/>
</g>
<!-- hidebound.core.tools&#45;&gt;hidebound.exporters.exporter_base -->
<g id="edge23" class="edge">
<title>hidebound.core.tools&#45;&gt;hidebound.exporters.exporter_base</title>
<path fill="none" stroke="#b6ecf3" d="M642.7212,-453.809C686.3438,-531.1943 857.0755,-834.0677 909.2629,-926.6467"/>
<polygon fill="#b6ecf3" stroke="#b6ecf3" points="906.2508,-928.4308 914.2104,-935.4233 912.3487,-924.9933 906.2508,-928.4308"/>
</g>
<!-- hidebound.server.app -->
<g id="node18" class="node">
<title>hidebound.server.app</title>
<polygon fill="#343434" stroke="#343434" points="2906,-1819.6768 2724,-1819.6768 2724,-1783.6768 2906,-1783.6768 2906,-1819.6768"/>
<text text-anchor="middle" x="2815" y="-1797.9768" font-family="Courier,monospace" font-size="14.00" fill="#b6ecf3">hidebound.server.app</text>
</g>
<!-- hidebound.core.tools&#45;&gt;hidebound.server.app -->
<g id="edge24" class="edge">
<title>hidebound.core.tools&#45;&gt;hidebound.server.app</title>
<path fill="none" stroke="#b6ecf3" d="M646.6357,-417.3115C670.6403,-387.4859 722.4082,-328.8258 780,-298.6768 1086.777,-138.0808 1194.7296,-131.6768 1541,-131.6768 1541,-131.6768 1541,-131.6768 1800,-131.6768 1855.7252,-131.6768 2130.6865,-186.5192 2146,-200.6768 2501.3889,-529.2427 2246.1451,-807.2378 2449,-1246.6768 2550.3106,-1466.1433 2730.8085,-1697.9644 2793.1277,-1775.0466"/>
<polygon fill="#b6ecf3" stroke="#b6ecf3" points="2790.775,-1777.7018 2799.7951,-1783.2597 2796.2097,-1773.2899 2790.775,-1777.7018"/>
</g>
<!-- hidebound.core.tools&#45;&gt;hidebound.server.extension -->
<g id="edge25" class="edge">
<title>hidebound.core.tools&#45;&gt;hidebound.server.extension</title>
<path fill="none" stroke="#b6ecf3" d="M675.5688,-417.6436C775.76,-377.3803 1033.0438,-283.6768 1257.5,-283.6768 1257.5,-283.6768 1257.5,-283.6768 1800,-283.6768 2077.0427,-283.6768 2262.386,-1342.2257 2293.0124,-1529.5264"/>
<polygon fill="#b6ecf3" stroke="#b6ecf3" points="2289.6013,-1530.3569 2294.658,-1539.6672 2296.511,-1529.2356 2289.6013,-1530.3569"/>
</g>
<!-- hidebound.core.traits -->
<g id="node11" class="node">
<title>hidebound.core.traits</title>
<polygon fill="#343434" stroke="#343434" points="485,-1783.6768 295,-1783.6768 295,-1747.6768 485,-1747.6768 485,-1783.6768"/>
<text text-anchor="middle" x="390" y="-1761.9768" font-family="Courier,monospace" font-size="14.00" fill="#b6ecf3">hidebound.core.traits</text>
</g>
<!-- hidebound.core.traits&#45;&gt;hidebound.core.specifications -->
<g id="edge26" class="edge">
<title>hidebound.core.traits&#45;&gt;hidebound.core.specifications</title>
<path fill="none" stroke="#b6ecf3" d="M485.2791,-1751.5078C617.6469,-1730.7467 864.032,-1688.1944 1069,-1630.6768 1115.5092,-1617.6256 1166.9167,-1598.4785 1204.2826,-1583.6633"/>
<polygon fill="#b6ecf3" stroke="#b6ecf3" points="1205.9611,-1586.7618 1213.9499,-1579.8027 1203.365,-1580.261 1205.9611,-1586.7618"/>
</g>
<!-- hidebound.core.validators&#45;&gt;hidebound.core.config -->
<g id="edge27" class="edge">
<title>hidebound.core.validators&#45;&gt;hidebound.core.config</title>
<path fill="none" stroke="#b6ecf3" d="M720.1074,-927.6757C739.7771,-923.8507 760.5742,-919.9754 780,-916.6768 1013.4588,-877.0347 1288.8484,-839.9851 1435.91,-820.9759"/>
<polygon fill="#b6ecf3" stroke="#b6ecf3" points="1436.3719,-824.4454 1445.8418,-819.6943 1435.476,-817.5029 1436.3719,-824.4454"/>
</g>
<!-- hidebound.core.validators&#45;&gt;hidebound.core.specification_base -->
<g id="edge28" class="edge">
<title>hidebound.core.validators&#45;&gt;hidebound.core.specification_base</title>
<path fill="none" stroke="#b6ecf3" d="M659.1376,-927.5718C682.654,-910.983 717.258,-885.0603 744,-858.6768 810.3695,-793.1974 875.6686,-703.9586 906.3526,-660.1489"/>
<polygon fill="#b6ecf3" stroke="#b6ecf3" points="909.3491,-661.9705 912.1906,-651.7637 903.6043,-657.9708 909.3491,-661.9705"/>
</g>
<!-- hidebound.core.validators&#45;&gt;hidebound.core.specifications -->
<g id="edge29" class="edge">
<title>hidebound.core.validators&#45;&gt;hidebound.core.specifications</title>
<path fill="none" stroke="#b6ecf3" d="M650.6294,-963.7679C676.4872,-990.8561 723.1345,-1044.776 744,-1100.6768 774.8225,-1183.2536 719.139,-1431.9204 780,-1495.6768 791.7858,-1508.0234 982.5277,-1531.4432 1119.3153,-1546.805"/>
<polygon fill="#b6ecf3" stroke="#b6ecf3" points="1119.1523,-1550.3086 1129.4796,-1547.9429 1119.9311,-1543.352 1119.1523,-1550.3086"/>
</g>
<!-- hidebound.core.validators&#45;&gt;hidebound.exporters.disk_exporter -->
<g id="edge30" class="edge">
<title>hidebound.core.validators&#45;&gt;hidebound.exporters.disk_exporter</title>
<path fill="none" stroke="#b6ecf3" d="M744.2991,-929.7474C756.3291,-928.4899 768.4052,-927.4206 780,-926.6768 908.181,-918.4551 940.8804,-917.5478 1069,-926.6768 1092.2275,-928.3319 1116.9436,-931.1203 1140.5707,-934.2929"/>
<polygon fill="#b6ecf3" stroke="#b6ecf3" points="1140.239,-937.7802 1150.6224,-935.674 1141.1919,-930.8453 1140.239,-937.7802"/>
</g>
<!-- hidebound.core.validators&#45;&gt;hidebound.exporters.exporter_base -->
<g id="edge31" class="edge">
<title>hidebound.core.validators&#45;&gt;hidebound.exporters.exporter_base</title>
<path fill="none" stroke="#b6ecf3" d="M744.1426,-948.7355C752.4744,-948.9638 760.9645,-949.1964 769.4957,-949.4302"/>
<polygon fill="#b6ecf3" stroke="#b6ecf3" points="769.4304,-952.9296 779.5225,-949.7049 769.6222,-945.9322 769.4304,-952.9296"/>
</g>
<!-- hidebound.exporters.girder_exporter -->
<g id="node15" class="node">
<title>hidebound.exporters.girder_exporter</title>
<polygon fill="#343434" stroke="#343434" points="1410,-1044.6768 1105,-1044.6768 1105,-1008.6768 1410,-1008.6768 1410,-1044.6768"/>
<text text-anchor="middle" x="1257.5" y="-1022.9768" font-family="Courier,monospace" font-size="14.00" fill="#b6ecf3">hidebound.exporters.girder_exporter</text>
</g>
<!-- hidebound.core.validators&#45;&gt;hidebound.exporters.girder_exporter -->
<g id="edge32" class="edge">
<title>hidebound.core.validators&#45;&gt;hidebound.exporters.girder_exporter</title>
<path fill="none" stroke="#b6ecf3" d="M646.3368,-964.0646C669.9114,-993.673 721.0755,-1050.8046 780,-1072.6768 923.8856,-1126.086 1108.0575,-1078.7631 1199.9523,-1048.0581"/>
<polygon fill="#b6ecf3" stroke="#b6ecf3" points="1201.2803,-1051.3035 1209.6236,-1044.7735 1199.0292,-1044.6753 1201.2803,-1051.3035"/>
</g>
<!-- hidebound.exporters.s3_exporter -->
<g id="node16" class="node">
<title>hidebound.exporters.s3_exporter</title>
<polygon fill="#343434" stroke="#343434" points="1393.5,-1250.6768 1121.5,-1250.6768 1121.5,-1214.6768 1393.5,-1214.6768 1393.5,-1250.6768"/>
<text text-anchor="middle" x="1257.5" y="-1228.9768" font-family="Courier,monospace" font-size="14.00" fill="#b6ecf3">hidebound.exporters.s3_exporter</text>
</g>
<!-- hidebound.core.validators&#45;&gt;hidebound.exporters.s3_exporter -->
<g id="edge33" class="edge">
<title>hidebound.core.validators&#45;&gt;hidebound.exporters.s3_exporter</title>
<path fill="none" stroke="#b6ecf3" d="M649.9512,-964.0391C674.9644,-991.465 720.5698,-1045.8015 744,-1100.6768 778.4354,-1181.3272 712.5709,-1238.6092 780,-1294.6768 829.3813,-1335.7376 1005.5867,-1304.8378 1069,-1294.6768 1075.5248,-1293.6314 1141.9543,-1271.563 1194.1292,-1254.0501"/>
<polygon fill="#b6ecf3" stroke="#b6ecf3" points="1195.3229,-1257.3414 1203.6879,-1250.8392 1193.0939,-1250.7058 1195.3229,-1257.3414"/>
</g>
<!-- hidebound.core.validators&#45;&gt;hidebound.server.api -->
<g id="edge34" class="edge">
<title>hidebound.core.validators&#45;&gt;hidebound.server.api</title>
<path fill="none" stroke="#b6ecf3" d="M650.8002,-963.7053C676.8709,-990.7154 723.7806,-1044.539 744,-1100.6768 764.0013,-1156.2093 739.4136,-1587.8207 780,-1630.6768 1133.4743,-2003.919 1441.3201,-1606.1579 1928,-1771.6768 1962.6973,-1783.4773 1998.294,-1805.5259 2022.9391,-1822.675"/>
<polygon fill="#b6ecf3" stroke="#b6ecf3" points="2020.9967,-1825.5882 2031.1802,-1828.5117 2025.0425,-1819.8757 2020.9967,-1825.5882"/>
</g>
<!-- hidebound.exporters.disk_exporter&#45;&gt;hidebound.core.config -->
<g id="edge35" class="edge">
<title>hidebound.exporters.disk_exporter&#45;&gt;hidebound.core.config</title>
<path fill="none" stroke="#b6ecf3" d="M1313.8887,-935.6561C1344.4542,-924.0461 1381.6581,-906.7719 1410,-883.6768 1430.949,-866.6061 1423.8044,-850.092 1446,-834.6768 1448.0948,-833.2219 1450.267,-831.845 1452.5004,-830.5418"/>
<polygon fill="#b6ecf3" stroke="#b6ecf3" points="1454.1611,-833.6229 1461.3844,-825.8722 1450.9042,-827.4267 1454.1611,-833.6229"/>
</g>
<!-- hidebound.exporters.disk_exporter&#45;&gt;hidebound.core.database -->
<g id="edge36" class="edge">
<title>hidebound.exporters.disk_exporter&#45;&gt;hidebound.core.database</title>
<path fill="none" stroke="#b6ecf3" d="M1368.6001,-971.6928C1384.1333,-978.3467 1398.6408,-987.3934 1410,-999.6768 1460.9607,-1054.7839 1391.8009,-1112.7516 1446,-1164.6768 1507.8895,-1223.9698 1555.7785,-1167.5027 1636,-1197.6768 1685.5004,-1216.2957 1736.6089,-1250.2231 1768.3363,-1273.3466"/>
<polygon fill="#b6ecf3" stroke="#b6ecf3" points="1766.6297,-1276.4371 1776.7537,-1279.5605 1770.7871,-1270.8054 1766.6297,-1276.4371"/>
</g>
<!-- hidebound.exporters.exporter_base&#45;&gt;hidebound.exporters.disk_exporter -->
<g id="edge37" class="edge">
<title>hidebound.exporters.exporter_base&#45;&gt;hidebound.exporters.disk_exporter</title>
<path fill="none" stroke="#b6ecf3" d="M1069.1058,-953.6768C1080.1925,-953.6768 1091.411,-953.6768 1102.56,-953.6768"/>
<polygon fill="#b6ecf3" stroke="#b6ecf3" points="1102.7737,-957.1769 1112.7736,-953.6768 1102.7736,-950.1769 1102.7737,-957.1769"/>
</g>
<!-- hidebound.exporters.exporter_base&#45;&gt;hidebound.exporters.girder_exporter -->
<g id="edge38" class="edge">
<title>hidebound.exporters.exporter_base&#45;&gt;hidebound.exporters.girder_exporter</title>
<path fill="none" stroke="#b6ecf3" d="M1006.8146,-971.7218C1054.9344,-982.2706 1115.7849,-995.6102 1165.4833,-1006.505"/>
<polygon fill="#b6ecf3" stroke="#b6ecf3" points="1164.7496,-1009.9272 1175.2672,-1008.6498 1166.2486,-1003.0896 1164.7496,-1009.9272"/>
</g>
<!-- hidebound.exporters.exporter_base&#45;&gt;hidebound.exporters.s3_exporter -->
<g id="edge39" class="edge">
<title>hidebound.exporters.exporter_base&#45;&gt;hidebound.exporters.s3_exporter</title>
<path fill="none" stroke="#b6ecf3" d="M978.5893,-971.6797C1007.073,-982.6697 1041.6636,-998.5063 1069,-1018.6768 1088.7049,-1033.2164 1190.5367,-1153.0969 1235.7866,-1206.8137"/>
<polygon fill="#b6ecf3" stroke="#b6ecf3" points="1233.1722,-1209.1427 1242.2892,-1214.54 1238.5278,-1204.6353 1233.1722,-1209.1427"/>
</g>
<!-- hidebound.exporters.girder_exporter&#45;&gt;hidebound.core.config -->
<g id="edge40" class="edge">
<title>hidebound.exporters.girder_exporter&#45;&gt;hidebound.core.config</title>
<path fill="none" stroke="#b6ecf3" d="M1367.9262,-1008.5549C1383.6408,-1001.9196 1398.3812,-992.9064 1410,-980.6768 1456.0323,-932.2249 1399.5803,-882.7578 1446,-834.6768 1446.8039,-833.8442 1447.6314,-833.0367 1448.4808,-832.2536"/>
<polygon fill="#b6ecf3" stroke="#b6ecf3" points="1450.9507,-834.7649 1456.6663,-825.8439 1446.6351,-829.2535 1450.9507,-834.7649"/>
</g>
<!-- hidebound.exporters.girder_exporter&#45;&gt;hidebound.core.database -->
<g id="edge41" class="edge">
<title>hidebound.exporters.girder_exporter&#45;&gt;hidebound.core.database</title>
<path fill="none" stroke="#b6ecf3" d="M1272.336,-1044.8888C1301.7573,-1079.8051 1371.1493,-1156.3575 1446,-1197.6768 1522.7507,-1240.045 1551.6394,-1226.8228 1636,-1250.6768 1665.9566,-1259.1474 1698.9601,-1268.5853 1727.4588,-1276.7682"/>
<polygon fill="#b6ecf3" stroke="#b6ecf3" points="1726.7612,-1280.2093 1737.3389,-1279.6067 1728.6941,-1273.4815 1726.7612,-1280.2093"/>
</g>
<!-- hidebound.exporters.s3_exporter&#45;&gt;hidebound.core.config -->
<g id="edge42" class="edge">
<title>hidebound.exporters.s3_exporter&#45;&gt;hidebound.core.config</title>
<path fill="none" stroke="#b6ecf3" d="M1279.1264,-1214.5778C1313.0864,-1184.8209 1378.3076,-1122.0076 1410,-1053.6768 1451.5031,-964.1935 1380.3374,-908.2853 1446,-834.6768 1446.6492,-833.9491 1447.3164,-833.2404 1448.0005,-832.5502"/>
<polygon fill="#b6ecf3" stroke="#b6ecf3" points="1450.5547,-834.9738 1455.927,-825.842 1446.0327,-829.6304 1450.5547,-834.9738"/>
</g>
<!-- hidebound.exporters.s3_exporter&#45;&gt;hidebound.core.database -->
<g id="edge43" class="edge">
<title>hidebound.exporters.s3_exporter&#45;&gt;hidebound.core.database</title>
<path fill="none" stroke="#b6ecf3" d="M1393.6954,-1248.9952C1484.1179,-1259.8292 1601.4227,-1273.8842 1686.7287,-1284.1052"/>
<polygon fill="#b6ecf3" stroke="#b6ecf3" points="1686.3619,-1287.5862 1696.7073,-1285.3008 1687.1948,-1280.6359 1686.3619,-1287.5862"/>
</g>
<!-- hidebound.server.api&#45;&gt;hidebound.server.extension -->
<g id="edge44" class="edge">
<title>hidebound.server.api&#45;&gt;hidebound.server.extension</title>
<path fill="none" stroke="#b6ecf3" d="M2070.1695,-1828.5986C2111.6778,-1779.131 2227.2471,-1641.4009 2275.6925,-1583.666"/>
<polygon fill="#b6ecf3" stroke="#b6ecf3" points="2278.5895,-1585.6585 2282.3363,-1575.7483 2273.2272,-1581.159 2278.5895,-1585.6585"/>
</g>
<!-- hidebound.server.components -->
<g id="node19" class="node">
<title>hidebound.server.components</title>
<polygon fill="#343434" stroke="#343434" points="1919.5,-2201.6768 1680.5,-2201.6768 1680.5,-2165.6768 1919.5,-2165.6768 1919.5,-2201.6768"/>
<text text-anchor="middle" x="1800" y="-2179.9768" font-family="Courier,monospace" font-size="14.00" fill="#b6ecf3">hidebound.server.components</text>
</g>
<!-- hidebound.server.components&#45;&gt;hidebound.server.app -->
<g id="edge45" class="edge">
<title>hidebound.server.components&#45;&gt;hidebound.server.app</title>
<path fill="none" stroke="#b6ecf3" d="M1858.433,-2201.7406C2011.6326,-2245.2416 2430.7871,-2338.9653 2688,-2151.6768 2742.3997,-2112.0659 2792.3187,-1905.372 2809.0616,-1829.5766"/>
<polygon fill="#b6ecf3" stroke="#b6ecf3" points="2812.4865,-1830.2979 2811.2009,-1819.7813 2805.6477,-1828.8042 2812.4865,-1830.2979"/>
</g>
<!-- hidebound.server.extensions -->
<g id="node21" class="node">
<title>hidebound.server.extensions</title>
<polygon fill="#343434" stroke="#343434" points="2688,-1942.6768 2449,-1942.6768 2449,-1906.6768 2688,-1906.6768 2688,-1942.6768"/>
<text text-anchor="middle" x="2568.5" y="-1920.9768" font-family="Courier,monospace" font-size="14.00" fill="#b6ecf3">hidebound.server.extensions</text>
</g>
<!-- hidebound.server.extension&#45;&gt;hidebound.server.extensions -->
<g id="edge46" class="edge">
<title>hidebound.server.extension&#45;&gt;hidebound.server.extensions</title>
<path fill="none" stroke="#b6ecf3" d="M2310.9389,-1575.8764C2355.1847,-1635.7959 2496.4566,-1827.1125 2548.7703,-1897.9581"/>
<polygon fill="#b6ecf3" stroke="#b6ecf3" points="2546.2241,-1900.402 2554.98,-1906.3674 2551.8553,-1896.2438 2546.2241,-1900.402"/>
</g>
<!-- hidebound.server.extensions&#45;&gt;hidebound.server.api -->
<g id="edge47" class="edge">
<title>hidebound.server.extensions&#45;&gt;hidebound.server.api</title>
<path fill="none" stroke="#b6ecf3" d="M2458.2732,-1942.7115C2379.6385,-1951.5404 2272.2733,-1955.2877 2182,-1928.6768 2144.2289,-1917.5426 2107.1076,-1891.2926 2082.8489,-1871.4698"/>
<polygon fill="#b6ecf3" stroke="#b6ecf3" points="2085.0515,-1868.7492 2075.1328,-1865.0248 2080.564,-1874.1217 2085.0515,-1868.7492"/>
</g>
<!-- hidebound.server.extensions&#45;&gt;hidebound.server.app -->
<g id="edge48" class="edge">
<title>hidebound.server.extensions&#45;&gt;hidebound.server.app</title>
<path fill="none" stroke="#b6ecf3" d="M2609.4414,-1906.5689C2632.6493,-1896.1212 2662.1313,-1882.5408 2688,-1869.6768 2716.8924,-1855.3093 2748.9195,-1838.1521 2773.5833,-1824.6664"/>
<polygon fill="#b6ecf3" stroke="#b6ecf3" points="2775.5693,-1827.5691 2782.6536,-1819.6911 2772.2027,-1821.4318 2775.5693,-1827.5691"/>
</g>
<!-- hidebound.server.server_tools&#45;&gt;hidebound.server.api -->
<g id="edge49" class="edge">
<title>hidebound.server.server_tools&#45;&gt;hidebound.server.api</title>
<path fill="none" stroke="#b6ecf3" d="M1911.733,-2035.6077C1917.4125,-2033.0088 1922.8779,-2030.0482 1928,-2026.6768 1985.8452,-1988.6029 2025.3977,-1914.3381 2043.5956,-1874.1262"/>
<polygon fill="#b6ecf3" stroke="#b6ecf3" points="2046.8258,-1875.4753 2047.6598,-1864.9133 2040.4213,-1872.65 2046.8258,-1875.4753"/>
</g>
<!-- hidebound.server.server_tools&#45;&gt;hidebound.server.app -->
<g id="edge50" class="edge">
<title>hidebound.server.server_tools&#45;&gt;hidebound.server.app</title>
<path fill="none" stroke="#b6ecf3" d="M1928.1045,-2067.2499C2108.8666,-2080.3925 2443.9375,-2082.2654 2688,-1951.6768 2740.7504,-1923.4521 2780.8169,-1863.5278 2800.8297,-1828.5649"/>
<polygon fill="#b6ecf3" stroke="#b6ecf3" points="2803.8877,-1830.2674 2805.7091,-1819.8303 2797.7766,-1826.8535 2803.8877,-1830.2674"/>
</g>
<!-- dash -->
<g id="node23" class="node">
<title>dash</title>
<polygon fill="#343434" stroke="#343434" points="1568,-2271.6768 1514,-2271.6768 1514,-2235.6768 1568,-2235.6768 1568,-2271.6768"/>
<text text-anchor="middle" x="1541" y="-2249.9768" font-family="Courier,monospace" font-size="14.00" fill="#de958e">dash</text>
</g>
<!-- dash&#45;&gt;hidebound.server.app -->
<g id="edge51" class="edge">
<title>dash&#45;&gt;hidebound.server.app</title>
<path fill="none" stroke="#de958e" d="M1568.0645,-2257.5736C1634.4065,-2265.7415 1808.4166,-2278.6824 1928,-2210.6768 2090.7281,-2118.1355 2019.4647,-1967.5564 2182,-1874.6768 2349.3268,-1779.0592 2582.0587,-1779.7735 2713.6888,-1789.9898"/>
<polygon fill="#de958e" stroke="#de958e" points="2713.5178,-1793.4874 2723.7677,-1790.8061 2714.0829,-1786.5102 2713.5178,-1793.4874"/>
</g>
<!-- dash&#45;&gt;hidebound.server.components -->
<g id="edge52" class="edge">
<title>dash&#45;&gt;hidebound.server.components</title>
<path fill="none" stroke="#de958e" d="M1568.067,-2246.1365C1587.0969,-2240.798 1613.1397,-2233.4172 1636,-2226.6768 1652.0472,-2221.9453 1655.8793,-2220.1516 1672,-2215.6768 1685.8982,-2211.819 1700.7036,-2207.9229 1715.1289,-2204.2408"/>
<polygon fill="#de958e" stroke="#de958e" points="1716.2056,-2207.5787 1725.0392,-2201.729 1714.4857,-2200.7932 1716.2056,-2207.5787"/>
</g>
<!-- dash_cytoscape -->
<g id="node24" class="node">
<title>dash_cytoscape</title>
<polygon fill="#343434" stroke="#343434" points="1607,-2217.6768 1475,-2217.6768 1475,-2181.6768 1607,-2181.6768 1607,-2217.6768"/>
<text text-anchor="middle" x="1541" y="-2195.9768" font-family="Courier,monospace" font-size="14.00" fill="#de958e">dash_cytoscape</text>
</g>
<!-- dash_cytoscape&#45;&gt;hidebound.server.components -->
<g id="edge53" class="edge">
<title>dash_cytoscape&#45;&gt;hidebound.server.components</title>
<path fill="none" stroke="#de958e" d="M1607.0268,-2195.598C1626.4571,-2194.3976 1648.4201,-2193.0409 1670.3875,-2191.6838"/>
<polygon fill="#de958e" stroke="#de958e" points="1670.7067,-2195.1708 1680.4718,-2191.0608 1670.275,-2188.1842 1670.7067,-2195.1708"/>
</g>
<!-- dash.dependencies -->
<g id="node25" class="node">
<title>dash.dependencies</title>
<polygon fill="#343434" stroke="#343434" points="2647,-1237.6768 2490,-1237.6768 2490,-1201.6768 2647,-1201.6768 2647,-1237.6768"/>
<text text-anchor="middle" x="2568.5" y="-1215.9768" font-family="Courier,monospace" font-size="14.00" fill="#de958e">dash.dependencies</text>
</g>
<!-- dash.dependencies&#45;&gt;hidebound.server.app -->
<g id="edge54" class="edge">
<title>dash.dependencies&#45;&gt;hidebound.server.app</title>
<path fill="none" stroke="#de958e" d="M2647.0751,-1227.8674C2662.3152,-1232.7487 2676.9584,-1240.2452 2688,-1251.6768 2762.0643,-1328.3577 2801.9694,-1671.9714 2812.2808,-1773.4022"/>
<polygon fill="#de958e" stroke="#de958e" points="2808.8128,-1773.8983 2813.2903,-1783.5005 2815.7781,-1773.2019 2808.8128,-1773.8983"/>
</g>
<!-- dash.exceptions -->
<g id="node26" class="node">
<title>dash.exceptions</title>
<polygon fill="#343434" stroke="#343434" points="2638.5,-1183.6768 2498.5,-1183.6768 2498.5,-1147.6768 2638.5,-1147.6768 2638.5,-1183.6768"/>
<text text-anchor="middle" x="2568.5" y="-1161.9768" font-family="Courier,monospace" font-size="14.00" fill="#de958e">dash.exceptions</text>
</g>
<!-- dash.exceptions&#45;&gt;hidebound.server.app -->
<g id="edge55" class="edge">
<title>dash.exceptions&#45;&gt;hidebound.server.app</title>
<path fill="none" stroke="#de958e" d="M2638.7005,-1168.125C2656.8603,-1172.0555 2674.95,-1179.4081 2688,-1192.6768 2771.1944,-1277.2654 2805.1314,-1665.2175 2813.0822,-1773.5241"/>
<polygon fill="#de958e" stroke="#de958e" points="2809.6034,-1773.946 2813.8104,-1783.6698 2816.5855,-1773.4449 2809.6034,-1773.946"/>
</g>
<!-- flask_monitoringdashboard -->
<g id="node27" class="node">
<title>flask_monitoringdashboard</title>
<polygon fill="#343434" stroke="#343434" points="2680,-1129.6768 2457,-1129.6768 2457,-1093.6768 2680,-1093.6768 2680,-1129.6768"/>
<text text-anchor="middle" x="2568.5" y="-1107.9768" font-family="Courier,monospace" font-size="14.00" fill="#de958e">flask_monitoringdashboard</text>
</g>
<!-- flask_monitoringdashboard&#45;&gt;hidebound.server.app -->
<g id="edge56" class="edge">
<title>flask_monitoringdashboard&#45;&gt;hidebound.server.app</title>
<path fill="none" stroke="#de958e" d="M2677.3483,-1129.6839C2681.1691,-1132.3298 2684.7462,-1135.314 2688,-1138.6768 2778.0989,-1231.7945 2807.3017,-1658.6813 2813.5872,-1773.2885"/>
<polygon fill="#de958e" stroke="#de958e" points="2810.0978,-1773.5834 2814.1252,-1783.3829 2817.0879,-1773.2108 2810.0978,-1773.5834"/>
</g>
<!-- hidebound.server -->
<g id="node28" class="node">
<title>hidebound.server</title>
<polygon fill="#343434" stroke="#343434" points="1615.5,-2071.6768 1466.5,-2071.6768 1466.5,-2035.6768 1615.5,-2035.6768 1615.5,-2071.6768"/>
<text text-anchor="middle" x="1541" y="-2049.9768" font-family="Courier,monospace" font-size="14.00" fill="#a0d17b">hidebound.server</text>
</g>
<!-- hidebound.server&#45;&gt;hidebound.server.api -->
<g id="edge57" class="edge">
<title>hidebound.server&#45;&gt;hidebound.server.api</title>
<path fill="none" stroke="#a0d17b" d="M1615.5182,-2038.1487C1622.7862,-2035.0029 1629.7647,-2031.2216 1636,-2026.6768 1659.3096,-2009.6868 1647.7878,-1988.3539 1672,-1972.6768 1768.8438,-1909.972 1820.5463,-1971.6807 1928,-1929.6768 1964.2087,-1915.5228 2000.8815,-1890.0995 2025.4469,-1871.1067"/>
<polygon fill="#a0d17b" stroke="#a0d17b" points="2027.9141,-1873.6191 2033.6104,-1864.6858 2023.5866,-1868.117 2027.9141,-1873.6191"/>
</g>
<!-- hidebound.server&#45;&gt;hidebound.server.app -->
<g id="edge58" class="edge">
<title>hidebound.server&#45;&gt;hidebound.server.app</title>
<path fill="none" stroke="#a0d17b" d="M1610.8312,-2071.7109C1619.3999,-2074.4535 1627.9629,-2077.4549 1636,-2080.6768 1652.7926,-2087.4087 1654.6755,-2094.4644 1672,-2099.6768 1835.8044,-2148.9612 1883.942,-2137.6768 2055,-2137.6768 2055,-2137.6768 2055,-2137.6768 2297.5,-2137.6768 2480.5611,-2137.6768 2544.5027,-2120.3425 2688,-2006.6768 2748.5887,-1958.6839 2787.8388,-1873.2957 2805.0165,-1829.4092"/>
<polygon fill="#a0d17b" stroke="#a0d17b" points="2808.3322,-1830.5371 2808.6285,-1819.9464 2801.7924,-1828.0407 2808.3322,-1830.5371"/>
</g>
<!-- hidebound.server&#45;&gt;hidebound.server.components -->
<g id="edge59" class="edge">
<title>hidebound.server&#45;&gt;hidebound.server.components</title>
<path fill="none" stroke="#a0d17b" d="M1615.6124,-2068.2493C1622.9463,-2071.576 1629.9131,-2075.6611 1636,-2080.6768 1663.3043,-2103.1763 1644.3399,-2129.6161 1672,-2151.6768 1676.3091,-2155.1136 1680.939,-2158.1871 1685.7913,-2160.9351"/>
<polygon fill="#a0d17b" stroke="#a0d17b" points="1684.2507,-2164.0784 1694.7445,-2165.5382 1687.4515,-2157.853 1684.2507,-2164.0784"/>
</g>
<!-- hidebound.server&#45;&gt;hidebound.server.extension -->
<g id="edge60" class="edge">
<title>hidebound.server&#45;&gt;hidebound.server.extension</title>
<path fill="none" stroke="#a0d17b" d="M1615.7359,-2041.3959C1623.3224,-2037.6671 1630.3129,-2032.8611 1636,-2026.6768 1692.4053,-1965.3413 1620.3694,-1908.0824 1672,-1842.6768 1746.0414,-1748.8813 2087.0541,-1627.4156 2232.0105,-1578.9783"/>
<polygon fill="#a0d17b" stroke="#a0d17b" points="2233.3043,-1582.2365 2241.6863,-1575.7564 2231.0927,-1575.595 2233.3043,-1582.2365"/>
</g>
<!-- hidebound.server&#45;&gt;hidebound.server.extensions -->
<g id="edge61" class="edge">
<title>hidebound.server&#45;&gt;hidebound.server.extensions</title>
<path fill="none" stroke="#a0d17b" d="M1615.4112,-2071.7422C1633.7956,-2075.4486 1653.519,-2078.7921 1672,-2080.6768 2002.784,-2114.4107 2092.4469,-2066.0044 2413,-1977.6768 2445.733,-1968.6574 2481.6482,-1956.5657 2510.708,-1946.2094"/>
<polygon fill="#a0d17b" stroke="#a0d17b" points="2512.0567,-1949.444 2520.2858,-1942.7708 2509.6913,-1942.8558 2512.0567,-1949.444"/>
</g>
<!-- hidebound.server&#45;&gt;hidebound.server.server_tools -->
<g id="edge62" class="edge">
<title>hidebound.server&#45;&gt;hidebound.server.server_tools</title>
<path fill="none" stroke="#a0d17b" d="M1615.5661,-2053.6768C1630.0315,-2053.6768 1645.6194,-2053.6768 1661.3884,-2053.6768"/>
<polygon fill="#a0d17b" stroke="#a0d17b" points="1661.7671,-2057.1769 1671.7671,-2053.6768 1661.7671,-2050.1769 1661.7671,-2057.1769"/>
</g>
<!-- flask -->
<g id="node29" class="node">
<title>flask</title>
<polygon fill="#343434" stroke="#343434" points="1570,-1849.6768 1512,-1849.6768 1512,-1813.6768 1570,-1813.6768 1570,-1849.6768"/>
<text text-anchor="middle" x="1541" y="-1827.9768" font-family="Courier,monospace" font-size="14.00" fill="#de958e">flask</text>
</g>
<!-- flask&#45;&gt;hidebound.server.api -->
<g id="edge63" class="edge">
<title>flask&#45;&gt;hidebound.server.api</title>
<path fill="none" stroke="#de958e" d="M1570.1294,-1832.4743C1634.6131,-1834.2462 1794.3029,-1838.6713 1928,-1842.6768 1936.3203,-1842.9261 1944.9471,-1843.1888 1953.6092,-1843.4556"/>
<polygon fill="#de958e" stroke="#de958e" points="1953.6743,-1846.9592 1963.7778,-1843.77 1953.8907,-1839.9625 1953.6743,-1846.9592"/>
</g>
<!-- flask&#45;&gt;hidebound.server.app -->
<g id="edge64" class="edge">
<title>flask&#45;&gt;hidebound.server.app</title>
<path fill="none" stroke="#de958e" d="M1570.2775,-1823.4696C1648.3491,-1802.333 1868.2829,-1747.6768 2055,-1747.6768 2055,-1747.6768 2055,-1747.6768 2297.5,-1747.6768 2442.618,-1747.6768 2609.3963,-1768.9424 2713.501,-1784.7836"/>
<polygon fill="#de958e" stroke="#de958e" points="2713.2742,-1788.2897 2723.6894,-1786.3471 2714.336,-1781.3706 2713.2742,-1788.2897"/>
</g>
<!-- flask&#45;&gt;hidebound.server.components -->
<g id="edge65" class="edge">
<title>flask&#45;&gt;hidebound.server.components</title>
<path fill="none" stroke="#de958e" d="M1555.6226,-1849.8404C1575.9344,-1875.7825 1612.801,-1925.5358 1636,-1972.6768 1658.3408,-2018.0739 1643.1197,-2039.1326 1672,-2080.6768 1695.0175,-2113.7874 1731.6492,-2141.7401 1759.8386,-2160.1339"/>
<polygon fill="#de958e" stroke="#de958e" points="1757.9795,-2163.0994 1768.2916,-2165.5305 1761.7463,-2157.1993 1757.9795,-2163.0994"/>
</g>
<!-- flask&#45;&gt;hidebound.server.extension -->
<g id="edge66" class="edge">
<title>flask&#45;&gt;hidebound.server.extension</title>
<path fill="none" stroke="#de958e" d="M1553.0949,-1813.4169C1573.7533,-1783.7678 1618.8019,-1725.4779 1672,-1695.6768 1829.7902,-1607.2842 2039.5499,-1575.5056 2171.5603,-1564.0831"/>
<polygon fill="#de958e" stroke="#de958e" points="2172.0447,-1567.5548 2181.7171,-1563.2311 2171.4595,-1560.5793 2172.0447,-1567.5548"/>
</g>
<!-- flask&#45;&gt;hidebound.server.server_tools -->
<g id="edge67" class="edge">
<title>flask&#45;&gt;hidebound.server.server_tools</title>
<path fill="none" stroke="#de958e" d="M1570.026,-1833.9846C1591.2913,-1837.2351 1619.257,-1845.0292 1636,-1863.6768 1685.5653,-1918.8808 1619.2915,-1974.4656 1672,-2026.6768 1672.8269,-2027.496 1673.672,-2028.2931 1674.5343,-2029.0688"/>
<polygon fill="#de958e" stroke="#de958e" points="1672.6976,-2032.0761 1682.7285,-2035.4868 1677.014,-2026.5652 1672.6976,-2032.0761"/>
</g>
<!-- rolling_pin.blob_etl -->
<g id="node30" class="node">
<title>rolling_pin.blob_etl</title>
<polygon fill="#343434" stroke="#343434" points="1632,-2125.6768 1450,-2125.6768 1450,-2089.6768 1632,-2089.6768 1632,-2125.6768"/>
<text text-anchor="middle" x="1541" y="-2103.9768" font-family="Courier,monospace" font-size="14.00" fill="#de958e">rolling_pin.blob_etl</text>
</g>
<!-- rolling_pin.blob_etl&#45;&gt;hidebound.server.components -->
<g id="edge68" class="edge">
<title>rolling_pin.blob_etl&#45;&gt;hidebound.server.components</title>
<path fill="none" stroke="#de958e" d="M1594.581,-2125.7263C1629.874,-2137.6067 1669.9563,-2151.0792 1672,-2151.6768 1685.3569,-2155.583 1699.5832,-2159.4374 1713.5139,-2163.0446"/>
<polygon fill="#de958e" stroke="#de958e" points="1713.033,-2166.5343 1723.5887,-2165.6247 1714.7697,-2159.7531 1713.033,-2166.5343"/>
</g>
<!-- rolling_pin.blob_etl&#45;&gt;hidebound.server.server_tools -->
<g id="edge69" class="edge">
<title>rolling_pin.blob_etl&#45;&gt;hidebound.server.server_tools</title>
<path fill="none" stroke="#de958e" d="M1627.6033,-2089.6206C1652.0102,-2084.5319 1678.7088,-2078.9653 1703.6489,-2073.7655"/>
<polygon fill="#de958e" stroke="#de958e" points="1704.4032,-2077.1836 1713.4783,-2071.7161 1702.9744,-2070.3309 1704.4032,-2077.1836"/>
</g>
<!-- jinja2 -->
<g id="node31" class="node">
<title>jinja2</title>
<polygon fill="#343434" stroke="#343434" points="1574,-2017.6768 1508,-2017.6768 1508,-1981.6768 1574,-1981.6768 1574,-2017.6768"/>
<text text-anchor="middle" x="1541" y="-1995.9768" font-family="Courier,monospace" font-size="14.00" fill="#de958e">jinja2</text>
</g>
<!-- jinja2&#45;&gt;hidebound.server.server_tools -->
<g id="edge70" class="edge">
<title>jinja2&#45;&gt;hidebound.server.server_tools</title>
<path fill="none" stroke="#de958e" d="M1574.0656,-2006.5708C1606.6542,-2013.3654 1658.0395,-2024.0789 1703.5765,-2033.5731"/>
<polygon fill="#de958e" stroke="#de958e" points="1702.9923,-2037.0265 1713.4962,-2035.6413 1704.4211,-2030.1739 1702.9923,-2037.0265"/>
</g>
<!-- boto3 -->
<g id="node32" class="node">
<title>boto3</title>
<polygon fill="#343434" stroke="#343434" points="953.5,-1285.6768 895.5,-1285.6768 895.5,-1249.6768 953.5,-1249.6768 953.5,-1285.6768"/>
<text text-anchor="middle" x="924.5" y="-1263.9768" font-family="Courier,monospace" font-size="14.00" fill="#de958e">boto3</text>
</g>
<!-- boto3&#45;&gt;hidebound.exporters.s3_exporter -->
<g id="edge71" class="edge">
<title>boto3&#45;&gt;hidebound.exporters.s3_exporter</title>
<path fill="none" stroke="#de958e" d="M953.7597,-1264.6015C989.3163,-1260.8643 1051.9135,-1254.285 1111.0786,-1248.0665"/>
<polygon fill="#de958e" stroke="#de958e" points="1111.7272,-1251.5177 1121.3065,-1246.9915 1110.9954,-1244.556 1111.7272,-1251.5177"/>
</g>
<!-- werkzeug.exceptions -->
<g id="node33" class="node">
<title>werkzeug.exceptions</title>
<polygon fill="#343434" stroke="#343434" points="1886.5,-1887.6768 1713.5,-1887.6768 1713.5,-1851.6768 1886.5,-1851.6768 1886.5,-1887.6768"/>
<text text-anchor="middle" x="1800" y="-1865.9768" font-family="Courier,monospace" font-size="14.00" fill="#de958e">werkzeug.exceptions</text>
</g>
<!-- werkzeug.exceptions&#45;&gt;hidebound.server.api -->
<g id="edge72" class="edge">
<title>werkzeug.exceptions&#45;&gt;hidebound.server.api</title>
<path fill="none" stroke="#de958e" d="M1886.6872,-1861.858C1908.223,-1859.9155 1931.4956,-1857.8165 1953.6652,-1855.8168"/>
<polygon fill="#de958e" stroke="#de958e" points="1954.1183,-1859.2903 1963.7634,-1854.906 1953.4894,-1852.3186 1954.1183,-1859.2903"/>
</g>
<!-- botocore.exceptions -->
<g id="node34" class="node">
<title>botocore.exceptions</title>
<polygon fill="#343434" stroke="#343434" points="1011,-1231.6768 838,-1231.6768 838,-1195.6768 1011,-1195.6768 1011,-1231.6768"/>
<text text-anchor="middle" x="924.5" y="-1209.9768" font-family="Courier,monospace" font-size="14.00" fill="#de958e">botocore.exceptions</text>
</g>
<!-- botocore.exceptions&#45;&gt;hidebound.exporters.s3_exporter -->
<g id="edge73" class="edge">
<title>botocore.exceptions&#45;&gt;hidebound.exporters.s3_exporter</title>
<path fill="none" stroke="#de958e" d="M1011.1225,-1218.6193C1041.7288,-1220.3656 1077.0544,-1222.3811 1111.2263,-1224.3309"/>
<polygon fill="#de958e" stroke="#de958e" points="1111.1234,-1227.8306 1121.3065,-1224.906 1111.5222,-1220.842 1111.1234,-1227.8306"/>
</g>
<!-- flask_healthz -->
<g id="node35" class="node">
<title>flask_healthz</title>
<polygon fill="#343434" stroke="#343434" points="2359.5,-1919.6768 2235.5,-1919.6768 2235.5,-1883.6768 2359.5,-1883.6768 2359.5,-1919.6768"/>
<text text-anchor="middle" x="2297.5" y="-1897.9768" font-family="Courier,monospace" font-size="14.00" fill="#de958e">flask_healthz</text>
</g>
<!-- flask_healthz&#45;&gt;hidebound.server.extensions -->
<g id="edge74" class="edge">
<title>flask_healthz&#45;&gt;hidebound.server.extensions</title>
<path fill="none" stroke="#de958e" d="M2359.6729,-1906.9535C2383.263,-1908.9556 2411.0964,-1911.3179 2438.6201,-1913.6538"/>
<polygon fill="#de958e" stroke="#de958e" points="2438.4777,-1917.1542 2448.7379,-1914.5125 2439.0698,-1910.1793 2438.4777,-1917.1542"/>
</g>
<!-- flasgger -->
<g id="node36" class="node">
<title>flasgger</title>
<polygon fill="#343434" stroke="#343434" points="1841.5,-2017.6768 1758.5,-2017.6768 1758.5,-1981.6768 1841.5,-1981.6768 1841.5,-2017.6768"/>
<text text-anchor="middle" x="1800" y="-1995.9768" font-family="Courier,monospace" font-size="14.00" fill="#de958e">flasgger</text>
</g>
<!-- flasgger&#45;&gt;hidebound.server.api -->
<g id="edge75" class="edge">
<title>flasgger&#45;&gt;hidebound.server.api</title>
<path fill="none" stroke="#de958e" d="M1841.7675,-1994.7863C1867.8034,-1990.4287 1901.3096,-1982.3653 1928,-1967.6768 1971.7642,-1943.5922 2011.5856,-1900.6945 2034.5491,-1872.9807"/>
<polygon fill="#de958e" stroke="#de958e" points="2037.5235,-1874.8707 2041.1202,-1864.905 2032.0939,-1870.4526 2037.5235,-1874.8707"/>
</g>
<!-- flasgger&#45;&gt;hidebound.server.extensions -->
<g id="edge76" class="edge">
<title>flasgger&#45;&gt;hidebound.server.extensions</title>
<path fill="none" stroke="#de958e" d="M1841.7719,-1997.9403C1941.1116,-1993.4913 2199.139,-1980.0578 2413,-1952.6768 2430.5623,-1950.4283 2449.154,-1947.5336 2467.1394,-1944.4616"/>
<polygon fill="#de958e" stroke="#de958e" points="2467.8047,-1947.8985 2477.0586,-1942.7396 2466.6073,-1941.0017 2467.8047,-1947.8985"/>
</g>
<!-- pandasql -->
<g id="node37" class="node">
<title>pandasql</title>
<polygon fill="#343434" stroke="#343434" points="1582.5,-1155.6768 1499.5,-1155.6768 1499.5,-1119.6768 1582.5,-1119.6768 1582.5,-1155.6768"/>
<text text-anchor="middle" x="1541" y="-1133.9768" font-family="Courier,monospace" font-size="14.00" fill="#de958e">pandasql</text>
</g>
<!-- pandasql&#45;&gt;hidebound.core.database -->
<g id="edge77" class="edge">
<title>pandasql&#45;&gt;hidebound.core.database</title>
<path fill="none" stroke="#de958e" d="M1582.9474,-1148.4633C1599.9557,-1153.6804 1619.4497,-1160.7678 1636,-1169.6768 1689.133,-1198.2784 1742.7642,-1244.0648 1773.6135,-1272.4239"/>
<polygon fill="#de958e" stroke="#de958e" points="1771.6127,-1275.3425 1781.3213,-1279.5844 1776.377,-1270.214 1771.6127,-1275.3425"/>
</g>
<!-- yaml -->
<g id="node38" class="node">
<title>yaml</title>
<polygon fill="#343434" stroke="#343434" points="1568,-1659.6768 1514,-1659.6768 1514,-1623.6768 1568,-1623.6768 1568,-1659.6768"/>
<text text-anchor="middle" x="1541" y="-1637.9768" font-family="Courier,monospace" font-size="14.00" fill="#de958e">yaml</text>
</g>
<!-- yaml&#45;&gt;hidebound.core.database -->
<g id="edge78" class="edge">
<title>yaml&#45;&gt;hidebound.core.database</title>
<path fill="none" stroke="#de958e" d="M1568.271,-1639.7679C1588.8837,-1637.0497 1616.8129,-1630.4875 1636,-1614.6768 1663.3043,-1592.1774 1655.8344,-1575.1479 1672,-1543.6768 1712.9708,-1463.9153 1762.0787,-1370.0005 1785.7967,-1324.7465"/>
<polygon fill="#de958e" stroke="#de958e" points="1788.9169,-1326.3328 1790.4604,-1315.851 1782.7172,-1323.0824 1788.9169,-1326.3328"/>
</g>
<!-- yaml&#45;&gt;hidebound.server.extension -->
<g id="edge79" class="edge">
<title>yaml&#45;&gt;hidebound.server.extension</title>
<path fill="none" stroke="#de958e" d="M1568.0927,-1637.4467C1587.8394,-1633.5593 1614.7439,-1626.5507 1636,-1614.6768 1654.9491,-1604.0917 1651.926,-1589.9319 1672,-1581.6768 1836.6871,-1513.9527 2046.8093,-1523.0917 2176.7348,-1538.4446"/>
<polygon fill="#de958e" stroke="#de958e" points="2176.3751,-1541.9265 2186.7238,-1539.6559 2177.2179,-1534.9774 2176.3751,-1541.9265"/>
</g>
<!-- yaml&#45;&gt;hidebound.server.server_tools -->
<g id="edge80" class="edge">
<title>yaml&#45;&gt;hidebound.server.server_tools</title>
<path fill="none" stroke="#de958e" d="M1554.8345,-1660.1163C1575.9186,-1689.2044 1615.772,-1748.2531 1636,-1804.6768 1669.732,-1898.7686 1603.0057,-1954.3519 1672,-2026.6768 1672.7838,-2027.4985 1673.5859,-2028.2984 1674.4051,-2029.077"/>
<polygon fill="#de958e" stroke="#de958e" points="1672.2754,-2031.8574 1682.2153,-2035.525 1676.732,-2026.4594 1672.2754,-2031.8574"/>
</g>
<!-- requests.exceptions -->
<g id="node39" class="node">
<title>requests.exceptions</title>
<polygon fill="#343434" stroke="#343434" points="1627.5,-879.6768 1454.5,-879.6768 1454.5,-843.6768 1627.5,-843.6768 1627.5,-879.6768"/>
<text text-anchor="middle" x="1541" y="-857.9768" font-family="Courier,monospace" font-size="14.00" fill="#de958e">requests.exceptions</text>
</g>
<!-- requests.exceptions&#45;&gt;hidebound.core.database -->
<g id="edge81" class="edge">
<title>requests.exceptions&#45;&gt;hidebound.core.database</title>
<path fill="none" stroke="#de958e" d="M1618.3715,-879.8019C1624.9161,-883.5838 1630.95,-888.1541 1636,-893.6768 1682.2654,-944.2729 1648.4158,-979.3012 1672,-1043.6768 1703.7039,-1130.216 1757.2164,-1225.5806 1783.8857,-1270.9029"/>
<polygon fill="#de958e" stroke="#de958e" points="1780.8925,-1272.7173 1788.9996,-1279.5383 1786.9156,-1269.1504 1780.8925,-1272.7173"/>
</g>
<!-- lunchbox.enforce -->
<g id="node40" class="node">
<title>lunchbox.enforce</title>
<polygon fill="#343434" stroke="#343434" points="464.5,-1491.6768 315.5,-1491.6768 315.5,-1455.6768 464.5,-1455.6768 464.5,-1491.6768"/>
<text text-anchor="middle" x="390" y="-1469.9768" font-family="Courier,monospace" font-size="14.00" fill="#de958e">lunchbox.enforce</text>
</g>
<!-- lunchbox.enforce&#45;&gt;hidebound.core.connection -->
<g id="edge82" class="edge">
<title>lunchbox.enforce&#45;&gt;hidebound.core.connection</title>
<path fill="none" stroke="#de958e" d="M464.7367,-1465.3556C479.2348,-1463.7414 494.7787,-1462.0108 510.3426,-1460.2779"/>
<polygon fill="#de958e" stroke="#de958e" points="511.0111,-1463.7252 520.5623,-1459.14 510.2364,-1456.7682 511.0111,-1463.7252"/>
</g>
<!-- requests -->
<g id="node41" class="node">
<title>requests</title>
<polygon fill="#343434" stroke="#343434" points="1582.5,-1605.6768 1499.5,-1605.6768 1499.5,-1569.6768 1582.5,-1569.6768 1582.5,-1605.6768"/>
<text text-anchor="middle" x="1541" y="-1583.9768" font-family="Courier,monospace" font-size="14.00" fill="#de958e">requests</text>
</g>
<!-- requests&#45;&gt;hidebound.core.database -->
<g id="edge83" class="edge">
<title>requests&#45;&gt;hidebound.core.database</title>
<path fill="none" stroke="#de958e" d="M1582.7972,-1580.1056C1600.5569,-1575.3285 1620.6582,-1567.7005 1636,-1555.6768 1716.6484,-1492.4708 1768.9269,-1377.8679 1789.7589,-1325.3342"/>
<polygon fill="#de958e" stroke="#de958e" points="1793.0338,-1326.5695 1793.3941,-1315.9808 1786.5092,-1324.0337 1793.0338,-1326.5695"/>
</g>
<!-- requests&#45;&gt;hidebound.server.server_tools -->
<g id="edge84" class="edge">
<title>requests&#45;&gt;hidebound.server.server_tools</title>
<path fill="none" stroke="#de958e" d="M1582.8207,-1589.1583C1601.9223,-1592.1242 1623.1131,-1599.0793 1636,-1614.6768 1694.5376,-1685.5272 1611.0527,-1957.8884 1672,-2026.6768 1672.6425,-2027.402 1673.299,-2028.1104 1673.9691,-2028.8025"/>
<polygon fill="#de958e" stroke="#de958e" points="1671.8333,-2031.5867 1681.6345,-2035.61 1676.4815,-2026.3527 1671.8333,-2031.5867"/>
</g>
<!-- lunchbox.tools -->
<g id="node42" class="node">
<title>lunchbox.tools</title>
<polygon fill="#343434" stroke="#343434" points="990.5,-1621.6768 858.5,-1621.6768 858.5,-1585.6768 990.5,-1585.6768 990.5,-1621.6768"/>
<text text-anchor="middle" x="924.5" y="-1599.9768" font-family="Courier,monospace" font-size="14.00" fill="#de958e">lunchbox.tools</text>
</g>
<!-- lunchbox.tools&#45;&gt;hidebound.core.database_tools -->
<g id="edge85" class="edge">
<title>lunchbox.tools&#45;&gt;hidebound.core.database_tools</title>
<path fill="none" stroke="#de958e" d="M953.1045,-1585.5718C987.521,-1561.989 1043.8119,-1517.2578 1069,-1462.6768 1119.0218,-1354.2828 1078.2813,-1043.0279 1105,-926.6768 1136.4991,-789.509 1211.4058,-637.3773 1243.0229,-576.7506"/>
<polygon fill="#de958e" stroke="#de958e" points="1246.1609,-578.303 1247.7123,-567.8224 1239.9637,-575.048 1246.1609,-578.303"/>
</g>
<!-- lunchbox.tools&#45;&gt;hidebound.server.server_tools -->
<g id="edge86" class="edge">
<title>lunchbox.tools&#45;&gt;hidebound.server.server_tools</title>
<path fill="none" stroke="#de958e" d="M959.9202,-1621.7861C1043.7359,-1664.4645 1261.0873,-1774.1211 1446,-1858.6768 1529.4838,-1896.8518 1571.4354,-1874.4213 1636,-1939.6768 1665.4319,-1969.4237 1639.8109,-1999.9379 1672,-2026.6768 1673.3812,-2027.8242 1674.7992,-2028.9264 1676.2504,-2029.9853"/>
<polygon fill="#de958e" stroke="#de958e" points="1674.6034,-2033.0885 1684.8995,-2035.5864 1678.4084,-2027.2129 1674.6034,-2033.0885"/>
</g>
<!-- requests.models -->
<g id="node43" class="node">
<title>requests.models</title>
<polygon fill="#343434" stroke="#343434" points="1611,-1399.6768 1471,-1399.6768 1471,-1363.6768 1611,-1363.6768 1611,-1399.6768"/>
<text text-anchor="middle" x="1541" y="-1377.9768" font-family="Courier,monospace" font-size="14.00" fill="#de958e">requests.models</text>
</g>
<!-- requests.models&#45;&gt;hidebound.core.database -->
<g id="edge87" class="edge">
<title>requests.models&#45;&gt;hidebound.core.database</title>
<path fill="none" stroke="#de958e" d="M1596.562,-1363.6567C1636.9657,-1350.5528 1691.8102,-1332.7654 1734.3735,-1318.9611"/>
<polygon fill="#de958e" stroke="#de958e" points="1735.6512,-1322.2263 1744.0836,-1315.8119 1733.4916,-1315.5677 1735.6512,-1322.2263"/>
</g>
<!-- dask.distributed -->
<g id="node44" class="node">
<title>dask.distributed</title>
<polygon fill="#343434" stroke="#343434" points="464.5,-1437.6768 315.5,-1437.6768 315.5,-1401.6768 464.5,-1401.6768 464.5,-1437.6768"/>
<text text-anchor="middle" x="390" y="-1415.9768" font-family="Courier,monospace" font-size="14.00" fill="#de958e">dask.distributed</text>
</g>
<!-- dask.distributed&#45;&gt;hidebound.core.connection -->
<g id="edge88" class="edge">
<title>dask.distributed&#45;&gt;hidebound.core.connection</title>
<path fill="none" stroke="#de958e" d="M464.7367,-1427.998C479.2348,-1429.6123 494.7787,-1431.3429 510.3426,-1433.0758"/>
<polygon fill="#de958e" stroke="#de958e" points="510.2364,-1436.5855 520.5623,-1434.2137 511.0111,-1429.6285 510.2364,-1436.5855"/>
</g>
<!-- girder_client -->
<g id="node45" class="node">
<title>girder_client</title>
<polygon fill="#343434" stroke="#343434" points="986.5,-1063.6768 862.5,-1063.6768 862.5,-1027.6768 986.5,-1027.6768 986.5,-1063.6768"/>
<text text-anchor="middle" x="924.5" y="-1041.9768" font-family="Courier,monospace" font-size="14.00" fill="#de958e">girder_client</text>
</g>
<!-- girder_client&#45;&gt;hidebound.exporters.girder_exporter -->
<g id="edge89" class="edge">
<title>girder_client&#45;&gt;hidebound.exporters.girder_exporter</title>
<path fill="none" stroke="#de958e" d="M986.7441,-1042.1254C1017.5033,-1040.3703 1056.2059,-1038.1621 1094.6489,-1035.9686"/>
<polygon fill="#de958e" stroke="#de958e" points="1095.1585,-1039.4454 1104.9428,-1035.3813 1094.7597,-1032.4567 1095.1585,-1039.4454"/>
</g>
<!-- pandas -->
<g id="node46" class="node">
<title>pandas</title>
<polygon fill="#343434" stroke="#343434" points="423,-963.6768 357,-963.6768 357,-927.6768 423,-927.6768 423,-963.6768"/>
<text text-anchor="middle" x="390" y="-941.9768" font-family="Courier,monospace" font-size="14.00" fill="#de958e">pandas</text>
</g>
<!-- pandas&#45;&gt;hidebound.core.database -->
<g id="edge90" class="edge">
<title>pandas&#45;&gt;hidebound.core.database</title>
<path fill="none" stroke="#de958e" d="M423.0943,-946.6622C443.7529,-949.0774 469.3138,-955.6549 485,-972.6768 540.8777,-1033.3126 478.2724,-1084.1547 521,-1154.6768 597.5031,-1280.9457 640.732,-1313.6772 780,-1362.6768 901.1638,-1405.3068 940.9932,-1373.271 1069,-1362.6768 1085.1654,-1361.339 1088.9272,-1358.8627 1105,-1356.6768 1256.0078,-1336.1406 1294.1528,-1333.6198 1446,-1320.6768 1526.4222,-1313.8219 1617.2774,-1307.9578 1686.807,-1303.8665"/>
<polygon fill="#de958e" stroke="#de958e" points="1687.1284,-1307.3538 1696.907,-1303.2758 1686.7197,-1300.3657 1687.1284,-1307.3538"/>
</g>
<!-- pandas&#45;&gt;hidebound.core.database_tools -->
<g id="edge91" class="edge">
<title>pandas&#45;&gt;hidebound.core.database_tools</title>
<path fill="none" stroke="#de958e" d="M423.1402,-944.7336C443.8176,-942.3357 469.3822,-935.7616 485,-918.6768 542.9891,-855.2409 465.1856,-794.0344 521,-728.6768 589.3798,-648.6055 657.2927,-708.4184 744,-648.6768 764.2452,-634.7278 758.3033,-618.2396 780,-606.6768 837.0671,-576.2643 1004.7942,-580.3707 1069,-572.6768 1085.3498,-570.7176 1102.4953,-568.6474 1119.5036,-566.584"/>
<polygon fill="#de958e" stroke="#de958e" points="1119.9897,-570.0508 1129.4949,-565.3709 1119.1458,-563.1018 1119.9897,-570.0508"/>
</g>
<!-- pandas&#45;&gt;hidebound.core.tools -->
<g id="edge92" class="edge">
<title>pandas&#45;&gt;hidebound.core.tools</title>
<path fill="none" stroke="#de958e" d="M423.2969,-944.8748C444.0386,-942.535 469.616,-935.9724 485,-918.6768 551.723,-843.6631 493.0058,-792.0892 521,-695.6768 546.6355,-607.388 594.3948,-509.2042 618.2184,-462.7988"/>
<polygon fill="#de958e" stroke="#de958e" points="621.4369,-464.1947 622.9223,-453.7045 615.2193,-460.9787 621.4369,-464.1947"/>
</g>
<!-- pandas&#45;&gt;hidebound.core.validators -->
<g id="edge93" class="edge">
<title>pandas&#45;&gt;hidebound.core.validators</title>
<path fill="none" stroke="#de958e" d="M423.2101,-945.6768C446.2509,-945.6768 478.4943,-945.6768 510.7819,-945.6768"/>
<polygon fill="#de958e" stroke="#de958e" points="510.7935,-949.1769 520.7934,-945.6768 510.7934,-942.1769 510.7935,-949.1769"/>
</g>
<!-- pandas&#45;&gt;hidebound.server.components -->
<g id="edge94" class="edge">
<title>pandas&#45;&gt;hidebound.server.components</title>
<path fill="none" stroke="#de958e" d="M423.0797,-945.7905C444.2845,-947.7845 470.4702,-954.2193 485,-972.6768 547.0412,-1051.4891 472.661,-1786.7915 521,-1874.6768 626.0754,-2065.7151 706.4715,-2153.6768 924.5,-2153.6768 924.5,-2153.6768 924.5,-2153.6768 1257.5,-2153.6768 1398.7104,-2153.6768 1560.2812,-2163.9356 1670.1121,-2172.455"/>
<polygon fill="#de958e" stroke="#de958e" points="1670.0025,-2175.957 1680.2449,-2173.2475 1670.5483,-2168.9783 1670.0025,-2175.957"/>
</g>
<!-- schematics.types -->
<g id="node47" class="node">
<title>schematics.types</title>
<polygon fill="#343434" stroke="#343434" points="707,-849.6768 558,-849.6768 558,-813.6768 707,-813.6768 707,-849.6768"/>
<text text-anchor="middle" x="632.5" y="-827.9768" font-family="Courier,monospace" font-size="14.00" fill="#de958e">schematics.types</text>
</g>
<!-- schematics.types&#45;&gt;hidebound.core.config -->
<g id="edge95" class="edge">
<title>schematics.types&#45;&gt;hidebound.core.config</title>
<path fill="none" stroke="#de958e" d="M673.7076,-813.5571C716.3547,-794.8401 777.1729,-768.2637 780,-767.6768 1016.8758,-718.5016 1303.6329,-759.9874 1448.1502,-787.7061"/>
<polygon fill="#de958e" stroke="#de958e" points="1447.8234,-791.2079 1458.307,-789.6766 1449.1567,-784.336 1447.8234,-791.2079"/>
</g>
<!-- schematics.types&#45;&gt;hidebound.core.specification_base -->
<g id="edge96" class="edge">
<title>schematics.types&#45;&gt;hidebound.core.specification_base</title>
<path fill="none" stroke="#de958e" d="M694.9687,-813.5687C712.4524,-806.177 730.3778,-796.116 744,-782.6768 771.4675,-755.5784 753.0393,-731.2796 780,-703.6768 800.8167,-682.3644 829.4371,-666.6468 855.7174,-655.567"/>
<polygon fill="#de958e" stroke="#de958e" points="857.3221,-658.6932 865.2749,-651.693 854.6925,-652.2059 857.3221,-658.6932"/>
</g>
<!-- schematics.types&#45;&gt;hidebound.core.specifications -->
<g id="edge97" class="edge">
<title>schematics.types&#45;&gt;hidebound.core.specifications</title>
<path fill="none" stroke="#de958e" d="M669.4307,-849.7396C695.1584,-864.469 727.6795,-887.8672 744,-918.6768 800.7121,-1025.7369 696.3953,-1374.9935 780,-1462.6768 824.6061,-1509.459 1010.3875,-1468.4216 1069,-1495.6768 1088.9558,-1504.9565 1085.4978,-1519.4783 1105,-1529.6768 1112.7507,-1533.7301 1120.9762,-1537.2699 1129.4328,-1540.3613"/>
<polygon fill="#de958e" stroke="#de958e" points="1128.4713,-1543.7316 1139.0659,-1543.6646 1130.7419,-1537.1101 1128.4713,-1543.7316"/>
</g>
<!-- schematics.types&#45;&gt;hidebound.exporters.disk_exporter -->
<g id="edge98" class="edge">
<title>schematics.types&#45;&gt;hidebound.exporters.disk_exporter</title>
<path fill="none" stroke="#de958e" d="M678.4687,-813.657C764.1769,-783.3323 950.4164,-733.2378 1069,-817.6768 1108.8441,-846.0483 1068.2977,-889.3437 1105,-921.6768 1108.676,-924.9152 1112.5951,-927.8556 1116.7044,-930.5239"/>
<polygon fill="#de958e" stroke="#de958e" points="1114.9946,-933.5787 1125.3896,-935.6271 1118.5409,-927.5434 1114.9946,-933.5787"/>
</g>
<!-- schematics.types&#45;&gt;hidebound.exporters.exporter_base -->
<g id="edge99" class="edge">
<title>schematics.types&#45;&gt;hidebound.exporters.exporter_base</title>
<path fill="none" stroke="#de958e" d="M675.5856,-849.6784C727.7739,-871.483 815.6573,-908.2015 871.8216,-931.6674"/>
<polygon fill="#de958e" stroke="#de958e" points="870.6613,-934.9757 881.2376,-935.6015 873.3599,-928.5168 870.6613,-934.9757"/>
</g>
<!-- schematics.types&#45;&gt;hidebound.exporters.girder_exporter -->
<g id="edge100" class="edge">
<title>schematics.types&#45;&gt;hidebound.exporters.girder_exporter</title>
<path fill="none" stroke="#de958e" d="M707.2023,-846.9295C719.5028,-849.486 732.1133,-852.1343 744,-854.6768 888.6741,-885.6221 946.9283,-843.0904 1069,-926.6768 1092.7997,-942.9733 1081.8275,-963.5003 1105,-980.6768 1118.8356,-990.9325 1134.9647,-998.9206 1151.4525,-1005.1376"/>
<polygon fill="#de958e" stroke="#de958e" points="1150.5925,-1008.5463 1161.1872,-1008.5971 1152.9366,-1001.9505 1150.5925,-1008.5463"/>
</g>
<!-- schematics.types&#45;&gt;hidebound.exporters.s3_exporter -->
<g id="edge101" class="edge">
<title>schematics.types&#45;&gt;hidebound.exporters.s3_exporter</title>
<path fill="none" stroke="#de958e" d="M666.6524,-849.8015C691.8256,-864.9205 724.8865,-888.7863 744,-918.6768 781.8668,-977.8946 732.6793,-1020.7019 780,-1072.6768 807.822,-1103.2354 1055.0172,-1175.9326 1182.3636,-1211.8544"/>
<polygon fill="#de958e" stroke="#de958e" points="1181.4922,-1215.245 1192.0665,-1214.5856 1183.3889,-1208.5069 1181.4922,-1215.245"/>
</g>
<!-- json_logging -->
<g id="node48" class="node">
<title>json_logging</title>
<polygon fill="#343434" stroke="#343434" points="448,-1875.6768 332,-1875.6768 332,-1839.6768 448,-1839.6768 448,-1875.6768"/>
<text text-anchor="middle" x="390" y="-1853.9768" font-family="Courier,monospace" font-size="14.00" fill="#de958e">json_logging</text>
</g>
<!-- json_logging&#45;&gt;hidebound.core.logging -->
<g id="edge102" class="edge">
<title>json_logging&#45;&gt;hidebound.core.logging</title>
<path fill="none" stroke="#de958e" d="M448.0848,-1855.2816C470.5981,-1854.3532 497.1424,-1853.2586 522.9707,-1852.1935"/>
<polygon fill="#de958e" stroke="#de958e" points="523.36,-1855.6805 533.2073,-1851.7714 523.0715,-1848.6865 523.36,-1855.6805"/>
</g>
<!-- schematics.models -->
<g id="node49" class="node">
<title>schematics.models</title>
<polygon fill="#343434" stroke="#343434" points="468.5,-1017.6768 311.5,-1017.6768 311.5,-981.6768 468.5,-981.6768 468.5,-1017.6768"/>
<text text-anchor="middle" x="390" y="-995.9768" font-family="Courier,monospace" font-size="14.00" fill="#de958e">schematics.models</text>
</g>
<!-- schematics.models&#45;&gt;hidebound.core.validators -->
<g id="edge103" class="edge">
<title>schematics.models&#45;&gt;hidebound.core.validators</title>
<path fill="none" stroke="#de958e" d="M468.7328,-982.1446C491.949,-976.9748 517.5464,-971.2748 541.4677,-965.948"/>
<polygon fill="#de958e" stroke="#de958e" points="542.249,-969.3598 551.2491,-963.7698 540.7274,-962.5271 542.249,-969.3598"/>
</g>
<!-- pyjson5 -->
<g id="node50" class="node">
<title>pyjson5</title>
<polygon fill="#343434" stroke="#343434" points="427,-217.6768 353,-217.6768 353,-181.6768 427,-181.6768 427,-217.6768"/>
<text text-anchor="middle" x="390" y="-195.9768" font-family="Courier,monospace" font-size="14.00" fill="#de958e">pyjson5</text>
</g>
<!-- pyjson5&#45;&gt;hidebound.core.database -->
<g id="edge104" class="edge">
<title>pyjson5&#45;&gt;hidebound.core.database</title>
<path fill="none" stroke="#de958e" d="M427.2574,-200.6181C514.288,-202.7328 737.7289,-207.6768 924.5,-207.6768 924.5,-207.6768 924.5,-207.6768 1257.5,-207.6768 1464.9138,-207.6768 1523.7203,-306.2814 1636,-480.6768 1723.7962,-617.0441 1783.6053,-1141.257 1797.1036,-1269.3271"/>
<polygon fill="#de958e" stroke="#de958e" points="1793.6457,-1269.9138 1798.1654,-1279.4963 1800.6079,-1269.1868 1793.6457,-1269.9138"/>
</g>
<!-- pyjson5&#45;&gt;hidebound.core.tools -->
<g id="edge105" class="edge">
<title>pyjson5&#45;&gt;hidebound.core.tools</title>
<path fill="none" stroke="#de958e" d="M408.6259,-217.8035C451.4728,-259.502 557.1224,-362.3197 606.4035,-410.2799"/>
<polygon fill="#de958e" stroke="#de958e" points="604.2031,-413.0223 613.8106,-417.4884 609.0852,-408.0058 604.2031,-413.0223"/>
</g>
<!-- pyjson5&#45;&gt;hidebound.server.extension -->
<g id="edge106" class="edge">
<title>pyjson5&#45;&gt;hidebound.server.extension</title>
<path fill="none" stroke="#de958e" d="M427.2537,-197.9996C570.9122,-191.6818 1102.7319,-169.6768 1541,-169.6768 1541,-169.6768 1541,-169.6768 1800,-169.6768 1987.9138,-169.6768 2052.3505,-249.7616 2146,-412.6768 2193.0156,-494.4664 2170.5411,-742.0355 2182,-835.6768 2215.2193,-1107.1421 2274.33,-1433.0554 2292.224,-1529.4998"/>
<polygon fill="#de958e" stroke="#de958e" points="2288.8352,-1530.4207 2294.1054,-1539.6118 2295.7171,-1529.1403 2288.8352,-1530.4207"/>
</g>
<!-- schematics -->
<g id="node51" class="node">
<title>schematics</title>
<polygon fill="#343434" stroke="#343434" points="682,-773.6768 583,-773.6768 583,-737.6768 682,-737.6768 682,-773.6768"/>
<text text-anchor="middle" x="632.5" y="-751.9768" font-family="Courier,monospace" font-size="14.00" fill="#de958e">schematics</text>
</g>
<!-- schematics&#45;&gt;hidebound.core.config -->
<g id="edge107" class="edge">
<title>schematics&#45;&gt;hidebound.core.config</title>
<path fill="none" stroke="#de958e" d="M682.0702,-746.5335C806.5686,-725.3459 1141.6318,-679.3415 1410,-742.6768 1444.261,-750.7625 1479.8376,-769.1568 1505.2545,-784.3214"/>
<polygon fill="#de958e" stroke="#de958e" points="1503.4411,-787.315 1513.8022,-789.5284 1507.0829,-781.3369 1503.4411,-787.315"/>
</g>
<!-- schematics&#45;&gt;hidebound.core.specification_base -->
<g id="edge108" class="edge">
<title>schematics&#45;&gt;hidebound.core.specification_base</title>
<path fill="none" stroke="#de958e" d="M682.1296,-749.4839C702.8382,-744.9657 726.1688,-737.159 744,-723.6768 768.2007,-705.3787 755.2478,-683.2217 780,-665.6768 784.9688,-662.1549 790.2563,-659.0108 795.7608,-656.2047"/>
<polygon fill="#de958e" stroke="#de958e" points="797.6297,-659.195 805.2115,-651.7946 794.6695,-652.8517 797.6297,-659.195"/>
</g>
<!-- schematics&#45;&gt;hidebound.exporters.exporter_base -->
<g id="edge109" class="edge">
<title>schematics&#45;&gt;hidebound.exporters.exporter_base</title>
<path fill="none" stroke="#de958e" d="M681.4374,-773.7494C701.462,-782.0102 724.4665,-792.645 744,-804.6768 803.7358,-841.4717 864.9998,-896.411 898.5582,-928.2827"/>
<polygon fill="#de958e" stroke="#de958e" points="896.4356,-931.096 906.08,-935.4821 901.2758,-926.039 896.4356,-931.096"/>
</g>
<!-- schematics&#45;&gt;hidebound.exporters.girder_exporter -->
<g id="edge110" class="edge">
<title>schematics&#45;&gt;hidebound.exporters.girder_exporter</title>
<path fill="none" stroke="#de958e" d="M682.091,-752.4446C771.6618,-749.4531 961.1199,-756.5942 1069,-858.6768 1110.0634,-897.5335 1065.1452,-940.5814 1105,-980.6768 1114.8048,-990.5408 1126.6429,-998.3045 1139.337,-1004.4124"/>
<polygon fill="#de958e" stroke="#de958e" points="1138.1547,-1007.7168 1148.7148,-1008.5736 1140.9939,-1001.3184 1138.1547,-1007.7168"/>
</g>
<!-- wrapt -->
<g id="node52" class="node">
<title>wrapt</title>
<polygon fill="#343434" stroke="#343434" points="419,-909.6768 361,-909.6768 361,-873.6768 419,-873.6768 419,-909.6768"/>
<text text-anchor="middle" x="390" y="-887.9768" font-family="Courier,monospace" font-size="14.00" fill="#de958e">wrapt</text>
</g>
<!-- wrapt&#45;&gt;hidebound.core.validators -->
<g id="edge111" class="edge">
<title>wrapt&#45;&gt;hidebound.core.validators</title>
<path fill="none" stroke="#de958e" d="M419.2512,-898.1905C449.5201,-904.9308 498.3455,-915.8033 541.6436,-925.4449"/>
<polygon fill="#de958e" stroke="#de958e" points="541.1279,-928.9157 551.6496,-927.6731 542.6495,-922.0831 541.1279,-928.9157"/>
</g>
<!-- dask.dataframe -->
<g id="node53" class="node">
<title>dask.dataframe</title>
<polygon fill="#343434" stroke="#343434" points="456,-784.6768 324,-784.6768 324,-748.6768 456,-748.6768 456,-784.6768"/>
<text text-anchor="middle" x="390" y="-762.9768" font-family="Courier,monospace" font-size="14.00" fill="#de958e">dask.dataframe</text>
</g>
<!-- dask.dataframe&#45;&gt;hidebound.core.database -->
<g id="edge112" class="edge">
<title>dask.dataframe&#45;&gt;hidebound.core.database</title>
<path fill="none" stroke="#de958e" d="M415.2848,-784.9347C437.6546,-802.6131 469.1342,-831.5519 485,-864.6768 541.104,-981.8122 469.0477,-1035.6419 521,-1154.6768 582.5734,-1295.756 679.2345,-1280.0343 744,-1419.6768 784.0267,-1505.9794 707.2937,-1569.3248 780,-1630.6768 833.6169,-1675.9207 1357.5627,-1635.2827 1410,-1588.6768 1460.2762,-1543.9918 1396.8432,-1487.5904 1446,-1441.6768 1508.6362,-1383.1732 1556.5167,-1440.7453 1636,-1408.6768 1688.0971,-1387.6577 1740.5024,-1348.2497 1771.5984,-1322.4902"/>
<polygon fill="#de958e" stroke="#de958e" points="1773.9996,-1325.0443 1779.4089,-1315.9343 1769.4992,-1319.6827 1773.9996,-1325.0443"/>
</g>
<!-- dask.dataframe&#45;&gt;hidebound.core.database_tools -->
<g id="edge113" class="edge">
<title>dask.dataframe&#45;&gt;hidebound.core.database_tools</title>
<path fill="none" stroke="#de958e" d="M416.3245,-748.5814C477.06,-708.0084 633.0624,-610.4485 780,-573.6768 891.7925,-545.7004 1022.7715,-541.01 1119.2455,-542.5767"/>
<polygon fill="#de958e" stroke="#de958e" points="1119.2922,-546.078 1129.3559,-542.7657 1119.4231,-539.0793 1119.2922,-546.078"/>
</g>
<!-- dask.dataframe&#45;&gt;hidebound.core.tools -->
<g id="edge114" class="edge">
<title>dask.dataframe&#45;&gt;hidebound.core.tools</title>
<path fill="none" stroke="#de958e" d="M413.2659,-748.4863C434.8441,-730.4327 466.3493,-700.8666 485,-668.6768 513.9836,-618.6532 491.2324,-593.238 521,-543.6768 541.0714,-510.2591 574.0586,-480.1253 598.9578,-460.2334"/>
<polygon fill="#de958e" stroke="#de958e" points="601.3443,-462.81 607.0614,-453.8901 597.0296,-457.2979 601.3443,-462.81"/>
</g>
<!-- dask.dataframe&#45;&gt;hidebound.exporters.exporter_base -->
<g id="edge115" class="edge">
<title>dask.dataframe&#45;&gt;hidebound.exporters.exporter_base</title>
<path fill="none" stroke="#de958e" d="M427.6938,-784.7977C445.8184,-794.3177 467.3791,-806.8695 485,-820.6768 503.3122,-835.0259 500.8318,-847.0804 521,-858.6768 547.3822,-873.8462 715.0515,-910.4428 825.7874,-933.5294"/>
<polygon fill="#de958e" stroke="#de958e" points="825.1495,-936.9715 835.6528,-935.5819 826.5754,-930.1183 825.1495,-936.9715"/>
</g>
<!-- numpy -->
<g id="node54" class="node">
<title>numpy</title>
<polygon fill="#343434" stroke="#343434" points="953.5,-1453.6768 895.5,-1453.6768 895.5,-1417.6768 953.5,-1417.6768 953.5,-1453.6768"/>
<text text-anchor="middle" x="924.5" y="-1431.9768" font-family="Courier,monospace" font-size="14.00" fill="#de958e">numpy</text>
</g>
<!-- numpy&#45;&gt;hidebound.core.database -->
<g id="edge116" class="edge">
<title>numpy&#45;&gt;hidebound.core.database</title>
<path fill="none" stroke="#de958e" d="M953.6295,-1431.0853C1067.1314,-1413.1947 1483.5019,-1347.5646 1686.8021,-1315.5196"/>
<polygon fill="#de958e" stroke="#de958e" points="1687.5806,-1318.9402 1696.9137,-1313.9257 1686.4906,-1312.0255 1687.5806,-1318.9402"/>
</g>
<!-- numpy&#45;&gt;hidebound.core.database_tools -->
<g id="edge117" class="edge">
<title>numpy&#45;&gt;hidebound.core.database_tools</title>
<path fill="none" stroke="#de958e" d="M952.5358,-1417.6513C986.6475,-1393.9931 1042.908,-1349.026 1069,-1294.6768 1140.1232,-1146.5286 1065.7849,-1086.2657 1105,-926.6768 1138.5839,-790.0045 1212.3287,-637.5966 1243.3293,-576.8235"/>
<polygon fill="#de958e" stroke="#de958e" points="1246.4708,-578.3675 1247.925,-567.873 1240.2437,-575.1701 1246.4708,-578.3675"/>
</g>
<!-- numpy&#45;&gt;hidebound.server.api -->
<g id="edge118" class="edge">
<title>numpy&#45;&gt;hidebound.server.api</title>
<path fill="none" stroke="#de958e" d="M953.554,-1431.9828C1036.994,-1423.1226 1279.6909,-1409.8751 1410,-1534.6768 1454.5364,-1577.331 1397.0636,-1631.1523 1446,-1668.6768 1513.0112,-1720.0613 1560.6578,-1706.8138 1636,-1668.6768 1660.1107,-1656.4724 1647.8893,-1631.8812 1672,-1619.6768 1773.5136,-1568.2924 1829.8522,-1562.1235 1928,-1619.6768 2002.3724,-1663.2884 2036.4498,-1768.1056 2048.9695,-1818.5801"/>
<polygon fill="#de958e" stroke="#de958e" points="2045.6056,-1819.5632 2051.3207,-1828.4844 2052.4163,-1817.9464 2045.6056,-1819.5632"/>
</g>
<!-- hidebound -->
<g id="node55" class="node">
<title>hidebound</title>
<polygon fill="#343434" stroke="#343434" points="91,-1145.6768 0,-1145.6768 0,-1109.6768 91,-1109.6768 91,-1145.6768"/>
<text text-anchor="middle" x="45.5" y="-1123.9768" font-family="Courier,monospace" font-size="14.00" fill="#a0d17b">hidebound</text>
</g>
<!-- hidebound&#45;&gt;hidebound.server -->
<g id="edge119" class="edge">
<title>hidebound&#45;&gt;hidebound.server</title>
<path fill="none" stroke="#a0d17b" d="M45.9935,-1145.9075C48.8121,-1240.5133 65.0039,-1675.6276 127,-1792.6768 199.6808,-1929.8989 234.7183,-2022.6768 390,-2022.6768 390,-2022.6768 390,-2022.6768 924.5,-2022.6768 1114.54,-2022.6768 1337.1164,-2037.5517 1455.9654,-2046.6938"/>
<polygon fill="#a0d17b" stroke="#a0d17b" points="1455.849,-2050.1952 1466.0895,-2047.478 1456.3897,-2043.2161 1455.849,-2050.1952"/>
</g>
<!-- hidebound.exporters -->
<g id="node57" class="node">
<title>hidebound.exporters</title>
<polygon fill="#343434" stroke="#343434" points="719,-1145.6768 546,-1145.6768 546,-1109.6768 719,-1109.6768 719,-1145.6768"/>
<text text-anchor="middle" x="632.5" y="-1123.9768" font-family="Courier,monospace" font-size="14.00" fill="#a0d17b">hidebound.exporters</text>
</g>
<!-- hidebound&#45;&gt;hidebound.exporters -->
<g id="edge120" class="edge">
<title>hidebound&#45;&gt;hidebound.exporters</title>
<path fill="none" stroke="#a0d17b" d="M91.0725,-1127.6768C186.145,-1127.6768 407.4235,-1127.6768 535.7329,-1127.6768"/>
<polygon fill="#a0d17b" stroke="#a0d17b" points="535.9484,-1131.1769 545.9484,-1127.6768 535.9483,-1124.1769 535.9484,-1131.1769"/>
</g>
<!-- hidebound.core -->
<g id="node59" class="node">
<title>hidebound.core</title>
<polygon fill="#343434" stroke="#343434" points="259,-1095.6768 127,-1095.6768 127,-1059.6768 259,-1059.6768 259,-1095.6768"/>
<text text-anchor="middle" x="193" y="-1073.9768" font-family="Courier,monospace" font-size="14.00" fill="#a0d17b">hidebound.core</text>
</g>
<!-- hidebound&#45;&gt;hidebound.core -->
<g id="edge121" class="edge">
<title>hidebound&#45;&gt;hidebound.core</title>
<path fill="none" stroke="#a0d17b" d="M91.3614,-1112.1306C103.559,-1107.9958 116.9503,-1103.4564 129.8947,-1099.0685"/>
<polygon fill="#a0d17b" stroke="#a0d17b" points="131.3321,-1102.2769 139.6791,-1095.7517 129.0847,-1095.6475 131.3321,-1102.2769"/>
</g>
<!-- schematics.exceptions -->
<g id="node56" class="node">
<title>schematics.exceptions</title>
<polygon fill="#343434" stroke="#343434" points="485,-528.6768 295,-528.6768 295,-492.6768 485,-492.6768 485,-528.6768"/>
<text text-anchor="middle" x="390" y="-506.9768" font-family="Courier,monospace" font-size="14.00" fill="#de958e">schematics.exceptions</text>
</g>
<!-- schematics.exceptions&#45;&gt;hidebound.core.config -->
<g id="edge122" class="edge">
<title>schematics.exceptions&#45;&gt;hidebound.core.config</title>
<path fill="none" stroke="#de958e" d="M403.6657,-492.5839C425.1659,-465.8016 469.7611,-416.7227 521,-397.6768 553.9847,-385.4162 1005.6012,-390.3599 1069,-401.6768 1227.3116,-429.936 1291.2942,-414.1869 1410,-522.6768 1488.5472,-594.4642 1523.5086,-722.7113 1535.6584,-779.4002"/>
<polygon fill="#de958e" stroke="#de958e" points="1532.2802,-780.3484 1537.7288,-789.4349 1539.1358,-778.9339 1532.2802,-780.3484"/>
</g>
<!-- schematics.exceptions&#45;&gt;hidebound.core.database_tools -->
<g id="edge123" class="edge">
<title>schematics.exceptions&#45;&gt;hidebound.core.database_tools</title>
<path fill="none" stroke="#de958e" d="M405.9405,-492.2654C428.5953,-467.6641 472.7471,-425.247 521,-408.6768 587.147,-385.9618 1052.8285,-420.3705 1069,-425.6768 1132.7451,-446.5934 1195.5672,-495.0238 1230.1697,-524.7914"/>
<polygon fill="#de958e" stroke="#de958e" points="1228.0979,-527.6287 1237.9336,-531.567 1232.7006,-522.3547 1228.0979,-527.6287"/>
</g>
<!-- schematics.exceptions&#45;&gt;hidebound.core.specification_base -->
<g id="edge124" class="edge">
<title>schematics.exceptions&#45;&gt;hidebound.core.specification_base</title>
<path fill="none" stroke="#de958e" d="M485.1274,-527.551C556.6643,-540.7734 656.9168,-560.4385 744,-581.6768 781.487,-590.8194 822.88,-602.6189 856.5604,-612.6664"/>
<polygon fill="#de958e" stroke="#de958e" points="855.7139,-616.0665 866.2979,-615.5864 857.7246,-609.3614 855.7139,-616.0665"/>
</g>
<!-- schematics.exceptions&#45;&gt;hidebound.core.tools -->
<g id="edge125" class="edge">
<title>schematics.exceptions&#45;&gt;hidebound.core.tools</title>
<path fill="none" stroke="#de958e" d="M443.3934,-492.6462C467.0974,-484.772 495.3748,-475.5566 521,-467.6768 532.9994,-463.987 545.7661,-460.1968 558.2151,-456.5738"/>
<polygon fill="#de958e" stroke="#de958e" points="559.4778,-459.8521 568.1101,-453.7093 557.5312,-453.1282 559.4778,-459.8521"/>
</g>
<!-- schematics.exceptions&#45;&gt;hidebound.core.validators -->
<g id="edge126" class="edge">
<title>schematics.exceptions&#45;&gt;hidebound.core.validators</title>
<path fill="none" stroke="#de958e" d="M413.3976,-529.0275C435.7133,-547.941 468.3208,-579.5532 485,-614.6768 532.0221,-713.6976 465.8357,-763.9504 521,-858.6768 536.7366,-885.6993 564.4121,-907.3674 588.2524,-922.3205"/>
<polygon fill="#de958e" stroke="#de958e" points="586.4673,-925.3312 596.8329,-927.5232 590.0967,-919.3456 586.4673,-925.3312"/>
</g>
<!-- schematics.exceptions&#45;&gt;hidebound.server.api -->
<g id="edge127" class="edge">
<title>schematics.exceptions&#45;&gt;hidebound.server.api</title>
<path fill="none" stroke="#de958e" d="M414.0077,-528.7526C436.7867,-547.4573 469.7372,-578.915 485,-614.6768 579.4174,-835.9038 431.0992,-931.5763 521,-1154.6768 578.5326,-1297.4516 682.8513,-1278.4131 744,-1419.6768 771.1115,-1482.309 733.8557,-1674.3924 780,-1724.6768 879.7161,-1833.3396 958.4736,-1774.9162 1105,-1791.6768 1339.5413,-1818.5052 1400.3079,-1791.3125 1636,-1804.6768 1766.0823,-1812.0529 1798.4548,-1816.7538 1928,-1830.6768 1936.3377,-1831.5729 1944.9767,-1832.5525 1953.647,-1833.5714"/>
<polygon fill="#de958e" stroke="#de958e" points="1953.4799,-1837.0762 1963.8235,-1834.783 1954.3075,-1830.1253 1953.4799,-1837.0762"/>
</g>
<!-- hidebound.exporters&#45;&gt;hidebound.exporters.disk_exporter -->
<g id="edge128" class="edge">
<title>hidebound.exporters&#45;&gt;hidebound.exporters.disk_exporter</title>
<path fill="none" stroke="#a0d17b" d="M650.5973,-1109.3935C676.6619,-1084.2992 727.4415,-1039.8876 780,-1018.6768 900.136,-970.1942 940.6551,-998.306 1069,-980.6768 1086.4789,-978.276 1104.8621,-975.7028 1123.013,-973.1334"/>
<polygon fill="#a0d17b" stroke="#a0d17b" points="1123.6564,-976.5772 1133.0658,-971.7074 1122.6733,-969.6466 1123.6564,-976.5772"/>
</g>
<!-- hidebound.exporters&#45;&gt;hidebound.exporters.exporter_base -->
<g id="edge129" class="edge">
<title>hidebound.exporters&#45;&gt;hidebound.exporters.exporter_base</title>
<path fill="none" stroke="#a0d17b" d="M645.7263,-1109.6264C669.1645,-1079.0342 721.1053,-1017.2548 780,-985.6768 787.4056,-981.7061 795.2772,-978.2277 803.375,-975.1806"/>
<polygon fill="#a0d17b" stroke="#a0d17b" points="804.703,-978.4236 812.9705,-971.798 802.3757,-971.8218 804.703,-978.4236"/>
</g>
<!-- hidebound.exporters&#45;&gt;hidebound.exporters.girder_exporter -->
<g id="edge130" class="edge">
<title>hidebound.exporters&#45;&gt;hidebound.exporters.girder_exporter</title>
<path fill="none" stroke="#a0d17b" d="M719.306,-1129.8362C808.1795,-1130.2539 949.788,-1125.931 1069,-1099.6768 1119.5523,-1088.5437 1174.4281,-1066.0056 1211.8631,-1048.901"/>
<polygon fill="#a0d17b" stroke="#a0d17b" points="1213.3841,-1052.0538 1220.9915,-1044.6797 1210.4459,-1045.7003 1213.3841,-1052.0538"/>
</g>
<!-- hidebound.exporters&#45;&gt;hidebound.exporters.s3_exporter -->
<g id="edge131" class="edge">
<title>hidebound.exporters&#45;&gt;hidebound.exporters.s3_exporter</title>
<path fill="none" stroke="#a0d17b" d="M639.1578,-1145.6821C655.5772,-1187.0818 702.4003,-1288.4859 780,-1327.6768 894.6521,-1385.5808 952.9286,-1382.6806 1069,-1327.6768 1091.833,-1316.8568 1084.2021,-1298.0249 1105,-1283.6768 1123.3331,-1271.0292 1145.0506,-1261.3115 1166.2625,-1253.9258"/>
<polygon fill="#a0d17b" stroke="#a0d17b" points="1167.5785,-1257.1766 1175.9589,-1250.6944 1165.3653,-1250.5357 1167.5785,-1257.1766"/>
</g>
<!-- pyparsing -->
<g id="node58" class="node">
<title>pyparsing</title>
<polygon fill="#343434" stroke="#343434" points="238.5,-659.6768 147.5,-659.6768 147.5,-623.6768 238.5,-623.6768 238.5,-659.6768"/>
<text text-anchor="middle" x="193" y="-637.9768" font-family="Courier,monospace" font-size="14.00" fill="#de958e">pyparsing</text>
</g>
<!-- pyparsing&#45;&gt;hidebound.core.parser -->
<g id="edge132" class="edge">
<title>pyparsing&#45;&gt;hidebound.core.parser</title>
<path fill="none" stroke="#de958e" d="M238.6909,-641.6768C252.6218,-641.6768 268.5536,-641.6768 284.73,-641.6768"/>
<polygon fill="#de958e" stroke="#de958e" points="284.8181,-645.1769 294.818,-641.6768 284.818,-638.1769 284.8181,-645.1769"/>
</g>
<!-- pyparsing&#45;&gt;hidebound.core.specification_base -->
<g id="edge133" class="edge">
<title>pyparsing&#45;&gt;hidebound.core.specification_base</title>
<path fill="none" stroke="#de958e" d="M238.7021,-626.8807C256.1238,-621.9575 276.2899,-617.1113 295,-614.6768 455.855,-593.7476 641.6863,-603.4573 769.5232,-615.323"/>
<polygon fill="#de958e" stroke="#de958e" points="769.4952,-618.8359 779.7799,-616.2912 770.1531,-611.8669 769.4952,-618.8359"/>
</g>
<!-- pyparsing&#45;&gt;hidebound.core.validators -->
<g id="edge134" class="edge">
<title>pyparsing&#45;&gt;hidebound.core.validators</title>
<path fill="none" stroke="#de958e" d="M200.6185,-659.8097C214.7353,-691.3365 247.8718,-756.4397 295,-793.6768 365.733,-849.5647 409.5137,-815.3977 485,-864.6768 504.2123,-877.2191 501.9029,-888.9599 521,-901.6768 534.0011,-910.3344 548.9636,-917.6977 563.6195,-923.7814"/>
<polygon fill="#de958e" stroke="#de958e" points="562.5975,-927.1418 573.1826,-927.5952 565.1906,-920.6398 562.5975,-927.1418"/>
</g>
<!-- hidebound.core&#45;&gt;hidebound.core.config -->
<g id="edge135" class="edge">
<title>hidebound.core&#45;&gt;hidebound.core.config</title>
<path fill="none" stroke="#a0d17b" d="M196.5341,-1059.4123C207.5008,-1002.0819 241.2764,-820.4875 259,-668.6768 265.4075,-613.7935 254.5385,-210.308 295,-172.6768 665.6441,172.0407 1048.3551,-50.5298 1410,-404.6768 1465.3915,-458.9199 1518.3689,-697.0023 1535.3627,-779.4525"/>
<polygon fill="#a0d17b" stroke="#a0d17b" points="1531.9575,-780.2711 1537.3871,-789.3689 1538.816,-778.8709 1531.9575,-780.2711"/>
</g>
<!-- hidebound.core&#45;&gt;hidebound.core.connection -->
<g id="edge136" class="edge">
<title>hidebound.core&#45;&gt;hidebound.core.connection</title>
<path fill="none" stroke="#a0d17b" d="M205.2972,-1095.8449C244.4032,-1152.2001 372.1226,-1325.5956 521,-1414.6768 527.3564,-1418.4802 534.188,-1421.8513 541.227,-1424.8357"/>
<polygon fill="#a0d17b" stroke="#a0d17b" points="540.3425,-1428.2495 550.929,-1428.67 542.9153,-1421.7395 540.3425,-1428.2495"/>
</g>
<!-- hidebound.core&#45;&gt;hidebound.core.database -->
<g id="edge137" class="edge">
<title>hidebound.core&#45;&gt;hidebound.core.database</title>
<path fill="none" stroke="#a0d17b" d="M194.7339,-1095.8457C202.3588,-1172.1946 235.2178,-1466.2028 295,-1533.6768 446.6701,-1704.8614 554.663,-1666.5462 780,-1705.6768 917.9358,-1729.6299 1302.1402,-1795.9311 1410,-1706.6768 1475.8793,-1652.1615 1385.8131,-1578.4184 1446,-1517.6768 1506.6138,-1456.5044 1561.1546,-1522.271 1636,-1479.6768 1703.5309,-1441.2454 1758.1954,-1364.9829 1783.9674,-1324.4532"/>
<polygon fill="#a0d17b" stroke="#a0d17b" points="1786.9797,-1326.2372 1789.3121,-1315.9023 1781.0438,-1322.527 1786.9797,-1326.2372"/>
</g>
<!-- hidebound.core&#45;&gt;hidebound.core.database_tools -->
<g id="edge138" class="edge">
<title>hidebound.core&#45;&gt;hidebound.core.database_tools</title>
<path fill="none" stroke="#a0d17b" d="M196.0785,-1059.3511C205.7134,-1001.8417 236.017,-819.7807 259,-668.6768 267.5063,-612.7515 253.8565,-455.4997 295,-416.6768 545.2453,-180.5461 744.5126,-287.2724 1069,-401.6768 1139.0433,-426.372 1203.0538,-488.5835 1235.3909,-523.9874"/>
<polygon fill="#a0d17b" stroke="#a0d17b" points="1232.8851,-526.4353 1242.1733,-531.5324 1238.0909,-521.7556 1232.8851,-526.4353"/>
</g>
<!-- hidebound.core&#45;&gt;hidebound.core.logging -->
<g id="edge139" class="edge">
<title>hidebound.core&#45;&gt;hidebound.core.logging</title>
<path fill="none" stroke="#a0d17b" d="M194.3289,-1096.0105C202.2312,-1202.745 244.4172,-1741.0803 295,-1792.6768 303.1408,-1800.9808 427.776,-1819.727 523.2367,-1833.0201"/>
<polygon fill="#a0d17b" stroke="#a0d17b" points="522.8693,-1836.5026 533.2555,-1834.4102 523.8314,-1829.569 522.8693,-1836.5026"/>
</g>
<!-- hidebound.core&#45;&gt;hidebound.core.parser -->
<g id="edge140" class="edge">
<title>hidebound.core&#45;&gt;hidebound.core.parser</title>
<path fill="none" stroke="#a0d17b" d="M195.2778,-1059.4211C204.471,-988.4682 240.9577,-732.0842 295,-673.6768 297.7795,-670.6729 300.8499,-667.9508 304.1343,-665.4841"/>
<polygon fill="#a0d17b" stroke="#a0d17b" points="306.2569,-668.2776 312.6958,-659.8637 302.4154,-662.4258 306.2569,-668.2776"/>
</g>
<!-- hidebound.core&#45;&gt;hidebound.core.specification_base -->
<g id="edge141" class="edge">
<title>hidebound.core&#45;&gt;hidebound.core.specification_base</title>
<path fill="none" stroke="#a0d17b" d="M195.9063,-1059.5945C206.5073,-995.9326 245.1012,-783.642 295,-739.6768 330.2539,-708.6151 595.037,-672.1913 769.7836,-651.1399"/>
<polygon fill="#a0d17b" stroke="#a0d17b" points="770.3445,-654.5978 779.8564,-649.9315 769.5107,-647.6477 770.3445,-654.5978"/>
</g>
<!-- hidebound.core&#45;&gt;hidebound.core.specifications -->
<g id="edge142" class="edge">
<title>hidebound.core&#45;&gt;hidebound.core.specifications</title>
<path fill="none" stroke="#a0d17b" d="M194.5688,-1095.7203C201.3782,-1169.4963 230.9573,-1446.8433 295,-1500.6768 356.5493,-1552.4145 867.6319,-1560.8541 1118.9879,-1561.8433"/>
<polygon fill="#a0d17b" stroke="#a0d17b" points="1119.2762,-1565.3443 1129.2887,-1561.8803 1119.3014,-1558.3443 1119.2762,-1565.3443"/>
</g>
<!-- hidebound.core&#45;&gt;hidebound.core.tools -->
<g id="edge143" class="edge">
<title>hidebound.core&#45;&gt;hidebound.core.tools</title>
<path fill="none" stroke="#a0d17b" d="M195.9853,-1059.4224C212.2482,-960.0881 289.6296,-488.8948 295,-483.6768 356.3169,-424.1 455.8979,-416.4754 531.0357,-421.1418"/>
<polygon fill="#a0d17b" stroke="#a0d17b" points="531.2477,-424.6653 541.4692,-421.8777 531.7403,-417.6827 531.2477,-424.6653"/>
</g>
<!-- hidebound.core&#45;&gt;hidebound.core.traits -->
<g id="edge144" class="edge">
<title>hidebound.core&#45;&gt;hidebound.core.traits</title>
<path fill="none" stroke="#a0d17b" d="M193.3556,-1095.8967C195.5744,-1191.3472 210.3468,-1633.1877 295,-1733.6768 297.4423,-1736.576 300.1566,-1739.2134 303.0792,-1741.6127"/>
<polygon fill="#a0d17b" stroke="#a0d17b" points="301.0784,-1744.4847 311.2574,-1747.4238 305.133,-1738.7785 301.0784,-1744.4847"/>
</g>
<!-- hidebound.core&#45;&gt;hidebound.core.validators -->
<g id="edge145" class="edge">
<title>hidebound.core&#45;&gt;hidebound.core.validators</title>
<path fill="none" stroke="#a0d17b" d="M259.2203,-1072.3701C319.4485,-1066.0902 410.0997,-1052.9658 485,-1026.6768 525.7204,-1012.3846 568.5588,-987.6166 597.5127,-969.2212"/>
<polygon fill="#a0d17b" stroke="#a0d17b" points="599.5207,-972.0911 606.0349,-963.7355 595.7319,-966.2051 599.5207,-972.0911"/>
</g>
<!-- skimage.io -->
<g id="node60" class="node">
<title>skimage.io</title>
<polygon fill="#343434" stroke="#343434" points="242.5,-1783.6768 143.5,-1783.6768 143.5,-1747.6768 242.5,-1747.6768 242.5,-1783.6768"/>
<text text-anchor="middle" x="193" y="-1761.9768" font-family="Courier,monospace" font-size="14.00" fill="#de958e">skimage.io</text>
</g>
<!-- skimage.io&#45;&gt;hidebound.core.traits -->
<g id="edge146" class="edge">
<title>skimage.io&#45;&gt;hidebound.core.traits</title>
<path fill="none" stroke="#de958e" d="M242.7114,-1765.6768C255.6771,-1765.6768 270.1516,-1765.6768 284.8245,-1765.6768"/>
<polygon fill="#de958e" stroke="#de958e" points="284.9983,-1769.1769 294.9983,-1765.6768 284.9983,-1762.1769 284.9983,-1769.1769"/>
</g>
</g>
</svg>
