<?xml version="1.0" encoding="UTF-8" standalone="no"?>
<!DOCTYPE svg PUBLIC "-//W3C//DTD SVG 1.1//EN"
 "http://www.w3.org/Graphics/SVG/1.1/DTD/svg11.dtd">
<!-- Generated by graphviz version 2.40.1 (20161225.0304)
 -->
<!-- Title: %3 Pages: 1 -->
<svg width="2947pt" height="1904pt"
 viewBox="0.00 0.00 2947.00 1903.63" xmlns="http://www.w3.org/2000/svg" xmlns:xlink="http://www.w3.org/1999/xlink">
<g id="graph0" class="graph" transform="scale(1 1) rotate(0) translate(4 1899.6297)">
<title>%3</title>
<polygon fill="#242424" stroke="transparent" points="-4,4 -4,-1899.6297 2943,-1899.6297 2943,4 -4,4"/>
<!-- cli -->
<g id="node1" class="node">
<title>cli</title>
<polygon fill="#343434" stroke="#343434" points="72.5,-1258.6297 18.5,-1258.6297 18.5,-1222.6297 72.5,-1222.6297 72.5,-1258.6297"/>
<text text-anchor="middle" x="45.5" y="-1236.9297" font-family="Courier,monospace" font-size="14.00" fill="#b6ecf3">cli</text>
</g>
<!-- hidebound.core.config -->
<g id="node2" class="node">
<title>hidebound.core.config</title>
<polygon fill="#343434" stroke="#343434" points="1669,-791.6297 1479,-791.6297 1479,-755.6297 1669,-755.6297 1669,-791.6297"/>
<text text-anchor="middle" x="1574" y="-769.9297" font-family="Courier,monospace" font-size="14.00" fill="#b6ecf3">hidebound.core.config</text>
</g>
<!-- hidebound.core.database -->
<g id="node3" class="node">
<title>hidebound.core.database</title>
<polygon fill="#343434" stroke="#343434" points="1936,-945.6297 1730,-945.6297 1730,-909.6297 1936,-909.6297 1936,-945.6297"/>
<text text-anchor="middle" x="1833" y="-923.9297" font-family="Courier,monospace" font-size="14.00" fill="#b6ecf3">hidebound.core.database</text>
</g>
<!-- hidebound.core.config&#45;&gt;hidebound.core.database -->
<g id="edge1" class="edge">
<title>hidebound.core.config&#45;&gt;hidebound.core.database</title>
<path fill="none" stroke="#b6ecf3" d="M1610.0103,-791.7141C1627.9286,-800.9314 1649.8058,-812.5168 1669,-823.6297 1714.1306,-849.759 1764.5959,-882.2804 1797.4735,-903.9305"/>
<polygon fill="#b6ecf3" stroke="#b6ecf3" points="1795.5764,-906.872 1805.8498,-909.4618 1799.4338,-901.0306 1795.5764,-906.872"/>
</g>
<!-- hidebound.server.app -->
<g id="node17" class="node">
<title>hidebound.server.app</title>
<polygon fill="#343434" stroke="#343434" points="2939,-493.6297 2757,-493.6297 2757,-457.6297 2939,-457.6297 2939,-493.6297"/>
<text text-anchor="middle" x="2848" y="-471.9297" font-family="Courier,monospace" font-size="14.00" fill="#b6ecf3">hidebound.server.app</text>
</g>
<!-- hidebound.core.config&#45;&gt;hidebound.server.app -->
<g id="edge2" class="edge">
<title>hidebound.core.config&#45;&gt;hidebound.server.app</title>
<path fill="none" stroke="#b6ecf3" d="M1669.2066,-773.6297C1772.3847,-773.6297 1941.8759,-773.6297 2088,-773.6297 2088,-773.6297 2088,-773.6297 2330.5,-773.6297 2548.0658,-773.6297 2756.6833,-573.3814 2824.8245,-501.188"/>
<polygon fill="#b6ecf3" stroke="#b6ecf3" points="2827.437,-503.5185 2831.7072,-493.8223 2822.3224,-498.7393 2827.437,-503.5185"/>
</g>
<!-- hidebound.server.api -->
<g id="node16" class="node">
<title>hidebound.server.api</title>
<polygon fill="#343434" stroke="#343434" points="2179,-991.6297 1997,-991.6297 1997,-955.6297 2179,-955.6297 2179,-991.6297"/>
<text text-anchor="middle" x="2088" y="-969.9297" font-family="Courier,monospace" font-size="14.00" fill="#b6ecf3">hidebound.server.api</text>
</g>
<!-- hidebound.core.database&#45;&gt;hidebound.server.api -->
<g id="edge3" class="edge">
<title>hidebound.core.database&#45;&gt;hidebound.server.api</title>
<path fill="none" stroke="#b6ecf3" d="M1933.0509,-945.6781C1950.6633,-948.8552 1969.0094,-952.1647 1986.6569,-955.3482"/>
<polygon fill="#b6ecf3" stroke="#b6ecf3" points="1986.4934,-958.8751 1996.9559,-957.2061 1987.7361,-951.9863 1986.4934,-958.8751"/>
</g>
<!-- hidebound.server.extension -->
<g id="node19" class="node">
<title>hidebound.server.extension</title>
<polygon fill="#343434" stroke="#343434" points="2446,-949.6297 2215,-949.6297 2215,-913.6297 2446,-913.6297 2446,-949.6297"/>
<text text-anchor="middle" x="2330.5" y="-927.9297" font-family="Courier,monospace" font-size="14.00" fill="#b6ecf3">hidebound.server.extension</text>
</g>
<!-- hidebound.core.database&#45;&gt;hidebound.server.extension -->
<g id="edge4" class="edge">
<title>hidebound.core.database&#45;&gt;hidebound.server.extension</title>
<path fill="none" stroke="#b6ecf3" d="M1936.0823,-928.4585C2014.1647,-929.0863 2121.8135,-929.9518 2204.9242,-930.62"/>
<polygon fill="#b6ecf3" stroke="#b6ecf3" points="2204.9066,-934.1199 2214.9344,-930.7005 2204.9629,-927.1201 2204.9066,-934.1199"/>
</g>
<!-- hidebound.core.database_tools -->
<g id="node4" class="node">
<title>hidebound.core.database_tools</title>
<polygon fill="#343434" stroke="#343434" points="1402,-1354.6297 1146,-1354.6297 1146,-1318.6297 1402,-1318.6297 1402,-1354.6297"/>
<text text-anchor="middle" x="1274" y="-1332.9297" font-family="Courier,monospace" font-size="14.00" fill="#b6ecf3">hidebound.core.database_tools</text>
</g>
<!-- hidebound.core.database_tools&#45;&gt;hidebound.core.database -->
<g id="edge5" class="edge">
<title>hidebound.core.database_tools&#45;&gt;hidebound.core.database</title>
<path fill="none" stroke="#b6ecf3" d="M1381.0521,-1318.6265C1402.3966,-1312.5265 1424.0538,-1304.4091 1443,-1293.6297 1462.6671,-1282.4401 1462.2835,-1272.8796 1479,-1257.6297 1560.1373,-1183.611 1588.7495,-1174.6089 1669,-1099.6297 1721.7513,-1050.3435 1779.0063,-988.0797 1809.9655,-953.6026"/>
<polygon fill="#b6ecf3" stroke="#b6ecf3" points="1812.8275,-955.653 1816.8885,-945.8674 1807.6114,-950.9847 1812.8275,-955.653"/>
</g>
<!-- hidebound.core.logging -->
<g id="node5" class="node">
<title>hidebound.core.logging</title>
<polygon fill="#343434" stroke="#343434" points="731.5,-218.6297 533.5,-218.6297 533.5,-182.6297 731.5,-182.6297 731.5,-218.6297"/>
<text text-anchor="middle" x="632.5" y="-196.9297" font-family="Courier,monospace" font-size="14.00" fill="#b6ecf3">hidebound.core.logging</text>
</g>
<!-- hidebound.core.logging&#45;&gt;hidebound.core.database -->
<g id="edge6" class="edge">
<title>hidebound.core.logging&#45;&gt;hidebound.core.database</title>
<path fill="none" stroke="#b6ecf3" d="M704.9936,-182.5774C863.7895,-147.831 1244.0106,-91.6284 1443,-291.6297 1495.9646,-344.8637 1428.3612,-572.1786 1479,-627.6297 1537.0718,-691.2203 1606.4245,-606.4655 1669,-665.6297 1715.3711,-709.4728 1672.7735,-749.5484 1705,-804.6297 1728.6558,-845.062 1769.3437,-880.8423 1798.4995,-903.2414"/>
<polygon fill="#b6ecf3" stroke="#b6ecf3" points="1796.6768,-906.2504 1806.769,-909.4751 1800.8905,-900.6607 1796.6768,-906.2504"/>
</g>
<!-- hidebound.exporters.exporter_base -->
<g id="node12" class="node">
<title>hidebound.exporters.exporter_base</title>
<polygon fill="#343434" stroke="#343434" points="1069,-555.6297 780,-555.6297 780,-519.6297 1069,-519.6297 1069,-555.6297"/>
<text text-anchor="middle" x="924.5" y="-533.9297" font-family="Courier,monospace" font-size="14.00" fill="#b6ecf3">hidebound.exporters.exporter_base</text>
</g>
<!-- hidebound.core.logging&#45;&gt;hidebound.exporters.exporter_base -->
<g id="edge7" class="edge">
<title>hidebound.core.logging&#45;&gt;hidebound.exporters.exporter_base</title>
<path fill="none" stroke="#b6ecf3" d="M640.8205,-218.6755C660.5882,-260.2265 713.7135,-364.4645 780,-434.6297 810.4241,-466.834 852.2643,-495.3591 883.0946,-514.1765"/>
<polygon fill="#b6ecf3" stroke="#b6ecf3" points="881.5074,-517.3061 891.8812,-519.4594 885.1145,-511.307 881.5074,-517.3061"/>
</g>
<!-- hidebound.server.progress -->
<g id="node21" class="node">
<title>hidebound.server.progress</title>
<polygon fill="#343434" stroke="#343434" points="1944.5,-707.6297 1721.5,-707.6297 1721.5,-671.6297 1944.5,-671.6297 1944.5,-707.6297"/>
<text text-anchor="middle" x="1833" y="-685.9297" font-family="Courier,monospace" font-size="14.00" fill="#b6ecf3">hidebound.server.progress</text>
</g>
<!-- hidebound.core.logging&#45;&gt;hidebound.server.progress -->
<g id="edge8" class="edge">
<title>hidebound.core.logging&#45;&gt;hidebound.server.progress</title>
<path fill="none" stroke="#b6ecf3" d="M681.5682,-182.5255C709.9016,-173.0383 746.4647,-162.4182 780,-157.6297 925.8539,-136.8031 1333.5469,-59.0035 1443,-157.6297 1500.2645,-209.2297 1427.0987,-445.6381 1479,-502.6297 1536.9839,-566.3005 1605.4419,-482.5224 1669,-540.6297 1710.7244,-578.7758 1663.4763,-624.2652 1705,-662.6297 1707.4605,-664.903 1710.0624,-667.004 1712.7812,-668.9449"/>
<polygon fill="#b6ecf3" stroke="#b6ecf3" points="1710.9396,-671.9214 1721.264,-674.3 1714.6763,-666.0022 1710.9396,-671.9214"/>
</g>
<!-- hidebound.core.parser -->
<g id="node6" class="node">
<title>hidebound.core.parser</title>
<polygon fill="#343434" stroke="#343434" points="485,-1167.6297 295,-1167.6297 295,-1131.6297 485,-1131.6297 485,-1167.6297"/>
<text text-anchor="middle" x="390" y="-1145.9297" font-family="Courier,monospace" font-size="14.00" fill="#b6ecf3">hidebound.core.parser</text>
</g>
<!-- hidebound.core.parser&#45;&gt;hidebound.core.database_tools -->
<g id="edge9" class="edge">
<title>hidebound.core.parser&#45;&gt;hidebound.core.database_tools</title>
<path fill="none" stroke="#b6ecf3" d="M462.3937,-1167.6609C540.5422,-1186.9018 668.7768,-1217.8273 780,-1241.6297 911.4126,-1269.7527 1063.3264,-1298.3905 1163.617,-1316.7635"/>
<polygon fill="#b6ecf3" stroke="#b6ecf3" points="1162.995,-1320.2077 1173.4616,-1318.5644 1164.2547,-1313.322 1162.995,-1320.2077"/>
</g>
<!-- hidebound.core.specification_base -->
<g id="node7" class="node">
<title>hidebound.core.specification_base</title>
<polygon fill="#343434" stroke="#343434" points="1069,-1075.6297 780,-1075.6297 780,-1039.6297 1069,-1039.6297 1069,-1075.6297"/>
<text text-anchor="middle" x="924.5" y="-1053.9297" font-family="Courier,monospace" font-size="14.00" fill="#b6ecf3">hidebound.core.specification_base</text>
</g>
<!-- hidebound.core.parser&#45;&gt;hidebound.core.specification_base -->
<g id="edge10" class="edge">
<title>hidebound.core.parser&#45;&gt;hidebound.core.specification_base</title>
<path fill="none" stroke="#b6ecf3" d="M485.2498,-1133.235C575.9804,-1117.6181 712.6978,-1094.0858 809.4681,-1077.4294"/>
<polygon fill="#b6ecf3" stroke="#b6ecf3" points="810.3268,-1080.8331 819.5881,-1075.6875 809.1393,-1073.9346 810.3268,-1080.8331"/>
</g>
<!-- hidebound.core.validators -->
<g id="node11" class="node">
<title>hidebound.core.validators</title>
<polygon fill="#343434" stroke="#343434" points="744,-1075.6297 521,-1075.6297 521,-1039.6297 744,-1039.6297 744,-1075.6297"/>
<text text-anchor="middle" x="632.5" y="-1053.9297" font-family="Courier,monospace" font-size="14.00" fill="#b6ecf3">hidebound.core.validators</text>
</g>
<!-- hidebound.core.parser&#45;&gt;hidebound.core.validators -->
<g id="edge11" class="edge">
<title>hidebound.core.parser&#45;&gt;hidebound.core.validators</title>
<path fill="none" stroke="#b6ecf3" d="M445.4597,-1131.5866C458.4844,-1127.173 472.2746,-1122.3561 485,-1117.6297 517.1311,-1105.6958 552.7368,-1091.2478 580.9147,-1079.5202"/>
<polygon fill="#b6ecf3" stroke="#b6ecf3" points="582.2914,-1082.7383 590.1702,-1075.6548 579.5938,-1076.2789 582.2914,-1082.7383"/>
</g>
<!-- hidebound.core.specification_base&#45;&gt;hidebound.core.config -->
<g id="edge12" class="edge">
<title>hidebound.core.specification_base&#45;&gt;hidebound.core.config</title>
<path fill="none" stroke="#b6ecf3" d="M1047.8693,-1039.5247C1055.1635,-1036.9424 1062.2651,-1033.9945 1069,-1030.6297 1088.4167,-1020.929 1086.3713,-1008.7689 1105,-997.6297 1241.5617,-915.9717 1318.0536,-978.1463 1443,-879.6297 1466.2345,-861.3099 1457.1894,-843.6236 1479,-823.6297 1490.7209,-812.8851 1505.1802,-803.749 1519.251,-796.3425"/>
<polygon fill="#b6ecf3" stroke="#b6ecf3" points="1521.0549,-799.3528 1528.4088,-791.7257 1517.9037,-793.1022 1521.0549,-799.3528"/>
</g>
<!-- hidebound.core.specification_base&#45;&gt;hidebound.core.database -->
<g id="edge13" class="edge">
<title>hidebound.core.specification_base&#45;&gt;hidebound.core.database</title>
<path fill="none" stroke="#b6ecf3" d="M1059.1033,-1039.5865C1208.3007,-1019.4101 1456.0154,-985.3859 1669,-953.6297 1685.446,-951.1776 1702.8065,-948.5106 1719.8346,-945.8499"/>
<polygon fill="#b6ecf3" stroke="#b6ecf3" points="1720.4754,-949.2923 1729.8127,-944.2858 1719.3913,-942.3768 1720.4754,-949.2923"/>
</g>
<!-- hidebound.core.specification_base&#45;&gt;hidebound.core.database_tools -->
<g id="edge14" class="edge">
<title>hidebound.core.specification_base&#45;&gt;hidebound.core.database_tools</title>
<path fill="none" stroke="#b6ecf3" d="M961.3909,-1075.6463C993.8725,-1093.2256 1040.3427,-1122.8187 1069,-1160.6297 1097.5322,-1198.2757 1072.9099,-1225.9666 1105,-1260.6297 1128.4702,-1285.9817 1161.989,-1303.4379 1192.9957,-1315.1613"/>
<polygon fill="#b6ecf3" stroke="#b6ecf3" points="1191.9297,-1318.4977 1202.5238,-1318.6179 1194.317,-1311.9174 1191.9297,-1318.4977"/>
</g>
<!-- hidebound.core.specifications -->
<g id="node8" class="node">
<title>hidebound.core.specifications</title>
<polygon fill="#343434" stroke="#343434" points="1402,-1251.6297 1146,-1251.6297 1146,-1215.6297 1402,-1215.6297 1402,-1251.6297"/>
<text text-anchor="middle" x="1274" y="-1229.9297" font-family="Courier,monospace" font-size="14.00" fill="#b6ecf3">hidebound.core.specifications</text>
</g>
<!-- hidebound.core.specification_base&#45;&gt;hidebound.core.specifications -->
<g id="edge15" class="edge">
<title>hidebound.core.specification_base&#45;&gt;hidebound.core.specifications</title>
<path fill="none" stroke="#b6ecf3" d="M960.2602,-1075.6377C1024.3629,-1107.9183 1158.6848,-1175.5597 1228.9626,-1210.9499"/>
<polygon fill="#b6ecf3" stroke="#b6ecf3" points="1227.5235,-1214.1439 1238.0292,-1215.5156 1230.6719,-1207.8919 1227.5235,-1214.1439"/>
</g>
<!-- hidebound.core.tools -->
<g id="node9" class="node">
<title>hidebound.core.tools</title>
<polygon fill="#343434" stroke="#343434" points="723.5,-1411.6297 541.5,-1411.6297 541.5,-1375.6297 723.5,-1375.6297 723.5,-1411.6297"/>
<text text-anchor="middle" x="632.5" y="-1389.9297" font-family="Courier,monospace" font-size="14.00" fill="#b6ecf3">hidebound.core.tools</text>
</g>
<!-- hidebound.core.tools&#45;&gt;hidebound.core.database -->
<g id="edge16" class="edge">
<title>hidebound.core.tools&#45;&gt;hidebound.core.database</title>
<path fill="none" stroke="#b6ecf3" d="M723.5871,-1401.5871C909.8377,-1416.0656 1326.505,-1438.737 1443,-1363.6297 1471.7407,-1345.0998 1454.9391,-1319.929 1479,-1295.6297 1546.585,-1227.3748 1599.1576,-1258.5729 1669,-1192.6297 1744.7643,-1121.0952 1799.35,-1007.2143 1821.7434,-955.186"/>
<polygon fill="#b6ecf3" stroke="#b6ecf3" points="1824.9886,-956.4981 1825.669,-945.9251 1818.5438,-953.7661 1824.9886,-956.4981"/>
</g>
<!-- hidebound.core.tools&#45;&gt;hidebound.core.database_tools -->
<g id="edge17" class="edge">
<title>hidebound.core.tools&#45;&gt;hidebound.core.database_tools</title>
<path fill="none" stroke="#b6ecf3" d="M723.7353,-1388.2247C812.12,-1382.6856 949.8899,-1373.2517 1069,-1361.6297 1090.5842,-1359.5236 1113.4131,-1357.0172 1135.6936,-1354.417"/>
<polygon fill="#b6ecf3" stroke="#b6ecf3" points="1136.3634,-1357.8624 1145.8855,-1353.2169 1135.5448,-1350.9105 1136.3634,-1357.8624"/>
</g>
<!-- hidebound.core.tools&#45;&gt;hidebound.core.specification_base -->
<g id="edge18" class="edge">
<title>hidebound.core.tools&#45;&gt;hidebound.core.specification_base</title>
<path fill="none" stroke="#b6ecf3" d="M650.538,-1375.5451C675.418,-1349.5419 719.9159,-1299.0384 744,-1247.6297 774.5542,-1182.4101 728.918,-1140.4017 780,-1089.6297 783.0753,-1086.5731 786.3731,-1083.7803 789.8506,-1081.23"/>
<polygon fill="#b6ecf3" stroke="#b6ecf3" points="791.8272,-1084.1193 798.2709,-1075.7092 787.989,-1078.2654 791.8272,-1084.1193"/>
</g>
<!-- hidebound.core.traits -->
<g id="node10" class="node">
<title>hidebound.core.traits</title>
<polygon fill="#343434" stroke="#343434" points="1019.5,-1525.6297 829.5,-1525.6297 829.5,-1489.6297 1019.5,-1489.6297 1019.5,-1525.6297"/>
<text text-anchor="middle" x="924.5" y="-1503.9297" font-family="Courier,monospace" font-size="14.00" fill="#b6ecf3">hidebound.core.traits</text>
</g>
<!-- hidebound.core.tools&#45;&gt;hidebound.core.traits -->
<g id="edge19" class="edge">
<title>hidebound.core.tools&#45;&gt;hidebound.core.traits</title>
<path fill="none" stroke="#b6ecf3" d="M698.2637,-1411.6639C714.0032,-1417.6038 730.2241,-1425.1787 744,-1434.6297 763.9963,-1448.3482 759.1275,-1463.2852 780,-1475.6297 792.0127,-1482.7343 805.4329,-1488.2646 819.1225,-1492.5689"/>
<polygon fill="#b6ecf3" stroke="#b6ecf3" points="818.5417,-1496.0455 829.1221,-1495.4914 820.5055,-1489.3266 818.5417,-1496.0455"/>
</g>
<!-- hidebound.core.tools&#45;&gt;hidebound.exporters.exporter_base -->
<g id="edge20" class="edge">
<title>hidebound.core.tools&#45;&gt;hidebound.exporters.exporter_base</title>
<path fill="none" stroke="#b6ecf3" d="M640.6259,-1375.6083C661.4081,-1328.7175 716.7696,-1198.6222 744,-1084.6297 774.3811,-957.4477 738.9778,-916.7887 780,-792.6297 809.7072,-702.717 872.5818,-608.7761 904.7051,-564.1755"/>
<polygon fill="#b6ecf3" stroke="#b6ecf3" points="907.651,-566.0755 910.7008,-555.9291 901.9893,-561.9591 907.651,-566.0755"/>
</g>
<!-- hidebound.exporters.local_disk_exporter -->
<g id="node14" class="node">
<title>hidebound.exporters.local_disk_exporter</title>
<polygon fill="#343434" stroke="#343434" points="1443,-631.6297 1105,-631.6297 1105,-595.6297 1443,-595.6297 1443,-631.6297"/>
<text text-anchor="middle" x="1274" y="-609.9297" font-family="Courier,monospace" font-size="14.00" fill="#b6ecf3">hidebound.exporters.local_disk_exporter</text>
</g>
<!-- hidebound.core.tools&#45;&gt;hidebound.exporters.local_disk_exporter -->
<g id="edge21" class="edge">
<title>hidebound.core.tools&#45;&gt;hidebound.exporters.local_disk_exporter</title>
<path fill="none" stroke="#b6ecf3" d="M650.1883,-1375.2305C674.6529,-1348.8228 718.6604,-1297.7059 744,-1246.6297 770.454,-1193.3071 734.7111,-1156.2564 780,-1117.6297 878.3622,-1033.7371 977.1766,-1175.6327 1069,-1084.6297 1115.4377,-1038.6068 1077.1716,-851.7917 1105,-792.6297 1136.0794,-726.5562 1200.9462,-668.9498 1240.6603,-637.9373"/>
<polygon fill="#b6ecf3" stroke="#b6ecf3" points="1242.9387,-640.6005 1248.7319,-631.7298 1238.6713,-635.0516 1242.9387,-640.6005"/>
</g>
<!-- hidebound.exporters.s3_exporter -->
<g id="node15" class="node">
<title>hidebound.exporters.s3_exporter</title>
<polygon fill="#343434" stroke="#343434" points="1410,-837.6297 1138,-837.6297 1138,-801.6297 1410,-801.6297 1410,-837.6297"/>
<text text-anchor="middle" x="1274" y="-815.9297" font-family="Courier,monospace" font-size="14.00" fill="#b6ecf3">hidebound.exporters.s3_exporter</text>
</g>
<!-- hidebound.core.tools&#45;&gt;hidebound.exporters.s3_exporter -->
<g id="edge22" class="edge">
<title>hidebound.core.tools&#45;&gt;hidebound.exporters.s3_exporter</title>
<path fill="none" stroke="#b6ecf3" d="M648.9254,-1375.2168C672.2685,-1348.3855 715.3772,-1296.3111 744,-1246.6297 764.685,-1210.7261 747.2921,-1186.0685 780,-1160.6297 882.5051,-1080.9057 958.8366,-1186.3846 1069,-1117.6297 1082.8573,-1108.9811 1209.6474,-917.4782 1256.6098,-846.1164"/>
<polygon fill="#b6ecf3" stroke="#b6ecf3" points="1259.6119,-847.9213 1262.1824,-837.643 1253.7633,-844.0749 1259.6119,-847.9213"/>
</g>
<!-- hidebound.core.tools&#45;&gt;hidebound.server.extension -->
<g id="edge23" class="edge">
<title>hidebound.core.tools&#45;&gt;hidebound.server.extension</title>
<path fill="none" stroke="#b6ecf3" d="M708.7148,-1411.6557C731.5306,-1416.5074 756.6832,-1421.3211 780,-1424.6297 997.9869,-1455.5616 1053.8295,-1461.6297 1274,-1461.6297 1274,-1461.6297 1274,-1461.6297 1833,-1461.6297 1890.5122,-1461.6297 1912.8443,-1474.073 1961,-1442.6297 2138.5895,-1326.6725 2079.5979,-1201.8791 2215,-1038.6297 2240.7121,-1007.6296 2275.0882,-976.8684 2299.6373,-956.3406"/>
<polygon fill="#b6ecf3" stroke="#b6ecf3" points="2302.0859,-958.8573 2307.5592,-949.7857 2297.6234,-953.4641 2302.0859,-958.8573"/>
</g>
<!-- hidebound.core.traits&#45;&gt;hidebound.core.specifications -->
<g id="edge24" class="edge">
<title>hidebound.core.traits&#45;&gt;hidebound.core.specifications</title>
<path fill="none" stroke="#b6ecf3" d="M937.0196,-1489.4948C963.9107,-1451.6662 1030.8009,-1363.4009 1105,-1309.6297 1136.7702,-1286.6062 1176.6264,-1268.2705 1209.6534,-1255.3815"/>
<polygon fill="#b6ecf3" stroke="#b6ecf3" points="1211.1289,-1258.5646 1219.22,-1251.7246 1208.6294,-1252.026 1211.1289,-1258.5646"/>
</g>
<!-- hidebound.core.validators&#45;&gt;hidebound.core.config -->
<g id="edge25" class="edge">
<title>hidebound.core.validators&#45;&gt;hidebound.core.config</title>
<path fill="none" stroke="#b6ecf3" d="M636.1445,-1039.5081C647.2872,-989.4779 686.0316,-849.3937 780,-792.6297 837.4158,-757.9462 1266.3018,-765.012 1468.7628,-770.3977"/>
<polygon fill="#b6ecf3" stroke="#b6ecf3" points="1468.7293,-773.898 1478.82,-770.6688 1468.918,-766.9005 1468.7293,-773.898"/>
</g>
<!-- hidebound.core.validators&#45;&gt;hidebound.core.specification_base -->
<g id="edge26" class="edge">
<title>hidebound.core.validators&#45;&gt;hidebound.core.specification_base</title>
<path fill="none" stroke="#b6ecf3" d="M744.1426,-1057.6297C752.4744,-1057.6297 760.9645,-1057.6297 769.4957,-1057.6297"/>
<polygon fill="#b6ecf3" stroke="#b6ecf3" points="769.5226,-1061.1298 779.5225,-1057.6297 769.5225,-1054.1298 769.5226,-1061.1298"/>
</g>
<!-- hidebound.core.validators&#45;&gt;hidebound.core.specifications -->
<g id="edge27" class="edge">
<title>hidebound.core.validators&#45;&gt;hidebound.core.specifications</title>
<path fill="none" stroke="#b6ecf3" d="M642.8066,-1075.769C663.5745,-1110.2814 714.1459,-1184.6255 780,-1214.6297 841.0586,-1242.449 1011.8085,-1243.374 1135.4831,-1239.8792"/>
<polygon fill="#b6ecf3" stroke="#b6ecf3" points="1135.9061,-1243.3684 1145.7984,-1239.5745 1135.6994,-1236.3714 1135.9061,-1243.3684"/>
</g>
<!-- hidebound.core.validators&#45;&gt;hidebound.exporters.exporter_base -->
<g id="edge28" class="edge">
<title>hidebound.core.validators&#45;&gt;hidebound.exporters.exporter_base</title>
<path fill="none" stroke="#b6ecf3" d="M636.91,-1039.2664C651.058,-982.7195 699.1627,-807.5685 780,-683.6297 811.7903,-634.8892 861.7604,-588.9673 893.8197,-562.0725"/>
<polygon fill="#b6ecf3" stroke="#b6ecf3" points="896.0971,-564.7309 901.5626,-555.6546 891.6299,-559.3416 896.0971,-564.7309"/>
</g>
<!-- hidebound.exporters.girder_exporter -->
<g id="node13" class="node">
<title>hidebound.exporters.girder_exporter</title>
<polygon fill="#343434" stroke="#343434" points="1426.5,-490.6297 1121.5,-490.6297 1121.5,-454.6297 1426.5,-454.6297 1426.5,-490.6297"/>
<text text-anchor="middle" x="1274" y="-468.9297" font-family="Courier,monospace" font-size="14.00" fill="#b6ecf3">hidebound.exporters.girder_exporter</text>
</g>
<!-- hidebound.core.validators&#45;&gt;hidebound.exporters.girder_exporter -->
<g id="edge29" class="edge">
<title>hidebound.core.validators&#45;&gt;hidebound.exporters.girder_exporter</title>
<path fill="none" stroke="#b6ecf3" d="M635.6079,-1039.359C646.0074,-983.3546 684.4701,-811.8223 780,-711.6297 796.8631,-693.9435 1104.0684,-551.0618 1225.3428,-495.0445"/>
<polygon fill="#b6ecf3" stroke="#b6ecf3" points="1227.1651,-498.0583 1234.777,-490.6888 1224.2308,-491.7029 1227.1651,-498.0583"/>
</g>
<!-- hidebound.core.validators&#45;&gt;hidebound.exporters.local_disk_exporter -->
<g id="edge30" class="edge">
<title>hidebound.core.validators&#45;&gt;hidebound.exporters.local_disk_exporter</title>
<path fill="none" stroke="#b6ecf3" d="M635.5708,-1039.5926C645.5714,-986.836 682.3803,-831.9915 780,-759.6297 884.6003,-682.0934 944.8155,-750.7614 1069,-711.6297 1129.0371,-692.7115 1193.8779,-659.3016 1234.2078,-636.8163"/>
<polygon fill="#b6ecf3" stroke="#b6ecf3" points="1236.1731,-639.7265 1243.1722,-631.7727 1232.7407,-633.6258 1236.1731,-639.7265"/>
</g>
<!-- hidebound.core.validators&#45;&gt;hidebound.exporters.s3_exporter -->
<g id="edge31" class="edge">
<title>hidebound.core.validators&#45;&gt;hidebound.exporters.s3_exporter</title>
<path fill="none" stroke="#b6ecf3" d="M660.5832,-1039.4783C689.5293,-1021.4341 736.4494,-994.0078 780,-976.6297 903.3535,-927.4075 959.1732,-975.309 1069,-900.6297 1091.3468,-885.4345 1082.1351,-866.0334 1105,-851.6297 1112.343,-847.004 1120.1969,-843.0161 1128.3509,-839.5809"/>
<polygon fill="#b6ecf3" stroke="#b6ecf3" points="1129.6366,-842.8363 1137.6735,-835.9328 1127.0856,-836.3177 1129.6366,-842.8363"/>
</g>
<!-- hidebound.exporters.exporter_base&#45;&gt;hidebound.exporters.girder_exporter -->
<g id="edge32" class="edge">
<title>hidebound.exporters.exporter_base&#45;&gt;hidebound.exporters.girder_exporter</title>
<path fill="none" stroke="#b6ecf3" d="M1021.3911,-519.6099C1066.5608,-511.2092 1120.4544,-501.1861 1166.8379,-492.5597"/>
<polygon fill="#b6ecf3" stroke="#b6ecf3" points="1167.729,-495.9541 1176.9204,-490.6846 1166.449,-489.0721 1167.729,-495.9541"/>
</g>
<!-- hidebound.exporters.exporter_base&#45;&gt;hidebound.exporters.local_disk_exporter -->
<g id="edge33" class="edge">
<title>hidebound.exporters.exporter_base&#45;&gt;hidebound.exporters.local_disk_exporter</title>
<path fill="none" stroke="#b6ecf3" d="M1007.3266,-555.6406C1059.5853,-567.0045 1127.1764,-581.7024 1181.2336,-593.4573"/>
<polygon fill="#b6ecf3" stroke="#b6ecf3" points="1180.6476,-596.9116 1191.163,-595.6165 1182.1351,-590.0715 1180.6476,-596.9116"/>
</g>
<!-- hidebound.exporters.exporter_base&#45;&gt;hidebound.exporters.s3_exporter -->
<g id="edge34" class="edge">
<title>hidebound.exporters.exporter_base&#45;&gt;hidebound.exporters.s3_exporter</title>
<path fill="none" stroke="#b6ecf3" d="M972.0536,-555.662C1001.4249,-567.9792 1039.0828,-585.9698 1069,-607.6297 1089.5046,-622.4749 1200.6791,-740.9122 1250.1911,-794.0208"/>
<polygon fill="#b6ecf3" stroke="#b6ecf3" points="1247.6532,-796.4313 1257.0306,-801.3624 1252.775,-791.6597 1247.6532,-796.4313"/>
</g>
<!-- hidebound.exporters.girder_exporter&#45;&gt;hidebound.core.config -->
<g id="edge35" class="edge">
<title>hidebound.exporters.girder_exporter&#45;&gt;hidebound.core.config</title>
<path fill="none" stroke="#b6ecf3" d="M1315.7959,-490.7422C1354.2002,-509.4376 1410.0149,-542.1349 1443,-586.6297 1475.4003,-630.3357 1447.5153,-659.2595 1479,-703.6297 1492.347,-722.4391 1512.3269,-738.2424 1530.5248,-750.0461"/>
<polygon fill="#b6ecf3" stroke="#b6ecf3" points="1528.9429,-753.1847 1539.2783,-755.5149 1532.6519,-747.248 1528.9429,-753.1847"/>
</g>
<!-- hidebound.exporters.girder_exporter&#45;&gt;hidebound.core.database -->
<g id="edge36" class="edge">
<title>hidebound.exporters.girder_exporter&#45;&gt;hidebound.core.database</title>
<path fill="none" stroke="#b6ecf3" d="M1312.3899,-490.6471C1349.8997,-509.8942 1406.5278,-543.5445 1443,-586.6297 1467.9297,-616.0796 1448.7637,-641.6598 1479,-665.6297 1546.4838,-719.1276 1596.4104,-657.2955 1669,-703.6297 1674.096,-706.8825 1771.9986,-842.7088 1814.0598,-901.2411"/>
<polygon fill="#b6ecf3" stroke="#b6ecf3" points="1811.399,-903.5361 1820.0758,-909.6158 1817.0842,-899.4521 1811.399,-903.5361"/>
</g>
<!-- hidebound.exporters.local_disk_exporter&#45;&gt;hidebound.core.config -->
<g id="edge37" class="edge">
<title>hidebound.exporters.local_disk_exporter&#45;&gt;hidebound.core.config</title>
<path fill="none" stroke="#b6ecf3" d="M1422.1538,-631.7536C1429.5831,-635.657 1436.6027,-640.2459 1443,-645.6297 1477.8647,-674.9708 1446.2376,-709.9584 1479,-741.6297 1482.3276,-744.8465 1485.9891,-747.7403 1489.8791,-750.3435"/>
<polygon fill="#b6ecf3" stroke="#b6ecf3" points="1488.3335,-753.4962 1498.7193,-755.5906 1491.9065,-747.4767 1488.3335,-753.4962"/>
</g>
<!-- hidebound.exporters.local_disk_exporter&#45;&gt;hidebound.core.database -->
<g id="edge38" class="edge">
<title>hidebound.exporters.local_disk_exporter&#45;&gt;hidebound.core.database</title>
<path fill="none" stroke="#b6ecf3" d="M1417.2198,-631.6607C1426.3018,-635.5286 1434.9968,-640.1401 1443,-645.6297 1468.0195,-662.7912 1454.2885,-686.0276 1479,-703.6297 1549.5192,-753.8606 1594.237,-702.9652 1669,-746.6297 1735.7222,-785.598 1790.55,-860.7949 1816.6114,-900.9028"/>
<polygon fill="#b6ecf3" stroke="#b6ecf3" points="1813.6888,-902.8291 1822.0236,-909.3699 1819.5868,-899.0591 1813.6888,-902.8291"/>
</g>
<!-- hidebound.exporters.s3_exporter&#45;&gt;hidebound.core.config -->
<g id="edge39" class="edge">
<title>hidebound.exporters.s3_exporter&#45;&gt;hidebound.core.config</title>
<path fill="none" stroke="#b6ecf3" d="M1391.7069,-801.5813C1417.0994,-797.6878 1443.7881,-793.5955 1468.6719,-789.78"/>
<polygon fill="#b6ecf3" stroke="#b6ecf3" points="1469.4923,-793.1952 1478.8463,-788.2199 1468.4313,-786.2761 1469.4923,-793.1952"/>
</g>
<!-- hidebound.exporters.s3_exporter&#45;&gt;hidebound.core.database -->
<g id="edge40" class="edge">
<title>hidebound.exporters.s3_exporter&#45;&gt;hidebound.core.database</title>
<path fill="none" stroke="#b6ecf3" d="M1297.5577,-837.7167C1334.0411,-864.4634 1407.4837,-913.3675 1479,-931.6297 1557.6124,-951.704 1649.2798,-950.0118 1719.6353,-943.6635"/>
<polygon fill="#b6ecf3" stroke="#b6ecf3" points="1720.2316,-947.1227 1729.8569,-942.6951 1719.5713,-940.1539 1720.2316,-947.1227"/>
</g>
<!-- hidebound.server.api&#45;&gt;hidebound.server.extension -->
<g id="edge41" class="edge">
<title>hidebound.server.api&#45;&gt;hidebound.server.extension</title>
<path fill="none" stroke="#b6ecf3" d="M2179.3333,-957.8111C2191.4105,-955.7194 2203.91,-953.5546 2216.3107,-951.4068"/>
<polygon fill="#b6ecf3" stroke="#b6ecf3" points="2216.9687,-954.845 2226.2247,-949.6897 2215.7741,-947.9477 2216.9687,-954.845"/>
</g>
<!-- hidebound.server.components -->
<g id="node18" class="node">
<title>hidebound.server.components</title>
<polygon fill="#343434" stroke="#343434" points="1952.5,-1555.6297 1713.5,-1555.6297 1713.5,-1519.6297 1952.5,-1519.6297 1952.5,-1555.6297"/>
<text text-anchor="middle" x="1833" y="-1533.9297" font-family="Courier,monospace" font-size="14.00" fill="#b6ecf3">hidebound.server.components</text>
</g>
<!-- hidebound.server.components&#45;&gt;hidebound.server.app -->
<g id="edge42" class="edge">
<title>hidebound.server.components&#45;&gt;hidebound.server.app</title>
<path fill="none" stroke="#b6ecf3" d="M1952.8602,-1531.2952C2021.6469,-1524.017 2108.1469,-1508.517 2179,-1475.6297 2462.7346,-1343.9309 2556.7653,-1292.8568 2721,-1026.6297 2776.8887,-936.0333 2829.2283,-603.5028 2843.9228,-503.9642"/>
<polygon fill="#b6ecf3" stroke="#b6ecf3" points="2847.4287,-504.1788 2845.4149,-493.7771 2840.5026,-503.1643 2847.4287,-504.1788"/>
</g>
<!-- hidebound.server.extensions -->
<g id="node20" class="node">
<title>hidebound.server.extensions</title>
<polygon fill="#343434" stroke="#343434" points="2721,-1017.6297 2482,-1017.6297 2482,-981.6297 2721,-981.6297 2721,-1017.6297"/>
<text text-anchor="middle" x="2601.5" y="-995.9297" font-family="Courier,monospace" font-size="14.00" fill="#b6ecf3">hidebound.server.extensions</text>
</g>
<!-- hidebound.server.extension&#45;&gt;hidebound.server.extensions -->
<g id="edge43" class="edge">
<title>hidebound.server.extension&#45;&gt;hidebound.server.extensions</title>
<path fill="none" stroke="#b6ecf3" d="M2402.4115,-949.6739C2438.5414,-958.7397 2482.4719,-969.7629 2519.8653,-979.1457"/>
<polygon fill="#b6ecf3" stroke="#b6ecf3" points="2519.1719,-982.5801 2529.723,-981.6192 2520.8756,-975.7906 2519.1719,-982.5801"/>
</g>
<!-- hidebound.server.extensions&#45;&gt;hidebound.server.api -->
<g id="edge44" class="edge">
<title>hidebound.server.extensions&#45;&gt;hidebound.server.api</title>
<path fill="none" stroke="#b6ecf3" d="M2481.6875,-993.5632C2392.9227,-989.0688 2273.2883,-983.0114 2189.2761,-978.7576"/>
<polygon fill="#b6ecf3" stroke="#b6ecf3" points="2189.376,-975.2583 2179.2118,-978.248 2189.022,-982.2493 2189.376,-975.2583"/>
</g>
<!-- hidebound.server.extensions&#45;&gt;hidebound.server.app -->
<g id="edge45" class="edge">
<title>hidebound.server.extensions&#45;&gt;hidebound.server.app</title>
<path fill="none" stroke="#b6ecf3" d="M2612.6886,-981.6149C2634.8481,-945.5591 2685.2615,-861.6278 2721,-787.6297 2770.4437,-685.2546 2818.0295,-558.4463 2838.0673,-503.3477"/>
<polygon fill="#b6ecf3" stroke="#b6ecf3" points="2841.3686,-504.5104 2841.4824,-493.9162 2834.7868,-502.1271 2841.3686,-504.5104"/>
</g>
<!-- hidebound.server.server_tools -->
<g id="node22" class="node">
<title>hidebound.server.server_tools</title>
<polygon fill="#343434" stroke="#343434" points="1961,-447.6297 1705,-447.6297 1705,-411.6297 1961,-411.6297 1961,-447.6297"/>
<text text-anchor="middle" x="1833" y="-425.9297" font-family="Courier,monospace" font-size="14.00" fill="#b6ecf3">hidebound.server.server_tools</text>
</g>
<!-- hidebound.server.server_tools&#45;&gt;hidebound.server.api -->
<g id="edge46" class="edge">
<title>hidebound.server.server_tools&#45;&gt;hidebound.server.api</title>
<path fill="none" stroke="#b6ecf3" d="M1853.6593,-447.919C1881.6943,-473.7753 1931.647,-523.6841 1961,-575.6297 2033.3121,-703.5996 2070.7237,-878.3791 2083.1747,-945.6594"/>
<polygon fill="#b6ecf3" stroke="#b6ecf3" points="2079.7329,-946.2954 2084.9603,-955.5109 2086.6207,-945.047 2079.7329,-946.2954"/>
</g>
<!-- hidebound.server.server_tools&#45;&gt;hidebound.server.app -->
<g id="edge47" class="edge">
<title>hidebound.server.server_tools&#45;&gt;hidebound.server.app</title>
<path fill="none" stroke="#b6ecf3" d="M1961.0975,-431.2821C2133.8461,-434.1878 2450.9811,-441.9086 2721,-461.6297 2729.3481,-462.2394 2737.9944,-462.9735 2746.6698,-463.7822"/>
<polygon fill="#b6ecf3" stroke="#b6ecf3" points="2746.5615,-467.2879 2756.851,-464.7627 2747.2326,-460.3201 2746.5615,-467.2879"/>
</g>
<!-- dash -->
<g id="node23" class="node">
<title>dash</title>
<polygon fill="#343434" stroke="#343434" points="1601,-1763.6297 1547,-1763.6297 1547,-1727.6297 1601,-1727.6297 1601,-1763.6297"/>
<text text-anchor="middle" x="1574" y="-1741.9297" font-family="Courier,monospace" font-size="14.00" fill="#de958e">dash</text>
</g>
<!-- dash&#45;&gt;hidebound.server.app -->
<g id="edge48" class="edge">
<title>dash&#45;&gt;hidebound.server.app</title>
<path fill="none" stroke="#de958e" d="M1601.0279,-1745.1816C1677.4613,-1743.9543 1901.7108,-1740.6297 2088,-1740.6297 2088,-1740.6297 2088,-1740.6297 2330.5,-1740.6297 2551.5432,-1740.6297 2623.8486,-1631.1787 2721,-1432.6297 2804.3759,-1262.2338 2839.6029,-644.898 2846.6406,-504.2753"/>
<polygon fill="#de958e" stroke="#de958e" points="2850.1545,-504.0779 2847.1507,-493.9178 2843.163,-503.7335 2850.1545,-504.0779"/>
</g>
<!-- dash&#45;&gt;hidebound.server.components -->
<g id="edge49" class="edge">
<title>dash&#45;&gt;hidebound.server.components</title>
<path fill="none" stroke="#de958e" d="M1601.0138,-1742.0534C1620.9695,-1738.4747 1648.1712,-1731.566 1669,-1718.6297 1734.4715,-1677.967 1789.6434,-1603.8074 1816.1387,-1564.2116"/>
<polygon fill="#de958e" stroke="#de958e" points="1819.0689,-1566.1258 1821.6502,-1555.8503 1813.2244,-1562.2733 1819.0689,-1566.1258"/>
</g>
<!-- dash_cytoscape -->
<g id="node24" class="node">
<title>dash_cytoscape</title>
<polygon fill="#343434" stroke="#343434" points="1640,-1655.6297 1508,-1655.6297 1508,-1619.6297 1640,-1619.6297 1640,-1655.6297"/>
<text text-anchor="middle" x="1574" y="-1633.9297" font-family="Courier,monospace" font-size="14.00" fill="#de958e">dash_cytoscape</text>
</g>
<!-- dash_cytoscape&#45;&gt;hidebound.server.components -->
<g id="edge50" class="edge">
<title>dash_cytoscape&#45;&gt;hidebound.server.components</title>
<path fill="none" stroke="#de958e" d="M1640.497,-1624.0486C1650.4646,-1620.5284 1660.3033,-1616.1255 1669,-1610.6297 1689.4995,-1597.6752 1684.2963,-1582.2553 1705,-1569.6297 1711.252,-1565.8171 1717.9386,-1562.4577 1724.8538,-1559.4977"/>
<polygon fill="#de958e" stroke="#de958e" points="1726.404,-1562.648 1734.406,-1555.704 1723.8202,-1556.1424 1726.404,-1562.648"/>
</g>
<!-- hidebound.server -->
<g id="node25" class="node">
<title>hidebound.server</title>
<polygon fill="#343434" stroke="#343434" points="1648.5,-1709.6297 1499.5,-1709.6297 1499.5,-1673.6297 1648.5,-1673.6297 1648.5,-1709.6297"/>
<text text-anchor="middle" x="1574" y="-1687.9297" font-family="Courier,monospace" font-size="14.00" fill="#a0d17b">hidebound.server</text>
</g>
<!-- hidebound.server&#45;&gt;hidebound.server.api -->
<g id="edge51" class="edge">
<title>hidebound.server&#45;&gt;hidebound.server.api</title>
<path fill="none" stroke="#a0d17b" d="M1648.6335,-1676.2577C1655.8794,-1673.0821 1662.8213,-1669.2511 1669,-1664.6297 1692.9938,-1646.6833 1680.0518,-1624.2238 1705,-1607.6297 1801.0625,-1543.7343 1877.595,-1644.3431 1961,-1564.6297 2044.1598,-1485.1507 2078.0245,-1108.4089 2086.0386,-1001.7985"/>
<polygon fill="#a0d17b" stroke="#a0d17b" points="2089.5314,-1002.0228 2086.7737,-991.7932 2082.5503,-1001.5098 2089.5314,-1002.0228"/>
</g>
<!-- hidebound.server&#45;&gt;hidebound.server.app -->
<g id="edge52" class="edge">
<title>hidebound.server&#45;&gt;hidebound.server.app</title>
<path fill="none" stroke="#a0d17b" d="M1648.9058,-1693.0516C1748.9788,-1694.8259 1931.8262,-1697.6297 2088,-1697.6297 2088,-1697.6297 2088,-1697.6297 2330.5,-1697.6297 2618.1027,-1697.6297 2605.593,-1445.0619 2721,-1181.6297 2776.3102,-1055.3768 2830.924,-619.5996 2844.6914,-503.977"/>
<polygon fill="#a0d17b" stroke="#a0d17b" points="2848.1952,-504.1504 2845.8948,-493.8083 2841.2437,-503.3276 2848.1952,-504.1504"/>
</g>
<!-- hidebound.server&#45;&gt;hidebound.server.components -->
<g id="edge53" class="edge">
<title>hidebound.server&#45;&gt;hidebound.server.components</title>
<path fill="none" stroke="#a0d17b" d="M1648.6996,-1677.9237C1656.1051,-1674.4389 1663.0638,-1670.0799 1669,-1664.6297 1702.2599,-1634.0929 1671.2568,-1599.6316 1705,-1569.6297 1708.659,-1566.3764 1712.5994,-1563.4432 1716.7486,-1560.7995"/>
<polygon fill="#a0d17b" stroke="#a0d17b" points="1718.5957,-1563.7751 1725.5355,-1555.7694 1715.118,-1557.7 1718.5957,-1563.7751"/>
</g>
<!-- hidebound.server&#45;&gt;hidebound.server.extension -->
<g id="edge54" class="edge">
<title>hidebound.server&#45;&gt;hidebound.server.extension</title>
<path fill="none" stroke="#a0d17b" d="M1643.8312,-1673.5956C1652.3999,-1670.8531 1660.9629,-1667.8516 1669,-1664.6297 1685.7926,-1657.8979 1687.8945,-1651.5214 1705,-1645.6297 1916.6058,-1572.7458 2058.621,-1664.304 2179,-1475.6297 2231.4103,-1393.4852 2172.3637,-1126.2466 2215,-1038.6297 2231.9982,-1003.6986 2265.7197,-974.5749 2292.3578,-955.5761"/>
<polygon fill="#a0d17b" stroke="#a0d17b" points="2294.5066,-958.3452 2300.7274,-949.769 2290.5161,-952.594 2294.5066,-958.3452"/>
</g>
<!-- hidebound.server&#45;&gt;hidebound.server.extensions -->
<g id="edge55" class="edge">
<title>hidebound.server&#45;&gt;hidebound.server.extensions</title>
<path fill="none" stroke="#a0d17b" d="M1648.5439,-1687.1613C1727.274,-1681.1613 1854.5026,-1667.8026 1961,-1639.6297 2062.0104,-1612.9083 2095.8584,-1614.9117 2179,-1551.6297 2384.4849,-1395.228 2541.6393,-1114.6287 2587.6954,-1026.724"/>
<polygon fill="#a0d17b" stroke="#a0d17b" points="2590.8965,-1028.1543 2592.4033,-1017.6672 2584.6855,-1024.9257 2590.8965,-1028.1543"/>
</g>
<!-- hidebound.server&#45;&gt;hidebound.server.progress -->
<g id="edge56" class="edge">
<title>hidebound.server&#45;&gt;hidebound.server.progress</title>
<path fill="none" stroke="#a0d17b" d="M1648.7383,-1680.5982C1656.5274,-1676.6745 1663.5664,-1671.4812 1669,-1664.6297 1721.8057,-1598.0438 1680.1957,-981.9124 1705,-900.6297 1727.3222,-827.4808 1780.7463,-753.7565 1811.0472,-715.8227"/>
<polygon fill="#a0d17b" stroke="#a0d17b" points="1813.9324,-717.8212 1817.502,-707.8457 1808.4907,-713.4179 1813.9324,-717.8212"/>
</g>
<!-- hidebound.server&#45;&gt;hidebound.server.server_tools -->
<g id="edge57" class="edge">
<title>hidebound.server&#45;&gt;hidebound.server.server_tools</title>
<path fill="none" stroke="#a0d17b" d="M1648.8242,-1680.6659C1656.5989,-1676.7308 1663.6111,-1671.5164 1669,-1664.6297 1741.3496,-1572.1708 1667.2427,-719.794 1705,-608.6297 1726.0436,-546.6736 1776.2215,-487.4988 1807.1318,-455.1148"/>
<polygon fill="#a0d17b" stroke="#a0d17b" points="1809.722,-457.4713 1814.1695,-447.8552 1804.696,-452.599 1809.722,-457.4713"/>
</g>
<!-- flask -->
<g id="node26" class="node">
<title>flask</title>
<polygon fill="#343434" stroke="#343434" points="1603,-493.6297 1545,-493.6297 1545,-457.6297 1603,-457.6297 1603,-493.6297"/>
<text text-anchor="middle" x="1574" y="-471.9297" font-family="Courier,monospace" font-size="14.00" fill="#de958e">flask</text>
</g>
<!-- flask&#45;&gt;hidebound.server.api -->
<g id="edge58" class="edge">
<title>flask&#45;&gt;hidebound.server.api</title>
<path fill="none" stroke="#de958e" d="M1603.0772,-480.0653C1623.2821,-484.3457 1649.9037,-492.4974 1669,-507.6297 1692.7789,-526.4727 1679.8041,-548.7283 1705,-565.6297 1800.8118,-629.9003 1872.847,-534.2008 1961,-608.6297 2014.4915,-653.7933 2065.1658,-867.8702 2082.0704,-945.4613"/>
<polygon fill="#de958e" stroke="#de958e" points="2078.6997,-946.4342 2084.2284,-955.4722 2085.5425,-944.9591 2078.6997,-946.4342"/>
</g>
<!-- flask&#45;&gt;hidebound.server.app -->
<g id="edge59" class="edge">
<title>flask&#45;&gt;hidebound.server.app</title>
<path fill="none" stroke="#de958e" d="M1603.2663,-475.6297C1681.7582,-475.6297 1903.5043,-475.6297 2088,-475.6297 2088,-475.6297 2088,-475.6297 2330.5,-475.6297 2475.0517,-475.6297 2642.3156,-475.6297 2746.646,-475.6297"/>
<polygon fill="#de958e" stroke="#de958e" points="2746.856,-479.1298 2756.856,-475.6297 2746.8559,-472.1298 2746.856,-479.1298"/>
</g>
<!-- flask&#45;&gt;hidebound.server.components -->
<g id="edge60" class="edge">
<title>flask&#45;&gt;hidebound.server.components</title>
<path fill="none" stroke="#de958e" d="M1603.2672,-486.9663C1625.566,-497.3078 1654.7792,-514.9245 1669,-540.6297 1766.1096,-716.1623 1611.2812,-1265.2635 1705,-1442.6297 1721.916,-1474.6439 1754.9764,-1498.7491 1783.2598,-1514.6673"/>
<polygon fill="#de958e" stroke="#de958e" points="1781.7901,-1517.8519 1792.2484,-1519.5474 1785.1302,-1511.7001 1781.7901,-1517.8519"/>
</g>
<!-- flask&#45;&gt;hidebound.server.extension -->
<g id="edge61" class="edge">
<title>flask&#45;&gt;hidebound.server.extension</title>
<path fill="none" stroke="#de958e" d="M1603.0909,-480.2776C1681.9696,-493.2102 1898.2003,-530.9486 1961,-565.6297 2123.2564,-655.2356 2262.8872,-836.4804 2311.8442,-904.7772"/>
<polygon fill="#de958e" stroke="#de958e" points="2309.2377,-907.1516 2317.8838,-913.2748 2314.9433,-903.0962 2309.2377,-907.1516"/>
</g>
<!-- flask&#45;&gt;hidebound.server.progress -->
<g id="edge62" class="edge">
<title>flask&#45;&gt;hidebound.server.progress</title>
<path fill="none" stroke="#de958e" d="M1603.4115,-478.0587C1624.5908,-481.3766 1652.2732,-489.2019 1669,-507.6297 1716.5332,-559.9964 1654.4861,-613.132 1705,-662.6297 1707.4332,-665.014 1710.0208,-667.2116 1712.7362,-669.2361"/>
<polygon fill="#de958e" stroke="#de958e" points="1710.9563,-672.2542 1721.2396,-674.8044 1714.7911,-666.3981 1710.9563,-672.2542"/>
</g>
<!-- flask&#45;&gt;hidebound.server.server_tools -->
<g id="edge63" class="edge">
<title>flask&#45;&gt;hidebound.server.server_tools</title>
<path fill="none" stroke="#de958e" d="M1603.2071,-470.4423C1632.1112,-465.3088 1678.1905,-457.1248 1721.5239,-449.4285"/>
<polygon fill="#de958e" stroke="#de958e" points="1722.357,-452.8354 1731.5908,-447.6406 1721.1328,-445.9433 1722.357,-452.8354"/>
</g>
<!-- dash.dependencies -->
<g id="node27" class="node">
<title>dash.dependencies</title>
<polygon fill="#343434" stroke="#343434" points="2680,-409.6297 2523,-409.6297 2523,-373.6297 2680,-373.6297 2680,-409.6297"/>
<text text-anchor="middle" x="2601.5" y="-387.9297" font-family="Courier,monospace" font-size="14.00" fill="#de958e">dash.dependencies</text>
</g>
<!-- dash.dependencies&#45;&gt;hidebound.server.app -->
<g id="edge64" class="edge">
<title>dash.dependencies&#45;&gt;hidebound.server.app</title>
<path fill="none" stroke="#de958e" d="M2674.6146,-409.6298C2690.0419,-413.8673 2706.1429,-418.6214 2721,-423.6297 2746.8952,-432.3589 2775.0799,-443.7044 2798.3045,-453.5695"/>
<polygon fill="#de958e" stroke="#de958e" points="2797.0322,-456.8321 2807.6026,-457.5521 2799.7884,-450.3975 2797.0322,-456.8321"/>
</g>
<!-- dash.exceptions -->
<g id="node28" class="node">
<title>dash.exceptions</title>
<polygon fill="#343434" stroke="#343434" points="2671.5,-355.6297 2531.5,-355.6297 2531.5,-319.6297 2671.5,-319.6297 2671.5,-355.6297"/>
<text text-anchor="middle" x="2601.5" y="-333.9297" font-family="Courier,monospace" font-size="14.00" fill="#de958e">dash.exceptions</text>
</g>
<!-- dash.exceptions&#45;&gt;hidebound.server.app -->
<g id="edge65" class="edge">
<title>dash.exceptions&#45;&gt;hidebound.server.app</title>
<path fill="none" stroke="#de958e" d="M2671.7752,-347.4352C2688.4731,-351.392 2705.8313,-356.9199 2721,-364.6297 2763.1103,-386.0331 2802.5775,-424.5364 2826.0123,-450.091"/>
<polygon fill="#de958e" stroke="#de958e" points="2823.4608,-452.4879 2832.7557,-457.5728 2828.6605,-447.8013 2823.4608,-452.4879"/>
</g>
<!-- flasgger -->
<g id="node29" class="node">
<title>flasgger</title>
<polygon fill="#343434" stroke="#343434" points="1874.5,-1433.6297 1791.5,-1433.6297 1791.5,-1397.6297 1874.5,-1397.6297 1874.5,-1433.6297"/>
<text text-anchor="middle" x="1833" y="-1411.9297" font-family="Courier,monospace" font-size="14.00" fill="#de958e">flasgger</text>
</g>
<!-- flasgger&#45;&gt;hidebound.server.api -->
<g id="edge66" class="edge">
<title>flasgger&#45;&gt;hidebound.server.api</title>
<path fill="none" stroke="#de958e" d="M1874.5327,-1416.882C1903.2469,-1415.3356 1939.9379,-1408.1149 1961,-1383.6297 2016.0264,-1319.6602 1945.012,-1072.0921 1997,-1005.6297 1999.1668,-1002.8596 2001.5905,-1000.3287 2004.2142,-998.0163"/>
<polygon fill="#de958e" stroke="#de958e" points="2006.7232,-1000.5101 2012.6293,-991.7141 2002.5271,-994.9071 2006.7232,-1000.5101"/>
</g>
<!-- flasgger&#45;&gt;hidebound.server.extensions -->
<g id="edge67" class="edge">
<title>flasgger&#45;&gt;hidebound.server.extensions</title>
<path fill="none" stroke="#de958e" d="M1874.5405,-1412.4814C1901.1234,-1408.8062 1935.3144,-1400.8489 1961,-1383.6297 2119.1567,-1277.6039 2049.6063,-1132.9691 2215,-1038.6297 2257.6036,-1014.3289 2376.562,-1005.0522 2471.3581,-1001.5718"/>
<polygon fill="#de958e" stroke="#de958e" points="2471.7474,-1005.0605 2481.6193,-1001.214 2471.5034,-998.0647 2471.7474,-1005.0605"/>
</g>
<!-- flask_healthz -->
<g id="node30" class="node">
<title>flask_healthz</title>
<polygon fill="#343434" stroke="#343434" points="2392.5,-1083.6297 2268.5,-1083.6297 2268.5,-1047.6297 2392.5,-1047.6297 2392.5,-1083.6297"/>
<text text-anchor="middle" x="2330.5" y="-1061.9297" font-family="Courier,monospace" font-size="14.00" fill="#de958e">flask_healthz</text>
</g>
<!-- flask_healthz&#45;&gt;hidebound.server.extensions -->
<g id="edge68" class="edge">
<title>flask_healthz&#45;&gt;hidebound.server.extensions</title>
<path fill="none" stroke="#de958e" d="M2392.6729,-1050.488C2429.7743,-1041.4522 2477.3716,-1029.8602 2517.7524,-1020.0258"/>
<polygon fill="#de958e" stroke="#de958e" points="2518.696,-1023.3984 2527.5838,-1017.6314 2517.0395,-1016.5972 2518.696,-1023.3984"/>
</g>
<!-- jinja2 -->
<g id="node31" class="node">
<title>jinja2</title>
<polygon fill="#343434" stroke="#343434" points="1607,-169.6297 1541,-169.6297 1541,-133.6297 1607,-133.6297 1607,-169.6297"/>
<text text-anchor="middle" x="1574" y="-147.9297" font-family="Courier,monospace" font-size="14.00" fill="#de958e">jinja2</text>
</g>
<!-- jinja2&#45;&gt;hidebound.server.server_tools -->
<g id="edge69" class="edge">
<title>jinja2&#45;&gt;hidebound.server.server_tools</title>
<path fill="none" stroke="#de958e" d="M1607.3402,-155.2111C1626.8305,-158.661 1651.0479,-165.4171 1669,-178.6297 1749.7672,-238.0738 1801.8512,-350.2013 1822.6812,-402.0507"/>
<polygon fill="#de958e" stroke="#de958e" points="1819.5129,-403.5579 1826.4297,-411.5834 1826.0274,-400.9962 1819.5129,-403.5579"/>
</g>
<!-- boto3 -->
<g id="node32" class="node">
<title>boto3</title>
<polygon fill="#343434" stroke="#343434" points="953.5,-837.6297 895.5,-837.6297 895.5,-801.6297 953.5,-801.6297 953.5,-837.6297"/>
<text text-anchor="middle" x="924.5" y="-815.9297" font-family="Courier,monospace" font-size="14.00" fill="#de958e">boto3</text>
</g>
<!-- boto3&#45;&gt;hidebound.exporters.s3_exporter -->
<g id="edge70" class="edge">
<title>boto3&#45;&gt;hidebound.exporters.s3_exporter</title>
<path fill="none" stroke="#de958e" d="M953.697,-819.6297C992.1621,-819.6297 1062.5647,-819.6297 1127.589,-819.6297"/>
<polygon fill="#de958e" stroke="#de958e" points="1127.9732,-823.1298 1137.9731,-819.6297 1127.9731,-816.1298 1127.9732,-823.1298"/>
</g>
<!-- werkzeug.exceptions -->
<g id="node33" class="node">
<title>werkzeug.exceptions</title>
<polygon fill="#343434" stroke="#343434" points="1919.5,-653.6297 1746.5,-653.6297 1746.5,-617.6297 1919.5,-617.6297 1919.5,-653.6297"/>
<text text-anchor="middle" x="1833" y="-631.9297" font-family="Courier,monospace" font-size="14.00" fill="#de958e">werkzeug.exceptions</text>
</g>
<!-- werkzeug.exceptions&#45;&gt;hidebound.server.api -->
<g id="edge71" class="edge">
<title>werkzeug.exceptions&#45;&gt;hidebound.server.api</title>
<path fill="none" stroke="#de958e" d="M1919.521,-641.9161C1934.5543,-646.1903 1949.1434,-652.7339 1961,-662.6297 2050.125,-737.0152 2077.4336,-883.7442 2085.1731,-945.3471"/>
<polygon fill="#de958e" stroke="#de958e" points="2081.7216,-945.9654 2086.3647,-955.4886 2088.6738,-945.1484 2081.7216,-945.9654"/>
</g>
<!-- pandasql -->
<g id="node34" class="node">
<title>pandasql</title>
<polygon fill="#343434" stroke="#343434" points="1615.5,-922.6297 1532.5,-922.6297 1532.5,-886.6297 1615.5,-886.6297 1615.5,-922.6297"/>
<text text-anchor="middle" x="1574" y="-900.9297" font-family="Courier,monospace" font-size="14.00" fill="#de958e">pandasql</text>
</g>
<!-- pandasql&#45;&gt;hidebound.core.database -->
<g id="edge72" class="edge">
<title>pandasql&#45;&gt;hidebound.core.database</title>
<path fill="none" stroke="#de958e" d="M1615.6128,-908.325C1643.78,-910.8264 1682.4504,-914.2604 1719.3731,-917.5393"/>
<polygon fill="#de958e" stroke="#de958e" points="1719.4603,-921.0607 1729.7307,-918.4591 1720.0795,-914.0881 1719.4603,-921.0607"/>
</g>
<!-- yaml -->
<g id="node35" class="node">
<title>yaml</title>
<polygon fill="#343434" stroke="#343434" points="1601,-585.6297 1547,-585.6297 1547,-549.6297 1601,-549.6297 1601,-585.6297"/>
<text text-anchor="middle" x="1574" y="-563.9297" font-family="Courier,monospace" font-size="14.00" fill="#de958e">yaml</text>
</g>
<!-- yaml&#45;&gt;hidebound.core.database -->
<g id="edge73" class="edge">
<title>yaml&#45;&gt;hidebound.core.database</title>
<path fill="none" stroke="#de958e" d="M1601.1772,-569.7609C1622.5826,-572.896 1651.6185,-580.6212 1669,-599.6297 1715.2654,-650.2257 1676.4513,-687.2966 1705,-749.6297 1732.1773,-808.9687 1780.3728,-868.6736 1809.2379,-901.633"/>
<polygon fill="#de958e" stroke="#de958e" points="1806.8847,-904.2549 1816.1354,-909.4197 1812.1246,-899.6134 1806.8847,-904.2549"/>
</g>
<!-- yaml&#45;&gt;hidebound.server.extension -->
<g id="edge74" class="edge">
<title>yaml&#45;&gt;hidebound.server.extension</title>
<path fill="none" stroke="#de958e" d="M1601.2936,-570.1257C1622.4758,-573.4715 1651.1503,-581.3023 1669,-599.6297 1706.9595,-638.605 1667.1609,-677.5375 1705,-716.6297 1838.4636,-854.5132 2064.2271,-903.9977 2204.9121,-921.7383"/>
<polygon fill="#de958e" stroke="#de958e" points="2204.5404,-925.2188 2214.892,-922.9615 2205.3921,-918.2708 2204.5404,-925.2188"/>
</g>
<!-- dask.distributed -->
<g id="node36" class="node">
<title>dask.distributed</title>
<polygon fill="#343434" stroke="#343434" points="1648.5,-868.6297 1499.5,-868.6297 1499.5,-832.6297 1648.5,-832.6297 1648.5,-868.6297"/>
<text text-anchor="middle" x="1574" y="-846.9297" font-family="Courier,monospace" font-size="14.00" fill="#de958e">dask.distributed</text>
</g>
<!-- dask.distributed&#45;&gt;hidebound.core.database -->
<g id="edge75" class="edge">
<title>dask.distributed&#45;&gt;hidebound.core.database</title>
<path fill="none" stroke="#de958e" d="M1638.1804,-868.691C1648.4957,-871.6456 1659.0491,-874.699 1669,-877.6297 1700.5538,-886.9228 1735.4256,-897.5097 1764.8712,-906.5419"/>
<polygon fill="#de958e" stroke="#de958e" points="1764.0495,-909.9508 1774.6364,-909.5412 1766.1048,-903.2593 1764.0495,-909.9508"/>
</g>
<!-- requests -->
<g id="node37" class="node">
<title>requests</title>
<polygon fill="#343434" stroke="#343434" points="1615.5,-223.6297 1532.5,-223.6297 1532.5,-187.6297 1615.5,-187.6297 1615.5,-223.6297"/>
<text text-anchor="middle" x="1574" y="-201.9297" font-family="Courier,monospace" font-size="14.00" fill="#de958e">requests</text>
</g>
<!-- requests&#45;&gt;hidebound.core.database -->
<g id="edge76" class="edge">
<title>requests&#45;&gt;hidebound.core.database</title>
<path fill="none" stroke="#de958e" d="M1582.8174,-223.7254C1601.7688,-263.4263 1646.4846,-361.5801 1669,-448.6297 1699.0944,-564.9817 1664.9885,-603.3048 1705,-716.6297 1730.5283,-788.9336 1782.9194,-863.2637 1812.1386,-901.451"/>
<polygon fill="#de958e" stroke="#de958e" points="1809.4617,-903.7108 1818.3489,-909.4787 1814.9983,-899.4276 1809.4617,-903.7108"/>
</g>
<!-- requests&#45;&gt;hidebound.server.app -->
<g id="edge77" class="edge">
<title>requests&#45;&gt;hidebound.server.app</title>
<path fill="none" stroke="#de958e" d="M1615.5797,-217.4073C1702.5205,-240.9605 1910.2136,-291.6297 2088,-291.6297 2088,-291.6297 2088,-291.6297 2330.5,-291.6297 2417.3804,-291.6297 2644.0063,-270.3782 2721,-310.6297 2778.588,-340.7361 2817.9218,-409.9217 2836.2414,-448.4575"/>
<polygon fill="#de958e" stroke="#de958e" points="2833.0721,-449.9428 2840.4445,-457.5519 2839.4263,-447.0061 2833.0721,-449.9428"/>
</g>
<!-- botocore.exceptions -->
<g id="node38" class="node">
<title>botocore.exceptions</title>
<polygon fill="#343434" stroke="#343434" points="1011,-891.6297 838,-891.6297 838,-855.6297 1011,-855.6297 1011,-891.6297"/>
<text text-anchor="middle" x="924.5" y="-869.9297" font-family="Courier,monospace" font-size="14.00" fill="#de958e">botocore.exceptions</text>
</g>
<!-- botocore.exceptions&#45;&gt;hidebound.exporters.s3_exporter -->
<g id="edge78" class="edge">
<title>botocore.exceptions&#45;&gt;hidebound.exporters.s3_exporter</title>
<path fill="none" stroke="#de958e" d="M1011.3423,-860.212C1052.3156,-853.8814 1102.0073,-846.2037 1147.0949,-839.2374"/>
<polygon fill="#de958e" stroke="#de958e" points="1147.8918,-842.6558 1157.2401,-837.6699 1146.8229,-835.7379 1147.8918,-842.6558"/>
</g>
<!-- numpy -->
<g id="node39" class="node">
<title>numpy</title>
<polygon fill="#343434" stroke="#343434" points="953.5,-1205.6297 895.5,-1205.6297 895.5,-1169.6297 953.5,-1169.6297 953.5,-1205.6297"/>
<text text-anchor="middle" x="924.5" y="-1183.9297" font-family="Courier,monospace" font-size="14.00" fill="#de958e">numpy</text>
</g>
<!-- numpy&#45;&gt;hidebound.core.database -->
<g id="edge79" class="edge">
<title>numpy&#45;&gt;hidebound.core.database</title>
<path fill="none" stroke="#de958e" d="M953.6505,-1180.9441C982.8988,-1174.148 1029.1965,-1163.1505 1069,-1152.6297 1337.1969,-1081.7403 1403.6469,-1061.5161 1669,-980.6297 1702.1874,-970.5133 1738.9559,-958.6881 1769.2531,-948.7774"/>
<polygon fill="#de958e" stroke="#de958e" points="1770.4376,-952.0725 1778.8497,-945.6316 1768.257,-945.4208 1770.4376,-952.0725"/>
</g>
<!-- numpy&#45;&gt;hidebound.core.database_tools -->
<g id="edge80" class="edge">
<title>numpy&#45;&gt;hidebound.core.database_tools</title>
<path fill="none" stroke="#de958e" d="M953.697,-1200.0771C1012.9322,-1225.3304 1147.9079,-1282.8737 1222.3438,-1314.6075"/>
<polygon fill="#de958e" stroke="#de958e" points="1220.9802,-1317.8309 1231.5517,-1318.533 1223.7254,-1311.3916 1220.9802,-1317.8309"/>
</g>
<!-- numpy&#45;&gt;hidebound.server.api -->
<g id="edge81" class="edge">
<title>numpy&#45;&gt;hidebound.server.api</title>
<path fill="none" stroke="#de958e" d="M953.5436,-1183.7769C1032.4448,-1173.1865 1257.2932,-1142.1852 1443,-1108.6297 1642.4976,-1072.5823 1874.8526,-1021.7558 1998.9926,-993.8816"/>
<polygon fill="#de958e" stroke="#de958e" points="1999.8485,-997.2766 2008.8372,-991.6682 1998.313,-990.4471 1999.8485,-997.2766"/>
</g>
<!-- lunchbox.tools -->
<g id="node40" class="node">
<title>lunchbox.tools</title>
<polygon fill="#343434" stroke="#343434" points="990.5,-1021.6297 858.5,-1021.6297 858.5,-985.6297 990.5,-985.6297 990.5,-1021.6297"/>
<text text-anchor="middle" x="924.5" y="-999.9297" font-family="Courier,monospace" font-size="14.00" fill="#de958e">lunchbox.tools</text>
</g>
<!-- lunchbox.tools&#45;&gt;hidebound.core.database_tools -->
<g id="edge82" class="edge">
<title>lunchbox.tools&#45;&gt;hidebound.core.database_tools</title>
<path fill="none" stroke="#de958e" d="M990.5867,-1000.1242C1018.402,-1002.2542 1048.9105,-1009.9395 1069,-1030.6297 1141.0765,-1104.8615 1042.2413,-1178.3696 1105,-1260.6297 1124.6326,-1286.3629 1154.9371,-1303.608 1184.4927,-1315.0622"/>
<polygon fill="#de958e" stroke="#de958e" points="1183.4544,-1318.4096 1194.0478,-1318.581 1185.8734,-1311.8408 1183.4544,-1318.4096"/>
</g>
<!-- lunchbox.tools&#45;&gt;hidebound.server.server_tools -->
<g id="edge83" class="edge">
<title>lunchbox.tools&#45;&gt;hidebound.server.server_tools</title>
<path fill="none" stroke="#de958e" d="M990.5349,-991.7426C1017.358,-984.2049 1047.1149,-972.0568 1069,-952.6297 1096.0539,-928.6145 1075.2455,-900.2043 1105,-879.6297 1167.0735,-836.7072 1389.8261,-900.1834 1443,-846.6297 1505.5711,-783.6116 1415.0669,-510.2655 1479,-448.6297 1553.254,-377.0438 1681.9902,-391.0389 1762.0585,-409.2455"/>
<polygon fill="#de958e" stroke="#de958e" points="1761.521,-412.7146 1772.0569,-411.5984 1763.1245,-405.9007 1761.521,-412.7146"/>
</g>
<!-- girder_client -->
<g id="node41" class="node">
<title>girder_client</title>
<polygon fill="#343434" stroke="#343434" points="986.5,-425.6297 862.5,-425.6297 862.5,-389.6297 986.5,-389.6297 986.5,-425.6297"/>
<text text-anchor="middle" x="924.5" y="-403.9297" font-family="Courier,monospace" font-size="14.00" fill="#de958e">girder_client</text>
</g>
<!-- girder_client&#45;&gt;hidebound.exporters.girder_exporter -->
<g id="edge84" class="edge">
<title>girder_client&#45;&gt;hidebound.exporters.girder_exporter</title>
<path fill="none" stroke="#de958e" d="M986.5809,-419.1755C1036.4614,-428.4523 1107.6923,-441.6998 1166.7619,-452.6856"/>
<polygon fill="#de958e" stroke="#de958e" points="1166.4137,-456.1807 1176.8851,-454.5683 1167.6936,-449.2987 1166.4137,-456.1807"/>
</g>
<!-- hidebound.exporters -->
<g id="node42" class="node">
<title>hidebound.exporters</title>
<polygon fill="#343434" stroke="#343434" points="719,-497.6297 546,-497.6297 546,-461.6297 719,-461.6297 719,-497.6297"/>
<text text-anchor="middle" x="632.5" y="-475.9297" font-family="Courier,monospace" font-size="14.00" fill="#a0d17b">hidebound.exporters</text>
</g>
<!-- hidebound.exporters&#45;&gt;hidebound.exporters.exporter_base -->
<g id="edge85" class="edge">
<title>hidebound.exporters&#45;&gt;hidebound.exporters.exporter_base</title>
<path fill="none" stroke="#a0d17b" d="M719.319,-496.8746C752.1394,-503.3937 789.7627,-510.8668 823.7542,-517.6185"/>
<polygon fill="#a0d17b" stroke="#a0d17b" points="823.2158,-521.0799 833.7061,-519.5953 824.5796,-514.214 823.2158,-521.0799"/>
</g>
<!-- hidebound.exporters&#45;&gt;hidebound.exporters.girder_exporter -->
<g id="edge86" class="edge">
<title>hidebound.exporters&#45;&gt;hidebound.exporters.girder_exporter</title>
<path fill="none" stroke="#a0d17b" d="M638.6988,-461.5662C654.4217,-418.9785 700.3607,-312.7859 780,-271.6297 894.108,-212.6607 950.0921,-223.0613 1069,-271.6297 1156.1668,-307.2333 1226.3165,-399.7403 1257.0996,-445.7841"/>
<polygon fill="#a0d17b" stroke="#a0d17b" points="1254.3074,-447.9084 1262.7246,-454.3427 1260.1571,-444.0637 1254.3074,-447.9084"/>
</g>
<!-- hidebound.exporters&#45;&gt;hidebound.exporters.local_disk_exporter -->
<g id="edge87" class="edge">
<title>hidebound.exporters&#45;&gt;hidebound.exporters.local_disk_exporter</title>
<path fill="none" stroke="#a0d17b" d="M719.125,-464.569C808.771,-452.3392 951.8235,-442.2957 1069,-477.6297 1073.7889,-479.0738 1181.3981,-551.2672 1238.742,-589.8655"/>
<polygon fill="#a0d17b" stroke="#a0d17b" points="1236.9053,-592.8482 1247.1551,-595.5301 1240.8148,-587.0417 1236.9053,-592.8482"/>
</g>
<!-- hidebound.exporters&#45;&gt;hidebound.exporters.s3_exporter -->
<g id="edge88" class="edge">
<title>hidebound.exporters&#45;&gt;hidebound.exporters.s3_exporter</title>
<path fill="none" stroke="#a0d17b" d="M719.0717,-480.4962C838.629,-482.4855 1042.6148,-489.0399 1069,-510.6297 1115.3989,-548.5957 1075.5543,-588.4069 1105,-640.6297 1141.0056,-704.4868 1204.6322,-763.1317 1242.7018,-794.8811"/>
<polygon fill="#a0d17b" stroke="#a0d17b" points="1240.9335,-797.9589 1250.8779,-801.6139 1245.3832,-792.5552 1240.9335,-797.9589"/>
</g>
<!-- json_logging -->
<g id="node43" class="node">
<title>json_logging</title>
<polygon fill="#343434" stroke="#343434" points="448,-218.6297 332,-218.6297 332,-182.6297 448,-182.6297 448,-218.6297"/>
<text text-anchor="middle" x="390" y="-196.9297" font-family="Courier,monospace" font-size="14.00" fill="#de958e">json_logging</text>
</g>
<!-- json_logging&#45;&gt;hidebound.core.logging -->
<g id="edge89" class="edge">
<title>json_logging&#45;&gt;hidebound.core.logging</title>
<path fill="none" stroke="#de958e" d="M448.0848,-200.6297C470.5981,-200.6297 497.1424,-200.6297 522.9707,-200.6297"/>
<polygon fill="#de958e" stroke="#de958e" points="523.2073,-204.1298 533.2073,-200.6297 523.2073,-197.1298 523.2073,-204.1298"/>
</g>
<!-- schematics.types -->
<g id="node44" class="node">
<title>schematics.types</title>
<polygon fill="#343434" stroke="#343434" points="707,-605.6297 558,-605.6297 558,-569.6297 707,-569.6297 707,-605.6297"/>
<text text-anchor="middle" x="632.5" y="-583.9297" font-family="Courier,monospace" font-size="14.00" fill="#de958e">schematics.types</text>
</g>
<!-- schematics.types&#45;&gt;hidebound.core.config -->
<g id="edge90" class="edge">
<title>schematics.types&#45;&gt;hidebound.core.config</title>
<path fill="none" stroke="#de958e" d="M707.1202,-582.2362C720.9977,-577.9892 734.1928,-571.2283 744,-560.6297 812.1851,-486.9425 703.5627,-402.717 780,-337.6297 877.7939,-254.3571 941.8223,-319.6348 1069,-337.6297 1240.3076,-361.8688 1328.1471,-316.2363 1443,-445.6297 1508.7717,-519.7281 1436.6354,-576.0656 1479,-665.6297 1494.4057,-698.1993 1522.6223,-728.3621 1544.3158,-748.4854"/>
<polygon fill="#de958e" stroke="#de958e" points="1542.2177,-751.3075 1551.9772,-755.4309 1546.9192,-746.1214 1542.2177,-751.3075"/>
</g>
<!-- schematics.types&#45;&gt;hidebound.core.specification_base -->
<g id="edge91" class="edge">
<title>schematics.types&#45;&gt;hidebound.core.specification_base</title>
<path fill="none" stroke="#de958e" d="M637.3775,-605.7973C658.9057,-685.4128 745.8608,-1000.8648 780,-1030.6297 781.1722,-1031.6517 782.3705,-1032.6404 783.5929,-1033.5967"/>
<polygon fill="#de958e" stroke="#de958e" points="781.7862,-1036.6036 791.9917,-1039.4494 785.7883,-1030.8605 781.7862,-1036.6036"/>
</g>
<!-- schematics.types&#45;&gt;hidebound.core.specifications -->
<g id="edge92" class="edge">
<title>schematics.types&#45;&gt;hidebound.core.specifications</title>
<path fill="none" stroke="#de958e" d="M635.5372,-605.7306C645.5379,-659.5027 682.5495,-819.5783 780,-900.6297 882.1097,-985.5562 957.7132,-904.1441 1069,-976.6297 1161.7449,-1037.0382 1231.6163,-1153.4062 1260.0464,-1206.2846"/>
<polygon fill="#de958e" stroke="#de958e" points="1257.0959,-1208.1919 1264.8688,-1215.3915 1263.2821,-1204.9161 1257.0959,-1208.1919"/>
</g>
<!-- schematics.types&#45;&gt;hidebound.exporters.exporter_base -->
<g id="edge93" class="edge">
<title>schematics.types&#45;&gt;hidebound.exporters.exporter_base</title>
<path fill="none" stroke="#de958e" d="M707.3181,-574.8184C738.3076,-569.512 774.9619,-563.2355 809.2467,-557.3649"/>
<polygon fill="#de958e" stroke="#de958e" points="810.0569,-560.7771 819.3227,-555.6395 808.8754,-553.8776 810.0569,-560.7771"/>
</g>
<!-- schematics.types&#45;&gt;hidebound.exporters.girder_exporter -->
<g id="edge94" class="edge">
<title>schematics.types&#45;&gt;hidebound.exporters.girder_exporter</title>
<path fill="none" stroke="#de958e" d="M707.1054,-581.8633C720.8995,-577.6318 734.0656,-570.9715 744,-560.6297 800.5182,-501.7935 716.9074,-432.3532 780,-380.6297 879.3315,-299.1973 943.402,-353.7387 1069,-380.6297 1130.3997,-393.7756 1195.6322,-426.7613 1235.6042,-449.4408"/>
<polygon fill="#de958e" stroke="#de958e" points="1234.0577,-452.5888 1244.4715,-454.5388 1237.5466,-446.5203 1234.0577,-452.5888"/>
</g>
<!-- schematics.types&#45;&gt;hidebound.exporters.local_disk_exporter -->
<g id="edge95" class="edge">
<title>schematics.types&#45;&gt;hidebound.exporters.local_disk_exporter</title>
<path fill="none" stroke="#de958e" d="M707.029,-590.6504C801.2957,-594.471 966.7406,-601.1765 1094.6637,-606.3612"/>
<polygon fill="#de958e" stroke="#de958e" points="1094.8384,-609.8711 1104.9719,-606.779 1095.1219,-602.8768 1094.8384,-609.8711"/>
</g>
<!-- schematics.types&#45;&gt;hidebound.exporters.s3_exporter -->
<g id="edge96" class="edge">
<title>schematics.types&#45;&gt;hidebound.exporters.s3_exporter</title>
<path fill="none" stroke="#de958e" d="M682.3036,-605.6413C798.9312,-647.8199 1089.3447,-752.8487 1214.7674,-798.2081"/>
<polygon fill="#de958e" stroke="#de958e" points="1213.6338,-801.5199 1224.2281,-801.6296 1216.0145,-794.9372 1213.6338,-801.5199"/>
</g>
<!-- wrapt -->
<g id="node45" class="node">
<title>wrapt</title>
<polygon fill="#343434" stroke="#343434" points="419,-1075.6297 361,-1075.6297 361,-1039.6297 419,-1039.6297 419,-1075.6297"/>
<text text-anchor="middle" x="390" y="-1053.9297" font-family="Courier,monospace" font-size="14.00" fill="#de958e">wrapt</text>
</g>
<!-- wrapt&#45;&gt;hidebound.core.validators -->
<g id="edge97" class="edge">
<title>wrapt&#45;&gt;hidebound.core.validators</title>
<path fill="none" stroke="#de958e" d="M419.2512,-1057.6297C442.4686,-1057.6297 476.6038,-1057.6297 510.7879,-1057.6297"/>
<polygon fill="#de958e" stroke="#de958e" points="510.9021,-1061.1298 520.9021,-1057.6297 510.902,-1054.1298 510.9021,-1061.1298"/>
</g>
<!-- jsoncomment -->
<g id="node46" class="node">
<title>jsoncomment</title>
<polygon fill="#343434" stroke="#343434" points="443.5,-130.6297 336.5,-130.6297 336.5,-94.6297 443.5,-94.6297 443.5,-130.6297"/>
<text text-anchor="middle" x="390" y="-108.9297" font-family="Courier,monospace" font-size="14.00" fill="#de958e">jsoncomment</text>
</g>
<!-- jsoncomment&#45;&gt;hidebound.core.database -->
<g id="edge98" class="edge">
<title>jsoncomment&#45;&gt;hidebound.core.database</title>
<path fill="none" stroke="#de958e" d="M443.686,-110.3894C648.1602,-102.3985 1370.3964,-79.3169 1443,-148.6297 1514.9211,-217.2909 1411.9763,-521.1801 1479,-594.6297 1536.7724,-657.941 1607.5319,-567.8999 1669,-627.6297 1726.5729,-683.5744 1666.3029,-734.2949 1705,-804.6297 1727.5132,-845.5492 1768.2256,-881.1243 1797.702,-903.3436"/>
<polygon fill="#de958e" stroke="#de958e" points="1795.9506,-906.4011 1806.0743,-909.5255 1800.1086,-900.7698 1795.9506,-906.4011"/>
</g>
<!-- jsoncomment&#45;&gt;hidebound.core.tools -->
<g id="edge99" class="edge">
<title>jsoncomment&#45;&gt;hidebound.core.tools</title>
<path fill="none" stroke="#de958e" d="M436.0107,-130.7327C454.5507,-140.5187 474.0972,-154.5762 485,-173.6297 535.312,-261.5537 501.5801,-985.2073 521,-1084.6297 542.0998,-1192.6524 594.7531,-1313.4135 619.3948,-1366.3171"/>
<polygon fill="#de958e" stroke="#de958e" points="616.236,-1367.8246 623.6561,-1375.3873 622.5717,-1364.8481 616.236,-1367.8246"/>
</g>
<!-- jsoncomment&#45;&gt;hidebound.server.extension -->
<g id="edge100" class="edge">
<title>jsoncomment&#45;&gt;hidebound.server.extension</title>
<path fill="none" stroke="#de958e" d="M427.7528,-94.5069C453.4325,-83.0429 488.5196,-69.0351 521,-61.6297 633.5652,-35.9654 664.6319,-46.0774 780,-41.6297 1176.5348,-26.3422 1329.4569,80.7579 1669,-124.6297 1930.691,-282.925 2000.2362,-338.4704 2179,-586.6297 2255.0845,-692.25 2304.4235,-842.1197 2322.6257,-903.6339"/>
<polygon fill="#de958e" stroke="#de958e" points="2319.3129,-904.776 2325.4713,-913.3971 2326.0333,-902.8172 2319.3129,-904.776"/>
</g>
<!-- jsoncomment&#45;&gt;hidebound.server.server_tools -->
<g id="edge101" class="edge">
<title>jsoncomment&#45;&gt;hidebound.server.server_tools</title>
<path fill="none" stroke="#de958e" d="M443.5236,-104.0676C635.2035,-74.6221 1284.4026,14.2597 1443,-105.6297 1489.801,-141.0082 1442.5862,-186.6295 1479,-232.6297 1552.0961,-324.9693 1681.018,-380.7943 1761.4654,-408.367"/>
<polygon fill="#de958e" stroke="#de958e" points="1760.4346,-411.713 1771.0288,-411.5901 1762.6703,-405.0796 1760.4346,-411.713"/>
</g>
<!-- pyparsing -->
<g id="node47" class="node">
<title>pyparsing</title>
<polygon fill="#343434" stroke="#343434" points="238.5,-1029.6297 147.5,-1029.6297 147.5,-993.6297 238.5,-993.6297 238.5,-1029.6297"/>
<text text-anchor="middle" x="193" y="-1007.9297" font-family="Courier,monospace" font-size="14.00" fill="#de958e">pyparsing</text>
</g>
<!-- pyparsing&#45;&gt;hidebound.core.parser -->
<g id="edge102" class="edge">
<title>pyparsing&#45;&gt;hidebound.core.parser</title>
<path fill="none" stroke="#de958e" d="M218.0456,-1029.778C238.6295,-1044.6393 268.595,-1066.1506 295,-1084.6297 314.6987,-1098.4155 336.8646,-1113.6001 354.8279,-1125.8239"/>
<polygon fill="#de958e" stroke="#de958e" points="353.0413,-1128.8415 363.2794,-1131.5677 356.976,-1123.052 353.0413,-1128.8415"/>
</g>
<!-- pyparsing&#45;&gt;hidebound.core.specification_base -->
<g id="edge103" class="edge">
<title>pyparsing&#45;&gt;hidebound.core.specification_base</title>
<path fill="none" stroke="#de958e" d="M238.6972,-1011.0862C256.2954,-1010.9019 276.5827,-1010.72 295,-1010.6297 379.4434,-1010.2158 400.6182,-1007.3766 485,-1010.6297 600.3681,-1015.0774 629.2796,-1017.6369 744,-1030.6297 762.9016,-1032.7704 782.8646,-1035.392 802.3518,-1038.1511"/>
<polygon fill="#de958e" stroke="#de958e" points="802.0953,-1041.65 812.4908,-1039.6047 803.0887,-1034.7209 802.0953,-1041.65"/>
</g>
<!-- pyparsing&#45;&gt;hidebound.core.validators -->
<g id="edge104" class="edge">
<title>pyparsing&#45;&gt;hidebound.core.validators</title>
<path fill="none" stroke="#de958e" d="M238.674,-1012.9612C296.2775,-1015.0168 398.2814,-1019.9082 485,-1030.6297 500.7259,-1032.574 517.3121,-1035.12 533.4604,-1037.8718"/>
<polygon fill="#de958e" stroke="#de958e" points="532.9951,-1041.3433 543.4469,-1039.6082 534.1943,-1034.4468 532.9951,-1041.3433"/>
</g>
<!-- schematics -->
<g id="node48" class="node">
<title>schematics</title>
<polygon fill="#343434" stroke="#343434" points="682,-551.6297 583,-551.6297 583,-515.6297 682,-515.6297 682,-551.6297"/>
<text text-anchor="middle" x="632.5" y="-529.9297" font-family="Courier,monospace" font-size="14.00" fill="#de958e">schematics</text>
</g>
<!-- schematics&#45;&gt;hidebound.core.config -->
<g id="edge105" class="edge">
<title>schematics&#45;&gt;hidebound.core.config</title>
<path fill="none" stroke="#de958e" d="M682.1611,-533.3124C704.0189,-530.5334 728.2531,-523.3997 744,-506.6297 807.0221,-439.5129 709.468,-361.8047 780,-302.6297 843.4665,-249.3825 1433.9572,-329.7098 1443,-338.6297 1495.0461,-389.9682 1449.4878,-598.7456 1479,-665.6297 1493.5448,-698.5928 1521.8708,-728.7055 1543.8239,-748.7102"/>
<polygon fill="#de958e" stroke="#de958e" points="1541.7867,-751.5822 1551.5862,-755.6096 1546.4371,-746.3502 1541.7867,-751.5822"/>
</g>
<!-- schematics&#45;&gt;hidebound.core.specification_base -->
<g id="edge106" class="edge">
<title>schematics&#45;&gt;hidebound.core.specification_base</title>
<path fill="none" stroke="#de958e" d="M682.0653,-533.1664C704.3145,-535.7142 728.9018,-542.8793 744,-560.6297 811.8684,-640.4202 710.0468,-952.6605 780,-1030.6297 780.6338,-1031.3361 781.2797,-1032.0277 781.9371,-1032.7048"/>
<polygon fill="#de958e" stroke="#de958e" points="779.6259,-1035.3334 789.4029,-1039.4151 784.3053,-1030.1272 779.6259,-1035.3334"/>
</g>
<!-- schematics&#45;&gt;hidebound.exporters.exporter_base -->
<g id="edge107" class="edge">
<title>schematics&#45;&gt;hidebound.exporters.exporter_base</title>
<path fill="none" stroke="#de958e" d="M682.0338,-534.3082C706.6266,-534.6451 737.8291,-535.0726 769.5958,-535.5077"/>
<polygon fill="#de958e" stroke="#de958e" points="769.8748,-539.0118 779.9219,-535.6492 769.9708,-532.0124 769.8748,-539.0118"/>
</g>
<!-- schematics&#45;&gt;hidebound.exporters.girder_exporter -->
<g id="edge108" class="edge">
<title>schematics&#45;&gt;hidebound.exporters.girder_exporter</title>
<path fill="none" stroke="#de958e" d="M682.0846,-532.9294C703.7922,-530.0518 727.9252,-522.9461 744,-506.6297 794.8501,-455.0153 723.3914,-392.8541 780,-347.6297 923.336,-233.1191 1158.617,-386.1584 1242.8203,-448.4227"/>
<polygon fill="#de958e" stroke="#de958e" points="1240.8466,-451.3171 1250.9513,-454.5021 1245.0382,-445.7108 1240.8466,-451.3171"/>
</g>
<!-- pandas -->
<g id="node49" class="node">
<title>pandas</title>
<polygon fill="#343434" stroke="#343434" points="423,-1731.6297 357,-1731.6297 357,-1695.6297 423,-1695.6297 423,-1731.6297"/>
<text text-anchor="middle" x="390" y="-1709.9297" font-family="Courier,monospace" font-size="14.00" fill="#de958e">pandas</text>
</g>
<!-- pandas&#45;&gt;hidebound.core.database -->
<g id="edge109" class="edge">
<title>pandas&#45;&gt;hidebound.core.database</title>
<path fill="none" stroke="#de958e" d="M423.3369,-1718.2042C567.0341,-1735.9176 1139.8979,-1785.6623 1443,-1501.6297 1475.039,-1471.6064 1449.7305,-1442.3589 1479,-1409.6297 1542.6122,-1338.4984 1604.2391,-1379.7168 1669,-1309.6297 1768.4946,-1201.9523 1813.3518,-1024.6404 1827.6358,-955.9984"/>
<polygon fill="#de958e" stroke="#de958e" points="1831.1178,-956.4375 1829.6695,-945.9421 1824.2567,-955.0499 1831.1178,-956.4375"/>
</g>
<!-- pandas&#45;&gt;hidebound.core.database_tools -->
<g id="edge110" class="edge">
<title>pandas&#45;&gt;hidebound.core.database_tools</title>
<path fill="none" stroke="#de958e" d="M423.0008,-1715.751C527.3655,-1720.8173 855.9273,-1724.0233 1069,-1582.6297 1158.1788,-1523.4512 1229.1638,-1414.1577 1258.8854,-1363.592"/>
<polygon fill="#de958e" stroke="#de958e" points="1261.9609,-1365.2654 1263.95,-1354.859 1255.9055,-1361.7537 1261.9609,-1365.2654"/>
</g>
<!-- pandas&#45;&gt;hidebound.core.tools -->
<g id="edge111" class="edge">
<title>pandas&#45;&gt;hidebound.core.tools</title>
<path fill="none" stroke="#de958e" d="M415.1858,-1695.5031C437.1681,-1678.2731 468.1171,-1650.3349 485,-1618.6297 524.1653,-1545.0792 466.9484,-1498.0492 521,-1434.6297 527.2058,-1427.3483 534.8236,-1421.3595 543.1378,-1416.434"/>
<polygon fill="#de958e" stroke="#de958e" points="544.8601,-1419.4819 552.0241,-1411.6763 541.5561,-1413.3107 544.8601,-1419.4819"/>
</g>
<!-- pandas&#45;&gt;hidebound.core.validators -->
<g id="edge112" class="edge">
<title>pandas&#45;&gt;hidebound.core.validators</title>
<path fill="none" stroke="#de958e" d="M416.0103,-1695.3701C438.2242,-1678.248 469.0404,-1650.5489 485,-1618.6297 535.5964,-1517.4368 493.6568,-1476.4129 521,-1366.6297 547.6101,-1259.79 597.4968,-1138.36 620.4193,-1085.1069"/>
<polygon fill="#de958e" stroke="#de958e" points="623.7386,-1086.2496 624.5019,-1075.6823 617.3153,-1083.4671 623.7386,-1086.2496"/>
</g>
<!-- pandas&#45;&gt;hidebound.server.components -->
<g id="edge113" class="edge">
<title>pandas&#45;&gt;hidebound.server.components</title>
<path fill="none" stroke="#de958e" d="M423.2692,-1719.2207C441.8424,-1722.9466 465.166,-1728.6432 485,-1736.6297 502.1826,-1743.5486 503.1187,-1752.7955 521,-1757.6297 756.1149,-1821.1928 826.0932,-1775.395 1069,-1757.6297 1236.5625,-1745.3748 1318.6502,-1815.6097 1443,-1702.6297 1492.4649,-1657.6876 1427.5125,-1599.2396 1479,-1556.6297 1512.409,-1528.9811 1616.3049,-1526.0146 1702.9623,-1528.9347"/>
<polygon fill="#de958e" stroke="#de958e" points="1703.0478,-1532.4401 1713.1691,-1529.3081 1703.3038,-1525.4448 1703.0478,-1532.4401"/>
</g>
<!-- OpenEXR -->
<g id="node50" class="node">
<title>OpenEXR</title>
<polygon fill="#343434" stroke="#343434" points="427,-1365.6297 353,-1365.6297 353,-1329.6297 427,-1329.6297 427,-1365.6297"/>
<text text-anchor="middle" x="390" y="-1343.9297" font-family="Courier,monospace" font-size="14.00" fill="#de958e">OpenEXR</text>
</g>
<!-- OpenEXR&#45;&gt;hidebound.core.tools -->
<g id="edge114" class="edge">
<title>OpenEXR&#45;&gt;hidebound.core.tools</title>
<path fill="none" stroke="#de958e" d="M427.0945,-1354.6662C454.9855,-1359.9568 494.5995,-1367.4713 531.6085,-1374.4915"/>
<polygon fill="#de958e" stroke="#de958e" points="530.9803,-1377.9347 541.4574,-1376.3598 532.2849,-1371.0573 530.9803,-1377.9347"/>
</g>
<!-- hidebound -->
<g id="node51" class="node">
<title>hidebound</title>
<polygon fill="#343434" stroke="#343434" points="91,-1312.6297 0,-1312.6297 0,-1276.6297 91,-1276.6297 91,-1312.6297"/>
<text text-anchor="middle" x="45.5" y="-1290.9297" font-family="Courier,monospace" font-size="14.00" fill="#a0d17b">hidebound</text>
</g>
<!-- hidebound&#45;&gt;hidebound.server -->
<g id="edge115" class="edge">
<title>hidebound&#45;&gt;hidebound.server</title>
<path fill="none" stroke="#a0d17b" d="M46.9672,-1312.9446C56.1144,-1413.6672 114.2892,-1895.6297 390,-1895.6297 390,-1895.6297 390,-1895.6297 924.5,-1895.6297 1164.0268,-1895.6297 1231.1524,-1860.4049 1443,-1748.6297 1461.4206,-1738.9106 1460.5826,-1728.3547 1479,-1718.6297 1482.4826,-1716.7908 1486.105,-1715.0645 1489.8141,-1713.4454"/>
<polygon fill="#a0d17b" stroke="#a0d17b" points="1491.2355,-1716.6458 1499.1822,-1709.6386 1488.6002,-1710.1608 1491.2355,-1716.6458"/>
</g>
<!-- hidebound&#45;&gt;hidebound.exporters -->
<g id="edge116" class="edge">
<title>hidebound&#45;&gt;hidebound.exporters</title>
<path fill="none" stroke="#a0d17b" d="M83.2896,-1276.3325C86.2358,-1273.7484 88.8829,-1270.8548 91,-1267.6297 160.5784,-1161.6349 90.3411,-1106.0059 127,-984.6297 175.6178,-823.6581 181.6479,-769.8346 295,-645.6297 374.4911,-558.5278 412.1355,-551.9519 521,-506.6297 525.999,-504.5485 531.1939,-502.6048 536.4865,-500.793"/>
<polygon fill="#a0d17b" stroke="#a0d17b" points="537.6671,-504.0896 546.0976,-497.6727 535.5055,-497.4317 537.6671,-504.0896"/>
</g>
<!-- hidebound.core -->
<g id="node54" class="node">
<title>hidebound.core</title>
<polygon fill="#343434" stroke="#343434" points="259,-1312.6297 127,-1312.6297 127,-1276.6297 259,-1276.6297 259,-1312.6297"/>
<text text-anchor="middle" x="193" y="-1290.9297" font-family="Courier,monospace" font-size="14.00" fill="#a0d17b">hidebound.core</text>
</g>
<!-- hidebound&#45;&gt;hidebound.core -->
<g id="edge117" class="edge">
<title>hidebound&#45;&gt;hidebound.core</title>
<path fill="none" stroke="#a0d17b" d="M91.3614,-1294.6297C99.4456,-1294.6297 108.0541,-1294.6297 116.7093,-1294.6297"/>
<polygon fill="#a0d17b" stroke="#a0d17b" points="116.8627,-1298.1298 126.8626,-1294.6297 116.8626,-1291.1298 116.8627,-1298.1298"/>
</g>
<!-- dask.dataframe -->
<g id="node52" class="node">
<title>dask.dataframe</title>
<polygon fill="#343434" stroke="#343434" points="456,-1609.6297 324,-1609.6297 324,-1573.6297 456,-1573.6297 456,-1609.6297"/>
<text text-anchor="middle" x="390" y="-1587.9297" font-family="Courier,monospace" font-size="14.00" fill="#de958e">dask.dataframe</text>
</g>
<!-- dask.dataframe&#45;&gt;hidebound.core.database -->
<g id="edge118" class="edge">
<title>dask.dataframe&#45;&gt;hidebound.core.database</title>
<path fill="none" stroke="#de958e" d="M456.3217,-1606.1892C476.9385,-1610.0642 499.8154,-1613.7051 521,-1615.6297 763.9961,-1637.7052 834.0914,-1648.6022 1069,-1582.6297 1246.4156,-1532.8037 1310.8434,-1532.0569 1443,-1403.6297 1468.0891,-1379.2486 1453.1215,-1357.1712 1479,-1333.6297 1546.2769,-1272.4282 1602.1467,-1319.2936 1669,-1257.6297 1763.022,-1170.906 1810.2146,-1018.3608 1826.3761,-955.7028"/>
<polygon fill="#de958e" stroke="#de958e" points="1829.8316,-956.3123 1828.8725,-945.761 1823.0424,-954.6075 1829.8316,-956.3123"/>
</g>
<!-- dask.dataframe&#45;&gt;hidebound.core.database_tools -->
<g id="edge119" class="edge">
<title>dask.dataframe&#45;&gt;hidebound.core.database_tools</title>
<path fill="none" stroke="#de958e" d="M456.3273,-1600.2136C582.1913,-1613.5313 861.6211,-1628.7084 1069,-1534.6297 1153.6994,-1496.2053 1224.5383,-1407.4601 1256.2072,-1363.0062"/>
<polygon fill="#de958e" stroke="#de958e" points="1259.1328,-1364.9303 1262.0112,-1354.734 1253.4025,-1360.9098 1259.1328,-1364.9303"/>
</g>
<!-- dask.dataframe&#45;&gt;hidebound.core.tools -->
<g id="edge120" class="edge">
<title>dask.dataframe&#45;&gt;hidebound.core.tools</title>
<path fill="none" stroke="#de958e" d="M400.6384,-1573.4519C420.4118,-1541.1461 465.8672,-1473.4839 521,-1434.6297 531.7476,-1427.0555 544.0568,-1420.711 556.4833,-1415.4536"/>
<polygon fill="#de958e" stroke="#de958e" points="558.0065,-1418.6138 565.9849,-1411.6427 555.4007,-1412.1169 558.0065,-1418.6138"/>
</g>
<!-- schematics.exceptions -->
<g id="node53" class="node">
<title>schematics.exceptions</title>
<polygon fill="#343434" stroke="#343434" points="485,-1300.6297 295,-1300.6297 295,-1264.6297 485,-1264.6297 485,-1300.6297"/>
<text text-anchor="middle" x="390" y="-1278.9297" font-family="Courier,monospace" font-size="14.00" fill="#de958e">schematics.exceptions</text>
</g>
<!-- schematics.exceptions&#45;&gt;hidebound.core.config -->
<g id="edge121" class="edge">
<title>schematics.exceptions&#45;&gt;hidebound.core.config</title>
<path fill="none" stroke="#de958e" d="M485.1706,-1287.734C731.2533,-1299.9543 1374.2365,-1325.3018 1443,-1260.6297 1513.9798,-1193.8732 1425.2541,-904.9067 1479,-823.6297 1486.3729,-812.4801 1497.0708,-803.6534 1508.652,-796.7231"/>
<polygon fill="#de958e" stroke="#de958e" points="1510.5603,-799.6683 1517.64,-791.7861 1507.1902,-793.5329 1510.5603,-799.6683"/>
</g>
<!-- schematics.exceptions&#45;&gt;hidebound.core.database_tools -->
<g id="edge122" class="edge">
<title>schematics.exceptions&#45;&gt;hidebound.core.database_tools</title>
<path fill="none" stroke="#de958e" d="M436.2077,-1300.6489C460.947,-1309.3821 492.1813,-1318.9703 521,-1323.6297 733.2869,-1357.9518 983.609,-1353.5383 1135.4701,-1345.9949"/>
<polygon fill="#de958e" stroke="#de958e" points="1135.9712,-1349.4741 1145.7804,-1345.4704 1135.6155,-1342.4831 1135.9712,-1349.4741"/>
</g>
<!-- schematics.exceptions&#45;&gt;hidebound.core.specification_base -->
<g id="edge123" class="edge">
<title>schematics.exceptions&#45;&gt;hidebound.core.specification_base</title>
<path fill="none" stroke="#de958e" d="M483.1717,-1264.6178C586.4018,-1244.4857 739.1114,-1214.1056 744,-1209.6297 785.0683,-1172.0287 739.2067,-1127.5289 780,-1089.6297 783.3737,-1086.4954 786.9832,-1083.6431 790.7789,-1081.0487"/>
<polygon fill="#de958e" stroke="#de958e" points="792.6792,-1083.989 799.367,-1075.7716 789.0145,-1078.0249 792.6792,-1083.989"/>
</g>
<!-- schematics.exceptions&#45;&gt;hidebound.core.tools -->
<g id="edge124" class="edge">
<title>schematics.exceptions&#45;&gt;hidebound.core.tools</title>
<path fill="none" stroke="#de958e" d="M448.0049,-1300.8033C460.7865,-1306.1501 473.8312,-1312.7339 485,-1320.6297 504.8013,-1334.6282 500.5172,-1348.6488 521,-1361.6297 527.0229,-1365.4466 533.5125,-1368.8199 540.2247,-1371.7992"/>
<polygon fill="#de958e" stroke="#de958e" points="538.9136,-1375.0444 549.4927,-1375.6223 541.583,-1368.5733 538.9136,-1375.0444"/>
</g>
<!-- schematics.exceptions&#45;&gt;hidebound.core.validators -->
<g id="edge125" class="edge">
<title>schematics.exceptions&#45;&gt;hidebound.core.validators</title>
<path fill="none" stroke="#de958e" d="M409.4349,-1264.5973C452.5352,-1224.6074 556.2092,-1128.4149 605.5396,-1082.6445"/>
<polygon fill="#de958e" stroke="#de958e" points="608.0225,-1085.1153 612.9726,-1075.7479 603.2613,-1079.9838 608.0225,-1085.1153"/>
</g>
<!-- schematics.exceptions&#45;&gt;hidebound.server.api -->
<g id="edge126" class="edge">
<title>schematics.exceptions&#45;&gt;hidebound.server.api</title>
<path fill="none" stroke="#de958e" d="M459.2281,-1300.7677C468.9629,-1305.8538 478.0137,-1312.3469 485,-1320.6297 534.2339,-1379.0003 466.059,-1435.5957 521,-1488.6297 696.8505,-1658.3763 828.0476,-1575.608 1069,-1534.6297 1508.3965,-1459.9023 1947.542,-1097.0578 2060.2863,-998.4216"/>
<polygon fill="#de958e" stroke="#de958e" points="2062.6366,-1001.0156 2067.8353,-991.784 2058.0143,-995.7587 2062.6366,-1001.0156"/>
</g>
<!-- hidebound.core&#45;&gt;hidebound.core.config -->
<g id="edge127" class="edge">
<title>hidebound.core&#45;&gt;hidebound.core.config</title>
<path fill="none" stroke="#a0d17b" d="M196.137,-1276.3102C215.1028,-1172.1953 324.1324,-659.6297 632.5,-659.6297 632.5,-659.6297 632.5,-659.6297 924.5,-659.6297 1137.7424,-659.6297 1384.517,-719.9802 1503.1397,-752.8601"/>
<polygon fill="#a0d17b" stroke="#a0d17b" points="1502.2638,-756.2494 1512.8366,-755.5661 1504.1453,-749.507 1502.2638,-756.2494"/>
</g>
<!-- hidebound.core&#45;&gt;hidebound.core.database -->
<g id="edge128" class="edge">
<title>hidebound.core&#45;&gt;hidebound.core.database</title>
<path fill="none" stroke="#a0d17b" d="M193.9736,-1312.7337C198.6921,-1392.9909 222.0167,-1715.4479 295,-1777.6297 557.6872,-2001.4393 735.1411,-1802.9997 1069,-1715.6297 1236.8627,-1671.7005 1300.1907,-1702.185 1443,-1603.6297 1464.6561,-1588.6844 1461.4746,-1576.2564 1479,-1556.6297 1557.0897,-1469.177 1604.9182,-1471.8106 1669,-1373.6297 1761.8329,-1231.3988 1811.4183,-1029.4874 1827.277,-955.8715"/>
<polygon fill="#a0d17b" stroke="#a0d17b" points="1830.7275,-956.4713 1829.3732,-945.9634 1823.879,-955.0223 1830.7275,-956.4713"/>
</g>
<!-- hidebound.core&#45;&gt;hidebound.core.database_tools -->
<g id="edge129" class="edge">
<title>hidebound.core&#45;&gt;hidebound.core.database_tools</title>
<path fill="none" stroke="#a0d17b" d="M194.2331,-1312.7134C199.8642,-1389.3034 225.9011,-1685.5497 295,-1740.6297 430.4045,-1848.5632 926.5974,-1749.1462 1069,-1650.6297 1176.2649,-1576.422 1241.1941,-1426.0494 1264.3553,-1364.1758"/>
<polygon fill="#a0d17b" stroke="#a0d17b" points="1267.6757,-1365.2872 1267.8352,-1354.6935 1261.1042,-1362.8755 1267.6757,-1365.2872"/>
</g>
<!-- hidebound.core&#45;&gt;hidebound.core.logging -->
<g id="edge130" class="edge">
<title>hidebound.core&#45;&gt;hidebound.core.logging</title>
<path fill="none" stroke="#a0d17b" d="M198.7424,-1276.5348C211.6924,-1234.9757 243.2648,-1129.2994 259,-1038.6297 288.9911,-865.8148 231.5553,-809.151 295,-645.6297 366.2825,-461.9072 537.101,-289.4261 604.4847,-226.1333"/>
<polygon fill="#a0d17b" stroke="#a0d17b" points="607.2484,-228.3418 612.1758,-218.9625 602.4748,-223.2219 607.2484,-228.3418"/>
</g>
<!-- hidebound.core&#45;&gt;hidebound.core.parser -->
<g id="edge131" class="edge">
<title>hidebound.core&#45;&gt;hidebound.core.parser</title>
<path fill="none" stroke="#a0d17b" d="M204.9721,-1276.32C222.1015,-1251.4876 255.8902,-1207.293 295,-1181.6297 300.5725,-1177.9731 306.6037,-1174.6945 312.8318,-1171.7624"/>
<polygon fill="#a0d17b" stroke="#a0d17b" points="314.3154,-1174.9336 322.0669,-1167.7111 311.5032,-1168.5233 314.3154,-1174.9336"/>
</g>
<!-- hidebound.core&#45;&gt;hidebound.core.specification_base -->
<g id="edge132" class="edge">
<title>hidebound.core&#45;&gt;hidebound.core.specification_base</title>
<path fill="none" stroke="#a0d17b" d="M238.1855,-1276.5382C255.8096,-1269.6965 276.2485,-1262.024 295,-1255.6297 492.2287,-1188.3745 568.0071,-1232.2044 744,-1120.6297 764.2002,-1107.8233 758.9865,-1092.0526 780,-1080.6297 780.3034,-1080.4648 780.6076,-1080.301 780.9127,-1080.1382"/>
<polygon fill="#a0d17b" stroke="#a0d17b" points="782.5221,-1083.2475 789.978,-1075.7201 779.4554,-1076.955 782.5221,-1083.2475"/>
</g>
<!-- hidebound.core&#45;&gt;hidebound.core.specifications -->
<g id="edge133" class="edge">
<title>hidebound.core&#45;&gt;hidebound.core.specifications</title>
<path fill="none" stroke="#a0d17b" d="M195.8594,-1312.6934C206.1641,-1375.2484 243.5275,-1580.8711 295,-1618.6297 363.0888,-1668.5775 400.7709,-1624.6563 485,-1618.6297 493.1737,-1618.0449 1063.16,-1540.3782 1069,-1534.6297 1141.1735,-1463.5876 1043.4361,-1390.0404 1105,-1309.6297 1124.6763,-1283.9298 1154.9901,-1266.6918 1184.5409,-1255.234"/>
<polygon fill="#a0d17b" stroke="#a0d17b" points="1185.9211,-1258.4556 1194.094,-1251.7137 1183.5006,-1251.8874 1185.9211,-1258.4556"/>
</g>
<!-- hidebound.core&#45;&gt;hidebound.core.tools -->
<g id="edge134" class="edge">
<title>hidebound.core&#45;&gt;hidebound.core.tools</title>
<path fill="none" stroke="#a0d17b" d="M209.3319,-1312.8014C227.9259,-1332.0796 260.2555,-1361.5252 295,-1374.6297 370.4716,-1403.0952 462.1884,-1406.4717 530.9516,-1403.4941"/>
<polygon fill="#a0d17b" stroke="#a0d17b" points="531.5367,-1406.9699 541.3547,-1402.9878 531.1963,-1399.9781 531.5367,-1406.9699"/>
</g>
<!-- hidebound.core&#45;&gt;hidebound.core.traits -->
<g id="edge135" class="edge">
<title>hidebound.core&#45;&gt;hidebound.core.traits</title>
<path fill="none" stroke="#a0d17b" d="M205.8998,-1312.6962C223.5837,-1336.2999 257.4665,-1377.5648 295,-1402.6297 454.3983,-1509.0758 685.8259,-1519.6066 819.1462,-1515.2446"/>
<polygon fill="#a0d17b" stroke="#a0d17b" points="819.4964,-1518.7343 829.3632,-1514.8748 819.2432,-1511.7389 819.4964,-1518.7343"/>
</g>
<!-- hidebound.core&#45;&gt;hidebound.core.validators -->
<g id="edge136" class="edge">
<title>hidebound.core&#45;&gt;hidebound.core.validators</title>
<path fill="none" stroke="#a0d17b" d="M198.1817,-1276.6195C209.4278,-1240.9853 239.6237,-1161.5721 295,-1122.6297 299.8148,-1119.2438 426.9762,-1095.3264 523.7954,-1077.4807"/>
<polygon fill="#a0d17b" stroke="#a0d17b" points="524.4564,-1080.9179 533.6572,-1075.6647 523.1886,-1074.0337 524.4564,-1080.9179"/>
</g>
<!-- rolling_pin.blob_etl -->
<g id="node55" class="node">
<title>rolling_pin.blob_etl</title>
<polygon fill="#343434" stroke="#343434" points="1665,-1601.6297 1483,-1601.6297 1483,-1565.6297 1665,-1565.6297 1665,-1601.6297"/>
<text text-anchor="middle" x="1574" y="-1579.9297" font-family="Courier,monospace" font-size="14.00" fill="#de958e">rolling_pin.blob_etl</text>
</g>
<!-- rolling_pin.blob_etl&#45;&gt;hidebound.server.components -->
<g id="edge137" class="edge">
<title>rolling_pin.blob_etl&#45;&gt;hidebound.server.components</title>
<path fill="none" stroke="#de958e" d="M1665.3137,-1567.4118C1683.4612,-1564.1887 1702.7075,-1560.7704 1721.4429,-1557.4429"/>
<polygon fill="#de958e" stroke="#de958e" points="1722.2518,-1560.8541 1731.4856,-1555.6593 1721.0276,-1553.962 1722.2518,-1560.8541"/>
</g>
<!-- skimage.io -->
<g id="node56" class="node">
<title>skimage.io</title>
<polygon fill="#343434" stroke="#343434" points="682,-1479.6297 583,-1479.6297 583,-1443.6297 682,-1443.6297 682,-1479.6297"/>
<text text-anchor="middle" x="632.5" y="-1457.9297" font-family="Courier,monospace" font-size="14.00" fill="#de958e">skimage.io</text>
</g>
<!-- skimage.io&#45;&gt;hidebound.core.traits -->
<g id="edge138" class="edge">
<title>skimage.io&#45;&gt;hidebound.core.traits</title>
<path fill="none" stroke="#de958e" d="M682.0338,-1469.433C719.6309,-1475.3558 772.6761,-1483.7122 819.5685,-1491.0994"/>
<polygon fill="#de958e" stroke="#de958e" points="819.0508,-1494.5609 829.4737,-1492.6598 820.1402,-1487.6462 819.0508,-1494.5609"/>
</g>
<!-- flask_monitoringdashboard -->
<g id="node57" class="node">
<title>flask_monitoringdashboard</title>
<polygon fill="#343434" stroke="#343434" points="2713,-263.6297 2490,-263.6297 2490,-227.6297 2713,-227.6297 2713,-263.6297"/>
<text text-anchor="middle" x="2601.5" y="-241.9297" font-family="Courier,monospace" font-size="14.00" fill="#de958e">flask_monitoringdashboard</text>
</g>
<!-- flask_monitoringdashboard&#45;&gt;hidebound.server.app -->
<g id="edge139" class="edge">
<title>flask_monitoringdashboard&#45;&gt;hidebound.server.app</title>
<path fill="none" stroke="#de958e" d="M2695.9252,-263.6477C2704.8326,-267.4498 2713.37,-272.0541 2721,-277.6297 2781.5938,-321.9082 2820.6368,-404.6456 2837.8453,-447.8105"/>
<polygon fill="#de958e" stroke="#de958e" points="2834.6817,-449.3327 2841.5629,-457.3887 2841.2074,-446.7998 2834.6817,-449.3327"/>
</g>
</g>
</svg>
