<?xml version="1.0" encoding="UTF-8" standalone="no"?>
<!DOCTYPE svg PUBLIC "-//W3C//DTD SVG 1.1//EN"
 "http://www.w3.org/Graphics/SVG/1.1/DTD/svg11.dtd">
<!-- Generated by graphviz version 2.40.1 (20161225.0304)
 -->
<!-- Title: %3 Pages: 1 -->
<svg width="1480pt" height="1091pt"
 viewBox="0.00 0.00 1480.00 1091.34" xmlns="http://www.w3.org/2000/svg" xmlns:xlink="http://www.w3.org/1999/xlink">
<g id="graph0" class="graph" transform="scale(1 1) rotate(0) translate(4 1087.3408)">
<title>%3</title>
<polygon fill="#242424" stroke="transparent" points="-4,4 -4,-1087.3408 1476,-1087.3408 1476,4 -4,4"/>
<!-- cli -->
<g id="node1" class="node">
<title>cli</title>
<polygon fill="#343434" stroke="#343434" points="72.5,-119 18.5,-119 18.5,-83 72.5,-83 72.5,-119"/>
<text text-anchor="middle" x="45.5" y="-97.3" font-family="Courier,monospace" font-size="14.00" fill="#b6ecf3">cli</text>
</g>
<!-- hidebound.app -->
<g id="node2" class="node">
<title>hidebound.app</title>
<polygon fill="#343434" stroke="#343434" points="1472,-879 1348,-879 1348,-843 1472,-843 1472,-879"/>
<text text-anchor="middle" x="1410" y="-857.3" font-family="Courier,monospace" font-size="14.00" fill="#b6ecf3">hidebound.app</text>
</g>
<!-- hidebound.config -->
<g id="node3" class="node">
<title>hidebound.config</title>
<polygon fill="#343434" stroke="#343434" points="1057.5,-246 908.5,-246 908.5,-210 1057.5,-210 1057.5,-246"/>
<text text-anchor="middle" x="983" y="-224.3" font-family="Courier,monospace" font-size="14.00" fill="#b6ecf3">hidebound.config</text>
</g>
<!-- hidebound.database -->
<g id="node4" class="node">
<title>hidebound.database</title>
<polygon fill="#343434" stroke="#343434" points="1312,-852 1147,-852 1147,-816 1312,-816 1312,-852"/>
<text text-anchor="middle" x="1229.5" y="-830.3" font-family="Courier,monospace" font-size="14.00" fill="#b6ecf3">hidebound.database</text>
</g>
<!-- hidebound.config&#45;&gt;hidebound.database -->
<g id="edge1" class="edge">
<title>hidebound.config&#45;&gt;hidebound.database</title>
<path fill="none" stroke="#b6ecf3" d="M1008.7948,-246.0982C1038.0679,-268.0231 1085.0987,-307.6998 1111,-353 1199.4964,-507.7762 1222.3733,-727.2976 1227.8744,-805.2105"/>
<polygon fill="#b6ecf3" stroke="#b6ecf3" points="1224.4127,-805.9068 1228.5656,-815.6537 1231.3974,-805.4444 1224.4127,-805.9068"/>
</g>
<!-- hidebound.database&#45;&gt;hidebound.app -->
<g id="edge2" class="edge">
<title>hidebound.database&#45;&gt;hidebound.app</title>
<path fill="none" stroke="#b6ecf3" d="M1312.0905,-846.3543C1320.7641,-847.6517 1329.5327,-848.9633 1338.0729,-850.2408"/>
<polygon fill="#b6ecf3" stroke="#b6ecf3" points="1337.5661,-853.7039 1347.9739,-851.7219 1338.6018,-846.7809 1337.5661,-853.7039"/>
</g>
<!-- hidebound.database_test_base -->
<g id="node5" class="node">
<title>hidebound.database_test_base</title>
<polygon fill="#343434" stroke="#343434" points="1107,-673 859,-673 859,-637 1107,-637 1107,-673"/>
<text text-anchor="middle" x="983" y="-651.3" font-family="Courier,monospace" font-size="14.00" fill="#b6ecf3">hidebound.database_test_base</text>
</g>
<!-- hidebound.database_tools -->
<g id="node6" class="node">
<title>hidebound.database_tools</title>
<polygon fill="#343434" stroke="#343434" points="802.5,-940 587.5,-940 587.5,-904 802.5,-904 802.5,-940"/>
<text text-anchor="middle" x="695" y="-918.3" font-family="Courier,monospace" font-size="14.00" fill="#b6ecf3">hidebound.database_tools</text>
</g>
<!-- hidebound.database_tools&#45;&gt;hidebound.database -->
<g id="edge3" class="edge">
<title>hidebound.database_tools&#45;&gt;hidebound.database</title>
<path fill="none" stroke="#b6ecf3" d="M802.5039,-933.7967C889.2844,-938.9297 1012.6844,-936.0986 1111,-894 1130.9528,-885.4562 1128.263,-871.9561 1147,-861 1149.7971,-859.3645 1152.7062,-857.8132 1155.6889,-856.3436"/>
<polygon fill="#b6ecf3" stroke="#b6ecf3" points="1157.1745,-859.5129 1164.819,-852.1772 1154.2684,-853.1447 1157.1745,-859.5129"/>
</g>
<!-- hidebound.parser -->
<g id="node7" class="node">
<title>hidebound.parser</title>
<polygon fill="#343434" stroke="#343434" points="296.5,-482 147.5,-482 147.5,-446 296.5,-446 296.5,-482"/>
<text text-anchor="middle" x="222" y="-460.3" font-family="Courier,monospace" font-size="14.00" fill="#b6ecf3">hidebound.parser</text>
</g>
<!-- hidebound.parser&#45;&gt;hidebound.database_tools -->
<g id="edge4" class="edge">
<title>hidebound.parser&#45;&gt;hidebound.database_tools</title>
<path fill="none" stroke="#b6ecf3" d="M224.2552,-482.2342C231.9022,-536.5023 261.6799,-698.7931 353,-789 414.2678,-849.5209 506.1927,-883.211 579.3141,-901.5308"/>
<polygon fill="#b6ecf3" stroke="#b6ecf3" points="578.5002,-904.9348 589.045,-903.9064 580.1604,-898.1345 578.5002,-904.9348"/>
</g>
<!-- hidebound.specification_base -->
<g id="node8" class="node">
<title>hidebound.specification_base</title>
<polygon fill="#343434" stroke="#343434" points="819,-482 571,-482 571,-446 819,-446 819,-482"/>
<text text-anchor="middle" x="695" y="-460.3" font-family="Courier,monospace" font-size="14.00" fill="#b6ecf3">hidebound.specification_base</text>
</g>
<!-- hidebound.parser&#45;&gt;hidebound.specification_base -->
<g id="edge5" class="edge">
<title>hidebound.parser&#45;&gt;hidebound.specification_base</title>
<path fill="none" stroke="#b6ecf3" d="M296.6872,-464C367.4293,-464 475.2798,-464 560.9214,-464"/>
<polygon fill="#b6ecf3" stroke="#b6ecf3" points="560.9859,-467.5001 570.9859,-464 560.9858,-460.5001 560.9859,-467.5001"/>
</g>
<!-- hidebound.validators -->
<g id="node13" class="node">
<title>hidebound.validators</title>
<polygon fill="#343434" stroke="#343434" points="535,-400 353,-400 353,-364 535,-364 535,-400"/>
<text text-anchor="middle" x="444" y="-378.3" font-family="Courier,monospace" font-size="14.00" fill="#b6ecf3">hidebound.validators</text>
</g>
<!-- hidebound.parser&#45;&gt;hidebound.validators -->
<g id="edge6" class="edge">
<title>hidebound.parser&#45;&gt;hidebound.validators</title>
<path fill="none" stroke="#b6ecf3" d="M289.5586,-445.988C298.8397,-443.1683 308.199,-440.141 317,-437 343.8698,-427.4105 373.1356,-414.8844 396.7942,-404.2089"/>
<polygon fill="#b6ecf3" stroke="#b6ecf3" points="398.2473,-407.3931 405.9007,-400.0666 395.3489,-401.0213 398.2473,-407.3931"/>
</g>
<!-- hidebound.specification_base&#45;&gt;hidebound.config -->
<g id="edge7" class="edge">
<title>hidebound.specification_base&#45;&gt;hidebound.config</title>
<path fill="none" stroke="#b6ecf3" d="M717.1207,-445.8733C768.2163,-404.0033 894.5134,-300.5099 952.7263,-252.8077"/>
<polygon fill="#b6ecf3" stroke="#b6ecf3" points="955.2876,-255.2339 960.804,-246.1884 950.8508,-249.8195 955.2876,-255.2339"/>
</g>
<!-- hidebound.specification_base&#45;&gt;hidebound.database -->
<g id="edge8" class="edge">
<title>hidebound.specification_base&#45;&gt;hidebound.database</title>
<path fill="none" stroke="#b6ecf3" d="M761.7047,-445.9824C850.845,-426.181 1009.352,-406.4583 1111,-483 1164.378,-523.194 1209.172,-729.3692 1224.1526,-805.6112"/>
<polygon fill="#b6ecf3" stroke="#b6ecf3" points="1220.8045,-806.7311 1226.144,-815.882 1227.6765,-805.3986 1220.8045,-806.7311"/>
</g>
<!-- hidebound.specification_base&#45;&gt;hidebound.database_test_base -->
<g id="edge9" class="edge">
<title>hidebound.specification_base&#45;&gt;hidebound.database_test_base</title>
<path fill="none" stroke="#b6ecf3" d="M722.354,-482.141C774.707,-516.8612 889.0385,-592.6852 947.3133,-631.3328"/>
<polygon fill="#b6ecf3" stroke="#b6ecf3" points="945.5604,-634.37 955.8287,-636.9801 949.4293,-628.5363 945.5604,-634.37"/>
</g>
<!-- hidebound.specifications -->
<g id="node9" class="node">
<title>hidebound.specifications</title>
<polygon fill="#343434" stroke="#343434" points="1090.5,-528 875.5,-528 875.5,-492 1090.5,-492 1090.5,-528"/>
<text text-anchor="middle" x="983" y="-506.3" font-family="Courier,monospace" font-size="14.00" fill="#b6ecf3">hidebound.specifications</text>
</g>
<!-- hidebound.specification_base&#45;&gt;hidebound.specifications -->
<g id="edge10" class="edge">
<title>hidebound.specification_base&#45;&gt;hidebound.specifications</title>
<path fill="none" stroke="#b6ecf3" d="M807.9986,-482.0484C826.6998,-485.0354 846.1334,-488.1394 864.9551,-491.1456"/>
<polygon fill="#b6ecf3" stroke="#b6ecf3" points="864.6092,-494.6346 875.0361,-492.7558 865.7133,-487.7223 864.6092,-494.6346"/>
</g>
<!-- hidebound.test_specifications -->
<g id="node10" class="node">
<title>hidebound.test_specifications</title>
<polygon fill="#343434" stroke="#343434" points="1111,-398 855,-398 855,-362 1111,-362 1111,-398"/>
<text text-anchor="middle" x="983" y="-376.3" font-family="Courier,monospace" font-size="14.00" fill="#b6ecf3">hidebound.test_specifications</text>
</g>
<!-- hidebound.specification_base&#45;&gt;hidebound.test_specifications -->
<g id="edge11" class="edge">
<title>hidebound.specification_base&#45;&gt;hidebound.test_specifications</title>
<path fill="none" stroke="#b6ecf3" d="M756.7832,-445.9799C802.0893,-432.7656 863.7245,-414.7887 911.2181,-400.9364"/>
<polygon fill="#b6ecf3" stroke="#b6ecf3" points="912.2027,-404.2951 920.8227,-398.135 910.2427,-397.5751 912.2027,-404.2951"/>
</g>
<!-- hidebound.tools -->
<g id="node11" class="node">
<title>hidebound.tools</title>
<polygon fill="#343434" stroke="#343434" points="514,-780 374,-780 374,-744 514,-744 514,-780"/>
<text text-anchor="middle" x="444" y="-758.3" font-family="Courier,monospace" font-size="14.00" fill="#b6ecf3">hidebound.tools</text>
</g>
<!-- hidebound.tools&#45;&gt;hidebound.database -->
<g id="edge12" class="edge">
<title>hidebound.tools&#45;&gt;hidebound.database</title>
<path fill="none" stroke="#b6ecf3" d="M514.4863,-763.1332C636.5938,-765.9025 895.1154,-775.3225 1111,-807 1123.2724,-808.8008 1136.157,-811.1982 1148.7256,-813.8234"/>
<polygon fill="#b6ecf3" stroke="#b6ecf3" points="1148.2078,-817.2919 1158.7199,-815.9705 1149.6781,-810.4481 1148.2078,-817.2919"/>
</g>
<!-- hidebound.tools&#45;&gt;hidebound.database_tools -->
<g id="edge13" class="edge">
<title>hidebound.tools&#45;&gt;hidebound.database_tools</title>
<path fill="none" stroke="#b6ecf3" d="M504.4826,-780.0408C514.9291,-784.0579 525.4809,-788.7198 535,-794 586.9717,-822.8285 639.2537,-868.5456 669.3057,-896.8292"/>
<polygon fill="#b6ecf3" stroke="#b6ecf3" points="667.1553,-899.6142 676.8136,-903.9695 671.9794,-894.5419 667.1553,-899.6142"/>
</g>
<!-- hidebound.tools&#45;&gt;hidebound.specification_base -->
<g id="edge14" class="edge">
<title>hidebound.tools&#45;&gt;hidebound.specification_base</title>
<path fill="none" stroke="#b6ecf3" d="M461.565,-743.6703C480.502,-723.563 511.1369,-690.0146 535,-659 552.5894,-636.1393 553.4367,-627.8808 571,-605 603.338,-562.8712 644.7366,-517.2584 670.5666,-489.6583"/>
<polygon fill="#b6ecf3" stroke="#b6ecf3" points="673.4369,-491.7151 677.737,-482.0321 668.3371,-486.92 673.4369,-491.7151"/>
</g>
<!-- hidebound.traits -->
<g id="node12" class="node">
<title>hidebound.traits</title>
<polygon fill="#343434" stroke="#343434" points="769.5,-650 620.5,-650 620.5,-614 769.5,-614 769.5,-650"/>
<text text-anchor="middle" x="695" y="-628.3" font-family="Courier,monospace" font-size="14.00" fill="#b6ecf3">hidebound.traits</text>
</g>
<!-- hidebound.traits&#45;&gt;hidebound.database_test_base -->
<g id="edge15" class="edge">
<title>hidebound.traits&#45;&gt;hidebound.database_test_base</title>
<path fill="none" stroke="#b6ecf3" d="M769.5417,-637.953C793.8112,-639.8912 821.5421,-642.1058 848.8023,-644.2828"/>
<polygon fill="#b6ecf3" stroke="#b6ecf3" points="848.57,-647.7753 858.817,-645.0826 849.1274,-640.7975 848.57,-647.7753"/>
</g>
<!-- hidebound.traits&#45;&gt;hidebound.specifications -->
<g id="edge16" class="edge">
<title>hidebound.traits&#45;&gt;hidebound.specifications</title>
<path fill="none" stroke="#b6ecf3" d="M737.4954,-613.9985C788.9687,-592.1938 875.6483,-555.4754 931.0432,-532.0095"/>
<polygon fill="#b6ecf3" stroke="#b6ecf3" points="932.4876,-535.1988 940.3303,-528.0754 929.7571,-528.7532 932.4876,-535.1988"/>
</g>
<!-- hidebound.traits&#45;&gt;hidebound.test_specifications -->
<g id="edge17" class="edge">
<title>hidebound.traits&#45;&gt;hidebound.test_specifications</title>
<path fill="none" stroke="#b6ecf3" d="M713.8016,-613.655C743.2931,-585.0727 802.4907,-528.4724 855,-483 887.1032,-455.199 925.1601,-424.8962 951.3867,-404.4052"/>
<polygon fill="#b6ecf3" stroke="#b6ecf3" points="953.7261,-407.0195 959.4636,-398.1127 949.424,-401.4975 953.7261,-407.0195"/>
</g>
<!-- hidebound.validators&#45;&gt;hidebound.config -->
<g id="edge18" class="edge">
<title>hidebound.validators&#45;&gt;hidebound.config</title>
<path fill="none" stroke="#b6ecf3" d="M507.1499,-363.9572C607.7016,-335.2281 803.6722,-279.2365 910.0583,-248.8405"/>
<polygon fill="#b6ecf3" stroke="#b6ecf3" points="911.1006,-252.1828 919.7543,-246.0702 909.1775,-245.4521 911.1006,-252.1828"/>
</g>
<!-- hidebound.validators&#45;&gt;hidebound.database_test_base -->
<g id="edge19" class="edge">
<title>hidebound.validators&#45;&gt;hidebound.database_test_base</title>
<path fill="none" stroke="#b6ecf3" d="M455.7504,-400.4002C475.8138,-430.3756 519.5371,-489.7357 571,-523 585.806,-532.5702 800.5592,-599.1206 913.9693,-633.9117"/>
<polygon fill="#b6ecf3" stroke="#b6ecf3" points="913.0332,-637.2854 923.6199,-636.8706 915.0852,-630.593 913.0332,-637.2854"/>
</g>
<!-- hidebound.validators&#45;&gt;hidebound.specification_base -->
<g id="edge20" class="edge">
<title>hidebound.validators&#45;&gt;hidebound.specification_base</title>
<path fill="none" stroke="#b6ecf3" d="M498.8019,-400.0189C510.8367,-404.3223 523.4357,-409.0985 535,-414 551.4702,-420.9809 554.2462,-425.7301 571,-432 581.8994,-436.0789 593.5257,-439.8277 605.126,-443.2107"/>
<polygon fill="#b6ecf3" stroke="#b6ecf3" points="604.2722,-446.6065 614.8476,-445.9657 606.1808,-439.8717 604.2722,-446.6065"/>
</g>
<!-- hidebound.validators&#45;&gt;hidebound.specifications -->
<g id="edge21" class="edge">
<title>hidebound.validators&#45;&gt;hidebound.specifications</title>
<path fill="none" stroke="#b6ecf3" d="M458.0795,-400.0166C479.3482,-425.6607 522.3854,-471.7134 571,-491 664.8576,-528.2356 780.3278,-530.214 865.1202,-524.4795"/>
<polygon fill="#b6ecf3" stroke="#b6ecf3" points="865.5834,-527.9552 875.3052,-523.7437 865.079,-520.9734 865.5834,-527.9552"/>
</g>
<!-- hidebound.validators&#45;&gt;hidebound.test_specifications -->
<g id="edge22" class="edge">
<title>hidebound.validators&#45;&gt;hidebound.test_specifications</title>
<path fill="none" stroke="#b6ecf3" d="M535.1291,-381.6619C619.8599,-381.3475 747.2858,-380.8746 844.5803,-380.5136"/>
<polygon fill="#b6ecf3" stroke="#b6ecf3" points="844.8065,-384.0129 854.7935,-380.4757 844.7805,-377.0129 844.8065,-384.0129"/>
</g>
<!-- flasgger -->
<g id="node14" class="node">
<title>flasgger</title>
<polygon fill="#343434" stroke="#343434" points="1271,-960 1188,-960 1188,-924 1271,-924 1271,-960"/>
<text text-anchor="middle" x="1229.5" y="-938.3" font-family="Courier,monospace" font-size="14.00" fill="#de958e">flasgger</text>
</g>
<!-- flasgger&#45;&gt;hidebound.app -->
<g id="edge23" class="edge">
<title>flasgger&#45;&gt;hidebound.app</title>
<path fill="none" stroke="#de958e" d="M1271.1905,-930.0307C1284.4333,-925.7863 1299.0076,-920.6462 1312,-915 1332.3299,-906.165 1354.0072,-894.4773 1371.7914,-884.2354"/>
<polygon fill="#de958e" stroke="#de958e" points="1373.8342,-887.0958 1380.7088,-879.0341 1370.3073,-881.0492 1373.8342,-887.0958"/>
</g>
<!-- flask -->
<g id="node15" class="node">
<title>flask</title>
<polygon fill="#343434" stroke="#343434" points="1258.5,-906 1200.5,-906 1200.5,-870 1258.5,-870 1258.5,-906"/>
<text text-anchor="middle" x="1229.5" y="-884.3" font-family="Courier,monospace" font-size="14.00" fill="#de958e">flask</text>
</g>
<!-- flask&#45;&gt;hidebound.app -->
<g id="edge24" class="edge">
<title>flask&#45;&gt;hidebound.app</title>
<path fill="none" stroke="#de958e" d="M1258.5004,-883.662C1279.8904,-880.4624 1309.9715,-875.9627 1337.6976,-871.8153"/>
<polygon fill="#de958e" stroke="#de958e" points="1338.4133,-875.2473 1347.7854,-870.3063 1337.3776,-868.3243 1338.4133,-875.2473"/>
</g>
<!-- pandasql -->
<g id="node16" class="node">
<title>pandasql</title>
<polygon fill="#343434" stroke="#343434" points="1024.5,-852 941.5,-852 941.5,-816 1024.5,-816 1024.5,-852"/>
<text text-anchor="middle" x="983" y="-830.3" font-family="Courier,monospace" font-size="14.00" fill="#de958e">pandasql</text>
</g>
<!-- pandasql&#45;&gt;hidebound.database -->
<g id="edge25" class="edge">
<title>pandasql&#45;&gt;hidebound.database</title>
<path fill="none" stroke="#de958e" d="M1024.5366,-834C1055.1432,-834 1097.9855,-834 1136.5925,-834"/>
<polygon fill="#de958e" stroke="#de958e" points="1136.8292,-837.5001 1146.8292,-834 1136.8291,-830.5001 1136.8292,-837.5001"/>
</g>
<!-- numpy -->
<g id="node17" class="node">
<title>numpy</title>
<polygon fill="#343434" stroke="#343434" points="473,-1024 415,-1024 415,-988 473,-988 473,-1024"/>
<text text-anchor="middle" x="444" y="-1002.3" font-family="Courier,monospace" font-size="14.00" fill="#de958e">numpy</text>
</g>
<!-- numpy&#45;&gt;hidebound.app -->
<g id="edge26" class="edge">
<title>numpy&#45;&gt;hidebound.app</title>
<path fill="none" stroke="#de958e" d="M473.0492,-1012.7938C587.4366,-1037.9637 1015.0279,-1117.0472 1312,-969 1348.0793,-951.0137 1377.1895,-913.621 1394.0424,-887.9207"/>
<polygon fill="#de958e" stroke="#de958e" points="1397.0683,-889.6847 1399.4835,-879.3688 1391.1624,-885.927 1397.0683,-889.6847"/>
</g>
<!-- numpy&#45;&gt;hidebound.database -->
<g id="edge27" class="edge">
<title>numpy&#45;&gt;hidebound.database</title>
<path fill="none" stroke="#de958e" d="M473.329,-1006.2988C588.3494,-1006.9192 1007.404,-1003.8448 1111,-928 1138.2755,-908.031 1121.0803,-882.6999 1147,-861 1148.5167,-859.7303 1150.0946,-858.5197 1151.7237,-857.3657"/>
<polygon fill="#de958e" stroke="#de958e" points="1153.6115,-860.3133 1160.2469,-852.0537 1149.909,-854.3726 1153.6115,-860.3133"/>
</g>
<!-- numpy&#45;&gt;hidebound.database_test_base -->
<g id="edge28" class="edge">
<title>numpy&#45;&gt;hidebound.database_test_base</title>
<path fill="none" stroke="#de958e" d="M473.1895,-1002.4547C559.1417,-991.8983 806.1198,-960.6825 819,-949 867.2257,-905.2587 825.2764,-864.9268 855,-807 880.8798,-756.5643 926.2713,-708.2522 955.4648,-680.1164"/>
<polygon fill="#de958e" stroke="#de958e" points="958.0411,-682.4964 962.8776,-673.0698 953.2183,-677.4228 958.0411,-682.4964"/>
</g>
<!-- numpy&#45;&gt;hidebound.database_tools -->
<g id="edge29" class="edge">
<title>numpy&#45;&gt;hidebound.database_tools</title>
<path fill="none" stroke="#de958e" d="M473.1774,-997.1315C491.2749,-991.2913 514.839,-983.0668 535,-974 551.693,-966.4929 554.0012,-960.7861 571,-954 581.3009,-949.8878 592.2959,-946.1631 603.3233,-942.831"/>
<polygon fill="#de958e" stroke="#de958e" points="604.3876,-946.1665 613.0059,-940.0041 602.4257,-939.447 604.3876,-946.1665"/>
</g>
<!-- hidebound -->
<g id="node18" class="node">
<title>hidebound</title>
<polygon fill="#343434" stroke="#343434" points="91,-547 0,-547 0,-511 91,-511 91,-547"/>
<text text-anchor="middle" x="45.5" y="-525.3" font-family="Courier,monospace" font-size="14.00" fill="#a0d17b">hidebound</text>
</g>
<!-- hidebound&#45;&gt;hidebound.app -->
<g id="edge30" class="edge">
<title>hidebound&#45;&gt;hidebound.app</title>
<path fill="none" stroke="#a0d17b" d="M47.1354,-510.6507C53.6108,-441.6533 79.4485,-198.7162 127,-140 223.9311,-20.3102 289.9828,0 444,0 444,0 444,0 983,0 1141.9105,0 1215.6039,-13.6658 1312,-140 1354.9071,-196.2329 1397.7487,-705.9489 1407.7968,-832.6086"/>
<polygon fill="#a0d17b" stroke="#a0d17b" points="1404.3161,-832.9923 1408.591,-842.6864 1411.2945,-832.4423 1404.3161,-832.9923"/>
</g>
<!-- hidebound&#45;&gt;hidebound.config -->
<g id="edge31" class="edge">
<title>hidebound&#45;&gt;hidebound.config</title>
<path fill="none" stroke="#a0d17b" d="M47.8723,-510.5772C56.0718,-449.5944 85.031,-255.6347 127,-211 199.3066,-134.1008 248.886,-155.378 353,-138 557.2925,-103.9009 618.8547,-80.7079 819,-134 869.5829,-147.4685 920.799,-180.645 952.2228,-203.7423"/>
<polygon fill="#a0d17b" stroke="#a0d17b" points="950.4395,-206.7792 960.544,-209.9649 954.6316,-201.1732 950.4395,-206.7792"/>
</g>
<!-- hidebound&#45;&gt;hidebound.database -->
<g id="edge32" class="edge">
<title>hidebound&#45;&gt;hidebound.database</title>
<path fill="none" stroke="#a0d17b" d="M47.0638,-547.4297C53.3641,-617.8977 78.8884,-869.4092 127,-931 223.0674,-1053.9823 287.9437,-1082 444,-1082 444,-1082 444,-1082 695,-1082 886.2434,-1082 972.0958,-1103.4521 1111,-972 1148.6693,-936.3517 1110.3762,-897.7216 1147,-861 1147.9279,-860.0697 1148.8882,-859.1714 1149.8778,-858.304"/>
<polygon fill="#a0d17b" stroke="#a0d17b" points="1152.0704,-861.0348 1157.9817,-852.2423 1147.8775,-855.4294 1152.0704,-861.0348"/>
</g>
<!-- hidebound&#45;&gt;hidebound.database_test_base -->
<g id="edge33" class="edge">
<title>hidebound&#45;&gt;hidebound.database_test_base</title>
<path fill="none" stroke="#a0d17b" d="M65.2254,-547.259C80.936,-560.9593 104.032,-579.2954 127,-591 220.457,-638.6262 249.9423,-639.4657 353,-659 556.6396,-697.5994 612.195,-690.8092 819,-677 829.9738,-676.2672 841.3333,-675.2616 852.7177,-674.0811"/>
<polygon fill="#a0d17b" stroke="#a0d17b" points="853.153,-677.5545 862.7195,-673.0011 852.4015,-670.595 853.153,-677.5545"/>
</g>
<!-- hidebound&#45;&gt;hidebound.database_tools -->
<g id="edge34" class="edge">
<title>hidebound&#45;&gt;hidebound.database_tools</title>
<path fill="none" stroke="#a0d17b" d="M46.8107,-547.2601C52.048,-614.7287 73.8197,-848.5004 127,-896 191.0336,-953.1936 430.2981,-944.6664 577.0922,-933.3251"/>
<polygon fill="#a0d17b" stroke="#a0d17b" points="577.804,-936.7799 587.4979,-932.5046 577.2536,-929.8016 577.804,-936.7799"/>
</g>
<!-- hidebound&#45;&gt;hidebound.parser -->
<g id="edge35" class="edge">
<title>hidebound&#45;&gt;hidebound.parser</title>
<path fill="none" stroke="#a0d17b" d="M88.8776,-510.8758C101.1448,-505.9032 114.5465,-500.614 127,-496 136.6464,-492.426 146.9029,-488.7965 156.9734,-485.3276"/>
<polygon fill="#a0d17b" stroke="#a0d17b" points="158.2139,-488.6025 166.5458,-482.058 155.9512,-481.9782 158.2139,-488.6025"/>
</g>
<!-- hidebound&#45;&gt;hidebound.specification_base -->
<g id="edge36" class="edge">
<title>hidebound&#45;&gt;hidebound.specification_base</title>
<path fill="none" stroke="#a0d17b" d="M91.1716,-524.4293C187.4237,-514.7967 414.2921,-492.0924 560.9008,-477.4202"/>
<polygon fill="#a0d17b" stroke="#a0d17b" points="561.2753,-480.9003 570.8771,-476.4218 560.5782,-473.9351 561.2753,-480.9003"/>
</g>
<!-- hidebound&#45;&gt;hidebound.specifications -->
<g id="edge37" class="edge">
<title>hidebound&#45;&gt;hidebound.specifications</title>
<path fill="none" stroke="#a0d17b" d="M91.3,-529.7838C210.9872,-531.5851 542.9543,-534.9962 819,-523 833.9807,-522.349 849.7143,-521.4182 865.262,-520.3499"/>
<polygon fill="#a0d17b" stroke="#a0d17b" points="865.7144,-523.8267 875.4424,-519.6295 865.2202,-516.8442 865.7144,-523.8267"/>
</g>
<!-- hidebound&#45;&gt;hidebound.test_specifications -->
<g id="edge38" class="edge">
<title>hidebound&#45;&gt;hidebound.test_specifications</title>
<path fill="none" stroke="#a0d17b" d="M46.5454,-510.7546C50.0309,-466.8471 64.879,-354.2582 127,-291 201.8672,-214.7623 247.7623,-227.5017 353,-209 558.6111,-172.8518 626.8785,-186.3181 819,-268 870.8458,-290.0426 923.3206,-329.575 954.4998,-355.2905"/>
<polygon fill="#a0d17b" stroke="#a0d17b" points="952.4134,-358.1081 962.3326,-361.8311 956.9001,-352.735 952.4134,-358.1081"/>
</g>
<!-- hidebound&#45;&gt;hidebound.tools -->
<g id="edge39" class="edge">
<title>hidebound&#45;&gt;hidebound.tools</title>
<path fill="none" stroke="#a0d17b" d="M46.8419,-547.1634C50.8896,-587.5611 66.7331,-684.8382 127,-730 163.1351,-757.0783 282.1158,-762.6333 363.5728,-763.1046"/>
<polygon fill="#a0d17b" stroke="#a0d17b" points="363.7977,-766.6053 373.8092,-763.1385 363.8209,-759.6053 363.7977,-766.6053"/>
</g>
<!-- hidebound&#45;&gt;hidebound.traits -->
<g id="edge40" class="edge">
<title>hidebound&#45;&gt;hidebound.traits</title>
<path fill="none" stroke="#a0d17b" d="M83.7282,-547.0501C97.1413,-552.6873 112.4864,-558.3733 127,-562 303.8984,-606.2037 354.3482,-580.2622 535,-605 559.5303,-608.3591 586.0763,-612.5942 610.3625,-616.7078"/>
<polygon fill="#a0d17b" stroke="#a0d17b" points="609.8143,-620.1648 620.2609,-618.3986 610.993,-613.2647 609.8143,-620.1648"/>
</g>
<!-- hidebound&#45;&gt;hidebound.validators -->
<g id="edge41" class="edge">
<title>hidebound&#45;&gt;hidebound.validators</title>
<path fill="none" stroke="#a0d17b" d="M49.3552,-510.9859C57.3738,-478.564 79.229,-411.1447 127,-383 200.2154,-339.8645 300.4324,-348.3995 368.4439,-361.9672"/>
<polygon fill="#a0d17b" stroke="#a0d17b" points="367.735,-365.3946 378.2377,-364 369.1577,-358.5407 367.735,-365.3946"/>
</g>
<!-- humanfriendly -->
<g id="node19" class="node">
<title>humanfriendly</title>
<polygon fill="#343434" stroke="#343434" points="284,-818 160,-818 160,-782 284,-782 284,-818"/>
<text text-anchor="middle" x="222" y="-796.3" font-family="Courier,monospace" font-size="14.00" fill="#de958e">humanfriendly</text>
</g>
<!-- humanfriendly&#45;&gt;hidebound.tools -->
<g id="edge42" class="edge">
<title>humanfriendly&#45;&gt;hidebound.tools</title>
<path fill="none" stroke="#de958e" d="M284.1346,-789.3644C308.8165,-785.1395 337.5257,-780.2253 363.7492,-775.7366"/>
<polygon fill="#de958e" stroke="#de958e" points="364.3982,-779.1765 373.6643,-774.0394 363.2171,-772.2769 364.3982,-779.1765"/>
</g>
<!-- schematics.exceptions -->
<g id="node20" class="node">
<title>schematics.exceptions</title>
<polygon fill="#343434" stroke="#343434" points="317,-428 127,-428 127,-392 317,-392 317,-428"/>
<text text-anchor="middle" x="222" y="-406.3" font-family="Courier,monospace" font-size="14.00" fill="#de958e">schematics.exceptions</text>
</g>
<!-- schematics.exceptions&#45;&gt;hidebound.app -->
<g id="edge43" class="edge">
<title>schematics.exceptions&#45;&gt;hidebound.app</title>
<path fill="none" stroke="#de958e" d="M262.4814,-391.8047C281.9828,-380.9722 303.9214,-365.3387 317,-345 367.5067,-266.4566 287.2061,-204.2659 353,-138 461.841,-28.3782 540.5225,-76 695,-76 695,-76 695,-76 983,-76 1334.9249,-76 1398.4372,-692.3541 1408.3399,-832.7656"/>
<polygon fill="#de958e" stroke="#de958e" points="1404.8482,-833.0076 1409.0089,-842.7513 1411.8325,-832.5397 1404.8482,-833.0076"/>
</g>
<!-- schematics.exceptions&#45;&gt;hidebound.config -->
<g id="edge44" class="edge">
<title>schematics.exceptions&#45;&gt;hidebound.config</title>
<path fill="none" stroke="#de958e" d="M260.8021,-391.8563C280.3384,-380.8698 302.8229,-365.0801 317,-345 353.0627,-293.9215 303.7159,-247.4786 353,-209 525.3977,-74.4003 812.648,-161.5702 930.3027,-206.2564"/>
<polygon fill="#de958e" stroke="#de958e" points="929.2271,-209.5927 939.8169,-209.9186 931.7417,-203.0599 929.2271,-209.5927"/>
</g>
<!-- schematics.exceptions&#45;&gt;hidebound.database_tools -->
<g id="edge45" class="edge">
<title>schematics.exceptions&#45;&gt;hidebound.database_tools</title>
<path fill="none" stroke="#de958e" d="M307.0817,-428.1574C310.6941,-430.738 314.036,-433.6701 317,-437 383.4578,-511.6623 291.0863,-580.5283 353,-659 407.2965,-727.8174 464.1343,-683.4055 535,-735 597.6494,-780.6126 651.8386,-855.4583 678.1086,-895.2194"/>
<polygon fill="#de958e" stroke="#de958e" points="675.3367,-897.3764 683.73,-903.8419 681.2005,-893.5535 675.3367,-897.3764"/>
</g>
<!-- schematics.exceptions&#45;&gt;hidebound.specification_base -->
<g id="edge46" class="edge">
<title>schematics.exceptions&#45;&gt;hidebound.specification_base</title>
<path fill="none" stroke="#de958e" d="M317.1496,-420.8627C386.9876,-428.8358 482.8005,-439.7743 560.4673,-448.6411"/>
<polygon fill="#de958e" stroke="#de958e" points="560.4823,-452.1655 570.8148,-449.8224 561.2763,-445.2106 560.4823,-452.1655"/>
</g>
<!-- schematics.exceptions&#45;&gt;hidebound.tools -->
<g id="edge47" class="edge">
<title>schematics.exceptions&#45;&gt;hidebound.tools</title>
<path fill="none" stroke="#de958e" d="M307.1648,-428.0842C310.7558,-430.6837 314.0703,-433.6398 317,-437 392.2187,-523.2704 295.3678,-593.1113 353,-692 364.1262,-711.091 382.6811,-726.7744 400.1443,-738.4214"/>
<polygon fill="#de958e" stroke="#de958e" points="398.2795,-741.3833 408.5922,-743.812 402.045,-735.4823 398.2795,-741.3833"/>
</g>
<!-- schematics.exceptions&#45;&gt;hidebound.validators -->
<g id="edge48" class="edge">
<title>schematics.exceptions&#45;&gt;hidebound.validators</title>
<path fill="none" stroke="#de958e" d="M317.1141,-398.0036C325.6572,-396.9261 334.3286,-395.8324 342.9201,-394.7488"/>
<polygon fill="#de958e" stroke="#de958e" points="343.4731,-398.2069 352.9565,-393.483 342.5971,-391.2619 343.4731,-398.2069"/>
</g>
<!-- pandas -->
<g id="node21" class="node">
<title>pandas</title>
<polygon fill="#343434" stroke="#343434" points="255,-887 189,-887 189,-851 255,-851 255,-887"/>
<text text-anchor="middle" x="222" y="-865.3" font-family="Courier,monospace" font-size="14.00" fill="#de958e">pandas</text>
</g>
<!-- pandas&#45;&gt;hidebound.database -->
<g id="edge49" class="edge">
<title>pandas&#45;&gt;hidebound.database</title>
<path fill="none" stroke="#de958e" d="M255.2585,-871.2618C372.7543,-878.7091 779.1053,-899.8454 1111,-861 1124.4068,-859.4308 1138.513,-856.9599 1152.1319,-854.1358"/>
<polygon fill="#de958e" stroke="#de958e" points="1152.905,-857.5496 1161.9454,-852.0249 1151.4329,-850.7062 1152.905,-857.5496"/>
</g>
<!-- pandas&#45;&gt;hidebound.database_test_base -->
<g id="edge50" class="edge">
<title>pandas&#45;&gt;hidebound.database_test_base</title>
<path fill="none" stroke="#de958e" d="M255.3297,-863.6569C346.9608,-848.4548 609.7625,-801.3977 819,-730 861.2059,-715.5982 907.2167,-694.0039 939.732,-677.6796"/>
<polygon fill="#de958e" stroke="#de958e" points="941.61,-680.6519 948.9499,-673.0114 938.4473,-674.407 941.61,-680.6519"/>
</g>
<!-- pandas&#45;&gt;hidebound.database_tools -->
<g id="edge51" class="edge">
<title>pandas&#45;&gt;hidebound.database_tools</title>
<path fill="none" stroke="#de958e" d="M255.1323,-877.7591C281.4675,-884.3747 319.343,-893.121 353,-898 427.0984,-908.7416 510.9527,-914.7216 577.084,-918.026"/>
<polygon fill="#de958e" stroke="#de958e" points="576.9665,-921.5244 587.1247,-918.5141 577.3064,-914.5326 576.9665,-921.5244"/>
</g>
<!-- pandas&#45;&gt;hidebound.tools -->
<g id="edge52" class="edge">
<title>pandas&#45;&gt;hidebound.tools</title>
<path fill="none" stroke="#de958e" d="M255.1839,-854.8788C273.524,-846.937 296.6507,-836.6962 317,-827 345.2536,-813.5375 376.5565,-797.5292 401.0153,-784.7679"/>
<polygon fill="#de958e" stroke="#de958e" points="402.7966,-787.7861 410.0336,-780.0481 399.5507,-781.5841 402.7966,-787.7861"/>
</g>
<!-- pyparsing -->
<g id="node22" class="node">
<title>pyparsing</title>
<polygon fill="#343434" stroke="#343434" points="91,-173 0,-173 0,-137 91,-137 91,-173"/>
<text text-anchor="middle" x="45.5" y="-151.3" font-family="Courier,monospace" font-size="14.00" fill="#de958e">pyparsing</text>
</g>
<!-- pyparsing&#45;&gt;hidebound.parser -->
<g id="edge53" class="edge">
<title>pyparsing&#45;&gt;hidebound.parser</title>
<path fill="none" stroke="#de958e" d="M48.436,-173.3507C57.8034,-229.7106 88.6275,-398.7972 127,-437 130.4631,-440.4477 134.3325,-443.4625 138.4748,-446.0978"/>
<polygon fill="#de958e" stroke="#de958e" points="136.8739,-449.212 147.3182,-450.9917 140.2633,-443.0873 136.8739,-449.212"/>
</g>
<!-- pyparsing&#45;&gt;hidebound.specification_base -->
<g id="edge54" class="edge">
<title>pyparsing&#45;&gt;hidebound.specification_base</title>
<path fill="none" stroke="#de958e" d="M91.113,-144.7989C150.4269,-134.412 253.885,-126.5332 317,-180 365.0365,-220.6933 307.36,-273.6359 353,-317 412.905,-373.9178 468.6533,-305.7419 535,-355 561.8277,-374.9178 545.5007,-399.4076 571,-421 581.1153,-429.5655 593.0363,-436.4586 605.4201,-441.997"/>
<polygon fill="#de958e" stroke="#de958e" points="604.3811,-445.3558 614.958,-445.9735 607.0749,-438.8948 604.3811,-445.3558"/>
</g>
<!-- pyparsing&#45;&gt;hidebound.validators -->
<g id="edge55" class="edge">
<title>pyparsing&#45;&gt;hidebound.validators</title>
<path fill="none" stroke="#de958e" d="M91.1929,-169.0618C149.1947,-188.7383 249.778,-229.1678 317,-291 339.6085,-311.7957 329.1248,-330.6718 353,-350 357.2303,-353.4246 361.8532,-356.4955 366.7007,-359.2472"/>
<polygon fill="#de958e" stroke="#de958e" points="365.142,-362.3814 375.6327,-363.863 368.3557,-356.1627 365.142,-362.3814"/>
</g>
<!-- schematics -->
<g id="node23" class="node">
<title>schematics</title>
<polygon fill="#343434" stroke="#343434" points="493.5,-254 394.5,-254 394.5,-218 493.5,-218 493.5,-254"/>
<text text-anchor="middle" x="444" y="-232.3" font-family="Courier,monospace" font-size="14.00" fill="#de958e">schematics</text>
</g>
<!-- schematics&#45;&gt;hidebound.config -->
<g id="edge56" class="edge">
<title>schematics&#45;&gt;hidebound.config</title>
<path fill="none" stroke="#de958e" d="M493.5032,-225.3943C516.8833,-220.9083 545.2496,-216.2139 571,-214 683.9441,-204.2897 814.8476,-211.9549 898.2493,-219.2116"/>
<polygon fill="#de958e" stroke="#de958e" points="898.162,-222.7175 908.4325,-220.1162 898.7814,-215.745 898.162,-222.7175"/>
</g>
<!-- schematics&#45;&gt;hidebound.specification_base -->
<g id="edge57" class="edge">
<title>schematics&#45;&gt;hidebound.specification_base</title>
<path fill="none" stroke="#de958e" d="M493.6569,-244.8727C507.8071,-248.9064 522.7046,-254.7058 535,-263 603.5512,-309.243 656.7278,-393.9262 680.8453,-437.1193"/>
<polygon fill="#de958e" stroke="#de958e" points="677.7992,-438.8436 685.6794,-445.9255 683.9354,-435.4751 677.7992,-438.8436"/>
</g>
<!-- schematics.types -->
<g id="node24" class="node">
<title>schematics.types</title>
<polygon fill="#343434" stroke="#343434" points="518.5,-308 369.5,-308 369.5,-272 518.5,-272 518.5,-308"/>
<text text-anchor="middle" x="444" y="-286.3" font-family="Courier,monospace" font-size="14.00" fill="#de958e">schematics.types</text>
</g>
<!-- schematics.types&#45;&gt;hidebound.config -->
<g id="edge58" class="edge">
<title>schematics.types&#45;&gt;hidebound.config</title>
<path fill="none" stroke="#de958e" d="M505.2074,-271.9136C515.1694,-268.9486 525.3745,-265.8985 535,-263 551.0197,-258.1761 554.5322,-254.9518 571,-252 682.8763,-231.9462 814.3019,-227.53 898.0904,-227.0716"/>
<polygon fill="#de958e" stroke="#de958e" points="898.3341,-230.5709 908.3211,-227.0341 898.3083,-223.5709 898.3341,-230.5709"/>
</g>
<!-- schematics.types&#45;&gt;hidebound.database_test_base -->
<g id="edge59" class="edge">
<title>schematics.types&#45;&gt;hidebound.database_test_base</title>
<path fill="none" stroke="#de958e" d="M511.6913,-308.1813C519.9832,-311.9926 527.9907,-316.5548 535,-322 557.7786,-339.6957 547.3906,-359.429 571,-376 663.9068,-441.2095 734.6606,-361.0341 819,-437 854.0983,-468.6136 828.8848,-497.6388 855,-537 880.1701,-574.9366 920.0356,-609.0828 948.5887,-630.765"/>
<polygon fill="#de958e" stroke="#de958e" points="946.5818,-633.6345 956.6886,-636.8131 950.77,-628.0256 946.5818,-633.6345"/>
</g>
<!-- schematics.types&#45;&gt;hidebound.specification_base -->
<g id="edge60" class="edge">
<title>schematics.types&#45;&gt;hidebound.specification_base</title>
<path fill="none" stroke="#de958e" d="M516.3656,-308.1556C523.2231,-311.9327 529.6126,-316.4935 535,-322 570.9743,-358.7692 533.4857,-396.8034 571,-432 574.3746,-435.1661 578.02,-438.0288 581.87,-440.6167"/>
<polygon fill="#de958e" stroke="#de958e" points="580.2235,-443.7104 590.5992,-445.8539 583.8248,-437.7079 580.2235,-443.7104"/>
</g>
<!-- schematics.types&#45;&gt;hidebound.specifications -->
<g id="edge61" class="edge">
<title>schematics.types&#45;&gt;hidebound.specifications</title>
<path fill="none" stroke="#de958e" d="M518.8216,-306.2244C596.1607,-324.4793 719.3152,-357.7431 819,-404 868.1194,-426.7929 919.7882,-462.4082 951.7034,-485.9723"/>
<polygon fill="#de958e" stroke="#de958e" points="949.6602,-488.8146 959.7702,-491.983 953.8426,-483.2015 949.6602,-488.8146"/>
</g>
<!-- schematics.types&#45;&gt;hidebound.test_specifications -->
<g id="edge62" class="edge">
<title>schematics.types&#45;&gt;hidebound.test_specifications</title>
<path fill="none" stroke="#de958e" d="M518.6497,-279.2465C595.3213,-270.6815 717.4656,-263.9709 819,-290 868.6056,-302.7168 919.3197,-333.9108 950.9586,-355.9968"/>
<polygon fill="#de958e" stroke="#de958e" points="949.1797,-359.0262 959.3598,-361.9617 953.2322,-353.3185 949.1797,-359.0262"/>
</g>
<!-- wrapt -->
<g id="node25" class="node">
<title>wrapt</title>
<polygon fill="#343434" stroke="#343434" points="251,-336 193,-336 193,-300 251,-300 251,-336"/>
<text text-anchor="middle" x="222" y="-314.3" font-family="Courier,monospace" font-size="14.00" fill="#de958e">wrapt</text>
</g>
<!-- wrapt&#45;&gt;hidebound.validators -->
<g id="edge63" class="edge">
<title>wrapt&#45;&gt;hidebound.validators</title>
<path fill="none" stroke="#de958e" d="M251.0226,-326.3669C281.4888,-335.1499 330.5709,-349.2997 371.6096,-361.1307"/>
<polygon fill="#de958e" stroke="#de958e" points="370.7327,-364.5204 381.3109,-363.9275 372.6718,-357.7943 370.7327,-364.5204"/>
</g>
<!-- skimage.io -->
<g id="node26" class="node">
<title>skimage.io</title>
<polygon fill="#343434" stroke="#343434" points="493.5,-650 394.5,-650 394.5,-614 493.5,-614 493.5,-650"/>
<text text-anchor="middle" x="444" y="-628.3" font-family="Courier,monospace" font-size="14.00" fill="#de958e">skimage.io</text>
</g>
<!-- skimage.io&#45;&gt;hidebound.database_test_base -->
<g id="edge64" class="edge">
<title>skimage.io&#45;&gt;hidebound.database_test_base</title>
<path fill="none" stroke="#de958e" d="M493.6782,-645.0831C516.9729,-650.5661 545.2195,-656.2898 571,-659 663.2693,-668.6998 767.8004,-667.544 848.4833,-664.0427"/>
<polygon fill="#de958e" stroke="#de958e" points="848.87,-667.5289 858.7019,-663.5812 848.5542,-660.536 848.87,-667.5289"/>
</g>
<!-- skimage.io&#45;&gt;hidebound.traits -->
<g id="edge65" class="edge">
<title>skimage.io&#45;&gt;hidebound.traits</title>
<path fill="none" stroke="#de958e" d="M493.5895,-632C526.7704,-632 571.291,-632 610.0366,-632"/>
<polygon fill="#de958e" stroke="#de958e" points="610.2732,-635.5001 620.2732,-632 610.2731,-628.5001 610.2732,-635.5001"/>
</g>
</g>
</svg>
