<?xml version="1.0" encoding="UTF-8" standalone="no"?>
<!DOCTYPE svg PUBLIC "-//W3C//DTD SVG 1.1//EN"
 "http://www.w3.org/Graphics/SVG/1.1/DTD/svg11.dtd">
<!-- Generated by graphviz version 2.40.1 (20161225.0304)
 -->
<!-- Title: %3 Pages: 1 -->
<svg width="2914pt" height="2215pt"
 viewBox="0.00 0.00 2914.00 2215.07" xmlns="http://www.w3.org/2000/svg" xmlns:xlink="http://www.w3.org/1999/xlink">
<g id="graph0" class="graph" transform="scale(1 1) rotate(0) translate(4 2211.0717)">
<title>%3</title>
<polygon fill="#242424" stroke="transparent" points="-4,4 -4,-2211.0717 2910,-2211.0717 2910,4 -4,4"/>
<!-- cli -->
<g id="node1" class="node">
<title>cli</title>
<polygon fill="#343434" stroke="#343434" points="72.5,-1307.0717 18.5,-1307.0717 18.5,-1271.0717 72.5,-1271.0717 72.5,-1307.0717"/>
<text text-anchor="middle" x="45.5" y="-1285.3717" font-family="Courier,monospace" font-size="14.00" fill="#b6ecf3">cli</text>
</g>
<!-- hidebound.core.config -->
<g id="node2" class="node">
<title>hidebound.core.config</title>
<polygon fill="#343434" stroke="#343434" points="1636,-785.0717 1446,-785.0717 1446,-749.0717 1636,-749.0717 1636,-785.0717"/>
<text text-anchor="middle" x="1541" y="-763.3717" font-family="Courier,monospace" font-size="14.00" fill="#b6ecf3">hidebound.core.config</text>
</g>
<!-- hidebound.core.database -->
<g id="node3" class="node">
<title>hidebound.core.database</title>
<polygon fill="#343434" stroke="#343434" points="1903,-1248.0717 1697,-1248.0717 1697,-1212.0717 1903,-1212.0717 1903,-1248.0717"/>
<text text-anchor="middle" x="1800" y="-1226.3717" font-family="Courier,monospace" font-size="14.00" fill="#b6ecf3">hidebound.core.database</text>
</g>
<!-- hidebound.core.config&#45;&gt;hidebound.core.database -->
<g id="edge1" class="edge">
<title>hidebound.core.config&#45;&gt;hidebound.core.database</title>
<path fill="none" stroke="#b6ecf3" d="M1552.0178,-785.4266C1569.9198,-815.3461 1606.3109,-876.5664 1636,-929.0717 1692.6671,-1029.2876 1757.345,-1149.9328 1785.5646,-1202.899"/>
<polygon fill="#b6ecf3" stroke="#b6ecf3" points="1782.6108,-1204.7987 1790.3994,-1211.9812 1788.7898,-1201.5093 1782.6108,-1204.7987"/>
</g>
<!-- hidebound.server.extension -->
<g id="node19" class="node">
<title>hidebound.server.extension</title>
<polygon fill="#343434" stroke="#343434" points="2413,-1505.0717 2182,-1505.0717 2182,-1469.0717 2413,-1469.0717 2413,-1505.0717"/>
<text text-anchor="middle" x="2297.5" y="-1483.3717" font-family="Courier,monospace" font-size="14.00" fill="#b6ecf3">hidebound.server.extension</text>
</g>
<!-- hidebound.core.config&#45;&gt;hidebound.server.extension -->
<g id="edge2" class="edge">
<title>hidebound.core.config&#45;&gt;hidebound.server.extension</title>
<path fill="none" stroke="#b6ecf3" d="M1562.6679,-785.2322C1642.759,-852.667 1928.6696,-1096.1389 2146,-1316.0717 2194.574,-1365.2272 2247.2066,-1426.6827 2275.8729,-1460.9254"/>
<polygon fill="#b6ecf3" stroke="#b6ecf3" points="2273.5335,-1463.5848 2282.6274,-1469.0208 2278.9083,-1459.1002 2273.5335,-1463.5848"/>
</g>
<!-- hidebound.server.api -->
<g id="node16" class="node">
<title>hidebound.server.api</title>
<polygon fill="#343434" stroke="#343434" points="2146,-1689.0717 1964,-1689.0717 1964,-1653.0717 2146,-1653.0717 2146,-1689.0717"/>
<text text-anchor="middle" x="2055" y="-1667.3717" font-family="Courier,monospace" font-size="14.00" fill="#b6ecf3">hidebound.server.api</text>
</g>
<!-- hidebound.core.database&#45;&gt;hidebound.server.api -->
<g id="edge3" class="edge">
<title>hidebound.core.database&#45;&gt;hidebound.server.api</title>
<path fill="none" stroke="#b6ecf3" d="M1810.4717,-1248.1815C1850.2682,-1317.0061 1992.2509,-1562.5526 2039.5466,-1644.3464"/>
<polygon fill="#b6ecf3" stroke="#b6ecf3" points="2036.546,-1646.1492 2044.5817,-1653.0542 2042.6059,-1642.6452 2036.546,-1646.1492"/>
</g>
<!-- hidebound.core.database&#45;&gt;hidebound.server.extension -->
<g id="edge4" class="edge">
<title>hidebound.core.database&#45;&gt;hidebound.server.extension</title>
<path fill="none" stroke="#b6ecf3" d="M1834.9832,-1248.1434C1923.4739,-1293.8562 2156.0957,-1414.0246 2253.5552,-1464.3705"/>
<polygon fill="#b6ecf3" stroke="#b6ecf3" points="2252.0645,-1467.5398 2262.5554,-1469.0199 2255.2772,-1461.3206 2252.0645,-1467.5398"/>
</g>
<!-- hidebound.core.database_tools -->
<g id="node4" class="node">
<title>hidebound.core.database_tools</title>
<polygon fill="#343434" stroke="#343434" points="1385.5,-1457.0717 1129.5,-1457.0717 1129.5,-1421.0717 1385.5,-1421.0717 1385.5,-1457.0717"/>
<text text-anchor="middle" x="1257.5" y="-1435.3717" font-family="Courier,monospace" font-size="14.00" fill="#b6ecf3">hidebound.core.database_tools</text>
</g>
<!-- hidebound.core.database_tools&#45;&gt;hidebound.core.database -->
<g id="edge5" class="edge">
<title>hidebound.core.database_tools&#45;&gt;hidebound.core.database</title>
<path fill="none" stroke="#b6ecf3" d="M1306.9709,-1421.0306C1379.4213,-1394.492 1518.5363,-1343.0888 1636,-1297.0717 1673.2422,-1282.4818 1714.9684,-1265.4251 1747.0122,-1252.1729"/>
<polygon fill="#b6ecf3" stroke="#b6ecf3" points="1748.7307,-1255.2496 1756.6303,-1248.1893 1746.0521,-1248.7823 1748.7307,-1255.2496"/>
</g>
<!-- hidebound.core.logging -->
<g id="node5" class="node">
<title>hidebound.core.logging</title>
<polygon fill="#343434" stroke="#343434" points="731.5,-1819.0717 533.5,-1819.0717 533.5,-1783.0717 731.5,-1783.0717 731.5,-1819.0717"/>
<text text-anchor="middle" x="632.5" y="-1797.3717" font-family="Courier,monospace" font-size="14.00" fill="#b6ecf3">hidebound.core.logging</text>
</g>
<!-- hidebound.core.logging&#45;&gt;hidebound.core.database -->
<g id="edge6" class="edge">
<title>hidebound.core.logging&#45;&gt;hidebound.core.database</title>
<path fill="none" stroke="#b6ecf3" d="M649.5771,-1782.7717C675.1818,-1756.5984 726.2796,-1709.099 780,-1686.0717 899.3552,-1634.9097 969.3076,-1726.286 1069,-1643.0717 1107.1962,-1611.1889 1066.4279,-1568.4985 1105,-1537.0717 1210.903,-1450.7866 1281.9606,-1546.6789 1410,-1499.0717 1428.024,-1492.37 1428.2342,-1482.4305 1446,-1475.0717 1525.5615,-1442.1162 1562.5424,-1482.017 1636,-1437.0717 1709.2074,-1392.2793 1763.0389,-1302.3194 1786.6896,-1257.1924"/>
<polygon fill="#b6ecf3" stroke="#b6ecf3" points="1789.8143,-1258.7694 1791.2744,-1248.2756 1783.589,-1255.5684 1789.8143,-1258.7694"/>
</g>
<!-- hidebound.exporters.exporter_base -->
<g id="node13" class="node">
<title>hidebound.exporters.exporter_base</title>
<polygon fill="#343434" stroke="#343434" points="1069,-1037.0717 780,-1037.0717 780,-1001.0717 1069,-1001.0717 1069,-1037.0717"/>
<text text-anchor="middle" x="924.5" y="-1015.3717" font-family="Courier,monospace" font-size="14.00" fill="#b6ecf3">hidebound.exporters.exporter_base</text>
</g>
<!-- hidebound.core.logging&#45;&gt;hidebound.exporters.exporter_base -->
<g id="edge7" class="edge">
<title>hidebound.core.logging&#45;&gt;hidebound.exporters.exporter_base</title>
<path fill="none" stroke="#b6ecf3" d="M634.0458,-1782.8262C641.0396,-1707.1635 674.1223,-1412.0268 780,-1198.0717 810.4202,-1136.5993 865.0537,-1077.0496 897.725,-1044.5064"/>
<polygon fill="#b6ecf3" stroke="#b6ecf3" points="900.4632,-1046.7223 905.1354,-1037.2132 895.5531,-1041.7332 900.4632,-1046.7223"/>
</g>
<!-- hidebound.core.logging&#45;&gt;hidebound.server.api -->
<g id="edge8" class="edge">
<title>hidebound.core.logging&#45;&gt;hidebound.server.api</title>
<path fill="none" stroke="#b6ecf3" d="M731.5707,-1800.8621C950.436,-1799.4601 1468.9687,-1790.7162 1636,-1740.0717 1653.7264,-1734.697 1654.4309,-1724.94 1672,-1719.0717 1780.6554,-1682.779 1814.3914,-1703.7772 1928,-1689.0717 1936.3335,-1687.993 1944.9696,-1686.8412 1953.6381,-1685.6613"/>
<polygon fill="#b6ecf3" stroke="#b6ecf3" points="1954.3809,-1689.0923 1963.8127,-1684.266 1953.4298,-1682.1572 1954.3809,-1689.0923"/>
</g>
<!-- hidebound.server.server_tools -->
<g id="node21" class="node">
<title>hidebound.server.server_tools</title>
<polygon fill="#343434" stroke="#343434" points="1928,-1899.0717 1672,-1899.0717 1672,-1863.0717 1928,-1863.0717 1928,-1899.0717"/>
<text text-anchor="middle" x="1800" y="-1877.3717" font-family="Courier,monospace" font-size="14.00" fill="#b6ecf3">hidebound.server.server_tools</text>
</g>
<!-- hidebound.core.logging&#45;&gt;hidebound.server.server_tools -->
<g id="edge9" class="edge">
<title>hidebound.core.logging&#45;&gt;hidebound.server.server_tools</title>
<path fill="none" stroke="#b6ecf3" d="M661.3775,-1819.1393C690.1798,-1836.034 736.3116,-1860.1106 780,-1870.0717 943.409,-1907.3291 1422.7916,-1895.5052 1661.5659,-1886.8115"/>
<polygon fill="#b6ecf3" stroke="#b6ecf3" points="1661.8396,-1890.3039 1671.7043,-1886.439 1661.5825,-1883.3087 1661.8396,-1890.3039"/>
</g>
<!-- hidebound.core.parser -->
<g id="node6" class="node">
<title>hidebound.core.parser</title>
<polygon fill="#343434" stroke="#343434" points="485,-866.0717 295,-866.0717 295,-830.0717 485,-830.0717 485,-866.0717"/>
<text text-anchor="middle" x="390" y="-844.3717" font-family="Courier,monospace" font-size="14.00" fill="#b6ecf3">hidebound.core.parser</text>
</g>
<!-- hidebound.core.parser&#45;&gt;hidebound.core.database_tools -->
<g id="edge10" class="edge">
<title>hidebound.core.parser&#45;&gt;hidebound.core.database_tools</title>
<path fill="none" stroke="#b6ecf3" d="M428.0555,-866.2072C448.6573,-878.1691 472.4073,-895.9191 485,-919.0717 541.8275,-1023.5533 434.1171,-1371.8488 521,-1453.0717 608.9502,-1535.2923 965.935,-1488.9945 1148.6327,-1458.7497"/>
<polygon fill="#b6ecf3" stroke="#b6ecf3" points="1149.2494,-1462.1952 1158.5372,-1457.0975 1148.0976,-1455.2907 1149.2494,-1462.1952"/>
</g>
<!-- hidebound.core.specification_base -->
<g id="node7" class="node">
<title>hidebound.core.specification_base</title>
<polygon fill="#343434" stroke="#343434" points="1069,-663.0717 780,-663.0717 780,-627.0717 1069,-627.0717 1069,-663.0717"/>
<text text-anchor="middle" x="924.5" y="-641.3717" font-family="Courier,monospace" font-size="14.00" fill="#b6ecf3">hidebound.core.specification_base</text>
</g>
<!-- hidebound.core.parser&#45;&gt;hidebound.core.specification_base -->
<g id="edge11" class="edge">
<title>hidebound.core.parser&#45;&gt;hidebound.core.specification_base</title>
<path fill="none" stroke="#b6ecf3" d="M461.2406,-829.9963C480.5851,-825.2723 501.5583,-820.318 521,-816.0717 619.6122,-794.5336 667.1005,-838.4529 744,-773.0717 779.3512,-743.0155 744.8633,-705.3784 780,-675.0717 782.7511,-672.6987 785.6408,-670.4966 788.6452,-668.4537"/>
<polygon fill="#b6ecf3" stroke="#b6ecf3" points="790.6869,-671.3079 797.3963,-663.1082 787.038,-665.3342 790.6869,-671.3079"/>
</g>
<!-- hidebound.core.validators -->
<g id="node11" class="node">
<title>hidebound.core.validators</title>
<polygon fill="#343434" stroke="#343434" points="744,-991.0717 521,-991.0717 521,-955.0717 744,-955.0717 744,-991.0717"/>
<text text-anchor="middle" x="632.5" y="-969.3717" font-family="Courier,monospace" font-size="14.00" fill="#b6ecf3">hidebound.core.validators</text>
</g>
<!-- hidebound.core.parser&#45;&gt;hidebound.core.validators -->
<g id="edge12" class="edge">
<title>hidebound.core.parser&#45;&gt;hidebound.core.validators</title>
<path fill="none" stroke="#b6ecf3" d="M425.0026,-866.1142C468.1636,-888.3622 541.555,-926.1928 588.4905,-950.3863"/>
<polygon fill="#b6ecf3" stroke="#b6ecf3" points="587.0157,-953.5638 597.508,-955.0345 590.223,-947.3417 587.0157,-953.5638"/>
</g>
<!-- hidebound.core.specification_base&#45;&gt;hidebound.core.config -->
<g id="edge13" class="edge">
<title>hidebound.core.specification_base&#45;&gt;hidebound.core.config</title>
<path fill="none" stroke="#b6ecf3" d="M1069.2317,-627.83C1168.213,-621.4802 1300.7593,-623.8598 1410,-664.0717 1453.5505,-680.1027 1493.9567,-716.483 1518.0606,-741.4175"/>
<polygon fill="#b6ecf3" stroke="#b6ecf3" points="1515.5872,-743.8959 1525.0031,-748.7531 1520.6713,-739.0842 1515.5872,-743.8959"/>
</g>
<!-- hidebound.core.specification_base&#45;&gt;hidebound.core.database -->
<g id="edge14" class="edge">
<title>hidebound.core.specification_base&#45;&gt;hidebound.core.database</title>
<path fill="none" stroke="#b6ecf3" d="M1000.2029,-627.0286C1149.0145,-596.6092 1478.8054,-555.1598 1636,-740.0717 1757.7785,-883.3227 1790.0814,-1120.452 1797.7914,-1201.7221"/>
<polygon fill="#b6ecf3" stroke="#b6ecf3" points="1794.3072,-1202.0563 1798.687,-1211.7035 1801.2792,-1201.4307 1794.3072,-1202.0563"/>
</g>
<!-- hidebound.core.specification_base&#45;&gt;hidebound.core.database_tools -->
<g id="edge15" class="edge">
<title>hidebound.core.specification_base&#45;&gt;hidebound.core.database_tools</title>
<path fill="none" stroke="#b6ecf3" d="M941.4468,-663.3234C973.0108,-698.5766 1040.207,-779.8373 1069,-862.0717 1130.4736,-1037.6434 1028.5092,-1109.5028 1105,-1279.0717 1131.0022,-1336.7146 1186.7185,-1386.4446 1223.1204,-1414.5641"/>
<polygon fill="#b6ecf3" stroke="#b6ecf3" points="1221.3951,-1417.6484 1231.4776,-1420.9032 1225.6255,-1412.0713 1221.3951,-1417.6484"/>
</g>
<!-- hidebound.core.specifications -->
<g id="node8" class="node">
<title>hidebound.core.specifications</title>
<polygon fill="#343434" stroke="#343434" points="1385.5,-709.0717 1129.5,-709.0717 1129.5,-673.0717 1385.5,-673.0717 1385.5,-709.0717"/>
<text text-anchor="middle" x="1257.5" y="-687.3717" font-family="Courier,monospace" font-size="14.00" fill="#b6ecf3">hidebound.core.specifications</text>
</g>
<!-- hidebound.core.specification_base&#45;&gt;hidebound.core.specifications -->
<g id="edge16" class="edge">
<title>hidebound.core.specification_base&#45;&gt;hidebound.core.specifications</title>
<path fill="none" stroke="#b6ecf3" d="M1055.1547,-663.1201C1076.2327,-666.0317 1098.1154,-669.0546 1119.3631,-671.9897"/>
<polygon fill="#b6ecf3" stroke="#b6ecf3" points="1119.0198,-675.4754 1129.4047,-673.3768 1119.9777,-668.5413 1119.0198,-675.4754"/>
</g>
<!-- hidebound.core.tools -->
<g id="node9" class="node">
<title>hidebound.core.tools</title>
<polygon fill="#343434" stroke="#343434" points="723.5,-435.0717 541.5,-435.0717 541.5,-399.0717 723.5,-399.0717 723.5,-435.0717"/>
<text text-anchor="middle" x="632.5" y="-413.3717" font-family="Courier,monospace" font-size="14.00" fill="#b6ecf3">hidebound.core.tools</text>
</g>
<!-- hidebound.core.tools&#45;&gt;hidebound.core.database -->
<g id="edge17" class="edge">
<title>hidebound.core.tools&#45;&gt;hidebound.core.database</title>
<path fill="none" stroke="#b6ecf3" d="M723.7931,-408.8788C872.1983,-398.7741 1173.0218,-391.7783 1410,-473.0717 1524.2652,-512.2693 1565.5121,-525.9674 1636,-624.0717 1772.13,-813.5357 1795.2698,-1109.8282 1799.1981,-1201.8483"/>
<polygon fill="#b6ecf3" stroke="#b6ecf3" points="1795.7081,-1202.178 1799.5883,-1212.0367 1802.703,-1201.9101 1795.7081,-1202.178"/>
</g>
<!-- hidebound.core.tools&#45;&gt;hidebound.core.database_tools -->
<g id="edge18" class="edge">
<title>hidebound.core.tools&#45;&gt;hidebound.core.database_tools</title>
<path fill="none" stroke="#b6ecf3" d="M663.6752,-435.1684C693.2078,-452.0259 739.0146,-477.438 780,-497.0717 905.5824,-557.2306 988.7338,-504.2852 1069,-618.0717 1153.796,-738.2797 1046.6446,-1144.0347 1105,-1279.0717 1130.0851,-1337.1196 1186.065,-1386.7332 1222.7711,-1414.7183"/>
<polygon fill="#b6ecf3" stroke="#b6ecf3" points="1221.0977,-1417.8374 1231.2017,-1421.0251 1225.2909,-1412.2323 1221.0977,-1417.8374"/>
</g>
<!-- hidebound.core.tools&#45;&gt;hidebound.core.specification_base -->
<g id="edge19" class="edge">
<title>hidebound.core.tools&#45;&gt;hidebound.core.specification_base</title>
<path fill="none" stroke="#b6ecf3" d="M645.7919,-435.2241C669.7257,-466.9181 722.9195,-532.9765 780,-575.0717 806.3899,-594.5334 839.0369,-610.8896 866.6189,-622.885"/>
<polygon fill="#b6ecf3" stroke="#b6ecf3" points="865.5735,-626.244 876.1452,-626.944 868.3175,-619.8042 865.5735,-626.244"/>
</g>
<!-- hidebound.core.traits -->
<g id="node10" class="node">
<title>hidebound.core.traits</title>
<polygon fill="#343434" stroke="#343434" points="1019.5,-229.0717 829.5,-229.0717 829.5,-193.0717 1019.5,-193.0717 1019.5,-229.0717"/>
<text text-anchor="middle" x="924.5" y="-207.3717" font-family="Courier,monospace" font-size="14.00" fill="#b6ecf3">hidebound.core.traits</text>
</g>
<!-- hidebound.core.tools&#45;&gt;hidebound.core.traits -->
<g id="edge20" class="edge">
<title>hidebound.core.tools&#45;&gt;hidebound.core.traits</title>
<path fill="none" stroke="#b6ecf3" d="M647.7499,-398.7734C684.5796,-354.6229 775.6765,-245.6797 780,-243.0717 792.1559,-235.7389 805.7953,-230.0808 819.7119,-225.716"/>
<polygon fill="#b6ecf3" stroke="#b6ecf3" points="820.7565,-229.0572 829.3758,-222.8961 818.7957,-222.3374 820.7565,-229.0572"/>
</g>
<!-- hidebound.exporters.disk_exporter -->
<g id="node12" class="node">
<title>hidebound.exporters.disk_exporter</title>
<polygon fill="#343434" stroke="#343434" points="1402,-1037.0717 1113,-1037.0717 1113,-1001.0717 1402,-1001.0717 1402,-1037.0717"/>
<text text-anchor="middle" x="1257.5" y="-1015.3717" font-family="Courier,monospace" font-size="14.00" fill="#b6ecf3">hidebound.exporters.disk_exporter</text>
</g>
<!-- hidebound.core.tools&#45;&gt;hidebound.exporters.disk_exporter -->
<g id="edge21" class="edge">
<title>hidebound.core.tools&#45;&gt;hidebound.exporters.disk_exporter</title>
<path fill="none" stroke="#b6ecf3" d="M723.8054,-416.1981C825.1734,-420.634 985.4792,-444.7927 1069,-547.0717 1126.4297,-617.3997 1051.65,-880.6008 1105,-954.0717 1119.3425,-973.8235 1140.9205,-987.6221 1163.3654,-997.2442"/>
<polygon fill="#b6ecf3" stroke="#b6ecf3" points="1162.0915,-1000.5043 1172.6753,-1000.9882 1164.7033,-994.0098 1162.0915,-1000.5043"/>
</g>
<!-- hidebound.core.tools&#45;&gt;hidebound.exporters.exporter_base -->
<g id="edge22" class="edge">
<title>hidebound.core.tools&#45;&gt;hidebound.exporters.exporter_base</title>
<path fill="none" stroke="#b6ecf3" d="M650.5306,-435.2C676.2654,-462.3345 722.7609,-516.3116 744,-572.0717 798.7186,-715.7271 702.5661,-783.2748 780,-916.0717 801.1354,-952.3183 840.6812,-979.1504 873.066,-996.3262"/>
<polygon fill="#b6ecf3" stroke="#b6ecf3" points="871.4954,-999.4541 881.9891,-1000.9144 874.6964,-993.2289 871.4954,-999.4541"/>
</g>
<!-- hidebound.server.app -->
<g id="node17" class="node">
<title>hidebound.server.app</title>
<polygon fill="#343434" stroke="#343434" points="2906,-1585.0717 2724,-1585.0717 2724,-1549.0717 2906,-1549.0717 2906,-1585.0717"/>
<text text-anchor="middle" x="2815" y="-1563.3717" font-family="Courier,monospace" font-size="14.00" fill="#b6ecf3">hidebound.server.app</text>
</g>
<!-- hidebound.core.tools&#45;&gt;hidebound.server.app -->
<g id="edge23" class="edge">
<title>hidebound.core.tools&#45;&gt;hidebound.server.app</title>
<path fill="none" stroke="#b6ecf3" d="M650.6262,-398.6821C676.725,-373.3998 727.5451,-328.4948 780,-306.0717 858.7915,-272.3903 1455.3114,-181.0717 1541,-181.0717 1541,-181.0717 1541,-181.0717 1800,-181.0717 2312.0773,-181.0717 2178.7882,-698.0903 2449,-1133.0717 2554.9535,-1303.6335 2724.0496,-1477.572 2788.6974,-1541.5031"/>
<polygon fill="#b6ecf3" stroke="#b6ecf3" points="2786.4715,-1544.2233 2796.0522,-1548.7466 2791.3834,-1539.2359 2786.4715,-1544.2233"/>
</g>
<!-- hidebound.core.tools&#45;&gt;hidebound.server.extension -->
<g id="edge24" class="edge">
<title>hidebound.core.tools&#45;&gt;hidebound.server.extension</title>
<path fill="none" stroke="#b6ecf3" d="M686.9807,-399.0701C794.6881,-365.1338 1043.0236,-295.0717 1257.5,-295.0717 1257.5,-295.0717 1257.5,-295.0717 1800,-295.0717 2060.6858,-295.0717 2258.2152,-1278.2756 2292.2832,-1458.7829"/>
<polygon fill="#b6ecf3" stroke="#b6ecf3" points="2288.883,-1459.6412 2294.1655,-1468.8252 2295.7632,-1458.3515 2288.883,-1459.6412"/>
</g>
<!-- hidebound.core.traits&#45;&gt;hidebound.core.specifications -->
<g id="edge25" class="edge">
<title>hidebound.core.traits&#45;&gt;hidebound.core.specifications</title>
<path fill="none" stroke="#b6ecf3" d="M946.0142,-229.2911C976.0453,-255.4543 1031.1009,-306.147 1069,-357.0717 1088.9486,-383.8765 1088.7368,-393.8834 1105,-423.0717 1154.3438,-511.631 1214.1355,-615.8236 1241.9154,-664.0584"/>
<polygon fill="#b6ecf3" stroke="#b6ecf3" points="1239.0068,-666.0209 1247.032,-672.938 1245.0719,-662.526 1239.0068,-666.0209"/>
</g>
<!-- hidebound.core.validators&#45;&gt;hidebound.core.config -->
<g id="edge26" class="edge">
<title>hidebound.core.validators&#45;&gt;hidebound.core.config</title>
<path fill="none" stroke="#b6ecf3" d="M650.0732,-954.8288C675.8981,-929.2899 726.8249,-883.5983 780,-862.0717 896.5822,-814.8762 1255.5639,-785.6 1435.6671,-773.499"/>
<polygon fill="#b6ecf3" stroke="#b6ecf3" points="1435.9422,-776.9885 1445.6873,-772.8311 1435.4766,-770.004 1435.9422,-776.9885"/>
</g>
<!-- hidebound.core.validators&#45;&gt;hidebound.core.specification_base -->
<g id="edge27" class="edge">
<title>hidebound.core.validators&#45;&gt;hidebound.core.specification_base</title>
<path fill="none" stroke="#b6ecf3" d="M660.2982,-954.8219C685.9798,-936.4763 723.2051,-905.8404 744,-870.0717 779.5454,-808.9308 735.8638,-770.3317 780,-715.0717 797.431,-693.2474 823.3538,-677.7836 848.4506,-667.0446"/>
<polygon fill="#b6ecf3" stroke="#b6ecf3" points="850.0649,-670.1665 858.0093,-663.1567 847.4275,-663.6823 850.0649,-670.1665"/>
</g>
<!-- hidebound.core.validators&#45;&gt;hidebound.core.specifications -->
<g id="edge28" class="edge">
<title>hidebound.core.validators&#45;&gt;hidebound.core.specifications</title>
<path fill="none" stroke="#b6ecf3" d="M657.3528,-954.894C681.9093,-935.9277 719.2853,-904.2339 744,-870.0717 766.6163,-838.81 749.8724,-815.178 780,-791.0717 831.5403,-749.8321 997.3332,-721.7397 1119.1445,-706.0729"/>
<polygon fill="#b6ecf3" stroke="#b6ecf3" points="1119.831,-709.5139 1129.31,-704.781 1118.9485,-702.5697 1119.831,-709.5139"/>
</g>
<!-- hidebound.core.validators&#45;&gt;hidebound.exporters.disk_exporter -->
<g id="edge29" class="edge">
<title>hidebound.core.validators&#45;&gt;hidebound.exporters.disk_exporter</title>
<path fill="none" stroke="#b6ecf3" d="M659.3263,-991.1064C687.8348,-1009.0964 734.9297,-1035.5289 780,-1046.0717 912.5507,-1077.0776 1071.1666,-1057.296 1168.0979,-1039.061"/>
<polygon fill="#b6ecf3" stroke="#b6ecf3" points="1168.9912,-1042.4535 1178.1532,-1037.1331 1167.673,-1035.5787 1168.9912,-1042.4535"/>
</g>
<!-- hidebound.core.validators&#45;&gt;hidebound.exporters.exporter_base -->
<g id="edge30" class="edge">
<title>hidebound.core.validators&#45;&gt;hidebound.exporters.exporter_base</title>
<path fill="none" stroke="#b6ecf3" d="M744.1426,-990.6592C762.4301,-993.5401 781.48,-996.5411 800.0541,-999.4672"/>
<polygon fill="#b6ecf3" stroke="#b6ecf3" points="799.5925,-1002.9375 810.0154,-1001.0364 800.6819,-996.0228 799.5925,-1002.9375"/>
</g>
<!-- hidebound.exporters.girder_exporter -->
<g id="node14" class="node">
<title>hidebound.exporters.girder_exporter</title>
<polygon fill="#343434" stroke="#343434" points="1410,-945.0717 1105,-945.0717 1105,-909.0717 1410,-909.0717 1410,-945.0717"/>
<text text-anchor="middle" x="1257.5" y="-923.3717" font-family="Courier,monospace" font-size="14.00" fill="#b6ecf3">hidebound.exporters.girder_exporter</text>
</g>
<!-- hidebound.core.validators&#45;&gt;hidebound.exporters.girder_exporter -->
<g id="edge31" class="edge">
<title>hidebound.core.validators&#45;&gt;hidebound.exporters.girder_exporter</title>
<path fill="none" stroke="#b6ecf3" d="M744.2375,-964.8478C841.7022,-957.6744 984.3498,-947.1755 1094.5398,-939.0655"/>
<polygon fill="#b6ecf3" stroke="#b6ecf3" points="1095.0463,-942.5378 1104.7624,-938.3131 1094.5325,-935.5567 1095.0463,-942.5378"/>
</g>
<!-- hidebound.exporters.s3_exporter -->
<g id="node15" class="node">
<title>hidebound.exporters.s3_exporter</title>
<polygon fill="#343434" stroke="#343434" points="1393.5,-1270.0717 1121.5,-1270.0717 1121.5,-1234.0717 1393.5,-1234.0717 1393.5,-1270.0717"/>
<text text-anchor="middle" x="1257.5" y="-1248.3717" font-family="Courier,monospace" font-size="14.00" fill="#b6ecf3">hidebound.exporters.s3_exporter</text>
</g>
<!-- hidebound.core.validators&#45;&gt;hidebound.exporters.s3_exporter -->
<g id="edge32" class="edge">
<title>hidebound.core.validators&#45;&gt;hidebound.exporters.s3_exporter</title>
<path fill="none" stroke="#b6ecf3" d="M646.7146,-991.2916C670.3589,-1022.4719 717.7573,-1088.8358 744,-1152.0717 770.9421,-1216.9929 724.9306,-1262.391 780,-1306.0717 880.6315,-1385.8919 941.8033,-1323.9316 1069,-1306.0717 1113.5622,-1299.8146 1162.3632,-1285.6215 1199.1441,-1273.3564"/>
<polygon fill="#b6ecf3" stroke="#b6ecf3" points="1200.3542,-1276.6419 1208.7049,-1270.1215 1198.1107,-1270.0112 1200.3542,-1276.6419"/>
</g>
<!-- hidebound.core.validators&#45;&gt;hidebound.server.api -->
<g id="edge33" class="edge">
<title>hidebound.core.validators&#45;&gt;hidebound.server.api</title>
<path fill="none" stroke="#b6ecf3" d="M646.9876,-991.1814C671.0341,-1022.1995 719.0099,-1088.3304 744,-1152.0717 774.8931,-1230.8693 717.9557,-1281.5046 780,-1339.0717 883.3153,-1434.9315 1307.1814,-1315.6793 1410,-1412.0717 1475.2518,-1473.2452 1380.2752,-1549.4066 1446,-1610.0717 1482.4714,-1643.7354 1790.0972,-1660.7534 1953.6537,-1667.4917"/>
<polygon fill="#b6ecf3" stroke="#b6ecf3" points="1953.5998,-1670.9923 1963.7337,-1667.9014 1953.8842,-1663.998 1953.5998,-1670.9923"/>
</g>
<!-- hidebound.exporters.disk_exporter&#45;&gt;hidebound.core.config -->
<g id="edge34" class="edge">
<title>hidebound.exporters.disk_exporter&#45;&gt;hidebound.core.config</title>
<path fill="none" stroke="#b6ecf3" d="M1320.7981,-1001.015C1350.0344,-990.5472 1383.9564,-975.1887 1410,-954.0717 1465.6082,-908.9827 1507.956,-834.4384 1528.0759,-794.4426"/>
<polygon fill="#b6ecf3" stroke="#b6ecf3" points="1531.306,-795.8061 1532.5943,-785.2899 1525.0292,-792.7074 1531.306,-795.8061"/>
</g>
<!-- hidebound.exporters.disk_exporter&#45;&gt;hidebound.core.database -->
<g id="edge35" class="edge">
<title>hidebound.exporters.disk_exporter&#45;&gt;hidebound.core.database</title>
<path fill="none" stroke="#b6ecf3" d="M1271.2043,-1037.2725C1299.4096,-1073.1927 1367.8996,-1152.7718 1446,-1188.0717 1487.7713,-1206.9515 1599.733,-1218.0448 1686.667,-1224.0413"/>
<polygon fill="#b6ecf3" stroke="#b6ecf3" points="1686.6566,-1227.5485 1696.8696,-1224.7298 1687.1279,-1220.5643 1686.6566,-1227.5485"/>
</g>
<!-- hidebound.exporters.exporter_base&#45;&gt;hidebound.exporters.disk_exporter -->
<g id="edge36" class="edge">
<title>hidebound.exporters.exporter_base&#45;&gt;hidebound.exporters.disk_exporter</title>
<path fill="none" stroke="#b6ecf3" d="M1069.1058,-1019.0717C1080.1925,-1019.0717 1091.411,-1019.0717 1102.56,-1019.0717"/>
<polygon fill="#b6ecf3" stroke="#b6ecf3" points="1102.7737,-1022.5718 1112.7736,-1019.0717 1102.7736,-1015.5718 1102.7737,-1022.5718"/>
</g>
<!-- hidebound.exporters.exporter_base&#45;&gt;hidebound.exporters.girder_exporter -->
<g id="edge37" class="edge">
<title>hidebound.exporters.exporter_base&#45;&gt;hidebound.exporters.girder_exporter</title>
<path fill="none" stroke="#b6ecf3" d="M1011.9191,-1001.0441C1030.8204,-996.7754 1050.6401,-992.0158 1069,-987.0717 1111.6186,-975.5949 1158.9523,-960.5201 1195.5264,-948.3521"/>
<polygon fill="#b6ecf3" stroke="#b6ecf3" points="1196.6881,-951.6542 1205.0626,-945.1643 1194.4688,-945.0153 1196.6881,-951.6542"/>
</g>
<!-- hidebound.exporters.exporter_base&#45;&gt;hidebound.exporters.s3_exporter -->
<g id="edge38" class="edge">
<title>hidebound.exporters.exporter_base&#45;&gt;hidebound.exporters.s3_exporter</title>
<path fill="none" stroke="#b6ecf3" d="M969.4352,-1037.1974C998.8146,-1049.9133 1037.4483,-1068.3076 1069,-1089.0717 1132.6703,-1130.9729 1197.9803,-1192.3993 1232.5188,-1226.6325"/>
<polygon fill="#b6ecf3" stroke="#b6ecf3" points="1230.2628,-1229.3259 1239.8132,-1233.9129 1235.2078,-1224.3714 1230.2628,-1229.3259"/>
</g>
<!-- hidebound.exporters.girder_exporter&#45;&gt;hidebound.core.config -->
<g id="edge39" class="edge">
<title>hidebound.exporters.girder_exporter&#45;&gt;hidebound.core.config</title>
<path fill="none" stroke="#b6ecf3" d="M1289.47,-909.0286C1341.1534,-879.8599 1443.0061,-822.3769 1499.9696,-790.2282"/>
<polygon fill="#b6ecf3" stroke="#b6ecf3" points="1501.7234,-793.2574 1508.7119,-785.2942 1498.2828,-787.1612 1501.7234,-793.2574"/>
</g>
<!-- hidebound.exporters.girder_exporter&#45;&gt;hidebound.core.database -->
<g id="edge40" class="edge">
<title>hidebound.exporters.girder_exporter&#45;&gt;hidebound.core.database</title>
<path fill="none" stroke="#b6ecf3" d="M1410.2382,-944.3773C1483.0562,-958.0633 1568.7291,-982.5011 1636,-1026.0717 1706.8899,-1071.9862 1761.2905,-1158.7614 1785.7782,-1202.8634"/>
<polygon fill="#b6ecf3" stroke="#b6ecf3" points="1782.8185,-1204.7466 1790.6801,-1211.8492 1788.9636,-1201.3943 1782.8185,-1204.7466"/>
</g>
<!-- hidebound.exporters.s3_exporter&#45;&gt;hidebound.core.config -->
<g id="edge41" class="edge">
<title>hidebound.exporters.s3_exporter&#45;&gt;hidebound.core.config</title>
<path fill="none" stroke="#b6ecf3" d="M1272.8905,-1233.9119C1301.9922,-1199.0396 1366.0987,-1119.6235 1410,-1046.0717 1462.4515,-958.1949 1509.646,-845.9046 1530.1643,-794.7232"/>
<polygon fill="#b6ecf3" stroke="#b6ecf3" points="1533.458,-795.9124 1533.9059,-785.3271 1526.9546,-793.3227 1533.458,-795.9124"/>
</g>
<!-- hidebound.exporters.s3_exporter&#45;&gt;hidebound.core.database -->
<g id="edge42" class="edge">
<title>hidebound.exporters.s3_exporter&#45;&gt;hidebound.core.database</title>
<path fill="none" stroke="#b6ecf3" d="M1348.9293,-1270.1176C1425.8514,-1282.6057 1538.5688,-1294.594 1636,-1280.0717 1672.7936,-1274.5875 1712.748,-1262.5418 1744.0084,-1251.648"/>
<polygon fill="#b6ecf3" stroke="#b6ecf3" points="1745.5829,-1254.8032 1753.8374,-1248.1613 1743.2426,-1248.206 1745.5829,-1254.8032"/>
</g>
<!-- hidebound.server.api&#45;&gt;hidebound.server.extension -->
<g id="edge43" class="edge">
<title>hidebound.server.api&#45;&gt;hidebound.server.extension</title>
<path fill="none" stroke="#b6ecf3" d="M2071.8919,-1652.6848C2095.1702,-1627.9726 2139.116,-1583.5195 2182,-1552.0717 2203.5933,-1536.2368 2229.4227,-1521.3663 2251.1746,-1509.8557"/>
<polygon fill="#b6ecf3" stroke="#b6ecf3" points="2252.9757,-1512.8637 2260.2229,-1505.1352 2249.738,-1506.6575 2252.9757,-1512.8637"/>
</g>
<!-- hidebound.server.components -->
<g id="node18" class="node">
<title>hidebound.server.components</title>
<polygon fill="#343434" stroke="#343434" points="1919.5,-1953.0717 1680.5,-1953.0717 1680.5,-1917.0717 1919.5,-1917.0717 1919.5,-1953.0717"/>
<text text-anchor="middle" x="1800" y="-1931.3717" font-family="Courier,monospace" font-size="14.00" fill="#b6ecf3">hidebound.server.components</text>
</g>
<!-- hidebound.server.components&#45;&gt;hidebound.server.app -->
<g id="edge44" class="edge">
<title>hidebound.server.components&#45;&gt;hidebound.server.app</title>
<path fill="none" stroke="#b6ecf3" d="M1919.5689,-1919.7897C2097.1235,-1893.092 2436.542,-1826.4233 2688,-1682.0717 2729.6129,-1658.1834 2769.2096,-1618.7385 2792.8082,-1592.8274"/>
<polygon fill="#b6ecf3" stroke="#b6ecf3" points="2795.5308,-1595.0338 2799.6028,-1585.2527 2790.32,-1590.3596 2795.5308,-1595.0338"/>
</g>
<!-- hidebound.server.extensions -->
<g id="node20" class="node">
<title>hidebound.server.extensions</title>
<polygon fill="#343434" stroke="#343434" points="2688,-1620.0717 2449,-1620.0717 2449,-1584.0717 2688,-1584.0717 2688,-1620.0717"/>
<text text-anchor="middle" x="2568.5" y="-1598.3717" font-family="Courier,monospace" font-size="14.00" fill="#b6ecf3">hidebound.server.extensions</text>
</g>
<!-- hidebound.server.extension&#45;&gt;hidebound.server.extensions -->
<g id="edge45" class="edge">
<title>hidebound.server.extension&#45;&gt;hidebound.server.extensions</title>
<path fill="none" stroke="#b6ecf3" d="M2340.1419,-1505.1669C2387.8519,-1525.4129 2465.1558,-1558.2171 2516.4063,-1579.9655"/>
<polygon fill="#b6ecf3" stroke="#b6ecf3" points="2515.087,-1583.2077 2525.6597,-1583.8922 2517.8215,-1576.7639 2515.087,-1583.2077"/>
</g>
<!-- hidebound.server.extensions&#45;&gt;hidebound.server.api -->
<g id="edge46" class="edge">
<title>hidebound.server.extensions&#45;&gt;hidebound.server.api</title>
<path fill="none" stroke="#b6ecf3" d="M2501.9543,-1620.1395C2474.5795,-1626.9865 2442.4439,-1634.2785 2413,-1639.0717 2327.1471,-1653.0476 2228.646,-1661.2911 2156.7253,-1665.9013"/>
<polygon fill="#b6ecf3" stroke="#b6ecf3" points="2156.0725,-1662.4353 2146.3116,-1666.5554 2156.5114,-1669.4215 2156.0725,-1662.4353"/>
</g>
<!-- hidebound.server.extensions&#45;&gt;hidebound.server.app -->
<g id="edge47" class="edge">
<title>hidebound.server.extensions&#45;&gt;hidebound.server.app</title>
<path fill="none" stroke="#b6ecf3" d="M2688.1396,-1585.0843C2696.7799,-1583.8575 2705.4438,-1582.6273 2713.9613,-1581.4179"/>
<polygon fill="#b6ecf3" stroke="#b6ecf3" points="2714.4741,-1584.8803 2723.8828,-1580.0092 2713.49,-1577.9498 2714.4741,-1584.8803"/>
</g>
<!-- hidebound.server.server_tools&#45;&gt;hidebound.server.api -->
<g id="edge48" class="edge">
<title>hidebound.server.server_tools&#45;&gt;hidebound.server.api</title>
<path fill="none" stroke="#b6ecf3" d="M1845.7118,-1862.9871C1871.3106,-1851.6442 1903.0078,-1835.4954 1928,-1816.0717 1972.9224,-1781.1583 2014.1914,-1728.6648 2036.8461,-1697.3408"/>
<polygon fill="#b6ecf3" stroke="#b6ecf3" points="2039.7679,-1699.2718 2042.7299,-1689.0994 2034.0708,-1695.2045 2039.7679,-1699.2718"/>
</g>
<!-- hidebound.server.server_tools&#45;&gt;hidebound.server.app -->
<g id="edge49" class="edge">
<title>hidebound.server.server_tools&#45;&gt;hidebound.server.app</title>
<path fill="none" stroke="#b6ecf3" d="M1881.7669,-1863.0146C2040.1731,-1826.9133 2398.7469,-1739.7124 2688,-1629.0717 2717.1599,-1617.9179 2748.7082,-1602.5345 2773.0665,-1589.8818"/>
<polygon fill="#b6ecf3" stroke="#b6ecf3" points="2774.7998,-1592.925 2782.0301,-1585.1807 2771.5485,-1586.7258 2774.7998,-1592.925"/>
</g>
<!-- dash -->
<g id="node22" class="node">
<title>dash</title>
<polygon fill="#343434" stroke="#343434" points="1568,-2207.0717 1514,-2207.0717 1514,-2171.0717 1568,-2171.0717 1568,-2207.0717"/>
<text text-anchor="middle" x="1541" y="-2185.3717" font-family="Courier,monospace" font-size="14.00" fill="#de958e">dash</text>
</g>
<!-- dash&#45;&gt;hidebound.server.app -->
<g id="edge50" class="edge">
<title>dash&#45;&gt;hidebound.server.app</title>
<path fill="none" stroke="#de958e" d="M1568.0282,-2188.7132C1644.4625,-2187.7314 1868.714,-2185.0717 2055,-2185.0717 2055,-2185.0717 2055,-2185.0717 2297.5,-2185.0717 2490.8994,-2185.0717 2569.2107,-2145.6902 2688,-1993.0717 2785.3893,-1867.9474 2808.258,-1669.2787 2813.492,-1595.703"/>
<polygon fill="#de958e" stroke="#de958e" points="2817.0065,-1595.5949 2814.1664,-1585.3879 2810.0214,-1595.1382 2817.0065,-1595.5949"/>
</g>
<!-- dash&#45;&gt;hidebound.server.components -->
<g id="edge51" class="edge">
<title>dash&#45;&gt;hidebound.server.components</title>
<path fill="none" stroke="#de958e" d="M1568.0277,-2186.2237C1588.2463,-2183.0092 1615.777,-2176.2369 1636,-2162.0717 1711.4414,-2109.2285 1765.0389,-2010.2806 1787.8076,-1962.4054"/>
<polygon fill="#de958e" stroke="#de958e" points="1791.0137,-1963.8114 1792.0715,-1953.2695 1784.6706,-1960.8509 1791.0137,-1963.8114"/>
</g>
<!-- dash_cytoscape -->
<g id="node23" class="node">
<title>dash_cytoscape</title>
<polygon fill="#343434" stroke="#343434" points="1607,-2099.0717 1475,-2099.0717 1475,-2063.0717 1607,-2063.0717 1607,-2099.0717"/>
<text text-anchor="middle" x="1541" y="-2077.3717" font-family="Courier,monospace" font-size="14.00" fill="#de958e">dash_cytoscape</text>
</g>
<!-- dash_cytoscape&#45;&gt;hidebound.server.components -->
<g id="edge52" class="edge">
<title>dash_cytoscape&#45;&gt;hidebound.server.components</title>
<path fill="none" stroke="#de958e" d="M1607.2888,-2066.7595C1617.7359,-2062.3497 1627.7823,-2056.5904 1636,-2049.0717 1665.3655,-2022.2041 1641.5845,-1992.7445 1672,-1967.0717 1676,-1963.6954 1680.3058,-1960.6669 1684.8309,-1957.951"/>
<polygon fill="#de958e" stroke="#de958e" points="1686.654,-1960.944 1693.7806,-1953.1042 1683.3206,-1954.7887 1686.654,-1960.944"/>
</g>
<!-- dash.dependencies -->
<g id="node24" class="node">
<title>dash.dependencies</title>
<polygon fill="#343434" stroke="#343434" points="2647,-1124.0717 2490,-1124.0717 2490,-1088.0717 2647,-1088.0717 2647,-1124.0717"/>
<text text-anchor="middle" x="2568.5" y="-1102.3717" font-family="Courier,monospace" font-size="14.00" fill="#de958e">dash.dependencies</text>
</g>
<!-- dash.dependencies&#45;&gt;hidebound.server.app -->
<g id="edge53" class="edge">
<title>dash.dependencies&#45;&gt;hidebound.server.app</title>
<path fill="none" stroke="#de958e" d="M2647.1742,-1114.9778C2662.2268,-1119.8283 2676.7694,-1127.1313 2688,-1138.0717 2747.0918,-1195.6367 2795.558,-1453.0304 2810.3483,-1539.0063"/>
<polygon fill="#de958e" stroke="#de958e" points="2806.9323,-1539.7964 2812.0594,-1549.0681 2813.8332,-1538.6228 2806.9323,-1539.7964"/>
</g>
<!-- dash.exceptions -->
<g id="node25" class="node">
<title>dash.exceptions</title>
<polygon fill="#343434" stroke="#343434" points="2638.5,-1070.0717 2498.5,-1070.0717 2498.5,-1034.0717 2638.5,-1034.0717 2638.5,-1070.0717"/>
<text text-anchor="middle" x="2568.5" y="-1048.3717" font-family="Courier,monospace" font-size="14.00" fill="#de958e">dash.exceptions</text>
</g>
<!-- dash.exceptions&#45;&gt;hidebound.server.app -->
<g id="edge54" class="edge">
<title>dash.exceptions&#45;&gt;hidebound.server.app</title>
<path fill="none" stroke="#de958e" d="M2638.5943,-1055.0083C2656.6452,-1058.9596 2674.7052,-1066.2006 2688,-1079.0717 2755.6865,-1144.6007 2799.3283,-1444.8806 2811.5126,-1538.8663"/>
<polygon fill="#de958e" stroke="#de958e" points="2808.0723,-1539.5567 2812.8115,-1549.0325 2815.0158,-1538.6695 2808.0723,-1539.5567"/>
</g>
<!-- flask_monitoringdashboard -->
<g id="node26" class="node">
<title>flask_monitoringdashboard</title>
<polygon fill="#343434" stroke="#343434" points="2680,-1016.0717 2457,-1016.0717 2457,-980.0717 2680,-980.0717 2680,-1016.0717"/>
<text text-anchor="middle" x="2568.5" y="-994.3717" font-family="Courier,monospace" font-size="14.00" fill="#de958e">flask_monitoringdashboard</text>
</g>
<!-- flask_monitoringdashboard&#45;&gt;hidebound.server.app -->
<g id="edge55" class="edge">
<title>flask_monitoringdashboard&#45;&gt;hidebound.server.app</title>
<path fill="none" stroke="#de958e" d="M2677.1777,-1016.2473C2681.0446,-1018.8475 2684.6781,-1021.7761 2688,-1025.0717 2762.5557,-1099.0366 2802.0542,-1438.0442 2812.2856,-1538.7711"/>
<polygon fill="#de958e" stroke="#de958e" points="2808.8115,-1539.2056 2813.2878,-1548.8083 2815.7769,-1538.5101 2808.8115,-1539.2056"/>
</g>
<!-- hidebound.server -->
<g id="node27" class="node">
<title>hidebound.server</title>
<polygon fill="#343434" stroke="#343434" points="1615.5,-2153.0717 1466.5,-2153.0717 1466.5,-2117.0717 1615.5,-2117.0717 1615.5,-2153.0717"/>
<text text-anchor="middle" x="1541" y="-2131.3717" font-family="Courier,monospace" font-size="14.00" fill="#a0d17b">hidebound.server</text>
</g>
<!-- hidebound.server&#45;&gt;hidebound.server.api -->
<g id="edge56" class="edge">
<title>hidebound.server&#45;&gt;hidebound.server.api</title>
<path fill="none" stroke="#a0d17b" d="M1615.8422,-2121.519C1623.2216,-2118.006 1630.1351,-2113.5985 1636,-2108.0717 1671.292,-2074.8139 1634.9254,-2036.3299 1672,-2005.0717 1760.2051,-1930.7044 1837.0594,-2033.0676 1928,-1962.0717 2013.6938,-1895.1719 2042.7273,-1758.6354 2051.542,-1699.4666"/>
<polygon fill="#a0d17b" stroke="#a0d17b" points="2055.0374,-1699.7425 2052.9616,-1689.3531 2048.1054,-1698.7694 2055.0374,-1699.7425"/>
</g>
<!-- hidebound.server&#45;&gt;hidebound.server.app -->
<g id="edge57" class="edge">
<title>hidebound.server&#45;&gt;hidebound.server.app</title>
<path fill="none" stroke="#a0d17b" d="M1615.9033,-2136.9675C1715.9736,-2139.3333 1898.8179,-2143.0717 2055,-2143.0717 2055,-2143.0717 2055,-2143.0717 2297.5,-2143.0717 2596.0035,-2143.0717 2766.0141,-1709.7228 2805.8586,-1594.7782"/>
<polygon fill="#a0d17b" stroke="#a0d17b" points="2809.1889,-1595.8561 2809.1105,-1585.2615 2802.5649,-1593.5926 2809.1889,-1595.8561"/>
</g>
<!-- hidebound.server&#45;&gt;hidebound.server.components -->
<g id="edge58" class="edge">
<title>hidebound.server&#45;&gt;hidebound.server.components</title>
<path fill="none" stroke="#a0d17b" d="M1615.8636,-2122.2431C1623.3315,-2118.6042 1630.2593,-2113.9691 1636,-2108.0717 1681.1136,-2061.7265 1626.1523,-2012.6907 1672,-1967.0717 1675.1054,-1963.9817 1678.4612,-1961.1749 1682.0127,-1958.626"/>
<polygon fill="#a0d17b" stroke="#a0d17b" points="1684.0766,-1961.4611 1690.6288,-1953.1353 1680.3146,-1955.5579 1684.0766,-1961.4611"/>
</g>
<!-- hidebound.server&#45;&gt;hidebound.server.extension -->
<g id="edge59" class="edge">
<title>hidebound.server&#45;&gt;hidebound.server.extension</title>
<path fill="none" stroke="#a0d17b" d="M1615.9096,-2120.0579C1623.1027,-2116.8138 1629.9568,-2112.8689 1636,-2108.0717 1661.8651,-2087.5396 1645.1495,-2062.2972 1672,-2043.0717 1765.9904,-1975.7726 1826.3343,-2052.0938 1928,-1997.0717 2052.1502,-1929.8808 2083.1325,-1892.4662 2146,-1766.0717 2188.9523,-1679.7165 2126.5562,-1630.99 2182,-1552.0717 2195.0189,-1533.5406 2215.1003,-1519.6506 2234.889,-1509.5722"/>
<polygon fill="#a0d17b" stroke="#a0d17b" points="2236.4494,-1512.7055 2243.9341,-1505.2069 2233.4068,-1506.4013 2236.4494,-1512.7055"/>
</g>
<!-- hidebound.server&#45;&gt;hidebound.server.extensions -->
<g id="edge60" class="edge">
<title>hidebound.server&#45;&gt;hidebound.server.extensions</title>
<path fill="none" stroke="#a0d17b" d="M1615.627,-2123.5377C1695.5321,-2109.3955 1824.7561,-2081.2944 1928,-2034.0717 2174.309,-1921.4125 2217.1384,-1852.1503 2413,-1665.0717 2430.2956,-1648.5516 2428.1737,-1636.8324 2449,-1625.0717 2449.1955,-1624.9613 2449.3914,-1624.8514 2449.5877,-1624.7421"/>
<polygon fill="#a0d17b" stroke="#a0d17b" points="2451.3287,-1627.7842 2458.6885,-1620.1629 2448.1824,-1621.5311 2451.3287,-1627.7842"/>
</g>
<!-- hidebound.server&#45;&gt;hidebound.server.server_tools -->
<g id="edge61" class="edge">
<title>hidebound.server&#45;&gt;hidebound.server.server_tools</title>
<path fill="none" stroke="#a0d17b" d="M1615.8279,-2122.8747C1623.3983,-2119.1311 1630.3598,-2114.2987 1636,-2108.0717 1696.632,-2041.1314 1609.0945,-1972.8801 1672,-1908.0717 1672.8107,-1907.2365 1673.6402,-1906.4239 1674.4875,-1905.6333"/>
<polygon fill="#a0d17b" stroke="#a0d17b" points="1676.9914,-1908.1096 1682.5635,-1899.0984 1672.5881,-1902.668 1676.9914,-1908.1096"/>
</g>
<!-- rolling_pin.blob_etl -->
<g id="node28" class="node">
<title>rolling_pin.blob_etl</title>
<polygon fill="#343434" stroke="#343434" points="1632,-2007.0717 1450,-2007.0717 1450,-1971.0717 1632,-1971.0717 1632,-2007.0717"/>
<text text-anchor="middle" x="1541" y="-1985.3717" font-family="Courier,monospace" font-size="14.00" fill="#de958e">rolling_pin.blob_etl</text>
</g>
<!-- rolling_pin.blob_etl&#45;&gt;hidebound.server.components -->
<g id="edge62" class="edge">
<title>rolling_pin.blob_etl&#45;&gt;hidebound.server.components</title>
<path fill="none" stroke="#de958e" d="M1627.6033,-1971.0154C1652.0102,-1965.9267 1678.7088,-1960.3602 1703.6489,-1955.1603"/>
<polygon fill="#de958e" stroke="#de958e" points="1704.4032,-1958.5784 1713.4783,-1953.1109 1702.9744,-1951.7257 1704.4032,-1958.5784"/>
</g>
<!-- rolling_pin.blob_etl&#45;&gt;hidebound.server.server_tools -->
<g id="edge63" class="edge">
<title>rolling_pin.blob_etl&#45;&gt;hidebound.server.server_tools</title>
<path fill="none" stroke="#de958e" d="M1621.2622,-1970.8889C1626.4552,-1968.3268 1631.4275,-1965.4045 1636,-1962.0717 1659.3096,-1945.0816 1648.1181,-1924.2474 1672,-1908.0717 1674.1801,-1906.595 1676.4252,-1905.1968 1678.7251,-1903.8729"/>
<polygon fill="#de958e" stroke="#de958e" points="1680.5906,-1906.8476 1687.8452,-1899.126 1677.3588,-1900.6383 1680.5906,-1906.8476"/>
</g>
<!-- flask -->
<g id="node29" class="node">
<title>flask</title>
<polygon fill="#343434" stroke="#343434" points="1570,-1823.0717 1512,-1823.0717 1512,-1787.0717 1570,-1787.0717 1570,-1823.0717"/>
<text text-anchor="middle" x="1541" y="-1801.3717" font-family="Courier,monospace" font-size="14.00" fill="#de958e">flask</text>
</g>
<!-- flask&#45;&gt;hidebound.server.api -->
<g id="edge64" class="edge">
<title>flask&#45;&gt;hidebound.server.api</title>
<path fill="none" stroke="#de958e" d="M1570.2122,-1795.2242C1605.6571,-1783.3163 1661.9484,-1764.5505 1672,-1762.0717 1784.0156,-1734.447 1816.6221,-1749.1645 1928,-1719.0717 1953.4855,-1712.1858 1980.9798,-1702.1376 2003.8471,-1693.012"/>
<polygon fill="#de958e" stroke="#de958e" points="2005.3874,-1696.1645 2013.3447,-1689.1695 2002.762,-1689.6755 2005.3874,-1696.1645"/>
</g>
<!-- flask&#45;&gt;hidebound.server.app -->
<g id="edge65" class="edge">
<title>flask&#45;&gt;hidebound.server.app</title>
<path fill="none" stroke="#de958e" d="M1570.1092,-1792.661C1591.7099,-1781.9165 1620.072,-1764.2784 1636,-1740.0717 1681.8037,-1670.4612 1609.2865,-1610.9407 1672,-1556.0717 1736.1707,-1499.9277 1969.7356,-1533.0717 2055,-1533.0717 2055,-1533.0717 2055,-1533.0717 2297.5,-1533.0717 2442.3634,-1533.0717 2609.5471,-1546.5015 2713.775,-1556.4802"/>
<polygon fill="#de958e" stroke="#de958e" points="2713.6846,-1559.9877 2723.9747,-1557.465 2714.3574,-1553.0201 2713.6846,-1559.9877"/>
</g>
<!-- flask&#45;&gt;hidebound.server.components -->
<g id="edge66" class="edge">
<title>flask&#45;&gt;hidebound.server.components</title>
<path fill="none" stroke="#de958e" d="M1558.6735,-1823.446C1582.264,-1846.8368 1626.3926,-1886.7621 1672,-1908.0717 1676.1634,-1910.017 1680.4684,-1911.8235 1684.8664,-1913.5009"/>
<polygon fill="#de958e" stroke="#de958e" points="1684.0299,-1916.9181 1694.6246,-1916.9708 1686.3752,-1910.3226 1684.0299,-1916.9181"/>
</g>
<!-- flask&#45;&gt;hidebound.server.extension -->
<g id="edge67" class="edge">
<title>flask&#45;&gt;hidebound.server.extension</title>
<path fill="none" stroke="#de958e" d="M1570.2362,-1811.2537C1635.5957,-1823.924 1798.0114,-1848.9952 1928,-1816.0717 2034.7996,-1789.0214 2078.6075,-1785.2274 2146,-1698.0717 2186.8815,-1645.2014 2141.5552,-1605.2768 2182,-1552.0717 2195.9468,-1533.7246 2216.6607,-1519.7842 2236.7113,-1509.6106"/>
<polygon fill="#de958e" stroke="#de958e" points="2238.3663,-1512.6983 2245.8505,-1505.1991 2235.3233,-1506.3943 2238.3663,-1512.6983"/>
</g>
<!-- flask&#45;&gt;hidebound.server.server_tools -->
<g id="edge68" class="edge">
<title>flask&#45;&gt;hidebound.server.server_tools</title>
<path fill="none" stroke="#de958e" d="M1570.3191,-1814.9512C1608.152,-1827.6951 1669.4598,-1848.3288 1672,-1849.0717 1685.3569,-1852.9778 1699.5832,-1856.8322 1713.5139,-1860.4394"/>
<polygon fill="#de958e" stroke="#de958e" points="1713.033,-1863.9291 1723.5887,-1863.0195 1714.7697,-1857.148 1713.033,-1863.9291"/>
</g>
<!-- jinja2 -->
<g id="node30" class="node">
<title>jinja2</title>
<polygon fill="#343434" stroke="#343434" points="1574,-1953.0717 1508,-1953.0717 1508,-1917.0717 1574,-1917.0717 1574,-1953.0717"/>
<text text-anchor="middle" x="1541" y="-1931.3717" font-family="Courier,monospace" font-size="14.00" fill="#de958e">jinja2</text>
</g>
<!-- jinja2&#45;&gt;hidebound.server.server_tools -->
<g id="edge69" class="edge">
<title>jinja2&#45;&gt;hidebound.server.server_tools</title>
<path fill="none" stroke="#de958e" d="M1574.0656,-1928.1777C1606.6542,-1921.3831 1658.0395,-1910.6696 1703.5765,-1901.1754"/>
<polygon fill="#de958e" stroke="#de958e" points="1704.4211,-1904.5746 1713.4962,-1899.1072 1702.9923,-1897.722 1704.4211,-1904.5746"/>
</g>
<!-- flask_healthz -->
<g id="node31" class="node">
<title>flask_healthz</title>
<polygon fill="#343434" stroke="#343434" points="2359.5,-1597.0717 2235.5,-1597.0717 2235.5,-1561.0717 2359.5,-1561.0717 2359.5,-1597.0717"/>
<text text-anchor="middle" x="2297.5" y="-1575.3717" font-family="Courier,monospace" font-size="14.00" fill="#de958e">flask_healthz</text>
</g>
<!-- flask_healthz&#45;&gt;hidebound.server.extensions -->
<g id="edge70" class="edge">
<title>flask_healthz&#45;&gt;hidebound.server.extensions</title>
<path fill="none" stroke="#de958e" d="M2359.6729,-1584.3483C2383.263,-1586.3504 2411.0964,-1588.7127 2438.6201,-1591.0486"/>
<polygon fill="#de958e" stroke="#de958e" points="2438.4777,-1594.5491 2448.7379,-1591.9074 2439.0698,-1587.5741 2438.4777,-1594.5491"/>
</g>
<!-- requests -->
<g id="node32" class="node">
<title>requests</title>
<polygon fill="#343434" stroke="#343434" points="1582.5,-1731.0717 1499.5,-1731.0717 1499.5,-1695.0717 1582.5,-1695.0717 1582.5,-1731.0717"/>
<text text-anchor="middle" x="1541" y="-1709.3717" font-family="Courier,monospace" font-size="14.00" fill="#de958e">requests</text>
</g>
<!-- requests&#45;&gt;hidebound.core.database -->
<g id="edge71" class="edge">
<title>requests&#45;&gt;hidebound.core.database</title>
<path fill="none" stroke="#de958e" d="M1561.9311,-1694.7481C1582.9633,-1675.4256 1615.167,-1643.2372 1636,-1610.0717 1659.1354,-1573.2409 1655.1898,-1559.1861 1672,-1519.0717 1712.5615,-1422.2792 1763.957,-1308.8133 1787.361,-1257.6077"/>
<polygon fill="#de958e" stroke="#de958e" points="1790.6784,-1258.7696 1791.6571,-1248.2201 1784.3132,-1255.8567 1790.6784,-1258.7696"/>
</g>
<!-- requests&#45;&gt;hidebound.server.server_tools -->
<g id="edge72" class="edge">
<title>requests&#45;&gt;hidebound.server.server_tools</title>
<path fill="none" stroke="#de958e" d="M1570.8509,-1731.174C1590.1782,-1743.4448 1615.4744,-1760.5633 1636,-1778.0717 1653.6998,-1793.1697 1653.3557,-1802.1568 1672,-1816.0717 1694.6585,-1832.9824 1722.3704,-1847.6695 1746.2076,-1858.7831"/>
<polygon fill="#de958e" stroke="#de958e" points="1744.9245,-1862.0448 1755.4746,-1863.0167 1747.8333,-1855.6777 1744.9245,-1862.0448"/>
</g>
<!-- lunchbox.enforce -->
<g id="node33" class="node">
<title>lunchbox.enforce</title>
<polygon fill="#343434" stroke="#343434" points="1615.5,-1271.0717 1466.5,-1271.0717 1466.5,-1235.0717 1615.5,-1235.0717 1615.5,-1271.0717"/>
<text text-anchor="middle" x="1541" y="-1249.3717" font-family="Courier,monospace" font-size="14.00" fill="#de958e">lunchbox.enforce</text>
</g>
<!-- lunchbox.enforce&#45;&gt;hidebound.core.database -->
<g id="edge73" class="edge">
<title>lunchbox.enforce&#45;&gt;hidebound.core.database</title>
<path fill="none" stroke="#de958e" d="M1615.5661,-1246.45C1637.6646,-1244.4875 1662.383,-1242.2925 1686.3645,-1240.1628"/>
<polygon fill="#de958e" stroke="#de958e" points="1686.9362,-1243.6259 1696.5874,-1239.255 1686.317,-1236.6534 1686.9362,-1243.6259"/>
</g>
<!-- yaml -->
<g id="node34" class="node">
<title>yaml</title>
<polygon fill="#343434" stroke="#343434" points="1568,-1601.0717 1514,-1601.0717 1514,-1565.0717 1568,-1565.0717 1568,-1601.0717"/>
<text text-anchor="middle" x="1541" y="-1579.3717" font-family="Courier,monospace" font-size="14.00" fill="#de958e">yaml</text>
</g>
<!-- yaml&#45;&gt;hidebound.core.database -->
<g id="edge74" class="edge">
<title>yaml&#45;&gt;hidebound.core.database</title>
<path fill="none" stroke="#de958e" d="M1568.4061,-1579.641C1589.0913,-1575.7916 1617.0524,-1567.7391 1636,-1551.0717 1663.4615,-1526.915 1655.5846,-1509.7552 1672,-1477.0717 1712.3742,-1396.6853 1761.7537,-1302.5255 1785.6639,-1257.1844"/>
<polygon fill="#de958e" stroke="#de958e" points="1788.795,-1258.7502 1790.367,-1248.2726 1782.6042,-1255.4829 1788.795,-1258.7502"/>
</g>
<!-- yaml&#45;&gt;hidebound.server.extension -->
<g id="edge75" class="edge">
<title>yaml&#45;&gt;hidebound.server.extension</title>
<path fill="none" stroke="#de958e" d="M1568.0218,-1577.0649C1587.7332,-1571.9638 1614.6248,-1563.4747 1636,-1551.0717 1654.5159,-1540.3277 1652.1911,-1527.1882 1672,-1519.0717 1834.7834,-1452.3721 2041.6358,-1457.1967 2171.8423,-1469.7819"/>
<polygon fill="#de958e" stroke="#de958e" points="2171.5628,-1473.2713 2181.8606,-1470.7802 2172.257,-1466.3058 2171.5628,-1473.2713"/>
</g>
<!-- yaml&#45;&gt;hidebound.server.server_tools -->
<g id="edge76" class="edge">
<title>yaml&#45;&gt;hidebound.server.server_tools</title>
<path fill="none" stroke="#de958e" d="M1563.0771,-1601.3113C1584.7014,-1620.3258 1617.081,-1652.0564 1636,-1686.0717 1665.1409,-1738.4652 1634.045,-1769.6638 1672,-1816.0717 1687.4631,-1834.9785 1709.8451,-1848.9352 1731.5826,-1858.961"/>
<polygon fill="#de958e" stroke="#de958e" points="1730.2735,-1862.2087 1740.8372,-1863.0201 1733.0852,-1855.7982 1730.2735,-1862.2087"/>
</g>
<!-- flasgger -->
<g id="node35" class="node">
<title>flasgger</title>
<polygon fill="#343434" stroke="#343434" points="1841.5,-1601.0717 1758.5,-1601.0717 1758.5,-1565.0717 1841.5,-1565.0717 1841.5,-1601.0717"/>
<text text-anchor="middle" x="1800" y="-1579.3717" font-family="Courier,monospace" font-size="14.00" fill="#de958e">flasgger</text>
</g>
<!-- flasgger&#45;&gt;hidebound.server.api -->
<g id="edge77" class="edge">
<title>flasgger&#45;&gt;hidebound.server.api</title>
<path fill="none" stroke="#de958e" d="M1841.5384,-1589.7122C1867.1815,-1594.714 1900.3486,-1602.8395 1928,-1615.0717 1945.5858,-1622.8511 1946.7956,-1630.4818 1964,-1639.0717 1971.4307,-1642.7817 1979.3976,-1646.2552 1987.4141,-1649.4446"/>
<polygon fill="#de958e" stroke="#de958e" points="1986.2282,-1652.7384 1996.8183,-1653.0554 1988.7373,-1646.2035 1986.2282,-1652.7384"/>
</g>
<!-- flasgger&#45;&gt;hidebound.server.extensions -->
<g id="edge78" class="edge">
<title>flasgger&#45;&gt;hidebound.server.extensions</title>
<path fill="none" stroke="#de958e" d="M1841.5099,-1586.3913C1911.6187,-1591.8139 2057.9802,-1602.3415 2182,-1606.0717 2284.6203,-1609.1582 2310.3418,-1607.3918 2413,-1606.0717 2421.3457,-1605.9643 2429.9427,-1605.8246 2438.6087,-1605.6619"/>
<polygon fill="#de958e" stroke="#de958e" points="2438.8736,-1609.1575 2448.8026,-1605.4609 2438.7355,-1602.1588 2438.8736,-1609.1575"/>
</g>
<!-- werkzeug.exceptions -->
<g id="node36" class="node">
<title>werkzeug.exceptions</title>
<polygon fill="#343434" stroke="#343434" points="1886.5,-1807.0717 1713.5,-1807.0717 1713.5,-1771.0717 1886.5,-1771.0717 1886.5,-1807.0717"/>
<text text-anchor="middle" x="1800" y="-1785.3717" font-family="Courier,monospace" font-size="14.00" fill="#de958e">werkzeug.exceptions</text>
</g>
<!-- werkzeug.exceptions&#45;&gt;hidebound.server.api -->
<g id="edge79" class="edge">
<title>werkzeug.exceptions&#45;&gt;hidebound.server.api</title>
<path fill="none" stroke="#de958e" d="M1886.7733,-1771.7726C1900.8392,-1767.7276 1915.0331,-1762.864 1928,-1757.0717 1964.0418,-1740.9717 2000.9281,-1714.68 2025.5952,-1695.3987"/>
<polygon fill="#de958e" stroke="#de958e" points="2027.8112,-1698.1084 2033.4733,-1689.1535 2023.4626,-1692.623 2027.8112,-1698.1084"/>
</g>
<!-- json_logging -->
<g id="node37" class="node">
<title>json_logging</title>
<polygon fill="#343434" stroke="#343434" points="448,-1819.0717 332,-1819.0717 332,-1783.0717 448,-1783.0717 448,-1819.0717"/>
<text text-anchor="middle" x="390" y="-1797.3717" font-family="Courier,monospace" font-size="14.00" fill="#de958e">json_logging</text>
</g>
<!-- json_logging&#45;&gt;hidebound.core.logging -->
<g id="edge80" class="edge">
<title>json_logging&#45;&gt;hidebound.core.logging</title>
<path fill="none" stroke="#de958e" d="M448.0848,-1801.0717C470.5981,-1801.0717 497.1424,-1801.0717 522.9707,-1801.0717"/>
<polygon fill="#de958e" stroke="#de958e" points="523.2073,-1804.5718 533.2073,-1801.0717 523.2073,-1797.5718 523.2073,-1804.5718"/>
</g>
<!-- requests.models -->
<g id="node38" class="node">
<title>requests.models</title>
<polygon fill="#343434" stroke="#343434" points="1611,-1179.0717 1471,-1179.0717 1471,-1143.0717 1611,-1143.0717 1611,-1179.0717"/>
<text text-anchor="middle" x="1541" y="-1157.3717" font-family="Courier,monospace" font-size="14.00" fill="#de958e">requests.models</text>
</g>
<!-- requests.models&#45;&gt;hidebound.core.database -->
<g id="edge81" class="edge">
<title>requests.models&#45;&gt;hidebound.core.database</title>
<path fill="none" stroke="#de958e" d="M1608.7109,-1179.1105C1643.5092,-1188.3811 1686.0823,-1199.7229 1722.2236,-1209.3513"/>
<polygon fill="#de958e" stroke="#de958e" points="1721.671,-1212.8261 1732.235,-1212.0184 1723.473,-1206.062 1721.671,-1212.8261"/>
</g>
<!-- requests.exceptions -->
<g id="node39" class="node">
<title>requests.exceptions</title>
<polygon fill="#343434" stroke="#343434" points="1627.5,-1125.0717 1454.5,-1125.0717 1454.5,-1089.0717 1627.5,-1089.0717 1627.5,-1125.0717"/>
<text text-anchor="middle" x="1541" y="-1103.3717" font-family="Courier,monospace" font-size="14.00" fill="#de958e">requests.exceptions</text>
</g>
<!-- requests.exceptions&#45;&gt;hidebound.core.database -->
<g id="edge82" class="edge">
<title>requests.exceptions&#45;&gt;hidebound.core.database</title>
<path fill="none" stroke="#de958e" d="M1611.9869,-1125.0998C1620.1906,-1127.8125 1628.3511,-1130.8084 1636,-1134.0717 1682.8765,-1154.0705 1732.8959,-1184.8894 1765.1966,-1206.1881"/>
<polygon fill="#de958e" stroke="#de958e" points="1763.5556,-1209.3002 1773.8198,-1211.9261 1767.4334,-1203.4724 1763.5556,-1209.3002"/>
</g>
<!-- pandasql -->
<g id="node40" class="node">
<title>pandasql</title>
<polygon fill="#343434" stroke="#343434" points="1582.5,-1071.0717 1499.5,-1071.0717 1499.5,-1035.0717 1582.5,-1035.0717 1582.5,-1071.0717"/>
<text text-anchor="middle" x="1541" y="-1049.3717" font-family="Courier,monospace" font-size="14.00" fill="#de958e">pandasql</text>
</g>
<!-- pandasql&#45;&gt;hidebound.core.database -->
<g id="edge83" class="edge">
<title>pandasql&#45;&gt;hidebound.core.database</title>
<path fill="none" stroke="#de958e" d="M1582.8537,-1060.5486C1600.0335,-1064.7199 1619.6787,-1070.9663 1636,-1080.0717 1694.7107,-1112.8254 1749.4722,-1170.4776 1778.4642,-1203.9641"/>
<polygon fill="#de958e" stroke="#de958e" points="1776.1101,-1206.597 1785.2665,-1211.9272 1781.4325,-1202.0503 1776.1101,-1206.597"/>
</g>
<!-- girder_client -->
<g id="node41" class="node">
<title>girder_client</title>
<polygon fill="#343434" stroke="#343434" points="986.5,-907.0717 862.5,-907.0717 862.5,-871.0717 986.5,-871.0717 986.5,-907.0717"/>
<text text-anchor="middle" x="924.5" y="-885.3717" font-family="Courier,monospace" font-size="14.00" fill="#de958e">girder_client</text>
</g>
<!-- girder_client&#45;&gt;hidebound.exporters.girder_exporter -->
<g id="edge84" class="edge">
<title>girder_client&#45;&gt;hidebound.exporters.girder_exporter</title>
<path fill="none" stroke="#de958e" d="M986.7441,-896.1746C1017.5033,-899.6847 1056.2059,-904.1012 1094.6489,-908.488"/>
<polygon fill="#de958e" stroke="#de958e" points="1094.6105,-912.0063 1104.9428,-909.6627 1095.4042,-905.0514 1094.6105,-912.0063"/>
</g>
<!-- lunchbox.tools -->
<g id="node42" class="node">
<title>lunchbox.tools</title>
<polygon fill="#343434" stroke="#343434" points="990.5,-1861.0717 858.5,-1861.0717 858.5,-1825.0717 990.5,-1825.0717 990.5,-1861.0717"/>
<text text-anchor="middle" x="924.5" y="-1839.3717" font-family="Courier,monospace" font-size="14.00" fill="#de958e">lunchbox.tools</text>
</g>
<!-- lunchbox.tools&#45;&gt;hidebound.core.database_tools -->
<g id="edge85" class="edge">
<title>lunchbox.tools&#45;&gt;hidebound.core.database_tools</title>
<path fill="none" stroke="#de958e" d="M957.1417,-1824.9229C988.404,-1806.4343 1035.6247,-1775.504 1069,-1740.0717 1151.7556,-1652.2156 1218.1655,-1522.73 1244.842,-1466.6445"/>
<polygon fill="#de958e" stroke="#de958e" points="1248.1197,-1467.8993 1249.2123,-1457.3609 1241.7864,-1464.9178 1248.1197,-1467.8993"/>
</g>
<!-- lunchbox.tools&#45;&gt;hidebound.server.server_tools -->
<g id="edge86" class="edge">
<title>lunchbox.tools&#45;&gt;hidebound.server.server_tools</title>
<path fill="none" stroke="#de958e" d="M990.6637,-1845.9434C1132.9218,-1852.118 1470.4611,-1866.7684 1661.666,-1875.0674"/>
<polygon fill="#de958e" stroke="#de958e" points="1661.6446,-1878.5697 1671.787,-1875.5067 1661.9482,-1871.5763 1661.6446,-1878.5697"/>
</g>
<!-- botocore.exceptions -->
<g id="node43" class="node">
<title>botocore.exceptions</title>
<polygon fill="#343434" stroke="#343434" points="1011,-1243.0717 838,-1243.0717 838,-1207.0717 1011,-1207.0717 1011,-1243.0717"/>
<text text-anchor="middle" x="924.5" y="-1221.3717" font-family="Courier,monospace" font-size="14.00" fill="#de958e">botocore.exceptions</text>
</g>
<!-- botocore.exceptions&#45;&gt;hidebound.exporters.s3_exporter -->
<g id="edge87" class="edge">
<title>botocore.exceptions&#45;&gt;hidebound.exporters.s3_exporter</title>
<path fill="none" stroke="#de958e" d="M1011.1225,-1232.0951C1041.7288,-1234.5767 1077.0544,-1237.4409 1111.2263,-1240.2116"/>
<polygon fill="#de958e" stroke="#de958e" points="1111.0564,-1243.7092 1121.3065,-1241.0289 1111.6221,-1236.7321 1111.0564,-1243.7092"/>
</g>
<!-- boto3 -->
<g id="node44" class="node">
<title>boto3</title>
<polygon fill="#343434" stroke="#343434" points="953.5,-1297.0717 895.5,-1297.0717 895.5,-1261.0717 953.5,-1261.0717 953.5,-1297.0717"/>
<text text-anchor="middle" x="924.5" y="-1275.3717" font-family="Courier,monospace" font-size="14.00" fill="#de958e">boto3</text>
</g>
<!-- boto3&#45;&gt;hidebound.exporters.s3_exporter -->
<g id="edge88" class="edge">
<title>boto3&#45;&gt;hidebound.exporters.s3_exporter</title>
<path fill="none" stroke="#de958e" d="M953.7597,-1276.6993C989.3163,-1273.8163 1051.9135,-1268.7408 1111.0786,-1263.9437"/>
<polygon fill="#de958e" stroke="#de958e" points="1111.6221,-1267.4112 1121.3065,-1263.1144 1111.0564,-1260.4341 1111.6221,-1267.4112"/>
</g>
<!-- numpy -->
<g id="node45" class="node">
<title>numpy</title>
<polygon fill="#343434" stroke="#343434" points="953.5,-1731.0717 895.5,-1731.0717 895.5,-1695.0717 953.5,-1695.0717 953.5,-1731.0717"/>
<text text-anchor="middle" x="924.5" y="-1709.3717" font-family="Courier,monospace" font-size="14.00" fill="#de958e">numpy</text>
</g>
<!-- numpy&#45;&gt;hidebound.core.database -->
<g id="edge89" class="edge">
<title>numpy&#45;&gt;hidebound.core.database</title>
<path fill="none" stroke="#de958e" d="M953.5637,-1713.9918C985.3284,-1713.4738 1036.075,-1707.9842 1069,-1681.0717 1099.5022,-1656.1395 1074.321,-1624.786 1105,-1600.0717 1212.7918,-1513.2371 1277.2559,-1576.293 1410,-1537.0717 1426.4637,-1532.2072 1429.6467,-1528.2952 1446,-1523.0717 1528.9678,-1496.5705 1564.82,-1525.2652 1636,-1475.0717 1716.3928,-1418.3816 1768.5089,-1308.7279 1789.4955,-1257.584"/>
<polygon fill="#de958e" stroke="#de958e" points="1792.7979,-1258.7524 1793.2769,-1248.1684 1786.3021,-1256.1436 1792.7979,-1258.7524"/>
</g>
<!-- numpy&#45;&gt;hidebound.core.database_tools -->
<g id="edge90" class="edge">
<title>numpy&#45;&gt;hidebound.core.database_tools</title>
<path fill="none" stroke="#de958e" d="M953.6215,-1695.9186C984.7433,-1676.6021 1034.2816,-1642.9251 1069,-1605.0717 1089.5075,-1582.7124 1084.2077,-1569.1663 1105,-1547.0717 1137.6182,-1512.4105 1182.9343,-1482.0074 1215.6823,-1462.3653"/>
<polygon fill="#de958e" stroke="#de958e" points="1217.7364,-1465.2169 1224.5646,-1457.116 1214.1749,-1459.1906 1217.7364,-1465.2169"/>
</g>
<!-- numpy&#45;&gt;hidebound.server.api -->
<g id="edge91" class="edge">
<title>numpy&#45;&gt;hidebound.server.api</title>
<path fill="none" stroke="#de958e" d="M953.6057,-1711.2874C1032.6986,-1706.4988 1258.2452,-1693.243 1446,-1686.0717 1624.5543,-1679.2518 1832.6813,-1674.9003 1953.5773,-1672.7296"/>
<polygon fill="#de958e" stroke="#de958e" points="1953.9869,-1676.223 1963.9229,-1672.5454 1953.8622,-1669.2241 1953.9869,-1676.223"/>
</g>
<!-- hidebound.exporters -->
<g id="node46" class="node">
<title>hidebound.exporters</title>
<polygon fill="#343434" stroke="#343434" points="719,-1197.0717 546,-1197.0717 546,-1161.0717 719,-1161.0717 719,-1197.0717"/>
<text text-anchor="middle" x="632.5" y="-1175.3717" font-family="Courier,monospace" font-size="14.00" fill="#a0d17b">hidebound.exporters</text>
</g>
<!-- hidebound.exporters&#45;&gt;hidebound.exporters.disk_exporter -->
<g id="edge92" class="edge">
<title>hidebound.exporters&#45;&gt;hidebound.exporters.disk_exporter</title>
<path fill="none" stroke="#a0d17b" d="M719.3689,-1188.3534C809.5228,-1194.7946 953.2647,-1196.0068 1069,-1155.0717 1135.2153,-1131.6515 1198.5242,-1077.2143 1232.2723,-1044.7605"/>
<polygon fill="#a0d17b" stroke="#a0d17b" points="1235.0947,-1046.8964 1239.8052,-1037.4063 1230.2047,-1041.8875 1235.0947,-1046.8964"/>
</g>
<!-- hidebound.exporters&#45;&gt;hidebound.exporters.exporter_base -->
<g id="edge93" class="edge">
<title>hidebound.exporters&#45;&gt;hidebound.exporters.exporter_base</title>
<path fill="none" stroke="#a0d17b" d="M665.4285,-1161.0286C718.6615,-1131.8599 823.568,-1074.3769 882.2394,-1042.2282"/>
<polygon fill="#a0d17b" stroke="#a0d17b" points="884.1559,-1045.169 891.2438,-1037.2942 880.7922,-1039.0302 884.1559,-1045.169"/>
</g>
<!-- hidebound.exporters&#45;&gt;hidebound.exporters.girder_exporter -->
<g id="edge94" class="edge">
<title>hidebound.exporters&#45;&gt;hidebound.exporters.girder_exporter</title>
<path fill="none" stroke="#a0d17b" d="M714.5426,-1161.0565C824.5497,-1135.7365 1012.5754,-1088.0188 1069,-1046.0717 1092.1484,-1028.8626 1082.8063,-1010.4956 1105,-992.0717 1127.7793,-973.1616 1156.8752,-958.9535 1183.5333,-948.7219"/>
<polygon fill="#a0d17b" stroke="#a0d17b" points="1185.0664,-951.8864 1193.2282,-945.1309 1182.635,-945.3223 1185.0664,-951.8864"/>
</g>
<!-- hidebound.exporters&#45;&gt;hidebound.exporters.s3_exporter -->
<g id="edge95" class="edge">
<title>hidebound.exporters&#45;&gt;hidebound.exporters.s3_exporter</title>
<path fill="none" stroke="#a0d17b" d="M642.2949,-1197.2305C662.519,-1232.5418 712.6959,-1309.5778 780,-1339.0717 897.6443,-1390.6255 943.5459,-1366.626 1069,-1339.0717 1124.4958,-1326.8827 1183.122,-1296.7158 1219.9799,-1275.3339"/>
<polygon fill="#a0d17b" stroke="#a0d17b" points="1222.0238,-1278.1922 1228.8664,-1270.1034 1218.473,-1272.1596 1222.0238,-1278.1922"/>
</g>
<!-- dask.distributed -->
<g id="node47" class="node">
<title>dask.distributed</title>
<polygon fill="#343434" stroke="#343434" points="1615.5,-435.0717 1466.5,-435.0717 1466.5,-399.0717 1615.5,-399.0717 1615.5,-435.0717"/>
<text text-anchor="middle" x="1541" y="-413.3717" font-family="Courier,monospace" font-size="14.00" fill="#de958e">dask.distributed</text>
</g>
<!-- dask.distributed&#45;&gt;hidebound.core.database -->
<g id="edge96" class="edge">
<title>dask.distributed&#45;&gt;hidebound.core.database</title>
<path fill="none" stroke="#de958e" d="M1615.7808,-433.4992C1623.3594,-437.5899 1630.3358,-442.6968 1636,-449.0717 1739.0546,-565.0564 1787.3174,-1075.8976 1797.7805,-1201.9036"/>
<polygon fill="#de958e" stroke="#de958e" points="1794.2962,-1202.2396 1798.5995,-1211.9211 1801.2729,-1201.6692 1794.2962,-1202.2396"/>
</g>
<!-- schematics -->
<g id="node48" class="node">
<title>schematics</title>
<polygon fill="#343434" stroke="#343434" points="682,-617.0717 583,-617.0717 583,-581.0717 682,-581.0717 682,-617.0717"/>
<text text-anchor="middle" x="632.5" y="-595.3717" font-family="Courier,monospace" font-size="14.00" fill="#de958e">schematics</text>
</g>
<!-- schematics&#45;&gt;hidebound.core.config -->
<g id="edge97" class="edge">
<title>schematics&#45;&gt;hidebound.core.config</title>
<path fill="none" stroke="#de958e" d="M682.2741,-581.1678C710.5232,-571.9569 746.774,-561.71 780,-557.0717 1058.7382,-518.1603 1164.7196,-483.0622 1410,-621.0717 1461.2733,-649.9211 1503.0023,-706.3221 1524.7186,-739.951"/>
<polygon fill="#de958e" stroke="#de958e" points="1522.0036,-742.2065 1530.3044,-748.7904 1527.9211,-738.4671 1522.0036,-742.2065"/>
</g>
<!-- schematics&#45;&gt;hidebound.core.specification_base -->
<g id="edge98" class="edge">
<title>schematics&#45;&gt;hidebound.core.specification_base</title>
<path fill="none" stroke="#de958e" d="M682.0338,-606.8749C714.496,-611.9888 758.4745,-618.917 800.0656,-625.469"/>
<polygon fill="#de958e" stroke="#de958e" points="799.5925,-628.9375 810.0154,-627.0364 800.6819,-622.0228 799.5925,-628.9375"/>
</g>
<!-- schematics&#45;&gt;hidebound.exporters.exporter_base -->
<g id="edge99" class="edge">
<title>schematics&#45;&gt;hidebound.exporters.exporter_base</title>
<path fill="none" stroke="#de958e" d="M642.8661,-617.2605C663.6126,-654.0675 711.0696,-740.3264 744,-816.0717 762.8334,-859.3915 751.4678,-878.4256 780,-916.0717 806.0826,-950.4856 846.9212,-978.0919 878.5387,-996.0287"/>
<polygon fill="#de958e" stroke="#de958e" points="877.1659,-999.2694 887.6091,-1001.055 880.5588,-993.1466 877.1659,-999.2694"/>
</g>
<!-- schematics&#45;&gt;hidebound.exporters.girder_exporter -->
<g id="edge100" class="edge">
<title>schematics&#45;&gt;hidebound.exporters.girder_exporter</title>
<path fill="none" stroke="#de958e" d="M682.1233,-585.0062C769.672,-563.4011 953.2242,-532.8803 1069,-618.0717 1107.0466,-646.0675 1082.8544,-676.3478 1105,-718.0717 1142.6867,-789.0758 1202.2103,-862.946 1234.6211,-900.9742"/>
<polygon fill="#de958e" stroke="#de958e" points="1232.3181,-903.6646 1241.4885,-908.9707 1237.6285,-899.104 1232.3181,-903.6646"/>
</g>
<!-- schematics.types -->
<g id="node49" class="node">
<title>schematics.types</title>
<polygon fill="#343434" stroke="#343434" points="707,-861.0717 558,-861.0717 558,-825.0717 707,-825.0717 707,-861.0717"/>
<text text-anchor="middle" x="632.5" y="-839.3717" font-family="Courier,monospace" font-size="14.00" fill="#de958e">schematics.types</text>
</g>
<!-- schematics.types&#45;&gt;hidebound.core.config -->
<g id="edge101" class="edge">
<title>schematics.types&#45;&gt;hidebound.core.config</title>
<path fill="none" stroke="#de958e" d="M695.2423,-825.0317C711.2892,-819.9675 728.4106,-814.1662 744,-808.0717 760.4797,-801.6291 762.7977,-795.2149 780,-791.0717 1008.7898,-735.9665 1287.4119,-745.8992 1435.9017,-757.0605"/>
<polygon fill="#de958e" stroke="#de958e" points="1435.6902,-760.5544 1445.929,-757.831 1436.2266,-753.575 1435.6902,-760.5544"/>
</g>
<!-- schematics.types&#45;&gt;hidebound.core.specification_base -->
<g id="edge102" class="edge">
<title>schematics.types&#45;&gt;hidebound.core.specification_base</title>
<path fill="none" stroke="#de958e" d="M707.035,-833.1663C720.7514,-828.3686 733.9051,-821.3399 744,-811.0717 787.2327,-767.0967 735.4347,-719.6956 780,-677.0717 783.1857,-674.0247 786.5934,-671.2425 790.179,-668.7031"/>
<polygon fill="#de958e" stroke="#de958e" points="792.2753,-671.5183 798.8477,-663.2084 788.5276,-665.606 792.2753,-671.5183"/>
</g>
<!-- schematics.types&#45;&gt;hidebound.core.specifications -->
<g id="edge103" class="edge">
<title>schematics.types&#45;&gt;hidebound.core.specifications</title>
<path fill="none" stroke="#de958e" d="M707.1493,-832.0895C720.6154,-827.364 733.6444,-820.6371 744,-811.0717 777.4732,-780.1526 743.2099,-741.9591 780,-715.0717 832.1864,-676.932 997.6122,-676.3163 1119.1752,-681.6833"/>
<polygon fill="#de958e" stroke="#de958e" points="1119.1698,-685.1867 1129.32,-682.1495 1119.4912,-678.1941 1119.1698,-685.1867"/>
</g>
<!-- schematics.types&#45;&gt;hidebound.exporters.disk_exporter -->
<g id="edge104" class="edge">
<title>schematics.types&#45;&gt;hidebound.exporters.disk_exporter</title>
<path fill="none" stroke="#de958e" d="M663.4551,-861.2167C692.6447,-877.6353 738.0548,-901.4221 780,-916.0717 893.2049,-955.6091 1027.0242,-982.8928 1124.1523,-999.3976"/>
<polygon fill="#de958e" stroke="#de958e" points="1123.585,-1002.8513 1134.0273,-1001.06 1124.7471,-995.9484 1123.585,-1002.8513"/>
</g>
<!-- schematics.types&#45;&gt;hidebound.exporters.exporter_base -->
<g id="edge105" class="edge">
<title>schematics.types&#45;&gt;hidebound.exporters.exporter_base</title>
<path fill="none" stroke="#de958e" d="M655.1619,-861.244C683.4218,-883.4543 733.6696,-921.4808 780,-949.0717 809.9096,-966.8835 845.0249,-983.9753 873.1493,-996.8109"/>
<polygon fill="#de958e" stroke="#de958e" points="871.8478,-1000.0635 882.4016,-1000.9955 874.7325,-993.6855 871.8478,-1000.0635"/>
</g>
<!-- schematics.types&#45;&gt;hidebound.exporters.girder_exporter -->
<g id="edge106" class="edge">
<title>schematics.types&#45;&gt;hidebound.exporters.girder_exporter</title>
<path fill="none" stroke="#de958e" d="M707.0052,-839.8407C794.5019,-837.5319 943.6208,-838.2473 1069,-862.0717 1116.9203,-871.1774 1169.1967,-889.9519 1206.5156,-904.9926"/>
<polygon fill="#de958e" stroke="#de958e" points="1205.5671,-908.3857 1216.1481,-908.9257 1208.2133,-901.9052 1205.5671,-908.3857"/>
</g>
<!-- schematics.types&#45;&gt;hidebound.exporters.s3_exporter -->
<g id="edge107" class="edge">
<title>schematics.types&#45;&gt;hidebound.exporters.s3_exporter</title>
<path fill="none" stroke="#de958e" d="M658.4231,-861.185C683.4465,-879.8704 720.8523,-911.1445 744,-946.0717 770.0951,-985.4462 747.6454,-1011.6553 780,-1046.0717 838.9464,-1108.7742 1074.9031,-1192.3288 1191.545,-1230.9064"/>
<polygon fill="#de958e" stroke="#de958e" points="1190.4998,-1234.247 1201.0928,-1234.0518 1192.6901,-1227.5985 1190.4998,-1234.247"/>
</g>
<!-- schematics.models -->
<g id="node50" class="node">
<title>schematics.models</title>
<polygon fill="#343434" stroke="#343434" points="468.5,-964.0717 311.5,-964.0717 311.5,-928.0717 468.5,-928.0717 468.5,-964.0717"/>
<text text-anchor="middle" x="390" y="-942.3717" font-family="Courier,monospace" font-size="14.00" fill="#de958e">schematics.models</text>
</g>
<!-- schematics.models&#45;&gt;hidebound.core.validators -->
<g id="edge108" class="edge">
<title>schematics.models&#45;&gt;hidebound.core.validators</title>
<path fill="none" stroke="#de958e" d="M468.7328,-954.8378C482.0872,-956.3247 496.2294,-957.8993 510.3874,-959.4756"/>
<polygon fill="#de958e" stroke="#de958e" points="510.3623,-962.9944 520.6883,-960.6225 511.137,-956.0374 510.3623,-962.9944"/>
</g>
<!-- wrapt -->
<g id="node51" class="node">
<title>wrapt</title>
<polygon fill="#343434" stroke="#343434" points="419,-1018.0717 361,-1018.0717 361,-982.0717 419,-982.0717 419,-1018.0717"/>
<text text-anchor="middle" x="390" y="-996.3717" font-family="Courier,monospace" font-size="14.00" fill="#de958e">wrapt</text>
</g>
<!-- wrapt&#45;&gt;hidebound.core.validators -->
<g id="edge109" class="edge">
<title>wrapt&#45;&gt;hidebound.core.validators</title>
<path fill="none" stroke="#de958e" d="M419.2512,-996.8148C442.4686,-994.2298 476.6038,-990.4292 510.7879,-986.6231"/>
<polygon fill="#de958e" stroke="#de958e" points="511.3508,-990.0822 520.9021,-985.497 510.5761,-983.1251 511.3508,-990.0822"/>
</g>
<!-- pyparsing -->
<g id="node52" class="node">
<title>pyparsing</title>
<polygon fill="#343434" stroke="#343434" points="238.5,-866.0717 147.5,-866.0717 147.5,-830.0717 238.5,-830.0717 238.5,-866.0717"/>
<text text-anchor="middle" x="193" y="-844.3717" font-family="Courier,monospace" font-size="14.00" fill="#de958e">pyparsing</text>
</g>
<!-- pyparsing&#45;&gt;hidebound.core.parser -->
<g id="edge110" class="edge">
<title>pyparsing&#45;&gt;hidebound.core.parser</title>
<path fill="none" stroke="#de958e" d="M238.6909,-848.0717C252.6218,-848.0717 268.5536,-848.0717 284.73,-848.0717"/>
<polygon fill="#de958e" stroke="#de958e" points="284.8181,-851.5718 294.818,-848.0717 284.818,-844.5718 284.8181,-851.5718"/>
</g>
<!-- pyparsing&#45;&gt;hidebound.core.specification_base -->
<g id="edge111" class="edge">
<title>pyparsing&#45;&gt;hidebound.core.specification_base</title>
<path fill="none" stroke="#de958e" d="M238.6907,-833.213C336.9996,-801.5516 576.211,-726.1653 780,-675.0717 793.6301,-671.6544 808.0521,-668.3244 822.3011,-665.2011"/>
<polygon fill="#de958e" stroke="#de958e" points="823.0937,-668.6107 832.1264,-663.0734 821.6121,-661.7693 823.0937,-668.6107"/>
</g>
<!-- pyparsing&#45;&gt;hidebound.core.validators -->
<g id="edge112" class="edge">
<title>pyparsing&#45;&gt;hidebound.core.validators</title>
<path fill="none" stroke="#de958e" d="M196.9766,-866.2811C206.3768,-904.3114 233.9231,-991.5782 295,-1027.0717 390.0605,-1082.3139 524.3142,-1029.3033 591.2305,-995.8018"/>
<polygon fill="#de958e" stroke="#de958e" points="592.8982,-998.8803 600.2147,-991.2174 589.7165,-992.6451 592.8982,-998.8803"/>
</g>
<!-- pandas -->
<g id="node53" class="node">
<title>pandas</title>
<polygon fill="#343434" stroke="#343434" points="423,-1647.0717 357,-1647.0717 357,-1611.0717 423,-1611.0717 423,-1647.0717"/>
<text text-anchor="middle" x="390" y="-1625.3717" font-family="Courier,monospace" font-size="14.00" fill="#de958e">pandas</text>
</g>
<!-- pandas&#45;&gt;hidebound.core.database -->
<g id="edge113" class="edge">
<title>pandas&#45;&gt;hidebound.core.database</title>
<path fill="none" stroke="#de958e" d="M423.2117,-1636.1784C441.5603,-1640.3379 464.6862,-1645.9647 485,-1652.0717 501.291,-1656.9693 504.8216,-1659.8142 521,-1665.0717 754.7911,-1741.0461 828.9364,-1792.9856 1069,-1740.0717 1232.1183,-1704.1178 1265.856,-1666.468 1410,-1582.0717 1427.0319,-1572.0995 1428.0113,-1564.1919 1446,-1556.0717 1524.9125,-1520.4498 1566.2494,-1564.3645 1636,-1513.0717 1647.7697,-1504.4165 1746.6216,-1326.7511 1784.9229,-1257.4323"/>
<polygon fill="#de958e" stroke="#de958e" points="1788.1408,-1258.8452 1789.9101,-1248.3991 1782.0127,-1255.4618 1788.1408,-1258.8452"/>
</g>
<!-- pandas&#45;&gt;hidebound.core.database_tools -->
<g id="edge114" class="edge">
<title>pandas&#45;&gt;hidebound.core.database_tools</title>
<path fill="none" stroke="#de958e" d="M423.085,-1635.1469C527.0151,-1652.4171 852.8581,-1692.5881 1069,-1563.0717 1093.7424,-1548.2455 1083.061,-1527.7981 1105,-1509.0717 1129.5853,-1488.0865 1161.5072,-1472.1423 1189.7873,-1460.8115"/>
<polygon fill="#de958e" stroke="#de958e" points="1191.1692,-1464.0296 1199.2225,-1457.1452 1188.6337,-1457.5049 1191.1692,-1464.0296"/>
</g>
<!-- pandas&#45;&gt;hidebound.core.tools -->
<g id="edge115" class="edge">
<title>pandas&#45;&gt;hidebound.core.tools</title>
<path fill="none" stroke="#de958e" d="M423.2031,-1621.2221C444.7506,-1614.2484 471.285,-1601.6992 485,-1580.0717 545.0188,-1485.4263 484.7213,-678.1087 521,-572.0717 538.5572,-520.7547 579.218,-471.7187 606.2781,-443.0103"/>
<polygon fill="#de958e" stroke="#de958e" points="609.119,-445.1049 613.5193,-435.467 604.0692,-440.2573 609.119,-445.1049"/>
</g>
<!-- pandas&#45;&gt;hidebound.core.validators -->
<g id="edge116" class="edge">
<title>pandas&#45;&gt;hidebound.core.validators</title>
<path fill="none" stroke="#de958e" d="M423.3394,-1620.8528C444.657,-1613.7551 470.8708,-1601.2081 485,-1580.0717 538.0439,-1500.7214 490.93,-1242.6582 521,-1152.0717 540.778,-1092.4899 584.0839,-1032.4187 610.5266,-999.2441"/>
<polygon fill="#de958e" stroke="#de958e" points="613.2977,-1001.3835 616.8614,-991.406 607.8535,-996.9834 613.2977,-1001.3835"/>
</g>
<!-- pandas&#45;&gt;hidebound.server.components -->
<g id="edge117" class="edge">
<title>pandas&#45;&gt;hidebound.server.components</title>
<path fill="none" stroke="#de958e" d="M401.8783,-1647.247C433.7691,-1696.0272 518.9989,-1826.2761 521,-1828.0717 671.0177,-1962.679 722.9449,-2035.0717 924.5,-2035.0717 924.5,-2035.0717 924.5,-2035.0717 1257.5,-2035.0717 1341.717,-2035.0717 1563.4534,-2058.8443 1636,-2016.0717 1659.6851,-2002.1072 1649.3935,-1979.817 1672.2011,-1959.261"/>
<polygon fill="#de958e" stroke="#de958e" points="1674.6194,-1961.8168 1680.4162,-1952.9484 1670.3542,-1956.2662 1674.6194,-1961.8168"/>
</g>
<!-- jsoncomment -->
<g id="node54" class="node">
<title>jsoncomment</title>
<polygon fill="#343434" stroke="#343434" points="443.5,-99.0717 336.5,-99.0717 336.5,-63.0717 443.5,-63.0717 443.5,-99.0717"/>
<text text-anchor="middle" x="390" y="-77.3717" font-family="Courier,monospace" font-size="14.00" fill="#de958e">jsoncomment</text>
</g>
<!-- jsoncomment&#45;&gt;hidebound.core.database -->
<g id="edge118" class="edge">
<title>jsoncomment&#45;&gt;hidebound.core.database</title>
<path fill="none" stroke="#de958e" d="M443.5431,-77.9071C559.17,-72.3073 840.2588,-65.3545 1069,-113.0717 1343.5542,-170.3457 1479.1547,-157.5638 1636,-390.0717 1729.4512,-528.6039 1785.2898,-1072.1593 1797.4684,-1202.0717"/>
<polygon fill="#de958e" stroke="#de958e" points="1793.9832,-1202.3952 1798.3918,-1212.0292 1800.9533,-1201.7487 1793.9832,-1202.3952"/>
</g>
<!-- jsoncomment&#45;&gt;hidebound.core.tools -->
<g id="edge119" class="edge">
<title>jsoncomment&#45;&gt;hidebound.core.tools</title>
<path fill="none" stroke="#de958e" d="M400.6656,-99.2213C422.1179,-135.3434 472.5825,-218.4112 521,-284.0717 549.5224,-322.7517 585.7861,-364.8617 609.0727,-391.1125"/>
<polygon fill="#de958e" stroke="#de958e" points="606.5939,-393.5917 615.86,-398.7288 611.8199,-388.9345 606.5939,-393.5917"/>
</g>
<!-- jsoncomment&#45;&gt;hidebound.server.extension -->
<g id="edge120" class="edge">
<title>jsoncomment&#45;&gt;hidebound.server.extension</title>
<path fill="none" stroke="#de958e" d="M443.5696,-69.2292C699.2294,-16.2084 1797.2671,171.0823 2146,-438.0717 2188.6921,-512.6447 2170.6282,-737.8987 2182,-823.0717 2215.1044,-1071.0191 2273.4665,-1367.9126 2291.8142,-1459.0862"/>
<polygon fill="#de958e" stroke="#de958e" points="2288.3922,-1459.8227 2293.8014,-1468.9327 2295.2539,-1458.4379 2288.3922,-1459.8227"/>
</g>
<!-- OpenEXR -->
<g id="node55" class="node">
<title>OpenEXR</title>
<polygon fill="#343434" stroke="#343434" points="427,-481.0717 353,-481.0717 353,-445.0717 427,-445.0717 427,-481.0717"/>
<text text-anchor="middle" x="390" y="-459.3717" font-family="Courier,monospace" font-size="14.00" fill="#de958e">OpenEXR</text>
</g>
<!-- OpenEXR&#45;&gt;hidebound.core.tools -->
<g id="edge121" class="edge">
<title>OpenEXR&#45;&gt;hidebound.core.tools</title>
<path fill="none" stroke="#de958e" d="M427.0945,-456.0352C454.9855,-450.7445 494.5995,-443.2301 531.6085,-436.2098"/>
<polygon fill="#de958e" stroke="#de958e" points="532.2849,-439.644 541.4574,-434.3416 530.9803,-432.7667 532.2849,-439.644"/>
</g>
<!-- schematics.exceptions -->
<g id="node56" class="node">
<title>schematics.exceptions</title>
<polygon fill="#343434" stroke="#343434" points="485,-595.0717 295,-595.0717 295,-559.0717 485,-559.0717 485,-595.0717"/>
<text text-anchor="middle" x="390" y="-573.3717" font-family="Courier,monospace" font-size="14.00" fill="#de958e">schematics.exceptions</text>
</g>
<!-- schematics.exceptions&#45;&gt;hidebound.core.config -->
<g id="edge122" class="edge">
<title>schematics.exceptions&#45;&gt;hidebound.core.config</title>
<path fill="none" stroke="#de958e" d="M480.795,-559.028C700.7315,-517.3156 1255.3096,-424.6626 1410,-518.0717 1491.1466,-567.0716 1524.5449,-684.8699 1535.9558,-739.0026"/>
<polygon fill="#de958e" stroke="#de958e" points="1532.5513,-739.8264 1537.9525,-748.9411 1539.4142,-738.4476 1532.5513,-739.8264"/>
</g>
<!-- schematics.exceptions&#45;&gt;hidebound.core.database_tools -->
<g id="edge123" class="edge">
<title>schematics.exceptions&#45;&gt;hidebound.core.database_tools</title>
<path fill="none" stroke="#de958e" d="M399.0816,-595.1806C418.5527,-634.9244 464.2298,-733.2593 485,-821.0717 504.779,-904.6931 475.9,-1132.9297 521,-1206.0717 643.9918,-1405.5364 942.2045,-1441.2605 1119.1451,-1443.8408"/>
<polygon fill="#de958e" stroke="#de958e" points="1119.2719,-1447.3424 1129.3104,-1443.9546 1119.3503,-1440.3428 1119.2719,-1447.3424"/>
</g>
<!-- schematics.exceptions&#45;&gt;hidebound.core.specification_base -->
<g id="edge124" class="edge">
<title>schematics.exceptions&#45;&gt;hidebound.core.specification_base</title>
<path fill="none" stroke="#de958e" d="M428.6112,-595.1455C454.2152,-606.2131 488.8891,-619.4791 521,-626.0717 602.0307,-642.7079 694.0526,-648.0472 769.7344,-648.9681"/>
<polygon fill="#de958e" stroke="#de958e" points="769.7935,-652.4687 779.827,-649.066 769.8615,-645.469 769.7935,-652.4687"/>
</g>
<!-- schematics.exceptions&#45;&gt;hidebound.core.tools -->
<g id="edge125" class="edge">
<title>schematics.exceptions&#45;&gt;hidebound.core.tools</title>
<path fill="none" stroke="#de958e" d="M410.9885,-559.0278C430.6524,-541.8517 460.5897,-514.9979 485,-490.0717 501.9669,-472.7461 500.5172,-462.0525 521,-449.0717 527.0229,-445.2547 533.5125,-441.8815 540.2247,-438.9022"/>
<polygon fill="#de958e" stroke="#de958e" points="541.583,-442.128 549.4927,-435.0791 538.9136,-435.657 541.583,-442.128"/>
</g>
<!-- schematics.exceptions&#45;&gt;hidebound.core.validators -->
<g id="edge126" class="edge">
<title>schematics.exceptions&#45;&gt;hidebound.core.validators</title>
<path fill="none" stroke="#de958e" d="M407.2059,-595.3079C428.7079,-619.1247 465.0945,-662.9987 485,-707.0717 515.5378,-774.6856 484.0599,-805.7317 521,-870.0717 539.5084,-902.3084 571.4716,-930.2909 596.4435,-948.9204"/>
<polygon fill="#de958e" stroke="#de958e" points="594.4709,-951.8136 604.6147,-954.8723 598.5923,-946.1555 594.4709,-951.8136"/>
</g>
<!-- schematics.exceptions&#45;&gt;hidebound.server.api -->
<g id="edge127" class="edge">
<title>schematics.exceptions&#45;&gt;hidebound.server.api</title>
<path fill="none" stroke="#de958e" d="M418.7227,-559.0332C444.4999,-543.7311 483.8823,-522.4971 521,-511.0717 631.9609,-476.9161 664.8841,-492.1464 780,-477.0717 969.5835,-452.2452 1479.6098,-280.0699 1636,-390.0717 1857.675,-545.9934 2021.2527,-1468.6319 2050.3653,-1642.7395"/>
<polygon fill="#de958e" stroke="#de958e" points="2046.9247,-1643.386 2052.0164,-1652.6772 2053.83,-1642.2387 2046.9247,-1643.386"/>
</g>
<!-- dask.dataframe -->
<g id="node57" class="node">
<title>dask.dataframe</title>
<polygon fill="#343434" stroke="#343434" points="456,-1571.0717 324,-1571.0717 324,-1535.0717 456,-1535.0717 456,-1571.0717"/>
<text text-anchor="middle" x="390" y="-1549.3717" font-family="Courier,monospace" font-size="14.00" fill="#de958e">dask.dataframe</text>
</g>
<!-- dask.dataframe&#45;&gt;hidebound.core.database -->
<g id="edge128" class="edge">
<title>dask.dataframe&#45;&gt;hidebound.core.database</title>
<path fill="none" stroke="#de958e" d="M456.3217,-1567.6312C476.9385,-1571.5062 499.8154,-1575.1471 521,-1577.0717 619.7046,-1586.0387 644.9118,-1579.2049 744,-1577.0717 888.5449,-1573.9598 945.7985,-1638.7307 1069,-1563.0717 1096.8103,-1545.9931 1077.7569,-1517.0411 1105,-1499.0717 1218.8173,-1423.9981 1284.0451,-1518.2807 1410,-1466.0717 1428.9797,-1458.2044 1428.6188,-1448.0268 1446,-1437.0717 1525.2095,-1387.147 1555.2693,-1393.4971 1636,-1346.0717 1684.4438,-1317.6133 1736.8644,-1279.0335 1769.0713,-1254.3418"/>
<polygon fill="#de958e" stroke="#de958e" points="1771.4211,-1256.9496 1777.2039,-1248.0722 1767.1472,-1251.4058 1771.4211,-1256.9496"/>
</g>
<!-- dask.dataframe&#45;&gt;hidebound.core.database_tools -->
<g id="edge129" class="edge">
<title>dask.dataframe&#45;&gt;hidebound.core.database_tools</title>
<path fill="none" stroke="#de958e" d="M456.075,-1558.436C605.8994,-1569.3876 966.3749,-1588.5576 1069,-1529.0717 1095.2488,-1513.8567 1080.1508,-1488.4788 1105,-1471.0717 1110.1618,-1467.4557 1115.6471,-1464.2329 1121.3543,-1461.3616"/>
<polygon fill="#de958e" stroke="#de958e" points="1122.8857,-1464.5096 1130.4906,-1457.1329 1119.9454,-1458.157 1122.8857,-1464.5096"/>
</g>
<!-- dask.dataframe&#45;&gt;hidebound.core.tools -->
<g id="edge130" class="edge">
<title>dask.dataframe&#45;&gt;hidebound.core.tools</title>
<path fill="none" stroke="#de958e" d="M393.9404,-1535.0045C408.3948,-1468.0645 459.0122,-1227.6927 485,-1027.0717 511.0593,-825.8983 451.1984,-762.5384 521,-572.0717 539.7672,-520.8619 580.4676,-471.4523 607.1562,-442.6819"/>
<polygon fill="#de958e" stroke="#de958e" points="609.9648,-444.8053 614.2824,-435.1301 604.8736,-440.0011 609.9648,-444.8053"/>
</g>
<!-- hidebound -->
<g id="node58" class="node">
<title>hidebound</title>
<polygon fill="#343434" stroke="#343434" points="91,-1361.0717 0,-1361.0717 0,-1325.0717 91,-1325.0717 91,-1361.0717"/>
<text text-anchor="middle" x="45.5" y="-1339.3717" font-family="Courier,monospace" font-size="14.00" fill="#a0d17b">hidebound</text>
</g>
<!-- hidebound&#45;&gt;hidebound.server -->
<g id="edge131" class="edge">
<title>hidebound&#45;&gt;hidebound.server</title>
<path fill="none" stroke="#a0d17b" d="M49.414,-1361.1324C74.8927,-1476.3738 221.4082,-2104.0717 390,-2104.0717 390,-2104.0717 390,-2104.0717 924.5,-2104.0717 1114.54,-2104.0717 1337.1164,-2118.9465 1455.9654,-2128.0886"/>
<polygon fill="#a0d17b" stroke="#a0d17b" points="1455.849,-2131.59 1466.0895,-2128.8729 1456.3897,-2124.6109 1455.849,-2131.59"/>
</g>
<!-- hidebound&#45;&gt;hidebound.exporters -->
<g id="edge132" class="edge">
<title>hidebound&#45;&gt;hidebound.exporters</title>
<path fill="none" stroke="#a0d17b" d="M91.0725,-1330.3393C191.9149,-1302.1653 434.7469,-1234.3212 558.0178,-1199.881"/>
<polygon fill="#a0d17b" stroke="#a0d17b" points="559.0752,-1203.2197 567.7646,-1197.1579 557.1916,-1196.4779 559.0752,-1203.2197"/>
</g>
<!-- hidebound.core -->
<g id="node59" class="node">
<title>hidebound.core</title>
<polygon fill="#343434" stroke="#343434" points="259,-701.0717 127,-701.0717 127,-665.0717 259,-665.0717 259,-701.0717"/>
<text text-anchor="middle" x="193" y="-679.3717" font-family="Courier,monospace" font-size="14.00" fill="#a0d17b">hidebound.core</text>
</g>
<!-- hidebound&#45;&gt;hidebound.core -->
<g id="edge133" class="edge">
<title>hidebound&#45;&gt;hidebound.core</title>
<path fill="none" stroke="#a0d17b" d="M83.4735,-1324.8916C86.3825,-1322.2838 88.9707,-1319.3527 91,-1316.0717 149.0155,-1222.2729 98.7155,-927.6737 127,-821.0717 137.7836,-780.4291 160.4748,-737.2719 176.2192,-710.2574"/>
<polygon fill="#a0d17b" stroke="#a0d17b" points="179.3779,-711.7925 181.4676,-701.4058 173.3568,-708.2224 179.3779,-711.7925"/>
</g>
<!-- hidebound.core&#45;&gt;hidebound.core.config -->
<g id="edge134" class="edge">
<title>hidebound.core&#45;&gt;hidebound.core.config</title>
<path fill="none" stroke="#a0d17b" d="M194.491,-664.9056C201.1308,-588.6085 230.5604,-295.2142 295,-234.0717 357.5163,-174.7541 997.3532,-136.1802 1069,-184.0717 1103.7897,-207.3264 1078.3929,-238.7735 1105,-271.0717 1208.3793,-396.563 1304.9466,-348.9784 1410,-473.0717 1480.3821,-556.2097 1519.5351,-683.2057 1534.2089,-739.0599"/>
<polygon fill="#a0d17b" stroke="#a0d17b" points="1530.8686,-740.1246 1536.7428,-748.9419 1537.6493,-738.3859 1530.8686,-740.1246"/>
</g>
<!-- hidebound.core&#45;&gt;hidebound.core.database -->
<g id="edge135" class="edge">
<title>hidebound.core&#45;&gt;hidebound.core.database</title>
<path fill="none" stroke="#a0d17b" d="M193.9053,-664.9673C198.3891,-583.191 221.0512,-249.3972 295,-183.0717 423.1046,-68.1732 905.4034,-105.6994 1069,-159.0717 1247.4056,-217.2752 1267.4483,-286.0257 1410,-408.0717 1427.1884,-422.7876 1426.05,-433.3947 1446,-444.0717 1521.927,-484.7065 1574.5474,-421.7419 1636,-482.0717 1741.9038,-586.0403 1787.823,-1077.5822 1797.8356,-1201.6024"/>
<polygon fill="#a0d17b" stroke="#a0d17b" points="1794.3652,-1202.1145 1798.6447,-1211.8065 1801.3433,-1201.5611 1794.3652,-1202.1145"/>
</g>
<!-- hidebound.core&#45;&gt;hidebound.core.database_tools -->
<g id="edge136" class="edge">
<title>hidebound.core&#45;&gt;hidebound.core.database_tools</title>
<path fill="none" stroke="#a0d17b" d="M203.6368,-701.1586C218.3161,-726.917 244.5991,-776.0464 259,-821.0717 287.314,-909.597 266.3324,-938.6602 295,-1027.0717 365.6282,-1244.8909 328.9278,-1365.4047 521,-1490.0717 572.0807,-1523.2262 1011.3991,-1518.835 1069,-1499.0717 1088.1726,-1492.4934 1086.6089,-1479.5941 1105,-1471.0717 1113.9282,-1466.9343 1123.3982,-1463.3267 1133.0756,-1460.1817"/>
<polygon fill="#a0d17b" stroke="#a0d17b" points="1134.2802,-1463.4731 1142.8098,-1457.1885 1132.2227,-1456.7823 1134.2802,-1463.4731"/>
</g>
<!-- hidebound.core&#45;&gt;hidebound.core.logging -->
<g id="edge137" class="edge">
<title>hidebound.core&#45;&gt;hidebound.core.logging</title>
<path fill="none" stroke="#a0d17b" d="M204.7243,-701.3564C220.4235,-726.9534 247.6167,-775.4642 259,-821.0717 281.4884,-911.1715 244.4882,-1578.1469 295,-1656.0717 356.0839,-1750.306 416.3631,-1728.2983 521,-1769.0717 531.0568,-1772.9904 541.7895,-1776.6709 552.4745,-1780.0411"/>
<polygon fill="#a0d17b" stroke="#a0d17b" points="551.666,-1783.4541 562.253,-1783.0468 553.7228,-1776.7631 551.666,-1783.4541"/>
</g>
<!-- hidebound.core&#45;&gt;hidebound.core.parser -->
<g id="edge138" class="edge">
<title>hidebound.core&#45;&gt;hidebound.core.parser</title>
<path fill="none" stroke="#a0d17b" d="M214.8351,-701.36C250.3556,-731.1106 320.6858,-790.0166 360.5773,-823.4282"/>
<polygon fill="#a0d17b" stroke="#a0d17b" points="358.4537,-826.2151 368.3673,-829.9529 362.9484,-820.8487 358.4537,-826.2151"/>
</g>
<!-- hidebound.core&#45;&gt;hidebound.core.specification_base -->
<g id="edge139" class="edge">
<title>hidebound.core&#45;&gt;hidebound.core.specification_base</title>
<path fill="none" stroke="#a0d17b" d="M259.2059,-679.6324C373.7166,-673.6838 611.6412,-661.3241 769.7018,-653.1131"/>
<polygon fill="#a0d17b" stroke="#a0d17b" points="770.1904,-656.5926 779.9954,-652.5784 769.8272,-649.602 770.1904,-656.5926"/>
</g>
<!-- hidebound.core&#45;&gt;hidebound.core.specifications -->
<g id="edge140" class="edge">
<title>hidebound.core&#45;&gt;hidebound.core.specifications</title>
<path fill="none" stroke="#a0d17b" d="M196.4305,-664.9259C208.0014,-605.8553 247.537,-420.9181 295,-387.0717 303.0183,-381.3537 682.4109,-387.2547 744,-390.0717 888.7546,-396.6925 943.5996,-343.4599 1069,-416.0717 1167.7604,-473.2578 1226.2067,-605.4756 1247.8558,-663.2315"/>
<polygon fill="#a0d17b" stroke="#a0d17b" points="1244.6333,-664.6101 1251.3581,-672.7971 1251.2065,-662.2033 1244.6333,-664.6101"/>
</g>
<!-- hidebound.core&#45;&gt;hidebound.core.tools -->
<g id="edge141" class="edge">
<title>hidebound.core&#45;&gt;hidebound.core.tools</title>
<path fill="none" stroke="#a0d17b" d="M194.2368,-664.8199C198.5185,-617.6316 217.0882,-491.424 295,-436.0717 365.9379,-385.6739 467.924,-387.2831 541.194,-397.5614"/>
<polygon fill="#a0d17b" stroke="#a0d17b" points="540.9308,-401.0605 551.3359,-399.0647 541.9572,-394.1362 540.9308,-401.0605"/>
</g>
<!-- hidebound.core&#45;&gt;hidebound.core.traits -->
<g id="edge142" class="edge">
<title>hidebound.core&#45;&gt;hidebound.core.traits</title>
<path fill="none" stroke="#a0d17b" d="M194.0728,-665.029C198.098,-611.9623 216.4062,-454.0571 295,-357.0717 420.5402,-202.1541 675.1917,-191.9727 819.1644,-200.2271"/>
<polygon fill="#a0d17b" stroke="#a0d17b" points="819.1402,-203.7321 829.3359,-200.8515 819.5692,-196.7453 819.1402,-203.7321"/>
</g>
<!-- hidebound.core&#45;&gt;hidebound.core.validators -->
<g id="edge143" class="edge">
<title>hidebound.core&#45;&gt;hidebound.core.validators</title>
<path fill="none" stroke="#a0d17b" d="M251.8234,-701.1671C314.465,-722.5224 414.1481,-762.6751 485,-821.0717 505.8534,-838.2591 502.9925,-849.9221 521,-870.0717 546.6049,-898.7224 579.2136,-928.1499 602.5415,-948.1748"/>
<polygon fill="#a0d17b" stroke="#a0d17b" points="600.4964,-951.0304 610.3791,-954.8491 605.0348,-945.7009 600.4964,-951.0304"/>
</g>
<!-- skimage.io -->
<g id="node60" class="node">
<title>skimage.io</title>
<polygon fill="#343434" stroke="#343434" points="682,-275.0717 583,-275.0717 583,-239.0717 682,-239.0717 682,-275.0717"/>
<text text-anchor="middle" x="632.5" y="-253.3717" font-family="Courier,monospace" font-size="14.00" fill="#de958e">skimage.io</text>
</g>
<!-- skimage.io&#45;&gt;hidebound.core.traits -->
<g id="edge144" class="edge">
<title>skimage.io&#45;&gt;hidebound.core.traits</title>
<path fill="none" stroke="#de958e" d="M682.0338,-249.2684C719.6309,-243.3456 772.6761,-234.9891 819.5685,-227.602"/>
<polygon fill="#de958e" stroke="#de958e" points="820.1402,-231.0552 829.4737,-226.0416 819.0508,-224.1404 820.1402,-231.0552"/>
</g>
</g>
</svg>
