<?xml version="1.0" encoding="UTF-8" standalone="no"?>
<!DOCTYPE svg PUBLIC "-//W3C//DTD SVG 1.1//EN"
 "http://www.w3.org/Graphics/SVG/1.1/DTD/svg11.dtd">
<!-- Generated by graphviz version 2.40.1 (20161225.0304)
 -->
<!-- Title: %3 Pages: 1 -->
<svg width="2459pt" height="1777pt"
 viewBox="0.00 0.00 2459.00 1777.23" xmlns="http://www.w3.org/2000/svg" xmlns:xlink="http://www.w3.org/1999/xlink">
<g id="graph0" class="graph" transform="scale(1 1) rotate(0) translate(4 1773.2283)">
<title>%3</title>
<polygon fill="#242424" stroke="transparent" points="-4,4 -4,-1773.2283 2455,-1773.2283 2455,4 -4,4"/>
<!-- cli -->
<g id="node1" class="node">
<title>cli</title>
<polygon fill="#343434" stroke="#343434" points="171.5,-899.8892 117.5,-899.8892 117.5,-863.8892 171.5,-863.8892 171.5,-899.8892"/>
<text text-anchor="middle" x="144.5" y="-878.1892" font-family="Courier,monospace" font-size="14.00" fill="#b6ecf3">cli</text>
</g>
<!-- hidebound.core.config -->
<g id="node2" class="node">
<title>hidebound.core.config</title>
<polygon fill="#343434" stroke="#343434" points="1649,-1201.8892 1459,-1201.8892 1459,-1165.8892 1649,-1165.8892 1649,-1201.8892"/>
<text text-anchor="middle" x="1554" y="-1180.1892" font-family="Courier,monospace" font-size="14.00" fill="#b6ecf3">hidebound.core.config</text>
</g>
<!-- hidebound.core.database -->
<g id="node3" class="node">
<title>hidebound.core.database</title>
<polygon fill="#343434" stroke="#343434" points="1949,-876.8892 1743,-876.8892 1743,-840.8892 1949,-840.8892 1949,-876.8892"/>
<text text-anchor="middle" x="1846" y="-855.1892" font-family="Courier,monospace" font-size="14.00" fill="#b6ecf3">hidebound.core.database</text>
</g>
<!-- hidebound.core.config&#45;&gt;hidebound.core.database -->
<g id="edge1" class="edge">
<title>hidebound.core.config&#45;&gt;hidebound.core.database</title>
<path fill="none" stroke="#b6ecf3" d="M1611.1404,-1165.8189C1636.7368,-1154.8232 1664.9393,-1138.1195 1682,-1113.8892 1741.0619,-1030.0075 1647.3427,-960.2666 1718,-885.8892 1722.7293,-880.9109 1728.1269,-876.7319 1733.969,-873.2328"/>
<polygon fill="#b6ecf3" stroke="#b6ecf3" points="1735.5981,-876.3307 1742.8203,-868.5789 1732.3403,-870.1349 1735.5981,-876.3307"/>
</g>
<!-- hidebound.server.app -->
<g id="node17" class="node">
<title>hidebound.server.app</title>
<polygon fill="#343434" stroke="#343434" points="2451,-331.8892 2269,-331.8892 2269,-295.8892 2451,-295.8892 2451,-331.8892"/>
<text text-anchor="middle" x="2360" y="-310.1892" font-family="Courier,monospace" font-size="14.00" fill="#b6ecf3">hidebound.server.app</text>
</g>
<!-- hidebound.core.config&#45;&gt;hidebound.server.app -->
<g id="edge2" class="edge">
<title>hidebound.core.config&#45;&gt;hidebound.server.app</title>
<path fill="none" stroke="#b6ecf3" d="M1606.5271,-1165.7663C1735.735,-1118.316 2070.3087,-977.4861 2233,-740.8892 2322.8248,-610.2598 2350.2263,-415.0646 2357.5808,-342.4463"/>
<polygon fill="#b6ecf3" stroke="#b6ecf3" points="2361.0872,-342.5463 2358.5607,-332.2572 2354.1194,-341.8762 2361.0872,-342.5463"/>
</g>
<!-- hidebound.server.api -->
<g id="node16" class="node">
<title>hidebound.server.api</title>
<polygon fill="#343434" stroke="#343434" points="2212.5,-564.8892 2030.5,-564.8892 2030.5,-528.8892 2212.5,-528.8892 2212.5,-564.8892"/>
<text text-anchor="middle" x="2121.5" y="-543.1892" font-family="Courier,monospace" font-size="14.00" fill="#b6ecf3">hidebound.server.api</text>
</g>
<!-- hidebound.core.database&#45;&gt;hidebound.server.api -->
<g id="edge3" class="edge">
<title>hidebound.core.database&#45;&gt;hidebound.server.api</title>
<path fill="none" stroke="#b6ecf3" d="M1862.0029,-840.7662C1908.6031,-787.9921 2044.3339,-634.2787 2098.6454,-572.7718"/>
<polygon fill="#b6ecf3" stroke="#b6ecf3" points="2101.4575,-574.8749 2105.453,-565.0623 2096.2104,-570.2416 2101.4575,-574.8749"/>
</g>
<!-- hidebound.core.database_tools -->
<g id="node4" class="node">
<title>hidebound.core.database_tools</title>
<polygon fill="#343434" stroke="#343434" points="1682,-811.8892 1426,-811.8892 1426,-775.8892 1682,-775.8892 1682,-811.8892"/>
<text text-anchor="middle" x="1554" y="-790.1892" font-family="Courier,monospace" font-size="14.00" fill="#b6ecf3">hidebound.core.database_tools</text>
</g>
<!-- hidebound.core.database_tools&#45;&gt;hidebound.core.database -->
<g id="edge4" class="edge">
<title>hidebound.core.database_tools&#45;&gt;hidebound.core.database</title>
<path fill="none" stroke="#b6ecf3" d="M1634.9505,-811.909C1672.1351,-820.1864 1716.3959,-830.039 1754.7582,-838.5786"/>
<polygon fill="#b6ecf3" stroke="#b6ecf3" points="1754.3704,-842.0778 1764.892,-840.8344 1755.8915,-835.2451 1754.3704,-842.0778"/>
</g>
<!-- hidebound.core.logging -->
<g id="node5" class="node">
<title>hidebound.core.logging</title>
<polygon fill="#343434" stroke="#343434" points="691,-538.8892 493,-538.8892 493,-502.8892 691,-502.8892 691,-538.8892"/>
<text text-anchor="middle" x="592" y="-517.1892" font-family="Courier,monospace" font-size="14.00" fill="#b6ecf3">hidebound.core.logging</text>
</g>
<!-- hidebound.core.logging&#45;&gt;hidebound.core.database -->
<g id="edge5" class="edge">
<title>hidebound.core.logging&#45;&gt;hidebound.core.database</title>
<path fill="none" stroke="#b6ecf3" d="M691.2504,-519.8085C944.6346,-517.8614 1601.19,-518.2162 1682,-572.8892 1775.691,-636.277 1822.4649,-772.2477 1838.9231,-830.9535"/>
<polygon fill="#b6ecf3" stroke="#b6ecf3" points="1835.5612,-831.929 1841.5633,-840.6597 1842.3158,-830.0917 1835.5612,-831.929"/>
</g>
<!-- hidebound.exporters.exporter_base -->
<g id="node12" class="node">
<title>hidebound.exporters.exporter_base</title>
<polygon fill="#343434" stroke="#343434" points="1016,-1133.8892 727,-1133.8892 727,-1097.8892 1016,-1097.8892 1016,-1133.8892"/>
<text text-anchor="middle" x="871.5" y="-1112.1892" font-family="Courier,monospace" font-size="14.00" fill="#b6ecf3">hidebound.exporters.exporter_base</text>
</g>
<!-- hidebound.core.logging&#45;&gt;hidebound.exporters.exporter_base -->
<g id="edge6" class="edge">
<title>hidebound.core.logging&#45;&gt;hidebound.exporters.exporter_base</title>
<path fill="none" stroke="#b6ecf3" d="M615.598,-539.0213C639.294,-558.7536 674.5761,-592.6445 691,-630.8892 731.285,-724.6967 658.7465,-1012.967 727,-1088.8892 727.6345,-1089.595 728.281,-1090.286 728.9392,-1090.9624"/>
<polygon fill="#b6ecf3" stroke="#b6ecf3" points="726.6309,-1093.5937 736.4114,-1097.6671 731.3058,-1088.3835 726.6309,-1093.5937"/>
</g>
<!-- hidebound.server.progress -->
<g id="node19" class="node">
<title>hidebound.server.progress</title>
<polygon fill="#343434" stroke="#343434" points="1957.5,-564.8892 1734.5,-564.8892 1734.5,-528.8892 1957.5,-528.8892 1957.5,-564.8892"/>
<text text-anchor="middle" x="1846" y="-543.1892" font-family="Courier,monospace" font-size="14.00" fill="#b6ecf3">hidebound.server.progress</text>
</g>
<!-- hidebound.core.logging&#45;&gt;hidebound.server.progress -->
<g id="edge7" class="edge">
<title>hidebound.core.logging&#45;&gt;hidebound.server.progress</title>
<path fill="none" stroke="#b6ecf3" d="M662.3095,-502.8437C683.0031,-498.3338 705.7841,-494.1423 727,-491.8892 893.3413,-474.2244 1511.3737,-478.963 1682,-502.8892 1686.7804,-503.5596 1729.6115,-515.0652 1770.2997,-526.1415"/>
<polygon fill="#b6ecf3" stroke="#b6ecf3" points="1769.455,-529.5389 1780.0234,-528.7913 1771.2955,-522.7852 1769.455,-529.5389"/>
</g>
<!-- hidebound.core.parser -->
<g id="node6" class="node">
<title>hidebound.core.parser</title>
<polygon fill="#343434" stroke="#343434" points="687,-857.8892 497,-857.8892 497,-821.8892 687,-821.8892 687,-857.8892"/>
<text text-anchor="middle" x="592" y="-836.1892" font-family="Courier,monospace" font-size="14.00" fill="#b6ecf3">hidebound.core.parser</text>
</g>
<!-- hidebound.core.parser&#45;&gt;hidebound.core.database_tools -->
<g id="edge8" class="edge">
<title>hidebound.core.parser&#45;&gt;hidebound.core.database_tools</title>
<path fill="none" stroke="#b6ecf3" d="M636.1756,-821.8892C662.1508,-812.2225 695.9008,-801.2225 727,-795.8892 1017.4481,-746.0797 1095.3611,-782.5013 1390,-787.8892 1398.3946,-788.0427 1407.0297,-788.2404 1415.7387,-788.47"/>
<polygon fill="#b6ecf3" stroke="#b6ecf3" points="1415.8933,-791.9756 1425.9863,-788.7536 1416.0869,-784.9782 1415.8933,-791.9756"/>
</g>
<!-- hidebound.core.specification_base -->
<g id="node7" class="node">
<title>hidebound.core.specification_base</title>
<polygon fill="#343434" stroke="#343434" points="1365.5,-995.8892 1076.5,-995.8892 1076.5,-959.8892 1365.5,-959.8892 1365.5,-995.8892"/>
<text text-anchor="middle" x="1221" y="-974.1892" font-family="Courier,monospace" font-size="14.00" fill="#b6ecf3">hidebound.core.specification_base</text>
</g>
<!-- hidebound.core.parser&#45;&gt;hidebound.core.specification_base -->
<g id="edge9" class="edge">
<title>hidebound.core.parser&#45;&gt;hidebound.core.specification_base</title>
<path fill="none" stroke="#b6ecf3" d="M682.7066,-821.8609C775.0746,-808.7837 918.2319,-803.6631 1016,-871.8892 1047.6421,-893.9702 1021.3024,-927.513 1052,-950.8892 1056.7702,-954.5218 1061.8385,-957.7494 1067.1283,-960.6133"/>
<polygon fill="#b6ecf3" stroke="#b6ecf3" points="1065.7089,-963.8158 1076.226,-965.0972 1068.8035,-957.5369 1065.7089,-963.8158"/>
</g>
<!-- hidebound.core.validators -->
<g id="node11" class="node">
<title>hidebound.core.validators</title>
<polygon fill="#343434" stroke="#343434" points="983,-1317.8892 760,-1317.8892 760,-1281.8892 983,-1281.8892 983,-1317.8892"/>
<text text-anchor="middle" x="871.5" y="-1296.1892" font-family="Courier,monospace" font-size="14.00" fill="#b6ecf3">hidebound.core.validators</text>
</g>
<!-- hidebound.core.parser&#45;&gt;hidebound.core.validators -->
<g id="edge10" class="edge">
<title>hidebound.core.parser&#45;&gt;hidebound.core.validators</title>
<path fill="none" stroke="#b6ecf3" d="M635.9925,-858.0154C656.1241,-868.6382 678.2806,-884.108 691,-904.8892 768.02,-1030.7265 640.2734,-1115.5342 727,-1234.8892 741.2195,-1254.4585 762.7206,-1268.2532 784.8227,-1277.9314"/>
<polygon fill="#b6ecf3" stroke="#b6ecf3" points="783.7326,-1281.2674 794.3124,-1281.832 786.3939,-1274.793 783.7326,-1281.2674"/>
</g>
<!-- hidebound.core.specification_base&#45;&gt;hidebound.core.config -->
<g id="edge11" class="edge">
<title>hidebound.core.specification_base&#45;&gt;hidebound.core.config</title>
<path fill="none" stroke="#b6ecf3" d="M1289.8025,-996.0364C1323.8533,-1008.093 1363.2782,-1027.1236 1390,-1055.8892 1421.0135,-1089.2749 1391.9984,-1121.5522 1426,-1151.8892 1432.9663,-1158.1047 1440.9589,-1163.1522 1449.4745,-1167.2461"/>
<polygon fill="#b6ecf3" stroke="#b6ecf3" points="1448.3286,-1170.5639 1458.8962,-1171.3242 1451.1093,-1164.1398 1448.3286,-1170.5639"/>
</g>
<!-- hidebound.core.specification_base&#45;&gt;hidebound.core.database -->
<g id="edge12" class="edge">
<title>hidebound.core.specification_base&#45;&gt;hidebound.core.database</title>
<path fill="none" stroke="#b6ecf3" d="M1365.6224,-963.3418C1374.1653,-959.896 1382.3734,-955.7842 1390,-950.8892 1414.2747,-935.3091 1401.2083,-911.6328 1426,-896.8892 1476.0643,-867.116 1626.1506,-859.6736 1732.58,-858.3046"/>
<polygon fill="#b6ecf3" stroke="#b6ecf3" points="1732.7785,-861.8027 1742.7385,-858.1906 1732.6998,-854.8032 1732.7785,-861.8027"/>
</g>
<!-- hidebound.core.specification_base&#45;&gt;hidebound.core.database_tools -->
<g id="edge13" class="edge">
<title>hidebound.core.specification_base&#45;&gt;hidebound.core.database_tools</title>
<path fill="none" stroke="#b6ecf3" d="M1365.5996,-965.5841C1374.3013,-961.6233 1382.5383,-956.7819 1390,-950.8892 1422.8405,-924.9545 1398.052,-895.0344 1426,-863.8892 1444.4431,-843.3363 1470.3935,-827.5933 1494.1115,-816.291"/>
<polygon fill="#b6ecf3" stroke="#b6ecf3" points="1495.7852,-819.374 1503.4159,-812.024 1492.8672,-813.0112 1495.7852,-819.374"/>
</g>
<!-- hidebound.core.specifications -->
<g id="node8" class="node">
<title>hidebound.core.specifications</title>
<polygon fill="#343434" stroke="#343434" points="1682,-1392.8892 1426,-1392.8892 1426,-1356.8892 1682,-1356.8892 1682,-1392.8892"/>
<text text-anchor="middle" x="1554" y="-1371.1892" font-family="Courier,monospace" font-size="14.00" fill="#b6ecf3">hidebound.core.specifications</text>
</g>
<!-- hidebound.core.specification_base&#45;&gt;hidebound.core.specifications -->
<g id="edge14" class="edge">
<title>hidebound.core.specification_base&#45;&gt;hidebound.core.specifications</title>
<path fill="none" stroke="#b6ecf3" d="M1260.5575,-995.9232C1298.9647,-1015.3725 1356.2668,-1049.8482 1390,-1095.8892 1421.6532,-1139.0913 1401.1235,-1163.4603 1426,-1210.8892 1454.1821,-1264.6206 1500.4951,-1318.4535 1529.0085,-1349.1178"/>
<polygon fill="#b6ecf3" stroke="#b6ecf3" points="1526.8005,-1351.8789 1536.2005,-1356.7668 1531.9002,-1347.0838 1526.8005,-1351.8789"/>
</g>
<!-- hidebound.core.tools -->
<g id="node9" class="node">
<title>hidebound.core.tools</title>
<polygon fill="#343434" stroke="#343434" points="962.5,-949.8892 780.5,-949.8892 780.5,-913.8892 962.5,-913.8892 962.5,-949.8892"/>
<text text-anchor="middle" x="871.5" y="-928.1892" font-family="Courier,monospace" font-size="14.00" fill="#b6ecf3">hidebound.core.tools</text>
</g>
<!-- hidebound.core.tools&#45;&gt;hidebound.core.database -->
<g id="edge15" class="edge">
<title>hidebound.core.tools&#45;&gt;hidebound.core.database</title>
<path fill="none" stroke="#b6ecf3" d="M957.1039,-913.8413C987.0341,-907.9165 1020.9193,-901.64 1052,-896.8892 1217.3466,-871.6153 1258.9943,-864.2372 1426,-854.8892 1539.6,-848.5306 1568.2307,-853.502 1682,-854.8892 1698.2728,-855.0876 1715.4519,-855.3968 1732.3219,-855.7573"/>
<polygon fill="#b6ecf3" stroke="#b6ecf3" points="1732.7003,-859.2664 1742.7751,-855.9879 1732.8547,-852.2681 1732.7003,-859.2664"/>
</g>
<!-- hidebound.core.tools&#45;&gt;hidebound.core.database_tools -->
<g id="edge16" class="edge">
<title>hidebound.core.tools&#45;&gt;hidebound.core.database_tools</title>
<path fill="none" stroke="#b6ecf3" d="M911.534,-913.8653C947.5744,-898.3551 1002.3506,-876.536 1052,-863.8892 1060.8698,-861.6299 1270.3684,-832.7239 1415.8889,-812.7722"/>
<polygon fill="#b6ecf3" stroke="#b6ecf3" points="1416.3833,-816.2372 1425.8153,-811.4115 1415.4325,-809.3021 1416.3833,-816.2372"/>
</g>
<!-- hidebound.core.tools&#45;&gt;hidebound.core.specification_base -->
<g id="edge17" class="edge">
<title>hidebound.core.tools&#45;&gt;hidebound.core.specification_base</title>
<path fill="none" stroke="#b6ecf3" d="M962.8705,-943.9151C996.8467,-948.3869 1036.3155,-953.5817 1074.015,-958.5436"/>
<polygon fill="#b6ecf3" stroke="#b6ecf3" points="1073.7028,-962.0326 1084.0741,-959.8675 1074.6163,-955.0924 1073.7028,-962.0326"/>
</g>
<!-- hidebound.core.traits -->
<g id="node10" class="node">
<title>hidebound.core.traits</title>
<polygon fill="#343434" stroke="#343434" points="1316,-1631.8892 1126,-1631.8892 1126,-1595.8892 1316,-1595.8892 1316,-1631.8892"/>
<text text-anchor="middle" x="1221" y="-1610.1892" font-family="Courier,monospace" font-size="14.00" fill="#b6ecf3">hidebound.core.traits</text>
</g>
<!-- hidebound.core.tools&#45;&gt;hidebound.core.traits -->
<g id="edge18" class="edge">
<title>hidebound.core.tools&#45;&gt;hidebound.core.traits</title>
<path fill="none" stroke="#b6ecf3" d="M913.0143,-949.8994C946.5988,-966.7731 992.1013,-995.3373 1016,-1034.8892 1077.2416,-1136.243 1015.427,-1186.2592 1052,-1298.8892 1089.1438,-1413.2772 1166.8951,-1534.9894 1202.4905,-1587.3891"/>
<polygon fill="#b6ecf3" stroke="#b6ecf3" points="1199.6922,-1589.4976 1208.2289,-1595.7726 1205.4686,-1585.5436 1199.6922,-1589.4976"/>
</g>
<!-- hidebound.exporters.local_disk_exporter -->
<g id="node14" class="node">
<title>hidebound.exporters.local_disk_exporter</title>
<polygon fill="#343434" stroke="#343434" points="1390,-1140.8892 1052,-1140.8892 1052,-1104.8892 1390,-1104.8892 1390,-1140.8892"/>
<text text-anchor="middle" x="1221" y="-1119.1892" font-family="Courier,monospace" font-size="14.00" fill="#b6ecf3">hidebound.exporters.local_disk_exporter</text>
</g>
<!-- hidebound.core.tools&#45;&gt;hidebound.exporters.local_disk_exporter -->
<g id="edge19" class="edge">
<title>hidebound.core.tools&#45;&gt;hidebound.exporters.local_disk_exporter</title>
<path fill="none" stroke="#b6ecf3" d="M904.6952,-950.0302C968.6191,-984.9643 1108.686,-1061.5102 1178.9918,-1099.932"/>
<polygon fill="#b6ecf3" stroke="#b6ecf3" points="1177.5729,-1103.145 1188.0265,-1104.8694 1180.9298,-1097.0025 1177.5729,-1103.145"/>
</g>
<!-- hidebound.core.traits&#45;&gt;hidebound.core.specifications -->
<g id="edge20" class="edge">
<title>hidebound.core.traits&#45;&gt;hidebound.core.specifications</title>
<path fill="none" stroke="#b6ecf3" d="M1316.1686,-1615.1116C1343.1565,-1610.7837 1370.4745,-1601.2154 1390,-1581.8892 1447.9841,-1524.4972 1368.6147,-1459.88 1426,-1401.8892 1426.8187,-1401.0619 1427.6559,-1400.2568 1428.5106,-1399.4735"/>
<polygon fill="#b6ecf3" stroke="#b6ecf3" points="1431.0027,-1401.9633 1436.645,-1392.9958 1426.642,-1396.4874 1431.0027,-1401.9633"/>
</g>
<!-- hidebound.core.validators&#45;&gt;hidebound.core.config -->
<g id="edge21" class="edge">
<title>hidebound.core.validators&#45;&gt;hidebound.core.config</title>
<path fill="none" stroke="#b6ecf3" d="M962.4593,-1281.8192C980.4761,-1277.1385 999.0495,-1271.5099 1016,-1264.8892 1033.049,-1258.2301 1034.5665,-1250.4646 1052,-1244.8892 1195.9847,-1198.842 1240.023,-1225.833 1390,-1206.8892 1408.9463,-1204.4961 1429.1014,-1201.7965 1448.5626,-1199.1105"/>
<polygon fill="#b6ecf3" stroke="#b6ecf3" points="1449.2421,-1202.5498 1458.6662,-1197.7088 1448.2801,-1195.6162 1449.2421,-1202.5498"/>
</g>
<!-- hidebound.core.validators&#45;&gt;hidebound.core.specification_base -->
<g id="edge22" class="edge">
<title>hidebound.core.validators&#45;&gt;hidebound.core.specification_base</title>
<path fill="none" stroke="#b6ecf3" d="M943.5754,-1281.7668C969.7206,-1271.8683 997.3761,-1256.9664 1016,-1234.8892 1057.1483,-1186.1111 1015.5809,-1148.2929 1052,-1095.8892 1081.9662,-1052.7707 1133.104,-1020.3139 1171.2975,-1000.4629"/>
<polygon fill="#b6ecf3" stroke="#b6ecf3" points="1172.8854,-1003.582 1180.2161,-995.9326 1169.7153,-997.341 1172.8854,-1003.582"/>
</g>
<!-- hidebound.core.validators&#45;&gt;hidebound.core.specifications -->
<g id="edge23" class="edge">
<title>hidebound.core.validators&#45;&gt;hidebound.core.specifications</title>
<path fill="none" stroke="#b6ecf3" d="M983.0553,-1312.1481C1101.2697,-1325.1386 1288.1245,-1345.6721 1415.6381,-1359.6846"/>
<polygon fill="#b6ecf3" stroke="#b6ecf3" points="1415.5421,-1363.1951 1425.8646,-1360.8084 1416.3068,-1356.2369 1415.5421,-1363.1951"/>
</g>
<!-- hidebound.exporters.girder_exporter -->
<g id="node13" class="node">
<title>hidebound.exporters.girder_exporter</title>
<polygon fill="#343434" stroke="#343434" points="1373.5,-1197.8892 1068.5,-1197.8892 1068.5,-1161.8892 1373.5,-1161.8892 1373.5,-1197.8892"/>
<text text-anchor="middle" x="1221" y="-1176.1892" font-family="Courier,monospace" font-size="14.00" fill="#b6ecf3">hidebound.exporters.girder_exporter</text>
</g>
<!-- hidebound.core.validators&#45;&gt;hidebound.exporters.girder_exporter -->
<g id="edge24" class="edge">
<title>hidebound.core.validators&#45;&gt;hidebound.exporters.girder_exporter</title>
<path fill="none" stroke="#b6ecf3" d="M983.3661,-1284.5366C994.9524,-1280.2429 1006.0926,-1274.7945 1016,-1267.8892 1040.2739,-1250.9708 1027.4684,-1228.4319 1052,-1211.8892 1057.2805,-1208.3284 1062.8541,-1205.1388 1068.6355,-1202.2832"/>
<polygon fill="#b6ecf3" stroke="#b6ecf3" points="1070.2342,-1205.4009 1077.8791,-1198.0656 1067.3284,-1199.0325 1070.2342,-1205.4009"/>
</g>
<!-- hidebound.core.validators&#45;&gt;hidebound.exporters.local_disk_exporter -->
<g id="edge25" class="edge">
<title>hidebound.core.validators&#45;&gt;hidebound.exporters.local_disk_exporter</title>
<path fill="none" stroke="#b6ecf3" d="M937.3729,-1281.8262C964.4858,-1271.6778 994.5069,-1256.5771 1016,-1234.8892 1044.017,-1206.6183 1020.7135,-1177.4931 1052,-1152.8892 1055.0487,-1150.4917 1058.2243,-1148.2604 1061.5059,-1146.1846"/>
<polygon fill="#b6ecf3" stroke="#b6ecf3" points="1063.5082,-1149.0705 1070.4261,-1141.0459 1060.014,-1143.005 1063.5082,-1149.0705"/>
</g>
<!-- hidebound.exporters.s3_exporter -->
<g id="node15" class="node">
<title>hidebound.exporters.s3_exporter</title>
<polygon fill="#343434" stroke="#343434" points="1357,-1289.8892 1085,-1289.8892 1085,-1253.8892 1357,-1253.8892 1357,-1289.8892"/>
<text text-anchor="middle" x="1221" y="-1268.1892" font-family="Courier,monospace" font-size="14.00" fill="#b6ecf3">hidebound.exporters.s3_exporter</text>
</g>
<!-- hidebound.core.validators&#45;&gt;hidebound.exporters.s3_exporter -->
<g id="edge26" class="edge">
<title>hidebound.core.validators&#45;&gt;hidebound.exporters.s3_exporter</title>
<path fill="none" stroke="#b6ecf3" d="M983.0449,-1290.9529C1012.1212,-1288.6234 1043.8956,-1286.0779 1074.4844,-1283.6272"/>
<polygon fill="#b6ecf3" stroke="#b6ecf3" points="1075.1184,-1287.0878 1084.8069,-1282.8003 1074.5593,-1280.1101 1075.1184,-1287.0878"/>
</g>
<!-- hidebound.exporters.exporter_base&#45;&gt;hidebound.exporters.girder_exporter -->
<g id="edge27" class="edge">
<title>hidebound.exporters.exporter_base&#45;&gt;hidebound.exporters.girder_exporter</title>
<path fill="none" stroke="#b6ecf3" d="M966.0803,-1133.8985C993.761,-1139.1168 1024.083,-1144.7822 1052,-1149.8892 1070.1383,-1153.2074 1089.382,-1156.6742 1108.1369,-1160.0239"/>
<polygon fill="#b6ecf3" stroke="#b6ecf3" points="1107.7332,-1163.5071 1118.1924,-1161.8172 1108.9622,-1156.6158 1107.7332,-1163.5071"/>
</g>
<!-- hidebound.exporters.exporter_base&#45;&gt;hidebound.exporters.local_disk_exporter -->
<g id="edge28" class="edge">
<title>hidebound.exporters.exporter_base&#45;&gt;hidebound.exporters.local_disk_exporter</title>
<path fill="none" stroke="#b6ecf3" d="M1016.1779,-1118.7869C1024.6139,-1118.9559 1033.1463,-1119.1268 1041.6932,-1119.298"/>
<polygon fill="#b6ecf3" stroke="#b6ecf3" points="1041.6602,-1122.7979 1051.7283,-1119.4989 1041.8004,-1115.7993 1041.6602,-1122.7979"/>
</g>
<!-- hidebound.exporters.exporter_base&#45;&gt;hidebound.exporters.s3_exporter -->
<g id="edge29" class="edge">
<title>hidebound.exporters.exporter_base&#45;&gt;hidebound.exporters.s3_exporter</title>
<path fill="none" stroke="#b6ecf3" d="M917.9094,-1133.9412C946.8438,-1145.878 984.4441,-1162.6494 1016,-1180.8892 1033.0874,-1190.766 1034.6449,-1197.4907 1052,-1206.8892 1084.0653,-1224.254 1121.7708,-1239.2279 1153.4215,-1250.4123"/>
<polygon fill="#b6ecf3" stroke="#b6ecf3" points="1152.4419,-1253.7773 1163.0368,-1253.7601 1154.7437,-1247.1665 1152.4419,-1253.7773"/>
</g>
<!-- hidebound.exporters.girder_exporter&#45;&gt;hidebound.core.config -->
<g id="edge30" class="edge">
<title>hidebound.exporters.girder_exporter&#45;&gt;hidebound.core.config</title>
<path fill="none" stroke="#b6ecf3" d="M1373.8554,-1181.7253C1399.1386,-1182.029 1424.8443,-1182.3378 1448.6193,-1182.6234"/>
<polygon fill="#b6ecf3" stroke="#b6ecf3" points="1448.6422,-1186.1238 1458.6835,-1182.7443 1448.7263,-1179.1243 1448.6422,-1186.1238"/>
</g>
<!-- hidebound.exporters.girder_exporter&#45;&gt;hidebound.core.database -->
<g id="edge31" class="edge">
<title>hidebound.exporters.girder_exporter&#45;&gt;hidebound.core.database</title>
<path fill="none" stroke="#b6ecf3" d="M1373.6605,-1163.1775C1491.1197,-1147.0777 1640.2112,-1118.5056 1682,-1073.8892 1740.1565,-1011.7977 1658.4086,-946.605 1718,-885.8892 1722.6458,-881.1558 1727.8973,-877.1509 1733.5559,-873.77"/>
<polygon fill="#b6ecf3" stroke="#b6ecf3" points="1735.5176,-876.6938 1742.7545,-868.9557 1732.2716,-870.4919 1735.5176,-876.6938"/>
</g>
<!-- hidebound.exporters.local_disk_exporter&#45;&gt;hidebound.core.config -->
<g id="edge32" class="edge">
<title>hidebound.exporters.local_disk_exporter&#45;&gt;hidebound.core.config</title>
<path fill="none" stroke="#b6ecf3" d="M1323.8095,-1140.9509C1345.667,-1144.8436 1368.6031,-1148.968 1390,-1152.8892 1409.2621,-1156.4193 1429.7835,-1160.2459 1449.557,-1163.9666"/>
<polygon fill="#b6ecf3" stroke="#b6ecf3" points="1449.0303,-1167.4289 1459.5055,-1165.8414 1450.3267,-1160.55 1449.0303,-1167.4289"/>
</g>
<!-- hidebound.exporters.local_disk_exporter&#45;&gt;hidebound.core.database -->
<g id="edge33" class="edge">
<title>hidebound.exporters.local_disk_exporter&#45;&gt;hidebound.core.database</title>
<path fill="none" stroke="#b6ecf3" d="M1320.5825,-1104.8712C1455.6217,-1080.3899 1680.3506,-1039.4578 1682,-1037.8892 1732.3076,-990.0468 1668.3078,-934.3705 1718,-885.8892 1722.6939,-881.3097 1727.9575,-877.4197 1733.6023,-874.122"/>
<polygon fill="#b6ecf3" stroke="#b6ecf3" points="1735.4669,-877.0989 1742.7597,-869.4134 1732.2659,-870.8736 1735.4669,-877.0989"/>
</g>
<!-- hidebound.exporters.s3_exporter&#45;&gt;hidebound.core.config -->
<g id="edge34" class="edge">
<title>hidebound.exporters.s3_exporter&#45;&gt;hidebound.core.config</title>
<path fill="none" stroke="#b6ecf3" d="M1328.7973,-1253.8485C1349.2395,-1249.7593 1370.3667,-1245.072 1390,-1239.8892 1426.2487,-1230.3203 1466.0655,-1216.7987 1497.3885,-1205.4396"/>
<polygon fill="#b6ecf3" stroke="#b6ecf3" points="1498.633,-1208.7113 1506.8233,-1201.9905 1496.2295,-1202.1368 1498.633,-1208.7113"/>
</g>
<!-- hidebound.exporters.s3_exporter&#45;&gt;hidebound.core.database -->
<g id="edge35" class="edge">
<title>hidebound.exporters.s3_exporter&#45;&gt;hidebound.core.database</title>
<path fill="none" stroke="#b6ecf3" d="M1315.6876,-1289.8929C1420.742,-1303.8451 1587.8246,-1307.0862 1682,-1210.8892 1783.6654,-1107.0415 1620.3712,-993.5406 1718,-885.8892 1722.6641,-880.7463 1728.0396,-876.4466 1733.89,-872.8622"/>
<polygon fill="#b6ecf3" stroke="#b6ecf3" points="1735.6088,-875.9121 1742.7738,-868.1074 1732.3056,-869.7404 1735.6088,-875.9121"/>
</g>
<!-- hidebound.server.api&#45;&gt;hidebound.server.app -->
<g id="edge36" class="edge">
<title>hidebound.server.api&#45;&gt;hidebound.server.app</title>
<path fill="none" stroke="#b6ecf3" d="M2140.2147,-528.6061C2182.5347,-487.2621 2285.6673,-386.5077 2334.0884,-339.2033"/>
<polygon fill="#b6ecf3" stroke="#b6ecf3" points="2336.665,-341.5791 2341.3722,-332.0874 2331.7733,-336.572 2336.665,-341.5791"/>
</g>
<!-- hidebound.server.components -->
<g id="node18" class="node">
<title>hidebound.server.components</title>
<polygon fill="#343434" stroke="#343434" points="1965.5,-304.8892 1726.5,-304.8892 1726.5,-268.8892 1965.5,-268.8892 1965.5,-304.8892"/>
<text text-anchor="middle" x="1846" y="-283.1892" font-family="Courier,monospace" font-size="14.00" fill="#b6ecf3">hidebound.server.components</text>
</g>
<!-- hidebound.server.components&#45;&gt;hidebound.server.app -->
<g id="edge37" class="edge">
<title>hidebound.server.components&#45;&gt;hidebound.server.app</title>
<path fill="none" stroke="#b6ecf3" d="M1965.5375,-293.1684C2054.4636,-297.8397 2174.5033,-304.1452 2258.7259,-308.5694"/>
<polygon fill="#b6ecf3" stroke="#b6ecf3" points="2258.645,-312.0699 2268.8149,-309.0993 2259.0123,-305.0795 2258.645,-312.0699"/>
</g>
<!-- hidebound.server.server_tools -->
<g id="node20" class="node">
<title>hidebound.server.server_tools</title>
<polygon fill="#343434" stroke="#343434" points="1974,-930.8892 1718,-930.8892 1718,-894.8892 1974,-894.8892 1974,-930.8892"/>
<text text-anchor="middle" x="1846" y="-909.1892" font-family="Courier,monospace" font-size="14.00" fill="#b6ecf3">hidebound.server.server_tools</text>
</g>
<!-- hidebound.server.server_tools&#45;&gt;hidebound.server.api -->
<g id="edge38" class="edge">
<title>hidebound.server.server_tools&#45;&gt;hidebound.server.api</title>
<path fill="none" stroke="#b6ecf3" d="M1961.9928,-894.8035C1966.2472,-892.1789 1970.2762,-889.2206 1974,-885.8892 2012.0228,-851.8726 1990.8303,-824.1691 2010,-776.8892 2040.5376,-701.5719 2084.4497,-616.301 2106.9694,-573.8684"/>
<polygon fill="#b6ecf3" stroke="#b6ecf3" points="2110.0819,-575.4698 2111.6967,-564.9987 2103.9045,-572.1773 2110.0819,-575.4698"/>
</g>
<!-- hidebound.server.server_tools&#45;&gt;hidebound.server.app -->
<g id="edge39" class="edge">
<title>hidebound.server.server_tools&#45;&gt;hidebound.server.app</title>
<path fill="none" stroke="#b6ecf3" d="M1956.1427,-894.8765C1962.3567,-892.2702 1968.3608,-889.2919 1974,-885.8892 2195.6894,-752.1202 2318.1784,-436.5307 2350.9581,-341.4627"/>
<polygon fill="#b6ecf3" stroke="#b6ecf3" points="2354.2807,-342.5629 2354.1844,-331.9685 2347.6529,-340.3105 2354.2807,-342.5629"/>
</g>
<!-- dash -->
<g id="node21" class="node">
<title>dash</title>
<polygon fill="#343434" stroke="#343434" points="1581,-127.8892 1527,-127.8892 1527,-91.8892 1581,-91.8892 1581,-127.8892"/>
<text text-anchor="middle" x="1554" y="-106.1892" font-family="Courier,monospace" font-size="14.00" fill="#de958e">dash</text>
</g>
<!-- dash&#45;&gt;hidebound.server.app -->
<g id="edge40" class="edge">
<title>dash&#45;&gt;hidebound.server.app</title>
<path fill="none" stroke="#de958e" d="M1581.2829,-97.3726C1678.6447,-54.7287 2014.8111,74.9589 2233,-59.8892 2314.5844,-110.3111 2345.5123,-230.7701 2355.6611,-285.7105"/>
<polygon fill="#de958e" stroke="#de958e" points="2352.2524,-286.5371 2357.4226,-295.7848 2359.1478,-285.3314 2352.2524,-286.5371"/>
</g>
<!-- dash&#45;&gt;hidebound.server.components -->
<g id="edge41" class="edge">
<title>dash&#45;&gt;hidebound.server.components</title>
<path fill="none" stroke="#de958e" d="M1581.2084,-126.382C1633.3246,-157.973 1747.3714,-227.1041 1807.3601,-263.4671"/>
<polygon fill="#de958e" stroke="#de958e" points="1805.7896,-266.6079 1816.1555,-268.7986 1809.4182,-260.6218 1805.7896,-266.6079"/>
</g>
<!-- dash_cytoscape -->
<g id="node22" class="node">
<title>dash_cytoscape</title>
<polygon fill="#343434" stroke="#343434" points="1620,-304.8892 1488,-304.8892 1488,-268.8892 1620,-268.8892 1620,-304.8892"/>
<text text-anchor="middle" x="1554" y="-283.1892" font-family="Courier,monospace" font-size="14.00" fill="#de958e">dash_cytoscape</text>
</g>
<!-- dash_cytoscape&#45;&gt;hidebound.server.components -->
<g id="edge42" class="edge">
<title>dash_cytoscape&#45;&gt;hidebound.server.components</title>
<path fill="none" stroke="#de958e" d="M1620.2593,-286.8892C1648.6989,-286.8892 1682.9616,-286.8892 1716.1036,-286.8892"/>
<polygon fill="#de958e" stroke="#de958e" points="1716.3455,-290.3893 1726.3455,-286.8892 1716.3454,-283.3893 1716.3455,-290.3893"/>
</g>
<!-- hidebound.server -->
<g id="node23" class="node">
<title>hidebound.server</title>
<polygon fill="#343434" stroke="#343434" points="1628.5,-396.8892 1479.5,-396.8892 1479.5,-360.8892 1628.5,-360.8892 1628.5,-396.8892"/>
<text text-anchor="middle" x="1554" y="-375.1892" font-family="Courier,monospace" font-size="14.00" fill="#a0d17b">hidebound.server</text>
</g>
<!-- hidebound.server&#45;&gt;hidebound.server.api -->
<g id="edge43" class="edge">
<title>hidebound.server&#45;&gt;hidebound.server.api</title>
<path fill="none" stroke="#a0d17b" d="M1628.8254,-386.8233C1647.006,-390.8307 1665.8472,-396.8507 1682,-405.8892 1702.3022,-417.2495 1697.2614,-433.3467 1718,-443.8892 1820.2639,-495.8756 1863.9294,-444.5634 1974,-476.8892 2012.1606,-488.0963 2052.8008,-508.0473 2081.7384,-523.7903"/>
<polygon fill="#a0d17b" stroke="#a0d17b" points="2080.258,-526.9709 2090.7045,-528.7374 2083.6397,-520.8419 2080.258,-526.9709"/>
</g>
<!-- hidebound.server&#45;&gt;hidebound.server.app -->
<g id="edge44" class="edge">
<title>hidebound.server&#45;&gt;hidebound.server.app</title>
<path fill="none" stroke="#a0d17b" d="M1628.5791,-367.8199C1656.574,-363.9454 1688.702,-359.8322 1718,-356.8892 1908.7343,-337.7299 2132.2333,-324.9352 2258.8679,-318.5812"/>
<polygon fill="#a0d17b" stroke="#a0d17b" points="2259.1271,-322.0727 2268.9404,-318.0792 2258.7786,-315.0814 2259.1271,-322.0727"/>
</g>
<!-- hidebound.server&#45;&gt;hidebound.server.components -->
<g id="edge45" class="edge">
<title>hidebound.server&#45;&gt;hidebound.server.components</title>
<path fill="none" stroke="#a0d17b" d="M1628.6138,-365.7706C1646.6112,-361.1188 1665.4205,-354.9597 1682,-346.8892 1700.2252,-338.0177 1699.7748,-327.7608 1718,-318.8892 1726.4072,-314.7968 1735.3878,-311.1959 1744.5451,-308.0337"/>
<polygon fill="#a0d17b" stroke="#a0d17b" points="1745.7201,-311.332 1754.1354,-304.8951 1743.5427,-304.6792 1745.7201,-311.332"/>
</g>
<!-- hidebound.server&#45;&gt;hidebound.server.progress -->
<g id="edge46" class="edge">
<title>hidebound.server&#45;&gt;hidebound.server.progress</title>
<path fill="none" stroke="#a0d17b" d="M1628.5399,-383.2013C1647.4317,-387.2085 1666.6872,-394.1341 1682,-405.8892 1710.0644,-427.4332 1693.3755,-451.4848 1718,-476.8892 1737.6088,-497.1191 1764.3434,-512.9847 1788.3092,-524.4593"/>
<polygon fill="#a0d17b" stroke="#a0d17b" points="1787.1382,-527.774 1797.6836,-528.7967 1790.0777,-521.421 1787.1382,-527.774"/>
</g>
<!-- hidebound.server&#45;&gt;hidebound.server.server_tools -->
<g id="edge47" class="edge">
<title>hidebound.server&#45;&gt;hidebound.server.server_tools</title>
<path fill="none" stroke="#a0d17b" d="M1628.6832,-378.8212C1648.7228,-382.6036 1668.5393,-390.5072 1682,-405.8892 1752.442,-486.3858 1647.558,-805.3927 1718,-885.8892 1718.638,-886.6183 1719.2902,-887.3305 1719.9561,-888.0263"/>
<polygon fill="#a0d17b" stroke="#a0d17b" points="1717.8015,-890.7954 1727.5822,-894.8685 1722.4763,-885.5851 1717.8015,-890.7954"/>
</g>
<!-- flask -->
<g id="node24" class="node">
<title>flask</title>
<polygon fill="#343434" stroke="#343434" points="1583,-450.8892 1525,-450.8892 1525,-414.8892 1583,-414.8892 1583,-450.8892"/>
<text text-anchor="middle" x="1554" y="-429.1892" font-family="Courier,monospace" font-size="14.00" fill="#de958e">flask</text>
</g>
<!-- flask&#45;&gt;hidebound.server.api -->
<g id="edge48" class="edge">
<title>flask&#45;&gt;hidebound.server.api</title>
<path fill="none" stroke="#de958e" d="M1583.1472,-439.5028C1609.2026,-445.5743 1648.3512,-455.0907 1682,-464.8892 1698.1929,-469.6046 1701.6344,-472.8134 1718,-476.8892 1829.952,-504.7707 1860.3651,-499.9463 1974,-519.8892 1988.934,-522.5101 2004.7074,-525.336 2020.1653,-528.138"/>
<polygon fill="#de958e" stroke="#de958e" points="2019.8011,-531.629 2030.2658,-529.9734 2021.0527,-524.7418 2019.8011,-531.629"/>
</g>
<!-- flask&#45;&gt;hidebound.server.app -->
<g id="edge49" class="edge">
<title>flask&#45;&gt;hidebound.server.app</title>
<path fill="none" stroke="#de958e" d="M1583.1766,-428.5335C1609.4202,-424.194 1648.8327,-416.6255 1682,-405.8892 1698.6581,-400.497 1701.0639,-394.3319 1718,-389.8892 1829.199,-360.7192 2119.3671,-358.3154 2233,-340.8892 2245.6949,-338.9424 2259.0299,-336.5247 2272.0912,-333.9422"/>
<polygon fill="#de958e" stroke="#de958e" points="2272.9008,-337.3495 2282.0107,-331.9403 2271.5159,-330.4878 2272.9008,-337.3495"/>
</g>
<!-- flask&#45;&gt;hidebound.server.components -->
<g id="edge50" class="edge">
<title>flask&#45;&gt;hidebound.server.components</title>
<path fill="none" stroke="#de958e" d="M1583.1757,-432.5654C1610.677,-430.985 1652.0294,-425.2065 1682,-405.8892 1704.7142,-391.249 1697.6622,-374.6838 1718,-356.8892 1740.2268,-337.4419 1768.7612,-321.1879 1793.2459,-309.2528"/>
<polygon fill="#de958e" stroke="#de958e" points="1794.8839,-312.3495 1802.4101,-304.8924 1791.8763,-306.0285 1794.8839,-312.3495"/>
</g>
<!-- flask&#45;&gt;hidebound.server.progress -->
<g id="edge51" class="edge">
<title>flask&#45;&gt;hidebound.server.progress</title>
<path fill="none" stroke="#de958e" d="M1583.0051,-434.4632C1610.5724,-437.1955 1652.1405,-444.6415 1682,-464.8892 1704.6637,-480.2575 1695.3363,-499.521 1718,-514.8892 1723.3498,-518.5169 1729.0755,-521.7337 1735.0292,-524.5861"/>
<polygon fill="#de958e" stroke="#de958e" points="1733.9885,-527.9519 1744.5514,-528.775 1736.8073,-521.5445 1733.9885,-527.9519"/>
</g>
<!-- flask&#45;&gt;hidebound.server.server_tools -->
<g id="edge52" class="edge">
<title>flask&#45;&gt;hidebound.server.server_tools</title>
<path fill="none" stroke="#de958e" d="M1561.5477,-451.1845C1582.0908,-501.2645 1640.2617,-644.9822 1682,-766.8892 1699.8985,-819.1662 1677.2869,-848.5305 1718,-885.8892 1719.1243,-886.9209 1720.2778,-887.917 1721.4581,-888.8787"/>
<polygon fill="#de958e" stroke="#de958e" points="1719.4501,-891.7457 1729.6134,-894.7389 1723.5349,-886.0611 1719.4501,-891.7457"/>
</g>
<!-- dash.dependencies -->
<g id="node25" class="node">
<title>dash.dependencies</title>
<polygon fill="#343434" stroke="#343434" points="2200,-266.8892 2043,-266.8892 2043,-230.8892 2200,-230.8892 2200,-266.8892"/>
<text text-anchor="middle" x="2121.5" y="-245.1892" font-family="Courier,monospace" font-size="14.00" fill="#de958e">dash.dependencies</text>
</g>
<!-- dash.dependencies&#45;&gt;hidebound.server.app -->
<g id="edge53" class="edge">
<title>dash.dependencies&#45;&gt;hidebound.server.app</title>
<path fill="none" stroke="#de958e" d="M2187.6188,-266.909C2217.4735,-275.0455 2252.9128,-284.704 2283.8713,-293.1414"/>
<polygon fill="#de958e" stroke="#de958e" points="2283.1841,-296.5817 2293.7526,-295.8344 2285.0248,-289.828 2283.1841,-296.5817"/>
</g>
<!-- dash.exceptions -->
<g id="node26" class="node">
<title>dash.exceptions</title>
<polygon fill="#343434" stroke="#343434" points="2191.5,-212.8892 2051.5,-212.8892 2051.5,-176.8892 2191.5,-176.8892 2191.5,-212.8892"/>
<text text-anchor="middle" x="2121.5" y="-191.1892" font-family="Courier,monospace" font-size="14.00" fill="#de958e">dash.exceptions</text>
</g>
<!-- dash.exceptions&#45;&gt;hidebound.server.app -->
<g id="edge54" class="edge">
<title>dash.exceptions&#45;&gt;hidebound.server.app</title>
<path fill="none" stroke="#de958e" d="M2191.6158,-207.4513C2205.6635,-211.1841 2220.0691,-215.9236 2233,-221.8892 2270.3146,-239.1042 2307.7765,-268.001 2332.2405,-288.8201"/>
<polygon fill="#de958e" stroke="#de958e" points="2330.1649,-291.6522 2340.0197,-295.5423 2334.7417,-286.3557 2330.1649,-291.6522"/>
</g>
<!-- rolling_pin.blob_etl -->
<g id="node27" class="node">
<title>rolling_pin.blob_etl</title>
<polygon fill="#343434" stroke="#343434" points="1645,-250.8892 1463,-250.8892 1463,-214.8892 1645,-214.8892 1645,-250.8892"/>
<text text-anchor="middle" x="1554" y="-229.1892" font-family="Courier,monospace" font-size="14.00" fill="#de958e">rolling_pin.blob_etl</text>
</g>
<!-- rolling_pin.blob_etl&#45;&gt;hidebound.server.components -->
<g id="edge55" class="edge">
<title>rolling_pin.blob_etl&#45;&gt;hidebound.server.components</title>
<path fill="none" stroke="#de958e" d="M1645.1895,-249.753C1674.7845,-255.2261 1707.8944,-261.3492 1738.5597,-267.0201"/>
<polygon fill="#de958e" stroke="#de958e" points="1737.9528,-270.4672 1748.4225,-268.8441 1739.2258,-263.5839 1737.9528,-270.4672"/>
</g>
<!-- flask_healthz -->
<g id="node28" class="node">
<title>flask_healthz</title>
<polygon fill="#343434" stroke="#343434" points="2183.5,-158.8892 2059.5,-158.8892 2059.5,-122.8892 2183.5,-122.8892 2183.5,-158.8892"/>
<text text-anchor="middle" x="2121.5" y="-137.1892" font-family="Courier,monospace" font-size="14.00" fill="#de958e">flask_healthz</text>
</g>
<!-- flask_healthz&#45;&gt;hidebound.server.app -->
<g id="edge56" class="edge">
<title>flask_healthz&#45;&gt;hidebound.server.app</title>
<path fill="none" stroke="#de958e" d="M2183.7618,-148.8852C2200.5733,-152.8863 2218.1935,-158.8879 2233,-167.8892 2282.3304,-197.8787 2322.659,-253.3935 2343.8429,-286.652"/>
<polygon fill="#de958e" stroke="#de958e" points="2341.0393,-288.7706 2349.3017,-295.4026 2346.9785,-285.0657 2341.0393,-288.7706"/>
</g>
<!-- flask_monitoringdashboard -->
<g id="node29" class="node">
<title>flask_monitoringdashboard</title>
<polygon fill="#343434" stroke="#343434" points="2233,-104.8892 2010,-104.8892 2010,-68.8892 2233,-68.8892 2233,-104.8892"/>
<text text-anchor="middle" x="2121.5" y="-83.1892" font-family="Courier,monospace" font-size="14.00" fill="#de958e">flask_monitoringdashboard</text>
</g>
<!-- flask_monitoringdashboard&#45;&gt;hidebound.server.app -->
<g id="edge57" class="edge">
<title>flask_monitoringdashboard&#45;&gt;hidebound.server.app</title>
<path fill="none" stroke="#de958e" d="M2217.9534,-104.9975C2223.2402,-107.5801 2228.3035,-110.527 2233,-113.8892 2294.7449,-158.0916 2333.4835,-242.556 2350.2861,-286.2222"/>
<polygon fill="#de958e" stroke="#de958e" points="2347.0299,-287.5072 2353.8138,-295.6453 2353.5856,-285.0529 2347.0299,-287.5072"/>
</g>
<!-- boto3 -->
<g id="node30" class="node">
<title>boto3</title>
<polygon fill="#343434" stroke="#343434" points="900.5,-1425.8892 842.5,-1425.8892 842.5,-1389.8892 900.5,-1389.8892 900.5,-1425.8892"/>
<text text-anchor="middle" x="871.5" y="-1404.1892" font-family="Courier,monospace" font-size="14.00" fill="#de958e">boto3</text>
</g>
<!-- boto3&#45;&gt;hidebound.exporters.s3_exporter -->
<g id="edge58" class="edge">
<title>boto3&#45;&gt;hidebound.exporters.s3_exporter</title>
<path fill="none" stroke="#de958e" d="M900.6835,-1405.0701C930.3565,-1401.5988 977.3389,-1394.422 1016,-1380.8892 1078.4281,-1359.0372 1145.0506,-1320.4158 1184.842,-1295.5004"/>
<polygon fill="#de958e" stroke="#de958e" points="1186.8118,-1298.3959 1193.3964,-1290.0957 1183.0729,-1292.4781 1186.8118,-1298.3959"/>
</g>
<!-- flasgger -->
<g id="node31" class="node">
<title>flasgger</title>
<polygon fill="#343434" stroke="#343434" points="1887.5,-434.8892 1804.5,-434.8892 1804.5,-398.8892 1887.5,-398.8892 1887.5,-434.8892"/>
<text text-anchor="middle" x="1846" y="-413.1892" font-family="Courier,monospace" font-size="14.00" fill="#de958e">flasgger</text>
</g>
<!-- flasgger&#45;&gt;hidebound.server.api -->
<g id="edge59" class="edge">
<title>flasgger&#45;&gt;hidebound.server.api</title>
<path fill="none" stroke="#de958e" d="M1887.5316,-423.545C1913.1722,-428.5525 1946.3391,-436.6788 1974,-448.8892 2017.7744,-468.2127 2062.8405,-500.2624 2091.4483,-522.4221"/>
<polygon fill="#de958e" stroke="#de958e" points="2089.3927,-525.258 2099.4219,-528.6736 2093.7117,-519.7492 2089.3927,-525.258"/>
</g>
<!-- flasgger&#45;&gt;hidebound.server.app -->
<g id="edge60" class="edge">
<title>flasgger&#45;&gt;hidebound.server.app</title>
<path fill="none" stroke="#de958e" d="M1887.7502,-419.1443C1959.8867,-421.7963 2111.7733,-421.8762 2233,-384.8892 2266.9987,-374.516 2301.9936,-354.0941 2326.6167,-337.8048"/>
<polygon fill="#de958e" stroke="#de958e" points="2328.8648,-340.5103 2335.1981,-332.0168 2324.9505,-334.707 2328.8648,-340.5103"/>
</g>
<!-- jinja2 -->
<g id="node32" class="node">
<title>jinja2</title>
<polygon fill="#343434" stroke="#343434" points="1587,-1446.8892 1521,-1446.8892 1521,-1410.8892 1587,-1410.8892 1587,-1446.8892"/>
<text text-anchor="middle" x="1554" y="-1425.1892" font-family="Courier,monospace" font-size="14.00" fill="#de958e">jinja2</text>
</g>
<!-- jinja2&#45;&gt;hidebound.server.server_tools -->
<g id="edge61" class="edge">
<title>jinja2&#45;&gt;hidebound.server.server_tools</title>
<path fill="none" stroke="#de958e" d="M1587.1658,-1430.5127C1615.663,-1430.0952 1656.1346,-1424.9227 1682,-1401.8892 1754.0362,-1337.7402 1820.9793,-1035.2204 1840.3806,-940.9852"/>
<polygon fill="#de958e" stroke="#de958e" points="1843.8392,-941.5414 1842.4095,-931.0435 1836.9805,-940.1417 1843.8392,-941.5414"/>
</g>
<!-- pandasql -->
<g id="node33" class="node">
<title>pandasql</title>
<polygon fill="#343434" stroke="#343434" points="1595.5,-995.8892 1512.5,-995.8892 1512.5,-959.8892 1595.5,-959.8892 1595.5,-995.8892"/>
<text text-anchor="middle" x="1554" y="-974.1892" font-family="Courier,monospace" font-size="14.00" fill="#de958e">pandasql</text>
</g>
<!-- pandasql&#45;&gt;hidebound.core.database -->
<g id="edge62" class="edge">
<title>pandasql&#45;&gt;hidebound.core.database</title>
<path fill="none" stroke="#de958e" d="M1595.6338,-977.7542C1622.5876,-975.7196 1657.1601,-969.2468 1682,-950.8892 1708.5581,-931.2618 1691.4419,-905.5166 1718,-885.8892 1722.8558,-882.3006 1728.0836,-879.1661 1733.5536,-876.4302"/>
<polygon fill="#de958e" stroke="#de958e" points="1735.284,-879.4896 1742.9652,-872.1923 1732.4099,-873.1068 1735.284,-879.4896"/>
</g>
<!-- jsoncomment -->
<g id="node34" class="node">
<title>jsoncomment</title>
<polygon fill="#343434" stroke="#343434" points="645.5,-1125.8892 538.5,-1125.8892 538.5,-1089.8892 645.5,-1089.8892 645.5,-1125.8892"/>
<text text-anchor="middle" x="592" y="-1104.1892" font-family="Courier,monospace" font-size="14.00" fill="#de958e">jsoncomment</text>
</g>
<!-- jsoncomment&#45;&gt;hidebound.core.database -->
<g id="edge63" class="edge">
<title>jsoncomment&#45;&gt;hidebound.core.database</title>
<path fill="none" stroke="#de958e" d="M642.8515,-1089.848C658.7869,-1083.2765 676.0941,-1075.153 691,-1065.8892 708.9334,-1054.7438 707.3231,-1042.5474 727,-1034.8892 825.9346,-996.3845 1597.7566,-1069.4936 1682,-1004.8892 1725.8471,-971.2638 1677.2869,-923.248 1718,-885.8892 1722.777,-881.5058 1728.0802,-877.7643 1733.733,-874.576"/>
<polygon fill="#de958e" stroke="#de958e" points="1735.4958,-877.6078 1742.8782,-870.0084 1732.3681,-871.3455 1735.4958,-877.6078"/>
</g>
<!-- jsoncomment&#45;&gt;hidebound.exporters.exporter_base -->
<g id="edge64" class="edge">
<title>jsoncomment&#45;&gt;hidebound.exporters.exporter_base</title>
<path fill="none" stroke="#de958e" d="M645.5597,-1109.4222C666.2701,-1110.015 691.1239,-1110.7264 716.6576,-1111.4572"/>
<polygon fill="#de958e" stroke="#de958e" points="716.7577,-1114.9614 726.8538,-1111.7491 716.9581,-1107.9643 716.7577,-1114.9614"/>
</g>
<!-- jsoncomment&#45;&gt;hidebound.server.server_tools -->
<g id="edge65" class="edge">
<title>jsoncomment&#45;&gt;hidebound.server.server_tools</title>
<path fill="none" stroke="#de958e" d="M645.6976,-1110.5461C662.6775,-1114.1748 679.8936,-1121.3032 691,-1134.8892 767.6797,-1228.6887 638.5485,-1596.0976 727,-1678.8892 784.2789,-1732.5029 1372.3946,-1646.9785 1390,-1640.8892 1535.1926,-1590.6709 1589.0621,-1578.222 1682,-1455.8892 1807.9694,-1290.0776 1837.7306,-1027.7108 1844.2737,-941.4274"/>
<polygon fill="#de958e" stroke="#de958e" points="1847.7725,-941.5673 1844.9915,-931.344 1840.7901,-941.0702 1847.7725,-941.5673"/>
</g>
<!-- requests -->
<g id="node35" class="node">
<title>requests</title>
<polygon fill="#343434" stroke="#343434" points="1595.5,-941.8892 1512.5,-941.8892 1512.5,-905.8892 1595.5,-905.8892 1595.5,-941.8892"/>
<text text-anchor="middle" x="1554" y="-920.1892" font-family="Courier,monospace" font-size="14.00" fill="#de958e">requests</text>
</g>
<!-- requests&#45;&gt;hidebound.core.database -->
<g id="edge66" class="edge">
<title>requests&#45;&gt;hidebound.core.database</title>
<path fill="none" stroke="#de958e" d="M1595.7404,-913.9775C1628.854,-906.1724 1676.3372,-895.1092 1718,-885.8892 1728.0826,-883.658 1738.6215,-881.3675 1749.1365,-879.1094"/>
<polygon fill="#de958e" stroke="#de958e" points="1750.1487,-882.4721 1759.195,-876.9572 1748.684,-875.6271 1750.1487,-882.4721"/>
</g>
<!-- lunchbox.tools -->
<g id="node36" class="node">
<title>lunchbox.tools</title>
<polygon fill="#343434" stroke="#343434" points="1287,-941.8892 1155,-941.8892 1155,-905.8892 1287,-905.8892 1287,-941.8892"/>
<text text-anchor="middle" x="1221" y="-920.1892" font-family="Courier,monospace" font-size="14.00" fill="#de958e">lunchbox.tools</text>
</g>
<!-- lunchbox.tools&#45;&gt;hidebound.core.database_tools -->
<g id="edge67" class="edge">
<title>lunchbox.tools&#45;&gt;hidebound.core.database_tools</title>
<path fill="none" stroke="#de958e" d="M1267.3022,-905.8133C1327.7314,-882.2223 1433.3911,-840.9738 1498.1805,-815.6806"/>
<polygon fill="#de958e" stroke="#de958e" points="1499.7811,-818.8131 1507.8235,-811.9161 1497.2354,-812.2924 1499.7811,-818.8131"/>
</g>
<!-- lunchbox.tools&#45;&gt;hidebound.server.server_tools -->
<g id="edge68" class="edge">
<title>lunchbox.tools&#45;&gt;hidebound.server.server_tools</title>
<path fill="none" stroke="#de958e" d="M1287.1828,-922.2946C1320.3339,-924.3761 1359.7438,-931.47 1390,-950.8892 1414.2747,-966.4694 1400.5686,-991.2788 1426,-1004.8892 1526.315,-1058.5762 1571.9191,-1033.6569 1682,-1004.8892 1732.0914,-991.7987 1783.0587,-959.6203 1814.593,-937.0273"/>
<polygon fill="#de958e" stroke="#de958e" points="1816.9351,-939.6513 1822.9551,-930.933 1812.8122,-933.9943 1816.9351,-939.6513"/>
</g>
<!-- girder_client -->
<g id="node37" class="node">
<title>girder_client</title>
<polygon fill="#343434" stroke="#343434" points="933.5,-1225.8892 809.5,-1225.8892 809.5,-1189.8892 933.5,-1189.8892 933.5,-1225.8892"/>
<text text-anchor="middle" x="871.5" y="-1204.1892" font-family="Courier,monospace" font-size="14.00" fill="#de958e">girder_client</text>
</g>
<!-- girder_client&#45;&gt;hidebound.exporters.girder_exporter -->
<g id="edge69" class="edge">
<title>girder_client&#45;&gt;hidebound.exporters.girder_exporter</title>
<path fill="none" stroke="#de958e" d="M933.5809,-1202.9157C968.5037,-1200.1178 1013.8921,-1196.4816 1058.2451,-1192.9282"/>
<polygon fill="#de958e" stroke="#de958e" points="1058.5971,-1196.4114 1068.2856,-1192.1239 1058.038,-1189.4337 1058.5971,-1196.4114"/>
</g>
<!-- hidebound.exporters -->
<g id="node38" class="node">
<title>hidebound.exporters</title>
<polygon fill="#343434" stroke="#343434" points="678.5,-1179.8892 505.5,-1179.8892 505.5,-1143.8892 678.5,-1143.8892 678.5,-1179.8892"/>
<text text-anchor="middle" x="592" y="-1158.1892" font-family="Courier,monospace" font-size="14.00" fill="#a0d17b">hidebound.exporters</text>
</g>
<!-- hidebound.exporters&#45;&gt;hidebound.exporters.exporter_base -->
<g id="edge70" class="edge">
<title>hidebound.exporters&#45;&gt;hidebound.exporters.exporter_base</title>
<path fill="none" stroke="#a0d17b" d="M678.5214,-1147.6496C701.7012,-1143.8346 727.178,-1139.6417 751.8061,-1135.5884"/>
<polygon fill="#a0d17b" stroke="#a0d17b" points="752.6303,-1138.9999 761.9292,-1133.9224 751.4935,-1132.0928 752.6303,-1138.9999"/>
</g>
<!-- hidebound.exporters&#45;&gt;hidebound.exporters.girder_exporter -->
<g id="edge71" class="edge">
<title>hidebound.exporters&#45;&gt;hidebound.exporters.girder_exporter</title>
<path fill="none" stroke="#a0d17b" d="M663.6416,-1179.897C673.2241,-1183.7606 682.6224,-1188.3832 691,-1193.8892 711.2649,-1207.2078 704.9088,-1224.8879 727,-1234.8892 844.0114,-1287.8637 892.7102,-1270.9114 1016,-1234.8892 1034.2247,-1229.5644 1034.3525,-1218.8935 1052,-1211.8892 1062.9504,-1207.543 1074.5395,-1203.7764 1086.3103,-1200.514"/>
<polygon fill="#a0d17b" stroke="#a0d17b" points="1087.4578,-1203.831 1096.2306,-1197.8905 1085.6681,-1197.0636 1087.4578,-1203.831"/>
</g>
<!-- hidebound.exporters&#45;&gt;hidebound.exporters.local_disk_exporter -->
<g id="edge72" class="edge">
<title>hidebound.exporters&#45;&gt;hidebound.exporters.local_disk_exporter</title>
<path fill="none" stroke="#a0d17b" d="M678.5605,-1159.3402C764.3033,-1156.5018 899.3199,-1151.1895 1016,-1142.8892 1024.3962,-1142.2919 1032.9815,-1141.6354 1041.6503,-1140.9356"/>
<polygon fill="#a0d17b" stroke="#a0d17b" points="1042.1795,-1144.4039 1051.8586,-1140.0951 1041.6051,-1137.4275 1042.1795,-1144.4039"/>
</g>
<!-- hidebound.exporters&#45;&gt;hidebound.exporters.s3_exporter -->
<g id="edge73" class="edge">
<title>hidebound.exporters&#45;&gt;hidebound.exporters.s3_exporter</title>
<path fill="none" stroke="#a0d17b" d="M634.6757,-1179.965C654.8673,-1190.6875 677.4661,-1206.2591 691,-1226.8892 742.462,-1305.3344 655.2258,-1374.4704 727,-1434.8892 825.2638,-1517.6068 894.7329,-1477.2245 1016,-1434.8892 1094.3525,-1407.5358 1165.1845,-1336.3314 1199.3921,-1297.7081"/>
<polygon fill="#a0d17b" stroke="#a0d17b" points="1202.1899,-1299.8251 1206.1253,-1289.9883 1196.9145,-1295.2239 1202.1899,-1299.8251"/>
</g>
<!-- numpy -->
<g id="node39" class="node">
<title>numpy</title>
<polygon fill="#343434" stroke="#343434" points="1250,-576.8892 1192,-576.8892 1192,-540.8892 1250,-540.8892 1250,-576.8892"/>
<text text-anchor="middle" x="1221" y="-555.1892" font-family="Courier,monospace" font-size="14.00" fill="#de958e">numpy</text>
</g>
<!-- numpy&#45;&gt;hidebound.core.database -->
<g id="edge74" class="edge">
<title>numpy&#45;&gt;hidebound.core.database</title>
<path fill="none" stroke="#de958e" d="M1250.1751,-561.1579C1345.6982,-568.7777 1645.0835,-594.2464 1682,-616.8892 1765.3491,-668.0116 1816.1289,-779.2455 1836.1554,-831.1621"/>
<polygon fill="#de958e" stroke="#de958e" points="1832.9539,-832.5922 1839.7512,-840.7192 1839.5055,-830.1272 1832.9539,-832.5922"/>
</g>
<!-- numpy&#45;&gt;hidebound.core.database_tools -->
<g id="edge75" class="edge">
<title>numpy&#45;&gt;hidebound.core.database_tools</title>
<path fill="none" stroke="#de958e" d="M1250.2282,-576.457C1284.3416,-597.214 1342.1801,-633.1969 1390,-666.8892 1437.9665,-700.6849 1491.3113,-742.9088 1523.7564,-769.1411"/>
<polygon fill="#de958e" stroke="#de958e" points="1521.9633,-772.1932 1531.935,-775.7731 1526.3722,-766.7561 1521.9633,-772.1932"/>
</g>
<!-- numpy&#45;&gt;hidebound.server.api -->
<g id="edge76" class="edge">
<title>numpy&#45;&gt;hidebound.server.api</title>
<path fill="none" stroke="#de958e" d="M1250.1836,-559.7819C1354.912,-562.9838 1706.2532,-573.712 1718,-573.8892 1831.7648,-575.6056 1860.6881,-584.1747 1974,-573.8892 1991.3384,-572.3154 2009.6837,-569.7213 2027.3268,-566.7474"/>
<polygon fill="#de958e" stroke="#de958e" points="2028.3681,-570.1189 2037.6206,-564.9574 2027.1688,-563.2224 2028.3681,-570.1189"/>
</g>
<!-- json_logging -->
<g id="node40" class="node">
<title>json_logging</title>
<polygon fill="#343434" stroke="#343434" points="449,-538.8892 333,-538.8892 333,-502.8892 449,-502.8892 449,-538.8892"/>
<text text-anchor="middle" x="391" y="-517.1892" font-family="Courier,monospace" font-size="14.00" fill="#de958e">json_logging</text>
</g>
<!-- json_logging&#45;&gt;hidebound.core.logging -->
<g id="edge77" class="edge">
<title>json_logging&#45;&gt;hidebound.core.logging</title>
<path fill="none" stroke="#de958e" d="M449.1375,-520.8892C459.7192,-520.8892 471.0677,-520.8892 482.5736,-520.8892"/>
<polygon fill="#de958e" stroke="#de958e" points="482.7099,-524.3893 492.7099,-520.8892 482.7099,-517.3893 482.7099,-524.3893"/>
</g>
<!-- hidebound -->
<g id="node41" class="node">
<title>hidebound</title>
<polygon fill="#343434" stroke="#343434" points="190,-953.8892 99,-953.8892 99,-917.8892 190,-917.8892 190,-953.8892"/>
<text text-anchor="middle" x="144.5" y="-932.1892" font-family="Courier,monospace" font-size="14.00" fill="#a0d17b">hidebound</text>
</g>
<!-- hidebound&#45;&gt;hidebound.server -->
<g id="edge78" class="edge">
<title>hidebound&#45;&gt;hidebound.server</title>
<path fill="none" stroke="#a0d17b" d="M190.1236,-940.5639C222.5708,-941.1493 264.5774,-935.8359 289,-908.8892 351.1647,-840.3 269.3794,-567.8844 325,-493.8892 401.4234,-392.2189 464.8097,-390.8892 592,-390.8892 592,-390.8892 592,-390.8892 871.5,-390.8892 1086.6896,-390.8892 1339.985,-384.8518 1469.0635,-381.3418"/>
<polygon fill="#a0d17b" stroke="#a0d17b" points="1469.3733,-384.8347 1479.2738,-381.0623 1469.1818,-377.8373 1469.3733,-384.8347"/>
</g>
<!-- hidebound&#45;&gt;hidebound.exporters -->
<g id="edge79" class="edge">
<title>hidebound&#45;&gt;hidebound.exporters</title>
<path fill="none" stroke="#a0d17b" d="M190.2905,-938.427C219.67,-941.4812 257.982,-948.1876 289,-962.8892 396.1647,-1013.6822 387.9944,-1079.771 493,-1134.8892 496.4937,-1136.7231 500.124,-1138.4418 503.8409,-1140.0514"/>
<polygon fill="#a0d17b" stroke="#a0d17b" points="502.647,-1143.3437 513.2306,-1143.8316 505.2612,-1136.8502 502.647,-1143.3437"/>
</g>
<!-- hidebound.core -->
<g id="node48" class="node">
<title>hidebound.core</title>
<polygon fill="#343434" stroke="#343434" points="457,-953.8892 325,-953.8892 325,-917.8892 457,-917.8892 457,-953.8892"/>
<text text-anchor="middle" x="391" y="-932.1892" font-family="Courier,monospace" font-size="14.00" fill="#a0d17b">hidebound.core</text>
</g>
<!-- hidebound&#45;&gt;hidebound.core -->
<g id="edge80" class="edge">
<title>hidebound&#45;&gt;hidebound.core</title>
<path fill="none" stroke="#a0d17b" d="M190.2871,-935.8892C225.0707,-935.8892 273.6972,-935.8892 314.3758,-935.8892"/>
<polygon fill="#a0d17b" stroke="#a0d17b" points="314.5334,-939.3893 324.5333,-935.8892 314.5333,-932.3893 314.5334,-939.3893"/>
</g>
<!-- schematics -->
<g id="node42" class="node">
<title>schematics</title>
<polygon fill="#343434" stroke="#343434" points="921,-1079.8892 822,-1079.8892 822,-1043.8892 921,-1043.8892 921,-1079.8892"/>
<text text-anchor="middle" x="871.5" y="-1058.1892" font-family="Courier,monospace" font-size="14.00" fill="#de958e">schematics</text>
</g>
<!-- schematics&#45;&gt;hidebound.core.config -->
<g id="edge81" class="edge">
<title>schematics&#45;&gt;hidebound.core.config</title>
<path fill="none" stroke="#de958e" d="M921.2954,-1058.2586C1015.0899,-1052.9159 1223.4923,-1048.1925 1390,-1095.8892 1438.1268,-1109.6753 1488.0697,-1139.007 1520.0026,-1160.018"/>
<polygon fill="#de958e" stroke="#de958e" points="1518.2556,-1163.06 1528.5153,-1165.7037 1522.1435,-1157.239 1518.2556,-1163.06"/>
</g>
<!-- schematics&#45;&gt;hidebound.core.specification_base -->
<g id="edge82" class="edge">
<title>schematics&#45;&gt;hidebound.core.specification_base</title>
<path fill="none" stroke="#de958e" d="M921.2037,-1049.9433C977.1567,-1036.4953 1069.0273,-1014.4148 1136.345,-998.2355"/>
<polygon fill="#de958e" stroke="#de958e" points="1137.1866,-1001.633 1146.0918,-995.8929 1135.5507,-994.8268 1137.1866,-1001.633"/>
</g>
<!-- schematics&#45;&gt;hidebound.exporters.girder_exporter -->
<g id="edge83" class="edge">
<title>schematics&#45;&gt;hidebound.exporters.girder_exporter</title>
<path fill="none" stroke="#de958e" d="M921.2857,-1061.1713C951.1392,-1063.0337 988.5153,-1069.6313 1016,-1088.8892 1041.7815,-1106.9538 1026.1372,-1131.9414 1052,-1149.8892 1055.8214,-1152.5411 1059.8051,-1154.9812 1063.9171,-1157.2254"/>
<polygon fill="#de958e" stroke="#de958e" points="1062.6024,-1160.4813 1073.1109,-1161.8316 1065.738,-1154.2229 1062.6024,-1160.4813"/>
</g>
<!-- schematics&#45;&gt;hidebound.exporters.local_disk_exporter -->
<g id="edge84" class="edge">
<title>schematics&#45;&gt;hidebound.exporters.local_disk_exporter</title>
<path fill="none" stroke="#de958e" d="M921.2037,-1070.5643C969.593,-1079.0099 1044.8455,-1092.1441 1107.8483,-1103.1403"/>
<polygon fill="#de958e" stroke="#de958e" points="1107.3958,-1106.6142 1117.8487,-1104.8857 1108.5995,-1099.7184 1107.3958,-1106.6142"/>
</g>
<!-- schematics&#45;&gt;hidebound.exporters.s3_exporter -->
<g id="edge85" class="edge">
<title>schematics&#45;&gt;hidebound.exporters.s3_exporter</title>
<path fill="none" stroke="#de958e" d="M921.3061,-1058.9076C952.1134,-1059.7622 990.5096,-1066.0912 1016,-1088.8892 1056.8695,-1125.442 1014.6304,-1166.7652 1052,-1206.8892 1070.5227,-1226.7773 1095.8094,-1240.6457 1121.1788,-1250.292"/>
<polygon fill="#de958e" stroke="#de958e" points="1120.2976,-1253.6945 1130.892,-1253.7861 1122.6671,-1247.1077 1120.2976,-1253.6945"/>
</g>
<!-- schematics.types -->
<g id="node43" class="node">
<title>schematics.types</title>
<polygon fill="#343434" stroke="#343434" points="946,-1371.8892 797,-1371.8892 797,-1335.8892 946,-1335.8892 946,-1371.8892"/>
<text text-anchor="middle" x="871.5" y="-1350.1892" font-family="Courier,monospace" font-size="14.00" fill="#de958e">schematics.types</text>
</g>
<!-- schematics.types&#45;&gt;hidebound.core.config -->
<g id="edge86" class="edge">
<title>schematics.types&#45;&gt;hidebound.core.config</title>
<path fill="none" stroke="#de958e" d="M946.293,-1357.4746C1049.5371,-1359.889 1239.9681,-1355.124 1390,-1298.8892 1444.1034,-1278.6103 1497.0609,-1236.2117 1527.5693,-1208.9487"/>
<polygon fill="#de958e" stroke="#de958e" points="1530.1415,-1211.3409 1535.1952,-1202.029 1525.4376,-1206.1569 1530.1415,-1211.3409"/>
</g>
<!-- schematics.types&#45;&gt;hidebound.core.specification_base -->
<g id="edge87" class="edge">
<title>schematics.types&#45;&gt;hidebound.core.specification_base</title>
<path fill="none" stroke="#de958e" d="M946.1555,-1356.5705C971.5112,-1353.573 997.9612,-1345.4797 1016,-1326.8892 1088.3578,-1252.3185 996.9888,-1184.038 1052,-1095.8892 1079.4491,-1051.9053 1129.96,-1019.9112 1168.6367,-1000.4238"/>
<polygon fill="#de958e" stroke="#de958e" points="1170.2581,-1003.5269 1177.6925,-995.9783 1167.1734,-997.2431 1170.2581,-1003.5269"/>
</g>
<!-- schematics.types&#45;&gt;hidebound.core.specifications -->
<g id="edge88" class="edge">
<title>schematics.types&#45;&gt;hidebound.core.specifications</title>
<path fill="none" stroke="#de958e" d="M946.0555,-1361.8212C978.5551,-1364.9363 1017.122,-1368.1723 1052,-1369.8892 1174.8755,-1375.9378 1314.8657,-1376.8364 1415.7412,-1376.4253"/>
<polygon fill="#de958e" stroke="#de958e" points="1416.0099,-1379.9242 1425.9937,-1376.3784 1415.9778,-1372.9243 1416.0099,-1379.9242"/>
</g>
<!-- schematics.types&#45;&gt;hidebound.exporters.girder_exporter -->
<g id="edge89" class="edge">
<title>schematics.types&#45;&gt;hidebound.exporters.girder_exporter</title>
<path fill="none" stroke="#de958e" d="M946.299,-1353.499C970.6433,-1350.0394 996.4104,-1342.4383 1016,-1326.8892 1047.175,-1302.1442 1023.2089,-1272.3714 1052,-1244.8892 1072.7584,-1225.0746 1100.2024,-1211.1261 1126.9242,-1201.3798"/>
<polygon fill="#de958e" stroke="#de958e" points="1128.4249,-1204.5637 1136.7227,-1197.9761 1126.1278,-1197.9513 1128.4249,-1204.5637"/>
</g>
<!-- schematics.types&#45;&gt;hidebound.exporters.local_disk_exporter -->
<g id="edge90" class="edge">
<title>schematics.types&#45;&gt;hidebound.exporters.local_disk_exporter</title>
<path fill="none" stroke="#de958e" d="M946.0337,-1356.0319C971.2248,-1352.9491 997.5985,-1344.939 1016,-1326.8892 1072.3772,-1271.5896 995.3735,-1207.9336 1052,-1152.8892 1054.1534,-1150.796 1056.3992,-1148.821 1058.7268,-1146.9583"/>
<polygon fill="#de958e" stroke="#de958e" points="1060.867,-1149.7303 1066.9401,-1141.0488 1056.7787,-1144.0482 1060.867,-1149.7303"/>
</g>
<!-- schematics.types&#45;&gt;hidebound.exporters.s3_exporter -->
<g id="edge91" class="edge">
<title>schematics.types&#45;&gt;hidebound.exporters.s3_exporter</title>
<path fill="none" stroke="#de958e" d="M946.1733,-1345.5415C969.0937,-1341.5044 994.0477,-1335.5714 1016,-1326.8892 1033.6559,-1319.9063 1034.3525,-1310.8935 1052,-1303.8892 1062.9504,-1299.543 1074.5395,-1295.7764 1086.3103,-1292.514"/>
<polygon fill="#de958e" stroke="#de958e" points="1087.4578,-1295.831 1096.2306,-1289.8905 1085.6681,-1289.0636 1087.4578,-1295.831"/>
</g>
<!-- wrapt -->
<g id="node44" class="node">
<title>wrapt</title>
<polygon fill="#343434" stroke="#343434" points="621,-1271.8892 563,-1271.8892 563,-1235.8892 621,-1235.8892 621,-1271.8892"/>
<text text-anchor="middle" x="592" y="-1250.1892" font-family="Courier,monospace" font-size="14.00" fill="#de958e">wrapt</text>
</g>
<!-- wrapt&#45;&gt;hidebound.core.validators -->
<g id="edge92" class="edge">
<title>wrapt&#45;&gt;hidebound.core.validators</title>
<path fill="none" stroke="#de958e" d="M621.1204,-1258.6819C652.3178,-1263.8163 703.8755,-1272.3017 752.1227,-1280.2422"/>
<polygon fill="#de958e" stroke="#de958e" points="751.6039,-1283.7038 762.0395,-1281.8743 752.7407,-1276.7967 751.6039,-1283.7038"/>
</g>
<!-- pyparsing -->
<g id="node45" class="node">
<title>pyparsing</title>
<polygon fill="#343434" stroke="#343434" points="436.5,-857.8892 345.5,-857.8892 345.5,-821.8892 436.5,-821.8892 436.5,-857.8892"/>
<text text-anchor="middle" x="391" y="-836.1892" font-family="Courier,monospace" font-size="14.00" fill="#de958e">pyparsing</text>
</g>
<!-- pyparsing&#45;&gt;hidebound.core.parser -->
<g id="edge93" class="edge">
<title>pyparsing&#45;&gt;hidebound.core.parser</title>
<path fill="none" stroke="#de958e" d="M436.61,-839.8892C451.6178,-839.8892 468.9812,-839.8892 486.5469,-839.8892"/>
<polygon fill="#de958e" stroke="#de958e" points="486.8964,-843.3893 496.8964,-839.8892 486.8964,-836.3893 486.8964,-843.3893"/>
</g>
<!-- pyparsing&#45;&gt;hidebound.core.specification_base -->
<g id="edge94" class="edge">
<title>pyparsing&#45;&gt;hidebound.core.specification_base</title>
<path fill="none" stroke="#de958e" d="M431.4204,-821.738C539.4167,-776.29 838.5151,-670.7856 1016,-808.8892 1067.3845,-848.8723 1003.9405,-906.9655 1052,-950.8892 1056.7497,-955.2302 1061.9052,-959.0299 1067.3639,-962.349"/>
<polygon fill="#de958e" stroke="#de958e" points="1065.7249,-965.4419 1076.1766,-967.1776 1069.0886,-959.3029 1065.7249,-965.4419"/>
</g>
<!-- pyparsing&#45;&gt;hidebound.core.validators -->
<g id="edge95" class="edge">
<title>pyparsing&#45;&gt;hidebound.core.validators</title>
<path fill="none" stroke="#de958e" d="M414.8323,-858.0275C429.5296,-870.611 447.3563,-888.6949 457,-908.8892 511.0685,-1022.1103 407.0609,-1097.4732 493,-1188.8892 554.3751,-1254.1758 612.407,-1183.8499 691,-1226.8892 711.4051,-1238.0635 706.869,-1253.2282 727,-1264.8892 736.1489,-1270.1888 746.0694,-1274.6885 756.2804,-1278.5086"/>
<polygon fill="#de958e" stroke="#de958e" points="755.1309,-1281.8144 765.7258,-1281.8293 757.4526,-1275.2106 755.1309,-1281.8144"/>
</g>
<!-- pandas -->
<g id="node46" class="node">
<title>pandas</title>
<polygon fill="#343434" stroke="#343434" points="625,-675.8892 559,-675.8892 559,-639.8892 625,-639.8892 625,-675.8892"/>
<text text-anchor="middle" x="592" y="-654.1892" font-family="Courier,monospace" font-size="14.00" fill="#de958e">pandas</text>
</g>
<!-- pandas&#45;&gt;hidebound.core.database -->
<g id="edge96" class="edge">
<title>pandas&#45;&gt;hidebound.core.database</title>
<path fill="none" stroke="#de958e" d="M625.0755,-654.0493C735.0116,-642.1501 1097.7778,-609.8309 1390,-663.8892 1525.319,-688.922 1556.6372,-710.1261 1682,-766.8892 1726.9894,-787.26 1776.0759,-815.6814 1808.7072,-835.5254"/>
<polygon fill="#de958e" stroke="#de958e" points="1807.1011,-838.6459 1817.4574,-840.8812 1810.7554,-832.6755 1807.1011,-838.6459"/>
</g>
<!-- pandas&#45;&gt;hidebound.core.database_tools -->
<g id="edge97" class="edge">
<title>pandas&#45;&gt;hidebound.core.database_tools</title>
<path fill="none" stroke="#de958e" d="M625.2956,-657.9164C757.184,-658.3213 1242.9229,-662.7058 1390,-704.8892 1438.5297,-718.8081 1488.7521,-748.7645 1520.6205,-770.0732"/>
<polygon fill="#de958e" stroke="#de958e" points="1518.8662,-773.1126 1529.1057,-775.8335 1522.7979,-767.321 1518.8662,-773.1126"/>
</g>
<!-- pandas&#45;&gt;hidebound.core.tools -->
<g id="edge98" class="edge">
<title>pandas&#45;&gt;hidebound.core.tools</title>
<path fill="none" stroke="#de958e" d="M610.7728,-676.2926C659.4027,-723.9656 789.563,-851.5646 845.4345,-906.3366"/>
<polygon fill="#de958e" stroke="#de958e" points="843.2177,-909.0648 852.8089,-913.566 848.1181,-904.0661 843.2177,-909.0648"/>
</g>
<!-- pandas&#45;&gt;hidebound.core.validators -->
<g id="edge99" class="edge">
<title>pandas&#45;&gt;hidebound.core.validators</title>
<path fill="none" stroke="#de958e" d="M607.7364,-675.9112C630.6415,-703.3339 672.4501,-758.1532 691,-812.8892 721.2088,-902.0279 672.5751,-1158.1025 727,-1234.8892 740.8489,-1254.4282 761.9909,-1268.1952 783.8637,-1277.8562"/>
<polygon fill="#de958e" stroke="#de958e" points="782.6852,-1281.1564 793.2634,-1281.7501 785.3643,-1274.6893 782.6852,-1281.1564"/>
</g>
<!-- pandas&#45;&gt;hidebound.server.components -->
<g id="edge100" class="edge">
<title>pandas&#45;&gt;hidebound.server.components</title>
<path fill="none" stroke="#de958e" d="M625.3713,-642.8122C736.5437,-593.2051 1105.421,-433.5788 1426,-351.8892 1537.4626,-323.4865 1568.3593,-331.6769 1682,-313.8892 1696.85,-311.5648 1712.4467,-309.0685 1727.8715,-306.5664"/>
<polygon fill="#de958e" stroke="#de958e" points="1728.6652,-309.9834 1737.9734,-304.9231 1727.5412,-303.0742 1728.6652,-309.9834"/>
</g>
<!-- schematics.exceptions -->
<g id="node47" class="node">
<title>schematics.exceptions</title>
<polygon fill="#343434" stroke="#343434" points="687,-1056.8892 497,-1056.8892 497,-1020.8892 687,-1020.8892 687,-1056.8892"/>
<text text-anchor="middle" x="592" y="-1035.1892" font-family="Courier,monospace" font-size="14.00" fill="#de958e">schematics.exceptions</text>
</g>
<!-- schematics.exceptions&#45;&gt;hidebound.core.config -->
<g id="edge101" class="edge">
<title>schematics.exceptions&#45;&gt;hidebound.core.config</title>
<path fill="none" stroke="#de958e" d="M661.3124,-1056.9129C672.7923,-1062.8049 683.4091,-1070.5965 691,-1080.8892 737.9331,-1144.5267 668.3271,-1381.8804 727,-1434.8892 837.4169,-1534.6468 1259.762,-1412.8721 1390,-1340.8892 1450.9997,-1307.1746 1505.9753,-1245.131 1534.1463,-1209.9782"/>
<polygon fill="#de958e" stroke="#de958e" points="1536.9408,-1212.0869 1540.394,-1202.0707 1531.4482,-1207.7473 1536.9408,-1212.0869"/>
</g>
<!-- schematics.exceptions&#45;&gt;hidebound.core.database_tools -->
<g id="edge102" class="edge">
<title>schematics.exceptions&#45;&gt;hidebound.core.database_tools</title>
<path fill="none" stroke="#de958e" d="M618.6524,-1020.7816C639.7136,-1005.7028 669.1068,-982.8867 691,-958.8892 710.4404,-937.5803 703.609,-921.767 727,-904.8892 848.4481,-817.2583 904.0454,-839.0902 1052,-815.8892 1173.858,-796.7805 1314.2457,-792.0688 1415.5207,-791.6798"/>
<polygon fill="#de958e" stroke="#de958e" points="1415.823,-795.1792 1425.8144,-791.6546 1415.8058,-788.1792 1415.823,-795.1792"/>
</g>
<!-- schematics.exceptions&#45;&gt;hidebound.core.specification_base -->
<g id="edge103" class="edge">
<title>schematics.exceptions&#45;&gt;hidebound.core.specification_base</title>
<path fill="none" stroke="#de958e" d="M647.2296,-1020.811C671.4426,-1013.6542 700.3611,-1006.1342 727,-1001.8892 839.6082,-983.9447 968.3219,-978.1592 1066.1284,-976.7466"/>
<polygon fill="#de958e" stroke="#de958e" points="1066.4407,-980.2429 1076.3941,-976.6127 1066.3493,-973.2435 1066.4407,-980.2429"/>
</g>
<!-- schematics.exceptions&#45;&gt;hidebound.core.tools -->
<g id="edge104" class="edge">
<title>schematics.exceptions&#45;&gt;hidebound.core.tools</title>
<path fill="none" stroke="#de958e" d="M635.4654,-1020.7329C653.1518,-1012.716 673.5052,-1002.667 691,-991.8892 708.2577,-981.2575 708.6565,-972.5136 727,-963.8892 740.6383,-957.4771 755.6123,-952.3234 770.5941,-948.1881"/>
<polygon fill="#de958e" stroke="#de958e" points="771.6385,-951.5327 780.4264,-945.6146 769.866,-944.7608 771.6385,-951.5327"/>
</g>
<!-- schematics.exceptions&#45;&gt;hidebound.core.validators -->
<g id="edge105" class="edge">
<title>schematics.exceptions&#45;&gt;hidebound.core.validators</title>
<path fill="none" stroke="#de958e" d="M658.7516,-1056.9755C670.8873,-1062.8912 682.4042,-1070.6758 691,-1080.8892 736.2606,-1134.6676 682.3196,-1180.6278 727,-1234.8892 743.0599,-1254.393 766.1959,-1268.2686 789.2632,-1278.044"/>
<polygon fill="#de958e" stroke="#de958e" points="788.1907,-1281.3847 798.7751,-1281.855 790.7942,-1274.8868 788.1907,-1281.3847"/>
</g>
<!-- schematics.exceptions&#45;&gt;hidebound.server.api -->
<g id="edge106" class="edge">
<title>schematics.exceptions&#45;&gt;hidebound.server.api</title>
<path fill="none" stroke="#de958e" d="M662.4071,-1057.056C673.5645,-1062.9246 683.7843,-1070.671 691,-1080.8892 767.7936,-1189.6375 635.4751,-1582.2111 727,-1678.8892 878.9432,-1839.3874 999.9877,-1735.8892 1221,-1735.8892 1221,-1735.8892 1221,-1735.8892 1554,-1735.8892 1820.0324,-1735.8892 2071.1611,-754.1822 2114.8191,-574.8383"/>
<polygon fill="#de958e" stroke="#de958e" points="2118.2278,-575.6326 2117.1796,-565.0898 2111.4244,-573.9852 2118.2278,-575.6326"/>
</g>
<!-- hidebound.core&#45;&gt;hidebound.core.config -->
<g id="edge107" class="edge">
<title>hidebound.core&#45;&gt;hidebound.core.config</title>
<path fill="none" stroke="#a0d17b" d="M391.6153,-954.0877C394.4013,-1011.6268 409.6911,-1192.6668 493,-1308.8892 566.1083,-1410.8811 607.0044,-1430.1711 727,-1466.8892 1009.8464,-1553.439 1145.1643,-1574.8664 1390,-1408.8892 1416.0572,-1391.2247 1408.2784,-1373.9076 1426,-1347.8892 1460.5291,-1297.1947 1505.5753,-1241.5881 1531.9899,-1209.8956"/>
<polygon fill="#a0d17b" stroke="#a0d17b" points="1534.8699,-1211.9078 1538.6041,-1201.9928 1529.5019,-1207.415 1534.8699,-1211.9078"/>
</g>
<!-- hidebound.core&#45;&gt;hidebound.core.database -->
<g id="edge108" class="edge">
<title>hidebound.core&#45;&gt;hidebound.core.database</title>
<path fill="none" stroke="#a0d17b" d="M414.6737,-917.6741C429.3059,-905.059 447.1196,-886.9688 457,-866.8892 503.8449,-771.6882 412.8123,-700.3702 493,-630.8892 592.8899,-544.3366 1565.6908,-604.1076 1682,-666.8892 1753.5202,-705.4945 1807.4634,-788.8823 1831.7779,-831.9418"/>
<polygon fill="#a0d17b" stroke="#a0d17b" points="1828.7408,-833.6822 1836.6468,-840.7353 1834.8647,-830.2914 1828.7408,-833.6822"/>
</g>
<!-- hidebound.core&#45;&gt;hidebound.core.database_tools -->
<g id="edge109" class="edge">
<title>hidebound.core&#45;&gt;hidebound.core.database_tools</title>
<path fill="none" stroke="#a0d17b" d="M410.1411,-917.6689C423.846,-904.2078 442.3832,-885.1284 457,-866.8892 475.0381,-844.3809 469.0401,-828.9492 493,-812.8892 581.1139,-753.8275 621.4435,-776.3852 727,-765.8892 764.5899,-762.1515 1351.9755,-763.7289 1390,-766.8892 1409.6801,-768.5249 1430.5586,-771.2156 1450.5882,-774.2805"/>
<polygon fill="#a0d17b" stroke="#a0d17b" points="1450.2355,-777.7679 1460.6576,-775.8626 1451.3221,-770.8528 1450.2355,-777.7679"/>
</g>
<!-- hidebound.core&#45;&gt;hidebound.core.logging -->
<g id="edge110" class="edge">
<title>hidebound.core&#45;&gt;hidebound.core.logging</title>
<path fill="none" stroke="#a0d17b" d="M414.8868,-917.7768C429.6065,-905.204 447.4376,-887.1222 457,-866.8892 514.1933,-745.8752 414.8279,-676.5381 493,-567.8892 500.1185,-557.9954 509.8739,-550.1101 520.5007,-543.8476"/>
<polygon fill="#a0d17b" stroke="#a0d17b" points="522.4421,-546.7777 529.5933,-538.9604 519.128,-540.6119 522.4421,-546.7777"/>
</g>
<!-- hidebound.core&#45;&gt;hidebound.core.parser -->
<g id="edge111" class="edge">
<title>hidebound.core&#45;&gt;hidebound.core.parser</title>
<path fill="none" stroke="#a0d17b" d="M415.9922,-917.742C436.0533,-903.7948 465.3397,-884.793 493,-871.8892 501.1745,-868.0758 509.9269,-864.5324 518.7208,-861.2989"/>
<polygon fill="#a0d17b" stroke="#a0d17b" points="520.0016,-864.5583 528.2539,-857.9137 517.6592,-857.9618 520.0016,-864.5583"/>
</g>
<!-- hidebound.core&#45;&gt;hidebound.core.specification_base -->
<g id="edge112" class="edge">
<title>hidebound.core&#45;&gt;hidebound.core.specification_base</title>
<path fill="none" stroke="#a0d17b" d="M439.8726,-917.8404C456.4925,-912.5655 475.3337,-907.5145 493,-904.8892 607.9598,-887.8056 911.5193,-853.9836 1016,-904.8892 1039.3383,-916.2602 1029.6347,-937.7071 1052,-950.8892 1056.7995,-953.718 1061.8024,-956.2773 1066.9534,-958.5913"/>
<polygon fill="#a0d17b" stroke="#a0d17b" points="1065.795,-961.8999 1076.373,-962.497 1068.4761,-955.4337 1065.795,-961.8999"/>
</g>
<!-- hidebound.core&#45;&gt;hidebound.core.specifications -->
<g id="edge113" class="edge">
<title>hidebound.core&#45;&gt;hidebound.core.specifications</title>
<path fill="none" stroke="#a0d17b" d="M392.935,-954.0299C401.3758,-1030.288 437.0748,-1324.2275 493,-1395.8892 564.5363,-1487.5547 613.835,-1486.1746 727,-1512.8892 870.5198,-1546.7697 1269.8224,-1570.3478 1390,-1484.8892 1422.7689,-1461.5871 1394.854,-1427.3199 1426,-1401.8892 1427.5503,-1400.6234 1429.1455,-1399.4128 1430.7808,-1398.2549"/>
<polygon fill="#a0d17b" stroke="#a0d17b" points="1432.6811,-1401.1944 1439.2677,-1392.8958 1428.9436,-1395.2757 1432.6811,-1401.1944"/>
</g>
<!-- hidebound.core&#45;&gt;hidebound.core.tools -->
<g id="edge114" class="edge">
<title>hidebound.core&#45;&gt;hidebound.core.tools</title>
<path fill="none" stroke="#a0d17b" d="M457.0283,-953.0133C468.9254,-955.458 481.2731,-957.5835 493,-958.8892 580.4595,-968.6276 603.2424,-965.4165 691,-958.8892 716.8031,-956.97 744.5108,-953.5279 770.2824,-949.7298"/>
<polygon fill="#a0d17b" stroke="#a0d17b" points="771.0667,-953.1512 780.4341,-948.2012 770.0244,-946.2293 771.0667,-953.1512"/>
</g>
<!-- hidebound.core&#45;&gt;hidebound.core.traits -->
<g id="edge115" class="edge">
<title>hidebound.core&#45;&gt;hidebound.core.traits</title>
<path fill="none" stroke="#a0d17b" d="M392.5186,-954.1555C401.0603,-1054.7802 444.4679,-1538.539 493,-1581.8892 538.3039,-1622.3559 925.4003,-1620.1144 1115.9306,-1616.4706"/>
<polygon fill="#a0d17b" stroke="#a0d17b" points="1116.0366,-1619.9693 1125.966,-1616.2739 1115.8993,-1612.9706 1116.0366,-1619.9693"/>
</g>
<!-- hidebound.core&#45;&gt;hidebound.core.validators -->
<g id="edge116" class="edge">
<title>hidebound.core&#45;&gt;hidebound.core.validators</title>
<path fill="none" stroke="#a0d17b" d="M393.6053,-954.101C403.3178,-1019.2211 439.6227,-1238.883 493,-1280.8892 531.7009,-1311.3457 654.5714,-1312.6791 749.9368,-1308.5354"/>
<polygon fill="#a0d17b" stroke="#a0d17b" points="750.1242,-1312.0305 759.9533,-1308.0759 749.8034,-1305.0379 750.1242,-1312.0305"/>
</g>
<!-- OpenEXR -->
<g id="node49" class="node">
<title>OpenEXR</title>
<polygon fill="#343434" stroke="#343434" points="629,-949.8892 555,-949.8892 555,-913.8892 629,-913.8892 629,-949.8892"/>
<text text-anchor="middle" x="592" y="-928.1892" font-family="Courier,monospace" font-size="14.00" fill="#de958e">OpenEXR</text>
</g>
<!-- OpenEXR&#45;&gt;hidebound.core.tools -->
<g id="edge117" class="edge">
<title>OpenEXR&#45;&gt;hidebound.core.tools</title>
<path fill="none" stroke="#de958e" d="M629.1154,-931.8892C665.0273,-931.8892 721.0914,-931.8892 770.2581,-931.8892"/>
<polygon fill="#de958e" stroke="#de958e" points="770.3129,-935.3893 780.3129,-931.8892 770.3128,-928.3893 770.3129,-935.3893"/>
</g>
<!-- selenium.webdriver.chrome.options -->
<g id="node50" class="node">
<title>selenium.webdriver.chrome.options</title>
<polygon fill="#343434" stroke="#343434" points="289,-1007.8892 0,-1007.8892 0,-971.8892 289,-971.8892 289,-1007.8892"/>
<text text-anchor="middle" x="144.5" y="-986.1892" font-family="Courier,monospace" font-size="14.00" fill="#de958e">selenium.webdriver.chrome.options</text>
</g>
<!-- skimage.io -->
<g id="node51" class="node">
<title>skimage.io</title>
<polygon fill="#343434" stroke="#343434" points="921,-1669.8892 822,-1669.8892 822,-1633.8892 921,-1633.8892 921,-1669.8892"/>
<text text-anchor="middle" x="871.5" y="-1648.1892" font-family="Courier,monospace" font-size="14.00" fill="#de958e">skimage.io</text>
</g>
<!-- skimage.io&#45;&gt;hidebound.core.traits -->
<g id="edge118" class="edge">
<title>skimage.io&#45;&gt;hidebound.core.traits</title>
<path fill="none" stroke="#de958e" d="M921.2037,-1646.4851C971.5607,-1641.0099 1051.0103,-1632.3717 1115.471,-1625.363"/>
<polygon fill="#de958e" stroke="#de958e" points="1116.1181,-1628.8134 1125.6812,-1624.2529 1115.3614,-1621.8544 1116.1181,-1628.8134"/>
</g>
</g>
</svg>
