<?xml version="1.0" encoding="UTF-8" standalone="no"?>
<!DOCTYPE svg PUBLIC "-//W3C//DTD SVG 1.1//EN"
 "http://www.w3.org/Graphics/SVG/1.1/DTD/svg11.dtd">
<!-- Generated by graphviz version 2.40.1 (20161225.0304)
 -->
<!-- Title: %3 Pages: 1 -->
<svg width="2451pt" height="1837pt"
 viewBox="0.00 0.00 2451.00 1836.58" xmlns="http://www.w3.org/2000/svg" xmlns:xlink="http://www.w3.org/1999/xlink">
<g id="graph0" class="graph" transform="scale(1 1) rotate(0) translate(4 1832.5804)">
<title>%3</title>
<polygon fill="#242424" stroke="transparent" points="-4,4 -4,-1832.5804 2447,-1832.5804 2447,4 -4,4"/>
<!-- cli -->
<g id="node1" class="node">
<title>cli</title>
<polygon fill="#343434" stroke="#343434" points="171.5,-941.8873 117.5,-941.8873 117.5,-905.8873 171.5,-905.8873 171.5,-941.8873"/>
<text text-anchor="middle" x="144.5" y="-920.1873" font-family="Courier,monospace" font-size="14.00" fill="#b6ecf3">cli</text>
</g>
<!-- hidebound.core.config -->
<g id="node2" class="node">
<title>hidebound.core.config</title>
<polygon fill="#343434" stroke="#343434" points="1641,-1320.8873 1451,-1320.8873 1451,-1284.8873 1641,-1284.8873 1641,-1320.8873"/>
<text text-anchor="middle" x="1546" y="-1299.1873" font-family="Courier,monospace" font-size="14.00" fill="#b6ecf3">hidebound.core.config</text>
</g>
<!-- hidebound.core.database -->
<g id="node3" class="node">
<title>hidebound.core.database</title>
<polygon fill="#343434" stroke="#343434" points="1941,-1174.8873 1735,-1174.8873 1735,-1138.8873 1941,-1138.8873 1941,-1174.8873"/>
<text text-anchor="middle" x="1838" y="-1153.1873" font-family="Courier,monospace" font-size="14.00" fill="#b6ecf3">hidebound.core.database</text>
</g>
<!-- hidebound.core.config&#45;&gt;hidebound.core.database -->
<g id="edge1" class="edge">
<title>hidebound.core.config&#45;&gt;hidebound.core.database</title>
<path fill="none" stroke="#b6ecf3" d="M1640.5734,-1284.7961C1652.1535,-1280.9825 1663.5682,-1276.3955 1674,-1270.8873 1692.9304,-1260.8917 1692.9347,-1251.812 1710,-1238.8873 1738.3232,-1217.4362 1772.2561,-1195.8692 1798.0656,-1180.2406"/>
<polygon fill="#b6ecf3" stroke="#b6ecf3" points="1800.0659,-1183.1219 1806.8334,-1174.9701 1796.4595,-1177.1224 1800.0659,-1183.1219"/>
</g>
<!-- hidebound.server.app -->
<g id="node17" class="node">
<title>hidebound.server.app</title>
<polygon fill="#343434" stroke="#343434" points="2443,-315.8873 2261,-315.8873 2261,-279.8873 2443,-279.8873 2443,-315.8873"/>
<text text-anchor="middle" x="2352" y="-294.1873" font-family="Courier,monospace" font-size="14.00" fill="#b6ecf3">hidebound.server.app</text>
</g>
<!-- hidebound.core.config&#45;&gt;hidebound.server.app -->
<g id="edge2" class="edge">
<title>hidebound.core.config&#45;&gt;hidebound.server.app</title>
<path fill="none" stroke="#b6ecf3" d="M1641.2382,-1298.8081C1734.3281,-1290.0366 1874.9633,-1263.413 1966,-1183.8873 2247.8075,-937.7127 2331.5601,-448.0416 2348.4627,-325.957"/>
<polygon fill="#b6ecf3" stroke="#b6ecf3" points="2351.9478,-326.3022 2349.8141,-315.9244 2345.0104,-325.3677 2351.9478,-326.3022"/>
</g>
<!-- hidebound.server.api -->
<g id="node16" class="node">
<title>hidebound.server.api</title>
<polygon fill="#343434" stroke="#343434" points="2204.5,-528.8873 2022.5,-528.8873 2022.5,-492.8873 2204.5,-492.8873 2204.5,-528.8873"/>
<text text-anchor="middle" x="2113.5" y="-507.1873" font-family="Courier,monospace" font-size="14.00" fill="#b6ecf3">hidebound.server.api</text>
</g>
<!-- hidebound.core.database&#45;&gt;hidebound.server.api -->
<g id="edge3" class="edge">
<title>hidebound.core.database&#45;&gt;hidebound.server.api</title>
<path fill="none" stroke="#b6ecf3" d="M1848.8858,-1138.7483C1872.222,-1099.4234 1928.0245,-1002.9961 1966,-917.8873 2027.918,-779.1199 2084.0363,-605.6768 2104.8943,-538.8868"/>
<polygon fill="#b6ecf3" stroke="#b6ecf3" points="2108.3089,-539.693 2107.9347,-529.1048 2101.6243,-537.6153 2108.3089,-539.693"/>
</g>
<!-- hidebound.core.database_tools -->
<g id="node4" class="node">
<title>hidebound.core.database_tools</title>
<polygon fill="#343434" stroke="#343434" points="1674,-873.8873 1418,-873.8873 1418,-837.8873 1674,-837.8873 1674,-873.8873"/>
<text text-anchor="middle" x="1546" y="-852.1873" font-family="Courier,monospace" font-size="14.00" fill="#b6ecf3">hidebound.core.database_tools</text>
</g>
<!-- hidebound.core.database_tools&#45;&gt;hidebound.core.database -->
<g id="edge4" class="edge">
<title>hidebound.core.database_tools&#45;&gt;hidebound.core.database</title>
<path fill="none" stroke="#b6ecf3" d="M1585.4124,-873.9955C1612.2342,-887.526 1647.528,-907.7947 1674,-931.8873 1740.7497,-992.6375 1797.3738,-1084.4646 1823.1333,-1129.7176"/>
<polygon fill="#b6ecf3" stroke="#b6ecf3" points="1820.1996,-1131.641 1828.1542,-1138.6392 1826.2999,-1128.2079 1820.1996,-1131.641"/>
</g>
<!-- hidebound.core.logging -->
<g id="node5" class="node">
<title>hidebound.core.logging</title>
<polygon fill="#343434" stroke="#343434" points="1645,-491.8873 1447,-491.8873 1447,-455.8873 1645,-455.8873 1645,-491.8873"/>
<text text-anchor="middle" x="1546" y="-470.1873" font-family="Courier,monospace" font-size="14.00" fill="#b6ecf3">hidebound.core.logging</text>
</g>
<!-- hidebound.core.logging&#45;&gt;hidebound.core.database -->
<g id="edge5" class="edge">
<title>hidebound.core.logging&#45;&gt;hidebound.core.database</title>
<path fill="none" stroke="#b6ecf3" d="M1605.6013,-491.9856C1629.9881,-502.166 1656.5228,-517.2817 1674,-538.8873 1712.6343,-586.6477 1807.0752,-1013.8791 1831.9263,-1128.6262"/>
<polygon fill="#b6ecf3" stroke="#b6ecf3" points="1828.5767,-1129.6968 1834.1098,-1138.732 1835.4189,-1128.2184 1828.5767,-1129.6968"/>
</g>
<!-- hidebound.server.progress -->
<g id="node19" class="node">
<title>hidebound.server.progress</title>
<polygon fill="#343434" stroke="#343434" points="1949.5,-472.8873 1726.5,-472.8873 1726.5,-436.8873 1949.5,-436.8873 1949.5,-472.8873"/>
<text text-anchor="middle" x="1838" y="-451.1873" font-family="Courier,monospace" font-size="14.00" fill="#b6ecf3">hidebound.server.progress</text>
</g>
<!-- hidebound.core.logging&#45;&gt;hidebound.server.progress -->
<g id="edge6" class="edge">
<title>hidebound.core.logging&#45;&gt;hidebound.server.progress</title>
<path fill="none" stroke="#b6ecf3" d="M1645.2653,-467.4283C1668.1228,-465.941 1692.6888,-464.3425 1716.374,-462.8014"/>
<polygon fill="#b6ecf3" stroke="#b6ecf3" points="1716.7117,-466.2869 1726.4633,-462.1449 1716.2571,-459.3016 1716.7117,-466.2869"/>
</g>
<!-- hidebound.core.parser -->
<g id="node6" class="node">
<title>hidebound.core.parser</title>
<polygon fill="#343434" stroke="#343434" points="683,-1193.8873 493,-1193.8873 493,-1157.8873 683,-1157.8873 683,-1193.8873"/>
<text text-anchor="middle" x="588" y="-1172.1873" font-family="Courier,monospace" font-size="14.00" fill="#b6ecf3">hidebound.core.parser</text>
</g>
<!-- hidebound.core.parser&#45;&gt;hidebound.core.database_tools -->
<g id="edge7" class="edge">
<title>hidebound.core.parser&#45;&gt;hidebound.core.database_tools</title>
<path fill="none" stroke="#b6ecf3" d="M617.69,-1157.7796C711.4152,-1100.7562 997.5492,-927.779 1044,-912.8873 1187.7309,-866.8086 1232.1729,-898.1537 1382,-879.8873 1393.4925,-878.4862 1405.4236,-876.9327 1417.3714,-875.3093"/>
<polygon fill="#b6ecf3" stroke="#b6ecf3" points="1417.9718,-878.7597 1427.4023,-873.9309 1417.0189,-871.8249 1417.9718,-878.7597"/>
</g>
<!-- hidebound.core.specification_base -->
<g id="node7" class="node">
<title>hidebound.core.specification_base</title>
<polygon fill="#343434" stroke="#343434" points="1357.5,-1201.8873 1068.5,-1201.8873 1068.5,-1165.8873 1357.5,-1165.8873 1357.5,-1201.8873"/>
<text text-anchor="middle" x="1213" y="-1180.1873" font-family="Courier,monospace" font-size="14.00" fill="#b6ecf3">hidebound.core.specification_base</text>
</g>
<!-- hidebound.core.parser&#45;&gt;hidebound.core.specification_base -->
<g id="edge8" class="edge">
<title>hidebound.core.parser&#45;&gt;hidebound.core.specification_base</title>
<path fill="none" stroke="#b6ecf3" d="M683.264,-1177.1067C782.8774,-1178.3818 940.7773,-1180.4029 1058.3038,-1181.9072"/>
<polygon fill="#b6ecf3" stroke="#b6ecf3" points="1058.4306,-1185.409 1068.4746,-1182.0374 1058.5203,-1178.4096 1058.4306,-1185.409"/>
</g>
<!-- hidebound.core.validators -->
<g id="node11" class="node">
<title>hidebound.core.validators</title>
<polygon fill="#343434" stroke="#343434" points="975,-1239.8873 752,-1239.8873 752,-1203.8873 975,-1203.8873 975,-1239.8873"/>
<text text-anchor="middle" x="863.5" y="-1218.1873" font-family="Courier,monospace" font-size="14.00" fill="#b6ecf3">hidebound.core.validators</text>
</g>
<!-- hidebound.core.parser&#45;&gt;hidebound.core.validators -->
<g id="edge9" class="edge">
<title>hidebound.core.parser&#45;&gt;hidebound.core.validators</title>
<path fill="none" stroke="#b6ecf3" d="M683.1972,-1191.7823C703.2462,-1195.1299 724.6288,-1198.7001 745.4026,-1202.1687"/>
<polygon fill="#b6ecf3" stroke="#b6ecf3" points="745.1033,-1205.6671 755.5432,-1203.8619 746.2562,-1198.7627 745.1033,-1205.6671"/>
</g>
<!-- hidebound.core.specification_base&#45;&gt;hidebound.core.config -->
<g id="edge10" class="edge">
<title>hidebound.core.specification_base&#45;&gt;hidebound.core.config</title>
<path fill="none" stroke="#b6ecf3" d="M1355.649,-1201.9639C1364.9183,-1205.8156 1373.8072,-1210.4115 1382,-1215.8873 1406.2894,-1232.1217 1394.1902,-1253.9573 1418,-1270.8873 1425.1886,-1275.9988 1433.1108,-1280.2966 1441.3832,-1283.9099"/>
<polygon fill="#b6ecf3" stroke="#b6ecf3" points="1440.2671,-1287.2331 1450.8514,-1287.7053 1442.8717,-1280.7357 1440.2671,-1287.2331"/>
</g>
<!-- hidebound.core.specification_base&#45;&gt;hidebound.core.database -->
<g id="edge11" class="edge">
<title>hidebound.core.specification_base&#45;&gt;hidebound.core.database</title>
<path fill="none" stroke="#b6ecf3" d="M1336.7622,-1201.9363C1352.2342,-1205.7569 1367.65,-1210.3571 1382,-1215.8873 1399.4968,-1222.6303 1399.9498,-1232.8086 1418,-1237.8873 1527.525,-1268.7039 1563.2023,-1263.7573 1674,-1237.8873 1721.3462,-1226.8326 1770.7203,-1200.0283 1802.7616,-1180.2672"/>
<polygon fill="#b6ecf3" stroke="#b6ecf3" points="1804.71,-1183.1767 1811.3232,-1174.8992 1800.9915,-1177.246 1804.71,-1183.1767"/>
</g>
<!-- hidebound.core.specification_base&#45;&gt;hidebound.core.database_tools -->
<g id="edge12" class="edge">
<title>hidebound.core.specification_base&#45;&gt;hidebound.core.database_tools</title>
<path fill="none" stroke="#b6ecf3" d="M1231.3779,-1165.7854C1287.3239,-1110.6794 1455.6659,-944.8651 1520.3225,-881.1793"/>
<polygon fill="#b6ecf3" stroke="#b6ecf3" points="1523.0107,-883.4442 1527.6789,-873.9333 1518.0985,-878.4572 1523.0107,-883.4442"/>
</g>
<!-- hidebound.core.specifications -->
<g id="node8" class="node">
<title>hidebound.core.specifications</title>
<polygon fill="#343434" stroke="#343434" points="1674,-1120.8873 1418,-1120.8873 1418,-1084.8873 1674,-1084.8873 1674,-1120.8873"/>
<text text-anchor="middle" x="1546" y="-1099.1873" font-family="Courier,monospace" font-size="14.00" fill="#b6ecf3">hidebound.core.specifications</text>
</g>
<!-- hidebound.core.specification_base&#45;&gt;hidebound.core.specifications -->
<g id="edge13" class="edge">
<title>hidebound.core.specification_base&#45;&gt;hidebound.core.specifications</title>
<path fill="none" stroke="#b6ecf3" d="M1278.3417,-1165.7897C1318.5052,-1154.8865 1371.0861,-1141.0069 1418,-1129.8873 1427.613,-1127.6088 1437.655,-1125.3251 1447.7024,-1123.1037"/>
<polygon fill="#b6ecf3" stroke="#b6ecf3" points="1448.7168,-1126.4645 1457.7361,-1120.9055 1447.2187,-1119.6267 1448.7168,-1126.4645"/>
</g>
<!-- hidebound.core.tools -->
<g id="node9" class="node">
<title>hidebound.core.tools</title>
<polygon fill="#343434" stroke="#343434" points="954.5,-919.8873 772.5,-919.8873 772.5,-883.8873 954.5,-883.8873 954.5,-919.8873"/>
<text text-anchor="middle" x="863.5" y="-898.1873" font-family="Courier,monospace" font-size="14.00" fill="#b6ecf3">hidebound.core.tools</text>
</g>
<!-- hidebound.core.tools&#45;&gt;hidebound.core.database -->
<g id="edge14" class="edge">
<title>hidebound.core.tools&#45;&gt;hidebound.core.database</title>
<path fill="none" stroke="#b6ecf3" d="M954.7067,-914.479C972.9805,-919.0769 991.59,-925.3453 1008,-933.8873 1027.2529,-943.9092 1024.2799,-957.8194 1044,-966.8873 1172.1189,-1025.8007 1542.2117,-992.7169 1674,-1042.8873 1727.5467,-1063.272 1780.2929,-1104.8348 1810.9644,-1131.7447"/>
<polygon fill="#b6ecf3" stroke="#b6ecf3" points="1808.8471,-1134.5459 1818.643,-1138.5823 1813.5023,-1129.3181 1808.8471,-1134.5459"/>
</g>
<!-- hidebound.core.tools&#45;&gt;hidebound.core.database_tools -->
<g id="edge15" class="edge">
<title>hidebound.core.tools&#45;&gt;hidebound.core.database_tools</title>
<path fill="none" stroke="#b6ecf3" d="M954.7268,-889.4454C983.2677,-885.9088 1014.9032,-882.3527 1044,-879.8873 1166.719,-869.4893 1306.7252,-863.2613 1407.6467,-859.766"/>
<polygon fill="#b6ecf3" stroke="#b6ecf3" points="1408.0294,-863.2551 1417.904,-859.4155 1407.7903,-856.2592 1408.0294,-863.2551"/>
</g>
<!-- hidebound.core.tools&#45;&gt;hidebound.core.specification_base -->
<g id="edge16" class="edge">
<title>hidebound.core.tools&#45;&gt;hidebound.core.specification_base</title>
<path fill="none" stroke="#b6ecf3" d="M888.6581,-919.9634C917.7722,-941.0483 966.9724,-977.1948 1008,-1009.8873 1072.4194,-1061.2193 1145.4258,-1124.4522 1184.5781,-1158.7941"/>
<polygon fill="#b6ecf3" stroke="#b6ecf3" points="1182.581,-1161.6984 1192.4037,-1165.6691 1187.2011,-1156.4396 1182.581,-1161.6984"/>
</g>
<!-- hidebound.core.traits -->
<g id="node10" class="node">
<title>hidebound.core.traits</title>
<polygon fill="#343434" stroke="#343434" points="1308,-827.8873 1118,-827.8873 1118,-791.8873 1308,-791.8873 1308,-827.8873"/>
<text text-anchor="middle" x="1213" y="-806.1873" font-family="Courier,monospace" font-size="14.00" fill="#b6ecf3">hidebound.core.traits</text>
</g>
<!-- hidebound.core.tools&#45;&gt;hidebound.core.traits -->
<g id="edge17" class="edge">
<title>hidebound.core.tools&#45;&gt;hidebound.core.traits</title>
<path fill="none" stroke="#b6ecf3" d="M954.6636,-892.8209C972.9405,-888.8285 991.5622,-883.0998 1008,-874.8873 1027.4167,-865.1866 1024.595,-851.6115 1044,-841.8873 1063.6787,-832.026 1086.0361,-825.1905 1107.8982,-820.4559"/>
<polygon fill="#b6ecf3" stroke="#b6ecf3" points="1108.7935,-823.8456 1117.8967,-818.4251 1107.4001,-816.9857 1108.7935,-823.8456"/>
</g>
<!-- hidebound.exporters.local_disk_exporter -->
<g id="node14" class="node">
<title>hidebound.exporters.local_disk_exporter</title>
<polygon fill="#343434" stroke="#343434" points="1382,-1369.8873 1044,-1369.8873 1044,-1333.8873 1382,-1333.8873 1382,-1369.8873"/>
<text text-anchor="middle" x="1213" y="-1348.1873" font-family="Courier,monospace" font-size="14.00" fill="#b6ecf3">hidebound.exporters.local_disk_exporter</text>
</g>
<!-- hidebound.core.tools&#45;&gt;hidebound.exporters.local_disk_exporter -->
<g id="edge18" class="edge">
<title>hidebound.core.tools&#45;&gt;hidebound.exporters.local_disk_exporter</title>
<path fill="none" stroke="#b6ecf3" d="M871.3556,-919.9974C893.5463,-969.8999 960.5452,-1112.223 1044,-1210.8873 1083.9794,-1258.153 1141.0423,-1302.0656 1177.5538,-1327.9388"/>
<polygon fill="#b6ecf3" stroke="#b6ecf3" points="1175.7225,-1330.9294 1185.9193,-1333.806 1179.742,-1325.1984 1175.7225,-1330.9294"/>
</g>
<!-- hidebound.core.traits&#45;&gt;hidebound.core.specifications -->
<g id="edge19" class="edge">
<title>hidebound.core.traits&#45;&gt;hidebound.core.specifications</title>
<path fill="none" stroke="#b6ecf3" d="M1249.7897,-828.0061C1285.569,-846.5831 1340.4527,-877.6766 1382,-912.8873 1442.1104,-963.83 1499.1268,-1037.6018 1527.4296,-1076.5359"/>
<polygon fill="#b6ecf3" stroke="#b6ecf3" points="1524.6611,-1078.6807 1533.3475,-1084.7469 1530.34,-1074.5878 1524.6611,-1078.6807"/>
</g>
<!-- hidebound.core.validators&#45;&gt;hidebound.core.config -->
<g id="edge20" class="edge">
<title>hidebound.core.validators&#45;&gt;hidebound.core.config</title>
<path fill="none" stroke="#b6ecf3" d="M975.0553,-1235.1269C1104.0332,-1250.4341 1314.72,-1275.4387 1440.8962,-1290.4135"/>
<polygon fill="#b6ecf3" stroke="#b6ecf3" points="1440.6151,-1293.9046 1450.9579,-1291.6076 1441.4402,-1286.9534 1440.6151,-1293.9046"/>
</g>
<!-- hidebound.core.validators&#45;&gt;hidebound.core.specification_base -->
<g id="edge21" class="edge">
<title>hidebound.core.validators&#45;&gt;hidebound.core.specification_base</title>
<path fill="none" stroke="#b6ecf3" d="M975.0449,-1209.7594C1001.4664,-1206.8867 1030.1158,-1203.7717 1058.079,-1200.7314"/>
<polygon fill="#b6ecf3" stroke="#b6ecf3" points="1058.7817,-1204.1757 1068.3448,-1199.6152 1058.025,-1197.2167 1058.7817,-1204.1757"/>
</g>
<!-- hidebound.core.validators&#45;&gt;hidebound.core.specifications -->
<g id="edge22" class="edge">
<title>hidebound.core.validators&#45;&gt;hidebound.core.specifications</title>
<path fill="none" stroke="#b6ecf3" d="M904.9522,-1203.7505C940.998,-1188.7629 994.9903,-1168.177 1044,-1156.8873 1165.2087,-1128.9663 1306.283,-1115.4071 1407.9593,-1108.8669"/>
<polygon fill="#b6ecf3" stroke="#b6ecf3" points="1408.2228,-1112.3574 1417.9834,-1108.2366 1407.7834,-1105.3712 1408.2228,-1112.3574"/>
</g>
<!-- hidebound.exporters.girder_exporter -->
<g id="node13" class="node">
<title>hidebound.exporters.girder_exporter</title>
<polygon fill="#343434" stroke="#343434" points="1365.5,-1461.8873 1060.5,-1461.8873 1060.5,-1425.8873 1365.5,-1425.8873 1365.5,-1461.8873"/>
<text text-anchor="middle" x="1213" y="-1440.1873" font-family="Courier,monospace" font-size="14.00" fill="#b6ecf3">hidebound.exporters.girder_exporter</text>
</g>
<!-- hidebound.core.validators&#45;&gt;hidebound.exporters.girder_exporter -->
<g id="edge23" class="edge">
<title>hidebound.core.validators&#45;&gt;hidebound.exporters.girder_exporter</title>
<path fill="none" stroke="#b6ecf3" d="M930.9057,-1239.945C957.7989,-1250.0193 987.2371,-1265.0655 1008,-1286.8873 1038.2662,-1318.6971 1012.8623,-1347.9302 1044,-1378.8873 1064.0531,-1398.8242 1090.8797,-1412.7756 1117.2438,-1422.4864"/>
<polygon fill="#b6ecf3" stroke="#b6ecf3" points="1116.3277,-1425.874 1126.9226,-1425.8754 1118.6411,-1419.2672 1116.3277,-1425.874"/>
</g>
<!-- hidebound.core.validators&#45;&gt;hidebound.exporters.local_disk_exporter -->
<g id="edge24" class="edge">
<title>hidebound.core.validators&#45;&gt;hidebound.exporters.local_disk_exporter</title>
<path fill="none" stroke="#b6ecf3" d="M912.0965,-1239.9633C975.6501,-1263.6027 1086.8706,-1304.9723 1154.833,-1330.2515"/>
<polygon fill="#b6ecf3" stroke="#b6ecf3" points="1153.9427,-1333.6546 1164.5355,-1333.8605 1156.3831,-1327.0938 1153.9427,-1333.6546"/>
</g>
<!-- hidebound.exporters.s3_exporter -->
<g id="node15" class="node">
<title>hidebound.exporters.s3_exporter</title>
<polygon fill="#343434" stroke="#343434" points="1349,-1515.8873 1077,-1515.8873 1077,-1479.8873 1349,-1479.8873 1349,-1515.8873"/>
<text text-anchor="middle" x="1213" y="-1494.1873" font-family="Courier,monospace" font-size="14.00" fill="#b6ecf3">hidebound.exporters.s3_exporter</text>
</g>
<!-- hidebound.core.validators&#45;&gt;hidebound.exporters.s3_exporter -->
<g id="edge25" class="edge">
<title>hidebound.core.validators&#45;&gt;hidebound.exporters.s3_exporter</title>
<path fill="none" stroke="#b6ecf3" d="M937.7784,-1240.0021C963.56,-1249.833 990.391,-1264.6905 1008,-1286.8873 1059.7881,-1352.1683 984.0621,-1412.999 1044,-1470.8873 1050.9793,-1477.628 1058.9281,-1483.0883 1067.4853,-1487.4851"/>
<polygon fill="#b6ecf3" stroke="#b6ecf3" points="1066.0613,-1490.6827 1076.6081,-1491.6913 1068.9923,-1484.3258 1066.0613,-1490.6827"/>
</g>
<!-- hidebound.exporters.exporter_base -->
<g id="node12" class="node">
<title>hidebound.exporters.exporter_base</title>
<polygon fill="#343434" stroke="#343434" points="1008,-1569.8873 719,-1569.8873 719,-1533.8873 1008,-1533.8873 1008,-1569.8873"/>
<text text-anchor="middle" x="863.5" y="-1548.1873" font-family="Courier,monospace" font-size="14.00" fill="#b6ecf3">hidebound.exporters.exporter_base</text>
</g>
<!-- hidebound.exporters.exporter_base&#45;&gt;hidebound.exporters.girder_exporter -->
<g id="edge26" class="edge">
<title>hidebound.exporters.exporter_base&#45;&gt;hidebound.exporters.girder_exporter</title>
<path fill="none" stroke="#b6ecf3" d="M980.4963,-1533.8273C990.1775,-1530.0217 999.4968,-1525.4286 1008,-1519.8873 1030.6404,-1505.1332 1020.9307,-1484.9613 1044,-1470.8873 1046.5563,-1469.3278 1049.1732,-1467.8492 1051.8421,-1466.4476"/>
<polygon fill="#b6ecf3" stroke="#b6ecf3" points="1053.6219,-1469.4749 1061.1035,-1461.9731 1050.5767,-1463.172 1053.6219,-1469.4749"/>
</g>
<!-- hidebound.exporters.exporter_base&#45;&gt;hidebound.exporters.local_disk_exporter -->
<g id="edge27" class="edge">
<title>hidebound.exporters.exporter_base&#45;&gt;hidebound.exporters.local_disk_exporter</title>
<path fill="none" stroke="#b6ecf3" d="M926.9231,-1533.8665C954.3838,-1523.5911 985.3533,-1508.3796 1008,-1486.8873 1033.376,-1462.805 1017.9651,-1440.2558 1044,-1416.8873 1066.0776,-1397.0708 1094.8445,-1383.0314 1122.3685,-1373.2027"/>
<polygon fill="#b6ecf3" stroke="#b6ecf3" points="1123.7075,-1376.4439 1132.0392,-1369.8992 1121.4447,-1369.8197 1123.7075,-1376.4439"/>
</g>
<!-- hidebound.exporters.exporter_base&#45;&gt;hidebound.exporters.s3_exporter -->
<g id="edge28" class="edge">
<title>hidebound.exporters.exporter_base&#45;&gt;hidebound.exporters.s3_exporter</title>
<path fill="none" stroke="#b6ecf3" d="M980.3643,-1533.831C1014.3196,-1528.5847 1051.562,-1522.8305 1086.102,-1517.4939"/>
<polygon fill="#b6ecf3" stroke="#b6ecf3" points="1086.8975,-1520.9126 1096.2458,-1515.9266 1085.8286,-1513.9947 1086.8975,-1520.9126"/>
</g>
<!-- hidebound.exporters.girder_exporter&#45;&gt;hidebound.core.config -->
<g id="edge29" class="edge">
<title>hidebound.exporters.girder_exporter&#45;&gt;hidebound.core.config</title>
<path fill="none" stroke="#b6ecf3" d="M1339.216,-1425.784C1353.8942,-1421.9874 1368.4492,-1417.4079 1382,-1411.8873 1433.5878,-1390.8708 1485.9442,-1352.4506 1517.192,-1327.295"/>
<polygon fill="#b6ecf3" stroke="#b6ecf3" points="1519.5085,-1329.9223 1525.0478,-1320.8908 1515.0854,-1324.4967 1519.5085,-1329.9223"/>
</g>
<!-- hidebound.exporters.girder_exporter&#45;&gt;hidebound.core.database -->
<g id="edge30" class="edge">
<title>hidebound.exporters.girder_exporter&#45;&gt;hidebound.core.database</title>
<path fill="none" stroke="#b6ecf3" d="M1365.7398,-1445.3894C1460.4056,-1439.9694 1581.2108,-1421.0719 1674,-1365.8873 1748.3877,-1321.6467 1801.84,-1229.9657 1825.0793,-1184.1647"/>
<polygon fill="#b6ecf3" stroke="#b6ecf3" points="1828.2577,-1185.6337 1829.5764,-1175.1212 1821.9899,-1182.5168 1828.2577,-1185.6337"/>
</g>
<!-- hidebound.exporters.local_disk_exporter&#45;&gt;hidebound.core.config -->
<g id="edge31" class="edge">
<title>hidebound.exporters.local_disk_exporter&#45;&gt;hidebound.core.config</title>
<path fill="none" stroke="#b6ecf3" d="M1335.5783,-1333.8503C1370.0309,-1328.7807 1407.1858,-1323.3134 1440.5457,-1318.4046"/>
<polygon fill="#b6ecf3" stroke="#b6ecf3" points="1441.3858,-1321.8188 1450.7697,-1316.9002 1440.3667,-1314.8934 1441.3858,-1321.8188"/>
</g>
<!-- hidebound.exporters.local_disk_exporter&#45;&gt;hidebound.core.database -->
<g id="edge32" class="edge">
<title>hidebound.exporters.local_disk_exporter&#45;&gt;hidebound.core.database</title>
<path fill="none" stroke="#b6ecf3" d="M1333.3405,-1369.9254C1429.8946,-1378.9434 1566.5681,-1379.1439 1674,-1329.8873 1742.5808,-1298.4437 1796.6518,-1224.0546 1822.1009,-1183.8287"/>
<polygon fill="#b6ecf3" stroke="#b6ecf3" points="1825.226,-1185.4303 1827.5203,-1175.0868 1819.2765,-1181.7419 1825.226,-1185.4303"/>
</g>
<!-- hidebound.exporters.s3_exporter&#45;&gt;hidebound.core.config -->
<g id="edge33" class="edge">
<title>hidebound.exporters.s3_exporter&#45;&gt;hidebound.core.config</title>
<path fill="none" stroke="#b6ecf3" d="M1349.2489,-1484.065C1360.6341,-1480.5496 1371.7106,-1476.2171 1382,-1470.8873 1447.1699,-1437.13 1501.799,-1367.7448 1528.4735,-1329.5524"/>
<polygon fill="#b6ecf3" stroke="#b6ecf3" points="1531.5682,-1331.2284 1534.3409,-1321.0028 1525.7966,-1327.2674 1531.5682,-1331.2284"/>
</g>
<!-- hidebound.exporters.s3_exporter&#45;&gt;hidebound.core.database -->
<g id="edge34" class="edge">
<title>hidebound.exporters.s3_exporter&#45;&gt;hidebound.core.database</title>
<path fill="none" stroke="#b6ecf3" d="M1349.0025,-1502.5088C1447.0786,-1499.4518 1578.4696,-1481.6088 1674,-1416.8873 1759.9215,-1358.6759 1809.9406,-1238.8713 1829.022,-1184.641"/>
<polygon fill="#b6ecf3" stroke="#b6ecf3" points="1832.3927,-1185.6015 1832.3272,-1175.0069 1825.7715,-1183.33 1832.3927,-1185.6015"/>
</g>
<!-- hidebound.server.api&#45;&gt;hidebound.server.app -->
<g id="edge35" class="edge">
<title>hidebound.server.api&#45;&gt;hidebound.server.app</title>
<path fill="none" stroke="#b6ecf3" d="M2138.042,-492.7435C2161.0562,-475.4459 2196.1492,-448.3348 2225,-422.8873 2262.2163,-390.0611 2302.6557,-349.2955 2327.6676,-323.4278"/>
<polygon fill="#b6ecf3" stroke="#b6ecf3" points="2330.4982,-325.5342 2334.914,-315.9035 2325.4561,-320.6785 2330.4982,-325.5342"/>
</g>
<!-- hidebound.server.components -->
<g id="node18" class="node">
<title>hidebound.server.components</title>
<polygon fill="#343434" stroke="#343434" points="1957.5,-250.8873 1718.5,-250.8873 1718.5,-214.8873 1957.5,-214.8873 1957.5,-250.8873"/>
<text text-anchor="middle" x="1838" y="-229.1873" font-family="Courier,monospace" font-size="14.00" fill="#b6ecf3">hidebound.server.components</text>
</g>
<!-- hidebound.server.components&#45;&gt;hidebound.server.app -->
<g id="edge36" class="edge">
<title>hidebound.server.components&#45;&gt;hidebound.server.app</title>
<path fill="none" stroke="#b6ecf3" d="M1898.7094,-214.8831C1976.3924,-194.9205 2114.1607,-169.9591 2225,-205.8873 2265.2552,-218.9359 2303.4445,-250.0535 2327.2373,-272.4888"/>
<polygon fill="#b6ecf3" stroke="#b6ecf3" points="2325.1102,-275.3001 2334.7364,-279.7258 2329.9711,-270.2631 2325.1102,-275.3001"/>
</g>
<!-- hidebound.server.server_tools -->
<g id="node20" class="node">
<title>hidebound.server.server_tools</title>
<polygon fill="#343434" stroke="#343434" points="1966,-602.8873 1710,-602.8873 1710,-566.8873 1966,-566.8873 1966,-602.8873"/>
<text text-anchor="middle" x="1838" y="-581.1873" font-family="Courier,monospace" font-size="14.00" fill="#b6ecf3">hidebound.server.server_tools</text>
</g>
<!-- hidebound.server.server_tools&#45;&gt;hidebound.server.api -->
<g id="edge37" class="edge">
<title>hidebound.server.server_tools&#45;&gt;hidebound.server.api</title>
<path fill="none" stroke="#b6ecf3" d="M1911.8833,-566.8502C1929.6361,-562.3965 1948.5179,-557.5603 1966,-552.8873 1990.8684,-546.2401 2017.9904,-538.6234 2042.117,-531.7175"/>
<polygon fill="#b6ecf3" stroke="#b6ecf3" points="2043.2588,-535.0312 2051.905,-528.908 2041.3275,-528.3029 2043.2588,-535.0312"/>
</g>
<!-- hidebound.server.server_tools&#45;&gt;hidebound.server.app -->
<g id="edge38" class="edge">
<title>hidebound.server.server_tools&#45;&gt;hidebound.server.app</title>
<path fill="none" stroke="#b6ecf3" d="M1966.0886,-598.0354C2046.9791,-599.827 2149.996,-589.473 2225,-537.8873 2299.4921,-486.6538 2333.6491,-377.4845 2346.0977,-325.9418"/>
<polygon fill="#b6ecf3" stroke="#b6ecf3" points="2349.5194,-326.6793 2348.3675,-316.1472 2342.7002,-325.0989 2349.5194,-326.6793"/>
</g>
<!-- dash.dependencies -->
<g id="node21" class="node">
<title>dash.dependencies</title>
<polygon fill="#343434" stroke="#343434" points="2192,-380.8873 2035,-380.8873 2035,-344.8873 2192,-344.8873 2192,-380.8873"/>
<text text-anchor="middle" x="2113.5" y="-359.1873" font-family="Courier,monospace" font-size="14.00" fill="#de958e">dash.dependencies</text>
</g>
<!-- dash.dependencies&#45;&gt;hidebound.server.app -->
<g id="edge39" class="edge">
<title>dash.dependencies&#45;&gt;hidebound.server.app</title>
<path fill="none" stroke="#de958e" d="M2179.6188,-344.8675C2209.4735,-336.731 2244.9128,-327.0725 2275.8713,-318.6352"/>
<polygon fill="#de958e" stroke="#de958e" points="2277.0248,-321.9486 2285.7526,-315.9422 2275.1841,-315.1949 2277.0248,-321.9486"/>
</g>
<!-- dash -->
<g id="node22" class="node">
<title>dash</title>
<polygon fill="#343434" stroke="#343434" points="1573,-119.8873 1519,-119.8873 1519,-83.8873 1573,-83.8873 1573,-119.8873"/>
<text text-anchor="middle" x="1546" y="-98.1873" font-family="Courier,monospace" font-size="14.00" fill="#de958e">dash</text>
</g>
<!-- dash&#45;&gt;hidebound.server.app -->
<g id="edge40" class="edge">
<title>dash&#45;&gt;hidebound.server.app</title>
<path fill="none" stroke="#de958e" d="M1573.1719,-90.0807C1670.1589,-49.896 2005.2164,71.9502 2225,-59.8873 2302.4024,-106.3173 2335.2405,-217.7248 2346.7451,-269.9629"/>
<polygon fill="#de958e" stroke="#de958e" points="2343.3464,-270.8091 2348.8267,-279.8764 2350.197,-269.3706 2343.3464,-270.8091"/>
</g>
<!-- dash&#45;&gt;hidebound.server.components -->
<g id="edge41" class="edge">
<title>dash&#45;&gt;hidebound.server.components</title>
<path fill="none" stroke="#de958e" d="M1573.2084,-114.0939C1622.3619,-136.1456 1726.605,-182.9122 1788.6267,-210.737"/>
<polygon fill="#de958e" stroke="#de958e" points="1787.2748,-213.9665 1797.8313,-214.8664 1790.1401,-207.5798 1787.2748,-213.9665"/>
</g>
<!-- hidebound.server -->
<g id="node23" class="node">
<title>hidebound.server</title>
<polygon fill="#343434" stroke="#343434" points="1620.5,-383.8873 1471.5,-383.8873 1471.5,-347.8873 1620.5,-347.8873 1620.5,-383.8873"/>
<text text-anchor="middle" x="1546" y="-362.1873" font-family="Courier,monospace" font-size="14.00" fill="#a0d17b">hidebound.server</text>
</g>
<!-- hidebound.server&#45;&gt;hidebound.server.api -->
<g id="edge42" class="edge">
<title>hidebound.server&#45;&gt;hidebound.server.api</title>
<path fill="none" stroke="#a0d17b" d="M1620.7633,-368.7139C1706.2874,-373.8054 1849.5335,-388.0525 1966,-427.8873 2007.5731,-442.1065 2050.9041,-468.0326 2079.7554,-487.1382"/>
<polygon fill="#a0d17b" stroke="#a0d17b" points="2077.9736,-490.1576 2088.2264,-492.828 2081.8767,-484.3467 2077.9736,-490.1576"/>
</g>
<!-- hidebound.server&#45;&gt;hidebound.server.app -->
<g id="edge43" class="edge">
<title>hidebound.server&#45;&gt;hidebound.server.app</title>
<path fill="none" stroke="#a0d17b" d="M1620.6964,-354.3732C1638.8799,-349.67 1657.7547,-343.0853 1674,-333.8873 1693.6904,-322.7388 1689.095,-306.5465 1710,-297.8873 1804.779,-258.6286 2095.2099,-275.8298 2250.9086,-288.5926"/>
<polygon fill="#a0d17b" stroke="#a0d17b" points="2250.7109,-292.0881 2260.9659,-289.4262 2251.2892,-285.112 2250.7109,-292.0881"/>
</g>
<!-- hidebound.server&#45;&gt;hidebound.server.components -->
<g id="edge44" class="edge">
<title>hidebound.server&#45;&gt;hidebound.server.components</title>
<path fill="none" stroke="#a0d17b" d="M1620.5677,-358.2599C1639.4595,-353.5155 1658.708,-345.939 1674,-333.8873 1701.1669,-312.477 1682.8331,-286.2977 1710,-264.8873 1714.3852,-261.4313 1719.0958,-258.3434 1724.03,-255.5846"/>
<polygon fill="#a0d17b" stroke="#a0d17b" points="1725.7975,-258.6126 1733.1312,-250.9662 1722.6298,-252.3704 1725.7975,-258.6126"/>
</g>
<!-- hidebound.server&#45;&gt;hidebound.server.progress -->
<g id="edge45" class="edge">
<title>hidebound.server&#45;&gt;hidebound.server.progress</title>
<path fill="none" stroke="#a0d17b" d="M1620.7936,-375.3144C1638.786,-379.2846 1657.548,-384.9134 1674,-392.8873 1692.742,-401.9711 1691.4297,-413.4575 1710,-422.8873 1717.9493,-426.9239 1726.4403,-430.4728 1735.1244,-433.5889"/>
<polygon fill="#a0d17b" stroke="#a0d17b" points="1734.0126,-436.9076 1744.6069,-436.803 1736.2597,-430.278 1734.0126,-436.9076"/>
</g>
<!-- hidebound.server&#45;&gt;hidebound.server.server_tools -->
<g id="edge46" class="edge">
<title>hidebound.server&#45;&gt;hidebound.server.server_tools</title>
<path fill="none" stroke="#a0d17b" d="M1620.5594,-369.2036C1639.6669,-373.1855 1659.0256,-380.3472 1674,-392.8873 1706.7131,-420.2825 1684.5597,-447.6319 1710,-481.8873 1734.0926,-514.3282 1770.7188,-542.4069 1798.6286,-561.0168"/>
<polygon fill="#a0d17b" stroke="#a0d17b" points="1797.071,-564.1799 1807.3569,-566.7197 1800.8999,-558.3199 1797.071,-564.1799"/>
</g>
<!-- dash.exceptions -->
<g id="node24" class="node">
<title>dash.exceptions</title>
<polygon fill="#343434" stroke="#343434" points="2183.5,-250.8873 2043.5,-250.8873 2043.5,-214.8873 2183.5,-214.8873 2183.5,-250.8873"/>
<text text-anchor="middle" x="2113.5" y="-229.1873" font-family="Courier,monospace" font-size="14.00" fill="#de958e">dash.exceptions</text>
</g>
<!-- dash.exceptions&#45;&gt;hidebound.server.app -->
<g id="edge47" class="edge">
<title>dash.exceptions&#45;&gt;hidebound.server.app</title>
<path fill="none" stroke="#de958e" d="M2179.6188,-250.9071C2209.4735,-259.0436 2244.9128,-268.7022 2275.8713,-277.1395"/>
<polygon fill="#de958e" stroke="#de958e" points="2275.1841,-280.5798 2285.7526,-279.8325 2277.0248,-273.8261 2275.1841,-280.5798"/>
</g>
<!-- dash_cytoscape -->
<g id="node25" class="node">
<title>dash_cytoscape</title>
<polygon fill="#343434" stroke="#343434" points="1612,-280.8873 1480,-280.8873 1480,-244.8873 1612,-244.8873 1612,-280.8873"/>
<text text-anchor="middle" x="1546" y="-259.1873" font-family="Courier,monospace" font-size="14.00" fill="#de958e">dash_cytoscape</text>
</g>
<!-- dash_cytoscape&#45;&gt;hidebound.server.components -->
<g id="edge48" class="edge">
<title>dash_cytoscape&#45;&gt;hidebound.server.components</title>
<path fill="none" stroke="#de958e" d="M1612.2593,-256.0799C1640.6989,-253.158 1674.9616,-249.6379 1708.1036,-246.2328"/>
<polygon fill="#de958e" stroke="#de958e" points="1708.7556,-249.6844 1718.3455,-245.1806 1708.0401,-242.721 1708.7556,-249.6844"/>
</g>
<!-- flask -->
<g id="node26" class="node">
<title>flask</title>
<polygon fill="#343434" stroke="#343434" points="1575,-437.8873 1517,-437.8873 1517,-401.8873 1575,-401.8873 1575,-437.8873"/>
<text text-anchor="middle" x="1546" y="-416.1873" font-family="Courier,monospace" font-size="14.00" fill="#de958e">flask</text>
</g>
<!-- flask&#45;&gt;hidebound.server.api -->
<g id="edge49" class="edge">
<title>flask&#45;&gt;hidebound.server.api</title>
<path fill="none" stroke="#de958e" d="M1575.0219,-421.4012C1602.0412,-423.8443 1642.7327,-430.2257 1674,-446.8873 1693.6938,-457.3817 1689.638,-472.7568 1710,-481.8873 1805.9132,-524.8958 1927.5929,-527.528 2012.1285,-522.2944"/>
<polygon fill="#de958e" stroke="#de958e" points="2012.5045,-525.7772 2022.2494,-521.6194 2012.0386,-518.7928 2012.5045,-525.7772"/>
</g>
<!-- flask&#45;&gt;hidebound.server.app -->
<g id="edge50" class="edge">
<title>flask&#45;&gt;hidebound.server.app</title>
<path fill="none" stroke="#de958e" d="M1575.2351,-420.8099C1689.0717,-424.0634 2102.4417,-432.6263 2225,-389.8873 2264.7264,-376.0338 2302.7681,-345.3825 2326.6837,-323.2609"/>
<polygon fill="#de958e" stroke="#de958e" points="2329.3723,-325.5355 2334.2346,-316.1223 2324.5634,-320.4488 2329.3723,-325.5355"/>
</g>
<!-- flask&#45;&gt;hidebound.server.components -->
<g id="edge51" class="edge">
<title>flask&#45;&gt;hidebound.server.components</title>
<path fill="none" stroke="#de958e" d="M1575.1237,-421.3149C1603.5698,-421.1332 1646.487,-416.451 1674,-392.8873 1708.2937,-363.5163 1679.8365,-331.4862 1710,-297.8873 1726.7539,-279.2254 1750.1131,-265.1916 1772.2965,-255.031"/>
<polygon fill="#de958e" stroke="#de958e" points="1773.9514,-258.1273 1781.7091,-250.9113 1771.1447,-251.7146 1773.9514,-258.1273"/>
</g>
<!-- flask&#45;&gt;hidebound.server.progress -->
<g id="edge52" class="edge">
<title>flask&#45;&gt;hidebound.server.progress</title>
<path fill="none" stroke="#de958e" d="M1575.0656,-423.3712C1608.1324,-427.3347 1664.2939,-434.0664 1716.2427,-440.2931"/>
<polygon fill="#de958e" stroke="#de958e" points="1715.8816,-443.7748 1726.2271,-441.4899 1716.7147,-436.8246 1715.8816,-443.7748"/>
</g>
<!-- flask&#45;&gt;hidebound.server.server_tools -->
<g id="edge53" class="edge">
<title>flask&#45;&gt;hidebound.server.server_tools</title>
<path fill="none" stroke="#de958e" d="M1575.0487,-419.2247C1603.0367,-420.033 1645.2539,-425.2201 1674,-446.8873 1701.3078,-467.4705 1685.9839,-490.5438 1710,-514.8873 1729.865,-535.0231 1756.7568,-550.9121 1780.7644,-562.4276"/>
<polygon fill="#de958e" stroke="#de958e" points="1779.6051,-565.748 1790.1493,-566.7819 1782.5512,-559.3982 1779.6051,-565.748"/>
</g>
<!-- flask_healthz -->
<g id="node27" class="node">
<title>flask_healthz</title>
<polygon fill="#343434" stroke="#343434" points="2175.5,-158.8873 2051.5,-158.8873 2051.5,-122.8873 2175.5,-122.8873 2175.5,-158.8873"/>
<text text-anchor="middle" x="2113.5" y="-137.1873" font-family="Courier,monospace" font-size="14.00" fill="#de958e">flask_healthz</text>
</g>
<!-- flask_healthz&#45;&gt;hidebound.server.app -->
<g id="edge54" class="edge">
<title>flask_healthz&#45;&gt;hidebound.server.app</title>
<path fill="none" stroke="#de958e" d="M2175.6277,-152.8441C2192.3488,-157.6025 2209.9562,-164.1038 2225,-172.8873 2269.2553,-198.7266 2309.4125,-243.463 2332.2457,-271.8226"/>
<polygon fill="#de958e" stroke="#de958e" points="2329.5371,-274.0401 2338.4883,-279.7083 2335.0255,-269.6952 2329.5371,-274.0401"/>
</g>
<!-- rolling_pin.blob_etl -->
<g id="node28" class="node">
<title>rolling_pin.blob_etl</title>
<polygon fill="#343434" stroke="#343434" points="1637,-226.8873 1455,-226.8873 1455,-190.8873 1637,-190.8873 1637,-226.8873"/>
<text text-anchor="middle" x="1546" y="-205.1873" font-family="Courier,monospace" font-size="14.00" fill="#de958e">rolling_pin.blob_etl</text>
</g>
<!-- rolling_pin.blob_etl&#45;&gt;hidebound.server.components -->
<g id="edge55" class="edge">
<title>rolling_pin.blob_etl&#45;&gt;hidebound.server.components</title>
<path fill="none" stroke="#de958e" d="M1637.1895,-216.3824C1659.6649,-218.2296 1684.1674,-220.2436 1708.0869,-222.2095"/>
<polygon fill="#de958e" stroke="#de958e" points="1708.0417,-225.7175 1718.2948,-223.0485 1708.6152,-218.7411 1708.0417,-225.7175"/>
</g>
<!-- flask_monitoringdashboard -->
<g id="node29" class="node">
<title>flask_monitoringdashboard</title>
<polygon fill="#343434" stroke="#343434" points="2225,-104.8873 2002,-104.8873 2002,-68.8873 2225,-68.8873 2225,-104.8873"/>
<text text-anchor="middle" x="2113.5" y="-83.1873" font-family="Courier,monospace" font-size="14.00" fill="#de958e">flask_monitoringdashboard</text>
</g>
<!-- flask_monitoringdashboard&#45;&gt;hidebound.server.app -->
<g id="edge56" class="edge">
<title>flask_monitoringdashboard&#45;&gt;hidebound.server.app</title>
<path fill="none" stroke="#de958e" d="M2209.2518,-104.9492C2214.7743,-107.5412 2220.0757,-110.5031 2225,-113.8873 2283.0697,-153.7962 2322.6441,-229.6275 2340.754,-270.3677"/>
<polygon fill="#de958e" stroke="#de958e" points="2337.6061,-271.9061 2344.7942,-279.6896 2344.0288,-269.1224 2337.6061,-271.9061"/>
</g>
<!-- json_logging -->
<g id="node30" class="node">
<title>json_logging</title>
<polygon fill="#343434" stroke="#343434" points="1271,-491.8873 1155,-491.8873 1155,-455.8873 1271,-455.8873 1271,-491.8873"/>
<text text-anchor="middle" x="1213" y="-470.1873" font-family="Courier,monospace" font-size="14.00" fill="#de958e">json_logging</text>
</g>
<!-- json_logging&#45;&gt;hidebound.core.logging -->
<g id="edge57" class="edge">
<title>json_logging&#45;&gt;hidebound.core.logging</title>
<path fill="none" stroke="#de958e" d="M1271.0042,-473.8873C1316.6141,-473.8873 1381.463,-473.8873 1436.7326,-473.8873"/>
<polygon fill="#de958e" stroke="#de958e" points="1436.9344,-477.3874 1446.9343,-473.8873 1436.9343,-470.3874 1436.9344,-477.3874"/>
</g>
<!-- requests -->
<g id="node31" class="node">
<title>requests</title>
<polygon fill="#343434" stroke="#343434" points="1587.5,-1228.8873 1504.5,-1228.8873 1504.5,-1192.8873 1587.5,-1192.8873 1587.5,-1228.8873"/>
<text text-anchor="middle" x="1546" y="-1207.1873" font-family="Courier,monospace" font-size="14.00" fill="#de958e">requests</text>
</g>
<!-- requests&#45;&gt;hidebound.core.database -->
<g id="edge58" class="edge">
<title>requests&#45;&gt;hidebound.core.database</title>
<path fill="none" stroke="#de958e" d="M1587.5264,-1203.2078C1624.7247,-1196.3287 1680.9238,-1185.9357 1730.6687,-1176.7363"/>
<polygon fill="#de958e" stroke="#de958e" points="1731.3273,-1180.1739 1740.5241,-1174.9137 1730.0543,-1173.2906 1731.3273,-1180.1739"/>
</g>
<!-- boto3 -->
<g id="node32" class="node">
<title>boto3</title>
<polygon fill="#343434" stroke="#343434" points="892.5,-1623.8873 834.5,-1623.8873 834.5,-1587.8873 892.5,-1587.8873 892.5,-1623.8873"/>
<text text-anchor="middle" x="863.5" y="-1602.1873" font-family="Courier,monospace" font-size="14.00" fill="#de958e">boto3</text>
</g>
<!-- boto3&#45;&gt;hidebound.exporters.s3_exporter -->
<g id="edge59" class="edge">
<title>boto3&#45;&gt;hidebound.exporters.s3_exporter</title>
<path fill="none" stroke="#de958e" d="M892.6673,-1602.1135C922.1265,-1597.9126 968.7624,-1590.1918 1008,-1578.8873 1062.9247,-1563.0633 1123.5436,-1538.1303 1164.5145,-1520.1046"/>
<polygon fill="#de958e" stroke="#de958e" points="1165.9946,-1523.277 1173.7191,-1516.0256 1163.1585,-1516.8773 1165.9946,-1523.277"/>
</g>
<!-- jinja2 -->
<g id="node33" class="node">
<title>jinja2</title>
<polygon fill="#343434" stroke="#343434" points="1579,-583.8873 1513,-583.8873 1513,-547.8873 1579,-547.8873 1579,-583.8873"/>
<text text-anchor="middle" x="1546" y="-562.1873" font-family="Courier,monospace" font-size="14.00" fill="#de958e">jinja2</text>
</g>
<!-- jinja2&#45;&gt;hidebound.server.server_tools -->
<g id="edge60" class="edge">
<title>jinja2&#45;&gt;hidebound.server.server_tools</title>
<path fill="none" stroke="#de958e" d="M1579.2118,-568.0484C1609.0205,-569.988 1654.8674,-572.9712 1699.737,-575.8908"/>
<polygon fill="#de958e" stroke="#de958e" points="1699.6872,-579.3948 1709.8934,-576.5516 1700.1418,-572.4096 1699.6872,-579.3948"/>
</g>
<!-- flasgger -->
<g id="node34" class="node">
<title>flasgger</title>
<polygon fill="#343434" stroke="#343434" points="1879.5,-342.8873 1796.5,-342.8873 1796.5,-306.8873 1879.5,-306.8873 1879.5,-342.8873"/>
<text text-anchor="middle" x="1838" y="-321.1873" font-family="Courier,monospace" font-size="14.00" fill="#de958e">flasgger</text>
</g>
<!-- flasgger&#45;&gt;hidebound.server.api -->
<g id="edge61" class="edge">
<title>flasgger&#45;&gt;hidebound.server.api</title>
<path fill="none" stroke="#de958e" d="M1874.7976,-342.9474C1900.8995,-356.2494 1936.4063,-375.3531 1966,-394.8873 2009.4916,-423.5953 2056.221,-461.7175 2085.1614,-486.2804"/>
<polygon fill="#de958e" stroke="#de958e" points="2082.9564,-488.9999 2092.8348,-492.8297 2087.5008,-483.6755 2082.9564,-488.9999"/>
</g>
<!-- flasgger&#45;&gt;hidebound.server.app -->
<g id="edge62" class="edge">
<title>flasgger&#45;&gt;hidebound.server.app</title>
<path fill="none" stroke="#de958e" d="M1879.6274,-322.7007C1959.7812,-318.4903 2137.6092,-309.1491 2250.7598,-303.2054"/>
<polygon fill="#de958e" stroke="#de958e" points="2251.021,-306.6966 2260.8236,-302.6768 2250.6537,-299.7062 2251.021,-306.6966"/>
</g>
<!-- girder_client -->
<g id="node35" class="node">
<title>girder_client</title>
<polygon fill="#343434" stroke="#343434" points="925.5,-1477.8873 801.5,-1477.8873 801.5,-1441.8873 925.5,-1441.8873 925.5,-1477.8873"/>
<text text-anchor="middle" x="863.5" y="-1456.1873" font-family="Courier,monospace" font-size="14.00" fill="#de958e">girder_client</text>
</g>
<!-- girder_client&#45;&gt;hidebound.exporters.girder_exporter -->
<g id="edge63" class="edge">
<title>girder_client&#45;&gt;hidebound.exporters.girder_exporter</title>
<path fill="none" stroke="#de958e" d="M925.5809,-1457.0453C960.5037,-1455.4465 1005.8921,-1453.3687 1050.2451,-1451.3382"/>
<polygon fill="#de958e" stroke="#de958e" points="1050.4562,-1454.8323 1060.2856,-1450.8785 1050.136,-1447.8396 1050.4562,-1454.8323"/>
</g>
<!-- pandasql -->
<g id="node36" class="node">
<title>pandasql</title>
<polygon fill="#343434" stroke="#343434" points="1587.5,-1174.8873 1504.5,-1174.8873 1504.5,-1138.8873 1587.5,-1138.8873 1587.5,-1174.8873"/>
<text text-anchor="middle" x="1546" y="-1153.1873" font-family="Courier,monospace" font-size="14.00" fill="#de958e">pandasql</text>
</g>
<!-- pandasql&#45;&gt;hidebound.core.database -->
<g id="edge64" class="edge">
<title>pandasql&#45;&gt;hidebound.core.database</title>
<path fill="none" stroke="#de958e" d="M1587.5264,-1156.8873C1623.2467,-1156.8873 1676.4879,-1156.8873 1724.7103,-1156.8873"/>
<polygon fill="#de958e" stroke="#de958e" points="1724.9162,-1160.3874 1734.9161,-1156.8873 1724.9161,-1153.3874 1724.9162,-1160.3874"/>
</g>
<!-- lunchbox.tools -->
<g id="node37" class="node">
<title>lunchbox.tools</title>
<polygon fill="#343434" stroke="#343434" points="1279,-583.8873 1147,-583.8873 1147,-547.8873 1279,-547.8873 1279,-583.8873"/>
<text text-anchor="middle" x="1213" y="-562.1873" font-family="Courier,monospace" font-size="14.00" fill="#de958e">lunchbox.tools</text>
</g>
<!-- lunchbox.tools&#45;&gt;hidebound.core.database_tools -->
<g id="edge65" class="edge">
<title>lunchbox.tools&#45;&gt;hidebound.core.database_tools</title>
<path fill="none" stroke="#de958e" d="M1279.0634,-566.2432C1312.3777,-569.2833 1351.9706,-577.5255 1382,-597.8873 1467.2204,-655.6721 1517.4596,-774.0379 1536.7963,-827.9843"/>
<polygon fill="#de958e" stroke="#de958e" points="1533.5465,-829.2942 1540.151,-837.5785 1540.1542,-826.9837 1533.5465,-829.2942"/>
</g>
<!-- lunchbox.tools&#45;&gt;hidebound.server.server_tools -->
<g id="edge66" class="edge">
<title>lunchbox.tools&#45;&gt;hidebound.server.server_tools</title>
<path fill="none" stroke="#de958e" d="M1279.2555,-576.8519C1319.2966,-582.919 1371.4331,-589.8339 1418,-592.8873 1531.534,-600.3318 1560.256,-595.6599 1674,-592.8873 1682.3979,-592.6826 1691.0355,-592.419 1699.7464,-592.1128"/>
<polygon fill="#de958e" stroke="#de958e" points="1700.1318,-595.6011 1709.9959,-591.7348 1699.8737,-588.6059 1700.1318,-595.6011"/>
</g>
<!-- hidebound.exporters -->
<g id="node38" class="node">
<title>hidebound.exporters</title>
<polygon fill="#343434" stroke="#343434" points="674.5,-1523.8873 501.5,-1523.8873 501.5,-1487.8873 674.5,-1487.8873 674.5,-1523.8873"/>
<text text-anchor="middle" x="588" y="-1502.1873" font-family="Courier,monospace" font-size="14.00" fill="#a0d17b">hidebound.exporters</text>
</g>
<!-- hidebound.exporters&#45;&gt;hidebound.exporters.exporter_base -->
<g id="edge67" class="edge">
<title>hidebound.exporters&#45;&gt;hidebound.exporters.exporter_base</title>
<path fill="none" stroke="#a0d17b" d="M674.7918,-1520.3789C697.1491,-1524.1119 721.5912,-1528.1929 745.2501,-1532.1432"/>
<polygon fill="#a0d17b" stroke="#a0d17b" points="744.8934,-1535.6321 755.3333,-1533.8268 746.0463,-1528.7276 744.8934,-1535.6321"/>
</g>
<!-- hidebound.exporters&#45;&gt;hidebound.exporters.girder_exporter -->
<g id="edge68" class="edge">
<title>hidebound.exporters&#45;&gt;hidebound.exporters.girder_exporter</title>
<path fill="none" stroke="#a0d17b" d="M674.552,-1511.2503C760.3837,-1514.414 895.0457,-1513.5394 1008,-1486.8873 1025.0411,-1482.8664 1027.2137,-1475.866 1044,-1470.8873 1052.2787,-1468.432 1060.8558,-1466.1861 1069.5568,-1464.1338"/>
<polygon fill="#a0d17b" stroke="#a0d17b" points="1070.4446,-1467.5215 1079.424,-1461.8982 1068.8977,-1460.6945 1070.4446,-1467.5215"/>
</g>
<!-- hidebound.exporters&#45;&gt;hidebound.exporters.local_disk_exporter -->
<g id="edge69" class="edge">
<title>hidebound.exporters&#45;&gt;hidebound.exporters.local_disk_exporter</title>
<path fill="none" stroke="#a0d17b" d="M600.2503,-1487.4178C620.8055,-1458.2347 665.3083,-1402.3671 719,-1378.8873 773.9609,-1354.8525 916.0111,-1349.0076 1033.753,-1348.6581"/>
<polygon fill="#a0d17b" stroke="#a0d17b" points="1033.9892,-1352.1578 1043.9834,-1348.6412 1033.9776,-1345.1578 1033.9892,-1352.1578"/>
</g>
<!-- hidebound.exporters&#45;&gt;hidebound.exporters.s3_exporter -->
<g id="edge70" class="edge">
<title>hidebound.exporters&#45;&gt;hidebound.exporters.s3_exporter</title>
<path fill="none" stroke="#a0d17b" d="M599.779,-1524.2185C619.9833,-1553.7457 664.3938,-1610.763 719,-1632.8873 838.0446,-1681.1196 884.9622,-1669.7611 1008,-1632.8873 1079.7262,-1611.3914 1149.5674,-1555.8046 1186.3206,-1523.0518"/>
<polygon fill="#a0d17b" stroke="#a0d17b" points="1189.0085,-1525.3401 1194.0783,-1516.037 1184.3135,-1520.148 1189.0085,-1525.3401"/>
</g>
<!-- numpy -->
<g id="node39" class="node">
<title>numpy</title>
<polygon fill="#343434" stroke="#343434" points="1242,-957.8873 1184,-957.8873 1184,-921.8873 1242,-921.8873 1242,-957.8873"/>
<text text-anchor="middle" x="1213" y="-936.1873" font-family="Courier,monospace" font-size="14.00" fill="#de958e">numpy</text>
</g>
<!-- numpy&#45;&gt;hidebound.core.database -->
<g id="edge71" class="edge">
<title>numpy&#45;&gt;hidebound.core.database</title>
<path fill="none" stroke="#de958e" d="M1242.1946,-934.6761C1318.0759,-922.5992 1525.9007,-898.9906 1674,-971.8873 1745.0659,-1006.867 1798.8965,-1087.5512 1823.4109,-1129.8684"/>
<polygon fill="#de958e" stroke="#de958e" points="1820.4855,-1131.8049 1828.4648,-1138.7751 1826.5737,-1128.3503 1820.4855,-1131.8049"/>
</g>
<!-- numpy&#45;&gt;hidebound.core.database_tools -->
<g id="edge72" class="edge">
<title>numpy&#45;&gt;hidebound.core.database_tools</title>
<path fill="none" stroke="#de958e" d="M1242.0244,-936.8651C1276.1925,-932.7465 1334.3235,-923.9726 1382,-907.8873 1398.9499,-902.1687 1401.2685,-896.2164 1418,-889.8873 1430.7194,-885.0759 1444.3938,-880.6729 1457.9029,-876.7464"/>
<polygon fill="#de958e" stroke="#de958e" points="1459.0271,-880.0657 1467.6945,-873.9724 1457.1191,-873.3307 1459.0271,-880.0657"/>
</g>
<!-- numpy&#45;&gt;hidebound.server.api -->
<g id="edge73" class="edge">
<title>numpy&#45;&gt;hidebound.server.api</title>
<path fill="none" stroke="#de958e" d="M1242.127,-936.7502C1340.3022,-926.1156 1654.0774,-891.6107 1674,-882.8873 1864.0682,-799.6636 2034.8446,-606.8478 2092.6651,-536.8623"/>
<polygon fill="#de958e" stroke="#de958e" points="2095.5168,-538.9044 2099.1501,-528.952 2090.1034,-534.4664 2095.5168,-538.9044"/>
</g>
<!-- jsoncomment -->
<g id="node40" class="node">
<title>jsoncomment</title>
<polygon fill="#343434" stroke="#343434" points="641.5,-1707.8873 534.5,-1707.8873 534.5,-1671.8873 641.5,-1671.8873 641.5,-1707.8873"/>
<text text-anchor="middle" x="588" y="-1686.1873" font-family="Courier,monospace" font-size="14.00" fill="#de958e">jsoncomment</text>
</g>
<!-- jsoncomment&#45;&gt;hidebound.core.database -->
<g id="edge74" class="edge">
<title>jsoncomment&#45;&gt;hidebound.core.database</title>
<path fill="none" stroke="#de958e" d="M633.6359,-1707.9803C794.9432,-1768.669 1346.1249,-1947.8792 1674,-1703.8873 1760.8034,-1639.2916 1818.8097,-1287.1848 1834.0205,-1184.8134"/>
<polygon fill="#de958e" stroke="#de958e" points="1837.4852,-1185.3092 1835.474,-1174.907 1830.5593,-1184.2929 1837.4852,-1185.3092"/>
</g>
<!-- jsoncomment&#45;&gt;hidebound.exporters.exporter_base -->
<g id="edge75" class="edge">
<title>jsoncomment&#45;&gt;hidebound.exporters.exporter_base</title>
<path fill="none" stroke="#de958e" d="M603.7272,-1671.5984C626.4655,-1646.4357 671.0798,-1601.6719 719,-1578.8873 723.1307,-1576.9233 727.3912,-1575.102 731.7432,-1573.4129"/>
<polygon fill="#de958e" stroke="#de958e" points="733.1863,-1576.613 741.4015,-1569.9226 730.8072,-1570.0297 733.1863,-1576.613"/>
</g>
<!-- jsoncomment&#45;&gt;hidebound.server.server_tools -->
<g id="edge76" class="edge">
<title>jsoncomment&#45;&gt;hidebound.server.server_tools</title>
<path fill="none" stroke="#de958e" d="M641.7118,-1692.5409C826.6713,-1698.3332 1438.7209,-1688.9618 1674,-1329.8873 1723.4998,-1254.3426 1691.6685,-1218.3248 1710,-1129.8873 1751.2512,-930.8769 1810.5164,-693.3462 1830.8425,-613.0108"/>
<polygon fill="#de958e" stroke="#de958e" points="1834.2754,-613.7119 1833.3396,-603.1584 1827.4899,-611.992 1834.2754,-613.7119"/>
</g>
<!-- hidebound -->
<g id="node41" class="node">
<title>hidebound</title>
<polygon fill="#343434" stroke="#343434" points="190,-995.8873 99,-995.8873 99,-959.8873 190,-959.8873 190,-995.8873"/>
<text text-anchor="middle" x="144.5" y="-974.1873" font-family="Courier,monospace" font-size="14.00" fill="#a0d17b">hidebound</text>
</g>
<!-- hidebound&#45;&gt;hidebound.server -->
<g id="edge77" class="edge">
<title>hidebound&#45;&gt;hidebound.server</title>
<path fill="none" stroke="#a0d17b" d="M190.2944,-979.821C221.1626,-978.7999 261.1749,-972.6851 289,-950.8873 518.8584,-770.8191 296.0078,-365.8873 588,-365.8873 588,-365.8873 588,-365.8873 863.5,-365.8873 1078.6564,-365.8873 1331.9657,-365.8873 1461.0551,-365.8873"/>
<polygon fill="#a0d17b" stroke="#a0d17b" points="1461.2663,-369.3874 1471.2663,-365.8873 1461.2662,-362.3874 1461.2663,-369.3874"/>
</g>
<!-- hidebound&#45;&gt;hidebound.exporters -->
<g id="edge78" class="edge">
<title>hidebound&#45;&gt;hidebound.exporters</title>
<path fill="none" stroke="#a0d17b" d="M190.3048,-973.3538C222.6249,-972.8851 264.393,-978.2825 289,-1004.8873 339.9892,-1060.0164 285.1994,-1277.2083 325,-1340.8873 370.4222,-1413.5606 460.8703,-1459.6087 522.8951,-1484.0716"/>
<polygon fill="#a0d17b" stroke="#a0d17b" points="522.0048,-1487.4795 532.5944,-1487.8132 524.5242,-1480.9486 522.0048,-1487.4795"/>
</g>
<!-- hidebound.core -->
<g id="node48" class="node">
<title>hidebound.core</title>
<polygon fill="#343434" stroke="#343434" points="457,-995.8873 325,-995.8873 325,-959.8873 457,-959.8873 457,-995.8873"/>
<text text-anchor="middle" x="391" y="-974.1873" font-family="Courier,monospace" font-size="14.00" fill="#a0d17b">hidebound.core</text>
</g>
<!-- hidebound&#45;&gt;hidebound.core -->
<g id="edge79" class="edge">
<title>hidebound&#45;&gt;hidebound.core</title>
<path fill="none" stroke="#a0d17b" d="M190.2871,-977.8873C225.0707,-977.8873 273.6972,-977.8873 314.3758,-977.8873"/>
<polygon fill="#a0d17b" stroke="#a0d17b" points="314.5334,-981.3874 324.5333,-977.8873 314.5333,-974.3874 314.5334,-981.3874"/>
</g>
<!-- schematics -->
<g id="node42" class="node">
<title>schematics</title>
<polygon fill="#343434" stroke="#343434" points="913,-1423.8873 814,-1423.8873 814,-1387.8873 913,-1387.8873 913,-1423.8873"/>
<text text-anchor="middle" x="863.5" y="-1402.1873" font-family="Courier,monospace" font-size="14.00" fill="#de958e">schematics</text>
</g>
<!-- schematics&#45;&gt;hidebound.core.config -->
<g id="edge80" class="edge">
<title>schematics&#45;&gt;hidebound.core.config</title>
<path fill="none" stroke="#de958e" d="M913.0188,-1409.4763C1006.3521,-1414.8953 1214.0167,-1420.5284 1382,-1378.8873 1427.049,-1367.7202 1474.7849,-1344.0892 1507.0666,-1326.1233"/>
<polygon fill="#de958e" stroke="#de958e" points="1509.1732,-1328.9531 1516.1572,-1320.986 1505.7292,-1322.8589 1509.1732,-1328.9531"/>
</g>
<!-- schematics&#45;&gt;hidebound.core.specification_base -->
<g id="edge81" class="edge">
<title>schematics&#45;&gt;hidebound.core.specification_base</title>
<path fill="none" stroke="#de958e" d="M910.7485,-1387.8751C939.6612,-1376.0713 976.9395,-1359.4275 1008,-1340.8873 1075.5608,-1300.56 1146.8431,-1241.731 1184.9864,-1208.7263"/>
<polygon fill="#de958e" stroke="#de958e" points="1187.3643,-1211.2967 1192.6095,-1202.0914 1182.7686,-1206.0166 1187.3643,-1211.2967"/>
</g>
<!-- schematics&#45;&gt;hidebound.exporters.girder_exporter -->
<g id="edge82" class="edge">
<title>schematics&#45;&gt;hidebound.exporters.girder_exporter</title>
<path fill="none" stroke="#de958e" d="M913.2037,-1411.2914C949.2594,-1415.2117 1000.2297,-1420.7535 1049.9338,-1426.1577"/>
<polygon fill="#de958e" stroke="#de958e" points="1049.8636,-1429.6706 1060.1834,-1427.2721 1050.6203,-1422.7116 1049.8636,-1429.6706"/>
</g>
<!-- schematics&#45;&gt;hidebound.exporters.local_disk_exporter -->
<g id="edge83" class="edge">
<title>schematics&#45;&gt;hidebound.exporters.local_disk_exporter</title>
<path fill="none" stroke="#de958e" d="M913.2037,-1398.2078C958.1908,-1391.257 1026.3965,-1380.7188 1086.3913,-1371.4492"/>
<polygon fill="#de958e" stroke="#de958e" points="1086.981,-1374.8997 1096.3293,-1369.9137 1085.9121,-1367.9818 1086.981,-1374.8997"/>
</g>
<!-- schematics&#45;&gt;hidebound.exporters.s3_exporter -->
<g id="edge84" class="edge">
<title>schematics&#45;&gt;hidebound.exporters.s3_exporter</title>
<path fill="none" stroke="#de958e" d="M913.2174,-1407.5737C942.3371,-1410.36 978.9736,-1417.084 1008,-1432.8873 1028.4324,-1444.0117 1023.4231,-1460.0326 1044,-1470.8873 1051.3666,-1474.7734 1059.1462,-1478.1321 1067.16,-1481.0324"/>
<polygon fill="#de958e" stroke="#de958e" points="1066.0704,-1484.3586 1076.6645,-1484.2307 1068.303,-1477.7241 1066.0704,-1484.3586"/>
</g>
<!-- schematics.types -->
<g id="node43" class="node">
<title>schematics.types</title>
<polygon fill="#343434" stroke="#343434" points="938,-1331.8873 789,-1331.8873 789,-1295.8873 938,-1295.8873 938,-1331.8873"/>
<text text-anchor="middle" x="863.5" y="-1310.1873" font-family="Courier,monospace" font-size="14.00" fill="#de958e">schematics.types</text>
</g>
<!-- schematics.types&#45;&gt;hidebound.core.config -->
<g id="edge85" class="edge">
<title>schematics.types&#45;&gt;hidebound.core.config</title>
<path fill="none" stroke="#de958e" d="M938.1649,-1312.6839C1059.8961,-1310.722 1301.4776,-1306.8284 1440.6238,-1304.5857"/>
<polygon fill="#de958e" stroke="#de958e" points="1440.9321,-1308.0813 1450.8743,-1304.4205 1440.8192,-1301.0822 1440.9321,-1308.0813"/>
</g>
<!-- schematics.types&#45;&gt;hidebound.core.specification_base -->
<g id="edge86" class="edge">
<title>schematics.types&#45;&gt;hidebound.core.specification_base</title>
<path fill="none" stroke="#de958e" d="M938.3441,-1303.8541C961.3916,-1299.0578 986.3749,-1292.0545 1008,-1281.8873 1026.3435,-1273.263 1026.4791,-1264.0795 1044,-1253.8873 1077.3544,-1234.4846 1117.1182,-1217.7309 1149.6933,-1205.4826"/>
<polygon fill="#de958e" stroke="#de958e" points="1150.9572,-1208.7469 1159.1168,-1201.9888 1148.5238,-1202.1834 1150.9572,-1208.7469"/>
</g>
<!-- schematics.types&#45;&gt;hidebound.core.specifications -->
<g id="edge87" class="edge">
<title>schematics.types&#45;&gt;hidebound.core.specifications</title>
<path fill="none" stroke="#de958e" d="M938.0376,-1307.494C1064.5881,-1295.293 1314.3439,-1264.9671 1382,-1210.8873 1412.7727,-1186.2897 1387.3729,-1154.666 1418,-1129.8873 1419.556,-1128.6285 1421.1565,-1127.4243 1422.7966,-1126.2726"/>
<polygon fill="#de958e" stroke="#de958e" points="1424.6905,-1129.2162 1431.3051,-1120.9399 1420.973,-1123.2849 1424.6905,-1129.2162"/>
</g>
<!-- schematics.types&#45;&gt;hidebound.exporters.girder_exporter -->
<g id="edge88" class="edge">
<title>schematics.types&#45;&gt;hidebound.exporters.girder_exporter</title>
<path fill="none" stroke="#de958e" d="M912.0965,-1331.9633C975.6501,-1355.6027 1086.8706,-1396.9723 1154.833,-1422.2515"/>
<polygon fill="#de958e" stroke="#de958e" points="1153.9427,-1425.6546 1164.5355,-1425.8605 1156.3831,-1419.0938 1153.9427,-1425.6546"/>
</g>
<!-- schematics.types&#45;&gt;hidebound.exporters.local_disk_exporter -->
<g id="edge89" class="edge">
<title>schematics.types&#45;&gt;hidebound.exporters.local_disk_exporter</title>
<path fill="none" stroke="#de958e" d="M938.0478,-1321.9927C967.2423,-1325.1669 1002.0724,-1328.9539 1036.9705,-1332.7482"/>
<polygon fill="#de958e" stroke="#de958e" points="1036.982,-1336.27 1047.3017,-1333.8715 1037.7387,-1329.311 1036.982,-1336.27"/>
</g>
<!-- schematics.types&#45;&gt;hidebound.exporters.s3_exporter -->
<g id="edge90" class="edge">
<title>schematics.types&#45;&gt;hidebound.exporters.s3_exporter</title>
<path fill="none" stroke="#de958e" d="M930.9057,-1331.945C957.7989,-1342.0193 987.2371,-1357.0655 1008,-1378.8873 1038.2662,-1410.6971 1009.8065,-1443.3427 1044,-1470.8873 1051.2218,-1476.7049 1059.1947,-1481.5052 1067.6281,-1485.4499"/>
<polygon fill="#de958e" stroke="#de958e" points="1066.3735,-1488.7195 1076.9464,-1489.4021 1069.1069,-1482.2752 1066.3735,-1488.7195"/>
</g>
<!-- wrapt -->
<g id="node44" class="node">
<title>wrapt</title>
<polygon fill="#343434" stroke="#343434" points="617,-1285.8873 559,-1285.8873 559,-1249.8873 617,-1249.8873 617,-1285.8873"/>
<text text-anchor="middle" x="588" y="-1264.1873" font-family="Courier,monospace" font-size="14.00" fill="#de958e">wrapt</text>
</g>
<!-- wrapt&#45;&gt;hidebound.core.validators -->
<g id="edge91" class="edge">
<title>wrapt&#45;&gt;hidebound.core.validators</title>
<path fill="none" stroke="#de958e" d="M617.2225,-1263.0081C647.9281,-1257.8812 698.2266,-1249.4829 745.3895,-1241.6081"/>
<polygon fill="#de958e" stroke="#de958e" points="746.1107,-1245.0363 755.3977,-1239.9371 744.9578,-1238.1318 746.1107,-1245.0363"/>
</g>
<!-- pyparsing -->
<g id="node45" class="node">
<title>pyparsing</title>
<polygon fill="#343434" stroke="#343434" points="436.5,-1331.8873 345.5,-1331.8873 345.5,-1295.8873 436.5,-1295.8873 436.5,-1331.8873"/>
<text text-anchor="middle" x="391" y="-1310.1873" font-family="Courier,monospace" font-size="14.00" fill="#de958e">pyparsing</text>
</g>
<!-- pyparsing&#45;&gt;hidebound.core.parser -->
<g id="edge92" class="edge">
<title>pyparsing&#45;&gt;hidebound.core.parser</title>
<path fill="none" stroke="#de958e" d="M416.0456,-1295.739C436.6295,-1280.8777 466.595,-1259.3664 493,-1240.8873 512.6987,-1227.1016 534.8646,-1211.9169 552.8279,-1199.6931"/>
<polygon fill="#de958e" stroke="#de958e" points="554.976,-1202.4651 561.2794,-1193.9493 551.0413,-1196.6755 554.976,-1202.4651"/>
</g>
<!-- pyparsing&#45;&gt;hidebound.core.specification_base -->
<g id="edge93" class="edge">
<title>pyparsing&#45;&gt;hidebound.core.specification_base</title>
<path fill="none" stroke="#de958e" d="M436.6583,-1326.8759C496.0151,-1341.2624 601.6916,-1358.2207 683,-1323.8873 704.1367,-1314.9621 698.4914,-1297.1742 719,-1286.8873 834.7994,-1228.8038 894.0896,-1310.5934 1008,-1248.8873 1029.6174,-1237.177 1022.4091,-1218.6465 1044,-1206.8873 1048.6746,-1204.3413 1053.5261,-1202.0395 1058.5065,-1199.9601"/>
<polygon fill="#de958e" stroke="#de958e" points="1060.1476,-1203.0793 1068.2305,-1196.2297 1057.6403,-1196.5437 1060.1476,-1203.0793"/>
</g>
<!-- pyparsing&#45;&gt;hidebound.core.validators -->
<g id="edge94" class="edge">
<title>pyparsing&#45;&gt;hidebound.core.validators</title>
<path fill="none" stroke="#de958e" d="M436.5029,-1321.2131C496.384,-1328.6372 603.3582,-1334.1089 683,-1294.8873 704.7547,-1284.1737 698.1275,-1266.2318 719,-1253.8873 726.3122,-1249.5628 734.1458,-1245.8215 742.2443,-1242.5849"/>
<polygon fill="#de958e" stroke="#de958e" points="743.7029,-1245.7768 751.8575,-1239.0127 741.2646,-1239.2152 743.7029,-1245.7768"/>
</g>
<!-- pandas -->
<g id="node46" class="node">
<title>pandas</title>
<polygon fill="#343434" stroke="#343434" points="621,-697.8873 555,-697.8873 555,-661.8873 621,-661.8873 621,-697.8873"/>
<text text-anchor="middle" x="588" y="-676.1873" font-family="Courier,monospace" font-size="14.00" fill="#de958e">pandas</text>
</g>
<!-- pandas&#45;&gt;hidebound.core.database -->
<g id="edge95" class="edge">
<title>pandas&#45;&gt;hidebound.core.database</title>
<path fill="none" stroke="#de958e" d="M621.2626,-673.2014C731.7461,-652.2868 1095.7188,-593.7854 1382,-667.8873 1525.4691,-705.0233 1571.3384,-722.0086 1674,-828.8873 1761.7609,-920.2534 1812.1766,-1067.7572 1830.2793,-1128.9245"/>
<polygon fill="#de958e" stroke="#de958e" points="1826.9515,-1130.016 1833.0977,-1138.6459 1833.6747,-1128.0668 1826.9515,-1130.016"/>
</g>
<!-- pandas&#45;&gt;hidebound.core.database_tools -->
<g id="edge96" class="edge">
<title>pandas&#45;&gt;hidebound.core.database_tools</title>
<path fill="none" stroke="#de958e" d="M621.4237,-678.3047C753.7742,-672.4837 1240.7737,-655.4114 1382,-711.8873 1443.7846,-736.5948 1497.979,-795.1701 1525.921,-829.5189"/>
<polygon fill="#de958e" stroke="#de958e" points="1523.4735,-832.0631 1532.4479,-837.6943 1528.9439,-827.6957 1523.4735,-832.0631"/>
</g>
<!-- pandas&#45;&gt;hidebound.core.tools -->
<g id="edge97" class="edge">
<title>pandas&#45;&gt;hidebound.core.tools</title>
<path fill="none" stroke="#de958e" d="M599.5919,-697.9472C629.9743,-745.1711 710.1844,-869.0866 719,-874.8873 731.9416,-883.4031 746.8705,-889.3984 762.1166,-893.5898"/>
<polygon fill="#de958e" stroke="#de958e" points="761.614,-897.0715 772.1635,-896.092 763.3058,-890.279 761.614,-897.0715"/>
</g>
<!-- pandas&#45;&gt;hidebound.core.validators -->
<g id="edge98" class="edge">
<title>pandas&#45;&gt;hidebound.core.validators</title>
<path fill="none" stroke="#de958e" d="M601.3803,-697.9267C621.1657,-725.1999 658.5188,-779.047 683,-828.8873 703.8256,-871.2855 700.5241,-885.4138 719,-928.8873 761.5158,-1028.9264 821.3585,-1143.3911 848.7578,-1194.6166"/>
<polygon fill="#de958e" stroke="#de958e" points="845.8257,-1196.5549 853.6377,-1203.712 851.994,-1193.2455 845.8257,-1196.5549"/>
</g>
<!-- pandas&#45;&gt;hidebound.server.components -->
<g id="edge99" class="edge">
<title>pandas&#45;&gt;hidebound.server.components</title>
<path fill="none" stroke="#de958e" d="M615.0091,-661.5955C641.0916,-644.2663 681.9737,-617.9763 719,-597.8873 1010.2066,-439.8903 1095.8085,-416.0687 1418,-338.8873 1530.6559,-311.9005 1565.1051,-329.4038 1674,-289.8873 1691.2055,-283.6437 1693.1008,-276.9179 1710,-269.8873 1724.2786,-263.947 1739.8292,-258.586 1755.0136,-253.9067"/>
<polygon fill="#de958e" stroke="#de958e" points="1756.3513,-257.1595 1764.9219,-250.931 1754.3378,-250.4553 1756.3513,-257.1595"/>
</g>
<!-- schematics.exceptions -->
<g id="node47" class="node">
<title>schematics.exceptions</title>
<polygon fill="#343434" stroke="#343434" points="683,-965.8873 493,-965.8873 493,-929.8873 683,-929.8873 683,-965.8873"/>
<text text-anchor="middle" x="588" y="-944.1873" font-family="Courier,monospace" font-size="14.00" fill="#de958e">schematics.exceptions</text>
</g>
<!-- schematics.exceptions&#45;&gt;hidebound.core.config -->
<g id="edge100" class="edge">
<title>schematics.exceptions&#45;&gt;hidebound.core.config</title>
<path fill="none" stroke="#de958e" d="M683.2511,-952.1921C769.0407,-957.513 898.1621,-969.1167 1008,-993.8873 1093.8331,-1013.2444 1320.6802,-1060.785 1382,-1123.8873 1419.0286,-1161.9923 1383.6329,-1197.3656 1418,-1237.8873 1433.9394,-1256.6812 1456.6605,-1270.6539 1478.5469,-1280.726"/>
<polygon fill="#de958e" stroke="#de958e" points="1477.2897,-1283.9963 1487.8536,-1284.8064 1480.1006,-1277.5855 1477.2897,-1283.9963"/>
</g>
<!-- schematics.exceptions&#45;&gt;hidebound.core.database_tools -->
<g id="edge101" class="edge">
<title>schematics.exceptions&#45;&gt;hidebound.core.database_tools</title>
<path fill="none" stroke="#de958e" d="M621.9915,-929.7156C641.4723,-918.1352 665.4578,-901.7779 683,-882.8873 704.6825,-859.5383 692.3569,-838.3645 719,-820.8873 965.7912,-658.9991 1093.2967,-721.535 1382,-782.8873 1426.9483,-792.4393 1474.5233,-815.2043 1506.7886,-832.7934"/>
<polygon fill="#de958e" stroke="#de958e" points="1505.4359,-836.0454 1515.8788,-837.8332 1508.8301,-829.9233 1505.4359,-836.0454"/>
</g>
<!-- schematics.exceptions&#45;&gt;hidebound.core.specification_base -->
<g id="edge102" class="edge">
<title>schematics.exceptions&#45;&gt;hidebound.core.specification_base</title>
<path fill="none" stroke="#de958e" d="M635.7469,-965.9166C748.9638,-1008.6673 1033.3489,-1116.0511 1155.6357,-1162.2266"/>
<polygon fill="#de958e" stroke="#de958e" points="1154.6158,-1165.5826 1165.2075,-1165.8409 1157.0886,-1159.0339 1154.6158,-1165.5826"/>
</g>
<!-- schematics.exceptions&#45;&gt;hidebound.core.tools -->
<g id="edge103" class="edge">
<title>schematics.exceptions&#45;&gt;hidebound.core.tools</title>
<path fill="none" stroke="#de958e" d="M683.1972,-931.9923C708.736,-927.7281 736.4386,-923.1027 762.2905,-918.7862"/>
<polygon fill="#de958e" stroke="#de958e" points="763.1912,-922.1843 772.4782,-917.0852 762.0383,-915.2799 763.1912,-922.1843"/>
</g>
<!-- schematics.exceptions&#45;&gt;hidebound.core.validators -->
<g id="edge104" class="edge">
<title>schematics.exceptions&#45;&gt;hidebound.core.validators</title>
<path fill="none" stroke="#de958e" d="M606.5041,-966.2907C654.4381,-1013.9637 782.7356,-1141.5627 837.8075,-1196.3347"/>
<polygon fill="#de958e" stroke="#de958e" points="835.5179,-1198.9939 845.0764,-1203.5641 840.4542,-1194.0307 835.5179,-1198.9939"/>
</g>
<!-- schematics.exceptions&#45;&gt;hidebound.server.api -->
<g id="edge105" class="edge">
<title>schematics.exceptions&#45;&gt;hidebound.server.api</title>
<path fill="none" stroke="#de958e" d="M627.6827,-929.7523C647.2175,-918.8537 669.4292,-903.142 683,-882.8873 725.7465,-819.0875 672.9304,-775.3305 719,-713.8873 817.4147,-582.6313 885.3912,-580.8018 1044,-538.8873 1143.0701,-512.7068 1863.5921,-521.4831 1966,-517.8873 1980.922,-517.3634 1996.6889,-516.7155 2012.1438,-516.0273"/>
<polygon fill="#de958e" stroke="#de958e" points="2012.4115,-519.5188 2022.2429,-515.57 2012.0948,-512.526 2012.4115,-519.5188"/>
</g>
<!-- hidebound.core&#45;&gt;hidebound.core.config -->
<g id="edge106" class="edge">
<title>hidebound.core&#45;&gt;hidebound.core.config</title>
<path fill="none" stroke="#a0d17b" d="M405.3409,-996.0985C423.2964,-1017.413 456.2019,-1051.8334 493,-1067.8873 674.9786,-1147.2796 1221.1256,-1040.531 1382,-1156.8873 1413.9211,-1179.975 1390.8719,-1209.3205 1418,-1237.8873 1435.5731,-1256.3924 1459.5658,-1270.493 1482.0314,-1280.752"/>
<polygon fill="#a0d17b" stroke="#a0d17b" points="1480.6456,-1283.966 1491.2095,-1284.7751 1483.4559,-1277.5549 1480.6456,-1283.966"/>
</g>
<!-- hidebound.core&#45;&gt;hidebound.core.database -->
<g id="edge107" class="edge">
<title>hidebound.core&#45;&gt;hidebound.core.database</title>
<path fill="none" stroke="#a0d17b" d="M457.104,-981.4572C702.9205,-994.9348 1556.1774,-1043.5963 1674,-1075.8873 1720.3306,-1088.5849 1769.1732,-1114.5606 1801.3805,-1133.6877"/>
<polygon fill="#a0d17b" stroke="#a0d17b" points="1799.6356,-1136.7225 1810.0076,-1138.8841 1803.2474,-1130.7262 1799.6356,-1136.7225"/>
</g>
<!-- hidebound.core&#45;&gt;hidebound.core.database_tools -->
<g id="edge108" class="edge">
<title>hidebound.core&#45;&gt;hidebound.core.database_tools</title>
<path fill="none" stroke="#a0d17b" d="M393.8503,-959.7687C404.1247,-897.0236 441.3997,-690.7747 493,-652.8873 522.2347,-631.4218 1224.7673,-594.3515 1382,-667.8873 1454.9205,-701.9913 1508.4032,-785.6717 1532.2354,-828.9644"/>
<polygon fill="#a0d17b" stroke="#a0d17b" points="1529.1746,-830.6625 1536.9986,-837.8064 1535.3373,-827.3426 1529.1746,-830.6625"/>
</g>
<!-- hidebound.core&#45;&gt;hidebound.core.logging -->
<g id="edge109" class="edge">
<title>hidebound.core&#45;&gt;hidebound.core.logging</title>
<path fill="none" stroke="#a0d17b" d="M394.0675,-959.4858C405.2129,-894.6609 445.4169,-678.15 493,-628.8873 748.1403,-364.7413 1241.7856,-417.3128 1449.8328,-454.0408"/>
<polygon fill="#a0d17b" stroke="#a0d17b" points="1449.3618,-457.5121 1459.8224,-455.8311 1450.5967,-450.6219 1449.3618,-457.5121"/>
</g>
<!-- hidebound.core&#45;&gt;hidebound.core.parser -->
<g id="edge110" class="edge">
<title>hidebound.core&#45;&gt;hidebound.core.parser</title>
<path fill="none" stroke="#a0d17b" d="M397.311,-995.9753C410.0538,-1029.9063 442.0581,-1103.3324 493,-1143.8873 497.34,-1147.3424 502.0721,-1150.4332 507.0313,-1153.1969"/>
<polygon fill="#a0d17b" stroke="#a0d17b" points="505.6652,-1156.4284 516.1675,-1157.8262 508.8292,-1150.1842 505.6652,-1156.4284"/>
</g>
<!-- hidebound.core&#45;&gt;hidebound.core.specification_base -->
<g id="edge111" class="edge">
<title>hidebound.core&#45;&gt;hidebound.core.specification_base</title>
<path fill="none" stroke="#a0d17b" d="M399.5571,-996.1162C414.1844,-1024.9871 446.9417,-1080.5496 493,-1105.8873 541.2859,-1132.4505 861.146,-1159.2147 1057.9462,-1173.4452"/>
<polygon fill="#a0d17b" stroke="#a0d17b" points="1057.8723,-1176.9488 1068.0978,-1174.176 1058.375,-1169.9669 1057.8723,-1176.9488"/>
</g>
<!-- hidebound.core&#45;&gt;hidebound.core.specifications -->
<g id="edge112" class="edge">
<title>hidebound.core&#45;&gt;hidebound.core.specifications</title>
<path fill="none" stroke="#a0d17b" d="M393.3967,-959.7446C400.1305,-916.8813 423.5031,-809.4632 493,-762.8873 575.0753,-707.8816 1303.6626,-722.6774 1382,-782.8873 1419.4524,-811.6732 1398.0404,-840.0747 1418,-882.8873 1451.8496,-955.4938 1501.9482,-1035.5943 1528.3067,-1076.1633"/>
<polygon fill="#a0d17b" stroke="#a0d17b" points="1525.4637,-1078.211 1533.8625,-1084.6694 1531.3243,-1074.3831 1525.4637,-1078.211"/>
</g>
<!-- hidebound.core&#45;&gt;hidebound.core.tools -->
<g id="edge113" class="edge">
<title>hidebound.core&#45;&gt;hidebound.core.tools</title>
<path fill="none" stroke="#a0d17b" d="M415.9576,-959.623C435.7653,-946.2332 464.7345,-929.0279 493,-920.8873 581.4042,-895.4266 686.4995,-892.4629 762.1384,-894.8177"/>
<polygon fill="#a0d17b" stroke="#a0d17b" points="762.0286,-898.3159 772.1441,-895.1655 762.2718,-891.3201 762.0286,-898.3159"/>
</g>
<!-- hidebound.core&#45;&gt;hidebound.core.traits -->
<g id="edge114" class="edge">
<title>hidebound.core&#45;&gt;hidebound.core.traits</title>
<path fill="none" stroke="#a0d17b" d="M397.1452,-959.7885C409.4186,-926.845 440.4013,-857.8236 493,-828.8873 700.028,-714.9946 993.7197,-758.8881 1133.334,-789.6851"/>
<polygon fill="#a0d17b" stroke="#a0d17b" points="1132.5933,-793.1058 1143.1167,-791.8774 1134.1242,-786.2752 1132.5933,-793.1058"/>
</g>
<!-- hidebound.core&#45;&gt;hidebound.core.validators -->
<g id="edge115" class="edge">
<title>hidebound.core&#45;&gt;hidebound.core.validators</title>
<path fill="none" stroke="#a0d17b" d="M393.0101,-996.193C398.9645,-1040.5496 420.8772,-1153.7352 493,-1202.8873 532.2444,-1229.6326 649.2236,-1231.8691 741.3544,-1228.9587"/>
<polygon fill="#a0d17b" stroke="#a0d17b" points="741.73,-1232.448 751.6055,-1228.6107 741.4925,-1225.452 741.73,-1232.448"/>
</g>
<!-- OpenEXR -->
<g id="node49" class="node">
<title>OpenEXR</title>
<polygon fill="#343434" stroke="#343434" points="625,-873.8873 551,-873.8873 551,-837.8873 625,-837.8873 625,-873.8873"/>
<text text-anchor="middle" x="588" y="-852.1873" font-family="Courier,monospace" font-size="14.00" fill="#de958e">OpenEXR</text>
</g>
<!-- OpenEXR&#45;&gt;hidebound.core.tools -->
<g id="edge116" class="edge">
<title>OpenEXR&#45;&gt;hidebound.core.tools</title>
<path fill="none" stroke="#de958e" d="M625.1552,-862.0911C660.1896,-867.9408 714.3125,-876.9776 762.1336,-884.9623"/>
<polygon fill="#de958e" stroke="#de958e" points="761.7934,-888.4538 772.2333,-886.6486 762.9463,-881.5494 761.7934,-888.4538"/>
</g>
<!-- selenium.webdriver.chrome.options -->
<g id="node50" class="node">
<title>selenium.webdriver.chrome.options</title>
<polygon fill="#343434" stroke="#343434" points="289,-1049.8873 0,-1049.8873 0,-1013.8873 289,-1013.8873 289,-1049.8873"/>
<text text-anchor="middle" x="144.5" y="-1028.1873" font-family="Courier,monospace" font-size="14.00" fill="#de958e">selenium.webdriver.chrome.options</text>
</g>
<!-- skimage.io -->
<g id="node51" class="node">
<title>skimage.io</title>
<polygon fill="#343434" stroke="#343434" points="913,-865.8873 814,-865.8873 814,-829.8873 913,-829.8873 913,-865.8873"/>
<text text-anchor="middle" x="863.5" y="-844.1873" font-family="Courier,monospace" font-size="14.00" fill="#de958e">skimage.io</text>
</g>
<!-- skimage.io&#45;&gt;hidebound.core.traits -->
<g id="edge117" class="edge">
<title>skimage.io&#45;&gt;hidebound.core.traits</title>
<path fill="none" stroke="#de958e" d="M913.2037,-842.4832C963.5607,-837.0081 1043.0103,-828.3698 1107.471,-821.3612"/>
<polygon fill="#de958e" stroke="#de958e" points="1108.1181,-824.8115 1117.6812,-820.251 1107.3614,-817.8525 1108.1181,-824.8115"/>
</g>
</g>
</svg>
