<?xml version="1.0" encoding="UTF-8" standalone="no"?>
<!DOCTYPE svg PUBLIC "-//W3C//DTD SVG 1.1//EN"
 "http://www.w3.org/Graphics/SVG/1.1/DTD/svg11.dtd">
<!-- Generated by graphviz version 2.40.1 (20161225.0304)
 -->
<!-- Title: %3 Pages: 1 -->
<svg width="2195pt" height="1225pt"
 viewBox="0.00 0.00 2195.00 1225.46" xmlns="http://www.w3.org/2000/svg" xmlns:xlink="http://www.w3.org/1999/xlink">
<g id="graph0" class="graph" transform="scale(1 1) rotate(0) translate(4 1221.4621)">
<title>%3</title>
<polygon fill="#242424" stroke="transparent" points="-4,4 -4,-1221.4621 2191,-1221.4621 2191,4 -4,4"/>
<!-- cli -->
<g id="node1" class="node">
<title>cli</title>
<polygon fill="#343434" stroke="#343434" points="72.5,-962.4621 18.5,-962.4621 18.5,-926.4621 72.5,-926.4621 72.5,-962.4621"/>
<text text-anchor="middle" x="45.5" y="-940.7621" font-family="Courier,monospace" font-size="14.00" fill="#b6ecf3">cli</text>
</g>
<!-- hidebound.core.config -->
<g id="node2" class="node">
<title>hidebound.core.config</title>
<polygon fill="#343434" stroke="#343434" points="1348.5,-777.4621 1158.5,-777.4621 1158.5,-741.4621 1348.5,-741.4621 1348.5,-777.4621"/>
<text text-anchor="middle" x="1253.5" y="-755.7621" font-family="Courier,monospace" font-size="14.00" fill="#b6ecf3">hidebound.core.config</text>
</g>
<!-- hidebound.core.database -->
<g id="node3" class="node">
<title>hidebound.core.database</title>
<polygon fill="#343434" stroke="#343434" points="1669,-433.4621 1463,-433.4621 1463,-397.4621 1669,-397.4621 1669,-433.4621"/>
<text text-anchor="middle" x="1566" y="-411.7621" font-family="Courier,monospace" font-size="14.00" fill="#b6ecf3">hidebound.core.database</text>
</g>
<!-- hidebound.core.config&#45;&gt;hidebound.core.database -->
<g id="edge1" class="edge">
<title>hidebound.core.config&#45;&gt;hidebound.core.database</title>
<path fill="none" stroke="#b6ecf3" d="M1333.2035,-741.4529C1358.7592,-731.8615 1384.8526,-717.3347 1402,-695.4621 1461.7758,-619.2143 1380.6536,-558.5534 1438,-480.4621 1452.007,-461.3882 1473.2318,-447.5215 1494.3935,-437.6232"/>
<polygon fill="#b6ecf3" stroke="#b6ecf3" points="1496.0273,-440.7279 1503.7604,-433.4856 1493.1989,-434.3247 1496.0273,-440.7279"/>
</g>
<!-- hidebound.server.app -->
<g id="node14" class="node">
<title>hidebound.server.app</title>
<polygon fill="#343434" stroke="#343434" points="2187,-525.4621 2005,-525.4621 2005,-489.4621 2187,-489.4621 2187,-525.4621"/>
<text text-anchor="middle" x="2096" y="-503.7621" font-family="Courier,monospace" font-size="14.00" fill="#b6ecf3">hidebound.server.app</text>
</g>
<!-- hidebound.core.config&#45;&gt;hidebound.server.app -->
<g id="edge2" class="edge">
<title>hidebound.core.config&#45;&gt;hidebound.server.app</title>
<path fill="none" stroke="#b6ecf3" d="M1335.6725,-741.4408C1359.4655,-732.9008 1383.8791,-720.4657 1402,-702.4621 1433.1482,-671.5154 1403.7632,-637.9528 1438,-610.4621 1459.541,-593.1656 1815.719,-544.2796 1994.828,-520.6172"/>
<polygon fill="#b6ecf3" stroke="#b6ecf3" points="1995.3368,-524.0805 2004.7931,-519.3026 1994.4212,-517.1407 1995.3368,-524.0805"/>
</g>
<!-- hidebound.server.api -->
<g id="node13" class="node">
<title>hidebound.server.api</title>
<polygon fill="#343434" stroke="#343434" points="1940.5,-456.4621 1758.5,-456.4621 1758.5,-420.4621 1940.5,-420.4621 1940.5,-456.4621"/>
<text text-anchor="middle" x="1849.5" y="-434.7621" font-family="Courier,monospace" font-size="14.00" fill="#b6ecf3">hidebound.server.api</text>
</g>
<!-- hidebound.core.database&#45;&gt;hidebound.server.api -->
<g id="edge3" class="edge">
<title>hidebound.core.database&#45;&gt;hidebound.server.api</title>
<path fill="none" stroke="#b6ecf3" d="M1669.152,-423.8307C1694.869,-425.9171 1722.4209,-428.1523 1748.0548,-430.2319"/>
<polygon fill="#b6ecf3" stroke="#b6ecf3" points="1747.9025,-433.731 1758.1528,-431.0512 1748.4686,-426.7539 1747.9025,-433.731"/>
</g>
<!-- hidebound.core.database_test_base -->
<g id="node4" class="node">
<title>hidebound.core.database_test_base</title>
<polygon fill="#343434" stroke="#343434" points="1398,-635.4621 1109,-635.4621 1109,-599.4621 1398,-599.4621 1398,-635.4621"/>
<text text-anchor="middle" x="1253.5" y="-613.7621" font-family="Courier,monospace" font-size="14.00" fill="#b6ecf3">hidebound.core.database_test_base</text>
</g>
<!-- hidebound.core.database_tools -->
<g id="node5" class="node">
<title>hidebound.core.database_tools</title>
<polygon fill="#343434" stroke="#343434" points="1052.5,-433.4621 796.5,-433.4621 796.5,-397.4621 1052.5,-397.4621 1052.5,-433.4621"/>
<text text-anchor="middle" x="924.5" y="-411.7621" font-family="Courier,monospace" font-size="14.00" fill="#b6ecf3">hidebound.core.database_tools</text>
</g>
<!-- hidebound.core.database_tools&#45;&gt;hidebound.core.database -->
<g id="edge4" class="edge">
<title>hidebound.core.database_tools&#45;&gt;hidebound.core.database</title>
<path fill="none" stroke="#b6ecf3" d="M1052.7753,-415.4621C1169.6054,-415.4621 1340.4982,-415.4621 1452.4744,-415.4621"/>
<polygon fill="#b6ecf3" stroke="#b6ecf3" points="1452.7859,-418.9622 1462.7859,-415.4621 1452.7858,-411.9622 1452.7859,-418.9622"/>
</g>
<!-- hidebound.core.parser -->
<g id="node6" class="node">
<title>hidebound.core.parser</title>
<polygon fill="#343434" stroke="#343434" points="485,-861.4621 295,-861.4621 295,-825.4621 485,-825.4621 485,-861.4621"/>
<text text-anchor="middle" x="390" y="-839.7621" font-family="Courier,monospace" font-size="14.00" fill="#b6ecf3">hidebound.core.parser</text>
</g>
<!-- hidebound.core.parser&#45;&gt;hidebound.core.database_tools -->
<g id="edge5" class="edge">
<title>hidebound.core.parser&#45;&gt;hidebound.core.database_tools</title>
<path fill="none" stroke="#b6ecf3" d="M398.2728,-825.4299C416.0882,-788.2281 461.3461,-701.9783 521,-648.4621 604.3121,-573.7218 647.2725,-587.7719 744,-531.4621 795.6387,-501.4007 853.4314,-463.4685 889.3922,-439.3315"/>
<polygon fill="#b6ecf3" stroke="#b6ecf3" points="891.7062,-441.993 898.0474,-433.5054 887.7973,-436.1861 891.7062,-441.993"/>
</g>
<!-- hidebound.core.specification_base -->
<g id="node7" class="node">
<title>hidebound.core.specification_base</title>
<polygon fill="#343434" stroke="#343434" points="1069,-847.4621 780,-847.4621 780,-811.4621 1069,-811.4621 1069,-847.4621"/>
<text text-anchor="middle" x="924.5" y="-825.7621" font-family="Courier,monospace" font-size="14.00" fill="#b6ecf3">hidebound.core.specification_base</text>
</g>
<!-- hidebound.core.parser&#45;&gt;hidebound.core.specification_base -->
<g id="edge6" class="edge">
<title>hidebound.core.parser&#45;&gt;hidebound.core.specification_base</title>
<path fill="none" stroke="#b6ecf3" d="M453.3466,-861.4736C464.1749,-865.4829 475.1113,-870.1497 485,-875.4621 502.8562,-885.0547 501.8274,-896.8838 521,-903.4621 614.7465,-935.6272 653.9563,-944.8763 744,-903.4621 766.3362,-893.1889 758.9135,-874.1035 780,-861.4621 786.3634,-857.6472 793.1297,-854.2858 800.127,-851.3241"/>
<polygon fill="#b6ecf3" stroke="#b6ecf3" points="801.7666,-854.4405 809.7958,-847.5281 799.2084,-847.9247 801.7666,-854.4405"/>
</g>
<!-- hidebound.core.validators -->
<g id="node12" class="node">
<title>hidebound.core.validators</title>
<polygon fill="#343434" stroke="#343434" points="744,-991.4621 521,-991.4621 521,-955.4621 744,-955.4621 744,-991.4621"/>
<text text-anchor="middle" x="632.5" y="-969.7621" font-family="Courier,monospace" font-size="14.00" fill="#b6ecf3">hidebound.core.validators</text>
</g>
<!-- hidebound.core.parser&#45;&gt;hidebound.core.validators -->
<g id="edge7" class="edge">
<title>hidebound.core.parser&#45;&gt;hidebound.core.validators</title>
<path fill="none" stroke="#b6ecf3" d="M463.0779,-861.6413C470.9554,-865.4246 478.4676,-869.9802 485,-875.4621 510.595,-896.9409 494.9238,-920.5701 521,-941.4621 525.3221,-944.9249 530.0023,-948.0131 534.9138,-950.767"/>
<polygon fill="#b6ecf3" stroke="#b6ecf3" points="533.4761,-953.9624 543.9768,-955.3721 536.6471,-947.7218 533.4761,-953.9624"/>
</g>
<!-- hidebound.core.specification_base&#45;&gt;hidebound.core.config -->
<g id="edge8" class="edge">
<title>hidebound.core.specification_base&#45;&gt;hidebound.core.config</title>
<path fill="none" stroke="#b6ecf3" d="M1009.2257,-811.4353C1054.9958,-801.697 1111.6377,-789.6455 1158.8515,-779.6001"/>
<polygon fill="#b6ecf3" stroke="#b6ecf3" points="1159.7233,-782.993 1168.776,-777.4885 1158.2665,-776.1462 1159.7233,-782.993"/>
</g>
<!-- hidebound.core.specification_base&#45;&gt;hidebound.core.database -->
<g id="edge9" class="edge">
<title>hidebound.core.specification_base&#45;&gt;hidebound.core.database</title>
<path fill="none" stroke="#b6ecf3" d="M974.2478,-811.4505C1003.0383,-799.978 1039.3301,-783.6759 1069,-764.4621 1086.9686,-752.8259 1086.2893,-742.8631 1105,-732.4621 1225.3306,-665.5723 1308.2163,-745.2505 1402,-644.4621 1452.8348,-589.8304 1392.335,-539.4832 1438,-480.4621 1452.7462,-461.4029 1474.6123,-447.4685 1496.1166,-437.5064"/>
<polygon fill="#b6ecf3" stroke="#b6ecf3" points="1497.5412,-440.7035 1505.2888,-433.4768 1494.7255,-434.2947 1497.5412,-440.7035"/>
</g>
<!-- hidebound.core.specification_base&#45;&gt;hidebound.core.database_test_base -->
<g id="edge10" class="edge">
<title>hidebound.core.specification_base&#45;&gt;hidebound.core.database_test_base</title>
<path fill="none" stroke="#b6ecf3" d="M992.4642,-811.4453C1019.2882,-801.4006 1048.5239,-786.3654 1069,-764.4621 1100.403,-730.8701 1071.9904,-699.4767 1105,-667.4621 1117.4062,-655.4298 1132.8006,-646.2902 1148.9358,-639.3486"/>
<polygon fill="#b6ecf3" stroke="#b6ecf3" points="1150.5266,-642.4816 1158.5046,-635.5102 1147.9204,-635.9848 1150.5266,-642.4816"/>
</g>
<!-- hidebound.core.specifications -->
<g id="node8" class="node">
<title>hidebound.core.specifications</title>
<polygon fill="#343434" stroke="#343434" points="1381.5,-955.4621 1125.5,-955.4621 1125.5,-919.4621 1381.5,-919.4621 1381.5,-955.4621"/>
<text text-anchor="middle" x="1253.5" y="-933.7621" font-family="Courier,monospace" font-size="14.00" fill="#b6ecf3">hidebound.core.specifications</text>
</g>
<!-- hidebound.core.specification_base&#45;&gt;hidebound.core.specifications -->
<g id="edge11" class="edge">
<title>hidebound.core.specification_base&#45;&gt;hidebound.core.specifications</title>
<path fill="none" stroke="#b6ecf3" d="M958.1411,-847.5358C993.6909,-865.9171 1051.856,-893.9741 1105,-910.4621 1112.6509,-912.8358 1120.5921,-915.0276 1128.6452,-917.0471"/>
<polygon fill="#b6ecf3" stroke="#b6ecf3" points="1127.9699,-920.4845 1138.5117,-919.4256 1129.6105,-913.6794 1127.9699,-920.4845"/>
</g>
<!-- hidebound.core.test_specifications -->
<g id="node9" class="node">
<title>hidebound.core.test_specifications</title>
<polygon fill="#343434" stroke="#343434" points="1402,-847.4621 1105,-847.4621 1105,-811.4621 1402,-811.4621 1402,-847.4621"/>
<text text-anchor="middle" x="1253.5" y="-825.7621" font-family="Courier,monospace" font-size="14.00" fill="#b6ecf3">hidebound.core.test_specifications</text>
</g>
<!-- hidebound.core.specification_base&#45;&gt;hidebound.core.test_specifications -->
<g id="edge12" class="edge">
<title>hidebound.core.specification_base&#45;&gt;hidebound.core.test_specifications</title>
<path fill="none" stroke="#b6ecf3" d="M1069.283,-829.4621C1077.7708,-829.4621 1086.3296,-829.4621 1094.8674,-829.4621"/>
<polygon fill="#b6ecf3" stroke="#b6ecf3" points="1094.8748,-832.9622 1104.8748,-829.4621 1094.8747,-825.9622 1094.8748,-832.9622"/>
</g>
<!-- hidebound.core.tools -->
<g id="node10" class="node">
<title>hidebound.core.tools</title>
<polygon fill="#343434" stroke="#343434" points="723.5,-487.4621 541.5,-487.4621 541.5,-451.4621 723.5,-451.4621 723.5,-487.4621"/>
<text text-anchor="middle" x="632.5" y="-465.7621" font-family="Courier,monospace" font-size="14.00" fill="#b6ecf3">hidebound.core.tools</text>
</g>
<!-- hidebound.core.tools&#45;&gt;hidebound.core.database -->
<g id="edge13" class="edge">
<title>hidebound.core.tools&#45;&gt;hidebound.core.database</title>
<path fill="none" stroke="#b6ecf3" d="M723.7684,-465.7002C867.9203,-459.5373 1157.101,-446.2756 1402,-429.4621 1418.4437,-428.3331 1435.803,-427.0022 1452.8305,-425.6176"/>
<polygon fill="#b6ecf3" stroke="#b6ecf3" points="1453.1287,-429.105 1462.8083,-424.7973 1452.5551,-422.1285 1453.1287,-429.105"/>
</g>
<!-- hidebound.core.tools&#45;&gt;hidebound.core.database_tools -->
<g id="edge14" class="edge">
<title>hidebound.core.tools&#45;&gt;hidebound.core.database_tools</title>
<path fill="none" stroke="#b6ecf3" d="M723.6895,-452.5983C753.2845,-447.1252 786.3944,-441.0021 817.0597,-435.3312"/>
<polygon fill="#b6ecf3" stroke="#b6ecf3" points="817.7258,-438.7674 826.9225,-433.5072 816.4528,-431.8841 817.7258,-438.7674"/>
</g>
<!-- hidebound.core.tools&#45;&gt;hidebound.core.specification_base -->
<g id="edge15" class="edge">
<title>hidebound.core.tools&#45;&gt;hidebound.core.specification_base</title>
<path fill="none" stroke="#b6ecf3" d="M646.0438,-487.6427C668.9052,-519.0307 715.4447,-586.0349 744,-648.4621 766.4544,-697.5515 744.2232,-724.0394 780,-764.4621 797.2215,-783.9199 821.4079,-797.8682 845.0746,-807.7237"/>
<polygon fill="#b6ecf3" stroke="#b6ecf3" points="843.8681,-811.0103 854.4544,-811.4354 846.4438,-804.5013 843.8681,-811.0103"/>
</g>
<!-- hidebound.server.server_tools -->
<g id="node16" class="node">
<title>hidebound.server.server_tools</title>
<polygon fill="#343434" stroke="#343434" points="1694,-525.4621 1438,-525.4621 1438,-489.4621 1694,-489.4621 1694,-525.4621"/>
<text text-anchor="middle" x="1566" y="-503.7621" font-family="Courier,monospace" font-size="14.00" fill="#b6ecf3">hidebound.server.server_tools</text>
</g>
<!-- hidebound.core.tools&#45;&gt;hidebound.server.server_tools -->
<g id="edge16" class="edge">
<title>hidebound.core.tools&#45;&gt;hidebound.server.server_tools</title>
<path fill="none" stroke="#b6ecf3" d="M723.7076,-473.1749C887.8789,-479.8578 1234.0159,-493.948 1427.5636,-501.8267"/>
<polygon fill="#b6ecf3" stroke="#b6ecf3" points="1427.6703,-505.3339 1437.8044,-502.2436 1427.9551,-498.3397 1427.6703,-505.3339"/>
</g>
<!-- hidebound.core.traits -->
<g id="node11" class="node">
<title>hidebound.core.traits</title>
<polygon fill="#343434" stroke="#343434" points="1019.5,-755.4621 829.5,-755.4621 829.5,-719.4621 1019.5,-719.4621 1019.5,-755.4621"/>
<text text-anchor="middle" x="924.5" y="-733.7621" font-family="Courier,monospace" font-size="14.00" fill="#b6ecf3">hidebound.core.traits</text>
</g>
<!-- hidebound.core.traits&#45;&gt;hidebound.core.database_test_base -->
<g id="edge17" class="edge">
<title>hidebound.core.traits&#45;&gt;hidebound.core.database_test_base</title>
<path fill="none" stroke="#b6ecf3" d="M969.5364,-719.3454C1005.9233,-704.8659 1058.5431,-684.2816 1105,-667.4621 1132.1038,-657.6492 1162.2123,-647.3934 1188.1945,-638.7425"/>
<polygon fill="#b6ecf3" stroke="#b6ecf3" points="1189.5469,-641.9815 1197.9355,-635.5099 1187.3421,-635.3378 1189.5469,-641.9815"/>
</g>
<!-- hidebound.core.traits&#45;&gt;hidebound.core.specifications -->
<g id="edge18" class="edge">
<title>hidebound.core.traits&#45;&gt;hidebound.core.specifications</title>
<path fill="none" stroke="#b6ecf3" d="M993.9425,-755.5567C1020.5158,-765.5484 1049.1718,-780.5237 1069,-802.4621 1102.9263,-839.9988 1066.7767,-877.3112 1105,-910.4621 1108.5478,-913.5391 1112.3266,-916.3175 1116.2868,-918.8242"/>
<polygon fill="#b6ecf3" stroke="#b6ecf3" points="1114.8006,-922.0048 1125.2267,-923.8881 1118.2506,-915.9141 1114.8006,-922.0048"/>
</g>
<!-- hidebound.core.traits&#45;&gt;hidebound.core.test_specifications -->
<g id="edge19" class="edge">
<title>hidebound.core.traits&#45;&gt;hidebound.core.test_specifications</title>
<path fill="none" stroke="#b6ecf3" d="M989.1073,-755.5285C1043.7699,-770.8142 1122.1166,-792.7226 1179.3315,-808.7219"/>
<polygon fill="#b6ecf3" stroke="#b6ecf3" points="1178.4674,-812.1145 1189.0405,-811.4369 1180.3525,-805.3731 1178.4674,-812.1145"/>
</g>
<!-- hidebound.core.validators&#45;&gt;hidebound.core.config -->
<g id="edge20" class="edge">
<title>hidebound.core.validators&#45;&gt;hidebound.core.config</title>
<path fill="none" stroke="#b6ecf3" d="M695.0557,-955.3772C711.7797,-948.9691 729.2816,-940.7306 744,-930.4621 763.8879,-916.5869 758.5127,-900.7024 780,-889.4621 894.5522,-829.5381 958.6679,-923.841 1069,-856.4621 1093.617,-841.4287 1081.7325,-819.5097 1105,-802.4621 1117.999,-792.938 1133.0687,-785.516 1148.5229,-779.7341"/>
<polygon fill="#b6ecf3" stroke="#b6ecf3" points="1149.9051,-782.9583 1158.1799,-776.3419 1147.5851,-776.354 1149.9051,-782.9583"/>
</g>
<!-- hidebound.core.validators&#45;&gt;hidebound.core.database_test_base -->
<g id="edge21" class="edge">
<title>hidebound.core.validators&#45;&gt;hidebound.core.database_test_base</title>
<path fill="none" stroke="#b6ecf3" d="M650.9581,-955.0474C675.5069,-929.5876 718.7329,-881.2317 744,-832.4621 770.0065,-782.2654 738.2098,-748.536 780,-710.4621 804.9154,-687.7623 985.628,-656.8498 1116.41,-637.0211"/>
<polygon fill="#b6ecf3" stroke="#b6ecf3" points="1117.1605,-640.4476 1126.5262,-635.4943 1116.1158,-633.526 1117.1605,-640.4476"/>
</g>
<!-- hidebound.core.validators&#45;&gt;hidebound.core.specification_base -->
<g id="edge22" class="edge">
<title>hidebound.core.validators&#45;&gt;hidebound.core.specification_base</title>
<path fill="none" stroke="#b6ecf3" d="M722.5769,-955.3716C730.3088,-951.581 737.606,-946.9993 744,-941.4621 773.4737,-915.9376 749.7549,-886.0675 780,-861.4621 784.1296,-858.1025 788.5373,-855.0771 793.151,-852.3538"/>
<polygon fill="#b6ecf3" stroke="#b6ecf3" points="795.0924,-855.2846 802.2583,-847.4807 791.7899,-849.1125 795.0924,-855.2846"/>
</g>
<!-- hidebound.core.validators&#45;&gt;hidebound.core.specifications -->
<g id="edge23" class="edge">
<title>hidebound.core.validators&#45;&gt;hidebound.core.specifications</title>
<path fill="none" stroke="#b6ecf3" d="M744.2396,-966.9844C848.2181,-960.9567 1003.4985,-951.9549 1115.2418,-945.477"/>
<polygon fill="#b6ecf3" stroke="#b6ecf3" points="1115.4571,-948.9705 1125.2378,-944.8976 1115.052,-941.9823 1115.4571,-948.9705"/>
</g>
<!-- hidebound.core.validators&#45;&gt;hidebound.core.test_specifications -->
<g id="edge24" class="edge">
<title>hidebound.core.validators&#45;&gt;hidebound.core.test_specifications</title>
<path fill="none" stroke="#b6ecf3" d="M723.7547,-955.4306C742.361,-951.7794 761.8078,-947.9815 780,-944.4621 908.3696,-919.6278 952.1333,-948.0938 1069,-889.4621 1088.4004,-879.7289 1085.5598,-866.1155 1105,-856.4621 1108.8285,-854.561 1112.772,-852.7925 1116.8004,-851.1475"/>
<polygon fill="#b6ecf3" stroke="#b6ecf3" points="1118.2312,-854.3482 1126.3397,-847.5289 1115.7484,-847.8033 1118.2312,-854.3482"/>
</g>
<!-- hidebound.server.api&#45;&gt;hidebound.server.app -->
<g id="edge25" class="edge">
<title>hidebound.server.api&#45;&gt;hidebound.server.app</title>
<path fill="none" stroke="#b6ecf3" d="M1913.943,-456.5009C1946.9203,-465.7319 1987.2341,-477.0164 2021.536,-486.6182"/>
<polygon fill="#b6ecf3" stroke="#b6ecf3" points="2020.9321,-490.0836 2031.5055,-489.4088 2022.8191,-483.3427 2020.9321,-490.0836"/>
</g>
<!-- hidebound.server.components -->
<g id="node15" class="node">
<title>hidebound.server.components</title>
<polygon fill="#343434" stroke="#343434" points="1969,-763.4621 1730,-763.4621 1730,-727.4621 1969,-727.4621 1969,-763.4621"/>
<text text-anchor="middle" x="1849.5" y="-741.7621" font-family="Courier,monospace" font-size="14.00" fill="#b6ecf3">hidebound.server.components</text>
</g>
<!-- hidebound.server.components&#45;&gt;hidebound.server.app -->
<g id="edge26" class="edge">
<title>hidebound.server.components&#45;&gt;hidebound.server.app</title>
<path fill="none" stroke="#b6ecf3" d="M1868.4331,-727.1818C1912.0938,-685.0266 2019.9072,-580.931 2069.8413,-532.7188"/>
<polygon fill="#b6ecf3" stroke="#b6ecf3" points="2072.5768,-534.9427 2077.3398,-525.4788 2067.7146,-529.9069 2072.5768,-534.9427"/>
</g>
<!-- hidebound.server.server_tools&#45;&gt;hidebound.server.api -->
<g id="edge27" class="edge">
<title>hidebound.server.server_tools&#45;&gt;hidebound.server.api</title>
<path fill="none" stroke="#b6ecf3" d="M1640.116,-489.4233C1678.5316,-480.0734 1725.6035,-468.6168 1765.3792,-458.9359"/>
<polygon fill="#b6ecf3" stroke="#b6ecf3" points="1766.4361,-462.2809 1775.3247,-456.5153 1764.7807,-455.4795 1766.4361,-462.2809"/>
</g>
<!-- hidebound.server.server_tools&#45;&gt;hidebound.server.app -->
<g id="edge28" class="edge">
<title>hidebound.server.server_tools&#45;&gt;hidebound.server.app</title>
<path fill="none" stroke="#b6ecf3" d="M1694.2982,-507.4621C1786.5896,-507.4621 1909.3436,-507.4621 1994.7615,-507.4621"/>
<polygon fill="#b6ecf3" stroke="#b6ecf3" points="1994.9887,-510.9622 2004.9886,-507.4621 1994.9886,-503.9622 1994.9887,-510.9622"/>
</g>
<!-- dash -->
<g id="node17" class="node">
<title>dash</title>
<polygon fill="#343434" stroke="#343434" points="1593,-963.4621 1539,-963.4621 1539,-927.4621 1593,-927.4621 1593,-963.4621"/>
<text text-anchor="middle" x="1566" y="-941.7621" font-family="Courier,monospace" font-size="14.00" fill="#de958e">dash</text>
</g>
<!-- dash&#45;&gt;hidebound.server.app -->
<g id="edge29" class="edge">
<title>dash&#45;&gt;hidebound.server.app</title>
<path fill="none" stroke="#de958e" d="M1593.0817,-942.0008C1619.4154,-938.1153 1660.267,-930.6984 1694,-918.4621 1824.0854,-871.2749 1873.1854,-872.304 1969,-772.4621 2036.9136,-701.6939 2074.4488,-587.7604 2088.9309,-535.4083"/>
<polygon fill="#de958e" stroke="#de958e" points="2092.3785,-536.0654 2091.5982,-525.4993 2085.6191,-534.2458 2092.3785,-536.0654"/>
</g>
<!-- dash&#45;&gt;hidebound.server.components -->
<g id="edge30" class="edge">
<title>dash&#45;&gt;hidebound.server.components</title>
<path fill="none" stroke="#de958e" d="M1593.1026,-946.0198C1620.9601,-945.2612 1664.3393,-940.2315 1694,-918.4621 1720.3098,-899.152 1709.6863,-880.005 1730,-854.4621 1755.8654,-821.9383 1791.7589,-790.593 1817.4437,-769.9317"/>
<polygon fill="#de958e" stroke="#de958e" points="1819.7465,-772.5723 1825.3985,-763.611 1815.3918,-767.0917 1819.7465,-772.5723"/>
</g>
<!-- dash_core_components -->
<g id="node18" class="node">
<title>dash_core_components</title>
<polygon fill="#343434" stroke="#343434" points="1657,-909.4621 1475,-909.4621 1475,-873.4621 1657,-873.4621 1657,-909.4621"/>
<text text-anchor="middle" x="1566" y="-887.7621" font-family="Courier,monospace" font-size="14.00" fill="#de958e">dash_core_components</text>
</g>
<!-- dash_core_components&#45;&gt;hidebound.server.components -->
<g id="edge31" class="edge">
<title>dash_core_components&#45;&gt;hidebound.server.components</title>
<path fill="none" stroke="#de958e" d="M1657.1421,-877.4924C1669.8163,-874.0481 1682.4424,-869.7703 1694,-864.4621 1745.3281,-840.8879 1795.5323,-797.7866 1824.4499,-770.4361"/>
<polygon fill="#de958e" stroke="#de958e" points="1826.8817,-772.9534 1831.6779,-763.5063 1822.0373,-767.9005 1826.8817,-772.9534"/>
</g>
<!-- dash_cytoscape -->
<g id="node19" class="node">
<title>dash_cytoscape</title>
<polygon fill="#343434" stroke="#343434" points="1632,-855.4621 1500,-855.4621 1500,-819.4621 1632,-819.4621 1632,-855.4621"/>
<text text-anchor="middle" x="1566" y="-833.7621" font-family="Courier,monospace" font-size="14.00" fill="#de958e">dash_cytoscape</text>
</g>
<!-- dash_cytoscape&#45;&gt;hidebound.server.components -->
<g id="edge32" class="edge">
<title>dash_cytoscape&#45;&gt;hidebound.server.components</title>
<path fill="none" stroke="#de958e" d="M1632.2109,-822.5588C1652.2094,-817.6158 1674.1276,-811.7537 1694,-805.4621 1728.9745,-794.3892 1767.4451,-779.5683 1797.3714,-767.4274"/>
<polygon fill="#de958e" stroke="#de958e" points="1798.838,-770.6091 1806.7722,-763.5879 1796.1912,-764.1288 1798.838,-770.6091"/>
</g>
<!-- hidebound.server -->
<g id="node20" class="node">
<title>hidebound.server</title>
<polygon fill="#343434" stroke="#343434" points="1328,-1009.4621 1179,-1009.4621 1179,-973.4621 1328,-973.4621 1328,-1009.4621"/>
<text text-anchor="middle" x="1253.5" y="-987.7621" font-family="Courier,monospace" font-size="14.00" fill="#a0d17b">hidebound.server</text>
</g>
<!-- hidebound.server&#45;&gt;hidebound.server.api -->
<g id="edge33" class="edge">
<title>hidebound.server&#45;&gt;hidebound.server.api</title>
<path fill="none" stroke="#a0d17b" d="M1328.0533,-995.4504C1354.9852,-992.8386 1383.3231,-984.666 1402,-964.4621 1455.6754,-906.3983 1387.5591,-671.3568 1438,-610.4621 1513.7105,-519.0606 1585.6699,-582.9483 1694,-534.4621 1738.543,-514.5256 1785.6969,-483.8892 1816.2436,-462.6082"/>
<polygon fill="#a0d17b" stroke="#a0d17b" points="1818.6206,-465.2153 1824.7856,-456.5988 1814.5929,-459.4901 1818.6206,-465.2153"/>
</g>
<!-- hidebound.server&#45;&gt;hidebound.server.app -->
<g id="edge34" class="edge">
<title>hidebound.server&#45;&gt;hidebound.server.app</title>
<path fill="none" stroke="#a0d17b" d="M1328.0233,-1002.2223C1474.4369,-1018.72 1800.0419,-1031.6471 1969,-852.4621 2056.751,-759.3995 2084.9424,-600.615 2093.0484,-536.0395"/>
<polygon fill="#a0d17b" stroke="#a0d17b" points="2096.5595,-536.1516 2094.2612,-525.809 2089.6082,-535.3274 2096.5595,-536.1516"/>
</g>
<!-- hidebound.server&#45;&gt;hidebound.server.components -->
<g id="edge35" class="edge">
<title>hidebound.server&#45;&gt;hidebound.server.components</title>
<path fill="none" stroke="#a0d17b" d="M1328.2727,-993.9928C1354.5876,-991.0703 1382.446,-983.0659 1402,-964.4621 1452.9241,-916.0123 1386.2955,-858.0781 1438,-810.4621 1480.3055,-771.5018 1637.2191,-781.6044 1694,-772.4621 1708.177,-770.1794 1723.0661,-767.6999 1737.7816,-765.1997"/>
<polygon fill="#a0d17b" stroke="#a0d17b" points="1738.6621,-768.6001 1747.9307,-763.4676 1737.4844,-761.6999 1738.6621,-768.6001"/>
</g>
<!-- hidebound.server&#45;&gt;hidebound.server.server_tools -->
<g id="edge36" class="edge">
<title>hidebound.server&#45;&gt;hidebound.server.server_tools</title>
<path fill="none" stroke="#a0d17b" d="M1328.1441,-995.5339C1355.0877,-992.933 1383.41,-984.746 1402,-964.4621 1460.357,-900.7874 1390.5541,-649.6347 1438,-577.4621 1452.124,-555.9773 1475.1736,-540.5246 1497.8492,-529.6984"/>
<polygon fill="#a0d17b" stroke="#a0d17b" points="1499.5049,-532.791 1507.1762,-525.4834 1496.6222,-526.4122 1499.5049,-532.791"/>
</g>
<!-- dash_html_components -->
<g id="node21" class="node">
<title>dash_html_components</title>
<polygon fill="#343434" stroke="#343434" points="1657,-655.4621 1475,-655.4621 1475,-619.4621 1657,-619.4621 1657,-655.4621"/>
<text text-anchor="middle" x="1566" y="-633.7621" font-family="Courier,monospace" font-size="14.00" fill="#de958e">dash_html_components</text>
</g>
<!-- dash_html_components&#45;&gt;hidebound.server.app -->
<g id="edge37" class="edge">
<title>dash_html_components&#45;&gt;hidebound.server.app</title>
<path fill="none" stroke="#de958e" d="M1657.2964,-628.7027C1740.0831,-619.1016 1864.7424,-600.4762 1969,-567.4621 1998.8905,-557.997 2030.7919,-542.9045 2055.1445,-530.2249"/>
<polygon fill="#de958e" stroke="#de958e" points="2056.8811,-533.2659 2064.0883,-525.5002 2053.6114,-527.0765 2056.8811,-533.2659"/>
</g>
<!-- dash_html_components&#45;&gt;hidebound.server.components -->
<g id="edge38" class="edge">
<title>dash_html_components&#45;&gt;hidebound.server.components</title>
<path fill="none" stroke="#de958e" d="M1657.0666,-653.4665C1669.6263,-656.5994 1682.2409,-660.2487 1694,-664.4621 1736.2513,-679.6012 1781.4163,-704.1712 1812.1228,-722.2865"/>
<polygon fill="#de958e" stroke="#de958e" points="1810.3953,-725.3314 1820.7767,-727.4472 1813.9806,-719.3193 1810.3953,-725.3314"/>
</g>
<!-- dash_table -->
<g id="node22" class="node">
<title>dash_table</title>
<polygon fill="#343434" stroke="#343434" points="1615.5,-763.4621 1516.5,-763.4621 1516.5,-727.4621 1615.5,-727.4621 1615.5,-763.4621"/>
<text text-anchor="middle" x="1566" y="-741.7621" font-family="Courier,monospace" font-size="14.00" fill="#de958e">dash_table</text>
</g>
<!-- dash_table&#45;&gt;hidebound.server.components -->
<g id="edge39" class="edge">
<title>dash_table&#45;&gt;hidebound.server.components</title>
<path fill="none" stroke="#de958e" d="M1615.7063,-745.4621C1644.6647,-745.4621 1682.6525,-745.4621 1719.5644,-745.4621"/>
<polygon fill="#de958e" stroke="#de958e" points="1719.9386,-748.9622 1729.9385,-745.4621 1719.9385,-741.9622 1719.9386,-748.9622"/>
</g>
<!-- dash.dependencies -->
<g id="node23" class="node">
<title>dash.dependencies</title>
<polygon fill="#343434" stroke="#343434" points="1928,-198.4621 1771,-198.4621 1771,-162.4621 1928,-162.4621 1928,-198.4621"/>
<text text-anchor="middle" x="1849.5" y="-176.7621" font-family="Courier,monospace" font-size="14.00" fill="#de958e">dash.dependencies</text>
</g>
<!-- dash.dependencies&#45;&gt;hidebound.server.app -->
<g id="edge40" class="edge">
<title>dash.dependencies&#45;&gt;hidebound.server.app</title>
<path fill="none" stroke="#de958e" d="M1928.1411,-190.7165C1942.9347,-195.4881 1957.3839,-202.4179 1969,-212.4621 2052.1862,-284.3917 2082.5759,-420.5821 2092.1454,-479.3268"/>
<polygon fill="#de958e" stroke="#de958e" points="2088.71,-480.0143 2093.698,-489.3615 2095.6277,-478.9439 2088.71,-480.0143"/>
</g>
<!-- rolling_pin.blob_etl -->
<g id="node24" class="node">
<title>rolling_pin.blob_etl</title>
<polygon fill="#343434" stroke="#343434" points="1657,-709.4621 1475,-709.4621 1475,-673.4621 1657,-673.4621 1657,-709.4621"/>
<text text-anchor="middle" x="1566" y="-687.7621" font-family="Courier,monospace" font-size="14.00" fill="#de958e">rolling_pin.blob_etl</text>
</g>
<!-- rolling_pin.blob_etl&#45;&gt;hidebound.server.components -->
<g id="edge41" class="edge">
<title>rolling_pin.blob_etl&#45;&gt;hidebound.server.components</title>
<path fill="none" stroke="#de958e" d="M1657.2617,-708.8453C1685.2072,-714.1682 1716.1642,-720.0648 1744.9244,-725.5429"/>
<polygon fill="#de958e" stroke="#de958e" points="1744.5187,-729.0285 1754.997,-727.4615 1745.8286,-722.1521 1744.5187,-729.0285"/>
</g>
<!-- dash.exceptions -->
<g id="node25" class="node">
<title>dash.exceptions</title>
<polygon fill="#343434" stroke="#343434" points="1919.5,-144.4621 1779.5,-144.4621 1779.5,-108.4621 1919.5,-108.4621 1919.5,-144.4621"/>
<text text-anchor="middle" x="1849.5" y="-122.7621" font-family="Courier,monospace" font-size="14.00" fill="#de958e">dash.exceptions</text>
</g>
<!-- dash.exceptions&#45;&gt;hidebound.server.app -->
<g id="edge42" class="edge">
<title>dash.exceptions&#45;&gt;hidebound.server.app</title>
<path fill="none" stroke="#de958e" d="M1919.7895,-130.4039C1937.5274,-134.4 1955.3795,-141.4125 1969,-153.4621 2067.9033,-240.958 2089.8001,-411.1436 2094.6351,-478.7615"/>
<polygon fill="#de958e" stroke="#de958e" points="2091.1631,-479.3126 2095.2943,-489.0688 2098.1488,-478.8658 2091.1631,-479.3126"/>
</g>
<!-- flask -->
<g id="node26" class="node">
<title>flask</title>
<polygon fill="#343434" stroke="#343434" points="1282.5,-75.4621 1224.5,-75.4621 1224.5,-39.4621 1282.5,-39.4621 1282.5,-75.4621"/>
<text text-anchor="middle" x="1253.5" y="-53.7621" font-family="Courier,monospace" font-size="14.00" fill="#de958e">flask</text>
</g>
<!-- flask&#45;&gt;hidebound.server.api -->
<g id="edge43" class="edge">
<title>flask&#45;&gt;hidebound.server.api</title>
<path fill="none" stroke="#de958e" d="M1282.5581,-61.5075C1312.9319,-66.245 1361.6923,-75.2969 1402,-89.4621 1418.8767,-95.393 1420.9918,-101.9194 1438,-107.4621 1547.6938,-143.2096 1604.1708,-78.0651 1694,-150.4621 1727.5434,-177.4961 1710.8062,-201.8927 1730,-240.4621 1761.5794,-303.9199 1806.4331,-374.0161 1831.2352,-411.4171"/>
<polygon fill="#de958e" stroke="#de958e" points="1828.6294,-413.8183 1837.0885,-420.1975 1834.4539,-409.9355 1828.6294,-413.8183"/>
</g>
<!-- flask&#45;&gt;hidebound.server.app -->
<g id="edge44" class="edge">
<title>flask&#45;&gt;hidebound.server.app</title>
<path fill="none" stroke="#de958e" d="M1282.6609,-46.0632C1359.531,-18.111 1570.2686,44.6809 1694,-53.4621 1749.0694,-97.1428 1692.8474,-147.7936 1730,-207.4621 1752.5371,-243.6574 1979.1836,-418.414 2064.1007,-483.2165"/>
<polygon fill="#de958e" stroke="#de958e" points="2062.0252,-486.0353 2072.0995,-489.3153 2066.2694,-480.4688 2062.0252,-486.0353"/>
</g>
<!-- flask&#45;&gt;hidebound.server.server_tools -->
<g id="edge45" class="edge">
<title>flask&#45;&gt;hidebound.server.server_tools</title>
<path fill="none" stroke="#de958e" d="M1264.1149,-75.7116C1289.803,-120.2997 1356.5472,-238.7228 1402,-342.4621 1420.9568,-385.7281 1406.738,-407.0502 1438,-442.4621 1454.5256,-461.1813 1477.7209,-475.2042 1499.8344,-485.3395"/>
<polygon fill="#de958e" stroke="#de958e" points="1498.6583,-488.6453 1509.2227,-489.4476 1501.4645,-482.2323 1498.6583,-488.6453"/>
</g>
<!-- jinja2 -->
<g id="node27" class="node">
<title>jinja2</title>
<polygon fill="#343434" stroke="#343434" points="1286.5,-901.4621 1220.5,-901.4621 1220.5,-865.4621 1286.5,-865.4621 1286.5,-901.4621"/>
<text text-anchor="middle" x="1253.5" y="-879.7621" font-family="Courier,monospace" font-size="14.00" fill="#de958e">jinja2</text>
</g>
<!-- jinja2&#45;&gt;hidebound.server.server_tools -->
<g id="edge46" class="edge">
<title>jinja2&#45;&gt;hidebound.server.server_tools</title>
<path fill="none" stroke="#de958e" d="M1286.7228,-887.6438C1320.7451,-889.8945 1372.6761,-887.3373 1402,-856.4621 1488.1012,-765.8057 1367.4721,-680.6987 1438,-577.4621 1452.5666,-556.1399 1475.8324,-540.6986 1498.5581,-529.8358"/>
<polygon fill="#de958e" stroke="#de958e" points="1500.2333,-532.9193 1507.8965,-525.6031 1497.3434,-526.5436 1500.2333,-532.9193"/>
</g>
<!-- flasgger -->
<g id="node28" class="node">
<title>flasgger</title>
<polygon fill="#343434" stroke="#343434" points="1607.5,-98.4621 1524.5,-98.4621 1524.5,-62.4621 1607.5,-62.4621 1607.5,-98.4621"/>
<text text-anchor="middle" x="1566" y="-76.7621" font-family="Courier,monospace" font-size="14.00" fill="#de958e">flasgger</text>
</g>
<!-- flasgger&#45;&gt;hidebound.server.api -->
<g id="edge47" class="edge">
<title>flasgger&#45;&gt;hidebound.server.api</title>
<path fill="none" stroke="#de958e" d="M1607.7596,-80.5285C1635.6436,-82.8057 1671.242,-90.3589 1694,-112.4621 1736.3926,-153.635 1706.5201,-186.2307 1730,-240.4621 1758.2078,-305.6135 1804.4609,-375.2267 1830.3731,-412.0547"/>
<polygon fill="#de958e" stroke="#de958e" points="1827.5531,-414.1288 1836.1932,-420.2608 1833.2629,-410.0792 1827.5531,-414.1288"/>
</g>
<!-- flasgger&#45;&gt;hidebound.server.app -->
<g id="edge48" class="edge">
<title>flasgger&#45;&gt;hidebound.server.app</title>
<path fill="none" stroke="#de958e" d="M1607.7751,-68.3265C1687.304,-47.9705 1862.0467,-16.7854 1969,-99.4621 2031.0557,-147.4322 2077.2445,-394.5244 2091.4393,-479.0601"/>
<polygon fill="#de958e" stroke="#de958e" points="2087.9964,-479.693 2093.0838,-488.9864 2094.9023,-478.5488 2087.9964,-479.693"/>
</g>
<!-- hidebound -->
<g id="node29" class="node">
<title>hidebound</title>
<polygon fill="#343434" stroke="#343434" points="91,-1016.4621 0,-1016.4621 0,-980.4621 91,-980.4621 91,-1016.4621"/>
<text text-anchor="middle" x="45.5" y="-994.7621" font-family="Courier,monospace" font-size="14.00" fill="#a0d17b">hidebound</text>
</g>
<!-- hidebound&#45;&gt;hidebound.server -->
<g id="edge49" class="edge">
<title>hidebound&#45;&gt;hidebound.server</title>
<path fill="none" stroke="#a0d17b" d="M60.1414,-1016.7572C104.0463,-1069.3916 240.8165,-1217.4621 390,-1217.4621 390,-1217.4621 390,-1217.4621 632.5,-1217.4621 830.144,-1217.4621 888.7302,-1213.4926 1069,-1132.4621 1132.8273,-1103.772 1194.9241,-1049.1619 1228.2914,-1016.9733"/>
<polygon fill="#a0d17b" stroke="#a0d17b" points="1231.0408,-1019.1804 1235.7486,-1009.689 1226.1494,-1014.1729 1231.0408,-1019.1804"/>
</g>
<!-- hidebound.core -->
<g id="node31" class="node">
<title>hidebound.core</title>
<polygon fill="#343434" stroke="#343434" points="259,-796.4621 127,-796.4621 127,-760.4621 259,-760.4621 259,-796.4621"/>
<text text-anchor="middle" x="193" y="-774.7621" font-family="Courier,monospace" font-size="14.00" fill="#a0d17b">hidebound.core</text>
</g>
<!-- hidebound&#45;&gt;hidebound.core -->
<g id="edge50" class="edge">
<title>hidebound&#45;&gt;hidebound.core</title>
<path fill="none" stroke="#a0d17b" d="M80.7809,-980.2787C84.4608,-977.6009 87.9603,-974.6557 91,-971.4621 138.0908,-921.9869 169.4311,-846.5172 183.8583,-806.1751"/>
<polygon fill="#a0d17b" stroke="#a0d17b" points="187.17,-807.3075 187.1611,-796.7127 180.5611,-805.0006 187.17,-807.3075"/>
</g>
<!-- pandasql -->
<g id="node30" class="node">
<title>pandasql</title>
<polygon fill="#343434" stroke="#343434" points="1295,-387.4621 1212,-387.4621 1212,-351.4621 1295,-351.4621 1295,-387.4621"/>
<text text-anchor="middle" x="1253.5" y="-365.7621" font-family="Courier,monospace" font-size="14.00" fill="#de958e">pandasql</text>
</g>
<!-- pandasql&#45;&gt;hidebound.core.database -->
<g id="edge51" class="edge">
<title>pandasql&#45;&gt;hidebound.core.database</title>
<path fill="none" stroke="#de958e" d="M1295.3209,-375.6181C1335.4811,-381.5297 1397.967,-390.7276 1452.7872,-398.7971"/>
<polygon fill="#de958e" stroke="#de958e" points="1452.5239,-402.296 1462.927,-400.2897 1453.5433,-395.3706 1452.5239,-402.296"/>
</g>
<!-- hidebound.core&#45;&gt;hidebound.core.config -->
<g id="edge52" class="edge">
<title>hidebound.core&#45;&gt;hidebound.core.config</title>
<path fill="none" stroke="#a0d17b" d="M259.2066,-763.7654C271.0847,-761.4334 283.3798,-759.2162 295,-757.4621 465.3864,-731.7411 898.1326,-688.159 1069,-710.4621 1110.1531,-715.8337 1155.1926,-727.675 1190.469,-738.3711"/>
<polygon fill="#a0d17b" stroke="#a0d17b" points="1189.5614,-741.7538 1200.1486,-741.3513 1191.6212,-735.0637 1189.5614,-741.7538"/>
</g>
<!-- hidebound.core&#45;&gt;hidebound.core.database -->
<g id="edge53" class="edge">
<title>hidebound.core&#45;&gt;hidebound.core.database</title>
<path fill="none" stroke="#a0d17b" d="M195.0376,-760.2916C203.9626,-683.2035 241.5607,-383.6717 295,-307.4621 390.9727,-170.5957 465.3379,-141.4621 632.5,-141.4621 632.5,-141.4621 632.5,-141.4621 924.5,-141.4621 1138.5614,-141.4621 1216.3005,-97.9821 1402,-204.4621 1477.7153,-247.8772 1530.7117,-341.4239 1553.4932,-387.981"/>
<polygon fill="#a0d17b" stroke="#a0d17b" points="1550.4169,-389.6607 1557.8932,-397.1677 1556.7301,-386.6368 1550.4169,-389.6607"/>
</g>
<!-- hidebound.core&#45;&gt;hidebound.core.database_test_base -->
<g id="edge54" class="edge">
<title>hidebound.core&#45;&gt;hidebound.core.database_test_base</title>
<path fill="none" stroke="#a0d17b" d="M194.2056,-760.2184C199.7241,-682.9505 225.3658,-384.079 295,-328.4621 320.1711,-308.3579 967.8034,-289.9231 1069,-345.4621 1072.224,-347.2315 1189.9999,-522.6869 1235.6633,-590.8281"/>
<polygon fill="#a0d17b" stroke="#a0d17b" points="1232.887,-592.9723 1241.3609,-599.3318 1238.7023,-589.076 1232.887,-592.9723"/>
</g>
<!-- hidebound.core&#45;&gt;hidebound.core.database_tools -->
<g id="edge55" class="edge">
<title>hidebound.core&#45;&gt;hidebound.core.database_tools</title>
<path fill="none" stroke="#a0d17b" d="M195.6968,-760.0403C205.5905,-695.2169 242.0924,-479.3488 295,-438.4621 332.8081,-409.2442 612.3819,-409.2003 785.9984,-412.1143"/>
<polygon fill="#a0d17b" stroke="#a0d17b" points="786.1858,-415.618 796.245,-412.2917 786.3071,-408.619 786.1858,-415.618"/>
</g>
<!-- hidebound.core&#45;&gt;hidebound.core.parser -->
<g id="edge56" class="edge">
<title>hidebound.core&#45;&gt;hidebound.core.parser</title>
<path fill="none" stroke="#a0d17b" d="M247.6139,-796.4819C271.7399,-804.4423 300.2814,-813.8595 325.4524,-822.1646"/>
<polygon fill="#a0d17b" stroke="#a0d17b" points="324.6868,-825.5976 335.2799,-825.4072 326.8801,-818.9501 324.6868,-825.5976"/>
</g>
<!-- hidebound.core&#45;&gt;hidebound.core.specification_base -->
<g id="edge57" class="edge">
<title>hidebound.core&#45;&gt;hidebound.core.specification_base</title>
<path fill="none" stroke="#a0d17b" d="M259.2695,-781.8514C333.024,-786.5321 446.8587,-796.7315 485,-816.4621 505.9517,-827.3004 499.3913,-846.0011 521,-855.4621 611.7903,-895.2129 645.1423,-862.5455 744,-855.4621 764.5827,-853.9873 786.3849,-851.5781 807.4514,-848.8059"/>
<polygon fill="#a0d17b" stroke="#a0d17b" points="807.9552,-852.2697 817.3973,-847.4638 807.0191,-845.3326 807.9552,-852.2697"/>
</g>
<!-- hidebound.core&#45;&gt;hidebound.core.specifications -->
<g id="edge58" class="edge">
<title>hidebound.core&#45;&gt;hidebound.core.specifications</title>
<path fill="none" stroke="#a0d17b" d="M199.746,-796.6162C221.0269,-853.7245 285.8771,-1026.4679 295,-1035.4621 371.5315,-1110.9138 415.3002,-1102.0307 521,-1121.4621 593.6495,-1134.8176 1063.1522,-1117.1903 1069,-1112.4621 1121.6411,-1069.8988 1055.7465,-1010.9035 1105,-964.4621 1108.6224,-961.0465 1112.5251,-957.9892 1116.6465,-955.2558"/>
<polygon fill="#a0d17b" stroke="#a0d17b" points="1118.5637,-958.1884 1125.3938,-950.089 1115.0036,-952.1613 1118.5637,-958.1884"/>
</g>
<!-- hidebound.core&#45;&gt;hidebound.core.test_specifications -->
<g id="edge59" class="edge">
<title>hidebound.core&#45;&gt;hidebound.core.test_specifications</title>
<path fill="none" stroke="#a0d17b" d="M199.304,-796.726C212.3473,-832.3343 245.2943,-911.9635 295,-962.4621 376.2861,-1045.0449 409.048,-1062.5605 521,-1092.4621 638.7241,-1123.9054 978.3947,-1154.938 1069,-1073.4621 1141.6939,-1008.0929 1036.4075,-926.1227 1105,-856.4621 1105.8044,-855.6452 1106.6246,-854.8483 1107.4599,-854.0711"/>
<polygon fill="#a0d17b" stroke="#a0d17b" points="1109.8489,-856.6385 1115.3647,-847.5926 1105.4117,-851.2244 1109.8489,-856.6385"/>
</g>
<!-- hidebound.core&#45;&gt;hidebound.core.tools -->
<g id="edge60" class="edge">
<title>hidebound.core&#45;&gt;hidebound.core.tools</title>
<path fill="none" stroke="#a0d17b" d="M196.649,-760.3761C208.743,-702.3681 249.3459,-522.7676 295,-488.4621 366.2472,-434.9253 471.7265,-438.2181 545.7551,-449.7571"/>
<polygon fill="#a0d17b" stroke="#a0d17b" points="545.5507,-453.2703 555.9853,-451.435 546.6837,-446.3626 545.5507,-453.2703"/>
</g>
<!-- hidebound.core&#45;&gt;hidebound.core.traits -->
<g id="edge61" class="edge">
<title>hidebound.core&#45;&gt;hidebound.core.traits</title>
<path fill="none" stroke="#a0d17b" d="M259.2059,-774.7513C386.4085,-767.6217 665.8986,-751.9565 819.0382,-743.3731"/>
<polygon fill="#a0d17b" stroke="#a0d17b" points="819.6024,-746.8471 829.3908,-742.7929 819.2106,-739.8581 819.6024,-746.8471"/>
</g>
<!-- hidebound.core&#45;&gt;hidebound.core.validators -->
<g id="edge62" class="edge">
<title>hidebound.core&#45;&gt;hidebound.core.validators</title>
<path fill="none" stroke="#a0d17b" d="M207.5351,-796.4712C225.682,-817.6621 258.7758,-852.2594 295,-870.4621 371.948,-909.1286 404.8039,-877.0824 485,-908.4621 502.462,-915.2947 504.184,-922.1659 521,-930.4621 536.7091,-938.2121 554.1843,-945.5273 570.5519,-951.8515"/>
<polygon fill="#a0d17b" stroke="#a0d17b" points="569.4481,-955.1762 580.0392,-955.4564 571.9345,-948.6326 569.4481,-955.1762"/>
</g>
<!-- pandas -->
<g id="node32" class="node">
<title>pandas</title>
<polygon fill="#343434" stroke="#343434" points="423,-373.4621 357,-373.4621 357,-337.4621 423,-337.4621 423,-373.4621"/>
<text text-anchor="middle" x="390" y="-351.7621" font-family="Courier,monospace" font-size="14.00" fill="#de958e">pandas</text>
</g>
<!-- pandas&#45;&gt;hidebound.core.database -->
<g id="edge63" class="edge">
<title>pandas&#45;&gt;hidebound.core.database</title>
<path fill="none" stroke="#de958e" d="M423.2849,-349.7668C551.5264,-328.9238 1025.234,-262.0963 1402,-342.4621 1446.941,-352.0482 1494.5171,-374.808 1526.7847,-392.3866"/>
<polygon fill="#de958e" stroke="#de958e" points="1525.4321,-395.6385 1535.8756,-397.4231 1528.8245,-389.5154 1525.4321,-395.6385"/>
</g>
<!-- pandas&#45;&gt;hidebound.core.database_test_base -->
<g id="edge64" class="edge">
<title>pandas&#45;&gt;hidebound.core.database_test_base</title>
<path fill="none" stroke="#de958e" d="M423.3064,-353.489C543.6616,-346.9042 954.9401,-329.2892 1069,-388.4621 1155.8857,-433.5373 1216.1112,-539.5341 1240.8781,-589.9234"/>
<polygon fill="#de958e" stroke="#de958e" points="1237.8648,-591.7332 1245.3561,-599.2253 1244.172,-588.6969 1237.8648,-591.7332"/>
</g>
<!-- pandas&#45;&gt;hidebound.core.database_tools -->
<g id="edge65" class="edge">
<title>pandas&#45;&gt;hidebound.core.database_tools</title>
<path fill="none" stroke="#de958e" d="M423.032,-359.1701C493.8183,-367.1161 663.6388,-386.1792 786.0613,-399.9217"/>
<polygon fill="#de958e" stroke="#de958e" points="785.9424,-403.4303 796.2705,-401.0677 786.7233,-396.474 785.9424,-403.4303"/>
</g>
<!-- pandas&#45;&gt;hidebound.core.tools -->
<g id="edge66" class="edge">
<title>pandas&#45;&gt;hidebound.core.tools</title>
<path fill="none" stroke="#de958e" d="M423.2101,-371.0743C465.0436,-390.7403 537.2129,-424.6673 584.9045,-447.0873"/>
<polygon fill="#de958e" stroke="#de958e" points="583.5613,-450.3233 594.1003,-451.4102 586.5394,-443.9883 583.5613,-450.3233"/>
</g>
<!-- pandas&#45;&gt;hidebound.server.components -->
<g id="edge67" class="edge">
<title>pandas&#45;&gt;hidebound.server.components</title>
<path fill="none" stroke="#de958e" d="M406.1331,-337.4452C425.3054,-315.8839 458.0862,-278.5407 485,-245.4621 501.6063,-225.0519 497.4286,-210.1555 521,-198.4621 608.6934,-154.9587 1308.2427,-176.315 1402,-204.4621 1548.9167,-248.5682 1594.0527,-272.0988 1694,-388.4621 1699.8333,-395.2535 1802.5369,-635.3684 1837.759,-717.9188"/>
<polygon fill="#de958e" stroke="#de958e" points="1834.5658,-719.3537 1841.7088,-727.1786 1841.0046,-716.6072 1834.5658,-719.3537"/>
</g>
<!-- numpy -->
<g id="node33" class="node">
<title>numpy</title>
<polygon fill="#343434" stroke="#343434" points="661.5,-243.4621 603.5,-243.4621 603.5,-207.4621 661.5,-207.4621 661.5,-243.4621"/>
<text text-anchor="middle" x="632.5" y="-221.7621" font-family="Courier,monospace" font-size="14.00" fill="#de958e">numpy</text>
</g>
<!-- numpy&#45;&gt;hidebound.core.database -->
<g id="edge68" class="edge">
<title>numpy&#45;&gt;hidebound.core.database</title>
<path fill="none" stroke="#de958e" d="M661.6934,-220.875C766.9535,-205.6717 1134.8689,-164.1769 1402,-279.4621 1460.5454,-304.7284 1514.6106,-357.6377 1543.6811,-389.5029"/>
<polygon fill="#de958e" stroke="#de958e" points="1541.2358,-392.0184 1550.5208,-397.1212 1546.4445,-387.3419 1541.2358,-392.0184"/>
</g>
<!-- numpy&#45;&gt;hidebound.core.database_test_base -->
<g id="edge69" class="edge">
<title>numpy&#45;&gt;hidebound.core.database_test_base</title>
<path fill="none" stroke="#de958e" d="M661.6889,-228.1933C748.842,-236.8635 1005.0848,-266.2533 1069,-317.4621 1099.1121,-341.5878 1086.1767,-362.7801 1105,-396.4621 1145.9677,-469.7688 1203.5747,-550.3273 1233.5736,-590.9278"/>
<polygon fill="#de958e" stroke="#de958e" points="1230.9435,-593.2568 1239.7138,-599.201 1236.5646,-589.085 1230.9435,-593.2568"/>
</g>
<!-- numpy&#45;&gt;hidebound.core.database_tools -->
<g id="edge70" class="edge">
<title>numpy&#45;&gt;hidebound.core.database_tools</title>
<path fill="none" stroke="#de958e" d="M660.2339,-243.5081C713.1786,-277.9584 828.6424,-353.089 887.8643,-391.6238"/>
<polygon fill="#de958e" stroke="#de958e" points="886.2333,-394.7382 896.524,-397.2585 890.0511,-388.8709 886.2333,-394.7382"/>
</g>
<!-- numpy&#45;&gt;hidebound.server.api -->
<g id="edge71" class="edge">
<title>numpy&#45;&gt;hidebound.server.api</title>
<path fill="none" stroke="#de958e" d="M661.6651,-218.3703C691.2631,-211.542 738.5071,-201.652 780,-197.4621 881.0466,-187.2585 1613.3481,-126.7385 1694,-188.4621 1742.6309,-225.6798 1699.0338,-268.6301 1730,-321.4621 1751.9541,-358.9183 1789.0322,-392.5358 1816.0759,-414.0197"/>
<polygon fill="#de958e" stroke="#de958e" points="1814.0799,-416.9014 1824.1188,-420.2883 1818.3831,-411.3803 1814.0799,-416.9014"/>
</g>
<!-- humanfriendly -->
<g id="node34" class="node">
<title>humanfriendly</title>
<polygon fill="#343434" stroke="#343434" points="452,-533.4621 328,-533.4621 328,-497.4621 452,-497.4621 452,-533.4621"/>
<text text-anchor="middle" x="390" y="-511.7621" font-family="Courier,monospace" font-size="14.00" fill="#de958e">humanfriendly</text>
</g>
<!-- humanfriendly&#45;&gt;hidebound.core.tools -->
<g id="edge72" class="edge">
<title>humanfriendly&#45;&gt;hidebound.core.tools</title>
<path fill="none" stroke="#de958e" d="M452.1349,-503.6757C476.2564,-499.1 504.5106,-493.7405 531.4039,-488.6391"/>
<polygon fill="#de958e" stroke="#de958e" points="532.0677,-492.0756 541.2402,-486.7732 530.7631,-485.1983 532.0677,-492.0756"/>
</g>
<!-- schematics.exceptions -->
<g id="node35" class="node">
<title>schematics.exceptions</title>
<polygon fill="#343434" stroke="#343434" points="485,-598.4621 295,-598.4621 295,-562.4621 485,-562.4621 485,-598.4621"/>
<text text-anchor="middle" x="390" y="-576.7621" font-family="Courier,monospace" font-size="14.00" fill="#de958e">schematics.exceptions</text>
</g>
<!-- schematics.exceptions&#45;&gt;hidebound.core.config -->
<g id="edge73" class="edge">
<title>schematics.exceptions&#45;&gt;hidebound.core.config</title>
<path fill="none" stroke="#de958e" d="M485.0809,-585.7502C617.997,-594.9991 865.8703,-619.0379 1069,-677.4621 1119.93,-692.1106 1175.0539,-718.0569 1211.6546,-736.8476"/>
<polygon fill="#de958e" stroke="#de958e" points="1210.0584,-739.9624 1220.547,-741.4594 1213.2813,-733.7484 1210.0584,-739.9624"/>
</g>
<!-- schematics.exceptions&#45;&gt;hidebound.core.database_tools -->
<g id="edge74" class="edge">
<title>schematics.exceptions&#45;&gt;hidebound.core.database_tools</title>
<path fill="none" stroke="#de958e" d="M442.8338,-562.4332C466.5566,-554.7258 495.0032,-546.0145 521,-539.4621 618.8758,-514.7929 647.7567,-526.8836 744,-496.4621 792.553,-481.115 845.4049,-456.3784 881.2934,-438.2743"/>
<polygon fill="#de958e" stroke="#de958e" points="883.1691,-441.247 890.4931,-433.5912 879.9935,-435.0087 883.1691,-441.247"/>
</g>
<!-- schematics.exceptions&#45;&gt;hidebound.core.specification_base -->
<g id="edge75" class="edge">
<title>schematics.exceptions&#45;&gt;hidebound.core.specification_base</title>
<path fill="none" stroke="#de958e" d="M398.1224,-598.64C423.1278,-654.2062 498.6094,-818.8664 521,-832.4621 561.9168,-857.307 674.1398,-854.7704 769.8757,-847.0067"/>
<polygon fill="#de958e" stroke="#de958e" points="770.2998,-850.4835 779.974,-846.1637 769.7174,-843.5078 770.2998,-850.4835"/>
</g>
<!-- schematics.exceptions&#45;&gt;hidebound.core.tools -->
<g id="edge76" class="edge">
<title>schematics.exceptions&#45;&gt;hidebound.core.tools</title>
<path fill="none" stroke="#de958e" d="M448.0049,-562.2884C460.7865,-556.9417 473.8312,-550.3579 485,-542.4621 504.8013,-528.4636 500.5172,-514.443 521,-501.4621 527.0229,-497.6451 533.5125,-494.2719 540.2247,-491.2926"/>
<polygon fill="#de958e" stroke="#de958e" points="541.583,-494.5185 549.4927,-487.4695 538.9136,-488.0474 541.583,-494.5185"/>
</g>
<!-- schematics.exceptions&#45;&gt;hidebound.core.validators -->
<g id="edge77" class="edge">
<title>schematics.exceptions&#45;&gt;hidebound.core.validators</title>
<path fill="none" stroke="#de958e" d="M395.7328,-598.6956C411.0733,-645.7799 456.3344,-774.1305 521,-865.4621 543.8058,-897.6722 577.007,-928.3729 601.2472,-948.7506"/>
<polygon fill="#de958e" stroke="#de958e" points="599.1626,-951.5686 609.0963,-955.2528 603.6282,-946.178 599.1626,-951.5686"/>
</g>
<!-- schematics.exceptions&#45;&gt;hidebound.server.api -->
<g id="edge78" class="edge">
<title>schematics.exceptions&#45;&gt;hidebound.server.api</title>
<path fill="none" stroke="#de958e" d="M485.1989,-571.1998C747.498,-545.6798 1479.0071,-474.5087 1748.3073,-448.3075"/>
<polygon fill="#de958e" stroke="#de958e" points="1748.8504,-451.7713 1758.4644,-447.3192 1748.1725,-444.8042 1748.8504,-451.7713"/>
</g>
<!-- pyparsing -->
<g id="node36" class="node">
<title>pyparsing</title>
<polygon fill="#343434" stroke="#343434" points="238.5,-999.4621 147.5,-999.4621 147.5,-963.4621 238.5,-963.4621 238.5,-999.4621"/>
<text text-anchor="middle" x="193" y="-977.7621" font-family="Courier,monospace" font-size="14.00" fill="#de958e">pyparsing</text>
</g>
<!-- pyparsing&#45;&gt;hidebound.core.parser -->
<g id="edge79" class="edge">
<title>pyparsing&#45;&gt;hidebound.core.parser</title>
<path fill="none" stroke="#de958e" d="M218.0456,-963.3138C238.6295,-948.4525 268.595,-926.9411 295,-908.4621 314.6987,-894.6763 336.8646,-879.4916 354.8279,-867.2679"/>
<polygon fill="#de958e" stroke="#de958e" points="356.976,-870.0398 363.2794,-861.524 353.0413,-864.2503 356.976,-870.0398"/>
</g>
<!-- pyparsing&#45;&gt;hidebound.core.specification_base -->
<g id="edge80" class="edge">
<title>pyparsing&#45;&gt;hidebound.core.specification_base</title>
<path fill="none" stroke="#de958e" d="M238.547,-990.2464C356.1848,-1011.8357 666.3919,-1061.4555 744,-1000.4621 794.7303,-960.5924 736.2543,-903.9688 778.7842,-854.7878"/>
<polygon fill="#de958e" stroke="#de958e" points="781.3328,-857.1876 785.817,-847.5885 776.3254,-852.2961 781.3328,-857.1876"/>
</g>
<!-- pyparsing&#45;&gt;hidebound.core.validators -->
<g id="edge81" class="edge">
<title>pyparsing&#45;&gt;hidebound.core.validators</title>
<path fill="none" stroke="#de958e" d="M238.7904,-980.6286C302.5763,-979.4675 420.4902,-977.3212 510.708,-975.679"/>
<polygon fill="#de958e" stroke="#de958e" points="510.7984,-979.178 520.733,-975.4965 510.671,-972.1792 510.7984,-979.178"/>
</g>
<!-- schematics -->
<g id="node37" class="node">
<title>schematics</title>
<polygon fill="#343434" stroke="#343434" points="682,-823.4621 583,-823.4621 583,-787.4621 682,-787.4621 682,-823.4621"/>
<text text-anchor="middle" x="632.5" y="-801.7621" font-family="Courier,monospace" font-size="14.00" fill="#de958e">schematics</text>
</g>
<!-- schematics&#45;&gt;hidebound.core.config -->
<g id="edge82" class="edge">
<title>schematics&#45;&gt;hidebound.core.config</title>
<path fill="none" stroke="#de958e" d="M682.0083,-801.7948C782.5767,-794.3453 1012.6979,-777.2993 1148.2598,-767.2576"/>
<polygon fill="#de958e" stroke="#de958e" points="1148.5419,-770.7464 1158.256,-766.5172 1148.0247,-763.7656 1148.5419,-770.7464"/>
</g>
<!-- schematics&#45;&gt;hidebound.core.specification_base -->
<g id="edge83" class="edge">
<title>schematics&#45;&gt;hidebound.core.specification_base</title>
<path fill="none" stroke="#de958e" d="M682.0338,-809.5333C706.6266,-811.5547 737.8291,-814.1193 769.5958,-816.7302"/>
<polygon fill="#de958e" stroke="#de958e" points="769.6687,-820.2479 779.9219,-817.5789 770.2422,-813.2715 769.6687,-820.2479"/>
</g>
<!-- schematics.types -->
<g id="node38" class="node">
<title>schematics.types</title>
<polygon fill="#343434" stroke="#343434" points="707,-1083.4621 558,-1083.4621 558,-1047.4621 707,-1047.4621 707,-1083.4621"/>
<text text-anchor="middle" x="632.5" y="-1061.7621" font-family="Courier,monospace" font-size="14.00" fill="#de958e">schematics.types</text>
</g>
<!-- schematics.types&#45;&gt;hidebound.core.config -->
<g id="edge84" class="edge">
<title>schematics.types&#45;&gt;hidebound.core.config</title>
<path fill="none" stroke="#de958e" d="M707.0898,-1052.8708C730.4145,-1049.0557 756.2568,-1044.9539 780,-1041.4621 844.0857,-1032.0373 1022.145,-1048.188 1069,-1003.4621 1134.6475,-940.7975 1044.2701,-869.9033 1105,-802.4621 1116.7109,-789.457 1132.0897,-780.2873 1148.5084,-773.8427"/>
<polygon fill="#de958e" stroke="#de958e" points="1150.0352,-777.014 1158.2757,-770.3548 1147.6811,-770.4217 1150.0352,-777.014"/>
</g>
<!-- schematics.types&#45;&gt;hidebound.core.database_test_base -->
<g id="edge85" class="edge">
<title>schematics.types&#45;&gt;hidebound.core.database_test_base</title>
<path fill="none" stroke="#de958e" d="M707.0627,-1048.7395C719.7485,-1044.5899 732.5211,-1039.5422 744,-1033.4621 762.4049,-1023.7133 762.6089,-1014.9219 780,-1003.4621 900.3299,-924.1707 977.1155,-967.4741 1069,-856.4621 1105.5909,-812.2541 1072.7295,-779.9158 1105,-732.4621 1132.016,-692.735 1177.1226,-660.6445 1210.5482,-640.5593"/>
<polygon fill="#de958e" stroke="#de958e" points="1212.3631,-643.5523 1219.208,-635.4654 1208.814,-637.5187 1212.3631,-643.5523"/>
</g>
<!-- schematics.types&#45;&gt;hidebound.core.specification_base -->
<g id="edge86" class="edge">
<title>schematics.types&#45;&gt;hidebound.core.specification_base</title>
<path fill="none" stroke="#de958e" d="M707.1955,-1052.2984C720.2798,-1047.7605 733.1567,-1041.6607 744,-1033.4621 768.2007,-1015.164 761.2103,-999.2831 780,-975.4621 816.2914,-929.4527 865.5266,-882.3567 896.1379,-854.5242"/>
<polygon fill="#de958e" stroke="#de958e" points="898.7983,-856.8377 903.8756,-847.5387 894.1076,-851.6418 898.7983,-856.8377"/>
</g>
<!-- schematics.types&#45;&gt;hidebound.core.specifications -->
<g id="edge87" class="edge">
<title>schematics.types&#45;&gt;hidebound.core.specifications</title>
<path fill="none" stroke="#de958e" d="M678.0369,-1083.5713C763.8402,-1114.4208 951.3849,-1165.8868 1069,-1079.4621 1112.1582,-1047.749 1064.8642,-999.9228 1105,-964.4621 1108.6728,-961.2171 1112.6016,-958.3021 1116.7293,-955.6863"/>
<polygon fill="#de958e" stroke="#de958e" points="1118.4954,-958.7085 1125.4632,-950.7272 1115.039,-952.6212 1118.4954,-958.7085"/>
</g>
<!-- schematics.types&#45;&gt;hidebound.core.test_specifications -->
<g id="edge88" class="edge">
<title>schematics.types&#45;&gt;hidebound.core.test_specifications</title>
<path fill="none" stroke="#de958e" d="M707.3248,-1071.9465C817.7296,-1079.8039 1016.8579,-1086.8967 1069,-1041.4621 1132.153,-986.433 1045.4052,-915.326 1105,-856.4621 1105.9438,-855.5298 1106.9083,-854.6239 1107.8924,-853.7437"/>
<polygon fill="#de958e" stroke="#de958e" points="1110.1306,-856.4359 1115.8005,-847.4858 1105.7868,-850.9466 1110.1306,-856.4359"/>
</g>
<!-- wrapt -->
<g id="node39" class="node">
<title>wrapt</title>
<polygon fill="#343434" stroke="#343434" points="419,-953.4621 361,-953.4621 361,-917.4621 419,-917.4621 419,-953.4621"/>
<text text-anchor="middle" x="390" y="-931.7621" font-family="Courier,monospace" font-size="14.00" fill="#de958e">wrapt</text>
</g>
<!-- wrapt&#45;&gt;hidebound.core.validators -->
<g id="edge89" class="edge">
<title>wrapt&#45;&gt;hidebound.core.validators</title>
<path fill="none" stroke="#de958e" d="M419.2512,-940.0458C442.4686,-943.684 476.6038,-949.033 510.7879,-954.3897"/>
<polygon fill="#de958e" stroke="#de958e" points="510.4807,-957.8842 520.9021,-955.9746 511.5645,-950.9686 510.4807,-957.8842"/>
</g>
<!-- skimage.io -->
<g id="node40" class="node">
<title>skimage.io</title>
<polygon fill="#343434" stroke="#343434" points="682,-693.4621 583,-693.4621 583,-657.4621 682,-657.4621 682,-693.4621"/>
<text text-anchor="middle" x="632.5" y="-671.7621" font-family="Courier,monospace" font-size="14.00" fill="#de958e">skimage.io</text>
</g>
<!-- skimage.io&#45;&gt;hidebound.core.database_test_base -->
<g id="edge90" class="edge">
<title>skimage.io&#45;&gt;hidebound.core.database_test_base</title>
<path fill="none" stroke="#de958e" d="M682.1771,-660.3427C710.5503,-652.3804 746.9534,-643.2893 780,-638.4621 885.662,-623.0275 1005.8739,-617.8448 1098.7327,-616.4864"/>
<polygon fill="#de958e" stroke="#de958e" points="1098.8197,-619.9857 1108.7723,-616.3528 1098.7266,-612.9863 1098.8197,-619.9857"/>
</g>
<!-- skimage.io&#45;&gt;hidebound.core.traits -->
<g id="edge91" class="edge">
<title>skimage.io&#45;&gt;hidebound.core.traits</title>
<path fill="none" stroke="#de958e" d="M682.0338,-685.9795C722.2974,-694.5286 780.278,-706.8396 829.4452,-717.2792"/>
<polygon fill="#de958e" stroke="#de958e" points="828.964,-720.755 839.4729,-719.4084 830.418,-713.9076 828.964,-720.755"/>
</g>
</g>
</svg>
