<?xml version="1.0" encoding="UTF-8" standalone="no"?>
<!DOCTYPE svg PUBLIC "-//W3C//DTD SVG 1.1//EN"
 "http://www.w3.org/Graphics/SVG/1.1/DTD/svg11.dtd">
<!-- Generated by graphviz version 2.40.1 (20161225.0304)
 -->
<!-- Title: %3 Pages: 1 -->
<svg width="2236pt" height="1656pt"
 viewBox="0.00 0.00 2236.00 1656.09" xmlns="http://www.w3.org/2000/svg" xmlns:xlink="http://www.w3.org/1999/xlink">
<g id="graph0" class="graph" transform="scale(1 1) rotate(0) translate(4 1652.0919)">
<title>%3</title>
<polygon fill="#242424" stroke="transparent" points="-4,4 -4,-1652.0919 2232,-1652.0919 2232,4 -4,4"/>
<!-- cli -->
<g id="node1" class="node">
<title>cli</title>
<polygon fill="#343434" stroke="#343434" points="72.5,-774 18.5,-774 18.5,-738 72.5,-738 72.5,-774"/>
<text text-anchor="middle" x="45.5" y="-752.3" font-family="Courier,monospace" font-size="14.00" fill="#b6ecf3">cli</text>
</g>
<!-- hidebound.core.config -->
<g id="node2" class="node">
<title>hidebound.core.config</title>
<polygon fill="#343434" stroke="#343434" points="1410,-420 1220,-420 1220,-384 1410,-384 1410,-420"/>
<text text-anchor="middle" x="1315" y="-398.3" font-family="Courier,monospace" font-size="14.00" fill="#b6ecf3">hidebound.core.config</text>
</g>
<!-- hidebound.core.database -->
<g id="node3" class="node">
<title>hidebound.core.database</title>
<polygon fill="#343434" stroke="#343434" points="1710,-932 1504,-932 1504,-896 1710,-896 1710,-932"/>
<text text-anchor="middle" x="1607" y="-910.3" font-family="Courier,monospace" font-size="14.00" fill="#b6ecf3">hidebound.core.database</text>
</g>
<!-- hidebound.core.config&#45;&gt;hidebound.core.database -->
<g id="edge1" class="edge">
<title>hidebound.core.config&#45;&gt;hidebound.core.database</title>
<path fill="none" stroke="#b6ecf3" d="M1355.824,-420.089C1385.3747,-435.4978 1423.4282,-460.6269 1443,-495 1485.737,-570.057 1422.747,-816.4592 1479,-882 1483.6108,-887.3721 1488.9739,-891.9134 1494.8405,-895.7463"/>
<polygon fill="#b6ecf3" stroke="#b6ecf3" points="1493.3516,-898.9273 1503.7669,-900.8694 1496.836,-892.8561 1493.3516,-898.9273"/>
</g>
<!-- hidebound.server.app -->
<g id="node15" class="node">
<title>hidebound.server.app</title>
<polygon fill="#343434" stroke="#343434" points="2228,-1100 2046,-1100 2046,-1064 2228,-1064 2228,-1100"/>
<text text-anchor="middle" x="2137" y="-1078.3" font-family="Courier,monospace" font-size="14.00" fill="#b6ecf3">hidebound.server.app</text>
</g>
<!-- hidebound.core.config&#45;&gt;hidebound.server.app -->
<g id="edge2" class="edge">
<title>hidebound.core.config&#45;&gt;hidebound.server.app</title>
<path fill="none" stroke="#b6ecf3" d="M1410.2432,-419.0756C1421.7743,-423.2705 1432.9957,-428.4947 1443,-435 1639.8013,-562.9704 1583.659,-707.5415 1771,-849 1862.7552,-918.283 1915.2674,-882.8472 2010,-948 2053.9869,-978.2522 2094.4962,-1025.8621 2117.4331,-1055.4371"/>
<polygon fill="#b6ecf3" stroke="#b6ecf3" points="2114.845,-1057.8146 2123.6984,-1063.6342 2120.4065,-1053.5637 2114.845,-1057.8146"/>
</g>
<!-- hidebound.server.api -->
<g id="node14" class="node">
<title>hidebound.server.api</title>
<polygon fill="#343434" stroke="#343434" points="1981.5,-993 1799.5,-993 1799.5,-957 1981.5,-957 1981.5,-993"/>
<text text-anchor="middle" x="1890.5" y="-971.3" font-family="Courier,monospace" font-size="14.00" fill="#b6ecf3">hidebound.server.api</text>
</g>
<!-- hidebound.core.database&#45;&gt;hidebound.server.api -->
<g id="edge3" class="edge">
<title>hidebound.core.database&#45;&gt;hidebound.server.api</title>
<path fill="none" stroke="#b6ecf3" d="M1690.9087,-932.0544C1724.1965,-939.2169 1762.6212,-947.4846 1796.8137,-954.8417"/>
<polygon fill="#b6ecf3" stroke="#b6ecf3" points="1796.2941,-958.31 1806.8066,-956.9919 1797.7667,-951.4666 1796.2941,-958.31"/>
</g>
<!-- hidebound.core.database_tools -->
<g id="node4" class="node">
<title>hidebound.core.database_tools</title>
<polygon fill="#343434" stroke="#343434" points="1443,-940 1187,-940 1187,-904 1443,-904 1443,-940"/>
<text text-anchor="middle" x="1315" y="-918.3" font-family="Courier,monospace" font-size="14.00" fill="#b6ecf3">hidebound.core.database_tools</text>
</g>
<!-- hidebound.core.database_tools&#45;&gt;hidebound.core.database -->
<g id="edge4" class="edge">
<title>hidebound.core.database_tools&#45;&gt;hidebound.core.database</title>
<path fill="none" stroke="#b6ecf3" d="M1443.0755,-918.4911C1459.826,-918.0322 1476.8962,-917.5645 1493.386,-917.1127"/>
<polygon fill="#b6ecf3" stroke="#b6ecf3" points="1493.6698,-920.6063 1503.5701,-916.8337 1493.478,-913.609 1493.6698,-920.6063"/>
</g>
<!-- hidebound.core.parser -->
<g id="node5" class="node">
<title>hidebound.core.parser</title>
<polygon fill="#343434" stroke="#343434" points="485,-672 295,-672 295,-636 485,-636 485,-672"/>
<text text-anchor="middle" x="390" y="-650.3" font-family="Courier,monospace" font-size="14.00" fill="#b6ecf3">hidebound.core.parser</text>
</g>
<!-- hidebound.core.parser&#45;&gt;hidebound.core.database_tools -->
<g id="edge5" class="edge">
<title>hidebound.core.parser&#45;&gt;hidebound.core.database_tools</title>
<path fill="none" stroke="#b6ecf3" d="M485.2914,-654.905C666.253,-658.5111 1050.5622,-675.7989 1151,-757 1187.7334,-786.6979 1155.738,-821.5882 1187,-857 1203.5256,-875.7192 1226.7209,-889.7421 1248.8344,-899.8774"/>
<polygon fill="#b6ecf3" stroke="#b6ecf3" points="1247.6583,-903.1832 1258.2227,-903.9855 1250.4645,-896.7703 1247.6583,-903.1832"/>
</g>
<!-- hidebound.core.specification_base -->
<g id="node6" class="node">
<title>hidebound.core.specification_base</title>
<polygon fill="#343434" stroke="#343434" points="1143,-603 854,-603 854,-567 1143,-567 1143,-603"/>
<text text-anchor="middle" x="998.5" y="-581.3" font-family="Courier,monospace" font-size="14.00" fill="#b6ecf3">hidebound.core.specification_base</text>
</g>
<!-- hidebound.core.parser&#45;&gt;hidebound.core.specification_base -->
<g id="edge6" class="edge">
<title>hidebound.core.parser&#45;&gt;hidebound.core.specification_base</title>
<path fill="none" stroke="#b6ecf3" d="M485.0781,-643.2188C580.9579,-632.3466 730.5534,-615.3834 843.5835,-602.5665"/>
<polygon fill="#b6ecf3" stroke="#b6ecf3" points="844.1733,-606.0222 853.7153,-601.4177 843.3845,-599.0668 844.1733,-606.0222"/>
</g>
<!-- hidebound.core.validators -->
<g id="node10" class="node">
<title>hidebound.core.validators</title>
<polygon fill="#343434" stroke="#343434" points="777,-512 554,-512 554,-476 777,-476 777,-512"/>
<text text-anchor="middle" x="665.5" y="-490.3" font-family="Courier,monospace" font-size="14.00" fill="#b6ecf3">hidebound.core.validators</text>
</g>
<!-- hidebound.core.parser&#45;&gt;hidebound.core.validators -->
<g id="edge7" class="edge">
<title>hidebound.core.parser&#45;&gt;hidebound.core.validators</title>
<path fill="none" stroke="#b6ecf3" d="M421.0678,-635.957C471.1894,-606.8482 569.8642,-549.5416 625.2851,-517.3553"/>
<polygon fill="#b6ecf3" stroke="#b6ecf3" points="627.2333,-520.2713 634.123,-512.2226 623.7178,-514.2181 627.2333,-520.2713"/>
</g>
<!-- hidebound.core.specification_base&#45;&gt;hidebound.core.config -->
<g id="edge8" class="edge">
<title>hidebound.core.specification_base&#45;&gt;hidebound.core.config</title>
<path fill="none" stroke="#b6ecf3" d="M1029.7134,-566.9524C1087.3869,-533.6057 1210.5813,-462.3748 1274.5579,-425.3836"/>
<polygon fill="#b6ecf3" stroke="#b6ecf3" points="1276.6474,-428.2184 1283.5526,-420.1829 1273.1435,-422.1585 1276.6474,-428.2184"/>
</g>
<!-- hidebound.core.specification_base&#45;&gt;hidebound.core.database -->
<g id="edge9" class="edge">
<title>hidebound.core.specification_base&#45;&gt;hidebound.core.database</title>
<path fill="none" stroke="#b6ecf3" d="M1055.5249,-566.9078C1149.4528,-541.0389 1336.8511,-506.6147 1443,-604 1534.8046,-688.2253 1396.1677,-788.9367 1479,-882 1483.6556,-887.2307 1489.0246,-891.6684 1494.8702,-895.428"/>
<polygon fill="#b6ecf3" stroke="#b6ecf3" points="1493.3233,-898.5744 1503.7482,-900.4644 1496.7773,-892.4858 1493.3233,-898.5744"/>
</g>
<!-- hidebound.core.specification_base&#45;&gt;hidebound.core.database_tools -->
<g id="edge10" class="edge">
<title>hidebound.core.specification_base&#45;&gt;hidebound.core.database_tools</title>
<path fill="none" stroke="#b6ecf3" d="M1133.8954,-603.0397C1140.1255,-606.9719 1145.8942,-611.5894 1151,-617 1225.0271,-695.4459 1123.8998,-769.5235 1187,-857 1200.7807,-876.1043 1221.8328,-889.962 1242.9089,-899.8431"/>
<polygon fill="#b6ecf3" stroke="#b6ecf3" points="1241.6825,-903.1278 1252.2436,-903.9727 1244.5145,-896.7262 1241.6825,-903.1278"/>
</g>
<!-- hidebound.core.specifications -->
<g id="node7" class="node">
<title>hidebound.core.specifications</title>
<polygon fill="#343434" stroke="#343434" points="1443,-649 1187,-649 1187,-613 1443,-613 1443,-649"/>
<text text-anchor="middle" x="1315" y="-627.3" font-family="Courier,monospace" font-size="14.00" fill="#b6ecf3">hidebound.core.specifications</text>
</g>
<!-- hidebound.core.specification_base&#45;&gt;hidebound.core.specifications -->
<g id="edge11" class="edge">
<title>hidebound.core.specification_base&#45;&gt;hidebound.core.specifications</title>
<path fill="none" stroke="#b6ecf3" d="M1122.6808,-603.0484C1141.7789,-605.8241 1161.5719,-608.7008 1180.8746,-611.5063"/>
<polygon fill="#b6ecf3" stroke="#b6ecf3" points="1180.5182,-614.9912 1190.9176,-612.9659 1181.525,-608.0639 1180.5182,-614.9912"/>
</g>
<!-- hidebound.core.tools -->
<g id="node8" class="node">
<title>hidebound.core.tools</title>
<polygon fill="#343434" stroke="#343434" points="756.5,-924 574.5,-924 574.5,-888 756.5,-888 756.5,-924"/>
<text text-anchor="middle" x="665.5" y="-902.3" font-family="Courier,monospace" font-size="14.00" fill="#b6ecf3">hidebound.core.tools</text>
</g>
<!-- hidebound.core.tools&#45;&gt;hidebound.core.database -->
<g id="edge12" class="edge">
<title>hidebound.core.tools&#45;&gt;hidebound.core.database</title>
<path fill="none" stroke="#b6ecf3" d="M756.563,-900.4816C901.8536,-892.6294 1195.02,-880.6832 1443,-895 1459.5051,-895.9529 1476.898,-897.4409 1493.941,-899.1746"/>
<polygon fill="#b6ecf3" stroke="#b6ecf3" points="1493.6153,-902.6595 1503.9258,-900.2215 1494.3453,-895.6977 1493.6153,-902.6595"/>
</g>
<!-- hidebound.core.tools&#45;&gt;hidebound.core.database_tools -->
<g id="edge13" class="edge">
<title>hidebound.core.tools&#45;&gt;hidebound.core.database_tools</title>
<path fill="none" stroke="#b6ecf3" d="M756.8368,-908.25C866.0375,-910.9401 1049.9012,-915.4695 1176.5862,-918.5903"/>
<polygon fill="#b6ecf3" stroke="#b6ecf3" points="1176.667,-922.0932 1186.7501,-918.8407 1176.8394,-915.0953 1176.667,-922.0932"/>
</g>
<!-- hidebound.core.tools&#45;&gt;hidebound.core.specification_base -->
<g id="edge14" class="edge">
<title>hidebound.core.tools&#45;&gt;hidebound.core.specification_base</title>
<path fill="none" stroke="#b6ecf3" d="M695.904,-887.9594C726.5376,-868.982 774.2622,-837.1723 810,-803 828.7636,-785.0584 829.3807,-776.9443 846,-757 890.3467,-703.7812 944.6684,-643.6535 975.0486,-610.4546"/>
<polygon fill="#b6ecf3" stroke="#b6ecf3" points="977.6987,-612.7432 981.8761,-603.0067 972.5387,-608.013 977.6987,-612.7432"/>
</g>
<!-- hidebound.core.traits -->
<g id="node9" class="node">
<title>hidebound.core.traits</title>
<polygon fill="#343434" stroke="#343434" points="1093.5,-802 903.5,-802 903.5,-766 1093.5,-766 1093.5,-802"/>
<text text-anchor="middle" x="998.5" y="-780.3" font-family="Courier,monospace" font-size="14.00" fill="#b6ecf3">hidebound.core.traits</text>
</g>
<!-- hidebound.core.tools&#45;&gt;hidebound.core.traits -->
<g id="edge15" class="edge">
<title>hidebound.core.tools&#45;&gt;hidebound.core.traits</title>
<path fill="none" stroke="#b6ecf3" d="M714.6353,-887.9985C774.5203,-866.0586 875.6186,-829.0196 939.6118,-805.5746"/>
<polygon fill="#b6ecf3" stroke="#b6ecf3" points="940.9775,-808.8019 949.1631,-802.0754 938.5694,-802.2291 940.9775,-808.8019"/>
</g>
<!-- hidebound.core.traits&#45;&gt;hidebound.core.specifications -->
<g id="edge16" class="edge">
<title>hidebound.core.traits&#45;&gt;hidebound.core.specifications</title>
<path fill="none" stroke="#b6ecf3" d="M1035.7373,-765.999C1093.5564,-738.0486 1204.8354,-684.2549 1268.0691,-653.687"/>
<polygon fill="#b6ecf3" stroke="#b6ecf3" points="1269.9338,-656.6731 1277.4138,-649.1697 1266.8872,-650.3708 1269.9338,-656.6731"/>
</g>
<!-- hidebound.core.validators&#45;&gt;hidebound.core.config -->
<g id="edge17" class="edge">
<title>hidebound.core.validators&#45;&gt;hidebound.core.config</title>
<path fill="none" stroke="#b6ecf3" d="M777.2039,-482.9155C875.8312,-472.536 1023.3731,-455.5636 1151,-435 1173.9788,-431.2976 1198.6426,-426.6793 1221.6845,-422.0813"/>
<polygon fill="#b6ecf3" stroke="#b6ecf3" points="1222.6846,-425.4502 1231.7966,-420.0444 1221.3023,-418.5881 1222.6846,-425.4502"/>
</g>
<!-- hidebound.core.validators&#45;&gt;hidebound.core.specification_base -->
<g id="edge18" class="edge">
<title>hidebound.core.validators&#45;&gt;hidebound.core.specification_base</title>
<path fill="none" stroke="#b6ecf3" d="M771.7904,-512.059C784.9417,-515.8779 797.9759,-520.475 810,-526 828.1733,-534.3505 827.7806,-544.7505 846,-553 855.2443,-557.1857 865.0538,-560.8318 875.0644,-564.0066"/>
<polygon fill="#b6ecf3" stroke="#b6ecf3" points="874.1276,-567.3796 884.7119,-566.9083 876.1438,-560.6763 874.1276,-567.3796"/>
</g>
<!-- hidebound.core.validators&#45;&gt;hidebound.core.specifications -->
<g id="edge19" class="edge">
<title>hidebound.core.validators&#45;&gt;hidebound.core.specifications</title>
<path fill="none" stroke="#b6ecf3" d="M777.2241,-507.0126C909.3492,-522.6704 1115.8666,-548.0899 1151,-558 1194.1343,-570.167 1240.5583,-591.6997 1272.9651,-608.2367"/>
<polygon fill="#b6ecf3" stroke="#b6ecf3" points="1271.6446,-611.494 1282.1356,-612.9741 1274.8575,-605.2748 1271.6446,-611.494"/>
</g>
<!-- hidebound.exporters.girder_exporter -->
<g id="node12" class="node">
<title>hidebound.exporters.girder_exporter</title>
<polygon fill="#343434" stroke="#343434" points="1151,-397 846,-397 846,-361 1151,-361 1151,-397"/>
<text text-anchor="middle" x="998.5" y="-375.3" font-family="Courier,monospace" font-size="14.00" fill="#b6ecf3">hidebound.exporters.girder_exporter</text>
</g>
<!-- hidebound.core.validators&#45;&gt;hidebound.exporters.girder_exporter -->
<g id="edge20" class="edge">
<title>hidebound.core.validators&#45;&gt;hidebound.exporters.girder_exporter</title>
<path fill="none" stroke="#b6ecf3" d="M777.1486,-476.3836C788.3574,-473.6503 799.4766,-470.5363 810,-467 826.9567,-461.3019 829.8689,-456.7323 846,-449 880.134,-432.6381 918.9052,-414.8519 948.8125,-401.3026"/>
<polygon fill="#b6ecf3" stroke="#b6ecf3" points="950.5249,-404.3695 958.1941,-397.0595 947.6403,-397.9915 950.5249,-404.3695"/>
</g>
<!-- hidebound.exporters.s3_exporter -->
<g id="node13" class="node">
<title>hidebound.exporters.s3_exporter</title>
<polygon fill="#343434" stroke="#343434" points="1134.5,-305 862.5,-305 862.5,-269 1134.5,-269 1134.5,-305"/>
<text text-anchor="middle" x="998.5" y="-283.3" font-family="Courier,monospace" font-size="14.00" fill="#b6ecf3">hidebound.exporters.s3_exporter</text>
</g>
<!-- hidebound.core.validators&#45;&gt;hidebound.exporters.s3_exporter -->
<g id="edge21" class="edge">
<title>hidebound.core.validators&#45;&gt;hidebound.exporters.s3_exporter</title>
<path fill="none" stroke="#b6ecf3" d="M777.0802,-486.1453C789.1308,-481.6648 800.4578,-475.4721 810,-467 850.0494,-431.4417 810.0603,-391.7075 846,-352 863.7319,-332.4091 888.3603,-318.5099 912.6575,-308.7396"/>
<polygon fill="#b6ecf3" stroke="#b6ecf3" points="914.2022,-311.8966 922.299,-305.0635 911.7082,-305.3559 914.2022,-311.8966"/>
</g>
<!-- hidebound.exporters.exporter_base -->
<g id="node11" class="node">
<title>hidebound.exporters.exporter_base</title>
<polygon fill="#343434" stroke="#343434" points="810,-258 521,-258 521,-222 810,-222 810,-258"/>
<text text-anchor="middle" x="665.5" y="-236.3" font-family="Courier,monospace" font-size="14.00" fill="#b6ecf3">hidebound.exporters.exporter_base</text>
</g>
<!-- hidebound.exporters.exporter_base&#45;&gt;hidebound.exporters.girder_exporter -->
<g id="edge22" class="edge">
<title>hidebound.exporters.exporter_base&#45;&gt;hidebound.exporters.girder_exporter</title>
<path fill="none" stroke="#b6ecf3" d="M792.8562,-258.1193C798.8113,-260.7149 804.5638,-263.66 810,-267 832.4191,-280.7743 825.2139,-297.8666 846,-314 870.1002,-332.7057 900.3888,-347.0649 927.6088,-357.4701"/>
<polygon fill="#b6ecf3" stroke="#b6ecf3" points="926.5007,-360.792 937.0938,-360.9862 928.9339,-354.2284 926.5007,-360.792"/>
</g>
<!-- hidebound.exporters.exporter_base&#45;&gt;hidebound.exporters.s3_exporter -->
<g id="edge23" class="edge">
<title>hidebound.exporters.exporter_base&#45;&gt;hidebound.exporters.s3_exporter</title>
<path fill="none" stroke="#b6ecf3" d="M793.2941,-258.037C815.3231,-261.1462 838.3091,-264.3905 860.5908,-267.5353"/>
<polygon fill="#b6ecf3" stroke="#b6ecf3" points="860.3817,-271.0404 870.7728,-268.9724 861.3601,-264.1091 860.3817,-271.0404"/>
</g>
<!-- hidebound.exporters.girder_exporter&#45;&gt;hidebound.core.config -->
<g id="edge24" class="edge">
<title>hidebound.exporters.girder_exporter&#45;&gt;hidebound.core.config</title>
<path fill="none" stroke="#b6ecf3" d="M1151.1875,-390.0958C1171.0187,-391.5369 1190.9665,-392.9865 1209.7831,-394.3539"/>
<polygon fill="#b6ecf3" stroke="#b6ecf3" points="1209.5842,-397.8486 1219.8116,-395.0827 1210.0916,-390.867 1209.5842,-397.8486"/>
</g>
<!-- hidebound.exporters.girder_exporter&#45;&gt;hidebound.core.database -->
<g id="edge25" class="edge">
<title>hidebound.exporters.girder_exporter&#45;&gt;hidebound.core.database</title>
<path fill="none" stroke="#b6ecf3" d="M1061.1158,-397.077C1177.7039,-431.3099 1418.5246,-504.9456 1443,-536 1538.7025,-657.4275 1377.6661,-765.2308 1479,-882 1483.64,-887.3468 1489.0253,-891.869 1494.9083,-895.6878"/>
<polygon fill="#b6ecf3" stroke="#b6ecf3" points="1493.4348,-898.8767 1503.8548,-900.7935 1496.9044,-892.7971 1493.4348,-898.8767"/>
</g>
<!-- hidebound.exporters.s3_exporter&#45;&gt;hidebound.core.config -->
<g id="edge26" class="edge">
<title>hidebound.exporters.s3_exporter&#45;&gt;hidebound.core.config</title>
<path fill="none" stroke="#b6ecf3" d="M1113.1902,-305.1169C1126.2284,-308.9088 1139.0957,-313.4836 1151,-319 1169.3911,-327.5224 1169.5464,-336.6929 1187,-347 1208.5033,-359.6987 1233.4825,-371.1008 1255.636,-380.1865"/>
<polygon fill="#b6ecf3" stroke="#b6ecf3" points="1254.3556,-383.444 1264.939,-383.9356 1256.9722,-376.9514 1254.3556,-383.444"/>
</g>
<!-- hidebound.exporters.s3_exporter&#45;&gt;hidebound.core.database -->
<g id="edge27" class="edge">
<title>hidebound.exporters.s3_exporter&#45;&gt;hidebound.core.database</title>
<path fill="none" stroke="#b6ecf3" d="M1134.579,-278.7079C1232.2428,-280.2974 1360.6408,-298.9489 1443,-375 1521.088,-447.107 1584.7877,-785.2491 1602.2498,-885.757"/>
<polygon fill="#b6ecf3" stroke="#b6ecf3" points="1598.8281,-886.511 1603.973,-895.7728 1605.7267,-885.3241 1598.8281,-886.511"/>
</g>
<!-- hidebound.server.api&#45;&gt;hidebound.server.app -->
<g id="edge28" class="edge">
<title>hidebound.server.api&#45;&gt;hidebound.server.app</title>
<path fill="none" stroke="#b6ecf3" d="M1938.4811,-993.0315C1960.4232,-1001.4919 1986.672,-1011.9152 2010,-1022 2037.1704,-1033.7459 2067.1282,-1047.8428 2091.1211,-1059.4203"/>
<polygon fill="#b6ecf3" stroke="#b6ecf3" points="2089.8145,-1062.6763 2100.34,-1063.8862 2092.8663,-1056.3766 2089.8145,-1062.6763"/>
</g>
<!-- hidebound.server.components -->
<g id="node16" class="node">
<title>hidebound.server.components</title>
<polygon fill="#343434" stroke="#343434" points="2010,-1353 1771,-1353 1771,-1317 2010,-1317 2010,-1353"/>
<text text-anchor="middle" x="1890.5" y="-1331.3" font-family="Courier,monospace" font-size="14.00" fill="#b6ecf3">hidebound.server.components</text>
</g>
<!-- hidebound.server.components&#45;&gt;hidebound.server.app -->
<g id="edge29" class="edge">
<title>hidebound.server.components&#45;&gt;hidebound.server.app</title>
<path fill="none" stroke="#b6ecf3" d="M1910.3543,-1316.842C1934.3961,-1294.6771 1975.906,-1255.8361 2010,-1221 2047.457,-1182.7277 2088.9842,-1136.5142 2114.0319,-1108.1976"/>
<polygon fill="#b6ecf3" stroke="#b6ecf3" points="2116.9558,-1110.174 2120.948,-1100.3601 2111.7071,-1105.5424 2116.9558,-1110.174"/>
</g>
<!-- hidebound.server.server_tools -->
<g id="node17" class="node">
<title>hidebound.server.server_tools</title>
<polygon fill="#343434" stroke="#343434" points="1735,-1100 1479,-1100 1479,-1064 1735,-1064 1735,-1100"/>
<text text-anchor="middle" x="1607" y="-1078.3" font-family="Courier,monospace" font-size="14.00" fill="#b6ecf3">hidebound.server.server_tools</text>
</g>
<!-- hidebound.server.server_tools&#45;&gt;hidebound.server.api -->
<g id="edge30" class="edge">
<title>hidebound.server.server_tools&#45;&gt;hidebound.server.api</title>
<path fill="none" stroke="#b6ecf3" d="M1654.7713,-1063.9699C1703.9437,-1045.411 1780.5768,-1016.4878 1833.0317,-996.69"/>
<polygon fill="#b6ecf3" stroke="#b6ecf3" points="1834.4129,-999.9097 1842.5328,-993.104 1831.9411,-993.3607 1834.4129,-999.9097"/>
</g>
<!-- hidebound.server.server_tools&#45;&gt;hidebound.server.app -->
<g id="edge31" class="edge">
<title>hidebound.server.server_tools&#45;&gt;hidebound.server.app</title>
<path fill="none" stroke="#b6ecf3" d="M1735.2982,-1082C1827.5896,-1082 1950.3436,-1082 2035.7615,-1082"/>
<polygon fill="#b6ecf3" stroke="#b6ecf3" points="2035.9887,-1085.5001 2045.9886,-1082 2035.9886,-1078.5001 2035.9887,-1085.5001"/>
</g>
<!-- dash -->
<g id="node18" class="node">
<title>dash</title>
<polygon fill="#343434" stroke="#343434" points="1634,-1576 1580,-1576 1580,-1540 1634,-1540 1634,-1576"/>
<text text-anchor="middle" x="1607" y="-1554.3" font-family="Courier,monospace" font-size="14.00" fill="#de958e">dash</text>
</g>
<!-- dash&#45;&gt;hidebound.server.app -->
<g id="edge32" class="edge">
<title>dash&#45;&gt;hidebound.server.app</title>
<path fill="none" stroke="#de958e" d="M1634.0879,-1557.763C1705.84,-1555.6365 1902.6487,-1539.8333 2010,-1433 2102.6795,-1340.7676 2128.1583,-1175.8851 2134.7941,-1110.1652"/>
<polygon fill="#de958e" stroke="#de958e" points="2138.2851,-1110.4243 2135.7355,-1100.1409 2131.3157,-1109.7698 2138.2851,-1110.4243"/>
</g>
<!-- dash&#45;&gt;hidebound.server.components -->
<g id="edge33" class="edge">
<title>dash&#45;&gt;hidebound.server.components</title>
<path fill="none" stroke="#de958e" d="M1634.2068,-1557.5373C1661.5586,-1555.9207 1704.0007,-1550.1769 1735,-1531 1803.3405,-1488.7229 1854.1174,-1405.1859 1877.024,-1362.1052"/>
<polygon fill="#de958e" stroke="#de958e" points="1880.2201,-1363.5457 1881.7386,-1353.0602 1874.0127,-1360.3101 1880.2201,-1363.5457"/>
</g>
<!-- dash_core_components -->
<g id="node19" class="node">
<title>dash_core_components</title>
<polygon fill="#343434" stroke="#343434" points="1698,-1522 1516,-1522 1516,-1486 1698,-1486 1698,-1522"/>
<text text-anchor="middle" x="1607" y="-1500.3" font-family="Courier,monospace" font-size="14.00" fill="#de958e">dash_core_components</text>
</g>
<!-- dash_core_components&#45;&gt;hidebound.server.app -->
<g id="edge34" class="edge">
<title>dash_core_components&#45;&gt;hidebound.server.app</title>
<path fill="none" stroke="#de958e" d="M1698.1875,-1493.0158C1787.6792,-1477.8324 1923.0391,-1442.5061 2010,-1362 2086.3556,-1291.312 2120.0655,-1165.9231 2131.8027,-1110.1272"/>
<polygon fill="#de958e" stroke="#de958e" points="2135.2505,-1110.7353 2133.8038,-1100.2397 2128.3896,-1109.3466 2135.2505,-1110.7353"/>
</g>
<!-- dash_core_components&#45;&gt;hidebound.server.components -->
<g id="edge35" class="edge">
<title>dash_core_components&#45;&gt;hidebound.server.components</title>
<path fill="none" stroke="#de958e" d="M1698.0577,-1488.8357C1711.0109,-1484.5482 1723.7393,-1479.0501 1735,-1472 1756.1257,-1458.7736 1753.109,-1446.3535 1771,-1429 1797.7791,-1403.0254 1831.4136,-1377.0797 1856.1713,-1359.0483"/>
<polygon fill="#de958e" stroke="#de958e" points="1858.4723,-1361.7039 1864.5324,-1353.0133 1854.3755,-1356.028 1858.4723,-1361.7039"/>
</g>
<!-- dash_cytoscape -->
<g id="node20" class="node">
<title>dash_cytoscape</title>
<polygon fill="#343434" stroke="#343434" points="1673,-1376 1541,-1376 1541,-1340 1673,-1340 1673,-1376"/>
<text text-anchor="middle" x="1607" y="-1354.3" font-family="Courier,monospace" font-size="14.00" fill="#de958e">dash_cytoscape</text>
</g>
<!-- dash_cytoscape&#45;&gt;hidebound.server.components -->
<g id="edge36" class="edge">
<title>dash_cytoscape&#45;&gt;hidebound.server.components</title>
<path fill="none" stroke="#de958e" d="M1673.1104,-1352.6365C1699.2763,-1350.5137 1730.3053,-1347.9964 1760.6066,-1345.5381"/>
<polygon fill="#de958e" stroke="#de958e" points="1761.1625,-1349.0046 1770.8467,-1344.7073 1760.5964,-1342.0275 1761.1625,-1349.0046"/>
</g>
<!-- hidebound.server -->
<g id="node21" class="node">
<title>hidebound.server</title>
<polygon fill="#343434" stroke="#343434" points="1389.5,-1406 1240.5,-1406 1240.5,-1370 1389.5,-1370 1389.5,-1406"/>
<text text-anchor="middle" x="1315" y="-1384.3" font-family="Courier,monospace" font-size="14.00" fill="#a0d17b">hidebound.server</text>
</g>
<!-- hidebound.server&#45;&gt;hidebound.server.api -->
<g id="edge37" class="edge">
<title>hidebound.server&#45;&gt;hidebound.server.api</title>
<path fill="none" stroke="#a0d17b" d="M1389.6386,-1383.9891C1409.4342,-1379.3618 1429.1307,-1370.9416 1443,-1356 1507.1246,-1286.9176 1411.5813,-1212.8716 1479,-1147 1561.2731,-1066.6149 1630.4139,-1156.8787 1735,-1109 1790.3261,-1083.6721 1841.0237,-1032.5214 1868.6557,-1001.2604"/>
<polygon fill="#a0d17b" stroke="#a0d17b" points="1871.579,-1003.2324 1875.4978,-993.3888 1866.2959,-998.6401 1871.579,-1003.2324"/>
</g>
<!-- hidebound.server&#45;&gt;hidebound.server.app -->
<g id="edge38" class="edge">
<title>hidebound.server&#45;&gt;hidebound.server.app</title>
<path fill="none" stroke="#a0d17b" d="M1323.2414,-1406.1156C1343.0967,-1447.2443 1398.0059,-1547.0397 1479,-1585 1695.3514,-1686.3995 1841.2296,-1670.1341 2010,-1501 2066.8942,-1443.9832 2116.6285,-1194.2 2132.0641,-1109.9006"/>
<polygon fill="#a0d17b" stroke="#a0d17b" points="2135.5153,-1110.4841 2133.8543,-1100.0203 2128.6274,-1109.2361 2135.5153,-1110.4841"/>
</g>
<!-- hidebound.server&#45;&gt;hidebound.server.components -->
<g id="edge39" class="edge">
<title>hidebound.server&#45;&gt;hidebound.server.components</title>
<path fill="none" stroke="#a0d17b" d="M1360.0812,-1406.0631C1392.5506,-1418.066 1437.7294,-1432.731 1479,-1439 1591.4874,-1456.0869 1626.1287,-1472.0517 1735,-1439 1785.5639,-1423.6496 1834.667,-1385.8021 1863.7417,-1360.2545"/>
<polygon fill="#a0d17b" stroke="#a0d17b" points="1866.2786,-1362.6811 1871.3957,-1353.4039 1861.6101,-1357.4652 1866.2786,-1362.6811"/>
</g>
<!-- hidebound.server&#45;&gt;hidebound.server.server_tools -->
<g id="edge40" class="edge">
<title>hidebound.server&#45;&gt;hidebound.server.server_tools</title>
<path fill="none" stroke="#a0d17b" d="M1389.5244,-1384.2681C1409.4377,-1379.6626 1429.2257,-1371.1842 1443,-1356 1516.0599,-1275.4615 1405.9401,-1194.5385 1479,-1114 1481.6163,-1111.1158 1484.4497,-1108.4736 1487.4596,-1106.0539"/>
<polygon fill="#a0d17b" stroke="#a0d17b" points="1489.6626,-1108.783 1495.8118,-1100.1553 1485.6244,-1103.0652 1489.6626,-1108.783"/>
</g>
<!-- dash_html_components -->
<g id="node22" class="node">
<title>dash_html_components</title>
<polygon fill="#343434" stroke="#343434" points="1698,-1246 1516,-1246 1516,-1210 1698,-1210 1698,-1246"/>
<text text-anchor="middle" x="1607" y="-1224.3" font-family="Courier,monospace" font-size="14.00" fill="#de958e">dash_html_components</text>
</g>
<!-- dash_html_components&#45;&gt;hidebound.server.app -->
<g id="edge41" class="edge">
<title>dash_html_components&#45;&gt;hidebound.server.app</title>
<path fill="none" stroke="#de958e" d="M1698.044,-1213.0746C1780.6608,-1198.2641 1905.2125,-1172.7547 2010,-1138 2037.8642,-1128.7583 2067.9698,-1115.6302 2091.8729,-1104.4078"/>
<polygon fill="#de958e" stroke="#de958e" points="2093.5122,-1107.504 2101.0442,-1100.0529 2090.5096,-1101.1806 2093.5122,-1107.504"/>
</g>
<!-- dash_html_components&#45;&gt;hidebound.server.components -->
<g id="edge42" class="edge">
<title>dash_html_components&#45;&gt;hidebound.server.components</title>
<path fill="none" stroke="#de958e" d="M1689.6886,-1246.0328C1704.9236,-1250.0976 1720.5686,-1254.778 1735,-1260 1774.8454,-1274.4179 1818.1056,-1295.7845 1848.8571,-1312.028"/>
<polygon fill="#de958e" stroke="#de958e" points="1847.5104,-1315.2763 1857.9814,-1316.8912 1850.8029,-1309.0989 1847.5104,-1315.2763"/>
</g>
<!-- dash_table -->
<g id="node23" class="node">
<title>dash_table</title>
<polygon fill="#343434" stroke="#343434" points="1656.5,-1192 1557.5,-1192 1557.5,-1156 1656.5,-1156 1656.5,-1192"/>
<text text-anchor="middle" x="1607" y="-1170.3" font-family="Courier,monospace" font-size="14.00" fill="#de958e">dash_table</text>
</g>
<!-- dash_table&#45;&gt;hidebound.server.app -->
<g id="edge43" class="edge">
<title>dash_table&#45;&gt;hidebound.server.app</title>
<path fill="none" stroke="#de958e" d="M1656.8611,-1165.3449C1743.2839,-1150.3432 1922.5004,-1119.2339 2035.8629,-1099.5559"/>
<polygon fill="#de958e" stroke="#de958e" points="2036.6887,-1102.965 2045.9427,-1097.8062 2035.4914,-1096.0681 2036.6887,-1102.965"/>
</g>
<!-- dash_table&#45;&gt;hidebound.server.components -->
<g id="edge44" class="edge">
<title>dash_table&#45;&gt;hidebound.server.components</title>
<path fill="none" stroke="#de958e" d="M1656.6194,-1178.5749C1681.1698,-1182.2788 1710.6761,-1188.9615 1735,-1201 1789.2412,-1227.8453 1839.9483,-1278.0426 1867.9404,-1308.7958"/>
<polygon fill="#de958e" stroke="#de958e" points="1865.6054,-1311.4345 1874.8868,-1316.544 1870.8174,-1306.7618 1865.6054,-1311.4345"/>
</g>
<!-- flask -->
<g id="node24" class="node">
<title>flask</title>
<polygon fill="#343434" stroke="#343434" points="1344,-1184 1286,-1184 1286,-1148 1344,-1148 1344,-1184"/>
<text text-anchor="middle" x="1315" y="-1162.3" font-family="Courier,monospace" font-size="14.00" fill="#de958e">flask</text>
</g>
<!-- flask&#45;&gt;hidebound.server.api -->
<g id="edge45" class="edge">
<title>flask&#45;&gt;hidebound.server.api</title>
<path fill="none" stroke="#de958e" d="M1344.2121,-1166.4412C1372.9326,-1165.2844 1416.2435,-1159.0459 1443,-1134 1481.1719,-1098.2686 1438.567,-1055.1512 1479,-1022 1524.9217,-984.3486 1682.8877,-975.7173 1789.1988,-974.3322"/>
<polygon fill="#de958e" stroke="#de958e" points="1789.3597,-977.8307 1799.3202,-974.22 1789.282,-970.8311 1789.3597,-977.8307"/>
</g>
<!-- flask&#45;&gt;hidebound.server.app -->
<g id="edge46" class="edge">
<title>flask&#45;&gt;hidebound.server.app</title>
<path fill="none" stroke="#de958e" d="M1344.1472,-1165.7336C1372.4087,-1163.9998 1415.0058,-1157.2981 1443,-1134 1472.6575,-1109.3176 1446.5489,-1075.8738 1479,-1055 1568.3581,-997.5213 1874.7923,-1037.7343 2036.0037,-1064.0852"/>
<polygon fill="#de958e" stroke="#de958e" points="2035.4995,-1067.5492 2045.9354,-1065.7211 2036.6372,-1060.6423 2035.4995,-1067.5492"/>
</g>
<!-- flask&#45;&gt;hidebound.server.components -->
<g id="edge47" class="edge">
<title>flask&#45;&gt;hidebound.server.components</title>
<path fill="none" stroke="#de958e" d="M1344.1305,-1165.5937C1371.9833,-1166.6113 1413.9271,-1171.9664 1443,-1193 1468.816,-1211.6773 1452.8023,-1236.862 1479,-1255 1573.8558,-1320.6733 1621.9283,-1275.0784 1735,-1298 1759.2622,-1302.9184 1785.4978,-1308.9019 1809.3853,-1314.611"/>
<polygon fill="#de958e" stroke="#de958e" points="1808.5724,-1318.0153 1819.1137,-1316.9517 1810.2099,-1311.2095 1808.5724,-1318.0153"/>
</g>
<!-- flask&#45;&gt;hidebound.server.server_tools -->
<g id="edge48" class="edge">
<title>flask&#45;&gt;hidebound.server.server_tools</title>
<path fill="none" stroke="#de958e" d="M1344.1419,-1160.9776C1370.5337,-1155.9032 1410.1894,-1146.9545 1443,-1134 1460.0244,-1127.2783 1461.9756,-1120.7217 1479,-1114 1489.4639,-1109.8686 1500.624,-1106.1446 1511.828,-1102.8237"/>
<polygon fill="#de958e" stroke="#de958e" points="1513.0169,-1106.1241 1521.6688,-1100.0091 1511.0919,-1099.394 1513.0169,-1106.1241"/>
</g>
<!-- rolling_pin.blob_etl -->
<g id="node25" class="node">
<title>rolling_pin.blob_etl</title>
<polygon fill="#343434" stroke="#343434" points="1698,-1430 1516,-1430 1516,-1394 1698,-1394 1698,-1430"/>
<text text-anchor="middle" x="1607" y="-1408.3" font-family="Courier,monospace" font-size="14.00" fill="#de958e">rolling_pin.blob_etl</text>
</g>
<!-- rolling_pin.blob_etl&#45;&gt;hidebound.server.components -->
<g id="edge49" class="edge">
<title>rolling_pin.blob_etl&#45;&gt;hidebound.server.components</title>
<path fill="none" stroke="#de958e" d="M1698.1762,-1393.9752C1710.5985,-1391.1675 1723.1465,-1388.1469 1735,-1385 1766.3826,-1376.6685 1800.7997,-1365.7874 1829.2589,-1356.3042"/>
<polygon fill="#de958e" stroke="#de958e" points="1830.695,-1359.5142 1839.062,-1353.0146 1828.4681,-1352.8778 1830.695,-1359.5142"/>
</g>
<!-- dash.dependencies -->
<g id="node26" class="node">
<title>dash.dependencies</title>
<polygon fill="#343434" stroke="#343434" points="1969,-840 1812,-840 1812,-804 1969,-804 1969,-840"/>
<text text-anchor="middle" x="1890.5" y="-818.3" font-family="Courier,monospace" font-size="14.00" fill="#de958e">dash.dependencies</text>
</g>
<!-- dash.dependencies&#45;&gt;hidebound.server.app -->
<g id="edge50" class="edge">
<title>dash.dependencies&#45;&gt;hidebound.server.app</title>
<path fill="none" stroke="#de958e" d="M1969.3035,-833.493C1983.8349,-838.1765 1998.1426,-844.7572 2010,-854 2077.4179,-906.5519 2114.4413,-1005.4715 2129.2545,-1053.8781"/>
<polygon fill="#de958e" stroke="#de958e" points="2125.9621,-1055.0865 2132.1598,-1063.6795 2132.6735,-1053.0971 2125.9621,-1055.0865"/>
</g>
<!-- jinja2 -->
<g id="node27" class="node">
<title>jinja2</title>
<polygon fill="#343434" stroke="#343434" points="1348,-1238 1282,-1238 1282,-1202 1348,-1202 1348,-1238"/>
<text text-anchor="middle" x="1315" y="-1216.3" font-family="Courier,monospace" font-size="14.00" fill="#de958e">jinja2</text>
</g>
<!-- jinja2&#45;&gt;hidebound.server.server_tools -->
<g id="edge51" class="edge">
<title>jinja2&#45;&gt;hidebound.server.server_tools</title>
<path fill="none" stroke="#de958e" d="M1348.1509,-1220.9316C1376.2506,-1220.0218 1416.1497,-1214.516 1443,-1193 1473.1101,-1168.8718 1449.3425,-1138.6824 1479,-1114 1483.0233,-1110.6516 1487.3483,-1107.646 1491.889,-1104.9487"/>
<polygon fill="#de958e" stroke="#de958e" points="1493.7078,-1107.9448 1500.8644,-1100.1325 1490.3979,-1101.7768 1493.7078,-1107.9448"/>
</g>
<!-- hidebound.exporters -->
<g id="node28" class="node">
<title>hidebound.exporters</title>
<polygon fill="#343434" stroke="#343434" points="476.5,-308 303.5,-308 303.5,-272 476.5,-272 476.5,-308"/>
<text text-anchor="middle" x="390" y="-286.3" font-family="Courier,monospace" font-size="14.00" fill="#a0d17b">hidebound.exporters</text>
</g>
<!-- hidebound.exporters&#45;&gt;hidebound.exporters.exporter_base -->
<g id="edge52" class="edge">
<title>hidebound.exporters&#45;&gt;hidebound.exporters.exporter_base</title>
<path fill="none" stroke="#a0d17b" d="M476.7918,-274.2483C501.9659,-269.6795 529.7833,-264.631 556.1495,-259.8458"/>
<polygon fill="#a0d17b" stroke="#a0d17b" points="556.9608,-263.2558 566.175,-258.0263 555.7108,-256.3684 556.9608,-263.2558"/>
</g>
<!-- hidebound.exporters&#45;&gt;hidebound.exporters.girder_exporter -->
<g id="edge53" class="edge">
<title>hidebound.exporters&#45;&gt;hidebound.exporters.girder_exporter</title>
<path fill="none" stroke="#a0d17b" d="M459.7243,-308.0217C479.4421,-312.7028 500.9834,-317.4274 521,-321 579.7535,-331.4863 721.7573,-348.3441 835.7305,-361.1893"/>
<polygon fill="#a0d17b" stroke="#a0d17b" points="835.6418,-364.7013 845.9704,-362.3411 836.4243,-357.7451 835.6418,-364.7013"/>
</g>
<!-- hidebound.exporters&#45;&gt;hidebound.exporters.s3_exporter -->
<g id="edge54" class="edge">
<title>hidebound.exporters&#45;&gt;hidebound.exporters.s3_exporter</title>
<path fill="none" stroke="#a0d17b" d="M401.3097,-271.5961C421.1461,-241.3071 465.4325,-182.0168 521,-159 639.6672,-109.8464 687.2265,-121.2554 810,-159 875.4588,-179.1242 938.5888,-230.5672 972.6041,-261.7668"/>
<polygon fill="#a0d17b" stroke="#a0d17b" points="970.5076,-264.5972 980.2099,-268.8537 975.2796,-259.4759 970.5076,-264.5972"/>
</g>
<!-- flasgger -->
<g id="node29" class="node">
<title>flasgger</title>
<polygon fill="#343434" stroke="#343434" points="1648.5,-36 1565.5,-36 1565.5,0 1648.5,0 1648.5,-36"/>
<text text-anchor="middle" x="1607" y="-14.3" font-family="Courier,monospace" font-size="14.00" fill="#de958e">flasgger</text>
</g>
<!-- flasgger&#45;&gt;hidebound.server.api -->
<g id="edge55" class="edge">
<title>flasgger&#45;&gt;hidebound.server.api</title>
<path fill="none" stroke="#de958e" d="M1648.5995,-16.4195C1677.541,-17.778 1714.4831,-24.908 1735,-50 1791.2533,-118.7972 1736.2315,-767.2159 1771,-849 1788.982,-891.2981 1827.9259,-927.9022 1856.4885,-950.5935"/>
<polygon fill="#de958e" stroke="#de958e" points="1854.5673,-953.5329 1864.6133,-956.8986 1858.8589,-948.0027 1854.5673,-953.5329"/>
</g>
<!-- flasgger&#45;&gt;hidebound.server.app -->
<g id="edge56" class="edge">
<title>flasgger&#45;&gt;hidebound.server.app</title>
<path fill="none" stroke="#de958e" d="M1648.5555,-16.4555C1677.4755,-17.8317 1714.4098,-24.9681 1735,-50 1834.9359,-171.4937 1665.8576,-639.983 1771,-757 1842.8861,-837.0049 1924.7637,-729.4014 2010,-795 2095.1609,-860.5405 2124.4827,-995.438 2133.4577,-1053.9259"/>
<polygon fill="#de958e" stroke="#de958e" points="2130.0084,-1054.5286 2134.9056,-1063.9237 2136.9361,-1053.5252 2130.0084,-1054.5286"/>
</g>
<!-- boto3 -->
<g id="node30" class="node">
<title>boto3</title>
<polygon fill="#343434" stroke="#343434" points="694.5,-204 636.5,-204 636.5,-168 694.5,-168 694.5,-204"/>
<text text-anchor="middle" x="665.5" y="-182.3" font-family="Courier,monospace" font-size="14.00" fill="#de958e">boto3</text>
</g>
<!-- boto3&#45;&gt;hidebound.exporters.s3_exporter -->
<g id="edge57" class="edge">
<title>boto3&#45;&gt;hidebound.exporters.s3_exporter</title>
<path fill="none" stroke="#de958e" d="M694.6621,-189.7921C724.1172,-194.0072 770.75,-201.7388 810,-213 858.5996,-226.9437 912.0832,-248.5743 949.6262,-264.8549"/>
<polygon fill="#de958e" stroke="#de958e" points="948.2502,-268.0731 958.815,-268.8708 951.0536,-261.6589 948.2502,-268.0731"/>
</g>
<!-- lunchbox.tools -->
<g id="node31" class="node">
<title>lunchbox.tools</title>
<polygon fill="#343434" stroke="#343434" points="1064.5,-1184 932.5,-1184 932.5,-1148 1064.5,-1148 1064.5,-1184"/>
<text text-anchor="middle" x="998.5" y="-1162.3" font-family="Courier,monospace" font-size="14.00" fill="#de958e">lunchbox.tools</text>
</g>
<!-- lunchbox.tools&#45;&gt;hidebound.core.database_tools -->
<g id="edge58" class="edge">
<title>lunchbox.tools&#45;&gt;hidebound.core.database_tools</title>
<path fill="none" stroke="#de958e" d="M1064.8705,-1167.1198C1093.74,-1164.5525 1126.4928,-1157.1851 1151,-1139 1179.4124,-1117.9171 1167.1828,-1097.3093 1187,-1068 1217.8929,-1022.3098 1261.583,-975.3845 1289.0928,-947.4667"/>
<polygon fill="#de958e" stroke="#de958e" points="1291.8335,-949.6741 1296.3988,-940.1133 1286.8677,-944.7403 1291.8335,-949.6741"/>
</g>
<!-- lunchbox.tools&#45;&gt;hidebound.server.server_tools -->
<g id="edge59" class="edge">
<title>lunchbox.tools&#45;&gt;hidebound.server.server_tools</title>
<path fill="none" stroke="#de958e" d="M1026.1269,-1184.1023C1101.4833,-1230.9892 1313.5882,-1346.04 1443,-1247 1491.6309,-1209.7823 1435.2808,-1156.8807 1479,-1114 1482.1275,-1110.9324 1485.5022,-1108.1446 1489.0695,-1105.6119"/>
<polygon fill="#de958e" stroke="#de958e" points="1491.1292,-1108.4507 1497.7175,-1100.1534 1487.3929,-1102.5313 1491.1292,-1108.4507"/>
</g>
<!-- dash.exceptions -->
<g id="node32" class="node">
<title>dash.exceptions</title>
<polygon fill="#343434" stroke="#343434" points="1960.5,-748 1820.5,-748 1820.5,-712 1960.5,-712 1960.5,-748"/>
<text text-anchor="middle" x="1890.5" y="-726.3" font-family="Courier,monospace" font-size="14.00" fill="#de958e">dash.exceptions</text>
</g>
<!-- dash.exceptions&#45;&gt;hidebound.server.app -->
<g id="edge60" class="edge">
<title>dash.exceptions&#45;&gt;hidebound.server.app</title>
<path fill="none" stroke="#de958e" d="M1960.6616,-737.4289C1978.3993,-742.1676 1996.2833,-749.7909 2010,-762 2099.0791,-841.2888 2126.4492,-991.363 2134.1903,-1053.7233"/>
<polygon fill="#de958e" stroke="#de958e" points="2130.7504,-1054.4439 2135.3815,-1063.973 2137.7036,-1053.6357 2130.7504,-1054.4439"/>
</g>
<!-- pandasql -->
<g id="node33" class="node">
<title>pandasql</title>
<polygon fill="#343434" stroke="#343434" points="1356.5,-848 1273.5,-848 1273.5,-812 1356.5,-812 1356.5,-848"/>
<text text-anchor="middle" x="1315" y="-826.3" font-family="Courier,monospace" font-size="14.00" fill="#de958e">pandasql</text>
</g>
<!-- pandasql&#45;&gt;hidebound.core.database -->
<g id="edge61" class="edge">
<title>pandasql&#45;&gt;hidebound.core.database</title>
<path fill="none" stroke="#de958e" d="M1356.7874,-837.5557C1382.2262,-842.8591 1415.0896,-850.9803 1443,-862 1460.0244,-868.7217 1461.9756,-875.2783 1479,-882 1489.4639,-886.1314 1500.624,-889.8554 1511.828,-893.1763"/>
<polygon fill="#de958e" stroke="#de958e" points="1511.0919,-896.606 1521.6688,-895.9909 1513.0169,-889.8759 1511.0919,-896.606"/>
</g>
<!-- jsoncomment -->
<g id="node34" class="node">
<title>jsoncomment</title>
<polygon fill="#343434" stroke="#343434" points="443.5,-1230 336.5,-1230 336.5,-1194 443.5,-1194 443.5,-1230"/>
<text text-anchor="middle" x="390" y="-1208.3" font-family="Courier,monospace" font-size="14.00" fill="#de958e">jsoncomment</text>
</g>
<!-- jsoncomment&#45;&gt;hidebound.core.database -->
<g id="edge62" class="edge">
<title>jsoncomment&#45;&gt;hidebound.core.database</title>
<path fill="none" stroke="#de958e" d="M443.6561,-1216.9164C596.2754,-1229.9352 1029.6239,-1259.9205 1151,-1193 1176.2595,-1179.0732 1163.9438,-1156.3324 1187,-1139 1282.3899,-1067.2912 1355.0704,-1138.6832 1443,-1058 1473.833,-1029.708 1449.8065,-1000.9808 1479,-971 1493.7301,-955.8727 1513.1859,-944.4508 1532.4697,-935.9606"/>
<polygon fill="#de958e" stroke="#de958e" points="1534.0203,-939.1061 1541.901,-932.0248 1531.3244,-932.646 1534.0203,-939.1061"/>
</g>
<!-- jsoncomment&#45;&gt;hidebound.exporters.exporter_base -->
<g id="edge63" class="edge">
<title>jsoncomment&#45;&gt;hidebound.exporters.exporter_base</title>
<path fill="none" stroke="#de958e" d="M401.8084,-1193.7407C423.046,-1159.7813 467.1358,-1083.9057 485,-1013 505.2741,-932.5293 466.4589,-329.5447 521,-267 521.6238,-266.2847 522.2599,-265.5845 522.9079,-264.8991"/>
<polygon fill="#de958e" stroke="#de958e" points="525.2971,-267.4569 530.283,-258.1085 520.5557,-262.3072 525.2971,-267.4569"/>
</g>
<!-- jsoncomment&#45;&gt;hidebound.server.server_tools -->
<g id="edge64" class="edge">
<title>jsoncomment&#45;&gt;hidebound.server.server_tools</title>
<path fill="none" stroke="#de958e" d="M443.8075,-1224.6927C636.462,-1268.778 1288.5867,-1405.8817 1443,-1280 1502.0219,-1231.8838 1428.6679,-1166.0994 1477.6043,-1107.5787"/>
<polygon fill="#de958e" stroke="#de958e" points="1480.3092,-1109.8102 1484.5743,-1100.1117 1475.1921,-1105.0336 1480.3092,-1109.8102"/>
</g>
<!-- girder_client -->
<g id="node35" class="node">
<title>girder_client</title>
<polygon fill="#343434" stroke="#343434" points="727.5,-404 603.5,-404 603.5,-368 727.5,-368 727.5,-404"/>
<text text-anchor="middle" x="665.5" y="-382.3" font-family="Courier,monospace" font-size="14.00" fill="#de958e">girder_client</text>
</g>
<!-- girder_client&#45;&gt;hidebound.exporters.girder_exporter -->
<g id="edge65" class="edge">
<title>girder_client&#45;&gt;hidebound.exporters.girder_exporter</title>
<path fill="none" stroke="#de958e" d="M727.7441,-384.6916C758.5033,-384.045 797.2059,-383.2314 835.6489,-382.4233"/>
<polygon fill="#de958e" stroke="#de958e" points="836.0186,-385.9164 845.9428,-382.2069 835.8714,-378.9179 836.0186,-385.9164"/>
</g>
<!-- hidebound -->
<g id="node36" class="node">
<title>hidebound</title>
<polygon fill="#343434" stroke="#343434" points="91,-828 0,-828 0,-792 91,-792 91,-828"/>
<text text-anchor="middle" x="45.5" y="-806.3" font-family="Courier,monospace" font-size="14.00" fill="#a0d17b">hidebound</text>
</g>
<!-- hidebound&#45;&gt;hidebound.server -->
<g id="edge66" class="edge">
<title>hidebound&#45;&gt;hidebound.server</title>
<path fill="none" stroke="#a0d17b" d="M47.3421,-828.1267C58.3383,-925.6955 124.1398,-1384 390,-1384 390,-1384 390,-1384 665.5,-1384 868.1323,-1384 1106.3178,-1385.9709 1230.301,-1387.1458"/>
<polygon fill="#a0d17b" stroke="#a0d17b" points="1230.4503,-1390.6473 1240.4833,-1387.2429 1230.5171,-1383.6476 1230.4503,-1390.6473"/>
</g>
<!-- hidebound&#45;&gt;hidebound.exporters -->
<g id="edge67" class="edge">
<title>hidebound&#45;&gt;hidebound.exporters</title>
<path fill="none" stroke="#a0d17b" d="M82.7532,-791.994C85.8912,-789.3325 88.727,-786.3418 91,-783 147.7093,-699.6252 81.6278,-649.0481 127,-559 182.0429,-449.7589 297.3142,-356.3806 355.227,-314.1244"/>
<polygon fill="#a0d17b" stroke="#a0d17b" points="357.2831,-316.9569 363.3414,-308.265 353.1851,-311.2818 357.2831,-316.9569"/>
</g>
<!-- hidebound.core -->
<g id="node42" class="node">
<title>hidebound.core</title>
<polygon fill="#343434" stroke="#343434" points="259,-828 127,-828 127,-792 259,-792 259,-828"/>
<text text-anchor="middle" x="193" y="-806.3" font-family="Courier,monospace" font-size="14.00" fill="#a0d17b">hidebound.core</text>
</g>
<!-- hidebound&#45;&gt;hidebound.core -->
<g id="edge68" class="edge">
<title>hidebound&#45;&gt;hidebound.core</title>
<path fill="none" stroke="#a0d17b" d="M91.3614,-810C99.4456,-810 108.0541,-810 116.7093,-810"/>
<polygon fill="#a0d17b" stroke="#a0d17b" points="116.8627,-813.5001 126.8626,-810 116.8626,-806.5001 116.8627,-813.5001"/>
</g>
<!-- numpy -->
<g id="node37" class="node">
<title>numpy</title>
<polygon fill="#343434" stroke="#343434" points="1027.5,-1130 969.5,-1130 969.5,-1094 1027.5,-1094 1027.5,-1130"/>
<text text-anchor="middle" x="998.5" y="-1108.3" font-family="Courier,monospace" font-size="14.00" fill="#de958e">numpy</text>
</g>
<!-- numpy&#45;&gt;hidebound.core.database -->
<g id="edge69" class="edge">
<title>numpy&#45;&gt;hidebound.core.database</title>
<path fill="none" stroke="#de958e" d="M1027.6874,-1106.9077C1058.5572,-1101.282 1108.5664,-1091.4835 1151,-1080 1167.2799,-1075.5943 1170.6737,-1072.2306 1187,-1068 1299.0594,-1038.9625 1350.963,-1090.2117 1443,-1020 1472.0789,-997.8168 1450.5953,-969.0402 1479,-946 1483.9033,-942.0228 1489.2345,-938.531 1494.8446,-935.4663"/>
<polygon fill="#de958e" stroke="#de958e" points="1496.4633,-938.5704 1503.8688,-930.9934 1493.3546,-932.2985 1496.4633,-938.5704"/>
</g>
<!-- numpy&#45;&gt;hidebound.core.database_tools -->
<g id="edge70" class="edge">
<title>numpy&#45;&gt;hidebound.core.database_tools</title>
<path fill="none" stroke="#de958e" d="M1027.7555,-1100.6344C1059.1145,-1087.9837 1109.9286,-1066.1201 1151,-1042 1200.4299,-1012.9712 1253.1787,-972.4513 1285.1217,-946.7205"/>
<polygon fill="#de958e" stroke="#de958e" points="1287.606,-949.2121 1293.1694,-940.1955 1283.1975,-943.7747 1287.606,-949.2121"/>
</g>
<!-- numpy&#45;&gt;hidebound.server.api -->
<g id="edge71" class="edge">
<title>numpy&#45;&gt;hidebound.server.api</title>
<path fill="none" stroke="#de958e" d="M1027.5244,-1117.5257C1104.1104,-1130.3785 1314.5677,-1154.3036 1443,-1058 1475.4965,-1033.6329 1445.0909,-996.3595 1479,-974 1573.9864,-911.3664 1621.2228,-973.6342 1735,-974 1752.4584,-974.0561 1771.0191,-974.1477 1789.0113,-974.2533"/>
<polygon fill="#de958e" stroke="#de958e" points="1789.2099,-977.7544 1799.2309,-974.315 1789.2522,-970.7546 1789.2099,-977.7544"/>
</g>
<!-- pandas -->
<g id="node38" class="node">
<title>pandas</title>
<polygon fill="#343434" stroke="#343434" points="423,-1004 357,-1004 357,-968 423,-968 423,-1004"/>
<text text-anchor="middle" x="390" y="-982.3" font-family="Courier,monospace" font-size="14.00" fill="#de958e">pandas</text>
</g>
<!-- pandas&#45;&gt;hidebound.core.database -->
<g id="edge72" class="edge">
<title>pandas&#45;&gt;hidebound.core.database</title>
<path fill="none" stroke="#de958e" d="M423.3745,-987.0338C554.1665,-990.6197 1044.2308,-999.6925 1443,-949 1450.9516,-947.9892 1482.4123,-941.3708 1515.6838,-934.1566"/>
<polygon fill="#de958e" stroke="#de958e" points="1516.5406,-937.5521 1525.5688,-932.0076 1515.0535,-930.7119 1516.5406,-937.5521"/>
</g>
<!-- pandas&#45;&gt;hidebound.core.database_tools -->
<g id="edge73" class="edge">
<title>pandas&#45;&gt;hidebound.core.database_tools</title>
<path fill="none" stroke="#de958e" d="M423.1055,-983.3967C449.5873,-981.3326 487.6712,-978.4054 521,-976 750.7447,-959.4189 1017.9913,-941.5326 1176.4607,-931.0732"/>
<polygon fill="#de958e" stroke="#de958e" points="1176.992,-934.5458 1186.7399,-930.395 1176.5312,-927.561 1176.992,-934.5458"/>
</g>
<!-- pandas&#45;&gt;hidebound.core.tools -->
<g id="edge74" class="edge">
<title>pandas&#45;&gt;hidebound.core.tools</title>
<path fill="none" stroke="#de958e" d="M423.2462,-975.6424C441.6052,-969.713 464.73,-961.8985 485,-954 501.3143,-947.6429 504.3692,-943.4759 521,-938 534.7816,-933.4623 549.5141,-929.3694 564.1073,-925.746"/>
<polygon fill="#de958e" stroke="#de958e" points="565.2769,-929.0642 574.1748,-923.3127 563.6324,-922.2601 565.2769,-929.0642"/>
</g>
<!-- pandas&#45;&gt;hidebound.core.validators -->
<g id="edge75" class="edge">
<title>pandas&#45;&gt;hidebound.core.validators</title>
<path fill="none" stroke="#de958e" d="M423.107,-971.4442C444.0436,-960.5377 469.9121,-943.6058 485,-921 528.3572,-856.0392 493.4186,-822.0686 521,-749 554.5252,-660.185 615.9294,-565.3914 646.7735,-520.502"/>
<polygon fill="#de958e" stroke="#de958e" points="649.7025,-522.4201 652.5175,-512.2061 643.9473,-518.4353 649.7025,-522.4201"/>
</g>
<!-- pandas&#45;&gt;hidebound.server.components -->
<g id="edge76" class="edge">
<title>pandas&#45;&gt;hidebound.server.components</title>
<path fill="none" stroke="#de958e" d="M423.1969,-1003.5392C497.3042,-1042.1372 682.5682,-1135.5617 846,-1193 993.5623,-1244.861 1032.6861,-1254.4771 1187,-1280 1385.591,-1312.8462 1619.0588,-1326.186 1760.8272,-1331.5282"/>
<polygon fill="#de958e" stroke="#de958e" points="1760.7519,-1335.0277 1770.8743,-1331.8992 1761.0103,-1328.0325 1760.7519,-1335.0277"/>
</g>
<!-- pyparsing -->
<g id="node39" class="node">
<title>pyparsing</title>
<polygon fill="#343434" stroke="#343434" points="238.5,-604 147.5,-604 147.5,-568 238.5,-568 238.5,-604"/>
<text text-anchor="middle" x="193" y="-582.3" font-family="Courier,monospace" font-size="14.00" fill="#de958e">pyparsing</text>
</g>
<!-- pyparsing&#45;&gt;hidebound.core.parser -->
<g id="edge77" class="edge">
<title>pyparsing&#45;&gt;hidebound.core.parser</title>
<path fill="none" stroke="#de958e" d="M238.6909,-601.7715C265.242,-610.9363 299.0613,-622.61 327.9901,-632.5956"/>
<polygon fill="#de958e" stroke="#de958e" points="327.0009,-635.9567 337.5957,-635.9112 329.285,-629.3398 327.0009,-635.9567"/>
</g>
<!-- pyparsing&#45;&gt;hidebound.core.specification_base -->
<g id="edge78" class="edge">
<title>pyparsing&#45;&gt;hidebound.core.specification_base</title>
<path fill="none" stroke="#de958e" d="M238.6151,-585.9434C353.0757,-585.8013 656.6338,-585.4244 843.6011,-585.1923"/>
<polygon fill="#de958e" stroke="#de958e" points="843.8051,-588.6921 853.8007,-585.1796 843.7963,-581.6922 843.8051,-588.6921"/>
</g>
<!-- pyparsing&#45;&gt;hidebound.core.validators -->
<g id="edge79" class="edge">
<title>pyparsing&#45;&gt;hidebound.core.validators</title>
<path fill="none" stroke="#de958e" d="M197.8437,-567.8062C208.4823,-531.9743 237.6398,-452.9764 295,-421 368.7578,-379.8825 409.0866,-384.0132 485,-421 508.3383,-432.371 498.8099,-453.525 521,-467 528.2906,-471.4273 536.1405,-475.1587 544.2794,-478.3006"/>
<polygon fill="#de958e" stroke="#de958e" points="543.3555,-481.6863 553.9503,-481.7244 545.6917,-475.0877 543.3555,-481.6863"/>
</g>
<!-- schematics -->
<g id="node40" class="node">
<title>schematics</title>
<polygon fill="#343434" stroke="#343434" points="715,-312 616,-312 616,-276 715,-276 715,-312"/>
<text text-anchor="middle" x="665.5" y="-290.3" font-family="Courier,monospace" font-size="14.00" fill="#de958e">schematics</text>
</g>
<!-- schematics&#45;&gt;hidebound.core.config -->
<g id="edge80" class="edge">
<title>schematics&#45;&gt;hidebound.core.config</title>
<path fill="none" stroke="#de958e" d="M715.1656,-299.4279C830.3322,-312.087 1108.9987,-343.1612 1151,-352 1185.8257,-359.3287 1223.8936,-370.7179 1254.5791,-380.7763"/>
<polygon fill="#de958e" stroke="#de958e" points="1253.6756,-384.1641 1264.269,-383.9884 1255.8782,-377.5196 1253.6756,-384.1641"/>
</g>
<!-- schematics&#45;&gt;hidebound.core.specification_base -->
<g id="edge81" class="edge">
<title>schematics&#45;&gt;hidebound.core.specification_base</title>
<path fill="none" stroke="#de958e" d="M715.0067,-309.3533C744.5769,-320.128 781.7531,-336.6243 810,-359 830.6253,-375.3383 829.4624,-385.5341 846,-406 890.8962,-461.561 945.6615,-524.7922 975.8317,-559.2531"/>
<polygon fill="#de958e" stroke="#de958e" points="973.3714,-561.756 982.5958,-566.9676 978.6347,-557.1411 973.3714,-561.756"/>
</g>
<!-- schematics&#45;&gt;hidebound.exporters.girder_exporter -->
<g id="edge82" class="edge">
<title>schematics&#45;&gt;hidebound.exporters.girder_exporter</title>
<path fill="none" stroke="#de958e" d="M715.1133,-301.0698C743.5296,-306.0773 779.4921,-314.0615 810,-326 827.2495,-332.7502 828.7133,-340.3457 846,-347 857.2554,-351.3326 869.2155,-355.1267 881.2936,-358.4384"/>
<polygon fill="#de958e" stroke="#de958e" points="880.4325,-361.8309 890.994,-360.9919 882.2145,-355.0615 880.4325,-361.8309"/>
</g>
<!-- schematics&#45;&gt;hidebound.exporters.s3_exporter -->
<g id="edge83" class="edge">
<title>schematics&#45;&gt;hidebound.exporters.s3_exporter</title>
<path fill="none" stroke="#de958e" d="M715.3535,-292.952C751.7633,-292.1867 803.1288,-291.1069 852.1331,-290.0768"/>
<polygon fill="#de958e" stroke="#de958e" points="852.2979,-293.5742 862.2221,-289.8647 852.1507,-286.5757 852.2979,-293.5742"/>
</g>
<!-- schematics.types -->
<g id="node41" class="node">
<title>schematics.types</title>
<polygon fill="#343434" stroke="#343434" points="740,-458 591,-458 591,-422 740,-422 740,-458"/>
<text text-anchor="middle" x="665.5" y="-436.3" font-family="Courier,monospace" font-size="14.00" fill="#de958e">schematics.types</text>
</g>
<!-- schematics.types&#45;&gt;hidebound.core.config -->
<g id="edge84" class="edge">
<title>schematics.types&#45;&gt;hidebound.core.config</title>
<path fill="none" stroke="#de958e" d="M740.0059,-435.6409C855.4538,-428.8865 1077.9609,-415.8683 1209.7647,-408.157"/>
<polygon fill="#de958e" stroke="#de958e" points="1210.0994,-411.6435 1219.8779,-407.5653 1209.6905,-404.6554 1210.0994,-411.6435"/>
</g>
<!-- schematics.types&#45;&gt;hidebound.core.specification_base -->
<g id="edge85" class="edge">
<title>schematics.types&#45;&gt;hidebound.core.specification_base</title>
<path fill="none" stroke="#de958e" d="M740.2646,-443.362C763.9334,-447.1125 789.2987,-454.1362 810,-467 832.6498,-481.0747 825.2448,-498.2569 846,-515 871.5655,-535.6236 904.1944,-551.6595 932.705,-563.1482"/>
<polygon fill="#de958e" stroke="#de958e" points="931.6122,-566.479 942.1998,-566.8701 934.1669,-559.9619 931.6122,-566.479"/>
</g>
<!-- schematics.types&#45;&gt;hidebound.core.specifications -->
<g id="edge86" class="edge">
<title>schematics.types&#45;&gt;hidebound.core.specifications</title>
<path fill="none" stroke="#de958e" d="M740.2608,-441.0084C838.0785,-444.6546 1013.2335,-459.2631 1151,-515 1204.4187,-536.6119 1257.2022,-578.6509 1287.9162,-605.7443"/>
<polygon fill="#de958e" stroke="#de958e" points="1285.8198,-608.565 1295.6061,-612.6243 1290.4872,-603.3481 1285.8198,-608.565"/>
</g>
<!-- schematics.types&#45;&gt;hidebound.exporters.girder_exporter -->
<g id="edge87" class="edge">
<title>schematics.types&#45;&gt;hidebound.exporters.girder_exporter</title>
<path fill="none" stroke="#de958e" d="M740.2317,-426.3104C784.3635,-418.2262 841.0041,-407.8506 889.9912,-398.877"/>
<polygon fill="#de958e" stroke="#de958e" points="890.7947,-402.2881 900.0004,-397.0435 889.5333,-395.4027 890.7947,-402.2881"/>
</g>
<!-- schematics.types&#45;&gt;hidebound.exporters.s3_exporter -->
<g id="edge88" class="edge">
<title>schematics.types&#45;&gt;hidebound.exporters.s3_exporter</title>
<path fill="none" stroke="#de958e" d="M740.0215,-438.1312C764.0701,-434.5223 789.7261,-427.2055 810,-413 835.7815,-394.9355 822.3386,-372.7642 846,-352 867.7706,-332.8951 895.9927,-318.7658 922.2291,-308.6527"/>
<polygon fill="#de958e" stroke="#de958e" points="923.631,-311.8658 931.7897,-305.1068 921.1967,-305.3027 923.631,-311.8658"/>
</g>
<!-- hidebound.core&#45;&gt;hidebound.core.config -->
<g id="edge89" class="edge">
<title>hidebound.core&#45;&gt;hidebound.core.config</title>
<path fill="none" stroke="#a0d17b" d="M200.569,-791.9107C214.559,-757.6578 244.368,-680.6906 259,-613 275.5196,-536.5769 253.6171,-329.3388 295,-263 357.6608,-162.5519 407.1848,-154.5928 521,-122 790.4461,-44.8399 910.3018,-6.406 1151,-150 1238.1753,-202.0064 1287.5433,-320.4167 1306.2393,-374.3352"/>
<polygon fill="#a0d17b" stroke="#a0d17b" points="1302.9604,-375.5653 1309.4739,-383.9215 1309.5931,-373.3274 1302.9604,-375.5653"/>
</g>
<!-- hidebound.core&#45;&gt;hidebound.core.database -->
<g id="edge90" class="edge">
<title>hidebound.core&#45;&gt;hidebound.core.database</title>
<path fill="none" stroke="#a0d17b" d="M194.5214,-828.2089C199.4407,-874.0433 219.325,-994.1442 295,-1045 378.3883,-1101.0394 420.5371,-1048.8888 521,-1050 649.4366,-1051.4206 681.7788,-1057.5696 810,-1050 880.7022,-1045.8261 1378.6205,-1004.5212 1443,-975 1462.7297,-965.953 1459.7342,-951.997 1479,-942 1483.9216,-939.4462 1489.0664,-937.1248 1494.3473,-935.0149"/>
<polygon fill="#a0d17b" stroke="#a0d17b" points="1495.8231,-938.2005 1503.9811,-931.4406 1493.3881,-931.6377 1495.8231,-938.2005"/>
</g>
<!-- hidebound.core&#45;&gt;hidebound.core.database_tools -->
<g id="edge91" class="edge">
<title>hidebound.core&#45;&gt;hidebound.core.database_tools</title>
<path fill="none" stroke="#a0d17b" d="M195.7026,-828.012C203.0041,-869.4712 227.3532,-971.2839 295,-1013 450.572,-1108.9373 1014.2252,-992.0645 1230.0865,-942.3393"/>
<polygon fill="#a0d17b" stroke="#a0d17b" points="1231.1456,-945.6868 1240.0997,-940.0233 1229.5682,-938.8668 1231.1456,-945.6868"/>
</g>
<!-- hidebound.core&#45;&gt;hidebound.core.parser -->
<g id="edge92" class="edge">
<title>hidebound.core&#45;&gt;hidebound.core.parser</title>
<path fill="none" stroke="#a0d17b" d="M210.9767,-791.7041C230.7392,-772.0132 263.8348,-740.2581 295,-716 312.6021,-702.299 333.2237,-688.5858 350.7478,-677.5529"/>
<polygon fill="#a0d17b" stroke="#a0d17b" points="352.9587,-680.2993 359.597,-672.0419 349.2583,-674.3573 352.9587,-680.2993"/>
</g>
<!-- hidebound.core&#45;&gt;hidebound.core.specification_base -->
<g id="edge93" class="edge">
<title>hidebound.core&#45;&gt;hidebound.core.specification_base</title>
<path fill="none" stroke="#a0d17b" d="M257.8599,-791.9702C370.2969,-760.7035 608.6806,-694.3628 810,-638 847.6904,-627.4479 889.6067,-615.667 924.324,-605.8969"/>
<polygon fill="#a0d17b" stroke="#a0d17b" points="925.706,-609.144 934.3837,-603.0655 923.8094,-602.4058 925.706,-609.144"/>
</g>
<!-- hidebound.core&#45;&gt;hidebound.core.specifications -->
<g id="edge94" class="edge">
<title>hidebound.core&#45;&gt;hidebound.core.specifications</title>
<path fill="none" stroke="#a0d17b" d="M259.2349,-821.1728C271.11,-822.7667 283.3968,-824.1514 295,-825 379.2195,-831.1595 400.5572,-825.5196 485,-825 781.0598,-823.1782 881.9604,-934.5816 1151,-811 1221.7165,-778.5168 1275.5295,-699.6808 1300.1848,-657.9475"/>
<polygon fill="#a0d17b" stroke="#a0d17b" points="1303.2954,-659.56 1305.2732,-649.1514 1297.2362,-656.0548 1303.2954,-659.56"/>
</g>
<!-- hidebound.core&#45;&gt;hidebound.core.tools -->
<g id="edge95" class="edge">
<title>hidebound.core&#45;&gt;hidebound.core.tools</title>
<path fill="none" stroke="#a0d17b" d="M202.9665,-828.0946C218.5975,-854.351 251.6278,-901.9521 295,-921 341.491,-941.4176 471.373,-930.9759 564.218,-919.954"/>
<polygon fill="#a0d17b" stroke="#a0d17b" points="564.7049,-923.4207 574.2137,-918.7483 563.8665,-916.4711 564.7049,-923.4207"/>
</g>
<!-- hidebound.core&#45;&gt;hidebound.core.traits -->
<g id="edge96" class="edge">
<title>hidebound.core&#45;&gt;hidebound.core.traits</title>
<path fill="none" stroke="#a0d17b" d="M259.2631,-811.1815C372.3262,-812.7647 609.7219,-814.2073 810,-803 836.936,-801.4927 865.9618,-799.0008 892.9733,-796.31"/>
<polygon fill="#a0d17b" stroke="#a0d17b" points="893.6229,-799.7622 903.2185,-795.2707 892.9163,-792.7979 893.6229,-799.7622"/>
</g>
<!-- hidebound.core&#45;&gt;hidebound.core.validators -->
<g id="edge97" class="edge">
<title>hidebound.core&#45;&gt;hidebound.core.validators</title>
<path fill="none" stroke="#a0d17b" d="M199.175,-791.5762C220.8111,-727.0785 292.0471,-515.2245 295,-513 333.0954,-484.3027 451.1172,-482.4506 543.8354,-485.9872"/>
<polygon fill="#a0d17b" stroke="#a0d17b" points="543.731,-489.4857 553.8647,-486.3942 544.0149,-482.4915 543.731,-489.4857"/>
</g>
<!-- wrapt -->
<g id="node43" class="node">
<title>wrapt</title>
<polygon fill="#343434" stroke="#343434" points="419,-466 361,-466 361,-430 419,-430 419,-466"/>
<text text-anchor="middle" x="390" y="-444.3" font-family="Courier,monospace" font-size="14.00" fill="#de958e">wrapt</text>
</g>
<!-- wrapt&#45;&gt;hidebound.core.validators -->
<g id="edge98" class="edge">
<title>wrapt&#45;&gt;hidebound.core.validators</title>
<path fill="none" stroke="#de958e" d="M419.2225,-452.8793C449.9281,-458.0061 500.2266,-466.4044 547.3895,-474.2792"/>
<polygon fill="#de958e" stroke="#de958e" points="546.9578,-477.7555 557.3977,-475.9503 548.1107,-470.8511 546.9578,-477.7555"/>
</g>
<!-- schematics.exceptions -->
<g id="node44" class="node">
<title>schematics.exceptions</title>
<polygon fill="#343434" stroke="#343434" points="485,-558 295,-558 295,-522 485,-522 485,-558"/>
<text text-anchor="middle" x="390" y="-536.3" font-family="Courier,monospace" font-size="14.00" fill="#de958e">schematics.exceptions</text>
</g>
<!-- schematics.exceptions&#45;&gt;hidebound.core.config -->
<g id="edge99" class="edge">
<title>schematics.exceptions&#45;&gt;hidebound.core.config</title>
<path fill="none" stroke="#de958e" d="M431.4718,-521.8503C450.9802,-511.109 472.6275,-495.5429 485,-475 521.464,-414.4563 468.2716,-206.0625 521,-159 626.7812,-64.5856 1026.6234,-191.925 1151,-260 1207.9531,-291.1721 1262.5705,-344.7541 1292.1715,-376.4288"/>
<polygon fill="#de958e" stroke="#de958e" points="1289.7897,-379.0086 1299.1444,-383.9827 1294.9334,-374.2606 1289.7897,-379.0086"/>
</g>
<!-- schematics.exceptions&#45;&gt;hidebound.core.database_tools -->
<g id="edge100" class="edge">
<title>schematics.exceptions&#45;&gt;hidebound.core.database_tools</title>
<path fill="none" stroke="#de958e" d="M464.9928,-558.0085C483.271,-562.1668 502.8005,-566.4174 521,-570 555.8057,-576.8515 1125.535,-649.3035 1151,-674 1210.5046,-731.7089 1136.9947,-790.8897 1187,-857 1201.3413,-875.9601 1222.7656,-889.8151 1244.0037,-899.7371"/>
<polygon fill="#de958e" stroke="#de958e" points="1242.835,-903.0471 1253.3964,-903.8873 1245.6641,-896.6443 1242.835,-903.0471"/>
</g>
<!-- schematics.exceptions&#45;&gt;hidebound.core.specification_base -->
<g id="edge101" class="edge">
<title>schematics.exceptions&#45;&gt;hidebound.core.specification_base</title>
<path fill="none" stroke="#de958e" d="M485.1825,-543.9752C570.3767,-547.8817 698.6496,-554.6229 810,-564 821.0394,-564.9297 832.433,-565.9777 843.897,-567.0969"/>
<polygon fill="#de958e" stroke="#de958e" points="843.6856,-570.593 853.9823,-568.0976 844.3768,-563.6272 843.6856,-570.593"/>
</g>
<!-- schematics.exceptions&#45;&gt;hidebound.core.tools -->
<g id="edge102" class="edge">
<title>schematics.exceptions&#45;&gt;hidebound.core.tools</title>
<path fill="none" stroke="#de958e" d="M417.745,-558.0119C439.4799,-573.6247 468.6819,-598.2031 485,-627 524.3627,-696.4643 477.469,-736.0689 521,-803 544.0845,-838.4935 584.0292,-865.5631 616.0782,-883.0239"/>
<polygon fill="#de958e" stroke="#de958e" points="614.8388,-886.328 625.3144,-887.9127 618.1135,-880.1411 614.8388,-886.328"/>
</g>
<!-- schematics.exceptions&#45;&gt;hidebound.core.validators -->
<g id="edge103" class="edge">
<title>schematics.exceptions&#45;&gt;hidebound.core.validators</title>
<path fill="none" stroke="#de958e" d="M485.1972,-524.105C505.2462,-520.7574 526.6288,-517.1872 547.4026,-513.7186"/>
<polygon fill="#de958e" stroke="#de958e" points="548.2562,-517.1246 557.5432,-512.0255 547.1033,-510.2202 548.2562,-517.1246"/>
</g>
<!-- schematics.exceptions&#45;&gt;hidebound.server.api -->
<g id="edge104" class="edge">
<title>schematics.exceptions&#45;&gt;hidebound.server.api</title>
<path fill="none" stroke="#de958e" d="M431.5747,-521.9118C451.1093,-511.1862 472.749,-495.6155 485,-475 525.2823,-407.2145 465.7827,-178.2902 521,-122 670.7054,30.6141 784.7179,-64 998.5,-64 998.5,-64 998.5,-64 1315,-64 1718.4814,-64 1529.9887,-525.4096 1771,-849 1799.0709,-886.689 1837.2616,-925.195 1862.8414,-949.5501"/>
<polygon fill="#de958e" stroke="#de958e" points="1860.6754,-952.3185 1870.3499,-956.6377 1865.4804,-947.2282 1860.6754,-952.3185"/>
</g>
<!-- OpenEXR -->
<g id="node45" class="node">
<title>OpenEXR</title>
<polygon fill="#343434" stroke="#343434" points="427,-912 353,-912 353,-876 427,-876 427,-912"/>
<text text-anchor="middle" x="390" y="-890.3" font-family="Courier,monospace" font-size="14.00" fill="#de958e">OpenEXR</text>
</g>
<!-- OpenEXR&#45;&gt;hidebound.core.tools -->
<g id="edge105" class="edge">
<title>OpenEXR&#45;&gt;hidebound.core.tools</title>
<path fill="none" stroke="#de958e" d="M427.1552,-895.6184C462.1896,-897.1444 516.3125,-899.5018 564.1336,-901.5848"/>
<polygon fill="#de958e" stroke="#de958e" points="564.0904,-905.0861 574.2333,-902.0247 564.3951,-898.0927 564.0904,-905.0861"/>
</g>
<!-- skimage.io -->
<g id="node46" class="node">
<title>skimage.io</title>
<polygon fill="#343434" stroke="#343434" points="715,-794 616,-794 616,-758 715,-758 715,-794"/>
<text text-anchor="middle" x="665.5" y="-772.3" font-family="Courier,monospace" font-size="14.00" fill="#de958e">skimage.io</text>
</g>
<!-- skimage.io&#45;&gt;hidebound.core.traits -->
<g id="edge106" class="edge">
<title>skimage.io&#45;&gt;hidebound.core.traits</title>
<path fill="none" stroke="#de958e" d="M715.3535,-777.1977C762.177,-778.3226 833.7345,-780.0417 893.196,-781.4702"/>
<polygon fill="#de958e" stroke="#de958e" points="893.306,-784.9737 903.3872,-781.715 893.4742,-777.9758 893.306,-784.9737"/>
</g>
</g>
</svg>
