<?xml version="1.0" encoding="UTF-8" standalone="no"?>
<!DOCTYPE svg PUBLIC "-//W3C//DTD SVG 1.1//EN"
 "http://www.w3.org/Graphics/SVG/1.1/DTD/svg11.dtd">
<!-- Generated by graphviz version 2.40.1 (20161225.0304)
 -->
<!-- Title: %3 Pages: 1 -->
<svg width="2236pt" height="1692pt"
 viewBox="0.00 0.00 2236.00 1692.14" xmlns="http://www.w3.org/2000/svg" xmlns:xlink="http://www.w3.org/1999/xlink">
<g id="graph0" class="graph" transform="scale(1 1) rotate(0) translate(4 1688.136)">
<title>%3</title>
<polygon fill="#242424" stroke="transparent" points="-4,4 -4,-1688.136 2232,-1688.136 2232,4 -4,4"/>
<!-- cli -->
<g id="node1" class="node">
<title>cli</title>
<polygon fill="#343434" stroke="#343434" points="72.5,-1020 18.5,-1020 18.5,-984 72.5,-984 72.5,-1020"/>
<text text-anchor="middle" x="45.5" y="-998.3" font-family="Courier,monospace" font-size="14.00" fill="#b6ecf3">cli</text>
</g>
<!-- hidebound.core.config -->
<g id="node2" class="node">
<title>hidebound.core.config</title>
<polygon fill="#343434" stroke="#343434" points="1410,-1418 1220,-1418 1220,-1382 1410,-1382 1410,-1418"/>
<text text-anchor="middle" x="1315" y="-1396.3" font-family="Courier,monospace" font-size="14.00" fill="#b6ecf3">hidebound.core.config</text>
</g>
<!-- hidebound.core.database -->
<g id="node3" class="node">
<title>hidebound.core.database</title>
<polygon fill="#343434" stroke="#343434" points="1710,-882 1504,-882 1504,-846 1710,-846 1710,-882"/>
<text text-anchor="middle" x="1607" y="-860.3" font-family="Courier,monospace" font-size="14.00" fill="#b6ecf3">hidebound.core.database</text>
</g>
<!-- hidebound.core.config&#45;&gt;hidebound.core.database -->
<g id="edge1" class="edge">
<title>hidebound.core.config&#45;&gt;hidebound.core.database</title>
<path fill="none" stroke="#b6ecf3" d="M1330.1245,-1381.8348C1355.509,-1350.8076 1407.3971,-1285.0258 1443,-1224 1512.0103,-1105.7118 1573.0132,-953.285 1596.6147,-891.6654"/>
<polygon fill="#b6ecf3" stroke="#b6ecf3" points="1599.916,-892.8311 1600.2036,-882.2401 1593.3742,-890.3401 1599.916,-892.8311"/>
</g>
<!-- hidebound.server.app -->
<g id="node14" class="node">
<title>hidebound.server.app</title>
<polygon fill="#343434" stroke="#343434" points="2228,-420 2046,-420 2046,-384 2228,-384 2228,-420"/>
<text text-anchor="middle" x="2137" y="-398.3" font-family="Courier,monospace" font-size="14.00" fill="#b6ecf3">hidebound.server.app</text>
</g>
<!-- hidebound.core.config&#45;&gt;hidebound.server.app -->
<g id="edge2" class="edge">
<title>hidebound.core.config&#45;&gt;hidebound.server.app</title>
<path fill="none" stroke="#b6ecf3" d="M1410.0021,-1390.5816C1502.9107,-1376.8066 1643.4096,-1343.2259 1735,-1262 2008.8259,-1019.1607 2110.0841,-550.4988 2132.1166,-430.5237"/>
<polygon fill="#b6ecf3" stroke="#b6ecf3" points="2135.6255,-430.7861 2133.9512,-420.3244 2128.736,-429.5467 2135.6255,-430.7861"/>
</g>
<!-- hidebound.server.api -->
<g id="node13" class="node">
<title>hidebound.server.api</title>
<polygon fill="#343434" stroke="#343434" points="1981.5,-657 1799.5,-657 1799.5,-621 1981.5,-621 1981.5,-657"/>
<text text-anchor="middle" x="1890.5" y="-635.3" font-family="Courier,monospace" font-size="14.00" fill="#b6ecf3">hidebound.server.api</text>
</g>
<!-- hidebound.core.database&#45;&gt;hidebound.server.api -->
<g id="edge3" class="edge">
<title>hidebound.core.database&#45;&gt;hidebound.server.api</title>
<path fill="none" stroke="#b6ecf3" d="M1629.7208,-845.9676C1680.3155,-805.8131 1802.3093,-708.9926 1859.69,-663.4523"/>
<polygon fill="#b6ecf3" stroke="#b6ecf3" points="1862.0139,-666.0764 1867.671,-657.1182 1857.6623,-660.5933 1862.0139,-666.0764"/>
</g>
<!-- hidebound.core.database_tools -->
<g id="node4" class="node">
<title>hidebound.core.database_tools</title>
<polygon fill="#343434" stroke="#343434" points="1443,-882 1187,-882 1187,-846 1443,-846 1443,-882"/>
<text text-anchor="middle" x="1315" y="-860.3" font-family="Courier,monospace" font-size="14.00" fill="#b6ecf3">hidebound.core.database_tools</text>
</g>
<!-- hidebound.core.database_tools&#45;&gt;hidebound.core.database -->
<g id="edge4" class="edge">
<title>hidebound.core.database_tools&#45;&gt;hidebound.core.database</title>
<path fill="none" stroke="#b6ecf3" d="M1443.0755,-864C1459.826,-864 1476.8962,-864 1493.386,-864"/>
<polygon fill="#b6ecf3" stroke="#b6ecf3" points="1493.5702,-867.5001 1503.5701,-864 1493.5701,-860.5001 1493.5702,-867.5001"/>
</g>
<!-- hidebound.core.parser -->
<g id="node5" class="node">
<title>hidebound.core.parser</title>
<polygon fill="#343434" stroke="#343434" points="485,-1158 295,-1158 295,-1122 485,-1122 485,-1158"/>
<text text-anchor="middle" x="390" y="-1136.3" font-family="Courier,monospace" font-size="14.00" fill="#b6ecf3">hidebound.core.parser</text>
</g>
<!-- hidebound.core.parser&#45;&gt;hidebound.core.database_tools -->
<g id="edge5" class="edge">
<title>hidebound.core.parser&#45;&gt;hidebound.core.database_tools</title>
<path fill="none" stroke="#b6ecf3" d="M399.1862,-1121.9936C417.3761,-1088.3848 461.4305,-1016.4851 521,-983 549.29,-967.0977 956.7431,-911.3395 1176.6348,-882.141"/>
<polygon fill="#b6ecf3" stroke="#b6ecf3" points="1177.1858,-885.5987 1186.6386,-880.8138 1176.2651,-878.6595 1177.1858,-885.5987"/>
</g>
<!-- hidebound.core.specification_base -->
<g id="node6" class="node">
<title>hidebound.core.specification_base</title>
<polygon fill="#343434" stroke="#343434" points="1143,-1205 854,-1205 854,-1169 1143,-1169 1143,-1205"/>
<text text-anchor="middle" x="998.5" y="-1183.3" font-family="Courier,monospace" font-size="14.00" fill="#b6ecf3">hidebound.core.specification_base</text>
</g>
<!-- hidebound.core.parser&#45;&gt;hidebound.core.specification_base -->
<g id="edge6" class="edge">
<title>hidebound.core.parser&#45;&gt;hidebound.core.specification_base</title>
<path fill="none" stroke="#b6ecf3" d="M485.0781,-1147.3438C580.9579,-1154.7494 730.5534,-1166.304 843.5835,-1175.0344"/>
<polygon fill="#b6ecf3" stroke="#b6ecf3" points="843.4754,-1178.5364 853.7153,-1175.817 844.0145,-1171.5572 843.4754,-1178.5364"/>
</g>
<!-- hidebound.core.validators -->
<g id="node10" class="node">
<title>hidebound.core.validators</title>
<polygon fill="#343434" stroke="#343434" points="777,-1348 554,-1348 554,-1312 777,-1312 777,-1348"/>
<text text-anchor="middle" x="665.5" y="-1326.3" font-family="Courier,monospace" font-size="14.00" fill="#b6ecf3">hidebound.core.validators</text>
</g>
<!-- hidebound.core.parser&#45;&gt;hidebound.core.validators -->
<g id="edge7" class="edge">
<title>hidebound.core.parser&#45;&gt;hidebound.core.validators</title>
<path fill="none" stroke="#b6ecf3" d="M416.4161,-1158.218C466.4013,-1192.6906 574.8044,-1267.4513 630.6665,-1305.9769"/>
<polygon fill="#b6ecf3" stroke="#b6ecf3" points="628.9447,-1309.041 639.1639,-1311.8372 632.9188,-1303.2785 628.9447,-1309.041"/>
</g>
<!-- hidebound.core.specification_base&#45;&gt;hidebound.core.config -->
<g id="edge8" class="edge">
<title>hidebound.core.specification_base&#45;&gt;hidebound.core.config</title>
<path fill="none" stroke="#b6ecf3" d="M1025.4846,-1205.1603C1082.5942,-1243.5942 1215.6654,-1333.1492 1279.5444,-1376.1389"/>
<polygon fill="#b6ecf3" stroke="#b6ecf3" points="1277.8333,-1379.2061 1288.0837,-1381.8857 1281.7416,-1373.3987 1277.8333,-1379.2061"/>
</g>
<!-- hidebound.core.specification_base&#45;&gt;hidebound.core.database -->
<g id="edge9" class="edge">
<title>hidebound.core.specification_base&#45;&gt;hidebound.core.database</title>
<path fill="none" stroke="#b6ecf3" d="M1043.2747,-1168.904C1124.8643,-1135.2883 1302.3057,-1059.2078 1443,-978 1491.1065,-950.2332 1543.2213,-912.5806 1575.493,-888.2853"/>
<polygon fill="#b6ecf3" stroke="#b6ecf3" points="1577.7916,-890.935 1583.6522,-882.1087 1573.5666,-885.3539 1577.7916,-890.935"/>
</g>
<!-- hidebound.core.specification_base&#45;&gt;hidebound.core.database_tools -->
<g id="edge10" class="edge">
<title>hidebound.core.specification_base&#45;&gt;hidebound.core.database_tools</title>
<path fill="none" stroke="#b6ecf3" d="M1043.8948,-1168.8394C1078.7925,-1152.4617 1125.2542,-1124.9393 1151,-1086 1199.6067,-1012.4847 1125.4761,-954.1024 1187,-891 1187.8125,-890.1666 1188.6439,-889.3558 1189.4929,-888.5669"/>
<polygon fill="#b6ecf3" stroke="#b6ecf3" points="1191.994,-891.0463 1197.5824,-882.0451 1187.6006,-885.5967 1191.994,-891.0463"/>
</g>
<!-- hidebound.core.specifications -->
<g id="node7" class="node">
<title>hidebound.core.specifications</title>
<polygon fill="#343434" stroke="#343434" points="1443,-1182 1187,-1182 1187,-1146 1443,-1146 1443,-1182"/>
<text text-anchor="middle" x="1315" y="-1160.3" font-family="Courier,monospace" font-size="14.00" fill="#b6ecf3">hidebound.core.specifications</text>
</g>
<!-- hidebound.core.specification_base&#45;&gt;hidebound.core.specifications -->
<g id="edge11" class="edge">
<title>hidebound.core.specification_base&#45;&gt;hidebound.core.specifications</title>
<path fill="none" stroke="#b6ecf3" d="M1143.3193,-1176.476C1154.4106,-1175.67 1165.5905,-1174.8576 1176.639,-1174.0547"/>
<polygon fill="#b6ecf3" stroke="#b6ecf3" points="1177.0223,-1177.5361 1186.7423,-1173.3205 1176.5149,-1170.5545 1177.0223,-1177.5361"/>
</g>
<!-- hidebound.core.tools -->
<g id="node8" class="node">
<title>hidebound.core.tools</title>
<polygon fill="#343434" stroke="#343434" points="756.5,-898 574.5,-898 574.5,-862 756.5,-862 756.5,-898"/>
<text text-anchor="middle" x="665.5" y="-876.3" font-family="Courier,monospace" font-size="14.00" fill="#b6ecf3">hidebound.core.tools</text>
</g>
<!-- hidebound.core.tools&#45;&gt;hidebound.core.database -->
<g id="edge12" class="edge">
<title>hidebound.core.tools&#45;&gt;hidebound.core.database</title>
<path fill="none" stroke="#b6ecf3" d="M729.9234,-861.999C758.0901,-851.1332 789.3473,-834.5173 810,-810 847.2467,-765.7834 799.8078,-719.7664 846,-685 900.1534,-644.2417 1093.2449,-649.5292 1151,-685 1181.1483,-703.5158 1158.2966,-735.3151 1187,-756 1280.3178,-823.2488 1332.3098,-762.7223 1443,-794 1484.8916,-805.8373 1530.2443,-825.7909 1562.6161,-841.3728"/>
<polygon fill="#b6ecf3" stroke="#b6ecf3" points="1561.2841,-844.6171 1571.8073,-845.8474 1564.3482,-838.3233 1561.2841,-844.6171"/>
</g>
<!-- hidebound.core.tools&#45;&gt;hidebound.core.database_tools -->
<g id="edge13" class="edge">
<title>hidebound.core.tools&#45;&gt;hidebound.core.database_tools</title>
<path fill="none" stroke="#b6ecf3" d="M756.8368,-877.75C866.0375,-875.0599 1049.9012,-870.5305 1176.5862,-867.4097"/>
<polygon fill="#b6ecf3" stroke="#b6ecf3" points="1176.8394,-870.9047 1186.7501,-867.1593 1176.667,-863.9068 1176.8394,-870.9047"/>
</g>
<!-- hidebound.core.tools&#45;&gt;hidebound.core.specification_base -->
<g id="edge14" class="edge">
<title>hidebound.core.tools&#45;&gt;hidebound.core.specification_base</title>
<path fill="none" stroke="#b6ecf3" d="M697.3326,-898.0069C728.4232,-916.6115 775.9086,-947.8258 810,-983 830.0748,-1003.7124 827.6209,-1014.7692 846,-1037 885.2653,-1084.4943 937.7012,-1133.4408 969.736,-1162.002"/>
<polygon fill="#b6ecf3" stroke="#b6ecf3" points="967.6146,-1164.7986 977.4204,-1168.8108 972.2569,-1159.5593 967.6146,-1164.7986"/>
</g>
<!-- hidebound.core.traits -->
<g id="node9" class="node">
<title>hidebound.core.traits</title>
<polygon fill="#343434" stroke="#343434" points="1093.5,-1028 903.5,-1028 903.5,-992 1093.5,-992 1093.5,-1028"/>
<text text-anchor="middle" x="998.5" y="-1006.3" font-family="Courier,monospace" font-size="14.00" fill="#b6ecf3">hidebound.core.traits</text>
</g>
<!-- hidebound.core.tools&#45;&gt;hidebound.core.traits -->
<g id="edge15" class="edge">
<title>hidebound.core.tools&#45;&gt;hidebound.core.traits</title>
<path fill="none" stroke="#b6ecf3" d="M708.7957,-898.1054C738.176,-911.0754 777.4462,-929.7678 810,-950 827.2158,-960.6996 827.6089,-969.4776 846,-978 860.7366,-984.8289 876.9489,-990.2148 893.1341,-994.4589"/>
<polygon fill="#b6ecf3" stroke="#b6ecf3" points="892.6461,-997.9439 903.1948,-996.9565 894.3328,-991.1501 892.6461,-997.9439"/>
</g>
<!-- hidebound.core.traits&#45;&gt;hidebound.core.specifications -->
<g id="edge16" class="edge">
<title>hidebound.core.traits&#45;&gt;hidebound.core.specifications</title>
<path fill="none" stroke="#b6ecf3" d="M1035.7373,-1028.1186C1093.7118,-1056.3274 1205.434,-1110.6883 1268.578,-1141.4123"/>
<polygon fill="#b6ecf3" stroke="#b6ecf3" points="1267.3811,-1144.7223 1277.9045,-1145.9504 1270.4438,-1138.4278 1267.3811,-1144.7223"/>
</g>
<!-- hidebound.core.validators&#45;&gt;hidebound.core.config -->
<g id="edge17" class="edge">
<title>hidebound.core.validators&#45;&gt;hidebound.core.config</title>
<path fill="none" stroke="#b6ecf3" d="M777.153,-1342.0334C898.4759,-1355.109 1090.8419,-1375.8413 1209.6388,-1388.6447"/>
<polygon fill="#b6ecf3" stroke="#b6ecf3" points="1209.5175,-1392.1518 1219.835,-1389.7436 1210.2677,-1385.1921 1209.5175,-1392.1518"/>
</g>
<!-- hidebound.core.validators&#45;&gt;hidebound.core.specification_base -->
<g id="edge18" class="edge">
<title>hidebound.core.validators&#45;&gt;hidebound.core.specification_base</title>
<path fill="none" stroke="#b6ecf3" d="M707.6747,-1311.889C768.6428,-1285.7075 881.2826,-1237.3366 947.0536,-1209.0926"/>
<polygon fill="#b6ecf3" stroke="#b6ecf3" points="948.5982,-1212.2384 956.4058,-1205.0765 945.8361,-1205.8064 948.5982,-1212.2384"/>
</g>
<!-- hidebound.core.validators&#45;&gt;hidebound.core.specifications -->
<g id="edge19" class="edge">
<title>hidebound.core.validators&#45;&gt;hidebound.core.specifications</title>
<path fill="none" stroke="#b6ecf3" d="M771.2363,-1311.9849C870.9793,-1293.3066 1023.7598,-1260.3151 1151,-1214 1167.8096,-1207.8814 1170.2226,-1202.2064 1187,-1196 1198.0773,-1191.9022 1209.8851,-1188.157 1221.6797,-1184.7885"/>
<polygon fill="#b6ecf3" stroke="#b6ecf3" points="1222.8658,-1188.0918 1231.5678,-1182.0481 1220.9962,-1181.346 1222.8658,-1188.0918"/>
</g>
<!-- hidebound.exporters.girder_exporter -->
<g id="node12" class="node">
<title>hidebound.exporters.girder_exporter</title>
<polygon fill="#343434" stroke="#343434" points="1151,-1464 846,-1464 846,-1428 1151,-1428 1151,-1464"/>
<text text-anchor="middle" x="998.5" y="-1442.3" font-family="Courier,monospace" font-size="14.00" fill="#b6ecf3">hidebound.exporters.girder_exporter</text>
</g>
<!-- hidebound.core.validators&#45;&gt;hidebound.exporters.girder_exporter -->
<g id="edge20" class="edge">
<title>hidebound.core.validators&#45;&gt;hidebound.exporters.girder_exporter</title>
<path fill="none" stroke="#b6ecf3" d="M777.2302,-1347.3779C788.4229,-1350.1581 799.5161,-1353.3483 810,-1357 827.0849,-1362.9509 829.7727,-1368.0011 846,-1376 879.7164,-1392.6198 918.1879,-1410.2696 948.0549,-1423.6886"/>
<polygon fill="#b6ecf3" stroke="#b6ecf3" points="946.8757,-1426.9955 957.4327,-1427.8901 949.7378,-1420.6073 946.8757,-1426.9955"/>
</g>
<!-- hidebound.exporters.exporter_base -->
<g id="node11" class="node">
<title>hidebound.exporters.exporter_base</title>
<polygon fill="#343434" stroke="#343434" points="810,-1456 521,-1456 521,-1420 810,-1420 810,-1456"/>
<text text-anchor="middle" x="665.5" y="-1434.3" font-family="Courier,monospace" font-size="14.00" fill="#b6ecf3">hidebound.exporters.exporter_base</text>
</g>
<!-- hidebound.exporters.exporter_base&#45;&gt;hidebound.exporters.girder_exporter -->
<g id="edge21" class="edge">
<title>hidebound.exporters.exporter_base&#45;&gt;hidebound.exporters.girder_exporter</title>
<path fill="none" stroke="#b6ecf3" d="M810.1058,-1441.474C818.6214,-1441.6786 827.2147,-1441.885 835.7946,-1442.0912"/>
<polygon fill="#b6ecf3" stroke="#b6ecf3" points="835.7738,-1445.5916 845.855,-1442.3329 835.942,-1438.5936 835.7738,-1445.5916"/>
</g>
<!-- hidebound.exporters.girder_exporter&#45;&gt;hidebound.core.config -->
<g id="edge22" class="edge">
<title>hidebound.exporters.girder_exporter&#45;&gt;hidebound.core.config</title>
<path fill="none" stroke="#b6ecf3" d="M1122.6808,-1427.9516C1151.3695,-1423.782 1181.6264,-1419.3845 1209.4336,-1415.343"/>
<polygon fill="#b6ecf3" stroke="#b6ecf3" points="1210.1674,-1418.7732 1219.56,-1413.8712 1209.1606,-1411.846 1210.1674,-1418.7732"/>
</g>
<!-- hidebound.exporters.girder_exporter&#45;&gt;hidebound.core.database -->
<g id="edge23" class="edge">
<title>hidebound.exporters.girder_exporter&#45;&gt;hidebound.core.database</title>
<path fill="none" stroke="#b6ecf3" d="M1049.8072,-1427.9836C1139.7557,-1394.1567 1327.3223,-1313.3404 1443,-1191 1529.8277,-1099.1713 1580.7609,-952.5283 1599.1405,-891.7673"/>
<polygon fill="#b6ecf3" stroke="#b6ecf3" points="1602.5162,-892.6939 1602.0041,-882.1115 1595.8052,-890.7036 1602.5162,-892.6939"/>
</g>
<!-- hidebound.server.api&#45;&gt;hidebound.server.app -->
<g id="edge24" class="edge">
<title>hidebound.server.api&#45;&gt;hidebound.server.app</title>
<path fill="none" stroke="#b6ecf3" d="M1963.9012,-620.9993C1980.135,-614.8113 1996.5015,-606.6566 2010,-596 2067.7708,-550.3917 2107.8039,-470.9697 2125.9667,-429.3008"/>
<polygon fill="#b6ecf3" stroke="#b6ecf3" points="2129.2109,-430.6157 2129.9112,-420.044 2122.7712,-427.8716 2129.2109,-430.6157"/>
</g>
<!-- hidebound.server.components -->
<g id="node15" class="node">
<title>hidebound.server.components</title>
<polygon fill="#343434" stroke="#343434" points="2010,-313 1771,-313 1771,-277 2010,-277 2010,-313"/>
<text text-anchor="middle" x="1890.5" y="-291.3" font-family="Courier,monospace" font-size="14.00" fill="#b6ecf3">hidebound.server.components</text>
</g>
<!-- hidebound.server.components&#45;&gt;hidebound.server.app -->
<g id="edge25" class="edge">
<title>hidebound.server.components&#45;&gt;hidebound.server.app</title>
<path fill="none" stroke="#b6ecf3" d="M1932.0366,-313.0301C1974.4366,-331.435 2040.3188,-360.0329 2085.8922,-379.8153"/>
<polygon fill="#b6ecf3" stroke="#b6ecf3" points="2084.7263,-383.1247 2095.2931,-383.896 2087.5136,-376.7035 2084.7263,-383.1247"/>
</g>
<!-- hidebound.server.server_tools -->
<g id="node16" class="node">
<title>hidebound.server.server_tools</title>
<polygon fill="#343434" stroke="#343434" points="1735,-680 1479,-680 1479,-644 1735,-644 1735,-680"/>
<text text-anchor="middle" x="1607" y="-658.3" font-family="Courier,monospace" font-size="14.00" fill="#b6ecf3">hidebound.server.server_tools</text>
</g>
<!-- hidebound.server.server_tools&#45;&gt;hidebound.server.api -->
<g id="edge26" class="edge">
<title>hidebound.server.server_tools&#45;&gt;hidebound.server.api</title>
<path fill="none" stroke="#b6ecf3" d="M1735.0646,-651.6103C1753.2188,-650.1374 1771.6753,-648.6401 1789.2278,-647.2161"/>
<polygon fill="#b6ecf3" stroke="#b6ecf3" points="1789.7648,-650.6841 1799.449,-646.3869 1789.1987,-643.707 1789.7648,-650.6841"/>
</g>
<!-- hidebound.server.server_tools&#45;&gt;hidebound.server.app -->
<g id="edge27" class="edge">
<title>hidebound.server.server_tools&#45;&gt;hidebound.server.app</title>
<path fill="none" stroke="#b6ecf3" d="M1665.8914,-643.9762C1774.1062,-610.7418 1994.9601,-542.332 2010,-533 2054.8308,-505.1831 2095.0858,-458.1096 2117.7421,-428.612"/>
<polygon fill="#b6ecf3" stroke="#b6ecf3" points="2120.6908,-430.5151 2123.9245,-420.4258 2115.1048,-426.2964 2120.6908,-430.5151"/>
</g>
<!-- dash -->
<g id="node17" class="node">
<title>dash</title>
<polygon fill="#343434" stroke="#343434" points="1634,-420 1580,-420 1580,-384 1634,-384 1634,-420"/>
<text text-anchor="middle" x="1607" y="-398.3" font-family="Courier,monospace" font-size="14.00" fill="#de958e">dash</text>
</g>
<!-- dash&#45;&gt;hidebound.server.app -->
<g id="edge28" class="edge">
<title>dash&#45;&gt;hidebound.server.app</title>
<path fill="none" stroke="#de958e" d="M1634.0114,-402C1706.9517,-402 1910.7836,-402 2035.4438,-402"/>
<polygon fill="#de958e" stroke="#de958e" points="2035.7649,-405.5001 2045.7649,-402 2035.7649,-398.5001 2035.7649,-405.5001"/>
</g>
<!-- dash&#45;&gt;hidebound.server.components -->
<g id="edge29" class="edge">
<title>dash&#45;&gt;hidebound.server.components</title>
<path fill="none" stroke="#de958e" d="M1634.4501,-396.8344C1660.7022,-391.4998 1701.1831,-382.2365 1735,-370 1774.8454,-355.5821 1818.1056,-334.2155 1848.8571,-317.972"/>
<polygon fill="#de958e" stroke="#de958e" points="1850.8029,-320.9011 1857.9814,-313.1088 1847.5104,-314.7237 1850.8029,-320.9011"/>
</g>
<!-- dash_core_components -->
<g id="node18" class="node">
<title>dash_core_components</title>
<polygon fill="#343434" stroke="#343434" points="1698,-144 1516,-144 1516,-108 1698,-108 1698,-144"/>
<text text-anchor="middle" x="1607" y="-122.3" font-family="Courier,monospace" font-size="14.00" fill="#de958e">dash_core_components</text>
</g>
<!-- dash_core_components&#45;&gt;hidebound.server.app -->
<g id="edge30" class="edge">
<title>dash_core_components&#45;&gt;hidebound.server.app</title>
<path fill="none" stroke="#de958e" d="M1694.5149,-144.0205C1708.949,-149.5242 1723.0718,-156.6868 1735,-166 1759.2122,-184.9043 1745.6554,-207.6433 1771,-225 1860.0478,-285.9826 1915.0327,-216.7203 2010,-268 2057.7451,-293.781 2097.8808,-344.0628 2119.5923,-375.1674"/>
<polygon fill="#de958e" stroke="#de958e" points="2116.9421,-377.4928 2125.4728,-383.776 2122.7222,-373.5444 2116.9421,-377.4928"/>
</g>
<!-- dash_core_components&#45;&gt;hidebound.server.components -->
<g id="edge31" class="edge">
<title>dash_core_components&#45;&gt;hidebound.server.components</title>
<path fill="none" stroke="#de958e" d="M1698.09,-136.7308C1711.6367,-141.5658 1724.5387,-148.3952 1735,-158 1771.3399,-191.3645 1734.9394,-229.3338 1771,-263 1774.4035,-266.1775 1778.0876,-269.0464 1781.9803,-271.636"/>
<polygon fill="#de958e" stroke="#de958e" points="1780.421,-274.7804 1790.8076,-276.8707 1783.9915,-268.7595 1780.421,-274.7804"/>
</g>
<!-- dash_cytoscape -->
<g id="node19" class="node">
<title>dash_cytoscape</title>
<polygon fill="#343434" stroke="#343434" points="1673,-290 1541,-290 1541,-254 1673,-254 1673,-290"/>
<text text-anchor="middle" x="1607" y="-268.3" font-family="Courier,monospace" font-size="14.00" fill="#de958e">dash_cytoscape</text>
</g>
<!-- dash_cytoscape&#45;&gt;hidebound.server.components -->
<g id="edge32" class="edge">
<title>dash_cytoscape&#45;&gt;hidebound.server.components</title>
<path fill="none" stroke="#de958e" d="M1673.1104,-277.3635C1699.2763,-279.4863 1730.3053,-282.0036 1760.6066,-284.4619"/>
<polygon fill="#de958e" stroke="#de958e" points="1760.5964,-287.9725 1770.8467,-285.2927 1761.1625,-280.9954 1760.5964,-287.9725"/>
</g>
<!-- hidebound.server -->
<g id="node20" class="node">
<title>hidebound.server</title>
<polygon fill="#343434" stroke="#343434" points="1389.5,-454 1240.5,-454 1240.5,-418 1389.5,-418 1389.5,-454"/>
<text text-anchor="middle" x="1315" y="-432.3" font-family="Courier,monospace" font-size="14.00" fill="#a0d17b">hidebound.server</text>
</g>
<!-- hidebound.server&#45;&gt;hidebound.server.api -->
<g id="edge33" class="edge">
<title>hidebound.server&#45;&gt;hidebound.server.api</title>
<path fill="none" stroke="#a0d17b" d="M1389.7734,-439.0641C1408.8817,-443.0449 1428.1874,-450.2692 1443,-463 1477.5583,-492.7013 1443.286,-530.6989 1479,-559 1523.9557,-594.6246 1678.9108,-579.9946 1735,-592 1766.3302,-598.706 1800.4766,-608.7159 1828.7697,-617.7769"/>
<polygon fill="#a0d17b" stroke="#a0d17b" points="1827.9271,-621.1829 1838.519,-620.9353 1830.0845,-614.5236 1827.9271,-621.1829"/>
</g>
<!-- hidebound.server&#45;&gt;hidebound.server.app -->
<g id="edge34" class="edge">
<title>hidebound.server&#45;&gt;hidebound.server.app</title>
<path fill="none" stroke="#a0d17b" d="M1389.6972,-436.2833C1517.1383,-436.2224 1784.6675,-433.7285 2010,-416 2018.3445,-415.3435 2026.9884,-414.5763 2035.662,-413.7454"/>
<polygon fill="#a0d17b" stroke="#a0d17b" points="2036.2326,-417.2063 2045.8416,-412.7435 2035.5469,-410.2399 2036.2326,-417.2063"/>
</g>
<!-- hidebound.server&#45;&gt;hidebound.server.components -->
<g id="edge35" class="edge">
<title>hidebound.server&#45;&gt;hidebound.server.components</title>
<path fill="none" stroke="#a0d17b" d="M1320.4526,-417.9935C1335.9943,-370.2917 1385.5376,-240.9065 1479,-191 1529.1827,-164.2037 1686.6074,-161.0917 1735,-191 1765.4338,-209.8091 1743.2799,-240.3815 1771,-263 1775.2642,-266.4794 1779.8721,-269.5829 1784.7121,-272.3508"/>
<polygon fill="#a0d17b" stroke="#a0d17b" points="1783.1612,-275.4891 1793.6507,-276.9794 1786.38,-269.2731 1783.1612,-275.4891"/>
</g>
<!-- hidebound.server&#45;&gt;hidebound.server.server_tools -->
<g id="edge36" class="edge">
<title>hidebound.server&#45;&gt;hidebound.server.server_tools</title>
<path fill="none" stroke="#a0d17b" d="M1389.521,-438.0264C1408.9638,-441.9515 1428.504,-449.4068 1443,-463 1486.4202,-503.7161 1441.9781,-545.39 1479,-592 1495.6886,-613.0107 1520.4846,-628.6194 1543.8201,-639.6989"/>
<polygon fill="#a0d17b" stroke="#a0d17b" points="1542.461,-642.9257 1553.0134,-643.8738 1545.3554,-636.5521 1542.461,-642.9257"/>
</g>
<!-- dash_html_components -->
<g id="node21" class="node">
<title>dash_html_components</title>
<polygon fill="#343434" stroke="#343434" points="1698,-90 1516,-90 1516,-54 1698,-54 1698,-90"/>
<text text-anchor="middle" x="1607" y="-68.3" font-family="Courier,monospace" font-size="14.00" fill="#de958e">dash_html_components</text>
</g>
<!-- dash_html_components&#45;&gt;hidebound.server.app -->
<g id="edge37" class="edge">
<title>dash_html_components&#45;&gt;hidebound.server.app</title>
<path fill="none" stroke="#de958e" d="M1698.2897,-79.5104C1711.6538,-83.7951 1724.4458,-90.0257 1735,-99 1768.7655,-127.7113 1736.2411,-164.4997 1771,-192 1855.0934,-258.5324 1918.1832,-169.611 2010,-225 2068.7884,-260.4645 2108.0622,-334.6347 2125.9365,-374.7845"/>
<polygon fill="#de958e" stroke="#de958e" points="2122.7337,-376.1964 2129.9203,-383.9813 2129.157,-373.414 2122.7337,-376.1964"/>
</g>
<!-- dash_html_components&#45;&gt;hidebound.server.components -->
<g id="edge38" class="edge">
<title>dash_html_components&#45;&gt;hidebound.server.components</title>
<path fill="none" stroke="#de958e" d="M1698.0391,-78.3708C1711.6728,-82.761 1724.6159,-89.3225 1735,-99 1777.6065,-138.7075 1735.3099,-178.9759 1771,-225 1786.9284,-245.5404 1810.7141,-261.2158 1832.8805,-272.4721"/>
<polygon fill="#de958e" stroke="#de958e" points="1831.4024,-275.6451 1841.9257,-276.8742 1834.4657,-269.351 1831.4024,-275.6451"/>
</g>
<!-- dash_table -->
<g id="node22" class="node">
<title>dash_table</title>
<polygon fill="#343434" stroke="#343434" points="1656.5,-36 1557.5,-36 1557.5,0 1656.5,0 1656.5,-36"/>
<text text-anchor="middle" x="1607" y="-14.3" font-family="Courier,monospace" font-size="14.00" fill="#de958e">dash_table</text>
</g>
<!-- dash_table&#45;&gt;hidebound.server.app -->
<g id="edge39" class="edge">
<title>dash_table&#45;&gt;hidebound.server.app</title>
<path fill="none" stroke="#de958e" d="M1656.6943,-19.5973C1681.9824,-22.5002 1712.125,-29.3651 1735,-45 1759.1196,-61.4856 1746.4741,-84.1251 1771,-100 1861.2925,-158.4437 1923.7323,-73.7639 2010,-138 2089.357,-197.0904 2121.4427,-318.818 2132.2758,-373.8678"/>
<polygon fill="#de958e" stroke="#de958e" points="2128.8833,-374.767 2134.1668,-383.9504 2135.7634,-373.4766 2128.8833,-374.767"/>
</g>
<!-- dash_table&#45;&gt;hidebound.server.components -->
<g id="edge40" class="edge">
<title>dash_table&#45;&gt;hidebound.server.components</title>
<path fill="none" stroke="#de958e" d="M1656.5953,-16.4171C1683.1123,-18.2428 1714.4414,-25.0945 1735,-45 1783.3243,-91.789 1735.8537,-134.6486 1771,-192 1791.21,-224.9785 1825.4863,-252.9155 1852.1604,-271.3379"/>
<polygon fill="#de958e" stroke="#de958e" points="1850.2783,-274.2902 1860.5262,-276.9792 1854.1919,-268.4864 1850.2783,-274.2902"/>
</g>
<!-- flask -->
<g id="node23" class="node">
<title>flask</title>
<polygon fill="#343434" stroke="#343434" points="1344,-508 1286,-508 1286,-472 1344,-472 1344,-508"/>
<text text-anchor="middle" x="1315" y="-486.3" font-family="Courier,monospace" font-size="14.00" fill="#de958e">flask</text>
</g>
<!-- flask&#45;&gt;hidebound.server.api -->
<g id="edge41" class="edge">
<title>flask&#45;&gt;hidebound.server.api</title>
<path fill="none" stroke="#de958e" d="M1344.2368,-489.0929C1372.3659,-489.7177 1414.6861,-494.771 1443,-517 1472.0825,-539.8324 1448.8751,-570.5617 1479,-592 1503.7734,-609.6299 1675.4523,-624.4809 1789.0941,-632.5288"/>
<polygon fill="#de958e" stroke="#de958e" points="1788.999,-636.0306 1799.2194,-633.2387 1789.4887,-629.0477 1788.999,-636.0306"/>
</g>
<!-- flask&#45;&gt;hidebound.server.app -->
<g id="edge42" class="edge">
<title>flask&#45;&gt;hidebound.server.app</title>
<path fill="none" stroke="#de958e" d="M1344.033,-489.6511C1439.8435,-488.0949 1754.426,-479.7558 2010,-436 2029.3498,-432.6872 2050.0328,-427.7626 2068.9692,-422.6833"/>
<polygon fill="#de958e" stroke="#de958e" points="2069.975,-426.0368 2078.6961,-420.0207 2068.1268,-419.2852 2069.975,-426.0368"/>
</g>
<!-- flask&#45;&gt;hidebound.server.components -->
<g id="edge43" class="edge">
<title>flask&#45;&gt;hidebound.server.components</title>
<path fill="none" stroke="#de958e" d="M1344.2606,-491.2707C1372.6083,-490.9436 1415.2692,-486.13 1443,-463 1475.4509,-435.9331 1445.9948,-401.3882 1479,-375 1569.1113,-302.9544 1621.9283,-354.9216 1735,-332 1759.2622,-327.0816 1785.4978,-321.0981 1809.3853,-315.389"/>
<polygon fill="#de958e" stroke="#de958e" points="1810.2099,-318.7905 1819.1137,-313.0483 1808.5724,-311.9847 1810.2099,-318.7905"/>
</g>
<!-- flask&#45;&gt;hidebound.server.server_tools -->
<g id="edge44" class="edge">
<title>flask&#45;&gt;hidebound.server.server_tools</title>
<path fill="none" stroke="#de958e" d="M1344.1291,-488.2613C1372.785,-488.1746 1416.0467,-492.6286 1443,-517 1482.0966,-552.3514 1440.5656,-593.9297 1479,-630 1482.3797,-633.1718 1486.0247,-636.0421 1489.8722,-638.6388"/>
<polygon fill="#de958e" stroke="#de958e" points="1488.2225,-641.7311 1498.5936,-643.897 1491.8369,-635.7363 1488.2225,-641.7311"/>
</g>
<!-- dash.dependencies -->
<g id="node24" class="node">
<title>dash.dependencies</title>
<polygon fill="#343434" stroke="#343434" points="1969,-183 1812,-183 1812,-147 1969,-147 1969,-183"/>
<text text-anchor="middle" x="1890.5" y="-161.3" font-family="Courier,monospace" font-size="14.00" fill="#de958e">dash.dependencies</text>
</g>
<!-- dash.dependencies&#45;&gt;hidebound.server.app -->
<g id="edge45" class="edge">
<title>dash.dependencies&#45;&gt;hidebound.server.app</title>
<path fill="none" stroke="#de958e" d="M1969.2807,-177.0327C1983.7334,-181.6724 1998.0174,-188.0989 2010,-197 2072.2037,-243.2069 2110.8463,-329.7541 2127.4823,-374.1587"/>
<polygon fill="#de958e" stroke="#de958e" points="2124.2575,-375.5321 2130.97,-383.7293 2130.8344,-373.1353 2124.2575,-375.5321"/>
</g>
<!-- rolling_pin.blob_etl -->
<g id="node25" class="node">
<title>rolling_pin.blob_etl</title>
<polygon fill="#343434" stroke="#343434" points="1698,-236 1516,-236 1516,-200 1698,-200 1698,-236"/>
<text text-anchor="middle" x="1607" y="-214.3" font-family="Courier,monospace" font-size="14.00" fill="#de958e">rolling_pin.blob_etl</text>
</g>
<!-- rolling_pin.blob_etl&#45;&gt;hidebound.server.components -->
<g id="edge46" class="edge">
<title>rolling_pin.blob_etl&#45;&gt;hidebound.server.components</title>
<path fill="none" stroke="#de958e" d="M1698.0028,-234.1849C1710.5721,-237.2907 1723.2064,-240.8842 1735,-245 1751.8896,-250.8942 1754.2749,-256.6541 1771,-263 1781.5612,-267.0072 1792.8266,-270.7185 1804.0613,-274.0864"/>
<polygon fill="#de958e" stroke="#de958e" points="1803.3278,-277.5182 1813.9077,-276.9564 1805.2867,-270.7978 1803.3278,-277.5182"/>
</g>
<!-- jinja2 -->
<g id="node26" class="node">
<title>jinja2</title>
<polygon fill="#343434" stroke="#343434" points="1348,-562 1282,-562 1282,-526 1348,-526 1348,-562"/>
<text text-anchor="middle" x="1315" y="-540.3" font-family="Courier,monospace" font-size="14.00" fill="#de958e">jinja2</text>
</g>
<!-- jinja2&#45;&gt;hidebound.server.server_tools -->
<g id="edge47" class="edge">
<title>jinja2&#45;&gt;hidebound.server.server_tools</title>
<path fill="none" stroke="#de958e" d="M1348.2168,-545.7354C1375.7962,-548.6229 1414.9142,-556.2074 1443,-576 1466.5779,-592.6158 1455.4221,-613.3842 1479,-630 1484.1608,-633.6369 1489.694,-636.8616 1495.4597,-639.7207"/>
<polygon fill="#de958e" stroke="#de958e" points="1494.1396,-642.9652 1504.6914,-643.9193 1497.0376,-636.5933 1494.1396,-642.9652"/>
</g>
<!-- hidebound.exporters -->
<g id="node27" class="node">
<title>hidebound.exporters</title>
<polygon fill="#343434" stroke="#343434" points="476.5,-1456 303.5,-1456 303.5,-1420 476.5,-1420 476.5,-1456"/>
<text text-anchor="middle" x="390" y="-1434.3" font-family="Courier,monospace" font-size="14.00" fill="#a0d17b">hidebound.exporters</text>
</g>
<!-- hidebound.exporters&#45;&gt;hidebound.exporters.exporter_base -->
<g id="edge48" class="edge">
<title>hidebound.exporters&#45;&gt;hidebound.exporters.exporter_base</title>
<path fill="none" stroke="#a0d17b" d="M476.7918,-1438C487.7098,-1438 499.125,-1438 510.7034,-1438"/>
<polygon fill="#a0d17b" stroke="#a0d17b" points="510.912,-1441.5001 520.912,-1438 510.912,-1434.5001 510.912,-1441.5001"/>
</g>
<!-- hidebound.exporters&#45;&gt;hidebound.exporters.girder_exporter -->
<g id="edge49" class="edge">
<title>hidebound.exporters&#45;&gt;hidebound.exporters.girder_exporter</title>
<path fill="none" stroke="#a0d17b" d="M400.8494,-1456.4517C420.3109,-1487.4852 464.4543,-1549.0784 521,-1573 639.2943,-1623.0443 687.1581,-1610.5211 810,-1573 875.3343,-1553.0442 938.5082,-1501.9991 972.565,-1471.0395"/>
<polygon fill="#a0d17b" stroke="#a0d17b" points="975.2082,-1473.3628 980.1805,-1464.0072 970.4593,-1468.22 975.2082,-1473.3628"/>
</g>
<!-- flasgger -->
<g id="node28" class="node">
<title>flasgger</title>
<polygon fill="#343434" stroke="#343434" points="1648.5,-550 1565.5,-550 1565.5,-514 1648.5,-514 1648.5,-550"/>
<text text-anchor="middle" x="1607" y="-528.3" font-family="Courier,monospace" font-size="14.00" fill="#de958e">flasgger</text>
</g>
<!-- flasgger&#45;&gt;hidebound.server.api -->
<g id="edge50" class="edge">
<title>flasgger&#45;&gt;hidebound.server.api</title>
<path fill="none" stroke="#de958e" d="M1648.5683,-540.1348C1673.9271,-545.6498 1706.7834,-553.7899 1735,-564 1774.8454,-578.4179 1818.1056,-599.7845 1848.8571,-616.028"/>
<polygon fill="#de958e" stroke="#de958e" points="1847.5104,-619.2763 1857.9814,-620.8912 1850.8029,-613.0989 1847.5104,-619.2763"/>
</g>
<!-- flasgger&#45;&gt;hidebound.server.app -->
<g id="edge51" class="edge">
<title>flasgger&#45;&gt;hidebound.server.app</title>
<path fill="none" stroke="#de958e" d="M1648.739,-536.2875C1723.8599,-542.3779 1885.5866,-548.0018 2010,-500 2050.7953,-484.2602 2089.3214,-450.9643 2113.0165,-427.5677"/>
<polygon fill="#de958e" stroke="#de958e" points="2115.6146,-429.9183 2120.1726,-420.354 2110.6451,-424.9884 2115.6146,-429.9183"/>
</g>
<!-- lunchbox.tools -->
<g id="node29" class="node">
<title>lunchbox.tools</title>
<polygon fill="#343434" stroke="#343434" points="1064.5,-730 932.5,-730 932.5,-694 1064.5,-694 1064.5,-730"/>
<text text-anchor="middle" x="998.5" y="-708.3" font-family="Courier,monospace" font-size="14.00" fill="#de958e">lunchbox.tools</text>
</g>
<!-- lunchbox.tools&#45;&gt;hidebound.core.database_tools -->
<g id="edge52" class="edge">
<title>lunchbox.tools&#45;&gt;hidebound.core.database_tools</title>
<path fill="none" stroke="#de958e" d="M1064.7327,-712.2372C1093.2441,-715.11 1125.7521,-722.3415 1151,-739 1175.3856,-755.0896 1165.5408,-774.1749 1187,-794 1208.3631,-813.7363 1236.3149,-829.851 1260.6464,-841.6222"/>
<polygon fill="#de958e" stroke="#de958e" points="1259.2349,-844.8261 1269.7731,-845.9195 1262.2168,-838.493 1259.2349,-844.8261"/>
</g>
<!-- lunchbox.tools&#45;&gt;hidebound.server.server_tools -->
<g id="edge53" class="edge">
<title>lunchbox.tools&#45;&gt;hidebound.server.server_tools</title>
<path fill="none" stroke="#de958e" d="M1064.716,-703.458C1100.818,-699.0062 1146.3151,-693.728 1187,-690 1280.7869,-681.4061 1386.586,-674.3689 1468.5347,-669.4989"/>
<polygon fill="#de958e" stroke="#de958e" points="1468.8854,-672.9844 1478.6616,-668.9009 1468.4727,-665.9965 1468.8854,-672.9844"/>
</g>
<!-- dash.exceptions -->
<g id="node30" class="node">
<title>dash.exceptions</title>
<polygon fill="#343434" stroke="#343434" points="1960.5,-91 1820.5,-91 1820.5,-55 1960.5,-55 1960.5,-91"/>
<text text-anchor="middle" x="1890.5" y="-69.3" font-family="Courier,monospace" font-size="14.00" fill="#de958e">dash.exceptions</text>
</g>
<!-- dash.exceptions&#45;&gt;hidebound.server.app -->
<g id="edge54" class="edge">
<title>dash.exceptions&#45;&gt;hidebound.server.app</title>
<path fill="none" stroke="#de958e" d="M1960.761,-80.7534C1978.3969,-85.4976 1996.2053,-93.0424 2010,-105 2093.5736,-177.4436 2123.7538,-314.5431 2133.2067,-373.6782"/>
<polygon fill="#de958e" stroke="#de958e" points="2129.7787,-374.4174 2134.7387,-383.7795 2136.6995,-373.3677 2129.7787,-374.4174"/>
</g>
<!-- pandasql -->
<g id="node31" class="node">
<title>pandasql</title>
<polygon fill="#343434" stroke="#343434" points="1356.5,-936 1273.5,-936 1273.5,-900 1356.5,-900 1356.5,-936"/>
<text text-anchor="middle" x="1315" y="-914.3" font-family="Courier,monospace" font-size="14.00" fill="#de958e">pandasql</text>
</g>
<!-- pandasql&#45;&gt;hidebound.core.database -->
<g id="edge55" class="edge">
<title>pandasql&#45;&gt;hidebound.core.database</title>
<path fill="none" stroke="#de958e" d="M1356.5264,-910.3205C1393.7247,-903.4413 1449.9238,-893.0483 1499.6687,-883.8489"/>
<polygon fill="#de958e" stroke="#de958e" points="1500.3273,-887.2866 1509.5241,-882.0264 1499.0543,-880.4033 1500.3273,-887.2866"/>
</g>
<!-- girder_client -->
<g id="node32" class="node">
<title>girder_client</title>
<polygon fill="#343434" stroke="#343434" points="727.5,-1564 603.5,-1564 603.5,-1528 727.5,-1528 727.5,-1564"/>
<text text-anchor="middle" x="665.5" y="-1542.3" font-family="Courier,monospace" font-size="14.00" fill="#de958e">girder_client</text>
</g>
<!-- girder_client&#45;&gt;hidebound.exporters.girder_exporter -->
<g id="edge56" class="edge">
<title>girder_client&#45;&gt;hidebound.exporters.girder_exporter</title>
<path fill="none" stroke="#de958e" d="M727.6072,-1536.9832C753.352,-1532.5793 783.3661,-1526.5752 810,-1519 858.3887,-1505.2373 911.6919,-1483.9978 949.2328,-1467.9705"/>
<polygon fill="#de958e" stroke="#de958e" points="950.6222,-1471.183 958.4249,-1464.0158 947.8557,-1464.7529 950.6222,-1471.183"/>
</g>
<!-- jsoncomment -->
<g id="node33" class="node">
<title>jsoncomment</title>
<polygon fill="#343434" stroke="#343434" points="443.5,-844 336.5,-844 336.5,-808 443.5,-808 443.5,-844"/>
<text text-anchor="middle" x="390" y="-822.3" font-family="Courier,monospace" font-size="14.00" fill="#de958e">jsoncomment</text>
</g>
<!-- jsoncomment&#45;&gt;hidebound.core.database -->
<g id="edge57" class="edge">
<title>jsoncomment&#45;&gt;hidebound.core.database</title>
<path fill="none" stroke="#de958e" d="M443.6943,-826.4513C523.8749,-827.8012 679.4493,-833.032 810,-853 1091.0211,-895.9827 1166.157,-1009.6396 1443,-945 1490.3462,-933.9452 1539.7203,-907.1409 1571.7616,-887.3798"/>
<polygon fill="#de958e" stroke="#de958e" points="1573.71,-890.2893 1580.3232,-882.0119 1569.9915,-884.3586 1573.71,-890.2893"/>
</g>
<!-- jsoncomment&#45;&gt;hidebound.exporters.exporter_base -->
<g id="edge58" class="edge">
<title>jsoncomment&#45;&gt;hidebound.exporters.exporter_base</title>
<path fill="none" stroke="#de958e" d="M432.3503,-844.19C451.8267,-854.8652 473.185,-870.3615 485,-891 542.548,-991.5252 443.9626,-1324.4995 521,-1411 521.6312,-1411.7087 522.2746,-1412.4026 522.9296,-1413.0818"/>
<polygon fill="#de958e" stroke="#de958e" points="520.6077,-1415.701 530.372,-1419.8131 525.3032,-1410.5094 520.6077,-1415.701"/>
</g>
<!-- jsoncomment&#45;&gt;hidebound.server.server_tools -->
<g id="edge59" class="edge">
<title>jsoncomment&#45;&gt;hidebound.server.server_tools</title>
<path fill="none" stroke="#de958e" d="M443.3867,-807.8546C456.9931,-803.1205 471.5675,-797.9542 485,-793 646.607,-733.3955 676.7283,-683.8843 846,-652 1060.5665,-611.5838 1315.2112,-627.5112 1468.7913,-643.8831"/>
<polygon fill="#de958e" stroke="#de958e" points="1468.4412,-647.3656 1478.7597,-644.9616 1469.1941,-640.4062 1468.4412,-647.3656"/>
</g>
<!-- hidebound -->
<g id="node34" class="node">
<title>hidebound</title>
<polygon fill="#343434" stroke="#343434" points="91,-1074 0,-1074 0,-1038 91,-1038 91,-1074"/>
<text text-anchor="middle" x="45.5" y="-1052.3" font-family="Courier,monospace" font-size="14.00" fill="#a0d17b">hidebound</text>
</g>
<!-- hidebound&#45;&gt;hidebound.server -->
<g id="edge60" class="edge">
<title>hidebound&#45;&gt;hidebound.server</title>
<path fill="none" stroke="#a0d17b" d="M80.82,-1037.8535C84.4928,-1035.1692 87.98,-1032.2123 91,-1029 290.464,-816.8393 98.799,-446 390,-446 390,-446 390,-446 665.5,-446 868.1525,-446 1106.3299,-441.0727 1230.3063,-438.1355"/>
<polygon fill="#a0d17b" stroke="#a0d17b" points="1230.5744,-441.6302 1240.4881,-437.8927 1230.4074,-434.6322 1230.5744,-441.6302"/>
</g>
<!-- hidebound&#45;&gt;hidebound.exporters -->
<g id="edge61" class="edge">
<title>hidebound&#45;&gt;hidebound.exporters</title>
<path fill="none" stroke="#a0d17b" d="M51.2405,-1074.1839C62.414,-1107.9022 89.3328,-1181.5494 127,-1235 186.9288,-1320.0403 208.2307,-1340.6032 295,-1398 305.1447,-1404.7106 316.5992,-1410.6774 327.9529,-1415.8225"/>
<polygon fill="#a0d17b" stroke="#a0d17b" points="326.8693,-1419.168 337.4353,-1419.9494 329.6627,-1412.7495 326.8693,-1419.168"/>
</g>
<!-- hidebound.core -->
<g id="node37" class="node">
<title>hidebound.core</title>
<polygon fill="#343434" stroke="#343434" points="259,-1074 127,-1074 127,-1038 259,-1038 259,-1074"/>
<text text-anchor="middle" x="193" y="-1052.3" font-family="Courier,monospace" font-size="14.00" fill="#a0d17b">hidebound.core</text>
</g>
<!-- hidebound&#45;&gt;hidebound.core -->
<g id="edge62" class="edge">
<title>hidebound&#45;&gt;hidebound.core</title>
<path fill="none" stroke="#a0d17b" d="M91.3614,-1056C99.4456,-1056 108.0541,-1056 116.7093,-1056"/>
<polygon fill="#a0d17b" stroke="#a0d17b" points="116.8627,-1059.5001 126.8626,-1056 116.8626,-1052.5001 116.8627,-1059.5001"/>
</g>
<!-- numpy -->
<g id="node35" class="node">
<title>numpy</title>
<polygon fill="#343434" stroke="#343434" points="1027.5,-784 969.5,-784 969.5,-748 1027.5,-748 1027.5,-784"/>
<text text-anchor="middle" x="998.5" y="-762.3" font-family="Courier,monospace" font-size="14.00" fill="#de958e">numpy</text>
</g>
<!-- numpy&#45;&gt;hidebound.core.database -->
<g id="edge63" class="edge">
<title>numpy&#45;&gt;hidebound.core.database</title>
<path fill="none" stroke="#de958e" d="M1027.6317,-770.6039C1098.6585,-781.8394 1286.4048,-811.6032 1443,-837 1459.4291,-839.6645 1476.7804,-842.499 1493.8042,-845.2916"/>
<polygon fill="#de958e" stroke="#de958e" points="1493.3454,-848.763 1503.7803,-846.9293 1494.4795,-841.8555 1493.3454,-848.763"/>
</g>
<!-- numpy&#45;&gt;hidebound.core.database_tools -->
<g id="edge64" class="edge">
<title>numpy&#45;&gt;hidebound.core.database_tools</title>
<path fill="none" stroke="#de958e" d="M1027.6153,-767.4147C1059.5278,-770.001 1111.4457,-777.3153 1151,-798 1170.5022,-808.1986 1167.6959,-821.4314 1187,-832 1194.2928,-835.9927 1202.0907,-839.4964 1210.104,-842.5696"/>
<polygon fill="#de958e" stroke="#de958e" points="1208.998,-845.8913 1219.5924,-845.9831 1211.3676,-839.3045 1208.998,-845.8913"/>
</g>
<!-- numpy&#45;&gt;hidebound.server.api -->
<g id="edge65" class="edge">
<title>numpy&#45;&gt;hidebound.server.api</title>
<path fill="none" stroke="#de958e" d="M1027.6121,-765.1166C1127.3224,-761.6349 1463.9008,-746.1132 1735,-689 1768.2822,-681.9884 1804.5117,-670.5713 1833.6209,-660.4161"/>
<polygon fill="#de958e" stroke="#de958e" points="1834.9431,-663.661 1843.2052,-657.0287 1832.6104,-657.0611 1834.9431,-663.661"/>
</g>
<!-- pandas -->
<g id="node36" class="node">
<title>pandas</title>
<polygon fill="#343434" stroke="#343434" points="423,-784 357,-784 357,-748 423,-748 423,-784"/>
<text text-anchor="middle" x="390" y="-762.3" font-family="Courier,monospace" font-size="14.00" fill="#de958e">pandas</text>
</g>
<!-- pandas&#45;&gt;hidebound.core.database -->
<g id="edge66" class="edge">
<title>pandas&#45;&gt;hidebound.core.database</title>
<path fill="none" stroke="#de958e" d="M423.0916,-753.4671C529.1822,-714.9065 870.2733,-603.4998 1151,-652 1286.7523,-675.4535 1319.6949,-694.562 1443,-756 1491.7383,-780.2843 1543.5015,-816.3085 1575.5417,-839.9692"/>
<polygon fill="#de958e" stroke="#de958e" points="1573.5308,-842.8356 1583.6424,-845.9989 1577.7105,-837.2203 1573.5308,-842.8356"/>
</g>
<!-- pandas&#45;&gt;hidebound.core.database_tools -->
<g id="edge67" class="edge">
<title>pandas&#45;&gt;hidebound.core.database_tools</title>
<path fill="none" stroke="#de958e" d="M423.0008,-769.8186C493.9374,-778.1201 666.1779,-798.7767 810,-820 826.0469,-822.368 829.9018,-824.0099 846,-826 956.8812,-839.7073 1083.1477,-849.6144 1176.7131,-855.8694"/>
<polygon fill="#de958e" stroke="#de958e" points="1176.5987,-859.3694 1186.8083,-856.5386 1177.0618,-852.3847 1176.5987,-859.3694"/>
</g>
<!-- pandas&#45;&gt;hidebound.core.tools -->
<g id="edge68" class="edge">
<title>pandas&#45;&gt;hidebound.core.tools</title>
<path fill="none" stroke="#de958e" d="M423.2356,-776.7513C441.5914,-782.8872 464.7166,-790.9438 485,-799 531.006,-817.2727 582.4192,-840.6433 618.5702,-857.5806"/>
<polygon fill="#de958e" stroke="#de958e" points="617.3426,-860.8709 627.8814,-861.9589 620.3213,-854.5363 617.3426,-860.8709"/>
</g>
<!-- pandas&#45;&gt;hidebound.core.validators -->
<g id="edge69" class="edge">
<title>pandas&#45;&gt;hidebound.core.validators</title>
<path fill="none" stroke="#de958e" d="M423.0496,-768.9162C443.9619,-772.5644 469.825,-780.7364 485,-799 553.3689,-881.2838 488.9614,-934.9291 521,-1037 553.5408,-1140.6707 618.3009,-1253.2643 648.8346,-1303.3684"/>
<polygon fill="#de958e" stroke="#de958e" points="645.9072,-1305.2898 654.1221,-1311.9805 651.8726,-1301.6272 645.9072,-1305.2898"/>
</g>
<!-- pandas&#45;&gt;hidebound.server.components -->
<g id="edge70" class="edge">
<title>pandas&#45;&gt;hidebound.server.components</title>
<path fill="none" stroke="#de958e" d="M406.5571,-747.7002C429.9272,-722.8158 474.9051,-678.2865 521,-651 907.1729,-422.3997 1036.9946,-409.5814 1479,-332 1572.497,-315.5893 1679.2962,-306.2578 1760.6583,-301.0719"/>
<polygon fill="#de958e" stroke="#de958e" points="1761.1927,-304.5454 1770.9552,-300.429 1760.7565,-297.5591 1761.1927,-304.5454"/>
</g>
<!-- hidebound.core&#45;&gt;hidebound.core.config -->
<g id="edge71" class="edge">
<title>hidebound.core&#45;&gt;hidebound.core.config</title>
<path fill="none" stroke="#a0d17b" d="M205.2821,-1074.1322C220.5674,-1097.6637 246.2128,-1140.5161 259,-1181 297.3213,-1302.3241 229.2172,-1356.0933 295,-1465 358.3656,-1569.905 404.1017,-1586.1892 521,-1623 788.6094,-1707.269 901.9387,-1712.1685 1151,-1583 1220.5378,-1546.9362 1274.692,-1468.4641 1299.7576,-1426.9698"/>
<polygon fill="#a0d17b" stroke="#a0d17b" points="1302.8531,-1428.6114 1304.9396,-1418.224 1296.8309,-1425.043 1302.8531,-1428.6114"/>
</g>
<!-- hidebound.core&#45;&gt;hidebound.core.database -->
<g id="edge72" class="edge">
<title>hidebound.core&#45;&gt;hidebound.core.database</title>
<path fill="none" stroke="#a0d17b" d="M195.9978,-1037.7081C206.9078,-973.2846 246.4157,-758.2444 295,-711 369.5056,-638.5492 418.3114,-666.9766 521,-651 723.4543,-619.5015 1261.8707,-558.229 1443,-654 1463.1436,-664.6508 1549.4281,-783.3037 1588.11,-837.4011"/>
<polygon fill="#a0d17b" stroke="#a0d17b" points="1585.4501,-839.6993 1594.108,-845.806 1591.148,-835.633 1585.4501,-839.6993"/>
</g>
<!-- hidebound.core&#45;&gt;hidebound.core.database_tools -->
<g id="edge73" class="edge">
<title>hidebound.core&#45;&gt;hidebound.core.database_tools</title>
<path fill="none" stroke="#a0d17b" d="M195.9966,-1037.894C206.6156,-976.1682 244.5385,-775.7726 295,-739 363.2461,-689.2673 400.6985,-734.0883 485,-739 630.1822,-747.4588 669.7364,-738.5869 810,-777 826.8872,-781.6248 829.093,-788.448 846,-793 977.6583,-828.4473 1016.5668,-803.2372 1151,-826 1178.7239,-830.6943 1208.7727,-837.2273 1235.4831,-843.5539"/>
<polygon fill="#a0d17b" stroke="#a0d17b" points="1235.0047,-847.0382 1245.5449,-845.9643 1236.6355,-840.2308 1235.0047,-847.0382"/>
</g>
<!-- hidebound.core&#45;&gt;hidebound.core.parser -->
<g id="edge74" class="edge">
<title>hidebound.core&#45;&gt;hidebound.core.parser</title>
<path fill="none" stroke="#a0d17b" d="M225.495,-1074.1093C245.2508,-1084.7279 271.1817,-1097.9808 295,-1108 303.7511,-1111.6812 313.0863,-1115.2465 322.3593,-1118.5783"/>
<polygon fill="#a0d17b" stroke="#a0d17b" points="321.3784,-1121.9434 331.9732,-1121.9608 323.7017,-1115.3402 321.3784,-1121.9434"/>
</g>
<!-- hidebound.core&#45;&gt;hidebound.core.specification_base -->
<g id="edge75" class="edge">
<title>hidebound.core&#45;&gt;hidebound.core.specification_base</title>
<path fill="none" stroke="#a0d17b" d="M259.2333,-1065.0683C395.8749,-1083.874 705.0189,-1126.95 810,-1146 843.1542,-1152.0162 879.3639,-1159.6363 911.1064,-1166.6704"/>
<polygon fill="#a0d17b" stroke="#a0d17b" points="910.7239,-1170.171 921.2459,-1168.9308 912.2471,-1163.3387 910.7239,-1170.171"/>
</g>
<!-- hidebound.core&#45;&gt;hidebound.core.specifications -->
<g id="edge76" class="edge">
<title>hidebound.core&#45;&gt;hidebound.core.specifications</title>
<path fill="none" stroke="#a0d17b" d="M259.1402,-1058.5109C318.3479,-1060.9158 407.5144,-1064.9254 485,-1070 629.6322,-1079.4721 665.893,-1081.4639 810,-1097 936.5841,-1110.647 1080.4925,-1130.1321 1182.2136,-1144.5741"/>
<polygon fill="#a0d17b" stroke="#a0d17b" points="1181.8395,-1148.0561 1192.2329,-1145.9997 1182.8256,-1141.1259 1181.8395,-1148.0561"/>
</g>
<!-- hidebound.core&#45;&gt;hidebound.core.tools -->
<g id="edge77" class="edge">
<title>hidebound.core&#45;&gt;hidebound.core.tools</title>
<path fill="none" stroke="#a0d17b" d="M197.9256,-1037.9506C208.7115,-1002.3783 238.1207,-923.8241 295,-891 339.1642,-865.5136 470.631,-867.3663 564.3875,-872.4766"/>
<polygon fill="#a0d17b" stroke="#a0d17b" points="564.2983,-875.9771 574.4799,-873.047 564.6934,-868.9882 564.2983,-875.9771"/>
</g>
<!-- hidebound.core&#45;&gt;hidebound.core.traits -->
<g id="edge78" class="edge">
<title>hidebound.core&#45;&gt;hidebound.core.traits</title>
<path fill="none" stroke="#a0d17b" d="M254.893,-1037.9617C320.3354,-1019.899 426.9139,-993.3434 521,-983 648.6752,-968.964 681.8804,-973.8709 810,-983 837.0475,-984.9273 866.1134,-988.3912 893.1278,-992.2093"/>
<polygon fill="#a0d17b" stroke="#a0d17b" points="892.975,-995.7234 903.3724,-993.6875 893.9748,-988.7952 892.975,-995.7234"/>
</g>
<!-- hidebound.core&#45;&gt;hidebound.core.validators -->
<g id="edge79" class="edge">
<title>hidebound.core&#45;&gt;hidebound.core.validators</title>
<path fill="none" stroke="#a0d17b" d="M203.6694,-1074.2349C217.4634,-1098.2274 241.7571,-1141.9355 259,-1181 278.0746,-1224.2142 258.2215,-1251.3579 295,-1281 314.3531,-1296.5978 443.2881,-1311.0792 543.6831,-1320.1921"/>
<polygon fill="#a0d17b" stroke="#a0d17b" points="543.6471,-1323.7028 553.9202,-1321.1118 544.2735,-1316.7309 543.6471,-1323.7028"/>
</g>
<!-- pyparsing -->
<g id="node38" class="node">
<title>pyparsing</title>
<polygon fill="#343434" stroke="#343434" points="238.5,-1226 147.5,-1226 147.5,-1190 238.5,-1190 238.5,-1226"/>
<text text-anchor="middle" x="193" y="-1204.3" font-family="Courier,monospace" font-size="14.00" fill="#de958e">pyparsing</text>
</g>
<!-- pyparsing&#45;&gt;hidebound.core.parser -->
<g id="edge80" class="edge">
<title>pyparsing&#45;&gt;hidebound.core.parser</title>
<path fill="none" stroke="#de958e" d="M238.6909,-1192.2285C265.242,-1183.0637 299.0613,-1171.39 327.9901,-1161.4044"/>
<polygon fill="#de958e" stroke="#de958e" points="329.285,-1164.6602 337.5957,-1158.0888 327.0009,-1158.0433 329.285,-1164.6602"/>
</g>
<!-- pyparsing&#45;&gt;hidebound.core.specification_base -->
<g id="edge81" class="edge">
<title>pyparsing&#45;&gt;hidebound.core.specification_base</title>
<path fill="none" stroke="#de958e" d="M238.6151,-1206.8108C353.0757,-1203.8267 656.6338,-1195.9127 843.6011,-1191.0383"/>
<polygon fill="#de958e" stroke="#de958e" points="843.8953,-1194.5319 853.8007,-1190.7724 843.7128,-1187.5343 843.8953,-1194.5319"/>
</g>
<!-- pyparsing&#45;&gt;hidebound.core.validators -->
<g id="edge82" class="edge">
<title>pyparsing&#45;&gt;hidebound.core.validators</title>
<path fill="none" stroke="#de958e" d="M202.8856,-1226.1274C225.4976,-1267.2585 280.182,-1364.7394 295,-1373 368.7578,-1414.1175 402.3951,-1390.5299 485,-1373 502.1277,-1369.3653 504.2806,-1362.1989 521,-1357 528.6232,-1354.6295 536.541,-1352.4353 544.5675,-1350.4095"/>
<polygon fill="#de958e" stroke="#de958e" points="545.508,-1353.7829 554.3995,-1348.0215 543.8559,-1346.9806 545.508,-1353.7829"/>
</g>
<!-- schematics -->
<g id="node39" class="node">
<title>schematics</title>
<polygon fill="#343434" stroke="#343434" points="715,-1510 616,-1510 616,-1474 715,-1474 715,-1510"/>
<text text-anchor="middle" x="665.5" y="-1488.3" font-family="Courier,monospace" font-size="14.00" fill="#de958e">schematics</text>
</g>
<!-- schematics&#45;&gt;hidebound.core.config -->
<g id="edge83" class="edge">
<title>schematics&#45;&gt;hidebound.core.config</title>
<path fill="none" stroke="#de958e" d="M715.2474,-1496.1639C804.0926,-1502.259 995.3229,-1509.2788 1151,-1473 1195.3385,-1462.6674 1242.4763,-1440.3571 1274.7814,-1423.1031"/>
<polygon fill="#de958e" stroke="#de958e" points="1276.7766,-1426.0027 1283.8976,-1418.1578 1273.4387,-1419.8497 1276.7766,-1426.0027"/>
</g>
<!-- schematics&#45;&gt;hidebound.core.specification_base -->
<g id="edge84" class="edge">
<title>schematics&#45;&gt;hidebound.core.specification_base</title>
<path fill="none" stroke="#de958e" d="M715.2061,-1492.076C744.8493,-1489.958 782.032,-1483.3172 810,-1465 822.5759,-1456.7636 937.2316,-1281.3669 981.3287,-1213.4929"/>
<polygon fill="#de958e" stroke="#de958e" points="984.316,-1215.3191 986.8259,-1205.0258 978.4449,-1211.5072 984.316,-1215.3191"/>
</g>
<!-- schematics&#45;&gt;hidebound.exporters.girder_exporter -->
<g id="edge85" class="edge">
<title>schematics&#45;&gt;hidebound.exporters.girder_exporter</title>
<path fill="none" stroke="#de958e" d="M715.3535,-1485.1133C753.2001,-1479.8853 807.206,-1472.425 857.9224,-1465.4191"/>
<polygon fill="#de958e" stroke="#de958e" points="858.5891,-1468.8604 868.016,-1464.0248 857.6311,-1461.9262 858.5891,-1468.8604"/>
</g>
<!-- schematics.types -->
<g id="node40" class="node">
<title>schematics.types</title>
<polygon fill="#343434" stroke="#343434" points="740,-1402 591,-1402 591,-1366 740,-1366 740,-1402"/>
<text text-anchor="middle" x="665.5" y="-1380.3" font-family="Courier,monospace" font-size="14.00" fill="#de958e">schematics.types</text>
</g>
<!-- schematics.types&#45;&gt;hidebound.core.config -->
<g id="edge86" class="edge">
<title>schematics.types&#45;&gt;hidebound.core.config</title>
<path fill="none" stroke="#de958e" d="M740.0059,-1385.8354C855.4538,-1388.6794 1077.9609,-1394.1607 1209.7647,-1397.4076"/>
<polygon fill="#de958e" stroke="#de958e" points="1209.7947,-1400.9093 1219.8779,-1397.6567 1209.9671,-1393.9114 1209.7947,-1400.9093"/>
</g>
<!-- schematics.types&#45;&gt;hidebound.core.specification_base -->
<g id="edge87" class="edge">
<title>schematics.types&#45;&gt;hidebound.core.specification_base</title>
<path fill="none" stroke="#de958e" d="M740.188,-1380.5141C763.8519,-1376.7557 789.2338,-1369.7588 810,-1357 832.4191,-1343.2257 827.6292,-1328.8377 846,-1310 883.1689,-1271.8866 931.8916,-1234.401 964.1473,-1211.0219"/>
<polygon fill="#de958e" stroke="#de958e" points="966.3045,-1213.7816 972.3801,-1205.1018 962.2178,-1208.0984 966.3045,-1213.7816"/>
</g>
<!-- schematics.types&#45;&gt;hidebound.core.specifications -->
<g id="edge88" class="edge">
<title>schematics.types&#45;&gt;hidebound.core.specifications</title>
<path fill="none" stroke="#de958e" d="M740.3312,-1371.0571C762.7982,-1366.8916 787.4603,-1362.0406 810,-1357 962.8568,-1322.8164 1029.3276,-1366.6386 1151,-1268 1178.7917,-1245.4695 1159.0924,-1218.3867 1187,-1196 1191.2994,-1192.5511 1195.9215,-1189.4679 1200.7675,-1186.712"/>
<polygon fill="#de958e" stroke="#de958e" points="1202.4296,-1189.7929 1209.711,-1182.0967 1199.2194,-1183.5724 1202.4296,-1189.7929"/>
</g>
<!-- schematics.types&#45;&gt;hidebound.exporters.girder_exporter -->
<g id="edge89" class="edge">
<title>schematics.types&#45;&gt;hidebound.exporters.girder_exporter</title>
<path fill="none" stroke="#de958e" d="M740.2317,-1397.914C784.812,-1406.2142 842.1566,-1416.891 891.4824,-1426.0748"/>
<polygon fill="#de958e" stroke="#de958e" points="891.0843,-1429.5608 901.556,-1427.9504 892.3657,-1422.679 891.0843,-1429.5608"/>
</g>
<!-- wrapt -->
<g id="node41" class="node">
<title>wrapt</title>
<polygon fill="#343434" stroke="#343434" points="419,-1364 361,-1364 361,-1328 419,-1328 419,-1364"/>
<text text-anchor="middle" x="390" y="-1342.3" font-family="Courier,monospace" font-size="14.00" fill="#de958e">wrapt</text>
</g>
<!-- wrapt&#45;&gt;hidebound.core.validators -->
<g id="edge90" class="edge">
<title>wrapt&#45;&gt;hidebound.core.validators</title>
<path fill="none" stroke="#de958e" d="M419.2225,-1344.3029C449.1543,-1342.5645 497.7039,-1339.745 543.8181,-1337.0668"/>
<polygon fill="#de958e" stroke="#de958e" points="544.1412,-1340.5541 553.9214,-1336.4801 543.7353,-1333.5658 544.1412,-1340.5541"/>
</g>
<!-- schematics.exceptions -->
<g id="node42" class="node">
<title>schematics.exceptions</title>
<polygon fill="#343434" stroke="#343434" points="485,-1272 295,-1272 295,-1236 485,-1236 485,-1272"/>
<text text-anchor="middle" x="390" y="-1250.3" font-family="Courier,monospace" font-size="14.00" fill="#de958e">schematics.exceptions</text>
</g>
<!-- schematics.exceptions&#45;&gt;hidebound.core.config -->
<g id="edge91" class="edge">
<title>schematics.exceptions&#45;&gt;hidebound.core.config</title>
<path fill="none" stroke="#de958e" d="M430.7491,-1272.0261C450.3212,-1282.8139 472.2423,-1298.4585 485,-1319 545.1552,-1415.8569 434.9065,-1498.2483 521,-1573 752.7609,-1774.2291 1164.0398,-1508.4969 1282.3393,-1424.147"/>
<polygon fill="#de958e" stroke="#de958e" points="1284.5847,-1426.8434 1290.6628,-1418.1654 1280.4996,-1421.159 1284.5847,-1426.8434"/>
</g>
<!-- schematics.exceptions&#45;&gt;hidebound.core.database_tools -->
<g id="edge92" class="edge">
<title>schematics.exceptions&#45;&gt;hidebound.core.database_tools</title>
<path fill="none" stroke="#de958e" d="M454.9289,-1235.9455C637.8731,-1185.0164 1144.7481,-1043.4812 1151,-1037 1197.3988,-988.8988 1138.949,-937.4508 1187,-891 1187.9644,-890.0677 1188.9525,-889.164 1189.9626,-888.2882"/>
<polygon fill="#de958e" stroke="#de958e" points="1192.2609,-890.9378 1198.1113,-882.1048 1188.0294,-885.3615 1192.2609,-890.9378"/>
</g>
<!-- schematics.exceptions&#45;&gt;hidebound.core.specification_base -->
<g id="edge93" class="edge">
<title>schematics.exceptions&#45;&gt;hidebound.core.specification_base</title>
<path fill="none" stroke="#de958e" d="M485.3797,-1249.6618C570.7034,-1245.085 699.0556,-1236.4837 810,-1222 840.0977,-1218.0708 872.6716,-1212.4997 902.1385,-1206.9551"/>
<polygon fill="#de958e" stroke="#de958e" points="902.8348,-1210.3855 912.0044,-1205.0782 901.5265,-1203.5088 902.8348,-1210.3855"/>
</g>
<!-- schematics.exceptions&#45;&gt;hidebound.core.tools -->
<g id="edge94" class="edge">
<title>schematics.exceptions&#45;&gt;hidebound.core.tools</title>
<path fill="none" stroke="#de958e" d="M418.2532,-1235.7079C439.9782,-1220.1018 468.9146,-1195.6714 485,-1167 525.7712,-1094.3274 475.8672,-1053.0474 521,-983 543.9325,-947.4081 583.8884,-920.3458 615.9804,-902.9128"/>
<polygon fill="#de958e" stroke="#de958e" points="618.0188,-905.7946 625.2302,-898.0327 614.7524,-899.6034 618.0188,-905.7946"/>
</g>
<!-- schematics.exceptions&#45;&gt;hidebound.core.validators -->
<g id="edge95" class="edge">
<title>schematics.exceptions&#45;&gt;hidebound.core.validators</title>
<path fill="none" stroke="#de958e" d="M443.5763,-1272.0659C478.867,-1283.9545 518.9484,-1297.43 521,-1298 535.7236,-1302.0905 551.4049,-1306.0075 566.8042,-1309.6109"/>
<polygon fill="#de958e" stroke="#de958e" points="566.3394,-1313.0955 576.8702,-1311.9321 567.9124,-1306.2745 566.3394,-1313.0955"/>
</g>
<!-- schematics.exceptions&#45;&gt;hidebound.server.api -->
<g id="edge96" class="edge">
<title>schematics.exceptions&#45;&gt;hidebound.server.api</title>
<path fill="none" stroke="#de958e" d="M485.2078,-1271.0094C677.236,-1300.6023 1120.146,-1344.7158 1443,-1191 1610.9953,-1111.0148 1620.5713,-1037.7178 1735,-891 1794.6005,-814.5816 1850.7443,-714.0613 1876.2037,-666.3733"/>
<polygon fill="#de958e" stroke="#de958e" points="1879.4254,-667.7687 1881.0199,-657.2946 1873.2416,-664.4883 1879.4254,-667.7687"/>
</g>
<!-- OpenEXR -->
<g id="node43" class="node">
<title>OpenEXR</title>
<polygon fill="#343434" stroke="#343434" points="427,-936 353,-936 353,-900 427,-900 427,-936"/>
<text text-anchor="middle" x="390" y="-914.3" font-family="Courier,monospace" font-size="14.00" fill="#de958e">OpenEXR</text>
</g>
<!-- OpenEXR&#45;&gt;hidebound.core.tools -->
<g id="edge97" class="edge">
<title>OpenEXR&#45;&gt;hidebound.core.tools</title>
<path fill="none" stroke="#de958e" d="M427.1552,-912.8752C462.1896,-908.0428 516.3125,-900.5776 564.1336,-893.9816"/>
<polygon fill="#de958e" stroke="#de958e" points="564.8054,-897.4221 574.2333,-892.5885 563.8488,-890.4878 564.8054,-897.4221"/>
</g>
<!-- skimage.io -->
<g id="node44" class="node">
<title>skimage.io</title>
<polygon fill="#343434" stroke="#343434" points="715,-1028 616,-1028 616,-992 715,-992 715,-1028"/>
<text text-anchor="middle" x="665.5" y="-1006.3" font-family="Courier,monospace" font-size="14.00" fill="#de958e">skimage.io</text>
</g>
<!-- skimage.io&#45;&gt;hidebound.core.traits -->
<g id="edge98" class="edge">
<title>skimage.io&#45;&gt;hidebound.core.traits</title>
<path fill="none" stroke="#de958e" d="M715.3535,-1010C762.177,-1010 833.7345,-1010 893.196,-1010"/>
<polygon fill="#de958e" stroke="#de958e" points="893.3873,-1013.5001 903.3872,-1010 893.3872,-1006.5001 893.3873,-1013.5001"/>
</g>
</g>
</svg>
