<?xml version="1.0" encoding="UTF-8" standalone="no"?>
<!DOCTYPE svg PUBLIC "-//W3C//DTD SVG 1.1//EN"
 "http://www.w3.org/Graphics/SVG/1.1/DTD/svg11.dtd">
<!-- Generated by graphviz version 2.40.1 (20161225.0304)
 -->
<!-- Title: %3 Pages: 1 -->
<svg width="1287pt" height="757pt"
 viewBox="0.00 0.00 1287.00 756.89" xmlns="http://www.w3.org/2000/svg" xmlns:xlink="http://www.w3.org/1999/xlink">
<g id="graph0" class="graph" transform="scale(1 1) rotate(0) translate(4 752.8936)">
<title>%3</title>
<polygon fill="#242424" stroke="transparent" points="-4,4 -4,-752.8936 1283,-752.8936 1283,4 -4,4"/>
<!-- cli -->
<g id="node1" class="node">
<title>cli</title>
<polygon fill="#343434" stroke="#343434" points="76.5,-36 22.5,-36 22.5,0 76.5,0 76.5,-36"/>
<text text-anchor="middle" x="49.5" y="-14.3" font-family="Courier,monospace" font-size="14.00" fill="#b6ecf3">cli</text>
</g>
<!-- hidebound.config -->
<g id="node2" class="node">
<title>hidebound.config</title>
<polygon fill="#343434" stroke="#343434" points="1045,-480 896,-480 896,-444 1045,-444 1045,-480"/>
<text text-anchor="middle" x="970.5" y="-458.3" font-family="Courier,monospace" font-size="14.00" fill="#b6ecf3">hidebound.config</text>
</g>
<!-- hidebound.database -->
<g id="node3" class="node">
<title>hidebound.database</title>
<polygon fill="#343434" stroke="#343434" points="1279,-522 1114,-522 1114,-486 1279,-486 1279,-522"/>
<text text-anchor="middle" x="1196.5" y="-500.3" font-family="Courier,monospace" font-size="14.00" fill="#b6ecf3">hidebound.database</text>
</g>
<!-- hidebound.config&#45;&gt;hidebound.database -->
<g id="edge1" class="edge">
<title>hidebound.config&#45;&gt;hidebound.database</title>
<path fill="none" stroke="#b6ecf3" d="M1045.1272,-475.8688C1063.9353,-479.3641 1084.3529,-483.1585 1103.9248,-486.7958"/>
<polygon fill="#b6ecf3" stroke="#b6ecf3" points="1103.2894,-490.2375 1113.7606,-488.6237 1104.5685,-483.3554 1103.2894,-490.2375"/>
</g>
<!-- hidebound.parser -->
<g id="node4" class="node">
<title>hidebound.parser</title>
<polygon fill="#343434" stroke="#343434" points="304.5,-182 155.5,-182 155.5,-146 304.5,-146 304.5,-182"/>
<text text-anchor="middle" x="230" y="-160.3" font-family="Courier,monospace" font-size="14.00" fill="#b6ecf3">hidebound.parser</text>
</g>
<!-- hidebound.parser&#45;&gt;hidebound.database -->
<g id="edge2" class="edge">
<title>hidebound.parser&#45;&gt;hidebound.database</title>
<path fill="none" stroke="#b6ecf3" d="M293.5384,-145.9451C445.452,-106.8635 835.0834,-31.2536 1078,-205 1168.4008,-269.6592 1189.8624,-414.5323 1194.9374,-475.7908"/>
<polygon fill="#b6ecf3" stroke="#b6ecf3" points="1191.4559,-476.1713 1195.6857,-485.8852 1198.4368,-475.6538 1191.4559,-476.1713"/>
</g>
<!-- hidebound.specification_base -->
<g id="node5" class="node">
<title>hidebound.specification_base</title>
<polygon fill="#343434" stroke="#343434" points="827,-396 579,-396 579,-360 827,-360 827,-396"/>
<text text-anchor="middle" x="703" y="-374.3" font-family="Courier,monospace" font-size="14.00" fill="#b6ecf3">hidebound.specification_base</text>
</g>
<!-- hidebound.parser&#45;&gt;hidebound.specification_base -->
<g id="edge3" class="edge">
<title>hidebound.parser&#45;&gt;hidebound.specification_base</title>
<path fill="none" stroke="#b6ecf3" d="M304.7655,-176.6919C312.0707,-179.9223 318.9889,-183.9589 325,-189 354.255,-213.5341 331.1231,-243.2271 361,-267 425.6612,-318.4507 464.4824,-279.2468 543,-305 584.06,-318.4674 628.6228,-339.3558 660.2656,-355.3436"/>
<polygon fill="#b6ecf3" stroke="#b6ecf3" points="658.7444,-358.4966 669.2428,-359.9231 661.9253,-352.2611 658.7444,-358.4966"/>
</g>
<!-- hidebound.validators -->
<g id="node9" class="node">
<title>hidebound.validators</title>
<polygon fill="#343434" stroke="#343434" points="543,-350 361,-350 361,-314 543,-314 543,-350"/>
<text text-anchor="middle" x="452" y="-328.3" font-family="Courier,monospace" font-size="14.00" fill="#b6ecf3">hidebound.validators</text>
</g>
<!-- hidebound.parser&#45;&gt;hidebound.validators -->
<g id="edge4" class="edge">
<title>hidebound.parser&#45;&gt;hidebound.validators</title>
<path fill="none" stroke="#b6ecf3" d="M261.419,-182.1663C281.3899,-194.8358 306.8141,-213.1627 325,-234 346.9708,-259.174 335.5477,-278.3523 361,-300 364.9646,-303.372 369.3077,-306.3968 373.8791,-309.1092"/>
<polygon fill="#b6ecf3" stroke="#b6ecf3" points="372.4443,-312.3112 382.9118,-313.9491 375.7504,-306.1411 372.4443,-312.3112"/>
</g>
<!-- hidebound.specification_base&#45;&gt;hidebound.config -->
<g id="edge5" class="edge">
<title>hidebound.specification_base&#45;&gt;hidebound.config</title>
<path fill="none" stroke="#b6ecf3" d="M777.7463,-396.0633C794.0614,-400.3468 811.1767,-405.1035 827,-410 856.1963,-419.0348 888.2123,-430.4835 914.581,-440.3372"/>
<polygon fill="#b6ecf3" stroke="#b6ecf3" points="913.4326,-443.6446 924.0247,-443.888 915.8962,-437.0924 913.4326,-443.6446"/>
</g>
<!-- hidebound.specification_base&#45;&gt;hidebound.database -->
<g id="edge6" class="edge">
<title>hidebound.specification_base&#45;&gt;hidebound.database</title>
<path fill="none" stroke="#b6ecf3" d="M827.0041,-385.0979C901.4582,-392.2177 997.1112,-406.4716 1078,-435 1108.857,-445.8828 1140.7375,-464.9687 1163.6482,-480.3127"/>
<polygon fill="#b6ecf3" stroke="#b6ecf3" points="1161.7348,-483.2442 1171.969,-485.9852 1165.6779,-477.4604 1161.7348,-483.2442"/>
</g>
<!-- hidebound.specifications -->
<g id="node6" class="node">
<title>hidebound.specifications</title>
<polygon fill="#343434" stroke="#343434" points="1078,-304 863,-304 863,-268 1078,-268 1078,-304"/>
<text text-anchor="middle" x="970.5" y="-282.3" font-family="Courier,monospace" font-size="14.00" fill="#b6ecf3">hidebound.specifications</text>
</g>
<!-- hidebound.specification_base&#45;&gt;hidebound.specifications -->
<g id="edge7" class="edge">
<title>hidebound.specification_base&#45;&gt;hidebound.specifications</title>
<path fill="none" stroke="#b6ecf3" d="M760.5548,-359.904C781.5247,-353.187 805.3853,-345.3999 827,-338 855.2321,-328.3346 886.3943,-317.1103 912.4455,-307.569"/>
<polygon fill="#b6ecf3" stroke="#b6ecf3" points="913.9819,-310.7334 922.1629,-304.0013 911.5693,-304.1623 913.9819,-310.7334"/>
</g>
<!-- hidebound.tools -->
<g id="node7" class="node">
<title>hidebound.tools</title>
<polygon fill="#343434" stroke="#343434" points="522,-610 382,-610 382,-574 522,-574 522,-610"/>
<text text-anchor="middle" x="452" y="-588.3" font-family="Courier,monospace" font-size="14.00" fill="#b6ecf3">hidebound.tools</text>
</g>
<!-- hidebound.tools&#45;&gt;hidebound.database -->
<g id="edge8" class="edge">
<title>hidebound.tools&#45;&gt;hidebound.database</title>
<path fill="none" stroke="#b6ecf3" d="M522.3138,-597.1721C639.5366,-603.8634 881.4334,-609.4115 1078,-560 1105.9297,-552.9792 1135.2067,-539.2131 1157.6724,-527.0871"/>
<polygon fill="#b6ecf3" stroke="#b6ecf3" points="1159.4835,-530.0854 1166.5489,-522.1904 1156.1023,-523.9561 1159.4835,-530.0854"/>
</g>
<!-- hidebound.tools&#45;&gt;hidebound.specification_base -->
<g id="edge9" class="edge">
<title>hidebound.tools&#45;&gt;hidebound.specification_base</title>
<path fill="none" stroke="#b6ecf3" d="M473.4001,-573.7545C518.413,-535.377 622.9302,-446.2667 673.9434,-402.7733"/>
<polygon fill="#b6ecf3" stroke="#b6ecf3" points="676.3151,-405.3507 681.654,-396.1993 671.7736,-400.0239 676.3151,-405.3507"/>
</g>
<!-- hidebound.traits -->
<g id="node8" class="node">
<title>hidebound.traits</title>
<polygon fill="#343434" stroke="#343434" points="304.5,-90 155.5,-90 155.5,-54 304.5,-54 304.5,-90"/>
<text text-anchor="middle" x="230" y="-68.3" font-family="Courier,monospace" font-size="14.00" fill="#b6ecf3">hidebound.traits</text>
</g>
<!-- hidebound.traits&#45;&gt;hidebound.specifications -->
<g id="edge10" class="edge">
<title>hidebound.traits&#45;&gt;hidebound.specifications</title>
<path fill="none" stroke="#b6ecf3" d="M304.9575,-63.4989C428.7353,-53.7776 677.0541,-53.0995 827,-180 856.4529,-204.9262 833.356,-234.3014 863,-259 864.3975,-260.1644 865.8385,-261.2796 867.3176,-262.3477"/>
<polygon fill="#b6ecf3" stroke="#b6ecf3" points="865.8528,-265.5632 876.1721,-267.9638 869.6021,-259.652 865.8528,-265.5632"/>
</g>
<!-- hidebound.validators&#45;&gt;hidebound.config -->
<g id="edge11" class="edge">
<title>hidebound.validators&#45;&gt;hidebound.config</title>
<path fill="none" stroke="#b6ecf3" d="M476.8904,-350.1263C501.5503,-367.1328 541.0273,-391.8604 579,-405 680.7737,-440.2166 804.7418,-453.6768 885.5391,-458.8204"/>
<polygon fill="#b6ecf3" stroke="#b6ecf3" points="885.4702,-462.3226 895.6641,-459.4358 885.8949,-455.3355 885.4702,-462.3226"/>
</g>
<!-- hidebound.validators&#45;&gt;hidebound.specification_base -->
<g id="edge12" class="edge">
<title>hidebound.validators&#45;&gt;hidebound.specification_base</title>
<path fill="none" stroke="#b6ecf3" d="M543.3268,-348.7372C559.9654,-351.7865 577.4715,-354.9948 594.5486,-358.1244"/>
<polygon fill="#b6ecf3" stroke="#b6ecf3" points="594.0767,-361.5962 604.5439,-359.9562 595.3386,-354.7109 594.0767,-361.5962"/>
</g>
<!-- hidebound.validators&#45;&gt;hidebound.specifications -->
<g id="edge13" class="edge">
<title>hidebound.validators&#45;&gt;hidebound.specifications</title>
<path fill="none" stroke="#b6ecf3" d="M543.2063,-323.9084C629.2785,-316.2723 758.7737,-304.7838 852.6409,-296.4562"/>
<polygon fill="#b6ecf3" stroke="#b6ecf3" points="853.1044,-299.9289 862.756,-295.5588 852.4858,-292.9563 853.1044,-299.9289"/>
</g>
<!-- numpy -->
<g id="node10" class="node">
<title>numpy</title>
<polygon fill="#343434" stroke="#343434" points="999.5,-250 941.5,-250 941.5,-214 999.5,-214 999.5,-250"/>
<text text-anchor="middle" x="970.5" y="-228.3" font-family="Courier,monospace" font-size="14.00" fill="#de958e">numpy</text>
</g>
<!-- numpy&#45;&gt;hidebound.database -->
<g id="edge14" class="edge">
<title>numpy&#45;&gt;hidebound.database</title>
<path fill="none" stroke="#de958e" d="M999.9615,-232.7626C1023.4339,-234.8068 1055.9123,-241.0219 1078,-259 1148.1329,-316.084 1179.6336,-424.749 1191.0671,-475.9657"/>
<polygon fill="#de958e" stroke="#de958e" points="1187.6955,-476.9364 1193.209,-485.9836 1194.5408,-475.4728 1187.6955,-476.9364"/>
</g>
<!-- humanfriendly -->
<g id="node11" class="node">
<title>humanfriendly</title>
<polygon fill="#343434" stroke="#343434" points="292,-564 168,-564 168,-528 292,-528 292,-564"/>
<text text-anchor="middle" x="230" y="-542.3" font-family="Courier,monospace" font-size="14.00" fill="#de958e">humanfriendly</text>
</g>
<!-- humanfriendly&#45;&gt;hidebound.tools -->
<g id="edge15" class="edge">
<title>humanfriendly&#45;&gt;hidebound.tools</title>
<path fill="none" stroke="#de958e" d="M292.1346,-558.8747C316.8165,-563.989 345.5257,-569.9378 371.7492,-575.3715"/>
<polygon fill="#de958e" stroke="#de958e" points="371.1621,-578.8241 381.6643,-577.4259 372.5825,-571.9697 371.1621,-578.8241"/>
</g>
<!-- schematics -->
<g id="node12" class="node">
<title>schematics</title>
<polygon fill="#343434" stroke="#343434" points="501.5,-480 402.5,-480 402.5,-444 501.5,-444 501.5,-480"/>
<text text-anchor="middle" x="452" y="-458.3" font-family="Courier,monospace" font-size="14.00" fill="#de958e">schematics</text>
</g>
<!-- schematics&#45;&gt;hidebound.config -->
<g id="edge16" class="edge">
<title>schematics&#45;&gt;hidebound.config</title>
<path fill="none" stroke="#de958e" d="M501.716,-462C590.2362,-462 776.103,-462 885.3318,-462"/>
<polygon fill="#de958e" stroke="#de958e" points="885.6573,-465.5001 895.6572,-462 885.6572,-458.5001 885.6573,-465.5001"/>
</g>
<!-- schematics&#45;&gt;hidebound.specification_base -->
<g id="edge17" class="edge">
<title>schematics&#45;&gt;hidebound.specification_base</title>
<path fill="none" stroke="#de958e" d="M501.5895,-445.4043C541.0879,-432.1857 596.6552,-413.5895 639.4215,-399.2773"/>
<polygon fill="#de958e" stroke="#de958e" points="640.7964,-402.508 649.1686,-396.0153 638.5748,-395.8699 640.7964,-402.508"/>
</g>
<!-- pandas -->
<g id="node13" class="node">
<title>pandas</title>
<polygon fill="#343434" stroke="#343434" points="263,-694 197,-694 197,-658 263,-658 263,-694"/>
<text text-anchor="middle" x="230" y="-672.3" font-family="Courier,monospace" font-size="14.00" fill="#de958e">pandas</text>
</g>
<!-- pandas&#45;&gt;hidebound.database -->
<g id="edge18" class="edge">
<title>pandas&#45;&gt;hidebound.database</title>
<path fill="none" stroke="#de958e" d="M263.3608,-678.673C380.0496,-686.7855 779.0144,-704.054 1078,-590 1113.6924,-576.3844 1148.3158,-549.1179 1170.8253,-528.9198"/>
<polygon fill="#de958e" stroke="#de958e" points="1173.2552,-531.4404 1178.2638,-522.1042 1168.5263,-526.2792 1173.2552,-531.4404"/>
</g>
<!-- pandas&#45;&gt;hidebound.tools -->
<g id="edge19" class="edge">
<title>pandas&#45;&gt;hidebound.tools</title>
<path fill="none" stroke="#de958e" d="M263.2356,-663.4244C297.9107,-650.3041 352.9323,-629.4851 394.646,-613.7015"/>
<polygon fill="#de958e" stroke="#de958e" points="396.0215,-616.9233 404.1357,-610.1108 393.5442,-610.3763 396.0215,-616.9233"/>
</g>
<!-- schematics.types -->
<g id="node14" class="node">
<title>schematics.types</title>
<polygon fill="#343434" stroke="#343434" points="526.5,-258 377.5,-258 377.5,-222 526.5,-222 526.5,-258"/>
<text text-anchor="middle" x="452" y="-236.3" font-family="Courier,monospace" font-size="14.00" fill="#de958e">schematics.types</text>
</g>
<!-- schematics.types&#45;&gt;hidebound.config -->
<g id="edge20" class="edge">
<title>schematics.types&#45;&gt;hidebound.config</title>
<path fill="none" stroke="#de958e" d="M525.0385,-258.075C618.4059,-281.7881 774.2886,-323.596 827,-351 871.7653,-374.2729 916.6945,-411.8816 944.0551,-436.7731"/>
<polygon fill="#de958e" stroke="#de958e" points="941.9001,-439.5467 951.627,-443.7467 946.6423,-434.3976 941.9001,-439.5467"/>
</g>
<!-- schematics.types&#45;&gt;hidebound.specification_base -->
<g id="edge21" class="edge">
<title>schematics.types&#45;&gt;hidebound.specification_base</title>
<path fill="none" stroke="#de958e" d="M511.3044,-258.0697C522.0852,-262.1308 533.0569,-266.8006 543,-272 560.4896,-281.1457 562.7021,-286.8685 579,-298 607.6395,-317.5608 640.6646,-338.8048 665.4282,-354.4819"/>
<polygon fill="#de958e" stroke="#de958e" points="663.8304,-357.6124 674.1545,-359.9924 667.568,-351.6937 663.8304,-357.6124"/>
</g>
<!-- schematics.types&#45;&gt;hidebound.specifications -->
<g id="edge22" class="edge">
<title>schematics.types&#45;&gt;hidebound.specifications</title>
<path fill="none" stroke="#de958e" d="M526.7672,-245.2913C602.4977,-250.8129 722.9761,-260.0422 827,-270 835.3399,-270.7983 843.9481,-271.6609 852.6123,-272.5574"/>
<polygon fill="#de958e" stroke="#de958e" points="852.4863,-276.0633 862.7964,-273.6235 853.2152,-269.1013 852.4863,-276.0633"/>
</g>
<!-- schematics.exceptions -->
<g id="node15" class="node">
<title>schematics.exceptions</title>
<polygon fill="#343434" stroke="#343434" points="325,-510 135,-510 135,-474 325,-474 325,-510"/>
<text text-anchor="middle" x="230" y="-488.3" font-family="Courier,monospace" font-size="14.00" fill="#de958e">schematics.exceptions</text>
</g>
<!-- schematics.exceptions&#45;&gt;hidebound.config -->
<g id="edge23" class="edge">
<title>schematics.exceptions&#45;&gt;hidebound.config</title>
<path fill="none" stroke="#de958e" d="M325.2161,-491.9803C387.2481,-491.7471 469.9369,-491.0217 543,-489 669.306,-485.505 700.9684,-485.0264 827,-476 846.029,-474.6371 866.4465,-472.8449 885.7392,-470.9997"/>
<polygon fill="#de958e" stroke="#de958e" points="886.097,-474.4815 895.7122,-470.032 885.4208,-467.5143 886.097,-474.4815"/>
</g>
<!-- schematics.exceptions&#45;&gt;hidebound.database -->
<g id="edge24" class="edge">
<title>schematics.exceptions&#45;&gt;hidebound.database</title>
<path fill="none" stroke="#de958e" d="M325.0905,-501.7379C337.1661,-502.672 349.3646,-503.4682 361,-504 630.3048,-516.3088 948.9474,-510.7454 1103.3478,-506.7724"/>
<polygon fill="#de958e" stroke="#de958e" points="1103.8229,-510.2613 1113.7281,-506.5013 1103.6401,-503.2637 1103.8229,-510.2613"/>
</g>
<!-- schematics.exceptions&#45;&gt;hidebound.specification_base -->
<g id="edge25" class="edge">
<title>schematics.exceptions&#45;&gt;hidebound.specification_base</title>
<path fill="none" stroke="#de958e" d="M264.9799,-473.97C290.8742,-461.3248 327.3474,-444.961 361,-435 428.1148,-415.1344 504.8192,-401.5556 568.555,-392.6509"/>
<polygon fill="#de958e" stroke="#de958e" points="569.2387,-396.0899 578.6694,-391.2616 568.2861,-389.155 569.2387,-396.0899"/>
</g>
<!-- schematics.exceptions&#45;&gt;hidebound.tools -->
<g id="edge26" class="edge">
<title>schematics.exceptions&#45;&gt;hidebound.tools</title>
<path fill="none" stroke="#de958e" d="M307.8458,-510.0303C313.8398,-512.6375 319.637,-515.6109 325,-519 345.4995,-531.9545 340.9067,-546.424 361,-560 366.2818,-563.5686 372.0046,-566.7834 377.9206,-569.6708"/>
<polygon fill="#de958e" stroke="#de958e" points="376.7876,-573 387.3404,-573.9423 379.6785,-566.6248 376.7876,-573"/>
</g>
<!-- schematics.exceptions&#45;&gt;hidebound.validators -->
<g id="edge27" class="edge">
<title>schematics.exceptions&#45;&gt;hidebound.validators</title>
<path fill="none" stroke="#de958e" d="M255.0347,-473.957C295.09,-445.0883 373.6271,-388.485 418.4825,-356.1567"/>
<polygon fill="#de958e" stroke="#de958e" points="420.65,-358.9089 426.7162,-350.2226 416.5572,-353.2301 420.65,-358.9089"/>
</g>
<!-- hidebound -->
<g id="node16" class="node">
<title>hidebound</title>
<polygon fill="#343434" stroke="#343434" points="95,-377 4,-377 4,-341 95,-341 95,-377"/>
<text text-anchor="middle" x="49.5" y="-355.3" font-family="Courier,monospace" font-size="14.00" fill="#a0d17b">hidebound</text>
</g>
<!-- hidebound&#45;&gt;hidebound.config -->
<g id="edge28" class="edge">
<title>hidebound&#45;&gt;hidebound.config</title>
<path fill="none" stroke="#a0d17b" d="M52.9977,-377.0629C63.52,-429.3744 96.5391,-579.1041 135,-608 207.5143,-662.4803 453.7012,-634.8791 543,-619 688.384,-593.1479 849.1688,-521.4562 925.5059,-484.5678"/>
<polygon fill="#a0d17b" stroke="#a0d17b" points="927.3683,-487.554 934.8294,-480.0319 924.3059,-481.2594 927.3683,-487.554"/>
</g>
<!-- hidebound&#45;&gt;hidebound.database -->
<g id="edge29" class="edge">
<title>hidebound&#45;&gt;hidebound.database</title>
<path fill="none" stroke="#a0d17b" d="M51.2277,-377.0981C57.8035,-441.8206 83.5357,-660.2187 135,-703 243.5376,-793.2252 310.8583,-722 452,-722 452,-722 452,-722 703,-722 874.2963,-722 930.2398,-719.6565 1078,-633 1121.7425,-607.3465 1158.7772,-560.3807 1179.2836,-530.7511"/>
<polygon fill="#a0d17b" stroke="#a0d17b" points="1182.3958,-532.3973 1185.1061,-522.155 1176.6002,-528.4716 1182.3958,-532.3973"/>
</g>
<!-- hidebound&#45;&gt;hidebound.parser -->
<g id="edge30" class="edge">
<title>hidebound&#45;&gt;hidebound.parser</title>
<path fill="none" stroke="#a0d17b" d="M54.1076,-340.9976C63.5682,-307.5979 88.3238,-235.8208 135,-196 138.9534,-192.6273 143.277,-189.6059 147.8306,-186.9"/>
<polygon fill="#a0d17b" stroke="#a0d17b" points="149.673,-189.8836 156.8343,-182.0754 146.3668,-183.7136 149.673,-189.8836"/>
</g>
<!-- hidebound&#45;&gt;hidebound.specification_base -->
<g id="edge31" class="edge">
<title>hidebound&#45;&gt;hidebound.specification_base</title>
<path fill="none" stroke="#a0d17b" d="M95.1931,-360.3285C192.0715,-363.1452 421.2941,-369.8096 568.9098,-374.1014"/>
<polygon fill="#a0d17b" stroke="#a0d17b" points="568.8557,-377.6012 578.9532,-374.3934 569.0592,-370.6042 568.8557,-377.6012"/>
</g>
<!-- hidebound&#45;&gt;hidebound.specifications -->
<g id="edge32" class="edge">
<title>hidebound&#45;&gt;hidebound.specifications</title>
<path fill="none" stroke="#a0d17b" d="M61.3851,-340.7812C76.1064,-319.7187 103.1733,-285.574 135,-267 224.1939,-214.9467 258.4374,-225.083 361,-213 567.173,-188.7106 625.4279,-195.3413 827,-245 843.6689,-249.1065 846.6431,-253.7878 863,-259 869.8067,-261.169 876.9,-263.2767 884.0536,-265.2953"/>
<polygon fill="#a0d17b" stroke="#a0d17b" points="883.2539,-268.7054 893.8246,-267.9901 885.1151,-261.9573 883.2539,-268.7054"/>
</g>
<!-- hidebound&#45;&gt;hidebound.tools -->
<g id="edge33" class="edge">
<title>hidebound&#45;&gt;hidebound.tools</title>
<path fill="none" stroke="#a0d17b" d="M50.5612,-377.2342C54.1221,-419.803 69.4737,-525.696 135,-573 203.1709,-622.2132 302.6139,-619.5358 371.8799,-609.3268"/>
<polygon fill="#a0d17b" stroke="#a0d17b" points="372.5306,-612.7677 381.8732,-607.7712 371.4538,-605.851 372.5306,-612.7677"/>
</g>
<!-- hidebound&#45;&gt;hidebound.traits -->
<g id="edge34" class="edge">
<title>hidebound&#45;&gt;hidebound.traits</title>
<path fill="none" stroke="#a0d17b" d="M52.6865,-340.7761C60.5134,-300.3475 83.8858,-201.6254 135,-137 148.1962,-120.3157 166.843,-106.2682 184.1262,-95.5492"/>
<polygon fill="#a0d17b" stroke="#a0d17b" points="186.2105,-98.3813 193.0039,-90.251 182.6232,-92.3704 186.2105,-98.3813"/>
</g>
<!-- hidebound&#45;&gt;hidebound.validators -->
<g id="edge35" class="edge">
<title>hidebound&#45;&gt;hidebound.validators</title>
<path fill="none" stroke="#a0d17b" d="M95.28,-355.929C156.992,-351.7894 268.5725,-344.3045 350.56,-338.8047"/>
<polygon fill="#a0d17b" stroke="#a0d17b" points="350.9154,-342.2888 360.6587,-338.1272 350.4468,-335.3045 350.9154,-342.2888"/>
</g>
<!-- pyparsing -->
<g id="node17" class="node">
<title>pyparsing</title>
<polygon fill="#343434" stroke="#343434" points="95,-182 4,-182 4,-146 95,-146 95,-182"/>
<text text-anchor="middle" x="49.5" y="-160.3" font-family="Courier,monospace" font-size="14.00" fill="#de958e">pyparsing</text>
</g>
<!-- pyparsing&#45;&gt;hidebound.parser -->
<g id="edge36" class="edge">
<title>pyparsing&#45;&gt;hidebound.parser</title>
<path fill="none" stroke="#de958e" d="M95.0478,-164C110.3257,-164 127.8902,-164 145.1874,-164"/>
<polygon fill="#de958e" stroke="#de958e" points="145.3216,-167.5001 155.3216,-164 145.3215,-160.5001 145.3216,-167.5001"/>
</g>
<!-- pyparsing&#45;&gt;hidebound.specification_base -->
<g id="edge37" class="edge">
<title>pyparsing&#45;&gt;hidebound.specification_base</title>
<path fill="none" stroke="#de958e" d="M95.0324,-146.792C107.7789,-142.7557 121.7692,-139.0394 135,-137 317.2995,-108.8998 387.5219,-113.7564 543,-213 602.7849,-251.1614 656.6846,-315.8761 684.0492,-351.8725"/>
<polygon fill="#de958e" stroke="#de958e" points="681.307,-354.0495 690.1083,-359.9476 686.9061,-349.8483 681.307,-354.0495"/>
</g>
<!-- pyparsing&#45;&gt;hidebound.validators -->
<g id="edge38" class="edge">
<title>pyparsing&#45;&gt;hidebound.validators</title>
<path fill="none" stroke="#de958e" d="M95.0424,-178.6655C162.5124,-200.7872 285.3275,-242.6841 325,-267 343.5057,-278.3424 342.3839,-288.8398 361,-300 367.1225,-303.6704 373.729,-307.0056 380.4886,-310.0156"/>
<polygon fill="#de958e" stroke="#de958e" points="379.1952,-313.2686 389.77,-313.9195 381.9092,-306.8161 379.1952,-313.2686"/>
</g>
<!-- wrapt -->
<g id="node18" class="node">
<title>wrapt</title>
<polygon fill="#343434" stroke="#343434" points="259,-312 201,-312 201,-276 259,-276 259,-312"/>
<text text-anchor="middle" x="230" y="-290.3" font-family="Courier,monospace" font-size="14.00" fill="#de958e">wrapt</text>
</g>
<!-- wrapt&#45;&gt;hidebound.validators -->
<g id="edge39" class="edge">
<title>wrapt&#45;&gt;hidebound.validators</title>
<path fill="none" stroke="#de958e" d="M259.0226,-298.9678C282.5563,-302.9961 317.1978,-308.9258 350.6596,-314.6535"/>
<polygon fill="#de958e" stroke="#de958e" points="350.0754,-318.1043 360.5226,-316.3417 351.2565,-311.2046 350.0754,-318.1043"/>
</g>
<!-- skimage.io -->
<g id="node19" class="node">
<title>skimage.io</title>
<polygon fill="#343434" stroke="#343434" points="99,-90 0,-90 0,-54 99,-54 99,-90"/>
<text text-anchor="middle" x="49.5" y="-68.3" font-family="Courier,monospace" font-size="14.00" fill="#de958e">skimage.io</text>
</g>
<!-- skimage.io&#45;&gt;hidebound.traits -->
<g id="edge40" class="edge">
<title>skimage.io&#45;&gt;hidebound.traits</title>
<path fill="none" stroke="#de958e" d="M99.3002,-72C113.5097,-72 129.4059,-72 145.0865,-72"/>
<polygon fill="#de958e" stroke="#de958e" points="145.3399,-75.5001 155.3399,-72 145.3399,-68.5001 145.3399,-75.5001"/>
</g>
</g>
</svg>
