<?xml version="1.0" encoding="UTF-8" standalone="no"?>
<!DOCTYPE svg PUBLIC "-//W3C//DTD SVG 1.1//EN"
 "http://www.w3.org/Graphics/SVG/1.1/DTD/svg11.dtd">
<!-- Generated by graphviz version 2.40.1 (20161225.0304)
 -->
<!-- Title: %3 Pages: 1 -->
<svg width="2644pt" height="2105pt"
 viewBox="0.00 0.00 2644.00 2104.85" xmlns="http://www.w3.org/2000/svg" xmlns:xlink="http://www.w3.org/1999/xlink">
<g id="graph0" class="graph" transform="scale(1 1) rotate(0) translate(4 2100.8477)">
<title>%3</title>
<polygon fill="#242424" stroke="transparent" points="-4,4 -4,-2100.8477 2640,-2100.8477 2640,4 -4,4"/>
<!-- cli -->
<g id="node1" class="node">
<title>cli</title>
<polygon fill="#343434" stroke="#343434" points="171.5,-1239.7939 117.5,-1239.7939 117.5,-1203.7939 171.5,-1203.7939 171.5,-1239.7939"/>
<text text-anchor="middle" x="144.5" y="-1218.0939" font-family="Courier,monospace" font-size="14.00" fill="#b6ecf3">cli</text>
</g>
<!-- hidebound.core.config -->
<g id="node2" class="node">
<title>hidebound.core.config</title>
<polygon fill="#343434" stroke="#343434" points="1867,-1860.7939 1677,-1860.7939 1677,-1824.7939 1867,-1824.7939 1867,-1860.7939"/>
<text text-anchor="middle" x="1772" y="-1839.0939" font-family="Courier,monospace" font-size="14.00" fill="#b6ecf3">hidebound.core.config</text>
</g>
<!-- hidebound.core.database -->
<g id="node3" class="node">
<title>hidebound.core.database</title>
<polygon fill="#343434" stroke="#343434" points="2134,-877.7939 1928,-877.7939 1928,-841.7939 2134,-841.7939 2134,-877.7939"/>
<text text-anchor="middle" x="2031" y="-856.0939" font-family="Courier,monospace" font-size="14.00" fill="#b6ecf3">hidebound.core.database</text>
</g>
<!-- hidebound.core.config&#45;&gt;hidebound.core.database -->
<g id="edge1" class="edge">
<title>hidebound.core.config&#45;&gt;hidebound.core.database</title>
<path fill="none" stroke="#b6ecf3" d="M1801.9255,-1824.5203C1824.2766,-1809.0262 1853.2411,-1784.5944 1867,-1754.7939 1907.4622,-1667.1563 1840.6547,-960.4864 1903,-886.7939 1907.5828,-881.3769 1912.9535,-876.88 1918.8514,-873.1592"/>
<polygon fill="#b6ecf3" stroke="#b6ecf3" points="1920.7434,-876.1139 1927.8395,-868.2465 1917.3861,-869.9715 1920.7434,-876.1139"/>
</g>
<!-- hidebound.server.app -->
<g id="node17" class="node">
<title>hidebound.server.app</title>
<polygon fill="#343434" stroke="#343434" points="2636,-333.7939 2454,-333.7939 2454,-297.7939 2636,-297.7939 2636,-333.7939"/>
<text text-anchor="middle" x="2545" y="-312.0939" font-family="Courier,monospace" font-size="14.00" fill="#b6ecf3">hidebound.server.app</text>
</g>
<!-- hidebound.core.config&#45;&gt;hidebound.server.app -->
<g id="edge2" class="edge">
<title>hidebound.core.config&#45;&gt;hidebound.server.app</title>
<path fill="none" stroke="#b6ecf3" d="M1787.0597,-1824.6188C1865.6023,-1728.9094 2231.7531,-1271.2796 2418,-836.7939 2494.5461,-658.2234 2530.688,-424.5759 2541.4331,-344.3077"/>
<polygon fill="#b6ecf3" stroke="#b6ecf3" points="2544.952,-344.3915 2542.7823,-334.0212 2538.0114,-343.4811 2544.952,-344.3915"/>
</g>
<!-- hidebound.server.api -->
<g id="node16" class="node">
<title>hidebound.server.api</title>
<polygon fill="#343434" stroke="#343434" points="2397.5,-631.7939 2215.5,-631.7939 2215.5,-595.7939 2397.5,-595.7939 2397.5,-631.7939"/>
<text text-anchor="middle" x="2306.5" y="-610.0939" font-family="Courier,monospace" font-size="14.00" fill="#b6ecf3">hidebound.server.api</text>
</g>
<!-- hidebound.core.database&#45;&gt;hidebound.server.api -->
<g id="edge3" class="edge">
<title>hidebound.core.database&#45;&gt;hidebound.server.api</title>
<path fill="none" stroke="#b6ecf3" d="M2051.2582,-841.7049C2099.8183,-798.3445 2222.9411,-688.4054 2278.5191,-638.7786"/>
<polygon fill="#b6ecf3" stroke="#b6ecf3" points="2281.0841,-641.1805 2286.2121,-631.9094 2276.4218,-635.9591 2281.0841,-641.1805"/>
</g>
<!-- hidebound.core.database_tools -->
<g id="node4" class="node">
<title>hidebound.core.database_tools</title>
<polygon fill="#343434" stroke="#343434" points="1600,-761.7939 1344,-761.7939 1344,-725.7939 1600,-725.7939 1600,-761.7939"/>
<text text-anchor="middle" x="1472" y="-740.0939" font-family="Courier,monospace" font-size="14.00" fill="#b6ecf3">hidebound.core.database_tools</text>
</g>
<!-- hidebound.core.database_tools&#45;&gt;hidebound.core.database -->
<g id="edge4" class="edge">
<title>hidebound.core.database_tools&#45;&gt;hidebound.core.database</title>
<path fill="none" stroke="#b6ecf3" d="M1559.0369,-761.8552C1660.7059,-782.9529 1828.4218,-817.7562 1934.1354,-839.6932"/>
<polygon fill="#b6ecf3" stroke="#b6ecf3" points="1933.6653,-843.1701 1944.1679,-841.775 1935.0876,-836.3161 1933.6653,-843.1701"/>
</g>
<!-- hidebound.core.logging -->
<g id="node5" class="node">
<title>hidebound.core.logging</title>
<polygon fill="#343434" stroke="#343434" points="929.5,-869.7939 731.5,-869.7939 731.5,-833.7939 929.5,-833.7939 929.5,-869.7939"/>
<text text-anchor="middle" x="830.5" y="-848.0939" font-family="Courier,monospace" font-size="14.00" fill="#b6ecf3">hidebound.core.logging</text>
</g>
<!-- hidebound.core.logging&#45;&gt;hidebound.core.database -->
<g id="edge5" class="edge">
<title>hidebound.core.logging&#45;&gt;hidebound.core.database</title>
<path fill="none" stroke="#b6ecf3" d="M929.8493,-868.6615C945.9032,-870.7956 962.3789,-872.6353 978,-873.7939 1372.0289,-903.0174 1472.247,-890.6125 1867,-873.7939 1883.4675,-873.0923 1900.8398,-871.9961 1917.8733,-870.7188"/>
<polygon fill="#b6ecf3" stroke="#b6ecf3" points="1918.1533,-874.2077 1927.8538,-869.9474 1917.6138,-867.2285 1918.1533,-874.2077"/>
</g>
<!-- hidebound.exporters.exporter_base -->
<g id="node12" class="node">
<title>hidebound.exporters.exporter_base</title>
<polygon fill="#343434" stroke="#343434" points="1267,-1335.7939 978,-1335.7939 978,-1299.7939 1267,-1299.7939 1267,-1335.7939"/>
<text text-anchor="middle" x="1122.5" y="-1314.0939" font-family="Courier,monospace" font-size="14.00" fill="#b6ecf3">hidebound.exporters.exporter_base</text>
</g>
<!-- hidebound.core.logging&#45;&gt;hidebound.exporters.exporter_base -->
<g id="edge6" class="edge">
<title>hidebound.core.logging&#45;&gt;hidebound.exporters.exporter_base</title>
<path fill="none" stroke="#b6ecf3" d="M837.6942,-869.9367C861.7077,-930.0939 939.7403,-1122.268 978,-1176.7939 1010.4346,-1223.0182 1059.273,-1266.9041 1091.0238,-1293.0884"/>
<polygon fill="#b6ecf3" stroke="#b6ecf3" points="1089.1397,-1296.0681 1099.1024,-1299.6731 1093.5623,-1290.6421 1089.1397,-1296.0681"/>
</g>
<!-- hidebound.server.progress -->
<g id="node19" class="node">
<title>hidebound.server.progress</title>
<polygon fill="#343434" stroke="#343434" points="2142.5,-536.7939 1919.5,-536.7939 1919.5,-500.7939 2142.5,-500.7939 2142.5,-536.7939"/>
<text text-anchor="middle" x="2031" y="-515.0939" font-family="Courier,monospace" font-size="14.00" fill="#b6ecf3">hidebound.server.progress</text>
</g>
<!-- hidebound.core.logging&#45;&gt;hidebound.server.progress -->
<g id="edge7" class="edge">
<title>hidebound.core.logging&#45;&gt;hidebound.server.progress</title>
<path fill="none" stroke="#b6ecf3" d="M832.0366,-833.5107C838.0254,-775.3335 865.4085,-594.0376 978,-520.7939 980.4139,-519.2235 1632.2652,-518.8862 1909.0238,-518.8137"/>
<polygon fill="#b6ecf3" stroke="#b6ecf3" points="1909.1114,-522.3138 1919.1105,-518.8111 1909.1096,-515.3138 1909.1114,-522.3138"/>
</g>
<!-- hidebound.core.parser -->
<g id="node6" class="node">
<title>hidebound.core.parser</title>
<polygon fill="#343434" stroke="#343434" points="683,-1666.7939 493,-1666.7939 493,-1630.7939 683,-1630.7939 683,-1666.7939"/>
<text text-anchor="middle" x="588" y="-1645.0939" font-family="Courier,monospace" font-size="14.00" fill="#b6ecf3">hidebound.core.parser</text>
</g>
<!-- hidebound.core.parser&#45;&gt;hidebound.core.database_tools -->
<g id="edge8" class="edge">
<title>hidebound.core.parser&#45;&gt;hidebound.core.database_tools</title>
<path fill="none" stroke="#b6ecf3" d="M630.4524,-1630.6619C649.9538,-1620.001 671.3038,-1604.4999 683,-1583.7939 751.3135,-1462.8571 636.0504,-1071.2022 719,-959.7939 781.9729,-875.2159 868.5426,-954.4445 942,-878.7939 977.5409,-842.1918 937.453,-800.7584 978,-769.7939 1031.8709,-728.6544 1207.126,-728.3632 1333.5921,-734.1871"/>
<polygon fill="#b6ecf3" stroke="#b6ecf3" points="1333.6002,-737.6914 1343.756,-734.673 1333.9345,-730.6994 1333.6002,-737.6914"/>
</g>
<!-- hidebound.core.specification_base -->
<g id="node7" class="node">
<title>hidebound.core.specification_base</title>
<polygon fill="#343434" stroke="#343434" points="1267,-1823.7939 978,-1823.7939 978,-1787.7939 1267,-1787.7939 1267,-1823.7939"/>
<text text-anchor="middle" x="1122.5" y="-1802.0939" font-family="Courier,monospace" font-size="14.00" fill="#b6ecf3">hidebound.core.specification_base</text>
</g>
<!-- hidebound.core.parser&#45;&gt;hidebound.core.specification_base -->
<g id="edge9" class="edge">
<title>hidebound.core.parser&#45;&gt;hidebound.core.specification_base</title>
<path fill="none" stroke="#b6ecf3" d="M620.801,-1666.8199C646.7966,-1680.4855 684.3808,-1698.8854 719,-1710.7939 815.0482,-1743.8331 844.4842,-1732.3773 942,-1760.7939 958.3319,-1765.5531 961.6618,-1769.0561 978,-1773.7939 992.373,-1777.9617 1007.6854,-1781.8895 1022.7657,-1785.4706"/>
<polygon fill="#b6ecf3" stroke="#b6ecf3" points="1022.0962,-1788.9083 1032.63,-1787.7729 1023.6873,-1782.0915 1022.0962,-1788.9083"/>
</g>
<!-- hidebound.core.validators -->
<g id="node11" class="node">
<title>hidebound.core.validators</title>
<polygon fill="#343434" stroke="#343434" points="942,-1647.7939 719,-1647.7939 719,-1611.7939 942,-1611.7939 942,-1647.7939"/>
<text text-anchor="middle" x="830.5" y="-1626.0939" font-family="Courier,monospace" font-size="14.00" fill="#b6ecf3">hidebound.core.validators</text>
</g>
<!-- hidebound.core.parser&#45;&gt;hidebound.core.validators -->
<g id="edge10" class="edge">
<title>hidebound.core.parser&#45;&gt;hidebound.core.validators</title>
<path fill="none" stroke="#b6ecf3" d="M683.1464,-1641.3391C691.5391,-1640.6815 700.107,-1640.0102 708.6787,-1639.3386"/>
<polygon fill="#b6ecf3" stroke="#b6ecf3" points="709.0365,-1642.8214 718.7325,-1638.5509 708.4897,-1635.8428 709.0365,-1642.8214"/>
</g>
<!-- hidebound.core.specification_base&#45;&gt;hidebound.core.config -->
<g id="edge11" class="edge">
<title>hidebound.core.specification_base&#45;&gt;hidebound.core.config</title>
<path fill="none" stroke="#b6ecf3" d="M1267.2589,-1820.9867C1279.3422,-1822.0246 1291.3764,-1822.9796 1303,-1823.7939 1427.7089,-1832.5305 1571.375,-1837.6192 1666.4934,-1840.2947"/>
<polygon fill="#b6ecf3" stroke="#b6ecf3" points="1666.6012,-1843.799 1676.6944,-1840.5776 1666.7953,-1836.8017 1666.6012,-1843.799"/>
</g>
<!-- hidebound.core.specification_base&#45;&gt;hidebound.core.database -->
<g id="edge12" class="edge">
<title>hidebound.core.specification_base&#45;&gt;hidebound.core.database</title>
<path fill="none" stroke="#b6ecf3" d="M1181.5384,-1787.7299C1281.9677,-1755.2508 1489.8531,-1680.3094 1641,-1573.7939 1759.7107,-1490.1367 1807.5563,-1470.2975 1867,-1337.7939 1908.1531,-1246.061 1836.6081,-962.2963 1903,-886.7939 1907.6351,-881.5227 1913.0166,-877.1308 1918.8968,-873.4826"/>
<polygon fill="#b6ecf3" stroke="#b6ecf3" points="1920.7035,-876.4848 1927.84,-868.654 1917.3778,-870.3253 1920.7035,-876.4848"/>
</g>
<!-- hidebound.core.specification_base&#45;&gt;hidebound.core.database_tools -->
<g id="edge13" class="edge">
<title>hidebound.core.specification_base&#45;&gt;hidebound.core.database_tools</title>
<path fill="none" stroke="#b6ecf3" d="M1136.5813,-1787.5846C1166.7249,-1747.4586 1237.1765,-1647.2967 1267,-1550.7939 1323.3641,-1368.4108 1255.4612,-1307.6737 1303,-1122.7939 1338.7634,-983.7091 1421.2976,-831.433 1456.0823,-770.8365"/>
<polygon fill="#b6ecf3" stroke="#b6ecf3" points="1459.2655,-772.3234 1461.2406,-761.9143 1453.2054,-768.8198 1459.2655,-772.3234"/>
</g>
<!-- hidebound.core.specifications -->
<g id="node8" class="node">
<title>hidebound.core.specifications</title>
<polygon fill="#343434" stroke="#343434" points="1600,-1814.7939 1344,-1814.7939 1344,-1778.7939 1600,-1778.7939 1600,-1814.7939"/>
<text text-anchor="middle" x="1472" y="-1793.0939" font-family="Courier,monospace" font-size="14.00" fill="#b6ecf3">hidebound.core.specifications</text>
</g>
<!-- hidebound.core.specification_base&#45;&gt;hidebound.core.specifications -->
<g id="edge14" class="edge">
<title>hidebound.core.specification_base&#45;&gt;hidebound.core.specifications</title>
<path fill="none" stroke="#b6ecf3" d="M1267.1779,-1802.0683C1289.2442,-1801.5 1311.9701,-1800.9148 1333.8906,-1800.3503"/>
<polygon fill="#b6ecf3" stroke="#b6ecf3" points="1333.9937,-1803.8489 1343.9003,-1800.0926 1333.8135,-1796.8513 1333.9937,-1803.8489"/>
</g>
<!-- hidebound.core.tools -->
<g id="node9" class="node">
<title>hidebound.core.tools</title>
<polygon fill="#343434" stroke="#343434" points="921.5,-1159.7939 739.5,-1159.7939 739.5,-1123.7939 921.5,-1123.7939 921.5,-1159.7939"/>
<text text-anchor="middle" x="830.5" y="-1138.0939" font-family="Courier,monospace" font-size="14.00" fill="#b6ecf3">hidebound.core.tools</text>
</g>
<!-- hidebound.core.tools&#45;&gt;hidebound.core.database -->
<g id="edge15" class="edge">
<title>hidebound.core.tools&#45;&gt;hidebound.core.database</title>
<path fill="none" stroke="#b6ecf3" d="M849.9316,-1123.6679C889.7567,-1086.5289 977.0088,-1005.219 978,-1004.7939 1159.9094,-926.7775 1698.956,-1054.3826 1867,-949.7939 1894.3792,-932.7534 1876.9375,-905.7872 1903,-886.7939 1907.8209,-883.2806 1913,-880.204 1918.413,-877.5115"/>
<polygon fill="#b6ecf3" stroke="#b6ecf3" points="1920.0315,-880.6215 1927.7216,-873.3335 1917.1652,-874.2352 1920.0315,-880.6215"/>
</g>
<!-- hidebound.core.tools&#45;&gt;hidebound.core.database_tools -->
<g id="edge16" class="edge">
<title>hidebound.core.tools&#45;&gt;hidebound.core.database_tools</title>
<path fill="none" stroke="#b6ecf3" d="M841.0525,-1123.6287C862.6214,-1087.883 915.0716,-1007.7277 978,-959.7939 1108.9254,-860.0653 1293.0405,-795.4352 1395.5191,-764.7356"/>
<polygon fill="#b6ecf3" stroke="#b6ecf3" points="1396.5853,-768.0701 1405.177,-761.8705 1394.5945,-761.3591 1396.5853,-768.0701"/>
</g>
<!-- hidebound.core.tools&#45;&gt;hidebound.core.specification_base -->
<g id="edge17" class="edge">
<title>hidebound.core.tools&#45;&gt;hidebound.core.specification_base</title>
<path fill="none" stroke="#b6ecf3" d="M858.6971,-1160.1499C885.0518,-1178.9876 923.0931,-1210.854 942,-1248.7939 1002.2902,-1369.7761 935.8519,-1422.3605 978,-1550.7939 1007.5263,-1640.7662 1070.483,-1734.68 1102.6647,-1779.2614"/>
<polygon fill="#b6ecf3" stroke="#b6ecf3" points="1099.9534,-1781.4838 1108.6716,-1787.5041 1105.6106,-1777.361 1099.9534,-1781.4838"/>
</g>
<!-- hidebound.core.traits -->
<g id="node10" class="node">
<title>hidebound.core.traits</title>
<polygon fill="#343434" stroke="#343434" points="1217.5,-1877.7939 1027.5,-1877.7939 1027.5,-1841.7939 1217.5,-1841.7939 1217.5,-1877.7939"/>
<text text-anchor="middle" x="1122.5" y="-1856.0939" font-family="Courier,monospace" font-size="14.00" fill="#b6ecf3">hidebound.core.traits</text>
</g>
<!-- hidebound.core.tools&#45;&gt;hidebound.core.traits -->
<g id="edge18" class="edge">
<title>hidebound.core.tools&#45;&gt;hidebound.core.traits</title>
<path fill="none" stroke="#b6ecf3" d="M859.1765,-1159.9195C885.8865,-1178.5864 924.1834,-1210.3299 942,-1248.7939 996.6494,-1366.7757 891.8912,-1735.3693 978,-1832.7939 988.4676,-1844.6371 1002.3279,-1852.3301 1017.3265,-1857.188"/>
<polygon fill="#b6ecf3" stroke="#b6ecf3" points="1016.7497,-1860.661 1027.323,-1859.986 1018.6365,-1853.92 1016.7497,-1860.661"/>
</g>
<!-- hidebound.core.tools&#45;&gt;hidebound.exporters.exporter_base -->
<g id="edge19" class="edge">
<title>hidebound.core.tools&#45;&gt;hidebound.exporters.exporter_base</title>
<path fill="none" stroke="#b6ecf3" d="M860.3769,-1159.8019C913.6055,-1191.8849 1024.7846,-1258.8969 1083.7878,-1294.4605"/>
<polygon fill="#b6ecf3" stroke="#b6ecf3" points="1082.0757,-1297.5152 1092.4471,-1299.6798 1085.6893,-1291.52 1082.0757,-1297.5152"/>
</g>
<!-- hidebound.exporters.local_disk_exporter -->
<g id="node14" class="node">
<title>hidebound.exporters.local_disk_exporter</title>
<polygon fill="#343434" stroke="#343434" points="1641,-1335.7939 1303,-1335.7939 1303,-1299.7939 1641,-1299.7939 1641,-1335.7939"/>
<text text-anchor="middle" x="1472" y="-1314.0939" font-family="Courier,monospace" font-size="14.00" fill="#b6ecf3">hidebound.exporters.local_disk_exporter</text>
</g>
<!-- hidebound.core.tools&#45;&gt;hidebound.exporters.local_disk_exporter -->
<g id="edge20" class="edge">
<title>hidebound.core.tools&#45;&gt;hidebound.exporters.local_disk_exporter</title>
<path fill="none" stroke="#b6ecf3" d="M896.137,-1159.8019C1015.9574,-1192.6754 1269.4416,-1262.2206 1396.3221,-1297.0311"/>
<polygon fill="#b6ecf3" stroke="#b6ecf3" points="1395.4066,-1300.4092 1405.9763,-1299.6798 1397.2587,-1293.6587 1395.4066,-1300.4092"/>
</g>
<!-- hidebound.exporters.s3_exporter -->
<g id="node15" class="node">
<title>hidebound.exporters.s3_exporter</title>
<polygon fill="#343434" stroke="#343434" points="1608,-1167.7939 1336,-1167.7939 1336,-1131.7939 1608,-1131.7939 1608,-1167.7939"/>
<text text-anchor="middle" x="1472" y="-1146.0939" font-family="Courier,monospace" font-size="14.00" fill="#b6ecf3">hidebound.exporters.s3_exporter</text>
</g>
<!-- hidebound.core.tools&#45;&gt;hidebound.exporters.s3_exporter -->
<g id="edge21" class="edge">
<title>hidebound.core.tools&#45;&gt;hidebound.exporters.s3_exporter</title>
<path fill="none" stroke="#b6ecf3" d="M847.9229,-1123.4898C873.565,-1098.0272 924.2712,-1053.0974 978,-1035.7939 1100.2605,-996.4194 1142.6688,-1003.549 1267,-1035.7939 1333.8815,-1053.1394 1402.1574,-1097.5683 1440.6012,-1125.5616"/>
<polygon fill="#b6ecf3" stroke="#b6ecf3" points="1438.6741,-1128.4893 1448.7983,-1131.6121 1442.8312,-1122.8574 1438.6741,-1128.4893"/>
</g>
<!-- hidebound.core.traits&#45;&gt;hidebound.core.specifications -->
<g id="edge22" class="edge">
<title>hidebound.core.traits&#45;&gt;hidebound.core.specifications</title>
<path fill="none" stroke="#b6ecf3" d="M1217.5408,-1842.6621C1262.1722,-1834.6169 1315.6322,-1824.9803 1362.0059,-1816.6211"/>
<polygon fill="#b6ecf3" stroke="#b6ecf3" points="1362.8727,-1820.0214 1372.0931,-1814.8028 1361.6308,-1813.1324 1362.8727,-1820.0214"/>
</g>
<!-- hidebound.core.validators&#45;&gt;hidebound.core.config -->
<g id="edge23" class="edge">
<title>hidebound.core.validators&#45;&gt;hidebound.core.config</title>
<path fill="none" stroke="#b6ecf3" d="M931.7498,-1647.8049C935.4512,-1650.4419 938.8968,-1653.4241 942,-1656.7939 1012.0897,-1732.9044 899.3843,-1819.5261 978,-1886.7939 1029.1275,-1930.5413 1462.8781,-1882.1377 1666.8203,-1856.5675"/>
<polygon fill="#b6ecf3" stroke="#b6ecf3" points="1667.465,-1860.014 1676.9496,-1855.2925 1666.5908,-1853.0688 1667.465,-1860.014"/>
</g>
<!-- hidebound.core.validators&#45;&gt;hidebound.core.specification_base -->
<g id="edge24" class="edge">
<title>hidebound.core.validators&#45;&gt;hidebound.core.specification_base</title>
<path fill="none" stroke="#b6ecf3" d="M930.413,-1647.8962C934.5511,-1650.499 938.4461,-1653.4501 942,-1656.7939 981.6246,-1694.0752 938.0112,-1736.9036 978,-1773.7939 981.4393,-1776.9667 985.1205,-1779.85 988.9917,-1782.4689"/>
<polygon fill="#b6ecf3" stroke="#b6ecf3" points="987.3865,-1785.589 997.7502,-1787.7899 991.021,-1779.6064 987.3865,-1785.589"/>
</g>
<!-- hidebound.core.validators&#45;&gt;hidebound.core.specifications -->
<g id="edge25" class="edge">
<title>hidebound.core.validators&#45;&gt;hidebound.core.specifications</title>
<path fill="none" stroke="#b6ecf3" d="M924.1164,-1647.8209C930.3489,-1650.4196 936.3758,-1653.3926 942,-1656.7939 962.7503,-1669.3428 957.0041,-1685.6603 978,-1697.7939 1037.4032,-1732.1232 1209.5102,-1761.5553 1333.8842,-1779.2008"/>
<polygon fill="#b6ecf3" stroke="#b6ecf3" points="1333.4902,-1782.6798 1343.8806,-1780.6083 1334.4663,-1775.7481 1333.4902,-1782.6798"/>
</g>
<!-- hidebound.core.validators&#45;&gt;hidebound.exporters.exporter_base -->
<g id="edge26" class="edge">
<title>hidebound.core.validators&#45;&gt;hidebound.exporters.exporter_base</title>
<path fill="none" stroke="#b6ecf3" d="M923.9128,-1611.6853C930.6726,-1607.6481 936.8448,-1602.7446 942,-1596.7939 1014.6395,-1512.9448 902.4785,-1431.0568 978,-1349.7939 980.6484,-1346.9442 983.4889,-1344.3196 986.4896,-1341.9036"/>
<polygon fill="#b6ecf3" stroke="#b6ecf3" points="988.6783,-1344.6415 994.7849,-1335.9836 984.612,-1338.9437 988.6783,-1344.6415"/>
</g>
<!-- hidebound.exporters.girder_exporter -->
<g id="node13" class="node">
<title>hidebound.exporters.girder_exporter</title>
<polygon fill="#343434" stroke="#343434" points="1624.5,-1564.7939 1319.5,-1564.7939 1319.5,-1528.7939 1624.5,-1528.7939 1624.5,-1564.7939"/>
<text text-anchor="middle" x="1472" y="-1543.0939" font-family="Courier,monospace" font-size="14.00" fill="#b6ecf3">hidebound.exporters.girder_exporter</text>
</g>
<!-- hidebound.core.validators&#45;&gt;hidebound.exporters.girder_exporter -->
<g id="edge27" class="edge">
<title>hidebound.core.validators&#45;&gt;hidebound.exporters.girder_exporter</title>
<path fill="none" stroke="#b6ecf3" d="M942.2408,-1615.3364C1047.6675,-1601.6958 1206.4539,-1581.1514 1322.6954,-1566.1115"/>
<polygon fill="#b6ecf3" stroke="#b6ecf3" points="1323.2803,-1569.5651 1332.7485,-1564.8108 1322.382,-1562.623 1323.2803,-1569.5651"/>
</g>
<!-- hidebound.core.validators&#45;&gt;hidebound.exporters.local_disk_exporter -->
<g id="edge28" class="edge">
<title>hidebound.core.validators&#45;&gt;hidebound.exporters.local_disk_exporter</title>
<path fill="none" stroke="#b6ecf3" d="M920.2347,-1611.7879C928.1782,-1607.7533 935.6136,-1602.8214 942,-1596.7939 976.3527,-1564.3717 942.8458,-1528.3452 978,-1496.7939 1076.3542,-1408.5197 1143.4612,-1473.7411 1267,-1426.7939 1328.4778,-1403.4311 1394.8632,-1365.5719 1434.9277,-1341.1849"/>
<polygon fill="#b6ecf3" stroke="#b6ecf3" points="1436.8582,-1344.1068 1443.5528,-1335.895 1433.1985,-1338.1397 1436.8582,-1344.1068"/>
</g>
<!-- hidebound.core.validators&#45;&gt;hidebound.exporters.s3_exporter -->
<g id="edge29" class="edge">
<title>hidebound.core.validators&#45;&gt;hidebound.exporters.s3_exporter</title>
<path fill="none" stroke="#b6ecf3" d="M923.0103,-1611.6538C930.054,-1607.6299 936.5341,-1602.7378 942,-1596.7939 995.455,-1538.6646 923.8475,-1480.2739 978,-1422.7939 1069.2292,-1325.959 1158.9695,-1422.4416 1267,-1344.7939 1290.422,-1327.9591 1283.7272,-1312.2545 1303,-1290.7939 1344.6,-1244.4716 1401.7072,-1199.9961 1437.7296,-1173.7817"/>
<polygon fill="#b6ecf3" stroke="#b6ecf3" points="1439.9063,-1176.5271 1445.9678,-1167.8375 1435.8104,-1170.8505 1439.9063,-1176.5271"/>
</g>
<!-- hidebound.exporters.exporter_base&#45;&gt;hidebound.exporters.girder_exporter -->
<g id="edge30" class="edge">
<title>hidebound.exporters.exporter_base&#45;&gt;hidebound.exporters.girder_exporter</title>
<path fill="none" stroke="#b6ecf3" d="M1150.2168,-1335.9545C1212.9235,-1377.0413 1365.6592,-1477.117 1435.7536,-1523.0444"/>
<polygon fill="#b6ecf3" stroke="#b6ecf3" points="1433.9977,-1526.0783 1444.2803,-1528.6313 1437.8341,-1520.2232 1433.9977,-1526.0783"/>
</g>
<!-- hidebound.exporters.exporter_base&#45;&gt;hidebound.exporters.local_disk_exporter -->
<g id="edge31" class="edge">
<title>hidebound.exporters.exporter_base&#45;&gt;hidebound.exporters.local_disk_exporter</title>
<path fill="none" stroke="#b6ecf3" d="M1267.1779,-1317.7939C1275.6139,-1317.7939 1284.1463,-1317.7939 1292.6932,-1317.7939"/>
<polygon fill="#b6ecf3" stroke="#b6ecf3" points="1292.7283,-1321.294 1302.7283,-1317.7939 1292.7283,-1314.294 1292.7283,-1321.294"/>
</g>
<!-- hidebound.exporters.exporter_base&#45;&gt;hidebound.exporters.s3_exporter -->
<g id="edge32" class="edge">
<title>hidebound.exporters.exporter_base&#45;&gt;hidebound.exporters.s3_exporter</title>
<path fill="none" stroke="#b6ecf3" d="M1226.1872,-1299.707C1240.1623,-1295.8662 1254.1119,-1291.2709 1267,-1285.7939 1334.7892,-1256.9857 1404.2774,-1205.2721 1442.4114,-1174.5877"/>
<polygon fill="#b6ecf3" stroke="#b6ecf3" points="1444.958,-1177.0283 1450.5114,-1168.0056 1440.5434,-1171.5958 1444.958,-1177.0283"/>
</g>
<!-- hidebound.exporters.girder_exporter&#45;&gt;hidebound.core.config -->
<g id="edge33" class="edge">
<title>hidebound.exporters.girder_exporter&#45;&gt;hidebound.core.config</title>
<path fill="none" stroke="#b6ecf3" d="M1502.1219,-1564.8735C1537.5959,-1586.9958 1597.2257,-1626.8419 1641,-1669.7939 1688.1484,-1716.0566 1732.1626,-1780.0995 1755.2197,-1815.867"/>
<polygon fill="#b6ecf3" stroke="#b6ecf3" points="1752.5559,-1818.1989 1760.8862,-1824.7454 1758.4565,-1814.4329 1752.5559,-1818.1989"/>
</g>
<!-- hidebound.exporters.girder_exporter&#45;&gt;hidebound.core.database -->
<g id="edge34" class="edge">
<title>hidebound.exporters.girder_exporter&#45;&gt;hidebound.core.database</title>
<path fill="none" stroke="#b6ecf3" d="M1510.1695,-1528.7282C1591.9341,-1487.7579 1783.344,-1379.2126 1867,-1224.7939 1902.9806,-1158.378 1852.3742,-942.8537 1903,-886.7939 1907.6533,-881.6411 1913.0205,-877.334 1918.8648,-873.744"/>
<polygon fill="#b6ecf3" stroke="#b6ecf3" points="1920.5835,-876.7939 1927.7411,-868.9824 1917.2744,-870.6254 1920.5835,-876.7939"/>
</g>
<!-- hidebound.exporters.local_disk_exporter&#45;&gt;hidebound.core.config -->
<g id="edge35" class="edge">
<title>hidebound.exporters.local_disk_exporter&#45;&gt;hidebound.core.config</title>
<path fill="none" stroke="#b6ecf3" d="M1490.7192,-1336.0344C1524.4624,-1369.7292 1596.1421,-1445.1277 1641,-1519.7939 1702.1684,-1621.609 1746.5492,-1757.1786 1763.9261,-1814.8868"/>
<polygon fill="#b6ecf3" stroke="#b6ecf3" points="1760.6483,-1816.1435 1766.8544,-1824.7304 1767.3577,-1814.1475 1760.6483,-1816.1435"/>
</g>
<!-- hidebound.exporters.local_disk_exporter&#45;&gt;hidebound.core.database -->
<g id="edge36" class="edge">
<title>hidebound.exporters.local_disk_exporter&#45;&gt;hidebound.core.database</title>
<path fill="none" stroke="#b6ecf3" d="M1588.3043,-1299.7018C1678.9075,-1279.1974 1800.1706,-1236.4246 1867,-1148.7939 1938.2761,-1055.3325 1822.9046,-972.8173 1903,-886.7939 1907.7312,-881.7125 1913.1577,-877.4598 1919.046,-873.9101"/>
<polygon fill="#b6ecf3" stroke="#b6ecf3" points="1920.7653,-876.9603 1927.9762,-869.198 1917.4986,-870.7693 1920.7653,-876.9603"/>
</g>
<!-- hidebound.exporters.s3_exporter&#45;&gt;hidebound.core.config -->
<g id="edge37" class="edge">
<title>hidebound.exporters.s3_exporter&#45;&gt;hidebound.core.config</title>
<path fill="none" stroke="#b6ecf3" d="M1504.4875,-1167.9341C1543.132,-1191.2462 1606.7117,-1235.3971 1641,-1290.7939 1697.2674,-1381.7006 1752.3087,-1715.3803 1767.7406,-1814.7141"/>
<polygon fill="#b6ecf3" stroke="#b6ecf3" points="1764.2843,-1815.2664 1769.2679,-1824.6159 1771.2025,-1814.1993 1764.2843,-1815.2664"/>
</g>
<!-- hidebound.exporters.s3_exporter&#45;&gt;hidebound.core.database -->
<g id="edge38" class="edge">
<title>hidebound.exporters.s3_exporter&#45;&gt;hidebound.core.database</title>
<path fill="none" stroke="#b6ecf3" d="M1574.4185,-1167.8022C1663.6388,-1177.1601 1790.392,-1174.1587 1867,-1100.7939 1936.6572,-1034.0856 1836.2215,-956.3838 1903,-886.7939 1907.7543,-881.8394 1913.171,-877.6786 1919.0273,-874.1931"/>
<polygon fill="#b6ecf3" stroke="#b6ecf3" points="1920.6561,-877.2911 1927.8961,-869.5559 1917.4126,-871.0879 1920.6561,-877.2911"/>
</g>
<!-- hidebound.server.api&#45;&gt;hidebound.server.app -->
<g id="edge39" class="edge">
<title>hidebound.server.api&#45;&gt;hidebound.server.app</title>
<path fill="none" stroke="#b6ecf3" d="M2321.0602,-595.6012C2361.6428,-544.8943 2476.1628,-401.8043 2523.8008,-342.2818"/>
<polygon fill="#b6ecf3" stroke="#b6ecf3" points="2526.8113,-344.1215 2530.3273,-334.1271 2521.3461,-339.7475 2526.8113,-344.1215"/>
</g>
<!-- hidebound.server.components -->
<g id="node18" class="node">
<title>hidebound.server.components</title>
<polygon fill="#343434" stroke="#343434" points="2150.5,-271.7939 1911.5,-271.7939 1911.5,-235.7939 2150.5,-235.7939 2150.5,-271.7939"/>
<text text-anchor="middle" x="2031" y="-250.0939" font-family="Courier,monospace" font-size="14.00" fill="#b6ecf3">hidebound.server.components</text>
</g>
<!-- hidebound.server.components&#45;&gt;hidebound.server.app -->
<g id="edge40" class="edge">
<title>hidebound.server.components&#45;&gt;hidebound.server.app</title>
<path fill="none" stroke="#b6ecf3" d="M2150.5058,-271.81C2165.4752,-273.9113 2180.5849,-275.9572 2195,-277.7939 2278.6492,-288.4518 2373.7912,-298.6588 2443.7434,-305.8054"/>
<polygon fill="#b6ecf3" stroke="#b6ecf3" points="2443.5739,-309.3062 2453.8771,-306.8373 2444.2831,-302.3422 2443.5739,-309.3062"/>
</g>
<!-- hidebound.server.server_tools -->
<g id="node20" class="node">
<title>hidebound.server.server_tools</title>
<polygon fill="#343434" stroke="#343434" points="2159,-482.7939 1903,-482.7939 1903,-446.7939 2159,-446.7939 2159,-482.7939"/>
<text text-anchor="middle" x="2031" y="-461.0939" font-family="Courier,monospace" font-size="14.00" fill="#b6ecf3">hidebound.server.server_tools</text>
</g>
<!-- hidebound.server.server_tools&#45;&gt;hidebound.server.api -->
<g id="edge41" class="edge">
<title>hidebound.server.server_tools&#45;&gt;hidebound.server.api</title>
<path fill="none" stroke="#b6ecf3" d="M2136.8029,-482.809C2144.4632,-485.4123 2151.9429,-488.3895 2159,-491.7939 2208.7935,-515.8146 2256.1596,-560.1358 2283.2256,-588.2296"/>
<polygon fill="#b6ecf3" stroke="#b6ecf3" points="2280.8846,-590.8473 2290.3065,-595.6928 2285.9627,-586.0293 2280.8846,-590.8473"/>
</g>
<!-- hidebound.server.server_tools&#45;&gt;hidebound.server.app -->
<g id="edge42" class="edge">
<title>hidebound.server.server_tools&#45;&gt;hidebound.server.app</title>
<path fill="none" stroke="#b6ecf3" d="M2131.9563,-446.7385C2210.961,-431.2559 2322.9841,-406.3048 2418,-373.7939 2446.4459,-364.0607 2477.1406,-350.1436 2501.2272,-338.3818"/>
<polygon fill="#b6ecf3" stroke="#b6ecf3" points="2503.0333,-341.3934 2510.4491,-333.8266 2499.9332,-335.1173 2503.0333,-341.3934"/>
</g>
<!-- dash -->
<g id="node21" class="node">
<title>dash</title>
<polygon fill="#343434" stroke="#343434" points="1799,-102.7939 1745,-102.7939 1745,-66.7939 1799,-66.7939 1799,-102.7939"/>
<text text-anchor="middle" x="1772" y="-81.0939" font-family="Courier,monospace" font-size="14.00" fill="#de958e">dash</text>
</g>
<!-- dash&#45;&gt;hidebound.server.app -->
<g id="edge43" class="edge">
<title>dash&#45;&gt;hidebound.server.app</title>
<path fill="none" stroke="#de958e" d="M1799.2833,-73.9509C1893.6658,-38.3432 2211.7993,65.6452 2418,-61.7939 2499.5844,-112.2158 2530.5123,-232.6748 2540.6611,-287.6151"/>
<polygon fill="#de958e" stroke="#de958e" points="2537.2524,-288.4417 2542.4226,-297.6894 2544.1478,-287.236 2537.2524,-288.4417"/>
</g>
<!-- dash&#45;&gt;hidebound.server.components -->
<g id="edge44" class="edge">
<title>dash&#45;&gt;hidebound.server.components</title>
<path fill="none" stroke="#de958e" d="M1799.1891,-97.8043C1818.5043,-107.3577 1844.8385,-121.0201 1867,-134.7939 1915.2709,-164.7952 1967.9337,-204.3253 2000.2191,-229.4077"/>
<polygon fill="#de958e" stroke="#de958e" points="1998.332,-232.3747 2008.3685,-235.7687 2002.6391,-226.8566 1998.332,-232.3747"/>
</g>
<!-- dash_cytoscape -->
<g id="node22" class="node">
<title>dash_cytoscape</title>
<polygon fill="#343434" stroke="#343434" points="1838,-179.7939 1706,-179.7939 1706,-143.7939 1838,-143.7939 1838,-179.7939"/>
<text text-anchor="middle" x="1772" y="-158.0939" font-family="Courier,monospace" font-size="14.00" fill="#de958e">dash_cytoscape</text>
</g>
<!-- dash_cytoscape&#45;&gt;hidebound.server.components -->
<g id="edge45" class="edge">
<title>dash_cytoscape&#45;&gt;hidebound.server.components</title>
<path fill="none" stroke="#de958e" d="M1826.3399,-179.8289C1839.6607,-184.324 1853.864,-189.1794 1867,-193.7939 1902.3845,-206.2238 1941.8658,-220.6509 1973.2225,-232.2427"/>
<polygon fill="#de958e" stroke="#de958e" points="1972.0864,-235.5542 1982.6795,-235.7437 1974.5167,-228.9896 1972.0864,-235.5542"/>
</g>
<!-- hidebound.server -->
<g id="node23" class="node">
<title>hidebound.server</title>
<polygon fill="#343434" stroke="#343434" points="1846.5,-509.7939 1697.5,-509.7939 1697.5,-473.7939 1846.5,-473.7939 1846.5,-509.7939"/>
<text text-anchor="middle" x="1772" y="-488.0939" font-family="Courier,monospace" font-size="14.00" fill="#a0d17b">hidebound.server</text>
</g>
<!-- hidebound.server&#45;&gt;hidebound.server.api -->
<g id="edge46" class="edge">
<title>hidebound.server&#45;&gt;hidebound.server.api</title>
<path fill="none" stroke="#a0d17b" d="M1774.394,-509.8036C1785.0246,-586.7594 1830.6472,-886.5341 1903,-940.7939 1948.5126,-974.9253 2111.2137,-971.6616 2159,-940.7939 2264.8004,-872.4516 2295.491,-708.0076 2303.7152,-641.9565"/>
<polygon fill="#a0d17b" stroke="#a0d17b" points="2307.2091,-642.2113 2304.8889,-631.8736 2300.256,-641.4018 2307.2091,-642.2113"/>
</g>
<!-- hidebound.server&#45;&gt;hidebound.server.app -->
<g id="edge47" class="edge">
<title>hidebound.server&#45;&gt;hidebound.server.app</title>
<path fill="none" stroke="#a0d17b" d="M1774.1207,-510.0165C1783.8401,-590.0381 1826.9472,-908.8763 1903,-966.7939 1993.5182,-1035.7274 2056.5351,-1016.2541 2159,-966.7939 2418.9533,-841.3133 2517.0064,-451.7909 2539.5943,-343.8029"/>
<polygon fill="#a0d17b" stroke="#a0d17b" points="2543.0303,-344.47 2541.603,-333.9717 2536.1719,-343.0686 2543.0303,-344.47"/>
</g>
<!-- hidebound.server&#45;&gt;hidebound.server.components -->
<g id="edge48" class="edge">
<title>hidebound.server&#45;&gt;hidebound.server.components</title>
<path fill="none" stroke="#a0d17b" d="M1807.6834,-473.7685C1827.2499,-462.4448 1850.7571,-446.2953 1867,-426.7939 1892.2127,-396.5231 1878.1394,-376.3545 1903,-345.7939 1926.1963,-317.2792 1960.2878,-293.3604 1987.456,-277.0643"/>
<polygon fill="#a0d17b" stroke="#a0d17b" points="1989.5212,-279.9108 1996.3785,-271.8344 1985.9814,-273.8718 1989.5212,-279.9108"/>
</g>
<!-- hidebound.server&#45;&gt;hidebound.server.progress -->
<g id="edge49" class="edge">
<title>hidebound.server&#45;&gt;hidebound.server.progress</title>
<path fill="none" stroke="#a0d17b" d="M1846.5661,-499.5672C1866.1755,-501.6114 1887.8478,-503.8707 1909.2376,-506.1005"/>
<polygon fill="#a0d17b" stroke="#a0d17b" points="1909.0606,-509.6009 1919.3696,-507.1567 1909.7865,-502.6387 1909.0606,-509.6009"/>
</g>
<!-- hidebound.server&#45;&gt;hidebound.server.server_tools -->
<g id="edge50" class="edge">
<title>hidebound.server&#45;&gt;hidebound.server.server_tools</title>
<path fill="none" stroke="#a0d17b" d="M1846.5661,-484.0206C1861.0315,-482.5126 1876.6194,-480.8876 1892.3884,-479.2437"/>
<polygon fill="#a0d17b" stroke="#a0d17b" points="1893.1839,-482.6799 1902.7671,-478.1618 1892.4581,-475.7176 1893.1839,-482.6799"/>
</g>
<!-- flask -->
<g id="node24" class="node">
<title>flask</title>
<polygon fill="#343434" stroke="#343434" points="1801,-325.7939 1743,-325.7939 1743,-289.7939 1801,-289.7939 1801,-325.7939"/>
<text text-anchor="middle" x="1772" y="-304.0939" font-family="Courier,monospace" font-size="14.00" fill="#de958e">flask</text>
</g>
<!-- flask&#45;&gt;hidebound.server.api -->
<g id="edge51" class="edge">
<title>flask&#45;&gt;hidebound.server.api</title>
<path fill="none" stroke="#de958e" d="M1801.1478,-312.1411C1821.386,-316.3798 1848.0183,-324.518 1867,-339.7939 1891.2273,-359.2912 1877.1395,-382.5212 1903,-399.7939 1998.6508,-463.6809 2058.6308,-381.6099 2159,-437.7939 2222.1234,-473.1287 2269.8668,-546.795 2292.3198,-586.7019"/>
<polygon fill="#de958e" stroke="#de958e" points="2289.3369,-588.5409 2297.2271,-595.6116 2295.4684,-585.1638 2289.3369,-588.5409"/>
</g>
<!-- flask&#45;&gt;hidebound.server.app -->
<g id="edge52" class="edge">
<title>flask&#45;&gt;hidebound.server.app</title>
<path fill="none" stroke="#de958e" d="M1801.3586,-308.0977C1906.2548,-309.1833 2265.7144,-312.9035 2443.6133,-314.7446"/>
<polygon fill="#de958e" stroke="#de958e" points="2443.7296,-318.2459 2453.7653,-314.8497 2443.8021,-311.2463 2443.7296,-318.2459"/>
</g>
<!-- flask&#45;&gt;hidebound.server.components -->
<g id="edge53" class="edge">
<title>flask&#45;&gt;hidebound.server.components</title>
<path fill="none" stroke="#de958e" d="M1801.2071,-301.7044C1833.505,-294.9704 1887.2483,-283.7653 1934.6422,-273.8839"/>
<polygon fill="#de958e" stroke="#de958e" points="1935.5741,-277.265 1944.6492,-271.7975 1934.1453,-270.4123 1935.5741,-277.265"/>
</g>
<!-- flask&#45;&gt;hidebound.server.progress -->
<g id="edge54" class="edge">
<title>flask&#45;&gt;hidebound.server.progress</title>
<path fill="none" stroke="#de958e" d="M1801.3171,-321.1321C1822.4483,-332.1605 1850.1117,-349.7407 1867,-372.7939 1899.6545,-417.3687 1862.2869,-454.4351 1903,-491.7939 1905.4682,-494.0588 1908.077,-496.1523 1910.8018,-498.0867"/>
<polygon fill="#de958e" stroke="#de958e" points="1908.9706,-501.0696 1919.3004,-503.4247 1912.6938,-495.1419 1908.9706,-501.0696"/>
</g>
<!-- flask&#45;&gt;hidebound.server.server_tools -->
<g id="edge55" class="edge">
<title>flask&#45;&gt;hidebound.server.server_tools</title>
<path fill="none" stroke="#de958e" d="M1801.1138,-311.0169C1821.8652,-314.7342 1849.1414,-322.7115 1867,-339.7939 1899.0288,-370.4304 1869.7727,-403.4614 1903,-432.7939 1906.7215,-436.0792 1910.7303,-439.0376 1914.951,-441.7009"/>
<polygon fill="#de958e" stroke="#de958e" points="1913.462,-444.8799 1923.888,-446.7634 1916.9121,-438.7892 1913.462,-444.8799"/>
</g>
<!-- dash.dependencies -->
<g id="node25" class="node">
<title>dash.dependencies</title>
<polygon fill="#343434" stroke="#343434" points="2385,-268.7939 2228,-268.7939 2228,-232.7939 2385,-232.7939 2385,-268.7939"/>
<text text-anchor="middle" x="2306.5" y="-247.0939" font-family="Courier,monospace" font-size="14.00" fill="#de958e">dash.dependencies</text>
</g>
<!-- dash.dependencies&#45;&gt;hidebound.server.app -->
<g id="edge56" class="edge">
<title>dash.dependencies&#45;&gt;hidebound.server.app</title>
<path fill="none" stroke="#de958e" d="M2372.6188,-268.8137C2402.4735,-276.9502 2437.9128,-286.6087 2468.8713,-295.046"/>
<polygon fill="#de958e" stroke="#de958e" points="2468.1841,-298.4863 2478.7526,-297.739 2470.0248,-291.7326 2468.1841,-298.4863"/>
</g>
<!-- dash.exceptions -->
<g id="node26" class="node">
<title>dash.exceptions</title>
<polygon fill="#343434" stroke="#343434" points="2376.5,-214.7939 2236.5,-214.7939 2236.5,-178.7939 2376.5,-178.7939 2376.5,-214.7939"/>
<text text-anchor="middle" x="2306.5" y="-193.0939" font-family="Courier,monospace" font-size="14.00" fill="#de958e">dash.exceptions</text>
</g>
<!-- dash.exceptions&#45;&gt;hidebound.server.app -->
<g id="edge57" class="edge">
<title>dash.exceptions&#45;&gt;hidebound.server.app</title>
<path fill="none" stroke="#de958e" d="M2376.6158,-209.3559C2390.6635,-213.0888 2405.0691,-217.8282 2418,-223.7939 2455.3146,-241.0088 2492.7765,-269.9057 2517.2405,-290.7247"/>
<polygon fill="#de958e" stroke="#de958e" points="2515.1649,-293.5568 2525.0197,-297.4469 2519.7417,-288.2603 2515.1649,-293.5568"/>
</g>
<!-- rolling_pin.blob_etl -->
<g id="node27" class="node">
<title>rolling_pin.blob_etl</title>
<polygon fill="#343434" stroke="#343434" points="1863,-271.7939 1681,-271.7939 1681,-235.7939 1863,-235.7939 1863,-271.7939"/>
<text text-anchor="middle" x="1772" y="-250.0939" font-family="Courier,monospace" font-size="14.00" fill="#de958e">rolling_pin.blob_etl</text>
</g>
<!-- rolling_pin.blob_etl&#45;&gt;hidebound.server.components -->
<g id="edge58" class="edge">
<title>rolling_pin.blob_etl&#45;&gt;hidebound.server.components</title>
<path fill="none" stroke="#de958e" d="M1863.3137,-253.7939C1875.61,-253.7939 1888.4108,-253.7939 1901.2153,-253.7939"/>
<polygon fill="#de958e" stroke="#de958e" points="1901.4755,-257.294 1911.4755,-253.7939 1901.4755,-250.294 1901.4755,-257.294"/>
</g>
<!-- flask_healthz -->
<g id="node28" class="node">
<title>flask_healthz</title>
<polygon fill="#343434" stroke="#343434" points="2368.5,-160.7939 2244.5,-160.7939 2244.5,-124.7939 2368.5,-124.7939 2368.5,-160.7939"/>
<text text-anchor="middle" x="2306.5" y="-139.0939" font-family="Courier,monospace" font-size="14.00" fill="#de958e">flask_healthz</text>
</g>
<!-- flask_healthz&#45;&gt;hidebound.server.app -->
<g id="edge59" class="edge">
<title>flask_healthz&#45;&gt;hidebound.server.app</title>
<path fill="none" stroke="#de958e" d="M2368.7618,-150.7899C2385.5733,-154.791 2403.1935,-160.7926 2418,-169.7939 2467.3304,-199.7834 2507.659,-255.2981 2528.8429,-288.5566"/>
<polygon fill="#de958e" stroke="#de958e" points="2526.0393,-290.6753 2534.3017,-297.3073 2531.9785,-286.9703 2526.0393,-290.6753"/>
</g>
<!-- flask_monitoringdashboard -->
<g id="node29" class="node">
<title>flask_monitoringdashboard</title>
<polygon fill="#343434" stroke="#343434" points="2418,-106.7939 2195,-106.7939 2195,-70.7939 2418,-70.7939 2418,-106.7939"/>
<text text-anchor="middle" x="2306.5" y="-85.0939" font-family="Courier,monospace" font-size="14.00" fill="#de958e">flask_monitoringdashboard</text>
</g>
<!-- flask_monitoringdashboard&#45;&gt;hidebound.server.app -->
<g id="edge60" class="edge">
<title>flask_monitoringdashboard&#45;&gt;hidebound.server.app</title>
<path fill="none" stroke="#de958e" d="M2402.9534,-106.9022C2408.2402,-109.4848 2413.3035,-112.4317 2418,-115.7939 2479.7449,-159.9962 2518.4835,-244.4607 2535.2861,-288.1268"/>
<polygon fill="#de958e" stroke="#de958e" points="2532.0299,-289.4118 2538.8138,-297.5499 2538.5856,-286.9575 2532.0299,-289.4118"/>
</g>
<!-- jinja2 -->
<g id="node30" class="node">
<title>jinja2</title>
<polygon fill="#343434" stroke="#343434" points="1805,-417.7939 1739,-417.7939 1739,-381.7939 1805,-381.7939 1805,-417.7939"/>
<text text-anchor="middle" x="1772" y="-396.0939" font-family="Courier,monospace" font-size="14.00" fill="#de958e">jinja2</text>
</g>
<!-- jinja2&#45;&gt;hidebound.server.server_tools -->
<g id="edge61" class="edge">
<title>jinja2&#45;&gt;hidebound.server.server_tools</title>
<path fill="none" stroke="#de958e" d="M1805.107,-408.1513C1831.5896,-414.8322 1869.6739,-424.4306 1903,-432.7939 1917.8534,-436.5214 1933.6786,-440.4845 1948.9549,-444.3058"/>
<polygon fill="#de958e" stroke="#de958e" points="1948.3482,-447.7618 1958.8986,-446.7926 1950.0466,-440.9709 1948.3482,-447.7618"/>
</g>
<!-- flasgger -->
<g id="node31" class="node">
<title>flasgger</title>
<polygon fill="#343434" stroke="#343434" points="2072.5,-390.7939 1989.5,-390.7939 1989.5,-354.7939 2072.5,-354.7939 2072.5,-390.7939"/>
<text text-anchor="middle" x="2031" y="-369.0939" font-family="Courier,monospace" font-size="14.00" fill="#de958e">flasgger</text>
</g>
<!-- flasgger&#45;&gt;hidebound.server.api -->
<g id="edge62" class="edge">
<title>flasgger&#45;&gt;hidebound.server.api</title>
<path fill="none" stroke="#de958e" d="M2072.6571,-375.7701C2099.2879,-379.3747 2133.4884,-387.3179 2159,-404.7939 2227.4391,-451.6762 2274.5335,-541.4154 2294.9945,-586.5087"/>
<polygon fill="#de958e" stroke="#de958e" points="2291.8093,-587.9599 2299.0662,-595.6792 2298.207,-585.1192 2291.8093,-587.9599"/>
</g>
<!-- flasgger&#45;&gt;hidebound.server.app -->
<g id="edge63" class="edge">
<title>flasgger&#45;&gt;hidebound.server.app</title>
<path fill="none" stroke="#de958e" d="M2072.524,-372.8262C2143.6926,-372.3017 2293.3552,-368.6633 2418,-348.7939 2436.8788,-345.7844 2457.0274,-341.202 2475.5846,-336.4011"/>
<polygon fill="#de958e" stroke="#de958e" points="2476.6471,-339.7406 2485.4193,-333.7994 2474.8568,-332.9734 2476.6471,-339.7406"/>
</g>
<!-- werkzeug.exceptions -->
<g id="node32" class="node">
<title>werkzeug.exceptions</title>
<polygon fill="#343434" stroke="#343434" points="2117.5,-931.7939 1944.5,-931.7939 1944.5,-895.7939 2117.5,-895.7939 2117.5,-931.7939"/>
<text text-anchor="middle" x="2031" y="-910.0939" font-family="Courier,monospace" font-size="14.00" fill="#de958e">werkzeug.exceptions</text>
</g>
<!-- werkzeug.exceptions&#45;&gt;hidebound.server.api -->
<g id="edge64" class="edge">
<title>werkzeug.exceptions&#45;&gt;hidebound.server.api</title>
<path fill="none" stroke="#de958e" d="M2117.6868,-906.1727C2132.4506,-901.9986 2146.901,-895.8334 2159,-886.7939 2243.3302,-823.788 2284.8597,-697.9081 2299.7948,-641.8479"/>
<polygon fill="#de958e" stroke="#de958e" points="2303.2484,-642.4714 2302.3554,-631.9143 2296.47,-640.7241 2303.2484,-642.4714"/>
</g>
<!-- requests -->
<g id="node33" class="node">
<title>requests</title>
<polygon fill="#343434" stroke="#343434" points="1813.5,-1091.7939 1730.5,-1091.7939 1730.5,-1055.7939 1813.5,-1055.7939 1813.5,-1091.7939"/>
<text text-anchor="middle" x="1772" y="-1070.0939" font-family="Courier,monospace" font-size="14.00" fill="#de958e">requests</text>
</g>
<!-- requests&#45;&gt;hidebound.core.database -->
<g id="edge65" class="edge">
<title>requests&#45;&gt;hidebound.core.database</title>
<path fill="none" stroke="#de958e" d="M1813.8972,-1071.3654C1832.5453,-1068.1418 1853.3322,-1061.2434 1867,-1046.7939 1917.0878,-993.8411 1851.115,-937.987 1903,-886.7939 1907.7212,-882.1357 1913.0309,-878.1888 1918.7334,-874.8518"/>
<polygon fill="#de958e" stroke="#de958e" points="1920.6952,-877.7788 1927.9898,-870.0951 1917.4957,-871.5528 1920.6952,-877.7788"/>
</g>
<!-- botocore.exceptions -->
<g id="node34" class="node">
<title>botocore.exceptions</title>
<polygon fill="#343434" stroke="#343434" points="1209,-1167.7939 1036,-1167.7939 1036,-1131.7939 1209,-1131.7939 1209,-1167.7939"/>
<text text-anchor="middle" x="1122.5" y="-1146.0939" font-family="Courier,monospace" font-size="14.00" fill="#de958e">botocore.exceptions</text>
</g>
<!-- botocore.exceptions&#45;&gt;hidebound.exporters.s3_exporter -->
<g id="edge66" class="edge">
<title>botocore.exceptions&#45;&gt;hidebound.exporters.s3_exporter</title>
<path fill="none" stroke="#de958e" d="M1209.3423,-1149.7939C1244.5665,-1149.7939 1286.2342,-1149.7939 1325.8806,-1149.7939"/>
<polygon fill="#de958e" stroke="#de958e" points="1325.9116,-1153.294 1335.9115,-1149.7939 1325.9115,-1146.294 1325.9116,-1153.294"/>
</g>
<!-- json_logging -->
<g id="node35" class="node">
<title>json_logging</title>
<polygon fill="#343434" stroke="#343434" points="646,-869.7939 530,-869.7939 530,-833.7939 646,-833.7939 646,-869.7939"/>
<text text-anchor="middle" x="588" y="-848.0939" font-family="Courier,monospace" font-size="14.00" fill="#de958e">json_logging</text>
</g>
<!-- json_logging&#45;&gt;hidebound.core.logging -->
<g id="edge67" class="edge">
<title>json_logging&#45;&gt;hidebound.core.logging</title>
<path fill="none" stroke="#de958e" d="M646.0848,-851.7939C668.5981,-851.7939 695.1424,-851.7939 720.9707,-851.7939"/>
<polygon fill="#de958e" stroke="#de958e" points="721.2073,-855.294 731.2073,-851.7939 721.2073,-848.294 721.2073,-855.294"/>
</g>
<!-- pandasql -->
<g id="node36" class="node">
<title>pandasql</title>
<polygon fill="#343434" stroke="#343434" points="1813.5,-1037.7939 1730.5,-1037.7939 1730.5,-1001.7939 1813.5,-1001.7939 1813.5,-1037.7939"/>
<text text-anchor="middle" x="1772" y="-1016.0939" font-family="Courier,monospace" font-size="14.00" fill="#de958e">pandasql</text>
</g>
<!-- pandasql&#45;&gt;hidebound.core.database -->
<g id="edge68" class="edge">
<title>pandasql&#45;&gt;hidebound.core.database</title>
<path fill="none" stroke="#de958e" d="M1813.7197,-1014.1312C1832.104,-1009.7039 1852.7246,-1001.8217 1867,-987.7939 1900.9907,-954.3926 1867.1144,-918.1504 1903,-886.7939 1907.826,-882.5769 1913.1434,-878.9616 1918.7851,-875.8665"/>
<polygon fill="#de958e" stroke="#de958e" points="1920.4432,-878.9519 1927.8937,-871.4192 1917.3719,-872.6616 1920.4432,-878.9519"/>
</g>
<!-- lunchbox.tools -->
<g id="node37" class="node">
<title>lunchbox.tools</title>
<polygon fill="#343434" stroke="#343434" points="1188.5,-473.7939 1056.5,-473.7939 1056.5,-437.7939 1188.5,-437.7939 1188.5,-473.7939"/>
<text text-anchor="middle" x="1122.5" y="-452.0939" font-family="Courier,monospace" font-size="14.00" fill="#de958e">lunchbox.tools</text>
</g>
<!-- lunchbox.tools&#45;&gt;hidebound.core.database_tools -->
<g id="edge69" class="edge">
<title>lunchbox.tools&#45;&gt;hidebound.core.database_tools</title>
<path fill="none" stroke="#de958e" d="M1185.3816,-473.8694C1212.8958,-484.1848 1244.0597,-499.413 1267,-520.7939 1291.7288,-543.8417 1282.2951,-561.0726 1303,-587.7939 1343.7546,-640.3909 1403.0608,-690.6137 1439.4979,-719.2666"/>
<polygon fill="#de958e" stroke="#de958e" points="1437.759,-722.3486 1447.799,-725.7321 1442.0603,-716.826 1437.759,-722.3486"/>
</g>
<!-- lunchbox.tools&#45;&gt;hidebound.server.server_tools -->
<g id="edge70" class="edge">
<title>lunchbox.tools&#45;&gt;hidebound.server.server_tools</title>
<path fill="none" stroke="#de958e" d="M1188.7677,-438.6009C1348.8242,-398.6116 1751.7756,-307.5549 1867,-372.7939 1894.0618,-388.116 1878.013,-414.28 1903,-432.7939 1907.7751,-436.332 1912.8971,-439.4816 1918.2466,-442.2851"/>
<polygon fill="#de958e" stroke="#de958e" points="1916.9117,-445.5264 1927.4431,-446.6841 1919.9323,-439.2116 1916.9117,-445.5264"/>
</g>
<!-- boto3 -->
<g id="node38" class="node">
<title>boto3</title>
<polygon fill="#343434" stroke="#343434" points="1151.5,-1113.7939 1093.5,-1113.7939 1093.5,-1077.7939 1151.5,-1077.7939 1151.5,-1113.7939"/>
<text text-anchor="middle" x="1122.5" y="-1092.0939" font-family="Courier,monospace" font-size="14.00" fill="#de958e">boto3</text>
</g>
<!-- boto3&#45;&gt;hidebound.exporters.s3_exporter -->
<g id="edge71" class="edge">
<title>boto3&#45;&gt;hidebound.exporters.s3_exporter</title>
<path fill="none" stroke="#de958e" d="M1151.697,-1100.305C1194.0732,-1106.8524 1275.2121,-1119.3889 1345.2182,-1130.2053"/>
<polygon fill="#de958e" stroke="#de958e" points="1345.0431,-1133.7197 1355.4603,-1131.7877 1346.112,-1126.8018 1345.0431,-1133.7197"/>
</g>
<!-- girder_client -->
<g id="node39" class="node">
<title>girder_client</title>
<polygon fill="#343434" stroke="#343434" points="1184.5,-1541.7939 1060.5,-1541.7939 1060.5,-1505.7939 1184.5,-1505.7939 1184.5,-1541.7939"/>
<text text-anchor="middle" x="1122.5" y="-1520.0939" font-family="Courier,monospace" font-size="14.00" fill="#de958e">girder_client</text>
</g>
<!-- girder_client&#45;&gt;hidebound.exporters.girder_exporter -->
<g id="edge72" class="edge">
<title>girder_client&#45;&gt;hidebound.exporters.girder_exporter</title>
<path fill="none" stroke="#de958e" d="M1184.5809,-1527.8793C1219.5037,-1530.1775 1264.8921,-1533.1645 1309.2451,-1536.0832"/>
<polygon fill="#de958e" stroke="#de958e" points="1309.0773,-1539.5797 1319.2856,-1536.744 1309.5371,-1532.5948 1309.0773,-1539.5797"/>
</g>
<!-- hidebound.exporters -->
<g id="node40" class="node">
<title>hidebound.exporters</title>
<polygon fill="#343434" stroke="#343434" points="917,-1293.7939 744,-1293.7939 744,-1257.7939 917,-1257.7939 917,-1293.7939"/>
<text text-anchor="middle" x="830.5" y="-1272.0939" font-family="Courier,monospace" font-size="14.00" fill="#a0d17b">hidebound.exporters</text>
</g>
<!-- hidebound.exporters&#45;&gt;hidebound.exporters.exporter_base -->
<g id="edge73" class="edge">
<title>hidebound.exporters&#45;&gt;hidebound.exporters.exporter_base</title>
<path fill="none" stroke="#a0d17b" d="M917.319,-1288.2815C939.2367,-1291.4341 963.2963,-1294.8947 986.9859,-1298.3021"/>
<polygon fill="#a0d17b" stroke="#a0d17b" points="986.7121,-1301.7987 997.1086,-1299.7581 987.7087,-1294.87 986.7121,-1301.7987"/>
</g>
<!-- hidebound.exporters&#45;&gt;hidebound.exporters.girder_exporter -->
<g id="edge74" class="edge">
<title>hidebound.exporters&#45;&gt;hidebound.exporters.girder_exporter</title>
<path fill="none" stroke="#a0d17b" d="M867.8545,-1293.8915C897.5337,-1308.1191 940.1924,-1328.2329 978,-1344.7939 1135.5889,-1413.823 1324.4564,-1488.9839 1416.3261,-1525.0674"/>
<polygon fill="#a0d17b" stroke="#a0d17b" points="1415.1221,-1528.3548 1425.7096,-1528.7495 1417.6791,-1521.8385 1415.1221,-1528.3548"/>
</g>
<!-- hidebound.exporters&#45;&gt;hidebound.exporters.local_disk_exporter -->
<g id="edge75" class="edge">
<title>hidebound.exporters&#45;&gt;hidebound.exporters.local_disk_exporter</title>
<path fill="none" stroke="#a0d17b" d="M917.1904,-1276.3093C1005.3732,-1277.412 1145.9037,-1280.7621 1267,-1290.7939 1290.7394,-1292.7605 1315.9457,-1295.5217 1340.2633,-1298.5334"/>
<polygon fill="#a0d17b" stroke="#a0d17b" points="1339.8991,-1302.0151 1350.2579,-1299.7911 1340.7731,-1295.0698 1339.8991,-1302.0151"/>
</g>
<!-- hidebound.exporters&#45;&gt;hidebound.exporters.s3_exporter -->
<g id="edge76" class="edge">
<title>hidebound.exporters&#45;&gt;hidebound.exporters.s3_exporter</title>
<path fill="none" stroke="#a0d17b" d="M855.4517,-1257.493C880.4438,-1238.0048 918.4811,-1205.0245 942,-1168.7939 967.7196,-1129.173 939.3535,-1095.9556 978,-1068.7939 1030.543,-1031.8652 1203.9111,-1056.7818 1267,-1068.7939 1325.417,-1079.9164 1388.4496,-1107.3816 1428.9697,-1127.2507"/>
<polygon fill="#a0d17b" stroke="#a0d17b" points="1427.5029,-1130.4301 1438.016,-1131.7443 1430.617,-1124.161 1427.5029,-1130.4301"/>
</g>
<!-- schematics -->
<g id="node41" class="node">
<title>schematics</title>
<polygon fill="#343434" stroke="#343434" points="880,-1701.7939 781,-1701.7939 781,-1665.7939 880,-1665.7939 880,-1701.7939"/>
<text text-anchor="middle" x="830.5" y="-1680.0939" font-family="Courier,monospace" font-size="14.00" fill="#de958e">schematics</text>
</g>
<!-- schematics&#45;&gt;hidebound.core.config -->
<g id="edge77" class="edge">
<title>schematics&#45;&gt;hidebound.core.config</title>
<path fill="none" stroke="#de958e" d="M835.3166,-1702.1025C848.6911,-1748.7297 891.1566,-1871.6611 978,-1919.7939 1106.864,-1991.2164 1498.8366,-1958.4807 1641,-1919.7939 1678.5066,-1909.5872 1716.235,-1885.6218 1741.505,-1867.1168"/>
<polygon fill="#de958e" stroke="#de958e" points="1743.6671,-1869.8704 1749.5789,-1861.0783 1739.4746,-1864.2648 1743.6671,-1869.8704"/>
</g>
<!-- schematics&#45;&gt;hidebound.core.specification_base -->
<g id="edge78" class="edge">
<title>schematics&#45;&gt;hidebound.core.specification_base</title>
<path fill="none" stroke="#de958e" d="M880.1296,-1689.9868C900.8382,-1694.505 924.1688,-1702.3117 942,-1715.7939 966.2007,-1734.092 953.2478,-1756.2491 978,-1773.7939 982.9688,-1777.3158 988.2563,-1780.4599 993.7608,-1783.266"/>
<polygon fill="#de958e" stroke="#de958e" points="992.6695,-1786.619 1003.2115,-1787.6761 995.6297,-1780.2757 992.6695,-1786.619"/>
</g>
<!-- schematics&#45;&gt;hidebound.exporters.exporter_base -->
<g id="edge79" class="edge">
<title>schematics&#45;&gt;hidebound.exporters.exporter_base</title>
<path fill="none" stroke="#de958e" d="M880.0946,-1683.1034C901.8043,-1680.2279 925.9362,-1673.1211 942,-1656.7939 993.1194,-1604.8362 946.2805,-1562.419 978,-1496.7939 1007.8476,-1435.0415 1062.6767,-1375.5875 1095.5389,-1343.1376"/>
<polygon fill="#de958e" stroke="#de958e" points="1098.279,-1345.3542 1102.9947,-1335.8666 1093.3918,-1340.3427 1098.279,-1345.3542"/>
</g>
<!-- schematics&#45;&gt;hidebound.exporters.girder_exporter -->
<g id="edge80" class="edge">
<title>schematics&#45;&gt;hidebound.exporters.girder_exporter</title>
<path fill="none" stroke="#de958e" d="M880.2419,-1676.3965C961.6029,-1663.9383 1128.0068,-1636.9549 1267,-1604.7939 1313.2736,-1594.0868 1364.7052,-1579.5278 1404.4771,-1567.6752"/>
<polygon fill="#de958e" stroke="#de958e" points="1405.4927,-1571.0247 1414.0678,-1564.8022 1403.4839,-1564.3191 1405.4927,-1571.0247"/>
</g>
<!-- schematics.types -->
<g id="node42" class="node">
<title>schematics.types</title>
<polygon fill="#343434" stroke="#343434" points="905,-1587.7939 756,-1587.7939 756,-1551.7939 905,-1551.7939 905,-1587.7939"/>
<text text-anchor="middle" x="830.5" y="-1566.0939" font-family="Courier,monospace" font-size="14.00" fill="#de958e">schematics.types</text>
</g>
<!-- schematics.types&#45;&gt;hidebound.core.config -->
<g id="edge81" class="edge">
<title>schematics.types&#45;&gt;hidebound.core.config</title>
<path fill="none" stroke="#de958e" d="M905.1805,-1581.3608C1050.5307,-1605.3529 1380.0608,-1667.0328 1641,-1769.7939 1674.6969,-1783.0642 1710.451,-1803.4658 1736.0781,-1819.3311"/>
<polygon fill="#de958e" stroke="#de958e" points="1734.3682,-1822.39 1744.7004,-1824.7345 1738.0854,-1816.4585 1734.3682,-1822.39"/>
</g>
<!-- schematics.types&#45;&gt;hidebound.core.specification_base -->
<g id="edge82" class="edge">
<title>schematics.types&#45;&gt;hidebound.core.specification_base</title>
<path fill="none" stroke="#de958e" d="M905.1463,-1581.5166C918.6127,-1586.357 931.6425,-1593.1804 942,-1602.7939 975.0939,-1633.5105 950.8332,-1661.7289 978,-1697.7939 1005.1288,-1733.8085 1047.4435,-1763.4717 1079.2847,-1782.5375"/>
<polygon fill="#de958e" stroke="#de958e" points="1077.5701,-1785.5894 1087.9664,-1787.6304 1081.112,-1779.5516 1077.5701,-1785.5894"/>
</g>
<!-- schematics.types&#45;&gt;hidebound.core.specifications -->
<g id="edge83" class="edge">
<title>schematics.types&#45;&gt;hidebound.core.specifications</title>
<path fill="none" stroke="#de958e" d="M905.2682,-1586.4748C993.3316,-1607.1584 1143.2966,-1645.6442 1267,-1693.7939 1326.1806,-1716.829 1391.1637,-1751.1247 1431.7652,-1773.719"/>
<polygon fill="#de958e" stroke="#de958e" points="1430.1104,-1776.8037 1440.5458,-1778.6347 1433.5299,-1770.6957 1430.1104,-1776.8037"/>
</g>
<!-- schematics.types&#45;&gt;hidebound.exporters.exporter_base -->
<g id="edge84" class="edge">
<title>schematics.types&#45;&gt;hidebound.exporters.exporter_base</title>
<path fill="none" stroke="#de958e" d="M837.1801,-1551.5485C853.8,-1508.8665 901.2863,-1402.1703 978,-1349.7939 983.2918,-1346.1809 988.9239,-1342.9681 994.7796,-1340.1119"/>
<polygon fill="#de958e" stroke="#de958e" points="996.4562,-1343.196 1004.1489,-1335.9108 993.5921,-1336.8087 996.4562,-1343.196"/>
</g>
<!-- schematics.types&#45;&gt;hidebound.exporters.girder_exporter -->
<g id="edge85" class="edge">
<title>schematics.types&#45;&gt;hidebound.exporters.girder_exporter</title>
<path fill="none" stroke="#de958e" d="M905.029,-1567.1217C1003.4124,-1563.5944 1179.3268,-1557.2872 1309.1997,-1552.6308"/>
<polygon fill="#de958e" stroke="#de958e" points="1309.3861,-1556.1265 1319.2542,-1552.2703 1309.1352,-1549.131 1309.3861,-1556.1265"/>
</g>
<!-- schematics.types&#45;&gt;hidebound.exporters.local_disk_exporter -->
<g id="edge86" class="edge">
<title>schematics.types&#45;&gt;hidebound.exporters.local_disk_exporter</title>
<path fill="none" stroke="#de958e" d="M851.0368,-1551.56C878.2878,-1528.2186 928.7186,-1487.9193 978,-1463.7939 1105.4841,-1401.3848 1264.7743,-1360.2417 1367.4307,-1337.9841"/>
<polygon fill="#de958e" stroke="#de958e" points="1368.4519,-1341.3447 1377.4943,-1335.8234 1366.9823,-1334.5007 1368.4519,-1341.3447"/>
</g>
<!-- schematics.types&#45;&gt;hidebound.exporters.s3_exporter -->
<g id="edge87" class="edge">
<title>schematics.types&#45;&gt;hidebound.exporters.s3_exporter</title>
<path fill="none" stroke="#de958e" d="M834.7755,-1551.6158C847.4302,-1501.8913 889.4752,-1362.5641 978,-1290.7939 1037.528,-1242.5324 1239.7377,-1195.5284 1366.2481,-1169.8407"/>
<polygon fill="#de958e" stroke="#de958e" points="1367.2453,-1173.2101 1376.3554,-1167.8011 1365.8606,-1166.3484 1367.2453,-1173.2101"/>
</g>
<!-- numpy -->
<g id="node43" class="node">
<title>numpy</title>
<polygon fill="#343434" stroke="#343434" points="1151.5,-565.7939 1093.5,-565.7939 1093.5,-529.7939 1151.5,-529.7939 1151.5,-565.7939"/>
<text text-anchor="middle" x="1122.5" y="-544.0939" font-family="Courier,monospace" font-size="14.00" fill="#de958e">numpy</text>
</g>
<!-- numpy&#45;&gt;hidebound.core.database -->
<g id="edge88" class="edge">
<title>numpy&#45;&gt;hidebound.core.database</title>
<path fill="none" stroke="#de958e" d="M1151.5062,-559.6547C1180.84,-571.786 1227.3805,-591.4083 1267,-609.7939 1283.2265,-617.3238 1285.7801,-622.9488 1303,-627.7939 1545.1695,-695.9321 1642.0096,-563.2406 1867,-675.7939 1937.4466,-711.0354 1991.3778,-790.7311 2016.1209,-832.7297"/>
<polygon fill="#de958e" stroke="#de958e" points="2013.1974,-834.6662 2021.2285,-841.5764 2019.2596,-831.1661 2013.1974,-834.6662"/>
</g>
<!-- numpy&#45;&gt;hidebound.core.database_tools -->
<g id="edge89" class="edge">
<title>numpy&#45;&gt;hidebound.core.database_tools</title>
<path fill="none" stroke="#de958e" d="M1151.6743,-546.7399C1183.537,-547.1393 1234.3701,-552.5244 1267,-579.7939 1298.7946,-606.3653 1274.232,-635.9721 1303,-665.7939 1328.0083,-691.7182 1363.2796,-709.8547 1395.135,-722.0703"/>
<polygon fill="#de958e" stroke="#de958e" points="1394.303,-725.494 1404.8963,-725.6734 1396.727,-718.9271 1394.303,-725.494"/>
</g>
<!-- numpy&#45;&gt;hidebound.server.api -->
<g id="edge90" class="edge">
<title>numpy&#45;&gt;hidebound.server.api</title>
<path fill="none" stroke="#de958e" d="M1151.7676,-549.4253C1297.7944,-557.5654 1950.6235,-593.9562 2204.779,-608.1236"/>
<polygon fill="#de958e" stroke="#de958e" points="2204.9363,-611.6377 2215.1156,-608.6998 2205.326,-604.6486 2204.9363,-611.6377"/>
</g>
<!-- hidebound -->
<g id="node44" class="node">
<title>hidebound</title>
<polygon fill="#343434" stroke="#343434" points="190,-1293.7939 99,-1293.7939 99,-1257.7939 190,-1257.7939 190,-1293.7939"/>
<text text-anchor="middle" x="144.5" y="-1272.0939" font-family="Courier,monospace" font-size="14.00" fill="#a0d17b">hidebound</text>
</g>
<!-- hidebound&#45;&gt;hidebound.server -->
<g id="edge91" class="edge">
<title>hidebound&#45;&gt;hidebound.server</title>
<path fill="none" stroke="#a0d17b" d="M190.2555,-1278.9032C221.7081,-1278.5206 262.4335,-1272.6854 289,-1248.7939 619.0711,-951.9575 144.087,-295.7939 588,-295.7939 588,-295.7939 588,-295.7939 830.5,-295.7939 1169.9751,-295.7939 1564.1237,-419.4373 1711.9445,-470.3165"/>
<polygon fill="#a0d17b" stroke="#a0d17b" points="1711.1454,-473.7435 1721.7402,-473.706 1713.4345,-467.1283 1711.1454,-473.7435"/>
</g>
<!-- hidebound&#45;&gt;hidebound.exporters -->
<g id="edge92" class="edge">
<title>hidebound&#45;&gt;hidebound.exporters</title>
<path fill="none" stroke="#a0d17b" d="M190.0416,-1275.7939C300.3243,-1275.7939 583.6659,-1275.7939 733.7973,-1275.7939"/>
<polygon fill="#a0d17b" stroke="#a0d17b" points="733.9313,-1279.294 743.9313,-1275.7939 733.9313,-1272.294 733.9313,-1279.294"/>
</g>
<!-- hidebound.core -->
<g id="node52" class="node">
<title>hidebound.core</title>
<polygon fill="#343434" stroke="#343434" points="457,-1620.7939 325,-1620.7939 325,-1584.7939 457,-1584.7939 457,-1620.7939"/>
<text text-anchor="middle" x="391" y="-1599.0939" font-family="Courier,monospace" font-size="14.00" fill="#a0d17b">hidebound.core</text>
</g>
<!-- hidebound&#45;&gt;hidebound.core -->
<g id="edge93" class="edge">
<title>hidebound&#45;&gt;hidebound.core</title>
<path fill="none" stroke="#a0d17b" d="M190.3214,-1272.9964C221.6012,-1273.5596 262.0914,-1279.4826 289,-1302.7939 331.3288,-1339.4639 370.8478,-1507.574 385.2507,-1574.8483"/>
<polygon fill="#a0d17b" stroke="#a0d17b" points="381.8501,-1575.6846 387.3432,-1584.7441 388.6986,-1574.2363 381.8501,-1575.6846"/>
</g>
<!-- wrapt -->
<g id="node45" class="node">
<title>wrapt</title>
<polygon fill="#343434" stroke="#343434" points="617,-1574.7939 559,-1574.7939 559,-1538.7939 617,-1538.7939 617,-1574.7939"/>
<text text-anchor="middle" x="588" y="-1553.0939" font-family="Courier,monospace" font-size="14.00" fill="#de958e">wrapt</text>
</g>
<!-- wrapt&#45;&gt;hidebound.core.validators -->
<g id="edge94" class="edge">
<title>wrapt&#45;&gt;hidebound.core.validators</title>
<path fill="none" stroke="#de958e" d="M617.1151,-1565.7624C643.6477,-1573.9168 683.93,-1586.2502 719,-1596.7939 732.0678,-1600.7227 746.0081,-1604.8774 759.4492,-1608.8648"/>
<polygon fill="#de958e" stroke="#de958e" points="758.5462,-1612.2476 769.1286,-1611.7331 760.5351,-1605.5361 758.5462,-1612.2476"/>
</g>
<!-- pyparsing -->
<g id="node46" class="node">
<title>pyparsing</title>
<polygon fill="#343434" stroke="#343434" points="436.5,-1712.7939 345.5,-1712.7939 345.5,-1676.7939 436.5,-1676.7939 436.5,-1712.7939"/>
<text text-anchor="middle" x="391" y="-1691.0939" font-family="Courier,monospace" font-size="14.00" fill="#de958e">pyparsing</text>
</g>
<!-- pyparsing&#45;&gt;hidebound.core.parser -->
<g id="edge95" class="edge">
<title>pyparsing&#45;&gt;hidebound.core.parser</title>
<path fill="none" stroke="#de958e" d="M436.6909,-1684.1249C455.8002,-1679.6629 478.6743,-1674.3217 500.7804,-1669.1599"/>
<polygon fill="#de958e" stroke="#de958e" points="501.587,-1672.5658 510.5292,-1666.8835 499.9952,-1665.7491 501.587,-1672.5658"/>
</g>
<!-- pyparsing&#45;&gt;hidebound.core.specification_base -->
<g id="edge96" class="edge">
<title>pyparsing&#45;&gt;hidebound.core.specification_base</title>
<path fill="none" stroke="#de958e" d="M399.3833,-1713.1778C413.7666,-1742.1894 446.1885,-1797.5733 493,-1819.7939 573.809,-1858.1523 808.5649,-1841.7453 967.4107,-1824.9177"/>
<polygon fill="#de958e" stroke="#de958e" points="968.1909,-1828.3542 977.7614,-1823.8093 967.4455,-1821.394 968.1909,-1828.3542"/>
</g>
<!-- pyparsing&#45;&gt;hidebound.core.validators -->
<g id="edge97" class="edge">
<title>pyparsing&#45;&gt;hidebound.core.validators</title>
<path fill="none" stroke="#de958e" d="M436.508,-1697.6313C494.8062,-1699.9624 598.4226,-1699.6846 683,-1675.7939 700.4104,-1670.8759 702.0783,-1663.1942 719,-1656.7939 724.5494,-1654.6949 730.3171,-1652.7188 736.1771,-1650.8655"/>
<polygon fill="#de958e" stroke="#de958e" points="737.546,-1654.1081 746.104,-1647.8622 735.5189,-1647.408 737.546,-1654.1081"/>
</g>
<!-- jsoncomment -->
<g id="node47" class="node">
<title>jsoncomment</title>
<polygon fill="#343434" stroke="#343434" points="641.5,-961.7939 534.5,-961.7939 534.5,-925.7939 641.5,-925.7939 641.5,-961.7939"/>
<text text-anchor="middle" x="588" y="-940.0939" font-family="Courier,monospace" font-size="14.00" fill="#de958e">jsoncomment</text>
</g>
<!-- jsoncomment&#45;&gt;hidebound.core.database -->
<g id="edge98" class="edge">
<title>jsoncomment&#45;&gt;hidebound.core.database</title>
<path fill="none" stroke="#de958e" d="M641.8618,-942.4549C738.2542,-940.1774 946.6335,-935.7939 1122.5,-935.7939 1122.5,-935.7939 1122.5,-935.7939 1472,-935.7939 1648.6414,-935.7939 1692.3904,-918.5083 1867,-891.7939 1889.3562,-888.3735 1913.306,-884.0685 1935.8052,-879.735"/>
<polygon fill="#de958e" stroke="#de958e" points="1936.5411,-883.1575 1945.6885,-877.812 1935.2041,-876.2864 1936.5411,-883.1575"/>
</g>
<!-- jsoncomment&#45;&gt;hidebound.core.tools -->
<g id="edge99" class="edge">
<title>jsoncomment&#45;&gt;hidebound.core.tools</title>
<path fill="none" stroke="#de958e" d="M610.3792,-962.0663C654.1402,-997.797 751.0673,-1076.9375 800.3964,-1117.2144"/>
<polygon fill="#de958e" stroke="#de958e" points="798.2153,-1119.9521 808.1749,-1123.5656 802.6425,-1114.5299 798.2153,-1119.9521"/>
</g>
<!-- jsoncomment&#45;&gt;hidebound.server.server_tools -->
<g id="edge100" class="edge">
<title>jsoncomment&#45;&gt;hidebound.server.server_tools</title>
<path fill="none" stroke="#de958e" d="M621.169,-925.5374C640.5986,-913.8168 664.8124,-897.3448 683,-878.7939 693.4638,-868.1211 964.8494,-435.8974 978,-428.7939 1056.3562,-386.4684 1624.8725,-429.3725 1892.4489,-452.3273"/>
<polygon fill="#de958e" stroke="#de958e" points="1892.3565,-455.8322 1902.6198,-453.2027 1892.9568,-448.858 1892.3565,-455.8322"/>
</g>
<!-- pandas -->
<g id="node48" class="node">
<title>pandas</title>
<polygon fill="#343434" stroke="#343434" points="621,-611.7939 555,-611.7939 555,-575.7939 621,-575.7939 621,-611.7939"/>
<text text-anchor="middle" x="588" y="-590.0939" font-family="Courier,monospace" font-size="14.00" fill="#de958e">pandas</text>
</g>
<!-- pandas&#45;&gt;hidebound.core.database -->
<g id="edge101" class="edge">
<title>pandas&#45;&gt;hidebound.core.database</title>
<path fill="none" stroke="#de958e" d="M612.2642,-575.7368C704.6494,-509.3546 1040.6123,-289.7559 1267,-428.7939 1297.1483,-447.3097 1275.0277,-478.1304 1303,-499.7939 1505.9158,-656.9441 1653.7295,-481.0119 1867,-623.7939 1946.1272,-676.7686 1998.4233,-781.9232 2019.916,-832.0132"/>
<polygon fill="#de958e" stroke="#de958e" points="2016.8202,-833.681 2023.9182,-841.5467 2023.2745,-830.9714 2016.8202,-833.681"/>
</g>
<!-- pandas&#45;&gt;hidebound.core.database_tools -->
<g id="edge102" class="edge">
<title>pandas&#45;&gt;hidebound.core.database_tools</title>
<path fill="none" stroke="#de958e" d="M621.0693,-593.7351C720.4119,-594.261 1024.3161,-601.0113 1267,-660.7939 1324.2431,-674.8951 1386.5637,-701.9381 1427.2797,-721.3264"/>
<polygon fill="#de958e" stroke="#de958e" points="1425.8597,-724.5272 1436.3885,-725.708 1428.8942,-718.219 1425.8597,-724.5272"/>
</g>
<!-- pandas&#45;&gt;hidebound.core.tools -->
<g id="edge103" class="edge">
<title>pandas&#45;&gt;hidebound.core.tools</title>
<path fill="none" stroke="#de958e" d="M621.2437,-599.6025C642.238,-605.058 668.1195,-615.4183 683,-634.7939 749.7686,-721.7315 689.367,-773.2568 719,-878.7939 744.1477,-968.3566 792.3053,-1067.8703 816.2516,-1114.6676"/>
<polygon fill="#de958e" stroke="#de958e" points="813.1472,-1116.2842 820.8407,-1123.5685 819.369,-1113.0764 813.1472,-1116.2842"/>
</g>
<!-- pandas&#45;&gt;hidebound.core.validators -->
<g id="edge104" class="edge">
<title>pandas&#45;&gt;hidebound.core.validators</title>
<path fill="none" stroke="#de958e" d="M621.0182,-598.859C642.4831,-604.0234 668.9948,-614.3395 683,-634.7939 743.4303,-723.0515 653.3997,-1512.3082 719,-1596.7939 721.5391,-1600.0639 724.3869,-1603.0218 727.4777,-1605.6966"/>
<polygon fill="#de958e" stroke="#de958e" points="725.5166,-1608.6003 735.6235,-1611.7787 729.7046,-1602.9913 725.5166,-1608.6003"/>
</g>
<!-- pandas&#45;&gt;hidebound.server.components -->
<g id="edge105" class="edge">
<title>pandas&#45;&gt;hidebound.server.components</title>
<path fill="none" stroke="#de958e" d="M595.0565,-575.5068C610.8668,-537.171 653.001,-448.4207 719,-405.7939 1082.8539,-170.7915 1245.6997,-266.7419 1677,-226.7939 1761.0845,-219.0058 1782.8364,-219.9121 1867,-226.7939 1886.8053,-228.4133 1907.8228,-231.1153 1927.9671,-234.2002"/>
<polygon fill="#de958e" stroke="#de958e" points="1927.67,-237.6964 1938.0924,-235.7932 1928.7579,-230.7815 1927.67,-237.6964"/>
</g>
<!-- OpenEXR -->
<g id="node49" class="node">
<title>OpenEXR</title>
<polygon fill="#343434" stroke="#343434" points="625,-1159.7939 551,-1159.7939 551,-1123.7939 625,-1123.7939 625,-1159.7939"/>
<text text-anchor="middle" x="588" y="-1138.0939" font-family="Courier,monospace" font-size="14.00" fill="#de958e">OpenEXR</text>
</g>
<!-- OpenEXR&#45;&gt;hidebound.core.tools -->
<g id="edge106" class="edge">
<title>OpenEXR&#45;&gt;hidebound.core.tools</title>
<path fill="none" stroke="#de958e" d="M625.0945,-1141.7939C652.8668,-1141.7939 692.2626,-1141.7939 729.1359,-1141.7939"/>
<polygon fill="#de958e" stroke="#de958e" points="729.4574,-1145.294 739.4574,-1141.7939 729.4574,-1138.294 729.4574,-1145.294"/>
</g>
<!-- dask.dataframe -->
<g id="node50" class="node">
<title>dask.dataframe</title>
<polygon fill="#343434" stroke="#343434" points="654,-679.7939 522,-679.7939 522,-643.7939 654,-643.7939 654,-679.7939"/>
<text text-anchor="middle" x="588" y="-658.0939" font-family="Courier,monospace" font-size="14.00" fill="#de958e">dask.dataframe</text>
</g>
<!-- dask.dataframe&#45;&gt;hidebound.core.database -->
<g id="edge107" class="edge">
<title>dask.dataframe&#45;&gt;hidebound.core.database</title>
<path fill="none" stroke="#de958e" d="M654.2793,-657.5632C674.9963,-656.426 697.9402,-655.3561 719,-654.7939 818.0758,-652.1487 842.8931,-653.8791 942,-654.7939 1253.8731,-657.6725 1336.5236,-649.2129 1641,-716.7939 1743.2764,-739.495 1768.9902,-746.7819 1867,-783.7939 1908.4156,-799.4339 1953.9888,-820.916 1986.5602,-837.0519"/>
<polygon fill="#de958e" stroke="#de958e" points="1985.2981,-840.3335 1995.8092,-841.6633 1988.4215,-834.069 1985.2981,-840.3335"/>
</g>
<!-- dask.dataframe&#45;&gt;hidebound.core.database_tools -->
<g id="edge108" class="edge">
<title>dask.dataframe&#45;&gt;hidebound.core.database_tools</title>
<path fill="none" stroke="#de958e" d="M654.0488,-660.032C776.0117,-657.8556 1044.4395,-658.1009 1267,-693.7939 1283.3963,-696.4234 1286.9173,-699.6585 1303,-703.7939 1328.8931,-710.4518 1357.1246,-717.2964 1382.9681,-723.3997"/>
<polygon fill="#de958e" stroke="#de958e" points="1382.2102,-726.8169 1392.746,-725.7006 1383.8136,-720.003 1382.2102,-726.8169"/>
</g>
<!-- dask.dataframe&#45;&gt;hidebound.core.tools -->
<g id="edge109" class="edge">
<title>dask.dataframe&#45;&gt;hidebound.core.tools</title>
<path fill="none" stroke="#de958e" d="M599.392,-680.0605C617.8193,-709.8818 654.9326,-771.0911 683,-824.7939 737.7906,-929.6273 794.635,-1058.5444 818.6581,-1114.1338"/>
<polygon fill="#de958e" stroke="#de958e" points="815.5819,-1115.8395 822.7539,-1123.6379 822.0104,-1113.0691 815.5819,-1115.8395"/>
</g>
<!-- schematics.exceptions -->
<g id="node51" class="node">
<title>schematics.exceptions</title>
<polygon fill="#343434" stroke="#343434" points="683,-1768.7939 493,-1768.7939 493,-1732.7939 683,-1732.7939 683,-1768.7939"/>
<text text-anchor="middle" x="588" y="-1747.0939" font-family="Courier,monospace" font-size="14.00" fill="#de958e">schematics.exceptions</text>
</g>
<!-- schematics.exceptions&#45;&gt;hidebound.core.config -->
<g id="edge110" class="edge">
<title>schematics.exceptions&#45;&gt;hidebound.core.config</title>
<path fill="none" stroke="#de958e" d="M605.8174,-1768.8679C626.6095,-1790.7536 660.9474,-1829.4661 683,-1867.7939 705.5179,-1906.9303 681.8439,-1937.1396 719,-1962.7939 770.023,-1998.0225 1363.4817,-2057.5902 1641,-1953.7939 1686.7985,-1936.6645 1727.6894,-1895.9145 1751.1589,-1868.8462"/>
<polygon fill="#de958e" stroke="#de958e" points="1754.0753,-1870.8184 1757.8694,-1860.9262 1748.7346,-1866.2932 1754.0753,-1870.8184"/>
</g>
<!-- schematics.exceptions&#45;&gt;hidebound.core.database_tools -->
<g id="edge111" class="edge">
<title>schematics.exceptions&#45;&gt;hidebound.core.database_tools</title>
<path fill="none" stroke="#de958e" d="M623.7238,-1732.6285C644.8783,-1719.8176 670.0127,-1700.5408 683,-1675.7939 741.0517,-1565.1784 661.8472,-1225.8764 719,-1114.7939 777.5284,-1001.0378 871.6461,-1039.6412 942,-932.7939 974.0291,-884.1509 933.8199,-844.7427 978,-806.7939 991.5102,-795.1892 1192.3345,-772.4186 1333.7149,-757.6666"/>
<polygon fill="#de958e" stroke="#de958e" points="1334.2041,-761.1347 1343.7882,-756.6186 1333.4796,-754.1723 1334.2041,-761.1347"/>
</g>
<!-- schematics.exceptions&#45;&gt;hidebound.core.specification_base -->
<g id="edge112" class="edge">
<title>schematics.exceptions&#45;&gt;hidebound.core.specification_base</title>
<path fill="none" stroke="#de958e" d="M683.2498,-1760.5951C762.1606,-1768.715 875.857,-1780.4143 967.8045,-1789.8757"/>
<polygon fill="#de958e" stroke="#de958e" points="967.4604,-1793.3587 977.7661,-1790.9008 968.1769,-1786.3955 967.4604,-1793.3587"/>
</g>
<!-- schematics.exceptions&#45;&gt;hidebound.core.tools -->
<g id="edge113" class="edge">
<title>schematics.exceptions&#45;&gt;hidebound.core.tools</title>
<path fill="none" stroke="#de958e" d="M623.5527,-1732.5376C644.6408,-1719.6914 669.7655,-1700.4095 683,-1675.7939 773.1867,-1508.0501 637.0102,-1420.6929 719,-1248.7939 735.4475,-1214.3102 768.0976,-1185.0819 793.8355,-1165.9323"/>
<polygon fill="#de958e" stroke="#de958e" points="796.2164,-1168.5296 802.2655,-1159.8314 792.1124,-1162.8588 796.2164,-1168.5296"/>
</g>
<!-- schematics.exceptions&#45;&gt;hidebound.core.validators -->
<g id="edge114" class="edge">
<title>schematics.exceptions&#45;&gt;hidebound.core.validators</title>
<path fill="none" stroke="#de958e" d="M642.7212,-1732.682C656.7436,-1726.4707 671.1857,-1718.5597 683,-1708.7939 704.6654,-1690.8849 695.823,-1672.6983 719,-1656.7939 721.1554,-1655.3148 723.3829,-1653.9164 725.6695,-1652.5943"/>
<polygon fill="#de958e" stroke="#de958e" points="727.5007,-1655.5868 734.7538,-1647.8639 724.2677,-1649.3781 727.5007,-1655.5868"/>
</g>
<!-- schematics.exceptions&#45;&gt;hidebound.server.api -->
<g id="edge115" class="edge">
<title>schematics.exceptions&#45;&gt;hidebound.server.api</title>
<path fill="none" stroke="#de958e" d="M599.5675,-1768.854C618.2412,-1798.3597 655.6931,-1859.0112 683,-1912.7939 701.2034,-1948.6467 687.1613,-1971.236 719,-1995.7939 862.667,-2106.607 941.062,-2057.7939 1122.5,-2057.7939 1122.5,-2057.7939 1122.5,-2057.7939 1772,-2057.7939 2085.6732,-2057.7939 2273.4286,-844.2729 2302.5234,-642.1659"/>
<polygon fill="#de958e" stroke="#de958e" points="2306.0189,-642.4458 2303.968,-632.0514 2299.0892,-641.456 2306.0189,-642.4458"/>
</g>
<!-- hidebound.core&#45;&gt;hidebound.core.config -->
<g id="edge116" class="edge">
<title>hidebound.core&#45;&gt;hidebound.core.config</title>
<path fill="none" stroke="#a0d17b" d="M416.3684,-1620.9741C430.6909,-1632.6677 447.5631,-1649.1379 457,-1667.7939 507.4717,-1767.5722 433.9257,-1821.8553 493,-1916.7939 582.7026,-2060.9553 660.7087,-2095.7939 830.5,-2095.7939 830.5,-2095.7939 830.5,-2095.7939 1122.5,-2095.7939 1357.2758,-2095.7939 1437.9519,-2112.6545 1641,-1994.7939 1693.6878,-1964.2109 1735.5213,-1904.4836 1756.7443,-1869.6995"/>
<polygon fill="#a0d17b" stroke="#a0d17b" points="1759.8109,-1871.3907 1761.9332,-1861.0106 1753.801,-1867.8017 1759.8109,-1871.3907"/>
</g>
<!-- hidebound.core&#45;&gt;hidebound.core.database -->
<g id="edge117" class="edge">
<title>hidebound.core&#45;&gt;hidebound.core.database</title>
<path fill="none" stroke="#a0d17b" d="M391.9754,-1584.5745C398.1696,-1472.2424 433.6746,-876.8491 493,-824.7939 599.1791,-731.6268 1580.2209,-816.3489 1917.6399,-848.5723"/>
<polygon fill="#a0d17b" stroke="#a0d17b" points="1917.63,-852.0873 1927.9181,-849.5567 1918.2974,-845.1192 1917.63,-852.0873"/>
</g>
<!-- hidebound.core&#45;&gt;hidebound.core.database_tools -->
<g id="edge118" class="edge">
<title>hidebound.core&#45;&gt;hidebound.core.database_tools</title>
<path fill="none" stroke="#a0d17b" d="M391.9726,-1584.6589C398.2814,-1470.1497 434.9746,-850.292 493,-791.7939 606.9331,-676.9326 1091.7103,-706.2172 1333.5888,-728.8853"/>
<polygon fill="#a0d17b" stroke="#a0d17b" points="1333.5739,-732.3995 1343.8593,-729.8576 1334.2337,-725.4307 1333.5739,-732.3995"/>
</g>
<!-- hidebound.core&#45;&gt;hidebound.core.logging -->
<g id="edge119" class="edge">
<title>hidebound.core&#45;&gt;hidebound.core.logging</title>
<path fill="none" stroke="#a0d17b" d="M392.4604,-1584.5499C400.9368,-1480.6801 445.0995,-966.7825 493,-916.7939 495.0549,-914.6494 625.2045,-890.0109 723.2556,-871.6995"/>
<polygon fill="#a0d17b" stroke="#a0d17b" points="724.0497,-875.1118 733.2378,-869.8364 722.7654,-868.2306 724.0497,-875.1118"/>
</g>
<!-- hidebound.core&#45;&gt;hidebound.core.parser -->
<g id="edge120" class="edge">
<title>hidebound.core&#45;&gt;hidebound.core.parser</title>
<path fill="none" stroke="#a0d17b" d="M457.1462,-1618.2392C471.1325,-1621.505 486.0978,-1624.9994 500.7283,-1628.4157"/>
<polygon fill="#a0d17b" stroke="#a0d17b" points="500.2535,-1631.8989 510.7875,-1630.7646 501.8453,-1625.0823 500.2535,-1631.8989"/>
</g>
<!-- hidebound.core&#45;&gt;hidebound.core.specification_base -->
<g id="edge121" class="edge">
<title>hidebound.core&#45;&gt;hidebound.core.specification_base</title>
<path fill="none" stroke="#a0d17b" d="M414.266,-1620.7981C428.361,-1632.7771 445.7352,-1649.6112 457,-1667.7939 484.0913,-1711.5224 452.167,-1746.5083 493,-1777.7939 564.6605,-1832.699 805.5693,-1828.447 967.7108,-1818.4946"/>
<polygon fill="#a0d17b" stroke="#a0d17b" points="968.028,-1821.9817 977.7893,-1817.8625 967.5898,-1814.9954 968.028,-1821.9817"/>
</g>
<!-- hidebound.core&#45;&gt;hidebound.core.specifications -->
<g id="edge122" class="edge">
<title>hidebound.core&#45;&gt;hidebound.core.specifications</title>
<path fill="none" stroke="#a0d17b" d="M415.7068,-1620.878C429.9782,-1632.6505 447.027,-1649.2362 457,-1667.7939 496.4458,-1741.1944 442.3236,-1785.6463 493,-1851.7939 561.0558,-1940.6267 609.9973,-1937.4703 719,-1962.7939 988.8307,-2025.4812 1314.4455,-1878.3602 1429.3535,-1819.6601"/>
<polygon fill="#a0d17b" stroke="#a0d17b" points="1431.2538,-1822.6183 1438.5391,-1814.9258 1428.0467,-1816.3961 1431.2538,-1822.6183"/>
</g>
<!-- hidebound.core&#45;&gt;hidebound.core.tools -->
<g id="edge123" class="edge">
<title>hidebound.core&#45;&gt;hidebound.core.tools</title>
<path fill="none" stroke="#a0d17b" d="M407.0201,-1584.7681C453.9669,-1532.1057 595.6809,-1374.2917 719,-1248.7939 747.2136,-1220.0818 780.6562,-1188.2707 803.5071,-1166.856"/>
<polygon fill="#a0d17b" stroke="#a0d17b" points="805.9133,-1169.3978 810.8276,-1160.0116 801.1326,-1164.2845 805.9133,-1169.3978"/>
</g>
<!-- hidebound.core&#45;&gt;hidebound.core.traits -->
<g id="edge124" class="edge">
<title>hidebound.core&#45;&gt;hidebound.core.traits</title>
<path fill="none" stroke="#a0d17b" d="M415.3763,-1621.061C429.527,-1632.9003 446.5649,-1649.492 457,-1667.7939 489.8892,-1725.4774 442.2677,-1769.9532 493,-1812.7939 569.6585,-1877.5278 858.7004,-1873.704 1017.0925,-1866.2777"/>
<polygon fill="#a0d17b" stroke="#a0d17b" points="1017.5131,-1869.7616 1027.333,-1865.7841 1017.176,-1862.7697 1017.5131,-1869.7616"/>
</g>
<!-- hidebound.core&#45;&gt;hidebound.core.validators -->
<g id="edge125" class="edge">
<title>hidebound.core&#45;&gt;hidebound.core.validators</title>
<path fill="none" stroke="#a0d17b" d="M457.2734,-1606.8653C523.6186,-1610.9411 627.2426,-1617.3071 708.4847,-1622.2981"/>
<polygon fill="#a0d17b" stroke="#a0d17b" points="708.5855,-1625.8108 718.7814,-1622.9306 709.0148,-1618.8239 708.5855,-1625.8108"/>
</g>
<!-- selenium.webdriver.chrome.options -->
<g id="node53" class="node">
<title>selenium.webdriver.chrome.options</title>
<polygon fill="#343434" stroke="#343434" points="289,-1347.7939 0,-1347.7939 0,-1311.7939 289,-1311.7939 289,-1347.7939"/>
<text text-anchor="middle" x="144.5" y="-1326.0939" font-family="Courier,monospace" font-size="14.00" fill="#de958e">selenium.webdriver.chrome.options</text>
</g>
<!-- skimage.io -->
<g id="node54" class="node">
<title>skimage.io</title>
<polygon fill="#343434" stroke="#343434" points="880,-1953.7939 781,-1953.7939 781,-1917.7939 880,-1917.7939 880,-1953.7939"/>
<text text-anchor="middle" x="830.5" y="-1932.0939" font-family="Courier,monospace" font-size="14.00" fill="#de958e">skimage.io</text>
</g>
<!-- skimage.io&#45;&gt;hidebound.core.traits -->
<g id="edge126" class="edge">
<title>skimage.io&#45;&gt;hidebound.core.traits</title>
<path fill="none" stroke="#de958e" d="M880.0338,-1922.9015C924.7456,-1911.2642 991.3053,-1893.9404 1043.3823,-1880.3862"/>
<polygon fill="#de958e" stroke="#de958e" points="1044.4651,-1883.721 1053.261,-1877.815 1042.7018,-1876.9467 1044.4651,-1883.721"/>
</g>
</g>
</svg>
