<?xml version="1.0" encoding="UTF-8" standalone="no"?>
<!DOCTYPE svg PUBLIC "-//W3C//DTD SVG 1.1//EN"
 "http://www.w3.org/Graphics/SVG/1.1/DTD/svg11.dtd">
<!-- Generated by graphviz version 2.40.1 (20161225.0304)
 -->
<!-- Title: %3 Pages: 1 -->
<svg width="1168pt" height="332pt"
 viewBox="0.00 0.00 1168.00 332.00" xmlns="http://www.w3.org/2000/svg" xmlns:xlink="http://www.w3.org/1999/xlink">
<g id="graph0" class="graph" transform="scale(1 1) rotate(0) translate(4 328)">
<title>%3</title>
<polygon fill="#242424" stroke="transparent" points="-4,4 -4,-328 1164,-328 1164,4 -4,4"/>
<!-- cli -->
<g id="node1" class="node">
<title>cli</title>
<polygon fill="#343434" stroke="#343434" points="504,-324 450,-324 450,-288 504,-288 504,-324"/>
<text text-anchor="middle" x="477" y="-302.3" font-family="Courier,monospace" font-size="14.00" fill="#b6ecf3">cli</text>
</g>
<!-- nerve.database -->
<g id="node2" class="node">
<title>nerve.database</title>
<polygon fill="#343434" stroke="#343434" points="442,-36 310,-36 310,0 442,0 442,-36"/>
<text text-anchor="middle" x="376" y="-14.3" font-family="Courier,monospace" font-size="14.00" fill="#b6ecf3">nerve.database</text>
</g>
<!-- nerve.parser -->
<g id="node3" class="node">
<title>nerve.parser</title>
<polygon fill="#343434" stroke="#343434" points="626,-252 510,-252 510,-216 626,-216 626,-252"/>
<text text-anchor="middle" x="568" y="-230.3" font-family="Courier,monospace" font-size="14.00" fill="#b6ecf3">nerve.parser</text>
</g>
<!-- nerve.parser&#45;&gt;nerve.database -->
<g id="edge1" class="edge">
<title>nerve.parser&#45;&gt;nerve.database</title>
<path fill="none" stroke="#b6ecf3" d="M523.4764,-215.9269C503.4022,-206.7023 479.994,-194.3829 461,-180 426.3924,-153.794 414.8532,-146.6043 395,-108 385.1095,-88.7681 380.3662,-64.6984 378.0921,-46.2908"/>
<polygon fill="#b6ecf3" stroke="#b6ecf3" points="381.5555,-45.7605 377.0182,-36.1864 374.5947,-46.5003 381.5555,-45.7605"/>
</g>
<!-- nerve.specification_base -->
<g id="node4" class="node">
<title>nerve.specification_base</title>
<polygon fill="#343434" stroke="#343434" points="695.5,-108 480.5,-108 480.5,-72 695.5,-72 695.5,-108"/>
<text text-anchor="middle" x="588" y="-86.3" font-family="Courier,monospace" font-size="14.00" fill="#b6ecf3">nerve.specification_base</text>
</g>
<!-- nerve.parser&#45;&gt;nerve.specification_base -->
<g id="edge2" class="edge">
<title>nerve.parser&#45;&gt;nerve.specification_base</title>
<path fill="none" stroke="#b6ecf3" d="M512.9344,-215.9074C496.5278,-207.6534 480.4252,-196.0344 471,-180 462.892,-166.2065 462.3767,-157.4774 471,-144 479.6869,-130.4232 492.7511,-120.2113 507.0409,-112.5456"/>
<polygon fill="#b6ecf3" stroke="#b6ecf3" points="508.6473,-115.6559 516.0684,-108.0944 505.5516,-109.3776 508.6473,-115.6559"/>
</g>
<!-- nerve.validators -->
<g id="node8" class="node">
<title>nerve.validators</title>
<polygon fill="#343434" stroke="#343434" points="746.5,-180 597.5,-180 597.5,-144 746.5,-144 746.5,-180"/>
<text text-anchor="middle" x="672" y="-158.3" font-family="Courier,monospace" font-size="14.00" fill="#b6ecf3">nerve.validators</text>
</g>
<!-- nerve.parser&#45;&gt;nerve.validators -->
<g id="edge3" class="edge">
<title>nerve.parser&#45;&gt;nerve.validators</title>
<path fill="none" stroke="#b6ecf3" d="M594.2436,-215.8314C607.2995,-206.7927 623.2535,-195.7476 637.3047,-186.0198"/>
<polygon fill="#b6ecf3" stroke="#b6ecf3" points="639.5351,-188.7326 645.7648,-180.1628 635.5506,-182.9773 639.5351,-188.7326"/>
</g>
<!-- nerve.specification_base&#45;&gt;nerve.database -->
<g id="edge4" class="edge">
<title>nerve.specification_base&#45;&gt;nerve.database</title>
<path fill="none" stroke="#b6ecf3" d="M534.7771,-71.9243C505.6694,-62.0387 469.4334,-49.7321 438.9306,-39.3726"/>
<polygon fill="#b6ecf3" stroke="#b6ecf3" points="439.8392,-35.9849 429.2448,-36.0831 437.5881,-42.6131 439.8392,-35.9849"/>
</g>
<!-- nerve.specifications -->
<g id="node5" class="node">
<title>nerve.specifications</title>
<polygon fill="#343434" stroke="#343434" points="1069,-36 887,-36 887,0 1069,0 1069,-36"/>
<text text-anchor="middle" x="978" y="-14.3" font-family="Courier,monospace" font-size="14.00" fill="#b6ecf3">nerve.specifications</text>
</g>
<!-- nerve.specification_base&#45;&gt;nerve.specifications -->
<g id="edge5" class="edge">
<title>nerve.specification_base&#45;&gt;nerve.specifications</title>
<path fill="none" stroke="#b6ecf3" d="M685.6587,-71.9707C743.9927,-61.2013 817.9578,-47.5463 876.8929,-36.6659"/>
<polygon fill="#b6ecf3" stroke="#b6ecf3" points="877.7661,-40.064 886.9645,-34.8066 876.4952,-33.1803 877.7661,-40.064"/>
</g>
<!-- nerve.tools -->
<g id="node6" class="node">
<title>nerve.tools</title>
<polygon fill="#343434" stroke="#343434" points="309.5,-180 202.5,-180 202.5,-144 309.5,-144 309.5,-180"/>
<text text-anchor="middle" x="256" y="-158.3" font-family="Courier,monospace" font-size="14.00" fill="#b6ecf3">nerve.tools</text>
</g>
<!-- nerve.tools&#45;&gt;nerve.database -->
<g id="edge6" class="edge">
<title>nerve.tools&#45;&gt;nerve.database</title>
<path fill="none" stroke="#b6ecf3" d="M268.684,-143.9222C281.9081,-125.3921 303.525,-95.9765 324,-72 332.1059,-62.5079 341.4366,-52.549 349.9366,-43.8052"/>
<polygon fill="#b6ecf3" stroke="#b6ecf3" points="352.6266,-46.0615 357.1409,-36.4765 347.6346,-41.1543 352.6266,-46.0615"/>
</g>
<!-- nerve.tools&#45;&gt;nerve.specification_base -->
<g id="edge7" class="edge">
<title>nerve.tools&#45;&gt;nerve.specification_base</title>
<path fill="none" stroke="#b6ecf3" d="M309.7105,-150.3519C359.6907,-139.5129 435.2372,-123.1293 495.0112,-110.1662"/>
<polygon fill="#b6ecf3" stroke="#b6ecf3" points="495.8093,-113.5746 504.8403,-108.0346 494.3256,-106.7336 495.8093,-113.5746"/>
</g>
<!-- nerve.traits -->
<g id="node7" class="node">
<title>nerve.traits</title>
<polygon fill="#343434" stroke="#343434" points="1160,-252 1044,-252 1044,-216 1160,-216 1160,-252"/>
<text text-anchor="middle" x="1102" y="-230.3" font-family="Courier,monospace" font-size="14.00" fill="#b6ecf3">nerve.traits</text>
</g>
<!-- nerve.traits&#45;&gt;nerve.specifications -->
<g id="edge8" class="edge">
<title>nerve.traits&#45;&gt;nerve.specifications</title>
<path fill="none" stroke="#b6ecf3" d="M1096.2969,-215.9426C1085.9929,-184.8694 1062.3064,-120.0032 1030,-72 1023.1431,-61.8116 1014.2763,-51.7975 1005.8128,-43.2134"/>
<polygon fill="#b6ecf3" stroke="#b6ecf3" points="1008.1265,-40.5799 998.5397,-36.0694 1003.2213,-45.5738 1008.1265,-40.5799"/>
</g>
<!-- nerve.validators&#45;&gt;nerve.specification_base -->
<g id="edge9" class="edge">
<title>nerve.validators&#45;&gt;nerve.specification_base</title>
<path fill="none" stroke="#b6ecf3" d="M650.8033,-143.8314C640.5566,-135.0485 628.0997,-124.3712 616.9903,-114.8489"/>
<polygon fill="#b6ecf3" stroke="#b6ecf3" points="619.0603,-112.0134 609.19,-108.1628 614.5048,-117.3282 619.0603,-112.0134"/>
</g>
<!-- nerve.validators&#45;&gt;nerve.specifications -->
<g id="edge10" class="edge">
<title>nerve.validators&#45;&gt;nerve.specifications</title>
<path fill="none" stroke="#b6ecf3" d="M710.4453,-143.9081C766.2115,-117.6652 869.4859,-69.0655 930.1199,-40.5318"/>
<polygon fill="#b6ecf3" stroke="#b6ecf3" points="931.9134,-43.556 939.4713,-36.1311 928.9328,-37.2223 931.9134,-43.556"/>
</g>
<!-- numpy -->
<g id="node9" class="node">
<title>numpy</title>
<polygon fill="#343434" stroke="#343434" points="462,-108 404,-108 404,-72 462,-72 462,-108"/>
<text text-anchor="middle" x="433" y="-86.3" font-family="Courier,monospace" font-size="14.00" fill="#de958e">numpy</text>
</g>
<!-- numpy&#45;&gt;nerve.database -->
<g id="edge11" class="edge">
<title>numpy&#45;&gt;nerve.database</title>
<path fill="none" stroke="#de958e" d="M418.6165,-71.8314C412.0514,-63.5386 404.1493,-53.557 396.9422,-44.4533"/>
<polygon fill="#de958e" stroke="#de958e" points="399.5284,-42.0813 390.5772,-36.4133 394.0401,-46.4262 399.5284,-42.0813"/>
</g>
<!-- humanfriendly -->
<g id="node10" class="node">
<title>humanfriendly</title>
<polygon fill="#343434" stroke="#343434" points="246,-252 122,-252 122,-216 246,-216 246,-252"/>
<text text-anchor="middle" x="184" y="-230.3" font-family="Courier,monospace" font-size="14.00" fill="#de958e">humanfriendly</text>
</g>
<!-- humanfriendly&#45;&gt;nerve.tools -->
<g id="edge12" class="edge">
<title>humanfriendly&#45;&gt;nerve.tools</title>
<path fill="none" stroke="#de958e" d="M202.1686,-215.8314C210.7152,-207.2848 221.0557,-196.9443 230.3802,-187.6198"/>
<polygon fill="#de958e" stroke="#de958e" points="232.9905,-189.9592 237.5867,-180.4133 228.0408,-185.0095 232.9905,-189.9592"/>
</g>
<!-- nerve -->
<g id="node11" class="node">
<title>nerve</title>
<polygon fill="#343434" stroke="#343434" points="835,-324 777,-324 777,-288 835,-288 835,-324"/>
<text text-anchor="middle" x="806" y="-302.3" font-family="Courier,monospace" font-size="14.00" fill="#a0d17b">nerve</text>
</g>
<!-- nerve&#45;&gt;nerve.database -->
<g id="edge13" class="edge">
<title>nerve&#45;&gt;nerve.database</title>
<path fill="none" stroke="#a0d17b" d="M835.4082,-293.269C891.8258,-267.0708 1005.7791,-204.4948 960,-144 899.374,-63.8858 596.073,-32.8682 452.099,-22.5184"/>
<polygon fill="#a0d17b" stroke="#a0d17b" points="452.2348,-19.0194 442.0137,-21.8085 451.7432,-26.0021 452.2348,-19.0194"/>
</g>
<!-- nerve&#45;&gt;nerve.parser -->
<g id="edge14" class="edge">
<title>nerve&#45;&gt;nerve.parser</title>
<path fill="none" stroke="#a0d17b" d="M776.8165,-297.1714C741.9355,-286.6191 682.4401,-268.6205 635.857,-254.5282"/>
<polygon fill="#a0d17b" stroke="#a0d17b" points="636.7113,-251.13 626.1262,-251.5844 634.6843,-257.8301 636.7113,-251.13"/>
</g>
<!-- nerve&#45;&gt;nerve.specification_base -->
<g id="edge15" class="edge">
<title>nerve&#45;&gt;nerve.specification_base</title>
<path fill="none" stroke="#a0d17b" d="M805.9224,-287.7872C804.7304,-254.0576 797.0859,-181.8653 755,-144 739.1603,-129.7488 719.5139,-119.254 699.3222,-111.5268"/>
<polygon fill="#a0d17b" stroke="#a0d17b" points="700.2952,-108.1572 689.7008,-108.0599 697.9222,-114.7427 700.2952,-108.1572"/>
</g>
<!-- nerve&#45;&gt;nerve.specifications -->
<g id="edge16" class="edge">
<title>nerve&#45;&gt;nerve.specifications</title>
<path fill="none" stroke="#a0d17b" d="M835.1385,-301.8249C882.5762,-294.3655 973.1208,-277.1398 992,-252 1038.0881,-190.6285 1008.6759,-92.6917 989.9893,-45.367"/>
<polygon fill="#a0d17b" stroke="#a0d17b" points="993.2137,-44.005 986.1956,-36.068 986.7324,-46.6492 993.2137,-44.005"/>
</g>
<!-- nerve&#45;&gt;nerve.tools -->
<g id="edge17" class="edge">
<title>nerve&#45;&gt;nerve.tools</title>
<path fill="none" stroke="#a0d17b" d="M776.8876,-303.1359C668.9965,-292.4964 297.9,-255.6698 293,-252 273.5398,-237.4258 264.2662,-210.7952 259.8761,-190.2694"/>
<polygon fill="#a0d17b" stroke="#a0d17b" points="263.2703,-189.3779 257.9974,-180.1884 256.3888,-190.6604 263.2703,-189.3779"/>
</g>
<!-- nerve&#45;&gt;nerve.traits -->
<g id="edge18" class="edge">
<title>nerve&#45;&gt;nerve.traits</title>
<path fill="none" stroke="#a0d17b" d="M835.0153,-299.0877C877.7379,-288.8912 960.0717,-269.1696 1030,-252 1031.2669,-251.6889 1032.5463,-251.3743 1033.8351,-251.0569"/>
<polygon fill="#a0d17b" stroke="#a0d17b" points="1034.9832,-254.3785 1043.8515,-248.5817 1033.3039,-247.583 1034.9832,-254.3785"/>
</g>
<!-- nerve&#45;&gt;nerve.validators -->
<g id="edge19" class="edge">
<title>nerve&#45;&gt;nerve.validators</title>
<path fill="none" stroke="#a0d17b" d="M776.9663,-295.3394C756.2548,-286.4708 728.9934,-272.049 711,-252 695.0919,-234.2745 684.9253,-209.0534 678.9749,-189.8178"/>
<polygon fill="#a0d17b" stroke="#a0d17b" points="682.3064,-188.739 676.1663,-180.1048 675.5819,-190.6835 682.3064,-188.739"/>
</g>
<!-- pandas -->
<g id="node12" class="node">
<title>pandas</title>
<polygon fill="#343434" stroke="#343434" points="66,-252 0,-252 0,-216 66,-216 66,-252"/>
<text text-anchor="middle" x="33" y="-230.3" font-family="Courier,monospace" font-size="14.00" fill="#de958e">pandas</text>
</g>
<!-- pandas&#45;&gt;nerve.database -->
<g id="edge20" class="edge">
<title>pandas&#45;&gt;nerve.database</title>
<path fill="none" stroke="#de958e" d="M47.904,-215.662C64.4795,-196.1071 92.7897,-165.1076 122,-144 184.4797,-98.8517 265.5644,-61.7909 319.1133,-39.8172"/>
<polygon fill="#de958e" stroke="#de958e" points="320.5035,-43.0303 328.4509,-36.0239 317.8689,-36.545 320.5035,-43.0303"/>
</g>
<!-- pandas&#45;&gt;nerve.tools -->
<g id="edge21" class="edge">
<title>pandas&#45;&gt;nerve.tools</title>
<path fill="none" stroke="#de958e" d="M66.3854,-223.2209C99.681,-212.4707 151.6524,-195.6907 192.7705,-182.4149"/>
<polygon fill="#de958e" stroke="#de958e" points="193.9944,-185.6977 202.4352,-179.2945 191.8436,-179.0363 193.9944,-185.6977"/>
</g>
<!-- schematics -->
<g id="node13" class="node">
<title>schematics</title>
<polygon fill="#343434" stroke="#343434" points="579.5,-180 480.5,-180 480.5,-144 579.5,-144 579.5,-180"/>
<text text-anchor="middle" x="530" y="-158.3" font-family="Courier,monospace" font-size="14.00" fill="#de958e">schematics</text>
</g>
<!-- schematics&#45;&gt;nerve.specification_base -->
<g id="edge22" class="edge">
<title>schematics&#45;&gt;nerve.specification_base</title>
<path fill="none" stroke="#de958e" d="M544.6358,-143.8314C551.3161,-135.5386 559.3568,-125.557 566.6904,-116.4533"/>
<polygon fill="#de958e" stroke="#de958e" points="569.6194,-118.3965 573.1671,-108.4133 564.1681,-114.0052 569.6194,-118.3965"/>
</g>
<!-- schematics.exceptions -->
<g id="node14" class="node">
<title>schematics.exceptions</title>
<polygon fill="#343434" stroke="#343434" points="492,-252 302,-252 302,-216 492,-216 492,-252"/>
<text text-anchor="middle" x="397" y="-230.3" font-family="Courier,monospace" font-size="14.00" fill="#de958e">schematics.exceptions</text>
</g>
<!-- schematics.exceptions&#45;&gt;nerve.database -->
<g id="edge23" class="edge">
<title>schematics.exceptions&#45;&gt;nerve.database</title>
<path fill="none" stroke="#de958e" d="M381.4475,-215.8462C373.9954,-205.947 365.8653,-193.0702 362,-180 348.5635,-134.5654 358.7627,-79.0741 367.3814,-46.2415"/>
<polygon fill="#de958e" stroke="#de958e" points="370.8056,-46.99 370.0922,-36.4192 364.0579,-45.1277 370.8056,-46.99"/>
</g>
<!-- schematics.exceptions&#45;&gt;nerve.specification_base -->
<g id="edge24" class="edge">
<title>schematics.exceptions&#45;&gt;nerve.specification_base</title>
<path fill="none" stroke="#de958e" d="M405.9728,-215.8464C416.6518,-195.8675 436.1992,-163.9467 461,-144 477.6059,-130.6442 498.0036,-120.0505 517.5536,-111.9118"/>
<polygon fill="#de958e" stroke="#de958e" points="519.075,-115.073 527.0624,-108.1123 516.4776,-108.5727 519.075,-115.073"/>
</g>
<!-- schematics.exceptions&#45;&gt;nerve.tools -->
<g id="edge25" class="edge">
<title>schematics.exceptions&#45;&gt;nerve.tools</title>
<path fill="none" stroke="#de958e" d="M361.4197,-215.8314C342.9675,-206.4089 320.2455,-194.8062 300.627,-184.7883"/>
<polygon fill="#de958e" stroke="#de958e" points="302.0667,-181.5935 291.5689,-180.1628 298.8832,-187.8278 302.0667,-181.5935"/>
</g>
<!-- schematics.exceptions&#45;&gt;nerve.validators -->
<g id="edge26" class="edge">
<title>schematics.exceptions&#45;&gt;nerve.validators</title>
<path fill="none" stroke="#de958e" d="M466.0392,-215.9243C504.6957,-205.8033 553.0446,-193.1447 593.1817,-182.6361"/>
<polygon fill="#de958e" stroke="#de958e" points="594.145,-186.0019 602.9324,-180.0831 592.372,-179.2302 594.145,-186.0019"/>
</g>
<!-- pyparsing -->
<g id="node15" class="node">
<title>pyparsing</title>
<polygon fill="#343434" stroke="#343434" points="613.5,-324 522.5,-324 522.5,-288 613.5,-288 613.5,-324"/>
<text text-anchor="middle" x="568" y="-302.3" font-family="Courier,monospace" font-size="14.00" fill="#de958e">pyparsing</text>
</g>
<!-- pyparsing&#45;&gt;nerve.parser -->
<g id="edge27" class="edge">
<title>pyparsing&#45;&gt;nerve.parser</title>
<path fill="none" stroke="#de958e" d="M568,-287.8314C568,-280.131 568,-270.9743 568,-262.4166"/>
<polygon fill="#de958e" stroke="#de958e" points="571.5001,-262.4132 568,-252.4133 564.5001,-262.4133 571.5001,-262.4132"/>
</g>
<!-- pyparsing&#45;&gt;nerve.specification_base -->
<g id="edge28" class="edge">
<title>pyparsing&#45;&gt;nerve.specification_base</title>
<path fill="none" stroke="#de958e" d="M522.2937,-290.1832C519.1689,-289.3678 516.0506,-288.628 513,-288 469.2924,-279.0024 143.1066,-284.9379 113,-252 62.5568,-196.813 160.7495,-158.8219 193,-144 303.3297,-93.2939 345.4935,-123.8274 470.3442,-108.0056"/>
<polygon fill="#de958e" stroke="#de958e" points="470.8279,-111.4721 480.2731,-106.6723 469.8963,-104.5344 470.8279,-111.4721"/>
</g>
<!-- pyparsing&#45;&gt;nerve.validators -->
<g id="edge29" class="edge">
<title>pyparsing&#45;&gt;nerve.validators</title>
<path fill="none" stroke="#de958e" d="M596.56,-287.9167C609.6507,-278.4903 624.5441,-266.0072 635,-252 648.8985,-233.381 658.5424,-208.7918 664.4918,-190.021"/>
<polygon fill="#de958e" stroke="#de958e" points="667.8971,-190.8503 667.4205,-180.2662 661.1927,-188.8374 667.8971,-190.8503"/>
</g>
<!-- schematics.types -->
<g id="node16" class="node">
<title>schematics.types</title>
<polygon fill="#343434" stroke="#343434" points="950.5,-180 801.5,-180 801.5,-144 950.5,-144 950.5,-180"/>
<text text-anchor="middle" x="876" y="-158.3" font-family="Courier,monospace" font-size="14.00" fill="#de958e">schematics.types</text>
</g>
<!-- schematics.types&#45;&gt;nerve.specification_base -->
<g id="edge30" class="edge">
<title>schematics.types&#45;&gt;nerve.specification_base</title>
<path fill="none" stroke="#de958e" d="M803.6972,-143.9243C763.0505,-133.7626 712.1716,-121.0429 670.0378,-110.5094"/>
<polygon fill="#de958e" stroke="#de958e" points="670.6331,-107.0506 660.0827,-108.0207 668.9353,-113.8416 670.6331,-107.0506"/>
</g>
<!-- schematics.types&#45;&gt;nerve.specifications -->
<g id="edge31" class="edge">
<title>schematics.types&#45;&gt;nerve.specifications</title>
<path fill="none" stroke="#de958e" d="M913.0027,-143.8024C927.711,-134.8734 943.5778,-122.8193 954,-108 966.8129,-89.7814 972.7858,-65.1145 975.5699,-46.2118"/>
<polygon fill="#de958e" stroke="#de958e" points="979.0649,-46.4698 976.8401,-36.1113 972.1196,-45.5964 979.0649,-46.4698"/>
</g>
<!-- wrapt -->
<g id="node17" class="node">
<title>wrapt</title>
<polygon fill="#343434" stroke="#343434" points="778,-252 720,-252 720,-216 778,-216 778,-252"/>
<text text-anchor="middle" x="749" y="-230.3" font-family="Courier,monospace" font-size="14.00" fill="#de958e">wrapt</text>
</g>
<!-- wrapt&#45;&gt;nerve.validators -->
<g id="edge32" class="edge">
<title>wrapt&#45;&gt;nerve.validators</title>
<path fill="none" stroke="#de958e" d="M729.5696,-215.8314C720.268,-207.1337 708.9796,-196.5783 698.8714,-187.1265"/>
<polygon fill="#de958e" stroke="#de958e" points="701.1189,-184.4363 691.4241,-180.1628 696.3379,-189.5493 701.1189,-184.4363"/>
</g>
<!-- skimage.io -->
<g id="node18" class="node">
<title>skimage.io</title>
<polygon fill="#343434" stroke="#343434" points="1151.5,-324 1052.5,-324 1052.5,-288 1151.5,-288 1151.5,-324"/>
<text text-anchor="middle" x="1102" y="-302.3" font-family="Courier,monospace" font-size="14.00" fill="#de958e">skimage.io</text>
</g>
<!-- skimage.io&#45;&gt;nerve.traits -->
<g id="edge33" class="edge">
<title>skimage.io&#45;&gt;nerve.traits</title>
<path fill="none" stroke="#de958e" d="M1102,-287.8314C1102,-280.131 1102,-270.9743 1102,-262.4166"/>
<polygon fill="#de958e" stroke="#de958e" points="1105.5001,-262.4132 1102,-252.4133 1098.5001,-262.4133 1105.5001,-262.4132"/>
</g>
</g>
</svg>
