<?xml version="1.0" encoding="UTF-8" standalone="no"?>
<!DOCTYPE svg PUBLIC "-//W3C//DTD SVG 1.1//EN"
 "http://www.w3.org/Graphics/SVG/1.1/DTD/svg11.dtd">
<!-- Generated by graphviz version 2.40.1 (20161225.0304)
 -->
<!-- Title: %3 Pages: 1 -->
<svg width="2947pt" height="2264pt"
 viewBox="0.00 0.00 2947.00 2263.99" xmlns="http://www.w3.org/2000/svg" xmlns:xlink="http://www.w3.org/1999/xlink">
<g id="graph0" class="graph" transform="scale(1 1) rotate(0) translate(4 2259.9913)">
<title>%3</title>
<polygon fill="#242424" stroke="transparent" points="-4,4 -4,-2259.9913 2943,-2259.9913 2943,4 -4,4"/>
<!-- cli -->
<g id="node1" class="node">
<title>cli</title>
<polygon fill="#343434" stroke="#343434" points="72.5,-956.9913 18.5,-956.9913 18.5,-920.9913 72.5,-920.9913 72.5,-956.9913"/>
<text text-anchor="middle" x="45.5" y="-935.2913" font-family="Courier,monospace" font-size="14.00" fill="#b6ecf3">cli</text>
</g>
<!-- hidebound.core.config -->
<g id="node2" class="node">
<title>hidebound.core.config</title>
<polygon fill="#343434" stroke="#343434" points="1669,-822.9913 1479,-822.9913 1479,-786.9913 1669,-786.9913 1669,-822.9913"/>
<text text-anchor="middle" x="1574" y="-801.2913" font-family="Courier,monospace" font-size="14.00" fill="#b6ecf3">hidebound.core.config</text>
</g>
<!-- hidebound.core.database -->
<g id="node3" class="node">
<title>hidebound.core.database</title>
<polygon fill="#343434" stroke="#343434" points="1936,-1451.9913 1730,-1451.9913 1730,-1415.9913 1936,-1415.9913 1936,-1451.9913"/>
<text text-anchor="middle" x="1833" y="-1430.2913" font-family="Courier,monospace" font-size="14.00" fill="#b6ecf3">hidebound.core.database</text>
</g>
<!-- hidebound.core.config&#45;&gt;hidebound.core.database -->
<g id="edge1" class="edge">
<title>hidebound.core.config&#45;&gt;hidebound.core.database</title>
<path fill="none" stroke="#b6ecf3" d="M1580.4379,-823.1006C1598.8492,-874.6262 1653.6997,-1026.3051 1705,-1149.9913 1744.5292,-1245.2972 1796.2298,-1356.2801 1820.0068,-1406.6426"/>
<polygon fill="#b6ecf3" stroke="#b6ecf3" points="1816.9383,-1408.3409 1824.378,-1415.8842 1823.2662,-1405.3479 1816.9383,-1408.3409"/>
</g>
<!-- hidebound.server.api -->
<g id="node16" class="node">
<title>hidebound.server.api</title>
<polygon fill="#343434" stroke="#343434" points="2179,-1766.9913 1997,-1766.9913 1997,-1730.9913 2179,-1730.9913 2179,-1766.9913"/>
<text text-anchor="middle" x="2088" y="-1745.2913" font-family="Courier,monospace" font-size="14.00" fill="#b6ecf3">hidebound.server.api</text>
</g>
<!-- hidebound.core.database&#45;&gt;hidebound.server.api -->
<g id="edge2" class="edge">
<title>hidebound.core.database&#45;&gt;hidebound.server.api</title>
<path fill="none" stroke="#b6ecf3" d="M1847.8121,-1452.2886C1890.9448,-1505.5701 2016.5759,-1660.7615 2066.846,-1722.8599"/>
<polygon fill="#b6ecf3" stroke="#b6ecf3" points="2064.1346,-1725.0733 2073.147,-1730.6435 2069.5754,-1720.6688 2064.1346,-1725.0733"/>
</g>
<!-- hidebound.server.extension -->
<g id="node19" class="node">
<title>hidebound.server.extension</title>
<polygon fill="#343434" stroke="#343434" points="2446,-1609.9913 2215,-1609.9913 2215,-1573.9913 2446,-1573.9913 2446,-1609.9913"/>
<text text-anchor="middle" x="2330.5" y="-1588.2913" font-family="Courier,monospace" font-size="14.00" fill="#b6ecf3">hidebound.server.extension</text>
</g>
<!-- hidebound.core.database&#45;&gt;hidebound.server.extension -->
<g id="edge3" class="edge">
<title>hidebound.core.database&#45;&gt;hidebound.server.extension</title>
<path fill="none" stroke="#b6ecf3" d="M1890.0696,-1452.1159C1982.8195,-1481.5722 2165.7815,-1539.6787 2264.173,-1570.9266"/>
<polygon fill="#b6ecf3" stroke="#b6ecf3" points="2263.1241,-1574.2657 2273.7144,-1573.9569 2265.243,-1567.5941 2263.1241,-1574.2657"/>
</g>
<!-- hidebound.core.database_tools -->
<g id="node4" class="node">
<title>hidebound.core.database_tools</title>
<polygon fill="#343434" stroke="#343434" points="1402,-1481.9913 1146,-1481.9913 1146,-1445.9913 1402,-1445.9913 1402,-1481.9913"/>
<text text-anchor="middle" x="1274" y="-1460.2913" font-family="Courier,monospace" font-size="14.00" fill="#b6ecf3">hidebound.core.database_tools</text>
</g>
<!-- hidebound.core.database_tools&#45;&gt;hidebound.core.database -->
<g id="edge4" class="edge">
<title>hidebound.core.database_tools&#45;&gt;hidebound.core.database</title>
<path fill="none" stroke="#b6ecf3" d="M1402.1574,-1460.2496C1479.4849,-1457.6312 1579.9536,-1453.5927 1669,-1447.9913 1685.4499,-1446.9565 1702.8126,-1445.6773 1719.8417,-1444.3164"/>
<polygon fill="#b6ecf3" stroke="#b6ecf3" points="1720.136,-1447.8041 1729.8202,-1443.5069 1719.5699,-1440.827 1720.136,-1447.8041"/>
</g>
<!-- hidebound.core.logging -->
<g id="node5" class="node">
<title>hidebound.core.logging</title>
<polygon fill="#343434" stroke="#343434" points="731.5,-1787.9913 533.5,-1787.9913 533.5,-1751.9913 731.5,-1751.9913 731.5,-1787.9913"/>
<text text-anchor="middle" x="632.5" y="-1766.2913" font-family="Courier,monospace" font-size="14.00" fill="#b6ecf3">hidebound.core.logging</text>
</g>
<!-- hidebound.core.logging&#45;&gt;hidebound.core.database -->
<g id="edge5" class="edge">
<title>hidebound.core.logging&#45;&gt;hidebound.core.database</title>
<path fill="none" stroke="#b6ecf3" d="M731.8988,-1771.6913C820.7533,-1771.7829 954.2573,-1768.3954 1069,-1750.9913 1255.3072,-1722.7323 1296.1919,-1688.7092 1479,-1642.9913 1563.1878,-1621.937 1593.7977,-1641.2981 1669,-1597.9913 1689.1605,-1586.3815 1688.7078,-1576.5985 1705,-1559.9913 1739.7817,-1524.5372 1780.832,-1484.4254 1806.8864,-1459.1762"/>
<polygon fill="#b6ecf3" stroke="#b6ecf3" points="1809.392,-1461.622 1814.1433,-1452.1522 1804.5236,-1456.5921 1809.392,-1461.622"/>
</g>
<!-- hidebound.exporters.exporter_base -->
<g id="node12" class="node">
<title>hidebound.exporters.exporter_base</title>
<polygon fill="#343434" stroke="#343434" points="1069,-635.9913 780,-635.9913 780,-599.9913 1069,-599.9913 1069,-635.9913"/>
<text text-anchor="middle" x="924.5" y="-614.2913" font-family="Courier,monospace" font-size="14.00" fill="#b6ecf3">hidebound.exporters.exporter_base</text>
</g>
<!-- hidebound.core.logging&#45;&gt;hidebound.exporters.exporter_base -->
<g id="edge6" class="edge">
<title>hidebound.core.logging&#45;&gt;hidebound.exporters.exporter_base</title>
<path fill="none" stroke="#b6ecf3" d="M636.3685,-1751.7583C651.8126,-1678.4577 709.8653,-1398.0063 744,-1164.9913 765.3846,-1019.0125 729.6781,-973.6809 780,-834.9913 807.8167,-758.3271 868.0607,-682.0814 901.3043,-643.6441"/>
<polygon fill="#b6ecf3" stroke="#b6ecf3" points="904.0161,-645.86 907.967,-636.0293 898.748,-641.2506 904.0161,-645.86"/>
</g>
<!-- hidebound.core.logging&#45;&gt;hidebound.server.api -->
<g id="edge7" class="edge">
<title>hidebound.core.logging&#45;&gt;hidebound.server.api</title>
<path fill="none" stroke="#b6ecf3" d="M731.8665,-1777.0393C921.1217,-1790.0704 1346.4226,-1817.4694 1705,-1826.9913 1818.7377,-1830.0116 1851.5094,-1857.9298 1961,-1826.9913 1997.7519,-1816.6064 2034.3415,-1792.2681 2058.7391,-1773.5183"/>
<polygon fill="#b6ecf3" stroke="#b6ecf3" points="2061.1408,-1776.0823 2066.8406,-1767.1513 2056.8154,-1770.5786 2061.1408,-1776.0823"/>
</g>
<!-- hidebound.server.server_tools -->
<g id="node21" class="node">
<title>hidebound.server.server_tools</title>
<polygon fill="#343434" stroke="#343434" points="1961,-1947.9913 1705,-1947.9913 1705,-1911.9913 1961,-1911.9913 1961,-1947.9913"/>
<text text-anchor="middle" x="1833" y="-1926.2913" font-family="Courier,monospace" font-size="14.00" fill="#b6ecf3">hidebound.server.server_tools</text>
</g>
<!-- hidebound.core.logging&#45;&gt;hidebound.server.server_tools -->
<g id="edge8" class="edge">
<title>hidebound.core.logging&#45;&gt;hidebound.server.server_tools</title>
<path fill="none" stroke="#b6ecf3" d="M675.9764,-1788.084C704.97,-1799.4567 744.195,-1813.5289 780,-1821.9913 1084.7238,-1894.0114 1167.172,-1881.5879 1479,-1909.9913 1549.8458,-1916.4444 1628.8699,-1921.1471 1694.2506,-1924.3646"/>
<polygon fill="#b6ecf3" stroke="#b6ecf3" points="1694.4653,-1927.8791 1704.6233,-1924.8683 1694.8048,-1920.8873 1694.4653,-1927.8791"/>
</g>
<!-- hidebound.core.parser -->
<g id="node6" class="node">
<title>hidebound.core.parser</title>
<polygon fill="#343434" stroke="#343434" points="485,-945.9913 295,-945.9913 295,-909.9913 485,-909.9913 485,-945.9913"/>
<text text-anchor="middle" x="390" y="-924.2913" font-family="Courier,monospace" font-size="14.00" fill="#b6ecf3">hidebound.core.parser</text>
</g>
<!-- hidebound.core.parser&#45;&gt;hidebound.core.database_tools -->
<g id="edge9" class="edge">
<title>hidebound.core.parser&#45;&gt;hidebound.core.database_tools</title>
<path fill="none" stroke="#b6ecf3" d="M406.1412,-945.9938C426.8436,-969.8717 462.7268,-1014.0258 485,-1056.9913 508.2861,-1101.9108 489.9816,-1125.0181 521,-1164.9913 604.9674,-1273.1994 654.7662,-1276.5297 780,-1331.9913 852.239,-1363.9834 1062.8413,-1415.3013 1184.4766,-1443.6045"/>
<polygon fill="#b6ecf3" stroke="#b6ecf3" points="1183.9866,-1447.0837 1194.519,-1445.936 1185.5697,-1440.2651 1183.9866,-1447.0837"/>
</g>
<!-- hidebound.core.specification_base -->
<g id="node7" class="node">
<title>hidebound.core.specification_base</title>
<polygon fill="#343434" stroke="#343434" points="1069,-987.9913 780,-987.9913 780,-951.9913 1069,-951.9913 1069,-987.9913"/>
<text text-anchor="middle" x="924.5" y="-966.2913" font-family="Courier,monospace" font-size="14.00" fill="#b6ecf3">hidebound.core.specification_base</text>
</g>
<!-- hidebound.core.parser&#45;&gt;hidebound.core.specification_base -->
<g id="edge10" class="edge">
<title>hidebound.core.parser&#45;&gt;hidebound.core.specification_base</title>
<path fill="none" stroke="#b6ecf3" d="M485.2498,-935.4758C564.0807,-941.6702 677.6269,-950.5925 769.5253,-957.8137"/>
<polygon fill="#b6ecf3" stroke="#b6ecf3" points="769.5226,-961.3242 779.7661,-958.6184 770.0711,-954.3457 769.5226,-961.3242"/>
</g>
<!-- hidebound.core.validators -->
<g id="node11" class="node">
<title>hidebound.core.validators</title>
<polygon fill="#343434" stroke="#343434" points="744,-659.9913 521,-659.9913 521,-623.9913 744,-623.9913 744,-659.9913"/>
<text text-anchor="middle" x="632.5" y="-638.2913" font-family="Courier,monospace" font-size="14.00" fill="#b6ecf3">hidebound.core.validators</text>
</g>
<!-- hidebound.core.parser&#45;&gt;hidebound.core.validators -->
<g id="edge11" class="edge">
<title>hidebound.core.parser&#45;&gt;hidebound.core.validators</title>
<path fill="none" stroke="#b6ecf3" d="M468.2531,-909.9762C474.5358,-906.1704 480.2705,-901.5645 485,-895.9913 549.3905,-820.1133 455.211,-749.66 521,-674.9913 524.0476,-671.5323 527.4388,-668.4279 531.0879,-665.6422"/>
<polygon fill="#b6ecf3" stroke="#b6ecf3" points="533.0935,-668.5115 539.4553,-660.0393 529.1987,-662.695 533.0935,-668.5115"/>
</g>
<!-- hidebound.core.specification_base&#45;&gt;hidebound.core.config -->
<g id="edge12" class="edge">
<title>hidebound.core.specification_base&#45;&gt;hidebound.core.config</title>
<path fill="none" stroke="#b6ecf3" d="M1024.9241,-951.9844C1039.7312,-949.1098 1054.7817,-946.0659 1069,-942.9913 1236.3105,-906.8121 1278.9432,-899.8492 1443,-850.9913 1467.3579,-843.7372 1493.8734,-834.6555 1516.6373,-826.482"/>
<polygon fill="#b6ecf3" stroke="#b6ecf3" points="1517.933,-829.7354 1526.1463,-823.0427 1515.552,-823.1527 1517.933,-829.7354"/>
</g>
<!-- hidebound.core.specification_base&#45;&gt;hidebound.core.database -->
<g id="edge13" class="edge">
<title>hidebound.core.specification_base&#45;&gt;hidebound.core.database</title>
<path fill="none" stroke="#b6ecf3" d="M995.5159,-988.0628C1133.5422,-1025.3543 1444.176,-1120.028 1669,-1268.9913 1728.6906,-1308.5409 1784.3599,-1372.4453 1812.9504,-1408.0039"/>
<polygon fill="#b6ecf3" stroke="#b6ecf3" points="1810.33,-1410.3322 1819.2926,-1415.9823 1815.8097,-1405.9762 1810.33,-1410.3322"/>
</g>
<!-- hidebound.core.specification_base&#45;&gt;hidebound.core.database_tools -->
<g id="edge14" class="edge">
<title>hidebound.core.specification_base&#45;&gt;hidebound.core.database_tools</title>
<path fill="none" stroke="#b6ecf3" d="M934.7279,-988.0343C961.1145,-1034.1807 1034.3747,-1159.7816 1105,-1257.9913 1153.6637,-1325.6618 1217.5458,-1400.1247 1251.1159,-1438.2949"/>
<polygon fill="#b6ecf3" stroke="#b6ecf3" points="1248.5623,-1440.6909 1257.803,-1445.8737 1253.8112,-1436.0595 1248.5623,-1440.6909"/>
</g>
<!-- hidebound.core.specifications -->
<g id="node8" class="node">
<title>hidebound.core.specifications</title>
<polygon fill="#343434" stroke="#343434" points="1402,-513.9913 1146,-513.9913 1146,-477.9913 1402,-477.9913 1402,-513.9913"/>
<text text-anchor="middle" x="1274" y="-492.2913" font-family="Courier,monospace" font-size="14.00" fill="#b6ecf3">hidebound.core.specifications</text>
</g>
<!-- hidebound.core.specification_base&#45;&gt;hidebound.core.specifications -->
<g id="edge15" class="edge">
<title>hidebound.core.specification_base&#45;&gt;hidebound.core.specifications</title>
<path fill="none" stroke="#b6ecf3" d="M1059.0566,-951.7835C1062.5929,-949.1505 1065.9238,-946.2292 1069,-942.9913 1151.778,-855.8635 1053.2564,-783.4627 1105,-674.9913 1136.4378,-609.0876 1201.1846,-551.4243 1240.7793,-520.3553"/>
<polygon fill="#b6ecf3" stroke="#b6ecf3" points="1243.0541,-523.0206 1248.8255,-514.1357 1238.7731,-517.4823 1243.0541,-523.0206"/>
</g>
<!-- hidebound.core.tools -->
<g id="node9" class="node">
<title>hidebound.core.tools</title>
<polygon fill="#343434" stroke="#343434" points="723.5,-1155.9913 541.5,-1155.9913 541.5,-1119.9913 723.5,-1119.9913 723.5,-1155.9913"/>
<text text-anchor="middle" x="632.5" y="-1134.2913" font-family="Courier,monospace" font-size="14.00" fill="#b6ecf3">hidebound.core.tools</text>
</g>
<!-- hidebound.core.tools&#45;&gt;hidebound.core.database -->
<g id="edge16" class="edge">
<title>hidebound.core.tools&#45;&gt;hidebound.core.database</title>
<path fill="none" stroke="#b6ecf3" d="M723.7164,-1150.1042C730.9034,-1153.0301 737.7767,-1156.6122 744,-1160.9913 769.122,-1178.6687 754.2523,-1203.2384 780,-1219.9913 888.5879,-1290.6445 942.2052,-1231.415 1069,-1257.9913 1254.7069,-1296.9157 1293.8751,-1335.3868 1479,-1376.9913 1558.7409,-1394.9121 1649.8016,-1409.4437 1719.5969,-1419.3488"/>
<polygon fill="#b6ecf3" stroke="#b6ecf3" points="1719.346,-1422.8479 1729.7364,-1420.7765 1720.3221,-1415.9163 1719.346,-1422.8479"/>
</g>
<!-- hidebound.core.tools&#45;&gt;hidebound.core.database_tools -->
<g id="edge17" class="edge">
<title>hidebound.core.tools&#45;&gt;hidebound.core.database_tools</title>
<path fill="none" stroke="#b6ecf3" d="M651.1902,-1156.2231C677.9592,-1181.5965 729.5705,-1227.8297 780,-1257.9913 819.8897,-1281.8491 1099.1859,-1394.2489 1219.2969,-1442.2138"/>
<polygon fill="#b6ecf3" stroke="#b6ecf3" points="1218.112,-1445.5094 1228.697,-1445.9659 1220.707,-1439.0081 1218.112,-1445.5094"/>
</g>
<!-- hidebound.core.tools&#45;&gt;hidebound.core.specification_base -->
<g id="edge18" class="edge">
<title>hidebound.core.tools&#45;&gt;hidebound.core.specification_base</title>
<path fill="none" stroke="#b6ecf3" d="M664.0266,-1119.8527C717.3595,-1089.168 825.3077,-1027.0608 884.1063,-993.2315"/>
<polygon fill="#b6ecf3" stroke="#b6ecf3" points="886.1829,-996.0748 893.1052,-988.054 882.692,-990.0073 886.1829,-996.0748"/>
</g>
<!-- hidebound.core.traits -->
<g id="node10" class="node">
<title>hidebound.core.traits</title>
<polygon fill="#343434" stroke="#343434" points="1019.5,-467.9913 829.5,-467.9913 829.5,-431.9913 1019.5,-431.9913 1019.5,-467.9913"/>
<text text-anchor="middle" x="924.5" y="-446.2913" font-family="Courier,monospace" font-size="14.00" fill="#b6ecf3">hidebound.core.traits</text>
</g>
<!-- hidebound.core.tools&#45;&gt;hidebound.core.traits -->
<g id="edge19" class="edge">
<title>hidebound.core.tools&#45;&gt;hidebound.core.traits</title>
<path fill="none" stroke="#b6ecf3" d="M637.5727,-1119.6663C653.4751,-1062.1593 703.693,-880.1043 744,-728.9913 760.3361,-667.7466 748.1523,-645.7955 780,-590.9913 808.1681,-542.519 857.5449,-499.5759 890.6328,-474.1744"/>
<polygon fill="#b6ecf3" stroke="#b6ecf3" points="892.802,-476.9222 898.6713,-468.1016 888.5825,-471.3369 892.802,-476.9222"/>
</g>
<!-- hidebound.core.tools&#45;&gt;hidebound.exporters.exporter_base -->
<g id="edge20" class="edge">
<title>hidebound.core.tools&#45;&gt;hidebound.exporters.exporter_base</title>
<path fill="none" stroke="#b6ecf3" d="M640.3258,-1119.7986C661.0876,-1072.0407 720.0886,-939.5679 780,-834.9913 820.8751,-763.643 876.5066,-684.2778 905.3661,-644.2051"/>
<polygon fill="#b6ecf3" stroke="#b6ecf3" points="908.2483,-646.1922 911.27,-636.0373 902.5752,-642.0914 908.2483,-646.1922"/>
</g>
<!-- hidebound.exporters.local_disk_exporter -->
<g id="node14" class="node">
<title>hidebound.exporters.local_disk_exporter</title>
<polygon fill="#343434" stroke="#343434" points="1443,-719.9913 1105,-719.9913 1105,-683.9913 1443,-683.9913 1443,-719.9913"/>
<text text-anchor="middle" x="1274" y="-698.2913" font-family="Courier,monospace" font-size="14.00" fill="#b6ecf3">hidebound.exporters.local_disk_exporter</text>
</g>
<!-- hidebound.core.tools&#45;&gt;hidebound.exporters.local_disk_exporter -->
<g id="edge21" class="edge">
<title>hidebound.core.tools&#45;&gt;hidebound.exporters.local_disk_exporter</title>
<path fill="none" stroke="#b6ecf3" d="M701.4581,-1119.8948C818.1207,-1088.6754 1044.2387,-1025.3246 1069,-996.9913 1128.4331,-928.9844 1052.6408,-870.5831 1105,-796.9913 1129.5392,-762.501 1170.7536,-738.9712 1206.3375,-723.9568"/>
<polygon fill="#b6ecf3" stroke="#b6ecf3" points="1207.7845,-727.1467 1215.7262,-720.1339 1205.1446,-720.6635 1207.7845,-727.1467"/>
</g>
<!-- hidebound.exporters.s3_exporter -->
<g id="node15" class="node">
<title>hidebound.exporters.s3_exporter</title>
<polygon fill="#343434" stroke="#343434" points="1410,-841.9913 1138,-841.9913 1138,-805.9913 1410,-805.9913 1410,-841.9913"/>
<text text-anchor="middle" x="1274" y="-820.2913" font-family="Courier,monospace" font-size="14.00" fill="#b6ecf3">hidebound.exporters.s3_exporter</text>
</g>
<!-- hidebound.core.tools&#45;&gt;hidebound.exporters.s3_exporter -->
<g id="edge22" class="edge">
<title>hidebound.core.tools&#45;&gt;hidebound.exporters.s3_exporter</title>
<path fill="none" stroke="#b6ecf3" d="M723.7223,-1140.1729C833.9662,-1141.2954 1011.8126,-1137.8068 1069,-1105.9913 1174.001,-1047.5754 1239.4273,-910.1832 1263.5157,-851.4262"/>
<polygon fill="#b6ecf3" stroke="#b6ecf3" points="1266.8027,-852.6328 1267.2809,-842.0488 1260.3068,-850.0245 1266.8027,-852.6328"/>
</g>
<!-- hidebound.server.app -->
<g id="node17" class="node">
<title>hidebound.server.app</title>
<polygon fill="#343434" stroke="#343434" points="2939,-1821.9913 2757,-1821.9913 2757,-1785.9913 2939,-1785.9913 2939,-1821.9913"/>
<text text-anchor="middle" x="2848" y="-1800.2913" font-family="Courier,monospace" font-size="14.00" fill="#b6ecf3">hidebound.server.app</text>
</g>
<!-- hidebound.core.tools&#45;&gt;hidebound.server.app -->
<g id="edge23" class="edge">
<title>hidebound.core.tools&#45;&gt;hidebound.server.app</title>
<path fill="none" stroke="#b6ecf3" d="M723.6195,-1138.2859C1013.6554,-1139.3112 1899.9724,-1143.1537 1961,-1151.9913 2060.6913,-1166.4278 2090.5957,-1165.7062 2179,-1213.9913 2198.0134,-1224.3761 2695.2287,-1667.6562 2819.8715,-1778.8821"/>
<polygon fill="#b6ecf3" stroke="#b6ecf3" points="2817.7423,-1781.673 2827.5337,-1785.7201 2822.4032,-1776.4503 2817.7423,-1781.673"/>
</g>
<!-- hidebound.core.tools&#45;&gt;hidebound.server.extension -->
<g id="edge24" class="edge">
<title>hidebound.core.tools&#45;&gt;hidebound.server.extension</title>
<path fill="none" stroke="#b6ecf3" d="M680.5582,-1156.0002C709.0247,-1165.7354 746.0558,-1176.8013 780,-1181.9913 1039.4533,-1221.6615 1720.8649,-1092.0438 1961,-1197.9913 2140.3665,-1277.1278 2273.196,-1489.7688 2315.8777,-1565.0898"/>
<polygon fill="#b6ecf3" stroke="#b6ecf3" points="2312.9161,-1566.9646 2320.8561,-1573.9795 2319.0236,-1563.5443 2312.9161,-1566.9646"/>
</g>
<!-- hidebound.core.traits&#45;&gt;hidebound.core.specifications -->
<g id="edge25" class="edge">
<title>hidebound.core.traits&#45;&gt;hidebound.core.specifications</title>
<path fill="none" stroke="#b6ecf3" d="M1019.5408,-462.5002C1055.2601,-467.2015 1096.6341,-472.647 1135.5048,-477.763"/>
<polygon fill="#b6ecf3" stroke="#b6ecf3" points="1135.4884,-481.291 1145.8596,-479.1259 1136.4019,-474.3508 1135.4884,-481.291"/>
</g>
<!-- hidebound.core.validators&#45;&gt;hidebound.core.config -->
<g id="edge26" class="edge">
<title>hidebound.core.validators&#45;&gt;hidebound.core.config</title>
<path fill="none" stroke="#b6ecf3" d="M714.3124,-623.9749C725.5244,-618.4878 735.9343,-611.3296 744,-601.9913 797.0436,-540.5791 717.2168,-474.4049 780,-422.9913 852.3491,-363.7442 1442.6946,-468.754 1443,-468.9913 1542.7421,-546.5155 1566.6354,-710.5566 1572.2825,-776.5802"/>
<polygon fill="#b6ecf3" stroke="#b6ecf3" points="1568.8017,-776.9649 1573.0659,-786.6637 1575.7807,-776.4226 1568.8017,-776.9649"/>
</g>
<!-- hidebound.core.validators&#45;&gt;hidebound.core.specification_base -->
<g id="edge27" class="edge">
<title>hidebound.core.validators&#45;&gt;hidebound.core.specification_base</title>
<path fill="none" stroke="#b6ecf3" d="M725.9849,-660.0378C732.7292,-664.0883 738.8782,-669.0118 744,-674.9913 822.1818,-766.2659 697.222,-855.8635 780,-942.9913 780.6729,-943.6996 781.358,-944.3927 782.0548,-945.071"/>
<polygon fill="#b6ecf3" stroke="#b6ecf3" points="780.0592,-947.9686 789.9434,-951.7835 784.5956,-942.6374 780.0592,-947.9686"/>
</g>
<!-- hidebound.core.validators&#45;&gt;hidebound.core.specifications -->
<g id="edge28" class="edge">
<title>hidebound.core.validators&#45;&gt;hidebound.core.specifications</title>
<path fill="none" stroke="#b6ecf3" d="M697.0916,-623.9031C713.0243,-618.09 729.6288,-610.815 744,-601.9913 762.7549,-590.4761 760.1906,-577.5795 780,-567.9913 891.643,-513.9539 1032.8418,-497.8322 1135.6627,-494.1219"/>
<polygon fill="#b6ecf3" stroke="#b6ecf3" points="1135.9236,-497.6153 1145.8043,-493.7916 1135.6956,-490.6191 1135.9236,-497.6153"/>
</g>
<!-- hidebound.core.validators&#45;&gt;hidebound.exporters.exporter_base -->
<g id="edge29" class="edge">
<title>hidebound.core.validators&#45;&gt;hidebound.exporters.exporter_base</title>
<path fill="none" stroke="#b6ecf3" d="M744.1426,-632.8152C752.4744,-632.1304 760.9645,-631.4326 769.4957,-630.7314"/>
<polygon fill="#b6ecf3" stroke="#b6ecf3" points="769.8429,-634.2147 779.5225,-629.9073 769.2694,-627.2383 769.8429,-634.2147"/>
</g>
<!-- hidebound.exporters.girder_exporter -->
<g id="node13" class="node">
<title>hidebound.exporters.girder_exporter</title>
<polygon fill="#343434" stroke="#343434" points="1426.5,-223.9913 1121.5,-223.9913 1121.5,-187.9913 1426.5,-187.9913 1426.5,-223.9913"/>
<text text-anchor="middle" x="1274" y="-202.2913" font-family="Courier,monospace" font-size="14.00" fill="#b6ecf3">hidebound.exporters.girder_exporter</text>
</g>
<!-- hidebound.core.validators&#45;&gt;hidebound.exporters.girder_exporter -->
<g id="edge30" class="edge">
<title>hidebound.core.validators&#45;&gt;hidebound.exporters.girder_exporter</title>
<path fill="none" stroke="#b6ecf3" d="M715.1208,-623.9105C726.086,-618.4317 736.2085,-611.2929 744,-601.9913 805.3695,-528.7273 719.0751,-463.6254 780,-389.9913 861.5516,-291.4275 1001.3259,-245.642 1111.4276,-224.3843"/>
<polygon fill="#b6ecf3" stroke="#b6ecf3" points="1112.132,-227.8133 1121.3131,-222.5258 1110.8386,-220.9338 1112.132,-227.8133"/>
</g>
<!-- hidebound.core.validators&#45;&gt;hidebound.exporters.local_disk_exporter -->
<g id="edge31" class="edge">
<title>hidebound.core.validators&#45;&gt;hidebound.exporters.local_disk_exporter</title>
<path fill="none" stroke="#b6ecf3" d="M682.2697,-623.8666C721.0619,-609.8948 769.9797,-592.6747 780,-590.9913 906.6693,-569.7106 944.4895,-559.4461 1069,-590.9913 1135.2012,-607.7636 1203.1953,-650.6503 1241.8571,-677.9388"/>
<polygon fill="#b6ecf3" stroke="#b6ecf3" points="1239.9428,-680.8727 1250.1123,-683.8446 1244.0157,-675.1796 1239.9428,-680.8727"/>
</g>
<!-- hidebound.core.validators&#45;&gt;hidebound.exporters.s3_exporter -->
<g id="edge32" class="edge">
<title>hidebound.core.validators&#45;&gt;hidebound.exporters.s3_exporter</title>
<path fill="none" stroke="#b6ecf3" d="M696.0597,-660.0238C815.7457,-693.9799 1073.8976,-767.2202 1200.6943,-803.1937"/>
<polygon fill="#b6ecf3" stroke="#b6ecf3" points="1199.7564,-806.5657 1210.3321,-805.9281 1201.667,-799.8315 1199.7564,-806.5657"/>
</g>
<!-- hidebound.exporters.exporter_base&#45;&gt;hidebound.exporters.girder_exporter -->
<g id="edge33" class="edge">
<title>hidebound.exporters.exporter_base&#45;&gt;hidebound.exporters.girder_exporter</title>
<path fill="none" stroke="#b6ecf3" d="M1049.2498,-599.9873C1056.3782,-596.1013 1063.051,-591.4794 1069,-585.9913 1108.9888,-549.101 1082.0816,-518.3344 1105,-468.9913 1147.9572,-376.505 1218.8945,-278.1063 1253.5999,-232.2944"/>
<polygon fill="#b6ecf3" stroke="#b6ecf3" points="1256.5618,-234.1822 1259.8414,-224.1077 1250.9951,-229.9381 1256.5618,-234.1822"/>
</g>
<!-- hidebound.exporters.exporter_base&#45;&gt;hidebound.exporters.local_disk_exporter -->
<g id="edge34" class="edge">
<title>hidebound.exporters.exporter_base&#45;&gt;hidebound.exporters.local_disk_exporter</title>
<path fill="none" stroke="#b6ecf3" d="M999.4765,-636.0114C1055.126,-649.3864 1131.0766,-667.6406 1188.985,-681.5585"/>
<polygon fill="#b6ecf3" stroke="#b6ecf3" points="1188.3055,-684.9948 1198.8466,-683.9287 1189.9414,-678.1886 1188.3055,-684.9948"/>
</g>
<!-- hidebound.exporters.exporter_base&#45;&gt;hidebound.exporters.s3_exporter -->
<g id="edge35" class="edge">
<title>hidebound.exporters.exporter_base&#45;&gt;hidebound.exporters.s3_exporter</title>
<path fill="none" stroke="#b6ecf3" d="M953.0501,-636.0276C988.4573,-658.2844 1050.7779,-697.0957 1105,-728.9913 1148.0095,-754.2912 1197.8817,-782.1482 1232.2441,-801.1158"/>
<polygon fill="#b6ecf3" stroke="#b6ecf3" points="1230.6213,-804.2178 1241.0686,-805.9797 1234.0003,-798.0873 1230.6213,-804.2178"/>
</g>
<!-- hidebound.exporters.girder_exporter&#45;&gt;hidebound.core.config -->
<g id="edge36" class="edge">
<title>hidebound.exporters.girder_exporter&#45;&gt;hidebound.core.config</title>
<path fill="none" stroke="#b6ecf3" d="M1425.7027,-224.1245C1431.9485,-228.0734 1437.7693,-232.6648 1443,-237.9913 1509.6561,-305.8679 1458.7145,-356.0463 1479,-448.9913 1505.9576,-572.5068 1547.9118,-717.4868 1565.641,-777.1752"/>
<polygon fill="#b6ecf3" stroke="#b6ecf3" points="1562.3531,-778.3976 1568.564,-786.981 1569.0615,-776.3978 1562.3531,-778.3976"/>
</g>
<!-- hidebound.exporters.girder_exporter&#45;&gt;hidebound.core.database -->
<g id="edge37" class="edge">
<title>hidebound.exporters.girder_exporter&#45;&gt;hidebound.core.database</title>
<path fill="none" stroke="#b6ecf3" d="M1419.8819,-224.1329C1428.0683,-228.0043 1435.8576,-232.5839 1443,-237.9913 1622.7034,-374.0429 1608.8445,-474.771 1669,-691.9913 1723.4941,-888.7685 1654.2982,-952.2031 1705,-1149.9913 1730.5479,-1249.6541 1788.8109,-1358.0271 1817.058,-1407.128"/>
<polygon fill="#b6ecf3" stroke="#b6ecf3" points="1814.0819,-1408.9727 1822.1287,-1415.8647 1820.1361,-1405.4589 1814.0819,-1408.9727"/>
</g>
<!-- hidebound.exporters.local_disk_exporter&#45;&gt;hidebound.core.config -->
<g id="edge38" class="edge">
<title>hidebound.exporters.local_disk_exporter&#45;&gt;hidebound.core.config</title>
<path fill="none" stroke="#b6ecf3" d="M1326.5993,-720.0504C1378.2789,-737.7937 1457.134,-764.8673 1511.8732,-783.6611"/>
<polygon fill="#b6ecf3" stroke="#b6ecf3" points="1510.8664,-787.0159 1521.4611,-786.9529 1513.1396,-780.3953 1510.8664,-787.0159"/>
</g>
<!-- hidebound.exporters.local_disk_exporter&#45;&gt;hidebound.core.database -->
<g id="edge39" class="edge">
<title>hidebound.exporters.local_disk_exporter&#45;&gt;hidebound.core.database</title>
<path fill="none" stroke="#b6ecf3" d="M1443.2238,-691.1411C1523.0149,-695.6277 1612.8161,-716.2857 1669,-777.9913 1724.9152,-839.4019 1683.6522,-1069.7289 1705,-1149.9913 1731.4455,-1249.4197 1789.272,-1357.9067 1817.2357,-1407.0816"/>
<polygon fill="#b6ecf3" stroke="#b6ecf3" points="1814.2429,-1408.8984 1822.2539,-1415.832 1820.3152,-1405.416 1814.2429,-1408.8984"/>
</g>
<!-- hidebound.exporters.s3_exporter&#45;&gt;hidebound.core.config -->
<g id="edge40" class="edge">
<title>hidebound.exporters.s3_exporter&#45;&gt;hidebound.core.config</title>
<path fill="none" stroke="#b6ecf3" d="M1410.3936,-815.353C1429.9429,-814.1149 1449.8031,-812.8571 1468.6311,-811.6647"/>
<polygon fill="#b6ecf3" stroke="#b6ecf3" points="1468.916,-815.1537 1478.6748,-811.0286 1468.4735,-808.1677 1468.916,-815.1537"/>
</g>
<!-- hidebound.exporters.s3_exporter&#45;&gt;hidebound.core.database -->
<g id="edge41" class="edge">
<title>hidebound.exporters.s3_exporter&#45;&gt;hidebound.core.database</title>
<path fill="none" stroke="#b6ecf3" d="M1292.2024,-842.0208C1349.2165,-898.6931 1528.8863,-1078.8073 1669,-1235.9913 1722.43,-1295.9308 1781.7522,-1369.4033 1812.3015,-1407.7907"/>
<polygon fill="#b6ecf3" stroke="#b6ecf3" points="1809.764,-1410.2234 1818.7242,-1415.8773 1815.2455,-1405.8698 1809.764,-1410.2234"/>
</g>
<!-- hidebound.server.api&#45;&gt;hidebound.server.extension -->
<g id="edge42" class="edge">
<title>hidebound.server.api&#45;&gt;hidebound.server.extension</title>
<path fill="none" stroke="#b6ecf3" d="M2102.9318,-1730.6588C2124.9255,-1704.7696 2168.4822,-1657.5835 2215,-1629.9913 2225.7446,-1623.6181 2237.6938,-1618.1608 2249.7165,-1613.5365"/>
<polygon fill="#b6ecf3" stroke="#b6ecf3" points="2251.1677,-1616.7324 2259.3526,-1610.0049 2248.7589,-1610.1599 2251.1677,-1616.7324"/>
</g>
<!-- hidebound.server.components -->
<g id="node18" class="node">
<title>hidebound.server.components</title>
<polygon fill="#343434" stroke="#343434" points="1952.5,-2001.9913 1713.5,-2001.9913 1713.5,-1965.9913 1952.5,-1965.9913 1952.5,-2001.9913"/>
<text text-anchor="middle" x="1833" y="-1980.2913" font-family="Courier,monospace" font-size="14.00" fill="#b6ecf3">hidebound.server.components</text>
</g>
<!-- hidebound.server.components&#45;&gt;hidebound.server.app -->
<g id="edge43" class="edge">
<title>hidebound.server.components&#45;&gt;hidebound.server.app</title>
<path fill="none" stroke="#b6ecf3" d="M1922.2316,-2002.0317C2089.451,-2031.1406 2456.9019,-2072.5398 2721,-1937.9913 2769.6081,-1913.2272 2809.7186,-1862.1617 2831.1451,-1830.7134"/>
<polygon fill="#b6ecf3" stroke="#b6ecf3" points="2834.3058,-1832.2815 2836.9344,-1822.0179 2828.4791,-1828.4022 2834.3058,-1832.2815"/>
</g>
<!-- hidebound.server.extensions -->
<g id="node20" class="node">
<title>hidebound.server.extensions</title>
<polygon fill="#343434" stroke="#343434" points="2721,-1741.9913 2482,-1741.9913 2482,-1705.9913 2721,-1705.9913 2721,-1741.9913"/>
<text text-anchor="middle" x="2601.5" y="-1720.2913" font-family="Courier,monospace" font-size="14.00" fill="#b6ecf3">hidebound.server.extensions</text>
</g>
<!-- hidebound.server.extension&#45;&gt;hidebound.server.extensions -->
<g id="edge44" class="edge">
<title>hidebound.server.extension&#45;&gt;hidebound.server.extensions</title>
<path fill="none" stroke="#b6ecf3" d="M2394.1318,-1610.077C2411.2717,-1615.7133 2429.6004,-1622.4545 2446,-1629.9913 2489.6981,-1650.0738 2536.4965,-1679.5732 2567.2057,-1700.1518"/>
<polygon fill="#b6ecf3" stroke="#b6ecf3" points="2565.5659,-1703.268 2575.811,-1705.9675 2569.4855,-1697.4682 2565.5659,-1703.268"/>
</g>
<!-- hidebound.server.extensions&#45;&gt;hidebound.server.api -->
<g id="edge45" class="edge">
<title>hidebound.server.extensions&#45;&gt;hidebound.server.api</title>
<path fill="none" stroke="#b6ecf3" d="M2481.6875,-1729.8244C2392.9227,-1734.146 2273.2883,-1739.9705 2189.2761,-1744.0606"/>
<polygon fill="#b6ecf3" stroke="#b6ecf3" points="2189.0297,-1740.5684 2179.2118,-1744.5506 2189.3702,-1747.5601 2189.0297,-1740.5684"/>
</g>
<!-- hidebound.server.extensions&#45;&gt;hidebound.server.app -->
<g id="edge46" class="edge">
<title>hidebound.server.extensions&#45;&gt;hidebound.server.app</title>
<path fill="none" stroke="#b6ecf3" d="M2657.1268,-1742.0446C2694.3034,-1754.1101 2743.3691,-1770.034 2782.4439,-1782.7155"/>
<polygon fill="#b6ecf3" stroke="#b6ecf3" points="2781.5575,-1786.1075 2792.1496,-1785.8654 2783.7184,-1779.4493 2781.5575,-1786.1075"/>
</g>
<!-- hidebound.server.server_tools&#45;&gt;hidebound.server.api -->
<g id="edge47" class="edge">
<title>hidebound.server.server_tools&#45;&gt;hidebound.server.api</title>
<path fill="none" stroke="#b6ecf3" d="M1870.9627,-1911.9772C1897.1286,-1898.9106 1932.2342,-1880.0687 1961,-1859.9913 1998.6474,-1833.7148 2037.8157,-1797.9908 2062.5218,-1774.2465"/>
<polygon fill="#b6ecf3" stroke="#b6ecf3" points="2064.9598,-1776.7577 2069.7071,-1767.2859 2060.0893,-1771.7299 2064.9598,-1776.7577"/>
</g>
<!-- hidebound.server.server_tools&#45;&gt;hidebound.server.app -->
<g id="edge48" class="edge">
<title>hidebound.server.server_tools&#45;&gt;hidebound.server.app</title>
<path fill="none" stroke="#b6ecf3" d="M1956.7825,-1948.0175C2132.3641,-1968.643 2461.2683,-1988.8745 2721,-1897.9913 2761.4185,-1883.8484 2799.7674,-1852.0008 2823.5414,-1829.2997"/>
<polygon fill="#b6ecf3" stroke="#b6ecf3" points="2826.0183,-1831.7729 2830.7323,-1822.2846 2821.1302,-1826.7623 2826.0183,-1831.7729"/>
</g>
<!-- dash -->
<g id="node22" class="node">
<title>dash</title>
<polygon fill="#343434" stroke="#343434" points="1601,-2255.9913 1547,-2255.9913 1547,-2219.9913 1601,-2219.9913 1601,-2255.9913"/>
<text text-anchor="middle" x="1574" y="-2234.2913" font-family="Courier,monospace" font-size="14.00" fill="#de958e">dash</text>
</g>
<!-- dash&#45;&gt;hidebound.server.app -->
<g id="edge49" class="edge">
<title>dash&#45;&gt;hidebound.server.app</title>
<path fill="none" stroke="#de958e" d="M1601.0172,-2236.3781C1677.4224,-2231.96 1901.6054,-2219.9913 2088,-2219.9913 2088,-2219.9913 2088,-2219.9913 2330.5,-2219.9913 2514.8723,-2219.9913 2585.082,-2204.5683 2721,-2079.9913 2796.6417,-2010.6612 2830.6585,-1887.3268 2842.6332,-1832.0957"/>
<polygon fill="#de958e" stroke="#de958e" points="2846.1246,-1832.4977 2844.74,-1821.9937 2839.272,-1831.0685 2846.1246,-1832.4977"/>
</g>
<!-- dash&#45;&gt;hidebound.server.components -->
<g id="edge50" class="edge">
<title>dash&#45;&gt;hidebound.server.components</title>
<path fill="none" stroke="#de958e" d="M1601.0277,-2235.1433C1621.2463,-2231.9289 1648.777,-2225.1566 1669,-2210.9913 1744.4414,-2158.1482 1798.0389,-2059.2003 1820.8076,-2011.325"/>
<polygon fill="#de958e" stroke="#de958e" points="1824.0137,-2012.7311 1825.0715,-2002.1891 1817.6706,-2009.7705 1824.0137,-2012.7311"/>
</g>
<!-- dash_cytoscape -->
<g id="node23" class="node">
<title>dash_cytoscape</title>
<polygon fill="#343434" stroke="#343434" points="1640,-2147.9913 1508,-2147.9913 1508,-2111.9913 1640,-2111.9913 1640,-2147.9913"/>
<text text-anchor="middle" x="1574" y="-2126.2913" font-family="Courier,monospace" font-size="14.00" fill="#de958e">dash_cytoscape</text>
</g>
<!-- dash_cytoscape&#45;&gt;hidebound.server.components -->
<g id="edge51" class="edge">
<title>dash_cytoscape&#45;&gt;hidebound.server.components</title>
<path fill="none" stroke="#de958e" d="M1640.2888,-2115.6791C1650.7359,-2111.2693 1660.7823,-2105.51 1669,-2097.9913 1698.3655,-2071.1238 1674.5845,-2041.6642 1705,-2015.9913 1709,-2012.615 1713.3058,-2009.5865 1717.8309,-2006.8706"/>
<polygon fill="#de958e" stroke="#de958e" points="1719.654,-2009.8636 1726.7806,-2002.0238 1716.3206,-2003.7083 1719.654,-2009.8636"/>
</g>
<!-- hidebound.server -->
<g id="node24" class="node">
<title>hidebound.server</title>
<polygon fill="#343434" stroke="#343434" points="1648.5,-2201.9913 1499.5,-2201.9913 1499.5,-2165.9913 1648.5,-2165.9913 1648.5,-2201.9913"/>
<text text-anchor="middle" x="1574" y="-2180.2913" font-family="Courier,monospace" font-size="14.00" fill="#a0d17b">hidebound.server</text>
</g>
<!-- hidebound.server&#45;&gt;hidebound.server.api -->
<g id="edge52" class="edge">
<title>hidebound.server&#45;&gt;hidebound.server.api</title>
<path fill="none" stroke="#a0d17b" d="M1648.8422,-2170.4386C1656.2216,-2166.9257 1663.1351,-2162.5182 1669,-2156.9913 1704.292,-2123.7335 1667.9254,-2085.2495 1705,-2053.9913 1793.2051,-1979.6241 1872.7949,-2085.3585 1961,-2010.9913 1998.0746,-1979.7331 1976.8713,-1952.1098 1997,-1907.9913 2019.109,-1859.5324 2051.2347,-1806.4315 2070.8103,-1775.4997"/>
<polygon fill="#a0d17b" stroke="#a0d17b" points="2073.7957,-1777.3275 2076.2188,-1767.0134 2067.8926,-1773.5653 2073.7957,-1777.3275"/>
</g>
<!-- hidebound.server&#45;&gt;hidebound.server.app -->
<g id="edge53" class="edge">
<title>hidebound.server&#45;&gt;hidebound.server.app</title>
<path fill="none" stroke="#a0d17b" d="M1648.8735,-2179.2516C1748.9108,-2173.3373 1931.7186,-2163.9913 2088,-2163.9913 2088,-2163.9913 2088,-2163.9913 2330.5,-2163.9913 2520.8687,-2163.9913 2574.793,-2109.9084 2721,-1987.9913 2774.5891,-1943.3052 2815.5401,-1870.647 2835.1775,-1831.3359"/>
<polygon fill="#a0d17b" stroke="#a0d17b" points="2838.4473,-1832.6173 2839.7056,-1822.0974 2832.1617,-1829.5365 2838.4473,-1832.6173"/>
</g>
<!-- hidebound.server&#45;&gt;hidebound.server.components -->
<g id="edge54" class="edge">
<title>hidebound.server&#45;&gt;hidebound.server.components</title>
<path fill="none" stroke="#a0d17b" d="M1648.8636,-2171.1627C1656.3315,-2167.5239 1663.2593,-2162.8888 1669,-2156.9913 1714.1136,-2110.6461 1659.1523,-2061.6104 1705,-2015.9913 1708.1054,-2012.9014 1711.4612,-2010.0945 1715.0127,-2007.5457"/>
<polygon fill="#a0d17b" stroke="#a0d17b" points="1717.0766,-2010.3808 1723.6288,-2002.0549 1713.3146,-2004.4776 1717.0766,-2010.3808"/>
</g>
<!-- hidebound.server&#45;&gt;hidebound.server.extension -->
<g id="edge55" class="edge">
<title>hidebound.server&#45;&gt;hidebound.server.extension</title>
<path fill="none" stroke="#a0d17b" d="M1648.9096,-2168.9776C1656.1027,-2165.7335 1662.9568,-2161.7885 1669,-2156.9913 1694.8651,-2136.4593 1678.1495,-2111.2168 1705,-2091.9913 1798.9904,-2024.6922 1872.6972,-2120.5968 1961,-2045.9913 1997.0825,-2015.5058 1971.0138,-1985.4378 1997,-1945.9913 2057.892,-1853.5585 2122.9853,-1871.4586 2179,-1775.9913 2212.8214,-1718.3486 2169.5742,-1679.0124 2215,-1629.9913 2220.4478,-1624.1124 2226.8203,-1619.1414 2233.7234,-1614.9384"/>
<polygon fill="#a0d17b" stroke="#a0d17b" points="2235.6289,-1617.8854 2242.7214,-1610.0147 2232.2687,-1611.7447 2235.6289,-1617.8854"/>
</g>
<!-- hidebound.server&#45;&gt;hidebound.server.extensions -->
<g id="edge56" class="edge">
<title>hidebound.server&#45;&gt;hidebound.server.extensions</title>
<path fill="none" stroke="#a0d17b" d="M1643.2223,-2165.9841C1754.0378,-2137.1491 1959.1207,-2083.7486 1961,-2082.9913 2205.2554,-1984.5598 2472.3946,-1811.2074 2566.4226,-1747.9525"/>
<polygon fill="#a0d17b" stroke="#a0d17b" points="2568.6438,-1750.6761 2574.975,-1742.181 2564.7281,-1744.8737 2568.6438,-1750.6761"/>
</g>
<!-- hidebound.server&#45;&gt;hidebound.server.server_tools -->
<g id="edge57" class="edge">
<title>hidebound.server&#45;&gt;hidebound.server.server_tools</title>
<path fill="none" stroke="#a0d17b" d="M1648.8279,-2171.7943C1656.3983,-2168.0508 1663.3598,-2163.2183 1669,-2156.9913 1729.632,-2090.0511 1642.0945,-2021.7997 1705,-1956.9913 1705.8107,-1956.1561 1706.6402,-1955.3435 1707.4875,-1954.553"/>
<polygon fill="#a0d17b" stroke="#a0d17b" points="1709.9914,-1957.0292 1715.5635,-1948.018 1705.5881,-1951.5876 1709.9914,-1957.0292"/>
</g>
<!-- dash.dependencies -->
<g id="node25" class="node">
<title>dash.dependencies</title>
<polygon fill="#343434" stroke="#343434" points="2680,-1467.9913 2523,-1467.9913 2523,-1431.9913 2680,-1431.9913 2680,-1467.9913"/>
<text text-anchor="middle" x="2601.5" y="-1446.2913" font-family="Courier,monospace" font-size="14.00" fill="#de958e">dash.dependencies</text>
</g>
<!-- dash.dependencies&#45;&gt;hidebound.server.app -->
<g id="edge58" class="edge">
<title>dash.dependencies&#45;&gt;hidebound.server.app</title>
<path fill="none" stroke="#de958e" d="M2680.0746,-1459.8682C2694.9588,-1464.6629 2709.4601,-1471.6976 2721,-1481.9913 2810.4753,-1561.8038 2837.624,-1712.8002 2845.2481,-1775.542"/>
<polygon fill="#de958e" stroke="#de958e" points="2841.8132,-1776.3132 2846.4195,-1785.8543 2848.7684,-1775.5231 2841.8132,-1776.3132"/>
</g>
<!-- rolling_pin.blob_etl -->
<g id="node26" class="node">
<title>rolling_pin.blob_etl</title>
<polygon fill="#343434" stroke="#343434" points="1665,-2055.9913 1483,-2055.9913 1483,-2019.9913 1665,-2019.9913 1665,-2055.9913"/>
<text text-anchor="middle" x="1574" y="-2034.2913" font-family="Courier,monospace" font-size="14.00" fill="#de958e">rolling_pin.blob_etl</text>
</g>
<!-- rolling_pin.blob_etl&#45;&gt;hidebound.server.components -->
<g id="edge59" class="edge">
<title>rolling_pin.blob_etl&#45;&gt;hidebound.server.components</title>
<path fill="none" stroke="#de958e" d="M1660.6033,-2019.935C1685.0102,-2014.8463 1711.7088,-2009.2798 1736.6489,-2004.08"/>
<polygon fill="#de958e" stroke="#de958e" points="1737.4032,-2007.498 1746.4783,-2002.0306 1735.9744,-2000.6454 1737.4032,-2007.498"/>
</g>
<!-- rolling_pin.blob_etl&#45;&gt;hidebound.server.server_tools -->
<g id="edge60" class="edge">
<title>rolling_pin.blob_etl&#45;&gt;hidebound.server.server_tools</title>
<path fill="none" stroke="#de958e" d="M1654.2622,-2019.8085C1659.4552,-2017.2464 1664.4275,-2014.3242 1669,-2010.9913 1692.3096,-1994.0012 1681.1181,-1973.167 1705,-1956.9913 1707.1801,-1955.5147 1709.4252,-1954.1164 1711.7251,-1952.7925"/>
<polygon fill="#de958e" stroke="#de958e" points="1713.5906,-1955.7673 1720.8452,-1948.0457 1710.3588,-1949.558 1713.5906,-1955.7673"/>
</g>
<!-- flask -->
<g id="node27" class="node">
<title>flask</title>
<polygon fill="#343434" stroke="#343434" points="1603,-1871.9913 1545,-1871.9913 1545,-1835.9913 1603,-1835.9913 1603,-1871.9913"/>
<text text-anchor="middle" x="1574" y="-1850.2913" font-family="Courier,monospace" font-size="14.00" fill="#de958e">flask</text>
</g>
<!-- flask&#45;&gt;hidebound.server.api -->
<g id="edge61" class="edge">
<title>flask&#45;&gt;hidebound.server.api</title>
<path fill="none" stroke="#de958e" d="M1599.9791,-1835.8046C1631.4844,-1814.1335 1683.0875,-1779.9666 1705,-1772.9913 1797.0465,-1743.6907 1907.6846,-1739.8814 1986.3289,-1742.0873"/>
<polygon fill="#de958e" stroke="#de958e" points="1986.6172,-1745.5982 1996.7237,-1742.4191 1986.8405,-1738.6018 1986.6172,-1745.5982"/>
</g>
<!-- flask&#45;&gt;hidebound.server.app -->
<g id="edge62" class="edge">
<title>flask&#45;&gt;hidebound.server.app</title>
<path fill="none" stroke="#de958e" d="M1603.2315,-1856.8951C1681.6374,-1864.4239 1903.1904,-1883.9913 2088,-1883.9913 2088,-1883.9913 2088,-1883.9913 2330.5,-1883.9913 2486.4467,-1883.9913 2665.7572,-1848.0718 2767.1017,-1824.37"/>
<polygon fill="#de958e" stroke="#de958e" points="2768.0331,-1827.7464 2776.9628,-1822.0446 2766.4264,-1820.9333 2768.0331,-1827.7464"/>
</g>
<!-- flask&#45;&gt;hidebound.server.components -->
<g id="edge63" class="edge">
<title>flask&#45;&gt;hidebound.server.components</title>
<path fill="none" stroke="#de958e" d="M1591.6735,-1872.3656C1615.264,-1895.7564 1659.3926,-1935.6817 1705,-1956.9913 1709.1634,-1958.9366 1713.4684,-1960.7431 1717.8664,-1962.4205"/>
<polygon fill="#de958e" stroke="#de958e" points="1717.0299,-1965.8377 1727.6246,-1965.8904 1719.3752,-1959.2423 1717.0299,-1965.8377"/>
</g>
<!-- flask&#45;&gt;hidebound.server.extension -->
<g id="edge64" class="edge">
<title>flask&#45;&gt;hidebound.server.extension</title>
<path fill="none" stroke="#de958e" d="M1603.2247,-1841.1329C1624.5941,-1830.2504 1652.6031,-1812.6401 1669,-1788.9913 1707.0804,-1734.0691 1654.1083,-1686.3111 1705,-1642.9913 1742.1142,-1611.3991 2032.9363,-1599.0544 2204.667,-1594.485"/>
<polygon fill="#de958e" stroke="#de958e" points="2204.8798,-1597.9808 2214.7851,-1594.2211 2204.6972,-1590.9831 2204.8798,-1597.9808"/>
</g>
<!-- flask&#45;&gt;hidebound.server.server_tools -->
<g id="edge65" class="edge">
<title>flask&#45;&gt;hidebound.server.server_tools</title>
<path fill="none" stroke="#de958e" d="M1603.3191,-1863.8709C1641.152,-1876.6147 1702.4598,-1897.2484 1705,-1897.9913 1718.3569,-1901.8974 1732.5832,-1905.7518 1746.5139,-1909.359"/>
<polygon fill="#de958e" stroke="#de958e" points="1746.033,-1912.8488 1756.5887,-1911.9392 1747.7697,-1906.0676 1746.033,-1912.8488"/>
</g>
<!-- jinja2 -->
<g id="node28" class="node">
<title>jinja2</title>
<polygon fill="#343434" stroke="#343434" points="1607,-2001.9913 1541,-2001.9913 1541,-1965.9913 1607,-1965.9913 1607,-2001.9913"/>
<text text-anchor="middle" x="1574" y="-1980.2913" font-family="Courier,monospace" font-size="14.00" fill="#de958e">jinja2</text>
</g>
<!-- jinja2&#45;&gt;hidebound.server.server_tools -->
<g id="edge66" class="edge">
<title>jinja2&#45;&gt;hidebound.server.server_tools</title>
<path fill="none" stroke="#de958e" d="M1607.0656,-1977.0973C1639.6542,-1970.3028 1691.0395,-1959.5892 1736.5765,-1950.095"/>
<polygon fill="#de958e" stroke="#de958e" points="1737.4211,-1953.4943 1746.4962,-1948.0268 1735.9923,-1946.6416 1737.4211,-1953.4943"/>
</g>
<!-- dash.exceptions -->
<g id="node29" class="node">
<title>dash.exceptions</title>
<polygon fill="#343434" stroke="#343434" points="2671.5,-1413.9913 2531.5,-1413.9913 2531.5,-1377.9913 2671.5,-1377.9913 2671.5,-1413.9913"/>
<text text-anchor="middle" x="2601.5" y="-1392.2913" font-family="Courier,monospace" font-size="14.00" fill="#de958e">dash.exceptions</text>
</g>
<!-- dash.exceptions&#45;&gt;hidebound.server.app -->
<g id="edge67" class="edge">
<title>dash.exceptions&#45;&gt;hidebound.server.app</title>
<path fill="none" stroke="#de958e" d="M2671.6615,-1399.6587C2689.5023,-1403.6419 2707.4383,-1410.7166 2721,-1422.9913 2775.1726,-1472.0231 2825.7683,-1696.1484 2842.3328,-1775.8002"/>
<polygon fill="#de958e" stroke="#de958e" points="2838.911,-1776.5371 2844.3554,-1785.6261 2845.7673,-1775.1258 2838.911,-1776.5371"/>
</g>
<!-- flask_healthz -->
<g id="node30" class="node">
<title>flask_healthz</title>
<polygon fill="#343434" stroke="#343434" points="2392.5,-1674.9913 2268.5,-1674.9913 2268.5,-1638.9913 2392.5,-1638.9913 2392.5,-1674.9913"/>
<text text-anchor="middle" x="2330.5" y="-1653.2913" font-family="Courier,monospace" font-size="14.00" fill="#de958e">flask_healthz</text>
</g>
<!-- flask_healthz&#45;&gt;hidebound.server.extensions -->
<g id="edge68" class="edge">
<title>flask_healthz&#45;&gt;hidebound.server.extensions</title>
<path fill="none" stroke="#de958e" d="M2392.6729,-1672.3625C2430.063,-1681.6065 2478.113,-1693.486 2518.6938,-1703.5189"/>
<polygon fill="#de958e" stroke="#de958e" points="2518.0215,-1706.958 2528.5693,-1705.9605 2519.7016,-1700.1626 2518.0215,-1706.958"/>
</g>
<!-- werkzeug.exceptions -->
<g id="node31" class="node">
<title>werkzeug.exceptions</title>
<polygon fill="#343434" stroke="#343434" points="1919.5,-1817.9913 1746.5,-1817.9913 1746.5,-1781.9913 1919.5,-1781.9913 1919.5,-1817.9913"/>
<text text-anchor="middle" x="1833" y="-1796.2913" font-family="Courier,monospace" font-size="14.00" fill="#de958e">werkzeug.exceptions</text>
</g>
<!-- werkzeug.exceptions&#45;&gt;hidebound.server.api -->
<g id="edge69" class="edge">
<title>werkzeug.exceptions&#45;&gt;hidebound.server.api</title>
<path fill="none" stroke="#de958e" d="M1919.6872,-1782.6539C1941.5716,-1778.277 1965.2493,-1773.5414 1987.7407,-1769.0432"/>
<polygon fill="#de958e" stroke="#de958e" points="1988.5187,-1772.457 1997.6381,-1767.0637 1987.1459,-1765.5929 1988.5187,-1772.457"/>
</g>
<!-- yaml -->
<g id="node32" class="node">
<title>yaml</title>
<polygon fill="#343434" stroke="#343434" points="1601,-1687.9913 1547,-1687.9913 1547,-1651.9913 1601,-1651.9913 1601,-1687.9913"/>
<text text-anchor="middle" x="1574" y="-1666.2913" font-family="Courier,monospace" font-size="14.00" fill="#de958e">yaml</text>
</g>
<!-- yaml&#45;&gt;hidebound.core.database -->
<g id="edge70" class="edge">
<title>yaml&#45;&gt;hidebound.core.database</title>
<path fill="none" stroke="#de958e" d="M1601.1901,-1666.3093C1621.7593,-1662.3247 1649.6694,-1654.2131 1669,-1637.9913 1694.595,-1616.5125 1685.4884,-1599.1159 1705,-1571.9913 1735.6983,-1529.3153 1778.3622,-1485.7786 1805.8299,-1459.3161"/>
<polygon fill="#de958e" stroke="#de958e" points="1808.3396,-1461.7589 1813.1517,-1452.3199 1803.5037,-1456.6979 1808.3396,-1461.7589"/>
</g>
<!-- yaml&#45;&gt;hidebound.server.extension -->
<g id="edge71" class="edge">
<title>yaml&#45;&gt;hidebound.server.extension</title>
<path fill="none" stroke="#de958e" d="M1601.2017,-1663.4509C1620.7591,-1658.1324 1647.3828,-1649.6044 1669,-1637.9913 1686.8562,-1628.3987 1685.924,-1616.8447 1705,-1609.9913 1870.0366,-1550.6992 2075.6381,-1559.0233 2205.032,-1573.2672"/>
<polygon fill="#de958e" stroke="#de958e" points="2204.6581,-1576.7471 2214.9877,-1574.3914 2205.4436,-1569.7913 2204.6581,-1576.7471"/>
</g>
<!-- yaml&#45;&gt;hidebound.server.server_tools -->
<g id="edge72" class="edge">
<title>yaml&#45;&gt;hidebound.server.server_tools</title>
<path fill="none" stroke="#de958e" d="M1601.0566,-1682.8035C1622.1047,-1693.9799 1650.7145,-1711.9993 1669,-1734.9913 1696.3304,-1769.3563 1679.0222,-1791.5928 1705,-1826.9913 1728.9075,-1859.5688 1765.5535,-1887.633 1793.5178,-1906.2025"/>
<polygon fill="#de958e" stroke="#de958e" points="1791.9737,-1909.3734 1802.2649,-1911.8916 1795.7903,-1903.5053 1791.9737,-1909.3734"/>
</g>
<!-- boto3 -->
<g id="node33" class="node">
<title>boto3</title>
<polygon fill="#343434" stroke="#343434" points="953.5,-933.9913 895.5,-933.9913 895.5,-897.9913 953.5,-897.9913 953.5,-933.9913"/>
<text text-anchor="middle" x="924.5" y="-912.2913" font-family="Courier,monospace" font-size="14.00" fill="#de958e">boto3</text>
</g>
<!-- boto3&#45;&gt;hidebound.exporters.s3_exporter -->
<g id="edge73" class="edge">
<title>boto3&#45;&gt;hidebound.exporters.s3_exporter</title>
<path fill="none" stroke="#de958e" d="M953.5122,-911.6415C982.8506,-906.9928 1029.3946,-898.9307 1069,-888.9913 1118.2829,-876.6232 1173.101,-859.0359 1213.642,-845.2737"/>
<polygon fill="#de958e" stroke="#de958e" points="1214.7741,-848.5856 1223.1069,-842.0422 1212.5124,-841.9611 1214.7741,-848.5856"/>
</g>
<!-- flasgger -->
<g id="node34" class="node">
<title>flasgger</title>
<polygon fill="#343434" stroke="#343434" points="1874.5,-1687.9913 1791.5,-1687.9913 1791.5,-1651.9913 1874.5,-1651.9913 1874.5,-1687.9913"/>
<text text-anchor="middle" x="1833" y="-1666.2913" font-family="Courier,monospace" font-size="14.00" fill="#de958e">flasgger</text>
</g>
<!-- flasgger&#45;&gt;hidebound.server.api -->
<g id="edge74" class="edge">
<title>flasgger&#45;&gt;hidebound.server.api</title>
<path fill="none" stroke="#de958e" d="M1874.6664,-1678.7454C1899.9159,-1684.4594 1932.6239,-1692.5914 1961,-1701.9913 1977.454,-1707.4419 1980.8176,-1710.7804 1997,-1716.9913 2006.1464,-1720.5017 2015.8646,-1724.0788 2025.4157,-1727.5088"/>
<polygon fill="#de958e" stroke="#de958e" points="2024.2889,-1730.8228 2034.8836,-1730.8818 2026.6381,-1724.2287 2024.2889,-1730.8228"/>
</g>
<!-- flasgger&#45;&gt;hidebound.server.extensions -->
<g id="edge75" class="edge">
<title>flasgger&#45;&gt;hidebound.server.extensions</title>
<path fill="none" stroke="#de958e" d="M1874.5904,-1672.9137C1985.9427,-1680.7381 2294.3894,-1702.4116 2471.655,-1714.8675"/>
<polygon fill="#de958e" stroke="#de958e" points="2471.6071,-1718.3727 2481.8279,-1715.5823 2472.0979,-1711.3899 2471.6071,-1718.3727"/>
</g>
<!-- requests -->
<g id="node35" class="node">
<title>requests</title>
<polygon fill="#343434" stroke="#343434" points="1615.5,-1779.9913 1532.5,-1779.9913 1532.5,-1743.9913 1615.5,-1743.9913 1615.5,-1779.9913"/>
<text text-anchor="middle" x="1574" y="-1758.2913" font-family="Courier,monospace" font-size="14.00" fill="#de958e">requests</text>
</g>
<!-- requests&#45;&gt;hidebound.core.database -->
<g id="edge76" class="edge">
<title>requests&#45;&gt;hidebound.core.database</title>
<path fill="none" stroke="#de958e" d="M1610.3411,-1743.8577C1629.8753,-1732.5978 1653.1368,-1716.5461 1669,-1696.9913 1695.3628,-1664.4934 1684.5508,-1646.5008 1705,-1609.9913 1736.8284,-1553.1654 1783.8343,-1493.0623 1811.1434,-1459.8644"/>
<polygon fill="#de958e" stroke="#de958e" points="1813.9559,-1461.9557 1817.6408,-1452.0223 1808.5656,-1457.4897 1813.9559,-1461.9557"/>
</g>
<!-- requests&#45;&gt;hidebound.server.server_tools -->
<g id="edge77" class="edge">
<title>requests&#45;&gt;hidebound.server.server_tools</title>
<path fill="none" stroke="#de958e" d="M1602.2106,-1780.2901C1649.4308,-1810.9194 1744.4201,-1872.5341 1796.6064,-1906.3846"/>
<polygon fill="#de958e" stroke="#de958e" points="1794.9219,-1909.4638 1805.2162,-1911.9694 1798.7313,-1903.5911 1794.9219,-1909.4638"/>
</g>
<!-- dask.distributed -->
<g id="node36" class="node">
<title>dask.distributed</title>
<polygon fill="#343434" stroke="#343434" points="1648.5,-1367.9913 1499.5,-1367.9913 1499.5,-1331.9913 1648.5,-1331.9913 1648.5,-1367.9913"/>
<text text-anchor="middle" x="1574" y="-1346.2913" font-family="Courier,monospace" font-size="14.00" fill="#de958e">dask.distributed</text>
</g>
<!-- dask.distributed&#45;&gt;hidebound.core.database -->
<g id="edge78" class="edge">
<title>dask.distributed&#45;&gt;hidebound.core.database</title>
<path fill="none" stroke="#de958e" d="M1629.562,-1368.0114C1669.9657,-1381.1153 1724.8102,-1398.9027 1767.3735,-1412.707"/>
<polygon fill="#de958e" stroke="#de958e" points="1766.4916,-1416.1004 1777.0836,-1415.8563 1768.6512,-1409.4419 1766.4916,-1416.1004"/>
</g>
<!-- pandasql -->
<g id="node37" class="node">
<title>pandasql</title>
<polygon fill="#343434" stroke="#343434" points="1615.5,-1313.9913 1532.5,-1313.9913 1532.5,-1277.9913 1615.5,-1277.9913 1615.5,-1313.9913"/>
<text text-anchor="middle" x="1574" y="-1292.2913" font-family="Courier,monospace" font-size="14.00" fill="#de958e">pandasql</text>
</g>
<!-- pandasql&#45;&gt;hidebound.core.database -->
<g id="edge79" class="edge">
<title>pandasql&#45;&gt;hidebound.core.database</title>
<path fill="none" stroke="#de958e" d="M1615.7112,-1304.7889C1632.6834,-1309.1443 1652.2141,-1315.1716 1669,-1322.9913 1719.4939,-1346.5139 1771.7645,-1384.7237 1803.3371,-1409.6076"/>
<polygon fill="#de958e" stroke="#de958e" points="1801.2861,-1412.4485 1811.2894,-1415.9393 1805.6464,-1406.9723 1801.2861,-1412.4485"/>
</g>
<!-- botocore.exceptions -->
<g id="node38" class="node">
<title>botocore.exceptions</title>
<polygon fill="#343434" stroke="#343434" points="1011,-879.9913 838,-879.9913 838,-843.9913 1011,-843.9913 1011,-879.9913"/>
<text text-anchor="middle" x="924.5" y="-858.2913" font-family="Courier,monospace" font-size="14.00" fill="#de958e">botocore.exceptions</text>
</g>
<!-- botocore.exceptions&#45;&gt;hidebound.exporters.s3_exporter -->
<g id="edge80" class="edge">
<title>botocore.exceptions&#45;&gt;hidebound.exporters.s3_exporter</title>
<path fill="none" stroke="#de958e" d="M1011.3423,-852.5492C1046.5665,-848.7194 1088.2342,-844.189 1127.8806,-839.8784"/>
<polygon fill="#de958e" stroke="#de958e" points="1128.3485,-843.3482 1137.9115,-838.7878 1127.5918,-836.3893 1128.3485,-843.3482"/>
</g>
<!-- lunchbox.tools -->
<g id="node39" class="node">
<title>lunchbox.tools</title>
<polygon fill="#343434" stroke="#343434" points="990.5,-1741.9913 858.5,-1741.9913 858.5,-1705.9913 990.5,-1705.9913 990.5,-1741.9913"/>
<text text-anchor="middle" x="924.5" y="-1720.2913" font-family="Courier,monospace" font-size="14.00" fill="#de958e">lunchbox.tools</text>
</g>
<!-- lunchbox.tools&#45;&gt;hidebound.core.database_tools -->
<g id="edge81" class="edge">
<title>lunchbox.tools&#45;&gt;hidebound.core.database_tools</title>
<path fill="none" stroke="#de958e" d="M990.6084,-1720.8662C1016.3949,-1717.3545 1045.3721,-1710.4251 1069,-1696.9913 1158.7646,-1645.9549 1229.0195,-1540.7499 1258.6677,-1491.0834"/>
<polygon fill="#de958e" stroke="#de958e" points="1261.8382,-1492.5966 1263.8885,-1482.202 1255.8035,-1489.0492 1261.8382,-1492.5966"/>
</g>
<!-- lunchbox.tools&#45;&gt;hidebound.server.server_tools -->
<g id="edge82" class="edge">
<title>lunchbox.tools&#45;&gt;hidebound.server.server_tools</title>
<path fill="none" stroke="#de958e" d="M978.5767,-1742.0089C1077.0589,-1774.2116 1292.7046,-1841.9202 1479,-1880.9913 1549.6094,-1895.8 1629.1105,-1907.2653 1694.8578,-1915.3693"/>
<polygon fill="#de958e" stroke="#de958e" points="1694.5211,-1918.8541 1704.8713,-1916.5908 1695.3687,-1911.9056 1694.5211,-1918.8541"/>
</g>
<!-- girder_client -->
<g id="node40" class="node">
<title>girder_client</title>
<polygon fill="#343434" stroke="#343434" points="986.5,-147.9913 862.5,-147.9913 862.5,-111.9913 986.5,-111.9913 986.5,-147.9913"/>
<text text-anchor="middle" x="924.5" y="-126.2913" font-family="Courier,monospace" font-size="14.00" fill="#de958e">girder_client</text>
</g>
<!-- girder_client&#45;&gt;hidebound.exporters.girder_exporter -->
<g id="edge83" class="edge">
<title>girder_client&#45;&gt;hidebound.exporters.girder_exporter</title>
<path fill="none" stroke="#de958e" d="M986.5809,-143.491C1040.5595,-155.2288 1119.5407,-172.4036 1181.056,-185.7803"/>
<polygon fill="#de958e" stroke="#de958e" points="1180.6446,-189.2726 1191.16,-187.9774 1182.1321,-182.4324 1180.6446,-189.2726"/>
</g>
<!-- numpy -->
<g id="node41" class="node">
<title>numpy</title>
<polygon fill="#343434" stroke="#343434" points="953.5,-1687.9913 895.5,-1687.9913 895.5,-1651.9913 953.5,-1651.9913 953.5,-1687.9913"/>
<text text-anchor="middle" x="924.5" y="-1666.2913" font-family="Courier,monospace" font-size="14.00" fill="#de958e">numpy</text>
</g>
<!-- numpy&#45;&gt;hidebound.core.database -->
<g id="edge84" class="edge">
<title>numpy&#45;&gt;hidebound.core.database</title>
<path fill="none" stroke="#de958e" d="M953.7608,-1667.7616C1074.7479,-1658.2362 1535.8135,-1618.8353 1669,-1561.9913 1725.6535,-1537.8116 1779.6087,-1489.0398 1809.3167,-1459.1738"/>
<polygon fill="#de958e" stroke="#de958e" points="1811.8336,-1461.6061 1816.3341,-1452.0146 1806.8345,-1456.7061 1811.8336,-1461.6061"/>
</g>
<!-- numpy&#45;&gt;hidebound.core.database_tools -->
<g id="edge85" class="edge">
<title>numpy&#45;&gt;hidebound.core.database_tools</title>
<path fill="none" stroke="#de958e" d="M953.6811,-1658.0137C983.5566,-1645.2603 1030.8825,-1623.6813 1069,-1599.9913 1086.2158,-1589.2917 1088.4423,-1583.6835 1105,-1571.9913 1148.4728,-1541.2929 1200.2766,-1508.7537 1234.9675,-1487.5142"/>
<polygon fill="#de958e" stroke="#de958e" points="1237.1264,-1490.2971 1243.8394,-1482.1004 1233.4801,-1484.3217 1237.1264,-1490.2971"/>
</g>
<!-- numpy&#45;&gt;hidebound.server.api -->
<g id="edge86" class="edge">
<title>numpy&#45;&gt;hidebound.server.api</title>
<path fill="none" stroke="#de958e" d="M953.7895,-1671.5655C1076.6331,-1678.2354 1562.3918,-1705.2833 1961,-1736.9913 1969.3306,-1737.654 1977.9647,-1738.382 1986.6318,-1739.1418"/>
<polygon fill="#de958e" stroke="#de958e" points="1986.5344,-1742.6468 1996.8051,-1740.0462 1987.1543,-1735.6743 1986.5344,-1742.6468"/>
</g>
<!-- json_logging -->
<g id="node42" class="node">
<title>json_logging</title>
<polygon fill="#343434" stroke="#343434" points="448,-1741.9913 332,-1741.9913 332,-1705.9913 448,-1705.9913 448,-1741.9913"/>
<text text-anchor="middle" x="390" y="-1720.2913" font-family="Courier,monospace" font-size="14.00" fill="#de958e">json_logging</text>
</g>
<!-- json_logging&#45;&gt;hidebound.core.logging -->
<g id="edge87" class="edge">
<title>json_logging&#45;&gt;hidebound.core.logging</title>
<path fill="none" stroke="#de958e" d="M448.0848,-1735.0094C471.9205,-1739.5309 500.2746,-1744.9094 527.5136,-1750.0764"/>
<polygon fill="#de958e" stroke="#de958e" points="527.011,-1753.5433 537.4881,-1751.9684 528.3156,-1746.666 527.011,-1753.5433"/>
</g>
<!-- hidebound.exporters -->
<g id="node43" class="node">
<title>hidebound.exporters</title>
<polygon fill="#343434" stroke="#343434" points="719,-328.9913 546,-328.9913 546,-292.9913 719,-292.9913 719,-328.9913"/>
<text text-anchor="middle" x="632.5" y="-307.2913" font-family="Courier,monospace" font-size="14.00" fill="#a0d17b">hidebound.exporters</text>
</g>
<!-- hidebound.exporters&#45;&gt;hidebound.exporters.exporter_base -->
<g id="edge88" class="edge">
<title>hidebound.exporters&#45;&gt;hidebound.exporters.exporter_base</title>
<path fill="none" stroke="#a0d17b" d="M653.0401,-329.3293C676.38,-350.6686 714.9901,-387.5241 744,-422.9913 762.2621,-445.3183 761.5766,-454.7972 780,-476.9913 816.3757,-520.8119 864.7858,-565.8067 895.301,-592.8329"/>
<polygon fill="#a0d17b" stroke="#a0d17b" points="893.2117,-595.6565 903.0315,-599.6341 897.8354,-590.4009 893.2117,-595.6565"/>
</g>
<!-- hidebound.exporters&#45;&gt;hidebound.exporters.girder_exporter -->
<g id="edge89" class="edge">
<title>hidebound.exporters&#45;&gt;hidebound.exporters.girder_exporter</title>
<path fill="none" stroke="#a0d17b" d="M638.6988,-292.9278C654.4217,-250.3401 700.3607,-144.1475 780,-102.9913 894.108,-44.0223 944.0204,-73.359 1069,-102.9913 1133.3146,-118.2401 1200.3906,-157.0012 1239.622,-182.3837"/>
<polygon fill="#a0d17b" stroke="#a0d17b" points="1237.7502,-185.3416 1248.0322,-187.8972 1241.588,-179.4874 1237.7502,-185.3416"/>
</g>
<!-- hidebound.exporters&#45;&gt;hidebound.exporters.local_disk_exporter -->
<g id="edge90" class="edge">
<title>hidebound.exporters&#45;&gt;hidebound.exporters.local_disk_exporter</title>
<path fill="none" stroke="#a0d17b" d="M682.6851,-292.9125C771.9426,-264.3086 959.2018,-220.8418 1069,-313.9913 1140.8757,-374.9685 1062.8492,-438.6844 1105,-522.9913 1137.7422,-588.4799 1202.3448,-646.4795 1241.5033,-677.686"/>
<polygon fill="#a0d17b" stroke="#a0d17b" points="1239.4268,-680.5056 1249.4525,-683.9315 1243.7515,-675.0013 1239.4268,-680.5056"/>
</g>
<!-- hidebound.exporters&#45;&gt;hidebound.exporters.s3_exporter -->
<g id="edge91" class="edge">
<title>hidebound.exporters&#45;&gt;hidebound.exporters.s3_exporter</title>
<path fill="none" stroke="#a0d17b" d="M719.3229,-306.5147C819.6236,-306.5214 981.9791,-323.4462 1069,-422.9913 1159.1267,-526.0892 1029.0524,-615.0441 1105,-728.9913 1128.2192,-763.828 1168.7721,-787.2393 1204.3331,-802.1037"/>
<polygon fill="#a0d17b" stroke="#a0d17b" points="1203.1472,-805.3993 1213.7309,-805.886 1205.7608,-798.9054 1203.1472,-805.3993"/>
</g>
<!-- schematics -->
<g id="node44" class="node">
<title>schematics</title>
<polygon fill="#343434" stroke="#343434" points="682,-592.9913 583,-592.9913 583,-556.9913 682,-556.9913 682,-592.9913"/>
<text text-anchor="middle" x="632.5" y="-571.2913" font-family="Courier,monospace" font-size="14.00" fill="#de958e">schematics</text>
</g>
<!-- schematics&#45;&gt;hidebound.core.config -->
<g id="edge92" class="edge">
<title>schematics&#45;&gt;hidebound.core.config</title>
<path fill="none" stroke="#de958e" d="M658.6987,-556.8535C683.2224,-538.8381 719.6401,-509.2985 744,-476.9913 766.5019,-447.1483 748.4172,-420.9779 780,-400.9913 831.6775,-368.2882 1422.304,-401.4542 1443,-416.9913 1458.1616,-428.3736 1539.0223,-690.2172 1565.5579,-777.1927"/>
<polygon fill="#de958e" stroke="#de958e" points="1562.254,-778.3582 1568.5165,-786.9041 1568.9502,-776.3181 1562.254,-778.3582"/>
</g>
<!-- schematics&#45;&gt;hidebound.core.specification_base -->
<g id="edge93" class="edge">
<title>schematics&#45;&gt;hidebound.core.specification_base</title>
<path fill="none" stroke="#de958e" d="M682.2396,-580.8538C704.5284,-586.1202 729.0989,-596.0989 744,-614.9913 834.8206,-730.1381 680.2829,-835.4568 780,-942.9913 780.6643,-943.7077 781.341,-944.4087 782.0297,-945.0946"/>
<polygon fill="#de958e" stroke="#de958e" points="779.9961,-947.9642 789.8408,-951.8798 784.5867,-942.6796 779.9961,-947.9642"/>
</g>
<!-- schematics&#45;&gt;hidebound.exporters.exporter_base -->
<g id="edge94" class="edge">
<title>schematics&#45;&gt;hidebound.exporters.exporter_base</title>
<path fill="none" stroke="#de958e" d="M682.0338,-582.2857C712.484,-586.7698 753.0672,-592.7461 792.3081,-598.5247"/>
<polygon fill="#de958e" stroke="#de958e" points="791.8454,-601.9942 802.2486,-599.9885 792.8653,-595.0689 791.8454,-601.9942"/>
</g>
<!-- schematics&#45;&gt;hidebound.exporters.girder_exporter -->
<g id="edge95" class="edge">
<title>schematics&#45;&gt;hidebound.exporters.girder_exporter</title>
<path fill="none" stroke="#de958e" d="M662.9503,-556.9728C688.9714,-539.8473 725.1087,-511.6023 744,-476.9913 795.4649,-382.7017 700.8903,-310.6605 780,-237.9913 894.6216,-132.7014 1094.2852,-160.3637 1201.3124,-185.5651"/>
<polygon fill="#de958e" stroke="#de958e" points="1200.5181,-188.9738 1211.0598,-187.914 1202.1581,-182.1686 1200.5181,-188.9738"/>
</g>
<!-- schematics.types -->
<g id="node45" class="node">
<title>schematics.types</title>
<polygon fill="#343434" stroke="#343434" points="707,-719.9913 558,-719.9913 558,-683.9913 707,-683.9913 707,-719.9913"/>
<text text-anchor="middle" x="632.5" y="-698.2913" font-family="Courier,monospace" font-size="14.00" fill="#de958e">schematics.types</text>
</g>
<!-- schematics.types&#45;&gt;hidebound.core.config -->
<g id="edge96" class="edge">
<title>schematics.types&#45;&gt;hidebound.core.config</title>
<path fill="none" stroke="#de958e" d="M707.1649,-710.1596C873.8064,-728.3902 1276.4672,-772.4412 1468.5883,-793.4593"/>
<polygon fill="#de958e" stroke="#de958e" points="1468.3749,-796.9567 1478.6962,-794.5651 1469.1362,-789.9982 1468.3749,-796.9567"/>
</g>
<!-- schematics.types&#45;&gt;hidebound.core.specification_base -->
<g id="edge97" class="edge">
<title>schematics.types&#45;&gt;hidebound.core.specification_base</title>
<path fill="none" stroke="#de958e" d="M652.6074,-720.0219C677.3547,-743.2187 719.1429,-785.814 744,-829.9913 769.8471,-875.9282 740.4965,-908.0951 780,-942.9913 781.1655,-944.0209 782.3575,-945.0168 783.5739,-945.98"/>
<polygon fill="#de958e" stroke="#de958e" points="781.7466,-948.974 791.9371,-951.8732 785.7788,-943.252 781.7466,-948.974"/>
</g>
<!-- schematics.types&#45;&gt;hidebound.core.specifications -->
<g id="edge98" class="edge">
<title>schematics.types&#45;&gt;hidebound.core.specifications</title>
<path fill="none" stroke="#de958e" d="M707.2854,-696.7042C814.2068,-688.3873 1004.926,-670.5222 1069,-644.9913 1141.388,-616.1476 1211.7328,-555.8999 1248.2158,-521.5048"/>
<polygon fill="#de958e" stroke="#de958e" points="1251.0829,-523.6064 1255.8986,-514.1693 1246.2489,-518.5436 1251.0829,-523.6064"/>
</g>
<!-- schematics.types&#45;&gt;hidebound.exporters.exporter_base -->
<g id="edge99" class="edge">
<title>schematics.types&#45;&gt;hidebound.exporters.exporter_base</title>
<path fill="none" stroke="#de958e" d="M701.3428,-683.9402C715.6243,-679.5509 730.4446,-674.5109 744,-668.9913 760.7559,-662.1685 763.0162,-656.2251 780,-649.9913 791.6102,-645.7298 803.9627,-641.9396 816.368,-638.5941"/>
<polygon fill="#de958e" stroke="#de958e" points="817.5186,-641.9113 826.315,-636.0058 815.7558,-635.1369 817.5186,-641.9113"/>
</g>
<!-- schematics.types&#45;&gt;hidebound.exporters.girder_exporter -->
<g id="edge100" class="edge">
<title>schematics.types&#45;&gt;hidebound.exporters.girder_exporter</title>
<path fill="none" stroke="#de958e" d="M707.201,-689.4773C720.5079,-684.7008 733.4643,-678.1034 744,-668.9913 772.8784,-644.015 752.2478,-617.2133 780,-590.9913 880.3623,-496.1625 959.0337,-560.4928 1069,-476.9913 1160.5255,-407.4926 1231.4628,-286.8423 1260.1475,-233.1312"/>
<polygon fill="#de958e" stroke="#de958e" points="1263.2853,-234.6844 1264.8527,-224.2061 1257.0931,-231.4199 1263.2853,-234.6844"/>
</g>
<!-- schematics.types&#45;&gt;hidebound.exporters.local_disk_exporter -->
<g id="edge101" class="edge">
<title>schematics.types&#45;&gt;hidebound.exporters.local_disk_exporter</title>
<path fill="none" stroke="#de958e" d="M707.029,-701.9913C801.2957,-701.9913 966.7406,-701.9913 1094.6637,-701.9913"/>
<polygon fill="#de958e" stroke="#de958e" points="1094.972,-705.4914 1104.9719,-701.9913 1094.9719,-698.4914 1094.972,-705.4914"/>
</g>
<!-- schematics.types&#45;&gt;hidebound.exporters.s3_exporter -->
<g id="edge102" class="edge">
<title>schematics.types&#45;&gt;hidebound.exporters.s3_exporter</title>
<path fill="none" stroke="#de958e" d="M654.3088,-720.0532C681.709,-741.5642 731.0903,-776.5248 780,-791.9913 892.9922,-827.7223 1027.583,-834.2456 1127.7234,-832.6592"/>
<polygon fill="#de958e" stroke="#de958e" points="1127.9842,-836.155 1137.9168,-832.4679 1127.8528,-829.1562 1127.9842,-836.155"/>
</g>
<!-- wrapt -->
<g id="node46" class="node">
<title>wrapt</title>
<polygon fill="#343434" stroke="#343434" points="419,-659.9913 361,-659.9913 361,-623.9913 419,-623.9913 419,-659.9913"/>
<text text-anchor="middle" x="390" y="-638.2913" font-family="Courier,monospace" font-size="14.00" fill="#de958e">wrapt</text>
</g>
<!-- wrapt&#45;&gt;hidebound.core.validators -->
<g id="edge103" class="edge">
<title>wrapt&#45;&gt;hidebound.core.validators</title>
<path fill="none" stroke="#de958e" d="M419.2512,-641.9913C442.4686,-641.9913 476.6038,-641.9913 510.7879,-641.9913"/>
<polygon fill="#de958e" stroke="#de958e" points="510.9021,-645.4914 520.9021,-641.9913 510.902,-638.4914 510.9021,-645.4914"/>
</g>
<!-- pyparsing -->
<g id="node47" class="node">
<title>pyparsing</title>
<polygon fill="#343434" stroke="#343434" points="238.5,-861.9913 147.5,-861.9913 147.5,-825.9913 238.5,-825.9913 238.5,-861.9913"/>
<text text-anchor="middle" x="193" y="-840.2913" font-family="Courier,monospace" font-size="14.00" fill="#de958e">pyparsing</text>
</g>
<!-- pyparsing&#45;&gt;hidebound.core.parser -->
<g id="edge104" class="edge">
<title>pyparsing&#45;&gt;hidebound.core.parser</title>
<path fill="none" stroke="#de958e" d="M235.2614,-862.0114C265.411,-874.867 306.132,-892.2303 338.2331,-905.9181"/>
<polygon fill="#de958e" stroke="#de958e" points="336.8975,-909.1535 347.469,-909.8563 339.6431,-902.7144 336.8975,-909.1535"/>
</g>
<!-- pyparsing&#45;&gt;hidebound.core.specification_base -->
<g id="edge105" class="edge">
<title>pyparsing&#45;&gt;hidebound.core.specification_base</title>
<path fill="none" stroke="#de958e" d="M238.7876,-851.214C333.3295,-866.2203 556.94,-902.1945 744,-935.9913 760.04,-938.8893 763.9887,-939.9388 780,-942.9913 792.0666,-945.2917 804.704,-947.6816 817.2709,-950.046"/>
<polygon fill="#de958e" stroke="#de958e" points="816.8476,-953.5276 827.3219,-951.9345 818.1402,-946.648 816.8476,-953.5276"/>
</g>
<!-- pyparsing&#45;&gt;hidebound.core.validators -->
<g id="edge106" class="edge">
<title>pyparsing&#45;&gt;hidebound.core.validators</title>
<path fill="none" stroke="#de958e" d="M194.6599,-825.8017C199.8769,-780.6234 220.3518,-663.4602 295,-614.9913 333.9459,-589.7039 453.3712,-605.9136 539.1034,-622.0311"/>
<polygon fill="#de958e" stroke="#de958e" points="538.6424,-625.5062 549.1212,-623.9425 539.9545,-618.6303 538.6424,-625.5062"/>
</g>
<!-- pandas -->
<g id="node48" class="node">
<title>pandas</title>
<polygon fill="#343434" stroke="#343434" points="423,-1451.9913 357,-1451.9913 357,-1415.9913 423,-1415.9913 423,-1451.9913"/>
<text text-anchor="middle" x="390" y="-1430.2913" font-family="Courier,monospace" font-size="14.00" fill="#de958e">pandas</text>
</g>
<!-- pandas&#45;&gt;hidebound.core.database -->
<g id="edge107" class="edge">
<title>pandas&#45;&gt;hidebound.core.database</title>
<path fill="none" stroke="#de958e" d="M423.1968,-1433.9913C598.1728,-1433.9913 1416.7886,-1433.9913 1719.8179,-1433.9913"/>
<polygon fill="#de958e" stroke="#de958e" points="1719.9422,-1437.4914 1729.9421,-1433.9913 1719.9421,-1430.4914 1719.9422,-1437.4914"/>
</g>
<!-- pandas&#45;&gt;hidebound.core.database_tools -->
<g id="edge108" class="edge">
<title>pandas&#45;&gt;hidebound.core.database_tools</title>
<path fill="none" stroke="#de958e" d="M423.0445,-1438.3107C449.4922,-1441.5773 487.56,-1445.8531 521,-1447.9913 735.3028,-1461.6944 984.5368,-1464.4007 1135.6914,-1464.58"/>
<polygon fill="#de958e" stroke="#de958e" points="1135.9507,-1468.0801 1145.9537,-1464.5885 1135.9566,-1461.0801 1135.9507,-1468.0801"/>
</g>
<!-- pandas&#45;&gt;hidebound.core.tools -->
<g id="edge109" class="edge">
<title>pandas&#45;&gt;hidebound.core.tools</title>
<path fill="none" stroke="#de958e" d="M404.8044,-1415.9208C446.1522,-1365.4509 562.9858,-1222.8416 611.2422,-1163.939"/>
<polygon fill="#de958e" stroke="#de958e" points="613.9512,-1166.1551 617.5812,-1156.2015 608.5364,-1161.7189 613.9512,-1166.1551"/>
</g>
<!-- pandas&#45;&gt;hidebound.core.validators -->
<g id="edge110" class="edge">
<title>pandas&#45;&gt;hidebound.core.validators</title>
<path fill="none" stroke="#de958e" d="M398.3026,-1415.8885C417.4347,-1373.2385 464.5462,-1262.6721 485,-1164.9913 507.3769,-1058.1266 452.5005,-760.0125 521,-674.9913 523.632,-671.7244 526.5715,-668.7705 529.7511,-666.1002"/>
<polygon fill="#de958e" stroke="#de958e" points="532.0756,-668.7378 538.1112,-660.0302 527.9628,-663.0734 532.0756,-668.7378"/>
</g>
<!-- pandas&#45;&gt;hidebound.server.components -->
<g id="edge111" class="edge">
<title>pandas&#45;&gt;hidebound.server.components</title>
<path fill="none" stroke="#de958e" d="M423.1333,-1442.3502C444.3614,-1449.5086 470.5528,-1462.0709 485,-1482.9913 564.8215,-1598.578 449.5826,-1676.0313 521,-1796.9913 632.8877,-1986.496 704.4299,-2083.9913 924.5,-2083.9913 924.5,-2083.9913 924.5,-2083.9913 1274,-2083.9913 1361.8793,-2083.9913 1593.252,-2109.5448 1669,-2064.9913 1692.6997,-2051.0516 1682.3962,-2028.7413 1705.2015,-2008.1813"/>
<polygon fill="#de958e" stroke="#de958e" points="1707.62,-2010.7368 1713.4162,-2001.868 1703.3545,-2005.1866 1707.62,-2010.7368"/>
</g>
<!-- jsoncomment -->
<g id="node49" class="node">
<title>jsoncomment</title>
<polygon fill="#343434" stroke="#343434" points="443.5,-63.9913 336.5,-63.9913 336.5,-27.9913 443.5,-27.9913 443.5,-63.9913"/>
<text text-anchor="middle" x="390" y="-42.2913" font-family="Courier,monospace" font-size="14.00" fill="#de958e">jsoncomment</text>
</g>
<!-- jsoncomment&#45;&gt;hidebound.core.database -->
<g id="edge112" class="edge">
<title>jsoncomment&#45;&gt;hidebound.core.database</title>
<path fill="none" stroke="#de958e" d="M443.8658,-45.9913C540.2645,-45.9913 748.6532,-45.9913 924.5,-45.9913 924.5,-45.9913 924.5,-45.9913 1274,-45.9913 1475.165,-45.9913 1563.7301,-95.569 1669,-266.9913 1720.3843,-350.6659 1682.4142,-1054.4315 1705,-1149.9913 1728.6652,-1250.1179 1787.8436,-1358.2654 1816.6853,-1407.2198"/>
<polygon fill="#de958e" stroke="#de958e" points="1813.7457,-1409.1242 1821.8661,-1415.9294 1819.7618,-1405.5456 1813.7457,-1409.1242"/>
</g>
<!-- jsoncomment&#45;&gt;hidebound.core.tools -->
<g id="edge113" class="edge">
<title>jsoncomment&#45;&gt;hidebound.core.tools</title>
<path fill="none" stroke="#de958e" d="M392.9377,-64.038C405.9187,-143.1068 460.1887,-466.7034 521,-728.9913 554.5296,-873.6096 604.4438,-1044.2492 624.1067,-1110.1214"/>
<polygon fill="#de958e" stroke="#de958e" points="620.7753,-1111.1974 626.9956,-1119.7739 627.4814,-1109.1902 620.7753,-1111.1974"/>
</g>
<!-- jsoncomment&#45;&gt;hidebound.server.extension -->
<g id="edge114" class="edge">
<title>jsoncomment&#45;&gt;hidebound.server.extension</title>
<path fill="none" stroke="#de958e" d="M443.776,-39.631C540.0339,-28.8133 748.2094,-7.9913 924.5,-7.9913 924.5,-7.9913 924.5,-7.9913 1274,-7.9913 1452.2139,-7.9913 1529.6277,34.0743 1669,-76.9913 2102.1314,-422.1532 1981.9472,-696.3913 2179,-1213.9913 2197.9043,-1263.6475 2196.3252,-1278.2483 2215,-1327.9913 2247.9958,-1415.88 2294.6784,-1516.7717 2317.2534,-1564.3798"/>
<polygon fill="#de958e" stroke="#de958e" points="2314.2339,-1566.1802 2321.6911,-1573.7062 2320.5549,-1563.1725 2314.2339,-1566.1802"/>
</g>
<!-- OpenEXR -->
<g id="node50" class="node">
<title>OpenEXR</title>
<polygon fill="#343434" stroke="#343434" points="427,-1155.9913 353,-1155.9913 353,-1119.9913 427,-1119.9913 427,-1155.9913"/>
<text text-anchor="middle" x="390" y="-1134.2913" font-family="Courier,monospace" font-size="14.00" fill="#de958e">OpenEXR</text>
</g>
<!-- OpenEXR&#45;&gt;hidebound.core.tools -->
<g id="edge115" class="edge">
<title>OpenEXR&#45;&gt;hidebound.core.tools</title>
<path fill="none" stroke="#de958e" d="M427.0945,-1137.9913C454.8668,-1137.9913 494.2626,-1137.9913 531.1359,-1137.9913"/>
<polygon fill="#de958e" stroke="#de958e" points="531.4574,-1141.4914 541.4574,-1137.9913 531.4574,-1134.4914 531.4574,-1141.4914"/>
</g>
<!-- dask.dataframe -->
<g id="node51" class="node">
<title>dask.dataframe</title>
<polygon fill="#343434" stroke="#343434" points="456,-1527.9913 324,-1527.9913 324,-1491.9913 456,-1491.9913 456,-1527.9913"/>
<text text-anchor="middle" x="390" y="-1506.2913" font-family="Courier,monospace" font-size="14.00" fill="#de958e">dask.dataframe</text>
</g>
<!-- dask.dataframe&#45;&gt;hidebound.core.database -->
<g id="edge116" class="edge">
<title>dask.dataframe&#45;&gt;hidebound.core.database</title>
<path fill="none" stroke="#de958e" d="M456.2263,-1511.182C527.3505,-1512.2697 643.679,-1513.4979 744,-1511.9913 1155.5727,-1505.8103 1262.0917,-1528.0873 1669,-1465.9913 1691.3575,-1462.5794 1715.3078,-1458.2778 1737.8071,-1453.9448"/>
<polygon fill="#de958e" stroke="#de958e" points="1738.5429,-1457.3674 1747.6904,-1452.0219 1737.206,-1450.4962 1738.5429,-1457.3674"/>
</g>
<!-- dask.dataframe&#45;&gt;hidebound.core.database_tools -->
<g id="edge117" class="edge">
<title>dask.dataframe&#45;&gt;hidebound.core.database_tools</title>
<path fill="none" stroke="#de958e" d="M456.0332,-1506.8701C577.4189,-1501.0914 844.1897,-1488.1994 1069,-1475.9913 1090.5324,-1474.822 1113.3339,-1473.5354 1135.6028,-1472.2521"/>
<polygon fill="#de958e" stroke="#de958e" points="1136.0092,-1475.7345 1145.7905,-1471.6631 1135.6052,-1468.7462 1136.0092,-1475.7345"/>
</g>
<!-- dask.dataframe&#45;&gt;hidebound.core.tools -->
<g id="edge118" class="edge">
<title>dask.dataframe&#45;&gt;hidebound.core.tools</title>
<path fill="none" stroke="#de958e" d="M440.0444,-1491.8434C455.9321,-1484.2111 472.5794,-1474.0206 485,-1460.9913 569.4669,-1372.3851 611.6437,-1226.8927 626.315,-1166.0806"/>
<polygon fill="#de958e" stroke="#de958e" points="629.7861,-1166.6085 628.6634,-1156.0733 622.9712,-1165.0092 629.7861,-1166.6085"/>
</g>
<!-- schematics.exceptions -->
<g id="node52" class="node">
<title>schematics.exceptions</title>
<polygon fill="#343434" stroke="#343434" points="485,-1101.9913 295,-1101.9913 295,-1065.9913 485,-1065.9913 485,-1101.9913"/>
<text text-anchor="middle" x="390" y="-1080.2913" font-family="Courier,monospace" font-size="14.00" fill="#de958e">schematics.exceptions</text>
</g>
<!-- schematics.exceptions&#45;&gt;hidebound.core.config -->
<g id="edge119" class="edge">
<title>schematics.exceptions&#45;&gt;hidebound.core.config</title>
<path fill="none" stroke="#de958e" d="M485.0477,-1090.3655C713.0788,-1103.9026 1284.0566,-1126.8714 1443,-1029.9913 1516.5079,-985.1863 1553.1473,-882.516 1567.0907,-832.8773"/>
<polygon fill="#de958e" stroke="#de958e" points="1570.4947,-833.6968 1569.7267,-823.1298 1563.7374,-831.8694 1570.4947,-833.6968"/>
</g>
<!-- schematics.exceptions&#45;&gt;hidebound.core.database_tools -->
<g id="edge120" class="edge">
<title>schematics.exceptions&#45;&gt;hidebound.core.database_tools</title>
<path fill="none" stroke="#de958e" d="M475.1777,-1102.0642C478.7654,-1104.6666 482.0756,-1107.6265 485,-1110.9913 561.8138,-1199.3748 438.5564,-1288.8345 521,-1371.9913 563.4298,-1414.7881 930.1182,-1443.4173 1135.6979,-1456.2604"/>
<polygon fill="#de958e" stroke="#de958e" points="1135.7721,-1459.7716 1145.9695,-1456.8973 1136.2054,-1452.785 1135.7721,-1459.7716"/>
</g>
<!-- schematics.exceptions&#45;&gt;hidebound.core.specification_base -->
<g id="edge121" class="edge">
<title>schematics.exceptions&#45;&gt;hidebound.core.specification_base</title>
<path fill="none" stroke="#de958e" d="M474.3982,-1065.9906C571.1952,-1045.3454 729.4753,-1011.5869 830.2342,-990.0966"/>
<polygon fill="#de958e" stroke="#de958e" points="831.0542,-993.5006 840.1041,-987.9915 829.594,-986.6545 831.0542,-993.5006"/>
</g>
<!-- schematics.exceptions&#45;&gt;hidebound.core.tools -->
<g id="edge122" class="edge">
<title>schematics.exceptions&#45;&gt;hidebound.core.tools</title>
<path fill="none" stroke="#de958e" d="M471.0861,-1102.0476C493.7359,-1107.0913 518.4936,-1112.6043 541.6667,-1117.7645"/>
<polygon fill="#de958e" stroke="#de958e" points="540.9686,-1121.1947 551.4903,-1119.952 542.4901,-1114.3621 540.9686,-1121.1947"/>
</g>
<!-- schematics.exceptions&#45;&gt;hidebound.core.validators -->
<g id="edge123" class="edge">
<title>schematics.exceptions&#45;&gt;hidebound.core.validators</title>
<path fill="none" stroke="#de958e" d="M408.2222,-1065.7813C430.4322,-1042.3636 467.197,-999.3946 485,-954.9913 531.6923,-838.5342 439.6482,-770.5125 521,-674.9913 523.8715,-671.6197 527.0696,-668.5836 530.5173,-665.8503"/>
<polygon fill="#de958e" stroke="#de958e" points="532.7392,-668.5694 538.9786,-660.0066 528.7613,-662.8095 532.7392,-668.5694"/>
</g>
<!-- schematics.exceptions&#45;&gt;hidebound.server.api -->
<g id="edge124" class="edge">
<title>schematics.exceptions&#45;&gt;hidebound.server.api</title>
<path fill="none" stroke="#de958e" d="M470.2622,-1102.1741C475.4552,-1104.7362 480.4275,-1107.6584 485,-1110.9913 508.3096,-1127.9814 496.5104,-1149.7512 521,-1164.9913 619.5706,-1226.3325 664.5353,-1186.8749 780,-1198.9913 1174.1698,-1240.3537 1285.9902,-1167.0884 1669,-1268.9913 1807.7154,-1305.8977 1863.9542,-1301.2266 1961,-1406.9913 2046.8157,-1500.517 2076.1019,-1657.201 2084.7746,-1720.8424"/>
<polygon fill="#de958e" stroke="#de958e" points="2081.3246,-1721.4554 2086.0797,-1730.9232 2088.2667,-1720.5565 2081.3246,-1721.4554"/>
</g>
<!-- hidebound -->
<g id="node53" class="node">
<title>hidebound</title>
<polygon fill="#343434" stroke="#343434" points="91,-1010.9913 0,-1010.9913 0,-974.9913 91,-974.9913 91,-1010.9913"/>
<text text-anchor="middle" x="45.5" y="-989.2913" font-family="Courier,monospace" font-size="14.00" fill="#a0d17b">hidebound</text>
</g>
<!-- hidebound&#45;&gt;hidebound.server -->
<g id="edge125" class="edge">
<title>hidebound&#45;&gt;hidebound.server</title>
<path fill="none" stroke="#a0d17b" d="M46.7973,-1011.2121C57.7859,-1158.789 141.0524,-2152.9913 390,-2152.9913 390,-2152.9913 390,-2152.9913 924.5,-2152.9913 1127.0847,-2152.9913 1364.8088,-2168.2246 1488.8578,-2177.3342"/>
<polygon fill="#a0d17b" stroke="#a0d17b" points="1488.816,-2180.8406 1499.0469,-2178.0875 1489.3322,-2173.8596 1488.816,-2180.8406"/>
</g>
<!-- hidebound&#45;&gt;hidebound.exporters -->
<g id="edge126" class="edge">
<title>hidebound&#45;&gt;hidebound.exporters</title>
<path fill="none" stroke="#a0d17b" d="M82.4897,-974.7985C85.679,-972.1734 88.5989,-969.2423 91,-965.9913 131.475,-911.1903 97.6297,-878.463 127,-816.9913 237.4414,-585.8387 498.1804,-398.6251 595.2404,-334.6562"/>
<polygon fill="#a0d17b" stroke="#a0d17b" points="597.3908,-337.4319 603.8425,-329.0279 593.5582,-331.5743 597.3908,-337.4319"/>
</g>
<!-- hidebound.core -->
<g id="node54" class="node">
<title>hidebound.core</title>
<polygon fill="#343434" stroke="#343434" points="259,-1010.9913 127,-1010.9913 127,-974.9913 259,-974.9913 259,-1010.9913"/>
<text text-anchor="middle" x="193" y="-989.2913" font-family="Courier,monospace" font-size="14.00" fill="#a0d17b">hidebound.core</text>
</g>
<!-- hidebound&#45;&gt;hidebound.core -->
<g id="edge127" class="edge">
<title>hidebound&#45;&gt;hidebound.core</title>
<path fill="none" stroke="#a0d17b" d="M91.3614,-992.9913C99.4456,-992.9913 108.0541,-992.9913 116.7093,-992.9913"/>
<polygon fill="#a0d17b" stroke="#a0d17b" points="116.8627,-996.4914 126.8626,-992.9913 116.8626,-989.4914 116.8627,-996.4914"/>
</g>
<!-- hidebound.core&#45;&gt;hidebound.core.config -->
<g id="edge128" class="edge">
<title>hidebound.core&#45;&gt;hidebound.core.config</title>
<path fill="none" stroke="#a0d17b" d="M259.099,-996.7044C271.0446,-997.2408 283.3906,-997.7069 295,-997.9913 379.4191,-1000.0592 400.5556,-998.0636 485,-997.9913 912.6942,-997.6251 1057.6723,-1092.5851 1443,-906.9913 1483.5388,-887.4657 1523.3486,-853.8253 1548.2445,-830.5446"/>
<polygon fill="#a0d17b" stroke="#a0d17b" points="1550.946,-832.8058 1555.7856,-823.3809 1546.1248,-827.7307 1550.946,-832.8058"/>
</g>
<!-- hidebound.core&#45;&gt;hidebound.core.database -->
<g id="edge129" class="edge">
<title>hidebound.core&#45;&gt;hidebound.core.database</title>
<path fill="none" stroke="#a0d17b" d="M193.3202,-1011.2641C195.3037,-1101.2769 208.8725,-1496.3161 295,-1573.9913 463.72,-1726.1536 1318.6943,-1530.3574 1443,-1516.9913 1543.4779,-1506.1873 1570.4913,-1514.5428 1669,-1491.9913 1707.4176,-1483.1964 1749.2845,-1468.2962 1781.1007,-1455.8008"/>
<polygon fill="#a0d17b" stroke="#a0d17b" points="1782.6376,-1458.9563 1790.6371,-1452.0095 1780.0515,-1452.4515 1782.6376,-1458.9563"/>
</g>
<!-- hidebound.core&#45;&gt;hidebound.core.database_tools -->
<g id="edge130" class="edge">
<title>hidebound.core&#45;&gt;hidebound.core.database_tools</title>
<path fill="none" stroke="#a0d17b" d="M193.4399,-1011.0819C195.9568,-1097.5882 211.5376,-1467.7237 295,-1536.9913 429.8326,-1648.8925 979.6126,-1533.9516 1190.816,-1484.3685"/>
<polygon fill="#a0d17b" stroke="#a0d17b" points="1191.6847,-1487.7597 1200.6144,-1482.0579 1190.078,-1480.9466 1191.6847,-1487.7597"/>
</g>
<!-- hidebound.core&#45;&gt;hidebound.core.logging -->
<g id="edge131" class="edge">
<title>hidebound.core&#45;&gt;hidebound.core.logging</title>
<path fill="none" stroke="#a0d17b" d="M194.074,-1011.0561C200.7929,-1121.1445 238.595,-1698.7979 295,-1750.9913 364.9773,-1815.7436 482.0547,-1805.9645 558.2728,-1790.1721"/>
<polygon fill="#a0d17b" stroke="#a0d17b" points="559.2456,-1793.5429 568.2839,-1788.0147 557.7709,-1786.6999 559.2456,-1793.5429"/>
</g>
<!-- hidebound.core&#45;&gt;hidebound.core.parser -->
<g id="edge132" class="edge">
<title>hidebound.core&#45;&gt;hidebound.core.parser</title>
<path fill="none" stroke="#a0d17b" d="M247.6139,-974.9715C271.7399,-967.0111 300.2814,-957.5939 325.4524,-949.2887"/>
<polygon fill="#a0d17b" stroke="#a0d17b" points="326.8801,-952.5033 335.2799,-946.0462 324.6868,-945.8558 326.8801,-952.5033"/>
</g>
<!-- hidebound.core&#45;&gt;hidebound.core.specification_base -->
<g id="edge133" class="edge">
<title>hidebound.core&#45;&gt;hidebound.core.specification_base</title>
<path fill="none" stroke="#a0d17b" d="M259.2059,-990.9096C373.7166,-987.3092 611.6412,-979.8283 769.7018,-974.8585"/>
<polygon fill="#a0d17b" stroke="#a0d17b" points="770.1103,-978.3475 779.9954,-974.5349 769.8903,-971.3509 770.1103,-978.3475"/>
</g>
<!-- hidebound.core&#45;&gt;hidebound.core.specifications -->
<g id="edge134" class="edge">
<title>hidebound.core&#45;&gt;hidebound.core.specifications</title>
<path fill="none" stroke="#a0d17b" d="M205.6634,-974.9749C221.0975,-952.0081 246.6433,-910.525 259,-870.9913 302.487,-731.8595 236.6519,-678.5738 295,-544.9913 356.42,-404.376 385.3399,-355.6951 521,-283.9913 736.6501,-170.0083 847.6925,-151.4238 1069,-253.9913 1166.1176,-299.0016 1233.9514,-415.2023 1260.9731,-468.5175"/>
<polygon fill="#a0d17b" stroke="#a0d17b" points="1257.9566,-470.3122 1265.5415,-477.7094 1264.225,-467.1967 1257.9566,-470.3122"/>
</g>
<!-- hidebound.core&#45;&gt;hidebound.core.tools -->
<g id="edge135" class="edge">
<title>hidebound.core&#45;&gt;hidebound.core.tools</title>
<path fill="none" stroke="#a0d17b" d="M197.3623,-1011.0747C207.3493,-1047.958 235.7226,-1131.2273 295,-1164.9913 384.637,-1216.0479 509.9848,-1184.4142 579.9568,-1159.4694"/>
<polygon fill="#a0d17b" stroke="#a0d17b" points="581.2594,-1162.7199 589.4531,-1156.0033 578.8592,-1156.1442 581.2594,-1162.7199"/>
</g>
<!-- hidebound.core&#45;&gt;hidebound.core.traits -->
<g id="edge136" class="edge">
<title>hidebound.core&#45;&gt;hidebound.core.traits</title>
<path fill="none" stroke="#a0d17b" d="M205.4741,-974.9141C220.7128,-951.8847 246.0572,-910.337 259,-870.9913 294.903,-761.8476 220.006,-702.0389 295,-614.9913 329.7277,-574.6819 654.1884,-504.3556 823.1903,-470.0125"/>
<polygon fill="#a0d17b" stroke="#a0d17b" points="823.9961,-473.4204 833.1014,-468.0035 822.6054,-466.56 823.9961,-473.4204"/>
</g>
<!-- hidebound.core&#45;&gt;hidebound.core.validators -->
<g id="edge137" class="edge">
<title>hidebound.core&#45;&gt;hidebound.core.validators</title>
<path fill="none" stroke="#a0d17b" d="M206.4478,-974.7948C247.3802,-920.704 376.5095,-759.4247 521,-674.9913 528.2661,-670.7453 536.1225,-667.0071 544.1841,-663.7239"/>
<polygon fill="#a0d17b" stroke="#a0d17b" points="545.6302,-666.9181 553.7191,-660.0755 543.1287,-660.3804 545.6302,-666.9181"/>
</g>
<!-- skimage.io -->
<g id="node55" class="node">
<title>skimage.io</title>
<polygon fill="#343434" stroke="#343434" points="682,-467.9913 583,-467.9913 583,-431.9913 682,-431.9913 682,-467.9913"/>
<text text-anchor="middle" x="632.5" y="-446.2913" font-family="Courier,monospace" font-size="14.00" fill="#de958e">skimage.io</text>
</g>
<!-- skimage.io&#45;&gt;hidebound.core.traits -->
<g id="edge138" class="edge">
<title>skimage.io&#45;&gt;hidebound.core.traits</title>
<path fill="none" stroke="#de958e" d="M682.0338,-449.9913C719.5523,-449.9913 772.4542,-449.9913 819.2741,-449.9913"/>
<polygon fill="#de958e" stroke="#de958e" points="819.4737,-453.4914 829.4737,-449.9913 819.4737,-446.4914 819.4737,-453.4914"/>
</g>
<!-- flask_monitoringdashboard -->
<g id="node56" class="node">
<title>flask_monitoringdashboard</title>
<polygon fill="#343434" stroke="#343434" points="2713,-1359.9913 2490,-1359.9913 2490,-1323.9913 2713,-1323.9913 2713,-1359.9913"/>
<text text-anchor="middle" x="2601.5" y="-1338.2913" font-family="Courier,monospace" font-size="14.00" fill="#de958e">flask_monitoringdashboard</text>
</g>
<!-- flask_monitoringdashboard&#45;&gt;hidebound.server.app -->
<g id="edge139" class="edge">
<title>flask_monitoringdashboard&#45;&gt;hidebound.server.app</title>
<path fill="none" stroke="#de958e" d="M2709.4213,-1360.05C2713.547,-1362.6743 2717.4355,-1365.6408 2721,-1368.9913 2782.0133,-1426.3431 2829.3709,-1689.0919 2843.5959,-1775.9954"/>
<polygon fill="#de958e" stroke="#de958e" points="2840.1499,-1776.6111 2845.2015,-1785.924 2847.0601,-1775.4935 2840.1499,-1776.6111"/>
</g>
</g>
</svg>
