<?xml version="1.0" encoding="UTF-8" standalone="no"?>
<!DOCTYPE svg PUBLIC "-//W3C//DTD SVG 1.1//EN"
 "http://www.w3.org/Graphics/SVG/1.1/DTD/svg11.dtd">
<!-- Generated by graphviz version 2.40.1 (20161225.0304)
 -->
<!-- Title: %3 Pages: 1 -->
<svg width="1067pt" height="332pt"
 viewBox="0.00 0.00 1066.50 332.00" xmlns="http://www.w3.org/2000/svg" xmlns:xlink="http://www.w3.org/1999/xlink">
<g id="graph0" class="graph" transform="scale(1 1) rotate(0) translate(4 328)">
<title>%3</title>
<polygon fill="#242424" stroke="transparent" points="-4,4 -4,-328 1062.5,-328 1062.5,4 -4,4"/>
<!-- cli -->
<g id="node1" class="node">
<title>cli</title>
<polygon fill="#343434" stroke="#343434" points="150.5,-324 96.5,-324 96.5,-288 150.5,-288 150.5,-324"/>
<text text-anchor="middle" x="123.5" y="-302.3" font-family="Courier,monospace" font-size="14.00" fill="#b6ecf3">cli</text>
</g>
<!-- nerve.database -->
<g id="node2" class="node">
<title>nerve.database</title>
<polygon fill="#343434" stroke="#343434" points="812.5,-36 680.5,-36 680.5,0 812.5,0 812.5,-36"/>
<text text-anchor="middle" x="746.5" y="-14.3" font-family="Courier,monospace" font-size="14.00" fill="#b6ecf3">nerve.database</text>
</g>
<!-- nerve.parser -->
<g id="node3" class="node">
<title>nerve.parser</title>
<polygon fill="#343434" stroke="#343434" points="472.5,-252 356.5,-252 356.5,-216 472.5,-216 472.5,-252"/>
<text text-anchor="middle" x="414.5" y="-230.3" font-family="Courier,monospace" font-size="14.00" fill="#b6ecf3">nerve.parser</text>
</g>
<!-- nerve.parser&#45;&gt;nerve.database -->
<g id="edge1" class="edge">
<title>nerve.parser&#45;&gt;nerve.database</title>
<path fill="none" stroke="#b6ecf3" d="M472.7191,-218.4378C511.3828,-207.3408 557.9617,-192.274 574.5,-180 621.8381,-144.8679 607.7351,-111.4942 651.5,-72 664.9219,-59.8878 681.5155,-49.3103 697.0596,-40.8033"/>
<polygon fill="#b6ecf3" stroke="#b6ecf3" points="698.8591,-43.8109 706.0585,-36.0378 695.5831,-37.6247 698.8591,-43.8109"/>
</g>
<!-- nerve.specification_base -->
<g id="node4" class="node">
<title>nerve.specification_base</title>
<polygon fill="#343434" stroke="#343434" points="542,-108 327,-108 327,-72 542,-72 542,-108"/>
<text text-anchor="middle" x="434.5" y="-86.3" font-family="Courier,monospace" font-size="14.00" fill="#b6ecf3">nerve.specification_base</text>
</g>
<!-- nerve.parser&#45;&gt;nerve.specification_base -->
<g id="edge2" class="edge">
<title>nerve.parser&#45;&gt;nerve.specification_base</title>
<path fill="none" stroke="#b6ecf3" d="M416.1434,-215.6784C417.87,-197.457 420.8416,-168.7275 424.5,-144 425.7363,-135.6441 427.3145,-126.6044 428.8499,-118.3549"/>
<polygon fill="#b6ecf3" stroke="#b6ecf3" points="432.3056,-118.918 430.743,-108.4391 425.4298,-117.6053 432.3056,-118.918"/>
</g>
<!-- nerve.validators -->
<g id="node7" class="node">
<title>nerve.validators</title>
<polygon fill="#343434" stroke="#343434" points="373,-180 224,-180 224,-144 373,-144 373,-180"/>
<text text-anchor="middle" x="298.5" y="-158.3" font-family="Courier,monospace" font-size="14.00" fill="#b6ecf3">nerve.validators</text>
</g>
<!-- nerve.parser&#45;&gt;nerve.validators -->
<g id="edge3" class="edge">
<title>nerve.parser&#45;&gt;nerve.validators</title>
<path fill="none" stroke="#b6ecf3" d="M385.2283,-215.8314C370.3912,-206.6221 352.1985,-195.3301 336.3138,-185.4706"/>
<polygon fill="#b6ecf3" stroke="#b6ecf3" points="338.1045,-182.4628 327.7623,-180.1628 334.413,-188.4102 338.1045,-182.4628"/>
</g>
<!-- nerve.specification_base&#45;&gt;nerve.database -->
<g id="edge4" class="edge">
<title>nerve.specification_base&#45;&gt;nerve.database</title>
<path fill="none" stroke="#b6ecf3" d="M512.8281,-71.9243C561.0253,-60.8019 622.5027,-46.6148 670.3013,-35.5843"/>
<polygon fill="#b6ecf3" stroke="#b6ecf3" points="671.3267,-38.9397 680.2836,-33.2807 669.7527,-32.119 671.3267,-38.9397"/>
</g>
<!-- nerve.specifications -->
<g id="node5" class="node">
<title>nerve.specifications</title>
<polygon fill="#343434" stroke="#343434" points="457.5,-36 275.5,-36 275.5,0 457.5,0 457.5,-36"/>
<text text-anchor="middle" x="366.5" y="-14.3" font-family="Courier,monospace" font-size="14.00" fill="#b6ecf3">nerve.specifications</text>
</g>
<!-- nerve.specification_base&#45;&gt;nerve.specifications -->
<g id="edge5" class="edge">
<title>nerve.specification_base&#45;&gt;nerve.specifications</title>
<path fill="none" stroke="#b6ecf3" d="M417.3407,-71.8314C409.3489,-63.3694 399.6962,-53.1489 390.9584,-43.8971"/>
<polygon fill="#b6ecf3" stroke="#b6ecf3" points="393.3011,-41.2802 383.8903,-36.4133 388.212,-46.0866 393.3011,-41.2802"/>
</g>
<!-- nerve.tools -->
<g id="node6" class="node">
<title>nerve.tools</title>
<polygon fill="#343434" stroke="#343434" points="945,-108 838,-108 838,-72 945,-72 945,-108"/>
<text text-anchor="middle" x="891.5" y="-86.3" font-family="Courier,monospace" font-size="14.00" fill="#b6ecf3">nerve.tools</text>
</g>
<!-- nerve.tools&#45;&gt;nerve.database -->
<g id="edge6" class="edge">
<title>nerve.tools&#45;&gt;nerve.database</title>
<path fill="none" stroke="#b6ecf3" d="M854.9104,-71.8314C835.7761,-62.3302 812.1771,-50.6121 791.8878,-40.5374"/>
<polygon fill="#b6ecf3" stroke="#b6ecf3" points="793.3397,-37.3506 782.8265,-36.038 790.2265,-43.6203 793.3397,-37.3506"/>
</g>
<!-- nerve.validators&#45;&gt;nerve.specification_base -->
<g id="edge7" class="edge">
<title>nerve.validators&#45;&gt;nerve.specification_base</title>
<path fill="none" stroke="#b6ecf3" d="M332.8185,-143.8314C350.5359,-134.4516 372.3345,-122.9112 391.1984,-112.9244"/>
<polygon fill="#b6ecf3" stroke="#b6ecf3" points="392.9922,-115.935 400.1924,-108.1628 389.7169,-109.7485 392.9922,-115.935"/>
</g>
<!-- nerve.validators&#45;&gt;nerve.specifications -->
<g id="edge8" class="edge">
<title>nerve.validators&#45;&gt;nerve.specifications</title>
<path fill="none" stroke="#b6ecf3" d="M299.5418,-143.8257C301.2453,-124.9578 305.7266,-95.0362 317.5,-72 322.7931,-61.6434 330.5981,-51.7654 338.4303,-43.3563"/>
<polygon fill="#b6ecf3" stroke="#b6ecf3" points="341.0643,-45.6689 345.5595,-36.075 336.0626,-40.7716 341.0643,-45.6689"/>
</g>
<!-- humanfriendly -->
<g id="node8" class="node">
<title>humanfriendly</title>
<polygon fill="#343434" stroke="#343434" points="936.5,-180 812.5,-180 812.5,-144 936.5,-144 936.5,-180"/>
<text text-anchor="middle" x="874.5" y="-158.3" font-family="Courier,monospace" font-size="14.00" fill="#de958e">humanfriendly</text>
</g>
<!-- humanfriendly&#45;&gt;nerve.tools -->
<g id="edge9" class="edge">
<title>humanfriendly&#45;&gt;nerve.tools</title>
<path fill="none" stroke="#de958e" d="M878.7898,-143.8314C880.608,-136.131 882.7699,-126.9743 884.7905,-118.4166"/>
<polygon fill="#de958e" stroke="#de958e" points="888.2608,-118.95 887.1524,-108.4133 881.4481,-117.3414 888.2608,-118.95"/>
</g>
<!-- numpy -->
<g id="node9" class="node">
<title>numpy</title>
<polygon fill="#343434" stroke="#343434" points="718.5,-108 660.5,-108 660.5,-72 718.5,-72 718.5,-108"/>
<text text-anchor="middle" x="689.5" y="-86.3" font-family="Courier,monospace" font-size="14.00" fill="#de958e">numpy</text>
</g>
<!-- numpy&#45;&gt;nerve.database -->
<g id="edge10" class="edge">
<title>numpy&#45;&gt;nerve.database</title>
<path fill="none" stroke="#de958e" d="M703.8835,-71.8314C710.4486,-63.5386 718.3507,-53.557 725.5578,-44.4533"/>
<polygon fill="#de958e" stroke="#de958e" points="728.4599,-46.4262 731.9228,-36.4133 722.9716,-42.0813 728.4599,-46.4262"/>
</g>
<!-- pandas -->
<g id="node10" class="node">
<title>pandas</title>
<polygon fill="#343434" stroke="#343434" points="1058.5,-180 992.5,-180 992.5,-144 1058.5,-144 1058.5,-180"/>
<text text-anchor="middle" x="1025.5" y="-158.3" font-family="Courier,monospace" font-size="14.00" fill="#de958e">pandas</text>
</g>
<!-- pandas&#45;&gt;nerve.database -->
<g id="edge11" class="edge">
<title>pandas&#45;&gt;nerve.database</title>
<path fill="none" stroke="#de958e" d="M1016.0232,-143.887C1004.3242,-123.3269 982.4957,-90.2794 954.5,-72 915.2513,-46.3731 864.4272,-32.8938 822.8435,-25.8112"/>
<polygon fill="#de958e" stroke="#de958e" points="823.187,-22.3214 812.7576,-24.1864 822.0736,-29.2323 823.187,-22.3214"/>
</g>
<!-- pandas&#45;&gt;nerve.tools -->
<g id="edge12" class="edge">
<title>pandas&#45;&gt;nerve.tools</title>
<path fill="none" stroke="#de958e" d="M992.3764,-144.2022C974.793,-134.7545 952.9854,-123.0369 934.1497,-112.9162"/>
<polygon fill="#de958e" stroke="#de958e" points="935.6389,-109.7432 925.1733,-108.0931 932.3256,-115.9095 935.6389,-109.7432"/>
</g>
<!-- nerve -->
<g id="node11" class="node">
<title>nerve</title>
<polygon fill="#343434" stroke="#343434" points="756.5,-324 698.5,-324 698.5,-288 756.5,-288 756.5,-324"/>
<text text-anchor="middle" x="727.5" y="-302.3" font-family="Courier,monospace" font-size="14.00" fill="#a0d17b">nerve</text>
</g>
<!-- nerve&#45;&gt;nerve.database -->
<g id="edge13" class="edge">
<title>nerve&#45;&gt;nerve.database</title>
<path fill="none" stroke="#a0d17b" d="M742.1752,-287.7088C749.2046,-277.772 756.8695,-264.9031 760.5,-252 780.8076,-179.8251 764.6359,-90.3438 753.9723,-45.8443"/>
<polygon fill="#a0d17b" stroke="#a0d17b" points="757.3446,-44.9016 751.5355,-36.0413 750.5513,-46.5903 757.3446,-44.9016"/>
</g>
<!-- nerve&#45;&gt;nerve.parser -->
<g id="edge14" class="edge">
<title>nerve&#45;&gt;nerve.parser</title>
<path fill="none" stroke="#a0d17b" d="M698.2404,-300.0354C653.8049,-290.8782 566.4357,-272.4864 482.5119,-252.1942"/>
<polygon fill="#a0d17b" stroke="#a0d17b" points="483.1061,-248.7368 472.5623,-249.7754 481.4525,-255.5387 483.1061,-248.7368"/>
</g>
<!-- nerve&#45;&gt;nerve.specification_base -->
<g id="edge15" class="edge">
<title>nerve&#45;&gt;nerve.specification_base</title>
<path fill="none" stroke="#a0d17b" d="M723.292,-287.6886C718.058,-268.1564 707.5352,-237.1762 689.5,-216 644.1756,-162.7821 571.0043,-129.8922 514.6422,-111.1215"/>
<polygon fill="#a0d17b" stroke="#a0d17b" points="515.6299,-107.7624 505.0378,-108.0044 513.4689,-114.4205 515.6299,-107.7624"/>
</g>
<!-- nerve&#45;&gt;nerve.specifications -->
<g id="edge16" class="edge">
<title>nerve&#45;&gt;nerve.specifications</title>
<path fill="none" stroke="#a0d17b" d="M728.0088,-287.6983C727.7945,-268.7266 725.3307,-238.7214 713.5,-216 668.8567,-130.261 635.9906,-117.1172 550.5,-72 523.6504,-57.8303 492.5816,-46.9035 463.7064,-38.7072"/>
<polygon fill="#a0d17b" stroke="#a0d17b" points="464.578,-35.317 454.0073,-36.0315 462.7164,-42.0649 464.578,-35.317"/>
</g>
<!-- nerve&#45;&gt;nerve.tools -->
<g id="edge17" class="edge">
<title>nerve&#45;&gt;nerve.tools</title>
<path fill="none" stroke="#a0d17b" d="M756.7785,-299.1196C806.1103,-285.7681 904.4255,-251.182 945.5,-180 953.4967,-166.1417 951.6229,-158.7821 945.5,-144 940.9479,-133.0103 932.954,-123.0911 924.4898,-114.8418"/>
<polygon fill="#a0d17b" stroke="#a0d17b" points="926.7589,-112.1745 917.0052,-108.0373 922.0501,-117.354 926.7589,-112.1745"/>
</g>
<!-- nerve&#45;&gt;nerve.validators -->
<g id="edge18" class="edge">
<title>nerve&#45;&gt;nerve.validators</title>
<path fill="none" stroke="#a0d17b" d="M698.4363,-305.1839C619.7092,-302.4654 404.4329,-291.512 347.5,-252 326.273,-237.2682 313.3602,-210.2849 306.16,-189.6927"/>
<polygon fill="#a0d17b" stroke="#a0d17b" points="309.4885,-188.6103 303.0728,-180.1788 302.8303,-190.7709 309.4885,-188.6103"/>
</g>
<!-- pyparsing -->
<g id="node12" class="node">
<title>pyparsing</title>
<polygon fill="#343434" stroke="#343434" points="260,-324 169,-324 169,-288 260,-288 260,-324"/>
<text text-anchor="middle" x="214.5" y="-302.3" font-family="Courier,monospace" font-size="14.00" fill="#de958e">pyparsing</text>
</g>
<!-- pyparsing&#45;&gt;nerve.parser -->
<g id="edge19" class="edge">
<title>pyparsing&#45;&gt;nerve.parser</title>
<path fill="none" stroke="#de958e" d="M260.1333,-289.572C288.1175,-279.4977 324.2627,-266.4854 354.5413,-255.5851"/>
<polygon fill="#de958e" stroke="#de958e" points="355.9247,-258.8071 364.1481,-252.1267 353.5537,-252.2208 355.9247,-258.8071"/>
</g>
<!-- pyparsing&#45;&gt;nerve.specification_base -->
<g id="edge20" class="edge">
<title>pyparsing&#45;&gt;nerve.specification_base</title>
<path fill="none" stroke="#de958e" d="M208.0067,-287.8912C197.5811,-255.2807 181.437,-186.1599 214.5,-144 228.0945,-126.6652 271.9224,-114.1609 316.919,-105.5791"/>
<polygon fill="#de958e" stroke="#de958e" points="317.6309,-109.007 326.8313,-103.7531 316.3627,-102.1228 317.6309,-109.007"/>
</g>
<!-- pyparsing&#45;&gt;nerve.validators -->
<g id="edge21" class="edge">
<title>pyparsing&#45;&gt;nerve.validators</title>
<path fill="none" stroke="#de958e" d="M214.8772,-287.8215C216.028,-268.681 220.0542,-238.2885 233.5,-216 240.3169,-204.7 250.3685,-194.6739 260.54,-186.4217"/>
<polygon fill="#de958e" stroke="#de958e" points="262.8571,-189.0555 268.6635,-180.1934 258.598,-183.5004 262.8571,-189.0555"/>
</g>
<!-- schematics.exceptions -->
<g id="node13" class="node">
<title>schematics.exceptions</title>
<polygon fill="#343434" stroke="#343434" points="680.5,-252 490.5,-252 490.5,-216 680.5,-216 680.5,-252"/>
<text text-anchor="middle" x="585.5" y="-230.3" font-family="Courier,monospace" font-size="14.00" fill="#de958e">schematics.exceptions</text>
</g>
<!-- schematics.exceptions&#45;&gt;nerve.database -->
<g id="edge22" class="edge">
<title>schematics.exceptions&#45;&gt;nerve.database</title>
<path fill="none" stroke="#de958e" d="M615.3205,-215.9632C648.1499,-194.4722 699.9221,-155.4432 727.5,-108 738.4352,-89.1878 743.1124,-64.9047 745.0954,-46.3039"/>
<polygon fill="#de958e" stroke="#de958e" points="748.6037,-46.3575 745.9785,-36.0931 741.6298,-45.7542 748.6037,-46.3575"/>
</g>
<!-- schematics.exceptions&#45;&gt;nerve.specification_base -->
<g id="edge23" class="edge">
<title>schematics.exceptions&#45;&gt;nerve.specification_base</title>
<path fill="none" stroke="#de958e" d="M511.3703,-215.9441C491.4668,-207.8781 471.5852,-196.3578 457.5,-180 442.7611,-162.8831 437.2653,-137.5557 435.3103,-118.1257"/>
<polygon fill="#de958e" stroke="#de958e" points="438.7911,-117.7375 434.5523,-108.0276 431.8108,-118.2616 438.7911,-117.7375"/>
</g>
<!-- schematics.exceptions&#45;&gt;nerve.validators -->
<g id="edge24" class="edge">
<title>schematics.exceptions&#45;&gt;nerve.validators</title>
<path fill="none" stroke="#de958e" d="M513.4482,-215.9243C473.0196,-205.7819 422.4328,-193.0912 380.492,-182.5694"/>
<polygon fill="#de958e" stroke="#de958e" points="381.1325,-179.1217 370.5814,-180.0831 379.4292,-185.9113 381.1325,-179.1217"/>
</g>
<!-- schematics -->
<g id="node14" class="node">
<title>schematics</title>
<polygon fill="#343434" stroke="#343434" points="566,-180 467,-180 467,-144 566,-144 566,-180"/>
<text text-anchor="middle" x="516.5" y="-158.3" font-family="Courier,monospace" font-size="14.00" fill="#de958e">schematics</text>
</g>
<!-- schematics&#45;&gt;nerve.specification_base -->
<g id="edge25" class="edge">
<title>schematics&#45;&gt;nerve.specification_base</title>
<path fill="none" stroke="#de958e" d="M495.8079,-143.8314C485.8052,-135.0485 473.645,-124.3712 462.8001,-114.8489"/>
<polygon fill="#de958e" stroke="#de958e" points="465.0092,-112.1308 455.1854,-108.1628 460.3906,-117.3909 465.0092,-112.1308"/>
</g>
<!-- schematics.types -->
<g id="node15" class="node">
<title>schematics.types</title>
<polygon fill="#343434" stroke="#343434" points="149,-180 0,-180 0,-144 149,-144 149,-180"/>
<text text-anchor="middle" x="74.5" y="-158.3" font-family="Courier,monospace" font-size="14.00" fill="#de958e">schematics.types</text>
</g>
<!-- schematics.types&#45;&gt;nerve.specification_base -->
<g id="edge26" class="edge">
<title>schematics.types&#45;&gt;nerve.specification_base</title>
<path fill="none" stroke="#de958e" d="M149.3865,-146.6516C153.823,-145.7519 158.2197,-144.8626 162.5,-144 218.8021,-132.6531 281.6975,-120.155 332.8148,-110.0427"/>
<polygon fill="#de958e" stroke="#de958e" points="333.7447,-113.4267 342.8757,-108.0531 332.3867,-106.5597 333.7447,-113.4267"/>
</g>
<!-- schematics.types&#45;&gt;nerve.specifications -->
<g id="edge27" class="edge">
<title>schematics.types&#45;&gt;nerve.specifications</title>
<path fill="none" stroke="#de958e" d="M111.1863,-143.9081C164.2917,-117.7192 262.5452,-69.2654 320.4528,-40.7082"/>
<polygon fill="#de958e" stroke="#de958e" points="322.3134,-43.6932 329.7341,-36.1311 319.2173,-37.4151 322.3134,-43.6932"/>
</g>
<!-- wrapt -->
<g id="node16" class="node">
<title>wrapt</title>
<polygon fill="#343434" stroke="#343434" points="300.5,-252 242.5,-252 242.5,-216 300.5,-216 300.5,-252"/>
<text text-anchor="middle" x="271.5" y="-230.3" font-family="Courier,monospace" font-size="14.00" fill="#de958e">wrapt</text>
</g>
<!-- wrapt&#45;&gt;nerve.validators -->
<g id="edge28" class="edge">
<title>wrapt&#45;&gt;nerve.validators</title>
<path fill="none" stroke="#de958e" d="M278.3132,-215.8314C281.2644,-207.9617 284.7858,-198.5712 288.055,-189.8533"/>
<polygon fill="#de958e" stroke="#de958e" points="291.3609,-191.0055 291.595,-180.4133 284.8066,-188.5476 291.3609,-191.0055"/>
</g>
</g>
</svg>
