<?xml version="1.0" encoding="UTF-8" standalone="no"?>
<!DOCTYPE svg PUBLIC "-//W3C//DTD SVG 1.1//EN"
 "http://www.w3.org/Graphics/SVG/1.1/DTD/svg11.dtd">
<!-- Generated by graphviz version 2.40.1 (20161225.0304)
 -->
<!-- Title: %3 Pages: 1 -->
<svg width="2236pt" height="1220pt"
 viewBox="0.00 0.00 2236.00 1220.01" xmlns="http://www.w3.org/2000/svg" xmlns:xlink="http://www.w3.org/1999/xlink">
<g id="graph0" class="graph" transform="scale(1 1) rotate(0) translate(4 1216.0051)">
<title>%3</title>
<polygon fill="#242424" stroke="transparent" points="-4,4 -4,-1216.0051 2232,-1216.0051 2232,4 -4,4"/>
<!-- cli -->
<g id="node1" class="node">
<title>cli</title>
<polygon fill="#343434" stroke="#343434" points="72.5,-916 18.5,-916 18.5,-880 72.5,-880 72.5,-916"/>
<text text-anchor="middle" x="45.5" y="-894.3" font-family="Courier,monospace" font-size="14.00" fill="#b6ecf3">cli</text>
</g>
<!-- hidebound.core.config -->
<g id="node2" class="node">
<title>hidebound.core.config</title>
<polygon fill="#343434" stroke="#343434" points="1410,-672 1220,-672 1220,-636 1410,-636 1410,-672"/>
<text text-anchor="middle" x="1315" y="-650.3" font-family="Courier,monospace" font-size="14.00" fill="#b6ecf3">hidebound.core.config</text>
</g>
<!-- hidebound.core.database -->
<g id="node3" class="node">
<title>hidebound.core.database</title>
<polygon fill="#343434" stroke="#343434" points="1710,-531 1504,-531 1504,-495 1710,-495 1710,-531"/>
<text text-anchor="middle" x="1607" y="-509.3" font-family="Courier,monospace" font-size="14.00" fill="#b6ecf3">hidebound.core.database</text>
</g>
<!-- hidebound.core.config&#45;&gt;hidebound.core.database -->
<g id="edge1" class="edge">
<title>hidebound.core.config&#45;&gt;hidebound.core.database</title>
<path fill="none" stroke="#b6ecf3" d="M1410.0848,-640.3975C1421.9688,-635.8705 1433.3254,-629.8898 1443,-622 1471.6541,-598.6322 1450.5178,-570.577 1479,-547 1484.2361,-542.6657 1489.9697,-538.879 1496.0163,-535.5713"/>
<polygon fill="#b6ecf3" stroke="#b6ecf3" points="1497.6856,-538.65 1505.0775,-531.0598 1494.5657,-532.3837 1497.6856,-538.65"/>
</g>
<!-- hidebound.server.app -->
<g id="node14" class="node">
<title>hidebound.server.app</title>
<polygon fill="#343434" stroke="#343434" points="2228,-344 2046,-344 2046,-308 2228,-308 2228,-344"/>
<text text-anchor="middle" x="2137" y="-322.3" font-family="Courier,monospace" font-size="14.00" fill="#b6ecf3">hidebound.server.app</text>
</g>
<!-- hidebound.core.config&#45;&gt;hidebound.server.app -->
<g id="edge2" class="edge">
<title>hidebound.core.config&#45;&gt;hidebound.server.app</title>
<path fill="none" stroke="#b6ecf3" d="M1410.146,-657.2445C1552.5829,-657.5369 1824.3241,-639.9968 2010,-516 2070.4821,-475.6093 2109.4632,-395.6469 2126.7248,-353.4907"/>
<polygon fill="#b6ecf3" stroke="#b6ecf3" points="2130.0081,-354.706 2130.4574,-344.1207 2123.5051,-352.1154 2130.0081,-354.706"/>
</g>
<!-- hidebound.server.api -->
<g id="node13" class="node">
<title>hidebound.server.api</title>
<polygon fill="#343434" stroke="#343434" points="1981.5,-507 1799.5,-507 1799.5,-471 1981.5,-471 1981.5,-507"/>
<text text-anchor="middle" x="1890.5" y="-485.3" font-family="Courier,monospace" font-size="14.00" fill="#b6ecf3">hidebound.server.api</text>
</g>
<!-- hidebound.core.database&#45;&gt;hidebound.server.api -->
<g id="edge3" class="edge">
<title>hidebound.core.database&#45;&gt;hidebound.server.api</title>
<path fill="none" stroke="#b6ecf3" d="M1710.152,-504.2676C1735.869,-502.0905 1763.4209,-499.758 1789.0548,-497.588"/>
<polygon fill="#b6ecf3" stroke="#b6ecf3" points="1789.4837,-501.0643 1799.1528,-496.7331 1788.8932,-494.0892 1789.4837,-501.0643"/>
</g>
<!-- hidebound.core.database_tools -->
<g id="node4" class="node">
<title>hidebound.core.database_tools</title>
<polygon fill="#343434" stroke="#343434" points="1443,-488 1187,-488 1187,-452 1443,-452 1443,-488"/>
<text text-anchor="middle" x="1315" y="-466.3" font-family="Courier,monospace" font-size="14.00" fill="#b6ecf3">hidebound.core.database_tools</text>
</g>
<!-- hidebound.core.database_tools&#45;&gt;hidebound.core.database -->
<g id="edge4" class="edge">
<title>hidebound.core.database_tools&#45;&gt;hidebound.core.database</title>
<path fill="none" stroke="#b6ecf3" d="M1437.5651,-488.049C1456.1328,-490.7833 1475.2197,-493.594 1493.5821,-496.2981"/>
<polygon fill="#b6ecf3" stroke="#b6ecf3" points="1493.2978,-499.7938 1503.701,-497.7882 1494.3176,-492.8685 1493.2978,-499.7938"/>
</g>
<!-- hidebound.core.parser -->
<g id="node5" class="node">
<title>hidebound.core.parser</title>
<polygon fill="#343434" stroke="#343434" points="485,-756 295,-756 295,-720 485,-720 485,-756"/>
<text text-anchor="middle" x="390" y="-734.3" font-family="Courier,monospace" font-size="14.00" fill="#b6ecf3">hidebound.core.parser</text>
</g>
<!-- hidebound.core.parser&#45;&gt;hidebound.core.database_tools -->
<g id="edge5" class="edge">
<title>hidebound.core.parser&#45;&gt;hidebound.core.database_tools</title>
<path fill="none" stroke="#b6ecf3" d="M405.111,-719.7311C425.009,-695.1359 460.3521,-649.5395 485,-607 504.547,-573.2641 489.0378,-549.3297 521,-527 547.3951,-508.5597 956.2411,-486.7562 1176.646,-476.2617"/>
<polygon fill="#b6ecf3" stroke="#b6ecf3" points="1176.85,-479.7561 1186.6728,-475.7859 1176.5181,-472.764 1176.85,-479.7561"/>
</g>
<!-- hidebound.core.specification_base -->
<g id="node6" class="node">
<title>hidebound.core.specification_base</title>
<polygon fill="#343434" stroke="#343434" points="1143,-756 854,-756 854,-720 1143,-720 1143,-756"/>
<text text-anchor="middle" x="998.5" y="-734.3" font-family="Courier,monospace" font-size="14.00" fill="#b6ecf3">hidebound.core.specification_base</text>
</g>
<!-- hidebound.core.parser&#45;&gt;hidebound.core.specification_base -->
<g id="edge6" class="edge">
<title>hidebound.core.parser&#45;&gt;hidebound.core.specification_base</title>
<path fill="none" stroke="#b6ecf3" d="M485.143,-742.8694C497.2098,-743.3363 509.3919,-743.7343 521,-744 649.4108,-746.9392 681.5718,-746.0434 810,-744 821.0146,-743.8247 832.3898,-743.5919 843.8407,-743.3197"/>
<polygon fill="#b6ecf3" stroke="#b6ecf3" points="844.0054,-746.8168 853.9159,-743.0708 843.8324,-739.8189 844.0054,-746.8168"/>
</g>
<!-- hidebound.core.validators -->
<g id="node10" class="node">
<title>hidebound.core.validators</title>
<polygon fill="#343434" stroke="#343434" points="777,-832 554,-832 554,-796 777,-796 777,-832"/>
<text text-anchor="middle" x="665.5" y="-810.3" font-family="Courier,monospace" font-size="14.00" fill="#b6ecf3">hidebound.core.validators</text>
</g>
<!-- hidebound.core.parser&#45;&gt;hidebound.core.validators -->
<g id="edge7" class="edge">
<title>hidebound.core.parser&#45;&gt;hidebound.core.validators</title>
<path fill="none" stroke="#b6ecf3" d="M443.5763,-756.0659C478.867,-767.9545 518.9484,-781.43 521,-782 535.7236,-786.0905 551.4049,-790.0075 566.8042,-793.6109"/>
<polygon fill="#b6ecf3" stroke="#b6ecf3" points="566.3394,-797.0955 576.8702,-795.9321 567.9124,-790.2745 566.3394,-797.0955"/>
</g>
<!-- hidebound.core.specification_base&#45;&gt;hidebound.core.config -->
<g id="edge8" class="edge">
<title>hidebound.core.specification_base&#45;&gt;hidebound.core.config</title>
<path fill="none" stroke="#b6ecf3" d="M1110.4748,-719.9198C1124.3873,-716.1044 1138.2056,-711.5139 1151,-706 1168.8891,-698.2904 1169.115,-688.719 1187,-681 1194.4123,-677.8009 1202.234,-674.9697 1210.2086,-672.4659"/>
<polygon fill="#b6ecf3" stroke="#b6ecf3" points="1211.3978,-675.7641 1219.9943,-669.5713 1209.4123,-669.0516 1211.3978,-675.7641"/>
</g>
<!-- hidebound.core.specification_base&#45;&gt;hidebound.core.database -->
<g id="edge9" class="edge">
<title>hidebound.core.specification_base&#45;&gt;hidebound.core.database</title>
<path fill="none" stroke="#b6ecf3" d="M1022.294,-719.8524C1056.6565,-694.6453 1123.0847,-649.593 1187,-627 1295.4485,-588.6653 1342.3205,-644.6261 1443,-589 1464.5193,-577.1104 1458.1816,-560.0782 1479,-547 1486.578,-542.2395 1494.8105,-538.1406 1503.3234,-534.6122"/>
<polygon fill="#b6ecf3" stroke="#b6ecf3" points="1504.5893,-537.8753 1512.653,-531.0031 1502.0638,-531.3467 1504.5893,-537.8753"/>
</g>
<!-- hidebound.core.specification_base&#45;&gt;hidebound.core.database_tools -->
<g id="edge10" class="edge">
<title>hidebound.core.specification_base&#45;&gt;hidebound.core.database_tools</title>
<path fill="none" stroke="#b6ecf3" d="M1038.455,-719.9628C1072.6929,-702.6455 1121.0831,-673.4553 1151,-635 1180.0049,-597.717 1155.738,-570.4118 1187,-535 1203.5256,-516.2808 1226.7209,-502.2579 1248.8344,-492.1226"/>
<polygon fill="#b6ecf3" stroke="#b6ecf3" points="1250.4645,-495.2297 1258.2227,-488.0145 1247.6583,-488.8168 1250.4645,-495.2297"/>
</g>
<!-- hidebound.core.specifications -->
<g id="node7" class="node">
<title>hidebound.core.specifications</title>
<polygon fill="#343434" stroke="#343434" points="1443,-924 1187,-924 1187,-888 1443,-888 1443,-924"/>
<text text-anchor="middle" x="1315" y="-902.3" font-family="Courier,monospace" font-size="14.00" fill="#b6ecf3">hidebound.core.specifications</text>
</g>
<!-- hidebound.core.specification_base&#45;&gt;hidebound.core.specifications -->
<g id="edge11" class="edge">
<title>hidebound.core.specification_base&#45;&gt;hidebound.core.specifications</title>
<path fill="none" stroke="#b6ecf3" d="M1032.6718,-756.1386C1090.7175,-786.9496 1208.4491,-849.4422 1272.0012,-883.176"/>
<polygon fill="#b6ecf3" stroke="#b6ecf3" points="1270.4973,-886.3402 1280.9711,-887.9373 1273.7793,-880.1572 1270.4973,-886.3402"/>
</g>
<!-- hidebound.core.tools -->
<g id="node8" class="node">
<title>hidebound.core.tools</title>
<polygon fill="#343434" stroke="#343434" points="756.5,-442 574.5,-442 574.5,-406 756.5,-406 756.5,-442"/>
<text text-anchor="middle" x="665.5" y="-420.3" font-family="Courier,monospace" font-size="14.00" fill="#b6ecf3">hidebound.core.tools</text>
</g>
<!-- hidebound.core.tools&#45;&gt;hidebound.core.database -->
<g id="edge12" class="edge">
<title>hidebound.core.tools&#45;&gt;hidebound.core.database</title>
<path fill="none" stroke="#b6ecf3" d="M756.6399,-417.8416C934.7463,-407.1663 1322.1421,-391.0174 1443,-443 1463.4996,-451.8171 1459.6245,-466.9291 1479,-478 1488.1889,-483.2504 1498.2015,-487.7435 1508.4465,-491.582"/>
<polygon fill="#b6ecf3" stroke="#b6ecf3" points="1507.3087,-494.892 1517.9035,-494.9261 1509.6424,-488.2924 1507.3087,-494.892"/>
</g>
<!-- hidebound.core.tools&#45;&gt;hidebound.core.database_tools -->
<g id="edge13" class="edge">
<title>hidebound.core.tools&#45;&gt;hidebound.core.database_tools</title>
<path fill="none" stroke="#b6ecf3" d="M756.8079,-429.4899C854.4191,-435.4823 1013.7042,-445.6161 1151,-456 1159.3969,-456.6351 1168.0338,-457.3094 1176.7442,-458.0057"/>
<polygon fill="#b6ecf3" stroke="#b6ecf3" points="1176.7442,-461.5169 1186.9931,-458.8319 1177.3068,-454.5396 1176.7442,-461.5169"/>
</g>
<!-- hidebound.core.tools&#45;&gt;hidebound.core.specification_base -->
<g id="edge14" class="edge">
<title>hidebound.core.tools&#45;&gt;hidebound.core.specification_base</title>
<path fill="none" stroke="#b6ecf3" d="M702.9244,-442.026C735.5349,-459.5181 781.8864,-488.9744 810,-527 840.0794,-567.6845 815.4096,-594.6983 846,-635 872.8373,-670.3572 915.463,-697.6746 948.8346,-715.2645"/>
<polygon fill="#b6ecf3" stroke="#b6ecf3" points="947.487,-718.5071 957.9809,-719.9664 950.6875,-712.2816 947.487,-718.5071"/>
</g>
<!-- hidebound.core.traits -->
<g id="node9" class="node">
<title>hidebound.core.traits</title>
<polygon fill="#343434" stroke="#343434" points="1093.5,-1012 903.5,-1012 903.5,-976 1093.5,-976 1093.5,-1012"/>
<text text-anchor="middle" x="998.5" y="-990.3" font-family="Courier,monospace" font-size="14.00" fill="#b6ecf3">hidebound.core.traits</text>
</g>
<!-- hidebound.core.tools&#45;&gt;hidebound.core.traits -->
<g id="edge15" class="edge">
<title>hidebound.core.tools&#45;&gt;hidebound.core.traits</title>
<path fill="none" stroke="#b6ecf3" d="M706.8662,-442.1004C740.3603,-459.0291 785.8133,-487.6235 810,-527 865.9929,-618.1577 807.4327,-665.2127 846,-765 877.4145,-846.2805 941.5,-928.0098 975.739,-968.2714"/>
<polygon fill="#b6ecf3" stroke="#b6ecf3" points="973.1982,-970.6849 982.3701,-975.9885 978.5074,-966.1229 973.1982,-970.6849"/>
</g>
<!-- hidebound.core.traits&#45;&gt;hidebound.core.specifications -->
<g id="edge16" class="edge">
<title>hidebound.core.traits&#45;&gt;hidebound.core.specifications</title>
<path fill="none" stroke="#b6ecf3" d="M1093.2896,-975.9028C1112.6814,-971.0149 1132.7352,-965.0729 1151,-958 1168.0683,-951.3904 1169.9756,-944.7217 1187,-938 1197.4639,-933.8686 1208.624,-930.1446 1219.828,-926.8237"/>
<polygon fill="#b6ecf3" stroke="#b6ecf3" points="1221.0169,-930.1241 1229.6688,-924.0091 1219.0919,-923.394 1221.0169,-930.1241"/>
</g>
<!-- hidebound.core.validators&#45;&gt;hidebound.core.config -->
<g id="edge17" class="edge">
<title>hidebound.core.validators&#45;&gt;hidebound.core.config</title>
<path fill="none" stroke="#b6ecf3" d="M777.2738,-815.5407C901.9054,-815.0774 1093.5503,-807.1736 1151,-765 1183.7422,-740.9641 1155.5939,-706.7572 1187,-681 1193.9536,-675.2971 1201.8186,-670.7124 1210.1465,-667.0365"/>
<polygon fill="#b6ecf3" stroke="#b6ecf3" points="1211.7026,-670.1853 1219.7219,-663.2613 1209.135,-663.6732 1211.7026,-670.1853"/>
</g>
<!-- hidebound.core.validators&#45;&gt;hidebound.core.specification_base -->
<g id="edge18" class="edge">
<title>hidebound.core.validators&#45;&gt;hidebound.core.specification_base</title>
<path fill="none" stroke="#b6ecf3" d="M747.6843,-795.97C768.058,-791.4535 789.8309,-786.5871 810,-782 843.4086,-774.4019 880.1043,-765.877 912.1701,-758.3687"/>
<polygon fill="#b6ecf3" stroke="#b6ecf3" points="913.0266,-761.7629 921.9641,-756.0734 911.4293,-754.9476 913.0266,-761.7629"/>
</g>
<!-- hidebound.core.validators&#45;&gt;hidebound.core.specifications -->
<g id="edge19" class="edge">
<title>hidebound.core.validators&#45;&gt;hidebound.core.specifications</title>
<path fill="none" stroke="#b6ecf3" d="M777.153,-829.8154C888.1908,-845.5436 1058.737,-869.701 1177.9279,-886.5841"/>
<polygon fill="#b6ecf3" stroke="#b6ecf3" points="1177.4638,-890.0532 1187.8559,-887.9904 1178.4456,-883.1224 1177.4638,-890.0532"/>
</g>
<!-- hidebound.exporters.girder_exporter -->
<g id="node12" class="node">
<title>hidebound.exporters.girder_exporter</title>
<polygon fill="#343434" stroke="#343434" points="1151,-626 846,-626 846,-590 1151,-590 1151,-626"/>
<text text-anchor="middle" x="998.5" y="-604.3" font-family="Courier,monospace" font-size="14.00" fill="#b6ecf3">hidebound.exporters.girder_exporter</text>
</g>
<!-- hidebound.core.validators&#45;&gt;hidebound.exporters.girder_exporter -->
<g id="edge20" class="edge">
<title>hidebound.core.validators&#45;&gt;hidebound.exporters.girder_exporter</title>
<path fill="none" stroke="#b6ecf3" d="M694.7597,-795.8994C755.0592,-758.597 893.1268,-673.1858 960.3381,-631.6077"/>
<polygon fill="#b6ecf3" stroke="#b6ecf3" points="962.2861,-634.5182 968.949,-626.2808 958.6034,-628.5652 962.2861,-634.5182"/>
</g>
<!-- hidebound.exporters.exporter_base -->
<g id="node11" class="node">
<title>hidebound.exporters.exporter_base</title>
<polygon fill="#343434" stroke="#343434" points="810,-312 521,-312 521,-276 810,-276 810,-312"/>
<text text-anchor="middle" x="665.5" y="-290.3" font-family="Courier,monospace" font-size="14.00" fill="#b6ecf3">hidebound.exporters.exporter_base</text>
</g>
<!-- hidebound.exporters.exporter_base&#45;&gt;hidebound.exporters.girder_exporter -->
<g id="edge21" class="edge">
<title>hidebound.exporters.exporter_base&#45;&gt;hidebound.exporters.girder_exporter</title>
<path fill="none" stroke="#b6ecf3" d="M734.2258,-312.0818C761.8437,-322.7682 791.4711,-339.2196 810,-364 868.5434,-442.2956 777.2468,-511.498 846,-581 846.8036,-581.8124 847.6226,-582.6052 848.4562,-583.379"/>
<polygon fill="#b6ecf3" stroke="#b6ecf3" points="846.3815,-586.204 856.3335,-589.8383 850.82,-580.791 846.3815,-586.204"/>
</g>
<!-- hidebound.exporters.girder_exporter&#45;&gt;hidebound.core.config -->
<g id="edge22" class="edge">
<title>hidebound.exporters.girder_exporter&#45;&gt;hidebound.core.config</title>
<path fill="none" stroke="#b6ecf3" d="M1122.6808,-626.0484C1151.3695,-630.218 1181.6264,-634.6155 1209.4336,-638.657"/>
<polygon fill="#b6ecf3" stroke="#b6ecf3" points="1209.1606,-642.154 1219.56,-640.1288 1210.1674,-635.2268 1209.1606,-642.154"/>
</g>
<!-- hidebound.exporters.girder_exporter&#45;&gt;hidebound.core.database -->
<g id="edge23" class="edge">
<title>hidebound.exporters.girder_exporter&#45;&gt;hidebound.core.database</title>
<path fill="none" stroke="#b6ecf3" d="M1133.6015,-589.8553C1139.6338,-587.2606 1145.4685,-584.3232 1151,-581 1173.2538,-567.6304 1163.9672,-546.9777 1187,-535 1238.4603,-508.2392 1387.811,-506.2209 1493.7294,-508.5413"/>
<polygon fill="#b6ecf3" stroke="#b6ecf3" points="1493.7598,-512.0429 1503.8393,-508.7788 1493.9243,-505.0449 1493.7598,-512.0429"/>
</g>
<!-- hidebound.server.api&#45;&gt;hidebound.server.app -->
<g id="edge24" class="edge">
<title>hidebound.server.api&#45;&gt;hidebound.server.app</title>
<path fill="none" stroke="#b6ecf3" d="M1917.8216,-470.9334C1962.5202,-441.3761 2051.2721,-382.6882 2101.0326,-349.7837"/>
<polygon fill="#b6ecf3" stroke="#b6ecf3" points="2103.1452,-352.5828 2109.556,-344.1476 2099.2842,-346.7439 2103.1452,-352.5828"/>
</g>
<!-- hidebound.server.components -->
<g id="node15" class="node">
<title>hidebound.server.components</title>
<polygon fill="#343434" stroke="#343434" points="2010,-294 1771,-294 1771,-258 2010,-258 2010,-294"/>
<text text-anchor="middle" x="1890.5" y="-272.3" font-family="Courier,monospace" font-size="14.00" fill="#b6ecf3">hidebound.server.components</text>
</g>
<!-- hidebound.server.components&#45;&gt;hidebound.server.app -->
<g id="edge25" class="edge">
<title>hidebound.server.components&#45;&gt;hidebound.server.app</title>
<path fill="none" stroke="#b6ecf3" d="M1979.4922,-294.0511C1998.5165,-297.91 2018.7237,-302.0089 2038.0953,-305.9382"/>
<polygon fill="#b6ecf3" stroke="#b6ecf3" points="2037.6423,-309.4175 2048.1385,-307.9753 2039.0338,-302.5572 2037.6423,-309.4175"/>
</g>
<!-- hidebound.server.server_tools -->
<g id="node16" class="node">
<title>hidebound.server.server_tools</title>
<polygon fill="#343434" stroke="#343434" points="1735,-759 1479,-759 1479,-723 1735,-723 1735,-759"/>
<text text-anchor="middle" x="1607" y="-737.3" font-family="Courier,monospace" font-size="14.00" fill="#b6ecf3">hidebound.server.server_tools</text>
</g>
<!-- hidebound.server.server_tools&#45;&gt;hidebound.server.api -->
<g id="edge26" class="edge">
<title>hidebound.server.server_tools&#45;&gt;hidebound.server.api</title>
<path fill="none" stroke="#b6ecf3" d="M1627.3886,-722.8768C1677.2255,-678.5773 1805.2991,-564.7341 1862.3517,-514.0207"/>
<polygon fill="#b6ecf3" stroke="#b6ecf3" points="1864.7664,-516.5572 1869.9152,-507.2976 1860.1158,-511.3253 1864.7664,-516.5572"/>
</g>
<!-- hidebound.server.server_tools&#45;&gt;hidebound.server.app -->
<g id="edge27" class="edge">
<title>hidebound.server.server_tools&#45;&gt;hidebound.server.app</title>
<path fill="none" stroke="#b6ecf3" d="M1704.5451,-759.0494C1793.6621,-769.7339 1924.2394,-770.0514 2010,-702 2066.5611,-657.1185 2115.6343,-433.6991 2131.5683,-354.167"/>
<polygon fill="#b6ecf3" stroke="#b6ecf3" points="2135.0022,-354.8433 2133.5118,-344.3538 2128.1356,-353.4833 2135.0022,-354.8433"/>
</g>
<!-- dash -->
<g id="node17" class="node">
<title>dash</title>
<polygon fill="#343434" stroke="#343434" points="1634,-344 1580,-344 1580,-308 1634,-308 1634,-344"/>
<text text-anchor="middle" x="1607" y="-322.3" font-family="Courier,monospace" font-size="14.00" fill="#de958e">dash</text>
</g>
<!-- dash&#45;&gt;hidebound.server.app -->
<g id="edge28" class="edge">
<title>dash&#45;&gt;hidebound.server.app</title>
<path fill="none" stroke="#de958e" d="M1634.0114,-326C1706.9517,-326 1910.7836,-326 2035.4438,-326"/>
<polygon fill="#de958e" stroke="#de958e" points="2035.7649,-329.5001 2045.7649,-326 2035.7649,-322.5001 2035.7649,-329.5001"/>
</g>
<!-- dash&#45;&gt;hidebound.server.components -->
<g id="edge29" class="edge">
<title>dash&#45;&gt;hidebound.server.components</title>
<path fill="none" stroke="#de958e" d="M1634.1832,-321.2058C1667.3837,-315.3503 1725.6293,-305.0777 1778.2148,-295.8034"/>
<polygon fill="#de958e" stroke="#de958e" points="1779.0633,-299.2078 1788.3034,-294.0241 1777.8474,-292.3142 1779.0633,-299.2078"/>
</g>
<!-- dash_core_components -->
<g id="node18" class="node">
<title>dash_core_components</title>
<polygon fill="#343434" stroke="#343434" points="1698,-144 1516,-144 1516,-108 1698,-108 1698,-144"/>
<text text-anchor="middle" x="1607" y="-122.3" font-family="Courier,monospace" font-size="14.00" fill="#de958e">dash_core_components</text>
</g>
<!-- dash_core_components&#45;&gt;hidebound.server.app -->
<g id="edge30" class="edge">
<title>dash_core_components&#45;&gt;hidebound.server.app</title>
<path fill="none" stroke="#de958e" d="M1698.4458,-140.9365C1815.2028,-160.1106 2003.0932,-191.3581 2010,-195 2057.1793,-219.8769 2097.2375,-268.701 2119.1318,-299.2087"/>
<polygon fill="#de958e" stroke="#de958e" points="2116.4616,-301.4964 2125.074,-307.6671 2122.1895,-297.4725 2116.4616,-301.4964"/>
</g>
<!-- dash_core_components&#45;&gt;hidebound.server.components -->
<g id="edge31" class="edge">
<title>dash_core_components&#45;&gt;hidebound.server.components</title>
<path fill="none" stroke="#de958e" d="M1698.0396,-137.2696C1711.513,-142.0459 1724.4048,-148.716 1735,-158 1767.7127,-186.6642 1737.9631,-220.7101 1771,-249 1772.3328,-250.1413 1773.7039,-251.2371 1775.1093,-252.2892"/>
<polygon fill="#de958e" stroke="#de958e" points="1773.2366,-255.2469 1783.5072,-257.848 1777.1004,-249.4098 1773.2366,-255.2469"/>
</g>
<!-- dash_cytoscape -->
<g id="node19" class="node">
<title>dash_cytoscape</title>
<polygon fill="#343434" stroke="#343434" points="1673,-290 1541,-290 1541,-254 1673,-254 1673,-290"/>
<text text-anchor="middle" x="1607" y="-268.3" font-family="Courier,monospace" font-size="14.00" fill="#de958e">dash_cytoscape</text>
</g>
<!-- dash_cytoscape&#45;&gt;hidebound.server.components -->
<g id="edge32" class="edge">
<title>dash_cytoscape&#45;&gt;hidebound.server.components</title>
<path fill="none" stroke="#de958e" d="M1673.1104,-272.9328C1699.2763,-273.302 1730.3053,-273.7398 1760.6066,-274.1673"/>
<polygon fill="#de958e" stroke="#de958e" points="1760.7983,-277.6702 1770.8467,-274.3118 1760.8971,-270.6709 1760.7983,-277.6702"/>
</g>
<!-- hidebound.server -->
<g id="node20" class="node">
<title>hidebound.server</title>
<polygon fill="#343434" stroke="#343434" points="1389.5,-1070 1240.5,-1070 1240.5,-1034 1389.5,-1034 1389.5,-1070"/>
<text text-anchor="middle" x="1315" y="-1048.3" font-family="Courier,monospace" font-size="14.00" fill="#a0d17b">hidebound.server</text>
</g>
<!-- hidebound.server&#45;&gt;hidebound.server.api -->
<g id="edge33" class="edge">
<title>hidebound.server&#45;&gt;hidebound.server.api</title>
<path fill="none" stroke="#a0d17b" d="M1389.8138,-1038.9858C1407.4455,-1035.1601 1426.04,-1030.4959 1443,-1025 1510.5699,-1003.1038 1686.1256,-946.5405 1735,-895 1841.4581,-782.7346 1877.1282,-589.9589 1887.1179,-517.5755"/>
<polygon fill="#a0d17b" stroke="#a0d17b" points="1890.6213,-517.779 1888.4595,-507.4071 1883.6814,-516.8634 1890.6213,-517.779"/>
</g>
<!-- hidebound.server&#45;&gt;hidebound.server.app -->
<g id="edge34" class="edge">
<title>hidebound.server&#45;&gt;hidebound.server.app</title>
<path fill="none" stroke="#a0d17b" d="M1389.6288,-1047.5331C1476.2775,-1039.9889 1621.773,-1019.92 1735,-967 1876.7978,-900.7266 1922.3311,-876.6647 2010,-747 2097.6499,-617.3633 2126.3594,-425.4178 2134.3216,-354.0554"/>
<polygon fill="#a0d17b" stroke="#a0d17b" points="2137.8091,-354.358 2135.389,-344.0433 2130.8485,-353.6159 2137.8091,-354.358"/>
</g>
<!-- hidebound.server&#45;&gt;hidebound.server.components -->
<g id="edge35" class="edge">
<title>hidebound.server&#45;&gt;hidebound.server.components</title>
<path fill="none" stroke="#a0d17b" d="M1389.5386,-1049.9924C1408.9816,-1046.0675 1428.5176,-1038.6077 1443,-1025 1486.6916,-983.9474 1440.8282,-941.2297 1479,-895 1559.8673,-797.0621 1661.8565,-871.8334 1735,-768 1813.8613,-656.0496 1724.8057,-590.9112 1771,-462 1793.4399,-399.3786 1840.2667,-336.2971 1868.1756,-302.0799"/>
<polygon fill="#a0d17b" stroke="#a0d17b" points="1871.1639,-303.9581 1874.8371,-294.0203 1865.7684,-299.4985 1871.1639,-303.9581"/>
</g>
<!-- hidebound.server&#45;&gt;hidebound.server.server_tools -->
<g id="edge36" class="edge">
<title>hidebound.server&#45;&gt;hidebound.server.server_tools</title>
<path fill="none" stroke="#a0d17b" d="M1389.6181,-1050.4886C1409.1775,-1046.5886 1428.7543,-1039.0177 1443,-1025 1494.3364,-974.4853 1443.9256,-929.9042 1479,-867 1502.389,-825.053 1543.9666,-787.9718 1573.3808,-765.085"/>
<polygon fill="#a0d17b" stroke="#a0d17b" points="1575.5067,-767.8653 1581.3293,-759.0139 1571.2577,-762.3024 1575.5067,-767.8653"/>
</g>
<!-- dash_html_components -->
<g id="node21" class="node">
<title>dash_html_components</title>
<polygon fill="#343434" stroke="#343434" points="1698,-90 1516,-90 1516,-54 1698,-54 1698,-90"/>
<text text-anchor="middle" x="1607" y="-68.3" font-family="Courier,monospace" font-size="14.00" fill="#de958e">dash_html_components</text>
</g>
<!-- dash_html_components&#45;&gt;hidebound.server.app -->
<g id="edge37" class="edge">
<title>dash_html_components&#45;&gt;hidebound.server.app</title>
<path fill="none" stroke="#de958e" d="M1698.1733,-87.7129C1710.7169,-90.8899 1723.2986,-94.629 1735,-99 1752.1461,-105.4049 1753.6383,-113.205 1771,-119 1872.7136,-152.9501 1917.9591,-96.9841 2010,-152 2067.8553,-186.582 2107.1942,-258.7115 2125.4133,-298.381"/>
<polygon fill="#de958e" stroke="#de958e" points="2122.3133,-300.0226 2129.5887,-307.7245 2128.7042,-297.1666 2122.3133,-300.0226"/>
</g>
<!-- dash_html_components&#45;&gt;hidebound.server.components -->
<g id="edge38" class="edge">
<title>dash_html_components&#45;&gt;hidebound.server.components</title>
<path fill="none" stroke="#de958e" d="M1698.0714,-77.8882C1711.7835,-82.3222 1724.7437,-89.0235 1735,-99 1784.1448,-146.8041 1722.1988,-200.8452 1771,-249 1771.9581,-249.9454 1772.9418,-250.8605 1773.9493,-251.7463"/>
<polygon fill="#de958e" stroke="#de958e" points="1772.0373,-254.6901 1782.109,-257.9783 1776.2862,-249.127 1772.0373,-254.6901"/>
</g>
<!-- dash.dependencies -->
<g id="node22" class="node">
<title>dash.dependencies</title>
<polygon fill="#343434" stroke="#343434" points="1969,-240 1812,-240 1812,-204 1969,-204 1969,-240"/>
<text text-anchor="middle" x="1890.5" y="-218.3" font-family="Courier,monospace" font-size="14.00" fill="#de958e">dash.dependencies</text>
</g>
<!-- dash.dependencies&#45;&gt;hidebound.server.app -->
<g id="edge39" class="edge">
<title>dash.dependencies&#45;&gt;hidebound.server.app</title>
<path fill="none" stroke="#de958e" d="M1969.073,-235.9396C1982.9501,-239.4721 1997.0811,-243.7857 2010,-249 2044.0079,-262.7263 2079.4292,-284.9685 2104.1958,-302.0269"/>
<polygon fill="#de958e" stroke="#de958e" points="2102.2896,-304.9647 2112.4919,-307.822 2106.2982,-299.2261 2102.2896,-304.9647"/>
</g>
<!-- dash_table -->
<g id="node23" class="node">
<title>dash_table</title>
<polygon fill="#343434" stroke="#343434" points="1656.5,-36 1557.5,-36 1557.5,0 1656.5,0 1656.5,-36"/>
<text text-anchor="middle" x="1607" y="-14.3" font-family="Courier,monospace" font-size="14.00" fill="#de958e">dash_table</text>
</g>
<!-- dash_table&#45;&gt;hidebound.server.app -->
<g id="edge40" class="edge">
<title>dash_table&#45;&gt;hidebound.server.app</title>
<path fill="none" stroke="#de958e" d="M1656.6178,-9.6605C1738.3788,1.2423 1902.9975,10.9093 2010,-65 2089.9527,-121.7197 2121.7288,-242.9473 2132.3788,-297.8936"/>
<polygon fill="#de958e" stroke="#de958e" points="2128.9797,-298.7609 2134.2352,-307.9604 2135.8636,-297.4914 2128.9797,-298.7609"/>
</g>
<!-- dash_table&#45;&gt;hidebound.server.components -->
<g id="edge41" class="edge">
<title>dash_table&#45;&gt;hidebound.server.components</title>
<path fill="none" stroke="#de958e" d="M1656.7907,-15.885C1683.5368,-17.5157 1715.0252,-24.3504 1735,-45 1799.0114,-111.1739 1707.464,-182.3695 1771,-249 1771.7889,-249.8274 1772.5974,-250.6319 1773.4243,-251.4142"/>
<polygon fill="#de958e" stroke="#de958e" points="1771.3715,-254.2565 1781.331,-257.8702 1775.7988,-248.8344 1771.3715,-254.2565"/>
</g>
<!-- flask -->
<g id="node24" class="node">
<title>flask</title>
<polygon fill="#343434" stroke="#343434" points="1344,-726 1286,-726 1286,-690 1344,-690 1344,-726"/>
<text text-anchor="middle" x="1315" y="-704.3" font-family="Courier,monospace" font-size="14.00" fill="#de958e">flask</text>
</g>
<!-- flask&#45;&gt;hidebound.server.api -->
<g id="edge42" class="edge">
<title>flask&#45;&gt;hidebound.server.api</title>
<path fill="none" stroke="#de958e" d="M1344.0057,-703.0829C1370.1356,-698.3701 1409.4773,-690.5691 1443,-681 1575.7613,-643.1033 1609.3153,-632.1409 1735,-575 1776.2808,-556.2323 1821.4221,-530.6639 1852.381,-512.2919"/>
<polygon fill="#de958e" stroke="#de958e" points="1854.3259,-515.2071 1861.1172,-507.0751 1850.737,-509.1971 1854.3259,-515.2071"/>
</g>
<!-- flask&#45;&gt;hidebound.server.app -->
<g id="edge43" class="edge">
<title>flask&#45;&gt;hidebound.server.app</title>
<path fill="none" stroke="#de958e" d="M1344.1369,-706.2238C1462.3679,-698.4782 1904.9933,-664.1035 2010,-578 2082.8342,-518.2773 2117.8994,-406.131 2130.8462,-353.9841"/>
<polygon fill="#de958e" stroke="#de958e" points="2134.2886,-354.6375 2133.2122,-344.0975 2127.4808,-353.0082 2134.2886,-354.6375"/>
</g>
<!-- flask&#45;&gt;hidebound.server.components -->
<g id="edge44" class="edge">
<title>flask&#45;&gt;hidebound.server.components</title>
<path fill="none" stroke="#de958e" d="M1344.032,-709.6303C1372.6124,-709.6327 1415.8166,-705.1145 1443,-681 1480.2196,-647.9824 1440.6159,-606.6563 1479,-575 1567.5936,-501.9347 1642.6941,-608.3153 1735,-540 1765.69,-517.2865 1752.637,-495.475 1771,-462 1803.2483,-403.2128 1847.132,-338.0433 1871.7538,-302.5778"/>
<polygon fill="#de958e" stroke="#de958e" points="1874.7308,-304.4277 1877.5798,-294.2231 1868.9889,-300.4238 1874.7308,-304.4277"/>
</g>
<!-- flask&#45;&gt;hidebound.server.server_tools -->
<g id="edge45" class="edge">
<title>flask&#45;&gt;hidebound.server.server_tools</title>
<path fill="none" stroke="#de958e" d="M1344.0656,-711.2848C1373.694,-714.6332 1421.8638,-720.0771 1468.9312,-725.3963"/>
<polygon fill="#de958e" stroke="#de958e" points="1468.6213,-728.8835 1478.9511,-726.5287 1469.4074,-721.9278 1468.6213,-728.8835"/>
</g>
<!-- jinja2 -->
<g id="node25" class="node">
<title>jinja2</title>
<polygon fill="#343434" stroke="#343434" points="1348,-1016 1282,-1016 1282,-980 1348,-980 1348,-1016"/>
<text text-anchor="middle" x="1315" y="-994.3" font-family="Courier,monospace" font-size="14.00" fill="#de958e">jinja2</text>
</g>
<!-- jinja2&#45;&gt;hidebound.server.server_tools -->
<g id="edge46" class="edge">
<title>jinja2&#45;&gt;hidebound.server.server_tools</title>
<path fill="none" stroke="#de958e" d="M1348.125,-998.0054C1376.5958,-996.2654 1417.0514,-989.386 1443,-966 1477.7786,-934.656 1453.6948,-906.391 1479,-867 1505.0774,-826.407 1546.3908,-788.8551 1574.9968,-765.4968"/>
<polygon fill="#de958e" stroke="#de958e" points="1577.4701,-767.9992 1583.0698,-759.0051 1573.0835,-762.5441 1577.4701,-767.9992"/>
</g>
<!-- rolling_pin.blob_etl -->
<g id="node26" class="node">
<title>rolling_pin.blob_etl</title>
<polygon fill="#343434" stroke="#343434" points="1698,-236 1516,-236 1516,-200 1698,-200 1698,-236"/>
<text text-anchor="middle" x="1607" y="-214.3" font-family="Courier,monospace" font-size="14.00" fill="#de958e">rolling_pin.blob_etl</text>
</g>
<!-- rolling_pin.blob_etl&#45;&gt;hidebound.server.components -->
<g id="edge47" class="edge">
<title>rolling_pin.blob_etl&#45;&gt;hidebound.server.components</title>
<path fill="none" stroke="#de958e" d="M1695.1471,-236.0336C1725.9478,-242.335 1760.7082,-249.4465 1792.2785,-255.9053"/>
<polygon fill="#de958e" stroke="#de958e" points="1791.9088,-259.4021 1802.4074,-257.9775 1793.3118,-252.5441 1791.9088,-259.4021"/>
</g>
<!-- hidebound.exporters -->
<g id="node27" class="node">
<title>hidebound.exporters</title>
<polygon fill="#343434" stroke="#343434" points="476.5,-392 303.5,-392 303.5,-356 476.5,-356 476.5,-392"/>
<text text-anchor="middle" x="390" y="-370.3" font-family="Courier,monospace" font-size="14.00" fill="#a0d17b">hidebound.exporters</text>
</g>
<!-- hidebound.exporters&#45;&gt;hidebound.exporters.exporter_base -->
<g id="edge48" class="edge">
<title>hidebound.exporters&#45;&gt;hidebound.exporters.exporter_base</title>
<path fill="none" stroke="#a0d17b" d="M434.6739,-355.9502C459.7713,-346.2369 491.8244,-334.5344 521,-326 535.262,-321.8281 550.4547,-317.908 565.4296,-314.3389"/>
<polygon fill="#a0d17b" stroke="#a0d17b" points="566.2881,-317.7327 575.2269,-312.0451 564.6923,-310.917 566.2881,-317.7327"/>
</g>
<!-- hidebound.exporters&#45;&gt;hidebound.exporters.girder_exporter -->
<g id="edge49" class="edge">
<title>hidebound.exporters&#45;&gt;hidebound.exporters.girder_exporter</title>
<path fill="none" stroke="#a0d17b" d="M453.2321,-355.9713C543.9495,-334.3275 710.9821,-310.8274 810,-397 872.858,-451.7036 786.5507,-522.61 846,-581 846.9441,-581.9273 847.9083,-582.8289 848.8915,-583.7056"/>
<polygon fill="#a0d17b" stroke="#a0d17b" points="846.7671,-586.4877 856.7814,-589.9465 851.1098,-580.9976 846.7671,-586.4877"/>
</g>
<!-- dash.exceptions -->
<g id="node28" class="node">
<title>dash.exceptions</title>
<polygon fill="#343434" stroke="#343434" points="1960.5,-110 1820.5,-110 1820.5,-74 1960.5,-74 1960.5,-110"/>
<text text-anchor="middle" x="1890.5" y="-88.3" font-family="Courier,monospace" font-size="14.00" fill="#de958e">dash.exceptions</text>
</g>
<!-- dash.exceptions&#45;&gt;hidebound.server.app -->
<g id="edge50" class="edge">
<title>dash.exceptions&#45;&gt;hidebound.server.app</title>
<path fill="none" stroke="#de958e" d="M1960.8071,-101.5913C1978.0499,-106.3332 1995.6548,-113.4174 2010,-124 2071.6982,-169.5153 2110.5662,-254.8028 2127.3659,-298.5626"/>
<polygon fill="#de958e" stroke="#de958e" points="2124.1113,-299.852 2130.8904,-307.9942 2130.6684,-297.4017 2124.1113,-299.852"/>
</g>
<!-- flasgger -->
<g id="node29" class="node">
<title>flasgger</title>
<polygon fill="#343434" stroke="#343434" points="1648.5,-398 1565.5,-398 1565.5,-362 1648.5,-362 1648.5,-398"/>
<text text-anchor="middle" x="1607" y="-376.3" font-family="Courier,monospace" font-size="14.00" fill="#de958e">flasgger</text>
</g>
<!-- flasgger&#45;&gt;hidebound.server.api -->
<g id="edge51" class="edge">
<title>flasgger&#45;&gt;hidebound.server.api</title>
<path fill="none" stroke="#de958e" d="M1648.6065,-388.0301C1673.9793,-393.5069 1706.8368,-401.6436 1735,-412 1775.3567,-426.8403 1819.0512,-449.0689 1849.8159,-465.8336"/>
<polygon fill="#de958e" stroke="#de958e" points="1848.4816,-469.0942 1858.9305,-470.8468 1851.8552,-462.9607 1848.4816,-469.0942"/>
</g>
<!-- flasgger&#45;&gt;hidebound.server.app -->
<g id="edge52" class="edge">
<title>flasgger&#45;&gt;hidebound.server.app</title>
<path fill="none" stroke="#de958e" d="M1648.7864,-376.0033C1721.9918,-368.9678 1878.1885,-353.8063 2010,-340 2018.3248,-339.128 2026.9547,-338.209 2035.6189,-337.2756"/>
<polygon fill="#de958e" stroke="#de958e" points="2036.224,-340.7306 2045.7895,-336.1753 2035.4711,-333.7713 2036.224,-340.7306"/>
</g>
<!-- girder_client -->
<g id="node30" class="node">
<title>girder_client</title>
<polygon fill="#343434" stroke="#343434" points="727.5,-572 603.5,-572 603.5,-536 727.5,-536 727.5,-572"/>
<text text-anchor="middle" x="665.5" y="-550.3" font-family="Courier,monospace" font-size="14.00" fill="#de958e">girder_client</text>
</g>
<!-- girder_client&#45;&gt;hidebound.exporters.girder_exporter -->
<g id="edge53" class="edge">
<title>girder_client&#45;&gt;hidebound.exporters.girder_exporter</title>
<path fill="none" stroke="#de958e" d="M727.7441,-564.0936C769.7466,-570.9049 826.5608,-580.118 877.3002,-588.346"/>
<polygon fill="#de958e" stroke="#de958e" points="876.9295,-591.8315 887.3609,-589.9774 878.0501,-584.9218 876.9295,-591.8315"/>
</g>
<!-- lunchbox.tools -->
<g id="node31" class="node">
<title>lunchbox.tools</title>
<polygon fill="#343434" stroke="#343434" points="1064.5,-572 932.5,-572 932.5,-536 1064.5,-536 1064.5,-572"/>
<text text-anchor="middle" x="998.5" y="-550.3" font-family="Courier,monospace" font-size="14.00" fill="#de958e">lunchbox.tools</text>
</g>
<!-- lunchbox.tools&#45;&gt;hidebound.core.database_tools -->
<g id="edge54" class="edge">
<title>lunchbox.tools&#45;&gt;hidebound.core.database_tools</title>
<path fill="none" stroke="#de958e" d="M1064.6502,-544.5867C1091.9153,-539.5672 1123.4986,-532.2565 1151,-522 1168.1495,-515.6042 1169.9756,-508.7217 1187,-502 1197.4639,-497.8686 1208.624,-494.1446 1219.828,-490.8237"/>
<polygon fill="#de958e" stroke="#de958e" points="1221.0169,-494.1241 1229.6688,-488.0091 1219.0919,-487.394 1221.0169,-494.1241"/>
</g>
<!-- lunchbox.tools&#45;&gt;hidebound.server.server_tools -->
<g id="edge55" class="edge">
<title>lunchbox.tools&#45;&gt;hidebound.server.server_tools</title>
<path fill="none" stroke="#de958e" d="M1064.7378,-550.1274C1094.6309,-551.9346 1128.2564,-559.4614 1151,-581 1202.0359,-629.332 1132.244,-690.9271 1187,-735 1288.7085,-816.8648 1453.5824,-787.157 1543.5226,-761.8959"/>
<polygon fill="#de958e" stroke="#de958e" points="1544.6713,-765.2075 1553.3143,-759.0798 1542.7365,-758.4802 1544.6713,-765.2075"/>
</g>
<!-- hidebound -->
<g id="node32" class="node">
<title>hidebound</title>
<polygon fill="#343434" stroke="#343434" points="91,-970 0,-970 0,-934 91,-934 91,-970"/>
<text text-anchor="middle" x="45.5" y="-948.3" font-family="Courier,monospace" font-size="14.00" fill="#a0d17b">hidebound</text>
</g>
<!-- hidebound&#45;&gt;hidebound.server -->
<g id="edge56" class="edge">
<title>hidebound&#45;&gt;hidebound.server</title>
<path fill="none" stroke="#a0d17b" d="M58.1803,-970.3397C99.0677,-1027.0847 233.89,-1196 390,-1196 390,-1196 390,-1196 665.5,-1196 881.5413,-1196 947.3652,-1244.1574 1151,-1172 1206.8632,-1152.2051 1260.0301,-1106.7167 1289.9845,-1077.7789"/>
<polygon fill="#a0d17b" stroke="#a0d17b" points="1292.7651,-1079.9535 1297.444,-1070.4478 1287.8585,-1074.9609 1292.7651,-1079.9535"/>
</g>
<!-- hidebound&#45;&gt;hidebound.exporters -->
<g id="edge57" class="edge">
<title>hidebound&#45;&gt;hidebound.exporters</title>
<path fill="none" stroke="#a0d17b" d="M82.7281,-933.9769C85.871,-931.3187 88.7148,-928.3335 91,-925 145.5341,-845.4503 95.5966,-802.1918 127,-711 178.0247,-562.8301 172.7085,-498.993 295,-401 296.5555,-399.7536 298.1656,-398.5647 299.8221,-397.4307"/>
<polygon fill="#a0d17b" stroke="#a0d17b" points="301.7119,-400.3781 308.4543,-392.2055 298.087,-394.3897 301.7119,-400.3781"/>
</g>
<!-- hidebound.core -->
<g id="node37" class="node">
<title>hidebound.core</title>
<polygon fill="#343434" stroke="#343434" points="259,-970 127,-970 127,-934 259,-934 259,-970"/>
<text text-anchor="middle" x="193" y="-948.3" font-family="Courier,monospace" font-size="14.00" fill="#a0d17b">hidebound.core</text>
</g>
<!-- hidebound&#45;&gt;hidebound.core -->
<g id="edge58" class="edge">
<title>hidebound&#45;&gt;hidebound.core</title>
<path fill="none" stroke="#a0d17b" d="M91.3614,-952C99.4456,-952 108.0541,-952 116.7093,-952"/>
<polygon fill="#a0d17b" stroke="#a0d17b" points="116.8627,-955.5001 126.8626,-952 116.8626,-948.5001 116.8627,-955.5001"/>
</g>
<!-- pandasql -->
<g id="node33" class="node">
<title>pandasql</title>
<polygon fill="#343434" stroke="#343434" points="1356.5,-580 1273.5,-580 1273.5,-544 1356.5,-544 1356.5,-580"/>
<text text-anchor="middle" x="1315" y="-558.3" font-family="Courier,monospace" font-size="14.00" fill="#de958e">pandasql</text>
</g>
<!-- pandasql&#45;&gt;hidebound.core.database -->
<g id="edge59" class="edge">
<title>pandasql&#45;&gt;hidebound.core.database</title>
<path fill="none" stroke="#de958e" d="M1356.5264,-555.0315C1392.3214,-549.0248 1445.7108,-540.0657 1494.0129,-531.9602"/>
<polygon fill="#de958e" stroke="#de958e" points="1494.6333,-535.4051 1503.9161,-530.2983 1493.4748,-528.5016 1494.6333,-535.4051"/>
</g>
<!-- numpy -->
<g id="node34" class="node">
<title>numpy</title>
<polygon fill="#343434" stroke="#343434" points="1027.5,-328 969.5,-328 969.5,-292 1027.5,-292 1027.5,-328"/>
<text text-anchor="middle" x="998.5" y="-306.3" font-family="Courier,monospace" font-size="14.00" fill="#de958e">numpy</text>
</g>
<!-- numpy&#45;&gt;hidebound.core.database -->
<g id="edge60" class="edge">
<title>numpy&#45;&gt;hidebound.core.database</title>
<path fill="none" stroke="#de958e" d="M1027.6425,-314.2332C1058.6889,-319.1762 1109.0408,-328.4422 1151,-342 1167.6609,-347.3835 1170.2822,-352.7958 1187,-358 1297.529,-392.407 1350.5828,-336.2895 1443,-406 1471.5626,-427.5448 1451.3396,-455.3086 1479,-478 1484.8165,-482.7716 1491.232,-486.8954 1497.9989,-490.459"/>
<polygon fill="#de958e" stroke="#de958e" points="1496.8911,-493.8095 1507.4212,-494.9795 1499.9191,-487.4982 1496.8911,-493.8095"/>
</g>
<!-- numpy&#45;&gt;hidebound.core.database_tools -->
<g id="edge61" class="edge">
<title>numpy&#45;&gt;hidebound.core.database_tools</title>
<path fill="none" stroke="#de958e" d="M1027.7061,-309.7441C1060.4061,-310.8158 1113.6938,-316.7604 1151,-342 1174.8905,-358.1631 1165.9635,-376.2651 1187,-396 1209.5083,-417.1157 1239.1088,-434.7201 1264.1746,-447.4537"/>
<polygon fill="#de958e" stroke="#de958e" points="1262.6689,-450.6137 1273.1827,-451.9221 1265.7796,-444.3428 1262.6689,-450.6137"/>
</g>
<!-- numpy&#45;&gt;hidebound.server.api -->
<g id="edge62" class="edge">
<title>numpy&#45;&gt;hidebound.server.api</title>
<path fill="none" stroke="#de958e" d="M1027.7059,-304.0137C1104.2862,-290.0682 1313.8648,-263.3823 1443,-358 1475.1062,-381.5243 1447.0231,-416.3003 1479,-440 1503.4419,-458.1151 1675.2274,-473.6833 1788.9797,-482.1619"/>
<polygon fill="#de958e" stroke="#de958e" points="1788.8844,-485.6643 1799.1149,-482.9101 1789.3998,-478.6833 1788.8844,-485.6643"/>
</g>
<!-- pyparsing -->
<g id="node35" class="node">
<title>pyparsing</title>
<polygon fill="#343434" stroke="#343434" points="238.5,-756 147.5,-756 147.5,-720 238.5,-720 238.5,-756"/>
<text text-anchor="middle" x="193" y="-734.3" font-family="Courier,monospace" font-size="14.00" fill="#de958e">pyparsing</text>
</g>
<!-- pyparsing&#45;&gt;hidebound.core.parser -->
<g id="edge63" class="edge">
<title>pyparsing&#45;&gt;hidebound.core.parser</title>
<path fill="none" stroke="#de958e" d="M238.6909,-738C252.6218,-738 268.5536,-738 284.73,-738"/>
<polygon fill="#de958e" stroke="#de958e" points="284.8181,-741.5001 294.818,-738 284.818,-734.5001 284.8181,-741.5001"/>
</g>
<!-- pyparsing&#45;&gt;hidebound.core.specification_base -->
<g id="edge64" class="edge">
<title>pyparsing&#45;&gt;hidebound.core.specification_base</title>
<path fill="none" stroke="#de958e" d="M238.7021,-723.2039C256.1238,-718.2807 276.2899,-713.4344 295,-711 397.1016,-697.7153 669.5161,-713.6109 843.8472,-726.0323"/>
<polygon fill="#de958e" stroke="#de958e" points="843.6625,-729.528 853.887,-726.7516 844.1627,-722.5459 843.6625,-729.528"/>
</g>
<!-- pyparsing&#45;&gt;hidebound.core.validators -->
<g id="edge65" class="edge">
<title>pyparsing&#45;&gt;hidebound.core.validators</title>
<path fill="none" stroke="#de958e" d="M238.6629,-751.4151C256.1678,-756.2069 276.4004,-761.3239 295,-765 377.3736,-781.2808 471.1456,-793.623 543.7412,-801.8482"/>
<polygon fill="#de958e" stroke="#de958e" points="543.5129,-805.3444 553.8408,-802.9814 544.2935,-798.3881 543.5129,-805.3444"/>
</g>
<!-- schematics -->
<g id="node36" class="node">
<title>schematics</title>
<polygon fill="#343434" stroke="#343434" points="715,-664 616,-664 616,-628 715,-628 715,-664"/>
<text text-anchor="middle" x="665.5" y="-642.3" font-family="Courier,monospace" font-size="14.00" fill="#de958e">schematics</text>
</g>
<!-- schematics&#45;&gt;hidebound.core.config -->
<g id="edge66" class="edge">
<title>schematics&#45;&gt;hidebound.core.config</title>
<path fill="none" stroke="#de958e" d="M715.1506,-653.6968C751.3259,-658.9024 801.5699,-665.3023 846,-668 981.3064,-676.2154 1015.5673,-673.7702 1151,-668 1169.9634,-667.1921 1190.1267,-665.8609 1209.5907,-664.3324"/>
<polygon fill="#de958e" stroke="#de958e" points="1210.0093,-667.8101 1219.6953,-663.5169 1209.4461,-660.8328 1210.0093,-667.8101"/>
</g>
<!-- schematics&#45;&gt;hidebound.core.specification_base -->
<g id="edge67" class="edge">
<title>schematics&#45;&gt;hidebound.core.specification_base</title>
<path fill="none" stroke="#de958e" d="M715.0915,-651.4522C743.8291,-655.944 780.1201,-663.9518 810,-678 828.3435,-686.6243 827.6089,-697.4776 846,-706 854.9282,-710.1373 864.3982,-713.745 874.0756,-716.8899"/>
<polygon fill="#de958e" stroke="#de958e" points="873.2227,-720.2894 883.8098,-719.8831 875.2802,-713.5985 873.2227,-720.2894"/>
</g>
<!-- schematics&#45;&gt;hidebound.exporters.girder_exporter -->
<g id="edge68" class="edge">
<title>schematics&#45;&gt;hidebound.exporters.girder_exporter</title>
<path fill="none" stroke="#de958e" d="M715.3535,-640.311C747.74,-636.6153 791.9595,-631.5692 835.8249,-626.5635"/>
<polygon fill="#de958e" stroke="#de958e" points="836.2275,-630.0404 845.7662,-625.4291 835.4338,-623.0855 836.2275,-630.0404"/>
</g>
<!-- hidebound.core&#45;&gt;hidebound.core.config -->
<g id="edge69" class="edge">
<title>hidebound.core&#45;&gt;hidebound.core.config</title>
<path fill="none" stroke="#a0d17b" d="M216.2889,-970.0903C236.0858,-984.4647 265.8583,-1003.7933 295,-1014 390.5753,-1047.4749 419.9381,-1036.5424 521,-1043 660.8002,-1051.9329 1049.932,-1118.0008 1151,-1021 1205.8161,-968.3898 1136.0954,-737.4036 1187,-681 1193.6066,-673.6797 1201.6541,-668.0658 1210.4637,-663.7901"/>
<polygon fill="#a0d17b" stroke="#a0d17b" points="1212.0445,-666.9218 1219.8917,-659.8033 1209.3182,-660.4745 1212.0445,-666.9218"/>
</g>
<!-- hidebound.core&#45;&gt;hidebound.core.database -->
<g id="edge70" class="edge">
<title>hidebound.core&#45;&gt;hidebound.core.database</title>
<path fill="none" stroke="#a0d17b" d="M205.4276,-970.2995C219.0873,-990.6583 241.4247,-1024.6832 259,-1055 276.348,-1084.9247 266.2405,-1104.7819 295,-1124 374.0808,-1176.8445 1078.0182,-1188.9917 1151,-1128 1205.9317,-1082.093 1134.4429,-1019.6075 1187,-971 1271.4456,-892.9003 1361.0349,-1013.6991 1443,-933 1513.2895,-863.7962 1443.7917,-806.142 1479,-714 1505.1114,-645.6651 1556.2195,-575.8349 1585.3352,-539.1772"/>
<polygon fill="#a0d17b" stroke="#a0d17b" points="1588.3554,-541.0063 1591.8895,-531.0183 1582.8981,-536.6224 1588.3554,-541.0063"/>
</g>
<!-- hidebound.core&#45;&gt;hidebound.core.database_tools -->
<g id="edge71" class="edge">
<title>hidebound.core&#45;&gt;hidebound.core.database_tools</title>
<path fill="none" stroke="#a0d17b" d="M259.0925,-959.0047C373.3905,-969.1335 614.5039,-981.7279 810,-933 973.9346,-892.1389 1050.8986,-901.1026 1151,-765 1212.3031,-681.6494 1126.2028,-618.7203 1187,-535 1200.8415,-515.9397 1221.9095,-502.0935 1242.9815,-492.2094"/>
<polygon fill="#a0d17b" stroke="#a0d17b" points="1244.5864,-495.3266 1252.3131,-488.0776 1241.7523,-488.9259 1244.5864,-495.3266"/>
</g>
<!-- hidebound.core&#45;&gt;hidebound.core.parser -->
<g id="edge72" class="edge">
<title>hidebound.core&#45;&gt;hidebound.core.parser</title>
<path fill="none" stroke="#a0d17b" d="M203.2966,-933.7825C220.0962,-905.021 255.5148,-848.2317 295,-808 312.0183,-790.6599 333.6566,-774.3632 351.9821,-761.8644"/>
<polygon fill="#a0d17b" stroke="#a0d17b" points="354.313,-764.516 360.6774,-756.0458 350.42,-758.6984 354.313,-764.516"/>
</g>
<!-- hidebound.core&#45;&gt;hidebound.core.specification_base -->
<g id="edge73" class="edge">
<title>hidebound.core&#45;&gt;hidebound.core.specification_base</title>
<path fill="none" stroke="#a0d17b" d="M259.2905,-943.4156C319.174,-934.6405 409.2634,-918.8855 485,-895 501.6983,-889.7337 504.1464,-883.7458 521,-879 645.7004,-843.8858 689.1638,-887.7099 810,-841 828.1694,-833.9765 829.291,-826.0133 846,-816 880.0972,-795.5664 920.1649,-775.2054 950.6716,-760.4123"/>
<polygon fill="#a0d17b" stroke="#a0d17b" points="952.3258,-763.5004 959.815,-756.0062 949.287,-757.1944 952.3258,-763.5004"/>
</g>
<!-- hidebound.core&#45;&gt;hidebound.core.specifications -->
<g id="edge74" class="edge">
<title>hidebound.core&#45;&gt;hidebound.core.specifications</title>
<path fill="none" stroke="#a0d17b" d="M199.4339,-970.1917C211.99,-1002.5425 243.1591,-1069.192 295,-1096 379.4835,-1139.6881 1076.6503,-1155.3148 1151,-1096 1207.3006,-1051.0845 1136.6092,-989.458 1187,-938 1190.02,-934.9161 1193.2889,-932.1127 1196.7538,-929.5654"/>
<polygon fill="#a0d17b" stroke="#a0d17b" points="1198.7066,-932.4705 1205.1691,-924.0748 1194.8815,-926.6079 1198.7066,-932.4705"/>
</g>
<!-- hidebound.core&#45;&gt;hidebound.core.tools -->
<g id="edge75" class="edge">
<title>hidebound.core&#45;&gt;hidebound.core.tools</title>
<path fill="none" stroke="#a0d17b" d="M200.6242,-933.7466C214.1773,-900.6561 242.579,-828.3185 259,-765 282.9917,-672.4893 235.8926,-628.1009 295,-553 362.6016,-467.1066 416.9611,-489.5195 521,-456 534.8103,-451.5506 549.5589,-447.507 564.1598,-443.9069"/>
<polygon fill="#a0d17b" stroke="#a0d17b" points="565.3262,-447.2263 574.2311,-441.4858 563.69,-440.4202 565.3262,-447.2263"/>
</g>
<!-- hidebound.core&#45;&gt;hidebound.core.traits -->
<g id="edge76" class="edge">
<title>hidebound.core&#45;&gt;hidebound.core.traits</title>
<path fill="none" stroke="#a0d17b" d="M254.893,-970.0383C320.3354,-988.101 426.9139,-1014.6566 521,-1025 648.6752,-1039.036 681.9819,-1035.4565 810,-1025 838.4094,-1022.6795 868.9893,-1018.4231 897.0803,-1013.7922"/>
<polygon fill="#a0d17b" stroke="#a0d17b" points="898.0274,-1017.1821 907.3084,-1012.072 896.8664,-1010.2791 898.0274,-1017.1821"/>
</g>
<!-- hidebound.core&#45;&gt;hidebound.core.validators -->
<g id="edge77" class="edge">
<title>hidebound.core&#45;&gt;hidebound.core.validators</title>
<path fill="none" stroke="#a0d17b" d="M203.4168,-933.8797C219.3888,-908.0478 252.5848,-861.4986 295,-841 371.9681,-803.8025 468.5582,-797.8861 543.817,-800.8302"/>
<polygon fill="#a0d17b" stroke="#a0d17b" points="543.6745,-804.3272 553.8212,-801.2783 543.9878,-797.3342 543.6745,-804.3272"/>
</g>
<!-- schematics.types -->
<g id="node38" class="node">
<title>schematics.types</title>
<polygon fill="#343434" stroke="#343434" points="740,-924 591,-924 591,-888 740,-888 740,-924"/>
<text text-anchor="middle" x="665.5" y="-902.3" font-family="Courier,monospace" font-size="14.00" fill="#de958e">schematics.types</text>
</g>
<!-- schematics.types&#45;&gt;hidebound.core.config -->
<g id="edge78" class="edge">
<title>schematics.types&#45;&gt;hidebound.core.config</title>
<path fill="none" stroke="#de958e" d="M740.1166,-912.0754C845.5249,-916.3597 1037.7768,-907.7311 1151,-803 1192.5014,-764.6114 1145.4763,-719.3645 1187,-681 1193.8602,-674.6618 1201.8195,-669.6631 1210.3478,-665.7373"/>
<polygon fill="#de958e" stroke="#de958e" points="1211.8601,-668.9006 1219.8001,-661.8858 1209.2187,-662.418 1211.8601,-668.9006"/>
</g>
<!-- schematics.types&#45;&gt;hidebound.core.specification_base -->
<g id="edge79" class="edge">
<title>schematics.types&#45;&gt;hidebound.core.specification_base</title>
<path fill="none" stroke="#de958e" d="M740.3242,-900.9112C764.2603,-896.4143 789.7711,-888.3386 810,-874 834.7522,-856.4552 823.678,-836.5481 846,-816 872.3563,-791.7382 907.6756,-773.0384 937.6867,-760.0383"/>
<polygon fill="#de958e" stroke="#de958e" points="939.3702,-763.127 947.2259,-756.0179 936.6516,-756.6764 939.3702,-763.127"/>
</g>
<!-- schematics.types&#45;&gt;hidebound.core.specifications -->
<g id="edge80" class="edge">
<title>schematics.types&#45;&gt;hidebound.core.specifications</title>
<path fill="none" stroke="#de958e" d="M740.0707,-913.0871C772.573,-915.8387 811.1378,-918.65 846,-920 981.454,-925.2452 1015.5673,-925.7702 1151,-920 1159.3107,-919.6459 1167.8518,-919.1913 1176.4636,-918.6637"/>
<polygon fill="#de958e" stroke="#de958e" points="1176.8411,-922.1468 1186.5959,-918.0124 1176.392,-915.1612 1176.8411,-922.1468"/>
</g>
<!-- schematics.types&#45;&gt;hidebound.exporters.girder_exporter -->
<g id="edge81" class="edge">
<title>schematics.types&#45;&gt;hidebound.exporters.girder_exporter</title>
<path fill="none" stroke="#de958e" d="M736.6375,-887.9962C762.9754,-878.077 791.013,-863.1294 810,-841 849.0389,-795.5001 810.9971,-759.6731 846,-711 871.7458,-675.1994 914.0595,-648.0621 947.5918,-630.6532"/>
<polygon fill="#de958e" stroke="#de958e" points="949.4493,-633.636 956.7957,-626.0018 946.292,-627.3885 949.4493,-633.636"/>
</g>
<!-- wrapt -->
<g id="node39" class="node">
<title>wrapt</title>
<polygon fill="#343434" stroke="#343434" points="419,-886 361,-886 361,-850 419,-850 419,-886"/>
<text text-anchor="middle" x="390" y="-864.3" font-family="Courier,monospace" font-size="14.00" fill="#de958e">wrapt</text>
</g>
<!-- wrapt&#45;&gt;hidebound.core.validators -->
<g id="edge82" class="edge">
<title>wrapt&#45;&gt;hidebound.core.validators</title>
<path fill="none" stroke="#de958e" d="M419.2225,-862.2722C453.5034,-855.5529 512.2055,-844.0468 563.7005,-833.9534"/>
<polygon fill="#de958e" stroke="#de958e" points="564.4186,-837.3794 573.5587,-832.0212 563.0722,-830.5101 564.4186,-837.3794"/>
</g>
<!-- pandas -->
<g id="node40" class="node">
<title>pandas</title>
<polygon fill="#343434" stroke="#343434" points="423,-247 357,-247 357,-211 423,-211 423,-247"/>
<text text-anchor="middle" x="390" y="-225.3" font-family="Courier,monospace" font-size="14.00" fill="#de958e">pandas</text>
</g>
<!-- pandas&#45;&gt;hidebound.core.database -->
<g id="edge83" class="edge">
<title>pandas&#45;&gt;hidebound.core.database</title>
<path fill="none" stroke="#de958e" d="M423.0165,-222.7048C561.9211,-198.1353 1107.1581,-121.1043 1443,-354 1466.3998,-370.227 1459.8434,-385.9313 1479,-407 1507.5492,-438.3987 1545.5453,-468.708 1572.7091,-488.815"/>
<polygon fill="#de958e" stroke="#de958e" points="1570.9857,-491.8909 1581.1222,-494.9733 1575.1203,-486.2424 1570.9857,-491.8909"/>
</g>
<!-- pandas&#45;&gt;hidebound.core.database_tools -->
<g id="edge84" class="edge">
<title>pandas&#45;&gt;hidebound.core.database_tools</title>
<path fill="none" stroke="#de958e" d="M423.0467,-227.9965C510.7685,-225.9463 747.085,-224.6003 810,-267 839.0112,-286.5513 818.9309,-314.8378 846,-337 875.8871,-361.4694 1101.6472,-418.674 1228.724,-449.4829"/>
<polygon fill="#de958e" stroke="#de958e" points="1228.2826,-452.977 1238.8252,-451.9266 1229.9287,-446.1733 1228.2826,-452.977"/>
</g>
<!-- pandas&#45;&gt;hidebound.core.tools -->
<g id="edge85" class="edge">
<title>pandas&#45;&gt;hidebound.core.tools</title>
<path fill="none" stroke="#de958e" d="M415.9184,-247.3451C465.8871,-282.7132 575.5337,-360.3215 631.3693,-399.8422"/>
<polygon fill="#de958e" stroke="#de958e" points="629.6668,-402.9251 639.8512,-405.8457 633.711,-397.2115 629.6668,-402.9251"/>
</g>
<!-- pandas&#45;&gt;hidebound.server.components -->
<g id="edge86" class="edge">
<title>pandas&#45;&gt;hidebound.server.components</title>
<path fill="none" stroke="#de958e" d="M423.0104,-215.5818C449.1202,-205.6672 486.7555,-192.9076 521,-187 730.2363,-150.9043 786.1731,-172 998.5,-172 998.5,-172 998.5,-172 1315,-172 1408.4288,-172 1654.401,-143.7481 1735,-191 1761.1733,-206.3444 1746.2853,-231.4023 1771,-249 1772.9357,-250.3783 1774.9299,-251.6876 1776.9741,-252.9315"/>
<polygon fill="#de958e" stroke="#de958e" points="1775.7732,-256.2631 1786.2286,-257.9764 1779.1237,-250.117 1775.7732,-256.2631"/>
</g>
<!-- schematics.exceptions -->
<g id="node41" class="node">
<title>schematics.exceptions</title>
<polygon fill="#343434" stroke="#343434" points="485,-598 295,-598 295,-562 485,-562 485,-598"/>
<text text-anchor="middle" x="390" y="-576.3" font-family="Courier,monospace" font-size="14.00" fill="#de958e">schematics.exceptions</text>
</g>
<!-- schematics.exceptions&#45;&gt;hidebound.core.config -->
<g id="edge87" class="edge">
<title>schematics.exceptions&#45;&gt;hidebound.core.config</title>
<path fill="none" stroke="#de958e" d="M485.348,-580.0814C571.4808,-582.2098 701.0608,-590.5548 810,-619 826.9411,-623.4235 828.9494,-631.0193 846,-635 968.4388,-663.5852 1113.6511,-664.6157 1209.7112,-660.9223"/>
<polygon fill="#de958e" stroke="#de958e" points="1209.873,-664.4187 1219.7218,-660.5134 1209.5873,-657.4245 1209.873,-664.4187"/>
</g>
<!-- schematics.exceptions&#45;&gt;hidebound.core.database_tools -->
<g id="edge88" class="edge">
<title>schematics.exceptions&#45;&gt;hidebound.core.database_tools</title>
<path fill="none" stroke="#de958e" d="M423.8002,-561.8425C442.3269,-551.4564 465.4352,-537.782 485,-524 502.0269,-512.0058 501.526,-501.3852 521,-494 636.9719,-450.0195 981.9596,-455.9943 1176.8841,-463.4371"/>
<polygon fill="#de958e" stroke="#de958e" points="1176.7852,-466.9358 1186.9135,-463.8264 1177.0568,-459.9411 1176.7852,-466.9358"/>
</g>
<!-- schematics.exceptions&#45;&gt;hidebound.core.specification_base -->
<g id="edge89" class="edge">
<title>schematics.exceptions&#45;&gt;hidebound.core.specification_base</title>
<path fill="none" stroke="#de958e" d="M409.0654,-598.1527C433.0944,-619.8654 476.6432,-655.4721 521,-673 536.1819,-678.9992 710.3768,-701.8485 844.0267,-718.769"/>
<polygon fill="#de958e" stroke="#de958e" points="843.621,-722.2455 853.9812,-720.0279 844.4993,-715.3008 843.621,-722.2455"/>
</g>
<!-- schematics.exceptions&#45;&gt;hidebound.core.tools -->
<g id="edge90" class="edge">
<title>schematics.exceptions&#45;&gt;hidebound.core.tools</title>
<path fill="none" stroke="#de958e" d="M418.4949,-561.9351C438.4254,-548.494 464.9583,-528.9223 485,-508 504.4444,-487.7012 497.6679,-471.676 521,-456 533.9467,-447.3016 548.8782,-440.929 564.1254,-436.2685"/>
<polygon fill="#de958e" stroke="#de958e" points="565.4922,-439.5201 574.1729,-433.4458 563.5989,-432.781 565.4922,-439.5201"/>
</g>
<!-- schematics.exceptions&#45;&gt;hidebound.core.validators -->
<g id="edge91" class="edge">
<title>schematics.exceptions&#45;&gt;hidebound.core.validators</title>
<path fill="none" stroke="#de958e" d="M407.5616,-598.2643C432.0973,-623.4566 478.4212,-669.8522 521,-706 557.0729,-736.6246 600.8979,-768.7188 630.7601,-789.8811"/>
<polygon fill="#de958e" stroke="#de958e" points="628.9853,-792.9123 639.1744,-795.8166 633.0203,-787.1923 628.9853,-792.9123"/>
</g>
<!-- schematics.exceptions&#45;&gt;hidebound.server.api -->
<g id="edge92" class="edge">
<title>schematics.exceptions&#45;&gt;hidebound.server.api</title>
<path fill="none" stroke="#de958e" d="M404.7217,-561.7674C423.8893,-537.7774 458.1152,-494.0721 485,-455 502.1981,-430.0057 496.5965,-415.0268 521,-397 627.826,-318.0879 695.7319,-388.6883 810,-321 830.0162,-309.1431 824.6287,-292.1925 846,-283 967.8716,-230.5791 1337.0137,-205.2031 1443,-285 1488.164,-319.0039 1435.981,-370.32 1479,-407 1522.6475,-444.2159 1678.9823,-427.6655 1735,-440 1767.4103,-447.1364 1802.7505,-458.0141 1831.5385,-467.7092"/>
<polygon fill="#de958e" stroke="#de958e" points="1830.4421,-471.0331 1841.0365,-470.9446 1832.6993,-464.407 1830.4421,-471.0331"/>
</g>
<!-- OpenEXR -->
<g id="node42" class="node">
<title>OpenEXR</title>
<polygon fill="#343434" stroke="#343434" points="427,-446 353,-446 353,-410 427,-410 427,-446"/>
<text text-anchor="middle" x="390" y="-424.3" font-family="Courier,monospace" font-size="14.00" fill="#de958e">OpenEXR</text>
</g>
<!-- OpenEXR&#45;&gt;hidebound.core.tools -->
<g id="edge93" class="edge">
<title>OpenEXR&#45;&gt;hidebound.core.tools</title>
<path fill="none" stroke="#de958e" d="M427.1552,-427.4605C462.1896,-426.9519 516.3125,-426.1661 564.1336,-425.4717"/>
<polygon fill="#de958e" stroke="#de958e" points="564.2852,-428.97 574.2333,-425.3251 564.1835,-421.9707 564.2852,-428.97"/>
</g>
<!-- skimage.io -->
<g id="node43" class="node">
<title>skimage.io</title>
<polygon fill="#343434" stroke="#343434" points="715,-1016 616,-1016 616,-980 715,-980 715,-1016"/>
<text text-anchor="middle" x="665.5" y="-994.3" font-family="Courier,monospace" font-size="14.00" fill="#de958e">skimage.io</text>
</g>
<!-- skimage.io&#45;&gt;hidebound.core.traits -->
<g id="edge94" class="edge">
<title>skimage.io&#45;&gt;hidebound.core.traits</title>
<path fill="none" stroke="#de958e" d="M715.3535,-997.4012C762.177,-996.8387 833.7345,-995.9792 893.196,-995.2649"/>
<polygon fill="#de958e" stroke="#de958e" points="893.43,-998.7625 903.3872,-995.1425 893.3459,-991.763 893.43,-998.7625"/>
</g>
</g>
</svg>
