<?xml version="1.0" encoding="UTF-8" standalone="no"?>
<!DOCTYPE svg PUBLIC "-//W3C//DTD SVG 1.1//EN"
 "http://www.w3.org/Graphics/SVG/1.1/DTD/svg11.dtd">
<!-- Generated by graphviz version 2.40.1 (20161225.0304)
 -->
<!-- Title: %3 Pages: 1 -->
<svg width="1497pt" height="1525pt"
 viewBox="0.00 0.00 1497.00 1525.17" xmlns="http://www.w3.org/2000/svg" xmlns:xlink="http://www.w3.org/1999/xlink">
<g id="graph0" class="graph" transform="scale(1 1) rotate(0) translate(4 1521.1728)">
<title>%3</title>
<polygon fill="#242424" stroke="transparent" points="-4,4 -4,-1521.1728 1493,-1521.1728 1493,4 -4,4"/>
<!-- cli -->
<g id="node1" class="node">
<title>cli</title>
<polygon fill="#343434" stroke="#343434" points="72.5,-994 18.5,-994 18.5,-958 72.5,-958 72.5,-994"/>
<text text-anchor="middle" x="45.5" y="-972.3" font-family="Courier,monospace" font-size="14.00" fill="#b6ecf3">cli</text>
</g>
<!-- hidebound.app -->
<g id="node2" class="node">
<title>hidebound.app</title>
<polygon fill="#343434" stroke="#343434" points="1489,-267 1365,-267 1365,-231 1489,-231 1489,-267"/>
<text text-anchor="middle" x="1427" y="-245.3" font-family="Courier,monospace" font-size="14.00" fill="#b6ecf3">hidebound.app</text>
</g>
<!-- hidebound.components -->
<g id="node3" class="node">
<title>hidebound.components</title>
<polygon fill="#343434" stroke="#343434" points="1329,-290 1147,-290 1147,-254 1329,-254 1329,-290"/>
<text text-anchor="middle" x="1238" y="-268.3" font-family="Courier,monospace" font-size="14.00" fill="#b6ecf3">hidebound.components</text>
</g>
<!-- hidebound.components&#45;&gt;hidebound.app -->
<g id="edge1" class="edge">
<title>hidebound.components&#45;&gt;hidebound.app</title>
<path fill="none" stroke="#b6ecf3" d="M1329.1783,-260.9042C1337.7684,-259.8589 1346.3951,-258.8091 1354.7741,-257.7894"/>
<polygon fill="#b6ecf3" stroke="#b6ecf3" points="1355.3486,-261.2454 1364.8526,-256.5629 1354.503,-254.2967 1355.3486,-261.2454"/>
</g>
<!-- hidebound.config -->
<g id="node4" class="node">
<title>hidebound.config</title>
<polygon fill="#343434" stroke="#343434" points="1057.5,-680 908.5,-680 908.5,-644 1057.5,-644 1057.5,-680"/>
<text text-anchor="middle" x="983" y="-658.3" font-family="Courier,monospace" font-size="14.00" fill="#b6ecf3">hidebound.config</text>
</g>
<!-- hidebound.database -->
<g id="node5" class="node">
<title>hidebound.database</title>
<polygon fill="#343434" stroke="#343434" points="1320.5,-634 1155.5,-634 1155.5,-598 1320.5,-598 1320.5,-634"/>
<text text-anchor="middle" x="1238" y="-612.3" font-family="Courier,monospace" font-size="14.00" fill="#b6ecf3">hidebound.database</text>
</g>
<!-- hidebound.config&#45;&gt;hidebound.database -->
<g id="edge2" class="edge">
<title>hidebound.config&#45;&gt;hidebound.database</title>
<path fill="none" stroke="#b6ecf3" d="M1057.7854,-648.5093C1085.129,-643.5767 1116.3986,-637.9359 1145.1297,-632.7531"/>
<polygon fill="#b6ecf3" stroke="#b6ecf3" points="1145.956,-636.1606 1155.1758,-630.9408 1144.7132,-629.2718 1145.956,-636.1606"/>
</g>
<!-- hidebound.database&#45;&gt;hidebound.app -->
<g id="edge3" class="edge">
<title>hidebound.database&#45;&gt;hidebound.app</title>
<path fill="none" stroke="#b6ecf3" d="M1251.4544,-597.9015C1270.2546,-572.1295 1304.7938,-522.9839 1329,-478 1366.7367,-407.8715 1400.8935,-320.1363 1417.0932,-276.415"/>
<polygon fill="#b6ecf3" stroke="#b6ecf3" points="1420.3785,-277.6219 1420.5451,-267.0284 1413.8086,-275.2058 1420.3785,-277.6219"/>
</g>
<!-- hidebound.database_test_base -->
<g id="node6" class="node">
<title>hidebound.database_test_base</title>
<polygon fill="#343434" stroke="#343434" points="1107,-1058 859,-1058 859,-1022 1107,-1022 1107,-1058"/>
<text text-anchor="middle" x="983" y="-1036.3" font-family="Courier,monospace" font-size="14.00" fill="#b6ecf3">hidebound.database_test_base</text>
</g>
<!-- hidebound.database_tools -->
<g id="node7" class="node">
<title>hidebound.database_tools</title>
<polygon fill="#343434" stroke="#343434" points="802.5,-648 587.5,-648 587.5,-612 802.5,-612 802.5,-648"/>
<text text-anchor="middle" x="695" y="-626.3" font-family="Courier,monospace" font-size="14.00" fill="#b6ecf3">hidebound.database_tools</text>
</g>
<!-- hidebound.database_tools&#45;&gt;hidebound.database -->
<g id="edge4" class="edge">
<title>hidebound.database_tools&#45;&gt;hidebound.database</title>
<path fill="none" stroke="#b6ecf3" d="M802.6038,-627.2257C902.6876,-624.6453 1050.256,-620.8405 1145.2602,-618.3911"/>
<polygon fill="#b6ecf3" stroke="#b6ecf3" points="1145.5247,-621.8855 1155.4311,-618.1288 1145.3442,-614.8878 1145.5247,-621.8855"/>
</g>
<!-- hidebound.parser -->
<g id="node8" class="node">
<title>hidebound.parser</title>
<polygon fill="#343434" stroke="#343434" points="296.5,-1094 147.5,-1094 147.5,-1058 296.5,-1058 296.5,-1094"/>
<text text-anchor="middle" x="222" y="-1072.3" font-family="Courier,monospace" font-size="14.00" fill="#b6ecf3">hidebound.parser</text>
</g>
<!-- hidebound.parser&#45;&gt;hidebound.database_tools -->
<g id="edge5" class="edge">
<title>hidebound.parser&#45;&gt;hidebound.database_tools</title>
<path fill="none" stroke="#b6ecf3" d="M226.2213,-1057.8745C238.1867,-1010.0796 276.5215,-878.9524 353,-801 428.192,-724.3589 544.8852,-676.3038 620.6259,-651.306"/>
<polygon fill="#b6ecf3" stroke="#b6ecf3" points="622.1414,-654.4939 630.5726,-648.0779 619.9806,-647.8358 622.1414,-654.4939"/>
</g>
<!-- hidebound.specification_base -->
<g id="node9" class="node">
<title>hidebound.specification_base</title>
<polygon fill="#343434" stroke="#343434" points="819,-1016 571,-1016 571,-980 819,-980 819,-1016"/>
<text text-anchor="middle" x="695" y="-994.3" font-family="Courier,monospace" font-size="14.00" fill="#b6ecf3">hidebound.specification_base</text>
</g>
<!-- hidebound.parser&#45;&gt;hidebound.specification_base -->
<g id="edge6" class="edge">
<title>hidebound.parser&#45;&gt;hidebound.specification_base</title>
<path fill="none" stroke="#b6ecf3" d="M296.7519,-1082.6403C361.6776,-1085.7652 457.2295,-1083.9177 535,-1056 553.5759,-1049.3317 553.1351,-1038.3891 571,-1030 579.5884,-1025.967 588.7592,-1022.3894 598.0798,-1019.2274"/>
<polygon fill="#b6ecf3" stroke="#b6ecf3" points="599.3871,-1022.4833 607.8287,-1016.081 597.2371,-1015.8217 599.3871,-1022.4833"/>
</g>
<!-- hidebound.validators -->
<g id="node14" class="node">
<title>hidebound.validators</title>
<polygon fill="#343434" stroke="#343434" points="535,-1182 353,-1182 353,-1146 535,-1146 535,-1182"/>
<text text-anchor="middle" x="444" y="-1160.3" font-family="Courier,monospace" font-size="14.00" fill="#b6ecf3">hidebound.validators</text>
</g>
<!-- hidebound.parser&#45;&gt;hidebound.validators -->
<g id="edge7" class="edge">
<title>hidebound.parser&#45;&gt;hidebound.validators</title>
<path fill="none" stroke="#b6ecf3" d="M267.4607,-1094.0205C302.5114,-1107.9144 351.1459,-1127.193 388.4946,-1141.9979"/>
<polygon fill="#b6ecf3" stroke="#b6ecf3" points="387.6331,-1145.4213 398.2192,-1145.8526 390.2126,-1138.9139 387.6331,-1145.4213"/>
</g>
<!-- hidebound.specification_base&#45;&gt;hidebound.config -->
<g id="edge8" class="edge">
<title>hidebound.specification_base&#45;&gt;hidebound.config</title>
<path fill="none" stroke="#b6ecf3" d="M710.1156,-979.8402C735.8534,-948.0949 788.3693,-879.6234 819,-814 843.4527,-761.6122 812.6644,-728.3715 855,-689 866.982,-677.8569 882.358,-670.8473 898.2685,-666.5272"/>
<polygon fill="#b6ecf3" stroke="#b6ecf3" points="899.2936,-669.8814 908.2185,-664.172 897.6812,-663.0696 899.2936,-669.8814"/>
</g>
<!-- hidebound.specification_base&#45;&gt;hidebound.database -->
<g id="edge9" class="edge">
<title>hidebound.specification_base&#45;&gt;hidebound.database</title>
<path fill="none" stroke="#b6ecf3" d="M743.0935,-979.936C824.7525,-947.6957 993.1136,-874.2995 1111,-776 1158.3816,-736.4909 1200.011,-676.7978 1221.8278,-642.594"/>
<polygon fill="#b6ecf3" stroke="#b6ecf3" points="1224.8293,-644.3957 1227.1919,-634.0677 1218.9043,-640.6682 1224.8293,-644.3957"/>
</g>
<!-- hidebound.specification_base&#45;&gt;hidebound.database_test_base -->
<g id="edge10" class="edge">
<title>hidebound.specification_base&#45;&gt;hidebound.database_test_base</title>
<path fill="none" stroke="#b6ecf3" d="M818.8093,-1016.0555C828.8715,-1017.5229 839.0678,-1019.0099 849.1965,-1020.487"/>
<polygon fill="#b6ecf3" stroke="#b6ecf3" points="848.8948,-1023.9799 859.2952,-1021.9597 849.905,-1017.0532 848.8948,-1023.9799"/>
</g>
<!-- hidebound.specifications -->
<g id="node10" class="node">
<title>hidebound.specifications</title>
<polygon fill="#343434" stroke="#343434" points="1090.5,-1420 875.5,-1420 875.5,-1384 1090.5,-1384 1090.5,-1420"/>
<text text-anchor="middle" x="983" y="-1398.3" font-family="Courier,monospace" font-size="14.00" fill="#b6ecf3">hidebound.specifications</text>
</g>
<!-- hidebound.specification_base&#45;&gt;hidebound.specifications -->
<g id="edge11" class="edge">
<title>hidebound.specification_base&#45;&gt;hidebound.specifications</title>
<path fill="none" stroke="#b6ecf3" d="M701.6265,-1016.1268C720.2322,-1065.3875 776.7486,-1204.3601 855,-1299 881.0774,-1330.5388 918.1291,-1359.078 945.6634,-1378.0736"/>
<polygon fill="#b6ecf3" stroke="#b6ecf3" points="944.0032,-1381.1768 954.2428,-1383.8974 947.9347,-1375.3851 944.0032,-1381.1768"/>
</g>
<!-- hidebound.test_specifications -->
<g id="node11" class="node">
<title>hidebound.test_specifications</title>
<polygon fill="#343434" stroke="#343434" points="1111,-1290 855,-1290 855,-1254 1111,-1254 1111,-1290"/>
<text text-anchor="middle" x="983" y="-1268.3" font-family="Courier,monospace" font-size="14.00" fill="#b6ecf3">hidebound.test_specifications</text>
</g>
<!-- hidebound.specification_base&#45;&gt;hidebound.test_specifications -->
<g id="edge12" class="edge">
<title>hidebound.specification_base&#45;&gt;hidebound.test_specifications</title>
<path fill="none" stroke="#b6ecf3" d="M714.3437,-1016.4034C764.555,-1064.1739 899.12,-1192.1975 956.494,-1246.7825"/>
<polygon fill="#b6ecf3" stroke="#b6ecf3" points="954.083,-1249.3197 963.7405,-1253.6767 958.908,-1244.2482 954.083,-1249.3197"/>
</g>
<!-- hidebound.tools -->
<g id="node12" class="node">
<title>hidebound.tools</title>
<polygon fill="#343434" stroke="#343434" points="514,-488 374,-488 374,-452 514,-452 514,-488"/>
<text text-anchor="middle" x="444" y="-466.3" font-family="Courier,monospace" font-size="14.00" fill="#b6ecf3">hidebound.tools</text>
</g>
<!-- hidebound.tools&#45;&gt;hidebound.components -->
<g id="edge13" class="edge">
<title>hidebound.tools&#45;&gt;hidebound.components</title>
<path fill="none" stroke="#b6ecf3" d="M514.0656,-466.1852C674.406,-457.056 1058.304,-432.784 1111,-407 1160.4056,-382.826 1200.4541,-330.7486 1221.6151,-298.8068"/>
<polygon fill="#b6ecf3" stroke="#b6ecf3" points="1224.5794,-300.6682 1227.0748,-290.3715 1218.7029,-296.8647 1224.5794,-300.6682"/>
</g>
<!-- hidebound.tools&#45;&gt;hidebound.database -->
<g id="edge14" class="edge">
<title>hidebound.tools&#45;&gt;hidebound.database</title>
<path fill="none" stroke="#b6ecf3" d="M514.2689,-477.6624C661.7854,-494.1137 999.3177,-533.7733 1111,-564 1138.3885,-571.4127 1167.7791,-583.182 1191.3818,-593.6504"/>
<polygon fill="#b6ecf3" stroke="#b6ecf3" points="1190.2325,-596.9714 1200.7876,-597.8885 1193.1082,-590.5893 1190.2325,-596.9714"/>
</g>
<!-- hidebound.tools&#45;&gt;hidebound.database_tools -->
<g id="edge15" class="edge">
<title>hidebound.tools&#45;&gt;hidebound.database_tools</title>
<path fill="none" stroke="#b6ecf3" d="M471.0739,-488.2976C496.6657,-505.5004 536.2168,-531.8468 571,-554 599.2617,-571.9997 631.5432,-591.7602 656.0828,-606.6194"/>
<polygon fill="#b6ecf3" stroke="#b6ecf3" points="654.3831,-609.6817 664.7517,-611.8597 658.0044,-603.6911 654.3831,-609.6817"/>
</g>
<!-- hidebound.tools&#45;&gt;hidebound.specification_base -->
<g id="edge16" class="edge">
<title>hidebound.tools&#45;&gt;hidebound.specification_base</title>
<path fill="none" stroke="#b6ecf3" d="M452.64,-488.175C489.9389,-566.6364 637.2848,-876.5912 682.0397,-970.7369"/>
<polygon fill="#b6ecf3" stroke="#b6ecf3" points="678.9419,-972.3727 686.3964,-979.9015 685.2639,-969.3673 678.9419,-972.3727"/>
</g>
<!-- hidebound.traits -->
<g id="node13" class="node">
<title>hidebound.traits</title>
<polygon fill="#343434" stroke="#343434" points="769.5,-1336 620.5,-1336 620.5,-1300 769.5,-1300 769.5,-1336"/>
<text text-anchor="middle" x="695" y="-1314.3" font-family="Courier,monospace" font-size="14.00" fill="#b6ecf3">hidebound.traits</text>
</g>
<!-- hidebound.traits&#45;&gt;hidebound.database_test_base -->
<g id="edge17" class="edge">
<title>hidebound.traits&#45;&gt;hidebound.database_test_base</title>
<path fill="none" stroke="#b6ecf3" d="M717.0101,-1299.8247C742.2024,-1278.7959 784.4413,-1242.8431 819,-1210 870.7375,-1160.8309 927.9301,-1099.9409 959.246,-1065.9946"/>
<polygon fill="#b6ecf3" stroke="#b6ecf3" points="962.0666,-1068.0983 966.2626,-1058.3697 956.9156,-1063.3582 962.0666,-1068.0983"/>
</g>
<!-- hidebound.traits&#45;&gt;hidebound.specifications -->
<g id="edge18" class="edge">
<title>hidebound.traits&#45;&gt;hidebound.specifications</title>
<path fill="none" stroke="#b6ecf3" d="M756.7832,-1336.0201C802.0893,-1349.2344 863.7245,-1367.2113 911.2181,-1381.0636"/>
<polygon fill="#b6ecf3" stroke="#b6ecf3" points="910.2427,-1384.4249 920.8227,-1383.865 912.2027,-1377.7049 910.2427,-1384.4249"/>
</g>
<!-- hidebound.traits&#45;&gt;hidebound.test_specifications -->
<g id="edge19" class="edge">
<title>hidebound.traits&#45;&gt;hidebound.test_specifications</title>
<path fill="none" stroke="#b6ecf3" d="M769.5417,-1306.094C797.2136,-1301.6742 829.3853,-1296.5357 860.2285,-1291.6093"/>
<polygon fill="#b6ecf3" stroke="#b6ecf3" points="860.8657,-1295.052 870.1885,-1290.0185 859.7616,-1288.1396 860.8657,-1295.052"/>
</g>
<!-- hidebound.validators&#45;&gt;hidebound.config -->
<g id="edge20" class="edge">
<title>hidebound.validators&#45;&gt;hidebound.config</title>
<path fill="none" stroke="#b6ecf3" d="M511.7774,-1145.9285C520.0555,-1142.0997 528.0363,-1137.5035 535,-1132 558.2138,-1113.654 546.5989,-1092.7345 571,-1076 663.8016,-1012.3558 743.3431,-1108.2992 819,-1025 919.9765,-913.8236 754.3058,-800.4321 855,-689 866.3922,-676.393 882.0582,-668.8487 898.527,-664.4848"/>
<polygon fill="#b6ecf3" stroke="#b6ecf3" points="899.3129,-667.8955 908.2901,-662.2686 897.7633,-661.0691 899.3129,-667.8955"/>
</g>
<!-- hidebound.validators&#45;&gt;hidebound.database_test_base -->
<g id="edge21" class="edge">
<title>hidebound.validators&#45;&gt;hidebound.database_test_base</title>
<path fill="none" stroke="#b6ecf3" d="M522.3752,-1145.9693C621.3724,-1123.1945 791.2587,-1084.1112 894.7289,-1060.3073"/>
<polygon fill="#b6ecf3" stroke="#b6ecf3" points="895.5695,-1063.7054 904.5302,-1058.0524 894,-1056.8836 895.5695,-1063.7054"/>
</g>
<!-- hidebound.validators&#45;&gt;hidebound.specification_base -->
<g id="edge22" class="edge">
<title>hidebound.validators&#45;&gt;hidebound.specification_base</title>
<path fill="none" stroke="#b6ecf3" d="M515.7891,-1145.9623C522.8398,-1142.1611 529.4311,-1137.5625 535,-1132 569.013,-1098.0261 535.5647,-1062.4877 571,-1030 574.4581,-1026.8295 578.1886,-1023.9643 582.1232,-1021.3756"/>
<polygon fill="#b6ecf3" stroke="#b6ecf3" points="584.1871,-1024.2224 591.0359,-1016.1388 580.641,-1018.1871 584.1871,-1024.2224"/>
</g>
<!-- hidebound.validators&#45;&gt;hidebound.specifications -->
<g id="edge23" class="edge">
<title>hidebound.validators&#45;&gt;hidebound.specifications</title>
<path fill="none" stroke="#b6ecf3" d="M524.4397,-1182.1127C528.2729,-1184.6969 531.8346,-1187.6428 535,-1191 583.2201,-1242.1416 519.0608,-1297.6401 571,-1345 612.9335,-1383.2365 758.6879,-1396.0074 864.9668,-1400.1695"/>
<polygon fill="#b6ecf3" stroke="#b6ecf3" points="865.001,-1403.673 875.1238,-1400.5459 865.2603,-1396.6779 865.001,-1403.673"/>
</g>
<!-- hidebound.validators&#45;&gt;hidebound.test_specifications -->
<g id="edge24" class="edge">
<title>hidebound.validators&#45;&gt;hidebound.test_specifications</title>
<path fill="none" stroke="#b6ecf3" d="M533.913,-1182.016C630.2937,-1201.3279 782.9134,-1231.9084 883.0115,-1251.9652"/>
<polygon fill="#b6ecf3" stroke="#b6ecf3" points="882.3397,-1255.4001 892.8324,-1253.933 883.715,-1248.5365 882.3397,-1255.4001"/>
</g>
<!-- dash -->
<g id="node15" class="node">
<title>dash</title>
<polygon fill="#343434" stroke="#343434" points="1010,-90 956,-90 956,-54 1010,-54 1010,-90"/>
<text text-anchor="middle" x="983" y="-68.3" font-family="Courier,monospace" font-size="14.00" fill="#de958e">dash</text>
</g>
<!-- dash&#45;&gt;hidebound.app -->
<g id="edge25" class="edge">
<title>dash&#45;&gt;hidebound.app</title>
<path fill="none" stroke="#de958e" d="M1010.1351,-70.4244C1038.636,-70.2679 1083.1132,-74.4811 1111,-99 1147.4185,-131.0203 1109.9237,-170.7438 1147,-202 1177.6843,-227.8677 1282.6257,-239.8437 1354.9392,-245.1345"/>
<polygon fill="#de958e" stroke="#de958e" points="1354.694,-248.6258 1364.9153,-245.8374 1355.1861,-241.6431 1354.694,-248.6258"/>
</g>
<!-- dash&#45;&gt;hidebound.components -->
<g id="edge26" class="edge">
<title>dash&#45;&gt;hidebound.components</title>
<path fill="none" stroke="#de958e" d="M1010.0317,-69.9729C1038.8704,-69.3687 1084.0325,-73.1443 1111,-99 1157.6858,-143.761 1103.3263,-192.2955 1147,-240 1149.783,-243.0398 1152.8718,-245.7909 1156.182,-248.2807"/>
<polygon fill="#de958e" stroke="#de958e" points="1154.537,-251.3874 1164.818,-253.947 1158.3771,-245.5348 1154.537,-251.3874"/>
</g>
<!-- dash_ace_editor -->
<g id="node16" class="node">
<title>dash_ace_editor</title>
<polygon fill="#343434" stroke="#343434" points="1053,-290 913,-290 913,-254 1053,-254 1053,-290"/>
<text text-anchor="middle" x="983" y="-268.3" font-family="Courier,monospace" font-size="14.00" fill="#de958e">dash_ace_editor</text>
</g>
<!-- dash_ace_editor&#45;&gt;hidebound.components -->
<g id="edge27" class="edge">
<title>dash_ace_editor&#45;&gt;hidebound.components</title>
<path fill="none" stroke="#de958e" d="M1053.0172,-272C1078.7549,-272 1108.4452,-272 1136.4011,-272"/>
<polygon fill="#de958e" stroke="#de958e" points="1136.6116,-275.5001 1146.6116,-272 1136.6116,-268.5001 1136.6116,-275.5001"/>
</g>
<!-- dash_core_components -->
<g id="node17" class="node">
<title>dash_core_components</title>
<polygon fill="#343434" stroke="#343434" points="1074,-198 892,-198 892,-162 1074,-162 1074,-198"/>
<text text-anchor="middle" x="983" y="-176.3" font-family="Courier,monospace" font-size="14.00" fill="#de958e">dash_core_components</text>
</g>
<!-- dash_core_components&#45;&gt;hidebound.components -->
<g id="edge28" class="edge">
<title>dash_core_components&#45;&gt;hidebound.components</title>
<path fill="none" stroke="#de958e" d="M1074.1861,-197.7962C1086.8538,-201.6965 1099.4664,-206.3858 1111,-212 1129.2252,-220.8716 1129.2076,-230.2894 1147,-240 1153.7184,-243.6667 1160.9383,-247.0441 1168.2666,-250.1187"/>
<polygon fill="#de958e" stroke="#de958e" points="1166.993,-253.3788 1177.5774,-253.8501 1169.5971,-246.8812 1166.993,-253.3788"/>
</g>
<!-- dash_html_components -->
<g id="node18" class="node">
<title>dash_html_components</title>
<polygon fill="#343434" stroke="#343434" points="1074,-144 892,-144 892,-108 1074,-108 1074,-144"/>
<text text-anchor="middle" x="983" y="-122.3" font-family="Courier,monospace" font-size="14.00" fill="#de958e">dash_html_components</text>
</g>
<!-- dash_html_components&#45;&gt;hidebound.components -->
<g id="edge29" class="edge">
<title>dash_html_components&#45;&gt;hidebound.components</title>
<path fill="none" stroke="#de958e" d="M1074.1112,-133.7228C1087.4976,-137.981 1100.3433,-144.1477 1111,-153 1143.1891,-179.739 1116.6193,-211.2228 1147,-240 1150.374,-243.1959 1154.0857,-246.0749 1158.0224,-248.6682"/>
<polygon fill="#de958e" stroke="#de958e" points="1156.5583,-251.8668 1166.956,-253.9012 1160.0964,-245.8268 1156.5583,-251.8668"/>
</g>
<!-- dash_table -->
<g id="node19" class="node">
<title>dash_table</title>
<polygon fill="#343434" stroke="#343434" points="1032.5,-398 933.5,-398 933.5,-362 1032.5,-362 1032.5,-398"/>
<text text-anchor="middle" x="983" y="-376.3" font-family="Courier,monospace" font-size="14.00" fill="#de958e">dash_table</text>
</g>
<!-- dash_table&#45;&gt;hidebound.components -->
<g id="edge30" class="edge">
<title>dash_table&#45;&gt;hidebound.components</title>
<path fill="none" stroke="#de958e" d="M1032.5497,-373.8081C1056.8105,-369.7182 1086.0858,-363.1776 1111,-353 1146.0827,-338.6685 1182.1422,-314.607 1206.8308,-296.4235"/>
<polygon fill="#de958e" stroke="#de958e" points="1209.1569,-299.0544 1215.0691,-290.2625 1204.9646,-293.4487 1209.1569,-299.0544"/>
</g>
<!-- flasgger -->
<g id="node20" class="node">
<title>flasgger</title>
<polygon fill="#343434" stroke="#343434" points="1024.5,-36 941.5,-36 941.5,0 1024.5,0 1024.5,-36"/>
<text text-anchor="middle" x="983" y="-14.3" font-family="Courier,monospace" font-size="14.00" fill="#de958e">flasgger</text>
</g>
<!-- flasgger&#45;&gt;hidebound.app -->
<g id="edge31" class="edge">
<title>flasgger&#45;&gt;hidebound.app</title>
<path fill="none" stroke="#de958e" d="M1024.5708,-16.3201C1052.3693,-17.4559 1087.9433,-23.6036 1111,-45 1153.0648,-84.0357 1104.3828,-130.5681 1147,-169 1208.0501,-224.0546 1250.7934,-176.6652 1329,-202 1348.2356,-208.2313 1368.5384,-217.4808 1385.6447,-226.1301"/>
<polygon fill="#de958e" stroke="#de958e" points="1384.3007,-229.375 1394.7923,-230.8504 1387.5107,-223.1544 1384.3007,-229.375"/>
</g>
<!-- flasgger&#45;&gt;hidebound.components -->
<g id="edge32" class="edge">
<title>flasgger&#45;&gt;hidebound.components</title>
<path fill="none" stroke="#de958e" d="M1024.6604,-15.8991C1052.6817,-16.8154 1088.483,-22.8739 1111,-45 1162.0622,-95.1756 1108.3533,-141.7392 1147,-202 1159.1136,-220.8885 1178.1714,-236.7013 1195.7231,-248.4908"/>
<polygon fill="#de958e" stroke="#de958e" points="1193.8817,-251.468 1204.1815,-253.9511 1197.6782,-245.5869 1193.8817,-251.468"/>
</g>
<!-- jinja2 -->
<g id="node21" class="node">
<title>jinja2</title>
<polygon fill="#343434" stroke="#343434" points="1016,-344 950,-344 950,-308 1016,-308 1016,-344"/>
<text text-anchor="middle" x="983" y="-322.3" font-family="Courier,monospace" font-size="14.00" fill="#de958e">jinja2</text>
</g>
<!-- jinja2&#45;&gt;hidebound.components -->
<g id="edge33" class="edge">
<title>jinja2&#45;&gt;hidebound.components</title>
<path fill="none" stroke="#de958e" d="M1016.1543,-319.0216C1041.9975,-313.5784 1078.7832,-305.8225 1111,-299 1121.468,-296.7832 1132.4204,-294.4602 1143.3179,-292.1466"/>
<polygon fill="#de958e" stroke="#de958e" points="1144.24,-295.5289 1153.2947,-290.0278 1142.7858,-288.6816 1144.24,-295.5289"/>
</g>
<!-- dash.dependencies -->
<g id="node22" class="node">
<title>dash.dependencies</title>
<polygon fill="#343434" stroke="#343434" points="1316.5,-160 1159.5,-160 1159.5,-124 1316.5,-124 1316.5,-160"/>
<text text-anchor="middle" x="1238" y="-138.3" font-family="Courier,monospace" font-size="14.00" fill="#de958e">dash.dependencies</text>
</g>
<!-- dash.dependencies&#45;&gt;hidebound.app -->
<g id="edge34" class="edge">
<title>dash.dependencies&#45;&gt;hidebound.app</title>
<path fill="none" stroke="#de958e" d="M1297.9062,-160.0282C1308.5194,-164.0694 1319.2773,-168.7428 1329,-174 1354.7248,-187.9097 1380.8785,-208.3089 1399.69,-224.3226"/>
<polygon fill="#de958e" stroke="#de958e" points="1397.4262,-226.9922 1407.2798,-230.8854 1402.0047,-221.6971 1397.4262,-226.9922"/>
</g>
<!-- dash.exceptions -->
<g id="node23" class="node">
<title>dash.exceptions</title>
<polygon fill="#343434" stroke="#343434" points="1308,-106 1168,-106 1168,-70 1308,-70 1308,-106"/>
<text text-anchor="middle" x="1238" y="-84.3" font-family="Courier,monospace" font-size="14.00" fill="#de958e">dash.exceptions</text>
</g>
<!-- dash.exceptions&#45;&gt;hidebound.app -->
<g id="edge35" class="edge">
<title>dash.exceptions&#45;&gt;hidebound.app</title>
<path fill="none" stroke="#de958e" d="M1308.2649,-103.6826C1315.5952,-106.8049 1322.6689,-110.5383 1329,-115 1368.3282,-142.7153 1398.0367,-191.2639 1413.9484,-221.6906"/>
<polygon fill="#de958e" stroke="#de958e" points="1410.9709,-223.557 1418.6244,-230.8833 1417.2102,-220.3833 1410.9709,-223.557"/>
</g>
<!-- pandasql -->
<g id="node24" class="node">
<title>pandasql</title>
<polygon fill="#343434" stroke="#343434" points="1024.5,-734 941.5,-734 941.5,-698 1024.5,-698 1024.5,-734"/>
<text text-anchor="middle" x="983" y="-712.3" font-family="Courier,monospace" font-size="14.00" fill="#de958e">pandasql</text>
</g>
<!-- pandasql&#45;&gt;hidebound.database -->
<g id="edge36" class="edge">
<title>pandasql&#45;&gt;hidebound.database</title>
<path fill="none" stroke="#de958e" d="M1024.5793,-710.6134C1050.0889,-706.4873 1083.0999,-699.6545 1111,-689 1144.0089,-676.3946 1178.5962,-655.9696 1203.3258,-639.9256"/>
<polygon fill="#de958e" stroke="#de958e" points="1205.5413,-642.6575 1211.9695,-634.2355 1201.6924,-636.8106 1205.5413,-642.6575"/>
</g>
<!-- flask -->
<g id="node25" class="node">
<title>flask</title>
<polygon fill="#343434" stroke="#343434" points="1267,-52 1209,-52 1209,-16 1267,-16 1267,-52"/>
<text text-anchor="middle" x="1238" y="-30.3" font-family="Courier,monospace" font-size="14.00" fill="#de958e">flask</text>
</g>
<!-- flask&#45;&gt;hidebound.app -->
<g id="edge37" class="edge">
<title>flask&#45;&gt;hidebound.app</title>
<path fill="none" stroke="#de958e" d="M1267.4158,-36.7701C1286.7417,-39.9175 1311.5785,-46.6404 1329,-61 1380.4725,-103.426 1408.1805,-179.9978 1419.9756,-221.1101"/>
<polygon fill="#de958e" stroke="#de958e" points="1416.6684,-222.2836 1422.6993,-230.9945 1423.4169,-220.424 1416.6684,-222.2836"/>
</g>
<!-- hidebound -->
<g id="node26" class="node">
<title>hidebound</title>
<polygon fill="#343434" stroke="#343434" points="91,-1048 0,-1048 0,-1012 91,-1012 91,-1048"/>
<text text-anchor="middle" x="45.5" y="-1026.3" font-family="Courier,monospace" font-size="14.00" fill="#a0d17b">hidebound</text>
</g>
<!-- hidebound&#45;&gt;hidebound.app -->
<g id="edge38" class="edge">
<title>hidebound&#45;&gt;hidebound.app</title>
<path fill="none" stroke="#a0d17b" d="M61.993,-1048.1732C72.1511,-1060.4731 84.4459,-1077.5974 91,-1095 116.7661,-1163.4146 80.1231,-1365.9019 127,-1422 221.2291,-1534.765 297.0474,-1516 444,-1516 444,-1516 444,-1516 983,-1516 1254.6629,-1516 1399.7273,-465.4778 1423.5004,-277.5857"/>
<polygon fill="#a0d17b" stroke="#a0d17b" points="1427.0062,-277.7567 1424.7767,-267.3991 1420.0605,-276.8864 1427.0062,-277.7567"/>
</g>
<!-- hidebound&#45;&gt;hidebound.components -->
<g id="edge39" class="edge">
<title>hidebound&#45;&gt;hidebound.components</title>
<path fill="none" stroke="#a0d17b" d="M83.5219,-1011.8497C86.4211,-1009.2358 88.9937,-1006.2952 91,-1003 162.0789,-886.2572 52.4159,-503.5352 127,-389 213.4497,-256.2434 285.5769,-226 444,-226 444,-226 444,-226 695,-226 880.0816,-226 927.4221,-221.4549 1111,-245 1124.6735,-246.7537 1139.0618,-249.2104 1153.043,-251.9341"/>
<polygon fill="#a0d17b" stroke="#a0d17b" points="1152.6425,-255.4234 1163.1356,-253.9584 1154.0191,-248.5601 1152.6425,-255.4234"/>
</g>
<!-- hidebound&#45;&gt;hidebound.config -->
<g id="edge40" class="edge">
<title>hidebound&#45;&gt;hidebound.config</title>
<path fill="none" stroke="#a0d17b" d="M80.7977,-1011.8325C84.4746,-1009.1519 87.9687,-1006.2017 91,-1003 114.781,-977.8821 103.1734,-959.0746 127,-934 207.2819,-849.5131 244.5826,-843.7655 353,-801 451.9241,-761.9791 750.713,-704.3694 898.442,-677.216"/>
<polygon fill="#a0d17b" stroke="#a0d17b" points="899.1771,-680.6397 908.3817,-675.3931 897.9143,-673.7545 899.1771,-680.6397"/>
</g>
<!-- hidebound&#45;&gt;hidebound.database -->
<g id="edge41" class="edge">
<title>hidebound&#45;&gt;hidebound.database</title>
<path fill="none" stroke="#a0d17b" d="M83.5044,-1011.839C86.4071,-1009.2273 88.9854,-1006.2901 91,-1003 156.6987,-895.7066 35.2539,-524.0863 127,-438 256.8962,-316.117 1010.7303,-475.202 1111,-517 1151.5143,-533.8886 1190.1041,-567.3003 1213.8904,-590.6147"/>
<polygon fill="#a0d17b" stroke="#a0d17b" points="1211.5291,-593.2031 1221.0768,-597.7958 1216.4771,-588.2515 1211.5291,-593.2031"/>
</g>
<!-- hidebound&#45;&gt;hidebound.database_test_base -->
<g id="edge42" class="edge">
<title>hidebound&#45;&gt;hidebound.database_test_base</title>
<path fill="none" stroke="#a0d17b" d="M87.2596,-1011.9342C145.476,-987.8292 254.9327,-946.3973 353,-931 432.9099,-918.4536 454.309,-925.3454 535,-931 598.5781,-935.4553 757.5595,-954.0562 819,-971 860.7381,-982.5103 905.9345,-1002.1009 938.2903,-1017.473"/>
<polygon fill="#a0d17b" stroke="#a0d17b" points="936.9518,-1020.7129 947.481,-1021.8902 939.9841,-1014.4038 936.9518,-1020.7129"/>
</g>
<!-- hidebound&#45;&gt;hidebound.database_tools -->
<g id="edge43" class="edge">
<title>hidebound&#45;&gt;hidebound.database_tools</title>
<path fill="none" stroke="#a0d17b" d="M83.3641,-1011.7511C86.2952,-1009.1572 88.9185,-1006.2481 91,-1003 132.3518,-938.4721 71.662,-713.0239 127,-660 158.6794,-629.6454 420.1239,-626.9783 577.0457,-628.1853"/>
<polygon fill="#a0d17b" stroke="#a0d17b" points="577.1984,-631.6865 587.2272,-628.2701 577.2568,-624.6868 577.1984,-631.6865"/>
</g>
<!-- hidebound&#45;&gt;hidebound.parser -->
<g id="edge44" class="edge">
<title>hidebound&#45;&gt;hidebound.parser</title>
<path fill="none" stroke="#a0d17b" d="M91.4125,-1041.9659C107.1837,-1046.0762 125.3191,-1050.8027 142.9584,-1055.3999"/>
<polygon fill="#a0d17b" stroke="#a0d17b" points="142.1293,-1058.8007 152.6888,-1057.9359 143.8947,-1052.027 142.1293,-1058.8007"/>
</g>
<!-- hidebound&#45;&gt;hidebound.specification_base -->
<g id="edge45" class="edge">
<title>hidebound&#45;&gt;hidebound.specification_base</title>
<path fill="none" stroke="#a0d17b" d="M91.1338,-1030.6164C177.7857,-1031.4228 372.0574,-1031.4872 535,-1019 543.3322,-1018.3615 551.8949,-1017.5866 560.5213,-1016.7159"/>
<polygon fill="#a0d17b" stroke="#a0d17b" points="561.0866,-1020.1759 570.6671,-1015.6522 560.3567,-1013.2141 561.0866,-1020.1759"/>
</g>
<!-- hidebound&#45;&gt;hidebound.specifications -->
<g id="edge46" class="edge">
<title>hidebound&#45;&gt;hidebound.specifications</title>
<path fill="none" stroke="#a0d17b" d="M61.8708,-1048.2199C71.9788,-1060.5391 84.2636,-1077.6671 91,-1095 135.4933,-1209.4822 47.4446,-1275.4224 127,-1369 227.3355,-1487.0205 665.8502,-1476.2635 819,-1453 856.4015,-1447.3187 897.0127,-1434.7419 928.4654,-1423.5"/>
<polygon fill="#a0d17b" stroke="#a0d17b" points="929.7165,-1426.7693 937.9188,-1420.0631 927.3247,-1420.1906 929.7165,-1426.7693"/>
</g>
<!-- hidebound&#45;&gt;hidebound.test_specifications -->
<g id="edge47" class="edge">
<title>hidebound&#45;&gt;hidebound.test_specifications</title>
<path fill="none" stroke="#a0d17b" d="M61.3698,-1048.0584C71.4028,-1060.4438 83.7938,-1077.7078 91,-1095 125.5739,-1177.9642 65.5088,-1228.4466 127,-1294 337.9842,-1518.9219 517.9224,-1411.757 819,-1345 863.724,-1335.0835 911.1568,-1312.4878 943.4429,-1295.0426"/>
<polygon fill="#a0d17b" stroke="#a0d17b" points="945.4639,-1297.9258 952.5441,-1290.0441 942.0941,-1291.7902 945.4639,-1297.9258"/>
</g>
<!-- hidebound&#45;&gt;hidebound.tools -->
<g id="edge48" class="edge">
<title>hidebound&#45;&gt;hidebound.tools</title>
<path fill="none" stroke="#a0d17b" d="M83.4827,-1011.8257C86.3898,-1009.2167 88.9751,-1006.2837 91,-1003 151.1006,-905.5391 45.6286,-569.5569 127,-489 189.6798,-426.9476 297.8121,-435.0292 370.1132,-449.8226"/>
<polygon fill="#a0d17b" stroke="#a0d17b" points="369.5585,-453.283 380.0689,-451.9479 371.02,-446.4372 369.5585,-453.283"/>
</g>
<!-- hidebound&#45;&gt;hidebound.traits -->
<g id="edge49" class="edge">
<title>hidebound&#45;&gt;hidebound.traits</title>
<path fill="none" stroke="#a0d17b" d="M60.9389,-1048.2477C70.7901,-1060.713 83.1402,-1077.9949 91,-1095 117.5938,-1152.5373 82.8329,-1187.5353 127,-1233 252.9891,-1362.6905 485.4922,-1351.2972 610.3924,-1333.6207"/>
<polygon fill="#a0d17b" stroke="#a0d17b" points="610.9098,-1337.0823 620.2987,-1332.1734 609.8978,-1330.1559 610.9098,-1337.0823"/>
</g>
<!-- hidebound&#45;&gt;hidebound.validators -->
<g id="edge50" class="edge">
<title>hidebound&#45;&gt;hidebound.validators</title>
<path fill="none" stroke="#a0d17b" d="M60.3646,-1048.042C75.3679,-1064.986 100.1107,-1089.6686 127,-1103 194.3228,-1136.3777 278.0803,-1151.5255 342.5907,-1158.3832"/>
<polygon fill="#a0d17b" stroke="#a0d17b" points="342.4718,-1161.8889 352.7736,-1159.4141 343.177,-1154.9245 342.4718,-1161.8889"/>
</g>
<!-- pandas -->
<g id="node27" class="node">
<title>pandas</title>
<polygon fill="#343434" stroke="#343434" points="255,-595 189,-595 189,-559 255,-559 255,-595"/>
<text text-anchor="middle" x="222" y="-573.3" font-family="Courier,monospace" font-size="14.00" fill="#de958e">pandas</text>
</g>
<!-- pandas&#45;&gt;hidebound.database -->
<g id="edge51" class="edge">
<title>pandas&#45;&gt;hidebound.database</title>
<path fill="none" stroke="#de958e" d="M255.3545,-578.1209C312.5723,-580.0553 433.1206,-584.1809 535,-588 753.7386,-596.1997 1010.7266,-606.6404 1145.2235,-612.1664"/>
<polygon fill="#de958e" stroke="#de958e" points="1145.3477,-615.6744 1155.4831,-612.5882 1145.6353,-608.6803 1145.3477,-615.6744"/>
</g>
<!-- pandas&#45;&gt;hidebound.database_test_base -->
<g id="edge52" class="edge">
<title>pandas&#45;&gt;hidebound.database_test_base</title>
<path fill="none" stroke="#de958e" d="M251.6791,-595.0223C273.2864,-609.7581 301.3943,-632.594 317,-660 360.6097,-736.5853 290.4859,-792.8783 353,-855 390.3055,-892.0714 769.897,-919.1616 819,-938 868.9328,-957.1568 920.309,-992.0389 951.9457,-1015.6138"/>
<polygon fill="#de958e" stroke="#de958e" points="950.2377,-1018.7097 960.3278,-1021.9409 954.4549,-1013.1227 950.2377,-1018.7097"/>
</g>
<!-- pandas&#45;&gt;hidebound.database_tools -->
<g id="edge53" class="edge">
<title>pandas&#45;&gt;hidebound.database_tools</title>
<path fill="none" stroke="#de958e" d="M255.2604,-580.7269C321.0593,-588.0997 470.6748,-604.8642 577.083,-616.7873"/>
<polygon fill="#de958e" stroke="#de958e" points="576.9138,-620.2902 587.2414,-617.9256 577.6933,-613.3337 576.9138,-620.2902"/>
</g>
<!-- pandas&#45;&gt;hidebound.tools -->
<g id="edge54" class="edge">
<title>pandas&#45;&gt;hidebound.tools</title>
<path fill="none" stroke="#de958e" d="M255.1446,-569.5781C274.3342,-564.237 298.3108,-555.7029 317,-543 337.0556,-529.3684 332.9067,-515.576 353,-502 358.2818,-498.4314 364.0046,-495.2166 369.9206,-492.3292"/>
<polygon fill="#de958e" stroke="#de958e" points="371.6785,-495.3752 379.3404,-488.0577 368.7876,-489 371.6785,-495.3752"/>
</g>
<!-- humanfriendly -->
<g id="node28" class="node">
<title>humanfriendly</title>
<polygon fill="#343434" stroke="#343434" points="284,-534 160,-534 160,-498 284,-498 284,-534"/>
<text text-anchor="middle" x="222" y="-512.3" font-family="Courier,monospace" font-size="14.00" fill="#de958e">humanfriendly</text>
</g>
<!-- humanfriendly&#45;&gt;hidebound.tools -->
<g id="edge55" class="edge">
<title>humanfriendly&#45;&gt;hidebound.tools</title>
<path fill="none" stroke="#de958e" d="M284.1346,-503.1253C308.8165,-498.011 337.5257,-492.0622 363.7492,-486.6285"/>
<polygon fill="#de958e" stroke="#de958e" points="364.5825,-490.0303 373.6643,-484.5741 363.1621,-483.1759 364.5825,-490.0303"/>
</g>
<!-- schematics.exceptions -->
<g id="node29" class="node">
<title>schematics.exceptions</title>
<polygon fill="#343434" stroke="#343434" points="317,-705 127,-705 127,-669 317,-669 317,-705"/>
<text text-anchor="middle" x="222" y="-683.3" font-family="Courier,monospace" font-size="14.00" fill="#de958e">schematics.exceptions</text>
</g>
<!-- schematics.exceptions&#45;&gt;hidebound.app -->
<g id="edge56" class="edge">
<title>schematics.exceptions&#45;&gt;hidebound.app</title>
<path fill="none" stroke="#de958e" d="M278.2872,-668.9024C301.3827,-661.6022 328.4192,-653.2167 353,-646 688.1948,-547.5898 789.7013,-575.1394 1111,-438 1220.3832,-391.3122 1337.6772,-312.6626 1393.612,-273.166"/>
<polygon fill="#de958e" stroke="#de958e" points="1395.9239,-275.8171 1402.0517,-267.1741 1391.8715,-270.1093 1395.9239,-275.8171"/>
</g>
<!-- schematics.exceptions&#45;&gt;hidebound.config -->
<g id="edge57" class="edge">
<title>schematics.exceptions&#45;&gt;hidebound.config</title>
<path fill="none" stroke="#de958e" d="M317.2263,-683.8717C466.9776,-678.9521 755.1606,-669.4849 898.1882,-664.7862"/>
<polygon fill="#de958e" stroke="#de958e" points="898.3518,-668.2828 908.2314,-664.4563 898.1219,-661.2866 898.3518,-668.2828"/>
</g>
<!-- schematics.exceptions&#45;&gt;hidebound.database_tools -->
<g id="edge58" class="edge">
<title>schematics.exceptions&#45;&gt;hidebound.database_tools</title>
<path fill="none" stroke="#de958e" d="M317.1496,-675.5338C392.0456,-666.5082 496.8151,-653.8827 577.0399,-644.2151"/>
<polygon fill="#de958e" stroke="#de958e" points="577.6851,-647.6627 587.1945,-642.9914 576.8476,-640.713 577.6851,-647.6627"/>
</g>
<!-- schematics.exceptions&#45;&gt;hidebound.specification_base -->
<g id="edge59" class="edge">
<title>schematics.exceptions&#45;&gt;hidebound.specification_base</title>
<path fill="none" stroke="#de958e" d="M223.5805,-705.1698C229.3435,-758.9798 254.4019,-917.934 353,-985 428.7803,-1036.5454 537.3986,-1030.6959 611.7734,-1017.9021"/>
<polygon fill="#de958e" stroke="#de958e" points="612.8116,-1021.2716 622.0337,-1016.056 611.5719,-1014.3823 612.8116,-1021.2716"/>
</g>
<!-- schematics.exceptions&#45;&gt;hidebound.tools -->
<g id="edge60" class="edge">
<title>schematics.exceptions&#45;&gt;hidebound.tools</title>
<path fill="none" stroke="#de958e" d="M249.6046,-668.8537C270.6756,-653.7376 299.0508,-630.4626 317,-604 343.9858,-564.2146 318.987,-535.9739 353,-502 356.5176,-498.4865 360.4431,-495.3575 364.6347,-492.5711"/>
<polygon fill="#de958e" stroke="#de958e" points="366.7201,-495.4052 373.5665,-487.3195 363.1722,-489.3709 366.7201,-495.4052"/>
</g>
<!-- schematics.exceptions&#45;&gt;hidebound.validators -->
<g id="edge61" class="edge">
<title>schematics.exceptions&#45;&gt;hidebound.validators</title>
<path fill="none" stroke="#de958e" d="M227.8634,-705.0748C244.5703,-755.7409 294.9744,-902.9467 353,-1018 374.9398,-1061.5022 405.8682,-1108.8454 425.4217,-1137.4712"/>
<polygon fill="#de958e" stroke="#de958e" points="422.5512,-1139.4739 431.1023,-1145.7292 428.3184,-1135.5067 422.5512,-1139.4739"/>
</g>
<!-- numpy -->
<g id="node30" class="node">
<title>numpy</title>
<polygon fill="#343434" stroke="#343434" points="473,-846 415,-846 415,-810 473,-810 473,-846"/>
<text text-anchor="middle" x="444" y="-824.3" font-family="Courier,monospace" font-size="14.00" fill="#de958e">numpy</text>
</g>
<!-- numpy&#45;&gt;hidebound.app -->
<g id="edge62" class="edge">
<title>numpy&#45;&gt;hidebound.app</title>
<path fill="none" stroke="#de958e" d="M473.3193,-830.6125C568.4898,-838.0539 876.1929,-853.9205 1111,-773 1217.6526,-736.2448 1261.7733,-733.5887 1329,-643 1372.9301,-583.8037 1410.4952,-358.3228 1422.7705,-277.7961"/>
<polygon fill="#de958e" stroke="#de958e" points="1426.3037,-277.8377 1424.3328,-267.4279 1419.3818,-276.7947 1426.3037,-277.8377"/>
</g>
<!-- numpy&#45;&gt;hidebound.database -->
<g id="edge63" class="edge">
<title>numpy&#45;&gt;hidebound.database</title>
<path fill="none" stroke="#de958e" d="M473.0018,-824.3358C601.0058,-808.1594 1109.168,-743.8987 1111,-743 1158.1365,-719.8762 1198.2082,-672.2295 1220.1168,-642.3224"/>
<polygon fill="#de958e" stroke="#de958e" points="1223.0829,-644.192 1226.0631,-634.025 1217.3931,-640.1144 1223.0829,-644.192"/>
</g>
<!-- numpy&#45;&gt;hidebound.database_test_base -->
<g id="edge64" class="edge">
<title>numpy&#45;&gt;hidebound.database_test_base</title>
<path fill="none" stroke="#de958e" d="M473.0748,-833.4811C560.4677,-849.9689 815.0418,-898.097 819,-900 877.1626,-927.9634 931.3606,-981.7512 960.5586,-1013.9026"/>
<polygon fill="#de958e" stroke="#de958e" points="958.1536,-1016.4637 967.4304,-1021.5816 963.37,-1011.7957 958.1536,-1016.4637"/>
</g>
<!-- numpy&#45;&gt;hidebound.database_tools -->
<g id="edge65" class="edge">
<title>numpy&#45;&gt;hidebound.database_tools</title>
<path fill="none" stroke="#de958e" d="M473.1328,-822.3761C492.0984,-817.6577 516.633,-809.4683 535,-796 556.5046,-780.2309 553.2796,-767.9273 571,-748 601.4237,-713.7872 640.1383,-678.0172 666.1461,-654.9551"/>
<polygon fill="#de958e" stroke="#de958e" points="668.5982,-657.4593 673.7863,-648.2217 663.9699,-652.2078 668.5982,-657.4593"/>
</g>
<!-- pyparsing -->
<g id="node31" class="node">
<title>pyparsing</title>
<polygon fill="#343434" stroke="#343434" points="91,-1140 0,-1140 0,-1104 91,-1104 91,-1140"/>
<text text-anchor="middle" x="45.5" y="-1118.3" font-family="Courier,monospace" font-size="14.00" fill="#de958e">pyparsing</text>
</g>
<!-- pyparsing&#45;&gt;hidebound.parser -->
<g id="edge66" class="edge">
<title>pyparsing&#45;&gt;hidebound.parser</title>
<path fill="none" stroke="#de958e" d="M91.4125,-1110.0341C107.1837,-1105.9238 125.3191,-1101.1973 142.9584,-1096.6001"/>
<polygon fill="#de958e" stroke="#de958e" points="143.8947,-1099.973 152.6888,-1094.0641 142.1293,-1093.1993 143.8947,-1099.973"/>
</g>
<!-- pyparsing&#45;&gt;hidebound.specification_base -->
<g id="edge67" class="edge">
<title>pyparsing&#45;&gt;hidebound.specification_base</title>
<path fill="none" stroke="#de958e" d="M91.1672,-1123.687C198.3061,-1126.8139 462.2412,-1129.4422 535,-1083 559.4456,-1067.3963 547.641,-1044.0453 570.8298,-1022.413"/>
<polygon fill="#de958e" stroke="#de958e" points="573.1523,-1025.0376 578.7883,-1016.0662 568.7878,-1019.5648 573.1523,-1025.0376"/>
</g>
<!-- pyparsing&#45;&gt;hidebound.validators -->
<g id="edge68" class="edge">
<title>pyparsing&#45;&gt;hidebound.validators</title>
<path fill="none" stroke="#de958e" d="M52.633,-1140.4001C63.9124,-1166.5805 88.608,-1213.5594 127,-1233 202.3365,-1271.1482 240.2811,-1268.2857 317,-1233 339.3362,-1222.7268 332.3721,-1204.3766 353,-1191 355.3181,-1189.4968 357.7229,-1188.0746 360.1931,-1186.7294"/>
<polygon fill="#de958e" stroke="#de958e" points="361.9702,-1189.7553 369.3851,-1182.1875 358.8693,-1183.4796 361.9702,-1189.7553"/>
</g>
<!-- schematics -->
<g id="node32" class="node">
<title>schematics</title>
<polygon fill="#343434" stroke="#343434" points="493.5,-976 394.5,-976 394.5,-940 493.5,-940 493.5,-976"/>
<text text-anchor="middle" x="444" y="-954.3" font-family="Courier,monospace" font-size="14.00" fill="#de958e">schematics</text>
</g>
<!-- schematics&#45;&gt;hidebound.config -->
<g id="edge69" class="edge">
<title>schematics&#45;&gt;hidebound.config</title>
<path fill="none" stroke="#de958e" d="M486.721,-939.9259C560.3718,-907.334 713.4827,-833.1655 819,-738 839.0675,-719.9012 832.2858,-703.6402 855,-689 867.9973,-680.6227 883.1352,-674.7916 898.3556,-670.745"/>
<polygon fill="#de958e" stroke="#de958e" points="899.4475,-674.0821 908.3479,-668.3346 897.8059,-667.2772 899.4475,-674.0821"/>
</g>
<!-- schematics&#45;&gt;hidebound.specification_base -->
<g id="edge70" class="edge">
<title>schematics&#45;&gt;hidebound.specification_base</title>
<path fill="none" stroke="#de958e" d="M493.5895,-965.9027C516.1751,-969.502 544.0148,-973.9386 571.7109,-978.3523"/>
<polygon fill="#de958e" stroke="#de958e" points="571.472,-981.8584 581.8982,-979.9758 572.5737,-974.9456 571.472,-981.8584"/>
</g>
<!-- schematics.types -->
<g id="node33" class="node">
<title>schematics.types</title>
<polygon fill="#343434" stroke="#343434" points="518.5,-1236 369.5,-1236 369.5,-1200 518.5,-1200 518.5,-1236"/>
<text text-anchor="middle" x="444" y="-1214.3" font-family="Courier,monospace" font-size="14.00" fill="#de958e">schematics.types</text>
</g>
<!-- schematics.types&#45;&gt;hidebound.config -->
<g id="edge71" class="edge">
<title>schematics.types&#45;&gt;hidebound.config</title>
<path fill="none" stroke="#de958e" d="M518.718,-1200.8305C524.4913,-1198.032 530.0071,-1194.7796 535,-1191 558.89,-1172.9157 546.99,-1151.9247 571,-1134 662.7747,-1065.4854 745.5958,-1151.9128 819,-1064 872.6558,-999.7389 799.2153,-751.4221 855,-689 866.3225,-676.3303 881.9595,-668.7601 898.4222,-664.3906"/>
<polygon fill="#de958e" stroke="#de958e" points="899.2078,-667.8015 908.1843,-662.1735 897.6574,-660.9753 899.2078,-667.8015"/>
</g>
<!-- schematics.types&#45;&gt;hidebound.database_test_base -->
<g id="edge72" class="edge">
<title>schematics.types&#45;&gt;hidebound.database_test_base</title>
<path fill="none" stroke="#de958e" d="M503.8068,-1199.9159C524.935,-1193.8284 548.9286,-1187.2541 571,-1182 680.2159,-1156.001 713.7646,-1173.1097 819,-1134 866.8011,-1116.2352 916.9967,-1085.4031 949.068,-1063.9125"/>
<polygon fill="#de958e" stroke="#de958e" points="951.3029,-1066.626 957.6161,-1058.1174 947.3749,-1060.8319 951.3029,-1066.626"/>
</g>
<!-- schematics.types&#45;&gt;hidebound.specification_base -->
<g id="edge73" class="edge">
<title>schematics.types&#45;&gt;hidebound.specification_base</title>
<path fill="none" stroke="#de958e" d="M518.5319,-1202.1526C524.4841,-1199.0713 530.0849,-1195.3924 535,-1191 565.5909,-1163.6622 546.9145,-1139.2122 571,-1106 595.4241,-1072.3209 632.2232,-1041.9884 659.3937,-1022.1061"/>
<polygon fill="#de958e" stroke="#de958e" points="661.7729,-1024.7063 667.8491,-1016.027 657.6866,-1019.0227 661.7729,-1024.7063"/>
</g>
<!-- schematics.types&#45;&gt;hidebound.specifications -->
<g id="edge74" class="edge">
<title>schematics.types&#45;&gt;hidebound.specifications</title>
<path fill="none" stroke="#de958e" d="M518.6191,-1232.3917C524.706,-1235.7666 530.3079,-1239.9119 535,-1245 587.6514,-1302.0949 510.6897,-1367.0646 571,-1416 674.1471,-1499.693 844.2841,-1454.6745 930.0621,-1423.5835"/>
<polygon fill="#de958e" stroke="#de958e" points="931.4293,-1426.8096 939.595,-1420.059 929.0018,-1420.244 931.4293,-1426.8096"/>
</g>
<!-- schematics.types&#45;&gt;hidebound.test_specifications -->
<g id="edge75" class="edge">
<title>schematics.types&#45;&gt;hidebound.test_specifications</title>
<path fill="none" stroke="#de958e" d="M510.4805,-1236.0002C529.8604,-1240.6216 551.1606,-1245.1014 571,-1248 661.5947,-1261.2362 764.4008,-1267.2383 844.655,-1269.9303"/>
<polygon fill="#de958e" stroke="#de958e" points="844.7184,-1273.4341 854.8259,-1270.2579 844.9437,-1266.4377 844.7184,-1273.4341"/>
</g>
<!-- wrapt -->
<g id="node34" class="node">
<title>wrapt</title>
<polygon fill="#343434" stroke="#343434" points="251,-1224 193,-1224 193,-1188 251,-1188 251,-1224"/>
<text text-anchor="middle" x="222" y="-1202.3" font-family="Courier,monospace" font-size="14.00" fill="#de958e">wrapt</text>
</g>
<!-- wrapt&#45;&gt;hidebound.validators -->
<g id="edge76" class="edge">
<title>wrapt&#45;&gt;hidebound.validators</title>
<path fill="none" stroke="#de958e" d="M251.0226,-1200.5092C274.5563,-1196.0569 309.1978,-1189.5031 342.6596,-1183.1725"/>
<polygon fill="#de958e" stroke="#de958e" points="343.3476,-1186.6045 352.5226,-1181.3065 342.0463,-1179.7265 343.3476,-1186.6045"/>
</g>
<!-- skimage.io -->
<g id="node35" class="node">
<title>skimage.io</title>
<polygon fill="#343434" stroke="#343434" points="493.5,-1290 394.5,-1290 394.5,-1254 493.5,-1254 493.5,-1290"/>
<text text-anchor="middle" x="444" y="-1268.3" font-family="Courier,monospace" font-size="14.00" fill="#de958e">skimage.io</text>
</g>
<!-- skimage.io&#45;&gt;hidebound.database_test_base -->
<g id="edge77" class="edge">
<title>skimage.io&#45;&gt;hidebound.database_test_base</title>
<path fill="none" stroke="#de958e" d="M493.6905,-1265.4782C567.8023,-1254.2982 710.2209,-1227.1405 819,-1172 874.2978,-1143.9693 928.3171,-1095.1321 958.4744,-1065.3675"/>
<polygon fill="#de958e" stroke="#de958e" points="961.0126,-1067.7791 965.6137,-1058.2354 956.0654,-1062.8268 961.0126,-1067.7791"/>
</g>
<!-- skimage.io&#45;&gt;hidebound.traits -->
<g id="edge78" class="edge">
<title>skimage.io&#45;&gt;hidebound.traits</title>
<path fill="none" stroke="#de958e" d="M493.5895,-1281.0881C526.7704,-1287.1691 571.291,-1295.3282 610.0366,-1302.429"/>
<polygon fill="#de958e" stroke="#de958e" points="609.806,-1305.945 620.2732,-1304.305 611.068,-1299.0597 609.806,-1305.945"/>
</g>
</g>
</svg>
