<?xml version="1.0" encoding="UTF-8" standalone="no"?>
<!DOCTYPE svg PUBLIC "-//W3C//DTD SVG 1.1//EN"
 "http://www.w3.org/Graphics/SVG/1.1/DTD/svg11.dtd">
<!-- Generated by graphviz version 2.40.1 (20161225.0304)
 -->
<!-- Title: %3 Pages: 1 -->
<svg width="2914pt" height="2372pt"
 viewBox="0.00 0.00 2914.00 2371.74" xmlns="http://www.w3.org/2000/svg" xmlns:xlink="http://www.w3.org/1999/xlink">
<g id="graph0" class="graph" transform="scale(1 1) rotate(0) translate(4 2367.7415)">
<title>%3</title>
<polygon fill="#242424" stroke="transparent" points="-4,4 -4,-2367.7415 2910,-2367.7415 2910,4 -4,4"/>
<!-- cli -->
<g id="node1" class="node">
<title>cli</title>
<polygon fill="#343434" stroke="#343434" points="72.5,-1449 18.5,-1449 18.5,-1413 72.5,-1413 72.5,-1449"/>
<text text-anchor="middle" x="45.5" y="-1427.3" font-family="Courier,monospace" font-size="14.00" fill="#b6ecf3">cli</text>
</g>
<!-- hidebound.core.config -->
<g id="node2" class="node">
<title>hidebound.core.config</title>
<polygon fill="#343434" stroke="#343434" points="1636,-1514 1446,-1514 1446,-1478 1636,-1478 1636,-1514"/>
<text text-anchor="middle" x="1541" y="-1492.3" font-family="Courier,monospace" font-size="14.00" fill="#b6ecf3">hidebound.core.config</text>
</g>
<!-- hidebound.core.database -->
<g id="node3" class="node">
<title>hidebound.core.database</title>
<polygon fill="#343434" stroke="#343434" points="1903,-1010 1697,-1010 1697,-974 1903,-974 1903,-1010"/>
<text text-anchor="middle" x="1800" y="-988.3" font-family="Courier,monospace" font-size="14.00" fill="#b6ecf3">hidebound.core.database</text>
</g>
<!-- hidebound.core.config&#45;&gt;hidebound.core.database -->
<g id="edge1" class="edge">
<title>hidebound.core.config&#45;&gt;hidebound.core.database</title>
<path fill="none" stroke="#b6ecf3" d="M1600.5724,-1477.7984C1614.2305,-1470.8893 1627.2817,-1461.5401 1636,-1449 1724.2554,-1322.0567 1600.5997,-1240.1335 1672,-1103 1691.5961,-1065.3631 1729.7531,-1034.8962 1759.3295,-1015.47"/>
<polygon fill="#b6ecf3" stroke="#b6ecf3" points="1761.2739,-1018.3811 1767.8113,-1010.0437 1757.5015,-1012.4846 1761.2739,-1018.3811"/>
</g>
<!-- hidebound.server.extension -->
<g id="node19" class="node">
<title>hidebound.server.extension</title>
<polygon fill="#343434" stroke="#343434" points="2413,-736 2182,-736 2182,-700 2413,-700 2413,-736"/>
<text text-anchor="middle" x="2297.5" y="-714.3" font-family="Courier,monospace" font-size="14.00" fill="#b6ecf3">hidebound.server.extension</text>
</g>
<!-- hidebound.core.config&#45;&gt;hidebound.server.extension -->
<g id="edge2" class="edge">
<title>hidebound.core.config&#45;&gt;hidebound.server.extension</title>
<path fill="none" stroke="#b6ecf3" d="M1574.77,-1477.8776C1646.1742,-1439.6828 1817.9187,-1348.4688 1964,-1276 2044.1448,-1236.2413 2087.0098,-1257.2615 2146,-1190 2264.4213,-1054.9742 2290.4477,-826.4393 2296.0231,-746.5735"/>
<polygon fill="#b6ecf3" stroke="#b6ecf3" points="2299.5337,-746.5197 2296.6816,-736.316 2292.5481,-746.0712 2299.5337,-746.5197"/>
</g>
<!-- hidebound.server.api -->
<g id="node16" class="node">
<title>hidebound.server.api</title>
<polygon fill="#343434" stroke="#343434" points="2146,-690 1964,-690 1964,-654 2146,-654 2146,-690"/>
<text text-anchor="middle" x="2055" y="-668.3" font-family="Courier,monospace" font-size="14.00" fill="#b6ecf3">hidebound.server.api</text>
</g>
<!-- hidebound.core.database&#45;&gt;hidebound.server.api -->
<g id="edge3" class="edge">
<title>hidebound.core.database&#45;&gt;hidebound.server.api</title>
<path fill="none" stroke="#b6ecf3" d="M1814.4405,-973.8785C1857.2939,-920.1017 1983.8752,-761.2546 2034.1114,-698.2131"/>
<polygon fill="#b6ecf3" stroke="#b6ecf3" points="2036.9069,-700.3212 2040.4018,-690.3193 2031.4325,-695.9587 2036.9069,-700.3212"/>
</g>
<!-- hidebound.core.database&#45;&gt;hidebound.server.extension -->
<g id="edge4" class="edge">
<title>hidebound.core.database&#45;&gt;hidebound.server.extension</title>
<path fill="none" stroke="#b6ecf3" d="M1833.0276,-973.8099C1920.6971,-925.5256 2159.1688,-794.1864 2255.9,-740.9113"/>
<polygon fill="#b6ecf3" stroke="#b6ecf3" points="2257.738,-743.8949 2264.8088,-736.0048 2254.3609,-737.7633 2257.738,-743.8949"/>
</g>
<!-- hidebound.core.database_tools -->
<g id="node4" class="node">
<title>hidebound.core.database_tools</title>
<polygon fill="#343434" stroke="#343434" points="1385.5,-926 1129.5,-926 1129.5,-890 1385.5,-890 1385.5,-926"/>
<text text-anchor="middle" x="1257.5" y="-904.3" font-family="Courier,monospace" font-size="14.00" fill="#b6ecf3">hidebound.core.database_tools</text>
</g>
<!-- hidebound.core.database_tools&#45;&gt;hidebound.core.database -->
<g id="edge5" class="edge">
<title>hidebound.core.database_tools&#45;&gt;hidebound.core.database</title>
<path fill="none" stroke="#b6ecf3" d="M1373.8799,-926.0201C1466.3067,-940.3314 1594.8115,-960.2289 1686.4826,-974.4231"/>
<polygon fill="#b6ecf3" stroke="#b6ecf3" points="1686.2151,-977.9233 1696.633,-975.9948 1687.2863,-971.0058 1686.2151,-977.9233"/>
</g>
<!-- hidebound.core.logging -->
<g id="node5" class="node">
<title>hidebound.core.logging</title>
<polygon fill="#343434" stroke="#343434" points="731.5,-480 533.5,-480 533.5,-444 731.5,-444 731.5,-480"/>
<text text-anchor="middle" x="632.5" y="-458.3" font-family="Courier,monospace" font-size="14.00" fill="#b6ecf3">hidebound.core.logging</text>
</g>
<!-- hidebound.core.logging&#45;&gt;hidebound.core.database -->
<g id="edge6" class="edge">
<title>hidebound.core.logging&#45;&gt;hidebound.core.database</title>
<path fill="none" stroke="#b6ecf3" d="M731.6766,-476.3122C929.9007,-505.7496 1360.3431,-574.1614 1410,-620 1452.4811,-659.2145 1407.7002,-701.6925 1446,-745 1506.8134,-813.7648 1560.0922,-774.3777 1636,-826 1695.2352,-866.2838 1750.8839,-930.1155 1779.6399,-965.746"/>
<polygon fill="#b6ecf3" stroke="#b6ecf3" points="1777.0512,-968.1133 1786.0254,-973.7449 1782.5219,-963.7461 1777.0512,-968.1133"/>
</g>
<!-- hidebound.exporters.exporter_base -->
<g id="node13" class="node">
<title>hidebound.exporters.exporter_base</title>
<polygon fill="#343434" stroke="#343434" points="1069,-1598 780,-1598 780,-1562 1069,-1562 1069,-1598"/>
<text text-anchor="middle" x="924.5" y="-1576.3" font-family="Courier,monospace" font-size="14.00" fill="#b6ecf3">hidebound.exporters.exporter_base</text>
</g>
<!-- hidebound.core.logging&#45;&gt;hidebound.exporters.exporter_base -->
<g id="edge7" class="edge">
<title>hidebound.core.logging&#45;&gt;hidebound.exporters.exporter_base</title>
<path fill="none" stroke="#b6ecf3" d="M636.0061,-480.1322C650.2913,-554.2601 705.1875,-841.5863 744,-1079 761.8276,-1188.0502 744.149,-1220.4797 780,-1325 810.8006,-1414.7963 873.4513,-1509.1409 905.1721,-1553.7146"/>
<polygon fill="#b6ecf3" stroke="#b6ecf3" points="902.4096,-1555.8681 911.0853,-1561.9496 908.0956,-1551.7853 902.4096,-1555.8681"/>
</g>
<!-- hidebound.core.logging&#45;&gt;hidebound.server.api -->
<g id="edge8" class="edge">
<title>hidebound.core.logging&#45;&gt;hidebound.server.api</title>
<path fill="none" stroke="#b6ecf3" d="M731.5436,-462.8192C820.1647,-464.3287 953.5259,-468.515 1069,-480 1410.4486,-513.9604 1809.4781,-609.1347 1975.881,-651.3671"/>
<polygon fill="#b6ecf3" stroke="#b6ecf3" points="1975.47,-654.874 1986.0244,-653.9491 1977.1969,-648.0903 1975.47,-654.874"/>
</g>
<!-- hidebound.server.server_tools -->
<g id="node21" class="node">
<title>hidebound.server.server_tools</title>
<polygon fill="#343434" stroke="#343434" points="1928,-556 1672,-556 1672,-520 1928,-520 1928,-556"/>
<text text-anchor="middle" x="1800" y="-534.3" font-family="Courier,monospace" font-size="14.00" fill="#b6ecf3">hidebound.server.server_tools</text>
</g>
<!-- hidebound.core.logging&#45;&gt;hidebound.server.server_tools -->
<g id="edge9" class="edge">
<title>hidebound.core.logging&#45;&gt;hidebound.server.server_tools</title>
<path fill="none" stroke="#b6ecf3" d="M731.8289,-452.8553C952.4379,-434.116 1476.3337,-398.7415 1636,-469 1657.0006,-478.241 1652.1122,-494.5591 1672,-506 1678.7709,-509.8951 1686.0093,-513.3203 1693.4704,-516.3317"/>
<polygon fill="#b6ecf3" stroke="#b6ecf3" points="1692.4299,-519.6798 1703.0218,-519.929 1694.8971,-513.129 1692.4299,-519.6798"/>
</g>
<!-- hidebound.core.parser -->
<g id="node6" class="node">
<title>hidebound.core.parser</title>
<polygon fill="#343434" stroke="#343434" points="485,-1254 295,-1254 295,-1218 485,-1218 485,-1254"/>
<text text-anchor="middle" x="390" y="-1232.3" font-family="Courier,monospace" font-size="14.00" fill="#b6ecf3">hidebound.core.parser</text>
</g>
<!-- hidebound.core.parser&#45;&gt;hidebound.core.database_tools -->
<g id="edge10" class="edge">
<title>hidebound.core.parser&#45;&gt;hidebound.core.database_tools</title>
<path fill="none" stroke="#b6ecf3" d="M413.5002,-1217.9229C435.8938,-1199.2649 468.559,-1168.0112 485,-1133 510.6356,-1078.4088 475.6135,-903.7171 521,-864 612.6432,-783.8043 948.7947,-844.4934 1069,-864 1085.6477,-866.7016 1088.7201,-871.5943 1105,-876 1120.4617,-880.1843 1136.9293,-884.1449 1153.1102,-887.7614"/>
<polygon fill="#b6ecf3" stroke="#b6ecf3" points="1152.618,-891.2368 1163.1366,-889.9677 1154.1224,-884.4003 1152.618,-891.2368"/>
</g>
<!-- hidebound.core.specification_base -->
<g id="node7" class="node">
<title>hidebound.core.specification_base</title>
<polygon fill="#343434" stroke="#343434" points="1069,-1316 780,-1316 780,-1280 1069,-1280 1069,-1316"/>
<text text-anchor="middle" x="924.5" y="-1294.3" font-family="Courier,monospace" font-size="14.00" fill="#b6ecf3">hidebound.core.specification_base</text>
</g>
<!-- hidebound.core.parser&#45;&gt;hidebound.core.specification_base -->
<g id="edge11" class="edge">
<title>hidebound.core.parser&#45;&gt;hidebound.core.specification_base</title>
<path fill="none" stroke="#b6ecf3" d="M485.2498,-1247.0486C564.1606,-1256.202 677.857,-1269.3903 769.8045,-1280.0559"/>
<polygon fill="#b6ecf3" stroke="#b6ecf3" points="769.4294,-1283.5358 779.7661,-1281.2114 770.236,-1276.5824 769.4294,-1283.5358"/>
</g>
<!-- hidebound.core.validators -->
<g id="node11" class="node">
<title>hidebound.core.validators</title>
<polygon fill="#343434" stroke="#343434" points="744,-1438 521,-1438 521,-1402 744,-1402 744,-1438"/>
<text text-anchor="middle" x="632.5" y="-1416.3" font-family="Courier,monospace" font-size="14.00" fill="#b6ecf3">hidebound.core.validators</text>
</g>
<!-- hidebound.core.parser&#45;&gt;hidebound.core.validators -->
<g id="edge12" class="edge">
<title>hidebound.core.parser&#45;&gt;hidebound.core.validators</title>
<path fill="none" stroke="#b6ecf3" d="M467.2337,-1254.0224C473.4277,-1256.6357 479.4343,-1259.6125 485,-1263 541.2518,-1297.237 589.9017,-1358.6502 614.7956,-1393.659"/>
<polygon fill="#b6ecf3" stroke="#b6ecf3" points="612.002,-1395.7714 620.6029,-1401.958 617.7373,-1391.7581 612.002,-1395.7714"/>
</g>
<!-- hidebound.core.specification_base&#45;&gt;hidebound.core.config -->
<g id="edge13" class="edge">
<title>hidebound.core.specification_base&#45;&gt;hidebound.core.config</title>
<path fill="none" stroke="#b6ecf3" d="M1043.2609,-1279.9812C1146.2689,-1270.1514 1296.2735,-1270.1757 1410,-1330 1468.4082,-1360.7248 1509.3827,-1430.1534 1528.6067,-1468.7791"/>
<polygon fill="#b6ecf3" stroke="#b6ecf3" points="1525.5126,-1470.4202 1533.0229,-1477.8932 1531.812,-1467.3678 1525.5126,-1470.4202"/>
</g>
<!-- hidebound.core.specification_base&#45;&gt;hidebound.core.database -->
<g id="edge14" class="edge">
<title>hidebound.core.specification_base&#45;&gt;hidebound.core.database</title>
<path fill="none" stroke="#b6ecf3" d="M1014.9554,-1279.9749C1195.7916,-1243.2636 1588.7084,-1159.8513 1636,-1119 1667.6674,-1091.6452 1641.1168,-1060.2372 1672,-1032 1679.6825,-1024.9758 1688.5858,-1019.185 1698.0493,-1014.4111"/>
<polygon fill="#b6ecf3" stroke="#b6ecf3" points="1699.67,-1017.5177 1707.2726,-1010.1386 1696.7277,-1011.1661 1699.67,-1017.5177"/>
</g>
<!-- hidebound.core.specification_base&#45;&gt;hidebound.core.database_tools -->
<g id="edge15" class="edge">
<title>hidebound.core.specification_base&#45;&gt;hidebound.core.database_tools</title>
<path fill="none" stroke="#b6ecf3" d="M993.973,-1279.9329C1020.5509,-1269.9454 1049.202,-1254.9657 1069,-1233 1103.1569,-1195.1032 1082.0368,-1169.5583 1105,-1124 1142.325,-1049.9484 1202.9116,-972.8479 1235.3434,-933.8766"/>
<polygon fill="#b6ecf3" stroke="#b6ecf3" points="1238.0753,-936.0658 1241.8182,-926.1541 1232.7112,-931.5684 1238.0753,-936.0658"/>
</g>
<!-- hidebound.core.specifications -->
<g id="node8" class="node">
<title>hidebound.core.specifications</title>
<polygon fill="#343434" stroke="#343434" points="1385.5,-1956 1129.5,-1956 1129.5,-1920 1385.5,-1920 1385.5,-1956"/>
<text text-anchor="middle" x="1257.5" y="-1934.3" font-family="Courier,monospace" font-size="14.00" fill="#b6ecf3">hidebound.core.specifications</text>
</g>
<!-- hidebound.core.specification_base&#45;&gt;hidebound.core.specifications -->
<g id="edge16" class="edge">
<title>hidebound.core.specification_base&#45;&gt;hidebound.core.specifications</title>
<path fill="none" stroke="#b6ecf3" d="M937.6503,-1316.1439C966.2619,-1356.5395 1034.3679,-1457.8458 1069,-1553 1099.1417,-1635.8166 1068.3046,-1667.8716 1105,-1748 1135.6995,-1815.0356 1195.2986,-1878.8738 1230.2065,-1912.7874"/>
<polygon fill="#b6ecf3" stroke="#b6ecf3" points="1228.0406,-1915.5598 1237.6799,-1919.957 1232.8867,-1910.5084 1228.0406,-1915.5598"/>
</g>
<!-- hidebound.core.tools -->
<g id="node9" class="node">
<title>hidebound.core.tools</title>
<polygon fill="#343434" stroke="#343434" points="723.5,-1124 541.5,-1124 541.5,-1088 723.5,-1088 723.5,-1124"/>
<text text-anchor="middle" x="632.5" y="-1102.3" font-family="Courier,monospace" font-size="14.00" fill="#b6ecf3">hidebound.core.tools</text>
</g>
<!-- hidebound.core.tools&#45;&gt;hidebound.core.database -->
<g id="edge17" class="edge">
<title>hidebound.core.tools&#45;&gt;hidebound.core.database</title>
<path fill="none" stroke="#b6ecf3" d="M653.7303,-1087.986C680.9282,-1066.1701 730.4945,-1030.5412 780,-1016 946.835,-966.9956 1457.7003,-979.0401 1686.7826,-987.317"/>
<polygon fill="#b6ecf3" stroke="#b6ecf3" points="1686.6893,-990.8158 1696.8105,-987.6834 1686.945,-983.8205 1686.6893,-990.8158"/>
</g>
<!-- hidebound.core.tools&#45;&gt;hidebound.core.database_tools -->
<g id="edge18" class="edge">
<title>hidebound.core.tools&#45;&gt;hidebound.core.database_tools</title>
<path fill="none" stroke="#b6ecf3" d="M642.1342,-1087.8509C662.2462,-1052.0806 712.4915,-973.0802 780,-940 837.6346,-911.7582 999.6175,-905.9495 1119.0079,-905.7832"/>
<polygon fill="#b6ecf3" stroke="#b6ecf3" points="1119.3351,-909.2832 1129.3349,-905.7826 1119.3347,-902.2832 1119.3351,-909.2832"/>
</g>
<!-- hidebound.core.tools&#45;&gt;hidebound.core.specification_base -->
<g id="edge19" class="edge">
<title>hidebound.core.tools&#45;&gt;hidebound.core.specification_base</title>
<path fill="none" stroke="#b6ecf3" d="M723.7456,-1123.2697C731.1927,-1127.2292 738.1059,-1132.0745 744,-1138 785.676,-1179.8982 737.0546,-1225.404 780,-1266 783.3464,-1269.1634 786.9325,-1272.0407 790.7083,-1274.6564"/>
<polygon fill="#b6ecf3" stroke="#b6ecf3" points="788.9179,-1277.6645 799.2578,-1279.9745 792.6152,-1271.7206 788.9179,-1277.6645"/>
</g>
<!-- hidebound.core.traits -->
<g id="node10" class="node">
<title>hidebound.core.traits</title>
<polygon fill="#343434" stroke="#343434" points="1019.5,-2048 829.5,-2048 829.5,-2012 1019.5,-2012 1019.5,-2048"/>
<text text-anchor="middle" x="924.5" y="-2026.3" font-family="Courier,monospace" font-size="14.00" fill="#b6ecf3">hidebound.core.traits</text>
</g>
<!-- hidebound.core.tools&#45;&gt;hidebound.core.traits -->
<g id="edge20" class="edge">
<title>hidebound.core.tools&#45;&gt;hidebound.core.traits</title>
<path fill="none" stroke="#b6ecf3" d="M641.7522,-1124.2075C663.8864,-1168.731 719.8432,-1287.2103 744,-1393 789.4547,-1592.0596 704.4923,-1661.2912 780,-1851 805.3336,-1914.6492 861.5903,-1973.3648 895.9582,-2005.1835"/>
<polygon fill="#b6ecf3" stroke="#b6ecf3" points="893.6103,-2007.7793 903.3575,-2011.9319 898.3274,-2002.6072 893.6103,-2007.7793"/>
</g>
<!-- hidebound.exporters.disk_exporter -->
<g id="node12" class="node">
<title>hidebound.exporters.disk_exporter</title>
<polygon fill="#343434" stroke="#343434" points="1402,-1560 1113,-1560 1113,-1524 1402,-1524 1402,-1560"/>
<text text-anchor="middle" x="1257.5" y="-1538.3" font-family="Courier,monospace" font-size="14.00" fill="#b6ecf3">hidebound.exporters.disk_exporter</text>
</g>
<!-- hidebound.core.tools&#45;&gt;hidebound.exporters.disk_exporter -->
<g id="edge21" class="edge">
<title>hidebound.core.tools&#45;&gt;hidebound.exporters.disk_exporter</title>
<path fill="none" stroke="#b6ecf3" d="M723.7537,-1124.1076C731.1061,-1127.8991 737.999,-1132.4761 744,-1138 777.2206,-1168.5796 744.5991,-1204.9734 780,-1233 881.572,-1313.4136 974.578,-1182.3 1069,-1271 1129.7335,-1328.053 1056.3947,-1387.316 1105,-1455 1126.43,-1484.8418 1161.486,-1505.8688 1192.5867,-1519.7664"/>
<polygon fill="#b6ecf3" stroke="#b6ecf3" points="1191.5227,-1523.1187 1202.0922,-1523.8524 1194.2872,-1516.6877 1191.5227,-1523.1187"/>
</g>
<!-- hidebound.core.tools&#45;&gt;hidebound.exporters.exporter_base -->
<g id="edge22" class="edge">
<title>hidebound.core.tools&#45;&gt;hidebound.exporters.exporter_base</title>
<path fill="none" stroke="#b6ecf3" d="M643.5902,-1124.0026C688.2175,-1196.4456 854.8213,-1466.8914 908.0439,-1553.287"/>
<polygon fill="#b6ecf3" stroke="#b6ecf3" points="905.1738,-1555.3011 913.3988,-1561.9795 911.1337,-1551.6296 905.1738,-1555.3011"/>
</g>
<!-- hidebound.exporters.s3_exporter -->
<g id="node15" class="node">
<title>hidebound.exporters.s3_exporter</title>
<polygon fill="#343434" stroke="#343434" points="1393.5,-1446 1121.5,-1446 1121.5,-1410 1393.5,-1410 1393.5,-1446"/>
<text text-anchor="middle" x="1257.5" y="-1424.3" font-family="Courier,monospace" font-size="14.00" fill="#b6ecf3">hidebound.exporters.s3_exporter</text>
</g>
<!-- hidebound.core.tools&#45;&gt;hidebound.exporters.s3_exporter -->
<g id="edge23" class="edge">
<title>hidebound.core.tools&#45;&gt;hidebound.exporters.s3_exporter</title>
<path fill="none" stroke="#b6ecf3" d="M715.2686,-1087.9763C808.1147,-1072.4049 959.9607,-1061.2747 1069,-1125 1175.9409,-1187.4989 1230.817,-1337.1894 1249.7243,-1399.7589"/>
<polygon fill="#b6ecf3" stroke="#b6ecf3" points="1246.4708,-1401.1017 1252.6478,-1409.7096 1253.187,-1399.1285 1246.4708,-1401.1017"/>
</g>
<!-- hidebound.server.app -->
<g id="node17" class="node">
<title>hidebound.server.app</title>
<polygon fill="#343434" stroke="#343434" points="2906,-247 2724,-247 2724,-211 2906,-211 2906,-247"/>
<text text-anchor="middle" x="2815" y="-225.3" font-family="Courier,monospace" font-size="14.00" fill="#b6ecf3">hidebound.server.app</text>
</g>
<!-- hidebound.core.tools&#45;&gt;hidebound.server.app -->
<g id="edge24" class="edge">
<title>hidebound.core.tools&#45;&gt;hidebound.server.app</title>
<path fill="none" stroke="#b6ecf3" d="M653.6332,-1087.804C694.4182,-1052.6874 780,-979 780,-979 909.7857,-925.6026 1270.8155,-952.9802 1410,-935 1859.9665,-876.8723 1969.8884,-842.4722 2413,-745 2536.0684,-717.9284 2597.5271,-763.7119 2688,-676 2749.79,-616.0957 2796.7973,-345.5713 2810.7449,-257.0971"/>
<polygon fill="#b6ecf3" stroke="#b6ecf3" points="2814.2359,-257.4247 2812.3162,-247.0052 2807.3193,-256.3476 2814.2359,-257.4247"/>
</g>
<!-- hidebound.core.tools&#45;&gt;hidebound.server.extension -->
<g id="edge25" class="edge">
<title>hidebound.core.tools&#45;&gt;hidebound.server.extension</title>
<path fill="none" stroke="#b6ecf3" d="M671.8984,-1087.9869C701.0604,-1075.6833 742.1298,-1060.48 780,-1054 906.6044,-1032.3367 941.0233,-1043.0483 1069,-1054 1452.1123,-1086.7851 1579.3903,-1319.2379 1928,-1157 2118.9361,-1068.1411 2246.5024,-826.6643 2285.1513,-745.2329"/>
<polygon fill="#b6ecf3" stroke="#b6ecf3" points="2288.3491,-746.657 2289.4221,-736.1166 2282.0102,-743.6873 2288.3491,-746.657"/>
</g>
<!-- hidebound.core.traits&#45;&gt;hidebound.core.specifications -->
<g id="edge26" class="edge">
<title>hidebound.core.traits&#45;&gt;hidebound.core.specifications</title>
<path fill="none" stroke="#b6ecf3" d="M989.8928,-2011.9335C1045.22,-1996.6479 1124.5192,-1974.7394 1182.4297,-1958.7401"/>
<polygon fill="#b6ecf3" stroke="#b6ecf3" points="1183.55,-1962.0618 1192.2568,-1956.0251 1181.6858,-1955.3146 1183.55,-1962.0618"/>
</g>
<!-- hidebound.core.validators&#45;&gt;hidebound.core.config -->
<g id="edge27" class="edge">
<title>hidebound.core.validators&#45;&gt;hidebound.core.config</title>
<path fill="none" stroke="#b6ecf3" d="M744.3981,-1433.3414C756.4091,-1434.6407 768.4538,-1435.8874 780,-1437 1013.794,-1459.5279 1288.6479,-1479.1436 1435.6302,-1489.0805"/>
<polygon fill="#b6ecf3" stroke="#b6ecf3" points="1435.7768,-1492.5982 1445.9896,-1489.7791 1436.2478,-1485.6141 1435.7768,-1492.5982"/>
</g>
<!-- hidebound.core.validators&#45;&gt;hidebound.core.specification_base -->
<g id="edge28" class="edge">
<title>hidebound.core.validators&#45;&gt;hidebound.core.specification_base</title>
<path fill="none" stroke="#b6ecf3" d="M704.4096,-1401.9746C717.7575,-1397.8967 731.444,-1393.2096 744,-1388 760.9059,-1380.9856 763.7575,-1376.4376 780,-1368 811.781,-1351.4905 848.0572,-1333.9215 876.3121,-1320.5145"/>
<polygon fill="#b6ecf3" stroke="#b6ecf3" points="878.0262,-1323.5755 885.5686,-1316.1349 875.0324,-1317.248 878.0262,-1323.5755"/>
</g>
<!-- hidebound.core.validators&#45;&gt;hidebound.core.specifications -->
<g id="edge29" class="edge">
<title>hidebound.core.validators&#45;&gt;hidebound.core.specifications</title>
<path fill="none" stroke="#b6ecf3" d="M650.3379,-1438.3431C675.8327,-1465.7744 722.0321,-1520.25 744,-1576 766.595,-1633.3414 736.0617,-1807.7797 780,-1851 826.082,-1896.329 1005.6025,-1871.3896 1069,-1884 1111.1158,-1892.3773 1157.4934,-1905.6096 1193.7077,-1916.8785"/>
<polygon fill="#b6ecf3" stroke="#b6ecf3" points="1193.0511,-1920.3409 1203.6405,-1919.9992 1195.1493,-1913.6627 1193.0511,-1920.3409"/>
</g>
<!-- hidebound.core.validators&#45;&gt;hidebound.exporters.disk_exporter -->
<g id="edge30" class="edge">
<title>hidebound.core.validators&#45;&gt;hidebound.exporters.disk_exporter</title>
<path fill="none" stroke="#b6ecf3" d="M654.3145,-1438.0439C681.7205,-1459.5367 731.1075,-1494.479 780,-1510 884.3051,-1543.1118 1007.6813,-1550.6221 1102.8929,-1550.1099"/>
<polygon fill="#b6ecf3" stroke="#b6ecf3" points="1102.9231,-1553.6098 1112.8934,-1550.0261 1102.8644,-1546.6101 1102.9231,-1553.6098"/>
</g>
<!-- hidebound.core.validators&#45;&gt;hidebound.exporters.exporter_base -->
<g id="edge31" class="edge">
<title>hidebound.core.validators&#45;&gt;hidebound.exporters.exporter_base</title>
<path fill="none" stroke="#b6ecf3" d="M647.7158,-1438.0233C672.4562,-1466.097 724.2755,-1519.9502 780,-1548 788.0902,-1552.0723 796.6922,-1555.6299 805.5116,-1558.7373"/>
<polygon fill="#b6ecf3" stroke="#b6ecf3" points="804.5596,-1562.1089 815.153,-1561.9354 806.7635,-1555.4649 804.5596,-1562.1089"/>
</g>
<!-- hidebound.exporters.girder_exporter -->
<g id="node14" class="node">
<title>hidebound.exporters.girder_exporter</title>
<polygon fill="#343434" stroke="#343434" points="1410,-1739 1105,-1739 1105,-1703 1410,-1703 1410,-1739"/>
<text text-anchor="middle" x="1257.5" y="-1717.3" font-family="Courier,monospace" font-size="14.00" fill="#b6ecf3">hidebound.exporters.girder_exporter</text>
</g>
<!-- hidebound.core.validators&#45;&gt;hidebound.exporters.girder_exporter -->
<g id="edge32" class="edge">
<title>hidebound.core.validators&#45;&gt;hidebound.exporters.girder_exporter</title>
<path fill="none" stroke="#b6ecf3" d="M644.5112,-1438.1339C672.9635,-1480.5701 744.7225,-1584.4555 780,-1607 874.254,-1667.2343 997.3662,-1695.6706 1094.9748,-1709.0813"/>
<polygon fill="#b6ecf3" stroke="#b6ecf3" points="1094.564,-1712.5575 1104.939,-1710.4106 1095.4896,-1705.6189 1094.564,-1712.5575"/>
</g>
<!-- hidebound.core.validators&#45;&gt;hidebound.exporters.s3_exporter -->
<g id="edge33" class="edge">
<title>hidebound.core.validators&#45;&gt;hidebound.exporters.s3_exporter</title>
<path fill="none" stroke="#b6ecf3" d="M744.2375,-1421.4302C846.7424,-1422.7423 999.2242,-1424.6941 1111.3634,-1426.1295"/>
<polygon fill="#b6ecf3" stroke="#b6ecf3" points="1111.3602,-1429.6296 1121.4042,-1426.258 1111.4498,-1422.6302 1111.3602,-1429.6296"/>
</g>
<!-- hidebound.core.validators&#45;&gt;hidebound.server.api -->
<g id="edge34" class="edge">
<title>hidebound.core.validators&#45;&gt;hidebound.server.api</title>
<path fill="none" stroke="#b6ecf3" d="M744.1575,-1413.096C977.5929,-1396.4292 1506.3693,-1346.2968 1636,-1228 1678.7047,-1189.0291 1628.8571,-1141.4852 1672,-1103 1758.095,-1026.1998 1840.5398,-1135.2418 1928,-1060 1984.4355,-1011.4487 2033.7669,-781.3177 2049.6523,-700.3002"/>
<polygon fill="#b6ecf3" stroke="#b6ecf3" points="2053.12,-700.8028 2051.5873,-690.3194 2046.2479,-699.4704 2053.12,-700.8028"/>
</g>
<!-- hidebound.exporters.disk_exporter&#45;&gt;hidebound.core.config -->
<g id="edge35" class="edge">
<title>hidebound.exporters.disk_exporter&#45;&gt;hidebound.core.config</title>
<path fill="none" stroke="#b6ecf3" d="M1368.733,-1523.9516C1390.7947,-1520.3719 1413.8918,-1516.6243 1435.7468,-1513.0781"/>
<polygon fill="#b6ecf3" stroke="#b6ecf3" points="1436.3824,-1516.5208 1445.6928,-1511.4643 1435.2612,-1509.6112 1436.3824,-1516.5208"/>
</g>
<!-- hidebound.exporters.disk_exporter&#45;&gt;hidebound.core.database -->
<g id="edge36" class="edge">
<title>hidebound.exporters.disk_exporter&#45;&gt;hidebound.core.database</title>
<path fill="none" stroke="#b6ecf3" d="M1294.7478,-1523.9168C1326.594,-1507.729 1373.0033,-1482.3803 1410,-1455 1520.9464,-1372.8917 1565.7227,-1360.7938 1636,-1242 1668.4929,-1187.0754 1638.3771,-1157.2401 1672,-1103 1694.5416,-1066.6361 1732.7895,-1035.761 1761.6188,-1015.8765"/>
<polygon fill="#b6ecf3" stroke="#b6ecf3" points="1763.9024,-1018.558 1770.2357,-1010.0644 1759.9881,-1012.7547 1763.9024,-1018.558"/>
</g>
<!-- hidebound.exporters.exporter_base&#45;&gt;hidebound.exporters.disk_exporter -->
<g id="edge37" class="edge">
<title>hidebound.exporters.exporter_base&#45;&gt;hidebound.exporters.disk_exporter</title>
<path fill="none" stroke="#b6ecf3" d="M1069.1058,-1563.4984C1080.1925,-1562.2333 1091.411,-1560.9531 1102.56,-1559.6808"/>
<polygon fill="#b6ecf3" stroke="#b6ecf3" points="1103.235,-1563.1266 1112.7736,-1558.5153 1102.4412,-1556.1718 1103.235,-1563.1266"/>
</g>
<!-- hidebound.exporters.exporter_base&#45;&gt;hidebound.exporters.girder_exporter -->
<g id="edge38" class="edge">
<title>hidebound.exporters.exporter_base&#45;&gt;hidebound.exporters.girder_exporter</title>
<path fill="none" stroke="#b6ecf3" d="M967.0129,-1598.001C1027.9275,-1623.7936 1139.922,-1671.2147 1205.6303,-1699.0371"/>
<polygon fill="#b6ecf3" stroke="#b6ecf3" points="1204.4042,-1702.3188 1214.9775,-1702.995 1207.1337,-1695.8728 1204.4042,-1702.3188"/>
</g>
<!-- hidebound.exporters.exporter_base&#45;&gt;hidebound.exporters.s3_exporter -->
<g id="edge39" class="edge">
<title>hidebound.exporters.exporter_base&#45;&gt;hidebound.exporters.s3_exporter</title>
<path fill="none" stroke="#b6ecf3" d="M964.0071,-1561.9667C1025.0918,-1534.0842 1142.3219,-1480.5738 1208.6416,-1450.3018"/>
<polygon fill="#b6ecf3" stroke="#b6ecf3" points="1210.4005,-1453.3463 1218.0443,-1446.0098 1207.4938,-1446.9783 1210.4005,-1453.3463"/>
</g>
<!-- hidebound.exporters.girder_exporter&#45;&gt;hidebound.core.config -->
<g id="edge40" class="edge">
<title>hidebound.exporters.girder_exporter&#45;&gt;hidebound.core.config</title>
<path fill="none" stroke="#b6ecf3" d="M1300.6193,-1702.9588C1332.5285,-1688.4913 1376.1452,-1666.299 1410,-1640 1433.9451,-1621.399 1488.6788,-1558.1318 1519.2785,-1521.9491"/>
<polygon fill="#b6ecf3" stroke="#b6ecf3" points="1522.0124,-1524.1364 1525.7835,-1514.2354 1516.6611,-1519.6237 1522.0124,-1524.1364"/>
</g>
<!-- hidebound.exporters.girder_exporter&#45;&gt;hidebound.core.database -->
<g id="edge41" class="edge">
<title>hidebound.exporters.girder_exporter&#45;&gt;hidebound.core.database</title>
<path fill="none" stroke="#b6ecf3" d="M1339.2596,-1702.9022C1428.4794,-1678.4734 1567.6965,-1625.6413 1636,-1523 1687.8966,-1445.0138 1629.4957,-1186.4775 1672,-1103 1691.1927,-1065.306 1729.2131,-1034.9343 1758.8525,-1015.5528"/>
<polygon fill="#b6ecf3" stroke="#b6ecf3" points="1760.8024,-1018.4606 1767.3587,-1010.1381 1757.0434,-1012.5556 1760.8024,-1018.4606"/>
</g>
<!-- hidebound.exporters.s3_exporter&#45;&gt;hidebound.core.config -->
<g id="edge42" class="edge">
<title>hidebound.exporters.s3_exporter&#45;&gt;hidebound.core.config</title>
<path fill="none" stroke="#b6ecf3" d="M1332.7285,-1446.0442C1370.6857,-1455.1486 1416.873,-1466.227 1456.0988,-1475.6357"/>
<polygon fill="#b6ecf3" stroke="#b6ecf3" points="1455.3717,-1479.0605 1465.9123,-1477.9895 1457.0045,-1472.2536 1455.3717,-1479.0605"/>
</g>
<!-- hidebound.exporters.s3_exporter&#45;&gt;hidebound.core.database -->
<g id="edge43" class="edge">
<title>hidebound.exporters.s3_exporter&#45;&gt;hidebound.core.database</title>
<path fill="none" stroke="#b6ecf3" d="M1288.6429,-1409.8815C1356.6491,-1369.3863 1521.5009,-1266.0898 1636,-1152 1655.1427,-1132.9257 1653.6784,-1122.8643 1672,-1103 1702.0009,-1070.473 1740.944,-1037.8433 1767.9594,-1016.4641"/>
<polygon fill="#b6ecf3" stroke="#b6ecf3" points="1770.2316,-1019.1301 1775.9375,-1010.203 1765.9099,-1013.6234 1770.2316,-1019.1301"/>
</g>
<!-- hidebound.server.api&#45;&gt;hidebound.server.extension -->
<g id="edge44" class="edge">
<title>hidebound.server.api&#45;&gt;hidebound.server.extension</title>
<path fill="none" stroke="#b6ecf3" d="M2146.3333,-689.3251C2161.3117,-692.1664 2176.9399,-695.1309 2192.2234,-698.03"/>
<polygon fill="#b6ecf3" stroke="#b6ecf3" points="2191.7297,-701.4987 2202.2068,-699.9238 2193.0343,-694.6213 2191.7297,-701.4987"/>
</g>
<!-- hidebound.server.components -->
<g id="node18" class="node">
<title>hidebound.server.components</title>
<polygon fill="#343434" stroke="#343434" points="1919.5,-334 1680.5,-334 1680.5,-298 1919.5,-298 1919.5,-334"/>
<text text-anchor="middle" x="1800" y="-312.3" font-family="Courier,monospace" font-size="14.00" fill="#b6ecf3">hidebound.server.components</text>
</g>
<!-- hidebound.server.components&#45;&gt;hidebound.server.app -->
<g id="edge45" class="edge">
<title>hidebound.server.components&#45;&gt;hidebound.server.app</title>
<path fill="none" stroke="#b6ecf3" d="M1855.5369,-297.9575C1887.007,-288.5313 1927.3091,-277.7821 1964,-272 2232.2826,-229.7218 2553.4499,-225.9685 2713.6636,-227.2274"/>
<polygon fill="#b6ecf3" stroke="#b6ecf3" points="2713.9514,-230.73 2723.9816,-227.3172 2714.0124,-223.7302 2713.9514,-230.73"/>
</g>
<!-- hidebound.server.extensions -->
<g id="node20" class="node">
<title>hidebound.server.extensions</title>
<polygon fill="#343434" stroke="#343434" points="2688,-667 2449,-667 2449,-631 2688,-631 2688,-667"/>
<text text-anchor="middle" x="2568.5" y="-645.3" font-family="Courier,monospace" font-size="14.00" fill="#b6ecf3">hidebound.server.extensions</text>
</g>
<!-- hidebound.server.extension&#45;&gt;hidebound.server.extensions -->
<g id="edge46" class="edge">
<title>hidebound.server.extension&#45;&gt;hidebound.server.extensions</title>
<path fill="none" stroke="#b6ecf3" d="M2368.3481,-699.9612C2404.9142,-690.651 2449.6851,-679.2518 2487.6045,-669.597"/>
<polygon fill="#b6ecf3" stroke="#b6ecf3" points="2488.7681,-672.9125 2497.5953,-667.0532 2487.0408,-666.1289 2488.7681,-672.9125"/>
</g>
<!-- hidebound.server.extensions&#45;&gt;hidebound.server.api -->
<g id="edge47" class="edge">
<title>hidebound.server.extensions&#45;&gt;hidebound.server.api</title>
<path fill="none" stroke="#b6ecf3" d="M2448.6875,-654.3665C2359.9227,-658.3423 2240.2883,-663.7008 2156.2761,-667.4638"/>
<polygon fill="#b6ecf3" stroke="#b6ecf3" points="2156.0451,-663.9705 2146.2118,-667.9146 2156.3584,-670.9635 2156.0451,-663.9705"/>
</g>
<!-- hidebound.server.extensions&#45;&gt;hidebound.server.app -->
<g id="edge48" class="edge">
<title>hidebound.server.extensions&#45;&gt;hidebound.server.app</title>
<path fill="none" stroke="#b6ecf3" d="M2579.0918,-630.9531C2617.8776,-564.8679 2752.3151,-335.806 2798.9327,-256.3764"/>
<polygon fill="#b6ecf3" stroke="#b6ecf3" points="2802.1269,-257.8486 2804.1701,-247.4526 2796.0898,-254.3054 2802.1269,-257.8486"/>
</g>
<!-- hidebound.server.server_tools&#45;&gt;hidebound.server.api -->
<g id="edge49" class="edge">
<title>hidebound.server.server_tools&#45;&gt;hidebound.server.api</title>
<path fill="none" stroke="#b6ecf3" d="M1892.6227,-556.0552C1904.8205,-559.8958 1916.9209,-564.4996 1928,-570 1967.5408,-589.6308 2006.0824,-623.2481 2030.1405,-646.4948"/>
<polygon fill="#b6ecf3" stroke="#b6ecf3" points="2027.8377,-649.1389 2037.4256,-653.6471 2032.7418,-644.1438 2027.8377,-649.1389"/>
</g>
<!-- hidebound.server.server_tools&#45;&gt;hidebound.server.app -->
<g id="edge50" class="edge">
<title>hidebound.server.server_tools&#45;&gt;hidebound.server.app</title>
<path fill="none" stroke="#b6ecf3" d="M1898.1561,-519.9939C2064.6486,-487.6399 2411.2883,-412.3927 2688,-300 2719.8908,-287.0468 2753.8144,-267.7668 2778.5711,-252.5654"/>
<polygon fill="#b6ecf3" stroke="#b6ecf3" points="2780.6098,-255.4193 2787.2564,-247.1687 2776.9153,-249.4736 2780.6098,-255.4193"/>
</g>
<!-- dash -->
<g id="node22" class="node">
<title>dash</title>
<polygon fill="#343434" stroke="#343434" points="1568,-127 1514,-127 1514,-91 1568,-91 1568,-127"/>
<text text-anchor="middle" x="1541" y="-105.3" font-family="Courier,monospace" font-size="14.00" fill="#de958e">dash</text>
</g>
<!-- dash&#45;&gt;hidebound.server.app -->
<g id="edge51" class="edge">
<title>dash&#45;&gt;hidebound.server.app</title>
<path fill="none" stroke="#de958e" d="M1568.2306,-104.9272C1644.7376,-93.85 1868.231,-64 2055,-64 2055,-64 2055,-64 2297.5,-64 2384.3804,-64 2609.835,-45.0731 2688,-83 2740.7684,-108.604 2780.6298,-167.1888 2800.6467,-201.8619"/>
<polygon fill="#de958e" stroke="#de958e" points="2797.8096,-203.9576 2805.7604,-210.9601 2803.9118,-200.5278 2797.8096,-203.9576"/>
</g>
<!-- dash&#45;&gt;hidebound.server.components -->
<g id="edge52" class="edge">
<title>dash&#45;&gt;hidebound.server.components</title>
<path fill="none" stroke="#de958e" d="M1567.634,-127.1934C1586.9167,-140.5742 1613.4451,-159.4169 1636,-177 1685.1159,-215.2894 1739.878,-262.7174 1772.0597,-291.1042"/>
<polygon fill="#de958e" stroke="#de958e" points="1769.9281,-293.8914 1779.7378,-297.8939 1774.5651,-288.6476 1769.9281,-293.8914"/>
</g>
<!-- dash_cytoscape -->
<g id="node23" class="node">
<title>dash_cytoscape</title>
<polygon fill="#343434" stroke="#343434" points="1607,-276 1475,-276 1475,-240 1607,-240 1607,-276"/>
<text text-anchor="middle" x="1541" y="-254.3" font-family="Courier,monospace" font-size="14.00" fill="#de958e">dash_cytoscape</text>
</g>
<!-- dash_cytoscape&#45;&gt;hidebound.server.components -->
<g id="edge53" class="edge">
<title>dash_cytoscape&#45;&gt;hidebound.server.components</title>
<path fill="none" stroke="#de958e" d="M1607.0268,-272.7859C1638.1279,-279.7506 1675.7181,-288.1685 1709.4284,-295.7176"/>
<polygon fill="#de958e" stroke="#de958e" points="1708.7647,-299.1555 1719.2878,-297.9255 1710.2944,-292.3247 1708.7647,-299.1555"/>
</g>
<!-- hidebound.server -->
<g id="node24" class="node">
<title>hidebound.server</title>
<polygon fill="#343434" stroke="#343434" points="1615.5,-222 1466.5,-222 1466.5,-186 1615.5,-186 1615.5,-222"/>
<text text-anchor="middle" x="1541" y="-200.3" font-family="Courier,monospace" font-size="14.00" fill="#a0d17b">hidebound.server</text>
</g>
<!-- hidebound.server&#45;&gt;hidebound.server.api -->
<g id="edge54" class="edge">
<title>hidebound.server&#45;&gt;hidebound.server.api</title>
<path fill="none" stroke="#a0d17b" d="M1608.2629,-222.0487C1617.6336,-224.8732 1627.0964,-227.892 1636,-231 1652.3649,-236.7126 1655.3446,-241.1998 1672,-246 1782.8593,-277.9505 1840.3949,-213.9269 1928,-289 1942.1686,-301.1418 2020.7417,-558.4311 2046.6852,-644.3464"/>
<polygon fill="#a0d17b" stroke="#a0d17b" points="2043.342,-645.3828 2049.5803,-653.9463 2050.0439,-643.3617 2043.342,-645.3828"/>
</g>
<!-- hidebound.server&#45;&gt;hidebound.server.app -->
<g id="edge55" class="edge">
<title>hidebound.server&#45;&gt;hidebound.server.app</title>
<path fill="none" stroke="#a0d17b" d="M1615.8405,-187.8777C1634.1238,-184.6078 1653.6937,-181.6631 1672,-180 1785.3111,-169.706 1814.2655,-176.8609 1928,-180 2213.0266,-187.8668 2548.9846,-209.927 2713.6547,-221.5772"/>
<polygon fill="#a0d17b" stroke="#a0d17b" points="2713.5479,-225.0783 2723.7706,-222.295 2714.0435,-218.0958 2713.5479,-225.0783"/>
</g>
<!-- hidebound.server&#45;&gt;hidebound.server.components -->
<g id="edge56" class="edge">
<title>hidebound.server&#45;&gt;hidebound.server.components</title>
<path fill="none" stroke="#a0d17b" d="M1615.9629,-219.7932C1623.0642,-222.8861 1629.8841,-226.5826 1636,-231 1659.084,-247.6731 1648.6527,-267.6975 1672,-284 1677.2381,-287.6575 1682.8541,-290.8979 1688.7036,-293.7687"/>
<polygon fill="#a0d17b" stroke="#a0d17b" points="1687.5115,-297.0703 1698.067,-297.9824 1690.3842,-290.6869 1687.5115,-297.0703"/>
</g>
<!-- hidebound.server&#45;&gt;hidebound.server.extension -->
<g id="edge57" class="edge">
<title>hidebound.server&#45;&gt;hidebound.server.extension</title>
<path fill="none" stroke="#a0d17b" d="M1615.6088,-206.8158C1711.9324,-211.354 1873.6398,-222.2968 1928,-246 2045.5436,-297.2538 2083.3893,-323.0922 2146,-435 2193.9478,-520.6999 2125.6689,-572.5621 2182,-653 2194.9911,-671.5506 2215.0661,-685.4451 2234.8574,-695.5216"/>
<polygon fill="#a0d17b" stroke="#a0d17b" points="2233.3767,-698.6933 2243.9043,-699.8857 2236.4181,-692.3885 2233.3767,-698.6933"/>
</g>
<!-- hidebound.server&#45;&gt;hidebound.server.extensions -->
<g id="edge58" class="edge">
<title>hidebound.server&#45;&gt;hidebound.server.extensions</title>
<path fill="none" stroke="#a0d17b" d="M1615.5036,-193.1947C1735.0815,-179.5379 1973.8576,-167.7078 2146,-259 2329.0481,-356.0758 2493.0126,-552.1142 2548.5066,-622.8234"/>
<polygon fill="#a0d17b" stroke="#a0d17b" points="2545.8229,-625.0736 2554.7304,-630.8101 2551.3444,-620.7709 2545.8229,-625.0736"/>
</g>
<!-- hidebound.server&#45;&gt;hidebound.server.server_tools -->
<g id="edge59" class="edge">
<title>hidebound.server&#45;&gt;hidebound.server.server_tools</title>
<path fill="none" stroke="#a0d17b" d="M1615.5526,-215.8006C1623.2702,-219.6042 1630.342,-224.5591 1636,-231 1707.7649,-312.6946 1608.439,-384.7719 1672,-473 1685.7691,-492.1127 1706.8182,-505.9726 1727.8951,-515.8531"/>
<polygon fill="#a0d17b" stroke="#a0d17b" points="1726.6692,-519.1379 1737.2304,-519.9822 1729.5008,-512.7362 1726.6692,-519.1379"/>
</g>
<!-- dash.dependencies -->
<g id="node25" class="node">
<title>dash.dependencies</title>
<polygon fill="#343434" stroke="#343434" points="2647,-182 2490,-182 2490,-146 2647,-146 2647,-182"/>
<text text-anchor="middle" x="2568.5" y="-160.3" font-family="Courier,monospace" font-size="14.00" fill="#de958e">dash.dependencies</text>
</g>
<!-- dash.dependencies&#45;&gt;hidebound.server.app -->
<g id="edge60" class="edge">
<title>dash.dependencies&#45;&gt;hidebound.server.app</title>
<path fill="none" stroke="#de958e" d="M2636.8366,-182.0198C2667.8263,-190.1915 2704.6381,-199.8985 2736.733,-208.3616"/>
<polygon fill="#de958e" stroke="#de958e" points="2735.9685,-211.7796 2746.5304,-210.9451 2737.7534,-205.011 2735.9685,-211.7796"/>
</g>
<!-- dash.exceptions -->
<g id="node26" class="node">
<title>dash.exceptions</title>
<polygon fill="#343434" stroke="#343434" points="2638.5,-128 2498.5,-128 2498.5,-92 2638.5,-92 2638.5,-128"/>
<text text-anchor="middle" x="2568.5" y="-106.3" font-family="Courier,monospace" font-size="14.00" fill="#de958e">dash.exceptions</text>
</g>
<!-- dash.exceptions&#45;&gt;hidebound.server.app -->
<g id="edge61" class="edge">
<title>dash.exceptions&#45;&gt;hidebound.server.app</title>
<path fill="none" stroke="#de958e" d="M2638.6119,-120.8728C2655.2293,-124.7916 2672.592,-130.0347 2688,-137 2725.6686,-154.0285 2763.3299,-183.2211 2787.7415,-204.1583"/>
<polygon fill="#de958e" stroke="#de958e" points="2785.6545,-206.982 2795.4932,-210.9127 2790.2531,-201.7044 2785.6545,-206.982"/>
</g>
<!-- flask -->
<g id="node27" class="node">
<title>flask</title>
<polygon fill="#343434" stroke="#343434" points="1570,-368 1512,-368 1512,-332 1570,-332 1570,-368"/>
<text text-anchor="middle" x="1541" y="-346.3" font-family="Courier,monospace" font-size="14.00" fill="#de958e">flask</text>
</g>
<!-- flask&#45;&gt;hidebound.server.api -->
<g id="edge62" class="edge">
<title>flask&#45;&gt;hidebound.server.api</title>
<path fill="none" stroke="#de958e" d="M1570.0854,-351.4795C1590.8226,-353.9996 1618.0935,-360.5025 1636,-377 1669.513,-407.876 1636.5588,-444.358 1672,-473 1761.462,-545.2991 1828.4744,-453.3348 1928,-511 1982.5746,-542.6206 2022.4378,-607.5853 2041.8135,-644.5971"/>
<polygon fill="#de958e" stroke="#de958e" points="2038.8499,-646.4897 2046.513,-653.806 2045.085,-643.3078 2038.8499,-646.4897"/>
</g>
<!-- flask&#45;&gt;hidebound.server.app -->
<g id="edge63" class="edge">
<title>flask&#45;&gt;hidebound.server.app</title>
<path fill="none" stroke="#de958e" d="M1570.1781,-350.5631C1634.7591,-351.5704 1794.6307,-352.7471 1928,-343 2214.0897,-322.0915 2549.2364,-271.9846 2713.6182,-245.715"/>
<polygon fill="#de958e" stroke="#de958e" points="2714.3965,-249.135 2723.7167,-244.0968 2713.2888,-242.2232 2714.3965,-249.135"/>
</g>
<!-- flask&#45;&gt;hidebound.server.components -->
<g id="edge64" class="edge">
<title>flask&#45;&gt;hidebound.server.components</title>
<path fill="none" stroke="#de958e" d="M1570.2071,-346.1659C1595.1029,-342.8977 1632.7407,-337.9568 1670.3909,-333.0143"/>
<polygon fill="#de958e" stroke="#de958e" points="1671.0162,-336.4624 1680.4755,-331.6905 1670.105,-329.5219 1671.0162,-336.4624"/>
</g>
<!-- flask&#45;&gt;hidebound.server.extension -->
<g id="edge65" class="edge">
<title>flask&#45;&gt;hidebound.server.extension</title>
<path fill="none" stroke="#de958e" d="M1570.0898,-356.0294C1596.6054,-361.4642 1636.8769,-369.5662 1672,-376 1785.4834,-396.7879 1824.3878,-368.2543 1928,-419 2065.8474,-486.5129 2057.8399,-562.7549 2182,-653 2203.7415,-668.8027 2229.6898,-683.7174 2251.4791,-695.2643"/>
<polygon fill="#de958e" stroke="#de958e" points="2250.0546,-698.469 2260.5384,-699.9996 2253.2973,-692.2653 2250.0546,-698.469"/>
</g>
<!-- flask&#45;&gt;hidebound.server.server_tools -->
<g id="edge66" class="edge">
<title>flask&#45;&gt;hidebound.server.server_tools</title>
<path fill="none" stroke="#de958e" d="M1570.0786,-350.9795C1591.088,-353.233 1618.7037,-359.6211 1636,-377 1677.9895,-419.19 1629.3423,-464.4857 1672,-506 1675.2741,-509.1864 1678.8151,-512.0705 1682.5614,-514.6801"/>
<polygon fill="#de958e" stroke="#de958e" points="1680.7258,-517.6602 1691.0669,-519.9653 1684.4204,-511.7145 1680.7258,-517.6602"/>
</g>
<!-- rolling_pin.blob_etl -->
<g id="node28" class="node">
<title>rolling_pin.blob_etl</title>
<polygon fill="#343434" stroke="#343434" points="1632,-422 1450,-422 1450,-386 1632,-386 1632,-422"/>
<text text-anchor="middle" x="1541" y="-400.3" font-family="Courier,monospace" font-size="14.00" fill="#de958e">rolling_pin.blob_etl</text>
</g>
<!-- rolling_pin.blob_etl&#45;&gt;hidebound.server.components -->
<g id="edge67" class="edge">
<title>rolling_pin.blob_etl&#45;&gt;hidebound.server.components</title>
<path fill="none" stroke="#de958e" d="M1607.1311,-385.9339C1616.8505,-383.0678 1626.7121,-380.0419 1636,-377 1672.6277,-365.004 1713.2321,-349.9155 1744.8747,-337.7463"/>
<polygon fill="#de958e" stroke="#de958e" points="1746.3255,-340.938 1754.3928,-334.07 1743.8034,-334.4081 1746.3255,-340.938"/>
</g>
<!-- rolling_pin.blob_etl&#45;&gt;hidebound.server.server_tools -->
<g id="edge68" class="edge">
<title>rolling_pin.blob_etl&#45;&gt;hidebound.server.server_tools</title>
<path fill="none" stroke="#de958e" d="M1614.2097,-422.0241C1622.0641,-425.8346 1629.5348,-430.4391 1636,-436 1662.5229,-458.8131 1644.5869,-484.2648 1672,-506 1676.375,-509.4689 1681.0774,-512.5673 1686.005,-515.3343"/>
<polygon fill="#de958e" stroke="#de958e" points="1684.5969,-518.5449 1695.0961,-519.9655 1687.7744,-512.3076 1684.5969,-518.5449"/>
</g>
<!-- requests -->
<g id="node29" class="node">
<title>requests</title>
<polygon fill="#343434" stroke="#343434" points="1582.5,-644 1499.5,-644 1499.5,-608 1582.5,-608 1582.5,-644"/>
<text text-anchor="middle" x="1541" y="-622.3" font-family="Courier,monospace" font-size="14.00" fill="#de958e">requests</text>
</g>
<!-- requests&#45;&gt;hidebound.core.database -->
<g id="edge69" class="edge">
<title>requests&#45;&gt;hidebound.core.database</title>
<path fill="none" stroke="#de958e" d="M1575.6376,-644.2657C1595.1001,-655.771 1618.8501,-672.021 1636,-691 1714.1262,-777.4588 1768.6861,-907.7575 1790.0224,-964.2468"/>
<polygon fill="#de958e" stroke="#de958e" points="1786.8499,-965.7571 1793.618,-973.9084 1793.4104,-963.3156 1786.8499,-965.7571"/>
</g>
<!-- requests&#45;&gt;hidebound.server.server_tools -->
<g id="edge70" class="edge">
<title>requests&#45;&gt;hidebound.server.server_tools</title>
<path fill="none" stroke="#de958e" d="M1582.6128,-611.8613C1624.3516,-597.6797 1689.1536,-575.6621 1737.1564,-559.3523"/>
<polygon fill="#de958e" stroke="#de958e" points="1738.483,-562.5981 1746.8255,-556.067 1736.2311,-555.9702 1738.483,-562.5981"/>
</g>
<!-- flasgger -->
<g id="node30" class="node">
<title>flasgger</title>
<polygon fill="#343434" stroke="#343434" points="1841.5,-1148 1758.5,-1148 1758.5,-1112 1841.5,-1112 1841.5,-1148"/>
<text text-anchor="middle" x="1800" y="-1126.3" font-family="Courier,monospace" font-size="14.00" fill="#de958e">flasgger</text>
</g>
<!-- flasgger&#45;&gt;hidebound.server.api -->
<g id="edge71" class="edge">
<title>flasgger&#45;&gt;hidebound.server.api</title>
<path fill="none" stroke="#de958e" d="M1841.6513,-1129.8212C1869.4863,-1127.4932 1905.0707,-1119.9254 1928,-1098 1987.1071,-1041.4808 2035.3903,-786.5737 2050.2608,-700.4956"/>
<polygon fill="#de958e" stroke="#de958e" points="2053.7504,-700.8526 2051.9837,-690.4061 2046.8503,-699.6743 2053.7504,-700.8526"/>
</g>
<!-- flasgger&#45;&gt;hidebound.server.extensions -->
<g id="edge72" class="edge">
<title>flasgger&#45;&gt;hidebound.server.extensions</title>
<path fill="none" stroke="#de958e" d="M1841.6404,-1123.5866C1867.322,-1118.6703 1900.4937,-1110.5549 1928,-1098 2189.497,-978.6435 2456.4504,-749.6975 2541.0595,-673.9891"/>
<polygon fill="#de958e" stroke="#de958e" points="2543.5724,-676.4366 2548.6719,-667.1497 2538.8941,-671.2295 2543.5724,-676.4366"/>
</g>
<!-- jinja2 -->
<g id="node31" class="node">
<title>jinja2</title>
<polygon fill="#343434" stroke="#343434" points="1574,-514 1508,-514 1508,-478 1574,-478 1574,-514"/>
<text text-anchor="middle" x="1541" y="-492.3" font-family="Courier,monospace" font-size="14.00" fill="#de958e">jinja2</text>
</g>
<!-- jinja2&#45;&gt;hidebound.server.server_tools -->
<g id="edge73" class="edge">
<title>jinja2&#45;&gt;hidebound.server.server_tools</title>
<path fill="none" stroke="#de958e" d="M1574.0656,-501.362C1600.7929,-505.6961 1640.1636,-512.0806 1678.582,-518.3106"/>
<polygon fill="#de958e" stroke="#de958e" points="1678.4176,-521.8296 1688.8489,-519.9755 1679.5381,-514.9198 1678.4176,-521.8296"/>
</g>
<!-- flask_monitoringdashboard -->
<g id="node32" class="node">
<title>flask_monitoringdashboard</title>
<polygon fill="#343434" stroke="#343434" points="2680,-36 2457,-36 2457,0 2680,0 2680,-36"/>
<text text-anchor="middle" x="2568.5" y="-14.3" font-family="Courier,monospace" font-size="14.00" fill="#de958e">flask_monitoringdashboard</text>
</g>
<!-- flask_monitoringdashboard&#45;&gt;hidebound.server.app -->
<g id="edge74" class="edge">
<title>flask_monitoringdashboard&#45;&gt;hidebound.server.app</title>
<path fill="none" stroke="#de958e" d="M2661.744,-36.0092C2671.0314,-39.8132 2679.9772,-44.4204 2688,-50 2744.3785,-89.21 2784.3199,-161.9293 2803.0252,-201.5425"/>
<polygon fill="#de958e" stroke="#de958e" points="2799.9553,-203.2436 2807.3203,-210.8598 2806.3124,-200.313 2799.9553,-203.2436"/>
</g>
<!-- flask_healthz -->
<g id="node33" class="node">
<title>flask_healthz</title>
<polygon fill="#343434" stroke="#343434" points="2359.5,-644 2235.5,-644 2235.5,-608 2359.5,-608 2359.5,-644"/>
<text text-anchor="middle" x="2297.5" y="-622.3" font-family="Courier,monospace" font-size="14.00" fill="#de958e">flask_healthz</text>
</g>
<!-- flask_healthz&#45;&gt;hidebound.server.extensions -->
<g id="edge75" class="edge">
<title>flask_healthz&#45;&gt;hidebound.server.extensions</title>
<path fill="none" stroke="#de958e" d="M2359.6729,-631.2767C2383.263,-633.2788 2411.0964,-635.641 2438.6201,-637.977"/>
<polygon fill="#de958e" stroke="#de958e" points="2438.4777,-641.4774 2448.7379,-638.8357 2439.0698,-634.5025 2438.4777,-641.4774"/>
</g>
<!-- yaml -->
<g id="node34" class="node">
<title>yaml</title>
<polygon fill="#343434" stroke="#343434" points="1568,-736 1514,-736 1514,-700 1568,-700 1568,-736"/>
<text text-anchor="middle" x="1541" y="-714.3" font-family="Courier,monospace" font-size="14.00" fill="#de958e">yaml</text>
</g>
<!-- yaml&#45;&gt;hidebound.core.database -->
<g id="edge76" class="edge">
<title>yaml&#45;&gt;hidebound.core.database</title>
<path fill="none" stroke="#de958e" d="M1568.1845,-722.306C1588.4852,-726.6032 1616.05,-734.8322 1636,-750 1713.2683,-808.7463 1766.6176,-914.781 1788.6617,-964.6614"/>
<polygon fill="#de958e" stroke="#de958e" points="1785.4605,-966.0768 1792.651,-973.8581 1791.8824,-963.2912 1785.4605,-966.0768"/>
</g>
<!-- yaml&#45;&gt;hidebound.server.extension -->
<g id="edge77" class="edge">
<title>yaml&#45;&gt;hidebound.server.extension</title>
<path fill="none" stroke="#de958e" d="M1568.3712,-718C1664.3678,-718 1989.7595,-718 2171.7163,-718"/>
<polygon fill="#de958e" stroke="#de958e" points="2171.8799,-721.5001 2181.8799,-718 2171.8798,-714.5001 2171.8799,-721.5001"/>
</g>
<!-- yaml&#45;&gt;hidebound.server.server_tools -->
<g id="edge78" class="edge">
<title>yaml&#45;&gt;hidebound.server.server_tools</title>
<path fill="none" stroke="#de958e" d="M1567.6732,-699.8699C1586.7452,-686.8772 1613.0009,-668.931 1636,-653 1681.1354,-621.7356 1732.9798,-585.2912 1766.0884,-561.9493"/>
<polygon fill="#de958e" stroke="#de958e" points="1768.3426,-564.6424 1774.4973,-556.0186 1764.308,-558.922 1768.3426,-564.6424"/>
</g>
<!-- dask.distributed -->
<g id="node35" class="node">
<title>dask.distributed</title>
<polygon fill="#343434" stroke="#343434" points="1615.5,-1110 1466.5,-1110 1466.5,-1074 1615.5,-1074 1615.5,-1110"/>
<text text-anchor="middle" x="1541" y="-1088.3" font-family="Courier,monospace" font-size="14.00" fill="#de958e">dask.distributed</text>
</g>
<!-- dask.distributed&#45;&gt;hidebound.core.database -->
<g id="edge79" class="edge">
<title>dask.distributed&#45;&gt;hidebound.core.database</title>
<path fill="none" stroke="#de958e" d="M1615.9879,-1074.3042C1622.9318,-1071.5983 1629.713,-1068.512 1636,-1065 1654.9491,-1054.4149 1653.19,-1042.8303 1672,-1032 1684.7049,-1024.6848 1698.904,-1018.5482 1713.0936,-1013.453"/>
<polygon fill="#de958e" stroke="#de958e" points="1714.5737,-1016.6455 1722.8971,-1010.0902 1712.3024,-1010.0242 1714.5737,-1016.6455"/>
</g>
<!-- werkzeug.exceptions -->
<g id="node36" class="node">
<title>werkzeug.exceptions</title>
<polygon fill="#343434" stroke="#343434" points="1886.5,-464 1713.5,-464 1713.5,-428 1886.5,-428 1886.5,-464"/>
<text text-anchor="middle" x="1800" y="-442.3" font-family="Courier,monospace" font-size="14.00" fill="#de958e">werkzeug.exceptions</text>
</g>
<!-- werkzeug.exceptions&#45;&gt;hidebound.server.api -->
<g id="edge80" class="edge">
<title>werkzeug.exceptions&#45;&gt;hidebound.server.api</title>
<path fill="none" stroke="#de958e" d="M1886.5023,-458.2391C1901.203,-462.8693 1915.6788,-469.2396 1928,-478 1988.1391,-520.7591 2027.2684,-601.749 2044.6418,-644.2977"/>
<polygon fill="#de958e" stroke="#de958e" points="2041.4531,-645.7512 2048.4003,-653.7503 2047.9577,-643.1647 2041.4531,-645.7512"/>
</g>
<!-- boto3 -->
<g id="node37" class="node">
<title>boto3</title>
<polygon fill="#343434" stroke="#343434" points="953.5,-1224 895.5,-1224 895.5,-1188 953.5,-1188 953.5,-1224"/>
<text text-anchor="middle" x="924.5" y="-1202.3" font-family="Courier,monospace" font-size="14.00" fill="#de958e">boto3</text>
</g>
<!-- boto3&#45;&gt;hidebound.exporters.s3_exporter -->
<g id="edge81" class="edge">
<title>boto3&#45;&gt;hidebound.exporters.s3_exporter</title>
<path fill="none" stroke="#de958e" d="M953.6124,-1207.6236C984.0644,-1210.3864 1032.431,-1217.8486 1069,-1238 1144.227,-1279.4538 1209.0975,-1360.1069 1239.345,-1401.7357"/>
<polygon fill="#de958e" stroke="#de958e" points="1236.5958,-1403.9081 1245.2652,-1409.9984 1242.286,-1399.8311 1236.5958,-1403.9081"/>
</g>
<!-- pandasql -->
<g id="node38" class="node">
<title>pandasql</title>
<polygon fill="#343434" stroke="#343434" points="1582.5,-1056 1499.5,-1056 1499.5,-1020 1582.5,-1020 1582.5,-1056"/>
<text text-anchor="middle" x="1541" y="-1034.3" font-family="Courier,monospace" font-size="14.00" fill="#de958e">pandasql</text>
</g>
<!-- pandasql&#45;&gt;hidebound.core.database -->
<g id="edge82" class="edge">
<title>pandasql&#45;&gt;hidebound.core.database</title>
<path fill="none" stroke="#de958e" d="M1582.6128,-1030.6093C1611.2942,-1025.5153 1650.8657,-1018.4872 1688.3933,-1011.822"/>
<polygon fill="#de958e" stroke="#de958e" points="1689.1618,-1015.2404 1698.3957,-1010.0456 1687.9377,-1008.3483 1689.1618,-1015.2404"/>
</g>
<!-- json_logging -->
<g id="node39" class="node">
<title>json_logging</title>
<polygon fill="#343434" stroke="#343434" points="448,-480 332,-480 332,-444 448,-444 448,-480"/>
<text text-anchor="middle" x="390" y="-458.3" font-family="Courier,monospace" font-size="14.00" fill="#de958e">json_logging</text>
</g>
<!-- json_logging&#45;&gt;hidebound.core.logging -->
<g id="edge83" class="edge">
<title>json_logging&#45;&gt;hidebound.core.logging</title>
<path fill="none" stroke="#de958e" d="M448.0848,-462C470.5981,-462 497.1424,-462 522.9707,-462"/>
<polygon fill="#de958e" stroke="#de958e" points="523.2073,-465.5001 533.2073,-462 523.2073,-458.5001 523.2073,-465.5001"/>
</g>
<!-- lunchbox.tools -->
<g id="node40" class="node">
<title>lunchbox.tools</title>
<polygon fill="#343434" stroke="#343434" points="990.5,-606 858.5,-606 858.5,-570 990.5,-570 990.5,-606"/>
<text text-anchor="middle" x="924.5" y="-584.3" font-family="Courier,monospace" font-size="14.00" fill="#de958e">lunchbox.tools</text>
</g>
<!-- lunchbox.tools&#45;&gt;hidebound.core.database_tools -->
<g id="edge84" class="edge">
<title>lunchbox.tools&#45;&gt;hidebound.core.database_tools</title>
<path fill="none" stroke="#de958e" d="M981.7557,-606.0023C1009.9442,-616.706 1043.3009,-632.283 1069,-653 1151.3436,-719.3801 1216.2576,-829.7429 1243.5272,-880.6889"/>
<polygon fill="#de958e" stroke="#de958e" points="1240.5593,-882.564 1248.3252,-889.7711 1246.7487,-879.2942 1240.5593,-882.564"/>
</g>
<!-- lunchbox.tools&#45;&gt;hidebound.server.server_tools -->
<g id="edge85" class="edge">
<title>lunchbox.tools&#45;&gt;hidebound.server.server_tools</title>
<path fill="none" stroke="#de958e" d="M990.6637,-584.2214C1132.9218,-576.097 1470.4611,-556.82 1661.666,-545.9003"/>
<polygon fill="#de958e" stroke="#de958e" points="1662.0028,-549.3868 1671.787,-545.3223 1661.6036,-542.3982 1662.0028,-549.3868"/>
</g>
<!-- girder_client -->
<g id="node41" class="node">
<title>girder_client</title>
<polygon fill="#343434" stroke="#343434" points="986.5,-1842 862.5,-1842 862.5,-1806 986.5,-1806 986.5,-1842"/>
<text text-anchor="middle" x="924.5" y="-1820.3" font-family="Courier,monospace" font-size="14.00" fill="#de958e">girder_client</text>
</g>
<!-- girder_client&#45;&gt;hidebound.exporters.girder_exporter -->
<g id="edge86" class="edge">
<title>girder_client&#45;&gt;hidebound.exporters.girder_exporter</title>
<path fill="none" stroke="#de958e" d="M986.5196,-1812.287C1012.2507,-1806.9063 1042.2781,-1799.9474 1069,-1792 1115.7696,-1778.0902 1167.5545,-1758.2511 1204.9936,-1743.0784"/>
<polygon fill="#de958e" stroke="#de958e" points="1206.7355,-1746.1479 1214.6729,-1739.1302 1204.0917,-1739.6664 1206.7355,-1746.1479"/>
</g>
<!-- numpy -->
<g id="node42" class="node">
<title>numpy</title>
<polygon fill="#343434" stroke="#343434" points="953.5,-698 895.5,-698 895.5,-662 953.5,-662 953.5,-698"/>
<text text-anchor="middle" x="924.5" y="-676.3" font-family="Courier,monospace" font-size="14.00" fill="#de958e">numpy</text>
</g>
<!-- numpy&#45;&gt;hidebound.core.database -->
<g id="edge87" class="edge">
<title>numpy&#45;&gt;hidebound.core.database</title>
<path fill="none" stroke="#de958e" d="M953.5965,-685.1808C983.0006,-690.7103 1029.5945,-700.2804 1069,-712 1240.6179,-763.041 1275.1541,-800.4317 1446,-854 1529.108,-880.0583 1554.9449,-870.1245 1636,-902 1681.9993,-920.0896 1731.2678,-948.4792 1763.6609,-968.5288"/>
<polygon fill="#de958e" stroke="#de958e" points="1761.9979,-971.6167 1772.3333,-973.9472 1765.707,-965.6801 1761.9979,-971.6167"/>
</g>
<!-- numpy&#45;&gt;hidebound.core.database_tools -->
<g id="edge88" class="edge">
<title>numpy&#45;&gt;hidebound.core.database_tools</title>
<path fill="none" stroke="#de958e" d="M953.776,-687.3648C985.9692,-696.8498 1037.3232,-716.2689 1069,-750 1097.9277,-780.8037 1075.7537,-807.4986 1105,-838 1125.9212,-859.8191 1154.9374,-875.4508 1182.0489,-886.3263"/>
<polygon fill="#de958e" stroke="#de958e" points="1180.9529,-889.6547 1191.5428,-889.9771 1183.4653,-883.1211 1180.9529,-889.6547"/>
</g>
<!-- numpy&#45;&gt;hidebound.server.api -->
<g id="edge89" class="edge">
<title>numpy&#45;&gt;hidebound.server.api</title>
<path fill="none" stroke="#de958e" d="M953.5812,-679.7942C1094.3797,-678.7978 1708.4618,-674.4523 1953.4993,-672.7183"/>
<polygon fill="#de958e" stroke="#de958e" points="1953.8523,-676.216 1963.8272,-672.6452 1953.8027,-669.2161 1953.8523,-676.216"/>
</g>
<!-- botocore.exceptions -->
<g id="node43" class="node">
<title>botocore.exceptions</title>
<polygon fill="#343434" stroke="#343434" points="1011,-1170 838,-1170 838,-1134 1011,-1134 1011,-1170"/>
<text text-anchor="middle" x="924.5" y="-1148.3" font-family="Courier,monospace" font-size="14.00" fill="#de958e">botocore.exceptions</text>
</g>
<!-- botocore.exceptions&#45;&gt;hidebound.exporters.s3_exporter -->
<g id="edge90" class="edge">
<title>botocore.exceptions&#45;&gt;hidebound.exporters.s3_exporter</title>
<path fill="none" stroke="#de958e" d="M1011.2397,-1157.5899C1031.2688,-1161.6832 1051.743,-1168.33 1069,-1179 1114.9631,-1207.419 1203.6358,-1342.5507 1240.6383,-1400.9796"/>
<polygon fill="#de958e" stroke="#de958e" points="1237.8242,-1403.0788 1246.1189,-1409.6704 1243.7452,-1399.3449 1237.8242,-1403.0788"/>
</g>
<!-- hidebound.exporters -->
<g id="node44" class="node">
<title>hidebound.exporters</title>
<polygon fill="#343434" stroke="#343434" points="719,-2094 546,-2094 546,-2058 719,-2058 719,-2094"/>
<text text-anchor="middle" x="632.5" y="-2072.3" font-family="Courier,monospace" font-size="14.00" fill="#a0d17b">hidebound.exporters</text>
</g>
<!-- hidebound.exporters&#45;&gt;hidebound.exporters.disk_exporter -->
<g id="edge91" class="edge">
<title>hidebound.exporters&#45;&gt;hidebound.exporters.disk_exporter</title>
<path fill="none" stroke="#a0d17b" d="M719.3048,-2092.4286C831.8925,-2111.5035 1019.7311,-2134.9931 1069,-2090 1134.2491,-2030.4135 1067.4547,-1773.9897 1105,-1694 1130.806,-1639.0206 1185.2829,-1592.6025 1221.643,-1566.0244"/>
<polygon fill="#a0d17b" stroke="#a0d17b" points="1223.928,-1568.6927 1230.0144,-1560.0205 1219.8484,-1563.0044 1223.928,-1568.6927"/>
</g>
<!-- hidebound.exporters&#45;&gt;hidebound.exporters.exporter_base -->
<g id="edge92" class="edge">
<title>hidebound.exporters&#45;&gt;hidebound.exporters.exporter_base</title>
<path fill="none" stroke="#a0d17b" d="M683.0927,-2057.9916C705.1505,-2047.5988 729.2841,-2032.2887 744,-2011 798.8424,-1931.6625 744.4885,-1886.6719 780,-1797 810.0281,-1721.1746 869.3705,-1644.587 901.8862,-1605.8735"/>
<polygon fill="#a0d17b" stroke="#a0d17b" points="904.5953,-1608.0904 908.3973,-1598.2013 899.2582,-1603.5611 904.5953,-1608.0904"/>
</g>
<!-- hidebound.exporters&#45;&gt;hidebound.exporters.girder_exporter -->
<g id="edge93" class="edge">
<title>hidebound.exporters&#45;&gt;hidebound.exporters.girder_exporter</title>
<path fill="none" stroke="#a0d17b" d="M664.5138,-2094.0266C743.5742,-2135.8793 950.2454,-2228.6765 1069,-2128 1143.5712,-2064.7808 1065.103,-2000.2511 1105,-1911 1135.0093,-1843.8679 1194.5906,-1780.2901 1229.7388,-1746.3995"/>
<polygon fill="#a0d17b" stroke="#a0d17b" points="1232.4402,-1748.6603 1237.271,-1739.2308 1227.6143,-1743.5897 1232.4402,-1748.6603"/>
</g>
<!-- hidebound.exporters&#45;&gt;hidebound.exporters.s3_exporter -->
<g id="edge94" class="edge">
<title>hidebound.exporters&#45;&gt;hidebound.exporters.s3_exporter</title>
<path fill="none" stroke="#a0d17b" d="M719.1172,-2078.2886C839.2791,-2080.5605 1044.6238,-2080.8261 1069,-2057 1155.3232,-1972.6248 1040.9481,-1617.3143 1105,-1515 1124.0551,-1484.562 1157.8695,-1463.7138 1188.8229,-1450.0753"/>
<polygon fill="#a0d17b" stroke="#a0d17b" points="1190.4634,-1453.1821 1198.3178,-1446.0715 1187.7435,-1446.7321 1190.4634,-1453.1821"/>
</g>
<!-- schematics.types -->
<g id="node45" class="node">
<title>schematics.types</title>
<polygon fill="#343434" stroke="#343434" points="707,-1796 558,-1796 558,-1760 707,-1760 707,-1796"/>
<text text-anchor="middle" x="632.5" y="-1774.3" font-family="Courier,monospace" font-size="14.00" fill="#de958e">schematics.types</text>
</g>
<!-- schematics.types&#45;&gt;hidebound.core.config -->
<g id="edge95" class="edge">
<title>schematics.types&#45;&gt;hidebound.core.config</title>
<path fill="none" stroke="#de958e" d="M645.5094,-1796.4064C668.62,-1827.5127 720.0804,-1889.927 780,-1919 906.2919,-1980.2769 1298.1845,-2049.8634 1410,-1965 1482.307,-1910.1219 1525.4857,-1617.2874 1537.5241,-1524.3357"/>
<polygon fill="#de958e" stroke="#de958e" points="1541.0155,-1524.6242 1538.8074,-1514.262 1534.0716,-1523.7395 1541.0155,-1524.6242"/>
</g>
<!-- schematics.types&#45;&gt;hidebound.core.specification_base -->
<g id="edge96" class="edge">
<title>schematics.types&#45;&gt;hidebound.core.specification_base</title>
<path fill="none" stroke="#de958e" d="M648.2548,-1759.7333C671.1549,-1732.6321 714.1538,-1679.6221 744,-1630 763.4715,-1597.6268 762.6743,-1586.5705 780,-1553 823.6654,-1468.3933 880.6943,-1371.2407 908.2255,-1325.0794"/>
<polygon fill="#de958e" stroke="#de958e" points="911.3554,-1326.6649 913.4817,-1316.2856 905.3469,-1323.0735 911.3554,-1326.6649"/>
</g>
<!-- schematics.types&#45;&gt;hidebound.core.specifications -->
<g id="edge97" class="edge">
<title>schematics.types&#45;&gt;hidebound.core.specifications</title>
<path fill="none" stroke="#de958e" d="M652.7416,-1796.1605C679.6735,-1819.1832 729.7597,-1858.1414 780,-1877 889.2904,-1918.024 1021.4746,-1932.4406 1119.0322,-1937.072"/>
<polygon fill="#de958e" stroke="#de958e" points="1119.1111,-1940.5789 1129.257,-1937.5277 1119.4228,-1933.5859 1119.1111,-1940.5789"/>
</g>
<!-- schematics.types&#45;&gt;hidebound.exporters.disk_exporter -->
<g id="edge98" class="edge">
<title>schematics.types&#45;&gt;hidebound.exporters.disk_exporter</title>
<path fill="none" stroke="#de958e" d="M707.2103,-1770.0788C796.517,-1758.5655 948.9518,-1732.3469 1069,-1678 1132.3032,-1649.3421 1195.7314,-1597.7049 1230.4754,-1566.9679"/>
<polygon fill="#de958e" stroke="#de958e" points="1233.144,-1569.2768 1238.2637,-1560.0011 1228.477,-1564.0596 1233.144,-1569.2768"/>
</g>
<!-- schematics.types&#45;&gt;hidebound.exporters.exporter_base -->
<g id="edge99" class="edge">
<title>schematics.types&#45;&gt;hidebound.exporters.exporter_base</title>
<path fill="none" stroke="#de958e" d="M650.3093,-1759.7371C676.826,-1733.2282 729.0489,-1683.5949 780,-1650 808.3309,-1631.3199 842.3938,-1614.5763 870.3305,-1602.1519"/>
<polygon fill="#de958e" stroke="#de958e" points="871.8004,-1605.3291 879.5527,-1598.1074 868.9889,-1598.9185 871.8004,-1605.3291"/>
</g>
<!-- schematics.types&#45;&gt;hidebound.exporters.girder_exporter -->
<g id="edge100" class="edge">
<title>schematics.types&#45;&gt;hidebound.exporters.girder_exporter</title>
<path fill="none" stroke="#de958e" d="M659.3263,-1796.0347C687.8348,-1814.0247 734.9297,-1840.4573 780,-1851 905.0683,-1880.2557 946.3637,-1889.1879 1069,-1851 1134.8855,-1830.4838 1198.0885,-1778.0202 1231.9546,-1746.3666"/>
<polygon fill="#de958e" stroke="#de958e" points="1234.679,-1748.6062 1239.5203,-1739.1821 1229.8587,-1743.5302 1234.679,-1748.6062"/>
</g>
<!-- schematics.types&#45;&gt;hidebound.exporters.s3_exporter -->
<g id="edge101" class="edge">
<title>schematics.types&#45;&gt;hidebound.exporters.s3_exporter</title>
<path fill="none" stroke="#de958e" d="M654.0149,-1759.7483C681.5064,-1737.3283 731.3756,-1699.6178 780,-1678 900.8578,-1624.2681 969.5071,-1694.1487 1069,-1607 1102.0288,-1578.0691 1076.2905,-1548.2215 1105,-1515 1129.9254,-1486.1574 1166.8926,-1464.7323 1198.1875,-1450.361"/>
<polygon fill="#de958e" stroke="#de958e" points="1199.986,-1453.3916 1207.698,-1446.1269 1197.139,-1446.9967 1199.986,-1453.3916"/>
</g>
<!-- schematics.models -->
<g id="node46" class="node">
<title>schematics.models</title>
<polygon fill="#343434" stroke="#343434" points="468.5,-1530 311.5,-1530 311.5,-1494 468.5,-1494 468.5,-1530"/>
<text text-anchor="middle" x="390" y="-1508.3" font-family="Courier,monospace" font-size="14.00" fill="#de958e">schematics.models</text>
</g>
<!-- schematics.models&#45;&gt;hidebound.core.validators -->
<g id="edge102" class="edge">
<title>schematics.models&#45;&gt;hidebound.core.validators</title>
<path fill="none" stroke="#de958e" d="M457.8327,-1493.9623C467.0271,-1491.1567 476.2897,-1488.14 485,-1485 519.5317,-1472.5516 557.4012,-1455.7947 586.1219,-1442.4129"/>
<polygon fill="#de958e" stroke="#de958e" points="587.9273,-1445.4319 595.4932,-1438.0152 584.9535,-1439.095 587.9273,-1445.4319"/>
</g>
<!-- wrapt -->
<g id="node47" class="node">
<title>wrapt</title>
<polygon fill="#343434" stroke="#343434" points="419,-1476 361,-1476 361,-1440 419,-1440 419,-1476"/>
<text text-anchor="middle" x="390" y="-1454.3" font-family="Courier,monospace" font-size="14.00" fill="#de958e">wrapt</text>
</g>
<!-- wrapt&#45;&gt;hidebound.core.validators -->
<g id="edge103" class="edge">
<title>wrapt&#45;&gt;hidebound.core.validators</title>
<path fill="none" stroke="#de958e" d="M419.2512,-1453.4163C442.4686,-1449.7781 476.6038,-1444.4291 510.7879,-1439.0724"/>
<polygon fill="#de958e" stroke="#de958e" points="511.5645,-1442.4935 520.9021,-1437.4875 510.4807,-1435.5779 511.5645,-1442.4935"/>
</g>
<!-- pandas -->
<g id="node48" class="node">
<title>pandas</title>
<polygon fill="#343434" stroke="#343434" points="423,-828 357,-828 357,-792 423,-792 423,-828"/>
<text text-anchor="middle" x="390" y="-806.3" font-family="Courier,monospace" font-size="14.00" fill="#de958e">pandas</text>
</g>
<!-- pandas&#45;&gt;hidebound.core.database -->
<g id="edge104" class="edge">
<title>pandas&#45;&gt;hidebound.core.database</title>
<path fill="none" stroke="#de958e" d="M423.1566,-802.2422C449.5052,-796.4866 487.3869,-789.1191 521,-786 635.6196,-775.364 664.8882,-785.2222 780,-785 908.4442,-784.752 941.9649,-766.0249 1069,-785 1085.5467,-787.4716 1088.9407,-791.3095 1105,-796 1240.0776,-835.4526 1274.9224,-841.5474 1410,-881 1426.0593,-885.6905 1429.8088,-887.7873 1446,-892 1529.6047,-913.7524 1552.9508,-909.2146 1636,-933 1673.0387,-943.6079 1713.8038,-958.2592 1745.4258,-970.3074"/>
<polygon fill="#de958e" stroke="#de958e" points="1744.3416,-973.6402 1754.9317,-973.9556 1746.8497,-967.1049 1744.3416,-973.6402"/>
</g>
<!-- pandas&#45;&gt;hidebound.core.database_tools -->
<g id="edge105" class="edge">
<title>pandas&#45;&gt;hidebound.core.database_tools</title>
<path fill="none" stroke="#de958e" d="M423.3396,-806.9551C543.8097,-796.5331 955.4358,-766.1295 1069,-826 1093.2229,-838.7702 1082.0473,-861.0668 1105,-876 1110.7132,-879.717 1116.7789,-883.0124 1123.0725,-885.933"/>
<polygon fill="#de958e" stroke="#de958e" points="1121.8718,-889.2263 1132.4419,-889.9495 1124.6299,-882.7925 1121.8718,-889.2263"/>
</g>
<!-- pandas&#45;&gt;hidebound.core.tools -->
<g id="edge106" class="edge">
<title>pandas&#45;&gt;hidebound.core.tools</title>
<path fill="none" stroke="#de958e" d="M404.8044,-828.0705C446.1522,-878.5404 562.9858,-1021.1497 611.2422,-1080.0523"/>
<polygon fill="#de958e" stroke="#de958e" points="608.5364,-1082.2724 617.5812,-1087.7898 613.9512,-1077.8362 608.5364,-1082.2724"/>
</g>
<!-- pandas&#45;&gt;hidebound.core.validators -->
<g id="edge107" class="edge">
<title>pandas&#45;&gt;hidebound.core.validators</title>
<path fill="none" stroke="#de958e" d="M397.2575,-828.2561C431.8065,-915.1628 579.6626,-1287.0894 621.4565,-1392.2205"/>
<polygon fill="#de958e" stroke="#de958e" points="618.3241,-1393.8155 625.2708,-1401.8151 624.8289,-1391.2295 618.3241,-1393.8155"/>
</g>
<!-- pandas&#45;&gt;hidebound.server.components -->
<g id="edge108" class="edge">
<title>pandas&#45;&gt;hidebound.server.components</title>
<path fill="none" stroke="#de958e" d="M423.2004,-803.7211C441.9649,-799.4078 465.4977,-792.6871 485,-783 631.9583,-710.0034 635.5421,-638.8277 780,-561 1056.7266,-411.9117 1136.8303,-379.7364 1446,-323 1519.3234,-309.5443 1602.6202,-307.2663 1669.9859,-308.5954"/>
<polygon fill="#de958e" stroke="#de958e" points="1670.1543,-312.1 1680.231,-308.8276 1670.3129,-305.1018 1670.1543,-312.1"/>
</g>
<!-- pyparsing -->
<g id="node49" class="node">
<title>pyparsing</title>
<polygon fill="#343434" stroke="#343434" points="238.5,-1254 147.5,-1254 147.5,-1218 238.5,-1218 238.5,-1254"/>
<text text-anchor="middle" x="193" y="-1232.3" font-family="Courier,monospace" font-size="14.00" fill="#de958e">pyparsing</text>
</g>
<!-- pyparsing&#45;&gt;hidebound.core.parser -->
<g id="edge109" class="edge">
<title>pyparsing&#45;&gt;hidebound.core.parser</title>
<path fill="none" stroke="#de958e" d="M238.6909,-1236C252.6218,-1236 268.5536,-1236 284.73,-1236"/>
<polygon fill="#de958e" stroke="#de958e" points="284.8181,-1239.5001 294.818,-1236 284.818,-1232.5001 284.8181,-1239.5001"/>
</g>
<!-- pyparsing&#45;&gt;hidebound.core.specification_base -->
<g id="edge110" class="edge">
<title>pyparsing&#45;&gt;hidebound.core.specification_base</title>
<path fill="none" stroke="#de958e" d="M238.7021,-1221.2039C256.1238,-1216.2807 276.2899,-1211.4344 295,-1209 493.6326,-1183.1554 553.0314,-1187.5527 744,-1248 761.0546,-1253.3983 763.1402,-1260.021 780,-1266 792.0612,-1270.2772 804.8986,-1274.1014 817.7537,-1277.4868"/>
<polygon fill="#de958e" stroke="#de958e" points="817.0203,-1280.9117 827.575,-1279.9905 818.7495,-1274.1287 817.0203,-1280.9117"/>
</g>
<!-- pyparsing&#45;&gt;hidebound.core.validators -->
<g id="edge111" class="edge">
<title>pyparsing&#45;&gt;hidebound.core.validators</title>
<path fill="none" stroke="#de958e" d="M211.3989,-1254.1904C230.7356,-1272.3971 262.7695,-1300.0696 295,-1317 369.9537,-1356.3725 462.3415,-1383.2529 531.4948,-1399.654"/>
<polygon fill="#de958e" stroke="#de958e" points="530.9901,-1403.1304 541.5243,-1401.9981 532.5832,-1396.314 530.9901,-1403.1304"/>
</g>
<!-- schematics -->
<g id="node50" class="node">
<title>schematics</title>
<polygon fill="#343434" stroke="#343434" points="682,-1621 583,-1621 583,-1585 682,-1585 682,-1621"/>
<text text-anchor="middle" x="632.5" y="-1599.3" font-family="Courier,monospace" font-size="14.00" fill="#de958e">schematics</text>
</g>
<!-- schematics&#45;&gt;hidebound.core.config -->
<g id="edge112" class="edge">
<title>schematics&#45;&gt;hidebound.core.config</title>
<path fill="none" stroke="#de958e" d="M682.3917,-1615.6872C812.6833,-1645.8732 1169.6969,-1709.4351 1410,-1569 1431.2406,-1556.5868 1425.0334,-1538.456 1446.1014,-1520.1996"/>
<polygon fill="#de958e" stroke="#de958e" points="1448.4613,-1522.8052 1454.3709,-1514.0116 1444.2674,-1517.2006 1448.4613,-1522.8052"/>
</g>
<!-- schematics&#45;&gt;hidebound.core.specification_base -->
<g id="edge113" class="edge">
<title>schematics&#45;&gt;hidebound.core.specification_base</title>
<path fill="none" stroke="#de958e" d="M649.8915,-1584.8343C699.5949,-1532.918 842.3751,-1383.7812 899.9729,-1323.6191"/>
<polygon fill="#de958e" stroke="#de958e" points="902.8124,-1325.7143 907.1997,-1316.0706 897.756,-1320.8735 902.8124,-1325.7143"/>
</g>
<!-- schematics&#45;&gt;hidebound.exporters.exporter_base -->
<g id="edge114" class="edge">
<title>schematics&#45;&gt;hidebound.exporters.exporter_base</title>
<path fill="none" stroke="#de958e" d="M682.0338,-1599.0984C706.6266,-1597.1613 737.8291,-1594.7035 769.5958,-1592.2014"/>
<polygon fill="#de958e" stroke="#de958e" points="770.2276,-1595.6625 779.9219,-1591.388 769.6779,-1588.6841 770.2276,-1595.6625"/>
</g>
<!-- schematics&#45;&gt;hidebound.exporters.girder_exporter -->
<g id="edge115" class="edge">
<title>schematics&#45;&gt;hidebound.exporters.girder_exporter</title>
<path fill="none" stroke="#de958e" d="M648.4359,-1621.0691C673.3612,-1647.8201 724.4972,-1696.8587 780,-1716 896.8779,-1756.3079 1039.6224,-1751.3511 1138.4353,-1740.1878"/>
<polygon fill="#de958e" stroke="#de958e" points="1138.9313,-1743.6537 1148.4578,-1739.0173 1138.1192,-1736.701 1138.9313,-1743.6537"/>
</g>
<!-- jsoncomment -->
<g id="node51" class="node">
<title>jsoncomment</title>
<polygon fill="#343434" stroke="#343434" points="443.5,-2330 336.5,-2330 336.5,-2294 443.5,-2294 443.5,-2330"/>
<text text-anchor="middle" x="390" y="-2308.3" font-family="Courier,monospace" font-size="14.00" fill="#de958e">jsoncomment</text>
</g>
<!-- jsoncomment&#45;&gt;hidebound.core.database -->
<g id="edge116" class="edge">
<title>jsoncomment&#45;&gt;hidebound.core.database</title>
<path fill="none" stroke="#de958e" d="M443.8618,-2310.661C540.2542,-2308.3836 748.6335,-2304 924.5,-2304 924.5,-2304 924.5,-2304 1257.5,-2304 1341.78,-2304 1577.3887,-2340.5627 1636,-2280 1681.495,-2232.9903 1643.9287,-1162.0907 1672,-1103 1690.0929,-1064.914 1728.0582,-1034.6767 1757.9673,-1015.4402"/>
<polygon fill="#de958e" stroke="#de958e" points="1759.9373,-1018.3364 1766.5622,-1010.0682 1756.2272,-1012.4004 1759.9373,-1018.3364"/>
</g>
<!-- jsoncomment&#45;&gt;hidebound.core.tools -->
<g id="edge117" class="edge">
<title>jsoncomment&#45;&gt;hidebound.core.tools</title>
<path fill="none" stroke="#de958e" d="M391.0374,-2293.8684C396.7988,-2198.7314 428.0333,-1748.0765 521,-1393 546.7668,-1294.5866 595.8442,-1183.8836 619.3335,-1133.5522"/>
<polygon fill="#de958e" stroke="#de958e" points="622.5901,-1134.8515 623.6757,-1124.3124 616.2547,-1131.8742 622.5901,-1134.8515"/>
</g>
<!-- jsoncomment&#45;&gt;hidebound.server.extension -->
<g id="edge118" class="edge">
<title>jsoncomment&#45;&gt;hidebound.server.extension</title>
<path fill="none" stroke="#de958e" d="M443.8098,-2317.0213C540.1207,-2325.5616 748.3764,-2342 924.5,-2342 924.5,-2342 924.5,-2342 1257.5,-2342 1426.2855,-2342 1496.9601,-2406.6894 1636,-2311 2067.9882,-2013.699 1959.8198,-1737.2434 2146,-1247 2216.9241,-1060.245 2273.066,-825.624 2291.2525,-745.9432"/>
<polygon fill="#de958e" stroke="#de958e" points="2294.6713,-746.6926 2293.4705,-736.1661 2287.8448,-745.1439 2294.6713,-746.6926"/>
</g>
<!-- OpenEXR -->
<g id="node52" class="node">
<title>OpenEXR</title>
<polygon fill="#343434" stroke="#343434" points="427,-1124 353,-1124 353,-1088 427,-1088 427,-1124"/>
<text text-anchor="middle" x="390" y="-1102.3" font-family="Courier,monospace" font-size="14.00" fill="#de958e">OpenEXR</text>
</g>
<!-- OpenEXR&#45;&gt;hidebound.core.tools -->
<g id="edge119" class="edge">
<title>OpenEXR&#45;&gt;hidebound.core.tools</title>
<path fill="none" stroke="#de958e" d="M427.0945,-1106C454.8668,-1106 494.2626,-1106 531.1359,-1106"/>
<polygon fill="#de958e" stroke="#de958e" points="531.4574,-1109.5001 541.4574,-1106 531.4574,-1102.5001 531.4574,-1109.5001"/>
</g>
<!-- schematics.exceptions -->
<g id="node53" class="node">
<title>schematics.exceptions</title>
<polygon fill="#343434" stroke="#343434" points="485,-1308 295,-1308 295,-1272 485,-1272 485,-1308"/>
<text text-anchor="middle" x="390" y="-1286.3" font-family="Courier,monospace" font-size="14.00" fill="#de958e">schematics.exceptions</text>
</g>
<!-- schematics.exceptions&#45;&gt;hidebound.core.config -->
<g id="edge120" class="edge">
<title>schematics.exceptions&#45;&gt;hidebound.core.config</title>
<path fill="none" stroke="#de958e" d="M485.1278,-1302.6137C497.1971,-1304.135 509.384,-1305.6324 521,-1307 619.6471,-1318.6144 1317.2643,-1365.4159 1410,-1401 1450.7086,-1416.6205 1490.2066,-1448.2184 1514.9992,-1470.6793"/>
<polygon fill="#de958e" stroke="#de958e" points="1512.7935,-1473.4065 1522.515,-1477.6189 1517.5423,-1468.2635 1512.7935,-1473.4065"/>
</g>
<!-- schematics.exceptions&#45;&gt;hidebound.core.database_tools -->
<g id="edge121" class="edge">
<title>schematics.exceptions&#45;&gt;hidebound.core.database_tools</title>
<path fill="none" stroke="#de958e" d="M474.9518,-1271.7251C478.5977,-1269.1748 481.9823,-1266.2814 485,-1263 541.4053,-1201.6645 475.177,-1148.5978 521,-1079 597.6705,-962.5498 646.7929,-943.169 780,-902 903.6753,-863.7769 1054.1153,-874.4112 1152.6653,-888.5243"/>
<polygon fill="#de958e" stroke="#de958e" points="1152.2295,-891.9977 1162.6321,-889.9888 1153.2472,-885.0721 1152.2295,-891.9977"/>
</g>
<!-- schematics.exceptions&#45;&gt;hidebound.core.specification_base -->
<g id="edge122" class="edge">
<title>schematics.exceptions&#45;&gt;hidebound.core.specification_base</title>
<path fill="none" stroke="#de958e" d="M485.2498,-1291.4256C564.0807,-1292.6055 677.6269,-1294.305 769.5253,-1295.6805"/>
<polygon fill="#de958e" stroke="#de958e" points="769.7148,-1299.1836 779.7661,-1295.8337 769.8196,-1292.1844 769.7148,-1299.1836"/>
</g>
<!-- schematics.exceptions&#45;&gt;hidebound.core.tools -->
<g id="edge123" class="edge">
<title>schematics.exceptions&#45;&gt;hidebound.core.tools</title>
<path fill="none" stroke="#de958e" d="M472.8607,-1271.7624C477.1961,-1269.2119 481.287,-1266.3074 485,-1263 516.2474,-1235.1663 494.0015,-1207.9717 521,-1176 537.5805,-1156.3652 561.1053,-1140.4747 582.2759,-1128.827"/>
<polygon fill="#de958e" stroke="#de958e" points="583.9897,-1131.8798 591.1777,-1124.0963 580.7047,-1125.6984 583.9897,-1131.8798"/>
</g>
<!-- schematics.exceptions&#45;&gt;hidebound.core.validators -->
<g id="edge124" class="edge">
<title>schematics.exceptions&#45;&gt;hidebound.core.validators</title>
<path fill="none" stroke="#de958e" d="M453.3466,-1308.0115C464.1749,-1312.0208 475.1113,-1316.6876 485,-1322 502.8562,-1331.5926 504.3955,-1338.3744 521,-1350 544.3675,-1366.3608 571.4515,-1383.4064 593.0744,-1396.5806"/>
<polygon fill="#de958e" stroke="#de958e" points="591.3107,-1399.6042 601.6769,-1401.7935 594.9385,-1393.6176 591.3107,-1399.6042"/>
</g>
<!-- schematics.exceptions&#45;&gt;hidebound.server.api -->
<g id="edge125" class="edge">
<title>schematics.exceptions&#45;&gt;hidebound.server.api</title>
<path fill="none" stroke="#de958e" d="M458.4099,-1271.9871C467.4258,-1269.197 476.4862,-1266.1777 485,-1263 620.6096,-1212.3843 638.8135,-1156.9105 780,-1125 1151.0935,-1041.1267 1304.8884,-1306.3772 1636,-1119 1662.7342,-1103.871 1646.4899,-1077.1126 1672,-1060 1767.6916,-995.8085 1839.0853,-1092.2913 1928,-1019 2028.113,-936.4781 2049.3082,-767.7763 2053.7951,-700.5622"/>
<polygon fill="#de958e" stroke="#de958e" points="2057.3047,-700.5015 2054.3999,-690.3127 2050.3169,-700.0891 2057.3047,-700.5015"/>
</g>
<!-- dask.dataframe -->
<g id="node54" class="node">
<title>dask.dataframe</title>
<polygon fill="#343434" stroke="#343434" points="456,-774 324,-774 324,-738 456,-738 456,-774"/>
<text text-anchor="middle" x="390" y="-752.3" font-family="Courier,monospace" font-size="14.00" fill="#de958e">dask.dataframe</text>
</g>
<!-- dask.dataframe&#45;&gt;hidebound.core.database -->
<g id="edge126" class="edge">
<title>dask.dataframe&#45;&gt;hidebound.core.database</title>
<path fill="none" stroke="#de958e" d="M441.1944,-737.926C514.9402,-712.9432 655.8634,-669.1161 780,-653 907.3755,-636.4634 941.1594,-640.5598 1069,-653 1222.7271,-667.9592 1288.8032,-624.2548 1410,-720 1440.2769,-743.9187 1416.8015,-773.7762 1446,-799 1512.5255,-856.4696 1558.4597,-812.5767 1636,-854 1691.9757,-883.9032 1746.1561,-935.2107 1776.0901,-966.1318"/>
<polygon fill="#de958e" stroke="#de958e" points="1773.7231,-968.7208 1783.1644,-973.5284 1778.7819,-963.8825 1773.7231,-968.7208"/>
</g>
<!-- dask.dataframe&#45;&gt;hidebound.core.database_tools -->
<g id="edge127" class="edge">
<title>dask.dataframe&#45;&gt;hidebound.core.database_tools</title>
<path fill="none" stroke="#de958e" d="M456.0489,-750.0134C607.0901,-737.6911 972.1393,-716.0862 1069,-785 1104.4398,-810.2145 1071.7466,-847.9649 1105,-876 1109.7037,-879.9656 1114.7752,-883.4791 1120.112,-886.5896"/>
<polygon fill="#de958e" stroke="#de958e" points="1118.8484,-889.8803 1129.3259,-891.4526 1122.1158,-883.6896 1118.8484,-889.8803"/>
</g>
<!-- dask.dataframe&#45;&gt;hidebound.core.tools -->
<g id="edge128" class="edge">
<title>dask.dataframe&#45;&gt;hidebound.core.tools</title>
<path fill="none" stroke="#de958e" d="M456.1089,-766.7153C466.576,-770.5872 476.6756,-775.8498 485,-783 578.4969,-863.3088 615.9205,-1015.1894 627.8281,-1077.864"/>
<polygon fill="#de958e" stroke="#de958e" points="624.4056,-1078.6056 629.6445,-1087.8146 631.2918,-1077.3486 624.4056,-1078.6056"/>
</g>
<!-- hidebound -->
<g id="node55" class="node">
<title>hidebound</title>
<polygon fill="#343434" stroke="#343434" points="91,-1503 0,-1503 0,-1467 91,-1467 91,-1503"/>
<text text-anchor="middle" x="45.5" y="-1481.3" font-family="Courier,monospace" font-size="14.00" fill="#a0d17b">hidebound</text>
</g>
<!-- hidebound&#45;&gt;hidebound.server -->
<g id="edge129" class="edge">
<title>hidebound&#45;&gt;hidebound.server</title>
<path fill="none" stroke="#a0d17b" d="M83.2321,-1466.6647C86.19,-1464.0883 88.8555,-1461.2069 91,-1458 153.1561,-1365.0498 107.1287,-1319.0375 127,-1209 206.6085,-768.167 -57.9634,-236 390,-236 390,-236 390,-236 924.5,-236 1114.5557,-236 1337.1261,-220.6453 1455.9698,-211.2083"/>
<polygon fill="#a0d17b" stroke="#a0d17b" points="1456.4043,-214.6848 1466.0935,-210.3988 1455.8463,-207.7071 1456.4043,-214.6848"/>
</g>
<!-- hidebound&#45;&gt;hidebound.exporters -->
<g id="edge130" class="edge">
<title>hidebound&#45;&gt;hidebound.exporters</title>
<path fill="none" stroke="#a0d17b" d="M53.4689,-1503.0974C80.4574,-1562.9197 173.5435,-1757.6715 295,-1884 379.2407,-1971.6199 412.2661,-1983.6799 521,-2038 533.3663,-2044.1778 546.9756,-2049.7425 560.3094,-2054.5871"/>
<polygon fill="#a0d17b" stroke="#a0d17b" points="559.3532,-2057.9611 569.948,-2057.986 561.6811,-2051.3595 559.3532,-2057.9611"/>
</g>
<!-- hidebound.core -->
<g id="node56" class="node">
<title>hidebound.core</title>
<polygon fill="#343434" stroke="#343434" points="259,-1503 127,-1503 127,-1467 259,-1467 259,-1503"/>
<text text-anchor="middle" x="193" y="-1481.3" font-family="Courier,monospace" font-size="14.00" fill="#a0d17b">hidebound.core</text>
</g>
<!-- hidebound&#45;&gt;hidebound.core -->
<g id="edge131" class="edge">
<title>hidebound&#45;&gt;hidebound.core</title>
<path fill="none" stroke="#a0d17b" d="M91.3614,-1485C99.4456,-1485 108.0541,-1485 116.7093,-1485"/>
<polygon fill="#a0d17b" stroke="#a0d17b" points="116.8627,-1488.5001 126.8626,-1485 116.8626,-1481.5001 116.8627,-1488.5001"/>
</g>
<!-- hidebound.core&#45;&gt;hidebound.core.config -->
<g id="edge132" class="edge">
<title>hidebound.core&#45;&gt;hidebound.core.config</title>
<path fill="none" stroke="#a0d17b" d="M194.7965,-1503.2625C203.0464,-1584.348 239.2991,-1911.4985 295,-1996 395.1775,-2147.9749 450.4783,-2228 632.5,-2228 632.5,-2228 632.5,-2228 924.5,-2228 1163.2665,-2228 1263.8236,-2186.7906 1410,-1998 1469.4019,-1921.2808 1521.6035,-1618.1411 1536.6514,-1524.025"/>
<polygon fill="#a0d17b" stroke="#a0d17b" points="1540.1159,-1524.5243 1538.224,-1514.0997 1533.2022,-1523.4288 1540.1159,-1524.5243"/>
</g>
<!-- hidebound.core&#45;&gt;hidebound.core.database -->
<g id="edge133" class="edge">
<title>hidebound.core&#45;&gt;hidebound.core.database</title>
<path fill="none" stroke="#a0d17b" d="M193.8344,-1503.0753C198.3818,-1594.9351 222.6882,-2009.6576 295,-2112 390.1437,-2246.6563 467.6223,-2266 632.5,-2266 632.5,-2266 632.5,-2266 1257.5,-2266 1493.472,-2266 1585.4549,-1811.5231 1636,-1608 1663.1174,-1498.8099 1621.6713,-1203.6223 1672,-1103 1690.9219,-1065.1693 1728.9758,-1034.8146 1758.6965,-1015.4741"/>
<polygon fill="#a0d17b" stroke="#a0d17b" points="1760.6516,-1018.3789 1767.228,-1010.0721 1756.9068,-1012.4647 1760.6516,-1018.3789"/>
</g>
<!-- hidebound.core&#45;&gt;hidebound.core.database_tools -->
<g id="edge134" class="edge">
<title>hidebound.core&#45;&gt;hidebound.core.database_tools</title>
<path fill="none" stroke="#a0d17b" d="M218.822,-1503.2385C238.6242,-1516.0531 267.1922,-1532.0932 295,-1539 376.9544,-1559.3555 401.7822,-1553.3411 485,-1539 539.863,-1529.5454 1066.2068,-1327.6161 1069,-1325 1188.6563,-1212.9285 1237.887,-1010.5908 1252.4819,-936.3237"/>
<polygon fill="#a0d17b" stroke="#a0d17b" points="1255.9541,-936.8 1254.3882,-926.3215 1249.0778,-935.4894 1255.9541,-936.8"/>
</g>
<!-- hidebound.core&#45;&gt;hidebound.core.logging -->
<g id="edge135" class="edge">
<title>hidebound.core&#45;&gt;hidebound.core.logging</title>
<path fill="none" stroke="#a0d17b" d="M199.8756,-1466.9137C213.7658,-1429.4896 245.0347,-1340.5622 259,-1263 280.0759,-1145.9462 246.8726,-837.7636 295,-729 353.6362,-596.4876 396.8772,-568.7747 521,-494 527.2857,-490.2133 534.0409,-486.8563 541.0047,-483.8834"/>
<polygon fill="#a0d17b" stroke="#a0d17b" points="542.6081,-487.0124 550.6055,-480.0631 540.02,-480.5083 542.6081,-487.0124"/>
</g>
<!-- hidebound.core&#45;&gt;hidebound.core.parser -->
<g id="edge136" class="edge">
<title>hidebound.core&#45;&gt;hidebound.core.parser</title>
<path fill="none" stroke="#a0d17b" d="M196.0164,-1466.9757C204.0461,-1424.7416 229.9413,-1318.7511 295,-1263 296.3427,-1261.8494 297.7313,-1260.7477 299.1601,-1259.6929"/>
<polygon fill="#a0d17b" stroke="#a0d17b" points="301.2407,-1262.5156 307.7404,-1254.1487 297.4417,-1256.6361 301.2407,-1262.5156"/>
</g>
<!-- hidebound.core&#45;&gt;hidebound.core.specification_base -->
<g id="edge137" class="edge">
<title>hidebound.core&#45;&gt;hidebound.core.specification_base</title>
<path fill="none" stroke="#a0d17b" d="M210.7234,-1466.7784C229.7628,-1448.3663 261.7865,-1420.612 295,-1406 377.9291,-1369.5161 611.4843,-1335.6036 769.5772,-1315.8455"/>
<polygon fill="#a0d17b" stroke="#a0d17b" points="770.3873,-1319.2719 779.879,-1314.5647 769.5236,-1312.3254 770.3873,-1319.2719"/>
</g>
<!-- hidebound.core&#45;&gt;hidebound.core.specifications -->
<g id="edge138" class="edge">
<title>hidebound.core&#45;&gt;hidebound.core.specifications</title>
<path fill="none" stroke="#a0d17b" d="M194.1355,-1503.0082C198.5292,-1561.756 218.218,-1751.6535 295,-1884 365.1884,-2004.9812 398.2876,-2035.8842 521,-2103 628.5015,-2161.7964 958.0269,-2215.9476 1069,-2164 1158.1172,-2122.2834 1219.8309,-2015.4286 1244.9363,-1965.0516"/>
<polygon fill="#a0d17b" stroke="#a0d17b" points="1248.09,-1966.5695 1249.3317,-1956.0477 1241.7995,-1963.4987 1248.09,-1966.5695"/>
</g>
<!-- hidebound.core&#45;&gt;hidebound.core.tools -->
<g id="edge139" class="edge">
<title>hidebound.core&#45;&gt;hidebound.core.tools</title>
<path fill="none" stroke="#a0d17b" d="M197.5138,-1466.6366C211.5126,-1411.0545 255.6205,-1246.1671 295,-1209 329.5334,-1176.4067 446.0077,-1145.517 532.5174,-1126.2199"/>
<polygon fill="#a0d17b" stroke="#a0d17b" points="533.3702,-1129.6159 542.3796,-1124.041 531.86,-1122.7808 533.3702,-1129.6159"/>
</g>
<!-- hidebound.core&#45;&gt;hidebound.core.traits -->
<g id="edge140" class="edge">
<title>hidebound.core&#45;&gt;hidebound.core.traits</title>
<path fill="none" stroke="#a0d17b" d="M197.6956,-1503.1806C218.946,-1581.2756 314.1829,-1889.784 521,-2011 569.7459,-2039.5701 716.9874,-2039.7019 819.4198,-2035.8763"/>
<polygon fill="#a0d17b" stroke="#a0d17b" points="819.6429,-2039.3703 829.4983,-2035.4818 819.3691,-2032.3757 819.6429,-2039.3703"/>
</g>
<!-- hidebound.core&#45;&gt;hidebound.core.validators -->
<g id="edge141" class="edge">
<title>hidebound.core&#45;&gt;hidebound.core.validators</title>
<path fill="none" stroke="#a0d17b" d="M219.3074,-1466.7593C239.1265,-1454.1228 267.502,-1438.3074 295,-1431 364.7811,-1412.4561 445.5353,-1409.2091 510.5531,-1410.8324"/>
<polygon fill="#a0d17b" stroke="#a0d17b" points="510.7509,-1414.3396 520.8489,-1411.1332 510.9554,-1407.3426 510.7509,-1414.3396"/>
</g>
<!-- skimage.io -->
<g id="node57" class="node">
<title>skimage.io</title>
<polygon fill="#343434" stroke="#343434" points="682,-2002 583,-2002 583,-1966 682,-1966 682,-2002"/>
<text text-anchor="middle" x="632.5" y="-1980.3" font-family="Courier,monospace" font-size="14.00" fill="#de958e">skimage.io</text>
</g>
<!-- skimage.io&#45;&gt;hidebound.core.traits -->
<g id="edge142" class="edge">
<title>skimage.io&#45;&gt;hidebound.core.traits</title>
<path fill="none" stroke="#de958e" d="M682.0338,-1991.8033C719.6309,-1997.7261 772.6761,-2006.0825 819.5685,-2013.4697"/>
<polygon fill="#de958e" stroke="#de958e" points="819.0508,-2016.9312 829.4737,-2015.0301 820.1402,-2010.0165 819.0508,-2016.9312"/>
</g>
</g>
</svg>
