<?xml version="1.0" encoding="UTF-8" standalone="no"?>
<!DOCTYPE svg PUBLIC "-//W3C//DTD SVG 1.1//EN"
 "http://www.w3.org/Graphics/SVG/1.1/DTD/svg11.dtd">
<!-- Generated by graphviz version 2.40.1 (20161225.0304)
 -->
<!-- Title: %3 Pages: 1 -->
<svg width="2475pt" height="1641pt"
 viewBox="0.00 0.00 2475.00 1640.76" xmlns="http://www.w3.org/2000/svg" xmlns:xlink="http://www.w3.org/1999/xlink">
<g id="graph0" class="graph" transform="scale(1 1) rotate(0) translate(4 1636.7568)">
<title>%3</title>
<polygon fill="#242424" stroke="transparent" points="-4,4 -4,-1636.7568 2471,-1636.7568 2471,4 -4,4"/>
<!-- cli -->
<g id="node1" class="node">
<title>cli</title>
<polygon fill="#343434" stroke="#343434" points="171.5,-724.4501 117.5,-724.4501 117.5,-688.4501 171.5,-688.4501 171.5,-724.4501"/>
<text text-anchor="middle" x="144.5" y="-702.7501" font-family="Courier,monospace" font-size="14.00" fill="#b6ecf3">cli</text>
</g>
<!-- hidebound.core.config -->
<g id="node2" class="node">
<title>hidebound.core.config</title>
<polygon fill="#343434" stroke="#343434" points="1649,-413.4501 1459,-413.4501 1459,-377.4501 1649,-377.4501 1649,-413.4501"/>
<text text-anchor="middle" x="1554" y="-391.7501" font-family="Courier,monospace" font-size="14.00" fill="#b6ecf3">hidebound.core.config</text>
</g>
<!-- hidebound.core.database -->
<g id="node3" class="node">
<title>hidebound.core.database</title>
<polygon fill="#343434" stroke="#343434" points="1949,-770.4501 1743,-770.4501 1743,-734.4501 1949,-734.4501 1949,-770.4501"/>
<text text-anchor="middle" x="1846" y="-748.7501" font-family="Courier,monospace" font-size="14.00" fill="#b6ecf3">hidebound.core.database</text>
</g>
<!-- hidebound.core.config&#45;&gt;hidebound.core.database -->
<g id="edge1" class="edge">
<title>hidebound.core.config&#45;&gt;hidebound.core.database</title>
<path fill="none" stroke="#b6ecf3" d="M1649.3162,-401.4725C1661.6815,-406.025 1673.1123,-412.7278 1682,-422.4501 1773.501,-522.5434 1626.499,-625.3568 1718,-725.4501 1722.6845,-730.5745 1728.0755,-734.86 1733.9374,-738.434"/>
<polygon fill="#b6ecf3" stroke="#b6ecf3" points="1732.3642,-741.5616 1742.8353,-743.176 1735.6564,-735.384 1732.3642,-741.5616"/>
</g>
<!-- hidebound.server.app -->
<g id="node17" class="node">
<title>hidebound.server.app</title>
<polygon fill="#343434" stroke="#343434" points="2467,-1027.4501 2285,-1027.4501 2285,-991.4501 2467,-991.4501 2467,-1027.4501"/>
<text text-anchor="middle" x="2376" y="-1005.7501" font-family="Courier,monospace" font-size="14.00" fill="#b6ecf3">hidebound.server.app</text>
</g>
<!-- hidebound.core.config&#45;&gt;hidebound.server.app -->
<g id="edge2" class="edge">
<title>hidebound.core.config&#45;&gt;hidebound.server.app</title>
<path fill="none" stroke="#b6ecf3" d="M1649.1258,-409.9295C1660.4951,-413.2746 1671.7077,-417.3894 1682,-422.4501 1835.0547,-497.7072 1890.59,-522.6813 1974,-671.4501 2023.956,-760.5509 1937.7835,-826.205 2010,-898.4501 2086.0389,-974.519 2147.5892,-900.6137 2249,-936.4501 2282.7421,-948.3738 2317.7625,-969.246 2342.4606,-985.6263"/>
<polygon fill="#b6ecf3" stroke="#b6ecf3" points="2340.8236,-988.7438 2351.0714,-991.433 2344.7373,-982.9401 2340.8236,-988.7438"/>
</g>
<!-- hidebound.server.api -->
<g id="node16" class="node">
<title>hidebound.server.api</title>
<polygon fill="#343434" stroke="#343434" points="2220.5,-981.4501 2038.5,-981.4501 2038.5,-945.4501 2220.5,-945.4501 2220.5,-981.4501"/>
<text text-anchor="middle" x="2129.5" y="-959.7501" font-family="Courier,monospace" font-size="14.00" fill="#b6ecf3">hidebound.server.api</text>
</g>
<!-- hidebound.core.database&#45;&gt;hidebound.server.api -->
<g id="edge3" class="edge">
<title>hidebound.core.database&#45;&gt;hidebound.server.api</title>
<path fill="none" stroke="#b6ecf3" d="M1864.9358,-770.6025C1890.563,-795.4722 1937.3007,-841.9105 1974,-884.4501 1991.1877,-904.3731 1988.1272,-916.8239 2010,-931.4501 2015.9531,-935.4309 2022.3827,-938.9175 2029.0637,-941.9712"/>
<polygon fill="#b6ecf3" stroke="#b6ecf3" points="2027.7348,-945.2093 2038.3089,-945.8728 2030.4565,-938.7601 2027.7348,-945.2093"/>
</g>
<!-- hidebound.core.database_tools -->
<g id="node4" class="node">
<title>hidebound.core.database_tools</title>
<polygon fill="#343434" stroke="#343434" points="1682,-770.4501 1426,-770.4501 1426,-734.4501 1682,-734.4501 1682,-770.4501"/>
<text text-anchor="middle" x="1554" y="-748.7501" font-family="Courier,monospace" font-size="14.00" fill="#b6ecf3">hidebound.core.database_tools</text>
</g>
<!-- hidebound.core.database_tools&#45;&gt;hidebound.core.database -->
<g id="edge4" class="edge">
<title>hidebound.core.database_tools&#45;&gt;hidebound.core.database</title>
<path fill="none" stroke="#b6ecf3" d="M1682.0755,-752.4501C1698.826,-752.4501 1715.8962,-752.4501 1732.386,-752.4501"/>
<polygon fill="#b6ecf3" stroke="#b6ecf3" points="1732.5702,-755.9502 1742.5701,-752.4501 1732.5701,-748.9502 1732.5702,-755.9502"/>
</g>
<!-- hidebound.core.logging -->
<g id="node5" class="node">
<title>hidebound.core.logging</title>
<polygon fill="#343434" stroke="#343434" points="691,-423.4501 493,-423.4501 493,-387.4501 691,-387.4501 691,-423.4501"/>
<text text-anchor="middle" x="592" y="-401.7501" font-family="Courier,monospace" font-size="14.00" fill="#b6ecf3">hidebound.core.logging</text>
</g>
<!-- hidebound.core.parser -->
<g id="node6" class="node">
<title>hidebound.core.parser</title>
<polygon fill="#343434" stroke="#343434" points="687,-645.4501 497,-645.4501 497,-609.4501 687,-609.4501 687,-645.4501"/>
<text text-anchor="middle" x="592" y="-623.7501" font-family="Courier,monospace" font-size="14.00" fill="#b6ecf3">hidebound.core.parser</text>
</g>
<!-- hidebound.core.parser&#45;&gt;hidebound.core.database_tools -->
<g id="edge5" class="edge">
<title>hidebound.core.parser&#45;&gt;hidebound.core.database_tools</title>
<path fill="none" stroke="#b6ecf3" d="M687.1726,-630.1834C837.6861,-635.8936 1139.3154,-652.9849 1390,-702.4501 1425.1788,-709.3916 1463.5639,-720.8716 1494.3484,-731.0818"/>
<polygon fill="#b6ecf3" stroke="#b6ecf3" points="1493.4686,-734.4784 1504.0626,-734.3448 1495.6976,-727.8427 1493.4686,-734.4784"/>
</g>
<!-- hidebound.core.specification_base -->
<g id="node7" class="node">
<title>hidebound.core.specification_base</title>
<polygon fill="#343434" stroke="#343434" points="1365.5,-591.4501 1076.5,-591.4501 1076.5,-555.4501 1365.5,-555.4501 1365.5,-591.4501"/>
<text text-anchor="middle" x="1221" y="-569.7501" font-family="Courier,monospace" font-size="14.00" fill="#b6ecf3">hidebound.core.specification_base</text>
</g>
<!-- hidebound.core.parser&#45;&gt;hidebound.core.specification_base -->
<g id="edge6" class="edge">
<title>hidebound.core.parser&#45;&gt;hidebound.core.specification_base</title>
<path fill="none" stroke="#b6ecf3" d="M687.3491,-610.7319C700.6382,-608.7468 714.1408,-606.9109 727,-605.4501 840.1978,-592.5908 968.62,-584.4688 1066.1487,-579.626"/>
<polygon fill="#b6ecf3" stroke="#b6ecf3" points="1066.5684,-583.1097 1076.385,-579.1241 1066.2256,-576.1181 1066.5684,-583.1097"/>
</g>
<!-- hidebound.core.validators -->
<g id="node11" class="node">
<title>hidebound.core.validators</title>
<polygon fill="#343434" stroke="#343434" points="983,-515.4501 760,-515.4501 760,-479.4501 983,-479.4501 983,-515.4501"/>
<text text-anchor="middle" x="871.5" y="-493.7501" font-family="Courier,monospace" font-size="14.00" fill="#b6ecf3">hidebound.core.validators</text>
</g>
<!-- hidebound.core.parser&#45;&gt;hidebound.core.validators -->
<g id="edge7" class="edge">
<title>hidebound.core.parser&#45;&gt;hidebound.core.validators</title>
<path fill="none" stroke="#b6ecf3" d="M658.8146,-609.388C669.8394,-605.4154 680.9424,-600.7739 691,-595.4501 708.9148,-585.9672 709.7842,-578.1497 727,-567.4501 756.2475,-549.2728 790.9165,-532.3383 818.9639,-519.68"/>
<polygon fill="#b6ecf3" stroke="#b6ecf3" points="820.4993,-522.8275 828.2043,-515.5555 817.6461,-516.4354 820.4993,-522.8275"/>
</g>
<!-- hidebound.core.specification_base&#45;&gt;hidebound.core.config -->
<g id="edge8" class="edge">
<title>hidebound.core.specification_base&#45;&gt;hidebound.core.config</title>
<path fill="none" stroke="#b6ecf3" d="M1309.9166,-555.3365C1338.3365,-545.896 1368.0749,-531.6953 1390,-510.4501 1420.3472,-481.0439 1393.5491,-449.517 1426,-422.4501 1433.0444,-416.5744 1441.0523,-411.8807 1449.5443,-408.1422"/>
<polygon fill="#b6ecf3" stroke="#b6ecf3" points="1450.9028,-411.369 1458.9263,-404.4498 1448.3392,-404.8553 1450.9028,-411.369"/>
</g>
<!-- hidebound.core.specification_base&#45;&gt;hidebound.core.database -->
<g id="edge9" class="edge">
<title>hidebound.core.specification_base&#45;&gt;hidebound.core.database</title>
<path fill="none" stroke="#b6ecf3" d="M1332.3461,-591.4865C1468.2063,-613.5393 1680.2402,-648.1236 1682,-649.4501 1711.8465,-671.9473 1688.6614,-702.2944 1718,-725.4501 1722.7967,-729.2359 1727.9991,-732.5242 1733.4689,-735.3778"/>
<polygon fill="#b6ecf3" stroke="#b6ecf3" points="1732.3603,-738.7227 1742.9022,-739.7806 1735.3209,-732.3796 1732.3603,-738.7227"/>
</g>
<!-- hidebound.core.specification_base&#45;&gt;hidebound.core.database_tools -->
<g id="edge10" class="edge">
<title>hidebound.core.specification_base&#45;&gt;hidebound.core.database_tools</title>
<path fill="none" stroke="#b6ecf3" d="M1355.3095,-591.4719C1367.3487,-595.2794 1379.0953,-599.8836 1390,-605.4501 1409.6017,-615.4561 1409.7484,-624.6099 1426,-639.4501 1459.7236,-670.245 1499.2149,-704.9001 1525.3182,-727.6162"/>
<polygon fill="#b6ecf3" stroke="#b6ecf3" points="1523.1245,-730.3468 1532.9682,-734.2652 1527.7166,-725.0635 1523.1245,-730.3468"/>
</g>
<!-- hidebound.core.specifications -->
<g id="node8" class="node">
<title>hidebound.core.specifications</title>
<polygon fill="#343434" stroke="#343434" points="1682,-1003.4501 1426,-1003.4501 1426,-967.4501 1682,-967.4501 1682,-1003.4501"/>
<text text-anchor="middle" x="1554" y="-981.7501" font-family="Courier,monospace" font-size="14.00" fill="#b6ecf3">hidebound.core.specifications</text>
</g>
<!-- hidebound.core.specification_base&#45;&gt;hidebound.core.specifications -->
<g id="edge11" class="edge">
<title>hidebound.core.specification_base&#45;&gt;hidebound.core.specifications</title>
<path fill="none" stroke="#b6ecf3" d="M1235.7383,-591.6848C1288.9312,-657.4971 1471.1376,-882.9296 1533.1446,-959.6471"/>
<polygon fill="#b6ecf3" stroke="#b6ecf3" points="1530.4238,-961.8488 1539.4319,-967.4259 1535.8679,-957.4485 1530.4238,-961.8488"/>
</g>
<!-- hidebound.core.tools -->
<g id="node9" class="node">
<title>hidebound.core.tools</title>
<polygon fill="#343434" stroke="#343434" points="962.5,-911.4501 780.5,-911.4501 780.5,-875.4501 962.5,-875.4501 962.5,-911.4501"/>
<text text-anchor="middle" x="871.5" y="-889.7501" font-family="Courier,monospace" font-size="14.00" fill="#b6ecf3">hidebound.core.tools</text>
</g>
<!-- hidebound.core.tools&#45;&gt;hidebound.core.database -->
<g id="edge12" class="edge">
<title>hidebound.core.tools&#45;&gt;hidebound.core.database</title>
<path fill="none" stroke="#b6ecf3" d="M893.4038,-911.5027C925.7388,-936.9094 989.2217,-982.1536 1052,-1000.4501 1186.4323,-1039.6299 1565.4278,-1090.0261 1682,-1012.4501 1716.4957,-989.494 1697.579,-962.5045 1718,-926.4501 1749.6909,-870.498 1796.3535,-811.4374 1823.7142,-778.5343"/>
<polygon fill="#b6ecf3" stroke="#b6ecf3" points="1826.4959,-780.6641 1830.2336,-770.7505 1821.1295,-776.1694 1826.4959,-780.6641"/>
</g>
<!-- hidebound.core.tools&#45;&gt;hidebound.core.database_tools -->
<g id="edge13" class="edge">
<title>hidebound.core.tools&#45;&gt;hidebound.core.database_tools</title>
<path fill="none" stroke="#b6ecf3" d="M962.7067,-880.8585C980.9805,-876.2605 999.59,-869.9921 1016,-861.4501 1035.2529,-851.4283 1032.3094,-837.5819 1052,-828.4501 1189.3783,-764.7386 1241.5479,-815.3486 1390,-785.4501 1406.2789,-782.1715 1409.8104,-779.1447 1426,-775.4501 1430.3268,-774.4627 1434.7437,-773.4913 1439.2115,-772.5393"/>
<polygon fill="#b6ecf3" stroke="#b6ecf3" points="1439.9825,-775.9539 1449.0583,-770.4875 1438.5545,-769.1011 1439.9825,-775.9539"/>
</g>
<!-- hidebound.core.tools&#45;&gt;hidebound.core.specification_base -->
<g id="edge14" class="edge">
<title>hidebound.core.tools&#45;&gt;hidebound.core.specification_base</title>
<path fill="none" stroke="#b6ecf3" d="M891.292,-875.3286C950.2661,-821.3323 1124.9354,-661.4063 1193.2082,-598.896"/>
<polygon fill="#b6ecf3" stroke="#b6ecf3" points="1195.9799,-601.1038 1200.9918,-591.7694 1191.2528,-595.941 1195.9799,-601.1038"/>
</g>
<!-- hidebound.core.traits -->
<g id="node10" class="node">
<title>hidebound.core.traits</title>
<polygon fill="#343434" stroke="#343434" points="1316,-1133.4501 1126,-1133.4501 1126,-1097.4501 1316,-1097.4501 1316,-1133.4501"/>
<text text-anchor="middle" x="1221" y="-1111.7501" font-family="Courier,monospace" font-size="14.00" fill="#b6ecf3">hidebound.core.traits</text>
</g>
<!-- hidebound.core.tools&#45;&gt;hidebound.core.traits -->
<g id="edge15" class="edge">
<title>hidebound.core.tools&#45;&gt;hidebound.core.traits</title>
<path fill="none" stroke="#b6ecf3" d="M889.0107,-911.4568C919.6936,-942.2184 986.19,-1005.4367 1052,-1045.4501 1084.6007,-1065.2718 1123.8233,-1081.9058 1156.2725,-1093.9785"/>
<polygon fill="#b6ecf3" stroke="#b6ecf3" points="1155.0772,-1097.268 1165.671,-1097.419 1157.4836,-1090.6946 1155.0772,-1097.268"/>
</g>
<!-- hidebound.exporters.local_disk_exporter -->
<g id="node14" class="node">
<title>hidebound.exporters.local_disk_exporter</title>
<polygon fill="#343434" stroke="#343434" points="1390,-467.4501 1052,-467.4501 1052,-431.4501 1390,-431.4501 1390,-467.4501"/>
<text text-anchor="middle" x="1221" y="-445.7501" font-family="Courier,monospace" font-size="14.00" fill="#b6ecf3">hidebound.exporters.local_disk_exporter</text>
</g>
<!-- hidebound.core.tools&#45;&gt;hidebound.exporters.local_disk_exporter -->
<g id="edge16" class="edge">
<title>hidebound.core.tools&#45;&gt;hidebound.exporters.local_disk_exporter</title>
<path fill="none" stroke="#b6ecf3" d="M876.8308,-875.4278C893.9543,-820.1286 952.3333,-650.3309 1052,-546.4501 1083.712,-513.3972 1129.1552,-488.1731 1164.9333,-471.7426"/>
<polygon fill="#b6ecf3" stroke="#b6ecf3" points="1166.5865,-474.8371 1174.2766,-467.5492 1163.7202,-468.4508 1166.5865,-474.8371"/>
</g>
<!-- hidebound.core.traits&#45;&gt;hidebound.core.specifications -->
<g id="edge17" class="edge">
<title>hidebound.core.traits&#45;&gt;hidebound.core.specifications</title>
<path fill="none" stroke="#b6ecf3" d="M1316.2724,-1105.2311C1340.9636,-1100.4952 1367.0487,-1093.5709 1390,-1083.4501 1408.2998,-1075.3805 1409.2158,-1067.3263 1426,-1056.4501 1452.9707,-1038.9731 1484.5323,-1021.4362 1509.5665,-1008.1639"/>
<polygon fill="#b6ecf3" stroke="#b6ecf3" points="1511.2552,-1011.2303 1518.4737,-1003.475 1507.9945,-1005.0361 1511.2552,-1011.2303"/>
</g>
<!-- hidebound.core.validators&#45;&gt;hidebound.core.config -->
<g id="edge18" class="edge">
<title>hidebound.core.validators&#45;&gt;hidebound.core.config</title>
<path fill="none" stroke="#b6ecf3" d="M952.1692,-515.49C1059.6152,-535.0041 1252.1369,-553.8615 1390,-476.4501 1415.1507,-462.3277 1402.1181,-438.6258 1426,-422.4501 1433.241,-417.5456 1441.1998,-413.5057 1449.4966,-410.1813"/>
<polygon fill="#b6ecf3" stroke="#b6ecf3" points="1450.7894,-413.4354 1458.9873,-406.7238 1448.3933,-406.8582 1450.7894,-413.4354"/>
</g>
<!-- hidebound.core.validators&#45;&gt;hidebound.core.specification_base -->
<g id="edge19" class="edge">
<title>hidebound.core.validators&#45;&gt;hidebound.core.specification_base</title>
<path fill="none" stroke="#b6ecf3" d="M954.3266,-515.461C1006.5853,-526.8249 1074.1764,-541.5228 1128.2336,-553.2777"/>
<polygon fill="#b6ecf3" stroke="#b6ecf3" points="1127.6476,-556.732 1138.163,-555.4369 1129.1351,-549.8919 1127.6476,-556.732"/>
</g>
<!-- hidebound.core.validators&#45;&gt;hidebound.core.specifications -->
<g id="edge20" class="edge">
<title>hidebound.core.validators&#45;&gt;hidebound.core.specifications</title>
<path fill="none" stroke="#b6ecf3" d="M878.959,-515.7876C900.7291,-569.4562 965.8155,-730.9673 1016,-866.4501 1032.8441,-911.924 1012.9079,-940.7549 1052,-969.4501 1107.735,-1010.3618 1287.049,-1006.7272 1415.4519,-998.0363"/>
<polygon fill="#b6ecf3" stroke="#b6ecf3" points="1416.0349,-1001.5043 1425.7683,-997.3199 1415.5498,-994.5212 1416.0349,-1001.5043"/>
</g>
<!-- hidebound.exporters.girder_exporter -->
<g id="node13" class="node">
<title>hidebound.exporters.girder_exporter</title>
<polygon fill="#343434" stroke="#343434" points="1373.5,-277.4501 1068.5,-277.4501 1068.5,-241.4501 1373.5,-241.4501 1373.5,-277.4501"/>
<text text-anchor="middle" x="1221" y="-255.7501" font-family="Courier,monospace" font-size="14.00" fill="#b6ecf3">hidebound.exporters.girder_exporter</text>
</g>
<!-- hidebound.core.validators&#45;&gt;hidebound.exporters.girder_exporter -->
<g id="edge21" class="edge">
<title>hidebound.core.validators&#45;&gt;hidebound.exporters.girder_exporter</title>
<path fill="none" stroke="#b6ecf3" d="M940.5095,-479.438C967.1772,-469.4378 996.0173,-454.4342 1016,-432.4501 1049.4655,-395.6327 1017.7098,-362.5006 1052,-326.4501 1071.9446,-305.4816 1099.2817,-290.9386 1126.1574,-280.9082"/>
<polygon fill="#b6ecf3" stroke="#b6ecf3" points="1127.3784,-284.1888 1135.6315,-277.5454 1125.0368,-277.5921 1127.3784,-284.1888"/>
</g>
<!-- hidebound.core.validators&#45;&gt;hidebound.exporters.local_disk_exporter -->
<g id="edge22" class="edge">
<title>hidebound.core.validators&#45;&gt;hidebound.exporters.local_disk_exporter</title>
<path fill="none" stroke="#b6ecf3" d="M983.0449,-482.1306C1013.8224,-477.9037 1047.6229,-473.2615 1079.8405,-468.8368"/>
<polygon fill="#b6ecf3" stroke="#b6ecf3" points="1080.3524,-472.2995 1089.7831,-467.4713 1079.3999,-465.3645 1080.3524,-472.2995"/>
</g>
<!-- hidebound.exporters.s3_exporter -->
<g id="node15" class="node">
<title>hidebound.exporters.s3_exporter</title>
<polygon fill="#343434" stroke="#343434" points="1357,-371.4501 1085,-371.4501 1085,-335.4501 1357,-335.4501 1357,-371.4501"/>
<text text-anchor="middle" x="1221" y="-349.7501" font-family="Courier,monospace" font-size="14.00" fill="#b6ecf3">hidebound.exporters.s3_exporter</text>
</g>
<!-- hidebound.core.validators&#45;&gt;hidebound.exporters.s3_exporter -->
<g id="edge23" class="edge">
<title>hidebound.core.validators&#45;&gt;hidebound.exporters.s3_exporter</title>
<path fill="none" stroke="#b6ecf3" d="M914.8699,-479.3412C951.4134,-464.1038 1005.0915,-441.7714 1052,-422.4501 1090.4054,-406.6312 1133.7824,-388.9243 1166.9742,-375.4089"/>
<polygon fill="#b6ecf3" stroke="#b6ecf3" points="1168.5488,-378.5469 1176.4912,-371.5348 1165.9096,-372.0634 1168.5488,-378.5469"/>
</g>
<!-- hidebound.exporters.exporter_base -->
<g id="node12" class="node">
<title>hidebound.exporters.exporter_base</title>
<polygon fill="#343434" stroke="#343434" points="1016,-223.4501 727,-223.4501 727,-187.4501 1016,-187.4501 1016,-223.4501"/>
<text text-anchor="middle" x="871.5" y="-201.7501" font-family="Courier,monospace" font-size="14.00" fill="#b6ecf3">hidebound.exporters.exporter_base</text>
</g>
<!-- hidebound.exporters.exporter_base&#45;&gt;hidebound.exporters.girder_exporter -->
<g id="edge24" class="edge">
<title>hidebound.exporters.exporter_base&#45;&gt;hidebound.exporters.girder_exporter</title>
<path fill="none" stroke="#b6ecf3" d="M988.3643,-223.5064C1022.3196,-228.7527 1059.562,-234.5069 1094.102,-239.8435"/>
<polygon fill="#b6ecf3" stroke="#b6ecf3" points="1093.8286,-243.3427 1104.2458,-241.4108 1094.8975,-236.4248 1093.8286,-243.3427"/>
</g>
<!-- hidebound.exporters.exporter_base&#45;&gt;hidebound.exporters.local_disk_exporter -->
<g id="edge25" class="edge">
<title>hidebound.exporters.exporter_base&#45;&gt;hidebound.exporters.local_disk_exporter</title>
<path fill="none" stroke="#b6ecf3" d="M1004.6799,-223.4507C1008.6868,-226.1262 1012.4801,-229.115 1016,-232.4501 1065.1404,-279.0112 1007.828,-329.1515 1052,-380.4501 1070.9604,-402.4696 1098.0184,-417.5673 1124.9411,-427.8768"/>
<polygon fill="#b6ecf3" stroke="#b6ecf3" points="1123.8508,-431.2044 1134.4449,-431.3272 1126.2396,-424.6246 1123.8508,-431.2044"/>
</g>
<!-- hidebound.exporters.exporter_base&#45;&gt;hidebound.exporters.s3_exporter -->
<g id="edge26" class="edge">
<title>hidebound.exporters.exporter_base&#45;&gt;hidebound.exporters.s3_exporter</title>
<path fill="none" stroke="#b6ecf3" d="M999.8359,-223.4649C1005.4668,-226.094 1010.8893,-229.0742 1016,-232.4501 1040.0677,-248.3481 1029.5735,-268.3103 1052,-286.4501 1077.2429,-306.868 1109.4867,-321.6951 1139.0292,-332.1277"/>
<polygon fill="#b6ecf3" stroke="#b6ecf3" points="1137.9193,-335.447 1148.5138,-335.362 1140.1786,-328.8217 1137.9193,-335.447"/>
</g>
<!-- hidebound.exporters.girder_exporter&#45;&gt;hidebound.core.config -->
<g id="edge27" class="edge">
<title>hidebound.exporters.girder_exporter&#45;&gt;hidebound.core.config</title>
<path fill="none" stroke="#b6ecf3" d="M1342.6193,-277.4612C1358.8285,-281.5162 1375.0127,-286.4521 1390,-292.4501 1407.6274,-299.5047 1409.9495,-305.3074 1426,-315.4501 1456.3194,-334.6096 1490.805,-356.1486 1516.3362,-372.0466"/>
<polygon fill="#b6ecf3" stroke="#b6ecf3" points="1514.6326,-375.1088 1524.972,-377.4215 1518.3315,-369.1659 1514.6326,-375.1088"/>
</g>
<!-- hidebound.exporters.girder_exporter&#45;&gt;hidebound.core.database -->
<g id="edge28" class="edge">
<title>hidebound.exporters.girder_exporter&#45;&gt;hidebound.core.database</title>
<path fill="none" stroke="#b6ecf3" d="M1373.6263,-251.7108C1477.279,-255.4952 1608.4285,-279.7501 1682,-368.4501 1732.9045,-429.822 1664.7256,-666.1238 1718,-725.4501 1722.6388,-730.6159 1727.995,-734.9329 1733.8311,-738.5303"/>
<polygon fill="#b6ecf3" stroke="#b6ecf3" points="1732.2328,-741.6447 1742.6974,-743.3009 1735.5497,-735.4804 1732.2328,-741.6447"/>
</g>
<!-- hidebound.exporters.local_disk_exporter&#45;&gt;hidebound.core.config -->
<g id="edge29" class="edge">
<title>hidebound.exporters.local_disk_exporter&#45;&gt;hidebound.core.config</title>
<path fill="none" stroke="#b6ecf3" d="M1332.3471,-431.3938C1369.8501,-425.3122 1411.5617,-418.5482 1448.5924,-412.5432"/>
<polygon fill="#b6ecf3" stroke="#b6ecf3" points="1449.5947,-415.9265 1458.9055,-410.8708 1448.4742,-409.0167 1449.5947,-415.9265"/>
</g>
<!-- hidebound.exporters.local_disk_exporter&#45;&gt;hidebound.core.database -->
<g id="edge30" class="edge">
<title>hidebound.exporters.local_disk_exporter&#45;&gt;hidebound.core.database</title>
<path fill="none" stroke="#b6ecf3" d="M1276.2173,-467.5411C1317.2152,-480.4998 1374.6757,-497.6723 1426,-509.4501 1538.4488,-535.2547 1598.8548,-472.4658 1682,-552.4501 1738.5988,-606.8971 1662.5424,-669.8411 1718,-725.4501 1722.6834,-730.1463 1727.964,-734.1224 1733.6445,-737.4816"/>
<polygon fill="#b6ecf3" stroke="#b6ecf3" points="1732.3834,-740.7702 1742.8719,-742.2674 1735.6063,-734.5563 1732.3834,-740.7702"/>
</g>
<!-- hidebound.exporters.s3_exporter&#45;&gt;hidebound.core.config -->
<g id="edge31" class="edge">
<title>hidebound.exporters.s3_exporter&#45;&gt;hidebound.core.config</title>
<path fill="none" stroke="#b6ecf3" d="M1357.4047,-370.6543C1387.7714,-374.4843 1419.5197,-378.4886 1448.426,-382.1345"/>
<polygon fill="#b6ecf3" stroke="#b6ecf3" points="1448.1656,-385.6293 1458.525,-383.4082 1449.0416,-378.6843 1448.1656,-385.6293"/>
</g>
<!-- hidebound.exporters.s3_exporter&#45;&gt;hidebound.core.database -->
<g id="edge32" class="edge">
<title>hidebound.exporters.s3_exporter&#45;&gt;hidebound.core.database</title>
<path fill="none" stroke="#b6ecf3" d="M1290.5565,-371.4932C1323.1997,-382.4158 1361.1675,-398.8848 1390,-422.4501 1412.3338,-440.7039 1401.4927,-461.2386 1426,-476.4501 1523.4699,-536.949 1599.3966,-429.8438 1682,-509.4501 1752.0782,-576.9856 1650.6677,-655.1766 1718,-725.4501 1722.7506,-730.4082 1728.1644,-734.5717 1734.0186,-738.0592"/>
<polygon fill="#b6ecf3" stroke="#b6ecf3" points="1732.4017,-741.1634 1742.8847,-742.699 1735.6474,-734.9613 1732.4017,-741.1634"/>
</g>
<!-- hidebound.server.api&#45;&gt;hidebound.server.app -->
<g id="edge33" class="edge">
<title>hidebound.server.api&#45;&gt;hidebound.server.app</title>
<path fill="none" stroke="#b6ecf3" d="M2220.5872,-980.4481C2238.2918,-983.752 2256.9485,-987.2336 2274.9516,-990.5932"/>
<polygon fill="#b6ecf3" stroke="#b6ecf3" points="2274.4035,-994.0513 2284.8759,-992.4452 2275.6877,-987.1701 2274.4035,-994.0513"/>
</g>
<!-- hidebound.server.components -->
<g id="node18" class="node">
<title>hidebound.server.components</title>
<polygon fill="#343434" stroke="#343434" points="2249,-1333.4501 2010,-1333.4501 2010,-1297.4501 2249,-1297.4501 2249,-1333.4501"/>
<text text-anchor="middle" x="2129.5" y="-1311.7501" font-family="Courier,monospace" font-size="14.00" fill="#b6ecf3">hidebound.server.components</text>
</g>
<!-- hidebound.server.components&#45;&gt;hidebound.server.app -->
<g id="edge34" class="edge">
<title>hidebound.server.components&#45;&gt;hidebound.server.app</title>
<path fill="none" stroke="#b6ecf3" d="M2148.6809,-1297.398C2173.1275,-1273.9861 2216.153,-1231.4041 2249,-1191.4501 2292.0837,-1139.0445 2335.9817,-1072.6288 2359.1919,-1036.2672"/>
<polygon fill="#b6ecf3" stroke="#b6ecf3" points="2362.228,-1038.0151 2364.634,-1027.6971 2356.3187,-1034.2627 2362.228,-1038.0151"/>
</g>
<!-- hidebound.server.server_tools -->
<g id="node19" class="node">
<title>hidebound.server.server_tools</title>
<polygon fill="#343434" stroke="#343434" points="1974,-1004.4501 1718,-1004.4501 1718,-968.4501 1974,-968.4501 1974,-1004.4501"/>
<text text-anchor="middle" x="1846" y="-982.7501" font-family="Courier,monospace" font-size="14.00" fill="#b6ecf3">hidebound.server.server_tools</text>
</g>
<!-- hidebound.server.server_tools&#45;&gt;hidebound.server.api -->
<g id="edge35" class="edge">
<title>hidebound.server.server_tools&#45;&gt;hidebound.server.api</title>
<path fill="none" stroke="#b6ecf3" d="M1974.0646,-976.0604C1992.2188,-974.5875 2010.6753,-973.0902 2028.2278,-971.6662"/>
<polygon fill="#b6ecf3" stroke="#b6ecf3" points="2028.7648,-975.1342 2038.449,-970.8369 2028.1987,-968.1571 2028.7648,-975.1342"/>
</g>
<!-- hidebound.server.server_tools&#45;&gt;hidebound.server.app -->
<g id="edge36" class="edge">
<title>hidebound.server.server_tools&#45;&gt;hidebound.server.app</title>
<path fill="none" stroke="#b6ecf3" d="M1974.2982,-992.0178C2066.5896,-996.0228 2189.3436,-1001.3499 2274.7615,-1005.0567"/>
<polygon fill="#b6ecf3" stroke="#b6ecf3" points="2274.8463,-1008.5636 2284.9886,-1005.5005 2275.1498,-1001.5702 2274.8463,-1008.5636"/>
</g>
<!-- dash -->
<g id="node20" class="node">
<title>dash</title>
<polygon fill="#343434" stroke="#343434" points="1873,-1556.4501 1819,-1556.4501 1819,-1520.4501 1873,-1520.4501 1873,-1556.4501"/>
<text text-anchor="middle" x="1846" y="-1534.7501" font-family="Courier,monospace" font-size="14.00" fill="#de958e">dash</text>
</g>
<!-- dash&#45;&gt;hidebound.server.app -->
<g id="edge37" class="edge">
<title>dash&#45;&gt;hidebound.server.app</title>
<path fill="none" stroke="#de958e" d="M1873.0742,-1538.5425C1945.2207,-1537.2577 2143.757,-1523.4681 2249,-1414.4501 2302.9335,-1358.582 2354.1424,-1120.1947 2370.5567,-1037.6875"/>
<polygon fill="#de958e" stroke="#de958e" points="2374.0125,-1038.2529 2372.5118,-1027.7649 2367.1445,-1036.8996 2374.0125,-1038.2529"/>
</g>
<!-- dash&#45;&gt;hidebound.server.components -->
<g id="edge38" class="edge">
<title>dash&#45;&gt;hidebound.server.components</title>
<path fill="none" stroke="#de958e" d="M1873.2068,-1537.9874C1900.5586,-1536.3708 1943.0007,-1530.627 1974,-1511.4501 2042.3405,-1469.173 2093.1174,-1385.636 2116.024,-1342.5553"/>
<polygon fill="#de958e" stroke="#de958e" points="2119.2201,-1343.9958 2120.7386,-1333.5103 2113.0127,-1340.7602 2119.2201,-1343.9958"/>
</g>
<!-- dash_core_components -->
<g id="node21" class="node">
<title>dash_core_components</title>
<polygon fill="#343434" stroke="#343434" points="1937,-1502.4501 1755,-1502.4501 1755,-1466.4501 1937,-1466.4501 1937,-1502.4501"/>
<text text-anchor="middle" x="1846" y="-1480.7501" font-family="Courier,monospace" font-size="14.00" fill="#de958e">dash_core_components</text>
</g>
<!-- dash_core_components&#45;&gt;hidebound.server.app -->
<g id="edge39" class="edge">
<title>dash_core_components&#45;&gt;hidebound.server.app</title>
<path fill="none" stroke="#de958e" d="M1937.395,-1475.6746C2028.356,-1462.1737 2166.028,-1428.0973 2249,-1342.4501 2335.0758,-1253.5991 2364.166,-1100.4196 2372.7794,-1037.5858"/>
<polygon fill="#de958e" stroke="#de958e" points="2376.2568,-1037.9857 2374.0758,-1027.6178 2369.3153,-1037.0829 2376.2568,-1037.9857"/>
</g>
<!-- dash_core_components&#45;&gt;hidebound.server.components -->
<g id="edge40" class="edge">
<title>dash_core_components&#45;&gt;hidebound.server.components</title>
<path fill="none" stroke="#de958e" d="M1937.3334,-1473.6886C1950.2485,-1469.7904 1962.893,-1464.5317 1974,-1457.4501 1996.4853,-1443.114 1991.3621,-1428.5221 2010,-1409.4501 2035.9095,-1382.9371 2069.356,-1357.2238 2094.2722,-1339.4121"/>
<polygon fill="#de958e" stroke="#de958e" points="2096.5572,-1342.0831 2102.7032,-1333.4531 2092.5169,-1336.3668 2096.5572,-1342.0831"/>
</g>
<!-- dash_cytoscape -->
<g id="node22" class="node">
<title>dash_cytoscape</title>
<polygon fill="#343434" stroke="#343434" points="1912,-1448.4501 1780,-1448.4501 1780,-1412.4501 1912,-1412.4501 1912,-1448.4501"/>
<text text-anchor="middle" x="1846" y="-1426.7501" font-family="Courier,monospace" font-size="14.00" fill="#de958e">dash_cytoscape</text>
</g>
<!-- dash_cytoscape&#45;&gt;hidebound.server.components -->
<g id="edge41" class="edge">
<title>dash_cytoscape&#45;&gt;hidebound.server.components</title>
<path fill="none" stroke="#de958e" d="M1912.0759,-1417.2033C1932.2723,-1412.2872 1954.3345,-1406.0242 1974,-1398.4501 2016.1055,-1382.2334 2061.2927,-1357.1635 2092.0441,-1338.8182"/>
<polygon fill="#de958e" stroke="#de958e" points="2093.9519,-1341.755 2100.7119,-1333.597 2090.34,-1335.7588 2093.9519,-1341.755"/>
</g>
<!-- hidebound.server -->
<g id="node23" class="node">
<title>hidebound.server</title>
<polygon fill="#343434" stroke="#343434" points="1628.5,-1356.4501 1479.5,-1356.4501 1479.5,-1320.4501 1628.5,-1320.4501 1628.5,-1356.4501"/>
<text text-anchor="middle" x="1554" y="-1334.7501" font-family="Courier,monospace" font-size="14.00" fill="#a0d17b">hidebound.server</text>
</g>
<!-- hidebound.server&#45;&gt;hidebound.server.api -->
<g id="edge42" class="edge">
<title>hidebound.server&#45;&gt;hidebound.server.api</title>
<path fill="none" stroke="#a0d17b" d="M1614.1128,-1320.3615C1638.4416,-1310.2086 1664.7915,-1295.1115 1682,-1273.4501 1723.5719,-1221.1209 1672.1221,-1176.0483 1718,-1127.4501 1799.7386,-1040.865 1864.3173,-1094.7954 1974,-1048.4501 2015.7866,-1030.7936 2061.0223,-1005.279 2091.8721,-986.8154"/>
<polygon fill="#a0d17b" stroke="#a0d17b" points="2093.8156,-989.7306 2100.5702,-981.5681 2090.1997,-983.7368 2093.8156,-989.7306"/>
</g>
<!-- hidebound.server&#45;&gt;hidebound.server.app -->
<g id="edge43" class="edge">
<title>hidebound.server&#45;&gt;hidebound.server.app</title>
<path fill="none" stroke="#a0d17b" d="M1560.3668,-1356.4865C1577.4756,-1401.8102 1629.2551,-1520.0828 1718,-1565.4501 1930.6857,-1674.1771 2082.7185,-1653.9356 2249,-1482.4501 2312.4828,-1416.9805 2358.7463,-1129.1313 2372.0756,-1037.5404"/>
<polygon fill="#a0d17b" stroke="#a0d17b" points="2375.5445,-1038.0064 2373.503,-1027.6101 2368.6157,-1037.0104 2375.5445,-1038.0064"/>
</g>
<!-- hidebound.server&#45;&gt;hidebound.server.components -->
<g id="edge44" class="edge">
<title>hidebound.server&#45;&gt;hidebound.server.components</title>
<path fill="none" stroke="#a0d17b" d="M1628.8012,-1353.0825C1713.1487,-1367.3098 1854.1729,-1384.2411 1974,-1365.4501 2008.8606,-1359.9833 2046.5708,-1348.0179 2076.1241,-1337.1629"/>
<polygon fill="#a0d17b" stroke="#a0d17b" points="2077.6789,-1340.3182 2085.8179,-1333.5353 2075.2255,-1333.7622 2077.6789,-1340.3182"/>
</g>
<!-- hidebound.server&#45;&gt;hidebound.server.server_tools -->
<g id="edge45" class="edge">
<title>hidebound.server&#45;&gt;hidebound.server.server_tools</title>
<path fill="none" stroke="#a0d17b" d="M1615.228,-1320.4411C1639.45,-1310.3512 1665.4151,-1295.2803 1682,-1273.4501 1731.0902,-1208.834 1676.6826,-1164.2925 1718,-1094.4501 1739.1305,-1058.7314 1776.4893,-1029.2692 1805.4113,-1010.1907"/>
<polygon fill="#a0d17b" stroke="#a0d17b" points="1807.5728,-1012.9618 1814.0889,-1004.6077 1803.7853,-1007.075 1807.5728,-1012.9618"/>
</g>
<!-- dash_html_components -->
<g id="node24" class="node">
<title>dash_html_components</title>
<polygon fill="#343434" stroke="#343434" points="1937,-1226.4501 1755,-1226.4501 1755,-1190.4501 1937,-1190.4501 1937,-1226.4501"/>
<text text-anchor="middle" x="1846" y="-1204.7501" font-family="Courier,monospace" font-size="14.00" fill="#de958e">dash_html_components</text>
</g>
<!-- dash_html_components&#45;&gt;hidebound.server.app -->
<g id="edge46" class="edge">
<title>dash_html_components&#45;&gt;hidebound.server.app</title>
<path fill="none" stroke="#de958e" d="M1937.403,-1203.4899C2022.2057,-1195.7631 2149.8885,-1175.9998 2249,-1125.4501 2292.3937,-1103.3181 2332.052,-1062.2916 2355.1161,-1035.4364"/>
<polygon fill="#de958e" stroke="#de958e" points="2357.9581,-1037.4954 2361.7269,-1027.5936 2352.6058,-1032.9839 2357.9581,-1037.4954"/>
</g>
<!-- dash_html_components&#45;&gt;hidebound.server.components -->
<g id="edge47" class="edge">
<title>dash_html_components&#45;&gt;hidebound.server.components</title>
<path fill="none" stroke="#de958e" d="M1928.6886,-1226.4829C1943.9236,-1230.5477 1959.5686,-1235.2281 1974,-1240.4501 2013.8454,-1254.868 2057.1056,-1276.2346 2087.8571,-1292.4781"/>
<polygon fill="#de958e" stroke="#de958e" points="2086.5104,-1295.7263 2096.9814,-1297.3413 2089.8029,-1289.549 2086.5104,-1295.7263"/>
</g>
<!-- dash.dependencies -->
<g id="node25" class="node">
<title>dash.dependencies</title>
<polygon fill="#343434" stroke="#343434" points="2208,-889.4501 2051,-889.4501 2051,-853.4501 2208,-853.4501 2208,-889.4501"/>
<text text-anchor="middle" x="2129.5" y="-867.7501" font-family="Courier,monospace" font-size="14.00" fill="#de958e">dash.dependencies</text>
</g>
<!-- dash.dependencies&#45;&gt;hidebound.server.app -->
<g id="edge48" class="edge">
<title>dash.dependencies&#45;&gt;hidebound.server.app</title>
<path fill="none" stroke="#de958e" d="M2208.1579,-887.2819C2222.1671,-891.5532 2236.3221,-896.8727 2249,-903.4501 2289.2557,-924.3349 2328.1709,-959.7864 2352.0826,-983.8876"/>
<polygon fill="#de958e" stroke="#de958e" points="2349.8111,-986.5712 2359.3016,-991.2809 2354.8196,-981.6808 2349.8111,-986.5712"/>
</g>
<!-- dash_table -->
<g id="node26" class="node">
<title>dash_table</title>
<polygon fill="#343434" stroke="#343434" points="1895.5,-1172.4501 1796.5,-1172.4501 1796.5,-1136.4501 1895.5,-1136.4501 1895.5,-1172.4501"/>
<text text-anchor="middle" x="1846" y="-1150.7501" font-family="Courier,monospace" font-size="14.00" fill="#de958e">dash_table</text>
</g>
<!-- dash_table&#45;&gt;hidebound.server.app -->
<g id="edge49" class="edge">
<title>dash_table&#45;&gt;hidebound.server.app</title>
<path fill="none" stroke="#de958e" d="M1895.5524,-1151.5948C1973.0952,-1145.8675 2126.8799,-1129.4031 2249,-1084.4501 2283.1779,-1071.869 2318.5803,-1050.1169 2343.2965,-1033.2679"/>
<polygon fill="#de958e" stroke="#de958e" points="2345.3453,-1036.1064 2351.5737,-1027.5357 2341.36,-1030.3516 2345.3453,-1036.1064"/>
</g>
<!-- dash_table&#45;&gt;hidebound.server.components -->
<g id="edge50" class="edge">
<title>dash_table&#45;&gt;hidebound.server.components</title>
<path fill="none" stroke="#de958e" d="M1895.6194,-1159.025C1920.1698,-1162.7289 1949.6761,-1169.4116 1974,-1181.4501 2028.2412,-1208.2954 2078.9483,-1258.4927 2106.9404,-1289.2459"/>
<polygon fill="#de958e" stroke="#de958e" points="2104.6054,-1291.8846 2113.8868,-1296.9941 2109.8174,-1287.2119 2104.6054,-1291.8846"/>
</g>
<!-- dash.exceptions -->
<g id="node27" class="node">
<title>dash.exceptions</title>
<polygon fill="#343434" stroke="#343434" points="2199.5,-835.4501 2059.5,-835.4501 2059.5,-799.4501 2199.5,-799.4501 2199.5,-835.4501"/>
<text text-anchor="middle" x="2129.5" y="-813.7501" font-family="Courier,monospace" font-size="14.00" fill="#de958e">dash.exceptions</text>
</g>
<!-- dash.exceptions&#45;&gt;hidebound.server.app -->
<g id="edge51" class="edge">
<title>dash.exceptions&#45;&gt;hidebound.server.app</title>
<path fill="none" stroke="#de958e" d="M2199.7026,-824.9006C2216.7597,-828.9156 2234.3024,-835.0603 2249,-844.4501 2302.97,-878.9298 2343.0655,-944.7121 2362.6416,-981.9562"/>
<polygon fill="#de958e" stroke="#de958e" points="2359.7133,-983.916 2367.3933,-991.2144 2365.9409,-980.7196 2359.7133,-983.916"/>
</g>
<!-- rolling_pin.blob_etl -->
<g id="node28" class="node">
<title>rolling_pin.blob_etl</title>
<polygon fill="#343434" stroke="#343434" points="1937,-1356.4501 1755,-1356.4501 1755,-1320.4501 1937,-1320.4501 1937,-1356.4501"/>
<text text-anchor="middle" x="1846" y="-1334.7501" font-family="Courier,monospace" font-size="14.00" fill="#de958e">rolling_pin.blob_etl</text>
</g>
<!-- rolling_pin.blob_etl&#45;&gt;hidebound.server.components -->
<g id="edge52" class="edge">
<title>rolling_pin.blob_etl&#45;&gt;hidebound.server.components</title>
<path fill="none" stroke="#de958e" d="M1937.2617,-1331.0461C1957.2441,-1329.425 1978.7663,-1327.6789 1999.924,-1325.9624"/>
<polygon fill="#de958e" stroke="#de958e" points="2000.2571,-1329.447 2009.9413,-1325.1497 1999.691,-1322.4699 2000.2571,-1329.447"/>
</g>
<!-- flask -->
<g id="node29" class="node">
<title>flask</title>
<polygon fill="#343434" stroke="#343434" points="1583,-1264.4501 1525,-1264.4501 1525,-1228.4501 1583,-1228.4501 1583,-1264.4501"/>
<text text-anchor="middle" x="1554" y="-1242.7501" font-family="Courier,monospace" font-size="14.00" fill="#de958e">flask</text>
</g>
<!-- flask&#45;&gt;hidebound.server.api -->
<g id="edge53" class="edge">
<title>flask&#45;&gt;hidebound.server.api</title>
<path fill="none" stroke="#de958e" d="M1583.0662,-1248.6861C1612.0927,-1249.2276 1656.0223,-1245.1827 1682,-1219.4501 1734.7085,-1167.2389 1664.2202,-1107.5571 1718,-1056.4501 1801.6318,-976.9747 1861.9012,-1040.7351 1974,-1013.4501 2006.1815,-1005.6171 2041.3659,-994.5238 2070.1145,-984.7757"/>
<polygon fill="#de958e" stroke="#de958e" points="2071.2758,-988.0777 2079.6037,-981.5281 2069.0091,-981.4548 2071.2758,-988.0777"/>
</g>
<!-- flask&#45;&gt;hidebound.server.app -->
<g id="edge54" class="edge">
<title>flask&#45;&gt;hidebound.server.app</title>
<path fill="none" stroke="#de958e" d="M1583.0698,-1247.8144C1611.4745,-1247.5841 1654.3606,-1242.8653 1682,-1219.4501 1715.5019,-1191.0683 1684.07,-1155.3186 1718,-1127.4501 1801.563,-1058.8153 2112.1272,-1027.5773 2274.9358,-1015.6598"/>
<polygon fill="#de958e" stroke="#de958e" points="2275.2421,-1019.1469 2284.9643,-1014.9365 2274.7384,-1012.165 2275.2421,-1019.1469"/>
</g>
<!-- flask&#45;&gt;hidebound.server.components -->
<g id="edge55" class="edge">
<title>flask&#45;&gt;hidebound.server.components</title>
<path fill="none" stroke="#de958e" d="M1583.2058,-1247.094C1651.803,-1248.9501 1828.4095,-1255.7278 1974,-1278.4501 2000.2627,-1282.5489 2028.6418,-1288.7604 2053.877,-1294.9297"/>
<polygon fill="#de958e" stroke="#de958e" points="2053.1993,-1298.3676 2063.7479,-1297.3792 2054.8853,-1291.5737 2053.1993,-1298.3676"/>
</g>
<!-- flask&#45;&gt;hidebound.server.server_tools -->
<g id="edge56" class="edge">
<title>flask&#45;&gt;hidebound.server.server_tools</title>
<path fill="none" stroke="#de958e" d="M1583.0101,-1248.8926C1612.2061,-1249.6348 1656.465,-1245.7804 1682,-1219.4501 1745.1819,-1154.3004 1656.037,-1084.7602 1718,-1018.4501 1720.7796,-1015.4755 1723.7903,-1012.7596 1726.9864,-1010.281"/>
<polygon fill="#de958e" stroke="#de958e" points="1729.0145,-1013.1342 1735.2875,-1004.5961 1725.0592,-1007.3588 1729.0145,-1013.1342"/>
</g>
<!-- jinja2 -->
<g id="node30" class="node">
<title>jinja2</title>
<polygon fill="#343434" stroke="#343434" points="1587,-1210.4501 1521,-1210.4501 1521,-1174.4501 1587,-1174.4501 1587,-1210.4501"/>
<text text-anchor="middle" x="1554" y="-1188.7501" font-family="Courier,monospace" font-size="14.00" fill="#de958e">jinja2</text>
</g>
<!-- jinja2&#45;&gt;hidebound.server.server_tools -->
<g id="edge57" class="edge">
<title>jinja2&#45;&gt;hidebound.server.server_tools</title>
<path fill="none" stroke="#de958e" d="M1587.1509,-1193.1056C1616.0376,-1191.8316 1657.0963,-1185.2714 1682,-1160.4501 1728.1143,-1114.4883 1671.8857,-1064.4119 1718,-1018.4501 1721.1028,-1015.3575 1724.4564,-1012.5484 1728.006,-1009.9977"/>
<polygon fill="#de958e" stroke="#de958e" points="1730.0704,-1012.8324 1736.6183,-1004.5032 1726.3054,-1006.9311 1730.0704,-1012.8324"/>
</g>
<!-- flasgger -->
<g id="node31" class="node">
<title>flasgger</title>
<polygon fill="#343434" stroke="#343434" points="1887.5,-716.4501 1804.5,-716.4501 1804.5,-680.4501 1887.5,-680.4501 1887.5,-716.4501"/>
<text text-anchor="middle" x="1846" y="-694.7501" font-family="Courier,monospace" font-size="14.00" fill="#de958e">flasgger</text>
</g>
<!-- flasgger&#45;&gt;hidebound.server.api -->
<g id="edge58" class="edge">
<title>flasgger&#45;&gt;hidebound.server.api</title>
<path fill="none" stroke="#de958e" d="M1887.7245,-695.9765C1915.9604,-696.6903 1951.9914,-702.6601 1974,-725.4501 2038.5646,-792.3069 1947.2554,-862.8823 2010,-931.4501 2015.5051,-937.4662 2022.006,-942.4016 2029.0861,-946.4446"/>
<polygon fill="#de958e" stroke="#de958e" points="2027.8272,-949.7294 2038.3327,-951.1026 2030.9765,-943.4778 2027.8272,-949.7294"/>
</g>
<!-- flasgger&#45;&gt;hidebound.server.app -->
<g id="edge59" class="edge">
<title>flasgger&#45;&gt;hidebound.server.app</title>
<path fill="none" stroke="#de958e" d="M1887.7834,-702.6038C1913.5187,-706.2786 1946.6967,-713.0702 1974,-725.4501 1992.215,-733.7092 1991.5834,-744.6509 2010,-752.4501 2109.0414,-794.3929 2160.3197,-729.588 2249,-790.4501 2317.3655,-837.3699 2353.9398,-934.0707 2368.4513,-981.6997"/>
<polygon fill="#de958e" stroke="#de958e" points="2365.1113,-982.748 2371.2931,-991.3524 2371.8263,-980.771 2365.1113,-982.748"/>
</g>
<!-- flask_monitoringdashboard -->
<g id="node32" class="node">
<title>flask_monitoringdashboard</title>
<polygon fill="#343434" stroke="#343434" points="2241,-743.4501 2018,-743.4501 2018,-707.4501 2241,-707.4501 2241,-743.4501"/>
<text text-anchor="middle" x="2129.5" y="-721.7501" font-family="Courier,monospace" font-size="14.00" fill="#de958e">flask_monitoringdashboard</text>
</g>
<!-- flask_monitoringdashboard&#45;&gt;hidebound.server.app -->
<g id="edge60" class="edge">
<title>flask_monitoringdashboard&#45;&gt;hidebound.server.app</title>
<path fill="none" stroke="#de958e" d="M2226.3307,-743.4935C2234.46,-747.2966 2242.1685,-751.8939 2249,-757.4501 2322.0722,-816.8813 2357.0179,-929.174 2369.8904,-981.4118"/>
<polygon fill="#de958e" stroke="#de958e" points="2366.5266,-982.3952 2372.2419,-991.3163 2373.3372,-980.7782 2366.5266,-982.3952"/>
</g>
<!-- pandasql -->
<g id="node33" class="node">
<title>pandasql</title>
<polygon fill="#343434" stroke="#343434" points="1595.5,-467.4501 1512.5,-467.4501 1512.5,-431.4501 1595.5,-431.4501 1595.5,-467.4501"/>
<text text-anchor="middle" x="1554" y="-445.7501" font-family="Courier,monospace" font-size="14.00" fill="#de958e">pandasql</text>
</g>
<!-- pandasql&#45;&gt;hidebound.core.database -->
<g id="edge61" class="edge">
<title>pandasql&#45;&gt;hidebound.core.database</title>
<path fill="none" stroke="#de958e" d="M1595.7633,-448.5684C1624.2052,-450.343 1660.4678,-457.6854 1682,-481.4501 1755.6022,-562.6837 1642.9041,-645.5952 1718,-725.4501 1722.5947,-730.3359 1727.8326,-734.4539 1733.5043,-737.916"/>
<polygon fill="#de958e" stroke="#de958e" points="1732.2716,-741.2247 1742.7437,-742.8328 1735.5601,-735.0452 1732.2716,-741.2247"/>
</g>
<!-- requests -->
<g id="node34" class="node">
<title>requests</title>
<polygon fill="#343434" stroke="#343434" points="1595.5,-597.4501 1512.5,-597.4501 1512.5,-561.4501 1595.5,-561.4501 1595.5,-597.4501"/>
<text text-anchor="middle" x="1554" y="-575.7501" font-family="Courier,monospace" font-size="14.00" fill="#de958e">requests</text>
</g>
<!-- requests&#45;&gt;hidebound.core.database -->
<g id="edge62" class="edge">
<title>requests&#45;&gt;hidebound.core.database</title>
<path fill="none" stroke="#de958e" d="M1595.54,-579.7463C1623.3245,-582.1275 1658.8945,-589.7105 1682,-611.4501 1720.6971,-647.8595 1678.6344,-689.7645 1718,-725.4501 1722.8034,-729.8045 1728.1272,-733.5235 1733.7957,-736.6947"/>
<polygon fill="#de958e" stroke="#de958e" points="1732.4476,-739.9328 1742.9615,-741.2396 1735.5573,-733.6615 1732.4476,-739.9328"/>
</g>
<!-- jsoncomment -->
<g id="node35" class="node">
<title>jsoncomment</title>
<polygon fill="#343434" stroke="#343434" points="645.5,-223.4501 538.5,-223.4501 538.5,-187.4501 645.5,-187.4501 645.5,-223.4501"/>
<text text-anchor="middle" x="592" y="-201.7501" font-family="Courier,monospace" font-size="14.00" fill="#de958e">jsoncomment</text>
</g>
<!-- jsoncomment&#45;&gt;hidebound.core.database -->
<g id="edge63" class="edge">
<title>jsoncomment&#45;&gt;hidebound.core.database</title>
<path fill="none" stroke="#de958e" d="M633.6446,-187.2051C652.8609,-177.2506 674.9215,-163.4646 691,-146.4501 714.7573,-121.3097 697.4206,-95.3807 727,-77.4501 979.3156,75.4997 1105.7655,-32.2825 1390,-111.4501 1529.018,-150.1707 1600.8569,-134.1141 1682,-253.4501 1741.1487,-340.4392 1648.6754,-646.3314 1718,-725.4501 1722.6258,-730.7294 1728.0003,-735.1275 1733.8753,-738.7803"/>
<polygon fill="#de958e" stroke="#de958e" points="1732.3511,-741.935 1742.812,-743.6145 1735.6816,-735.7781 1732.3511,-741.935"/>
</g>
<!-- jsoncomment&#45;&gt;hidebound.exporters.exporter_base -->
<g id="edge64" class="edge">
<title>jsoncomment&#45;&gt;hidebound.exporters.exporter_base</title>
<path fill="none" stroke="#de958e" d="M645.5597,-205.4501C666.2701,-205.4501 691.1239,-205.4501 716.6576,-205.4501"/>
<polygon fill="#de958e" stroke="#de958e" points="716.8538,-208.9502 726.8538,-205.4501 716.8538,-201.9502 716.8538,-208.9502"/>
</g>
<!-- jsoncomment&#45;&gt;hidebound.server.server_tools -->
<g id="edge65" class="edge">
<title>jsoncomment&#45;&gt;hidebound.server.server_tools</title>
<path fill="none" stroke="#de958e" d="M631.3569,-223.5715C653.0106,-235.7908 678.0477,-254.1372 691,-278.4501 734.1927,-359.5275 664.45,-1037.1697 727,-1104.4501 826.021,-1210.9596 906.8178,-1133.9913 1052,-1142.4501 1192.354,-1150.6276 1570.9056,-1170.6136 1682,-1084.4501 1708.8202,-1063.6487 1691.9425,-1036.7065 1717.3766,-1011.2553"/>
<polygon fill="#de958e" stroke="#de958e" points="1719.9661,-1013.6449 1725.2702,-1004.4733 1715.4043,-1008.3354 1719.9661,-1013.6449"/>
</g>
<!-- girder_client -->
<g id="node36" class="node">
<title>girder_client</title>
<polygon fill="#343434" stroke="#343434" points="933.5,-169.4501 809.5,-169.4501 809.5,-133.4501 933.5,-133.4501 933.5,-169.4501"/>
<text text-anchor="middle" x="871.5" y="-147.7501" font-family="Courier,monospace" font-size="14.00" fill="#de958e">girder_client</text>
</g>
<!-- girder_client&#45;&gt;hidebound.exporters.girder_exporter -->
<g id="edge66" class="edge">
<title>girder_client&#45;&gt;hidebound.exporters.girder_exporter</title>
<path fill="none" stroke="#de958e" d="M933.633,-160.3766C959.3819,-164.7664 989.392,-170.7842 1016,-178.4501 1070.9247,-194.2741 1131.5436,-219.2071 1172.5145,-237.2328"/>
<polygon fill="#de958e" stroke="#de958e" points="1171.1585,-240.4602 1181.7191,-241.3118 1173.9946,-234.0604 1171.1585,-240.4602"/>
</g>
<!-- flask_healthz -->
<g id="node37" class="node">
<title>flask_healthz</title>
<polygon fill="#343434" stroke="#343434" points="2191.5,-689.4501 2067.5,-689.4501 2067.5,-653.4501 2191.5,-653.4501 2191.5,-689.4501"/>
<text text-anchor="middle" x="2129.5" y="-667.7501" font-family="Courier,monospace" font-size="14.00" fill="#de958e">flask_healthz</text>
</g>
<!-- flask_healthz&#45;&gt;hidebound.server.app -->
<g id="edge67" class="edge">
<title>flask_healthz&#45;&gt;hidebound.server.app</title>
<path fill="none" stroke="#de958e" d="M2191.6937,-674.2158C2211.853,-677.8658 2233.0933,-684.9796 2249,-698.4501 2337.5901,-773.4718 2365.1956,-919.8477 2373.0937,-981.262"/>
<polygon fill="#de958e" stroke="#de958e" points="2369.6406,-981.8622 2374.3122,-991.3715 2376.5903,-981.0245 2369.6406,-981.8622"/>
</g>
<!-- lunchbox.tools -->
<g id="node38" class="node">
<title>lunchbox.tools</title>
<polygon fill="#343434" stroke="#343434" points="1287,-927.4501 1155,-927.4501 1155,-891.4501 1287,-891.4501 1287,-927.4501"/>
<text text-anchor="middle" x="1221" y="-905.7501" font-family="Courier,monospace" font-size="14.00" fill="#de958e">lunchbox.tools</text>
</g>
<!-- lunchbox.tools&#45;&gt;hidebound.core.database_tools -->
<g id="edge68" class="edge">
<title>lunchbox.tools&#45;&gt;hidebound.core.database_tools</title>
<path fill="none" stroke="#de958e" d="M1287.404,-906.6763C1319.4926,-903.4044 1357.9062,-896.5651 1390,-882.4501 1446.7205,-857.5041 1500.6534,-808.0994 1530.3391,-777.8962"/>
<polygon fill="#de958e" stroke="#de958e" points="1532.9071,-780.2756 1537.3508,-770.6578 1527.8792,-775.4053 1532.9071,-780.2756"/>
</g>
<!-- lunchbox.tools&#45;&gt;hidebound.server.server_tools -->
<g id="edge69" class="edge">
<title>lunchbox.tools&#45;&gt;hidebound.server.server_tools</title>
<path fill="none" stroke="#de958e" d="M1287.1949,-915.1609C1376.8764,-923.2002 1541.8816,-939.0619 1682,-958.4501 1699.623,-960.8886 1718.2595,-963.7746 1736.4016,-966.7515"/>
<polygon fill="#de958e" stroke="#de958e" points="1735.9824,-970.2297 1746.4202,-968.4125 1737.1273,-963.324 1735.9824,-970.2297"/>
</g>
<!-- boto3 -->
<g id="node39" class="node">
<title>boto3</title>
<polygon fill="#343434" stroke="#343434" points="900.5,-369.4501 842.5,-369.4501 842.5,-333.4501 900.5,-333.4501 900.5,-369.4501"/>
<text text-anchor="middle" x="871.5" y="-347.7501" font-family="Courier,monospace" font-size="14.00" fill="#de958e">boto3</text>
</g>
<!-- boto3&#45;&gt;hidebound.exporters.s3_exporter -->
<g id="edge70" class="edge">
<title>boto3&#45;&gt;hidebound.exporters.s3_exporter</title>
<path fill="none" stroke="#de958e" d="M900.697,-351.6172C939.1621,-351.8373 1009.5647,-352.2402 1074.589,-352.6123"/>
<polygon fill="#de958e" stroke="#de958e" points="1074.9533,-356.1143 1084.9731,-352.6717 1074.9934,-349.1144 1074.9533,-356.1143"/>
</g>
<!-- hidebound.exporters -->
<g id="node40" class="node">
<title>hidebound.exporters</title>
<polygon fill="#343434" stroke="#343434" points="678.5,-323.4501 505.5,-323.4501 505.5,-287.4501 678.5,-287.4501 678.5,-323.4501"/>
<text text-anchor="middle" x="592" y="-301.7501" font-family="Courier,monospace" font-size="14.00" fill="#a0d17b">hidebound.exporters</text>
</g>
<!-- hidebound.exporters&#45;&gt;hidebound.exporters.exporter_base -->
<g id="edge71" class="edge">
<title>hidebound.exporters&#45;&gt;hidebound.exporters.exporter_base</title>
<path fill="none" stroke="#a0d17b" d="M619.2606,-287.4049C645.7246,-270.7027 687.5656,-246.409 727,-232.4501 733.3848,-230.19 739.9988,-228.1084 746.7258,-226.1924"/>
<polygon fill="#a0d17b" stroke="#a0d17b" points="747.913,-229.497 756.649,-223.5024 746.0815,-222.7408 747.913,-229.497"/>
</g>
<!-- hidebound.exporters&#45;&gt;hidebound.exporters.girder_exporter -->
<g id="edge72" class="edge">
<title>hidebound.exporters&#45;&gt;hidebound.exporters.girder_exporter</title>
<path fill="none" stroke="#a0d17b" d="M626.5579,-287.2848C647.838,-274.5121 674.174,-255.596 691,-232.4501 720.7509,-191.5247 685.954,-154.0344 727,-124.4501 831.1996,-49.3473 892.9622,-87.5763 1016,-124.4501 1087.7262,-145.9461 1157.5674,-201.5328 1194.3206,-234.2856"/>
<polygon fill="#a0d17b" stroke="#a0d17b" points="1192.3135,-237.1894 1202.0783,-241.3005 1197.0085,-231.9974 1192.3135,-237.1894"/>
</g>
<!-- hidebound.exporters&#45;&gt;hidebound.exporters.local_disk_exporter -->
<g id="edge73" class="edge">
<title>hidebound.exporters&#45;&gt;hidebound.exporters.local_disk_exporter</title>
<path fill="none" stroke="#a0d17b" d="M621.8498,-323.5059C642.6926,-337.0111 670.3663,-356.8151 691,-378.4501 710.9073,-399.3235 701.8065,-418.4043 727,-432.4501 779.5289,-461.7359 922.6264,-464.0488 1041.3695,-460.146"/>
<polygon fill="#a0d17b" stroke="#a0d17b" points="1041.8141,-463.6328 1051.6872,-459.7894 1041.5722,-456.637 1041.8141,-463.6328"/>
</g>
<!-- hidebound.exporters&#45;&gt;hidebound.exporters.s3_exporter -->
<g id="edge74" class="edge">
<title>hidebound.exporters&#45;&gt;hidebound.exporters.s3_exporter</title>
<path fill="none" stroke="#a0d17b" d="M678.6501,-306.907C764.4605,-308.9208 899.5269,-313.6271 1016,-324.4501 1042.4203,-326.9051 1070.6493,-330.3556 1097.4471,-334.0234"/>
<polygon fill="#a0d17b" stroke="#a0d17b" points="1097.2545,-337.5302 1107.6408,-335.4381 1098.2169,-330.5966 1097.2545,-337.5302"/>
</g>
<!-- numpy -->
<g id="node41" class="node">
<title>numpy</title>
<polygon fill="#343434" stroke="#343434" points="1250,-873.4501 1192,-873.4501 1192,-837.4501 1250,-837.4501 1250,-873.4501"/>
<text text-anchor="middle" x="1221" y="-851.7501" font-family="Courier,monospace" font-size="14.00" fill="#de958e">numpy</text>
</g>
<!-- numpy&#45;&gt;hidebound.core.database -->
<g id="edge75" class="edge">
<title>numpy&#45;&gt;hidebound.core.database</title>
<path fill="none" stroke="#de958e" d="M1250.3068,-850.6203C1335.2958,-836.6141 1585.184,-795.4326 1732.9261,-771.0847"/>
<polygon fill="#de958e" stroke="#de958e" points="1733.6474,-774.5131 1742.9452,-769.4335 1732.5091,-767.6063 1733.6474,-774.5131"/>
</g>
<!-- numpy&#45;&gt;hidebound.core.database_tools -->
<g id="edge76" class="edge">
<title>numpy&#45;&gt;hidebound.core.database_tools</title>
<path fill="none" stroke="#de958e" d="M1250.179,-851.9249C1284.2462,-847.353 1342.0414,-838.1725 1390,-823.4501 1431.5724,-810.6881 1476.7846,-790.617 1509.1886,-775.0662"/>
<polygon fill="#de958e" stroke="#de958e" points="1510.922,-778.1155 1518.3944,-770.6045 1507.869,-771.8163 1510.922,-778.1155"/>
</g>
<!-- numpy&#45;&gt;hidebound.server.api -->
<g id="edge77" class="edge">
<title>numpy&#45;&gt;hidebound.server.api</title>
<path fill="none" stroke="#de958e" d="M1250.2612,-856.7375C1351.2771,-861.4939 1694.4931,-880.2515 1974,-926.4501 1999.8622,-930.7248 2027.8104,-936.8824 2052.784,-942.9515"/>
<polygon fill="#de958e" stroke="#de958e" points="2052.0133,-946.3662 2062.5601,-945.3591 2053.6872,-939.5693 2052.0133,-946.3662"/>
</g>
<!-- hidebound -->
<g id="node42" class="node">
<title>hidebound</title>
<polygon fill="#343434" stroke="#343434" points="190,-778.4501 99,-778.4501 99,-742.4501 190,-742.4501 190,-778.4501"/>
<text text-anchor="middle" x="144.5" y="-756.7501" font-family="Courier,monospace" font-size="14.00" fill="#a0d17b">hidebound</text>
</g>
<!-- hidebound&#45;&gt;hidebound.server -->
<g id="edge78" class="edge">
<title>hidebound&#45;&gt;hidebound.server</title>
<path fill="none" stroke="#a0d17b" d="M190.2093,-759.081C220.8442,-760.3821 260.6168,-766.599 289,-787.4501 512.9754,-951.9892 314.0825,-1334.4501 592,-1334.4501 592,-1334.4501 592,-1334.4501 871.5,-1334.4501 1086.6601,-1334.4501 1339.9679,-1336.4626 1469.056,-1337.6326"/>
<polygon fill="#a0d17b" stroke="#a0d17b" points="1469.2355,-1341.1343 1479.2671,-1337.7257 1469.2995,-1334.1346 1469.2355,-1341.1343"/>
</g>
<!-- hidebound&#45;&gt;hidebound.exporters -->
<g id="edge79" class="edge">
<title>hidebound&#45;&gt;hidebound.exporters</title>
<path fill="none" stroke="#a0d17b" d="M190.0085,-765.0197C222.3978,-765.5521 264.3822,-760.2186 289,-733.4501 342.6753,-675.0855 273.7671,-438.9699 325,-378.4501 366.3856,-329.5627 437.0558,-311.7933 495.2968,-305.991"/>
<polygon fill="#a0d17b" stroke="#a0d17b" points="495.6228,-309.4759 505.2719,-305.1004 495.0003,-302.5036 495.6228,-309.4759"/>
</g>
<!-- hidebound.core -->
<g id="node49" class="node">
<title>hidebound.core</title>
<polygon fill="#343434" stroke="#343434" points="457,-778.4501 325,-778.4501 325,-742.4501 457,-742.4501 457,-778.4501"/>
<text text-anchor="middle" x="391" y="-756.7501" font-family="Courier,monospace" font-size="14.00" fill="#a0d17b">hidebound.core</text>
</g>
<!-- hidebound&#45;&gt;hidebound.core -->
<g id="edge80" class="edge">
<title>hidebound&#45;&gt;hidebound.core</title>
<path fill="none" stroke="#a0d17b" d="M190.2871,-760.4501C225.0707,-760.4501 273.6972,-760.4501 314.3758,-760.4501"/>
<polygon fill="#a0d17b" stroke="#a0d17b" points="314.5334,-763.9502 324.5333,-760.4501 314.5333,-756.9502 314.5334,-763.9502"/>
</g>
<!-- schematics -->
<g id="node43" class="node">
<title>schematics</title>
<polygon fill="#343434" stroke="#343434" points="921,-277.4501 822,-277.4501 822,-241.4501 921,-241.4501 921,-277.4501"/>
<text text-anchor="middle" x="871.5" y="-255.7501" font-family="Courier,monospace" font-size="14.00" fill="#de958e">schematics</text>
</g>
<!-- schematics&#45;&gt;hidebound.core.config -->
<g id="edge81" class="edge">
<title>schematics&#45;&gt;hidebound.core.config</title>
<path fill="none" stroke="#de958e" d="M921.2408,-267.3102C957.4597,-272.9311 1007.7189,-280.5194 1052,-286.4501 1201.9318,-306.5307 1243.7371,-287.8505 1390,-326.4501 1432.1347,-337.5697 1477.6344,-357.3878 1509.9949,-372.9406"/>
<polygon fill="#de958e" stroke="#de958e" points="1508.6547,-376.1808 1519.1781,-377.4092 1511.7177,-369.8864 1508.6547,-376.1808"/>
</g>
<!-- schematics&#45;&gt;hidebound.core.specification_base -->
<g id="edge82" class="edge">
<title>schematics&#45;&gt;hidebound.core.specification_base</title>
<path fill="none" stroke="#de958e" d="M921.2819,-269.8929C952.8844,-279.0628 992.1773,-295.6047 1016,-324.4501 1060.2085,-377.9792 1010.4761,-420.8127 1052,-476.4501 1078.0968,-511.4169 1120.794,-535.7714 1156.7408,-551.3313"/>
<polygon fill="#de958e" stroke="#de958e" points="1155.6234,-554.6579 1166.1992,-555.2933 1158.328,-548.2014 1155.6234,-554.6579"/>
</g>
<!-- schematics&#45;&gt;hidebound.exporters.girder_exporter -->
<g id="edge83" class="edge">
<title>schematics&#45;&gt;hidebound.exporters.girder_exporter</title>
<path fill="none" stroke="#de958e" d="M921.2037,-259.4501C957.2594,-259.4501 1008.2297,-259.4501 1057.9338,-259.4501"/>
<polygon fill="#de958e" stroke="#de958e" points="1058.1834,-262.9502 1068.1834,-259.4501 1058.1833,-255.9502 1058.1834,-262.9502"/>
</g>
<!-- schematics&#45;&gt;hidebound.exporters.local_disk_exporter -->
<g id="edge84" class="edge">
<title>schematics&#45;&gt;hidebound.exporters.local_disk_exporter</title>
<path fill="none" stroke="#de958e" d="M921.0006,-273.7469C950.9307,-284.2108 988.4891,-300.7518 1016,-324.4501 1038.4176,-343.7609 1029.2472,-361.5354 1052,-380.4501 1077.6188,-401.7473 1110.6948,-417.1886 1140.7837,-427.9922"/>
<polygon fill="#de958e" stroke="#de958e" points="1139.8398,-431.3693 1150.4346,-431.3384 1142.133,-424.7555 1139.8398,-431.3693"/>
</g>
<!-- schematics&#45;&gt;hidebound.exporters.s3_exporter -->
<g id="edge85" class="edge">
<title>schematics&#45;&gt;hidebound.exporters.s3_exporter</title>
<path fill="none" stroke="#de958e" d="M921.1816,-264.7129C949.9496,-269.1405 986.2412,-277.1473 1016,-291.4501 1034.5179,-300.3502 1033.3719,-311.783 1052,-320.4501 1061.8571,-325.0363 1072.3241,-328.9854 1083.0289,-332.386"/>
<polygon fill="#de958e" stroke="#de958e" points="1082.3318,-335.831 1092.916,-335.3572 1084.3465,-329.1272 1082.3318,-335.831"/>
</g>
<!-- schematics.types -->
<g id="node44" class="node">
<title>schematics.types</title>
<polygon fill="#343434" stroke="#343434" points="946,-423.4501 797,-423.4501 797,-387.4501 946,-387.4501 946,-423.4501"/>
<text text-anchor="middle" x="871.5" y="-401.7501" font-family="Courier,monospace" font-size="14.00" fill="#de958e">schematics.types</text>
</g>
<!-- schematics.types&#45;&gt;hidebound.core.config -->
<g id="edge86" class="edge">
<title>schematics.types&#45;&gt;hidebound.core.config</title>
<path fill="none" stroke="#de958e" d="M946.1649,-404.3561C1067.8961,-402.5725 1309.4776,-399.0328 1448.6238,-396.9941"/>
<polygon fill="#de958e" stroke="#de958e" points="1448.9267,-400.4901 1458.8743,-396.8439 1448.8241,-393.4909 1448.9267,-400.4901"/>
</g>
<!-- schematics.types&#45;&gt;hidebound.core.specification_base -->
<g id="edge87" class="edge">
<title>schematics.types&#45;&gt;hidebound.core.specification_base</title>
<path fill="none" stroke="#de958e" d="M912.8241,-423.4755C941.84,-436.2692 981.4737,-454.0202 1016,-470.4501 1072.0065,-497.1016 1135.7302,-529.4412 1177.0591,-550.6874"/>
<polygon fill="#de958e" stroke="#de958e" points="1175.5459,-553.8449 1186.039,-555.3103 1178.75,-547.6212 1175.5459,-553.8449"/>
</g>
<!-- schematics.types&#45;&gt;hidebound.core.specifications -->
<g id="edge88" class="edge">
<title>schematics.types&#45;&gt;hidebound.core.specifications</title>
<path fill="none" stroke="#de958e" d="M946.0573,-422.0893C972.3588,-431.7825 999.4714,-446.9313 1016,-470.4501 1075.7209,-555.4275 979.3025,-862.269 1052,-936.4501 1052,-936.4501 1266.9745,-957.4337 1415.566,-971.9376"/>
<polygon fill="#de958e" stroke="#de958e" points="1415.4072,-975.4387 1425.7,-972.9268 1416.0873,-968.4718 1415.4072,-975.4387"/>
</g>
<!-- schematics.types&#45;&gt;hidebound.exporters.girder_exporter -->
<g id="edge89" class="edge">
<title>schematics.types&#45;&gt;hidebound.exporters.girder_exporter</title>
<path fill="none" stroke="#de958e" d="M946.1849,-402.6068C969.979,-398.9017 995.4395,-391.7738 1016,-378.4501 1039.5892,-363.1637 1029.991,-343.9351 1052,-326.4501 1077.644,-306.0772 1110.2666,-291.212 1139.9966,-280.7367"/>
<polygon fill="#de958e" stroke="#de958e" points="1141.1972,-284.0253 1149.5351,-277.4885 1138.9406,-277.399 1141.1972,-284.0253"/>
</g>
<!-- schematics.types&#45;&gt;hidebound.exporters.local_disk_exporter -->
<g id="edge90" class="edge">
<title>schematics.types&#45;&gt;hidebound.exporters.local_disk_exporter</title>
<path fill="none" stroke="#de958e" d="M946.0478,-414.8352C981.5899,-419.3098 1025.4844,-424.8358 1067.6858,-430.1487"/>
<polygon fill="#de958e" stroke="#de958e" points="1067.4387,-433.6452 1077.7976,-431.4218 1068.3132,-426.7 1067.4387,-433.6452"/>
</g>
<!-- schematics.types&#45;&gt;hidebound.exporters.s3_exporter -->
<g id="edge91" class="edge">
<title>schematics.types&#45;&gt;hidebound.exporters.s3_exporter</title>
<path fill="none" stroke="#de958e" d="M946.0478,-394.3586C987.8728,-388.1357 1041.2643,-380.1919 1089.8519,-372.9628"/>
<polygon fill="#de958e" stroke="#de958e" points="1090.4442,-376.4133 1099.8202,-371.4797 1089.414,-369.4895 1090.4442,-376.4133"/>
</g>
<!-- wrapt -->
<g id="node45" class="node">
<title>wrapt</title>
<polygon fill="#343434" stroke="#343434" points="621,-515.4501 563,-515.4501 563,-479.4501 621,-479.4501 621,-515.4501"/>
<text text-anchor="middle" x="592" y="-493.7501" font-family="Courier,monospace" font-size="14.00" fill="#de958e">wrapt</text>
</g>
<!-- wrapt&#45;&gt;hidebound.core.validators -->
<g id="edge92" class="edge">
<title>wrapt&#45;&gt;hidebound.core.validators</title>
<path fill="none" stroke="#de958e" d="M621.1204,-497.4501C651.7958,-497.4501 702.1559,-497.4501 749.6982,-497.4501"/>
<polygon fill="#de958e" stroke="#de958e" points="749.7924,-500.9502 759.7923,-497.4501 749.7923,-493.9502 749.7924,-500.9502"/>
</g>
<!-- pyparsing -->
<g id="node46" class="node">
<title>pyparsing</title>
<polygon fill="#343434" stroke="#343434" points="436.5,-561.4501 345.5,-561.4501 345.5,-525.4501 436.5,-525.4501 436.5,-561.4501"/>
<text text-anchor="middle" x="391" y="-539.7501" font-family="Courier,monospace" font-size="14.00" fill="#de958e">pyparsing</text>
</g>
<!-- pyparsing&#45;&gt;hidebound.core.parser -->
<g id="edge93" class="edge">
<title>pyparsing&#45;&gt;hidebound.core.parser</title>
<path fill="none" stroke="#de958e" d="M434.1195,-561.4702C464.8812,-574.3258 506.4291,-591.6891 539.182,-605.3769"/>
<polygon fill="#de958e" stroke="#de958e" points="538.0292,-608.6884 548.6054,-609.3151 540.7283,-602.2297 538.0292,-608.6884"/>
</g>
<!-- pyparsing&#45;&gt;hidebound.core.specification_base -->
<g id="edge94" class="edge">
<title>pyparsing&#45;&gt;hidebound.core.specification_base</title>
<path fill="none" stroke="#de958e" d="M436.5098,-545.095C554.2629,-549.3512 873.2033,-560.8791 1066.227,-567.8559"/>
<polygon fill="#de958e" stroke="#de958e" points="1066.3454,-571.3624 1076.4653,-568.2259 1066.5983,-564.3669 1066.3454,-571.3624"/>
</g>
<!-- pyparsing&#45;&gt;hidebound.core.validators -->
<g id="edge95" class="edge">
<title>pyparsing&#45;&gt;hidebound.core.validators</title>
<path fill="none" stroke="#de958e" d="M408.923,-525.1793C427.8807,-507.2758 459.6177,-481.165 493,-470.4501 576.7896,-443.5556 603.2424,-463.9228 691,-470.4501 713.1576,-472.0981 736.7196,-474.8692 759.2541,-478.0243"/>
<polygon fill="#de958e" stroke="#de958e" points="758.7872,-481.4931 769.1828,-479.4479 759.7808,-474.564 758.7872,-481.4931"/>
</g>
<!-- pandas -->
<g id="node47" class="node">
<title>pandas</title>
<polygon fill="#343434" stroke="#343434" points="625,-819.4501 559,-819.4501 559,-783.4501 625,-783.4501 625,-819.4501"/>
<text text-anchor="middle" x="592" y="-797.7501" font-family="Courier,monospace" font-size="14.00" fill="#de958e">pandas</text>
</g>
<!-- pandas&#45;&gt;hidebound.core.database -->
<g id="edge96" class="edge">
<title>pandas&#45;&gt;hidebound.core.database</title>
<path fill="none" stroke="#de958e" d="M625.1253,-787.1876C652.024,-776.3388 691.2271,-762.1686 727,-755.4501 1144.357,-677.0663 1258.7587,-690.843 1682,-725.4501 1701.8053,-727.0695 1722.8228,-729.7715 1742.9671,-732.8564"/>
<polygon fill="#de958e" stroke="#de958e" points="1742.67,-736.3526 1753.0924,-734.4494 1743.7579,-729.4377 1742.67,-736.3526"/>
</g>
<!-- pandas&#45;&gt;hidebound.core.database_tools -->
<g id="edge97" class="edge">
<title>pandas&#45;&gt;hidebound.core.database_tools</title>
<path fill="none" stroke="#de958e" d="M625.12,-797.3019C700.6615,-788.0558 891.5709,-765.9063 1052,-757.4501 1174.8537,-750.9745 1314.8462,-750.1198 1415.728,-750.6562"/>
<polygon fill="#de958e" stroke="#de958e" points="1415.9609,-754.1576 1425.9813,-750.7163 1416.002,-747.1577 1415.9609,-754.1576"/>
</g>
<!-- pandas&#45;&gt;hidebound.core.tools -->
<g id="edge98" class="edge">
<title>pandas&#45;&gt;hidebound.core.tools</title>
<path fill="none" stroke="#de958e" d="M625.1599,-812.365C669.8591,-827.0781 750.3773,-853.5814 807.1703,-872.2754"/>
<polygon fill="#de958e" stroke="#de958e" points="806.1842,-875.6355 816.7772,-875.4376 808.3728,-868.9864 806.1842,-875.6355"/>
</g>
<!-- pandas&#45;&gt;hidebound.core.validators -->
<g id="edge99" class="edge">
<title>pandas&#45;&gt;hidebound.core.validators</title>
<path fill="none" stroke="#de958e" d="M625.2877,-792.9382C645.8059,-786.4846 671.7764,-776.0266 691,-760.4501 712.8379,-742.7553 813.5553,-587.7258 854.3109,-524.3108"/>
<polygon fill="#de958e" stroke="#de958e" points="857.416,-525.9526 859.8724,-515.6465 851.5252,-522.1714 857.416,-525.9526"/>
</g>
<!-- pandas&#45;&gt;hidebound.server.components -->
<g id="edge100" class="edge">
<title>pandas&#45;&gt;hidebound.server.components</title>
<path fill="none" stroke="#de958e" d="M625.1584,-814.3597C647.5605,-824.8922 675.7378,-842.0439 691,-866.4501 757.5244,-972.8311 645.6299,-1050.9445 727,-1146.4501 875.4766,-1320.7198 992.0563,-1292.4501 1221,-1292.4501 1221,-1292.4501 1221,-1292.4501 1554,-1292.4501 1707.2717,-1292.4501 1883.3219,-1300.6959 1999.9229,-1307.313"/>
<polygon fill="#de958e" stroke="#de958e" points="1999.7811,-1310.8105 2009.9647,-1307.8872 2000.1808,-1303.8219 1999.7811,-1310.8105"/>
</g>
<!-- schematics.exceptions -->
<g id="node48" class="node">
<title>schematics.exceptions</title>
<polygon fill="#343434" stroke="#343434" points="687,-751.4501 497,-751.4501 497,-715.4501 687,-715.4501 687,-751.4501"/>
<text text-anchor="middle" x="592" y="-729.7501" font-family="Courier,monospace" font-size="14.00" fill="#de958e">schematics.exceptions</text>
</g>
<!-- schematics.exceptions&#45;&gt;hidebound.core.config -->
<g id="edge101" class="edge">
<title>schematics.exceptions&#45;&gt;hidebound.core.config</title>
<path fill="none" stroke="#de958e" d="M627.226,-715.4076C649.6508,-701.8839 677.0207,-681.1352 691,-654.4501 745.7799,-549.8807 640.7446,-205.0454 727,-124.4501 836.0715,-22.5359 1261.3351,-156.7636 1390,-232.4501 1451.5027,-268.6287 1506.6631,-333.1498 1534.638,-369.2132"/>
<polygon fill="#de958e" stroke="#de958e" points="1531.9753,-371.4929 1540.8312,-377.3087 1537.535,-367.2396 1531.9753,-371.4929"/>
</g>
<!-- schematics.exceptions&#45;&gt;hidebound.core.database_tools -->
<g id="edge102" class="edge">
<title>schematics.exceptions&#45;&gt;hidebound.core.database_tools</title>
<path fill="none" stroke="#de958e" d="M687.1857,-724.6283C837.0915,-712.3436 1137.1614,-694.2645 1390,-719.4501 1416.4061,-722.0804 1444.8547,-727.0371 1470.5238,-732.3243"/>
<polygon fill="#de958e" stroke="#de958e" points="1470.0813,-735.8077 1480.5878,-734.4426 1471.5232,-728.9578 1470.0813,-735.8077"/>
</g>
<!-- schematics.exceptions&#45;&gt;hidebound.core.specification_base -->
<g id="edge103" class="edge">
<title>schematics.exceptions&#45;&gt;hidebound.core.specification_base</title>
<path fill="none" stroke="#de958e" d="M687.225,-722.1353C802.9114,-707.9834 986.3824,-684.0813 1016,-671.4501 1034.645,-663.4985 1034.4791,-653.6423 1052,-643.4501 1085.3544,-624.0474 1125.1182,-607.2937 1157.6933,-595.0453"/>
<polygon fill="#de958e" stroke="#de958e" points="1158.9572,-598.3096 1167.1168,-591.5516 1156.5238,-591.7462 1158.9572,-598.3096"/>
</g>
<!-- schematics.exceptions&#45;&gt;hidebound.core.tools -->
<g id="edge104" class="edge">
<title>schematics.exceptions&#45;&gt;hidebound.core.tools</title>
<path fill="none" stroke="#de958e" d="M640.683,-751.4651C656.9852,-758.0589 675.0592,-765.9934 691,-774.4501 745.1034,-803.1523 803.5679,-843.6112 838.8537,-869.1788"/>
<polygon fill="#de958e" stroke="#de958e" points="837.1658,-872.2797 847.3085,-875.342 841.2893,-866.623 837.1658,-872.2797"/>
</g>
<!-- schematics.exceptions&#45;&gt;hidebound.core.validators -->
<g id="edge105" class="edge">
<title>schematics.exceptions&#45;&gt;hidebound.core.validators</title>
<path fill="none" stroke="#de958e" d="M615.428,-715.2092C635.6314,-699.3714 665.4914,-675.7053 691,-654.4501 745.8779,-608.7226 808.4902,-553.5728 843.6737,-522.3015"/>
<polygon fill="#de958e" stroke="#de958e" points="846.0267,-524.8928 851.1706,-515.6305 841.3733,-519.6634 846.0267,-524.8928"/>
</g>
<!-- schematics.exceptions&#45;&gt;hidebound.server.api -->
<g id="edge106" class="edge">
<title>schematics.exceptions&#45;&gt;hidebound.server.api</title>
<path fill="none" stroke="#de958e" d="M662.9794,-751.707C673.7928,-757.371 683.7457,-764.7758 691,-774.4501 735.2557,-833.4688 675.0399,-1052.0866 727,-1104.4501 829.435,-1207.6804 906.8178,-1133.9913 1052,-1142.4501 1201.9679,-1151.1877 1258.7225,-1215.477 1390,-1142.4501 1416.5135,-1127.7012 1400.6442,-1101.1107 1426,-1084.4501 1522.1296,-1021.2859 1591.3371,-1117.2375 1682,-1046.4501 1714.9835,-1020.6974 1683.2103,-982.7049 1718,-959.4501 1766.9095,-926.7571 1923.1896,-937.783 2028.454,-949.8081"/>
<polygon fill="#de958e" stroke="#de958e" points="2028.1389,-953.295 2038.4763,-950.9735 2028.9475,-946.3418 2028.1389,-953.295"/>
</g>
<!-- hidebound.core&#45;&gt;hidebound.core.config -->
<g id="edge107" class="edge">
<title>hidebound.core&#45;&gt;hidebound.core.config</title>
<path fill="none" stroke="#a0d17b" d="M398.9898,-742.2697C413.2584,-708.9332 442.9407,-635.4692 457,-570.4501 475.4883,-484.9485 441.6431,-249.2654 493,-178.4501 559.5016,-86.7519 616.0687,-100.3685 727,-77.4501 1015.9516,-17.7526 1141.4166,47.4936 1390,-111.4501 1484.8023,-172.0664 1530.9717,-308.3528 1547.0964,-367.3466"/>
<polygon fill="#a0d17b" stroke="#a0d17b" points="1543.7368,-368.3328 1549.6799,-377.1038 1550.5036,-366.541 1543.7368,-368.3328"/>
</g>
<!-- hidebound.core&#45;&gt;hidebound.core.database -->
<g id="edge108" class="edge">
<title>hidebound.core&#45;&gt;hidebound.core.database</title>
<path fill="none" stroke="#a0d17b" d="M394.007,-778.8665C404.9478,-843.7337 444.5468,-1060.299 493,-1108.4501 659.2236,-1273.6374 781.8828,-1185.7588 1016,-1175.4501 1166.6048,-1168.8186 1571.4968,-1148.9919 1682,-1046.4501 1712.6741,-1017.9859 1698.9338,-996.7005 1718,-959.4501 1752.398,-892.2455 1801.1332,-818.0147 1827.4358,-779.3034"/>
<polygon fill="#a0d17b" stroke="#a0d17b" points="1830.5618,-780.9321 1833.3102,-770.6999 1824.7808,-776.9848 1830.5618,-780.9321"/>
</g>
<!-- hidebound.core&#45;&gt;hidebound.core.database_tools -->
<g id="edge109" class="edge">
<title>hidebound.core&#45;&gt;hidebound.core.database_tools</title>
<path fill="none" stroke="#a0d17b" d="M410.6165,-778.7489C429.9017,-795.3853 461.0198,-818.7673 493,-828.4501 577.2241,-853.9511 603.1546,-833.6635 691,-828.4501 852.2948,-818.8777 891.1062,-800.3103 1052,-785.4501 1174.7612,-774.1119 1314.7631,-765.2444 1415.6722,-759.57"/>
<polygon fill="#a0d17b" stroke="#a0d17b" points="1416.1392,-763.0495 1425.9283,-758.9967 1415.7485,-756.0604 1416.1392,-763.0495"/>
</g>
<!-- hidebound.core&#45;&gt;hidebound.core.logging -->
<g id="edge110" class="edge">
<title>hidebound.core&#45;&gt;hidebound.core.logging</title>
<path fill="none" stroke="#a0d17b" d="M397.3768,-742.0712C419.3615,-678.7396 490.7747,-473.2937 493,-470.4501 506.503,-453.1952 525.9184,-439.0426 543.9844,-428.3995"/>
<polygon fill="#a0d17b" stroke="#a0d17b" points="545.7347,-431.4305 552.7129,-423.4583 542.2863,-425.3389 545.7347,-431.4305"/>
</g>
<!-- hidebound.core&#45;&gt;hidebound.core.parser -->
<g id="edge111" class="edge">
<title>hidebound.core&#45;&gt;hidebound.core.parser</title>
<path fill="none" stroke="#a0d17b" d="M404.9108,-742.1594C422.924,-719.6633 456.3804,-681.7284 493,-659.4501 499.1534,-655.7066 505.7917,-652.3528 512.6147,-649.3583"/>
<polygon fill="#a0d17b" stroke="#a0d17b" points="514.089,-652.5365 522.005,-645.4947 511.4254,-646.063 514.089,-652.5365"/>
</g>
<!-- hidebound.core&#45;&gt;hidebound.core.specification_base -->
<g id="edge112" class="edge">
<title>hidebound.core&#45;&gt;hidebound.core.specification_base</title>
<path fill="none" stroke="#a0d17b" d="M419.384,-742.3821C439.2763,-730.4935 466.8753,-715.5095 493,-706.4501 549.6091,-686.8195 910.2503,-625.181 1101.7942,-593.1765"/>
<polygon fill="#a0d17b" stroke="#a0d17b" points="1102.6237,-596.5865 1111.9107,-591.4874 1101.4709,-589.6821 1102.6237,-596.5865"/>
</g>
<!-- hidebound.core&#45;&gt;hidebound.core.specifications -->
<g id="edge113" class="edge">
<title>hidebound.core&#45;&gt;hidebound.core.specifications</title>
<path fill="none" stroke="#a0d17b" d="M394.7773,-778.6006C403.9268,-817.5011 431.2313,-908.6763 493,-949.4501 659.6262,-1059.4407 1190.5523,-1009.5522 1390,-1000.4501 1398.314,-1000.0707 1406.8578,-999.5836 1415.4715,-999.0182"/>
<polygon fill="#a0d17b" stroke="#a0d17b" points="1415.8699,-1002.4992 1425.6058,-998.3204 1415.3889,-995.5157 1415.8699,-1002.4992"/>
</g>
<!-- hidebound.core&#45;&gt;hidebound.core.tools -->
<g id="edge114" class="edge">
<title>hidebound.core&#45;&gt;hidebound.core.tools</title>
<path fill="none" stroke="#a0d17b" d="M396.1904,-778.6512C407.2818,-813.6803 436.9655,-889.7197 493,-920.4501 596.1701,-977.0307 739.6244,-941.5157 816.929,-914.8726"/>
<polygon fill="#a0d17b" stroke="#a0d17b" points="818.2068,-918.1334 826.4766,-911.5106 815.8818,-911.5308 818.2068,-918.1334"/>
</g>
<!-- hidebound.core&#45;&gt;hidebound.core.traits -->
<g id="edge115" class="edge">
<title>hidebound.core&#45;&gt;hidebound.core.traits</title>
<path fill="none" stroke="#a0d17b" d="M391.852,-778.6384C395.2319,-829.0711 411.8666,-971.8062 493,-1045.4501 672.7899,-1208.6435 990.2016,-1167.0874 1139.3057,-1135.6135"/>
<polygon fill="#a0d17b" stroke="#a0d17b" points="1140.2721,-1138.9859 1149.3134,-1133.4626 1138.8011,-1132.1421 1140.2721,-1138.9859"/>
</g>
<!-- hidebound.core&#45;&gt;hidebound.core.validators -->
<g id="edge116" class="edge">
<title>hidebound.core&#45;&gt;hidebound.core.validators</title>
<path fill="none" stroke="#a0d17b" d="M397.4865,-742.2189C410.3215,-708.8248 442.193,-637.8437 493,-600.4501 536.0406,-568.7725 668.5683,-537.2231 764.6824,-517.5508"/>
<polygon fill="#a0d17b" stroke="#a0d17b" points="765.6409,-520.9277 774.7443,-515.5074 764.2477,-514.0677 765.6409,-520.9277"/>
</g>
<!-- OpenEXR -->
<g id="node50" class="node">
<title>OpenEXR</title>
<polygon fill="#343434" stroke="#343434" points="629,-911.4501 555,-911.4501 555,-875.4501 629,-875.4501 629,-911.4501"/>
<text text-anchor="middle" x="592" y="-889.7501" font-family="Courier,monospace" font-size="14.00" fill="#de958e">OpenEXR</text>
</g>
<!-- OpenEXR&#45;&gt;hidebound.core.tools -->
<g id="edge117" class="edge">
<title>OpenEXR&#45;&gt;hidebound.core.tools</title>
<path fill="none" stroke="#de958e" d="M629.1154,-893.4501C665.0273,-893.4501 721.0914,-893.4501 770.2581,-893.4501"/>
<polygon fill="#de958e" stroke="#de958e" points="770.3129,-896.9502 780.3129,-893.4501 770.3128,-889.9502 770.3129,-896.9502"/>
</g>
<!-- json_logging -->
<g id="node51" class="node">
<title>json_logging</title>
<polygon fill="#343434" stroke="#343434" points="449,-423.4501 333,-423.4501 333,-387.4501 449,-387.4501 449,-423.4501"/>
<text text-anchor="middle" x="391" y="-401.7501" font-family="Courier,monospace" font-size="14.00" fill="#de958e">json_logging</text>
</g>
<!-- json_logging&#45;&gt;hidebound.core.logging -->
<g id="edge118" class="edge">
<title>json_logging&#45;&gt;hidebound.core.logging</title>
<path fill="none" stroke="#de958e" d="M449.1375,-405.4501C459.7192,-405.4501 471.0677,-405.4501 482.5736,-405.4501"/>
<polygon fill="#de958e" stroke="#de958e" points="482.7099,-408.9502 492.7099,-405.4501 482.7099,-401.9502 482.7099,-408.9502"/>
</g>
<!-- selenium.webdriver.chrome.options -->
<g id="node52" class="node">
<title>selenium.webdriver.chrome.options</title>
<polygon fill="#343434" stroke="#343434" points="289,-832.4501 0,-832.4501 0,-796.4501 289,-796.4501 289,-832.4501"/>
<text text-anchor="middle" x="144.5" y="-810.7501" font-family="Courier,monospace" font-size="14.00" fill="#de958e">selenium.webdriver.chrome.options</text>
</g>
<!-- skimage.io -->
<g id="node53" class="node">
<title>skimage.io</title>
<polygon fill="#343434" stroke="#343434" points="921,-1095.4501 822,-1095.4501 822,-1059.4501 921,-1059.4501 921,-1095.4501"/>
<text text-anchor="middle" x="871.5" y="-1073.7501" font-family="Courier,monospace" font-size="14.00" fill="#de958e">skimage.io</text>
</g>
<!-- skimage.io&#45;&gt;hidebound.core.traits -->
<g id="edge119" class="edge">
<title>skimage.io&#45;&gt;hidebound.core.traits</title>
<path fill="none" stroke="#de958e" d="M921.2037,-1082.8542C971.5607,-1088.3294 1051.0103,-1096.9677 1115.471,-1103.9763"/>
<polygon fill="#de958e" stroke="#de958e" points="1115.3614,-1107.4849 1125.6812,-1105.0864 1116.1181,-1100.5259 1115.3614,-1107.4849"/>
</g>
</g>
</svg>
