<?xml version="1.0" encoding="UTF-8" standalone="no"?>
<!DOCTYPE svg PUBLIC "-//W3C//DTD SVG 1.1//EN"
 "http://www.w3.org/Graphics/SVG/1.1/DTD/svg11.dtd">
<!-- Generated by graphviz version 2.40.1 (20161225.0304)
 -->
<!-- Title: %3 Pages: 1 -->
<svg width="1312pt" height="948pt"
 viewBox="0.00 0.00 1312.00 948.44" xmlns="http://www.w3.org/2000/svg" xmlns:xlink="http://www.w3.org/1999/xlink">
<g id="graph0" class="graph" transform="scale(1 1) rotate(0) translate(4 944.4379)">
<title>%3</title>
<polygon fill="#242424" stroke="transparent" points="-4,4 -4,-944.4379 1308,-944.4379 1308,4 -4,4"/>
<!-- cli -->
<g id="node1" class="node">
<title>cli</title>
<polygon fill="#343434" stroke="#343434" points="72.5,-629.4379 18.5,-629.4379 18.5,-593.4379 72.5,-593.4379 72.5,-629.4379"/>
<text text-anchor="middle" x="45.5" y="-607.7379" font-family="Courier,monospace" font-size="14.00" fill="#b6ecf3">cli</text>
</g>
<!-- hidebound.config -->
<g id="node2" class="node">
<title>hidebound.config</title>
<polygon fill="#343434" stroke="#343434" points="1053.5,-489.4379 904.5,-489.4379 904.5,-453.4379 1053.5,-453.4379 1053.5,-489.4379"/>
<text text-anchor="middle" x="979" y="-467.7379" font-family="Courier,monospace" font-size="14.00" fill="#b6ecf3">hidebound.config</text>
</g>
<!-- hidebound.database -->
<g id="node3" class="node">
<title>hidebound.database</title>
<polygon fill="#343434" stroke="#343434" points="1304,-489.4379 1139,-489.4379 1139,-453.4379 1304,-453.4379 1304,-489.4379"/>
<text text-anchor="middle" x="1221.5" y="-467.7379" font-family="Courier,monospace" font-size="14.00" fill="#b6ecf3">hidebound.database</text>
</g>
<!-- hidebound.config&#45;&gt;hidebound.database -->
<g id="edge1" class="edge">
<title>hidebound.config&#45;&gt;hidebound.database</title>
<path fill="none" stroke="#b6ecf3" d="M1053.7367,-471.4379C1077.4654,-471.4379 1103.9953,-471.4379 1128.8292,-471.4379"/>
<polygon fill="#b6ecf3" stroke="#b6ecf3" points="1128.9855,-474.938 1138.9855,-471.4379 1128.9854,-467.938 1128.9855,-474.938"/>
</g>
<!-- hidebound.database_test_base -->
<g id="node4" class="node">
<title>hidebound.database_test_base</title>
<polygon fill="#343434" stroke="#343434" points="1103,-668.4379 855,-668.4379 855,-632.4379 1103,-632.4379 1103,-668.4379"/>
<text text-anchor="middle" x="979" y="-646.7379" font-family="Courier,monospace" font-size="14.00" fill="#b6ecf3">hidebound.database_test_base</text>
</g>
<!-- hidebound.database_tools -->
<g id="node5" class="node">
<title>hidebound.database_tools</title>
<polygon fill="#343434" stroke="#343434" points="802.5,-270.4379 587.5,-270.4379 587.5,-234.4379 802.5,-234.4379 802.5,-270.4379"/>
<text text-anchor="middle" x="695" y="-248.7379" font-family="Courier,monospace" font-size="14.00" fill="#b6ecf3">hidebound.database_tools</text>
</g>
<!-- hidebound.database_tools&#45;&gt;hidebound.database -->
<g id="edge2" class="edge">
<title>hidebound.database_tools&#45;&gt;hidebound.database</title>
<path fill="none" stroke="#b6ecf3" d="M738.5336,-270.546C834.5771,-310.4956 1064.3485,-406.0701 1168.5331,-449.4061"/>
<polygon fill="#b6ecf3" stroke="#b6ecf3" points="1167.3382,-452.6998 1177.9155,-453.3088 1170.0266,-446.2366 1167.3382,-452.6998"/>
</g>
<!-- hidebound.parser -->
<g id="node6" class="node">
<title>hidebound.parser</title>
<polygon fill="#343434" stroke="#343434" points="296.5,-706.4379 147.5,-706.4379 147.5,-670.4379 296.5,-670.4379 296.5,-706.4379"/>
<text text-anchor="middle" x="222" y="-684.7379" font-family="Courier,monospace" font-size="14.00" fill="#b6ecf3">hidebound.parser</text>
</g>
<!-- hidebound.parser&#45;&gt;hidebound.database_tools -->
<g id="edge3" class="edge">
<title>hidebound.parser&#45;&gt;hidebound.database_tools</title>
<path fill="none" stroke="#b6ecf3" d="M261.8219,-670.3954C281.3947,-659.5219 303.5985,-643.805 317,-623.4379 362.8037,-553.8274 303.7852,-506.6801 353,-439.4379 372.4455,-412.8696 559.9722,-318.6263 648.7896,-274.9561"/>
<polygon fill="#b6ecf3" stroke="#b6ecf3" points="650.4021,-278.0635 657.8364,-270.5149 647.3174,-271.7798 650.4021,-278.0635"/>
</g>
<!-- hidebound.specification_base -->
<g id="node7" class="node">
<title>hidebound.specification_base</title>
<polygon fill="#343434" stroke="#343434" points="819,-554.4379 571,-554.4379 571,-518.4379 819,-518.4379 819,-554.4379"/>
<text text-anchor="middle" x="695" y="-532.7379" font-family="Courier,monospace" font-size="14.00" fill="#b6ecf3">hidebound.specification_base</text>
</g>
<!-- hidebound.parser&#45;&gt;hidebound.specification_base -->
<g id="edge4" class="edge">
<title>hidebound.parser&#45;&gt;hidebound.specification_base</title>
<path fill="none" stroke="#b6ecf3" d="M296.8773,-675.9865C383.1007,-661.1667 515.4485,-636.7564 535,-623.4379 559.1454,-606.9902 547.2545,-585.458 571,-568.4379 576.0993,-564.7829 581.581,-561.5449 587.299,-558.6763"/>
<polygon fill="#b6ecf3" stroke="#b6ecf3" points="588.8339,-561.8229 596.4578,-554.4658 585.91,-555.4628 588.8339,-561.8229"/>
</g>
<!-- hidebound.validators -->
<g id="node11" class="node">
<title>hidebound.validators</title>
<polygon fill="#343434" stroke="#343434" points="535,-614.4379 353,-614.4379 353,-578.4379 535,-578.4379 535,-614.4379"/>
<text text-anchor="middle" x="444" y="-592.7379" font-family="Courier,monospace" font-size="14.00" fill="#b6ecf3">hidebound.validators</text>
</g>
<!-- hidebound.parser&#45;&gt;hidebound.validators -->
<g id="edge5" class="edge">
<title>hidebound.parser&#45;&gt;hidebound.validators</title>
<path fill="none" stroke="#b6ecf3" d="M285.3466,-670.4264C296.1749,-666.4171 307.1113,-661.7503 317,-656.4379 334.8562,-646.8453 335.2076,-638.1486 353,-628.4379 359.7184,-624.7712 366.9383,-621.3938 374.2666,-618.3193"/>
<polygon fill="#b6ecf3" stroke="#b6ecf3" points="375.5971,-621.5567 383.5774,-614.5879 372.993,-615.0591 375.5971,-621.5567"/>
</g>
<!-- hidebound.specification_base&#45;&gt;hidebound.config -->
<g id="edge6" class="edge">
<title>hidebound.specification_base&#45;&gt;hidebound.config</title>
<path fill="none" stroke="#b6ecf3" d="M773.7327,-518.4181C811.104,-509.8648 855.8242,-499.6296 893.9695,-490.8991"/>
<polygon fill="#b6ecf3" stroke="#b6ecf3" points="895.0612,-494.2399 904.0283,-488.597 893.4994,-487.4163 895.0612,-494.2399"/>
</g>
<!-- hidebound.specification_base&#45;&gt;hidebound.database -->
<g id="edge7" class="edge">
<title>hidebound.specification_base&#45;&gt;hidebound.database</title>
<path fill="none" stroke="#b6ecf3" d="M819.1734,-529.1186C900.2902,-523.2941 1008.3398,-513.5633 1103,-498.4379 1114.8016,-496.5522 1127.1818,-494.1792 1139.3068,-491.6269"/>
<polygon fill="#b6ecf3" stroke="#b6ecf3" points="1140.3761,-494.9768 1149.4136,-489.4475 1138.9005,-488.1341 1140.3761,-494.9768"/>
</g>
<!-- hidebound.specification_base&#45;&gt;hidebound.database_test_base -->
<g id="edge8" class="edge">
<title>hidebound.specification_base&#45;&gt;hidebound.database_test_base</title>
<path fill="none" stroke="#b6ecf3" d="M740.0006,-554.5016C790.0194,-574.5795 870.7958,-607.0039 924.3929,-628.5182"/>
<polygon fill="#b6ecf3" stroke="#b6ecf3" points="923.1565,-631.7933 933.7406,-632.2704 925.7642,-625.2971 923.1565,-631.7933"/>
</g>
<!-- hidebound.specifications -->
<g id="node8" class="node">
<title>hidebound.specifications</title>
<polygon fill="#343434" stroke="#343434" points="1086.5,-752.4379 871.5,-752.4379 871.5,-716.4379 1086.5,-716.4379 1086.5,-752.4379"/>
<text text-anchor="middle" x="979" y="-730.7379" font-family="Courier,monospace" font-size="14.00" fill="#b6ecf3">hidebound.specifications</text>
</g>
<!-- hidebound.specification_base&#45;&gt;hidebound.specifications -->
<g id="edge9" class="edge">
<title>hidebound.specification_base&#45;&gt;hidebound.specifications</title>
<path fill="none" stroke="#b6ecf3" d="M716.2056,-554.621C741.0102,-575.9559 783.2364,-612.4811 819,-644.4379 835.185,-658.9002 836.9211,-665.4269 855,-677.4379 875.4573,-691.0291 899.6786,-702.9594 921.2615,-712.3454"/>
<polygon fill="#b6ecf3" stroke="#b6ecf3" points="920.0772,-715.6451 930.6491,-716.3423 922.8194,-709.2046 920.0772,-715.6451"/>
</g>
<!-- hidebound.tools -->
<g id="node9" class="node">
<title>hidebound.tools</title>
<polygon fill="#343434" stroke="#343434" points="514,-186.4379 374,-186.4379 374,-150.4379 514,-150.4379 514,-186.4379"/>
<text text-anchor="middle" x="444" y="-164.7379" font-family="Courier,monospace" font-size="14.00" fill="#b6ecf3">hidebound.tools</text>
</g>
<!-- hidebound.tools&#45;&gt;hidebound.database -->
<g id="edge10" class="edge">
<title>hidebound.tools&#45;&gt;hidebound.database</title>
<path fill="none" stroke="#b6ecf3" d="M514.1912,-167.7095C642.7592,-169.754 919.6582,-190.1676 1103,-319.4379 1150.3685,-352.8364 1187.8871,-410.6266 1207.1991,-444.5104"/>
<polygon fill="#b6ecf3" stroke="#b6ecf3" points="1204.2268,-446.3666 1212.1563,-453.3932 1210.3394,-442.9553 1204.2268,-446.3666"/>
</g>
<!-- hidebound.tools&#45;&gt;hidebound.database_tools -->
<g id="edge11" class="edge">
<title>hidebound.tools&#45;&gt;hidebound.database_tools</title>
<path fill="none" stroke="#b6ecf3" d="M497.8458,-186.4581C536.9191,-199.5344 589.9282,-217.2745 631.1399,-231.0664"/>
<polygon fill="#b6ecf3" stroke="#b6ecf3" points="630.2169,-234.4483 640.8108,-234.3029 632.4385,-227.8102 630.2169,-234.4483"/>
</g>
<!-- hidebound.tools&#45;&gt;hidebound.specification_base -->
<g id="edge12" class="edge">
<title>hidebound.tools&#45;&gt;hidebound.specification_base</title>
<path fill="none" stroke="#b6ecf3" d="M461.8366,-186.5635C481.0057,-206.4963 511.8378,-239.8965 535,-271.4379 595.5379,-353.8761 654.492,-460.1976 680.7605,-509.3324"/>
<polygon fill="#b6ecf3" stroke="#b6ecf3" points="677.783,-511.1877 685.5691,-518.3729 683.9631,-507.9005 677.783,-511.1877"/>
</g>
<!-- hidebound.traits -->
<g id="node10" class="node">
<title>hidebound.traits</title>
<polygon fill="#343434" stroke="#343434" points="769.5,-836.4379 620.5,-836.4379 620.5,-800.4379 769.5,-800.4379 769.5,-836.4379"/>
<text text-anchor="middle" x="695" y="-814.7379" font-family="Courier,monospace" font-size="14.00" fill="#b6ecf3">hidebound.traits</text>
</g>
<!-- hidebound.traits&#45;&gt;hidebound.database_test_base -->
<g id="edge13" class="edge">
<title>hidebound.traits&#45;&gt;hidebound.database_test_base</title>
<path fill="none" stroke="#b6ecf3" d="M769.6234,-810.4208C787.2888,-805.6466 805.0313,-798.1532 819,-786.4379 848.5638,-761.6434 827.7613,-734.7664 855,-707.4379 869.8771,-692.5118 889.3851,-681.0768 908.5102,-672.5088"/>
<polygon fill="#b6ecf3" stroke="#b6ecf3" points="910.0189,-675.6705 917.8462,-668.5303 907.2746,-669.2309 910.0189,-675.6705"/>
</g>
<!-- hidebound.traits&#45;&gt;hidebound.specifications -->
<g id="edge14" class="edge">
<title>hidebound.traits&#45;&gt;hidebound.specifications</title>
<path fill="none" stroke="#b6ecf3" d="M767.9859,-800.4025C784.7962,-796.0271 802.5634,-791.2248 819,-786.4379 851.3753,-777.0092 887.0902,-765.5091 916.5481,-755.7235"/>
<polygon fill="#b6ecf3" stroke="#b6ecf3" points="917.9056,-758.9603 926.2844,-752.476 915.6907,-752.3199 917.9056,-758.9603"/>
</g>
<!-- hidebound.validators&#45;&gt;hidebound.config -->
<g id="edge15" class="edge">
<title>hidebound.validators&#45;&gt;hidebound.config</title>
<path fill="none" stroke="#b6ecf3" d="M463.734,-578.0738C487.2743,-557.3959 528.7726,-524.6964 571,-509.4379 628.4075,-488.6943 792.186,-478.6857 893.9304,-474.3412"/>
<polygon fill="#b6ecf3" stroke="#b6ecf3" points="894.3414,-477.8272 904.1868,-473.9134 894.0496,-470.8333 894.3414,-477.8272"/>
</g>
<!-- hidebound.validators&#45;&gt;hidebound.database_test_base -->
<g id="edge16" class="edge">
<title>hidebound.validators&#45;&gt;hidebound.database_test_base</title>
<path fill="none" stroke="#b6ecf3" d="M535.0585,-605.6289C620.0441,-614.2069 747.919,-627.1139 844.6319,-636.8756"/>
<polygon fill="#b6ecf3" stroke="#b6ecf3" points="844.4784,-640.3778 854.7794,-637.8998 845.1814,-633.4132 844.4784,-640.3778"/>
</g>
<!-- hidebound.validators&#45;&gt;hidebound.specification_base -->
<g id="edge17" class="edge">
<title>hidebound.validators&#45;&gt;hidebound.specification_base</title>
<path fill="none" stroke="#b6ecf3" d="M519.3083,-578.436C547.7204,-571.6442 580.2417,-563.8702 609.518,-556.8719"/>
<polygon fill="#b6ecf3" stroke="#b6ecf3" points="610.3992,-560.2599 619.3114,-554.5308 608.7717,-553.4517 610.3992,-560.2599"/>
</g>
<!-- hidebound.validators&#45;&gt;hidebound.specifications -->
<g id="edge18" class="edge">
<title>hidebound.validators&#45;&gt;hidebound.specifications</title>
<path fill="none" stroke="#b6ecf3" d="M501.9899,-614.4592C523.5853,-620.9933 548.3481,-628.2773 571,-634.4379 680.552,-664.2328 807.7375,-694.7693 890.601,-714.128"/>
<polygon fill="#b6ecf3" stroke="#b6ecf3" points="889.9488,-717.5697 900.4825,-716.4326 891.5388,-710.7527 889.9488,-717.5697"/>
</g>
<!-- numpy -->
<g id="node12" class="node">
<title>numpy</title>
<polygon fill="#343434" stroke="#343434" points="473,-316.4379 415,-316.4379 415,-280.4379 473,-280.4379 473,-316.4379"/>
<text text-anchor="middle" x="444" y="-294.7379" font-family="Courier,monospace" font-size="14.00" fill="#de958e">numpy</text>
</g>
<!-- numpy&#45;&gt;hidebound.database_test_base -->
<g id="edge19" class="edge">
<title>numpy&#45;&gt;hidebound.database_test_base</title>
<path fill="none" stroke="#de958e" d="M473.095,-297.8412C542.2733,-298.0194 718.3057,-308.0948 819,-400.4379 853.1982,-431.7999 832.0178,-458.1278 855,-498.4379 882.7526,-547.1153 926.0519,-596.0084 953.4505,-624.7331"/>
<polygon fill="#de958e" stroke="#de958e" points="951.2699,-627.514 960.7306,-632.2832 956.3089,-622.6551 951.2699,-627.514"/>
</g>
<!-- numpy&#45;&gt;hidebound.database_tools -->
<g id="edge20" class="edge">
<title>numpy&#45;&gt;hidebound.database_tools</title>
<path fill="none" stroke="#de958e" d="M473.2841,-293.0711C501.2987,-287.937 545.299,-279.8732 586.7422,-272.278"/>
<polygon fill="#de958e" stroke="#de958e" points="587.4455,-275.7075 596.6507,-270.4621 586.1836,-268.8222 587.4455,-275.7075"/>
</g>
<!-- skimage.io -->
<g id="node13" class="node">
<title>skimage.io</title>
<polygon fill="#343434" stroke="#343434" points="493.5,-798.4379 394.5,-798.4379 394.5,-762.4379 493.5,-762.4379 493.5,-798.4379"/>
<text text-anchor="middle" x="444" y="-776.7379" font-family="Courier,monospace" font-size="14.00" fill="#de958e">skimage.io</text>
</g>
<!-- skimage.io&#45;&gt;hidebound.database_test_base -->
<g id="edge21" class="edge">
<title>skimage.io&#45;&gt;hidebound.database_test_base</title>
<path fill="none" stroke="#de958e" d="M493.6284,-772.6872C565.8801,-760.9141 703.9603,-736.5646 819,-705.4379 853.7952,-696.0233 891.9981,-682.9961 922.3459,-671.9833"/>
<polygon fill="#de958e" stroke="#de958e" points="923.7195,-675.2077 931.9088,-668.4856 921.315,-668.6336 923.7195,-675.2077"/>
</g>
<!-- skimage.io&#45;&gt;hidebound.traits -->
<g id="edge22" class="edge">
<title>skimage.io&#45;&gt;hidebound.traits</title>
<path fill="none" stroke="#de958e" d="M493.5895,-787.9455C526.7704,-792.9689 571.291,-799.7091 610.0366,-805.575"/>
<polygon fill="#de958e" stroke="#de958e" points="609.8619,-809.0883 620.2732,-807.1247 610.9098,-802.1672 609.8619,-809.0883"/>
</g>
<!-- hidebound -->
<g id="node14" class="node">
<title>hidebound</title>
<polygon fill="#343434" stroke="#343434" points="91,-683.4379 0,-683.4379 0,-647.4379 91,-647.4379 91,-683.4379"/>
<text text-anchor="middle" x="45.5" y="-661.7379" font-family="Courier,monospace" font-size="14.00" fill="#a0d17b">hidebound</text>
</g>
<!-- hidebound&#45;&gt;hidebound.config -->
<g id="edge23" class="edge">
<title>hidebound&#45;&gt;hidebound.config</title>
<path fill="none" stroke="#a0d17b" d="M83.4895,-647.2678C86.3953,-644.658 88.9783,-641.7237 91,-638.4379 152.7469,-538.0854 40.9014,-189.8764 127,-109.4379 354.8719,103.4536 578.0786,-27.4347 819,-225.4379 894.2757,-287.3039 946.3772,-394.0295 967.9175,-444.0598"/>
<polygon fill="#a0d17b" stroke="#a0d17b" points="964.6978,-445.4324 971.8159,-453.2799 971.1452,-442.7063 964.6978,-445.4324"/>
</g>
<!-- hidebound&#45;&gt;hidebound.database -->
<g id="edge24" class="edge">
<title>hidebound&#45;&gt;hidebound.database</title>
<path fill="none" stroke="#a0d17b" d="M51.4684,-683.9128C62.0827,-714.0702 86.9653,-774.053 127,-809.4379 241.2238,-910.3955 291.5549,-940.4379 444,-940.4379 444,-940.4379 444,-940.4379 695,-940.4379 893.0173,-940.4379 964.7788,-903.2327 1103,-761.4379 1177.1849,-685.3351 1207.1606,-556.4474 1217.1946,-499.697"/>
<polygon fill="#a0d17b" stroke="#a0d17b" points="1220.676,-500.1005 1218.8927,-489.6569 1213.774,-498.9332 1220.676,-500.1005"/>
</g>
<!-- hidebound&#45;&gt;hidebound.database_test_base -->
<g id="edge25" class="edge">
<title>hidebound&#45;&gt;hidebound.database_test_base</title>
<path fill="none" stroke="#a0d17b" d="M57.1448,-683.7395C71.294,-704.595 97.0264,-738.3781 127,-758.4379 255.8043,-844.6403 696.3523,-940.1952 819,-845.4379 869.1595,-806.6849 814.2844,-756.018 855,-707.4379 867.6361,-692.3611 885.119,-681.0682 902.9757,-672.6906"/>
<polygon fill="#a0d17b" stroke="#a0d17b" points="904.5846,-675.8065 912.3239,-668.5709 901.7616,-669.4009 904.5846,-675.8065"/>
</g>
<!-- hidebound&#45;&gt;hidebound.database_tools -->
<g id="edge26" class="edge">
<title>hidebound&#45;&gt;hidebound.database_tools</title>
<path fill="none" stroke="#a0d17b" d="M83.4684,-647.2548C86.3784,-644.6476 88.9682,-641.7174 91,-638.4379 147.9182,-546.5665 49.7801,-229.0497 127,-153.4379 191.81,-89.9776 448.4332,-114.3502 535,-141.4379 588.6093,-158.2129 640.0291,-199.9709 669.519,-227.2159"/>
<polygon fill="#a0d17b" stroke="#a0d17b" points="667.2031,-229.8425 676.8854,-234.1441 671.9988,-224.7434 667.2031,-229.8425"/>
</g>
<!-- hidebound&#45;&gt;hidebound.parser -->
<g id="edge27" class="edge">
<title>hidebound&#45;&gt;hidebound.parser</title>
<path fill="none" stroke="#a0d17b" d="M91.4125,-671.4209C105.4051,-673.2443 121.2586,-675.3102 136.9755,-677.3583"/>
<polygon fill="#a0d17b" stroke="#a0d17b" points="136.8946,-680.8772 147.263,-678.6989 137.7992,-673.9359 136.8946,-680.8772"/>
</g>
<!-- hidebound&#45;&gt;hidebound.specification_base -->
<g id="edge28" class="edge">
<title>hidebound&#45;&gt;hidebound.specification_base</title>
<path fill="none" stroke="#a0d17b" d="M80.7977,-647.2705C84.4746,-644.5899 87.9687,-641.6396 91,-638.4379 114.781,-613.32 97.9533,-588.2191 127,-569.4379 196.0562,-524.7872 415.5631,-524.2587 560.5999,-529.3463"/>
<polygon fill="#a0d17b" stroke="#a0d17b" points="560.79,-532.8555 570.9108,-529.7218 561.0448,-525.8601 560.79,-532.8555"/>
</g>
<!-- hidebound&#45;&gt;hidebound.specifications -->
<g id="edge29" class="edge">
<title>hidebound&#45;&gt;hidebound.specifications</title>
<path fill="none" stroke="#a0d17b" d="M57.1448,-683.7395C71.294,-704.595 97.0264,-738.3781 127,-758.4379 215.1871,-817.4572 248.7377,-815.6989 353,-835.4379 556.5432,-873.9729 621.2942,-907.3023 819,-845.4379 872.6093,-828.663 924.0291,-786.905 953.519,-759.6599"/>
<polygon fill="#a0d17b" stroke="#a0d17b" points="955.9988,-762.1325 960.8854,-752.7318 951.2031,-757.0334 955.9988,-762.1325"/>
</g>
<!-- hidebound&#45;&gt;hidebound.tools -->
<g id="edge30" class="edge">
<title>hidebound&#45;&gt;hidebound.tools</title>
<path fill="none" stroke="#a0d17b" d="M83.4517,-647.2444C86.3651,-644.6393 88.9602,-641.7125 91,-638.4379 144.627,-552.3473 54.1535,-254.013 127,-183.4379 159.5261,-151.9261 280.9998,-154.7001 363.771,-160.7204"/>
<polygon fill="#a0d17b" stroke="#a0d17b" points="363.6809,-164.2235 373.9166,-161.4884 364.2094,-157.2435 363.6809,-164.2235"/>
</g>
<!-- hidebound&#45;&gt;hidebound.traits -->
<g id="edge31" class="edge">
<title>hidebound&#45;&gt;hidebound.traits</title>
<path fill="none" stroke="#a0d17b" d="M71.3731,-683.6162C86.955,-693.9682 107.4973,-706.5952 127,-715.4379 207.531,-751.9514 240.3323,-730.3864 317,-774.4379 335.8197,-785.2513 332.9005,-799.2452 353,-807.4379 435.4503,-841.0456 538.584,-839.0715 609.921,-831.6597"/>
<polygon fill="#a0d17b" stroke="#a0d17b" points="610.6508,-835.1007 620.2091,-830.5303 609.8869,-828.1425 610.6508,-835.1007"/>
</g>
<!-- hidebound&#45;&gt;hidebound.validators -->
<g id="edge32" class="edge">
<title>hidebound&#45;&gt;hidebound.validators</title>
<path fill="none" stroke="#a0d17b" d="M91.2674,-659.1559C145.3409,-651.5493 237.9519,-637.9431 317,-623.4379 328.5186,-621.3243 340.5926,-618.9565 352.5221,-616.5249"/>
<polygon fill="#a0d17b" stroke="#a0d17b" points="353.405,-619.9166 362.4935,-614.4714 351.993,-613.0604 353.405,-619.9166"/>
</g>
<!-- humanfriendly -->
<g id="node15" class="node">
<title>humanfriendly</title>
<polygon fill="#343434" stroke="#343434" points="284,-228.4379 160,-228.4379 160,-192.4379 284,-192.4379 284,-228.4379"/>
<text text-anchor="middle" x="222" y="-206.7379" font-family="Courier,monospace" font-size="14.00" fill="#de958e">humanfriendly</text>
</g>
<!-- humanfriendly&#45;&gt;hidebound.tools -->
<g id="edge33" class="edge">
<title>humanfriendly&#45;&gt;hidebound.tools</title>
<path fill="none" stroke="#de958e" d="M284.1346,-198.6828C308.8165,-194.0132 337.5257,-188.5817 363.7492,-183.6205"/>
<polygon fill="#de958e" stroke="#de958e" points="364.4893,-187.0427 373.6643,-181.7447 363.188,-180.1647 364.4893,-187.0427"/>
</g>
<!-- pandas -->
<g id="node16" class="node">
<title>pandas</title>
<polygon fill="#343434" stroke="#343434" points="255,-282.4379 189,-282.4379 189,-246.4379 255,-246.4379 255,-282.4379"/>
<text text-anchor="middle" x="222" y="-260.7379" font-family="Courier,monospace" font-size="14.00" fill="#de958e">pandas</text>
</g>
<!-- pandas&#45;&gt;hidebound.database_test_base -->
<g id="edge34" class="edge">
<title>pandas&#45;&gt;hidebound.database_test_base</title>
<path fill="none" stroke="#de958e" d="M255.1352,-280.5356C281.4719,-293.1679 319.3482,-310.9746 353,-325.4379 557.5767,-413.364 629.075,-393.2006 819,-509.4379 872.8584,-542.4002 925.9673,-594.0224 955.4219,-624.8127"/>
<polygon fill="#de958e" stroke="#de958e" points="952.9696,-627.3133 962.3868,-632.1679 958.0524,-622.5002 952.9696,-627.3133"/>
</g>
<!-- pandas&#45;&gt;hidebound.database_tools -->
<g id="edge35" class="edge">
<title>pandas&#45;&gt;hidebound.database_tools</title>
<path fill="none" stroke="#de958e" d="M255.1138,-255.996C281.4389,-249.74 319.3098,-241.749 353,-238.4379 427.3934,-231.1267 511.2528,-234.3809 577.313,-239.5827"/>
<polygon fill="#de958e" stroke="#de958e" points="577.0913,-243.0761 587.3421,-240.398 577.6586,-236.0991 577.0913,-243.0761"/>
</g>
<!-- pandas&#45;&gt;hidebound.tools -->
<g id="edge36" class="edge">
<title>pandas&#45;&gt;hidebound.tools</title>
<path fill="none" stroke="#de958e" d="M255.3649,-259.3726C274.4032,-255.4342 298.1532,-248.6842 317,-237.4379 336.7027,-225.681 333.6665,-212.7925 353,-200.4379 358.6888,-196.8027 364.8425,-193.5188 371.1736,-190.5658"/>
<polygon fill="#de958e" stroke="#de958e" points="372.7797,-193.6837 380.5428,-186.4737 369.9779,-187.2688 372.7797,-193.6837"/>
</g>
<!-- schematics.types -->
<g id="node17" class="node">
<title>schematics.types</title>
<polygon fill="#343434" stroke="#343434" points="518.5,-744.4379 369.5,-744.4379 369.5,-708.4379 518.5,-708.4379 518.5,-744.4379"/>
<text text-anchor="middle" x="444" y="-722.7379" font-family="Courier,monospace" font-size="14.00" fill="#de958e">schematics.types</text>
</g>
<!-- schematics.types&#45;&gt;hidebound.config -->
<g id="edge37" class="edge">
<title>schematics.types&#45;&gt;hidebound.config</title>
<path fill="none" stroke="#de958e" d="M502.1817,-708.4217C513.2853,-704.3037 524.6616,-699.5997 535,-694.4379 552.2044,-685.8481 554.1029,-679.6176 571,-670.4379 676.4824,-613.1324 711.6797,-617.223 819,-563.4379 861.8116,-541.9823 909.1666,-514.2235 941.1697,-494.8332"/>
<polygon fill="#de958e" stroke="#de958e" points="943.0494,-497.7865 949.7726,-489.5982 939.4105,-491.8066 943.0494,-497.7865"/>
</g>
<!-- schematics.types&#45;&gt;hidebound.database_test_base -->
<g id="edge38" class="edge">
<title>schematics.types&#45;&gt;hidebound.database_test_base</title>
<path fill="none" stroke="#de958e" d="M518.6709,-715.8305C602.8618,-703.8707 741.4412,-684.1846 844.5909,-669.5316"/>
<polygon fill="#de958e" stroke="#de958e" points="845.3659,-672.9567 854.7743,-668.085 844.3814,-666.0263 845.3659,-672.9567"/>
</g>
<!-- schematics.types&#45;&gt;hidebound.specification_base -->
<g id="edge39" class="edge">
<title>schematics.types&#45;&gt;hidebound.specification_base</title>
<path fill="none" stroke="#de958e" d="M517.0226,-708.2369C523.6706,-704.4699 529.833,-699.9238 535,-694.4379 574.932,-652.0418 529.2908,-609.0869 571,-568.4379 574.2678,-565.2532 577.8086,-562.3735 581.5576,-559.7703"/>
<polygon fill="#de958e" stroke="#de958e" points="583.41,-562.7399 590.0725,-554.502 579.727,-556.7872 583.41,-562.7399"/>
</g>
<!-- schematics.types&#45;&gt;hidebound.specifications -->
<g id="edge40" class="edge">
<title>schematics.types&#45;&gt;hidebound.specifications</title>
<path fill="none" stroke="#de958e" d="M518.6709,-727.5545C607.3807,-728.881 756.4743,-731.1105 860.8803,-732.6717"/>
<polygon fill="#de958e" stroke="#de958e" points="861.1066,-736.1754 871.1579,-732.8254 861.2114,-729.1761 861.1066,-736.1754"/>
</g>
<!-- pyparsing -->
<g id="node18" class="node">
<title>pyparsing</title>
<polygon fill="#343434" stroke="#343434" points="91,-844.4379 0,-844.4379 0,-808.4379 91,-808.4379 91,-844.4379"/>
<text text-anchor="middle" x="45.5" y="-822.7379" font-family="Courier,monospace" font-size="14.00" fill="#de958e">pyparsing</text>
</g>
<!-- pyparsing&#45;&gt;hidebound.parser -->
<g id="edge41" class="edge">
<title>pyparsing&#45;&gt;hidebound.parser</title>
<path fill="none" stroke="#de958e" d="M68.5743,-808.3969C99.8899,-783.9122 155.9441,-740.085 190.9344,-712.7272"/>
<polygon fill="#de958e" stroke="#de958e" points="193.198,-715.4002 198.92,-706.4835 188.8863,-709.8857 193.198,-715.4002"/>
</g>
<!-- pyparsing&#45;&gt;hidebound.specification_base -->
<g id="edge42" class="edge">
<title>pyparsing&#45;&gt;hidebound.specification_base</title>
<path fill="none" stroke="#de958e" d="M91.0825,-829.2899C149.4246,-830.532 250.8456,-824.2951 317,-773.4379 345.9962,-751.1467 324.3871,-722.219 353,-699.4379 417.9445,-647.7304 472.7412,-712.3496 535,-657.4379 567.4888,-628.7831 539.7877,-594.3032 570.135,-561.4666"/>
<polygon fill="#de958e" stroke="#de958e" points="572.6614,-563.8949 577.5344,-554.4872 567.8583,-558.8027 572.6614,-563.8949"/>
</g>
<!-- pyparsing&#45;&gt;hidebound.validators -->
<g id="edge43" class="edge">
<title>pyparsing&#45;&gt;hidebound.validators</title>
<path fill="none" stroke="#de958e" d="M91.2078,-815.9618C148.5508,-801.0893 247.748,-769.4776 317,-715.4379 338.3047,-698.8132 334.1034,-685.7561 353,-666.4379 369.6491,-649.4174 390.5741,-633.0399 408.1596,-620.4112"/>
<polygon fill="#de958e" stroke="#de958e" points="410.3423,-623.1546 416.4908,-614.5264 406.3037,-617.4371 410.3423,-623.1546"/>
</g>
<!-- schematics.exceptions -->
<g id="node19" class="node">
<title>schematics.exceptions</title>
<polygon fill="#343434" stroke="#343434" points="317,-438.4379 127,-438.4379 127,-402.4379 317,-402.4379 317,-438.4379"/>
<text text-anchor="middle" x="222" y="-416.7379" font-family="Courier,monospace" font-size="14.00" fill="#de958e">schematics.exceptions</text>
</g>
<!-- schematics.exceptions&#45;&gt;hidebound.config -->
<g id="edge44" class="edge">
<title>schematics.exceptions&#45;&gt;hidebound.config</title>
<path fill="none" stroke="#de958e" d="M317.2172,-425.9374C379.2497,-429.5894 461.9386,-434.5877 535,-439.4379 660.1145,-447.7437 804.9827,-458.375 894.3105,-465.0479"/>
<polygon fill="#de958e" stroke="#de958e" points="894.1535,-468.5459 904.3867,-465.8014 894.6756,-461.5654 894.1535,-468.5459"/>
</g>
<!-- schematics.exceptions&#45;&gt;hidebound.database_tools -->
<g id="edge45" class="edge">
<title>schematics.exceptions&#45;&gt;hidebound.database_tools</title>
<path fill="none" stroke="#de958e" d="M231.4602,-402.3211C249.8037,-369.348 293.6792,-300.2797 353,-271.4379 391.415,-252.7605 494.4159,-249.0623 577.4176,-249.4131"/>
<polygon fill="#de958e" stroke="#de958e" points="577.4134,-252.9131 587.4349,-249.4753 577.4569,-245.9132 577.4134,-252.9131"/>
</g>
<!-- schematics.exceptions&#45;&gt;hidebound.specification_base -->
<g id="edge46" class="edge">
<title>schematics.exceptions&#45;&gt;hidebound.specification_base</title>
<path fill="none" stroke="#de958e" d="M247.7087,-438.708C273.1708,-455.8211 313.9095,-480.6253 353,-493.4379 419.393,-515.1995 496.3622,-526.0555 560.451,-531.4269"/>
<polygon fill="#de958e" stroke="#de958e" points="560.3748,-534.9319 570.6226,-532.2427 560.9345,-527.9543 560.3748,-534.9319"/>
</g>
<!-- schematics.exceptions&#45;&gt;hidebound.tools -->
<g id="edge47" class="edge">
<title>schematics.exceptions&#45;&gt;hidebound.tools</title>
<path fill="none" stroke="#de958e" d="M235.751,-402.2263C254.4279,-377.3872 288.7284,-331.4004 317,-291.4379 333.4458,-268.1915 333.4677,-259.1588 353,-238.4379 369.2141,-221.2372 389.9349,-204.9507 407.5071,-192.4228"/>
<polygon fill="#de958e" stroke="#de958e" points="409.6603,-195.188 415.847,-186.5871 405.647,-189.4526 409.6603,-195.188"/>
</g>
<!-- schematics.exceptions&#45;&gt;hidebound.validators -->
<g id="edge48" class="edge">
<title>schematics.exceptions&#45;&gt;hidebound.validators</title>
<path fill="none" stroke="#de958e" d="M244.118,-438.6107C270.0553,-459.8571 314.4142,-495.9937 353,-526.4379 372.3643,-541.7164 394.2716,-558.5809 411.7384,-571.9278"/>
<polygon fill="#de958e" stroke="#de958e" points="409.8525,-574.8914 419.9257,-578.175 414.0988,-569.3264 409.8525,-574.8914"/>
</g>
<!-- wrapt -->
<g id="node20" class="node">
<title>wrapt</title>
<polygon fill="#343434" stroke="#343434" points="251,-614.4379 193,-614.4379 193,-578.4379 251,-578.4379 251,-614.4379"/>
<text text-anchor="middle" x="222" y="-592.7379" font-family="Courier,monospace" font-size="14.00" fill="#de958e">wrapt</text>
</g>
<!-- wrapt&#45;&gt;hidebound.validators -->
<g id="edge49" class="edge">
<title>wrapt&#45;&gt;hidebound.validators</title>
<path fill="none" stroke="#de958e" d="M251.0226,-596.4379C274.4553,-596.4379 308.9007,-596.4379 342.2287,-596.4379"/>
<polygon fill="#de958e" stroke="#de958e" points="342.5227,-599.938 352.5226,-596.4379 342.5226,-592.938 342.5227,-599.938"/>
</g>
<!-- schematics -->
<g id="node21" class="node">
<title>schematics</title>
<polygon fill="#343434" stroke="#343434" points="493.5,-484.4379 394.5,-484.4379 394.5,-448.4379 493.5,-448.4379 493.5,-484.4379"/>
<text text-anchor="middle" x="444" y="-462.7379" font-family="Courier,monospace" font-size="14.00" fill="#de958e">schematics</text>
</g>
<!-- schematics&#45;&gt;hidebound.config -->
<g id="edge50" class="edge">
<title>schematics&#45;&gt;hidebound.config</title>
<path fill="none" stroke="#de958e" d="M493.8511,-466.9038C585.4149,-467.7596 781.3157,-469.5904 894.1708,-470.6452"/>
<polygon fill="#de958e" stroke="#de958e" points="894.4595,-474.1479 904.4919,-470.7416 894.525,-467.1482 894.4595,-474.1479"/>
</g>
<!-- schematics&#45;&gt;hidebound.specification_base -->
<g id="edge51" class="edge">
<title>schematics&#45;&gt;hidebound.specification_base</title>
<path fill="none" stroke="#de958e" d="M493.5895,-480.2677C529.8303,-490.3747 579.5989,-504.2544 620.5953,-515.6876"/>
<polygon fill="#de958e" stroke="#de958e" points="619.7019,-519.072 630.2746,-518.387 621.5824,-512.3293 619.7019,-519.072"/>
</g>
</g>
</svg>
