<?xml version="1.0" encoding="UTF-8" standalone="no"?>
<!DOCTYPE svg PUBLIC "-//W3C//DTD SVG 1.1//EN"
 "http://www.w3.org/Graphics/SVG/1.1/DTD/svg11.dtd">
<!-- Generated by graphviz version 2.40.1 (20161225.0304)
 -->
<!-- Title: %3 Pages: 1 -->
<svg width="2195pt" height="1278pt"
 viewBox="0.00 0.00 2195.00 1277.83" xmlns="http://www.w3.org/2000/svg" xmlns:xlink="http://www.w3.org/1999/xlink">
<g id="graph0" class="graph" transform="scale(1 1) rotate(0) translate(4 1273.8252)">
<title>%3</title>
<polygon fill="#242424" stroke="transparent" points="-4,4 -4,-1273.8252 2191,-1273.8252 2191,4 -4,4"/>
<!-- cli -->
<g id="node1" class="node">
<title>cli</title>
<polygon fill="#343434" stroke="#343434" points="72.5,-373.2901 18.5,-373.2901 18.5,-337.2901 72.5,-337.2901 72.5,-373.2901"/>
<text text-anchor="middle" x="45.5" y="-351.5901" font-family="Courier,monospace" font-size="14.00" fill="#b6ecf3">cli</text>
</g>
<!-- hidebound.core.config -->
<g id="node2" class="node">
<title>hidebound.core.config</title>
<polygon fill="#343434" stroke="#343434" points="1348.5,-1040.2901 1158.5,-1040.2901 1158.5,-1004.2901 1348.5,-1004.2901 1348.5,-1040.2901"/>
<text text-anchor="middle" x="1253.5" y="-1018.5901" font-family="Courier,monospace" font-size="14.00" fill="#b6ecf3">hidebound.core.config</text>
</g>
<!-- hidebound.core.database -->
<g id="node3" class="node">
<title>hidebound.core.database</title>
<polygon fill="#343434" stroke="#343434" points="1669,-378.2901 1463,-378.2901 1463,-342.2901 1669,-342.2901 1669,-378.2901"/>
<text text-anchor="middle" x="1566" y="-356.5901" font-family="Courier,monospace" font-size="14.00" fill="#b6ecf3">hidebound.core.database</text>
</g>
<!-- hidebound.core.config&#45;&gt;hidebound.core.database -->
<g id="edge1" class="edge">
<title>hidebound.core.config&#45;&gt;hidebound.core.database</title>
<path fill="none" stroke="#b6ecf3" d="M1348.5136,-1010.2388C1369.0309,-1003.199 1388.5694,-992.2494 1402,-975.2901 1467.9951,-891.9555 1395.4737,-595.7145 1438,-498.2901 1458.6407,-451.0037 1502.511,-409.5518 1533.1052,-384.7248"/>
<polygon fill="#b6ecf3" stroke="#b6ecf3" points="1535.3152,-387.4391 1540.9629,-378.475 1530.9578,-381.9606 1535.3152,-387.4391"/>
</g>
<!-- hidebound.server.app -->
<g id="node14" class="node">
<title>hidebound.server.app</title>
<polygon fill="#343434" stroke="#343434" points="2187,-278.2901 2005,-278.2901 2005,-242.2901 2187,-242.2901 2187,-278.2901"/>
<text text-anchor="middle" x="2096" y="-256.5901" font-family="Courier,monospace" font-size="14.00" fill="#b6ecf3">hidebound.server.app</text>
</g>
<!-- hidebound.core.config&#45;&gt;hidebound.server.app -->
<g id="edge2" class="edge">
<title>hidebound.core.config&#45;&gt;hidebound.server.app</title>
<path fill="none" stroke="#b6ecf3" d="M1326.5255,-1004.2091C1354.6039,-993.4945 1384.1718,-976.8316 1402,-951.2901 1450.8027,-881.3728 1384.4417,-635.6348 1438,-569.2901 1512.9605,-476.4337 1584.6096,-535.9884 1694,-488.2901 1835.4787,-426.6 1991.3193,-328.8843 2060.055,-284.1158"/>
<polygon fill="#b6ecf3" stroke="#b6ecf3" points="2062.3222,-286.8153 2068.7773,-278.414 2058.492,-280.9561 2062.3222,-286.8153"/>
</g>
<!-- hidebound.server.api -->
<g id="node13" class="node">
<title>hidebound.server.api</title>
<polygon fill="#343434" stroke="#343434" points="1940.5,-278.2901 1758.5,-278.2901 1758.5,-242.2901 1940.5,-242.2901 1940.5,-278.2901"/>
<text text-anchor="middle" x="1849.5" y="-256.5901" font-family="Courier,monospace" font-size="14.00" fill="#b6ecf3">hidebound.server.api</text>
</g>
<!-- hidebound.core.database&#45;&gt;hidebound.server.api -->
<g id="edge3" class="edge">
<title>hidebound.core.database&#45;&gt;hidebound.server.api</title>
<path fill="none" stroke="#b6ecf3" d="M1617.3397,-342.1808C1665.4586,-325.2076 1737.4335,-299.8197 1788.4693,-281.8176"/>
<polygon fill="#b6ecf3" stroke="#b6ecf3" points="1789.7978,-285.0605 1798.064,-278.4333 1787.4692,-278.4591 1789.7978,-285.0605"/>
</g>
<!-- hidebound.core.database_test_base -->
<g id="node4" class="node">
<title>hidebound.core.database_test_base</title>
<polygon fill="#343434" stroke="#343434" points="1398,-629.2901 1109,-629.2901 1109,-593.2901 1398,-593.2901 1398,-629.2901"/>
<text text-anchor="middle" x="1253.5" y="-607.5901" font-family="Courier,monospace" font-size="14.00" fill="#b6ecf3">hidebound.core.database_test_base</text>
</g>
<!-- hidebound.core.database_tools -->
<g id="node5" class="node">
<title>hidebound.core.database_tools</title>
<polygon fill="#343434" stroke="#343434" points="1052.5,-370.2901 796.5,-370.2901 796.5,-334.2901 1052.5,-334.2901 1052.5,-370.2901"/>
<text text-anchor="middle" x="924.5" y="-348.5901" font-family="Courier,monospace" font-size="14.00" fill="#b6ecf3">hidebound.core.database_tools</text>
</g>
<!-- hidebound.core.database_tools&#45;&gt;hidebound.core.database -->
<g id="edge4" class="edge">
<title>hidebound.core.database_tools&#45;&gt;hidebound.core.database</title>
<path fill="none" stroke="#b6ecf3" d="M1052.7753,-353.8897C1169.6054,-355.3467 1340.4982,-357.4779 1452.4744,-358.8743"/>
<polygon fill="#b6ecf3" stroke="#b6ecf3" points="1452.743,-362.3778 1462.7859,-359.0029 1452.8303,-355.3784 1452.743,-362.3778"/>
</g>
<!-- hidebound.core.parser -->
<g id="node6" class="node">
<title>hidebound.core.parser</title>
<polygon fill="#343434" stroke="#343434" points="485,-896.2901 295,-896.2901 295,-860.2901 485,-860.2901 485,-896.2901"/>
<text text-anchor="middle" x="390" y="-874.5901" font-family="Courier,monospace" font-size="14.00" fill="#b6ecf3">hidebound.core.parser</text>
</g>
<!-- hidebound.core.parser&#45;&gt;hidebound.core.database_tools -->
<g id="edge5" class="edge">
<title>hidebound.core.parser&#45;&gt;hidebound.core.database_tools</title>
<path fill="none" stroke="#b6ecf3" d="M393.7892,-859.8491C408.6052,-789.3806 464.5844,-538.2675 521,-482.2901 544.6769,-458.797 737.1504,-403.3893 847.4915,-373.046"/>
<polygon fill="#b6ecf3" stroke="#b6ecf3" points="848.5331,-376.3896 857.2508,-370.3687 846.6811,-369.6391 848.5331,-376.3896"/>
</g>
<!-- hidebound.core.specification_base -->
<g id="node7" class="node">
<title>hidebound.core.specification_base</title>
<polygon fill="#343434" stroke="#343434" points="1069,-1010.2901 780,-1010.2901 780,-974.2901 1069,-974.2901 1069,-1010.2901"/>
<text text-anchor="middle" x="924.5" y="-988.5901" font-family="Courier,monospace" font-size="14.00" fill="#b6ecf3">hidebound.core.specification_base</text>
</g>
<!-- hidebound.core.parser&#45;&gt;hidebound.core.specification_base -->
<g id="edge6" class="edge">
<title>hidebound.core.parser&#45;&gt;hidebound.core.specification_base</title>
<path fill="none" stroke="#b6ecf3" d="M485.3513,-895.0106C556.7864,-907.9237 656.8108,-926.8242 744,-946.2901 778.18,-953.9211 815.7433,-963.3278 847.7107,-971.6422"/>
<polygon fill="#b6ecf3" stroke="#b6ecf3" points="846.882,-975.0431 857.442,-974.1843 848.6513,-968.2704 846.882,-975.0431"/>
</g>
<!-- hidebound.core.validators -->
<g id="node12" class="node">
<title>hidebound.core.validators</title>
<polygon fill="#343434" stroke="#343434" points="744,-991.2901 521,-991.2901 521,-955.2901 744,-955.2901 744,-991.2901"/>
<text text-anchor="middle" x="632.5" y="-969.5901" font-family="Courier,monospace" font-size="14.00" fill="#b6ecf3">hidebound.core.validators</text>
</g>
<!-- hidebound.core.parser&#45;&gt;hidebound.core.validators -->
<g id="edge7" class="edge">
<title>hidebound.core.parser&#45;&gt;hidebound.core.validators</title>
<path fill="none" stroke="#b6ecf3" d="M454.2536,-896.3062C464.8169,-900.2841 475.43,-904.9393 485,-910.2901 503.1788,-920.4542 502.6356,-930.4653 521,-940.2901 529.0394,-944.591 537.7125,-948.4015 546.5456,-951.7608"/>
<polygon fill="#b6ecf3" stroke="#b6ecf3" points="545.5764,-955.1318 556.1707,-955.2307 547.9504,-948.5466 545.5764,-955.1318"/>
</g>
<!-- hidebound.core.specification_base&#45;&gt;hidebound.core.config -->
<g id="edge8" class="edge">
<title>hidebound.core.specification_base&#45;&gt;hidebound.core.config</title>
<path fill="none" stroke="#b6ecf3" d="M1069.283,-1005.4921C1095.7989,-1007.91 1123.0083,-1010.3911 1148.1016,-1012.6793"/>
<polygon fill="#b6ecf3" stroke="#b6ecf3" points="1148.0691,-1016.1907 1158.3456,-1013.6134 1148.7048,-1009.2196 1148.0691,-1016.1907"/>
</g>
<!-- hidebound.core.specification_base&#45;&gt;hidebound.core.database -->
<g id="edge9" class="edge">
<title>hidebound.core.specification_base&#45;&gt;hidebound.core.database</title>
<path fill="none" stroke="#b6ecf3" d="M1069.2804,-982.26C1193.1998,-970.4386 1358.3149,-945.8897 1402,-897.2901 1461.5148,-831.08 1401.7877,-579.6193 1438,-498.2901 1459.0476,-451.0192 1503.0309,-409.4275 1533.5231,-384.5755"/>
<polygon fill="#b6ecf3" stroke="#b6ecf3" points="1535.7214,-387.299 1541.3483,-378.3219 1531.3514,-381.8306 1535.7214,-387.299"/>
</g>
<!-- hidebound.core.specification_base&#45;&gt;hidebound.core.database_test_base -->
<g id="edge10" class="edge">
<title>hidebound.core.specification_base&#45;&gt;hidebound.core.database_test_base</title>
<path fill="none" stroke="#b6ecf3" d="M938.2705,-974.0765C967.8157,-935.2378 1039.8999,-841.7498 1105,-767.2901 1146.5209,-719.7996 1197.8076,-667.1541 1227.9573,-636.7719"/>
<polygon fill="#b6ecf3" stroke="#b6ecf3" points="1230.5765,-639.1017 1235.1482,-629.5439 1225.6141,-634.1646 1230.5765,-639.1017"/>
</g>
<!-- hidebound.core.specifications -->
<g id="node8" class="node">
<title>hidebound.core.specifications</title>
<polygon fill="#343434" stroke="#343434" points="1381.5,-812.2901 1125.5,-812.2901 1125.5,-776.2901 1381.5,-776.2901 1381.5,-812.2901"/>
<text text-anchor="middle" x="1253.5" y="-790.5901" font-family="Courier,monospace" font-size="14.00" fill="#b6ecf3">hidebound.core.specifications</text>
</g>
<!-- hidebound.core.specification_base&#45;&gt;hidebound.core.specifications -->
<g id="edge11" class="edge">
<title>hidebound.core.specification_base&#45;&gt;hidebound.core.specifications</title>
<path fill="none" stroke="#b6ecf3" d="M1049.2498,-974.286C1056.3782,-970.4001 1063.051,-965.7781 1069,-960.2901 1108.9888,-923.3997 1066.9201,-882.1478 1105,-843.2901 1116.2512,-831.8091 1130.2419,-823.0177 1145.1031,-816.286"/>
<polygon fill="#b6ecf3" stroke="#b6ecf3" points="1146.5903,-819.4575 1154.452,-812.355 1143.8771,-813.0047 1146.5903,-819.4575"/>
</g>
<!-- hidebound.core.test_specifications -->
<g id="node9" class="node">
<title>hidebound.core.test_specifications</title>
<polygon fill="#343434" stroke="#343434" points="1402,-888.2901 1105,-888.2901 1105,-852.2901 1402,-852.2901 1402,-888.2901"/>
<text text-anchor="middle" x="1253.5" y="-866.5901" font-family="Courier,monospace" font-size="14.00" fill="#b6ecf3">hidebound.core.test_specifications</text>
</g>
<!-- hidebound.core.specification_base&#45;&gt;hidebound.core.test_specifications -->
<g id="edge12" class="edge">
<title>hidebound.core.specification_base&#45;&gt;hidebound.core.test_specifications</title>
<path fill="none" stroke="#b6ecf3" d="M1020.9942,-974.248C1037.2049,-970.2731 1053.717,-965.6256 1069,-960.2901 1120.6462,-942.2594 1176.6872,-913.4958 1213.2865,-893.3517"/>
<polygon fill="#b6ecf3" stroke="#b6ecf3" points="1215.113,-896.341 1222.158,-888.4278 1211.7159,-890.2205 1215.113,-896.341"/>
</g>
<!-- hidebound.core.tools -->
<g id="node10" class="node">
<title>hidebound.core.tools</title>
<polygon fill="#343434" stroke="#343434" points="723.5,-240.2901 541.5,-240.2901 541.5,-204.2901 723.5,-204.2901 723.5,-240.2901"/>
<text text-anchor="middle" x="632.5" y="-218.5901" font-family="Courier,monospace" font-size="14.00" fill="#b6ecf3">hidebound.core.tools</text>
</g>
<!-- hidebound.core.tools&#45;&gt;hidebound.core.database -->
<g id="edge13" class="edge">
<title>hidebound.core.tools&#45;&gt;hidebound.core.database</title>
<path fill="none" stroke="#b6ecf3" d="M723.5449,-223.0663C812.3767,-225.2051 950.9899,-232.2224 1069,-254.2901 1085.4452,-257.3653 1088.6736,-261.6363 1105,-265.2901 1235.1568,-294.418 1271.9979,-278.4791 1402,-308.2901 1437.2024,-316.3623 1475.7374,-328.4097 1506.6036,-338.8763"/>
<polygon fill="#b6ecf3" stroke="#b6ecf3" points="1505.7472,-342.2825 1516.3418,-342.212 1508.0156,-335.6603 1505.7472,-342.2825"/>
</g>
<!-- hidebound.core.tools&#45;&gt;hidebound.core.database_tools -->
<g id="edge14" class="edge">
<title>hidebound.core.tools&#45;&gt;hidebound.core.database_tools</title>
<path fill="none" stroke="#b6ecf3" d="M673.1013,-240.366C725.7984,-263.827 817.7215,-304.7517 874.6112,-330.0793"/>
<polygon fill="#b6ecf3" stroke="#b6ecf3" points="873.2148,-333.2887 883.7739,-334.1585 876.0618,-326.8939 873.2148,-333.2887"/>
</g>
<!-- hidebound.core.tools&#45;&gt;hidebound.core.specification_base -->
<g id="edge15" class="edge">
<title>hidebound.core.tools&#45;&gt;hidebound.core.specification_base</title>
<path fill="none" stroke="#b6ecf3" d="M640.3357,-240.5277C659.7508,-286.1766 710.9031,-409.307 744,-515.2901 763.9219,-579.0841 758.5531,-597.9923 780,-661.2901 819.2925,-777.2568 882.7189,-908.9001 910.5982,-964.8281"/>
<polygon fill="#b6ecf3" stroke="#b6ecf3" points="907.6157,-966.6889 915.2226,-974.0635 913.8748,-963.5547 907.6157,-966.6889"/>
</g>
<!-- hidebound.server.server_tools -->
<g id="node16" class="node">
<title>hidebound.server.server_tools</title>
<polygon fill="#343434" stroke="#343434" points="1694,-232.2901 1438,-232.2901 1438,-196.2901 1694,-196.2901 1694,-232.2901"/>
<text text-anchor="middle" x="1566" y="-210.5901" font-family="Courier,monospace" font-size="14.00" fill="#b6ecf3">hidebound.server.server_tools</text>
</g>
<!-- hidebound.core.tools&#45;&gt;hidebound.server.server_tools -->
<g id="edge16" class="edge">
<title>hidebound.core.tools&#45;&gt;hidebound.server.server_tools</title>
<path fill="none" stroke="#b6ecf3" d="M687.4967,-204.2594C815.6677,-165.0939 1143.0131,-81.6206 1402,-157.2901 1420.2247,-162.6149 1420.6179,-172.6509 1438,-180.2901 1449.1284,-185.1808 1461.1193,-189.5016 1473.1419,-193.2792"/>
<polygon fill="#b6ecf3" stroke="#b6ecf3" points="1472.1897,-196.6477 1482.7748,-196.1929 1474.2164,-189.9475 1472.1897,-196.6477"/>
</g>
<!-- hidebound.core.traits -->
<g id="node11" class="node">
<title>hidebound.core.traits</title>
<polygon fill="#343434" stroke="#343434" points="1019.5,-652.2901 829.5,-652.2901 829.5,-616.2901 1019.5,-616.2901 1019.5,-652.2901"/>
<text text-anchor="middle" x="924.5" y="-630.5901" font-family="Courier,monospace" font-size="14.00" fill="#b6ecf3">hidebound.core.traits</text>
</g>
<!-- hidebound.core.traits&#45;&gt;hidebound.core.database_test_base -->
<g id="edge17" class="edge">
<title>hidebound.core.traits&#45;&gt;hidebound.core.database_test_base</title>
<path fill="none" stroke="#b6ecf3" d="M1019.6604,-627.6375C1044.3975,-625.9082 1071.6952,-623.9998 1098.6464,-622.1157"/>
<polygon fill="#b6ecf3" stroke="#b6ecf3" points="1099.2212,-625.5841 1108.9527,-621.3952 1098.7329,-618.6012 1099.2212,-625.5841"/>
</g>
<!-- hidebound.core.traits&#45;&gt;hidebound.core.specifications -->
<g id="edge18" class="edge">
<title>hidebound.core.traits&#45;&gt;hidebound.core.specifications</title>
<path fill="none" stroke="#b6ecf3" d="M961.6009,-652.3331C1021.9061,-681.6608 1141.0689,-739.6123 1206.9607,-771.657"/>
<polygon fill="#b6ecf3" stroke="#b6ecf3" points="1205.7589,-774.9644 1216.2826,-776.1904 1208.8204,-768.6694 1205.7589,-774.9644"/>
</g>
<!-- hidebound.core.traits&#45;&gt;hidebound.core.test_specifications -->
<g id="edge19" class="edge">
<title>hidebound.core.traits&#45;&gt;hidebound.core.test_specifications</title>
<path fill="none" stroke="#b6ecf3" d="M937.2566,-652.5388C964.0904,-689.6217 1030.1119,-774.245 1105,-821.2901 1123.3573,-832.8222 1144.7112,-841.9276 1165.4061,-848.9981"/>
<polygon fill="#b6ecf3" stroke="#b6ecf3" points="1164.5815,-852.4112 1175.1744,-852.2059 1166.7655,-845.7606 1164.5815,-852.4112"/>
</g>
<!-- hidebound.core.validators&#45;&gt;hidebound.core.config -->
<g id="edge20" class="edge">
<title>hidebound.core.validators&#45;&gt;hidebound.core.config</title>
<path fill="none" stroke="#b6ecf3" d="M657.0306,-991.3652C685.0941,-1010.8205 733.2283,-1040.5534 780,-1052.2901 914.069,-1085.9325 1075.8317,-1062.578 1171.3718,-1042.4948"/>
<polygon fill="#b6ecf3" stroke="#b6ecf3" points="1172.2164,-1045.8934 1181.2622,-1040.3776 1170.751,-1039.0485 1172.2164,-1045.8934"/>
</g>
<!-- hidebound.core.validators&#45;&gt;hidebound.core.database_test_base -->
<g id="edge21" class="edge">
<title>hidebound.core.validators&#45;&gt;hidebound.core.database_test_base</title>
<path fill="none" stroke="#b6ecf3" d="M650.8612,-954.9804C677.6447,-928.9078 729.7283,-880.5626 780,-847.2901 856.3009,-796.7899 1100.6367,-681.9494 1205.239,-633.5048"/>
<polygon fill="#b6ecf3" stroke="#b6ecf3" points="1206.7137,-636.679 1214.3198,-629.3035 1203.7744,-630.326 1206.7137,-636.679"/>
</g>
<!-- hidebound.core.validators&#45;&gt;hidebound.core.specification_base -->
<g id="edge22" class="edge">
<title>hidebound.core.validators&#45;&gt;hidebound.core.specification_base</title>
<path fill="none" stroke="#b6ecf3" d="M744.1426,-980.5545C752.4744,-981.0966 760.9645,-981.649 769.4957,-982.2042"/>
<polygon fill="#b6ecf3" stroke="#b6ecf3" points="769.3164,-985.6998 779.5225,-982.8566 769.7709,-978.7146 769.3164,-985.6998"/>
</g>
<!-- hidebound.core.validators&#45;&gt;hidebound.core.specifications -->
<g id="edge23" class="edge">
<title>hidebound.core.validators&#45;&gt;hidebound.core.specifications</title>
<path fill="none" stroke="#b6ecf3" d="M695.1744,-955.2245C811.0637,-921.82 1058.2046,-850.5829 1181.0602,-815.1704"/>
<polygon fill="#b6ecf3" stroke="#b6ecf3" points="1182.1236,-818.5065 1190.7629,-812.3737 1180.1847,-811.7804 1182.1236,-818.5065"/>
</g>
<!-- hidebound.core.validators&#45;&gt;hidebound.core.test_specifications -->
<g id="edge24" class="edge">
<title>hidebound.core.validators&#45;&gt;hidebound.core.test_specifications</title>
<path fill="none" stroke="#b6ecf3" d="M679.6155,-991.2925C761.3777,-1019.7133 933.748,-1067.0843 1069,-1019.2901 1087.2108,-1012.8549 1177.8512,-935.8004 1224.9573,-895.11"/>
<polygon fill="#b6ecf3" stroke="#b6ecf3" points="1227.4011,-897.6239 1232.6732,-888.4339 1222.8208,-892.3303 1227.4011,-897.6239"/>
</g>
<!-- hidebound.server.api&#45;&gt;hidebound.server.app -->
<g id="edge25" class="edge">
<title>hidebound.server.api&#45;&gt;hidebound.server.app</title>
<path fill="none" stroke="#b6ecf3" d="M1940.5872,-260.2901C1958.2099,-260.2901 1976.7758,-260.2901 1994.7016,-260.2901"/>
<polygon fill="#b6ecf3" stroke="#b6ecf3" points="1994.876,-263.7902 2004.8759,-260.2901 1994.8759,-256.7902 1994.876,-263.7902"/>
</g>
<!-- hidebound.server.components -->
<g id="node15" class="node">
<title>hidebound.server.components</title>
<polygon fill="#343434" stroke="#343434" points="1969,-662.2901 1730,-662.2901 1730,-626.2901 1969,-626.2901 1969,-662.2901"/>
<text text-anchor="middle" x="1849.5" y="-640.5901" font-family="Courier,monospace" font-size="14.00" fill="#b6ecf3">hidebound.server.components</text>
</g>
<!-- hidebound.server.components&#45;&gt;hidebound.server.app -->
<g id="edge26" class="edge">
<title>hidebound.server.components&#45;&gt;hidebound.server.app</title>
<path fill="none" stroke="#b6ecf3" d="M1938.5221,-626.2469C1949.7101,-621.1618 1960.2709,-614.6441 1969,-606.2901 2062.0822,-517.2074 2087.3065,-354.2115 2093.834,-288.6813"/>
<polygon fill="#b6ecf3" stroke="#b6ecf3" points="2097.3563,-288.5991 2094.7887,-278.3201 2090.3858,-287.9568 2097.3563,-288.5991"/>
</g>
<!-- hidebound.server.server_tools&#45;&gt;hidebound.server.api -->
<g id="edge27" class="edge">
<title>hidebound.server.server_tools&#45;&gt;hidebound.server.api</title>
<path fill="none" stroke="#b6ecf3" d="M1677.233,-232.3384C1700.6103,-236.1316 1725.15,-240.1133 1748.1427,-243.8441"/>
<polygon fill="#b6ecf3" stroke="#b6ecf3" points="1747.8083,-247.3355 1758.2398,-245.4824 1748.9295,-240.4259 1747.8083,-247.3355"/>
</g>
<!-- hidebound.server.server_tools&#45;&gt;hidebound.server.app -->
<g id="edge28" class="edge">
<title>hidebound.server.server_tools&#45;&gt;hidebound.server.app</title>
<path fill="none" stroke="#b6ecf3" d="M1694.4208,-215.0389C1773.8132,-216.8145 1877.6504,-221.5056 1969,-233.2901 1982.6722,-235.0538 1997.0598,-237.5158 2011.0408,-240.2416"/>
<polygon fill="#b6ecf3" stroke="#b6ecf3" points="2010.64,-243.7309 2021.1332,-242.2669 2012.0173,-236.8677 2010.64,-243.7309"/>
</g>
<!-- dash -->
<g id="node17" class="node">
<title>dash</title>
<polygon fill="#343434" stroke="#343434" points="1593,-776.2901 1539,-776.2901 1539,-740.2901 1593,-740.2901 1593,-776.2901"/>
<text text-anchor="middle" x="1566" y="-754.5901" font-family="Courier,monospace" font-size="14.00" fill="#de958e">dash</text>
</g>
<!-- dash&#45;&gt;hidebound.server.app -->
<g id="edge29" class="edge">
<title>dash&#45;&gt;hidebound.server.app</title>
<path fill="none" stroke="#de958e" d="M1593.1655,-761.0046C1664.684,-766.565 1860.1448,-771.2767 1969,-671.2901 2027.1524,-617.8754 2075.8861,-372.2862 2091.0848,-288.4384"/>
<polygon fill="#de958e" stroke="#de958e" points="2094.5298,-289.0559 2092.849,-278.5953 2087.6396,-287.8209 2094.5298,-289.0559"/>
</g>
<!-- dash&#45;&gt;hidebound.server.components -->
<g id="edge30" class="edge">
<title>dash&#45;&gt;hidebound.server.components</title>
<path fill="none" stroke="#de958e" d="M1593.1923,-755.1243C1619.6079,-751.458 1660.5185,-744.1986 1694,-731.2901 1711.2832,-724.6266 1713.8916,-719.435 1730,-710.2901 1755.6554,-695.7251 1784.6146,-679.7201 1807.599,-667.1189"/>
<polygon fill="#de958e" stroke="#de958e" points="1809.3242,-670.1646 1816.4146,-662.292 1805.9624,-664.0248 1809.3242,-670.1646"/>
</g>
<!-- dash_core_components -->
<g id="node18" class="node">
<title>dash_core_components</title>
<polygon fill="#343434" stroke="#343434" points="1657,-722.2901 1475,-722.2901 1475,-686.2901 1657,-686.2901 1657,-722.2901"/>
<text text-anchor="middle" x="1566" y="-700.5901" font-family="Courier,monospace" font-size="14.00" fill="#de958e">dash_core_components</text>
</g>
<!-- dash_core_components&#45;&gt;hidebound.server.components -->
<g id="edge31" class="edge">
<title>dash_core_components&#45;&gt;hidebound.server.components</title>
<path fill="none" stroke="#de958e" d="M1651.7238,-686.2229C1665.8486,-683.2415 1680.3351,-680.1812 1694,-677.2901 1713.7227,-673.1172 1734.8506,-668.6388 1754.9761,-664.3691"/>
<polygon fill="#de958e" stroke="#de958e" points="1755.7091,-667.7916 1764.7648,-662.2921 1754.2561,-660.9441 1755.7091,-667.7916"/>
</g>
<!-- hidebound.server -->
<g id="node19" class="node">
<title>hidebound.server</title>
<polygon fill="#343434" stroke="#343434" points="1328,-56.2901 1179,-56.2901 1179,-20.2901 1328,-20.2901 1328,-56.2901"/>
<text text-anchor="middle" x="1253.5" y="-34.5901" font-family="Courier,monospace" font-size="14.00" fill="#a0d17b">hidebound.server</text>
</g>
<!-- hidebound.server&#45;&gt;hidebound.server.api -->
<g id="edge32" class="edge">
<title>hidebound.server&#45;&gt;hidebound.server.api</title>
<path fill="none" stroke="#a0d17b" d="M1328.2552,-41.2784C1353.1038,-44.9463 1380.0179,-52.0145 1402,-65.2901 1424.2228,-78.711 1415.6875,-98.0187 1438,-111.2901 1537.1574,-170.2683 1591.4487,-101.4332 1694,-154.2901 1714.113,-164.6567 1712.0919,-176.4589 1730,-190.2901 1753.0988,-208.1302 1781.16,-224.7903 1804.2841,-237.3784"/>
<polygon fill="#a0d17b" stroke="#a0d17b" points="1802.7424,-240.5232 1813.2086,-242.1694 1806.0533,-234.3557 1802.7424,-240.5232"/>
</g>
<!-- hidebound.server&#45;&gt;hidebound.server.app -->
<g id="edge33" class="edge">
<title>hidebound.server&#45;&gt;hidebound.server.app</title>
<path fill="none" stroke="#a0d17b" d="M1319.5153,-20.2895C1412.7164,.9014 1583.7771,23.7818 1694,-57.2901 1732.0521,-85.2784 1694.6657,-125.9405 1730,-157.2901 1811.5337,-229.6291 1864.6711,-180.7279 1969,-212.2901 1993.7749,-219.7851 2020.6634,-229.6822 2043.2937,-238.5415"/>
<polygon fill="#a0d17b" stroke="#a0d17b" points="2042.1266,-241.8436 2052.7131,-242.2647 2044.6999,-235.3337 2042.1266,-241.8436"/>
</g>
<!-- hidebound.server&#45;&gt;hidebound.server.components -->
<g id="edge34" class="edge">
<title>hidebound.server&#45;&gt;hidebound.server.components</title>
<path fill="none" stroke="#a0d17b" d="M1328.012,-38.0099C1353.6896,-41.2809 1381.1933,-48.9337 1402,-65.2901 1432.9714,-89.6369 1406.7741,-122.2704 1438,-146.2901 1529.3327,-216.5451 1605.9295,-112.9865 1694,-187.2901 1698.3548,-190.9641 1807.6063,-518.4276 1840.3253,-616.709"/>
<polygon fill="#a0d17b" stroke="#a0d17b" points="1837.0245,-617.8748 1843.5034,-626.2578 1843.6663,-615.6642 1837.0245,-617.8748"/>
</g>
<!-- hidebound.server&#45;&gt;hidebound.server.server_tools -->
<g id="edge35" class="edge">
<title>hidebound.server&#45;&gt;hidebound.server.server_tools</title>
<path fill="none" stroke="#a0d17b" d="M1328.3636,-36.5814C1354.3786,-39.6533 1382.0132,-47.5443 1402,-65.2901 1442.6839,-101.4123 1398.5136,-144.8624 1438,-182.2901 1441.3639,-185.4786 1444.9957,-188.363 1448.832,-190.9714"/>
<polygon fill="#a0d17b" stroke="#a0d17b" points="1447.1679,-194.0555 1457.5326,-196.2518 1450.7997,-188.0714 1447.1679,-194.0555"/>
</g>
<!-- dash.dependencies -->
<g id="node20" class="node">
<title>dash.dependencies</title>
<polygon fill="#343434" stroke="#343434" points="1928,-148.2901 1771,-148.2901 1771,-112.2901 1928,-112.2901 1928,-148.2901"/>
<text text-anchor="middle" x="1849.5" y="-126.5901" font-family="Courier,monospace" font-size="14.00" fill="#de958e">dash.dependencies</text>
</g>
<!-- dash.dependencies&#45;&gt;hidebound.server.app -->
<g id="edge36" class="edge">
<title>dash.dependencies&#45;&gt;hidebound.server.app</title>
<path fill="none" stroke="#de958e" d="M1928.2712,-146.6185C1942.1978,-150.8326 1956.2947,-156.0043 1969,-162.2901 2007.5165,-181.3457 2045.7405,-213.0329 2070.0318,-235.2018"/>
<polygon fill="#de958e" stroke="#de958e" points="2067.6967,-237.8097 2077.4117,-242.037 2072.4533,-232.6741 2067.6967,-237.8097"/>
</g>
<!-- dash_html_components -->
<g id="node21" class="node">
<title>dash_html_components</title>
<polygon fill="#343434" stroke="#343434" points="1657,-614.2901 1475,-614.2901 1475,-578.2901 1657,-578.2901 1657,-614.2901"/>
<text text-anchor="middle" x="1566" y="-592.5901" font-family="Courier,monospace" font-size="14.00" fill="#de958e">dash_html_components</text>
</g>
<!-- dash_html_components&#45;&gt;hidebound.server.app -->
<g id="edge37" class="edge">
<title>dash_html_components&#45;&gt;hidebound.server.app</title>
<path fill="none" stroke="#de958e" d="M1657.3583,-599.7735C1760.731,-601.8915 1920.9793,-599.0938 1969,-564.2901 2061.1863,-497.4766 2086.7957,-350.7765 2093.6277,-288.8117"/>
<polygon fill="#de958e" stroke="#de958e" points="2097.1361,-288.9051 2094.6655,-278.6024 2090.172,-288.1971 2097.1361,-288.9051"/>
</g>
<!-- dash_html_components&#45;&gt;hidebound.server.components -->
<g id="edge38" class="edge">
<title>dash_html_components&#45;&gt;hidebound.server.components</title>
<path fill="none" stroke="#de958e" d="M1657.2617,-611.7418C1681.4115,-615.8306 1707.8104,-620.3003 1733.0969,-624.5816"/>
<polygon fill="#de958e" stroke="#de958e" points="1732.6561,-628.0567 1743.1001,-626.2753 1733.8247,-621.1549 1732.6561,-628.0567"/>
</g>
<!-- dash_table -->
<g id="node22" class="node">
<title>dash_table</title>
<polygon fill="#343434" stroke="#343434" points="1615.5,-668.2901 1516.5,-668.2901 1516.5,-632.2901 1615.5,-632.2901 1615.5,-668.2901"/>
<text text-anchor="middle" x="1566" y="-646.5901" font-family="Courier,monospace" font-size="14.00" fill="#de958e">dash_table</text>
</g>
<!-- dash_table&#45;&gt;hidebound.server.components -->
<g id="edge39" class="edge">
<title>dash_table&#45;&gt;hidebound.server.components</title>
<path fill="none" stroke="#de958e" d="M1615.7063,-649.2381C1644.6647,-648.6252 1682.6525,-647.8212 1719.5644,-647.04"/>
<polygon fill="#de958e" stroke="#de958e" points="1720.0149,-650.5314 1729.9385,-646.8205 1719.8667,-643.5329 1720.0149,-650.5314"/>
</g>
<!-- dash.exceptions -->
<g id="node23" class="node">
<title>dash.exceptions</title>
<polygon fill="#343434" stroke="#343434" points="1919.5,-94.2901 1779.5,-94.2901 1779.5,-58.2901 1919.5,-58.2901 1919.5,-94.2901"/>
<text text-anchor="middle" x="1849.5" y="-72.5901" font-family="Courier,monospace" font-size="14.00" fill="#de958e">dash.exceptions</text>
</g>
<!-- dash.exceptions&#45;&gt;hidebound.server.app -->
<g id="edge40" class="edge">
<title>dash.exceptions&#45;&gt;hidebound.server.app</title>
<path fill="none" stroke="#de958e" d="M1919.5469,-83.9876C1936.607,-87.9979 1954.19,-94.0785 1969,-103.2901 2021.3324,-135.8399 2061.6781,-197.7177 2081.8227,-233.2971"/>
<polygon fill="#de958e" stroke="#de958e" points="2078.8272,-235.1127 2086.7333,-242.1657 2084.9511,-231.7218 2078.8272,-235.1127"/>
</g>
<!-- flask -->
<g id="node24" class="node">
<title>flask</title>
<polygon fill="#343434" stroke="#343434" points="1282.5,-202.2901 1224.5,-202.2901 1224.5,-166.2901 1282.5,-166.2901 1282.5,-202.2901"/>
<text text-anchor="middle" x="1253.5" y="-180.5901" font-family="Courier,monospace" font-size="14.00" fill="#de958e">flask</text>
</g>
<!-- flask&#45;&gt;hidebound.server.api -->
<g id="edge41" class="edge">
<title>flask&#45;&gt;hidebound.server.api</title>
<path fill="none" stroke="#de958e" d="M1282.7355,-185.2294C1313.6835,-187.2017 1363.3068,-193.2017 1402,-211.2901 1420.8675,-220.1102 1418.5854,-233.75 1438,-241.2901 1538.1983,-280.2039 1662.5839,-279.9738 1748.218,-273.1498"/>
<polygon fill="#de958e" stroke="#de958e" points="1748.5321,-276.6358 1758.2037,-272.3102 1747.9455,-269.6604 1748.5321,-276.6358"/>
</g>
<!-- flask&#45;&gt;hidebound.server.app -->
<g id="edge42" class="edge">
<title>flask&#45;&gt;hidebound.server.app</title>
<path fill="none" stroke="#de958e" d="M1282.7155,-182.7294C1314.7814,-182.4718 1366.4228,-186.4908 1402,-211.2901 1427.8254,-229.2918 1411.0719,-255.984 1438,-272.2901 1538.9769,-333.4356 1851.5998,-299.6317 1969,-287.2901 1983.5716,-285.7582 1998.931,-283.2636 2013.7389,-280.3939"/>
<polygon fill="#de958e" stroke="#de958e" points="2014.7716,-283.7564 2023.8858,-278.3545 2013.3922,-276.8937 2014.7716,-283.7564"/>
</g>
<!-- flask&#45;&gt;hidebound.server.server_tools -->
<g id="edge43" class="edge">
<title>flask&#45;&gt;hidebound.server.server_tools</title>
<path fill="none" stroke="#de958e" d="M1282.6186,-187.0854C1316.0681,-190.2966 1373.3558,-195.7962 1427.7064,-201.0139"/>
<polygon fill="#de958e" stroke="#de958e" points="1427.5255,-204.5125 1437.8142,-201.9842 1428.1945,-197.5445 1427.5255,-204.5125"/>
</g>
<!-- jinja2 -->
<g id="node25" class="node">
<title>jinja2</title>
<polygon fill="#343434" stroke="#343434" points="1286.5,-110.2901 1220.5,-110.2901 1220.5,-74.2901 1286.5,-74.2901 1286.5,-110.2901"/>
<text text-anchor="middle" x="1253.5" y="-88.5901" font-family="Courier,monospace" font-size="14.00" fill="#de958e">jinja2</text>
</g>
<!-- jinja2&#45;&gt;hidebound.server.server_tools -->
<g id="edge44" class="edge">
<title>jinja2&#45;&gt;hidebound.server.server_tools</title>
<path fill="none" stroke="#de958e" d="M1286.5392,-92.1889C1318.7376,-93.6434 1367.7205,-100.1384 1402,-124.2901 1426.8021,-141.7643 1413.4872,-164.4122 1438,-182.2901 1442.861,-185.8353 1448.0719,-188.9899 1453.5098,-191.7967"/>
<polygon fill="#de958e" stroke="#de958e" points="1452.3159,-195.1032 1462.8539,-196.1996 1455.2997,-188.771 1452.3159,-195.1032"/>
</g>
<!-- hidebound -->
<g id="node26" class="node">
<title>hidebound</title>
<polygon fill="#343434" stroke="#343434" points="91,-427.2901 0,-427.2901 0,-391.2901 91,-391.2901 91,-427.2901"/>
<text text-anchor="middle" x="45.5" y="-405.5901" font-family="Courier,monospace" font-size="14.00" fill="#a0d17b">hidebound</text>
</g>
<!-- hidebound&#45;&gt;hidebound.server -->
<g id="edge45" class="edge">
<title>hidebound&#45;&gt;hidebound.server</title>
<path fill="none" stroke="#a0d17b" d="M78.5296,-391.1545C82.8493,-388.364 87.1181,-385.3777 91,-382.2901 241.5654,-262.5343 197.6166,-69.2901 390,-69.2901 390,-69.2901 390,-69.2901 632.5,-69.2901 824.4481,-69.2901 1049.3548,-54.3335 1168.8253,-45.1981"/>
<polygon fill="#a0d17b" stroke="#a0d17b" points="1169.2976,-48.6722 1178.9994,-44.4147 1168.7601,-41.6928 1169.2976,-48.6722"/>
</g>
<!-- hidebound.core -->
<g id="node29" class="node">
<title>hidebound.core</title>
<polygon fill="#343434" stroke="#343434" points="259,-736.2901 127,-736.2901 127,-700.2901 259,-700.2901 259,-736.2901"/>
<text text-anchor="middle" x="193" y="-714.5901" font-family="Courier,monospace" font-size="14.00" fill="#a0d17b">hidebound.core</text>
</g>
<!-- hidebound&#45;&gt;hidebound.core -->
<g id="edge46" class="edge">
<title>hidebound&#45;&gt;hidebound.core</title>
<path fill="none" stroke="#a0d17b" d="M54.2851,-427.694C79.1871,-479.8618 150.3413,-628.9236 179.8894,-690.8244"/>
<polygon fill="#a0d17b" stroke="#a0d17b" points="176.7945,-692.4657 184.261,-699.9825 183.1117,-689.4502 176.7945,-692.4657"/>
</g>
<!-- flasgger -->
<g id="node27" class="node">
<title>flasgger</title>
<polygon fill="#343434" stroke="#343434" points="1607.5,-102.2901 1524.5,-102.2901 1524.5,-66.2901 1607.5,-66.2901 1607.5,-102.2901"/>
<text text-anchor="middle" x="1566" y="-80.5901" font-family="Courier,monospace" font-size="14.00" fill="#de958e">flasgger</text>
</g>
<!-- flasgger&#45;&gt;hidebound.server.api -->
<g id="edge47" class="edge">
<title>flasgger&#45;&gt;hidebound.server.api</title>
<path fill="none" stroke="#de958e" d="M1607.7608,-85.8229C1634.9386,-88.8035 1669.7172,-96.5933 1694,-116.2901 1722.4047,-139.3303 1705.1542,-163.4504 1730,-190.2901 1748.3753,-210.1399 1773.6781,-226.062 1796.2713,-237.675"/>
<polygon fill="#de958e" stroke="#de958e" points="1794.9177,-240.9107 1805.4302,-242.2286 1798.0341,-234.6426 1794.9177,-240.9107"/>
</g>
<!-- flasgger&#45;&gt;hidebound.server.app -->
<g id="edge48" class="edge">
<title>flasgger&#45;&gt;hidebound.server.app</title>
<path fill="none" stroke="#de958e" d="M1607.2593,-66.2605C1684.0583,-35.6634 1851.7697,16.9768 1969,-49.2901 2039.2193,-88.983 2074.9151,-184.7638 2088.8361,-232.4089"/>
<polygon fill="#de958e" stroke="#de958e" points="2085.4785,-233.3982 2091.5538,-242.0781 2092.2174,-231.5041 2085.4785,-233.3982"/>
</g>
<!-- pandasql -->
<g id="node28" class="node">
<title>pandasql</title>
<polygon fill="#343434" stroke="#343434" points="1295,-256.2901 1212,-256.2901 1212,-220.2901 1295,-220.2901 1295,-256.2901"/>
<text text-anchor="middle" x="1253.5" y="-234.5901" font-family="Courier,monospace" font-size="14.00" fill="#de958e">pandasql</text>
</g>
<!-- pandasql&#45;&gt;hidebound.core.database -->
<g id="edge49" class="edge">
<title>pandasql&#45;&gt;hidebound.core.database</title>
<path fill="none" stroke="#de958e" d="M1295.3256,-239.3368C1326.9102,-241.9158 1370.1129,-249.4211 1402,-270.2901 1424.9122,-285.2853 1415.7907,-304.2721 1438,-320.2901 1448.132,-327.5975 1459.6398,-333.599 1471.5016,-338.5208"/>
<polygon fill="#de958e" stroke="#de958e" points="1470.4822,-341.8797 1481.0709,-342.241 1473.0187,-335.3553 1470.4822,-341.8797"/>
</g>
<!-- hidebound.core&#45;&gt;hidebound.core.config -->
<g id="edge50" class="edge">
<title>hidebound.core&#45;&gt;hidebound.core.config</title>
<path fill="none" stroke="#a0d17b" d="M197.4845,-736.4489C215.503,-809.1479 282.2692,-1075.9313 295,-1089.2901 367.9155,-1165.8021 416.6283,-1146.6376 521,-1163.2901 761.6292,-1201.6823 837.8512,-1223.4044 1069,-1146.2901 1131.7014,-1125.372 1193.086,-1076.9421 1226.8511,-1047.175"/>
<polygon fill="#a0d17b" stroke="#a0d17b" points="1229.3059,-1049.6752 1234.4258,-1040.3995 1224.639,-1044.4578 1229.3059,-1049.6752"/>
</g>
<!-- hidebound.core&#45;&gt;hidebound.core.database -->
<g id="edge51" class="edge">
<title>hidebound.core&#45;&gt;hidebound.core.database</title>
<path fill="none" stroke="#a0d17b" d="M206.3898,-700.2117C224.3566,-677.0043 258.2828,-636.7072 295,-611.2901 384.7293,-549.1757 419.5862,-555.5986 521,-515.2901 635.083,-469.9459 660.0609,-445.4743 780,-419.2901 812.2682,-412.2455 1243.0088,-382.263 1452.7697,-367.952"/>
<polygon fill="#a0d17b" stroke="#a0d17b" points="1453.1563,-371.4339 1462.8951,-367.2617 1452.6801,-364.4501 1453.1563,-371.4339"/>
</g>
<!-- hidebound.core&#45;&gt;hidebound.core.database_test_base -->
<g id="edge52" class="edge">
<title>hidebound.core&#45;&gt;hidebound.core.database_test_base</title>
<path fill="none" stroke="#a0d17b" d="M233.9351,-700.2656C295.0428,-674.3277 414.3669,-627.3897 521,-607.2901 717.6846,-570.2162 949.3855,-580.2387 1098.7102,-593.462"/>
<polygon fill="#a0d17b" stroke="#a0d17b" points="1098.5975,-596.966 1108.8714,-594.3781 1099.226,-589.9942 1098.5975,-596.966"/>
</g>
<!-- hidebound.core&#45;&gt;hidebound.core.database_tools -->
<g id="edge53" class="edge">
<title>hidebound.core&#45;&gt;hidebound.core.database_tools</title>
<path fill="none" stroke="#a0d17b" d="M196.2376,-700.1982C207.4943,-639.4481 246.8775,-444.4309 295,-406.2901 368.4123,-348.105 624.0774,-343.5229 786.1248,-346.9179"/>
<polygon fill="#a0d17b" stroke="#a0d17b" points="786.1023,-350.4182 796.1776,-347.1412 786.2578,-343.4199 786.1023,-350.4182"/>
</g>
<!-- hidebound.core&#45;&gt;hidebound.core.parser -->
<g id="edge54" class="edge">
<title>hidebound.core&#45;&gt;hidebound.core.parser</title>
<path fill="none" stroke="#a0d17b" d="M202.7652,-736.2971C218.5948,-763.8581 252.4215,-816.4402 295,-846.2901 300.1435,-849.896 305.7252,-853.1212 311.5191,-856.0014"/>
<polygon fill="#a0d17b" stroke="#a0d17b" points="310.2179,-859.2552 320.7661,-860.2485 313.1396,-852.8941 310.2179,-859.2552"/>
</g>
<!-- hidebound.core&#45;&gt;hidebound.core.specification_base -->
<g id="edge55" class="edge">
<title>hidebound.core&#45;&gt;hidebound.core.specification_base</title>
<path fill="none" stroke="#a0d17b" d="M208.3501,-736.4786C226.7875,-757.1096 259.6768,-790.2237 295,-808.2901 372.083,-847.7148 402.826,-824.0224 485,-851.2901 501.6181,-856.8044 504.1853,-862.4081 521,-867.2901 617.2171,-895.2256 655.1162,-854.0538 744,-900.2901 764.639,-911.0262 760.6045,-925.4429 780,-938.2901 800.4157,-951.8129 824.6821,-962.5648 847.4438,-970.7999"/>
<polygon fill="#a0d17b" stroke="#a0d17b" points="846.4963,-974.1763 857.0911,-974.1759 848.8084,-967.5692 846.4963,-974.1763"/>
</g>
<!-- hidebound.core&#45;&gt;hidebound.core.specifications -->
<g id="edge56" class="edge">
<title>hidebound.core&#45;&gt;hidebound.core.specifications</title>
<path fill="none" stroke="#a0d17b" d="M259.339,-723.0442C429.5749,-735.244 884.665,-767.8577 1115.3504,-784.3897"/>
<polygon fill="#a0d17b" stroke="#a0d17b" points="1115.2636,-787.8923 1125.4882,-785.1162 1115.764,-780.9102 1115.2636,-787.8923"/>
</g>
<!-- hidebound.core&#45;&gt;hidebound.core.test_specifications -->
<g id="edge57" class="edge">
<title>hidebound.core&#45;&gt;hidebound.core.test_specifications</title>
<path fill="none" stroke="#a0d17b" d="M253.3448,-736.3489C266.96,-740.005 281.407,-743.5601 295,-746.2901 635.0687,-814.5879 725.0193,-801.6964 1069,-846.2901 1080.637,-847.7987 1092.6866,-849.3624 1104.7975,-850.9353"/>
<polygon fill="#a0d17b" stroke="#a0d17b" points="1104.6097,-854.4402 1114.9772,-852.2576 1105.5114,-847.4985 1104.6097,-854.4402"/>
</g>
<!-- hidebound.core&#45;&gt;hidebound.core.tools -->
<g id="edge58" class="edge">
<title>hidebound.core&#45;&gt;hidebound.core.tools</title>
<path fill="none" stroke="#a0d17b" d="M193.8375,-700.0196C197.998,-618.2801 219.3669,-287.4378 295,-225.2901 371.7978,-162.1853 495.0081,-181.3938 569.4017,-201.5368"/>
<polygon fill="#a0d17b" stroke="#a0d17b" points="568.5454,-204.9315 579.1182,-204.2482 570.4269,-198.1891 568.5454,-204.9315"/>
</g>
<!-- hidebound.core&#45;&gt;hidebound.core.traits -->
<g id="edge59" class="edge">
<title>hidebound.core&#45;&gt;hidebound.core.traits</title>
<path fill="none" stroke="#a0d17b" d="M259.2673,-712.4145C362.8609,-703.0087 569.3989,-683.3684 744,-661.2901 768.3131,-658.2157 794.4109,-654.5344 818.9957,-650.8937"/>
<polygon fill="#a0d17b" stroke="#a0d17b" points="819.6881,-654.3292 829.0627,-649.3928 818.6559,-647.4057 819.6881,-654.3292"/>
</g>
<!-- hidebound.core&#45;&gt;hidebound.core.validators -->
<g id="edge60" class="edge">
<title>hidebound.core&#45;&gt;hidebound.core.validators</title>
<path fill="none" stroke="#a0d17b" d="M197.3294,-736.3405C207.4059,-774.205 236.1749,-862.0001 295,-905.2901 364.3597,-956.3325 400.5832,-926.2637 485,-943.2901 500.8039,-946.4776 517.5572,-949.8712 533.8844,-953.1863"/>
<polygon fill="#a0d17b" stroke="#a0d17b" points="533.4863,-956.6769 543.983,-955.2378 534.8799,-949.817 533.4863,-956.6769"/>
</g>
<!-- numpy -->
<g id="node30" class="node">
<title>numpy</title>
<polygon fill="#343434" stroke="#343434" points="661.5,-560.2901 603.5,-560.2901 603.5,-524.2901 661.5,-524.2901 661.5,-560.2901"/>
<text text-anchor="middle" x="632.5" y="-538.5901" font-family="Courier,monospace" font-size="14.00" fill="#de958e">numpy</text>
</g>
<!-- numpy&#45;&gt;hidebound.core.database -->
<g id="edge61" class="edge">
<title>numpy&#45;&gt;hidebound.core.database</title>
<path fill="none" stroke="#de958e" d="M661.7907,-535.3896C685.4014,-528.894 718.7175,-517.5538 744,-500.2901 763.752,-486.8027 758.5421,-470.8546 780,-460.2901 904.3761,-399.0549 1265.9151,-438.7487 1402,-412.2901 1438.3782,-405.2171 1478.0168,-392.7857 1509.2106,-381.8512"/>
<polygon fill="#de958e" stroke="#de958e" points="1510.7765,-385.0092 1519.0269,-378.3623 1508.4322,-378.4134 1510.7765,-385.0092"/>
</g>
<!-- numpy&#45;&gt;hidebound.core.database_test_base -->
<g id="edge62" class="edge">
<title>numpy&#45;&gt;hidebound.core.database_test_base</title>
<path fill="none" stroke="#de958e" d="M661.7266,-537.7926C732.4668,-527.7893 918.1935,-506.8097 1069,-536.2901 1119.9313,-546.2464 1174.5598,-570.3077 1211.044,-588.5128"/>
<polygon fill="#de958e" stroke="#de958e" points="1209.8721,-591.8425 1220.3745,-593.2387 1213.0351,-585.5979 1209.8721,-591.8425"/>
</g>
<!-- numpy&#45;&gt;hidebound.core.database_tools -->
<g id="edge63" class="edge">
<title>numpy&#45;&gt;hidebound.core.database_tools</title>
<path fill="none" stroke="#de958e" d="M661.9589,-540.8021C686.6348,-538.0771 721.3591,-530.5918 744,-510.2901 775.4614,-482.0791 751.0723,-453.0938 780,-422.2901 800.1394,-400.8446 828.2326,-385.1842 854.2986,-374.1839"/>
<polygon fill="#de958e" stroke="#de958e" points="855.8364,-377.3373 863.7916,-370.3399 853.209,-370.8491 855.8364,-377.3373"/>
</g>
<!-- numpy&#45;&gt;hidebound.server.api -->
<g id="edge64" class="edge">
<title>numpy&#45;&gt;hidebound.server.api</title>
<path fill="none" stroke="#de958e" d="M661.5509,-536.8272C691.2587,-531.3214 738.7674,-522.739 780,-516.2901 1185.3207,-452.8964 1341.7953,-597.6598 1694,-387.2901 1716.8938,-373.6157 1710.5925,-357.5783 1730,-339.2901 1753.1116,-317.5114 1782.8973,-297.8046 1806.9496,-283.5209"/>
<polygon fill="#de958e" stroke="#de958e" points="1808.9893,-286.383 1815.8613,-278.3191 1805.4605,-280.3375 1808.9893,-286.383"/>
</g>
<!-- pandas -->
<g id="node31" class="node">
<title>pandas</title>
<polygon fill="#343434" stroke="#343434" points="423,-324.2901 357,-324.2901 357,-288.2901 423,-288.2901 423,-324.2901"/>
<text text-anchor="middle" x="390" y="-302.5901" font-family="Courier,monospace" font-size="14.00" fill="#de958e">pandas</text>
</g>
<!-- pandas&#45;&gt;hidebound.core.database -->
<g id="edge65" class="edge">
<title>pandas&#45;&gt;hidebound.core.database</title>
<path fill="none" stroke="#de958e" d="M423.1533,-298.4963C449.5,-292.7209 487.3809,-285.3442 521,-282.2901 642.2783,-271.2723 950.4799,-254.3113 1069,-282.2901 1086.41,-286.4 1087.8922,-295.0629 1105,-300.2901 1167.8908,-319.506 1337.5106,-338.5699 1452.4997,-349.8891"/>
<polygon fill="#de958e" stroke="#de958e" points="1452.4641,-353.4022 1462.7574,-350.8926 1453.1457,-346.4355 1452.4641,-353.4022"/>
</g>
<!-- pandas&#45;&gt;hidebound.core.database_test_base -->
<g id="edge66" class="edge">
<title>pandas&#45;&gt;hidebound.core.database_test_base</title>
<path fill="none" stroke="#de958e" d="M423.0378,-303.2521C543.3672,-292.7856 956.9999,-262.2114 1069,-325.2901 1171.4476,-382.9888 1226.104,-523.7882 1245.3672,-583.6393"/>
<polygon fill="#de958e" stroke="#de958e" points="1242.0274,-584.6862 1248.3575,-593.1821 1248.7071,-582.5931 1242.0274,-584.6862"/>
</g>
<!-- pandas&#45;&gt;hidebound.core.database_tools -->
<g id="edge67" class="edge">
<title>pandas&#45;&gt;hidebound.core.database_tools</title>
<path fill="none" stroke="#de958e" d="M423.0861,-310.0787C449.5571,-313.0488 487.6359,-317.1848 521,-320.2901 609.0565,-328.4855 708.05,-336.3567 785.9464,-342.2418"/>
<polygon fill="#de958e" stroke="#de958e" points="786.0735,-345.7612 796.3081,-343.0223 786.5993,-338.7809 786.0735,-345.7612"/>
</g>
<!-- pandas&#45;&gt;hidebound.core.tools -->
<g id="edge68" class="edge">
<title>pandas&#45;&gt;hidebound.core.tools</title>
<path fill="none" stroke="#de958e" d="M423.0624,-299.7266C441.7824,-295.3213 465.3165,-288.6036 485,-279.2901 502.608,-270.9586 503.4027,-262.6442 521,-254.2901 529.2835,-250.3575 538.1475,-246.8116 547.1235,-243.6392"/>
<polygon fill="#de958e" stroke="#de958e" points="548.5307,-246.8582 556.8853,-240.3427 546.2911,-240.2262 548.5307,-246.8582"/>
</g>
<!-- humanfriendly -->
<g id="node32" class="node">
<title>humanfriendly</title>
<polygon fill="#343434" stroke="#343434" points="452,-270.2901 328,-270.2901 328,-234.2901 452,-234.2901 452,-270.2901"/>
<text text-anchor="middle" x="390" y="-248.5901" font-family="Courier,monospace" font-size="14.00" fill="#de958e">humanfriendly</text>
</g>
<!-- humanfriendly&#45;&gt;hidebound.core.tools -->
<g id="edge69" class="edge">
<title>humanfriendly&#45;&gt;hidebound.core.tools</title>
<path fill="none" stroke="#de958e" d="M452.1349,-244.6033C476.1506,-241.6322 504.2629,-238.1544 531.05,-234.8406"/>
<polygon fill="#de958e" stroke="#de958e" points="531.7456,-238.2813 541.2402,-233.5799 530.8861,-231.3342 531.7456,-238.2813"/>
</g>
<!-- schematics.exceptions -->
<g id="node33" class="node">
<title>schematics.exceptions</title>
<polygon fill="#343434" stroke="#343434" points="485,-1080.2901 295,-1080.2901 295,-1044.2901 485,-1044.2901 485,-1080.2901"/>
<text text-anchor="middle" x="390" y="-1058.5901" font-family="Courier,monospace" font-size="14.00" fill="#de958e">schematics.exceptions</text>
</g>
<!-- schematics.exceptions&#45;&gt;hidebound.core.config -->
<g id="edge70" class="edge">
<title>schematics.exceptions&#45;&gt;hidebound.core.config</title>
<path fill="none" stroke="#de958e" d="M414.5235,-1080.4631C439.738,-1097.9258 480.8799,-1123.1169 521,-1133.2901 757.4615,-1193.2492 832.767,-1163.1431 1069,-1102.2901 1119.8985,-1089.1787 1174.7386,-1063.8218 1211.2822,-1045.1562"/>
<polygon fill="#de958e" stroke="#de958e" points="1213.3491,-1048.0277 1220.6248,-1040.326 1210.1343,-1041.8096 1213.3491,-1048.0277"/>
</g>
<!-- schematics.exceptions&#45;&gt;hidebound.core.database_tools -->
<g id="edge71" class="edge">
<title>schematics.exceptions&#45;&gt;hidebound.core.database_tools</title>
<path fill="none" stroke="#de958e" d="M432.3022,-1044.0725C451.7668,-1033.3905 473.129,-1017.8964 485,-997.2901 538.6163,-904.2197 452.1797,-597.7555 521,-515.2901 586.6161,-436.6641 654.768,-507.5411 744,-457.2901 763.4441,-446.3401 761.7248,-435.096 780,-422.2901 807.381,-403.1035 840.8243,-386.5297 868.6388,-374.3321"/>
<polygon fill="#de958e" stroke="#de958e" points="870.0416,-377.5388 877.8389,-370.3658 867.2703,-371.1107 870.0416,-377.5388"/>
</g>
<!-- schematics.exceptions&#45;&gt;hidebound.core.specification_base -->
<g id="edge72" class="edge">
<title>schematics.exceptions&#45;&gt;hidebound.core.specification_base</title>
<path fill="none" stroke="#de958e" d="M485.2498,-1049.8158C566.1877,-1039.2159 683.7213,-1023.8233 776.8464,-1011.6273"/>
<polygon fill="#de958e" stroke="#de958e" points="777.4651,-1015.0762 786.9259,-1010.3072 776.556,-1008.1355 777.4651,-1015.0762"/>
</g>
<!-- schematics.exceptions&#45;&gt;hidebound.core.tools -->
<g id="edge73" class="edge">
<title>schematics.exceptions&#45;&gt;hidebound.core.tools</title>
<path fill="none" stroke="#de958e" d="M432.3444,-1044.0967C451.8193,-1033.4207 473.1781,-1017.9246 485,-997.2901 542.0306,-897.7459 494.0134,-593.7946 521,-482.2901 542.6173,-392.9709 592.1989,-295.3234 617.3187,-249.237"/>
<polygon fill="#de958e" stroke="#de958e" points="620.3906,-250.9142 622.145,-240.4656 614.2577,-247.5396 620.3906,-250.9142"/>
</g>
<!-- schematics.exceptions&#45;&gt;hidebound.core.validators -->
<g id="edge74" class="edge">
<title>schematics.exceptions&#45;&gt;hidebound.core.validators</title>
<path fill="none" stroke="#de958e" d="M451.5175,-1044.2131C462.8666,-1040.14 474.4553,-1035.4679 485,-1030.2901 502.2609,-1021.8143 503.5846,-1014.4437 521,-1006.2901 530.2829,-1001.9439 540.2696,-998.0236 550.3157,-994.5312"/>
<polygon fill="#de958e" stroke="#de958e" points="551.5693,-997.8027 559.9448,-991.3141 549.351,-991.1634 551.5693,-997.8027"/>
</g>
<!-- schematics.exceptions&#45;&gt;hidebound.server.api -->
<g id="edge75" class="edge">
<title>schematics.exceptions&#45;&gt;hidebound.server.api</title>
<path fill="none" stroke="#de958e" d="M405.9802,-1080.5248C428.681,-1104.8894 472.8859,-1146.8957 521,-1163.2901 894.7206,-1290.6312 1153.4011,-1356.0171 1402,-1049.2901 1469.3514,-966.1903 1376.8554,-657.0574 1438,-569.2901 1509.5089,-466.6457 1595.1255,-528.927 1694,-452.2901 1755.6475,-404.5075 1808.172,-327.7365 1833.4312,-287.2651"/>
<polygon fill="#de958e" stroke="#de958e" points="1836.5658,-288.8495 1838.8289,-278.4991 1830.6052,-285.1791 1836.5658,-288.8495"/>
</g>
<!-- pyparsing -->
<g id="node34" class="node">
<title>pyparsing</title>
<polygon fill="#343434" stroke="#343434" points="238.5,-1034.2901 147.5,-1034.2901 147.5,-998.2901 238.5,-998.2901 238.5,-1034.2901"/>
<text text-anchor="middle" x="193" y="-1012.5901" font-family="Courier,monospace" font-size="14.00" fill="#de958e">pyparsing</text>
</g>
<!-- pyparsing&#45;&gt;hidebound.core.parser -->
<g id="edge76" class="edge">
<title>pyparsing&#45;&gt;hidebound.core.parser</title>
<path fill="none" stroke="#de958e" d="M218.0456,-998.1418C238.6295,-983.2804 268.595,-961.7691 295,-943.2901 314.6987,-929.5043 336.8646,-914.3196 354.8279,-902.0958"/>
<polygon fill="#de958e" stroke="#de958e" points="356.976,-904.8678 363.2794,-896.352 353.0413,-899.0783 356.976,-904.8678"/>
</g>
<!-- pyparsing&#45;&gt;hidebound.core.specification_base -->
<g id="edge77" class="edge">
<title>pyparsing&#45;&gt;hidebound.core.specification_base</title>
<path fill="none" stroke="#de958e" d="M210.923,-1034.5609C229.8807,-1052.4644 261.6177,-1078.5751 295,-1089.2901 375.4041,-1115.0979 401.3293,-1100.6951 485,-1089.2901 501.4537,-1087.0473 504.7783,-1082.841 521,-1079.2901 619.0721,-1057.8221 645.9756,-1064.9749 744,-1043.2901 781.9093,-1034.9038 823.6601,-1023.2665 857.451,-1013.2255"/>
<polygon fill="#de958e" stroke="#de958e" points="858.6373,-1016.5239 867.2137,-1010.3033 856.63,-1009.8179 858.6373,-1016.5239"/>
</g>
<!-- pyparsing&#45;&gt;hidebound.core.validators -->
<g id="edge78" class="edge">
<title>pyparsing&#45;&gt;hidebound.core.validators</title>
<path fill="none" stroke="#de958e" d="M238.6412,-1014.6818C296.2108,-1012.3407 398.1798,-1007.1548 485,-997.2901 496.1653,-996.0214 507.7747,-994.4951 519.3584,-992.8345"/>
<polygon fill="#de958e" stroke="#de958e" points="520.1334,-996.2583 529.5195,-991.3438 519.1173,-989.3325 520.1334,-996.2583"/>
</g>
<!-- schematics -->
<g id="node35" class="node">
<title>schematics</title>
<polygon fill="#343434" stroke="#343434" points="682,-1124.2901 583,-1124.2901 583,-1088.2901 682,-1088.2901 682,-1124.2901"/>
<text text-anchor="middle" x="632.5" y="-1102.5901" font-family="Courier,monospace" font-size="14.00" fill="#de958e">schematics</text>
</g>
<!-- schematics&#45;&gt;hidebound.core.config -->
<g id="edge79" class="edge">
<title>schematics&#45;&gt;hidebound.core.config</title>
<path fill="none" stroke="#de958e" d="M682.3234,-1105.8908C763.7996,-1104.5123 930.3627,-1098.652 1069,-1074.2901 1110.1952,-1067.0511 1155.4114,-1054.3863 1190.7709,-1043.3682"/>
<polygon fill="#de958e" stroke="#de958e" points="1191.9863,-1046.655 1200.4712,-1040.3101 1189.8815,-1039.9789 1191.9863,-1046.655"/>
</g>
<!-- schematics&#45;&gt;hidebound.core.specification_base -->
<g id="edge80" class="edge">
<title>schematics&#45;&gt;hidebound.core.specification_base</title>
<path fill="none" stroke="#de958e" d="M682.1267,-1093.7297C701.6219,-1088.3601 724.063,-1081.6344 744,-1074.2901 791.2883,-1056.8701 843.5285,-1032.5532 879.5877,-1014.9268"/>
<polygon fill="#de958e" stroke="#de958e" points="881.4225,-1017.9249 888.8519,-1010.3715 878.3336,-1011.6433 881.4225,-1017.9249"/>
</g>
<!-- schematics.types -->
<g id="node36" class="node">
<title>schematics.types</title>
<polygon fill="#343434" stroke="#343434" points="707,-858.2901 558,-858.2901 558,-822.2901 707,-822.2901 707,-858.2901"/>
<text text-anchor="middle" x="632.5" y="-836.5901" font-family="Courier,monospace" font-size="14.00" fill="#de958e">schematics.types</text>
</g>
<!-- schematics.types&#45;&gt;hidebound.core.config -->
<g id="edge81" class="edge">
<title>schematics.types&#45;&gt;hidebound.core.config</title>
<path fill="none" stroke="#de958e" d="M696.9661,-858.3001C782.2432,-882.2273 937.1615,-926.0521 1069,-965.2901 1108.0631,-976.9161 1151.6328,-990.3544 1186.6196,-1001.262"/>
<polygon fill="#de958e" stroke="#de958e" points="1185.6605,-1004.6291 1196.2492,-1004.2677 1187.7463,-997.947 1185.6605,-1004.6291"/>
</g>
<!-- schematics.types&#45;&gt;hidebound.core.database_test_base -->
<g id="edge82" class="edge">
<title>schematics.types&#45;&gt;hidebound.core.database_test_base</title>
<path fill="none" stroke="#de958e" d="M646.0648,-822.103C669.6234,-792.0123 721.2444,-732.4032 780,-704.2901 897.1399,-648.2414 941.8919,-687.8744 1069,-661.2901 1107.2871,-653.2824 1149.4286,-642.0495 1183.7592,-632.2586"/>
<polygon fill="#de958e" stroke="#de958e" points="1185.042,-635.5317 1193.6863,-629.4058 1183.1085,-628.804 1185.042,-635.5317"/>
</g>
<!-- schematics.types&#45;&gt;hidebound.core.specification_base -->
<g id="edge83" class="edge">
<title>schematics.types&#45;&gt;hidebound.core.specification_base</title>
<path fill="none" stroke="#de958e" d="M707.0407,-854.1656C720.0681,-858.6336 732.9646,-864.5257 744,-872.2901 766.3952,-888.047 759.0377,-904.6716 780,-922.2901 804.2425,-942.6655 835.4256,-958.7422 862.615,-970.3228"/>
<polygon fill="#de958e" stroke="#de958e" points="861.4696,-973.6368 872.0478,-974.2312 864.1492,-967.1699 861.4696,-973.6368"/>
</g>
<!-- schematics.types&#45;&gt;hidebound.core.specifications -->
<g id="edge84" class="edge">
<title>schematics.types&#45;&gt;hidebound.core.specifications</title>
<path fill="none" stroke="#de958e" d="M707.0984,-834.7642C807.8185,-827.3035 989.1725,-813.8699 1115.1892,-804.5353"/>
<polygon fill="#de958e" stroke="#de958e" points="1115.5888,-808.0154 1125.3029,-803.7861 1115.0716,-801.0345 1115.5888,-808.0154"/>
</g>
<!-- schematics.types&#45;&gt;hidebound.core.test_specifications -->
<g id="edge85" class="edge">
<title>schematics.types&#45;&gt;hidebound.core.test_specifications</title>
<path fill="none" stroke="#de958e" d="M707.0984,-843.8938C802.4844,-848.5019 970.1899,-856.6036 1094.7225,-862.6196"/>
<polygon fill="#de958e" stroke="#de958e" points="1094.5854,-866.117 1104.7427,-863.1037 1094.9233,-859.1252 1094.5854,-866.117"/>
</g>
<!-- wrapt -->
<g id="node37" class="node">
<title>wrapt</title>
<polygon fill="#343434" stroke="#343434" points="419,-988.2901 361,-988.2901 361,-952.2901 419,-952.2901 419,-988.2901"/>
<text text-anchor="middle" x="390" y="-966.5901" font-family="Courier,monospace" font-size="14.00" fill="#de958e">wrapt</text>
</g>
<!-- wrapt&#45;&gt;hidebound.core.validators -->
<g id="edge86" class="edge">
<title>wrapt&#45;&gt;hidebound.core.validators</title>
<path fill="none" stroke="#de958e" d="M419.2512,-970.6519C442.4686,-970.9391 476.6038,-971.3614 510.7879,-971.7843"/>
<polygon fill="#de958e" stroke="#de958e" points="510.8595,-975.2854 520.9021,-971.9095 510.9461,-968.2859 510.8595,-975.2854"/>
</g>
<!-- skimage.io -->
<g id="node38" class="node">
<title>skimage.io</title>
<polygon fill="#343434" stroke="#343434" points="682,-652.2901 583,-652.2901 583,-616.2901 682,-616.2901 682,-652.2901"/>
<text text-anchor="middle" x="632.5" y="-630.5901" font-family="Courier,monospace" font-size="14.00" fill="#de958e">skimage.io</text>
</g>
<!-- skimage.io&#45;&gt;hidebound.core.database_test_base -->
<g id="edge87" class="edge">
<title>skimage.io&#45;&gt;hidebound.core.database_test_base</title>
<path fill="none" stroke="#de958e" d="M682.0318,-622.9086C710.515,-616.9471 747.0733,-610.2789 780,-607.2901 886.1467,-597.655 1006.2259,-598.8052 1098.8997,-602.2876"/>
<polygon fill="#de958e" stroke="#de958e" points="1098.7904,-605.7859 1108.9189,-602.6772 1099.0625,-598.7912 1098.7904,-605.7859"/>
</g>
<!-- skimage.io&#45;&gt;hidebound.core.traits -->
<g id="edge88" class="edge">
<title>skimage.io&#45;&gt;hidebound.core.traits</title>
<path fill="none" stroke="#de958e" d="M682.0338,-634.2901C719.5523,-634.2901 772.4542,-634.2901 819.2741,-634.2901"/>
<polygon fill="#de958e" stroke="#de958e" points="819.4737,-637.7902 829.4737,-634.2901 819.4737,-630.7902 819.4737,-637.7902"/>
</g>
</g>
</svg>
