<?xml version="1.0" encoding="UTF-8" standalone="no"?>
<!DOCTYPE svg PUBLIC "-//W3C//DTD SVG 1.1//EN"
 "http://www.w3.org/Graphics/SVG/1.1/DTD/svg11.dtd">
<!-- Generated by graphviz version 2.40.1 (20161225.0304)
 -->
<!-- Title: %3 Pages: 1 -->
<svg width="2914pt" height="2239pt"
 viewBox="0.00 0.00 2914.00 2238.55" xmlns="http://www.w3.org/2000/svg" xmlns:xlink="http://www.w3.org/1999/xlink">
<g id="graph0" class="graph" transform="scale(1 1) rotate(0) translate(4 2234.5546)">
<title>%3</title>
<polygon fill="#242424" stroke="transparent" points="-4,4 -4,-2234.5546 2910,-2234.5546 2910,4 -4,4"/>
<!-- cli -->
<g id="node1" class="node">
<title>cli</title>
<polygon fill="#343434" stroke="#343434" points="72.5,-1188.5546 18.5,-1188.5546 18.5,-1152.5546 72.5,-1152.5546 72.5,-1188.5546"/>
<text text-anchor="middle" x="45.5" y="-1166.8546" font-family="Courier,monospace" font-size="14.00" fill="#b6ecf3">cli</text>
</g>
<!-- hidebound.core.config -->
<g id="node2" class="node">
<title>hidebound.core.config</title>
<polygon fill="#343434" stroke="#343434" points="1636,-714.5546 1446,-714.5546 1446,-678.5546 1636,-678.5546 1636,-714.5546"/>
<text text-anchor="middle" x="1541" y="-692.8546" font-family="Courier,monospace" font-size="14.00" fill="#b6ecf3">hidebound.core.config</text>
</g>
<!-- hidebound.core.database -->
<g id="node4" class="node">
<title>hidebound.core.database</title>
<polygon fill="#343434" stroke="#343434" points="1903,-1391.5546 1697,-1391.5546 1697,-1355.5546 1903,-1355.5546 1903,-1391.5546"/>
<text text-anchor="middle" x="1800" y="-1369.8546" font-family="Courier,monospace" font-size="14.00" fill="#b6ecf3">hidebound.core.database</text>
</g>
<!-- hidebound.core.config&#45;&gt;hidebound.core.database -->
<g id="edge1" class="edge">
<title>hidebound.core.config&#45;&gt;hidebound.core.database</title>
<path fill="none" stroke="#b6ecf3" d="M1577.6761,-714.566C1598.625,-726.9477 1623.2014,-745.4994 1636,-769.5546 1696.3441,-882.972 1588.004,-1249.3454 1672,-1346.5546 1676.5892,-1351.8657 1681.936,-1356.288 1687.7904,-1359.9586"/>
<polygon fill="#b6ecf3" stroke="#b6ecf3" points="1686.2464,-1363.1031 1696.7021,-1364.8146 1689.5958,-1356.9564 1686.2464,-1363.1031"/>
</g>
<!-- hidebound.server.extension -->
<g id="node20" class="node">
<title>hidebound.server.extension</title>
<polygon fill="#343434" stroke="#343434" points="2413,-1739.5546 2182,-1739.5546 2182,-1703.5546 2413,-1703.5546 2413,-1739.5546"/>
<text text-anchor="middle" x="2297.5" y="-1717.8546" font-family="Courier,monospace" font-size="14.00" fill="#b6ecf3">hidebound.server.extension</text>
</g>
<!-- hidebound.core.config&#45;&gt;hidebound.server.extension -->
<g id="edge2" class="edge">
<title>hidebound.core.config&#45;&gt;hidebound.server.extension</title>
<path fill="none" stroke="#b6ecf3" d="M1625.1887,-714.6397C1628.8983,-716.1525 1632.5199,-717.7876 1636,-719.5546 1787.5633,-796.5091 1822.3954,-833.3589 1928,-966.5546 2126.0969,-1216.4077 2255.2093,-1589.7508 2288.7875,-1693.7777"/>
<polygon fill="#b6ecf3" stroke="#b6ecf3" points="2285.5261,-1695.0697 2291.908,-1703.5268 2292.1929,-1692.9358 2285.5261,-1695.0697"/>
</g>
<!-- hidebound.core.connection -->
<g id="node3" class="node">
<title>hidebound.core.connection</title>
<polygon fill="#343434" stroke="#343434" points="744,-1196.5546 521,-1196.5546 521,-1160.5546 744,-1160.5546 744,-1196.5546"/>
<text text-anchor="middle" x="632.5" y="-1174.8546" font-family="Courier,monospace" font-size="14.00" fill="#b6ecf3">hidebound.core.connection</text>
</g>
<!-- hidebound.core.connection&#45;&gt;hidebound.core.database -->
<g id="edge3" class="edge">
<title>hidebound.core.connection&#45;&gt;hidebound.core.database</title>
<path fill="none" stroke="#b6ecf3" d="M744.1374,-1179.5914C990.8145,-1182.8374 1566.0488,-1196.015 1636,-1248.5546 1673.1017,-1276.4212 1636.9116,-1316.1919 1672,-1346.5546 1676.8463,-1350.7482 1682.1795,-1354.3453 1687.8333,-1357.4266"/>
<polygon fill="#b6ecf3" stroke="#b6ecf3" points="1686.4333,-1360.6375 1696.9579,-1361.8554 1689.4899,-1354.3401 1686.4333,-1360.6375"/>
</g>
<!-- hidebound.exporters.exporter_base -->
<g id="node14" class="node">
<title>hidebound.exporters.exporter_base</title>
<polygon fill="#343434" stroke="#343434" points="1069,-714.5546 780,-714.5546 780,-678.5546 1069,-678.5546 1069,-714.5546"/>
<text text-anchor="middle" x="924.5" y="-692.8546" font-family="Courier,monospace" font-size="14.00" fill="#b6ecf3">hidebound.exporters.exporter_base</text>
</g>
<!-- hidebound.core.connection&#45;&gt;hidebound.exporters.exporter_base -->
<g id="edge4" class="edge">
<title>hidebound.core.connection&#45;&gt;hidebound.exporters.exporter_base</title>
<path fill="none" stroke="#b6ecf3" d="M660.5764,-1160.4407C687.0368,-1141.674 725.33,-1109.761 744,-1071.5546 778.134,-1001.7025 727.3145,-780.7269 780,-723.5546 780.6621,-722.8361 781.3366,-722.1331 782.0232,-721.4453"/>
<polygon fill="#b6ecf3" stroke="#b6ecf3" points="784.5843,-723.8555 789.8142,-714.6414 779.9798,-718.583 784.5843,-723.8555"/>
</g>
<!-- hidebound.server.api -->
<g id="node17" class="node">
<title>hidebound.server.api</title>
<polygon fill="#343434" stroke="#343434" points="2146,-1438.5546 1964,-1438.5546 1964,-1402.5546 2146,-1402.5546 2146,-1438.5546"/>
<text text-anchor="middle" x="2055" y="-1416.8546" font-family="Courier,monospace" font-size="14.00" fill="#b6ecf3">hidebound.server.api</text>
</g>
<!-- hidebound.core.database&#45;&gt;hidebound.server.api -->
<g id="edge5" class="edge">
<title>hidebound.core.database&#45;&gt;hidebound.server.api</title>
<path fill="none" stroke="#b6ecf3" d="M1897.8604,-1391.5916C1916.1948,-1394.9709 1935.3949,-1398.5097 1953.8275,-1401.9071"/>
<polygon fill="#b6ecf3" stroke="#b6ecf3" points="1953.2131,-1405.3527 1963.6819,-1403.7234 1954.482,-1398.4687 1953.2131,-1405.3527"/>
</g>
<!-- hidebound.core.database&#45;&gt;hidebound.server.extension -->
<g id="edge6" class="edge">
<title>hidebound.core.database&#45;&gt;hidebound.server.extension</title>
<path fill="none" stroke="#b6ecf3" d="M1826.0473,-1391.7746C1909.4147,-1450.0899 2169.6944,-1632.1548 2263.4292,-1697.7221"/>
<polygon fill="#b6ecf3" stroke="#b6ecf3" points="2261.5101,-1700.651 2271.7105,-1703.5149 2265.5224,-1694.915 2261.5101,-1700.651"/>
</g>
<!-- hidebound.core.database_tools -->
<g id="node5" class="node">
<title>hidebound.core.database_tools</title>
<polygon fill="#343434" stroke="#343434" points="1385.5,-1475.5546 1129.5,-1475.5546 1129.5,-1439.5546 1385.5,-1439.5546 1385.5,-1475.5546"/>
<text text-anchor="middle" x="1257.5" y="-1453.8546" font-family="Courier,monospace" font-size="14.00" fill="#b6ecf3">hidebound.core.database_tools</text>
</g>
<!-- hidebound.core.database_tools&#45;&gt;hidebound.core.database -->
<g id="edge7" class="edge">
<title>hidebound.core.database_tools&#45;&gt;hidebound.core.database</title>
<path fill="none" stroke="#b6ecf3" d="M1324.3958,-1475.6069C1401.3045,-1493.2307 1530.5117,-1513.1688 1636,-1481.5546 1689.9597,-1465.3831 1742.5858,-1425.0943 1773.1202,-1398.5582"/>
<polygon fill="#b6ecf3" stroke="#b6ecf3" points="1775.5892,-1401.047 1780.7619,-1391.8007 1770.9522,-1395.8031 1775.5892,-1401.047"/>
</g>
<!-- hidebound.core.logging -->
<g id="node6" class="node">
<title>hidebound.core.logging</title>
<polygon fill="#343434" stroke="#343434" points="731.5,-1062.5546 533.5,-1062.5546 533.5,-1026.5546 731.5,-1026.5546 731.5,-1062.5546"/>
<text text-anchor="middle" x="632.5" y="-1040.8546" font-family="Courier,monospace" font-size="14.00" fill="#b6ecf3">hidebound.core.logging</text>
</g>
<!-- hidebound.core.logging&#45;&gt;hidebound.core.database -->
<g id="edge8" class="edge">
<title>hidebound.core.logging&#45;&gt;hidebound.core.database</title>
<path fill="none" stroke="#b6ecf3" d="M731.7592,-1060.1563C736.0428,-1062.3283 740.1505,-1064.7826 744,-1067.5546 769.8576,-1086.1742 752.5919,-1113.3032 780,-1129.5546 861.8378,-1178.0795 1563.6597,-1089.7567 1636,-1151.5546 1703.0093,-1208.7984 1610.4761,-1283.4521 1672,-1346.5546 1676.63,-1351.3034 1681.8694,-1355.3201 1687.5188,-1358.71"/>
<polygon fill="#b6ecf3" stroke="#b6ecf3" points="1686.2249,-1361.9838 1696.7054,-1363.5361 1689.4804,-1355.7869 1686.2249,-1361.9838"/>
</g>
<!-- hidebound.core.logging&#45;&gt;hidebound.exporters.exporter_base -->
<g id="edge9" class="edge">
<title>hidebound.core.logging&#45;&gt;hidebound.exporters.exporter_base</title>
<path fill="none" stroke="#b6ecf3" d="M640.414,-1026.1153C669.1268,-959.3819 766.8217,-733.833 780,-723.5546 781.5848,-722.3185 783.2087,-721.133 784.8681,-719.996"/>
<polygon fill="#b6ecf3" stroke="#b6ecf3" points="786.7681,-722.9364 793.4409,-714.7068 783.0925,-716.979 786.7681,-722.9364"/>
</g>
<!-- hidebound.core.logging&#45;&gt;hidebound.server.api -->
<g id="edge10" class="edge">
<title>hidebound.core.logging&#45;&gt;hidebound.server.api</title>
<path fill="none" stroke="#b6ecf3" d="M731.5347,-1047.6293C854.7655,-1051.1847 1071.6476,-1056.5546 1257.5,-1056.5546 1257.5,-1056.5546 1257.5,-1056.5546 1541,-1056.5546 1774.9237,-1056.5546 1976.8268,-1310.7464 2036.8703,-1394.2937"/>
<polygon fill="#b6ecf3" stroke="#b6ecf3" points="2034.0602,-1396.3815 2042.7071,-1402.5038 2039.7654,-1392.3255 2034.0602,-1396.3815"/>
</g>
<!-- hidebound.server.server_tools -->
<g id="node22" class="node">
<title>hidebound.server.server_tools</title>
<polygon fill="#343434" stroke="#343434" points="1928,-1953.5546 1672,-1953.5546 1672,-1917.5546 1928,-1917.5546 1928,-1953.5546"/>
<text text-anchor="middle" x="1800" y="-1931.8546" font-family="Courier,monospace" font-size="14.00" fill="#b6ecf3">hidebound.server.server_tools</text>
</g>
<!-- hidebound.core.logging&#45;&gt;hidebound.server.server_tools -->
<g id="edge11" class="edge">
<title>hidebound.core.logging&#45;&gt;hidebound.server.server_tools</title>
<path fill="none" stroke="#b6ecf3" d="M731.6513,-1059.3265C736.0166,-1061.7107 740.1655,-1064.438 744,-1067.5546 775.2027,-1092.9156 748.3942,-1125.6977 780,-1150.5546 882.4613,-1231.1367 948.0604,-1151.9191 1069,-1200.5546 1238.6064,-1268.7612 1318.1837,-1272.4779 1410,-1430.5546 1463.6133,-1522.8586 1370.456,-1834.1389 1446,-1909.5546 1475.9423,-1939.446 1575.6107,-1944.7514 1661.5913,-1943.2458"/>
<polygon fill="#b6ecf3" stroke="#b6ecf3" points="1661.8092,-1946.7421 1671.7347,-1943.036 1661.6644,-1939.7436 1661.8092,-1946.7421"/>
</g>
<!-- hidebound.core.parser -->
<g id="node7" class="node">
<title>hidebound.core.parser</title>
<polygon fill="#343434" stroke="#343434" points="485,-920.5546 295,-920.5546 295,-884.5546 485,-884.5546 485,-920.5546"/>
<text text-anchor="middle" x="390" y="-898.8546" font-family="Courier,monospace" font-size="14.00" fill="#b6ecf3">hidebound.core.parser</text>
</g>
<!-- hidebound.core.parser&#45;&gt;hidebound.core.database_tools -->
<g id="edge12" class="edge">
<title>hidebound.core.parser&#45;&gt;hidebound.core.database_tools</title>
<path fill="none" stroke="#b6ecf3" d="M428.8737,-920.648C448.4302,-931.6203 470.9113,-947.4123 485,-967.5546 522.0705,-1020.5535 473.9265,-1064.2014 521,-1108.5546 594.4643,-1177.7734 673.1017,-1079.7097 744,-1151.5546 807.7464,-1216.1521 716.283,-1287.928 780,-1352.5546 871.8554,-1445.7212 941.402,-1379.6379 1069,-1408.5546 1106.5179,-1417.057 1147.9181,-1427.6799 1182.3401,-1436.8592"/>
<polygon fill="#b6ecf3" stroke="#b6ecf3" points="1181.7542,-1440.3256 1192.3193,-1439.532 1183.5653,-1433.5639 1181.7542,-1440.3256"/>
</g>
<!-- hidebound.core.specification_base -->
<g id="node8" class="node">
<title>hidebound.core.specification_base</title>
<polygon fill="#343434" stroke="#343434" points="1069,-952.5546 780,-952.5546 780,-916.5546 1069,-916.5546 1069,-952.5546"/>
<text text-anchor="middle" x="924.5" y="-930.8546" font-family="Courier,monospace" font-size="14.00" fill="#b6ecf3">hidebound.core.specification_base</text>
</g>
<!-- hidebound.core.parser&#45;&gt;hidebound.core.specification_base -->
<g id="edge13" class="edge">
<title>hidebound.core.parser&#45;&gt;hidebound.core.specification_base</title>
<path fill="none" stroke="#b6ecf3" d="M485.2498,-908.2571C564.0807,-912.9766 677.6269,-919.7745 769.5253,-925.2764"/>
<polygon fill="#b6ecf3" stroke="#b6ecf3" points="769.5748,-928.7855 779.7661,-925.8895 769.9932,-921.798 769.5748,-928.7855"/>
</g>
<!-- hidebound.core.validators -->
<g id="node12" class="node">
<title>hidebound.core.validators</title>
<polygon fill="#343434" stroke="#343434" points="744,-645.5546 521,-645.5546 521,-609.5546 744,-609.5546 744,-645.5546"/>
<text text-anchor="middle" x="632.5" y="-623.8546" font-family="Courier,monospace" font-size="14.00" fill="#b6ecf3">hidebound.core.validators</text>
</g>
<!-- hidebound.core.parser&#45;&gt;hidebound.core.validators -->
<g id="edge14" class="edge">
<title>hidebound.core.parser&#45;&gt;hidebound.core.validators</title>
<path fill="none" stroke="#b6ecf3" d="M426.4522,-884.4169C446.7791,-872.438 470.7906,-854.8376 485,-832.5546 528.3963,-764.5007 465.0227,-712.7019 521,-654.5546 521.7943,-653.7295 522.6091,-652.9279 523.4432,-652.1491"/>
<polygon fill="#b6ecf3" stroke="#b6ecf3" points="525.824,-654.7262 531.4338,-645.7384 521.4435,-649.2662 525.824,-654.7262"/>
</g>
<!-- hidebound.core.specification_base&#45;&gt;hidebound.core.config -->
<g id="edge15" class="edge">
<title>hidebound.core.specification_base&#45;&gt;hidebound.core.config</title>
<path fill="none" stroke="#b6ecf3" d="M1069.2307,-926.0844C1201.5803,-917.346 1381.0587,-902.6147 1410,-885.5546 1473.2032,-848.2979 1513.1705,-767.1389 1530.6929,-724.3056"/>
<polygon fill="#b6ecf3" stroke="#b6ecf3" points="1534.0357,-725.3711 1534.4748,-714.7853 1527.5302,-722.7867 1534.0357,-725.3711"/>
</g>
<!-- hidebound.core.specification_base&#45;&gt;hidebound.core.database -->
<g id="edge16" class="edge">
<title>hidebound.core.specification_base&#45;&gt;hidebound.core.database</title>
<path fill="none" stroke="#b6ecf3" d="M1069.1638,-921.1739C1231.819,-914.8459 1491.9679,-932.4957 1636,-1087.5546 1715.0949,-1172.7048 1592.7382,-1261.5596 1672,-1346.5546 1676.7351,-1351.6322 1682.1646,-1355.8822 1688.0552,-1359.4297"/>
<polygon fill="#b6ecf3" stroke="#b6ecf3" points="1686.51,-1362.5716 1696.9882,-1364.1393 1689.7746,-1356.3795 1686.51,-1362.5716"/>
</g>
<!-- hidebound.core.specification_base&#45;&gt;hidebound.core.database_tools -->
<g id="edge17" class="edge">
<title>hidebound.core.specification_base&#45;&gt;hidebound.core.database_tools</title>
<path fill="none" stroke="#b6ecf3" d="M947.3955,-952.6326C978.0475,-977.7108 1032.7541,-1025.6359 1069,-1075.5546 1156.6463,-1196.2632 1223.2009,-1363.9088 1247.488,-1429.5866"/>
<polygon fill="#b6ecf3" stroke="#b6ecf3" points="1244.294,-1431.0429 1251.0198,-1439.2291 1250.867,-1428.6354 1244.294,-1431.0429"/>
</g>
<!-- hidebound.core.specifications -->
<g id="node9" class="node">
<title>hidebound.core.specifications</title>
<polygon fill="#343434" stroke="#343434" points="1385.5,-876.5546 1129.5,-876.5546 1129.5,-840.5546 1385.5,-840.5546 1385.5,-876.5546"/>
<text text-anchor="middle" x="1257.5" y="-854.8546" font-family="Courier,monospace" font-size="14.00" fill="#b6ecf3">hidebound.core.specifications</text>
</g>
<!-- hidebound.core.specification_base&#45;&gt;hidebound.core.specifications -->
<g id="edge18" class="edge">
<title>hidebound.core.specification_base&#45;&gt;hidebound.core.specifications</title>
<path fill="none" stroke="#b6ecf3" d="M1012.7374,-916.5422C1031.4038,-912.3054 1050.9217,-907.5548 1069,-902.5546 1085.2552,-898.0586 1088.7201,-894.9603 1105,-890.5546 1120.4617,-886.3703 1136.9293,-882.4097 1153.1102,-878.7932"/>
<polygon fill="#b6ecf3" stroke="#b6ecf3" points="1154.1224,-882.1542 1163.1366,-876.5869 1152.618,-875.3178 1154.1224,-882.1542"/>
</g>
<!-- hidebound.core.tools -->
<g id="node10" class="node">
<title>hidebound.core.tools</title>
<polygon fill="#343434" stroke="#343434" points="723.5,-1570.5546 541.5,-1570.5546 541.5,-1534.5546 723.5,-1534.5546 723.5,-1570.5546"/>
<text text-anchor="middle" x="632.5" y="-1548.8546" font-family="Courier,monospace" font-size="14.00" fill="#b6ecf3">hidebound.core.tools</text>
</g>
<!-- hidebound.core.tools&#45;&gt;hidebound.core.database -->
<g id="edge19" class="edge">
<title>hidebound.core.tools&#45;&gt;hidebound.core.database</title>
<path fill="none" stroke="#b6ecf3" d="M723.7551,-1566.9292C905.0439,-1591.5024 1320.2833,-1627.731 1636,-1503.5546 1693.9756,-1480.7518 1747.8628,-1430.1735 1777.1286,-1399.2578"/>
<polygon fill="#b6ecf3" stroke="#b6ecf3" points="1779.7729,-1401.554 1784.0261,-1391.8504 1774.6499,-1396.7837 1779.7729,-1401.554"/>
</g>
<!-- hidebound.core.tools&#45;&gt;hidebound.core.database_tools -->
<g id="edge20" class="edge">
<title>hidebound.core.tools&#45;&gt;hidebound.core.database_tools</title>
<path fill="none" stroke="#b6ecf3" d="M723.6754,-1552.4519C812.604,-1550.8127 951.2867,-1544.1544 1069,-1520.5546 1115.7401,-1511.1838 1166.9307,-1493.5792 1204.1557,-1479.3569"/>
<polygon fill="#b6ecf3" stroke="#b6ecf3" points="1205.7222,-1482.5038 1213.7874,-1475.6334 1203.1981,-1475.9747 1205.7222,-1482.5038"/>
</g>
<!-- hidebound.core.tools&#45;&gt;hidebound.core.specification_base -->
<g id="edge21" class="edge">
<title>hidebound.core.tools&#45;&gt;hidebound.core.specification_base</title>
<path fill="none" stroke="#b6ecf3" d="M685.0239,-1534.5207C706.9218,-1524.2428 730.3818,-1509.0328 744,-1487.5546 793.2132,-1409.937 740.6543,-1158.6108 780,-1075.5546 803.7246,-1025.4736 853.2591,-983.4722 887.6751,-958.6721"/>
<polygon fill="#b6ecf3" stroke="#b6ecf3" points="889.9231,-961.3695 896.0743,-952.7432 885.8862,-955.6508 889.9231,-961.3695"/>
</g>
<!-- hidebound.core.traits -->
<g id="node11" class="node">
<title>hidebound.core.traits</title>
<polygon fill="#343434" stroke="#343434" points="1019.5,-1478.5546 829.5,-1478.5546 829.5,-1442.5546 1019.5,-1442.5546 1019.5,-1478.5546"/>
<text text-anchor="middle" x="924.5" y="-1456.8546" font-family="Courier,monospace" font-size="14.00" fill="#b6ecf3">hidebound.core.traits</text>
</g>
<!-- hidebound.core.tools&#45;&gt;hidebound.core.traits -->
<g id="edge22" class="edge">
<title>hidebound.core.tools&#45;&gt;hidebound.core.traits</title>
<path fill="none" stroke="#b6ecf3" d="M709.8494,-1534.534C721.5782,-1530.6185 733.318,-1525.9842 744,-1520.5546 762.0695,-1511.3699 761.6565,-1501.1789 780,-1492.5546 792.3494,-1486.7484 805.794,-1481.9741 819.3478,-1478.0533"/>
<polygon fill="#b6ecf3" stroke="#b6ecf3" points="820.5033,-1481.3658 829.2223,-1475.3467 818.6528,-1474.6148 820.5033,-1481.3658"/>
</g>
<!-- hidebound.exporters.disk_exporter -->
<g id="node13" class="node">
<title>hidebound.exporters.disk_exporter</title>
<polygon fill="#343434" stroke="#343434" points="1402,-340.5546 1113,-340.5546 1113,-304.5546 1402,-304.5546 1402,-340.5546"/>
<text text-anchor="middle" x="1257.5" y="-318.8546" font-family="Courier,monospace" font-size="14.00" fill="#b6ecf3">hidebound.exporters.disk_exporter</text>
</g>
<!-- hidebound.core.tools&#45;&gt;hidebound.exporters.disk_exporter -->
<g id="edge23" class="edge">
<title>hidebound.core.tools&#45;&gt;hidebound.exporters.disk_exporter</title>
<path fill="none" stroke="#b6ecf3" d="M708.7766,-1534.4859C731.5941,-1529.4929 756.7321,-1524.3971 780,-1520.5546 843.7757,-1510.0224 1025.1004,-1535.0003 1069,-1487.5546 1144.2832,-1406.1902 1063.2067,-593.2241 1105,-490.5546 1129.922,-429.3311 1187.6979,-376.1851 1224.5474,-346.8336"/>
<polygon fill="#b6ecf3" stroke="#b6ecf3" points="1226.8082,-349.5088 1232.5259,-340.5892 1222.4939,-343.9964 1226.8082,-349.5088"/>
</g>
<!-- hidebound.core.tools&#45;&gt;hidebound.exporters.exporter_base -->
<g id="edge24" class="edge">
<title>hidebound.core.tools&#45;&gt;hidebound.exporters.exporter_base</title>
<path fill="none" stroke="#b6ecf3" d="M686.0076,-1534.4988C707.8156,-1524.2727 730.931,-1509.1097 744,-1487.5546 788.0599,-1414.8851 724.1823,-787.6366 780,-723.5546 780.6234,-722.8389 781.2591,-722.1384 781.9067,-721.4526"/>
<polygon fill="#b6ecf3" stroke="#b6ecf3" points="784.2968,-724.0096 789.2782,-714.6588 779.5528,-718.8623 784.2968,-724.0096"/>
</g>
<!-- hidebound.server.app -->
<g id="node18" class="node">
<title>hidebound.server.app</title>
<polygon fill="#343434" stroke="#343434" points="2906,-1739.5546 2724,-1739.5546 2724,-1703.5546 2906,-1703.5546 2906,-1739.5546"/>
<text text-anchor="middle" x="2815" y="-1717.8546" font-family="Courier,monospace" font-size="14.00" fill="#b6ecf3">hidebound.server.app</text>
</g>
<!-- hidebound.core.tools&#45;&gt;hidebound.server.app -->
<g id="edge25" class="edge">
<title>hidebound.core.tools&#45;&gt;hidebound.server.app</title>
<path fill="none" stroke="#b6ecf3" d="M682.6644,-1570.649C710.8811,-1580.0296 746.9747,-1590.7181 780,-1596.5546 1137.9942,-1659.8218 2050.191,-1671.4845 2413,-1694.5546 2515.258,-1701.0569 2632.1136,-1708.9582 2713.3797,-1714.5285"/>
<polygon fill="#b6ecf3" stroke="#b6ecf3" points="2713.3916,-1718.0375 2723.6077,-1715.2302 2713.8707,-1711.0539 2713.3916,-1718.0375"/>
</g>
<!-- hidebound.core.tools&#45;&gt;hidebound.server.extension -->
<g id="edge26" class="edge">
<title>hidebound.core.tools&#45;&gt;hidebound.server.extension</title>
<path fill="none" stroke="#b6ecf3" d="M656.7905,-1570.6644C684.8288,-1590.4288 733.1226,-1621.0551 780,-1634.5546 1072.1174,-1718.6769 1842.8158,-1685.4532 2146,-1707.5546 2154.3314,-1708.1619 2162.9163,-1708.8328 2171.5651,-1709.5424"/>
<polygon fill="#b6ecf3" stroke="#b6ecf3" points="2171.4794,-1713.0473 2181.7359,-1710.3916 2172.0618,-1706.0716 2171.4794,-1713.0473"/>
</g>
<!-- hidebound.core.traits&#45;&gt;hidebound.core.specifications -->
<g id="edge27" class="edge">
<title>hidebound.core.traits&#45;&gt;hidebound.core.specifications</title>
<path fill="none" stroke="#b6ecf3" d="M934.466,-1442.5379C981.9518,-1356.6928 1185.3144,-989.0522 1242.4918,-885.6865"/>
<polygon fill="#b6ecf3" stroke="#b6ecf3" points="1245.6324,-887.2396 1247.4102,-876.795 1239.5071,-883.8513 1245.6324,-887.2396"/>
</g>
<!-- hidebound.core.validators&#45;&gt;hidebound.core.config -->
<g id="edge28" class="edge">
<title>hidebound.core.validators&#45;&gt;hidebound.core.config</title>
<path fill="none" stroke="#b6ecf3" d="M661.9747,-609.5324C688.2813,-591.7097 725.4311,-561.8799 744,-525.5546 775.6668,-463.6065 728.0533,-260.835 780,-214.5546 875.9037,-129.1119 941.4278,-199.6109 1069,-214.5546 1223.7147,-232.6776 1295.4015,-190.045 1410,-295.5546 1466.7794,-347.8307 1518.8594,-585.8293 1535.4927,-668.3112"/>
<polygon fill="#b6ecf3" stroke="#b6ecf3" points="1532.0832,-669.111 1537.473,-678.2324 1538.9478,-667.7407 1532.0832,-669.111"/>
</g>
<!-- hidebound.core.validators&#45;&gt;hidebound.core.specification_base -->
<g id="edge29" class="edge">
<title>hidebound.core.validators&#45;&gt;hidebound.core.specification_base</title>
<path fill="none" stroke="#b6ecf3" d="M733.5617,-645.7427C737.3135,-648.3324 740.8211,-651.2561 744,-654.5546 799.707,-712.3575 736.2689,-764.2342 780,-831.5546 803.0648,-867.0609 843.0109,-894.1295 875.0655,-911.5867"/>
<polygon fill="#b6ecf3" stroke="#b6ecf3" points="873.8276,-914.8914 884.3035,-916.4744 877.1012,-908.7041 873.8276,-914.8914"/>
</g>
<!-- hidebound.core.validators&#45;&gt;hidebound.core.specifications -->
<g id="edge30" class="edge">
<title>hidebound.core.validators&#45;&gt;hidebound.core.specifications</title>
<path fill="none" stroke="#b6ecf3" d="M744.172,-613.06C837.5521,-606.5512 970.8514,-610.8069 1069,-669.5546 1093.7496,-684.3687 1086.0435,-701.8141 1105,-723.5546 1142.2241,-766.2454 1192.5727,-808.3676 1225.0467,-833.9179"/>
<polygon fill="#b6ecf3" stroke="#b6ecf3" points="1223.265,-836.9671 1233.3022,-840.3592 1227.5711,-831.4482 1223.265,-836.9671"/>
</g>
<!-- hidebound.core.validators&#45;&gt;hidebound.exporters.disk_exporter -->
<g id="edge31" class="edge">
<title>hidebound.core.validators&#45;&gt;hidebound.exporters.disk_exporter</title>
<path fill="none" stroke="#b6ecf3" d="M661.8875,-609.4875C688.1331,-591.6334 725.2423,-561.7828 744,-525.5546 773.3514,-468.8659 732.1157,-282.7708 780,-240.5546 828.1735,-198.0833 1006.1246,-227.4709 1069,-240.5546 1123.1127,-251.8148 1180.7424,-279.4627 1217.8284,-299.5486"/>
<polygon fill="#b6ecf3" stroke="#b6ecf3" points="1216.3501,-302.7298 1226.7997,-304.4777 1219.7208,-296.5948 1216.3501,-302.7298"/>
</g>
<!-- hidebound.core.validators&#45;&gt;hidebound.exporters.exporter_base -->
<g id="edge32" class="edge">
<title>hidebound.core.validators&#45;&gt;hidebound.exporters.exporter_base</title>
<path fill="none" stroke="#b6ecf3" d="M708.8382,-645.5934C748.4893,-654.963 797.0943,-666.4484 838.1173,-676.1422"/>
<polygon fill="#b6ecf3" stroke="#b6ecf3" points="837.5639,-679.6078 848.1008,-678.5013 839.1737,-672.7954 837.5639,-679.6078"/>
</g>
<!-- hidebound.exporters.girder_exporter -->
<g id="node15" class="node">
<title>hidebound.exporters.girder_exporter</title>
<polygon fill="#343434" stroke="#343434" points="1410,-535.5546 1105,-535.5546 1105,-499.5546 1410,-499.5546 1410,-535.5546"/>
<text text-anchor="middle" x="1257.5" y="-513.8546" font-family="Courier,monospace" font-size="14.00" fill="#b6ecf3">hidebound.exporters.girder_exporter</text>
</g>
<!-- hidebound.core.validators&#45;&gt;hidebound.exporters.girder_exporter -->
<g id="edge33" class="edge">
<title>hidebound.core.validators&#45;&gt;hidebound.exporters.girder_exporter</title>
<path fill="none" stroke="#b6ecf3" d="M660.0867,-609.4164C685.6152,-591.2014 722.7337,-560.8298 744,-525.5546 776.7261,-471.2703 729.8405,-426.3077 780,-387.5546 881.6426,-309.0258 946.3637,-349.3667 1069,-387.5546 1134.8855,-408.0708 1198.0885,-460.5344 1231.9546,-492.188"/>
<polygon fill="#b6ecf3" stroke="#b6ecf3" points="1229.8587,-495.0244 1239.5203,-499.3725 1234.679,-489.9484 1229.8587,-495.0244"/>
</g>
<!-- hidebound.exporters.s3_exporter -->
<g id="node16" class="node">
<title>hidebound.exporters.s3_exporter</title>
<polygon fill="#343434" stroke="#343434" points="1393.5,-714.5546 1121.5,-714.5546 1121.5,-678.5546 1393.5,-678.5546 1393.5,-714.5546"/>
<text text-anchor="middle" x="1257.5" y="-692.8546" font-family="Courier,monospace" font-size="14.00" fill="#b6ecf3">hidebound.exporters.s3_exporter</text>
</g>
<!-- hidebound.core.validators&#45;&gt;hidebound.exporters.s3_exporter -->
<g id="edge34" class="edge">
<title>hidebound.core.validators&#45;&gt;hidebound.exporters.s3_exporter</title>
<path fill="none" stroke="#b6ecf3" d="M705.1093,-609.4736C792.691,-590.6796 943.7643,-567.9447 1069,-598.5546 1127.2985,-612.8038 1187.6383,-648.5291 1223.8734,-672.6743"/>
<polygon fill="#b6ecf3" stroke="#b6ecf3" points="1222.3064,-675.8398 1232.5505,-678.5433 1226.2282,-670.0416 1222.3064,-675.8398"/>
</g>
<!-- hidebound.core.validators&#45;&gt;hidebound.server.api -->
<g id="edge35" class="edge">
<title>hidebound.core.validators&#45;&gt;hidebound.server.api</title>
<path fill="none" stroke="#b6ecf3" d="M662.3513,-609.4221C688.727,-591.6227 725.7531,-561.896 744,-525.5546 779.6791,-454.4943 724.8709,-226.8551 780,-169.5546 928.5794,-15.1229 1043.1988,-102.5546 1257.5,-102.5546 1257.5,-102.5546 1257.5,-102.5546 1541,-102.5546 1828.0045,-102.5546 2019.3719,-1201.0576 2050.517,-1392.3258"/>
<polygon fill="#b6ecf3" stroke="#b6ecf3" points="2047.0984,-1393.1111 2052.1492,-1402.4245 2054.0087,-1391.9941 2047.0984,-1393.1111"/>
</g>
<!-- hidebound.exporters.disk_exporter&#45;&gt;hidebound.core.config -->
<g id="edge36" class="edge">
<title>hidebound.exporters.disk_exporter&#45;&gt;hidebound.core.config</title>
<path fill="none" stroke="#b6ecf3" d="M1391.2608,-340.5609C1398.0349,-344.4793 1404.3566,-349.1049 1410,-354.5546 1458.0755,-400.98 1423.3007,-437.6951 1446,-500.5546 1468.5776,-563.0768 1504.9436,-632.1538 1525.5154,-669.3021"/>
<polygon fill="#b6ecf3" stroke="#b6ecf3" points="1522.7014,-671.4419 1530.6309,-678.4686 1528.814,-668.0307 1522.7014,-671.4419"/>
</g>
<!-- hidebound.exporters.disk_exporter&#45;&gt;hidebound.core.database -->
<g id="edge37" class="edge">
<title>hidebound.exporters.disk_exporter&#45;&gt;hidebound.core.database</title>
<path fill="none" stroke="#b6ecf3" d="M1382.5682,-340.5895C1392.2202,-344.4119 1401.5013,-349.0151 1410,-354.5546 1554.3492,-448.6418 1578.9062,-506.9834 1636,-669.5546 1660.9603,-740.6275 1623.0118,-1289.331 1672,-1346.5546 1676.6144,-1351.9447 1682.0089,-1356.4213 1687.9244,-1360.1271"/>
<polygon fill="#b6ecf3" stroke="#b6ecf3" points="1686.476,-1363.3234 1696.9339,-1365.0217 1689.8176,-1357.1725 1686.476,-1363.3234"/>
</g>
<!-- hidebound.exporters.exporter_base&#45;&gt;hidebound.exporters.disk_exporter -->
<g id="edge38" class="edge">
<title>hidebound.exporters.exporter_base&#45;&gt;hidebound.exporters.disk_exporter</title>
<path fill="none" stroke="#b6ecf3" d="M940.0882,-678.5509C971.2306,-642.6302 1043.4416,-559.5776 1105,-490.5546 1150.1985,-439.8752 1203.6775,-381.2682 1233.7888,-348.392"/>
<polygon fill="#b6ecf3" stroke="#b6ecf3" points="1236.7457,-350.3457 1240.9215,-340.6085 1231.5849,-345.6164 1236.7457,-350.3457"/>
</g>
<!-- hidebound.exporters.exporter_base&#45;&gt;hidebound.exporters.girder_exporter -->
<g id="edge39" class="edge">
<title>hidebound.exporters.exporter_base&#45;&gt;hidebound.exporters.girder_exporter</title>
<path fill="none" stroke="#b6ecf3" d="M958.2624,-678.406C1019.2197,-645.6392 1147.5354,-576.6647 1214.6044,-540.6126"/>
<polygon fill="#b6ecf3" stroke="#b6ecf3" points="1216.4973,-543.5687 1223.6483,-535.7511 1213.183,-537.403 1216.4973,-543.5687"/>
</g>
<!-- hidebound.exporters.exporter_base&#45;&gt;hidebound.exporters.s3_exporter -->
<g id="edge40" class="edge">
<title>hidebound.exporters.exporter_base&#45;&gt;hidebound.exporters.s3_exporter</title>
<path fill="none" stroke="#b6ecf3" d="M1069.1058,-696.5546C1083.0886,-696.5546 1097.2811,-696.5546 1111.2794,-696.5546"/>
<polygon fill="#b6ecf3" stroke="#b6ecf3" points="1111.4323,-700.0547 1121.4323,-696.5546 1111.4323,-693.0547 1111.4323,-700.0547"/>
</g>
<!-- hidebound.exporters.girder_exporter&#45;&gt;hidebound.core.config -->
<g id="edge41" class="edge">
<title>hidebound.exporters.girder_exporter&#45;&gt;hidebound.core.config</title>
<path fill="none" stroke="#b6ecf3" d="M1286.2436,-535.7031C1337.8213,-568.2689 1446.0433,-636.5995 1503.424,-672.8293"/>
<polygon fill="#b6ecf3" stroke="#b6ecf3" points="1501.8561,-675.9786 1512.1803,-678.358 1505.5933,-670.0597 1501.8561,-675.9786"/>
</g>
<!-- hidebound.exporters.girder_exporter&#45;&gt;hidebound.core.database -->
<g id="edge42" class="edge">
<title>hidebound.exporters.girder_exporter&#45;&gt;hidebound.core.database</title>
<path fill="none" stroke="#b6ecf3" d="M1278.0418,-535.5851C1308.6071,-562.9329 1367.0617,-617.2658 1410,-669.5546 1428.3053,-691.8461 1423.7249,-705.2292 1446,-723.5546 1516.6247,-781.6562 1582.7572,-728.1983 1636,-802.5546 1706.5339,-901.0588 1592.6162,-1255.0323 1672,-1346.5546 1676.5992,-1351.857 1681.9535,-1356.2727 1687.8136,-1359.9385"/>
<polygon fill="#b6ecf3" stroke="#b6ecf3" points="1686.275,-1363.0858 1696.7322,-1364.7886 1689.6193,-1356.9363 1686.275,-1363.0858"/>
</g>
<!-- hidebound.exporters.s3_exporter&#45;&gt;hidebound.core.config -->
<g id="edge43" class="edge">
<title>hidebound.exporters.s3_exporter&#45;&gt;hidebound.core.config</title>
<path fill="none" stroke="#b6ecf3" d="M1393.8525,-696.5546C1407.8691,-696.5546 1421.9563,-696.5546 1435.5646,-696.5546"/>
<polygon fill="#b6ecf3" stroke="#b6ecf3" points="1435.8686,-700.0547 1445.8685,-696.5546 1435.8685,-693.0547 1435.8686,-700.0547"/>
</g>
<!-- hidebound.exporters.s3_exporter&#45;&gt;hidebound.core.database -->
<g id="edge44" class="edge">
<title>hidebound.exporters.s3_exporter&#45;&gt;hidebound.core.database</title>
<path fill="none" stroke="#b6ecf3" d="M1295.5808,-714.5557C1374.7682,-754.2543 1556.4263,-857.6082 1636,-1004.5546 1672.3896,-1071.7542 1620.8167,-1289.8072 1672,-1346.5546 1676.6501,-1351.7102 1682.0149,-1356.0195 1687.8574,-1359.6111"/>
<polygon fill="#b6ecf3" stroke="#b6ecf3" points="1686.2653,-1362.7288 1696.7315,-1364.3747 1689.5761,-1356.5612 1686.2653,-1362.7288"/>
</g>
<!-- hidebound.server.api&#45;&gt;hidebound.server.extension -->
<g id="edge45" class="edge">
<title>hidebound.server.api&#45;&gt;hidebound.server.extension</title>
<path fill="none" stroke="#b6ecf3" d="M2069.8044,-1438.9304C2111.2504,-1490.3747 2228.5413,-1635.9604 2276.5849,-1695.5939"/>
<polygon fill="#b6ecf3" stroke="#b6ecf3" points="2273.8901,-1697.8279 2282.8893,-1703.4193 2279.3411,-1693.4363 2273.8901,-1697.8279"/>
</g>
<!-- hidebound.server.components -->
<g id="node19" class="node">
<title>hidebound.server.components</title>
<polygon fill="#343434" stroke="#343434" points="1919.5,-2007.5546 1680.5,-2007.5546 1680.5,-1971.5546 1919.5,-1971.5546 1919.5,-2007.5546"/>
<text text-anchor="middle" x="1800" y="-1985.8546" font-family="Courier,monospace" font-size="14.00" fill="#b6ecf3">hidebound.server.components</text>
</g>
<!-- hidebound.server.components&#45;&gt;hidebound.server.app -->
<g id="edge46" class="edge">
<title>hidebound.server.components&#45;&gt;hidebound.server.app</title>
<path fill="none" stroke="#b6ecf3" d="M1868.7388,-2007.6107C2027.8112,-2045.1682 2427.5568,-2114.8685 2688,-1945.5546 2759.0588,-1899.3593 2794.5225,-1798.7315 2808.1402,-1749.6309"/>
<polygon fill="#b6ecf3" stroke="#b6ecf3" points="2811.5945,-1750.261 2810.7904,-1739.6967 2804.831,-1748.4566 2811.5945,-1750.261"/>
</g>
<!-- hidebound.server.extensions -->
<g id="node21" class="node">
<title>hidebound.server.extensions</title>
<polygon fill="#343434" stroke="#343434" points="2688,-1899.5546 2449,-1899.5546 2449,-1863.5546 2688,-1863.5546 2688,-1899.5546"/>
<text text-anchor="middle" x="2568.5" y="-1877.8546" font-family="Courier,monospace" font-size="14.00" fill="#b6ecf3">hidebound.server.extensions</text>
</g>
<!-- hidebound.server.extension&#45;&gt;hidebound.server.extensions -->
<g id="edge47" class="edge">
<title>hidebound.server.extension&#45;&gt;hidebound.server.extensions</title>
<path fill="none" stroke="#b6ecf3" d="M2328.0604,-1739.5976C2377.3633,-1768.7063 2474.4263,-1826.0129 2528.942,-1858.1993"/>
<polygon fill="#b6ecf3" stroke="#b6ecf3" points="2527.2449,-1861.2618 2537.6355,-1863.332 2530.8038,-1855.234 2527.2449,-1861.2618"/>
</g>
<!-- hidebound.server.extensions&#45;&gt;hidebound.server.api -->
<g id="edge48" class="edge">
<title>hidebound.server.extensions&#45;&gt;hidebound.server.api</title>
<path fill="none" stroke="#b6ecf3" d="M2555.5616,-1863.4088C2530.3109,-1828.6229 2471.7756,-1751.001 2413,-1694.5546 2304.9497,-1590.7861 2158.3422,-1489.0158 2091.2374,-1444.2649"/>
<polygon fill="#b6ecf3" stroke="#b6ecf3" points="2092.9566,-1441.2051 2082.6903,-1438.5871 2089.0832,-1447.0358 2092.9566,-1441.2051"/>
</g>
<!-- hidebound.server.extensions&#45;&gt;hidebound.server.app -->
<g id="edge49" class="edge">
<title>hidebound.server.extensions&#45;&gt;hidebound.server.app</title>
<path fill="none" stroke="#b6ecf3" d="M2657.1193,-1863.5405C2667.8765,-1859.7142 2678.4314,-1855.103 2688,-1849.5546 2733.1056,-1823.3995 2773.2779,-1777.0953 2795.8428,-1747.9324"/>
<polygon fill="#b6ecf3" stroke="#b6ecf3" points="2798.7339,-1749.9126 2801.9982,-1739.8331 2793.1608,-1745.677 2798.7339,-1749.9126"/>
</g>
<!-- hidebound.server.server_tools&#45;&gt;hidebound.server.api -->
<g id="edge50" class="edge">
<title>hidebound.server.server_tools&#45;&gt;hidebound.server.api</title>
<path fill="none" stroke="#b6ecf3" d="M1859.1125,-1917.4618C1883.5592,-1907.2558 1910.2749,-1892.1188 1928,-1870.5546 1982.9254,-1803.7327 2034.4147,-1536.3148 2050.1255,-1448.5872"/>
<polygon fill="#b6ecf3" stroke="#b6ecf3" points="2053.601,-1449.0332 2051.9023,-1438.5755 2046.7086,-1447.81 2053.601,-1449.0332"/>
</g>
<!-- hidebound.server.server_tools&#45;&gt;hidebound.server.app -->
<g id="edge51" class="edge">
<title>hidebound.server.server_tools&#45;&gt;hidebound.server.app</title>
<path fill="none" stroke="#b6ecf3" d="M1928.0147,-1946.0461C2142.1766,-1961.2512 2562.0346,-1980.3388 2688,-1908.5546 2750.6586,-1872.8472 2788.802,-1792.0437 2805.3385,-1749.2878"/>
<polygon fill="#b6ecf3" stroke="#b6ecf3" points="2808.6692,-1750.3735 2808.9005,-1739.7812 2802.1143,-1747.9174 2808.6692,-1750.3735"/>
</g>
<!-- dash -->
<g id="node23" class="node">
<title>dash</title>
<polygon fill="#343434" stroke="#343434" points="1568,-1196.5546 1514,-1196.5546 1514,-1160.5546 1568,-1160.5546 1568,-1196.5546"/>
<text text-anchor="middle" x="1541" y="-1174.8546" font-family="Courier,monospace" font-size="14.00" fill="#de958e">dash</text>
</g>
<!-- dash&#45;&gt;hidebound.server.app -->
<g id="edge52" class="edge">
<title>dash&#45;&gt;hidebound.server.app</title>
<path fill="none" stroke="#de958e" d="M1568.0178,-1185.5761C1631.4529,-1202.2649 1794.6341,-1246.3759 1928,-1292.5546 2271.3072,-1411.4264 2384.7497,-1393.4806 2688,-1593.5546 2731.2836,-1622.1116 2771.7266,-1667.3047 2794.8825,-1695.6481"/>
<polygon fill="#de958e" stroke="#de958e" points="2792.2219,-1697.9246 2801.2206,-1703.5169 2797.6734,-1693.5335 2792.2219,-1697.9246"/>
</g>
<!-- dash&#45;&gt;hidebound.server.components -->
<g id="edge53" class="edge">
<title>dash&#45;&gt;hidebound.server.components</title>
<path fill="none" stroke="#de958e" d="M1558.1824,-1196.8314C1580.7482,-1222.135 1619.4409,-1270.3145 1636,-1319.5546 1658.8087,-1387.3784 1625.3888,-1908.2618 1672,-1962.5546 1672.527,-1963.1685 1673.0642,-1963.7705 1673.6111,-1964.3609"/>
<polygon fill="#de958e" stroke="#de958e" points="1671.5146,-1967.1887 1681.2379,-1971.397 1676.2612,-1962.0437 1671.5146,-1967.1887"/>
</g>
<!-- dash_cytoscape -->
<g id="node24" class="node">
<title>dash_cytoscape</title>
<polygon fill="#343434" stroke="#343434" points="1607,-2176.5546 1475,-2176.5546 1475,-2140.5546 1607,-2140.5546 1607,-2176.5546"/>
<text text-anchor="middle" x="1541" y="-2154.8546" font-family="Courier,monospace" font-size="14.00" fill="#de958e">dash_cytoscape</text>
</g>
<!-- dash_cytoscape&#45;&gt;hidebound.server.components -->
<g id="edge54" class="edge">
<title>dash_cytoscape&#45;&gt;hidebound.server.components</title>
<path fill="none" stroke="#de958e" d="M1607.3425,-2145.018C1617.9073,-2140.5214 1627.9794,-2134.532 1636,-2126.5546 1670.9779,-2091.7648 1635.6601,-2054.9191 1672,-2021.5546 1675.4629,-2018.3752 1679.1933,-2015.4999 1683.126,-2012.9004"/>
<polygon fill="#de958e" stroke="#de958e" points="1685.2031,-2015.7385 1692.0332,-2007.6391 1681.643,-2009.7114 1685.2031,-2015.7385"/>
</g>
<!-- dash.dependencies -->
<g id="node25" class="node">
<title>dash.dependencies</title>
<polygon fill="#343434" stroke="#343434" points="2647,-1320.5546 2490,-1320.5546 2490,-1284.5546 2647,-1284.5546 2647,-1320.5546"/>
<text text-anchor="middle" x="2568.5" y="-1298.8546" font-family="Courier,monospace" font-size="14.00" fill="#de958e">dash.dependencies</text>
</g>
<!-- dash.dependencies&#45;&gt;hidebound.server.app -->
<g id="edge55" class="edge">
<title>dash.dependencies&#45;&gt;hidebound.server.app</title>
<path fill="none" stroke="#de958e" d="M2647.2401,-1311.8142C2662.1996,-1316.6471 2676.6885,-1323.8535 2688,-1334.5546 2741.9543,-1385.5972 2792.8766,-1613.4575 2809.4127,-1693.58"/>
<polygon fill="#de958e" stroke="#de958e" points="2805.9981,-1694.3523 2811.4292,-1703.4491 2812.8564,-1692.9509 2805.9981,-1694.3523"/>
</g>
<!-- dash.exceptions -->
<g id="node26" class="node">
<title>dash.exceptions</title>
<polygon fill="#343434" stroke="#343434" points="2638.5,-1266.5546 2498.5,-1266.5546 2498.5,-1230.5546 2638.5,-1230.5546 2638.5,-1266.5546"/>
<text text-anchor="middle" x="2568.5" y="-1244.8546" font-family="Courier,monospace" font-size="14.00" fill="#de958e">dash.exceptions</text>
</g>
<!-- dash.exceptions&#45;&gt;hidebound.server.app -->
<g id="edge56" class="edge">
<title>dash.exceptions&#45;&gt;hidebound.server.app</title>
<path fill="none" stroke="#de958e" d="M2638.7147,-1251.7591C2656.6605,-1255.7266 2674.6365,-1262.9091 2688,-1275.5546 2750.3813,-1334.584 2796.9943,-1604.9972 2810.7941,-1693.4586"/>
<polygon fill="#de958e" stroke="#de958e" points="2807.3667,-1694.1988 2812.3483,-1703.5494 2814.2851,-1693.1331 2807.3667,-1694.1988"/>
</g>
<!-- flask_monitoringdashboard -->
<g id="node27" class="node">
<title>flask_monitoringdashboard</title>
<polygon fill="#343434" stroke="#343434" points="2680,-1212.5546 2457,-1212.5546 2457,-1176.5546 2680,-1176.5546 2680,-1212.5546"/>
<text text-anchor="middle" x="2568.5" y="-1190.8546" font-family="Courier,monospace" font-size="14.00" fill="#de958e">flask_monitoringdashboard</text>
</g>
<!-- flask_monitoringdashboard&#45;&gt;hidebound.server.app -->
<g id="edge57" class="edge">
<title>flask_monitoringdashboard&#45;&gt;hidebound.server.app</title>
<path fill="none" stroke="#de958e" d="M2676.8359,-1212.6325C2680.8225,-1215.2554 2684.5715,-1218.2158 2688,-1221.5546 2757.1972,-1288.94 2799.9447,-1597.7048 2811.6918,-1693.2767"/>
<polygon fill="#de958e" stroke="#de958e" points="2808.2348,-1693.8439 2812.9116,-1703.3506 2815.1841,-1693.0024 2808.2348,-1693.8439"/>
</g>
<!-- hidebound.server -->
<g id="node28" class="node">
<title>hidebound.server</title>
<polygon fill="#343434" stroke="#343434" points="1615.5,-2230.5546 1466.5,-2230.5546 1466.5,-2194.5546 1615.5,-2194.5546 1615.5,-2230.5546"/>
<text text-anchor="middle" x="1541" y="-2208.8546" font-family="Courier,monospace" font-size="14.00" fill="#a0d17b">hidebound.server</text>
</g>
<!-- hidebound.server&#45;&gt;hidebound.server.api -->
<g id="edge58" class="edge">
<title>hidebound.server&#45;&gt;hidebound.server.api</title>
<path fill="none" stroke="#a0d17b" d="M1615.6993,-2199.5638C1623.1967,-2195.9541 1630.1763,-2191.3701 1636,-2185.5546 1677.2111,-2144.4007 1628.5793,-2098.37 1672,-2059.5546 1758.0138,-1982.6635 1844.6637,-2096.3398 1928,-2016.5546 2011.8557,-1936.2721 2045.2716,-1555.6237 2053.1019,-1448.6044"/>
<polygon fill="#a0d17b" stroke="#a0d17b" points="2056.5972,-1448.7938 2053.8191,-1438.5697 2049.615,-1448.2947 2056.5972,-1448.7938"/>
</g>
<!-- hidebound.server&#45;&gt;hidebound.server.app -->
<g id="edge59" class="edge">
<title>hidebound.server&#45;&gt;hidebound.server.app</title>
<path fill="none" stroke="#a0d17b" d="M1615.894,-2209.4737C1715.954,-2205.6295 1898.7869,-2199.5546 2055,-2199.5546 2055,-2199.5546 2055,-2199.5546 2297.5,-2199.5546 2491.6903,-2199.5546 2553.6028,-2143.7232 2688,-2003.5546 2760.2662,-1928.1851 2796.0253,-1804.5951 2809.0406,-1749.5365"/>
<polygon fill="#a0d17b" stroke="#a0d17b" points="2812.455,-1750.3054 2811.2773,-1739.7762 2805.6319,-1748.7417 2812.455,-1750.3054"/>
</g>
<!-- hidebound.server&#45;&gt;hidebound.server.components -->
<g id="edge60" class="edge">
<title>hidebound.server&#45;&gt;hidebound.server.components</title>
<path fill="none" stroke="#a0d17b" d="M1615.5979,-2200.1452C1623.2086,-2196.4389 1630.2425,-2191.6733 1636,-2185.5546 1687.1385,-2131.2071 1620.0004,-2075.0787 1672,-2021.5546 1675.0077,-2018.4587 1678.2662,-2015.6451 1681.7222,-2013.0892"/>
<polygon fill="#a0d17b" stroke="#a0d17b" points="1683.6775,-2015.9924 1690.1196,-2007.5812 1679.8382,-2010.1392 1683.6775,-2015.9924"/>
</g>
<!-- hidebound.server&#45;&gt;hidebound.server.extension -->
<g id="edge61" class="edge">
<title>hidebound.server&#45;&gt;hidebound.server.extension</title>
<path fill="none" stroke="#a0d17b" d="M1615.5584,-2198.6928C1622.9899,-2195.2366 1629.9932,-2190.9269 1636,-2185.5546 1667.4977,-2157.3841 1639.1454,-2124.1301 1672,-2097.5546 1761.8777,-2024.8541 1824.0794,-2102.1891 1928,-2051.5546 2008.7552,-2012.2072 2203.7391,-1817.3554 2272.7694,-1746.9714"/>
<polygon fill="#a0d17b" stroke="#a0d17b" points="2275.308,-1749.3814 2279.8019,-1739.7869 2270.3056,-1744.4849 2275.308,-1749.3814"/>
</g>
<!-- hidebound.server&#45;&gt;hidebound.server.extensions -->
<g id="edge62" class="edge">
<title>hidebound.server&#45;&gt;hidebound.server.extensions</title>
<path fill="none" stroke="#a0d17b" d="M1605.7418,-2194.5126C1615.8876,-2191.5819 1626.2417,-2188.5307 1636,-2185.5546 1965.5025,-2085.0609 2356.581,-1953.5465 2506.1316,-1902.801"/>
<polygon fill="#a0d17b" stroke="#a0d17b" points="2507.2857,-1906.1054 2515.6298,-1899.5764 2505.0354,-1899.477 2507.2857,-1906.1054"/>
</g>
<!-- hidebound.server&#45;&gt;hidebound.server.server_tools -->
<g id="edge63" class="edge">
<title>hidebound.server&#45;&gt;hidebound.server.server_tools</title>
<path fill="none" stroke="#a0d17b" d="M1615.9385,-2200.4569C1623.4895,-2196.6959 1630.4162,-2191.8322 1636,-2185.5546 1702.723,-2110.5409 1602.7286,-2035.2215 1672,-1962.5546 1672.7835,-1961.7326 1673.5853,-1960.9325 1674.4042,-1960.1536"/>
<polygon fill="#a0d17b" stroke="#a0d17b" points="1676.7317,-1962.7708 1682.2123,-1953.7036 1672.2735,-1957.374 1676.7317,-1962.7708"/>
</g>
<!-- flask -->
<g id="node29" class="node">
<title>flask</title>
<polygon fill="#343434" stroke="#343434" points="1570,-1900.5546 1512,-1900.5546 1512,-1864.5546 1570,-1864.5546 1570,-1900.5546"/>
<text text-anchor="middle" x="1541" y="-1878.8546" font-family="Courier,monospace" font-size="14.00" fill="#de958e">flask</text>
</g>
<!-- flask&#45;&gt;hidebound.server.api -->
<g id="edge64" class="edge">
<title>flask&#45;&gt;hidebound.server.api</title>
<path fill="none" stroke="#de958e" d="M1570.0195,-1880.4434C1590.4568,-1877.6053 1617.3855,-1870.9814 1636,-1855.5546 1663.5467,-1832.7252 1650.6937,-1812.2955 1672,-1783.5546 1780.5241,-1637.1621 1951.633,-1499.1077 2022.5484,-1444.8171"/>
<polygon fill="#de958e" stroke="#de958e" points="2024.8545,-1447.4603 2030.689,-1438.6166 2020.613,-1441.8916 2024.8545,-1447.4603"/>
</g>
<!-- flask&#45;&gt;hidebound.server.app -->
<g id="edge65" class="edge">
<title>flask&#45;&gt;hidebound.server.app</title>
<path fill="none" stroke="#de958e" d="M1570.2158,-1882.9955C1634.8718,-1883.6763 1794.8838,-1883.7377 1928,-1870.5546 2219.2799,-1841.7077 2559.5651,-1775.2183 2720.9175,-1741.6787"/>
<polygon fill="#de958e" stroke="#de958e" points="2721.7394,-1745.0827 2730.8149,-1739.616 2720.3112,-1738.2299 2721.7394,-1745.0827"/>
</g>
<!-- flask&#45;&gt;hidebound.server.components -->
<g id="edge66" class="edge">
<title>flask&#45;&gt;hidebound.server.components</title>
<path fill="none" stroke="#de958e" d="M1565.2578,-1900.8858C1590.5922,-1919.1587 1632.1256,-1946.7176 1672,-1962.5546 1677.4088,-1964.7028 1683.0172,-1966.6914 1688.7312,-1968.531"/>
<polygon fill="#de958e" stroke="#de958e" points="1687.8444,-1971.9196 1698.4304,-1971.4879 1689.8857,-1965.2238 1687.8444,-1971.9196"/>
</g>
<!-- flask&#45;&gt;hidebound.server.extension -->
<g id="edge67" class="edge">
<title>flask&#45;&gt;hidebound.server.extension</title>
<path fill="none" stroke="#de958e" d="M1570.0963,-1878.5311C1589.8108,-1874.8232 1615.8419,-1867.9453 1636,-1855.5546 1656.0962,-1843.2019 1651.007,-1827.3127 1672,-1816.5546 1683.805,-1810.5049 2132.951,-1760.9378 2146,-1758.5546 2170.6968,-1754.044 2197.3787,-1747.9468 2221.3676,-1742.0041"/>
<polygon fill="#de958e" stroke="#de958e" points="2222.268,-1745.3868 2231.1174,-1739.5611 2220.5665,-1738.5967 2222.268,-1745.3868"/>
</g>
<!-- flask&#45;&gt;hidebound.server.server_tools -->
<g id="edge68" class="edge">
<title>flask&#45;&gt;hidebound.server.server_tools</title>
<path fill="none" stroke="#de958e" d="M1570.2071,-1888.5313C1602.1344,-1895.0647 1655.018,-1905.8864 1702.0086,-1915.5023"/>
<polygon fill="#de958e" stroke="#de958e" points="1701.4381,-1918.958 1711.9368,-1917.5339 1702.8415,-1912.1001 1701.4381,-1918.958"/>
</g>
<!-- rolling_pin.blob_etl -->
<g id="node30" class="node">
<title>rolling_pin.blob_etl</title>
<polygon fill="#343434" stroke="#343434" points="1632,-2084.5546 1450,-2084.5546 1450,-2048.5546 1632,-2048.5546 1632,-2084.5546"/>
<text text-anchor="middle" x="1541" y="-2062.8546" font-family="Courier,monospace" font-size="14.00" fill="#de958e">rolling_pin.blob_etl</text>
</g>
<!-- rolling_pin.blob_etl&#45;&gt;hidebound.server.components -->
<g id="edge69" class="edge">
<title>rolling_pin.blob_etl&#45;&gt;hidebound.server.components</title>
<path fill="none" stroke="#de958e" d="M1595.3263,-2048.4805C1608.6475,-2043.9866 1622.8544,-2039.1415 1636,-2034.5546 1652.0616,-2028.9502 1655.7274,-2026.5128 1672,-2021.5546 1685.0477,-2017.579 1698.9509,-2013.7216 1712.6057,-2010.1424"/>
<polygon fill="#de958e" stroke="#de958e" points="1713.683,-2013.479 1722.4888,-2007.5876 1711.9311,-2006.7018 1713.683,-2013.479"/>
</g>
<!-- rolling_pin.blob_etl&#45;&gt;hidebound.server.server_tools -->
<g id="edge70" class="edge">
<title>rolling_pin.blob_etl&#45;&gt;hidebound.server.server_tools</title>
<path fill="none" stroke="#de958e" d="M1614.7516,-2048.3672C1622.4191,-2044.59 1629.6978,-2040.0379 1636,-2034.5546 1662.9909,-2011.0708 1643.6821,-1984.4199 1672,-1962.5546 1673.6179,-1961.3054 1675.2802,-1960.1106 1676.9818,-1958.9681"/>
<polygon fill="#de958e" stroke="#de958e" points="1679.0206,-1961.8265 1685.7939,-1953.6795 1675.4184,-1955.8244 1679.0206,-1961.8265"/>
</g>
<!-- yaml -->
<g id="node31" class="node">
<title>yaml</title>
<polygon fill="#343434" stroke="#343434" points="1568,-1846.5546 1514,-1846.5546 1514,-1810.5546 1568,-1810.5546 1568,-1846.5546"/>
<text text-anchor="middle" x="1541" y="-1824.8546" font-family="Courier,monospace" font-size="14.00" fill="#de958e">yaml</text>
</g>
<!-- yaml&#45;&gt;hidebound.core.database -->
<g id="edge71" class="edge">
<title>yaml&#45;&gt;hidebound.core.database</title>
<path fill="none" stroke="#de958e" d="M1568.2594,-1828.5623C1590.0113,-1826.9946 1619.4839,-1821.0459 1636,-1801.5546 1728.5235,-1692.364 1604.5199,-1607.7671 1672,-1481.5546 1691.4432,-1445.1886 1728.6303,-1415.9685 1757.9326,-1397.1383"/>
<polygon fill="#de958e" stroke="#de958e" points="1760.1193,-1399.8991 1766.7449,-1391.6316 1756.4097,-1393.9628 1760.1193,-1399.8991"/>
</g>
<!-- yaml&#45;&gt;hidebound.server.extension -->
<g id="edge72" class="edge">
<title>yaml&#45;&gt;hidebound.server.extension</title>
<path fill="none" stroke="#de958e" d="M1568.0559,-1822.2982C1587.3082,-1817.5018 1613.6221,-1810.2413 1636,-1801.5546 1652.6762,-1795.0812 1654.8142,-1788.5192 1672,-1783.5546 1683.881,-1780.1224 1992.7284,-1750.4484 2171.9057,-1733.428"/>
<polygon fill="#de958e" stroke="#de958e" points="2172.3017,-1736.9062 2181.9261,-1732.4765 2171.64,-1729.9376 2172.3017,-1736.9062"/>
</g>
<!-- yaml&#45;&gt;hidebound.server.server_tools -->
<g id="edge73" class="edge">
<title>yaml&#45;&gt;hidebound.server.server_tools</title>
<path fill="none" stroke="#de958e" d="M1568.0298,-1834.8786C1587.2699,-1839.7068 1613.5798,-1846.9777 1636,-1855.5546 1659.1951,-1864.4279 1715.494,-1892.4399 1755.6476,-1912.8192"/>
<polygon fill="#de958e" stroke="#de958e" points="1754.2135,-1916.0165 1764.7137,-1917.43 1757.3868,-1909.777 1754.2135,-1916.0165"/>
</g>
<!-- botocore.exceptions -->
<g id="node32" class="node">
<title>botocore.exceptions</title>
<polygon fill="#343434" stroke="#343434" points="1011,-822.5546 838,-822.5546 838,-786.5546 1011,-786.5546 1011,-822.5546"/>
<text text-anchor="middle" x="924.5" y="-800.8546" font-family="Courier,monospace" font-size="14.00" fill="#de958e">botocore.exceptions</text>
</g>
<!-- botocore.exceptions&#45;&gt;hidebound.exporters.s3_exporter -->
<g id="edge74" class="edge">
<title>botocore.exceptions&#45;&gt;hidebound.exporters.s3_exporter</title>
<path fill="none" stroke="#de958e" d="M1011.2149,-791.5775C1030.4362,-787.8102 1050.5656,-783.1619 1069,-777.5546 1119.7356,-762.1219 1175.2141,-737.2432 1212.7587,-719.1254"/>
<polygon fill="#de958e" stroke="#de958e" points="1214.4437,-722.1979 1221.9038,-714.6747 1211.3804,-715.9037 1214.4437,-722.1979"/>
</g>
<!-- jinja2 -->
<g id="node33" class="node">
<title>jinja2</title>
<polygon fill="#343434" stroke="#343434" points="1574,-1992.5546 1508,-1992.5546 1508,-1956.5546 1574,-1956.5546 1574,-1992.5546"/>
<text text-anchor="middle" x="1541" y="-1970.8546" font-family="Courier,monospace" font-size="14.00" fill="#de958e">jinja2</text>
</g>
<!-- jinja2&#45;&gt;hidebound.server.server_tools -->
<g id="edge75" class="edge">
<title>jinja2&#45;&gt;hidebound.server.server_tools</title>
<path fill="none" stroke="#de958e" d="M1574.0656,-1969.5756C1598.8717,-1965.8403 1634.5688,-1960.4651 1670.2875,-1955.0866"/>
<polygon fill="#de958e" stroke="#de958e" points="1670.9862,-1958.5209 1680.3536,-1953.5708 1669.9439,-1951.5989 1670.9862,-1958.5209"/>
</g>
<!-- requests -->
<g id="node34" class="node">
<title>requests</title>
<polygon fill="#343434" stroke="#343434" points="1582.5,-1792.5546 1499.5,-1792.5546 1499.5,-1756.5546 1582.5,-1756.5546 1582.5,-1792.5546"/>
<text text-anchor="middle" x="1541" y="-1770.8546" font-family="Courier,monospace" font-size="14.00" fill="#de958e">requests</text>
</g>
<!-- requests&#45;&gt;hidebound.core.database -->
<g id="edge76" class="edge">
<title>requests&#45;&gt;hidebound.core.database</title>
<path fill="none" stroke="#de958e" d="M1578.2551,-1756.3429C1598.5902,-1744.439 1622.3402,-1726.939 1636,-1704.5546 1688.296,-1618.8566 1622.5525,-1568.9271 1672,-1481.5546 1692.3757,-1445.5513 1729.6413,-1416.2073 1758.7284,-1397.2416"/>
<polygon fill="#de958e" stroke="#de958e" points="1760.9001,-1400.0086 1767.4652,-1391.693 1757.1473,-1394.0996 1760.9001,-1400.0086"/>
</g>
<!-- requests&#45;&gt;hidebound.server.server_tools -->
<g id="edge77" class="edge">
<title>requests&#45;&gt;hidebound.server.server_tools</title>
<path fill="none" stroke="#de958e" d="M1582.7477,-1778.9644C1600.7056,-1782.6259 1620.976,-1789.3203 1636,-1801.5546 1662.8217,-1823.3959 1647.4072,-1846.231 1672,-1870.5546 1690.5335,-1888.8852 1715.2885,-1903.0873 1738.0877,-1913.4746"/>
<polygon fill="#de958e" stroke="#de958e" points="1736.815,-1916.7382 1747.3786,-1917.5516 1739.6279,-1910.3282 1736.815,-1916.7382"/>
</g>
<!-- flasgger -->
<g id="node35" class="node">
<title>flasgger</title>
<polygon fill="#343434" stroke="#343434" points="1841.5,-1861.5546 1758.5,-1861.5546 1758.5,-1825.5546 1841.5,-1825.5546 1841.5,-1861.5546"/>
<text text-anchor="middle" x="1800" y="-1839.8546" font-family="Courier,monospace" font-size="14.00" fill="#de958e">flasgger</text>
</g>
<!-- flasgger&#45;&gt;hidebound.server.api -->
<g id="edge78" class="edge">
<title>flasgger&#45;&gt;hidebound.server.api</title>
<path fill="none" stroke="#de958e" d="M1810.957,-1825.3788C1851.1718,-1758.6695 1990.7891,-1527.0692 2038.7075,-1447.581"/>
<polygon fill="#de958e" stroke="#de958e" points="2041.9184,-1449.0338 2044.0838,-1438.6626 2035.9235,-1445.4198 2041.9184,-1449.0338"/>
</g>
<!-- flasgger&#45;&gt;hidebound.server.extensions -->
<g id="edge79" class="edge">
<title>flasgger&#45;&gt;hidebound.server.extensions</title>
<path fill="none" stroke="#de958e" d="M1841.5344,-1852.9905C1911.3782,-1868.3228 2056.9817,-1897.9941 2182,-1908.5546 2284.3023,-1917.1962 2310.7124,-1917.3689 2413,-1908.5546 2431.5123,-1906.9593 2451.1282,-1904.3147 2469.9641,-1901.2885"/>
<polygon fill="#de958e" stroke="#de958e" points="2470.7381,-1904.7081 2480.0333,-1899.6238 2469.5963,-1897.8019 2470.7381,-1904.7081"/>
</g>
<!-- flask_healthz -->
<g id="node36" class="node">
<title>flask_healthz</title>
<polygon fill="#343434" stroke="#343434" points="2359.5,-1899.5546 2235.5,-1899.5546 2235.5,-1863.5546 2359.5,-1863.5546 2359.5,-1899.5546"/>
<text text-anchor="middle" x="2297.5" y="-1877.8546" font-family="Courier,monospace" font-size="14.00" fill="#de958e">flask_healthz</text>
</g>
<!-- flask_healthz&#45;&gt;hidebound.server.extensions -->
<g id="edge80" class="edge">
<title>flask_healthz&#45;&gt;hidebound.server.extensions</title>
<path fill="none" stroke="#de958e" d="M2359.6729,-1881.5546C2383.263,-1881.5546 2411.0964,-1881.5546 2438.6201,-1881.5546"/>
<polygon fill="#de958e" stroke="#de958e" points="2438.738,-1885.0547 2448.7379,-1881.5546 2438.7379,-1878.0547 2438.738,-1885.0547"/>
</g>
<!-- pandasql -->
<g id="node37" class="node">
<title>pandasql</title>
<polygon fill="#343434" stroke="#343434" points="1582.5,-1472.5546 1499.5,-1472.5546 1499.5,-1436.5546 1582.5,-1436.5546 1582.5,-1472.5546"/>
<text text-anchor="middle" x="1541" y="-1450.8546" font-family="Courier,monospace" font-size="14.00" fill="#de958e">pandasql</text>
</g>
<!-- pandasql&#45;&gt;hidebound.core.database -->
<g id="edge81" class="edge">
<title>pandasql&#45;&gt;hidebound.core.database</title>
<path fill="none" stroke="#de958e" d="M1582.7281,-1443.0957C1599.3492,-1438.427 1618.6234,-1432.8822 1636,-1427.5546 1669.6186,-1417.2472 1706.8622,-1405.0477 1737.35,-1394.8544"/>
<polygon fill="#de958e" stroke="#de958e" points="1738.629,-1398.1171 1746.998,-1391.6203 1736.4041,-1391.4801 1738.629,-1398.1171"/>
</g>
<!-- werkzeug.exceptions -->
<g id="node38" class="node">
<title>werkzeug.exceptions</title>
<polygon fill="#343434" stroke="#343434" points="1886.5,-1337.5546 1713.5,-1337.5546 1713.5,-1301.5546 1886.5,-1301.5546 1886.5,-1337.5546"/>
<text text-anchor="middle" x="1800" y="-1315.8546" font-family="Courier,monospace" font-size="14.00" fill="#de958e">werkzeug.exceptions</text>
</g>
<!-- werkzeug.exceptions&#45;&gt;hidebound.server.api -->
<g id="edge82" class="edge">
<title>werkzeug.exceptions&#45;&gt;hidebound.server.api</title>
<path fill="none" stroke="#de958e" d="M1886.817,-1333.9329C1900.8078,-1337.3662 1914.9664,-1341.5332 1928,-1346.5546 1961.4425,-1359.4387 1996.414,-1380.4575 2021.172,-1396.808"/>
<polygon fill="#de958e" stroke="#de958e" points="2019.2278,-1399.7183 2029.484,-1402.3757 2023.1235,-1393.9025 2019.2278,-1399.7183"/>
</g>
<!-- requests.models -->
<g id="node39" class="node">
<title>requests.models</title>
<polygon fill="#343434" stroke="#343434" points="1611,-1418.5546 1471,-1418.5546 1471,-1382.5546 1611,-1382.5546 1611,-1418.5546"/>
<text text-anchor="middle" x="1541" y="-1396.8546" font-family="Courier,monospace" font-size="14.00" fill="#de958e">requests.models</text>
</g>
<!-- requests.models&#45;&gt;hidebound.core.database -->
<g id="edge83" class="edge">
<title>requests.models&#45;&gt;hidebound.core.database</title>
<path fill="none" stroke="#de958e" d="M1611.0891,-1393.248C1634.3662,-1390.8214 1660.9129,-1388.054 1686.601,-1385.3761"/>
<polygon fill="#de958e" stroke="#de958e" points="1687.1926,-1388.8335 1696.7758,-1384.3154 1686.4668,-1381.8712 1687.1926,-1388.8335"/>
</g>
<!-- requests.exceptions -->
<g id="node40" class="node">
<title>requests.exceptions</title>
<polygon fill="#343434" stroke="#343434" points="1627.5,-1364.5546 1454.5,-1364.5546 1454.5,-1328.5546 1627.5,-1328.5546 1627.5,-1364.5546"/>
<text text-anchor="middle" x="1541" y="-1342.8546" font-family="Courier,monospace" font-size="14.00" fill="#de958e">requests.exceptions</text>
</g>
<!-- requests.exceptions&#45;&gt;hidebound.core.database -->
<g id="edge84" class="edge">
<title>requests.exceptions&#45;&gt;hidebound.core.database</title>
<path fill="none" stroke="#de958e" d="M1627.6033,-1355.5827C1646.5995,-1357.563 1666.984,-1359.688 1686.8471,-1361.7587"/>
<polygon fill="#de958e" stroke="#de958e" points="1686.5518,-1365.2468 1696.8609,-1362.8026 1687.2777,-1358.2845 1686.5518,-1365.2468"/>
</g>
<!-- lunchbox.tools -->
<g id="node41" class="node">
<title>lunchbox.tools</title>
<polygon fill="#343434" stroke="#343434" points="990.5,-1982.5546 858.5,-1982.5546 858.5,-1946.5546 990.5,-1946.5546 990.5,-1982.5546"/>
<text text-anchor="middle" x="924.5" y="-1960.8546" font-family="Courier,monospace" font-size="14.00" fill="#de958e">lunchbox.tools</text>
</g>
<!-- lunchbox.tools&#45;&gt;hidebound.core.database_tools -->
<g id="edge85" class="edge">
<title>lunchbox.tools&#45;&gt;hidebound.core.database_tools</title>
<path fill="none" stroke="#de958e" d="M940.9351,-1946.3621C968.8965,-1914.9802 1026.7925,-1848.1048 1069,-1786.5546 1142.3777,-1679.5497 1214.5029,-1542.2937 1243.8084,-1484.7969"/>
<polygon fill="#de958e" stroke="#de958e" points="1247.051,-1486.1414 1248.4565,-1475.6402 1240.8091,-1482.9729 1247.051,-1486.1414"/>
</g>
<!-- lunchbox.tools&#45;&gt;hidebound.server.server_tools -->
<g id="edge86" class="edge">
<title>lunchbox.tools&#45;&gt;hidebound.server.server_tools</title>
<path fill="none" stroke="#de958e" d="M990.5568,-1975.4424C1144.2603,-1999.5914 1521.4893,-2051.6909 1636,-2001.5546 1657.6087,-1992.0936 1651.4896,-1974.2065 1672,-1962.5546 1675.0546,-1960.8192 1678.2075,-1959.195 1681.4355,-1957.6749"/>
<polygon fill="#de958e" stroke="#de958e" points="1682.925,-1960.844 1690.7125,-1953.6603 1680.1449,-1954.4197 1682.925,-1960.844"/>
</g>
<!-- lunchbox.enforce -->
<g id="node42" class="node">
<title>lunchbox.enforce</title>
<polygon fill="#343434" stroke="#343434" points="464.5,-1158.5546 315.5,-1158.5546 315.5,-1122.5546 464.5,-1122.5546 464.5,-1158.5546"/>
<text text-anchor="middle" x="390" y="-1136.8546" font-family="Courier,monospace" font-size="14.00" fill="#de958e">lunchbox.enforce</text>
</g>
<!-- lunchbox.enforce&#45;&gt;hidebound.core.connection -->
<g id="edge87" class="edge">
<title>lunchbox.enforce&#45;&gt;hidebound.core.connection</title>
<path fill="none" stroke="#de958e" d="M464.7367,-1152.2659C479.2348,-1154.5378 494.7787,-1156.9735 510.3426,-1159.4124"/>
<polygon fill="#de958e" stroke="#de958e" points="510.141,-1162.9234 520.5623,-1161.0138 511.2248,-1156.0078 510.141,-1162.9234"/>
</g>
<!-- girder_client -->
<g id="node43" class="node">
<title>girder_client</title>
<polygon fill="#343434" stroke="#343434" points="986.5,-432.5546 862.5,-432.5546 862.5,-396.5546 986.5,-396.5546 986.5,-432.5546"/>
<text text-anchor="middle" x="924.5" y="-410.8546" font-family="Courier,monospace" font-size="14.00" fill="#de958e">girder_client</text>
</g>
<!-- girder_client&#45;&gt;hidebound.exporters.girder_exporter -->
<g id="edge88" class="edge">
<title>girder_client&#45;&gt;hidebound.exporters.girder_exporter</title>
<path fill="none" stroke="#de958e" d="M986.5196,-426.2676C1012.2507,-431.6483 1042.2781,-438.6072 1069,-446.5546 1115.7696,-460.4644 1167.5545,-480.3034 1204.9936,-495.4761"/>
<polygon fill="#de958e" stroke="#de958e" points="1204.0917,-498.8882 1214.6729,-499.4244 1206.7355,-492.4066 1204.0917,-498.8882"/>
</g>
<!-- boto3 -->
<g id="node44" class="node">
<title>boto3</title>
<polygon fill="#343434" stroke="#343434" points="953.5,-768.5546 895.5,-768.5546 895.5,-732.5546 953.5,-732.5546 953.5,-768.5546"/>
<text text-anchor="middle" x="924.5" y="-746.8546" font-family="Courier,monospace" font-size="14.00" fill="#de958e">boto3</text>
</g>
<!-- boto3&#45;&gt;hidebound.exporters.s3_exporter -->
<g id="edge89" class="edge">
<title>boto3&#45;&gt;hidebound.exporters.s3_exporter</title>
<path fill="none" stroke="#de958e" d="M953.7597,-745.8098C994.4428,-739.2125 1070.5261,-726.8747 1136.3643,-716.1982"/>
<polygon fill="#de958e" stroke="#de958e" points="1137.1057,-719.6238 1146.4165,-714.5681 1135.9852,-712.714 1137.1057,-719.6238"/>
</g>
<!-- numpy -->
<g id="node45" class="node">
<title>numpy</title>
<polygon fill="#343434" stroke="#343434" points="953.5,-1120.5546 895.5,-1120.5546 895.5,-1084.5546 953.5,-1084.5546 953.5,-1120.5546"/>
<text text-anchor="middle" x="924.5" y="-1098.8546" font-family="Courier,monospace" font-size="14.00" fill="#de958e">numpy</text>
</g>
<!-- numpy&#45;&gt;hidebound.core.database -->
<g id="edge90" class="edge">
<title>numpy&#45;&gt;hidebound.core.database</title>
<path fill="none" stroke="#de958e" d="M953.9048,-1101.0448C1081.6154,-1094.7744 1584.0805,-1073.1699 1636,-1118.5546 1713.239,-1186.0718 1601.3427,-1272.1772 1672,-1346.5546 1676.7293,-1351.5329 1682.1269,-1355.7119 1687.969,-1359.211"/>
<polygon fill="#de958e" stroke="#de958e" points="1686.3403,-1362.3089 1696.8203,-1363.8649 1689.5981,-1356.1131 1686.3403,-1362.3089"/>
</g>
<!-- numpy&#45;&gt;hidebound.core.database_tools -->
<g id="edge91" class="edge">
<title>numpy&#45;&gt;hidebound.core.database_tools</title>
<path fill="none" stroke="#de958e" d="M941.4713,-1120.6471C996.4749,-1179.2846 1169.9436,-1364.2137 1233.6941,-1432.1759"/>
<polygon fill="#de958e" stroke="#de958e" points="1231.1686,-1434.5995 1240.5628,-1439.4984 1236.2741,-1429.8104 1231.1686,-1434.5995"/>
</g>
<!-- numpy&#45;&gt;hidebound.server.api -->
<g id="edge92" class="edge">
<title>numpy&#45;&gt;hidebound.server.api</title>
<path fill="none" stroke="#de958e" d="M953.7162,-1095.8318C1102.1529,-1062.3945 1771.7904,-920.3856 1928,-1042.5546 1980.3044,-1083.461 1943.88,-1124.2753 1964,-1187.5546 1988.1105,-1263.3842 2024.3245,-1350.026 2042.9651,-1393.1572"/>
<polygon fill="#de958e" stroke="#de958e" points="2039.7934,-1394.6405 2046.9872,-1402.4186 2046.2141,-1391.852 2039.7934,-1394.6405"/>
</g>
<!-- dask.distributed -->
<g id="node46" class="node">
<title>dask.distributed</title>
<polygon fill="#343434" stroke="#343434" points="464.5,-1104.5546 315.5,-1104.5546 315.5,-1068.5546 464.5,-1068.5546 464.5,-1104.5546"/>
<text text-anchor="middle" x="390" y="-1082.8546" font-family="Courier,monospace" font-size="14.00" fill="#de958e">dask.distributed</text>
</g>
<!-- dask.distributed&#45;&gt;hidebound.core.connection -->
<g id="edge93" class="edge">
<title>dask.distributed&#45;&gt;hidebound.core.connection</title>
<path fill="none" stroke="#de958e" d="M464.9879,-1104.2504C471.9318,-1106.9562 478.713,-1110.0426 485,-1113.5546 503.9491,-1124.1397 502.0646,-1135.9451 521,-1146.5546 527.9323,-1150.4387 535.3764,-1153.8857 543.0099,-1156.9381"/>
<polygon fill="#de958e" stroke="#de958e" points="541.8014,-1160.2229 552.3934,-1160.4684 544.2663,-1153.6712 541.8014,-1160.2229"/>
</g>
<!-- json_logging -->
<g id="node47" class="node">
<title>json_logging</title>
<polygon fill="#343434" stroke="#343434" points="448,-1012.5546 332,-1012.5546 332,-976.5546 448,-976.5546 448,-1012.5546"/>
<text text-anchor="middle" x="390" y="-990.8546" font-family="Courier,monospace" font-size="14.00" fill="#de958e">json_logging</text>
</g>
<!-- json_logging&#45;&gt;hidebound.core.logging -->
<g id="edge94" class="edge">
<title>json_logging&#45;&gt;hidebound.core.logging</title>
<path fill="none" stroke="#de958e" d="M448.0848,-1006.5308C474.1438,-1011.9038 505.6035,-1018.3903 535.1021,-1024.4725"/>
<polygon fill="#de958e" stroke="#de958e" points="534.5194,-1027.9259 545.0202,-1026.5175 535.933,-1021.0701 534.5194,-1027.9259"/>
</g>
<!-- hidebound.exporters -->
<g id="node48" class="node">
<title>hidebound.exporters</title>
<polygon fill="#343434" stroke="#343434" points="719,-516.5546 546,-516.5546 546,-480.5546 719,-480.5546 719,-516.5546"/>
<text text-anchor="middle" x="632.5" y="-494.8546" font-family="Courier,monospace" font-size="14.00" fill="#a0d17b">hidebound.exporters</text>
</g>
<!-- hidebound.exporters&#45;&gt;hidebound.exporters.disk_exporter -->
<g id="edge95" class="edge">
<title>hidebound.exporters&#45;&gt;hidebound.exporters.disk_exporter</title>
<path fill="none" stroke="#a0d17b" d="M635.0217,-480.2421C643.5831,-426.054 676.9891,-266.3151 780,-202.5546 889.2157,-134.9535 945.681,-166.6325 1069,-202.5546 1132.6191,-221.0864 1195.2584,-268.3097 1229.9039,-297.6879"/>
<polygon fill="#a0d17b" stroke="#a0d17b" points="1227.8208,-300.513 1237.6826,-304.3855 1232.3882,-295.2084 1227.8208,-300.513"/>
</g>
<!-- hidebound.exporters&#45;&gt;hidebound.exporters.exporter_base -->
<g id="edge96" class="edge">
<title>hidebound.exporters&#45;&gt;hidebound.exporters.exporter_base</title>
<path fill="none" stroke="#a0d17b" d="M659.1871,-516.6506C712.0575,-552.5011 830.0998,-632.5435 889.2698,-672.6656"/>
<polygon fill="#a0d17b" stroke="#a0d17b" points="887.3169,-675.5701 897.5578,-678.2856 891.2455,-669.7764 887.3169,-675.5701"/>
</g>
<!-- hidebound.exporters&#45;&gt;hidebound.exporters.girder_exporter -->
<g id="edge97" class="edge">
<title>hidebound.exporters&#45;&gt;hidebound.exporters.girder_exporter</title>
<path fill="none" stroke="#a0d17b" d="M640.4517,-480.3919C658.5819,-441.5851 707.1255,-351.2962 780,-316.5546 895.943,-261.2808 951.1365,-265.5039 1069,-316.5546 1079.8565,-321.2569 1186.5165,-438.7407 1234.4167,-491.8762"/>
<polygon fill="#a0d17b" stroke="#a0d17b" points="1232.0146,-494.4391 1241.308,-499.5267 1237.2157,-489.7541 1232.0146,-494.4391"/>
</g>
<!-- hidebound.exporters&#45;&gt;hidebound.exporters.s3_exporter -->
<g id="edge98" class="edge">
<title>hidebound.exporters&#45;&gt;hidebound.exporters.s3_exporter</title>
<path fill="none" stroke="#a0d17b" d="M719.123,-505.4377C809.0776,-514.7234 952.6602,-535.608 1069,-580.5546 1128.7304,-603.6308 1190.5708,-645.8164 1226.465,-672.4553"/>
<polygon fill="#a0d17b" stroke="#a0d17b" points="1224.4832,-675.344 1234.5831,-678.5445 1228.6835,-669.7442 1224.4832,-675.344"/>
</g>
<!-- schematics -->
<g id="node49" class="node">
<title>schematics</title>
<polygon fill="#343434" stroke="#343434" points="682,-779.5546 583,-779.5546 583,-743.5546 682,-743.5546 682,-779.5546"/>
<text text-anchor="middle" x="632.5" y="-757.8546" font-family="Courier,monospace" font-size="14.00" fill="#de958e">schematics</text>
</g>
<!-- schematics&#45;&gt;hidebound.core.config -->
<g id="edge99" class="edge">
<title>schematics&#45;&gt;hidebound.core.config</title>
<path fill="none" stroke="#de958e" d="M682.0493,-766.6579C702.3946,-770.4472 725.4721,-777.0498 744,-788.5546 765.1745,-801.7027 757.4165,-821.0084 780,-831.5546 896.38,-885.9022 941.7996,-849.3878 1069,-831.5546 1223.1679,-809.9406 1397.6205,-750.4455 1484.9306,-718.1276"/>
<polygon fill="#de958e" stroke="#de958e" points="1486.2261,-721.3801 1494.3767,-714.6111 1483.7839,-714.8199 1486.2261,-721.3801"/>
</g>
<!-- schematics&#45;&gt;hidebound.core.specification_base -->
<g id="edge100" class="edge">
<title>schematics&#45;&gt;hidebound.core.specification_base</title>
<path fill="none" stroke="#de958e" d="M682.0891,-767.4973C703.5354,-772.3892 727.4557,-781.3054 744,-797.5546 779.1964,-832.1233 743.2123,-869.6844 780,-902.5546 783.6405,-905.8074 787.5365,-908.7536 791.6302,-911.4208"/>
<polygon fill="#de958e" stroke="#de958e" points="789.8973,-914.4621 800.2918,-916.5127 793.4449,-908.4276 789.8973,-914.4621"/>
</g>
<!-- schematics&#45;&gt;hidebound.exporters.exporter_base -->
<g id="edge101" class="edge">
<title>schematics&#45;&gt;hidebound.exporters.exporter_base</title>
<path fill="none" stroke="#de958e" d="M682.1393,-747.8757C710.6572,-740.2411 747.2144,-730.8321 780,-723.5546 790.7911,-721.1592 802.0671,-718.8015 813.3549,-716.5373"/>
<polygon fill="#de958e" stroke="#de958e" points="814.137,-719.9505 823.2657,-714.573 812.776,-713.084 814.137,-719.9505"/>
</g>
<!-- schematics&#45;&gt;hidebound.exporters.girder_exporter -->
<g id="edge102" class="edge">
<title>schematics&#45;&gt;hidebound.exporters.girder_exporter</title>
<path fill="none" stroke="#de958e" d="M680.5743,-743.5002C701.1214,-734.6021 724.754,-722.7217 744,-708.5546 762.9972,-694.5706 760.0994,-682.22 780,-669.5546 890.9833,-598.921 1037.4572,-558.6978 1138.7717,-537.6036"/>
<polygon fill="#de958e" stroke="#de958e" points="1139.6467,-540.9971 1148.7397,-535.5596 1138.2405,-534.1398 1139.6467,-540.9971"/>
</g>
<!-- schematics.models -->
<g id="node50" class="node">
<title>schematics.models</title>
<polygon fill="#343434" stroke="#343434" points="468.5,-648.5546 311.5,-648.5546 311.5,-612.5546 468.5,-612.5546 468.5,-648.5546"/>
<text text-anchor="middle" x="390" y="-626.8546" font-family="Courier,monospace" font-size="14.00" fill="#de958e">schematics.models</text>
</g>
<!-- schematics.models&#45;&gt;hidebound.core.validators -->
<g id="edge103" class="edge">
<title>schematics.models&#45;&gt;hidebound.core.validators</title>
<path fill="none" stroke="#de958e" d="M468.7328,-629.5806C482.0872,-629.4153 496.2294,-629.2404 510.3874,-629.0652"/>
<polygon fill="#de958e" stroke="#de958e" points="510.7324,-632.5613 520.6883,-628.9378 510.6457,-625.5619 510.7324,-632.5613"/>
</g>
<!-- wrapt -->
<g id="node51" class="node">
<title>wrapt</title>
<polygon fill="#343434" stroke="#343434" points="419,-702.5546 361,-702.5546 361,-666.5546 419,-666.5546 419,-702.5546"/>
<text text-anchor="middle" x="390" y="-680.8546" font-family="Courier,monospace" font-size="14.00" fill="#de958e">wrapt</text>
</g>
<!-- wrapt&#45;&gt;hidebound.core.validators -->
<g id="edge104" class="edge">
<title>wrapt&#45;&gt;hidebound.core.validators</title>
<path fill="none" stroke="#de958e" d="M419.2512,-677.679C450.5207,-670.3291 501.5939,-658.3242 545.9187,-647.9056"/>
<polygon fill="#de958e" stroke="#de958e" points="546.9144,-651.2671 555.8482,-645.5717 545.3126,-644.4528 546.9144,-651.2671"/>
</g>
<!-- pandas -->
<g id="node52" class="node">
<title>pandas</title>
<polygon fill="#343434" stroke="#343434" points="423,-1676.5546 357,-1676.5546 357,-1640.5546 423,-1640.5546 423,-1676.5546"/>
<text text-anchor="middle" x="390" y="-1654.8546" font-family="Courier,monospace" font-size="14.00" fill="#de958e">pandas</text>
</g>
<!-- pandas&#45;&gt;hidebound.core.database -->
<g id="edge105" class="edge">
<title>pandas&#45;&gt;hidebound.core.database</title>
<path fill="none" stroke="#de958e" d="M423.101,-1664.6589C574.3172,-1690.7831 1210.3409,-1781.4145 1636,-1544.5546 1669.7677,-1525.7644 1742.3113,-1442.4421 1778.5219,-1399.4359"/>
<polygon fill="#de958e" stroke="#de958e" points="1781.3064,-1401.5626 1785.0503,-1391.6513 1775.9428,-1397.0645 1781.3064,-1401.5626"/>
</g>
<!-- pandas&#45;&gt;hidebound.core.database_tools -->
<g id="edge106" class="edge">
<title>pandas&#45;&gt;hidebound.core.database_tools</title>
<path fill="none" stroke="#de958e" d="M423.2875,-1656.5709C523.2393,-1649.8984 828.6695,-1624.2647 1069,-1548.5546 1122.8401,-1531.5936 1180.7444,-1501.7111 1217.9578,-1480.833"/>
<polygon fill="#de958e" stroke="#de958e" points="1219.9836,-1483.7079 1226.9579,-1475.7323 1216.5322,-1477.6179 1219.9836,-1483.7079"/>
</g>
<!-- pandas&#45;&gt;hidebound.core.tools -->
<g id="edge107" class="edge">
<title>pandas&#45;&gt;hidebound.core.tools</title>
<path fill="none" stroke="#de958e" d="M423.0009,-1644.3855C441.2857,-1636.5164 464.4178,-1626.5309 485,-1617.5546 517.4941,-1603.3832 553.9475,-1587.3206 582.4849,-1574.7085"/>
<polygon fill="#de958e" stroke="#de958e" points="584.1115,-1577.8162 591.8421,-1570.5714 581.2809,-1571.414 584.1115,-1577.8162"/>
</g>
<!-- pandas&#45;&gt;hidebound.core.validators -->
<g id="edge108" class="edge">
<title>pandas&#45;&gt;hidebound.core.validators</title>
<path fill="none" stroke="#de958e" d="M423.0184,-1653.4896C444.4835,-1648.3253 470.9952,-1638.0092 485,-1617.5546 545.4913,-1529.2041 453.2325,-737.4555 521,-654.5546 521.4963,-653.9474 522.0038,-653.3525 522.5219,-652.7697"/>
<polygon fill="#de958e" stroke="#de958e" points="524.9694,-655.2722 529.8198,-645.8529 520.1541,-650.1916 524.9694,-655.2722"/>
</g>
<!-- pandas&#45;&gt;hidebound.server.components -->
<g id="edge109" class="edge">
<title>pandas&#45;&gt;hidebound.server.components</title>
<path fill="none" stroke="#de958e" d="M404.7191,-1676.902C452.0879,-1734.507 607.5738,-1912.6124 780,-1991.5546 867.0904,-2031.4273 1555.6859,-2145.7485 1636,-2093.5546 1669.0328,-2072.0875 1641.0035,-2036.8695 1672,-2012.5546 1672.0833,-2012.4892 1672.1667,-2012.4241 1672.2502,-2012.3591"/>
<polygon fill="#de958e" stroke="#de958e" points="1674.1083,-2015.3293 1680.3516,-2006.7694 1670.1329,-2009.5677 1674.1083,-2015.3293"/>
</g>
<!-- pyparsing -->
<g id="node53" class="node">
<title>pyparsing</title>
<polygon fill="#343434" stroke="#343434" points="238.5,-874.5546 147.5,-874.5546 147.5,-838.5546 238.5,-838.5546 238.5,-874.5546"/>
<text text-anchor="middle" x="193" y="-852.8546" font-family="Courier,monospace" font-size="14.00" fill="#de958e">pyparsing</text>
</g>
<!-- pyparsing&#45;&gt;hidebound.core.parser -->
<g id="edge110" class="edge">
<title>pyparsing&#45;&gt;hidebound.core.parser</title>
<path fill="none" stroke="#de958e" d="M238.6909,-867.2235C257.8002,-871.6856 280.6743,-877.0267 302.7804,-882.1886"/>
<polygon fill="#de958e" stroke="#de958e" points="301.9952,-885.5993 312.5292,-884.4649 303.587,-878.7827 301.9952,-885.5993"/>
</g>
<!-- pyparsing&#45;&gt;hidebound.core.specification_base -->
<g id="edge111" class="edge">
<title>pyparsing&#45;&gt;hidebound.core.specification_base</title>
<path fill="none" stroke="#de958e" d="M238.5852,-858.7013C296.0971,-861.5981 398.0065,-867.3571 485,-875.5546 600.4748,-886.4358 629.08,-891.8627 744,-907.5546 761.0583,-909.8838 779.0069,-912.4406 796.6993,-915.0235"/>
<polygon fill="#de958e" stroke="#de958e" points="796.676,-918.5575 807.0781,-916.5457 797.6919,-911.6315 796.676,-918.5575"/>
</g>
<!-- pyparsing&#45;&gt;hidebound.core.validators -->
<g id="edge112" class="edge">
<title>pyparsing&#45;&gt;hidebound.core.validators</title>
<path fill="none" stroke="#de958e" d="M193.8498,-838.3243C197.2054,-789.9691 213.7473,-658.4041 295,-603.5546 381.6058,-545.0914 510.8081,-579.4631 581.5944,-605.8833"/>
<polygon fill="#de958e" stroke="#de958e" points="580.5939,-609.2478 591.1845,-609.5481 583.0927,-602.7089 580.5939,-609.2478"/>
</g>
<!-- schematics.types -->
<g id="node54" class="node">
<title>schematics.types</title>
<polygon fill="#343434" stroke="#343434" points="707,-699.5546 558,-699.5546 558,-663.5546 707,-663.5546 707,-699.5546"/>
<text text-anchor="middle" x="632.5" y="-677.8546" font-family="Courier,monospace" font-size="14.00" fill="#de958e">schematics.types</text>
</g>
<!-- schematics.types&#45;&gt;hidebound.core.config -->
<g id="edge113" class="edge">
<title>schematics.types&#45;&gt;hidebound.core.config</title>
<path fill="none" stroke="#de958e" d="M707.0472,-676.4442C721.0153,-672.1896 734.2649,-665.3538 744,-654.5546 824.1738,-565.6167 689.8512,-466.3642 780,-387.5546 876.7018,-303.0162 941.9346,-368.7832 1069,-387.5546 1225.6185,-410.6919 1283.8562,-394.8862 1410,-490.5546 1418.2999,-496.8493 1491.1304,-614.9992 1524.4675,-669.4665"/>
<polygon fill="#de958e" stroke="#de958e" points="1521.6335,-671.541 1529.8367,-678.2461 1527.6053,-667.8889 1521.6335,-671.541"/>
</g>
<!-- schematics.types&#45;&gt;hidebound.core.specification_base -->
<g id="edge114" class="edge">
<title>schematics.types&#45;&gt;hidebound.core.specification_base</title>
<path fill="none" stroke="#de958e" d="M693.793,-699.5751C712.1734,-707.6446 730.9043,-718.963 744,-734.5546 782.5587,-780.4621 741.6112,-818.5049 780,-864.5546 798.202,-886.389 824.8319,-901.9357 850.2868,-912.7394"/>
<polygon fill="#de958e" stroke="#de958e" points="849.0114,-915.9989 859.594,-916.5079 851.6386,-909.5106 849.0114,-915.9989"/>
</g>
<!-- schematics.types&#45;&gt;hidebound.core.specifications -->
<g id="edge115" class="edge">
<title>schematics.types&#45;&gt;hidebound.core.specifications</title>
<path fill="none" stroke="#de958e" d="M691.5728,-699.6199C710.3546,-707.7789 729.8902,-719.1398 744,-734.5546 775.0483,-768.4746 743.0052,-804.2424 780,-831.5546 895.8795,-917.105 1073.9719,-899.1102 1176.7526,-878.6177"/>
<polygon fill="#de958e" stroke="#de958e" points="1177.671,-882.0023 1186.7647,-876.5659 1176.2656,-875.1448 1177.671,-882.0023"/>
</g>
<!-- schematics.types&#45;&gt;hidebound.exporters.disk_exporter -->
<g id="edge116" class="edge">
<title>schematics.types&#45;&gt;hidebound.exporters.disk_exporter</title>
<path fill="none" stroke="#de958e" d="M707.1684,-676.5527C721.1284,-672.2908 734.344,-665.4246 744,-654.5546 833.1853,-554.1566 682.5825,-446.9862 780,-354.5546 888.4572,-251.6484 1080.3681,-277.5993 1184.8246,-302.1015"/>
<polygon fill="#de958e" stroke="#de958e" points="1184.1135,-305.5302 1194.6545,-304.4638 1185.7492,-298.724 1184.1135,-305.5302"/>
</g>
<!-- schematics.types&#45;&gt;hidebound.exporters.exporter_base -->
<g id="edge117" class="edge">
<title>schematics.types&#45;&gt;hidebound.exporters.exporter_base</title>
<path fill="none" stroke="#de958e" d="M707.3181,-685.398C726.5872,-686.3878 748.0465,-687.4902 769.7646,-688.6058"/>
<polygon fill="#de958e" stroke="#de958e" points="769.5879,-692.1013 779.7544,-689.119 769.9471,-685.1105 769.5879,-692.1013"/>
</g>
<!-- schematics.types&#45;&gt;hidebound.exporters.girder_exporter -->
<g id="edge118" class="edge">
<title>schematics.types&#45;&gt;hidebound.exporters.girder_exporter</title>
<path fill="none" stroke="#de958e" d="M707.2576,-673.9986C720.6365,-669.8635 733.6052,-663.6957 744,-654.5546 777.5946,-625.0116 744.3163,-587.537 780,-560.5546 888.3731,-478.6076 1052.6821,-483.6822 1157.5317,-498.1203"/>
<polygon fill="#de958e" stroke="#de958e" points="1157.0942,-501.5932 1167.4889,-499.5441 1158.0851,-494.6637 1157.0942,-501.5932"/>
</g>
<!-- schematics.types&#45;&gt;hidebound.exporters.s3_exporter -->
<g id="edge119" class="edge">
<title>schematics.types&#45;&gt;hidebound.exporters.s3_exporter</title>
<path fill="none" stroke="#de958e" d="M707.0867,-674.3025C730.4112,-672.3531 756.2542,-670.5189 780,-669.5546 908.3387,-664.3426 940.8804,-660.4255 1069,-669.5546 1092.2275,-671.2096 1116.9436,-673.998 1140.5707,-677.1707"/>
<polygon fill="#de958e" stroke="#de958e" points="1140.239,-680.6579 1150.6224,-678.5517 1141.1919,-673.723 1140.239,-680.6579"/>
</g>
<!-- hidebound -->
<g id="node55" class="node">
<title>hidebound</title>
<polygon fill="#343434" stroke="#343434" points="91,-1242.5546 0,-1242.5546 0,-1206.5546 91,-1206.5546 91,-1242.5546"/>
<text text-anchor="middle" x="45.5" y="-1220.8546" font-family="Courier,monospace" font-size="14.00" fill="#a0d17b">hidebound</text>
</g>
<!-- hidebound&#45;&gt;hidebound.server -->
<g id="edge120" class="edge">
<title>hidebound&#45;&gt;hidebound.server</title>
<path fill="none" stroke="#a0d17b" d="M48.0021,-1242.949C66.3866,-1374.4506 185.609,-2166.5546 390,-2166.5546 390,-2166.5546 390,-2166.5546 924.5,-2166.5546 1114.8278,-2166.5546 1337.2933,-2188.627 1456.0469,-2202.1926"/>
<polygon fill="#a0d17b" stroke="#a0d17b" points="1455.8282,-2205.6905 1466.1627,-2203.3563 1456.6283,-2198.7363 1455.8282,-2205.6905"/>
</g>
<!-- hidebound&#45;&gt;hidebound.exporters -->
<g id="edge121" class="edge">
<title>hidebound&#45;&gt;hidebound.exporters</title>
<path fill="none" stroke="#a0d17b" d="M83.3882,-1206.321C86.3144,-1203.724 88.9299,-1200.81 91,-1197.5546 135.0897,-1128.2169 100.0751,-907.1861 127,-829.5546 172.3271,-698.8646 180.9228,-645.7902 295,-567.5546 366.0118,-518.8537 463.902,-503.1076 535.9753,-498.6524"/>
<polygon fill="#a0d17b" stroke="#a0d17b" points="536.1783,-502.1466 545.9684,-498.0964 535.7894,-495.1574 536.1783,-502.1466"/>
</g>
<!-- hidebound.core -->
<g id="node60" class="node">
<title>hidebound.core</title>
<polygon fill="#343434" stroke="#343434" points="259,-1242.5546 127,-1242.5546 127,-1206.5546 259,-1206.5546 259,-1242.5546"/>
<text text-anchor="middle" x="193" y="-1220.8546" font-family="Courier,monospace" font-size="14.00" fill="#a0d17b">hidebound.core</text>
</g>
<!-- hidebound&#45;&gt;hidebound.core -->
<g id="edge122" class="edge">
<title>hidebound&#45;&gt;hidebound.core</title>
<path fill="none" stroke="#a0d17b" d="M91.3614,-1224.5546C99.4456,-1224.5546 108.0541,-1224.5546 116.7093,-1224.5546"/>
<polygon fill="#a0d17b" stroke="#a0d17b" points="116.8627,-1228.0547 126.8626,-1224.5546 116.8626,-1221.0547 116.8627,-1228.0547"/>
</g>
<!-- pyjson5 -->
<g id="node56" class="node">
<title>pyjson5</title>
<polygon fill="#343434" stroke="#343434" points="427,-1836.5546 353,-1836.5546 353,-1800.5546 427,-1800.5546 427,-1836.5546"/>
<text text-anchor="middle" x="390" y="-1814.8546" font-family="Courier,monospace" font-size="14.00" fill="#de958e">pyjson5</text>
</g>
<!-- pyjson5&#45;&gt;hidebound.core.database -->
<g id="edge123" class="edge">
<title>pyjson5&#45;&gt;hidebound.core.database</title>
<path fill="none" stroke="#de958e" d="M427.2806,-1817.188C614.7285,-1809.567 1452.4794,-1766.3679 1636,-1597.5546 1664.3978,-1571.4326 1651.0035,-1550.9264 1672,-1518.5546 1701.7298,-1472.718 1745.3733,-1426.5745 1773.2355,-1399.0292"/>
<polygon fill="#de958e" stroke="#de958e" points="1775.9541,-1401.2658 1780.651,-1391.7689 1771.0569,-1396.264 1775.9541,-1401.2658"/>
</g>
<!-- pyjson5&#45;&gt;hidebound.core.tools -->
<g id="edge124" class="edge">
<title>pyjson5&#45;&gt;hidebound.core.tools</title>
<path fill="none" stroke="#de958e" d="M406.668,-1800.2713C448.9076,-1753.9384 560.2495,-1631.8067 609.0352,-1578.2933"/>
<polygon fill="#de958e" stroke="#de958e" points="611.8854,-1580.362 616.036,-1570.614 606.7124,-1575.646 611.8854,-1580.362"/>
</g>
<!-- pyjson5&#45;&gt;hidebound.server.extension -->
<g id="edge125" class="edge">
<title>pyjson5&#45;&gt;hidebound.server.extension</title>
<path fill="none" stroke="#de958e" d="M427.2249,-1819.5305C491.7528,-1821.004 628.5504,-1823.1652 744,-1818.5546 888.7905,-1812.7722 924.8081,-1806.9223 1069,-1792.5546 1236.9134,-1775.8231 1277.7252,-1760.1419 1446,-1747.5546 1703.3231,-1728.3063 2005.4077,-1723.218 2171.7183,-1721.9293"/>
<polygon fill="#de958e" stroke="#de958e" points="2172.0106,-1725.4273 2181.9843,-1721.8532 2171.9586,-1718.4275 2172.0106,-1725.4273"/>
</g>
<!-- dask.dataframe -->
<g id="node57" class="node">
<title>dask.dataframe</title>
<polygon fill="#343434" stroke="#343434" points="456,-1413.5546 324,-1413.5546 324,-1377.5546 456,-1377.5546 456,-1413.5546"/>
<text text-anchor="middle" x="390" y="-1391.8546" font-family="Courier,monospace" font-size="14.00" fill="#de958e">dask.dataframe</text>
</g>
<!-- dask.dataframe&#45;&gt;hidebound.core.database -->
<g id="edge126" class="edge">
<title>dask.dataframe&#45;&gt;hidebound.core.database</title>
<path fill="none" stroke="#de958e" d="M456.0161,-1389.1462C622.0991,-1373.385 1070.8153,-1333.0381 1446,-1319.5546 1530.39,-1316.5217 1555.889,-1292.8509 1636,-1319.5546 1654.9737,-1325.8791 1653.785,-1338.2955 1672,-1346.5546 1676.9125,-1348.782 1682.0152,-1350.8285 1687.2305,-1352.7086"/>
<polygon fill="#de958e" stroke="#de958e" points="1686.1287,-1356.0306 1696.723,-1355.9159 1688.3695,-1349.3989 1686.1287,-1356.0306"/>
</g>
<!-- dask.dataframe&#45;&gt;hidebound.core.database_tools -->
<g id="edge127" class="edge">
<title>dask.dataframe&#45;&gt;hidebound.core.database_tools</title>
<path fill="none" stroke="#de958e" d="M456.1376,-1397.7015C577.6922,-1401.9929 844.7258,-1413.0274 1069,-1433.5546 1085.3403,-1435.0502 1102.4467,-1436.8705 1119.4047,-1438.8331"/>
<polygon fill="#de958e" stroke="#de958e" points="1119.0251,-1442.3125 1129.3652,-1440.0036 1119.8421,-1435.3603 1119.0251,-1442.3125"/>
</g>
<!-- dask.dataframe&#45;&gt;hidebound.core.tools -->
<g id="edge128" class="edge">
<title>dask.dataframe&#45;&gt;hidebound.core.tools</title>
<path fill="none" stroke="#de958e" d="M414.685,-1413.8301C440.7056,-1432.8704 483.0967,-1463.2582 521,-1487.5546 543.7782,-1502.1556 569.8751,-1517.4439 591.0922,-1529.5227"/>
<polygon fill="#de958e" stroke="#de958e" points="589.4366,-1532.6074 599.8626,-1534.4915 592.8871,-1526.5169 589.4366,-1532.6074"/>
</g>
<!-- dask.dataframe&#45;&gt;hidebound.exporters.exporter_base -->
<g id="edge129" class="edge">
<title>dask.dataframe&#45;&gt;hidebound.exporters.exporter_base</title>
<path fill="none" stroke="#de958e" d="M456.0493,-1380.6889C538.8902,-1358.2246 678.0464,-1307.0213 744,-1205.5546 802.5371,-1115.4979 708.3469,-803.5709 780,-723.5546 780.6331,-722.8476 781.2783,-722.1554 781.9352,-721.4778"/>
<polygon fill="#de958e" stroke="#de958e" points="784.3047,-724.0539 789.3949,-714.762 779.6212,-718.8516 784.3047,-724.0539"/>
</g>
<!-- OpenEXR -->
<g id="node58" class="node">
<title>OpenEXR</title>
<polygon fill="#343434" stroke="#343434" points="427,-1608.5546 353,-1608.5546 353,-1572.5546 427,-1572.5546 427,-1608.5546"/>
<text text-anchor="middle" x="390" y="-1586.8546" font-family="Courier,monospace" font-size="14.00" fill="#de958e">OpenEXR</text>
</g>
<!-- OpenEXR&#45;&gt;hidebound.core.tools -->
<g id="edge130" class="edge">
<title>OpenEXR&#45;&gt;hidebound.core.tools</title>
<path fill="none" stroke="#de958e" d="M427.0945,-1584.7418C454.8668,-1580.3899 494.2626,-1574.2165 531.1359,-1568.4384"/>
<polygon fill="#de958e" stroke="#de958e" points="532.1198,-1571.827 541.4574,-1566.821 531.0361,-1564.9114 532.1198,-1571.827"/>
</g>
<!-- schematics.exceptions -->
<g id="node59" class="node">
<title>schematics.exceptions</title>
<polygon fill="#343434" stroke="#343434" points="485,-823.5546 295,-823.5546 295,-787.5546 485,-787.5546 485,-823.5546"/>
<text text-anchor="middle" x="390" y="-801.8546" font-family="Courier,monospace" font-size="14.00" fill="#de958e">schematics.exceptions</text>
</g>
<!-- schematics.exceptions&#45;&gt;hidebound.core.config -->
<g id="edge131" class="edge">
<title>schematics.exceptions&#45;&gt;hidebound.core.config</title>
<path fill="none" stroke="#de958e" d="M415.9564,-787.5213C438.1349,-770.602 468.9294,-743.2082 485,-711.5546 533.8281,-615.3797 476.1447,-569.6453 521,-471.5546 594.5344,-310.7476 619.3445,-243.4191 780,-169.5546 1035.0477,-52.2913 1198.6464,-29.8125 1410,-214.5546 1480.1827,-275.9006 1524.8758,-574.1444 1537.3946,-668.1296"/>
<polygon fill="#de958e" stroke="#de958e" points="1533.9585,-668.8457 1538.7298,-678.3053 1540.899,-667.9349 1533.9585,-668.8457"/>
</g>
<!-- schematics.exceptions&#45;&gt;hidebound.core.database_tools -->
<g id="edge132" class="edge">
<title>schematics.exceptions&#45;&gt;hidebound.core.database_tools</title>
<path fill="none" stroke="#de958e" d="M426.5999,-823.599C446.9776,-835.5457 470.9907,-853.1452 485,-875.5546 531.9494,-950.6552 457.8356,-1009.4691 521,-1071.5546 592.6495,-1141.9803 665.9508,-1045.2951 744,-1108.5546 778.1108,-1136.2016 750.7259,-1167.8296 780,-1200.5546 876.7584,-1308.719 941.3765,-1283.4606 1069,-1352.5546 1120.2357,-1380.293 1178.7927,-1413.0833 1216.8634,-1434.5485"/>
<polygon fill="#de958e" stroke="#de958e" points="1215.1811,-1437.618 1225.6103,-1439.4842 1218.6212,-1431.5216 1215.1811,-1437.618"/>
</g>
<!-- schematics.exceptions&#45;&gt;hidebound.core.specification_base -->
<g id="edge133" class="edge">
<title>schematics.exceptions&#45;&gt;hidebound.core.specification_base</title>
<path fill="none" stroke="#de958e" d="M485.0558,-793.492C560.9636,-788.742 667.0003,-793.4974 744,-842.5546 770.2277,-859.2644 754.765,-884.3803 780,-902.5546 784.8753,-906.0658 790.0656,-909.2026 795.4725,-912.004"/>
<polygon fill="#de958e" stroke="#de958e" points="794.2242,-915.2856 804.7593,-916.4089 797.2241,-908.961 794.2242,-915.2856"/>
</g>
<!-- schematics.exceptions&#45;&gt;hidebound.core.tools -->
<g id="edge134" class="edge">
<title>schematics.exceptions&#45;&gt;hidebound.core.tools</title>
<path fill="none" stroke="#de958e" d="M429.0872,-823.8235C449.4804,-835.5555 472.6864,-852.8674 485,-875.5546 549.9871,-995.2904 449.6897,-1371.4734 521,-1487.5546 532.3906,-1506.0966 551.1861,-1519.9249 570.1286,-1529.9475"/>
<polygon fill="#de958e" stroke="#de958e" points="568.5998,-1533.0961 579.1107,-1534.4266 571.7236,-1526.8318 568.5998,-1533.0961"/>
</g>
<!-- schematics.exceptions&#45;&gt;hidebound.core.validators -->
<g id="edge135" class="edge">
<title>schematics.exceptions&#45;&gt;hidebound.core.validators</title>
<path fill="none" stroke="#de958e" d="M449.7076,-787.5448C462.7092,-781.3372 475.4224,-773.1762 485,-762.5546 518.8825,-724.9783 483.7493,-688.7947 521,-654.5546 522.1456,-653.5016 523.3251,-652.4877 524.5354,-651.5115"/>
<polygon fill="#de958e" stroke="#de958e" points="526.7716,-654.2177 532.9369,-645.6015 522.7441,-648.4924 526.7716,-654.2177"/>
</g>
<!-- schematics.exceptions&#45;&gt;hidebound.server.api -->
<g id="edge136" class="edge">
<title>schematics.exceptions&#45;&gt;hidebound.server.api</title>
<path fill="none" stroke="#de958e" d="M417.0257,-787.4939C439.5762,-770.7453 470.3137,-743.6186 485,-711.5546 533.7896,-605.0342 452.8873,-280.8839 521,-185.5546 702.7704,68.8482 1733.7651,55.4639 1928,-189.5546 2005.338,-287.1129 2046.7395,-1217.0982 2053.8815,-1392.2015"/>
<polygon fill="#de958e" stroke="#de958e" points="2050.393,-1392.5597 2054.2937,-1402.4103 2057.3873,-1392.2772 2050.393,-1392.5597"/>
</g>
<!-- hidebound.core&#45;&gt;hidebound.core.config -->
<g id="edge137" class="edge">
<title>hidebound.core&#45;&gt;hidebound.core.config</title>
<path fill="none" stroke="#a0d17b" d="M193.746,-1206.4359C196.8454,-1157.7221 212.8107,-1023.8272 295,-967.5546 303.8704,-961.4812 1058.2735,-962.27 1069,-961.5546 1221.4172,-951.3894 1282.3568,-1002.4684 1410,-918.5546 1480.7218,-872.0614 1518.4462,-773.1022 1533.3299,-724.5714"/>
<polygon fill="#a0d17b" stroke="#a0d17b" points="1536.7566,-725.3259 1536.2413,-714.7436 1530.045,-723.3376 1536.7566,-725.3259"/>
</g>
<!-- hidebound.core&#45;&gt;hidebound.core.connection -->
<g id="edge138" class="edge">
<title>hidebound.core&#45;&gt;hidebound.core.connection</title>
<path fill="none" stroke="#a0d17b" d="M259.0652,-1215.0758C271.0143,-1213.4785 283.3703,-1211.9034 295,-1210.5546 366.312,-1202.2836 446.2872,-1194.6297 510.4812,-1188.8825"/>
<polygon fill="#a0d17b" stroke="#a0d17b" points="510.9949,-1192.3507 520.6447,-1187.9767 510.3734,-1185.3783 510.9949,-1192.3507"/>
</g>
<!-- hidebound.core&#45;&gt;hidebound.core.database -->
<g id="edge139" class="edge">
<title>hidebound.core&#45;&gt;hidebound.core.database</title>
<path fill="none" stroke="#a0d17b" d="M223.0235,-1242.7755C242.7219,-1253.6778 269.4719,-1266.5476 295,-1272.5546 585.1499,-1340.8296 1368.0834,-1171.9056 1636,-1302.5546 1658.7106,-1313.6293 1650.4129,-1333.4238 1672,-1346.5546 1676.9722,-1349.579 1682.2314,-1352.2685 1687.6705,-1354.6597"/>
<polygon fill="#a0d17b" stroke="#a0d17b" points="1686.3914,-1357.9177 1696.9748,-1358.409 1689.0078,-1351.4251 1686.3914,-1357.9177"/>
</g>
<!-- hidebound.core&#45;&gt;hidebound.core.database_tools -->
<g id="edge140" class="edge">
<title>hidebound.core&#45;&gt;hidebound.core.database_tools</title>
<path fill="none" stroke="#a0d17b" d="M194.0951,-1242.7081C199.2284,-1320.9931 223.7328,-1628.3322 295,-1685.5546 565.0428,-1902.3792 749.5901,-1729.3952 1069,-1595.5546 1133.9326,-1568.3462 1197.4749,-1514.5877 1231.6583,-1482.7939"/>
<polygon fill="#a0d17b" stroke="#a0d17b" points="1234.4203,-1485.0005 1239.2992,-1475.5958 1229.6204,-1479.9053 1234.4203,-1485.0005"/>
</g>
<!-- hidebound.core&#45;&gt;hidebound.core.logging -->
<g id="edge141" class="edge">
<title>hidebound.core&#45;&gt;hidebound.core.logging</title>
<path fill="none" stroke="#a0d17b" d="M198.051,-1206.3029C208.9791,-1170.7307 238.5093,-1092.7115 295,-1059.5546 332.4877,-1037.5513 439.7092,-1035.9993 523.345,-1038.5923"/>
<polygon fill="#a0d17b" stroke="#a0d17b" points="523.3102,-1042.093 533.4213,-1038.928 523.5434,-1035.0969 523.3102,-1042.093"/>
</g>
<!-- hidebound.core&#45;&gt;hidebound.core.parser -->
<g id="edge142" class="edge">
<title>hidebound.core&#45;&gt;hidebound.core.parser</title>
<path fill="none" stroke="#a0d17b" d="M194.051,-1206.3801C197.9467,-1155.9261 215.793,-1012.7147 295,-934.5546 298.2228,-931.3744 301.7716,-928.5101 305.547,-925.9304"/>
<polygon fill="#a0d17b" stroke="#a0d17b" points="307.3974,-928.9016 314.1351,-920.7251 303.7691,-922.9152 307.3974,-928.9016"/>
</g>
<!-- hidebound.core&#45;&gt;hidebound.core.specification_base -->
<g id="edge143" class="edge">
<title>hidebound.core&#45;&gt;hidebound.core.specification_base</title>
<path fill="none" stroke="#a0d17b" d="M259.0722,-1232.3022C389.6433,-1246.0564 674.1472,-1267.801 744,-1205.5546 824.1986,-1134.0889 706.6852,-1045.0663 780,-966.5546 782.7812,-963.5762 785.7724,-960.8441 788.9369,-958.3391"/>
<polygon fill="#a0d17b" stroke="#a0d17b" points="790.9736,-961.1856 797.1389,-952.5693 786.9461,-955.4603 790.9736,-961.1856"/>
</g>
<!-- hidebound.core&#45;&gt;hidebound.core.specifications -->
<g id="edge144" class="edge">
<title>hidebound.core&#45;&gt;hidebound.core.specifications</title>
<path fill="none" stroke="#a0d17b" d="M259.2714,-1242.4808C271.0872,-1245.0072 283.3444,-1247.2018 295,-1248.5546 394.1324,-1260.0601 667.3322,-1303.4424 744,-1239.5546 801.3287,-1191.7821 731.608,-1132.3613 780,-1075.5546 869.539,-970.4458 943.9524,-1020.1052 1069,-961.5546 1121.774,-936.8444 1180.3521,-903.9252 1217.9871,-882.0244"/>
<polygon fill="#a0d17b" stroke="#a0d17b" points="1220.2203,-884.7732 1227.0878,-876.7055 1216.6881,-878.7297 1220.2203,-884.7732"/>
</g>
<!-- hidebound.core&#45;&gt;hidebound.core.tools -->
<g id="edge145" class="edge">
<title>hidebound.core&#45;&gt;hidebound.core.tools</title>
<path fill="none" stroke="#a0d17b" d="M196.645,-1242.9378C208.7266,-1301.9105 249.296,-1484.5874 295,-1520.5546 330.5923,-1548.5643 445.3737,-1554.4613 531.2634,-1554.71"/>
<polygon fill="#a0d17b" stroke="#a0d17b" points="531.3215,-1558.21 541.3229,-1554.714 531.3244,-1551.21 531.3215,-1558.21"/>
</g>
<!-- hidebound.core&#45;&gt;hidebound.core.traits -->
<g id="edge146" class="edge">
<title>hidebound.core&#45;&gt;hidebound.core.traits</title>
<path fill="none" stroke="#a0d17b" d="M197.1485,-1242.6614C207.0285,-1281.6274 235.6838,-1373.84 295,-1422.5546 450.8214,-1550.526 542.9197,-1502.5106 744,-1487.5546 759.2541,-1486.42 788.6769,-1482.3007 819.4111,-1477.6094"/>
<polygon fill="#a0d17b" stroke="#a0d17b" points="820.0683,-1481.0495 829.4196,-1476.0692 819.0035,-1474.131 820.0683,-1481.0495"/>
</g>
<!-- hidebound.core&#45;&gt;hidebound.core.validators -->
<g id="edge147" class="edge">
<title>hidebound.core&#45;&gt;hidebound.core.validators</title>
<path fill="none" stroke="#a0d17b" d="M196.0861,-1206.4165C209.754,-1126.9105 265.4595,-811.6765 295,-778.5546 354.599,-711.7299 414.9969,-767.386 485,-711.5546 508.425,-692.8718 496.6579,-672.0257 521,-654.5546 522.9063,-653.1864 524.8733,-651.8869 526.8913,-650.6527"/>
<polygon fill="#a0d17b" stroke="#a0d17b" points="528.9438,-653.5195 536.0369,-645.6493 525.5841,-647.3784 528.9438,-653.5195"/>
</g>
<!-- skimage.io -->
<g id="node61" class="node">
<title>skimage.io</title>
<polygon fill="#343434" stroke="#343434" points="682,-1478.5546 583,-1478.5546 583,-1442.5546 682,-1442.5546 682,-1478.5546"/>
<text text-anchor="middle" x="632.5" y="-1456.8546" font-family="Courier,monospace" font-size="14.00" fill="#de958e">skimage.io</text>
</g>
<!-- skimage.io&#45;&gt;hidebound.core.traits -->
<g id="edge148" class="edge">
<title>skimage.io&#45;&gt;hidebound.core.traits</title>
<path fill="none" stroke="#de958e" d="M682.0338,-1460.5546C719.5523,-1460.5546 772.4542,-1460.5546 819.2741,-1460.5546"/>
<polygon fill="#de958e" stroke="#de958e" points="819.4737,-1464.0547 829.4737,-1460.5546 819.4737,-1457.0547 819.4737,-1464.0547"/>
</g>
</g>
</svg>
