<?xml version="1.0" encoding="UTF-8" standalone="no"?>
<!DOCTYPE svg PUBLIC "-//W3C//DTD SVG 1.1//EN"
 "http://www.w3.org/Graphics/SVG/1.1/DTD/svg11.dtd">
<!-- Generated by graphviz version 2.40.1 (20161225.0304)
 -->
<!-- Title: %3 Pages: 1 -->
<svg width="2236pt" height="1747pt"
 viewBox="0.00 0.00 2236.00 1747.44" xmlns="http://www.w3.org/2000/svg" xmlns:xlink="http://www.w3.org/1999/xlink">
<g id="graph0" class="graph" transform="scale(1 1) rotate(0) translate(4 1743.4448)">
<title>%3</title>
<polygon fill="#242424" stroke="transparent" points="-4,4 -4,-1743.4448 2232,-1743.4448 2232,4 -4,4"/>
<!-- cli -->
<g id="node1" class="node">
<title>cli</title>
<polygon fill="#343434" stroke="#343434" points="72.5,-641.1113 18.5,-641.1113 18.5,-605.1113 72.5,-605.1113 72.5,-641.1113"/>
<text text-anchor="middle" x="45.5" y="-619.4113" font-family="Courier,monospace" font-size="14.00" fill="#b6ecf3">cli</text>
</g>
<!-- hidebound.core.config -->
<g id="node2" class="node">
<title>hidebound.core.config</title>
<polygon fill="#343434" stroke="#343434" points="1410,-398.1113 1220,-398.1113 1220,-362.1113 1410,-362.1113 1410,-398.1113"/>
<text text-anchor="middle" x="1315" y="-376.4113" font-family="Courier,monospace" font-size="14.00" fill="#b6ecf3">hidebound.core.config</text>
</g>
<!-- hidebound.core.database -->
<g id="node3" class="node">
<title>hidebound.core.database</title>
<polygon fill="#343434" stroke="#343434" points="1710,-820.1113 1504,-820.1113 1504,-784.1113 1710,-784.1113 1710,-820.1113"/>
<text text-anchor="middle" x="1607" y="-798.4113" font-family="Courier,monospace" font-size="14.00" fill="#b6ecf3">hidebound.core.database</text>
</g>
<!-- hidebound.core.config&#45;&gt;hidebound.core.database -->
<g id="edge1" class="edge">
<title>hidebound.core.config&#45;&gt;hidebound.core.database</title>
<path fill="none" stroke="#b6ecf3" d="M1355.2441,-398.1978C1384.6932,-413.676 1422.8816,-438.8959 1443,-473.1113 1510.3959,-587.7315 1391.0027,-670.4295 1479,-770.1113 1483.6852,-775.4186 1489.1047,-779.9108 1495.013,-783.7074"/>
<polygon fill="#b6ecf3" stroke="#b6ecf3" points="1493.5633,-786.9085 1503.9905,-788.7861 1497.01,-780.8158 1493.5633,-786.9085"/>
</g>
<!-- hidebound.server.app -->
<g id="node15" class="node">
<title>hidebound.server.app</title>
<polygon fill="#343434" stroke="#343434" points="2228,-1269.1113 2046,-1269.1113 2046,-1233.1113 2228,-1233.1113 2228,-1269.1113"/>
<text text-anchor="middle" x="2137" y="-1247.4113" font-family="Courier,monospace" font-size="14.00" fill="#b6ecf3">hidebound.server.app</text>
</g>
<!-- hidebound.core.config&#45;&gt;hidebound.server.app -->
<g id="edge2" class="edge">
<title>hidebound.core.config&#45;&gt;hidebound.server.app</title>
<path fill="none" stroke="#b6ecf3" d="M1410.041,-392.041C1422.603,-397.3551 1434.1646,-404.7822 1443,-415.1113 1536.6047,-524.5414 1379.0251,-633.4686 1479,-737.1113 1558.8565,-819.8975 1633.5862,-720.8356 1735,-775.1113 1937.4822,-883.4778 2080.6152,-1139.5082 2123.5668,-1223.7286"/>
<polygon fill="#b6ecf3" stroke="#b6ecf3" points="2120.4548,-1225.3307 2128.0841,-1232.6822 2126.7044,-1222.1776 2120.4548,-1225.3307"/>
</g>
<!-- hidebound.server.api -->
<g id="node14" class="node">
<title>hidebound.server.api</title>
<polygon fill="#343434" stroke="#343434" points="1981.5,-1124.1113 1799.5,-1124.1113 1799.5,-1088.1113 1981.5,-1088.1113 1981.5,-1124.1113"/>
<text text-anchor="middle" x="1890.5" y="-1102.4113" font-family="Courier,monospace" font-size="14.00" fill="#b6ecf3">hidebound.server.api</text>
</g>
<!-- hidebound.core.database&#45;&gt;hidebound.server.api -->
<g id="edge3" class="edge">
<title>hidebound.core.database&#45;&gt;hidebound.server.api</title>
<path fill="none" stroke="#b6ecf3" d="M1650.3094,-820.1989C1676.7799,-832.6924 1710.1975,-851.1738 1735,-874.1113 1801.968,-936.0434 1854.4829,-1032.2329 1877.6241,-1078.8895"/>
<polygon fill="#b6ecf3" stroke="#b6ecf3" points="1874.5733,-1080.6182 1882.111,-1088.0636 1880.8615,-1077.5427 1874.5733,-1080.6182"/>
</g>
<!-- hidebound.core.database_tools -->
<g id="node4" class="node">
<title>hidebound.core.database_tools</title>
<polygon fill="#343434" stroke="#343434" points="1443,-787.1113 1187,-787.1113 1187,-751.1113 1443,-751.1113 1443,-787.1113"/>
<text text-anchor="middle" x="1315" y="-765.4113" font-family="Courier,monospace" font-size="14.00" fill="#b6ecf3">hidebound.core.database_tools</text>
</g>
<!-- hidebound.core.database_tools&#45;&gt;hidebound.core.database -->
<g id="edge4" class="edge">
<title>hidebound.core.database_tools&#45;&gt;hidebound.core.database</title>
<path fill="none" stroke="#b6ecf3" d="M1443.0755,-783.5856C1459.826,-785.4786 1476.8962,-787.4078 1493.386,-789.2713"/>
<polygon fill="#b6ecf3" stroke="#b6ecf3" points="1493.2403,-792.7771 1503.5701,-790.4223 1494.0265,-785.8214 1493.2403,-792.7771"/>
</g>
<!-- hidebound.core.parser -->
<g id="node5" class="node">
<title>hidebound.core.parser</title>
<polygon fill="#343434" stroke="#343434" points="485,-611.1113 295,-611.1113 295,-575.1113 485,-575.1113 485,-611.1113"/>
<text text-anchor="middle" x="390" y="-589.4113" font-family="Courier,monospace" font-size="14.00" fill="#b6ecf3">hidebound.core.parser</text>
</g>
<!-- hidebound.core.parser&#45;&gt;hidebound.core.database_tools -->
<g id="edge5" class="edge">
<title>hidebound.core.parser&#45;&gt;hidebound.core.database_tools</title>
<path fill="none" stroke="#b6ecf3" d="M485.2358,-599.2181C630.8386,-610.2314 916.5739,-638.4784 1151,-702.1113 1192.0639,-713.2577 1236.6398,-731.9235 1268.9395,-746.7265"/>
<polygon fill="#b6ecf3" stroke="#b6ecf3" points="1267.586,-749.9567 1278.1307,-750.9863 1270.5295,-743.6057 1267.586,-749.9567"/>
</g>
<!-- hidebound.core.specification_base -->
<g id="node6" class="node">
<title>hidebound.core.specification_base</title>
<polygon fill="#343434" stroke="#343434" points="1143,-574.1113 854,-574.1113 854,-538.1113 1143,-538.1113 1143,-574.1113"/>
<text text-anchor="middle" x="998.5" y="-552.4113" font-family="Courier,monospace" font-size="14.00" fill="#b6ecf3">hidebound.core.specification_base</text>
</g>
<!-- hidebound.core.parser&#45;&gt;hidebound.core.specification_base -->
<g id="edge6" class="edge">
<title>hidebound.core.parser&#45;&gt;hidebound.core.specification_base</title>
<path fill="none" stroke="#b6ecf3" d="M462.3457,-575.0596C481.3117,-571.0407 501.8237,-567.3207 521,-565.1113 628.289,-552.75 750.0159,-550.6377 843.7133,-551.5451"/>
<polygon fill="#b6ecf3" stroke="#b6ecf3" points="843.8041,-555.0462 853.8419,-551.656 843.8808,-548.0466 843.8041,-555.0462"/>
</g>
<!-- hidebound.core.validators -->
<g id="node10" class="node">
<title>hidebound.core.validators</title>
<polygon fill="#343434" stroke="#343434" points="777,-513.1113 554,-513.1113 554,-477.1113 777,-477.1113 777,-513.1113"/>
<text text-anchor="middle" x="665.5" y="-491.4113" font-family="Courier,monospace" font-size="14.00" fill="#b6ecf3">hidebound.core.validators</text>
</g>
<!-- hidebound.core.parser&#45;&gt;hidebound.core.validators -->
<g id="edge7" class="edge">
<title>hidebound.core.parser&#45;&gt;hidebound.core.validators</title>
<path fill="none" stroke="#b6ecf3" d="M456.0488,-575.0155C466.0743,-571.1018 476.0483,-566.4878 485,-561.1113 503.8665,-549.7798 501.5547,-537.4179 521,-527.1113 528.5877,-523.0896 536.6571,-519.5725 544.9531,-516.4969"/>
<polygon fill="#b6ecf3" stroke="#b6ecf3" points="546.108,-519.8009 554.4022,-513.2087 543.8074,-513.1898 546.108,-519.8009"/>
</g>
<!-- hidebound.core.specification_base&#45;&gt;hidebound.core.config -->
<g id="edge8" class="edge">
<title>hidebound.core.specification_base&#45;&gt;hidebound.core.config</title>
<path fill="none" stroke="#b6ecf3" d="M1038.5757,-538.0635C1069.6747,-523.7248 1113.6369,-502.7217 1151,-482.1113 1196.219,-457.1674 1246.3899,-425.3171 1279.1864,-403.8996"/>
<polygon fill="#b6ecf3" stroke="#b6ecf3" points="1281.513,-406.5594 1287.9574,-398.1498 1277.6753,-400.7052 1281.513,-406.5594"/>
</g>
<!-- hidebound.core.specification_base&#45;&gt;hidebound.core.database -->
<g id="edge9" class="edge">
<title>hidebound.core.specification_base&#45;&gt;hidebound.core.database</title>
<path fill="none" stroke="#b6ecf3" d="M1075.3458,-574.1977C1109.4573,-581.9767 1150.1444,-590.9153 1187,-598.1113 1300.2335,-620.22 1357.2231,-563.9559 1443,-641.1113 1487.2551,-680.9183 1436.3423,-728.597 1479,-770.1113 1483.74,-774.7242 1489.0392,-778.7037 1494.7111,-782.1338"/>
<polygon fill="#b6ecf3" stroke="#b6ecf3" points="1493.44,-785.4245 1503.9041,-787.0841 1496.7588,-779.2613 1493.44,-785.4245"/>
</g>
<!-- hidebound.core.specification_base&#45;&gt;hidebound.core.database_tools -->
<g id="edge10" class="edge">
<title>hidebound.core.specification_base&#45;&gt;hidebound.core.database_tools</title>
<path fill="none" stroke="#b6ecf3" d="M1083.1889,-574.1738C1106.1775,-581.1795 1130.3915,-590.6115 1151,-603.1113 1183.2973,-622.7006 1255.5643,-701.835 1292.4318,-743.3694"/>
<polygon fill="#b6ecf3" stroke="#b6ecf3" points="1289.8513,-745.7348 1299.0988,-750.9054 1295.0942,-741.0965 1289.8513,-745.7348"/>
</g>
<!-- hidebound.core.specifications -->
<g id="node7" class="node">
<title>hidebound.core.specifications</title>
<polygon fill="#343434" stroke="#343434" points="1443,-1009.1113 1187,-1009.1113 1187,-973.1113 1443,-973.1113 1443,-1009.1113"/>
<text text-anchor="middle" x="1315" y="-987.4113" font-family="Courier,monospace" font-size="14.00" fill="#b6ecf3">hidebound.core.specifications</text>
</g>
<!-- hidebound.core.specification_base&#45;&gt;hidebound.core.specifications -->
<g id="edge11" class="edge">
<title>hidebound.core.specification_base&#45;&gt;hidebound.core.specifications</title>
<path fill="none" stroke="#b6ecf3" d="M1011.6967,-574.2489C1061.3635,-642.5114 1237.1908,-884.1698 1295.8171,-964.7461"/>
<polygon fill="#b6ecf3" stroke="#b6ecf3" points="1293.0334,-966.8693 1301.747,-972.8963 1298.6937,-962.7509 1293.0334,-966.8693"/>
</g>
<!-- hidebound.core.tools -->
<g id="node8" class="node">
<title>hidebound.core.tools</title>
<polygon fill="#343434" stroke="#343434" points="756.5,-833.1113 574.5,-833.1113 574.5,-797.1113 756.5,-797.1113 756.5,-833.1113"/>
<text text-anchor="middle" x="665.5" y="-811.4113" font-family="Courier,monospace" font-size="14.00" fill="#b6ecf3">hidebound.core.tools</text>
</g>
<!-- hidebound.core.tools&#45;&gt;hidebound.core.database -->
<g id="edge12" class="edge">
<title>hidebound.core.tools&#45;&gt;hidebound.core.database</title>
<path fill="none" stroke="#b6ecf3" d="M676.4473,-833.3568C701.0282,-872.3773 764.8598,-963.3668 846,-1000.1113 966.9072,-1054.8644 1324.1108,-1077.1181 1443,-1018.1113 1523.2949,-978.2595 1574.8648,-878.2191 1596.0258,-829.5538"/>
<polygon fill="#b6ecf3" stroke="#b6ecf3" points="1599.2835,-830.8365 1599.9658,-820.2637 1592.8391,-828.1034 1599.2835,-830.8365"/>
</g>
<!-- hidebound.core.tools&#45;&gt;hidebound.core.database_tools -->
<g id="edge13" class="edge">
<title>hidebound.core.tools&#45;&gt;hidebound.core.database_tools</title>
<path fill="none" stroke="#b6ecf3" d="M756.732,-802.7291C785.273,-799.1951 816.9074,-795.6255 846,-793.1113 957.0919,-783.5106 1083.344,-777.3181 1176.8503,-773.6324"/>
<polygon fill="#b6ecf3" stroke="#b6ecf3" points="1177.0827,-777.1261 1186.9389,-773.2395 1176.8102,-770.1314 1177.0827,-777.1261"/>
</g>
<!-- hidebound.core.tools&#45;&gt;hidebound.core.specification_base -->
<g id="edge14" class="edge">
<title>hidebound.core.tools&#45;&gt;hidebound.core.specification_base</title>
<path fill="none" stroke="#b6ecf3" d="M688.6515,-797.1045C747.0681,-751.6694 900.5175,-632.3199 967.0175,-580.5977"/>
<polygon fill="#b6ecf3" stroke="#b6ecf3" points="969.314,-583.2456 975.0587,-574.3434 965.0164,-577.7201 969.314,-583.2456"/>
</g>
<!-- hidebound.core.traits -->
<g id="node9" class="node">
<title>hidebound.core.traits</title>
<polygon fill="#343434" stroke="#343434" points="1093.5,-1131.1113 903.5,-1131.1113 903.5,-1095.1113 1093.5,-1095.1113 1093.5,-1131.1113"/>
<text text-anchor="middle" x="998.5" y="-1109.4113" font-family="Courier,monospace" font-size="14.00" fill="#b6ecf3">hidebound.core.traits</text>
</g>
<!-- hidebound.core.tools&#45;&gt;hidebound.core.traits -->
<g id="edge15" class="edge">
<title>hidebound.core.tools&#45;&gt;hidebound.core.traits</title>
<path fill="none" stroke="#b6ecf3" d="M672.1246,-833.191C690.9709,-881.9144 749.8203,-1016.6138 846,-1081.1113 860.1803,-1090.6205 876.6377,-1097.386 893.3875,-1102.1826"/>
<polygon fill="#b6ecf3" stroke="#b6ecf3" points="892.7066,-1105.6225 903.2683,-1104.7851 894.4896,-1098.8534 892.7066,-1105.6225"/>
</g>
<!-- hidebound.core.traits&#45;&gt;hidebound.core.specifications -->
<g id="edge16" class="edge">
<title>hidebound.core.traits&#45;&gt;hidebound.core.specifications</title>
<path fill="none" stroke="#b6ecf3" d="M1045.2007,-1095.1098C1102.0015,-1073.215 1197.8129,-1036.2829 1258.6546,-1012.8305"/>
<polygon fill="#b6ecf3" stroke="#b6ecf3" points="1260.0358,-1016.0492 1268.1077,-1009.1867 1257.5181,-1009.5176 1260.0358,-1016.0492"/>
</g>
<!-- hidebound.core.validators&#45;&gt;hidebound.core.config -->
<g id="edge17" class="edge">
<title>hidebound.core.validators&#45;&gt;hidebound.core.config</title>
<path fill="none" stroke="#b6ecf3" d="M767.3414,-477.0793C887.9241,-455.729 1087.7424,-420.3493 1209.7819,-398.7411"/>
<polygon fill="#b6ecf3" stroke="#b6ecf3" points="1210.6499,-402.142 1219.8865,-396.952 1209.4295,-395.2492 1210.6499,-402.142"/>
</g>
<!-- hidebound.core.validators&#45;&gt;hidebound.core.specification_base -->
<g id="edge18" class="edge">
<title>hidebound.core.validators&#45;&gt;hidebound.core.specification_base</title>
<path fill="none" stroke="#b6ecf3" d="M764.0594,-513.1657C803.7468,-520.4358 849.6505,-528.8445 890.2623,-536.2839"/>
<polygon fill="#b6ecf3" stroke="#b6ecf3" points="889.7265,-539.744 900.1935,-538.1032 890.9879,-532.8585 889.7265,-539.744"/>
</g>
<!-- hidebound.core.validators&#45;&gt;hidebound.core.specifications -->
<g id="edge19" class="edge">
<title>hidebound.core.validators&#45;&gt;hidebound.core.specifications</title>
<path fill="none" stroke="#b6ecf3" d="M676.5433,-513.2403C703.4252,-558.1525 772.7821,-678.8558 810,-788.1113 836.1667,-864.9253 784.5515,-914.1097 846,-967.1113 893.9644,-1008.4823 1056.4838,-1008.4738 1176.8274,-1002.0761"/>
<polygon fill="#b6ecf3" stroke="#b6ecf3" points="1177.0813,-1005.5676 1186.8734,-1001.5222 1176.6958,-998.5782 1177.0813,-1005.5676"/>
</g>
<!-- hidebound.exporters.girder_exporter -->
<g id="node12" class="node">
<title>hidebound.exporters.girder_exporter</title>
<polygon fill="#343434" stroke="#343434" points="1151,-374.1113 846,-374.1113 846,-338.1113 1151,-338.1113 1151,-374.1113"/>
<text text-anchor="middle" x="998.5" y="-352.4113" font-family="Courier,monospace" font-size="14.00" fill="#b6ecf3">hidebound.exporters.girder_exporter</text>
</g>
<!-- hidebound.core.validators&#45;&gt;hidebound.exporters.girder_exporter -->
<g id="edge20" class="edge">
<title>hidebound.core.validators&#45;&gt;hidebound.exporters.girder_exporter</title>
<path fill="none" stroke="#b6ecf3" d="M708.6925,-477.082C769.4949,-451.702 880.2091,-405.488 945.7838,-378.116"/>
<polygon fill="#b6ecf3" stroke="#b6ecf3" points="947.2398,-381.3009 955.1199,-374.2189 944.5433,-374.8411 947.2398,-381.3009"/>
</g>
<!-- hidebound.exporters.s3_exporter -->
<g id="node13" class="node">
<title>hidebound.exporters.s3_exporter</title>
<polygon fill="#343434" stroke="#343434" points="1134.5,-277.1113 862.5,-277.1113 862.5,-241.1113 1134.5,-241.1113 1134.5,-277.1113"/>
<text text-anchor="middle" x="998.5" y="-255.4113" font-family="Courier,monospace" font-size="14.00" fill="#b6ecf3">hidebound.exporters.s3_exporter</text>
</g>
<!-- hidebound.core.validators&#45;&gt;hidebound.exporters.s3_exporter -->
<g id="edge21" class="edge">
<title>hidebound.core.validators&#45;&gt;hidebound.exporters.s3_exporter</title>
<path fill="none" stroke="#b6ecf3" d="M733.9749,-477.0872C760.7198,-467.0636 789.7598,-452.046 810,-430.1113 842.3173,-395.0884 813.8163,-364.257 846,-329.1113 866.0628,-307.202 894.3403,-291.6401 921.1045,-280.8452"/>
<polygon fill="#b6ecf3" stroke="#b6ecf3" points="922.4224,-284.0883 930.4922,-277.2232 919.9026,-277.5575 922.4224,-284.0883"/>
</g>
<!-- hidebound.exporters.exporter_base -->
<g id="node11" class="node">
<title>hidebound.exporters.exporter_base</title>
<polygon fill="#343434" stroke="#343434" points="810,-221.1113 521,-221.1113 521,-185.1113 810,-185.1113 810,-221.1113"/>
<text text-anchor="middle" x="665.5" y="-199.4113" font-family="Courier,monospace" font-size="14.00" fill="#b6ecf3">hidebound.exporters.exporter_base</text>
</g>
<!-- hidebound.exporters.exporter_base&#45;&gt;hidebound.exporters.girder_exporter -->
<g id="edge22" class="edge">
<title>hidebound.exporters.exporter_base&#45;&gt;hidebound.exporters.girder_exporter</title>
<path fill="none" stroke="#b6ecf3" d="M794.2562,-221.188C799.743,-223.804 805.0235,-226.7641 810,-230.1113 834.5515,-246.6243 823.6561,-266.7152 846,-286.1113 870.3108,-307.2148 902.0499,-323.1425 930.2741,-334.4306"/>
<polygon fill="#b6ecf3" stroke="#b6ecf3" points="929.1061,-337.7315 939.6952,-338.0816 931.6356,-331.2045 929.1061,-337.7315"/>
</g>
<!-- hidebound.exporters.exporter_base&#45;&gt;hidebound.exporters.s3_exporter -->
<g id="edge23" class="edge">
<title>hidebound.exporters.exporter_base&#45;&gt;hidebound.exporters.s3_exporter</title>
<path fill="none" stroke="#b6ecf3" d="M772.6963,-221.1383C807.3675,-226.9689 845.9852,-233.4631 881.34,-239.4087"/>
<polygon fill="#b6ecf3" stroke="#b6ecf3" points="880.7774,-242.8632 891.2194,-241.0701 881.9384,-235.9601 880.7774,-242.8632"/>
</g>
<!-- hidebound.exporters.girder_exporter&#45;&gt;hidebound.core.config -->
<g id="edge24" class="edge">
<title>hidebound.exporters.girder_exporter&#45;&gt;hidebound.core.config</title>
<path fill="none" stroke="#b6ecf3" d="M1151.1875,-367.6895C1171.0187,-369.1933 1190.9665,-370.7059 1209.7831,-372.1327"/>
<polygon fill="#b6ecf3" stroke="#b6ecf3" points="1209.5756,-375.627 1219.8116,-372.8932 1210.1049,-368.647 1209.5756,-375.627"/>
</g>
<!-- hidebound.exporters.girder_exporter&#45;&gt;hidebound.core.database -->
<g id="edge25" class="edge">
<title>hidebound.exporters.girder_exporter&#45;&gt;hidebound.core.database</title>
<path fill="none" stroke="#b6ecf3" d="M1060.3754,-374.1319C1170.5147,-407.4671 1393.6672,-481.1099 1443,-544.1113 1505.7068,-624.1922 1410.2757,-695.1309 1479,-770.1113 1483.7315,-775.2735 1489.1582,-779.6591 1495.0466,-783.38"/>
<polygon fill="#b6ecf3" stroke="#b6ecf3" points="1493.54,-786.5474 1503.9771,-788.3689 1496.954,-780.4363 1493.54,-786.5474"/>
</g>
<!-- hidebound.exporters.s3_exporter&#45;&gt;hidebound.core.config -->
<g id="edge26" class="edge">
<title>hidebound.exporters.s3_exporter&#45;&gt;hidebound.core.config</title>
<path fill="none" stroke="#b6ecf3" d="M1091.1155,-277.1165C1111.1393,-282.0737 1131.9971,-288.0669 1151,-295.1113 1195.9388,-311.7702 1244.3005,-337.9472 1276.7732,-356.8517"/>
<polygon fill="#b6ecf3" stroke="#b6ecf3" points="1275.1,-359.928 1285.4948,-361.9769 1278.6465,-353.8929 1275.1,-359.928"/>
</g>
<!-- hidebound.exporters.s3_exporter&#45;&gt;hidebound.core.database -->
<g id="edge27" class="edge">
<title>hidebound.exporters.s3_exporter&#45;&gt;hidebound.core.database</title>
<path fill="none" stroke="#b6ecf3" d="M1134.5458,-248.0048C1235.5314,-247.9254 1368.1997,-266.5911 1443,-353.1113 1499.0537,-417.9477 1430.8043,-666.2385 1479,-737.1113 1492.063,-756.3208 1512.5817,-770.1588 1533.3953,-779.9903"/>
<polygon fill="#b6ecf3" stroke="#b6ecf3" points="1532.072,-783.2322 1542.6316,-784.0962 1534.9155,-776.8358 1532.072,-783.2322"/>
</g>
<!-- hidebound.server.api&#45;&gt;hidebound.server.app -->
<g id="edge28" class="edge">
<title>hidebound.server.api&#45;&gt;hidebound.server.app</title>
<path fill="none" stroke="#b6ecf3" d="M1926.7715,-1124.1813C1950.6976,-1136.357 1982.5688,-1153.0666 2010,-1169.1113 2041.6136,-1187.6023 2076.4985,-1210.2996 2101.6946,-1227.1231"/>
<polygon fill="#b6ecf3" stroke="#b6ecf3" points="2099.9262,-1230.1513 2110.1814,-1232.8123 2103.8239,-1224.3369 2099.9262,-1230.1513"/>
</g>
<!-- hidebound.server.components -->
<g id="node16" class="node">
<title>hidebound.server.components</title>
<polygon fill="#343434" stroke="#343434" points="2010,-1484.1113 1771,-1484.1113 1771,-1448.1113 2010,-1448.1113 2010,-1484.1113"/>
<text text-anchor="middle" x="1890.5" y="-1462.4113" font-family="Courier,monospace" font-size="14.00" fill="#b6ecf3">hidebound.server.components</text>
</g>
<!-- hidebound.server.components&#45;&gt;hidebound.server.app -->
<g id="edge29" class="edge">
<title>hidebound.server.components&#45;&gt;hidebound.server.app</title>
<path fill="none" stroke="#b6ecf3" d="M1911.5165,-1447.7805C1955.7223,-1409.2237 2058.3657,-1319.697 2108.4644,-1276.0004"/>
<polygon fill="#b6ecf3" stroke="#b6ecf3" points="2110.8012,-1278.6065 2116.0367,-1269.3957 2106.1999,-1273.3312 2110.8012,-1278.6065"/>
</g>
<!-- hidebound.server.server_tools -->
<g id="node17" class="node">
<title>hidebound.server.server_tools</title>
<polygon fill="#343434" stroke="#343434" points="1735,-1147.1113 1479,-1147.1113 1479,-1111.1113 1735,-1111.1113 1735,-1147.1113"/>
<text text-anchor="middle" x="1607" y="-1125.4113" font-family="Courier,monospace" font-size="14.00" fill="#b6ecf3">hidebound.server.server_tools</text>
</g>
<!-- hidebound.server.server_tools&#45;&gt;hidebound.server.api -->
<g id="edge30" class="edge">
<title>hidebound.server.server_tools&#45;&gt;hidebound.server.api</title>
<path fill="none" stroke="#b6ecf3" d="M1735.0646,-1118.7216C1753.2188,-1117.2487 1771.6753,-1115.7514 1789.2278,-1114.3274"/>
<polygon fill="#b6ecf3" stroke="#b6ecf3" points="1789.7648,-1117.7954 1799.449,-1113.4981 1789.1987,-1110.8183 1789.7648,-1117.7954"/>
</g>
<!-- hidebound.server.server_tools&#45;&gt;hidebound.server.app -->
<g id="edge31" class="edge">
<title>hidebound.server.server_tools&#45;&gt;hidebound.server.app</title>
<path fill="none" stroke="#b6ecf3" d="M1685.2033,-1147.1128C1782.1793,-1169.4356 1947.0599,-1207.3892 2048.5525,-1230.7517"/>
<polygon fill="#b6ecf3" stroke="#b6ecf3" points="2047.9455,-1234.2034 2058.4758,-1233.0359 2049.5158,-1227.3818 2047.9455,-1234.2034"/>
</g>
<!-- dash -->
<g id="node18" class="node">
<title>dash</title>
<polygon fill="#343434" stroke="#343434" points="1634,-1699.1113 1580,-1699.1113 1580,-1663.1113 1634,-1663.1113 1634,-1699.1113"/>
<text text-anchor="middle" x="1607" y="-1677.4113" font-family="Courier,monospace" font-size="14.00" fill="#de958e">dash</text>
</g>
<!-- dash&#45;&gt;hidebound.server.app -->
<g id="edge32" class="edge">
<title>dash&#45;&gt;hidebound.server.app</title>
<path fill="none" stroke="#de958e" d="M1634.0501,-1680.962C1705.2862,-1679.101 1900.116,-1664.3115 2010,-1561.1113 2093.9868,-1482.233 2124.0404,-1339.7932 2133.3382,-1279.4017"/>
<polygon fill="#de958e" stroke="#de958e" points="2136.8107,-1279.844 2134.7957,-1269.4426 2129.8845,-1278.8304 2136.8107,-1279.844"/>
</g>
<!-- dash&#45;&gt;hidebound.server.components -->
<g id="edge33" class="edge">
<title>dash&#45;&gt;hidebound.server.components</title>
<path fill="none" stroke="#de958e" d="M1634.1259,-1680.5163C1661.414,-1678.7955 1703.8069,-1672.9713 1735,-1654.1113 1801.5537,-1613.8715 1852.6317,-1534.6416 1876.1963,-1493.0526"/>
<polygon fill="#de958e" stroke="#de958e" points="1879.2648,-1494.7363 1881.0655,-1484.2956 1873.1469,-1491.3345 1879.2648,-1494.7363"/>
</g>
<!-- dash_core_components -->
<g id="node19" class="node">
<title>dash_core_components</title>
<polygon fill="#343434" stroke="#343434" points="1698,-1645.1113 1516,-1645.1113 1516,-1609.1113 1698,-1609.1113 1698,-1645.1113"/>
<text text-anchor="middle" x="1607" y="-1623.4113" font-family="Courier,monospace" font-size="14.00" fill="#de958e">dash_core_components</text>
</g>
<!-- dash_core_components&#45;&gt;hidebound.server.app -->
<g id="edge34" class="edge">
<title>dash_core_components&#45;&gt;hidebound.server.app</title>
<path fill="none" stroke="#de958e" d="M1698.1814,-1617.1427C1787.0305,-1603.147 1921.3328,-1570.0854 2010,-1493.1113 2078.2395,-1433.871 2115.2354,-1328.8348 2129.7069,-1278.931"/>
<polygon fill="#de958e" stroke="#de958e" points="2133.1181,-1279.7294 2132.4562,-1269.1552 2126.3795,-1277.8342 2133.1181,-1279.7294"/>
</g>
<!-- dash_core_components&#45;&gt;hidebound.server.components -->
<g id="edge35" class="edge">
<title>dash_core_components&#45;&gt;hidebound.server.components</title>
<path fill="none" stroke="#de958e" d="M1698.0935,-1611.3449C1710.973,-1607.1425 1723.6706,-1601.8284 1735,-1595.1113 1755.2908,-1583.081 1753.5079,-1571.9375 1771,-1556.1113 1797.8758,-1531.795 1830.9595,-1507.246 1855.4973,-1489.9434"/>
<polygon fill="#de958e" stroke="#de958e" points="1857.6085,-1492.7379 1863.7961,-1484.1377 1853.5958,-1487.0022 1857.6085,-1492.7379"/>
</g>
<!-- dash_cytoscape -->
<g id="node20" class="node">
<title>dash_cytoscape</title>
<polygon fill="#343434" stroke="#343434" points="1673,-1553.1113 1541,-1553.1113 1541,-1517.1113 1673,-1517.1113 1673,-1553.1113"/>
<text text-anchor="middle" x="1607" y="-1531.4113" font-family="Courier,monospace" font-size="14.00" fill="#de958e">dash_cytoscape</text>
</g>
<!-- dash_cytoscape&#45;&gt;hidebound.server.components -->
<g id="edge36" class="edge">
<title>dash_cytoscape&#45;&gt;hidebound.server.components</title>
<path fill="none" stroke="#de958e" d="M1673.1104,-1519.0209C1712.9561,-1509.323 1764.0788,-1496.8805 1806.7362,-1486.4982"/>
<polygon fill="#de958e" stroke="#de958e" points="1807.6525,-1489.8775 1816.5412,-1484.1118 1805.9971,-1483.076 1807.6525,-1489.8775"/>
</g>
<!-- hidebound.server -->
<g id="node21" class="node">
<title>hidebound.server</title>
<polygon fill="#343434" stroke="#343434" points="1389.5,-1315.1113 1240.5,-1315.1113 1240.5,-1279.1113 1389.5,-1279.1113 1389.5,-1315.1113"/>
<text text-anchor="middle" x="1315" y="-1293.4113" font-family="Courier,monospace" font-size="14.00" fill="#a0d17b">hidebound.server</text>
</g>
<!-- hidebound.server&#45;&gt;hidebound.server.api -->
<g id="edge37" class="edge">
<title>hidebound.server&#45;&gt;hidebound.server.api</title>
<path fill="none" stroke="#a0d17b" d="M1389.5399,-1292.7992C1408.4317,-1288.792 1427.6872,-1281.8664 1443,-1270.1113 1471.0644,-1248.5673 1450.4949,-1220.0687 1479,-1199.1113 1571.9527,-1130.7708 1622.9012,-1183.3963 1735,-1156.1113 1767.1815,-1148.2783 1802.3659,-1137.185 1831.1145,-1127.4369"/>
<polygon fill="#a0d17b" stroke="#a0d17b" points="1832.2758,-1130.7389 1840.6037,-1124.1893 1830.0091,-1124.116 1832.2758,-1130.7389"/>
</g>
<!-- hidebound.server&#45;&gt;hidebound.server.app -->
<g id="edge38" class="edge">
<title>hidebound.server&#45;&gt;hidebound.server.app</title>
<path fill="none" stroke="#a0d17b" d="M1389.8349,-1282.618C1417.7166,-1277.7925 1449.703,-1272.933 1479,-1270.1113 1675.3183,-1251.2029 1905.9757,-1249.1533 2035.4583,-1249.8254"/>
<polygon fill="#a0d17b" stroke="#a0d17b" points="2035.7322,-1253.327 2045.7526,-1249.8858 2035.7733,-1246.3271 2035.7322,-1253.327"/>
</g>
<!-- hidebound.server&#45;&gt;hidebound.server.components -->
<g id="edge39" class="edge">
<title>hidebound.server&#45;&gt;hidebound.server.components</title>
<path fill="none" stroke="#a0d17b" d="M1389.7917,-1298.8534C1409.2379,-1302.7749 1428.7123,-1310.2993 1443,-1324.1113 1491.051,-1370.562 1426.3888,-1428.8969 1479,-1470.1113 1521.4296,-1503.3496 1656.7896,-1496.018 1760.7971,-1484.393"/>
<polygon fill="#a0d17b" stroke="#a0d17b" points="1761.2218,-1487.8674 1770.7603,-1483.2558 1760.4279,-1480.9125 1761.2218,-1487.8674"/>
</g>
<!-- hidebound.server&#45;&gt;hidebound.server.server_tools -->
<g id="edge40" class="edge">
<title>hidebound.server&#45;&gt;hidebound.server.server_tools</title>
<path fill="none" stroke="#a0d17b" d="M1389.7789,-1294.5026C1408.9982,-1290.5392 1428.3589,-1283.2098 1443,-1270.1113 1481.0228,-1236.0946 1441.6145,-1195.8272 1479,-1161.1113 1482.4449,-1157.9124 1486.1602,-1155.0207 1490.0802,-1152.4075"/>
<polygon fill="#a0d17b" stroke="#a0d17b" points="1492.1604,-1155.2425 1498.9638,-1147.1207 1488.5805,-1149.2272 1492.1604,-1155.2425"/>
</g>
<!-- dash_html_components -->
<g id="node22" class="node">
<title>dash_html_components</title>
<polygon fill="#343434" stroke="#343434" points="1698,-1369.1113 1516,-1369.1113 1516,-1333.1113 1698,-1333.1113 1698,-1369.1113"/>
<text text-anchor="middle" x="1607" y="-1347.4113" font-family="Courier,monospace" font-size="14.00" fill="#de958e">dash_html_components</text>
</g>
<!-- dash_html_components&#45;&gt;hidebound.server.app -->
<g id="edge41" class="edge">
<title>dash_html_components&#45;&gt;hidebound.server.app</title>
<path fill="none" stroke="#de958e" d="M1698.0561,-1340.2719C1780.1475,-1329.6967 1903.9019,-1311.7569 2010,-1288.1113 2030.0385,-1283.6454 2051.5689,-1277.7866 2071.1055,-1272.0523"/>
<polygon fill="#de958e" stroke="#de958e" points="2072.2324,-1275.3687 2080.8201,-1269.1638 2070.2373,-1268.659 2072.2324,-1275.3687"/>
</g>
<!-- dash_html_components&#45;&gt;hidebound.server.components -->
<g id="edge42" class="edge">
<title>dash_html_components&#45;&gt;hidebound.server.components</title>
<path fill="none" stroke="#de958e" d="M1691.5731,-1369.1266C1706.2475,-1373.1355 1721.2128,-1377.8012 1735,-1383.1113 1777.1055,-1399.328 1822.2927,-1424.3978 1853.0441,-1442.7432"/>
<polygon fill="#de958e" stroke="#de958e" points="1851.34,-1445.8026 1861.7119,-1447.9644 1854.9519,-1439.8064 1851.34,-1445.8026"/>
</g>
<!-- dash_table -->
<g id="node23" class="node">
<title>dash_table</title>
<polygon fill="#343434" stroke="#343434" points="1656.5,-1315.1113 1557.5,-1315.1113 1557.5,-1279.1113 1656.5,-1279.1113 1656.5,-1315.1113"/>
<text text-anchor="middle" x="1607" y="-1293.4113" font-family="Courier,monospace" font-size="14.00" fill="#de958e">dash_table</text>
</g>
<!-- dash_table&#45;&gt;hidebound.server.app -->
<g id="edge43" class="edge">
<title>dash_table&#45;&gt;hidebound.server.app</title>
<path fill="none" stroke="#de958e" d="M1656.6758,-1293.6575C1732.7922,-1288.2545 1882.8325,-1277.1665 2010,-1265.1113 2018.3329,-1264.3213 2026.9686,-1263.4601 2035.6368,-1262.5657"/>
<polygon fill="#de958e" stroke="#de958e" points="2036.2289,-1266.023 2045.8111,-1261.5029 2035.5016,-1259.0609 2036.2289,-1266.023"/>
</g>
<!-- dash_table&#45;&gt;hidebound.server.components -->
<g id="edge44" class="edge">
<title>dash_table&#45;&gt;hidebound.server.components</title>
<path fill="none" stroke="#de958e" d="M1656.7693,-1301.3887C1681.3572,-1305.0181 1710.8519,-1311.724 1735,-1324.1113 1791.3768,-1353.0309 1842.6898,-1407.8764 1869.9561,-1440.2892"/>
<polygon fill="#de958e" stroke="#de958e" points="1867.2835,-1442.5494 1876.3585,-1448.017 1872.6738,-1438.0835 1867.2835,-1442.5494"/>
</g>
<!-- flask -->
<g id="node24" class="node">
<title>flask</title>
<polygon fill="#343434" stroke="#343434" points="1344,-1369.1113 1286,-1369.1113 1286,-1333.1113 1344,-1333.1113 1344,-1369.1113"/>
<text text-anchor="middle" x="1315" y="-1347.4113" font-family="Courier,monospace" font-size="14.00" fill="#de958e">flask</text>
</g>
<!-- flask&#45;&gt;hidebound.server.api -->
<g id="edge45" class="edge">
<title>flask&#45;&gt;hidebound.server.api</title>
<path fill="none" stroke="#de958e" d="M1344.1132,-1351.1048C1371.7597,-1349.7676 1413.3838,-1344.1709 1443,-1324.1113 1466.8819,-1307.9356 1455.8823,-1287.3615 1479,-1270.1113 1574.432,-1198.9009 1625.3173,-1237.4566 1735,-1191.1113 1776.7866,-1173.4548 1822.0223,-1147.9402 1852.8721,-1129.4766"/>
<polygon fill="#de958e" stroke="#de958e" points="1854.8156,-1132.3917 1861.5702,-1124.2293 1851.1997,-1126.398 1854.8156,-1132.3917"/>
</g>
<!-- flask&#45;&gt;hidebound.server.app -->
<g id="edge46" class="edge">
<title>flask&#45;&gt;hidebound.server.app</title>
<path fill="none" stroke="#de958e" d="M1316.7242,-1369.1331C1323.634,-1430.0334 1355.2603,-1628.7835 1479,-1708.1113 1574.7845,-1769.5174 1622.3872,-1724.3512 1735,-1708.1113 1861.1092,-1689.9251 1918.1525,-1715.4193 2010,-1627.1113 2061.9432,-1577.1698 2113.7864,-1357.8365 2131.0182,-1279.2496"/>
<polygon fill="#de958e" stroke="#de958e" points="2134.5144,-1279.6421 2133.2163,-1269.1271 2127.6739,-1278.1565 2134.5144,-1279.6421"/>
</g>
<!-- flask&#45;&gt;hidebound.server.components -->
<g id="edge47" class="edge">
<title>flask&#45;&gt;hidebound.server.components</title>
<path fill="none" stroke="#de958e" d="M1322.2992,-1369.1755C1340.8474,-1412.2951 1394.4004,-1520.7178 1479,-1562.1113 1581.2001,-1612.1165 1625.5452,-1593.1764 1735,-1562.1113 1783.8222,-1548.2547 1832.3441,-1514.2329 1861.8791,-1490.6564"/>
<polygon fill="#de958e" stroke="#de958e" points="1864.1368,-1493.3317 1869.6905,-1484.309 1859.7224,-1487.8991 1864.1368,-1493.3317"/>
</g>
<!-- flask&#45;&gt;hidebound.server.server_tools -->
<g id="edge48" class="edge">
<title>flask&#45;&gt;hidebound.server.server_tools</title>
<path fill="none" stroke="#de958e" d="M1344.0049,-1353.0061C1372.7718,-1353.245 1416.3074,-1348.935 1443,-1324.1113 1485.3356,-1284.7398 1442.8551,-1244.233 1479,-1199.1113 1495.8452,-1178.0825 1520.7931,-1162.4431 1544.2009,-1151.3453"/>
<polygon fill="#de958e" stroke="#de958e" points="1545.7577,-1154.4824 1553.4186,-1147.1639 1542.8659,-1148.1076 1545.7577,-1154.4824"/>
</g>
<!-- rolling_pin.blob_etl -->
<g id="node25" class="node">
<title>rolling_pin.blob_etl</title>
<polygon fill="#343434" stroke="#343434" points="1698,-1461.1113 1516,-1461.1113 1516,-1425.1113 1698,-1425.1113 1698,-1461.1113"/>
<text text-anchor="middle" x="1607" y="-1439.4113" font-family="Courier,monospace" font-size="14.00" fill="#de958e">rolling_pin.blob_etl</text>
</g>
<!-- rolling_pin.blob_etl&#45;&gt;hidebound.server.components -->
<g id="edge49" class="edge">
<title>rolling_pin.blob_etl&#45;&gt;hidebound.server.components</title>
<path fill="none" stroke="#de958e" d="M1698.2617,-1450.5152C1718.2441,-1452.1364 1739.7663,-1453.8824 1760.924,-1455.5989"/>
<polygon fill="#de958e" stroke="#de958e" points="1760.691,-1459.0915 1770.9413,-1456.4116 1761.2571,-1452.1144 1760.691,-1459.0915"/>
</g>
<!-- dash.dependencies -->
<g id="node26" class="node">
<title>dash.dependencies</title>
<polygon fill="#343434" stroke="#343434" points="1969,-774.1113 1812,-774.1113 1812,-738.1113 1969,-738.1113 1969,-774.1113"/>
<text text-anchor="middle" x="1890.5" y="-752.4113" font-family="Courier,monospace" font-size="14.00" fill="#de958e">dash.dependencies</text>
</g>
<!-- dash.dependencies&#45;&gt;hidebound.server.app -->
<g id="edge50" class="edge">
<title>dash.dependencies&#45;&gt;hidebound.server.app</title>
<path fill="none" stroke="#de958e" d="M1969.0345,-764.7457C1984.1861,-769.6068 1998.8038,-776.9829 2010,-788.1113 2073.2693,-850.9977 2119.5231,-1132.41 2132.9835,-1222.9523"/>
<polygon fill="#de958e" stroke="#de958e" points="2129.5461,-1223.6347 2134.4614,-1233.0204 2136.4718,-1222.6181 2129.5461,-1223.6347"/>
</g>
<!-- jinja2 -->
<g id="node27" class="node">
<title>jinja2</title>
<polygon fill="#343434" stroke="#343434" points="1348,-1261.1113 1282,-1261.1113 1282,-1225.1113 1348,-1225.1113 1348,-1261.1113"/>
<text text-anchor="middle" x="1315" y="-1239.4113" font-family="Courier,monospace" font-size="14.00" fill="#de958e">jinja2</text>
</g>
<!-- jinja2&#45;&gt;hidebound.server.server_tools -->
<g id="edge51" class="edge">
<title>jinja2&#45;&gt;hidebound.server.server_tools</title>
<path fill="none" stroke="#de958e" d="M1348.0358,-1241.114C1375.5048,-1238.0668 1414.5623,-1230.3948 1443,-1211.1113 1465.6637,-1195.743 1456.3363,-1176.4795 1479,-1161.1113 1484.3498,-1157.4836 1490.0755,-1154.2668 1496.0292,-1151.4144"/>
<polygon fill="#de958e" stroke="#de958e" points="1497.8073,-1154.456 1505.5514,-1147.2255 1494.9885,-1148.0486 1497.8073,-1154.456"/>
</g>
<!-- hidebound.exporters -->
<g id="node28" class="node">
<title>hidebound.exporters</title>
<polygon fill="#343434" stroke="#343434" points="476.5,-221.1113 303.5,-221.1113 303.5,-185.1113 476.5,-185.1113 476.5,-221.1113"/>
<text text-anchor="middle" x="390" y="-199.4113" font-family="Courier,monospace" font-size="14.00" fill="#a0d17b">hidebound.exporters</text>
</g>
<!-- hidebound.exporters&#45;&gt;hidebound.exporters.exporter_base -->
<g id="edge52" class="edge">
<title>hidebound.exporters&#45;&gt;hidebound.exporters.exporter_base</title>
<path fill="none" stroke="#a0d17b" d="M476.7918,-203.1113C487.7098,-203.1113 499.125,-203.1113 510.7034,-203.1113"/>
<polygon fill="#a0d17b" stroke="#a0d17b" points="510.912,-206.6114 520.912,-203.1113 510.912,-199.6114 510.912,-206.6114"/>
</g>
<!-- hidebound.exporters&#45;&gt;hidebound.exporters.girder_exporter -->
<g id="edge53" class="edge">
<title>hidebound.exporters&#45;&gt;hidebound.exporters.girder_exporter</title>
<path fill="none" stroke="#a0d17b" d="M470.2622,-221.294C475.4552,-223.8562 480.4275,-226.7784 485,-230.1113 508.3096,-247.1013 496.512,-268.8686 521,-284.1113 630.9839,-352.5711 681.995,-302.1631 810,-322.1113 837.215,-326.3524 866.552,-331.4084 893.789,-336.3079"/>
<polygon fill="#a0d17b" stroke="#a0d17b" points="893.2576,-339.7685 903.7209,-338.1041 894.5034,-332.8802 893.2576,-339.7685"/>
</g>
<!-- hidebound.exporters&#45;&gt;hidebound.exporters.s3_exporter -->
<g id="edge54" class="edge">
<title>hidebound.exporters&#45;&gt;hidebound.exporters.s3_exporter</title>
<path fill="none" stroke="#a0d17b" d="M410.9159,-184.9745C435.3862,-165.0688 478.046,-134.3184 521,-122.1113 644.552,-86.9989 687.8453,-82.4099 810,-122.1113 877.3205,-143.9911 940.6743,-199.9619 974.0346,-233.201"/>
<polygon fill="#a0d17b" stroke="#a0d17b" points="971.9497,-236.0709 981.4663,-240.7276 976.9308,-231.1527 971.9497,-236.0709"/>
</g>
<!-- flasgger -->
<g id="node29" class="node">
<title>flasgger</title>
<polygon fill="#343434" stroke="#343434" points="1648.5,-728.1113 1565.5,-728.1113 1565.5,-692.1113 1648.5,-692.1113 1648.5,-728.1113"/>
<text text-anchor="middle" x="1607" y="-706.4113" font-family="Courier,monospace" font-size="14.00" fill="#de958e">flasgger</text>
</g>
<!-- flasgger&#45;&gt;hidebound.server.api -->
<g id="edge55" class="edge">
<title>flasgger&#45;&gt;hidebound.server.api</title>
<path fill="none" stroke="#de958e" d="M1648.5524,-723.186C1675.9868,-733.5843 1711.1424,-750.5101 1735,-775.1113 1823.1628,-866.0222 1868.3413,-1016.2065 1883.9968,-1078.1102"/>
<polygon fill="#de958e" stroke="#de958e" points="1880.6279,-1079.0675 1886.42,-1087.9389 1887.4244,-1077.3917 1880.6279,-1079.0675"/>
</g>
<!-- flasgger&#45;&gt;hidebound.server.app -->
<g id="edge56" class="edge">
<title>flasgger&#45;&gt;hidebound.server.app</title>
<path fill="none" stroke="#de958e" d="M1648.6584,-706.0436C1740.3871,-698.0175 1955.9629,-684.5466 2010,-729.1113 2088.0248,-793.4587 2124.9953,-1123.4016 2134.4744,-1222.7625"/>
<polygon fill="#de958e" stroke="#de958e" points="2131.01,-1223.3076 2135.4252,-1232.9386 2137.9796,-1222.6563 2131.01,-1223.3076"/>
</g>
<!-- pandasql -->
<g id="node30" class="node">
<title>pandasql</title>
<polygon fill="#343434" stroke="#343434" points="1356.5,-589.1113 1273.5,-589.1113 1273.5,-553.1113 1356.5,-553.1113 1356.5,-589.1113"/>
<text text-anchor="middle" x="1315" y="-567.4113" font-family="Courier,monospace" font-size="14.00" fill="#de958e">pandasql</text>
</g>
<!-- pandasql&#45;&gt;hidebound.core.database -->
<g id="edge57" class="edge">
<title>pandasql&#45;&gt;hidebound.core.database</title>
<path fill="none" stroke="#de958e" d="M1356.5913,-570.6955C1384.7653,-572.7112 1420.777,-580.1504 1443,-603.1113 1495.8048,-657.6694 1426.1952,-715.5531 1479,-770.1113 1483.763,-775.0324 1489.1593,-779.2405 1494.9761,-782.835"/>
<polygon fill="#de958e" stroke="#de958e" points="1493.3256,-785.9216 1503.7745,-787.674 1496.699,-779.7881 1493.3256,-785.9216"/>
</g>
<!-- dash.exceptions -->
<g id="node31" class="node">
<title>dash.exceptions</title>
<polygon fill="#343434" stroke="#343434" points="1960.5,-682.1113 1820.5,-682.1113 1820.5,-646.1113 1960.5,-646.1113 1960.5,-682.1113"/>
<text text-anchor="middle" x="1890.5" y="-660.4113" font-family="Courier,monospace" font-size="14.00" fill="#de958e">dash.exceptions</text>
</g>
<!-- dash.exceptions&#45;&gt;hidebound.server.app -->
<g id="edge58" class="edge">
<title>dash.exceptions&#45;&gt;hidebound.server.app</title>
<path fill="none" stroke="#de958e" d="M1960.7103,-669.8667C1978.8701,-674.5619 1996.9575,-682.5812 2010,-696.1113 2084.7099,-773.6137 2124.226,-1121.0074 2134.3526,-1222.9217"/>
<polygon fill="#de958e" stroke="#de958e" points="2130.8872,-1223.447 2135.3428,-1233.0594 2137.854,-1222.7665 2130.8872,-1223.447"/>
</g>
<!-- boto3 -->
<g id="node32" class="node">
<title>boto3</title>
<polygon fill="#343434" stroke="#343434" points="694.5,-167.1113 636.5,-167.1113 636.5,-131.1113 694.5,-131.1113 694.5,-167.1113"/>
<text text-anchor="middle" x="665.5" y="-145.4113" font-family="Courier,monospace" font-size="14.00" fill="#de958e">boto3</text>
</g>
<!-- boto3&#45;&gt;hidebound.exporters.s3_exporter -->
<g id="edge59" class="edge">
<title>boto3&#45;&gt;hidebound.exporters.s3_exporter</title>
<path fill="none" stroke="#de958e" d="M694.7622,-152.5676C724.2951,-156.5214 770.9872,-164.054 810,-176.1113 861.3357,-191.9771 917.3516,-217.814 954.8662,-236.4501"/>
<polygon fill="#de958e" stroke="#de958e" points="953.4827,-239.6716 963.991,-241.0225 956.6186,-233.4133 953.4827,-239.6716"/>
</g>
<!-- jsoncomment -->
<g id="node33" class="node">
<title>jsoncomment</title>
<polygon fill="#343434" stroke="#343434" points="443.5,-275.1113 336.5,-275.1113 336.5,-239.1113 443.5,-239.1113 443.5,-275.1113"/>
<text text-anchor="middle" x="390" y="-253.4113" font-family="Courier,monospace" font-size="14.00" fill="#de958e">jsoncomment</text>
</g>
<!-- jsoncomment&#45;&gt;hidebound.core.database -->
<g id="edge60" class="edge">
<title>jsoncomment&#45;&gt;hidebound.core.database</title>
<path fill="none" stroke="#de958e" d="M443.5098,-252.0278C458.681,-248.1275 474.0344,-241.4511 485,-230.1113 531.1583,-182.3776 468.6956,-126.0177 521,-85.1113 741.8244,87.5919 879.8106,-45.0752 1151,-116.1113 1288.5973,-152.1539 1361.3746,-130.6236 1443,-247.1113 1505.6553,-336.5267 1418.516,-646.2131 1479,-737.1113 1491.8088,-756.3609 1512.1437,-770.195 1532.8679,-780.0107"/>
<polygon fill="#de958e" stroke="#de958e" points="1531.5118,-783.2381 1542.0708,-784.1088 1534.3594,-776.8435 1531.5118,-783.2381"/>
</g>
<!-- jsoncomment&#45;&gt;hidebound.exporters.exporter_base -->
<g id="edge61" class="edge">
<title>jsoncomment&#45;&gt;hidebound.exporters.exporter_base</title>
<path fill="none" stroke="#de958e" d="M443.8114,-245.7862C467.4683,-240.8679 495.5941,-235.1026 521,-230.1113 532.856,-227.782 545.2688,-225.3909 557.6271,-223.0404"/>
<polygon fill="#de958e" stroke="#de958e" points="558.3418,-226.4673 567.5149,-221.166 557.038,-219.5898 558.3418,-226.4673"/>
</g>
<!-- jsoncomment&#45;&gt;hidebound.server.server_tools -->
<g id="edge62" class="edge">
<title>jsoncomment&#45;&gt;hidebound.server.server_tools</title>
<path fill="none" stroke="#de958e" d="M403.1566,-275.2948C424.8425,-306.4216 467.438,-372.7085 485,-436.1113 505.3451,-509.5618 467.266,-1067.0599 521,-1121.1113 652.4231,-1253.3105 1228.7274,-1186.0622 1484.2577,-1148.6019"/>
<polygon fill="#de958e" stroke="#de958e" points="1484.9433,-1152.0387 1494.3256,-1147.117 1483.9219,-1145.1136 1484.9433,-1152.0387"/>
</g>
<!-- girder_client -->
<g id="node34" class="node">
<title>girder_client</title>
<polygon fill="#343434" stroke="#343434" points="727.5,-367.1113 603.5,-367.1113 603.5,-331.1113 727.5,-331.1113 727.5,-367.1113"/>
<text text-anchor="middle" x="665.5" y="-345.4113" font-family="Courier,monospace" font-size="14.00" fill="#de958e">girder_client</text>
</g>
<!-- girder_client&#45;&gt;hidebound.exporters.girder_exporter -->
<g id="edge63" class="edge">
<title>girder_client&#45;&gt;hidebound.exporters.girder_exporter</title>
<path fill="none" stroke="#de958e" d="M727.7441,-350.4197C758.5033,-351.0663 797.2059,-351.8799 835.6489,-352.688"/>
<polygon fill="#de958e" stroke="#de958e" points="835.8714,-356.1933 845.9428,-352.9044 836.0186,-349.1949 835.8714,-356.1933"/>
</g>
<!-- lunchbox.tools -->
<g id="node35" class="node">
<title>lunchbox.tools</title>
<polygon fill="#343434" stroke="#343434" points="1064.5,-925.1113 932.5,-925.1113 932.5,-889.1113 1064.5,-889.1113 1064.5,-925.1113"/>
<text text-anchor="middle" x="998.5" y="-903.4113" font-family="Courier,monospace" font-size="14.00" fill="#de958e">lunchbox.tools</text>
</g>
<!-- lunchbox.tools&#45;&gt;hidebound.core.database_tools -->
<g id="edge64" class="edge">
<title>lunchbox.tools&#45;&gt;hidebound.core.database_tools</title>
<path fill="none" stroke="#de958e" d="M1064.736,-901.5183C1092.161,-897.6503 1123.8393,-891.1212 1151,-880.1113 1203.0627,-859.0071 1255.4776,-819.6226 1286.5849,-793.8913"/>
<polygon fill="#de958e" stroke="#de958e" points="1288.9823,-796.4488 1294.3984,-787.343 1284.486,-791.0837 1288.9823,-796.4488"/>
</g>
<!-- lunchbox.tools&#45;&gt;hidebound.server.server_tools -->
<g id="edge65" class="edge">
<title>lunchbox.tools&#45;&gt;hidebound.server.server_tools</title>
<path fill="none" stroke="#de958e" d="M1064.8423,-902.6221C1155.2094,-899.3066 1319.8311,-903.3958 1443,-964.1113 1508.0633,-996.1839 1562.5544,-1064.467 1589.2835,-1102.3662"/>
<polygon fill="#de958e" stroke="#de958e" points="1586.5964,-1104.6336 1595.1679,-1110.861 1592.3507,-1100.6476 1586.5964,-1104.6336"/>
</g>
<!-- hidebound -->
<g id="node36" class="node">
<title>hidebound</title>
<polygon fill="#343434" stroke="#343434" points="91,-695.1113 0,-695.1113 0,-659.1113 91,-659.1113 91,-695.1113"/>
<text text-anchor="middle" x="45.5" y="-673.4113" font-family="Courier,monospace" font-size="14.00" fill="#a0d17b">hidebound</text>
</g>
<!-- hidebound&#45;&gt;hidebound.server -->
<g id="edge66" class="edge">
<title>hidebound&#45;&gt;hidebound.server</title>
<path fill="none" stroke="#a0d17b" d="M45.9477,-695.3531C49.6513,-803.8103 83.5758,-1359.1113 390,-1359.1113 390,-1359.1113 390,-1359.1113 665.5,-1359.1113 868.7742,-1359.1113 1106.2211,-1328.6447 1230.0427,-1310.4255"/>
<polygon fill="#a0d17b" stroke="#a0d17b" points="1230.8337,-1313.8466 1240.2128,-1308.9189 1229.8078,-1306.9222 1230.8337,-1313.8466"/>
</g>
<!-- hidebound&#45;&gt;hidebound.exporters -->
<g id="edge67" class="edge">
<title>hidebound&#45;&gt;hidebound.exporters</title>
<path fill="none" stroke="#a0d17b" d="M82.577,-658.982C85.7493,-656.3445 88.6413,-653.3932 91,-650.1113 135.5654,-588.1029 97.2951,-552.4585 127,-482.1113 179.3625,-358.1061 186.2218,-309.3983 295,-230.1113 296.8576,-228.7573 298.7811,-227.4711 300.7587,-226.2493"/>
<polygon fill="#a0d17b" stroke="#a0d17b" points="302.6736,-229.1901 309.7378,-221.294 299.2914,-223.0615 302.6736,-229.1901"/>
</g>
<!-- hidebound.core -->
<g id="node43" class="node">
<title>hidebound.core</title>
<polygon fill="#343434" stroke="#343434" points="259,-695.1113 127,-695.1113 127,-659.1113 259,-659.1113 259,-695.1113"/>
<text text-anchor="middle" x="193" y="-673.4113" font-family="Courier,monospace" font-size="14.00" fill="#a0d17b">hidebound.core</text>
</g>
<!-- hidebound&#45;&gt;hidebound.core -->
<g id="edge68" class="edge">
<title>hidebound&#45;&gt;hidebound.core</title>
<path fill="none" stroke="#a0d17b" d="M91.3614,-677.1113C99.4456,-677.1113 108.0541,-677.1113 116.7093,-677.1113"/>
<polygon fill="#a0d17b" stroke="#a0d17b" points="116.8627,-680.6114 126.8626,-677.1113 116.8626,-673.6114 116.8627,-680.6114"/>
</g>
<!-- numpy -->
<g id="node37" class="node">
<title>numpy</title>
<polygon fill="#343434" stroke="#343434" points="1027.5,-871.1113 969.5,-871.1113 969.5,-835.1113 1027.5,-835.1113 1027.5,-871.1113"/>
<text text-anchor="middle" x="998.5" y="-849.4113" font-family="Courier,monospace" font-size="14.00" fill="#de958e">numpy</text>
</g>
<!-- numpy&#45;&gt;hidebound.core.database -->
<g id="edge69" class="edge">
<title>numpy&#45;&gt;hidebound.core.database</title>
<path fill="none" stroke="#de958e" d="M1027.8492,-850.6514C1110.7315,-843.7049 1349.8626,-823.6626 1493.6209,-811.6139"/>
<polygon fill="#de958e" stroke="#de958e" points="1494.1305,-815.0835 1503.8032,-810.7605 1493.5458,-808.108 1494.1305,-815.0835"/>
</g>
<!-- numpy&#45;&gt;hidebound.core.database_tools -->
<g id="edge70" class="edge">
<title>numpy&#45;&gt;hidebound.core.database_tools</title>
<path fill="none" stroke="#de958e" d="M1027.6541,-847.894C1058.4963,-842.1652 1108.4831,-832.2825 1151,-821.1113 1185.0181,-812.1731 1222.4406,-800.4553 1252.9378,-790.4063"/>
<polygon fill="#de958e" stroke="#de958e" points="1254.193,-793.6776 1262.5831,-787.2079 1251.9897,-787.0333 1254.193,-793.6776"/>
</g>
<!-- numpy&#45;&gt;hidebound.server.api -->
<g id="edge71" class="edge">
<title>numpy&#45;&gt;hidebound.server.api</title>
<path fill="none" stroke="#de958e" d="M1027.697,-853.1553C1099.6447,-853.9411 1290.6791,-860.159 1443,-902.1113 1601.7976,-945.8474 1775.3779,-1039.5072 1851.2912,-1083.016"/>
<polygon fill="#de958e" stroke="#de958e" points="1849.6451,-1086.107 1860.0572,-1088.0667 1853.1398,-1080.0417 1849.6451,-1086.107"/>
</g>
<!-- schematics -->
<g id="node38" class="node">
<title>schematics</title>
<polygon fill="#343434" stroke="#343434" points="715,-275.1113 616,-275.1113 616,-239.1113 715,-239.1113 715,-275.1113"/>
<text text-anchor="middle" x="665.5" y="-253.4113" font-family="Courier,monospace" font-size="14.00" fill="#de958e">schematics</text>
</g>
<!-- schematics&#45;&gt;hidebound.core.config -->
<g id="edge72" class="edge">
<title>schematics&#45;&gt;hidebound.core.config</title>
<path fill="none" stroke="#de958e" d="M715.2589,-265.3698C751.4866,-271.3181 801.7488,-279.4378 846,-286.1113 981.3654,-306.5257 1017.4267,-299.1326 1151,-329.1113 1185.7843,-336.9181 1223.8494,-348.557 1254.5437,-358.7457"/>
<polygon fill="#de958e" stroke="#de958e" points="1253.643,-362.1351 1264.2369,-361.996 1255.8685,-355.4983 1253.643,-362.1351"/>
</g>
<!-- schematics&#45;&gt;hidebound.core.specification_base -->
<g id="edge73" class="edge">
<title>schematics&#45;&gt;hidebound.core.specification_base</title>
<path fill="none" stroke="#de958e" d="M715.3226,-271.0415C745.3738,-281.3674 782.9465,-297.8921 810,-322.1113 833.4547,-343.1087 827.5088,-357.6341 846,-383.1113 886.4967,-438.9077 941.5116,-497.915 973.1912,-530.569"/>
<polygon fill="#de958e" stroke="#de958e" points="970.853,-533.1844 980.341,-537.8991 975.864,-528.2966 970.853,-533.1844"/>
</g>
<!-- schematics&#45;&gt;hidebound.exporters.girder_exporter -->
<g id="edge74" class="edge">
<title>schematics&#45;&gt;hidebound.exporters.girder_exporter</title>
<path fill="none" stroke="#de958e" d="M715.2803,-261.4628C744.2506,-265.5842 780.7135,-273.5884 810,-289.1113 829.4453,-299.4179 826.5299,-312.8516 846,-323.1113 854.4486,-327.5632 863.4622,-331.4148 872.7252,-334.747"/>
<polygon fill="#de958e" stroke="#de958e" points="871.8609,-338.1493 882.4551,-338.0348 874.1018,-331.5177 871.8609,-338.1493"/>
</g>
<!-- schematics&#45;&gt;hidebound.exporters.s3_exporter -->
<g id="edge75" class="edge">
<title>schematics&#45;&gt;hidebound.exporters.s3_exporter</title>
<path fill="none" stroke="#de958e" d="M715.3535,-257.4107C751.7633,-257.6294 803.1288,-257.9379 852.1331,-258.2322"/>
<polygon fill="#de958e" stroke="#de958e" points="852.2012,-261.7326 862.2221,-258.2928 852.2433,-254.7327 852.2012,-261.7326"/>
</g>
<!-- pandas -->
<g id="node39" class="node">
<title>pandas</title>
<polygon fill="#343434" stroke="#343434" points="423,-925.1113 357,-925.1113 357,-889.1113 423,-889.1113 423,-925.1113"/>
<text text-anchor="middle" x="390" y="-903.4113" font-family="Courier,monospace" font-size="14.00" fill="#de958e">pandas</text>
</g>
<!-- pandas&#45;&gt;hidebound.core.database -->
<g id="edge76" class="edge">
<title>pandas&#45;&gt;hidebound.core.database</title>
<path fill="none" stroke="#de958e" d="M394.8592,-925.3021C407.4081,-968.2561 445.3378,-1075.7629 521,-1121.1113 761.2758,-1265.1212 874.0624,-1182.2644 1151,-1140.1113 1285.3861,-1119.6561 1334.2434,-1130.659 1443,-1049.1113 1521.9545,-989.9098 1574.6307,-880.8497 1596.1064,-829.8127"/>
<polygon fill="#de958e" stroke="#de958e" points="1599.4068,-830.99 1599.984,-820.4109 1592.9355,-828.321 1599.4068,-830.99"/>
</g>
<!-- pandas&#45;&gt;hidebound.core.database_tools -->
<g id="edge77" class="edge">
<title>pandas&#45;&gt;hidebound.core.database_tools</title>
<path fill="none" stroke="#de958e" d="M423.0516,-904.978C494.8008,-899.7043 669.6588,-883.3626 810,-842.1113 826.7984,-837.1736 829.093,-830.6633 846,-826.1113 977.6583,-790.6639 1015.7435,-810.3191 1151,-793.1113 1162.1494,-791.6928 1173.7143,-790.1485 1185.3084,-788.5498"/>
<polygon fill="#de958e" stroke="#de958e" points="1186.0726,-791.9772 1195.4949,-787.1326 1185.1079,-785.044 1186.0726,-791.9772"/>
</g>
<!-- pandas&#45;&gt;hidebound.core.tools -->
<g id="edge78" class="edge">
<title>pandas&#45;&gt;hidebound.core.tools</title>
<path fill="none" stroke="#de958e" d="M423.1297,-901.6387C442.0896,-897.5644 465.8396,-890.8144 485,-880.1113 503.9491,-869.5262 501.7471,-857.1331 521,-847.1113 534.4613,-840.1042 549.4028,-834.627 564.4248,-830.3468"/>
<polygon fill="#de958e" stroke="#de958e" points="565.5398,-833.6716 574.2933,-827.7029 563.7282,-826.9101 565.5398,-833.6716"/>
</g>
<!-- pandas&#45;&gt;hidebound.core.validators -->
<g id="edge79" class="edge">
<title>pandas&#45;&gt;hidebound.core.validators</title>
<path fill="none" stroke="#de958e" d="M423.0273,-905.0203C443.1367,-902.1323 468.119,-895.4435 485,-880.1113 517.5027,-850.5905 503.2735,-828.2818 521,-788.1113 564.8839,-688.6647 624.0463,-573.9054 651.0171,-522.4944"/>
<polygon fill="#de958e" stroke="#de958e" points="654.2615,-523.8445 655.818,-513.3647 648.0659,-520.5865 654.2615,-523.8445"/>
</g>
<!-- pandas&#45;&gt;hidebound.server.components -->
<g id="edge80" class="edge">
<title>pandas&#45;&gt;hidebound.server.components</title>
<path fill="none" stroke="#de958e" d="M393.5947,-925.1638C404.1203,-973.2608 439.4227,-1105.5585 521,-1175.1113 939.5935,-1532.0041 1194.8321,-1312.1326 1735,-1416.1113 1768.7749,-1422.6127 1805.4511,-1434.1772 1834.698,-1444.5478"/>
<polygon fill="#de958e" stroke="#de958e" points="1833.7223,-1447.9164 1844.3168,-1448.0099 1836.0931,-1441.33 1833.7223,-1447.9164"/>
</g>
<!-- pyparsing -->
<g id="node40" class="node">
<title>pyparsing</title>
<polygon fill="#343434" stroke="#343434" points="238.5,-527.1113 147.5,-527.1113 147.5,-491.1113 238.5,-491.1113 238.5,-527.1113"/>
<text text-anchor="middle" x="193" y="-505.4113" font-family="Courier,monospace" font-size="14.00" fill="#de958e">pyparsing</text>
</g>
<!-- pyparsing&#45;&gt;hidebound.core.parser -->
<g id="edge81" class="edge">
<title>pyparsing&#45;&gt;hidebound.core.parser</title>
<path fill="none" stroke="#de958e" d="M235.2614,-527.1314C265.411,-539.987 306.132,-557.3503 338.2331,-571.0381"/>
<polygon fill="#de958e" stroke="#de958e" points="336.8975,-574.2734 347.469,-574.9762 339.6431,-567.8344 336.8975,-574.2734"/>
</g>
<!-- pyparsing&#45;&gt;hidebound.core.specification_base -->
<g id="edge82" class="edge">
<title>pyparsing&#45;&gt;hidebound.core.specification_base</title>
<path fill="none" stroke="#de958e" d="M210.923,-490.8405C229.8807,-472.9369 261.6177,-446.8262 295,-436.1113 389.6998,-405.7149 805.2411,-466.8072 810,-468.1113 864.1068,-482.9379 921.9542,-512.1716 959.0815,-532.8696"/>
<polygon fill="#de958e" stroke="#de958e" points="957.6299,-536.0692 968.0593,-537.9339 961.0691,-529.9723 957.6299,-536.0692"/>
</g>
<!-- pyparsing&#45;&gt;hidebound.core.validators -->
<g id="edge83" class="edge">
<title>pyparsing&#45;&gt;hidebound.core.validators</title>
<path fill="none" stroke="#de958e" d="M238.7346,-507.7562C308.4827,-505.6896 443.8303,-501.6793 543.4752,-498.7268"/>
<polygon fill="#de958e" stroke="#de958e" points="543.7193,-502.2212 553.6112,-498.4265 543.5119,-495.2243 543.7193,-502.2212"/>
</g>
<!-- schematics.types -->
<g id="node41" class="node">
<title>schematics.types</title>
<polygon fill="#343434" stroke="#343434" points="740,-421.1113 591,-421.1113 591,-385.1113 740,-385.1113 740,-421.1113"/>
<text text-anchor="middle" x="665.5" y="-399.4113" font-family="Courier,monospace" font-size="14.00" fill="#de958e">schematics.types</text>
</g>
<!-- schematics.types&#45;&gt;hidebound.core.config -->
<g id="edge84" class="edge">
<title>schematics.types&#45;&gt;hidebound.core.config</title>
<path fill="none" stroke="#de958e" d="M740.0059,-400.4729C855.4538,-396.3847 1077.9609,-388.5053 1209.7647,-383.8379"/>
<polygon fill="#de958e" stroke="#de958e" points="1210.008,-387.3315 1219.8779,-383.4797 1209.7602,-380.3359 1210.008,-387.3315"/>
</g>
<!-- schematics.types&#45;&gt;hidebound.core.specification_base -->
<g id="edge85" class="edge">
<title>schematics.types&#45;&gt;hidebound.core.specification_base</title>
<path fill="none" stroke="#de958e" d="M740.1838,-414.4237C763.1047,-419.2705 788.0563,-425.9807 810,-435.1113 870.1627,-460.1445 932.3273,-504.2481 968.0968,-531.7315"/>
<polygon fill="#de958e" stroke="#de958e" points="966.1303,-534.6358 976.176,-538.0026 970.4225,-529.1061 966.1303,-534.6358"/>
</g>
<!-- schematics.types&#45;&gt;hidebound.core.specifications -->
<g id="edge86" class="edge">
<title>schematics.types&#45;&gt;hidebound.core.specifications</title>
<path fill="none" stroke="#de958e" d="M740.0573,-419.7505C766.3588,-429.4437 793.4714,-444.5925 810,-468.1113 869.7209,-553.0887 773.6921,-859.5504 846,-934.1113 893.4608,-983.0508 1083.3718,-958.5074 1151,-967.1113 1162.1494,-968.5298 1173.7143,-970.0741 1185.3084,-971.6728"/>
<polygon fill="#de958e" stroke="#de958e" points="1185.1079,-975.1785 1195.4949,-973.09 1186.0726,-968.2453 1185.1079,-975.1785"/>
</g>
<!-- schematics.types&#45;&gt;hidebound.exporters.girder_exporter -->
<g id="edge87" class="edge">
<title>schematics.types&#45;&gt;hidebound.exporters.girder_exporter</title>
<path fill="none" stroke="#de958e" d="M740.2317,-392.5636C775.7503,-387.5504 819.3716,-381.3937 860.5843,-375.5769"/>
<polygon fill="#de958e" stroke="#de958e" points="861.3108,-379.0091 870.7235,-374.1458 860.3325,-372.0778 861.3108,-379.0091"/>
</g>
<!-- schematics.types&#45;&gt;hidebound.exporters.s3_exporter -->
<g id="edge88" class="edge">
<title>schematics.types&#45;&gt;hidebound.exporters.s3_exporter</title>
<path fill="none" stroke="#de958e" d="M740.188,-399.6254C763.8519,-395.867 789.2338,-388.87 810,-376.1113 832.4191,-362.337 825.437,-345.528 846,-329.1113 871.772,-308.5358 904.5712,-292.4695 933.1432,-280.9477"/>
<polygon fill="#de958e" stroke="#de958e" points="934.6247,-284.1262 942.6546,-277.2146 932.0671,-277.6101 934.6247,-284.1262"/>
</g>
<!-- wrapt -->
<g id="node42" class="node">
<title>wrapt</title>
<polygon fill="#343434" stroke="#343434" points="419,-481.1113 361,-481.1113 361,-445.1113 419,-445.1113 419,-481.1113"/>
<text text-anchor="middle" x="390" y="-459.4113" font-family="Courier,monospace" font-size="14.00" fill="#de958e">wrapt</text>
</g>
<!-- wrapt&#45;&gt;hidebound.core.validators -->
<g id="edge89" class="edge">
<title>wrapt&#45;&gt;hidebound.core.validators</title>
<path fill="none" stroke="#de958e" d="M419.2225,-466.5055C449.1543,-469.9822 497.7039,-475.6214 543.8181,-480.9776"/>
<polygon fill="#de958e" stroke="#de958e" points="543.5843,-484.4739 553.9214,-482.1512 544.392,-477.5207 543.5843,-484.4739"/>
</g>
<!-- hidebound.core&#45;&gt;hidebound.core.config -->
<g id="edge90" class="edge">
<title>hidebound.core&#45;&gt;hidebound.core.config</title>
<path fill="none" stroke="#a0d17b" d="M204.09,-658.7368C219.3078,-632.544 246.2264,-582.4947 259,-536.1113 280.3465,-458.5979 246.7391,-240.4143 295,-176.1113 359.9978,-89.508 414.696,-105.7096 521,-85.1113 796.2197,-31.7824 912.4145,31.0851 1151,-116.1113 1240.9186,-171.5869 1289.231,-296.6528 1306.9779,-352.3941"/>
<polygon fill="#a0d17b" stroke="#a0d17b" points="1303.6392,-353.4448 1309.9391,-361.9631 1310.3263,-351.3754 1303.6392,-353.4448"/>
</g>
<!-- hidebound.core&#45;&gt;hidebound.core.database -->
<g id="edge91" class="edge">
<title>hidebound.core&#45;&gt;hidebound.core.database</title>
<path fill="none" stroke="#a0d17b" d="M259.1742,-674.7046C485.5156,-667.3717 1226.7061,-651.0227 1443,-742.1113 1461.6808,-749.9784 1460.7748,-761.2397 1479,-770.1113 1487.4072,-774.2037 1496.3878,-777.8046 1505.5451,-780.9668"/>
<polygon fill="#a0d17b" stroke="#a0d17b" points="1504.5427,-784.3213 1515.1354,-784.1054 1506.7201,-777.6685 1504.5427,-784.3213"/>
</g>
<!-- hidebound.core&#45;&gt;hidebound.core.database_tools -->
<g id="edge92" class="edge">
<title>hidebound.core&#45;&gt;hidebound.core.database_tools</title>
<path fill="none" stroke="#a0d17b" d="M210.9648,-695.2539C229.9558,-713.0552 261.7189,-739.0859 295,-750.1113 336.0187,-763.6999 907.3905,-767.6124 1176.5758,-768.7045"/>
<polygon fill="#a0d17b" stroke="#a0d17b" points="1176.7942,-772.2053 1186.8081,-768.7453 1176.8222,-765.2054 1176.7942,-772.2053"/>
</g>
<!-- hidebound.core&#45;&gt;hidebound.core.parser -->
<g id="edge93" class="edge">
<title>hidebound.core&#45;&gt;hidebound.core.parser</title>
<path fill="none" stroke="#a0d17b" d="M225.495,-659.002C245.2508,-648.3834 271.1817,-635.1305 295,-625.1113 303.7511,-621.4301 313.0863,-617.8648 322.3593,-614.533"/>
<polygon fill="#a0d17b" stroke="#a0d17b" points="323.7017,-617.7711 331.9732,-611.1505 321.3784,-611.1679 323.7017,-617.7711"/>
</g>
<!-- hidebound.core&#45;&gt;hidebound.core.specification_base -->
<g id="edge94" class="edge">
<title>hidebound.core&#45;&gt;hidebound.core.specification_base</title>
<path fill="none" stroke="#a0d17b" d="M259.0302,-667.6659C318.7394,-658.3148 408.7193,-642.1979 485,-620.1113 501.49,-615.3367 504.3151,-610.1522 521,-606.1113 580.3816,-591.7298 728.3454,-577.4226 843.9617,-567.821"/>
<polygon fill="#a0d17b" stroke="#a0d17b" points="844.3073,-571.3044 853.9854,-566.9935 843.7314,-564.3282 844.3073,-571.3044"/>
</g>
<!-- hidebound.core&#45;&gt;hidebound.core.specifications -->
<g id="edge95" class="edge">
<title>hidebound.core&#45;&gt;hidebound.core.specifications</title>
<path fill="none" stroke="#a0d17b" d="M194.1558,-695.4389C198.2562,-743.5042 216.4532,-873.6407 295,-934.1113 429.1099,-1037.3581 930.1794,-1018.3397 1176.5137,-1001.9744"/>
<polygon fill="#a0d17b" stroke="#a0d17b" points="1176.8661,-1005.4587 1186.6088,-1001.2957 1176.3965,-998.4744 1176.8661,-1005.4587"/>
</g>
<!-- hidebound.core&#45;&gt;hidebound.core.tools -->
<g id="edge96" class="edge">
<title>hidebound.core&#45;&gt;hidebound.core.tools</title>
<path fill="none" stroke="#a0d17b" d="M204.2116,-695.1818C220.6877,-719.9303 253.9753,-763.5268 295,-783.1113 379.3374,-823.3726 486.7549,-828.3346 564.188,-825.044"/>
<polygon fill="#a0d17b" stroke="#a0d17b" points="564.6105,-828.5278 574.4316,-824.5533 564.2755,-821.5358 564.6105,-828.5278"/>
</g>
<!-- hidebound.core&#45;&gt;hidebound.core.traits -->
<g id="edge97" class="edge">
<title>hidebound.core&#45;&gt;hidebound.core.traits</title>
<path fill="none" stroke="#a0d17b" d="M195.8177,-695.4494C206.4042,-762.1599 245.7212,-990.755 295,-1043.1113 457.9247,-1216.2106 776.9835,-1167.4608 922.681,-1133.464"/>
<polygon fill="#a0d17b" stroke="#a0d17b" points="923.5239,-1136.8613 932.4456,-1131.1468 921.9076,-1130.0504 923.5239,-1136.8613"/>
</g>
<!-- hidebound.core&#45;&gt;hidebound.core.validators -->
<g id="edge98" class="edge">
<title>hidebound.core&#45;&gt;hidebound.core.validators</title>
<path fill="none" stroke="#a0d17b" d="M204.3044,-658.7933C220.8907,-633.596 254.3084,-588.7915 295,-566.1113 336.9756,-542.7154 452.5739,-522.8117 543.5952,-510.0843"/>
<polygon fill="#a0d17b" stroke="#a0d17b" points="544.2967,-513.5207 553.7228,-508.6834 543.3376,-506.5867 544.2967,-513.5207"/>
</g>
<!-- schematics.exceptions -->
<g id="node44" class="node">
<title>schematics.exceptions</title>
<polygon fill="#343434" stroke="#343434" points="485,-741.1113 295,-741.1113 295,-705.1113 485,-705.1113 485,-741.1113"/>
<text text-anchor="middle" x="390" y="-719.4113" font-family="Courier,monospace" font-size="14.00" fill="#de958e">schematics.exceptions</text>
</g>
<!-- schematics.exceptions&#45;&gt;hidebound.core.config -->
<g id="edge99" class="edge">
<title>schematics.exceptions&#45;&gt;hidebound.core.config</title>
<path fill="none" stroke="#de958e" d="M414.3928,-704.8921C437.1205,-686.3513 469.7287,-655.3834 485,-620.1113 529.0843,-518.2895 439.7634,-197.6873 521,-122.1113 625.0524,-25.3092 1027.8869,-161.1135 1151,-232.1113 1208.5801,-265.317 1263.3629,-321.3951 1292.7452,-354.1571"/>
<polygon fill="#de958e" stroke="#de958e" points="1290.4032,-356.7917 1299.6542,-361.956 1295.6429,-352.1498 1290.4032,-356.7917"/>
</g>
<!-- schematics.exceptions&#45;&gt;hidebound.core.database_tools -->
<g id="edge100" class="edge">
<title>schematics.exceptions&#45;&gt;hidebound.core.database_tools</title>
<path fill="none" stroke="#de958e" d="M485.0627,-718.5522C659.7889,-710.8053 1025.5729,-697.7026 1151,-717.1113 1188.8521,-722.9685 1229.933,-736.0055 1261.5104,-747.5596"/>
<polygon fill="#de958e" stroke="#de958e" points="1260.3983,-750.8801 1270.9911,-751.0881 1262.84,-744.3198 1260.3983,-750.8801"/>
</g>
<!-- schematics.exceptions&#45;&gt;hidebound.core.specification_base -->
<g id="edge101" class="edge">
<title>schematics.exceptions&#45;&gt;hidebound.core.specification_base</title>
<path fill="none" stroke="#de958e" d="M455.6983,-705.0807C569.4339,-673.8665 802.3586,-609.9414 922.7352,-576.9046"/>
<polygon fill="#de958e" stroke="#de958e" points="923.8984,-580.2148 932.6155,-574.193 922.0457,-573.4644 923.8984,-580.2148"/>
</g>
<!-- schematics.exceptions&#45;&gt;hidebound.core.tools -->
<g id="edge102" class="edge">
<title>schematics.exceptions&#45;&gt;hidebound.core.tools</title>
<path fill="none" stroke="#de958e" d="M444.1012,-741.1778C489.4021,-756.3055 554.128,-777.9199 601.9019,-793.8734"/>
<polygon fill="#de958e" stroke="#de958e" points="600.9288,-797.2384 611.5225,-797.0861 603.146,-790.5988 600.9288,-797.2384"/>
</g>
<!-- schematics.exceptions&#45;&gt;hidebound.core.validators -->
<g id="edge103" class="edge">
<title>schematics.exceptions&#45;&gt;hidebound.core.validators</title>
<path fill="none" stroke="#de958e" d="M412.0796,-704.8385C461.3683,-664.0478 580.3853,-565.5511 635.9724,-519.5479"/>
<polygon fill="#de958e" stroke="#de958e" points="638.2252,-522.2267 643.6977,-513.1546 633.7622,-516.8339 638.2252,-522.2267"/>
</g>
<!-- schematics.exceptions&#45;&gt;hidebound.server.api -->
<g id="edge104" class="edge">
<title>schematics.exceptions&#45;&gt;hidebound.server.api</title>
<path fill="none" stroke="#de958e" d="M414.1493,-741.4381C436.6965,-760.0588 469.175,-791.0842 485,-826.1113 516.8279,-896.5591 463.579,-1120.3548 521,-1172.1113 838.1086,-1457.9377 1052.7968,-1126.7176 1479,-1102.1113 1584.6146,-1096.0138 1705.7238,-1098.3083 1789.0684,-1101.3267"/>
<polygon fill="#de958e" stroke="#de958e" points="1789.1727,-1104.8329 1799.2961,-1101.7076 1789.4333,-1097.8377 1789.1727,-1104.8329"/>
</g>
<!-- OpenEXR -->
<g id="node45" class="node">
<title>OpenEXR</title>
<polygon fill="#343434" stroke="#343434" points="427,-871.1113 353,-871.1113 353,-835.1113 427,-835.1113 427,-871.1113"/>
<text text-anchor="middle" x="390" y="-849.4113" font-family="Courier,monospace" font-size="14.00" fill="#de958e">OpenEXR</text>
</g>
<!-- OpenEXR&#45;&gt;hidebound.core.tools -->
<g id="edge105" class="edge">
<title>OpenEXR&#45;&gt;hidebound.core.tools</title>
<path fill="none" stroke="#de958e" d="M427.1552,-847.9864C462.1896,-843.1541 516.3125,-835.6889 564.1336,-829.0929"/>
<polygon fill="#de958e" stroke="#de958e" points="564.8054,-832.5334 574.2333,-827.6998 563.8488,-825.5991 564.8054,-832.5334"/>
</g>
<!-- skimage.io -->
<g id="node46" class="node">
<title>skimage.io</title>
<polygon fill="#343434" stroke="#343434" points="715,-1112.1113 616,-1112.1113 616,-1076.1113 715,-1076.1113 715,-1112.1113"/>
<text text-anchor="middle" x="665.5" y="-1090.4113" font-family="Courier,monospace" font-size="14.00" fill="#de958e">skimage.io</text>
</g>
<!-- skimage.io&#45;&gt;hidebound.core.traits -->
<g id="edge106" class="edge">
<title>skimage.io&#45;&gt;hidebound.core.traits</title>
<path fill="none" stroke="#de958e" d="M715.3535,-1096.9558C762.177,-1099.6274 833.7345,-1103.7102 893.196,-1107.1029"/>
<polygon fill="#de958e" stroke="#de958e" points="893.2041,-1110.609 903.3872,-1107.6844 893.6029,-1103.6204 893.2041,-1110.609"/>
</g>
</g>
</svg>
