<?xml version="1.0" encoding="UTF-8" standalone="no"?>
<!DOCTYPE svg PUBLIC "-//W3C//DTD SVG 1.1//EN"
 "http://www.w3.org/Graphics/SVG/1.1/DTD/svg11.dtd">
<!-- Generated by graphviz version 2.40.1 (20161225.0304)
 -->
<!-- Title: %3 Pages: 1 -->
<svg width="2947pt" height="2110pt"
 viewBox="0.00 0.00 2947.00 2110.00" xmlns="http://www.w3.org/2000/svg" xmlns:xlink="http://www.w3.org/1999/xlink">
<g id="graph0" class="graph" transform="scale(1 1) rotate(0) translate(4 2106)">
<title>%3</title>
<polygon fill="#242424" stroke="transparent" points="-4,4 -4,-2106 2943,-2106 2943,4 -4,4"/>
<!-- cli -->
<g id="node1" class="node">
<title>cli</title>
<polygon fill="#343434" stroke="#343434" points="72.5,-1143 18.5,-1143 18.5,-1107 72.5,-1107 72.5,-1143"/>
<text text-anchor="middle" x="45.5" y="-1121.3" font-family="Courier,monospace" font-size="14.00" fill="#b6ecf3">cli</text>
</g>
<!-- hidebound.core.config -->
<g id="node2" class="node">
<title>hidebound.core.config</title>
<polygon fill="#343434" stroke="#343434" points="1669,-681 1479,-681 1479,-645 1669,-645 1669,-681"/>
<text text-anchor="middle" x="1574" y="-659.3" font-family="Courier,monospace" font-size="14.00" fill="#b6ecf3">hidebound.core.config</text>
</g>
<!-- hidebound.core.database -->
<g id="node3" class="node">
<title>hidebound.core.database</title>
<polygon fill="#343434" stroke="#343434" points="1936,-1214 1730,-1214 1730,-1178 1936,-1178 1936,-1214"/>
<text text-anchor="middle" x="1833" y="-1192.3" font-family="Courier,monospace" font-size="14.00" fill="#b6ecf3">hidebound.core.database</text>
</g>
<!-- hidebound.core.config&#45;&gt;hidebound.core.database -->
<g id="edge1" class="edge">
<title>hidebound.core.config&#45;&gt;hidebound.core.database</title>
<path fill="none" stroke="#b6ecf3" d="M1587.3697,-681.3996C1606.8141,-708.637 1643.3675,-761.6826 1669,-810 1737.6661,-939.4359 1799.7163,-1103.8928 1823.1223,-1168.3331"/>
<polygon fill="#b6ecf3" stroke="#b6ecf3" points="1819.8516,-1169.5808 1826.5421,-1177.7959 1826.4349,-1167.2016 1819.8516,-1169.5808"/>
</g>
<!-- hidebound.server.extension -->
<g id="node19" class="node">
<title>hidebound.server.extension</title>
<polygon fill="#343434" stroke="#343434" points="2446,-1482 2215,-1482 2215,-1446 2446,-1446 2446,-1482"/>
<text text-anchor="middle" x="2330.5" y="-1460.3" font-family="Courier,monospace" font-size="14.00" fill="#b6ecf3">hidebound.server.extension</text>
</g>
<!-- hidebound.core.config&#45;&gt;hidebound.server.extension -->
<g id="edge2" class="edge">
<title>hidebound.core.config&#45;&gt;hidebound.server.extension</title>
<path fill="none" stroke="#b6ecf3" d="M1636.729,-681.0731C1719.0843,-707.3537 1864.4936,-762.832 1961,-851 2158.6316,-1031.5557 2285.3007,-1342.3159 2320.4896,-1436.2903"/>
<polygon fill="#b6ecf3" stroke="#b6ecf3" points="2317.3037,-1437.7657 2324.0602,-1445.9266 2323.8676,-1435.3335 2317.3037,-1437.7657"/>
</g>
<!-- hidebound.server.api -->
<g id="node16" class="node">
<title>hidebound.server.api</title>
<polygon fill="#343434" stroke="#343434" points="2179,-1692 1997,-1692 1997,-1656 2179,-1656 2179,-1692"/>
<text text-anchor="middle" x="2088" y="-1670.3" font-family="Courier,monospace" font-size="14.00" fill="#b6ecf3">hidebound.server.api</text>
</g>
<!-- hidebound.core.database&#45;&gt;hidebound.server.api -->
<g id="edge3" class="edge">
<title>hidebound.core.database&#45;&gt;hidebound.server.api</title>
<path fill="none" stroke="#b6ecf3" d="M1842.6849,-1214.1545C1881.618,-1287.1349 2026.856,-1559.3851 2073.4876,-1646.7964"/>
<polygon fill="#b6ecf3" stroke="#b6ecf3" points="2070.5105,-1648.6518 2078.3054,-1655.8274 2076.6866,-1645.357 2070.5105,-1648.6518"/>
</g>
<!-- hidebound.core.database&#45;&gt;hidebound.server.extension -->
<g id="edge4" class="edge">
<title>hidebound.core.database&#45;&gt;hidebound.server.extension</title>
<path fill="none" stroke="#b6ecf3" d="M1866.4149,-1214.0004C1954.108,-1261.2401 2190.748,-1388.7165 2287.9427,-1441.0747"/>
<polygon fill="#b6ecf3" stroke="#b6ecf3" points="2286.4399,-1444.2406 2296.9037,-1445.9019 2289.7597,-1438.0779 2286.4399,-1444.2406"/>
</g>
<!-- hidebound.core.database_tools -->
<g id="node4" class="node">
<title>hidebound.core.database_tools</title>
<polygon fill="#343434" stroke="#343434" points="1402,-1292 1146,-1292 1146,-1256 1402,-1256 1402,-1292"/>
<text text-anchor="middle" x="1274" y="-1270.3" font-family="Courier,monospace" font-size="14.00" fill="#b6ecf3">hidebound.core.database_tools</text>
</g>
<!-- hidebound.core.database_tools&#45;&gt;hidebound.core.database -->
<g id="edge5" class="edge">
<title>hidebound.core.database_tools&#45;&gt;hidebound.core.database</title>
<path fill="none" stroke="#b6ecf3" d="M1402.2378,-1258.5877C1479.5938,-1249.0058 1580.0642,-1236.0583 1669,-1223 1685.4672,-1220.5821 1702.8394,-1217.8832 1719.8728,-1215.1525"/>
<polygon fill="#b6ecf3" stroke="#b6ecf3" points="1720.5381,-1218.5905 1729.8533,-1213.5429 1719.4236,-1211.6798 1720.5381,-1218.5905"/>
</g>
<!-- hidebound.core.logging -->
<g id="node5" class="node">
<title>hidebound.core.logging</title>
<polygon fill="#343434" stroke="#343434" points="731.5,-1883 533.5,-1883 533.5,-1847 731.5,-1847 731.5,-1883"/>
<text text-anchor="middle" x="632.5" y="-1861.3" font-family="Courier,monospace" font-size="14.00" fill="#b6ecf3">hidebound.core.logging</text>
</g>
<!-- hidebound.core.logging&#45;&gt;hidebound.core.database -->
<g id="edge6" class="edge">
<title>hidebound.core.logging&#45;&gt;hidebound.core.database</title>
<path fill="none" stroke="#b6ecf3" d="M731.5501,-1871.2105C823.4366,-1872.9659 961.7565,-1865.1851 1069,-1814 1184.0157,-1759.1054 1367.0616,-1473.9248 1479,-1413 1555.046,-1371.6104 1593.8114,-1412.9275 1669,-1370 1734.0799,-1332.8439 1788.9279,-1261.5639 1815.6115,-1222.7645"/>
<polygon fill="#b6ecf3" stroke="#b6ecf3" points="1818.7729,-1224.3376 1821.4768,-1214.0936 1812.9748,-1220.4156 1818.7729,-1224.3376"/>
</g>
<!-- hidebound.exporters.exporter_base -->
<g id="node12" class="node">
<title>hidebound.exporters.exporter_base</title>
<polygon fill="#343434" stroke="#343434" points="1069,-460 780,-460 780,-424 1069,-424 1069,-460"/>
<text text-anchor="middle" x="924.5" y="-438.3" font-family="Courier,monospace" font-size="14.00" fill="#b6ecf3">hidebound.exporters.exporter_base</text>
</g>
<!-- hidebound.core.logging&#45;&gt;hidebound.exporters.exporter_base -->
<g id="edge7" class="edge">
<title>hidebound.core.logging&#45;&gt;hidebound.exporters.exporter_base</title>
<path fill="none" stroke="#b6ecf3" d="M636.0918,-1846.8007C651.563,-1767.7285 713.1264,-1445.9913 744,-1179 757.3056,-1063.9346 742.6522,-768.6459 780,-659 806.2276,-582.0009 866.8446,-506.1672 900.6413,-467.8102"/>
<polygon fill="#b6ecf3" stroke="#b6ecf3" points="903.3787,-469.9993 907.424,-460.2071 898.1552,-465.3393 903.3787,-469.9993"/>
</g>
<!-- hidebound.core.logging&#45;&gt;hidebound.server.api -->
<g id="edge8" class="edge">
<title>hidebound.core.logging&#45;&gt;hidebound.server.api</title>
<path fill="none" stroke="#b6ecf3" d="M683.8614,-1883.0864C711.9786,-1892.4611 747.5975,-1903.4883 780,-1911 973.8668,-1955.943 1500.0017,-2124.0894 1669,-2019 1699.7201,-1999.8971 1676.056,-1967.7 1705,-1946 1797.4301,-1876.7031 1879.2862,-1982.6592 1961,-1901 2023.8339,-1838.2081 1940.5751,-1769.4492 1995.7312,-1699.6468"/>
<polygon fill="#b6ecf3" stroke="#b6ecf3" points="1998.4373,-1701.8682 2002.3255,-1692.0126 1993.1399,-1697.2924 1998.4373,-1701.8682"/>
</g>
<!-- hidebound.server.server_tools -->
<g id="node21" class="node">
<title>hidebound.server.server_tools</title>
<polygon fill="#343434" stroke="#343434" points="1961,-1892 1705,-1892 1705,-1856 1961,-1856 1961,-1892"/>
<text text-anchor="middle" x="1833" y="-1870.3" font-family="Courier,monospace" font-size="14.00" fill="#b6ecf3">hidebound.server.server_tools</text>
</g>
<!-- hidebound.core.logging&#45;&gt;hidebound.server.server_tools -->
<g id="edge9" class="edge">
<title>hidebound.core.logging&#45;&gt;hidebound.server.server_tools</title>
<path fill="none" stroke="#b6ecf3" d="M731.742,-1878.2095C916.6034,-1900.7768 1326.0394,-1941.1628 1669,-1907 1695.4061,-1904.3696 1723.8547,-1899.413 1749.5238,-1894.1258"/>
<polygon fill="#b6ecf3" stroke="#b6ecf3" points="1750.5232,-1897.4923 1759.5878,-1892.0075 1749.0813,-1890.6424 1750.5232,-1897.4923"/>
</g>
<!-- hidebound.core.parser -->
<g id="node6" class="node">
<title>hidebound.core.parser</title>
<polygon fill="#343434" stroke="#343434" points="485,-932 295,-932 295,-896 485,-896 485,-932"/>
<text text-anchor="middle" x="390" y="-910.3" font-family="Courier,monospace" font-size="14.00" fill="#b6ecf3">hidebound.core.parser</text>
</g>
<!-- hidebound.core.parser&#45;&gt;hidebound.core.database_tools -->
<g id="edge10" class="edge">
<title>hidebound.core.parser&#45;&gt;hidebound.core.database_tools</title>
<path fill="none" stroke="#b6ecf3" d="M402.802,-932.1083C422.5048,-960.5909 460.5396,-1018.0784 485,-1071 506.228,-1116.9279 484.579,-1143.8786 521,-1179 606.1449,-1261.1067 942.2239,-1274.773 1135.3891,-1275.612"/>
<polygon fill="#b6ecf3" stroke="#b6ecf3" points="1135.607,-1279.1126 1145.6183,-1275.645 1135.6297,-1272.1127 1135.607,-1279.1126"/>
</g>
<!-- hidebound.core.specification_base -->
<g id="node7" class="node">
<title>hidebound.core.specification_base</title>
<polygon fill="#343434" stroke="#343434" points="1069,-926 780,-926 780,-890 1069,-890 1069,-926"/>
<text text-anchor="middle" x="924.5" y="-904.3" font-family="Courier,monospace" font-size="14.00" fill="#b6ecf3">hidebound.core.specification_base</text>
</g>
<!-- hidebound.core.parser&#45;&gt;hidebound.core.specification_base -->
<g id="edge11" class="edge">
<title>hidebound.core.parser&#45;&gt;hidebound.core.specification_base</title>
<path fill="none" stroke="#b6ecf3" d="M485.2498,-912.9308C564.0807,-912.0459 677.6269,-910.7713 769.5253,-909.7397"/>
<polygon fill="#b6ecf3" stroke="#b6ecf3" points="769.8061,-913.2368 779.7661,-909.6247 769.7274,-906.2373 769.8061,-913.2368"/>
</g>
<!-- hidebound.core.validators -->
<g id="node11" class="node">
<title>hidebound.core.validators</title>
<polygon fill="#343434" stroke="#343434" points="744,-802 521,-802 521,-766 744,-766 744,-802"/>
<text text-anchor="middle" x="632.5" y="-780.3" font-family="Courier,monospace" font-size="14.00" fill="#b6ecf3">hidebound.core.validators</text>
</g>
<!-- hidebound.core.parser&#45;&gt;hidebound.core.validators -->
<g id="edge12" class="edge">
<title>hidebound.core.parser&#45;&gt;hidebound.core.validators</title>
<path fill="none" stroke="#b6ecf3" d="M451.2587,-896C462.6888,-891.9069 474.3731,-887.2079 485,-882 527.4649,-861.1893 572.1498,-830.0071 601.0566,-808.4298"/>
<polygon fill="#b6ecf3" stroke="#b6ecf3" points="603.2582,-811.1532 609.1384,-802.3399 599.0456,-805.5627 603.2582,-811.1532"/>
</g>
<!-- hidebound.core.specification_base&#45;&gt;hidebound.core.config -->
<g id="edge13" class="edge">
<title>hidebound.core.specification_base&#45;&gt;hidebound.core.config</title>
<path fill="none" stroke="#b6ecf3" d="M972.2593,-889.9846C1089.322,-845.827 1390.1823,-732.3385 1516.648,-684.6339"/>
<polygon fill="#b6ecf3" stroke="#b6ecf3" points="1518.0495,-687.8461 1526.1707,-681.0418 1515.5789,-681.2965 1518.0495,-687.8461"/>
</g>
<!-- hidebound.core.specification_base&#45;&gt;hidebound.core.database -->
<g id="edge14" class="edge">
<title>hidebound.core.specification_base&#45;&gt;hidebound.core.database</title>
<path fill="none" stroke="#b6ecf3" d="M1043.6658,-926.0195C1239.646,-956.2112 1613.8868,-1016.4149 1669,-1044 1730.1256,-1074.5944 1784.7506,-1135.0104 1812.9003,-1169.7516"/>
<polygon fill="#b6ecf3" stroke="#b6ecf3" points="1810.5037,-1172.36 1819.4744,-1177.9971 1815.977,-1167.9962 1810.5037,-1172.36"/>
</g>
<!-- hidebound.core.specification_base&#45;&gt;hidebound.core.database_tools -->
<g id="edge15" class="edge">
<title>hidebound.core.specification_base&#45;&gt;hidebound.core.database_tools</title>
<path fill="none" stroke="#b6ecf3" d="M941.8318,-926.15C999.1265,-986.1496 1182.5743,-1178.258 1249.374,-1248.2114"/>
<polygon fill="#b6ecf3" stroke="#b6ecf3" points="1247.1262,-1250.9254 1256.5636,-1255.7405 1252.1887,-1246.0911 1247.1262,-1250.9254"/>
</g>
<!-- hidebound.core.specifications -->
<g id="node8" class="node">
<title>hidebound.core.specifications</title>
<polygon fill="#343434" stroke="#343434" points="1402,-926 1146,-926 1146,-890 1402,-890 1402,-926"/>
<text text-anchor="middle" x="1274" y="-904.3" font-family="Courier,monospace" font-size="14.00" fill="#b6ecf3">hidebound.core.specifications</text>
</g>
<!-- hidebound.core.specification_base&#45;&gt;hidebound.core.specifications -->
<g id="edge16" class="edge">
<title>hidebound.core.specification_base&#45;&gt;hidebound.core.specifications</title>
<path fill="none" stroke="#b6ecf3" d="M1069.1779,-908C1091.2442,-908 1113.9701,-908 1135.8906,-908"/>
<polygon fill="#b6ecf3" stroke="#b6ecf3" points="1135.9003,-911.5001 1145.9003,-908 1135.9002,-904.5001 1135.9003,-911.5001"/>
</g>
<!-- hidebound.core.tools -->
<g id="node9" class="node">
<title>hidebound.core.tools</title>
<polygon fill="#343434" stroke="#343434" points="723.5,-1116 541.5,-1116 541.5,-1080 723.5,-1080 723.5,-1116"/>
<text text-anchor="middle" x="632.5" y="-1094.3" font-family="Courier,monospace" font-size="14.00" fill="#b6ecf3">hidebound.core.tools</text>
</g>
<!-- hidebound.core.tools&#45;&gt;hidebound.core.database -->
<g id="edge17" class="edge">
<title>hidebound.core.tools&#45;&gt;hidebound.core.database</title>
<path fill="none" stroke="#b6ecf3" d="M723.5794,-1101.3351C904.3304,-1108.5947 1320.9778,-1128.5244 1669,-1169 1686.5333,-1171.0392 1705.0514,-1173.6454 1723.0827,-1176.4314"/>
<polygon fill="#b6ecf3" stroke="#b6ecf3" points="1722.6187,-1179.9013 1733.0406,-1177.9952 1723.7047,-1172.9861 1722.6187,-1179.9013"/>
</g>
<!-- hidebound.core.tools&#45;&gt;hidebound.core.database_tools -->
<g id="edge18" class="edge">
<title>hidebound.core.tools&#45;&gt;hidebound.core.database_tools</title>
<path fill="none" stroke="#b6ecf3" d="M723.6978,-1115.9675C730.7324,-1118.5867 737.5849,-1121.5802 744,-1125 763.1535,-1135.2104 760.4071,-1148.6603 780,-1158 897.2213,-1213.8782 954.2109,-1140.2819 1069,-1201 1089.8517,-1212.0296 1084.4353,-1228.4441 1105,-1240 1114.7872,-1245.4997 1125.3348,-1250.1177 1136.2097,-1253.9942"/>
<polygon fill="#b6ecf3" stroke="#b6ecf3" points="1135.2461,-1257.3624 1145.8399,-1257.2136 1137.4655,-1250.7236 1135.2461,-1257.3624"/>
</g>
<!-- hidebound.core.tools&#45;&gt;hidebound.core.specification_base -->
<g id="edge19" class="edge">
<title>hidebound.core.tools&#45;&gt;hidebound.core.specification_base</title>
<path fill="none" stroke="#b6ecf3" d="M660.8471,-1079.9554C685.1523,-1063.4372 719.9512,-1037.1799 744,-1008 765.7486,-981.611 752.7959,-960.72 780,-940 784.5353,-936.5457 789.3699,-933.4498 794.4178,-930.6761"/>
<polygon fill="#b6ecf3" stroke="#b6ecf3" points="796.3392,-933.6284 803.7159,-926.0236 793.2068,-927.3684 796.3392,-933.6284"/>
</g>
<!-- hidebound.core.traits -->
<g id="node10" class="node">
<title>hidebound.core.traits</title>
<polygon fill="#343434" stroke="#343434" points="1019.5,-1246 829.5,-1246 829.5,-1210 1019.5,-1210 1019.5,-1246"/>
<text text-anchor="middle" x="924.5" y="-1224.3" font-family="Courier,monospace" font-size="14.00" fill="#b6ecf3">hidebound.core.traits</text>
</g>
<!-- hidebound.core.tools&#45;&gt;hidebound.core.traits -->
<g id="edge20" class="edge">
<title>hidebound.core.tools&#45;&gt;hidebound.core.traits</title>
<path fill="none" stroke="#b6ecf3" d="M723.6197,-1112.7934C730.9117,-1116.0986 737.8313,-1120.1173 744,-1125 771.7415,-1146.9582 752.0442,-1174.3153 780,-1196 791.6297,-1205.0209 805.2895,-1211.6069 819.4887,-1216.3961"/>
<polygon fill="#b6ecf3" stroke="#b6ecf3" points="818.8001,-1219.8458 829.3869,-1219.4325 820.8531,-1213.1536 818.8001,-1219.8458"/>
</g>
<!-- hidebound.core.tools&#45;&gt;hidebound.exporters.exporter_base -->
<g id="edge21" class="edge">
<title>hidebound.core.tools&#45;&gt;hidebound.exporters.exporter_base</title>
<path fill="none" stroke="#b6ecf3" d="M640.5683,-1079.8452C660.2916,-1034.959 711.6917,-914.8713 744,-811 764.6195,-744.7083 752.3259,-722.6702 780,-659 812.4573,-584.3249 870.6532,-507.4443 902.3864,-468.3329"/>
<polygon fill="#b6ecf3" stroke="#b6ecf3" points="905.4809,-470.0783 909.1097,-460.1243 900.0655,-465.6428 905.4809,-470.0783"/>
</g>
<!-- hidebound.exporters.local_disk_exporter -->
<g id="node14" class="node">
<title>hidebound.exporters.local_disk_exporter</title>
<polygon fill="#343434" stroke="#343434" points="1443,-498 1105,-498 1105,-462 1443,-462 1443,-498"/>
<text text-anchor="middle" x="1274" y="-476.3" font-family="Courier,monospace" font-size="14.00" fill="#b6ecf3">hidebound.exporters.local_disk_exporter</text>
</g>
<!-- hidebound.core.tools&#45;&gt;hidebound.exporters.local_disk_exporter -->
<g id="edge22" class="edge">
<title>hidebound.core.tools&#45;&gt;hidebound.exporters.local_disk_exporter</title>
<path fill="none" stroke="#b6ecf3" d="M676.2403,-1079.8823C698.525,-1069.0367 724.8776,-1053.5425 744,-1034 767.3686,-1010.118 752.2835,-986.6612 780,-968 833.619,-931.899 1023.1531,-980.5668 1069,-935 1116.4675,-887.8226 1074.5358,-695.5886 1105,-636 1134.7183,-577.8704 1195.4133,-530.3586 1235.3938,-503.6139"/>
<polygon fill="#b6ecf3" stroke="#b6ecf3" points="1237.403,-506.4817 1243.8396,-498.0661 1233.5599,-500.631 1237.403,-506.4817"/>
</g>
<!-- hidebound.exporters.s3_exporter -->
<g id="node15" class="node">
<title>hidebound.exporters.s3_exporter</title>
<polygon fill="#343434" stroke="#343434" points="1410,-681 1138,-681 1138,-645 1410,-645 1410,-681"/>
<text text-anchor="middle" x="1274" y="-659.3" font-family="Courier,monospace" font-size="14.00" fill="#b6ecf3">hidebound.exporters.s3_exporter</text>
</g>
<!-- hidebound.core.tools&#45;&gt;hidebound.exporters.s3_exporter -->
<g id="edge23" class="edge">
<title>hidebound.core.tools&#45;&gt;hidebound.exporters.s3_exporter</title>
<path fill="none" stroke="#b6ecf3" d="M693.1374,-1079.9016C719.7828,-1071.9514 751.4446,-1062.5078 780,-1054 908.4317,-1015.7349 969.4829,-1057.7511 1069,-968 1100.0753,-939.9743 1083.9936,-917.1918 1105,-881 1148.5392,-805.9865 1215.0628,-727.9976 1250.2552,-688.7907"/>
<polygon fill="#b6ecf3" stroke="#b6ecf3" points="1253.1621,-690.7942 1257.2698,-681.0281 1247.9684,-686.101 1253.1621,-690.7942"/>
</g>
<!-- hidebound.server.app -->
<g id="node17" class="node">
<title>hidebound.server.app</title>
<polygon fill="#343434" stroke="#343434" points="2939,-1480 2757,-1480 2757,-1444 2939,-1444 2939,-1480"/>
<text text-anchor="middle" x="2848" y="-1458.3" font-family="Courier,monospace" font-size="14.00" fill="#b6ecf3">hidebound.server.app</text>
</g>
<!-- hidebound.core.tools&#45;&gt;hidebound.server.app -->
<g id="edge24" class="edge">
<title>hidebound.core.tools&#45;&gt;hidebound.server.app</title>
<path fill="none" stroke="#b6ecf3" d="M723.5629,-1091.2829C878.5708,-1080.2216 1203.6801,-1058.6374 1479,-1051 1563.412,-1048.6584 1585.5963,-1037.7834 1669,-1051 2154.5833,-1127.9483 2269.3251,-1198.8301 2721,-1393 2751.7971,-1406.2393 2785.0369,-1424.4514 2809.783,-1438.8407"/>
<polygon fill="#b6ecf3" stroke="#b6ecf3" points="2808.0993,-1441.9107 2818.4955,-1443.9528 2811.6418,-1435.8733 2808.0993,-1441.9107"/>
</g>
<!-- hidebound.core.tools&#45;&gt;hidebound.server.extension -->
<g id="edge25" class="edge">
<title>hidebound.core.tools&#45;&gt;hidebound.server.extension</title>
<path fill="none" stroke="#b6ecf3" d="M723.6122,-1115.6694C742.2295,-1119.0005 761.7168,-1122.2859 780,-1125 907.8778,-1143.983 941.6654,-1135.6622 1069,-1158 1237.294,-1187.5231 1326.5718,-1121.9443 1443,-1247 1510.5128,-1319.5156 1403.4959,-1402.8469 1479,-1467 1543.3522,-1521.6777 1584.5558,-1467.1915 1669,-1467 1855.5011,-1466.5771 2071.5771,-1465.4835 2204.6574,-1464.7403"/>
<polygon fill="#b6ecf3" stroke="#b6ecf3" points="2204.9073,-1468.2391 2214.8875,-1464.683 2204.868,-1461.2392 2204.9073,-1468.2391"/>
</g>
<!-- hidebound.core.traits&#45;&gt;hidebound.core.specifications -->
<g id="edge26" class="edge">
<title>hidebound.core.traits&#45;&gt;hidebound.core.specifications</title>
<path fill="none" stroke="#b6ecf3" d="M941.0087,-1209.8042C972.0014,-1175.9606 1041.5051,-1101.5483 1105,-1044 1150.5328,-1002.7315 1206.6803,-958.8191 1241.4126,-932.3991"/>
<polygon fill="#b6ecf3" stroke="#b6ecf3" points="1243.9062,-934.9009 1249.762,-926.0713 1239.6781,-929.3221 1243.9062,-934.9009"/>
</g>
<!-- hidebound.core.validators&#45;&gt;hidebound.core.config -->
<g id="edge27" class="edge">
<title>hidebound.core.validators&#45;&gt;hidebound.core.config</title>
<path fill="none" stroke="#b6ecf3" d="M642.2634,-765.7311C662.4317,-730.2054 712.5142,-652.6984 780,-623 1032.2907,-511.9745 1374.155,-598.5148 1512.304,-641.9428"/>
<polygon fill="#b6ecf3" stroke="#b6ecf3" points="1511.3042,-645.2975 1521.8946,-644.9917 1513.425,-638.6265 1511.3042,-645.2975"/>
</g>
<!-- hidebound.core.validators&#45;&gt;hidebound.core.specification_base -->
<g id="edge28" class="edge">
<title>hidebound.core.validators&#45;&gt;hidebound.core.specification_base</title>
<path fill="none" stroke="#b6ecf3" d="M719.9446,-802.0057C728.5265,-805.8104 736.7327,-810.4186 744,-816 768.6638,-834.9422 754.765,-857.8257 780,-876 784.8753,-879.5112 790.0656,-882.648 795.4725,-885.4494"/>
<polygon fill="#b6ecf3" stroke="#b6ecf3" points="794.2242,-888.731 804.7593,-889.8543 797.2241,-882.4064 794.2242,-888.731"/>
</g>
<!-- hidebound.core.validators&#45;&gt;hidebound.core.specifications -->
<g id="edge29" class="edge">
<title>hidebound.core.validators&#45;&gt;hidebound.core.specifications</title>
<path fill="none" stroke="#b6ecf3" d="M706.072,-802.0644C718.9288,-806.079 732.0156,-810.7339 744,-816 761.1669,-823.5434 762.3516,-831.6645 780,-838 796.7442,-844.0109 995.4914,-871.1415 1135.7167,-889.8055"/>
<polygon fill="#b6ecf3" stroke="#b6ecf3" points="1135.3344,-893.2854 1145.7085,-891.1342 1136.2572,-886.3464 1135.3344,-893.2854"/>
</g>
<!-- hidebound.core.validators&#45;&gt;hidebound.exporters.exporter_base -->
<g id="edge30" class="edge">
<title>hidebound.core.validators&#45;&gt;hidebound.exporters.exporter_base</title>
<path fill="none" stroke="#b6ecf3" d="M635.45,-765.8916C645.2072,-712.1294 681.6089,-552.3219 780,-474 784.3347,-470.5495 788.9644,-467.4532 793.8085,-464.6759"/>
<polygon fill="#b6ecf3" stroke="#b6ecf3" points="795.4961,-467.7432 802.7422,-460.0138 792.2575,-461.5374 795.4961,-467.7432"/>
</g>
<!-- hidebound.exporters.girder_exporter -->
<g id="node13" class="node">
<title>hidebound.exporters.girder_exporter</title>
<polygon fill="#343434" stroke="#343434" points="1426.5,-357 1121.5,-357 1121.5,-321 1426.5,-321 1426.5,-357"/>
<text text-anchor="middle" x="1274" y="-335.3" font-family="Courier,monospace" font-size="14.00" fill="#b6ecf3">hidebound.exporters.girder_exporter</text>
</g>
<!-- hidebound.core.validators&#45;&gt;hidebound.exporters.girder_exporter -->
<g id="edge31" class="edge">
<title>hidebound.core.validators&#45;&gt;hidebound.exporters.girder_exporter</title>
<path fill="none" stroke="#b6ecf3" d="M639.1701,-765.8454C665.9437,-693.1756 764.8916,-426.6177 780,-415 831.2829,-375.5658 1005.1241,-390.24 1069,-380 1105.8581,-374.0913 1146.1882,-366.3127 1181.2516,-359.1204"/>
<polygon fill="#b6ecf3" stroke="#b6ecf3" points="1182.3871,-362.4598 1191.4728,-357.01 1180.9716,-355.6044 1182.3871,-362.4598"/>
</g>
<!-- hidebound.core.validators&#45;&gt;hidebound.exporters.local_disk_exporter -->
<g id="edge32" class="edge">
<title>hidebound.core.validators&#45;&gt;hidebound.exporters.local_disk_exporter</title>
<path fill="none" stroke="#b6ecf3" d="M637.9976,-765.88C652.7085,-720.7953 697.5633,-603.3717 780,-550 872.4414,-490.151 994.9011,-472.482 1094.7653,-469.8589"/>
<polygon fill="#b6ecf3" stroke="#b6ecf3" points="1095.0494,-473.3538 1104.9723,-469.6408 1094.8998,-466.3554 1095.0494,-473.3538"/>
</g>
<!-- hidebound.core.validators&#45;&gt;hidebound.exporters.s3_exporter -->
<g id="edge33" class="edge">
<title>hidebound.core.validators&#45;&gt;hidebound.exporters.s3_exporter</title>
<path fill="none" stroke="#b6ecf3" d="M646.406,-765.8949C670.0802,-736.7427 721.3841,-680.4967 780,-659 912.4767,-610.4157 1078.7071,-625.93 1180.5919,-643.2215"/>
<polygon fill="#b6ecf3" stroke="#b6ecf3" points="1180.1008,-646.6885 1190.5525,-644.9525 1181.2994,-639.7919 1180.1008,-646.6885"/>
</g>
<!-- hidebound.core.validators&#45;&gt;hidebound.server.api -->
<g id="edge34" class="edge">
<title>hidebound.core.validators&#45;&gt;hidebound.server.api</title>
<path fill="none" stroke="#b6ecf3" d="M744.2056,-776.3565C1008.1848,-765.2219 1670.1525,-779.3024 1961,-1169 2019.2486,-1247.0455 2069.405,-1551.4039 2083.8339,-1645.8729"/>
<polygon fill="#b6ecf3" stroke="#b6ecf3" points="2080.3846,-1646.4713 2085.3414,-1655.835 2087.3058,-1645.4239 2080.3846,-1646.4713"/>
</g>
<!-- hidebound.exporters.exporter_base&#45;&gt;hidebound.exporters.girder_exporter -->
<g id="edge35" class="edge">
<title>hidebound.exporters.exporter_base&#45;&gt;hidebound.exporters.girder_exporter</title>
<path fill="none" stroke="#b6ecf3" d="M1013.55,-423.9742C1031.9801,-419.77 1051.1984,-415.0356 1069,-410 1119.8319,-395.6209 1176.4989,-375.6858 1217.3492,-360.5989"/>
<polygon fill="#b6ecf3" stroke="#b6ecf3" points="1218.7009,-363.8306 1226.8578,-357.0692 1216.2649,-357.2681 1218.7009,-363.8306"/>
</g>
<!-- hidebound.exporters.exporter_base&#45;&gt;hidebound.exporters.local_disk_exporter -->
<g id="edge36" class="edge">
<title>hidebound.exporters.exporter_base&#45;&gt;hidebound.exporters.local_disk_exporter</title>
<path fill="none" stroke="#b6ecf3" d="M1069.1779,-457.7304C1078.7949,-458.776 1088.5372,-459.8352 1098.2835,-460.8949"/>
<polygon fill="#b6ecf3" stroke="#b6ecf3" points="1098.1168,-464.3973 1108.4366,-461.9988 1098.8735,-457.4383 1098.1168,-464.3973"/>
</g>
<!-- hidebound.exporters.exporter_base&#45;&gt;hidebound.exporters.s3_exporter -->
<g id="edge37" class="edge">
<title>hidebound.exporters.exporter_base&#45;&gt;hidebound.exporters.s3_exporter</title>
<path fill="none" stroke="#b6ecf3" d="M953.1011,-460.0854C1016.107,-499.926 1166.8318,-595.2342 1236.9523,-639.5736"/>
<polygon fill="#b6ecf3" stroke="#b6ecf3" points="1235.1713,-642.5884 1245.4939,-644.9747 1238.9125,-636.672 1235.1713,-642.5884"/>
</g>
<!-- hidebound.exporters.girder_exporter&#45;&gt;hidebound.core.config -->
<g id="edge38" class="edge">
<title>hidebound.exporters.girder_exporter&#45;&gt;hidebound.core.config</title>
<path fill="none" stroke="#b6ecf3" d="M1309.521,-357.1349C1346.0872,-377.0492 1403.1886,-411.7413 1443,-453 1497.8089,-509.8014 1541.4101,-593.2105 1561.6682,-635.7975"/>
<polygon fill="#b6ecf3" stroke="#b6ecf3" points="1558.557,-637.4065 1565.9716,-644.9745 1564.8947,-634.4345 1558.557,-637.4065"/>
</g>
<!-- hidebound.exporters.girder_exporter&#45;&gt;hidebound.core.database -->
<g id="edge39" class="edge">
<title>hidebound.exporters.girder_exporter&#45;&gt;hidebound.core.database</title>
<path fill="none" stroke="#b6ecf3" d="M1368.7095,-357.0045C1459.2092,-379.2072 1592.7983,-425.9201 1669,-518 1754.4557,-621.2621 1814.7464,-1052.873 1829.4982,-1167.7891"/>
<polygon fill="#b6ecf3" stroke="#b6ecf3" points="1826.0502,-1168.4207 1830.7829,-1177.8997 1832.9944,-1167.5383 1826.0502,-1168.4207"/>
</g>
<!-- hidebound.exporters.local_disk_exporter&#45;&gt;hidebound.core.config -->
<g id="edge40" class="edge">
<title>hidebound.exporters.local_disk_exporter&#45;&gt;hidebound.core.config</title>
<path fill="none" stroke="#b6ecf3" d="M1412.3987,-498.0997C1423.0803,-501.9113 1433.4208,-506.4941 1443,-512 1450.0346,-516.0433 1516.7133,-594.7768 1552.1305,-636.9064"/>
<polygon fill="#b6ecf3" stroke="#b6ecf3" points="1549.6584,-639.4051 1558.7701,-644.8113 1555.0185,-634.9029 1549.6584,-639.4051"/>
</g>
<!-- hidebound.exporters.local_disk_exporter&#45;&gt;hidebound.core.database -->
<g id="edge41" class="edge">
<title>hidebound.exporters.local_disk_exporter&#45;&gt;hidebound.core.database</title>
<path fill="none" stroke="#b6ecf3" d="M1406.3504,-498.0131C1494.2664,-517.1276 1604.9179,-556.2562 1669,-636 1803.9322,-803.9098 1827.858,-1079.2246 1832.092,-1167.6872"/>
<polygon fill="#b6ecf3" stroke="#b6ecf3" points="1828.5987,-1167.9195 1832.5257,-1177.7597 1835.5922,-1167.6184 1828.5987,-1167.9195"/>
</g>
<!-- hidebound.exporters.s3_exporter&#45;&gt;hidebound.core.config -->
<g id="edge42" class="edge">
<title>hidebound.exporters.s3_exporter&#45;&gt;hidebound.core.config</title>
<path fill="none" stroke="#b6ecf3" d="M1410.3936,-663C1429.9429,-663 1449.8031,-663 1468.6311,-663"/>
<polygon fill="#b6ecf3" stroke="#b6ecf3" points="1468.6748,-666.5001 1478.6748,-663 1468.6747,-659.5001 1468.6748,-666.5001"/>
</g>
<!-- hidebound.exporters.s3_exporter&#45;&gt;hidebound.core.database -->
<g id="edge43" class="edge">
<title>hidebound.exporters.s3_exporter&#45;&gt;hidebound.core.database</title>
<path fill="none" stroke="#b6ecf3" d="M1295.216,-681.112C1372.1869,-746.8643 1634.0514,-970.9474 1669,-1006 1724.2036,-1061.3678 1782.5892,-1132.4601 1812.5772,-1170.0346"/>
<polygon fill="#b6ecf3" stroke="#b6ecf3" points="1809.9176,-1172.3135 1818.8802,-1177.9635 1815.3972,-1167.9575 1809.9176,-1172.3135"/>
</g>
<!-- hidebound.server.api&#45;&gt;hidebound.server.extension -->
<g id="edge44" class="edge">
<title>hidebound.server.api&#45;&gt;hidebound.server.extension</title>
<path fill="none" stroke="#b6ecf3" d="M2106.472,-1655.7429C2130.7892,-1631.9317 2175.1327,-1589.2738 2215,-1555 2242.2402,-1531.5817 2274.4319,-1506.4129 2297.9009,-1488.4939"/>
<polygon fill="#b6ecf3" stroke="#b6ecf3" points="2300.2869,-1491.0765 2306.1275,-1482.2369 2296.0492,-1485.505 2300.2869,-1491.0765"/>
</g>
<!-- hidebound.server.components -->
<g id="node18" class="node">
<title>hidebound.server.components</title>
<polygon fill="#343434" stroke="#343434" points="1952.5,-1826 1713.5,-1826 1713.5,-1790 1952.5,-1790 1952.5,-1826"/>
<text text-anchor="middle" x="1833" y="-1804.3" font-family="Courier,monospace" font-size="14.00" fill="#b6ecf3">hidebound.server.components</text>
</g>
<!-- hidebound.server.components&#45;&gt;hidebound.server.app -->
<g id="edge45" class="edge">
<title>hidebound.server.components&#45;&gt;hidebound.server.app</title>
<path fill="none" stroke="#b6ecf3" d="M1952.7859,-1810.6118C2133.2332,-1809.0682 2479.3511,-1784.318 2721,-1632 2776.8816,-1596.7763 2816.786,-1527.4972 2835.6803,-1489.148"/>
<polygon fill="#b6ecf3" stroke="#b6ecf3" points="2838.8497,-1490.6332 2840.0282,-1480.1041 2832.5409,-1487.6001 2838.8497,-1490.6332"/>
</g>
<!-- hidebound.server.extensions -->
<g id="node20" class="node">
<title>hidebound.server.extensions</title>
<polygon fill="#343434" stroke="#343434" points="2721,-1623 2482,-1623 2482,-1587 2721,-1587 2721,-1623"/>
<text text-anchor="middle" x="2601.5" y="-1601.3" font-family="Courier,monospace" font-size="14.00" fill="#b6ecf3">hidebound.server.extensions</text>
</g>
<!-- hidebound.server.extension&#45;&gt;hidebound.server.extensions -->
<g id="edge46" class="edge">
<title>hidebound.server.extension&#45;&gt;hidebound.server.extensions</title>
<path fill="none" stroke="#b6ecf3" d="M2365.0976,-1482.001C2414.197,-1507.5471 2504.0751,-1554.3103 2557.7442,-1582.2341"/>
<polygon fill="#b6ecf3" stroke="#b6ecf3" points="2556.1937,-1585.3727 2566.6803,-1586.8835 2559.4246,-1579.1629 2556.1937,-1585.3727"/>
</g>
<!-- hidebound.server.extensions&#45;&gt;hidebound.server.api -->
<g id="edge47" class="edge">
<title>hidebound.server.extensions&#45;&gt;hidebound.server.api</title>
<path fill="none" stroke="#b6ecf3" d="M2534.9543,-1623.0678C2507.5795,-1629.9148 2475.4439,-1637.2069 2446,-1642 2360.1471,-1655.9759 2261.646,-1664.2195 2189.7253,-1668.8296"/>
<polygon fill="#b6ecf3" stroke="#b6ecf3" points="2189.0725,-1665.3636 2179.3116,-1669.4837 2189.5114,-1672.3499 2189.0725,-1665.3636"/>
</g>
<!-- hidebound.server.extensions&#45;&gt;hidebound.server.app -->
<g id="edge48" class="edge">
<title>hidebound.server.extensions&#45;&gt;hidebound.server.app</title>
<path fill="none" stroke="#b6ecf3" d="M2645.5578,-1586.9206C2668.5272,-1576.9504 2696.8014,-1563.8119 2721,-1550 2754.9077,-1530.6465 2791.311,-1504.8544 2816.4119,-1486.2008"/>
<polygon fill="#b6ecf3" stroke="#b6ecf3" points="2818.5629,-1488.9626 2824.4711,-1480.168 2814.3681,-1483.3587 2818.5629,-1488.9626"/>
</g>
<!-- hidebound.server.server_tools&#45;&gt;hidebound.server.api -->
<g id="edge49" class="edge">
<title>hidebound.server.server_tools&#45;&gt;hidebound.server.api</title>
<path fill="none" stroke="#b6ecf3" d="M1918.2713,-1855.9725C1933.2557,-1850.6354 1948.1481,-1843.7799 1961,-1835 2012.6757,-1799.6975 2053.2666,-1736.9612 2073.6293,-1701.1142"/>
<polygon fill="#b6ecf3" stroke="#b6ecf3" points="2076.7927,-1702.6272 2078.5971,-1692.1871 2070.676,-1699.2233 2076.7927,-1702.6272"/>
</g>
<!-- hidebound.server.server_tools&#45;&gt;hidebound.server.app -->
<g id="edge50" class="edge">
<title>hidebound.server.server_tools&#45;&gt;hidebound.server.app</title>
<path fill="none" stroke="#b6ecf3" d="M1961.2862,-1884.1966C2149.5281,-1892.0567 2501.925,-1878.8472 2721,-1698 2789.1702,-1641.7252 2826.1045,-1538.9972 2840.6197,-1489.7591"/>
<polygon fill="#b6ecf3" stroke="#b6ecf3" points="2843.9974,-1490.6769 2843.3799,-1480.1001 2837.2668,-1488.7535 2843.9974,-1490.6769"/>
</g>
<!-- dash -->
<g id="node22" class="node">
<title>dash</title>
<polygon fill="#343434" stroke="#343434" points="1601,-1642 1547,-1642 1547,-1606 1601,-1606 1601,-1642"/>
<text text-anchor="middle" x="1574" y="-1620.3" font-family="Courier,monospace" font-size="14.00" fill="#de958e">dash</text>
</g>
<!-- dash&#45;&gt;hidebound.server.app -->
<g id="edge51" class="edge">
<title>dash&#45;&gt;hidebound.server.app</title>
<path fill="none" stroke="#de958e" d="M1601.0131,-1609.9509C1621.4871,-1598.3256 1649.3556,-1580.3017 1669,-1559 1690.8627,-1535.2929 1679.5879,-1515.8551 1705,-1496 1844.3653,-1387.1105 1911.1396,-1388 2088,-1388 2088,-1388 2088,-1388 2330.5,-1388 2483.1096,-1388 2658.508,-1419.9263 2760.9167,-1441.8381"/>
<polygon fill="#de958e" stroke="#de958e" points="2760.3876,-1445.3044 2770.9009,-1443.9922 2761.864,-1438.4618 2760.3876,-1445.3044"/>
</g>
<!-- dash&#45;&gt;hidebound.server.components -->
<g id="edge52" class="edge">
<title>dash&#45;&gt;hidebound.server.components</title>
<path fill="none" stroke="#de958e" d="M1601.0566,-1636.8122C1622.1047,-1647.9886 1650.7145,-1666.008 1669,-1689 1696.3304,-1723.365 1671.4981,-1752.6182 1705,-1781 1706.3403,-1782.1354 1707.7164,-1783.2269 1709.125,-1784.276"/>
<polygon fill="#de958e" stroke="#de958e" points="1707.2526,-1787.2339 1717.5237,-1789.833 1711.1152,-1781.396 1707.2526,-1787.2339"/>
</g>
<!-- dash_cytoscape -->
<g id="node23" class="node">
<title>dash_cytoscape</title>
<polygon fill="#343434" stroke="#343434" points="1640,-1826 1508,-1826 1508,-1790 1640,-1790 1640,-1826"/>
<text text-anchor="middle" x="1574" y="-1804.3" font-family="Courier,monospace" font-size="14.00" fill="#de958e">dash_cytoscape</text>
</g>
<!-- dash_cytoscape&#45;&gt;hidebound.server.components -->
<g id="edge53" class="edge">
<title>dash_cytoscape&#45;&gt;hidebound.server.components</title>
<path fill="none" stroke="#de958e" d="M1640.0268,-1808C1659.4571,-1808 1681.4201,-1808 1703.3875,-1808"/>
<polygon fill="#de958e" stroke="#de958e" points="1703.4718,-1811.5001 1713.4718,-1808 1703.4718,-1804.5001 1703.4718,-1811.5001"/>
</g>
<!-- hidebound.server -->
<g id="node24" class="node">
<title>hidebound.server</title>
<polygon fill="#343434" stroke="#343434" points="1648.5,-2102 1499.5,-2102 1499.5,-2066 1648.5,-2066 1648.5,-2102"/>
<text text-anchor="middle" x="1574" y="-2080.3" font-family="Courier,monospace" font-size="14.00" fill="#a0d17b">hidebound.server</text>
</g>
<!-- hidebound.server&#45;&gt;hidebound.server.api -->
<g id="edge54" class="edge">
<title>hidebound.server&#45;&gt;hidebound.server.api</title>
<path fill="none" stroke="#a0d17b" d="M1645.8086,-2065.9087C1654.0884,-2062.0986 1662.0435,-2057.5125 1669,-2052 1692.7789,-2033.157 1679.9652,-2011.1392 1705,-1994 1800.52,-1928.6056 1869.5258,-2016.9434 1961,-1946 2041.4726,-1883.589 2073.0895,-1757.9785 2083.5482,-1702.0124"/>
<polygon fill="#a0d17b" stroke="#a0d17b" points="2087.0068,-1702.5537 2085.3141,-1692.0949 2080.1152,-1701.3265 2087.0068,-1702.5537"/>
</g>
<!-- hidebound.server&#45;&gt;hidebound.server.app -->
<g id="edge55" class="edge">
<title>hidebound.server&#45;&gt;hidebound.server.app</title>
<path fill="none" stroke="#a0d17b" d="M1648.909,-2084C1748.9856,-2084 1931.8368,-2084 2088,-2084 2088,-2084 2088,-2084 2330.5,-2084 2644.0986,-2084 2804.2922,-1610.9928 2840.1531,-1489.9451"/>
<polygon fill="#a0d17b" stroke="#a0d17b" points="2843.5325,-1490.8585 2842.9725,-1480.2784 2836.8125,-1488.8984 2843.5325,-1490.8585"/>
</g>
<!-- hidebound.server&#45;&gt;hidebound.server.components -->
<g id="edge56" class="edge">
<title>hidebound.server&#45;&gt;hidebound.server.components</title>
<path fill="none" stroke="#a0d17b" d="M1613.7124,-2065.8848C1633.2552,-2054.9916 1655.4653,-2039.2787 1669,-2019 1712.3572,-1954.0392 1652.298,-1904.639 1705,-1847 1710.7462,-1840.7155 1717.4713,-1835.4311 1724.7769,-1830.9892"/>
<polygon fill="#a0d17b" stroke="#a0d17b" points="1726.5112,-1834.03 1733.5961,-1826.1525 1723.1451,-1827.8924 1726.5112,-1834.03"/>
</g>
<!-- hidebound.server&#45;&gt;hidebound.server.extension -->
<g id="edge57" class="edge">
<title>hidebound.server&#45;&gt;hidebound.server.extension</title>
<path fill="none" stroke="#a0d17b" d="M1633.1713,-2065.9299C1645.1829,-2061.7444 1657.6177,-2057.0285 1669,-2052 1685.7423,-2044.6035 1687.7828,-2038.2112 1705,-2032 1813.8914,-1992.717 1862.3043,-2044.495 1961,-1984 2096.3639,-1901.0295 2110.0747,-1844.0273 2179,-1701 2208.0135,-1640.7938 2178.7877,-1611.1715 2215,-1555 2233.2505,-1526.6903 2263.3698,-1503.3892 2288.2753,-1487.4539"/>
<polygon fill="#a0d17b" stroke="#a0d17b" points="2290.1955,-1490.3814 2296.8393,-1482.1284 2286.499,-1484.437 2290.1955,-1490.3814"/>
</g>
<!-- hidebound.server&#45;&gt;hidebound.server.extensions -->
<g id="edge58" class="edge">
<title>hidebound.server&#45;&gt;hidebound.server.extensions</title>
<path fill="none" stroke="#a0d17b" d="M1648.618,-2075.7876C1744.5416,-2064.5867 1905.3678,-2043.4489 1961,-2022 2222.1611,-1921.3098 2487.8156,-1703.4216 2573.234,-1629.8459"/>
<polygon fill="#a0d17b" stroke="#a0d17b" points="2575.6598,-1632.3753 2580.9314,-1623.185 2571.0793,-1627.082 2575.6598,-1632.3753"/>
</g>
<!-- hidebound.server&#45;&gt;hidebound.server.server_tools -->
<g id="edge59" class="edge">
<title>hidebound.server&#45;&gt;hidebound.server.server_tools</title>
<path fill="none" stroke="#a0d17b" d="M1608.0398,-2065.873C1627.5372,-2054.308 1651.5232,-2037.9512 1669,-2019 1690.8627,-1995.2929 1682.7808,-1979.3732 1705,-1956 1728.097,-1931.7035 1759.7868,-1911.3297 1785.8556,-1896.9677"/>
<polygon fill="#a0d17b" stroke="#a0d17b" points="1787.6732,-1899.9643 1794.8188,-1892.1418 1784.3547,-1893.8008 1787.6732,-1899.9643"/>
</g>
<!-- dash.dependencies -->
<g id="node25" class="node">
<title>dash.dependencies</title>
<polygon fill="#343434" stroke="#343434" points="2680,-1230 2523,-1230 2523,-1194 2680,-1194 2680,-1230"/>
<text text-anchor="middle" x="2601.5" y="-1208.3" font-family="Courier,monospace" font-size="14.00" fill="#de958e">dash.dependencies</text>
</g>
<!-- dash.dependencies&#45;&gt;hidebound.server.app -->
<g id="edge60" class="edge">
<title>dash.dependencies&#45;&gt;hidebound.server.app</title>
<path fill="none" stroke="#de958e" d="M2680.1632,-1223.6748C2694.7061,-1228.3433 2709.054,-1234.872 2721,-1244 2786.199,-1293.819 2823.9833,-1387.4612 2839.5624,-1434.1128"/>
<polygon fill="#de958e" stroke="#de958e" points="2836.306,-1435.418 2842.7183,-1443.852 2842.9651,-1433.2601 2836.306,-1435.418"/>
</g>
<!-- rolling_pin.blob_etl -->
<g id="node26" class="node">
<title>rolling_pin.blob_etl</title>
<polygon fill="#343434" stroke="#343434" points="1665,-1880 1483,-1880 1483,-1844 1665,-1844 1665,-1880"/>
<text text-anchor="middle" x="1574" y="-1858.3" font-family="Courier,monospace" font-size="14.00" fill="#de958e">rolling_pin.blob_etl</text>
</g>
<!-- rolling_pin.blob_etl&#45;&gt;hidebound.server.components -->
<g id="edge61" class="edge">
<title>rolling_pin.blob_etl&#45;&gt;hidebound.server.components</title>
<path fill="none" stroke="#de958e" d="M1660.6033,-1843.9437C1685.0102,-1838.855 1711.7088,-1833.2885 1736.6489,-1828.0887"/>
<polygon fill="#de958e" stroke="#de958e" points="1737.4032,-1831.5067 1746.4783,-1826.0393 1735.9744,-1824.6541 1737.4032,-1831.5067"/>
</g>
<!-- rolling_pin.blob_etl&#45;&gt;hidebound.server.server_tools -->
<g id="edge62" class="edge">
<title>rolling_pin.blob_etl&#45;&gt;hidebound.server.server_tools</title>
<path fill="none" stroke="#de958e" d="M1665.3137,-1866.2308C1674.9259,-1866.6761 1684.8464,-1867.1357 1694.836,-1867.5986"/>
<polygon fill="#de958e" stroke="#de958e" points="1694.6884,-1871.0954 1704.8397,-1868.0621 1695.0125,-1864.1029 1694.6884,-1871.0954"/>
</g>
<!-- flask -->
<g id="node27" class="node">
<title>flask</title>
<polygon fill="#343434" stroke="#343434" points="1603,-1734 1545,-1734 1545,-1698 1603,-1698 1603,-1734"/>
<text text-anchor="middle" x="1574" y="-1712.3" font-family="Courier,monospace" font-size="14.00" fill="#de958e">flask</text>
</g>
<!-- flask&#45;&gt;hidebound.server.api -->
<g id="edge63" class="edge">
<title>flask&#45;&gt;hidebound.server.api</title>
<path fill="none" stroke="#de958e" d="M1603.1076,-1713.6216C1675.6416,-1707.6947 1867.1791,-1692.0437 1986.6728,-1682.2797"/>
<polygon fill="#de958e" stroke="#de958e" points="1987.251,-1685.7442 1996.9327,-1681.4413 1986.6808,-1678.7674 1987.251,-1685.7442"/>
</g>
<!-- flask&#45;&gt;hidebound.server.app -->
<g id="edge64" class="edge">
<title>flask&#45;&gt;hidebound.server.app</title>
<path fill="none" stroke="#de958e" d="M1603.2299,-1702.0237C1624.039,-1690.7798 1651.3365,-1673.2099 1669,-1651 1696.3304,-1616.635 1669.8141,-1585.2651 1705,-1559 1725.8015,-1543.4724 2471.2498,-1488.8707 2746.888,-1469.1623"/>
<polygon fill="#de958e" stroke="#de958e" points="2747.1642,-1472.6515 2756.8894,-1468.4477 2746.6653,-1465.6693 2747.1642,-1472.6515"/>
</g>
<!-- flask&#45;&gt;hidebound.server.components -->
<g id="edge65" class="edge">
<title>flask&#45;&gt;hidebound.server.components</title>
<path fill="none" stroke="#de958e" d="M1603.1899,-1722.4562C1622.7059,-1727.5641 1648.4696,-1735.8762 1669,-1748 1687.6896,-1759.0367 1685.697,-1771.075 1705,-1781 1708.5898,-1782.8458 1712.2982,-1784.5654 1716.0913,-1786.1675"/>
<polygon fill="#de958e" stroke="#de958e" points="1715.0872,-1789.5328 1725.6752,-1789.9127 1717.6351,-1783.013 1715.0872,-1789.5328"/>
</g>
<!-- flask&#45;&gt;hidebound.server.extension -->
<g id="edge66" class="edge">
<title>flask&#45;&gt;hidebound.server.extension</title>
<path fill="none" stroke="#de958e" d="M1603.4073,-1702.7274C1624.5845,-1691.7325 1652.2661,-1674.1655 1669,-1651 1702.8538,-1604.1348 1660.5809,-1563.0049 1705,-1526 1707.385,-1524.0131 2022.7275,-1493.4954 2204.6927,-1476.032"/>
<polygon fill="#de958e" stroke="#de958e" points="2205.2471,-1479.495 2214.8671,-1475.0558 2204.5785,-1472.527 2205.2471,-1479.495"/>
</g>
<!-- flask&#45;&gt;hidebound.server.server_tools -->
<g id="edge67" class="edge">
<title>flask&#45;&gt;hidebound.server.server_tools</title>
<path fill="none" stroke="#de958e" d="M1603.1581,-1731.9386C1623.147,-1743.7752 1649.4767,-1761.2401 1669,-1781 1689.2728,-1801.5186 1681.8515,-1817.7911 1705,-1835 1714.1564,-1841.807 1724.5107,-1847.4376 1735.2662,-1852.0926"/>
<polygon fill="#de958e" stroke="#de958e" points="1734.2179,-1855.4437 1744.8013,-1855.9374 1736.8357,-1848.9516 1734.2179,-1855.4437"/>
</g>
<!-- jinja2 -->
<g id="node28" class="node">
<title>jinja2</title>
<polygon fill="#343434" stroke="#343434" points="1607,-2010 1541,-2010 1541,-1974 1607,-1974 1607,-2010"/>
<text text-anchor="middle" x="1574" y="-1988.3" font-family="Courier,monospace" font-size="14.00" fill="#de958e">jinja2</text>
</g>
<!-- jinja2&#45;&gt;hidebound.server.server_tools -->
<g id="edge68" class="edge">
<title>jinja2&#45;&gt;hidebound.server.server_tools</title>
<path fill="none" stroke="#de958e" d="M1607.2025,-1985.4584C1626.412,-1980.584 1650.3892,-1972.5566 1669,-1960 1689.3805,-1946.2494 1684.6621,-1931.8136 1705,-1918 1718.3611,-1908.9251 1733.7748,-1901.5514 1749.1757,-1895.6195"/>
<polygon fill="#de958e" stroke="#de958e" points="1750.5615,-1898.8394 1758.7449,-1892.1101 1748.1512,-1892.2674 1750.5615,-1898.8394"/>
</g>
<!-- dash.exceptions -->
<g id="node29" class="node">
<title>dash.exceptions</title>
<polygon fill="#343434" stroke="#343434" points="2671.5,-1176 2531.5,-1176 2531.5,-1140 2671.5,-1140 2671.5,-1176"/>
<text text-anchor="middle" x="2601.5" y="-1154.3" font-family="Courier,monospace" font-size="14.00" fill="#de958e">dash.exceptions</text>
</g>
<!-- dash.exceptions&#45;&gt;hidebound.server.app -->
<g id="edge69" class="edge">
<title>dash.exceptions&#45;&gt;hidebound.server.app</title>
<path fill="none" stroke="#de958e" d="M2671.7438,-1162.8719C2689.2795,-1166.8874 2707.0426,-1173.6771 2721,-1185 2801.2819,-1250.1283 2832.9993,-1377.221 2843.5162,-1433.7365"/>
<polygon fill="#de958e" stroke="#de958e" points="2840.0994,-1434.514 2845.2927,-1443.7487 2846.9917,-1433.291 2840.0994,-1434.514"/>
</g>
<!-- flask_healthz -->
<g id="node30" class="node">
<title>flask_healthz</title>
<polygon fill="#343434" stroke="#343434" points="2392.5,-1600 2268.5,-1600 2268.5,-1564 2392.5,-1564 2392.5,-1600"/>
<text text-anchor="middle" x="2330.5" y="-1578.3" font-family="Courier,monospace" font-size="14.00" fill="#de958e">flask_healthz</text>
</g>
<!-- flask_healthz&#45;&gt;hidebound.server.extensions -->
<g id="edge70" class="edge">
<title>flask_healthz&#45;&gt;hidebound.server.extensions</title>
<path fill="none" stroke="#de958e" d="M2392.6729,-1587.2767C2416.263,-1589.2788 2444.0964,-1591.641 2471.6201,-1593.977"/>
<polygon fill="#de958e" stroke="#de958e" points="2471.4777,-1597.4774 2481.7379,-1594.8357 2472.0698,-1590.5025 2471.4777,-1597.4774"/>
</g>
<!-- werkzeug.exceptions -->
<g id="node31" class="node">
<title>werkzeug.exceptions</title>
<polygon fill="#343434" stroke="#343434" points="1919.5,-1772 1746.5,-1772 1746.5,-1736 1919.5,-1736 1919.5,-1772"/>
<text text-anchor="middle" x="1833" y="-1750.3" font-family="Courier,monospace" font-size="14.00" fill="#de958e">werkzeug.exceptions</text>
</g>
<!-- werkzeug.exceptions&#45;&gt;hidebound.server.api -->
<g id="edge71" class="edge">
<title>werkzeug.exceptions&#45;&gt;hidebound.server.api</title>
<path fill="none" stroke="#de958e" d="M1911.2462,-1735.9751C1927.7755,-1731.7392 1945.0411,-1726.9921 1961,-1722 1985.5065,-1714.3341 2012.1535,-1704.5005 2034.6817,-1695.7323"/>
<polygon fill="#de958e" stroke="#de958e" points="2036.0362,-1698.9607 2044.0662,-1692.0491 2033.4787,-1692.4446 2036.0362,-1698.9607"/>
</g>
<!-- yaml -->
<g id="node32" class="node">
<title>yaml</title>
<polygon fill="#343434" stroke="#343434" points="1601,-1458 1547,-1458 1547,-1422 1601,-1422 1601,-1458"/>
<text text-anchor="middle" x="1574" y="-1436.3" font-family="Courier,monospace" font-size="14.00" fill="#de958e">yaml</text>
</g>
<!-- yaml&#45;&gt;hidebound.core.database -->
<g id="edge72" class="edge">
<title>yaml&#45;&gt;hidebound.core.database</title>
<path fill="none" stroke="#de958e" d="M1601.3376,-1435.2358C1621.4586,-1430.7262 1648.7252,-1422.4327 1669,-1408 1705.7452,-1381.8427 1780.8849,-1273.7294 1815.1977,-1222.7853"/>
<polygon fill="#de958e" stroke="#de958e" points="1818.2542,-1224.5115 1820.9195,-1214.2574 1812.4414,-1220.6113 1818.2542,-1224.5115"/>
</g>
<!-- yaml&#45;&gt;hidebound.server.extension -->
<g id="edge73" class="edge">
<title>yaml&#45;&gt;hidebound.server.extension</title>
<path fill="none" stroke="#de958e" d="M1601.1611,-1439.7179C1686.3859,-1438.9895 1956.1002,-1437.8763 2179,-1450 2187.3411,-1450.4537 2195.9335,-1451.0089 2204.5876,-1451.6337"/>
<polygon fill="#de958e" stroke="#de958e" points="2204.5301,-1455.1391 2214.7639,-1452.3972 2205.0538,-1448.1588 2204.5301,-1455.1391"/>
</g>
<!-- yaml&#45;&gt;hidebound.server.server_tools -->
<g id="edge74" class="edge">
<title>yaml&#45;&gt;hidebound.server.server_tools</title>
<path fill="none" stroke="#de958e" d="M1601.009,-1450.7698C1623.2275,-1461.1502 1653.4931,-1479.1131 1669,-1505 1744.8165,-1631.5661 1610.8767,-1721.387 1705,-1835 1710.1061,-1841.1634 1716.1562,-1846.3742 1722.8038,-1850.7772"/>
<polygon fill="#de958e" stroke="#de958e" points="1721.1288,-1853.8529 1731.5174,-1855.9332 1724.6936,-1847.8286 1721.1288,-1853.8529"/>
</g>
<!-- boto3 -->
<g id="node33" class="node">
<title>boto3</title>
<polygon fill="#343434" stroke="#343434" points="953.5,-758 895.5,-758 895.5,-722 953.5,-722 953.5,-758"/>
<text text-anchor="middle" x="924.5" y="-736.3" font-family="Courier,monospace" font-size="14.00" fill="#de958e">boto3</text>
</g>
<!-- boto3&#45;&gt;hidebound.exporters.s3_exporter -->
<g id="edge75" class="edge">
<title>boto3&#45;&gt;hidebound.exporters.s3_exporter</title>
<path fill="none" stroke="#de958e" d="M953.6542,-735.0336C982.9053,-729.9377 1029.2052,-721.5642 1069,-713 1110.4235,-704.0853 1156.2633,-693.0194 1194.0727,-683.566"/>
<polygon fill="#de958e" stroke="#de958e" points="1195.1602,-686.9017 1204.0076,-681.073 1193.4564,-680.1122 1195.1602,-686.9017"/>
</g>
<!-- flasgger -->
<g id="node34" class="node">
<title>flasgger</title>
<polygon fill="#343434" stroke="#343434" points="1874.5,-1604 1791.5,-1604 1791.5,-1568 1874.5,-1568 1874.5,-1604"/>
<text text-anchor="middle" x="1833" y="-1582.3" font-family="Courier,monospace" font-size="14.00" fill="#de958e">flasgger</text>
</g>
<!-- flasgger&#45;&gt;hidebound.server.api -->
<g id="edge76" class="edge">
<title>flasgger&#45;&gt;hidebound.server.api</title>
<path fill="none" stroke="#de958e" d="M1874.5384,-1592.6406C1900.1815,-1597.6423 1933.3486,-1605.7679 1961,-1618 1978.5858,-1625.7794 1979.7956,-1633.4102 1997,-1642 2004.4307,-1645.71 2012.3976,-1649.1836 2020.4141,-1652.373"/>
<polygon fill="#de958e" stroke="#de958e" points="2019.2282,-1655.6667 2029.8183,-1655.9837 2021.7373,-1649.1318 2019.2282,-1655.6667"/>
</g>
<!-- flasgger&#45;&gt;hidebound.server.extensions -->
<g id="edge77" class="edge">
<title>flasgger&#45;&gt;hidebound.server.extensions</title>
<path fill="none" stroke="#de958e" d="M1874.5099,-1589.3196C1944.6187,-1594.7422 2090.9802,-1605.2698 2215,-1609 2317.6203,-1612.0866 2343.3418,-1610.3201 2446,-1609 2454.3457,-1608.8927 2462.9427,-1608.753 2471.6087,-1608.5903"/>
<polygon fill="#de958e" stroke="#de958e" points="2471.8736,-1612.0858 2481.8026,-1608.3892 2471.7355,-1605.0872 2471.8736,-1612.0858"/>
</g>
<!-- requests -->
<g id="node35" class="node">
<title>requests</title>
<polygon fill="#343434" stroke="#343434" points="1615.5,-1550 1532.5,-1550 1532.5,-1514 1615.5,-1514 1615.5,-1550"/>
<text text-anchor="middle" x="1574" y="-1528.3" font-family="Courier,monospace" font-size="14.00" fill="#de958e">requests</text>
</g>
<!-- requests&#45;&gt;hidebound.core.database -->
<g id="edge78" class="edge">
<title>requests&#45;&gt;hidebound.core.database</title>
<path fill="none" stroke="#de958e" d="M1610.983,-1513.7386C1630.4735,-1502.5355 1653.4869,-1486.5794 1669,-1467 1696.5248,-1432.2605 1683.8917,-1412.9729 1705,-1374 1736.2501,-1316.3019 1783.4565,-1255.5942 1810.9583,-1222.0946"/>
<polygon fill="#de958e" stroke="#de958e" points="1813.8265,-1224.1185 1817.504,-1214.1824 1808.4329,-1219.6564 1813.8265,-1224.1185"/>
</g>
<!-- requests&#45;&gt;hidebound.server.server_tools -->
<g id="edge79" class="edge">
<title>requests&#45;&gt;hidebound.server.server_tools</title>
<path fill="none" stroke="#de958e" d="M1614.6693,-1550.076C1634.2203,-1560.8769 1656.1466,-1576.5183 1669,-1597 1725.8662,-1687.6155 1635.0568,-1754.0501 1705,-1835 1710.3396,-1841.1798 1716.6266,-1846.3978 1723.5001,-1850.8016"/>
<polygon fill="#de958e" stroke="#de958e" points="1722.0765,-1854.0198 1732.493,-1855.9554 1725.5571,-1847.9464 1722.0765,-1854.0198"/>
</g>
<!-- dask.distributed -->
<g id="node36" class="node">
<title>dask.distributed</title>
<polygon fill="#343434" stroke="#343434" points="1648.5,-1214 1499.5,-1214 1499.5,-1178 1648.5,-1178 1648.5,-1214"/>
<text text-anchor="middle" x="1574" y="-1192.3" font-family="Courier,monospace" font-size="14.00" fill="#de958e">dask.distributed</text>
</g>
<!-- dask.distributed&#45;&gt;hidebound.core.database -->
<g id="edge80" class="edge">
<title>dask.distributed&#45;&gt;hidebound.core.database</title>
<path fill="none" stroke="#de958e" d="M1648.5661,-1196C1670.6646,-1196 1695.383,-1196 1719.3645,-1196"/>
<polygon fill="#de958e" stroke="#de958e" points="1719.5874,-1199.5001 1729.5874,-1196 1719.5874,-1192.5001 1719.5874,-1199.5001"/>
</g>
<!-- pandasql -->
<g id="node37" class="node">
<title>pandasql</title>
<polygon fill="#343434" stroke="#343434" points="1615.5,-1122 1532.5,-1122 1532.5,-1086 1615.5,-1086 1615.5,-1122"/>
<text text-anchor="middle" x="1574" y="-1100.3" font-family="Courier,monospace" font-size="14.00" fill="#de958e">pandasql</text>
</g>
<!-- pandasql&#45;&gt;hidebound.core.database -->
<g id="edge81" class="edge">
<title>pandasql&#45;&gt;hidebound.core.database</title>
<path fill="none" stroke="#de958e" d="M1615.6988,-1117.787C1632.3158,-1123.3487 1651.5949,-1129.8859 1669,-1136 1704.3845,-1148.4299 1743.8658,-1162.857 1775.2225,-1174.4488"/>
<polygon fill="#de958e" stroke="#de958e" points="1774.0864,-1177.7603 1784.6795,-1177.9499 1776.5167,-1171.1957 1774.0864,-1177.7603"/>
</g>
<!-- botocore.exceptions -->
<g id="node38" class="node">
<title>botocore.exceptions</title>
<polygon fill="#343434" stroke="#343434" points="1011,-704 838,-704 838,-668 1011,-668 1011,-704"/>
<text text-anchor="middle" x="924.5" y="-682.3" font-family="Courier,monospace" font-size="14.00" fill="#de958e">botocore.exceptions</text>
</g>
<!-- botocore.exceptions&#45;&gt;hidebound.exporters.s3_exporter -->
<g id="edge82" class="edge">
<title>botocore.exceptions&#45;&gt;hidebound.exporters.s3_exporter</title>
<path fill="none" stroke="#de958e" d="M1011.3423,-680.2851C1046.5665,-677.967 1088.2342,-675.2249 1127.8806,-672.6159"/>
<polygon fill="#de958e" stroke="#de958e" points="1128.163,-676.105 1137.9115,-671.9557 1127.7033,-669.1201 1128.163,-676.105"/>
</g>
<!-- lunchbox.tools -->
<g id="node39" class="node">
<title>lunchbox.tools</title>
<polygon fill="#343434" stroke="#343434" points="990.5,-1696 858.5,-1696 858.5,-1660 990.5,-1660 990.5,-1696"/>
<text text-anchor="middle" x="924.5" y="-1674.3" font-family="Courier,monospace" font-size="14.00" fill="#de958e">lunchbox.tools</text>
</g>
<!-- lunchbox.tools&#45;&gt;hidebound.core.database_tools -->
<g id="edge83" class="edge">
<title>lunchbox.tools&#45;&gt;hidebound.core.database_tools</title>
<path fill="none" stroke="#de958e" d="M990.6603,-1681.5767C1018.4898,-1679.4604 1048.9891,-1671.7662 1069,-1651 1144.4529,-1572.6989 1050.7596,-1503.2453 1105,-1409 1133.8732,-1358.8314 1189.2467,-1320.1338 1228.74,-1297.2819"/>
<polygon fill="#de958e" stroke="#de958e" points="1230.9302,-1300.0642 1237.9103,-1292.0937 1227.4832,-1293.9716 1230.9302,-1300.0642"/>
</g>
<!-- lunchbox.tools&#45;&gt;hidebound.server.server_tools -->
<g id="edge84" class="edge">
<title>lunchbox.tools&#45;&gt;hidebound.server.server_tools</title>
<path fill="none" stroke="#de958e" d="M958.5729,-1696.0392C1043.4937,-1739.8522 1272.5932,-1851.0559 1479,-1889 1553.2339,-1902.6465 1637.6313,-1899.7655 1705.3957,-1893.0653"/>
<polygon fill="#de958e" stroke="#de958e" points="1706.1076,-1896.5106 1715.6966,-1892.0049 1705.3908,-1889.5474 1706.1076,-1896.5106"/>
</g>
<!-- girder_client -->
<g id="node40" class="node">
<title>girder_client</title>
<polygon fill="#343434" stroke="#343434" points="986.5,-216 862.5,-216 862.5,-180 986.5,-180 986.5,-216"/>
<text text-anchor="middle" x="924.5" y="-194.3" font-family="Courier,monospace" font-size="14.00" fill="#de958e">girder_client</text>
</g>
<!-- girder_client&#45;&gt;hidebound.exporters.girder_exporter -->
<g id="edge85" class="edge">
<title>girder_client&#45;&gt;hidebound.exporters.girder_exporter</title>
<path fill="none" stroke="#de958e" d="M986.7259,-207.9505C1012.626,-213.0696 1042.7229,-220.3093 1069,-230 1130.8808,-252.8209 1197.4059,-290.9987 1237.3585,-315.5794"/>
<polygon fill="#de958e" stroke="#de958e" points="1235.6109,-318.614 1245.9539,-320.9107 1239.3006,-312.6654 1235.6109,-318.614"/>
</g>
<!-- numpy -->
<g id="node41" class="node">
<title>numpy</title>
<polygon fill="#343434" stroke="#343434" points="953.5,-1642 895.5,-1642 895.5,-1606 953.5,-1606 953.5,-1642"/>
<text text-anchor="middle" x="924.5" y="-1620.3" font-family="Courier,monospace" font-size="14.00" fill="#de958e">numpy</text>
</g>
<!-- numpy&#45;&gt;hidebound.core.database -->
<g id="edge86" class="edge">
<title>numpy&#45;&gt;hidebound.core.database</title>
<path fill="none" stroke="#de958e" d="M953.5867,-1626.2108C986.3483,-1626.9886 1038.9299,-1622.7912 1069,-1592 1126.9151,-1532.6961 1046.589,-1467.8156 1105,-1409 1127.5337,-1386.3102 1639.1846,-1305.5603 1669,-1294 1717.6201,-1275.1485 1768.3762,-1242.4898 1800.307,-1220.093"/>
<polygon fill="#de958e" stroke="#de958e" points="1802.6672,-1222.7099 1808.7966,-1214.0681 1798.6159,-1217.0014 1802.6672,-1222.7099"/>
</g>
<!-- numpy&#45;&gt;hidebound.core.database_tools -->
<g id="edge87" class="edge">
<title>numpy&#45;&gt;hidebound.core.database_tools</title>
<path fill="none" stroke="#de958e" d="M953.5713,-1626.468C986.5723,-1627.5259 1039.6229,-1623.6286 1069,-1592 1144.7975,-1510.3931 1036.6131,-1431.91 1105,-1344 1122.6173,-1321.3533 1148.849,-1305.9729 1175.4205,-1295.5506"/>
<polygon fill="#de958e" stroke="#de958e" points="1176.6593,-1298.8242 1184.8197,-1292.0671 1174.2266,-1292.2604 1176.6593,-1298.8242"/>
</g>
<!-- numpy&#45;&gt;hidebound.server.api -->
<g id="edge88" class="edge">
<title>numpy&#45;&gt;hidebound.server.api</title>
<path fill="none" stroke="#de958e" d="M953.6403,-1622.0803C1036.0511,-1616.7596 1277.8633,-1601.894 1479,-1597 1563.4195,-1594.9459 1586.3951,-1579.4701 1669,-1597 1686.1277,-1600.6347 1688.2125,-1608.0254 1705,-1613 1731.5791,-1620.8761 1882.4649,-1643.8634 1986.7221,-1659.26"/>
<polygon fill="#de958e" stroke="#de958e" points="1986.2566,-1662.7291 1996.6602,-1660.7255 1987.2778,-1655.804 1986.2566,-1662.7291"/>
</g>
<!-- json_logging -->
<g id="node42" class="node">
<title>json_logging</title>
<polygon fill="#343434" stroke="#343434" points="448,-1902 332,-1902 332,-1866 448,-1866 448,-1902"/>
<text text-anchor="middle" x="390" y="-1880.3" font-family="Courier,monospace" font-size="14.00" fill="#de958e">json_logging</text>
</g>
<!-- json_logging&#45;&gt;hidebound.core.logging -->
<g id="edge89" class="edge">
<title>json_logging&#45;&gt;hidebound.core.logging</title>
<path fill="none" stroke="#de958e" d="M448.0848,-1879.449C470.5981,-1877.6851 497.1424,-1875.6053 522.9707,-1873.5817"/>
<polygon fill="#de958e" stroke="#de958e" points="523.5113,-1877.0501 533.2073,-1872.7796 522.9644,-1870.0715 523.5113,-1877.0501"/>
</g>
<!-- hidebound.exporters -->
<g id="node43" class="node">
<title>hidebound.exporters</title>
<polygon fill="#343434" stroke="#343434" points="719,-364 546,-364 546,-328 719,-328 719,-364"/>
<text text-anchor="middle" x="632.5" y="-342.3" font-family="Courier,monospace" font-size="14.00" fill="#a0d17b">hidebound.exporters</text>
</g>
<!-- hidebound.exporters&#45;&gt;hidebound.exporters.exporter_base -->
<g id="edge90" class="edge">
<title>hidebound.exporters&#45;&gt;hidebound.exporters.exporter_base</title>
<path fill="none" stroke="#a0d17b" d="M712.3258,-364.0184C723.0324,-366.8172 733.8245,-369.8373 744,-373 788.1128,-386.7112 836.9914,-405.6348 872.7468,-420.1969"/>
<polygon fill="#a0d17b" stroke="#a0d17b" points="871.4247,-423.4375 882.0051,-423.9894 874.0782,-416.9599 871.4247,-423.4375"/>
</g>
<!-- hidebound.exporters&#45;&gt;hidebound.exporters.girder_exporter -->
<g id="edge91" class="edge">
<title>hidebound.exporters&#45;&gt;hidebound.exporters.girder_exporter</title>
<path fill="none" stroke="#a0d17b" d="M636.7849,-327.996C649.2255,-280.2879 690.3074,-150.8008 780,-100 891.7629,-36.6989 952.2973,-46.3487 1069,-100 1165.5557,-144.3892 1233.6809,-259.1822 1260.8755,-311.8558"/>
<polygon fill="#a0d17b" stroke="#a0d17b" points="1257.8341,-313.5973 1265.4746,-320.9372 1264.079,-310.4347 1257.8341,-313.5973"/>
</g>
<!-- hidebound.exporters&#45;&gt;hidebound.exporters.local_disk_exporter -->
<g id="edge92" class="edge">
<title>hidebound.exporters&#45;&gt;hidebound.exporters.local_disk_exporter</title>
<path fill="none" stroke="#a0d17b" d="M719.0794,-348.922C808.0761,-353.5445 950.0569,-365.4426 1069,-396 1126.1975,-410.6945 1188.5272,-437.9789 1229.2578,-457.4653"/>
<polygon fill="#a0d17b" stroke="#a0d17b" points="1227.8433,-460.6689 1238.3701,-461.8674 1230.8883,-454.3659 1227.8433,-460.6689"/>
</g>
<!-- hidebound.exporters&#45;&gt;hidebound.exporters.s3_exporter -->
<g id="edge93" class="edge">
<title>hidebound.exporters&#45;&gt;hidebound.exporters.s3_exporter</title>
<path fill="none" stroke="#a0d17b" d="M719.277,-349.6618C830.8615,-356.0377 1016.5365,-372.8091 1069,-415 1103.2162,-442.5165 1080.2374,-470.741 1105,-507 1142.3699,-561.7194 1202.3067,-611.0497 1239.8496,-638.9839"/>
<polygon fill="#a0d17b" stroke="#a0d17b" points="1237.8334,-641.8457 1247.964,-644.9478 1241.979,-636.2053 1237.8334,-641.8457"/>
</g>
<!-- schematics -->
<g id="node44" class="node">
<title>schematics</title>
<polygon fill="#343434" stroke="#343434" points="682,-418 583,-418 583,-382 682,-382 682,-418"/>
<text text-anchor="middle" x="632.5" y="-396.3" font-family="Courier,monospace" font-size="14.00" fill="#de958e">schematics</text>
</g>
<!-- schematics&#45;&gt;hidebound.core.config -->
<g id="edge94" class="edge">
<title>schematics&#45;&gt;hidebound.core.config</title>
<path fill="none" stroke="#de958e" d="M682.1354,-399.9567C704.1234,-397.2556 728.4725,-390.108 744,-373 820.6279,-288.5721 693.9065,-193.7517 780,-119 891.6465,-22.0616 1332.6804,-76.5543 1443,-175 1513.5059,-237.9172 1558.1214,-540.5703 1570.4874,-634.8786"/>
<polygon fill="#de958e" stroke="#de958e" points="1567.0203,-635.3594 1571.773,-644.8284 1573.9626,-634.4623 1567.0203,-635.3594"/>
</g>
<!-- schematics&#45;&gt;hidebound.core.specification_base -->
<g id="edge95" class="edge">
<title>schematics&#45;&gt;hidebound.core.specification_base</title>
<path fill="none" stroke="#de958e" d="M682.1235,-399.7658C704.2465,-402.3859 728.7113,-409.5456 744,-427 794.0617,-484.153 746.8447,-698.638 780,-767 804.2531,-817.0068 853.8978,-859.1596 888.1754,-884.0032"/>
<polygon fill="#de958e" stroke="#de958e" points="886.3547,-887.003 896.5341,-889.9407 890.4084,-881.2962 886.3547,-887.003"/>
</g>
<!-- schematics&#45;&gt;hidebound.exporters.exporter_base -->
<g id="edge96" class="edge">
<title>schematics&#45;&gt;hidebound.exporters.exporter_base</title>
<path fill="none" stroke="#de958e" d="M682.0338,-407.1247C711.6081,-411.3786 750.741,-417.0073 788.9189,-422.4986"/>
<polygon fill="#de958e" stroke="#de958e" points="788.727,-426.0069 799.1235,-423.9664 789.7236,-419.0783 788.727,-426.0069"/>
</g>
<!-- schematics&#45;&gt;hidebound.exporters.girder_exporter -->
<g id="edge97" class="edge">
<title>schematics&#45;&gt;hidebound.exporters.girder_exporter</title>
<path fill="none" stroke="#de958e" d="M682.1483,-399.6707C704.0033,-396.889 728.2389,-389.7566 744,-373 806.4793,-306.5742 710.0889,-229.5533 780,-171 878.4698,-88.5277 948.0488,-127.7705 1069,-171 1148.4901,-199.4107 1219.3265,-273.3749 1253.0917,-313.0152"/>
<polygon fill="#de958e" stroke="#de958e" points="1250.6166,-315.5107 1259.7239,-320.9243 1255.9803,-311.0129 1250.6166,-315.5107"/>
</g>
<!-- schematics.types -->
<g id="node45" class="node">
<title>schematics.types</title>
<polygon fill="#343434" stroke="#343434" points="707,-472 558,-472 558,-436 707,-436 707,-472"/>
<text text-anchor="middle" x="632.5" y="-450.3" font-family="Courier,monospace" font-size="14.00" fill="#de958e">schematics.types</text>
</g>
<!-- schematics.types&#45;&gt;hidebound.core.config -->
<g id="edge98" class="edge">
<title>schematics.types&#45;&gt;hidebound.core.config</title>
<path fill="none" stroke="#de958e" d="M707.0002,-448.8472C720.9715,-444.5954 734.2342,-437.7716 744,-427 821.1732,-341.8785 693.2828,-246.3758 780,-171 876.9417,-86.7369 942.6368,-147.9713 1069,-171 1243.7643,-202.8494 1317.5962,-186.1793 1443,-312 1535.6439,-404.9519 1563.6279,-569.4197 1571.3268,-634.9317"/>
<polygon fill="#de958e" stroke="#de958e" points="1567.8537,-635.3687 1572.4317,-644.9234 1574.8113,-634.5993 1567.8537,-635.3687"/>
</g>
<!-- schematics.types&#45;&gt;hidebound.core.specification_base -->
<g id="edge99" class="edge">
<title>schematics.types&#45;&gt;hidebound.core.specification_base</title>
<path fill="none" stroke="#de958e" d="M639.0856,-472.2494C665.9708,-546.6018 766.6204,-823.441 780,-838 799.7388,-859.4787 827.4863,-875.0944 853.3964,-886.0513"/>
<polygon fill="#de958e" stroke="#de958e" points="852.2585,-889.3666 862.8409,-889.8795 854.8881,-882.8793 852.2585,-889.3666"/>
</g>
<!-- schematics.types&#45;&gt;hidebound.core.specifications -->
<g id="edge100" class="edge">
<title>schematics.types&#45;&gt;hidebound.core.specifications</title>
<path fill="none" stroke="#de958e" d="M635.4764,-472.1745C645.3075,-526.1523 681.8942,-686.7431 780,-767 882.3724,-850.7473 942.0706,-800.816 1069,-838 1118.9517,-852.6334 1174.8116,-871.9045 1215.5908,-886.5213"/>
<polygon fill="#de958e" stroke="#de958e" points="1214.5024,-889.8494 1225.0968,-889.9423 1216.8727,-883.2629 1214.5024,-889.8494"/>
</g>
<!-- schematics.types&#45;&gt;hidebound.exporters.exporter_base -->
<g id="edge101" class="edge">
<title>schematics.types&#45;&gt;hidebound.exporters.exporter_base</title>
<path fill="none" stroke="#de958e" d="M707.3181,-450.9253C726.5004,-450.137 747.8533,-449.2595 769.4711,-448.3711"/>
<polygon fill="#de958e" stroke="#de958e" points="769.9065,-451.8562 779.7544,-447.9485 769.6191,-444.8621 769.9065,-451.8562"/>
</g>
<!-- schematics.types&#45;&gt;hidebound.exporters.girder_exporter -->
<g id="edge102" class="edge">
<title>schematics.types&#45;&gt;hidebound.exporters.girder_exporter</title>
<path fill="none" stroke="#de958e" d="M707.1468,-441.1266C719.8234,-437.4909 732.5712,-432.8666 744,-427 762.7844,-417.3577 760.6598,-404.4725 780,-396 884.0706,-350.4093 1011.6942,-336.6294 1111.1507,-334.0022"/>
<polygon fill="#de958e" stroke="#de958e" points="1111.3786,-337.498 1121.2959,-333.7702 1111.2185,-330.4999 1111.3786,-337.498"/>
</g>
<!-- schematics.types&#45;&gt;hidebound.exporters.local_disk_exporter -->
<g id="edge103" class="edge">
<title>schematics.types&#45;&gt;hidebound.exporters.local_disk_exporter</title>
<path fill="none" stroke="#de958e" d="M707.0997,-436.8565C719.4713,-433.7499 732.1312,-430.4086 744,-427 760.2102,-422.3446 763.3523,-417.7016 780,-415 906.7859,-394.4255 942.0663,-395.3582 1069,-415 1122.117,-423.2194 1180.3208,-442.7493 1221.0933,-458.2698"/>
<polygon fill="#de958e" stroke="#de958e" points="1219.962,-461.5847 1230.5517,-461.9174 1222.4808,-455.0536 1219.962,-461.5847"/>
</g>
<!-- schematics.types&#45;&gt;hidebound.exporters.s3_exporter -->
<g id="edge104" class="edge">
<title>schematics.types&#45;&gt;hidebound.exporters.s3_exporter</title>
<path fill="none" stroke="#de958e" d="M687.7491,-472.0001C805.9324,-510.5041 1082.775,-600.6991 1209.0955,-641.8542"/>
<polygon fill="#de958e" stroke="#de958e" points="1208.0639,-645.1991 1218.6563,-644.9691 1210.2324,-638.5434 1208.0639,-645.1991"/>
</g>
<!-- wrapt -->
<g id="node46" class="node">
<title>wrapt</title>
<polygon fill="#343434" stroke="#343434" points="419,-802 361,-802 361,-766 419,-766 419,-802"/>
<text text-anchor="middle" x="390" y="-780.3" font-family="Courier,monospace" font-size="14.00" fill="#de958e">wrapt</text>
</g>
<!-- wrapt&#45;&gt;hidebound.core.validators -->
<g id="edge105" class="edge">
<title>wrapt&#45;&gt;hidebound.core.validators</title>
<path fill="none" stroke="#de958e" d="M419.2512,-784C442.4686,-784 476.6038,-784 510.7879,-784"/>
<polygon fill="#de958e" stroke="#de958e" points="510.9021,-787.5001 520.9021,-784 510.902,-780.5001 510.9021,-787.5001"/>
</g>
<!-- pyparsing -->
<g id="node47" class="node">
<title>pyparsing</title>
<polygon fill="#343434" stroke="#343434" points="238.5,-848 147.5,-848 147.5,-812 238.5,-812 238.5,-848"/>
<text text-anchor="middle" x="193" y="-826.3" font-family="Courier,monospace" font-size="14.00" fill="#de958e">pyparsing</text>
</g>
<!-- pyparsing&#45;&gt;hidebound.core.parser -->
<g id="edge106" class="edge">
<title>pyparsing&#45;&gt;hidebound.core.parser</title>
<path fill="none" stroke="#de958e" d="M235.2614,-848.0201C265.411,-860.8757 306.132,-878.239 338.2331,-891.9268"/>
<polygon fill="#de958e" stroke="#de958e" points="336.8975,-895.1622 347.469,-895.865 339.6431,-888.7231 336.8975,-895.1622"/>
</g>
<!-- pyparsing&#45;&gt;hidebound.core.specification_base -->
<g id="edge107" class="edge">
<title>pyparsing&#45;&gt;hidebound.core.specification_base</title>
<path fill="none" stroke="#de958e" d="M238.7586,-834.8792C342.8981,-845.9837 601.58,-873.567 769.7715,-891.5013"/>
<polygon fill="#de958e" stroke="#de958e" points="769.649,-895.008 779.9638,-892.5881 770.3913,-888.0474 769.649,-895.008"/>
</g>
<!-- pyparsing&#45;&gt;hidebound.core.validators -->
<g id="edge108" class="edge">
<title>pyparsing&#45;&gt;hidebound.core.validators</title>
<path fill="none" stroke="#de958e" d="M210.923,-811.7292C229.8807,-793.8257 261.6177,-767.7149 295,-757 384.6196,-728.2343 494.1692,-746.0171 563.6544,-763.3716"/>
<polygon fill="#de958e" stroke="#de958e" points="563.0526,-766.8304 573.6085,-765.9234 564.7909,-760.0497 563.0526,-766.8304"/>
</g>
<!-- pandas -->
<g id="node48" class="node">
<title>pandas</title>
<polygon fill="#343434" stroke="#343434" points="423,-1452 357,-1452 357,-1416 423,-1416 423,-1452"/>
<text text-anchor="middle" x="390" y="-1430.3" font-family="Courier,monospace" font-size="14.00" fill="#de958e">pandas</text>
</g>
<!-- pandas&#45;&gt;hidebound.core.database -->
<g id="edge109" class="edge">
<title>pandas&#45;&gt;hidebound.core.database</title>
<path fill="none" stroke="#de958e" d="M423.3496,-1428.2925C486.3072,-1417.3425 626.8643,-1392.0599 744,-1365 889.6932,-1331.3429 936.8005,-1347.8755 1069,-1278 1087.6674,-1268.1331 1086.9772,-1258.0003 1105,-1247 1243.3576,-1162.5527 1305.9696,-1196.5842 1443,-1110 1461.3491,-1098.4059 1458.7714,-1084.8686 1479,-1077 1557.7001,-1046.3869 1588.6806,-1050.9298 1669,-1077 1725.5153,-1095.3439 1778.8471,-1141.285 1808.5939,-1170.421"/>
<polygon fill="#de958e" stroke="#de958e" points="1806.4373,-1173.2134 1815.989,-1177.7977 1811.3809,-1168.2574 1806.4373,-1173.2134"/>
</g>
<!-- pandas&#45;&gt;hidebound.core.database_tools -->
<g id="edge110" class="edge">
<title>pandas&#45;&gt;hidebound.core.database_tools</title>
<path fill="none" stroke="#de958e" d="M423.3149,-1436.995C545.5375,-1447.272 967.4484,-1476.2737 1069,-1397 1103.285,-1370.2363 1071.4721,-1333.7062 1105,-1306 1114.3515,-1298.2723 1124.9909,-1292.1914 1136.274,-1287.4292"/>
<polygon fill="#de958e" stroke="#de958e" points="1137.8115,-1290.5879 1145.889,-1283.7319 1135.2991,-1284.0543 1137.8115,-1290.5879"/>
</g>
<!-- pandas&#45;&gt;hidebound.core.tools -->
<g id="edge111" class="edge">
<title>pandas&#45;&gt;hidebound.core.tools</title>
<path fill="none" stroke="#de958e" d="M404.9013,-1415.5754C425.8928,-1388.6997 463.953,-1336.4378 485,-1286 513.2367,-1218.3325 469.6113,-1177.301 521,-1125 524.481,-1121.4572 528.3419,-1118.3483 532.4756,-1115.6226"/>
<polygon fill="#de958e" stroke="#de958e" points="534.3808,-1118.5647 541.3094,-1110.5494 530.8947,-1112.4945 534.3808,-1118.5647"/>
</g>
<!-- pandas&#45;&gt;hidebound.core.validators -->
<g id="edge112" class="edge">
<title>pandas&#45;&gt;hidebound.core.validators</title>
<path fill="none" stroke="#de958e" d="M405.2735,-1415.7249C426.7177,-1389.0309 465.3244,-1336.9884 485,-1286 519.8799,-1195.6105 495.3229,-1164.4214 521,-1071 548.0275,-972.6654 596.6961,-861.5019 619.7397,-811.2439"/>
<polygon fill="#de958e" stroke="#de958e" points="622.9811,-812.5727 623.9927,-802.0263 616.6251,-809.64 622.9811,-812.5727"/>
</g>
<!-- pandas&#45;&gt;hidebound.server.components -->
<g id="edge113" class="edge">
<title>pandas&#45;&gt;hidebound.server.components</title>
<path fill="none" stroke="#de958e" d="M423.4047,-1445.3948C442.2352,-1452.5455 465.7658,-1462.7319 485,-1475 633.0913,-1569.4569 617.4207,-1671.5086 780,-1738 1146.1359,-1887.7416 1275.6368,-1739.2457 1669,-1781 1687.1206,-1782.9234 1706.2808,-1785.5409 1724.8651,-1788.393"/>
<polygon fill="#de958e" stroke="#de958e" points="1724.3991,-1791.8626 1734.82,-1789.9508 1725.4814,-1784.9467 1724.3991,-1791.8626"/>
</g>
<!-- jsoncomment -->
<g id="node49" class="node">
<title>jsoncomment</title>
<polygon fill="#343434" stroke="#343434" points="443.5,-544 336.5,-544 336.5,-508 443.5,-508 443.5,-544"/>
<text text-anchor="middle" x="390" y="-522.3" font-family="Courier,monospace" font-size="14.00" fill="#de958e">jsoncomment</text>
</g>
<!-- jsoncomment&#45;&gt;hidebound.core.database -->
<g id="edge114" class="edge">
<title>jsoncomment&#45;&gt;hidebound.core.database</title>
<path fill="none" stroke="#de958e" d="M443.647,-516.6844C607.3966,-491.1663 1109.8599,-434.745 1443,-636 1467.6889,-650.915 1459.6092,-668.6459 1479,-690 1552.2622,-770.6796 1602.0281,-759.0273 1669,-845 1751.6162,-951.0555 1805.1972,-1105.466 1824.7207,-1168.0758"/>
<polygon fill="#de958e" stroke="#de958e" points="1821.3811,-1169.1236 1827.6638,-1177.6545 1828.0724,-1167.0676 1821.3811,-1169.1236"/>
</g>
<!-- jsoncomment&#45;&gt;hidebound.core.tools -->
<g id="edge115" class="edge">
<title>jsoncomment&#45;&gt;hidebound.core.tools</title>
<path fill="none" stroke="#de958e" d="M397.6581,-544.0636C432.7617,-626.8648 578.3935,-970.3756 620.8405,-1070.4981"/>
<polygon fill="#de958e" stroke="#de958e" points="617.7144,-1072.0915 624.8401,-1079.9321 624.1592,-1069.3592 617.7144,-1072.0915"/>
</g>
<!-- jsoncomment&#45;&gt;hidebound.server.extension -->
<g id="edge116" class="edge">
<title>jsoncomment&#45;&gt;hidebound.server.extension</title>
<path fill="none" stroke="#de958e" d="M397.3859,-507.8939C436.4369,-415.402 628.3113,0 924.5,0 924.5,0 924.5,0 1833,0 2148.1566,0 2303.7166,-1231.6161 2327.3149,-1435.5556"/>
<polygon fill="#de958e" stroke="#de958e" points="2323.8679,-1436.2181 2328.4836,-1445.7546 2330.8223,-1435.4212 2323.8679,-1436.2181"/>
</g>
<!-- OpenEXR -->
<g id="node50" class="node">
<title>OpenEXR</title>
<polygon fill="#343434" stroke="#343434" points="427,-1116 353,-1116 353,-1080 427,-1080 427,-1116"/>
<text text-anchor="middle" x="390" y="-1094.3" font-family="Courier,monospace" font-size="14.00" fill="#de958e">OpenEXR</text>
</g>
<!-- OpenEXR&#45;&gt;hidebound.core.tools -->
<g id="edge117" class="edge">
<title>OpenEXR&#45;&gt;hidebound.core.tools</title>
<path fill="none" stroke="#de958e" d="M427.0945,-1098C454.8668,-1098 494.2626,-1098 531.1359,-1098"/>
<polygon fill="#de958e" stroke="#de958e" points="531.4574,-1101.5001 541.4574,-1098 531.4574,-1094.5001 531.4574,-1101.5001"/>
</g>
<!-- dask.dataframe -->
<g id="node51" class="node">
<title>dask.dataframe</title>
<polygon fill="#343434" stroke="#343434" points="456,-1520 324,-1520 324,-1484 456,-1484 456,-1520"/>
<text text-anchor="middle" x="390" y="-1498.3" font-family="Courier,monospace" font-size="14.00" fill="#de958e">dask.dataframe</text>
</g>
<!-- dask.dataframe&#45;&gt;hidebound.core.database -->
<g id="edge118" class="edge">
<title>dask.dataframe&#45;&gt;hidebound.core.database</title>
<path fill="none" stroke="#de958e" d="M456.145,-1512.2716C476.8561,-1515.0333 499.8304,-1517.6321 521,-1519 619.9049,-1525.3907 645.0396,-1524.4642 744,-1519 889.1069,-1510.9878 959.9359,-1579.048 1069,-1483 1120.1278,-1437.9741 1053.5808,-1378.6928 1105,-1334 1161.9595,-1284.4917 1368.5167,-1313.153 1443,-1301 1468.4309,-1296.8506 1644.1619,-1255.8571 1669,-1249 1703.0946,-1239.5874 1740.6695,-1227.5671 1771.2413,-1217.3542"/>
<polygon fill="#de958e" stroke="#de958e" points="1772.5427,-1220.6094 1780.9079,-1214.1075 1770.3139,-1213.9736 1772.5427,-1220.6094"/>
</g>
<!-- dask.dataframe&#45;&gt;hidebound.core.database_tools -->
<g id="edge119" class="edge">
<title>dask.dataframe&#45;&gt;hidebound.core.database_tools</title>
<path fill="none" stroke="#de958e" d="M456.2341,-1504.8359C608.5318,-1509.9486 977.5591,-1513.867 1069,-1437 1115.2197,-1398.1468 1060.6096,-1346.9307 1105,-1306 1114.181,-1297.5345 1124.8725,-1290.9809 1136.3358,-1285.9405"/>
<polygon fill="#de958e" stroke="#de958e" points="1137.6878,-1289.1694 1145.6806,-1282.2149 1135.0954,-1282.6671 1137.6878,-1289.1694"/>
</g>
<!-- dask.dataframe&#45;&gt;hidebound.core.tools -->
<g id="edge120" class="edge">
<title>dask.dataframe&#45;&gt;hidebound.core.tools</title>
<path fill="none" stroke="#de958e" d="M456.2458,-1484.3028C467.3565,-1478.5563 477.6472,-1470.9783 485,-1461 574.0943,-1340.0924 421.971,-1237.9146 521,-1125 524.4812,-1121.0307 528.4369,-1117.5939 532.7316,-1114.6219"/>
<polygon fill="#de958e" stroke="#de958e" points="534.5816,-1117.5938 541.3728,-1109.4617 530.9926,-1111.5839 534.5816,-1117.5938"/>
</g>
<!-- schematics.exceptions -->
<g id="node52" class="node">
<title>schematics.exceptions</title>
<polygon fill="#343434" stroke="#343434" points="485,-1277 295,-1277 295,-1241 485,-1241 485,-1277"/>
<text text-anchor="middle" x="390" y="-1255.3" font-family="Courier,monospace" font-size="14.00" fill="#de958e">schematics.exceptions</text>
</g>
<!-- schematics.exceptions&#45;&gt;hidebound.core.config -->
<g id="edge121" class="edge">
<title>schematics.exceptions&#45;&gt;hidebound.core.config</title>
<path fill="none" stroke="#de958e" d="M485.2212,-1264.1769C660.7503,-1272.8874 1021.802,-1286.6101 1069,-1255 1103.428,-1231.9424 1076.8442,-1199.4005 1105,-1169 1219.6701,-1045.1881 1329.6764,-1121.0455 1443,-996 1526.212,-904.1807 1559.2813,-753.2895 1569.8296,-691.1178"/>
<polygon fill="#de958e" stroke="#de958e" points="1573.284,-691.68 1571.4395,-681.247 1566.3753,-690.5532 1573.284,-691.68"/>
</g>
<!-- schematics.exceptions&#45;&gt;hidebound.core.database_tools -->
<g id="edge122" class="edge">
<title>schematics.exceptions&#45;&gt;hidebound.core.database_tools</title>
<path fill="none" stroke="#de958e" d="M471.0453,-1277.0189C487.5702,-1280.6711 504.842,-1284.4726 521,-1288 620.0483,-1309.6231 652.1259,-1293.1366 744,-1336 762.369,-1344.57 760.8274,-1357.4217 780,-1364 901.4922,-1405.6849 956.7539,-1426.4402 1069,-1364 1095.5135,-1349.2511 1079.9805,-1323.1615 1105,-1306 1114.5231,-1299.4679 1125.0255,-1294.179 1135.9941,-1289.9069"/>
<polygon fill="#de958e" stroke="#de958e" points="1137.5107,-1293.0813 1145.7404,-1286.4086 1135.1458,-1286.4928 1137.5107,-1293.0813"/>
</g>
<!-- schematics.exceptions&#45;&gt;hidebound.core.specification_base -->
<g id="edge123" class="edge">
<title>schematics.exceptions&#45;&gt;hidebound.core.specification_base</title>
<path fill="none" stroke="#de958e" d="M403.0738,-1240.91C421.5456,-1215.2718 456.2398,-1166.8268 485,-1125 501.3428,-1101.2321 499.0137,-1089.6709 521,-1071 603.9334,-1000.5722 651.8168,-1027.7951 744,-970 761.646,-958.9367 761.3039,-949.1778 780,-940 788.3882,-935.8823 797.3093,-932.2887 806.4426,-929.1534"/>
<polygon fill="#de958e" stroke="#de958e" points="807.5894,-932.461 816.0238,-926.0493 805.4319,-925.8018 807.5894,-932.461"/>
</g>
<!-- schematics.exceptions&#45;&gt;hidebound.core.tools -->
<g id="edge124" class="edge">
<title>schematics.exceptions&#45;&gt;hidebound.core.tools</title>
<path fill="none" stroke="#de958e" d="M409.3449,-1240.885C428.8441,-1222.4361 459.6046,-1192.8106 485,-1166 501.6762,-1148.3945 500.2497,-1137.5489 521,-1125 524.595,-1122.8259 528.3545,-1120.8268 532.2272,-1118.9885"/>
<polygon fill="#de958e" stroke="#de958e" points="533.6667,-1122.1793 541.4442,-1114.9847 530.8776,-1115.7588 533.6667,-1122.1793"/>
</g>
<!-- schematics.exceptions&#45;&gt;hidebound.core.validators -->
<g id="edge125" class="edge">
<title>schematics.exceptions&#45;&gt;hidebound.core.validators</title>
<path fill="none" stroke="#de958e" d="M406.265,-1240.8676C427.4405,-1216.3235 464.1945,-1170.3613 485,-1125 512.6826,-1064.6447 496.3528,-1041.6571 521,-980 546.5867,-915.9927 589.7241,-847.3116 614.1647,-810.6664"/>
<polygon fill="#de958e" stroke="#de958e" points="617.2752,-812.3131 619.9536,-802.0623 611.4674,-808.4055 617.2752,-812.3131"/>
</g>
<!-- schematics.exceptions&#45;&gt;hidebound.server.api -->
<g id="edge126" class="edge">
<title>schematics.exceptions&#45;&gt;hidebound.server.api</title>
<path fill="none" stroke="#de958e" d="M423.6846,-1277.0105C503.9927,-1320.6252 703.0796,-1432.9536 744,-1496 795.3161,-1575.0633 707.9151,-1644.2701 780,-1705 829.1153,-1746.3785 1004.79,-1706.2524 1069,-1705 1251.3262,-1701.4438 1296.7314,-1694.8008 1479,-1689 1657.594,-1683.3161 1865.7083,-1678.6012 1986.5911,-1676.052"/>
<polygon fill="#de958e" stroke="#de958e" points="1987.0113,-1679.5441 1996.9356,-1675.8347 1986.8642,-1672.5456 1987.0113,-1679.5441"/>
</g>
<!-- hidebound -->
<g id="node53" class="node">
<title>hidebound</title>
<polygon fill="#343434" stroke="#343434" points="91,-1197 0,-1197 0,-1161 91,-1161 91,-1197"/>
<text text-anchor="middle" x="45.5" y="-1175.3" font-family="Courier,monospace" font-size="14.00" fill="#a0d17b">hidebound</text>
</g>
<!-- hidebound&#45;&gt;hidebound.server -->
<g id="edge127" class="edge">
<title>hidebound&#45;&gt;hidebound.server</title>
<path fill="none" stroke="#a0d17b" d="M48.2901,-1197.4061C68.2218,-1325.5959 193.8533,-2080 390,-2080 390,-2080 390,-2080 924.5,-2080 1127.1323,-2080 1365.3178,-2081.9709 1489.301,-2083.1458"/>
<polygon fill="#a0d17b" stroke="#a0d17b" points="1489.4503,-2086.6473 1499.4833,-2083.2429 1489.5171,-2079.6476 1489.4503,-2086.6473"/>
</g>
<!-- hidebound&#45;&gt;hidebound.exporters -->
<g id="edge128" class="edge">
<title>hidebound&#45;&gt;hidebound.exporters</title>
<path fill="none" stroke="#a0d17b" d="M83.3702,-1160.755C86.3001,-1158.1603 88.9214,-1155.25 91,-1152 133.0088,-1086.318 103.6744,-877.3961 127,-803 173.1832,-655.7002 186.0481,-608.36 295,-499 376.1654,-417.5306 413.911,-414.917 521,-373 526.4061,-370.8839 532.0267,-368.8997 537.7428,-367.0447"/>
<polygon fill="#a0d17b" stroke="#a0d17b" points="538.9145,-370.3459 547.4317,-364.0445 536.8439,-363.6591 538.9145,-370.3459"/>
</g>
<!-- hidebound.core -->
<g id="node54" class="node">
<title>hidebound.core</title>
<polygon fill="#343434" stroke="#343434" points="259,-1197 127,-1197 127,-1161 259,-1161 259,-1197"/>
<text text-anchor="middle" x="193" y="-1175.3" font-family="Courier,monospace" font-size="14.00" fill="#a0d17b">hidebound.core</text>
</g>
<!-- hidebound&#45;&gt;hidebound.core -->
<g id="edge129" class="edge">
<title>hidebound&#45;&gt;hidebound.core</title>
<path fill="none" stroke="#a0d17b" d="M91.3614,-1179C99.4456,-1179 108.0541,-1179 116.7093,-1179"/>
<polygon fill="#a0d17b" stroke="#a0d17b" points="116.8627,-1182.5001 126.8626,-1179 116.8626,-1175.5001 116.8627,-1182.5001"/>
</g>
<!-- hidebound.core&#45;&gt;hidebound.core.config -->
<g id="edge130" class="edge">
<title>hidebound.core&#45;&gt;hidebound.core.config</title>
<path fill="none" stroke="#a0d17b" d="M204.2148,-1160.7752C220.6946,-1135.7816 253.9867,-1091.6243 295,-1071 409.755,-1013.2934 1338.4548,-1009.6262 1443,-935 1526.5609,-875.3527 1558.9428,-747.7428 1569.544,-691.0922"/>
<polygon fill="#a0d17b" stroke="#a0d17b" points="1573.023,-691.519 1571.3302,-681.0603 1566.1314,-690.2919 1573.023,-691.519"/>
</g>
<!-- hidebound.core&#45;&gt;hidebound.core.database -->
<g id="edge131" class="edge">
<title>hidebound.core&#45;&gt;hidebound.core.database</title>
<path fill="none" stroke="#a0d17b" d="M195.3362,-1197.2316C204.6147,-1266.897 241.0026,-1515.1154 295,-1570 451.921,-1729.4992 558.3079,-1674.7215 780,-1705 907.263,-1722.3815 972.3191,-1789.5623 1069,-1705 1159.4609,-1625.8781 1020.7116,-1522.6675 1105,-1437 1158.2752,-1382.8532 1370.0813,-1407.2835 1443,-1386 1459.8078,-1381.0941 1462.4097,-1375.5973 1479,-1370 1561.2268,-1342.2581 1590.8411,-1362.71 1669,-1325 1724.041,-1298.4439 1777.7597,-1250.8669 1807.9958,-1221.5071"/>
<polygon fill="#a0d17b" stroke="#a0d17b" points="1810.4871,-1223.966 1815.1636,-1214.4591 1805.5792,-1218.9747 1810.4871,-1223.966"/>
</g>
<!-- hidebound.core&#45;&gt;hidebound.core.database_tools -->
<g id="edge132" class="edge">
<title>hidebound.core&#45;&gt;hidebound.core.database_tools</title>
<path fill="none" stroke="#a0d17b" d="M195.4273,-1197.1094C204.6505,-1262.9042 239.8142,-1487.6012 295,-1529 432.8315,-1632.3972 939.8639,-1597.0718 1069,-1483 1120.7074,-1437.3245 1058.6265,-1383.0823 1105,-1332 1119.7362,-1315.7675 1139.2167,-1304.0772 1159.6987,-1295.6583"/>
<polygon fill="#a0d17b" stroke="#a0d17b" points="1161.0901,-1298.8731 1169.1664,-1292.0158 1158.5765,-1292.34 1161.0901,-1298.8731"/>
</g>
<!-- hidebound.core&#45;&gt;hidebound.core.logging -->
<g id="edge133" class="edge">
<title>hidebound.core&#45;&gt;hidebound.core.logging</title>
<path fill="none" stroke="#a0d17b" d="M193.1524,-1197.2222C194.3347,-1291.6633 204.6756,-1724.5111 295,-1814 311.2721,-1830.1215 431.0015,-1845.373 523.2823,-1854.9246"/>
<polygon fill="#a0d17b" stroke="#a0d17b" points="522.9495,-1858.4087 533.254,-1855.9457 523.6626,-1851.4451 522.9495,-1858.4087"/>
</g>
<!-- hidebound.core&#45;&gt;hidebound.core.parser -->
<g id="edge134" class="edge">
<title>hidebound.core&#45;&gt;hidebound.core.parser</title>
<path fill="none" stroke="#a0d17b" d="M195.8055,-1160.9599C203.4914,-1117.5795 228.8964,-1006.5446 295,-946 298.5815,-942.7197 302.511,-939.7743 306.6702,-937.1298"/>
<polygon fill="#a0d17b" stroke="#a0d17b" points="308.5293,-940.099 315.4919,-932.1132 305.069,-934.014 308.5293,-940.099"/>
</g>
<!-- hidebound.core&#45;&gt;hidebound.core.specification_base -->
<g id="edge135" class="edge">
<title>hidebound.core&#45;&gt;hidebound.core.specification_base</title>
<path fill="none" stroke="#a0d17b" d="M199.0617,-1160.9095C211.3837,-1127.0767 242.7073,-1054.368 295,-1018 333.9222,-990.9308 601.5151,-950.969 775.0584,-927.3997"/>
<polygon fill="#a0d17b" stroke="#a0d17b" points="775.6166,-930.8561 785.0565,-926.0458 774.6772,-923.9194 775.6166,-930.8561"/>
</g>
<!-- hidebound.core&#45;&gt;hidebound.core.specifications -->
<g id="edge136" class="edge">
<title>hidebound.core&#45;&gt;hidebound.core.specifications</title>
<path fill="none" stroke="#a0d17b" d="M203.6711,-1197.3086C219.728,-1222.8067 252.7707,-1267.9134 295,-1286 452.9653,-1353.6558 838.4086,-1417.4358 1069,-1255 1102.875,-1231.1374 1085.6627,-1205.6471 1105,-1169 1152.334,-1079.2949 1221.2235,-980.6722 1254.5293,-934.5443"/>
<polygon fill="#a0d17b" stroke="#a0d17b" points="1257.4734,-936.4465 1260.5102,-926.2962 1251.8064,-932.3372 1257.4734,-936.4465"/>
</g>
<!-- hidebound.core&#45;&gt;hidebound.core.tools -->
<g id="edge137" class="edge">
<title>hidebound.core&#45;&gt;hidebound.core.tools</title>
<path fill="none" stroke="#a0d17b" d="M259.2734,-1166.7858C331.3993,-1153.493 447.5835,-1132.0802 531.1718,-1116.6748"/>
<polygon fill="#a0d17b" stroke="#a0d17b" points="531.9987,-1120.0814 541.1987,-1114.8269 530.7299,-1113.1974 531.9987,-1120.0814"/>
</g>
<!-- hidebound.core&#45;&gt;hidebound.core.traits -->
<g id="edge138" class="edge">
<title>hidebound.core&#45;&gt;hidebound.core.traits</title>
<path fill="none" stroke="#a0d17b" d="M259.2059,-1183.4348C386.4085,-1191.9556 665.8986,-1210.6774 819.0382,-1220.9356"/>
<polygon fill="#a0d17b" stroke="#a0d17b" points="819.1792,-1224.4528 829.3908,-1221.6291 819.6471,-1217.4684 819.1792,-1224.4528"/>
</g>
<!-- hidebound.core&#45;&gt;hidebound.core.validators -->
<g id="edge139" class="edge">
<title>hidebound.core&#45;&gt;hidebound.core.validators</title>
<path fill="none" stroke="#a0d17b" d="M193.8688,-1160.9501C197.3008,-1110.1765 214.0761,-964.7611 295,-887 329.1335,-854.2006 445.053,-823.4652 531.5726,-804.2552"/>
<polygon fill="#a0d17b" stroke="#a0d17b" points="532.4234,-807.6518 541.4385,-802.086 530.9202,-800.8151 532.4234,-807.6518"/>
</g>
<!-- skimage.io -->
<g id="node55" class="node">
<title>skimage.io</title>
<polygon fill="#343434" stroke="#343434" points="682,-1170 583,-1170 583,-1134 682,-1134 682,-1170"/>
<text text-anchor="middle" x="632.5" y="-1148.3" font-family="Courier,monospace" font-size="14.00" fill="#de958e">skimage.io</text>
</g>
<!-- skimage.io&#45;&gt;hidebound.core.traits -->
<g id="edge140" class="edge">
<title>skimage.io&#45;&gt;hidebound.core.traits</title>
<path fill="none" stroke="#de958e" d="M682.0333,-1165.7306C701.4156,-1171.23 723.8023,-1177.7385 744,-1184 760.1091,-1188.994 763.7448,-1191.504 780,-1196 794.8298,-1200.1018 810.6284,-1204.0356 826.1311,-1207.6555"/>
<polygon fill="#de958e" stroke="#de958e" points="825.7323,-1211.1552 836.2626,-1209.9876 827.3026,-1204.3336 825.7323,-1211.1552"/>
</g>
<!-- flask_monitoringdashboard -->
<g id="node56" class="node">
<title>flask_monitoringdashboard</title>
<polygon fill="#343434" stroke="#343434" points="2713,-1122 2490,-1122 2490,-1086 2713,-1086 2713,-1122"/>
<text text-anchor="middle" x="2601.5" y="-1100.3" font-family="Courier,monospace" font-size="14.00" fill="#de958e">flask_monitoringdashboard</text>
</g>
<!-- flask_monitoringdashboard&#45;&gt;hidebound.server.app -->
<g id="edge141" class="edge">
<title>flask_monitoringdashboard&#45;&gt;hidebound.server.app</title>
<path fill="none" stroke="#de958e" d="M2708.5352,-1122.1027C2712.9532,-1124.7085 2717.1399,-1127.6598 2721,-1131 2814.4964,-1211.9043 2839.4601,-1369.646 2845.8757,-1433.824"/>
<polygon fill="#de958e" stroke="#de958e" points="2842.4096,-1434.3534 2846.8126,-1443.99 2849.38,-1433.7109 2842.4096,-1434.3534"/>
</g>
</g>
</svg>
