<?xml version="1.0" encoding="UTF-8" standalone="no"?>
<!DOCTYPE svg PUBLIC "-//W3C//DTD SVG 1.1//EN"
 "http://www.w3.org/Graphics/SVG/1.1/DTD/svg11.dtd">
<!-- Generated by graphviz version 2.40.1 (20161225.0304)
 -->
<!-- Title: %3 Pages: 1 -->
<svg width="2236pt" height="1449pt"
 viewBox="0.00 0.00 2236.00 1448.90" xmlns="http://www.w3.org/2000/svg" xmlns:xlink="http://www.w3.org/1999/xlink">
<g id="graph0" class="graph" transform="scale(1 1) rotate(0) translate(4 1444.8986)">
<title>%3</title>
<polygon fill="#242424" stroke="transparent" points="-4,4 -4,-1444.8986 2232,-1444.8986 2232,4 -4,4"/>
<!-- cli -->
<g id="node1" class="node">
<title>cli</title>
<polygon fill="#343434" stroke="#343434" points="72.5,-640 18.5,-640 18.5,-604 72.5,-604 72.5,-640"/>
<text text-anchor="middle" x="45.5" y="-618.3" font-family="Courier,monospace" font-size="14.00" fill="#b6ecf3">cli</text>
</g>
<!-- hidebound.core.config -->
<g id="node2" class="node">
<title>hidebound.core.config</title>
<polygon fill="#343434" stroke="#343434" points="1410,-370 1220,-370 1220,-334 1410,-334 1410,-370"/>
<text text-anchor="middle" x="1315" y="-348.3" font-family="Courier,monospace" font-size="14.00" fill="#b6ecf3">hidebound.core.config</text>
</g>
<!-- hidebound.core.database -->
<g id="node3" class="node">
<title>hidebound.core.database</title>
<polygon fill="#343434" stroke="#343434" points="1710,-760 1504,-760 1504,-724 1710,-724 1710,-760"/>
<text text-anchor="middle" x="1607" y="-738.3" font-family="Courier,monospace" font-size="14.00" fill="#b6ecf3">hidebound.core.database</text>
</g>
<!-- hidebound.core.config&#45;&gt;hidebound.core.database -->
<g id="edge1" class="edge">
<title>hidebound.core.config&#45;&gt;hidebound.core.database</title>
<path fill="none" stroke="#b6ecf3" d="M1339.8772,-370.0304C1369.6534,-393.0896 1418.5515,-435.9563 1443,-485 1488.1816,-575.6346 1410.5465,-635.3668 1479,-710 1483.7332,-715.1605 1489.1613,-719.5449 1495.0508,-723.2649"/>
<polygon fill="#b6ecf3" stroke="#b6ecf3" points="1493.5451,-726.4328 1503.9825,-728.2527 1496.9581,-720.3212 1493.5451,-726.4328"/>
</g>
<!-- hidebound.server.app -->
<g id="node14" class="node">
<title>hidebound.server.app</title>
<polygon fill="#343434" stroke="#343434" points="2228,-936 2046,-936 2046,-900 2228,-900 2228,-936"/>
<text text-anchor="middle" x="2137" y="-914.3" font-family="Courier,monospace" font-size="14.00" fill="#b6ecf3">hidebound.server.app</text>
</g>
<!-- hidebound.core.config&#45;&gt;hidebound.server.app -->
<g id="edge2" class="edge">
<title>hidebound.core.config&#45;&gt;hidebound.server.app</title>
<path fill="none" stroke="#b6ecf3" d="M1337.8687,-370.2384C1403.1643,-421.8789 1596.9663,-572.1423 1771,-677 1872.8082,-738.3408 1912.7998,-728.5915 2010,-797 2050.1737,-825.2739 2090.145,-865.9597 2114.2175,-892.1889"/>
<polygon fill="#b6ecf3" stroke="#b6ecf3" points="2111.8469,-894.7847 2121.1605,-899.8351 2117.0293,-890.0789 2111.8469,-894.7847"/>
</g>
<!-- hidebound.server.api -->
<g id="node13" class="node">
<title>hidebound.server.api</title>
<polygon fill="#343434" stroke="#343434" points="1981.5,-842 1799.5,-842 1799.5,-806 1981.5,-806 1981.5,-842"/>
<text text-anchor="middle" x="1890.5" y="-820.3" font-family="Courier,monospace" font-size="14.00" fill="#b6ecf3">hidebound.server.api</text>
</g>
<!-- hidebound.core.database&#45;&gt;hidebound.server.api -->
<g id="edge3" class="edge">
<title>hidebound.core.database&#45;&gt;hidebound.server.api</title>
<path fill="none" stroke="#b6ecf3" d="M1682.688,-760.0414C1699.94,-764.3977 1718.1498,-769.1904 1735,-774 1765.6129,-782.738 1799.2804,-793.4276 1827.4363,-802.6769"/>
<polygon fill="#b6ecf3" stroke="#b6ecf3" points="1826.5584,-806.0727 1837.1515,-805.8828 1828.752,-799.4253 1826.5584,-806.0727"/>
</g>
<!-- hidebound.core.database_tools -->
<g id="node4" class="node">
<title>hidebound.core.database_tools</title>
<polygon fill="#343434" stroke="#343434" points="1443,-806 1187,-806 1187,-770 1443,-770 1443,-806"/>
<text text-anchor="middle" x="1315" y="-784.3" font-family="Courier,monospace" font-size="14.00" fill="#b6ecf3">hidebound.core.database_tools</text>
</g>
<!-- hidebound.core.database_tools&#45;&gt;hidebound.core.database -->
<g id="edge4" class="edge">
<title>hidebound.core.database_tools&#45;&gt;hidebound.core.database</title>
<path fill="none" stroke="#b6ecf3" d="M1429.5681,-769.9516C1450.6716,-766.6271 1472.695,-763.1576 1493.7591,-759.8393"/>
<polygon fill="#b6ecf3" stroke="#b6ecf3" points="1494.3539,-763.2889 1503.6874,-758.2753 1493.2645,-756.3742 1494.3539,-763.2889"/>
</g>
<!-- hidebound.core.parser -->
<g id="node5" class="node">
<title>hidebound.core.parser</title>
<polygon fill="#343434" stroke="#343434" points="485,-550 295,-550 295,-514 485,-514 485,-550"/>
<text text-anchor="middle" x="390" y="-528.3" font-family="Courier,monospace" font-size="14.00" fill="#b6ecf3">hidebound.core.parser</text>
</g>
<!-- hidebound.core.parser&#45;&gt;hidebound.core.database_tools -->
<g id="edge5" class="edge">
<title>hidebound.core.parser&#45;&gt;hidebound.core.database_tools</title>
<path fill="none" stroke="#b6ecf3" d="M437.011,-550.0467C461.7056,-558.9479 492.6534,-569.2042 521,-576 796.2352,-641.9851 911.9035,-517.5361 1151,-669 1175.3666,-684.4359 1165.4355,-703.8434 1187,-723 1207.0614,-740.8214 1232.8889,-755.1496 1256.084,-765.7707"/>
<polygon fill="#b6ecf3" stroke="#b6ecf3" points="1254.9393,-769.0919 1265.4994,-769.9491 1257.7787,-762.6936 1254.9393,-769.0919"/>
</g>
<!-- hidebound.core.specification_base -->
<g id="node6" class="node">
<title>hidebound.core.specification_base</title>
<polygon fill="#343434" stroke="#343434" points="1143,-530 854,-530 854,-494 1143,-494 1143,-530"/>
<text text-anchor="middle" x="998.5" y="-508.3" font-family="Courier,monospace" font-size="14.00" fill="#b6ecf3">hidebound.core.specification_base</text>
</g>
<!-- hidebound.core.parser&#45;&gt;hidebound.core.specification_base -->
<g id="edge6" class="edge">
<title>hidebound.core.parser&#45;&gt;hidebound.core.specification_base</title>
<path fill="none" stroke="#b6ecf3" d="M485.0781,-528.875C580.9579,-525.7237 730.5534,-520.8068 843.5835,-517.0917"/>
<polygon fill="#b6ecf3" stroke="#b6ecf3" points="843.8357,-520.5854 853.7153,-516.7587 843.6056,-513.5892 843.8357,-520.5854"/>
</g>
<!-- hidebound.core.validators -->
<g id="node10" class="node">
<title>hidebound.core.validators</title>
<polygon fill="#343434" stroke="#343434" points="777,-366 554,-366 554,-330 777,-330 777,-366"/>
<text text-anchor="middle" x="665.5" y="-344.3" font-family="Courier,monospace" font-size="14.00" fill="#b6ecf3">hidebound.core.validators</text>
</g>
<!-- hidebound.core.parser&#45;&gt;hidebound.core.validators -->
<g id="edge7" class="edge">
<title>hidebound.core.parser&#45;&gt;hidebound.core.validators</title>
<path fill="none" stroke="#b6ecf3" d="M426.488,-513.9844C446.0682,-502.7615 469.3267,-486.7074 485,-467 512.3304,-432.635 487.1716,-402.9918 521,-375 528.0754,-369.1454 536.0168,-364.4032 544.4408,-360.5763"/>
<polygon fill="#b6ecf3" stroke="#b6ecf3" points="545.8184,-363.7944 553.7532,-356.7737 543.1721,-357.3139 545.8184,-363.7944"/>
</g>
<!-- hidebound.core.specification_base&#45;&gt;hidebound.core.config -->
<g id="edge8" class="edge">
<title>hidebound.core.specification_base&#45;&gt;hidebound.core.config</title>
<path fill="none" stroke="#b6ecf3" d="M1034.1913,-493.957C1092.1283,-464.6682 1206.5362,-406.8316 1269.9761,-374.7609"/>
<polygon fill="#b6ecf3" stroke="#b6ecf3" points="1271.6081,-377.8577 1278.9535,-370.2226 1268.45,-371.6106 1271.6081,-377.8577"/>
</g>
<!-- hidebound.core.specification_base&#45;&gt;hidebound.core.database -->
<g id="edge9" class="edge">
<title>hidebound.core.specification_base&#45;&gt;hidebound.core.database</title>
<path fill="none" stroke="#b6ecf3" d="M1085.8638,-530.0722C1107.3481,-535.2142 1130.1607,-541.271 1151,-548 1284.6824,-591.1663 1328.7933,-587.2005 1443,-669 1462.7146,-683.1204 1458.2963,-697.3744 1479,-710 1485.252,-713.8126 1491.9386,-717.172 1498.8538,-720.132"/>
<polygon fill="#b6ecf3" stroke="#b6ecf3" points="1497.8202,-723.4873 1508.406,-723.9257 1500.404,-716.9816 1497.8202,-723.4873"/>
</g>
<!-- hidebound.core.specification_base&#45;&gt;hidebound.core.database_tools -->
<g id="edge10" class="edge">
<title>hidebound.core.specification_base&#45;&gt;hidebound.core.database_tools</title>
<path fill="none" stroke="#b6ecf3" d="M1126.966,-530.1112C1135.8147,-534.896 1143.9865,-540.7806 1151,-548 1206.3306,-604.9553 1138.8242,-659.8773 1187,-723 1201.4889,-741.9842 1223.0642,-755.8634 1244.3911,-765.7994"/>
<polygon fill="#b6ecf3" stroke="#b6ecf3" points="1243.2568,-769.1243 1253.819,-769.9552 1246.0803,-762.719 1243.2568,-769.1243"/>
</g>
<!-- hidebound.core.specifications -->
<g id="node7" class="node">
<title>hidebound.core.specifications</title>
<polygon fill="#343434" stroke="#343434" points="1443,-530 1187,-530 1187,-494 1443,-494 1443,-530"/>
<text text-anchor="middle" x="1315" y="-508.3" font-family="Courier,monospace" font-size="14.00" fill="#b6ecf3">hidebound.core.specifications</text>
</g>
<!-- hidebound.core.specification_base&#45;&gt;hidebound.core.specifications -->
<g id="edge11" class="edge">
<title>hidebound.core.specification_base&#45;&gt;hidebound.core.specifications</title>
<path fill="none" stroke="#b6ecf3" d="M1143.3193,-512C1154.4106,-512 1165.5905,-512 1176.639,-512"/>
<polygon fill="#b6ecf3" stroke="#b6ecf3" points="1176.7423,-515.5001 1186.7423,-512 1176.7423,-508.5001 1176.7423,-515.5001"/>
</g>
<!-- hidebound.core.tools -->
<g id="node8" class="node">
<title>hidebound.core.tools</title>
<polygon fill="#343434" stroke="#343434" points="756.5,-832 574.5,-832 574.5,-796 756.5,-796 756.5,-832"/>
<text text-anchor="middle" x="665.5" y="-810.3" font-family="Courier,monospace" font-size="14.00" fill="#b6ecf3">hidebound.core.tools</text>
</g>
<!-- hidebound.core.tools&#45;&gt;hidebound.core.database -->
<g id="edge12" class="edge">
<title>hidebound.core.tools&#45;&gt;hidebound.core.database</title>
<path fill="none" stroke="#b6ecf3" d="M756.7601,-801.0112C785.3023,-797.1786 816.9303,-793.1669 846,-790 997.208,-773.5271 1035.2188,-770.8833 1187,-761 1290.7628,-754.2434 1409.1033,-749.1229 1493.6648,-745.9099"/>
<polygon fill="#b6ecf3" stroke="#b6ecf3" points="1493.9454,-749.4019 1503.8064,-745.5276 1493.6816,-742.4069 1493.9454,-749.4019"/>
</g>
<!-- hidebound.core.tools&#45;&gt;hidebound.core.database_tools -->
<g id="edge13" class="edge">
<title>hidebound.core.tools&#45;&gt;hidebound.core.database_tools</title>
<path fill="none" stroke="#b6ecf3" d="M756.8368,-810.3437C866.0375,-805.9723 1049.9012,-798.6121 1176.5862,-793.5408"/>
<polygon fill="#b6ecf3" stroke="#b6ecf3" points="1176.8982,-797.0312 1186.7501,-793.1339 1176.6181,-790.0368 1176.8982,-797.0312"/>
</g>
<!-- hidebound.core.tools&#45;&gt;hidebound.core.specification_base -->
<g id="edge14" class="edge">
<title>hidebound.core.tools&#45;&gt;hidebound.core.specification_base</title>
<path fill="none" stroke="#b6ecf3" d="M730.9115,-795.979C758.1027,-785.8125 788.3104,-770.6864 810,-749 837.5719,-721.4321 824.086,-701.2486 846,-669 881.6883,-616.4811 935.7629,-565.6308 969.0144,-536.6481"/>
<polygon fill="#b6ecf3" stroke="#b6ecf3" points="971.3066,-539.2931 976.59,-530.1096 966.7328,-533.9939 971.3066,-539.2931"/>
</g>
<!-- hidebound.core.traits -->
<g id="node9" class="node">
<title>hidebound.core.traits</title>
<polygon fill="#343434" stroke="#343434" points="1093.5,-714 903.5,-714 903.5,-678 1093.5,-678 1093.5,-714"/>
<text text-anchor="middle" x="998.5" y="-692.3" font-family="Courier,monospace" font-size="14.00" fill="#b6ecf3">hidebound.core.traits</text>
</g>
<!-- hidebound.core.tools&#45;&gt;hidebound.core.traits -->
<g id="edge15" class="edge">
<title>hidebound.core.tools&#45;&gt;hidebound.core.traits</title>
<path fill="none" stroke="#b6ecf3" d="M756.5911,-804.8608C775.3654,-800.0446 794.205,-792.8144 810,-782 833.8004,-765.7045 822.1095,-744.1631 846,-728 860.1412,-718.4327 876.5788,-711.6378 893.3209,-706.8299"/>
<polygon fill="#b6ecf3" stroke="#b6ecf3" points="894.4229,-710.1589 903.1985,-704.2227 892.6364,-703.3907 894.4229,-710.1589"/>
</g>
<!-- hidebound.core.traits&#45;&gt;hidebound.core.specifications -->
<g id="edge16" class="edge">
<title>hidebound.core.traits&#45;&gt;hidebound.core.specifications</title>
<path fill="none" stroke="#b6ecf3" d="M1038.04,-677.8978C1069.2323,-663.2368 1113.5704,-641.5474 1151,-620 1197.3783,-593.301 1248.5418,-558.7381 1281.1848,-535.9936"/>
<polygon fill="#b6ecf3" stroke="#b6ecf3" points="1283.2881,-538.7937 1289.4755,-530.1933 1279.2753,-533.058 1283.2881,-538.7937"/>
</g>
<!-- hidebound.core.validators&#45;&gt;hidebound.core.config -->
<g id="edge17" class="edge">
<title>hidebound.core.validators&#45;&gt;hidebound.core.config</title>
<path fill="none" stroke="#b6ecf3" d="M777.153,-348.6876C898.4759,-349.4348 1090.8419,-350.6195 1209.6388,-351.3511"/>
<polygon fill="#b6ecf3" stroke="#b6ecf3" points="1209.8136,-354.8522 1219.835,-351.4139 1209.8568,-347.8523 1209.8136,-354.8522"/>
</g>
<!-- hidebound.core.validators&#45;&gt;hidebound.core.specification_base -->
<g id="edge18" class="edge">
<title>hidebound.core.validators&#45;&gt;hidebound.core.specification_base</title>
<path fill="none" stroke="#b6ecf3" d="M777.079,-358.191C788.8495,-362.3032 800.1105,-367.7707 810,-375 837.29,-394.9492 821.3591,-418.8582 846,-442 868.7944,-463.4077 899.2858,-479.17 927.0115,-490.2572"/>
<polygon fill="#b6ecf3" stroke="#b6ecf3" points="926.0962,-493.6554 936.6859,-493.9855 928.6135,-487.1236 926.0962,-493.6554"/>
</g>
<!-- hidebound.core.validators&#45;&gt;hidebound.core.specifications -->
<g id="edge19" class="edge">
<title>hidebound.core.validators&#45;&gt;hidebound.core.specifications</title>
<path fill="none" stroke="#b6ecf3" d="M777.0693,-362.6321C876.5633,-377.3171 1025.4611,-403.3431 1151,-442 1192.2002,-454.6867 1237.1043,-474.2838 1269.4919,-489.5194"/>
<polygon fill="#b6ecf3" stroke="#b6ecf3" points="1268.167,-492.7648 1278.7016,-493.8929 1271.1698,-486.4415 1268.167,-492.7648"/>
</g>
<!-- hidebound.exporters.girder_exporter -->
<g id="node12" class="node">
<title>hidebound.exporters.girder_exporter</title>
<polygon fill="#343434" stroke="#343434" points="1151,-286 846,-286 846,-250 1151,-250 1151,-286"/>
<text text-anchor="middle" x="998.5" y="-264.3" font-family="Courier,monospace" font-size="14.00" fill="#b6ecf3">hidebound.exporters.girder_exporter</text>
</g>
<!-- hidebound.core.validators&#45;&gt;hidebound.exporters.girder_exporter -->
<g id="edge20" class="edge">
<title>hidebound.core.validators&#45;&gt;hidebound.exporters.girder_exporter</title>
<path fill="none" stroke="#b6ecf3" d="M768.3568,-329.9509C782.3916,-327.147 796.5797,-324.1339 810,-321 849.9421,-311.6728 894.1064,-299.3645 929.6404,-288.957"/>
<polygon fill="#b6ecf3" stroke="#b6ecf3" points="930.8193,-292.2585 939.4232,-286.076 928.8418,-285.5436 930.8193,-292.2585"/>
</g>
<!-- hidebound.exporters.exporter_base -->
<g id="node11" class="node">
<title>hidebound.exporters.exporter_base</title>
<polygon fill="#343434" stroke="#343434" points="810,-166 521,-166 521,-130 810,-130 810,-166"/>
<text text-anchor="middle" x="665.5" y="-144.3" font-family="Courier,monospace" font-size="14.00" fill="#b6ecf3">hidebound.exporters.exporter_base</text>
</g>
<!-- hidebound.exporters.exporter_base&#45;&gt;hidebound.exporters.girder_exporter -->
<g id="edge21" class="edge">
<title>hidebound.exporters.exporter_base&#45;&gt;hidebound.exporters.girder_exporter</title>
<path fill="none" stroke="#b6ecf3" d="M761.1454,-166.0772C777.6118,-170.0687 794.4287,-174.7124 810,-180 862.1765,-197.7176 919.1141,-225.5733 956.6053,-245.1898"/>
<polygon fill="#b6ecf3" stroke="#b6ecf3" points="955.2253,-248.4189 965.7033,-249.9884 958.491,-242.2273 955.2253,-248.4189"/>
</g>
<!-- hidebound.exporters.girder_exporter&#45;&gt;hidebound.core.config -->
<g id="edge22" class="edge">
<title>hidebound.exporters.girder_exporter&#45;&gt;hidebound.core.config</title>
<path fill="none" stroke="#b6ecf3" d="M1091.9957,-286.0717C1111.575,-290.2883 1132.0309,-295.0159 1151,-300 1185.0181,-308.9382 1222.4406,-320.656 1252.9378,-330.705"/>
<polygon fill="#b6ecf3" stroke="#b6ecf3" points="1251.9897,-334.0779 1262.5831,-333.9034 1254.193,-327.4337 1251.9897,-334.0779"/>
</g>
<!-- hidebound.exporters.girder_exporter&#45;&gt;hidebound.core.database -->
<g id="edge23" class="edge">
<title>hidebound.exporters.girder_exporter&#45;&gt;hidebound.core.database</title>
<path fill="none" stroke="#b6ecf3" d="M1151.2009,-250.7905C1244.582,-248.5074 1361.3695,-261.4084 1443,-325 1570.222,-424.1081 1598.9423,-636.1517 1605.2653,-713.2339"/>
<polygon fill="#b6ecf3" stroke="#b6ecf3" points="1601.8046,-713.8886 1606.0447,-723.5979 1608.7849,-713.3636 1601.8046,-713.8886"/>
</g>
<!-- hidebound.server.api&#45;&gt;hidebound.server.app -->
<g id="edge24" class="edge">
<title>hidebound.server.api&#45;&gt;hidebound.server.app</title>
<path fill="none" stroke="#b6ecf3" d="M1956.158,-842.033C1973.8029,-847.352 1992.7665,-853.5033 2010,-860 2037.6318,-870.4167 2067.7262,-884.0544 2091.6814,-895.4882"/>
<polygon fill="#b6ecf3" stroke="#b6ecf3" points="2090.3477,-898.7306 2100.8764,-899.9124 2093.3827,-892.4227 2090.3477,-898.7306"/>
</g>
<!-- hidebound.server.components -->
<g id="node15" class="node">
<title>hidebound.server.components</title>
<polygon fill="#343434" stroke="#343434" points="2010,-1177 1771,-1177 1771,-1141 2010,-1141 2010,-1177"/>
<text text-anchor="middle" x="1890.5" y="-1155.3" font-family="Courier,monospace" font-size="14.00" fill="#b6ecf3">hidebound.server.components</text>
</g>
<!-- hidebound.server.components&#45;&gt;hidebound.server.app -->
<g id="edge25" class="edge">
<title>hidebound.server.components&#45;&gt;hidebound.server.app</title>
<path fill="none" stroke="#b6ecf3" d="M1911.1724,-1140.882C1935.2988,-1119.5688 1976.2009,-1082.9112 2010,-1050 2046.912,-1014.0576 2087.9673,-970.7423 2113.1388,-943.7804"/>
<polygon fill="#b6ecf3" stroke="#b6ecf3" points="2115.8547,-945.9998 2120.1095,-936.2969 2110.7325,-941.2287 2115.8547,-945.9998"/>
</g>
<!-- hidebound.server.server_tools -->
<g id="node16" class="node">
<title>hidebound.server.server_tools</title>
<polygon fill="#343434" stroke="#343434" points="1735,-890 1479,-890 1479,-854 1735,-854 1735,-890"/>
<text text-anchor="middle" x="1607" y="-868.3" font-family="Courier,monospace" font-size="14.00" fill="#b6ecf3">hidebound.server.server_tools</text>
</g>
<!-- hidebound.server.server_tools&#45;&gt;hidebound.server.api -->
<g id="edge26" class="edge">
<title>hidebound.server.server_tools&#45;&gt;hidebound.server.api</title>
<path fill="none" stroke="#b6ecf3" d="M1713.3715,-853.99C1738.228,-849.7815 1764.6351,-845.3105 1789.2612,-841.141"/>
<polygon fill="#b6ecf3" stroke="#b6ecf3" points="1790.0545,-844.5565 1799.3299,-839.4362 1788.8859,-837.6548 1790.0545,-844.5565"/>
</g>
<!-- hidebound.server.server_tools&#45;&gt;hidebound.server.app -->
<g id="edge27" class="edge">
<title>hidebound.server.server_tools&#45;&gt;hidebound.server.app</title>
<path fill="none" stroke="#b6ecf3" d="M1735.043,-881.1636C1814.2953,-887.0845 1918.118,-895.2898 2010,-904 2018.3329,-904.7899 2026.9686,-905.6512 2035.6368,-906.5456"/>
<polygon fill="#b6ecf3" stroke="#b6ecf3" points="2035.5016,-910.0504 2045.8111,-907.6084 2036.2289,-903.0883 2035.5016,-910.0504"/>
</g>
<!-- dash -->
<g id="node17" class="node">
<title>dash</title>
<polygon fill="#343434" stroke="#343434" points="1634,-1404 1580,-1404 1580,-1368 1634,-1368 1634,-1404"/>
<text text-anchor="middle" x="1607" y="-1382.3" font-family="Courier,monospace" font-size="14.00" fill="#de958e">dash</text>
</g>
<!-- dash&#45;&gt;hidebound.server.app -->
<g id="edge28" class="edge">
<title>dash&#45;&gt;hidebound.server.app</title>
<path fill="none" stroke="#de958e" d="M1634.0586,-1385.4939C1705.7383,-1382.667 1902.3845,-1365.025 2010,-1258 2099.5377,-1168.9536 2126.7184,-1010.9614 2134.3012,-946.5406"/>
<polygon fill="#de958e" stroke="#de958e" points="2137.8097,-946.6549 2135.4287,-936.3311 2130.852,-945.8865 2137.8097,-946.6549"/>
</g>
<!-- dash&#45;&gt;hidebound.server.components -->
<g id="edge29" class="edge">
<title>dash&#45;&gt;hidebound.server.components</title>
<path fill="none" stroke="#de958e" d="M1634.2463,-1385.6007C1661.6291,-1384.034 1704.0951,-1378.3288 1735,-1359 1804.1623,-1315.7439 1854.7306,-1230.1853 1877.3442,-1186.3261"/>
<polygon fill="#de958e" stroke="#de958e" points="1880.6064,-1187.6306 1881.9913,-1177.1267 1874.3583,-1184.4744 1880.6064,-1187.6306"/>
</g>
<!-- dash_core_components -->
<g id="node18" class="node">
<title>dash_core_components</title>
<polygon fill="#343434" stroke="#343434" points="1698,-1350 1516,-1350 1516,-1314 1698,-1314 1698,-1350"/>
<text text-anchor="middle" x="1607" y="-1328.3" font-family="Courier,monospace" font-size="14.00" fill="#de958e">dash_core_components</text>
</g>
<!-- dash_core_components&#45;&gt;hidebound.server.app -->
<g id="edge30" class="edge">
<title>dash_core_components&#45;&gt;hidebound.server.app</title>
<path fill="none" stroke="#de958e" d="M1698.3925,-1320.7115C1788.3662,-1305.0877 1924.3841,-1268.742 2010,-1186 2081.5013,-1116.8988 2117.3993,-999.535 2130.7197,-946.0529"/>
<polygon fill="#de958e" stroke="#de958e" points="2134.1438,-946.7834 2133.0866,-936.2415 2127.339,-945.1418 2134.1438,-946.7834"/>
</g>
<!-- dash_core_components&#45;&gt;hidebound.server.components -->
<g id="edge31" class="edge">
<title>dash_core_components&#45;&gt;hidebound.server.components</title>
<path fill="none" stroke="#de958e" d="M1698.1245,-1321.5332C1711.1385,-1317.5986 1723.8673,-1312.2514 1735,-1305 1757.9448,-1290.0546 1752.1547,-1274.8666 1771,-1255 1796.9982,-1227.5927 1830.9075,-1201.0628 1855.9605,-1182.8642"/>
<polygon fill="#de958e" stroke="#de958e" points="1858.013,-1185.6993 1864.093,-1177.0227 1853.9292,-1180.014 1858.013,-1185.6993"/>
</g>
<!-- dash_cytoscape -->
<g id="node19" class="node">
<title>dash_cytoscape</title>
<polygon fill="#343434" stroke="#343434" points="1673,-1242 1541,-1242 1541,-1206 1673,-1206 1673,-1242"/>
<text text-anchor="middle" x="1607" y="-1220.3" font-family="Courier,monospace" font-size="14.00" fill="#de958e">dash_cytoscape</text>
</g>
<!-- dash_cytoscape&#45;&gt;hidebound.server.components -->
<g id="edge32" class="edge">
<title>dash_cytoscape&#45;&gt;hidebound.server.components</title>
<path fill="none" stroke="#de958e" d="M1673.1104,-1208.8424C1711.5089,-1200.0385 1760.3803,-1188.8334 1802.0559,-1179.2782"/>
<polygon fill="#de958e" stroke="#de958e" points="1802.9664,-1182.6603 1811.9313,-1177.014 1801.402,-1175.8374 1802.9664,-1182.6603"/>
</g>
<!-- hidebound.server -->
<g id="node20" class="node">
<title>hidebound.server</title>
<polygon fill="#343434" stroke="#343434" points="1389.5,-1196 1240.5,-1196 1240.5,-1160 1389.5,-1160 1389.5,-1196"/>
<text text-anchor="middle" x="1315" y="-1174.3" font-family="Courier,monospace" font-size="14.00" fill="#a0d17b">hidebound.server</text>
</g>
<!-- hidebound.server&#45;&gt;hidebound.server.api -->
<g id="edge33" class="edge">
<title>hidebound.server&#45;&gt;hidebound.server.api</title>
<path fill="none" stroke="#a0d17b" d="M1374.6449,-1159.9369C1399.0395,-1149.7628 1425.5683,-1134.6424 1443,-1113 1482.7605,-1063.6352 1434.9342,-1020.563 1479,-975 1561.5102,-889.6865 1624.3028,-941.8072 1735,-899 1774.1416,-883.8637 1816.9834,-862.8492 1847.7691,-846.9143"/>
<polygon fill="#a0d17b" stroke="#a0d17b" points="1849.6695,-849.8707 1856.9188,-842.1442 1846.4334,-843.6636 1849.6695,-849.8707"/>
</g>
<!-- hidebound.server&#45;&gt;hidebound.server.app -->
<g id="edge34" class="edge">
<title>hidebound.server&#45;&gt;hidebound.server.app</title>
<path fill="none" stroke="#a0d17b" d="M1321.0451,-1196.3068C1337.557,-1242.9168 1388.35,-1365.7202 1479,-1413 1579.8809,-1465.6159 1622.5548,-1430.3627 1735,-1413 1861.6913,-1393.4375 1919.5643,-1416.8557 2010,-1326 2065.2769,-1270.4664 2115.802,-1028.7788 2131.78,-945.9627"/>
<polygon fill="#a0d17b" stroke="#a0d17b" points="2135.2413,-946.4963 2133.6794,-936.0173 2128.3655,-945.1831 2135.2413,-946.4963"/>
</g>
<!-- hidebound.server&#45;&gt;hidebound.server.components -->
<g id="edge35" class="edge">
<title>hidebound.server&#45;&gt;hidebound.server.components</title>
<path fill="none" stroke="#a0d17b" d="M1389.6466,-1175.5356C1483.5275,-1172.4361 1646.2603,-1167.0635 1760.6992,-1163.2853"/>
<polygon fill="#a0d17b" stroke="#a0d17b" points="1761.0467,-1166.7759 1770.9257,-1162.9477 1760.8157,-1159.7797 1761.0467,-1166.7759"/>
</g>
<!-- hidebound.server&#45;&gt;hidebound.server.server_tools -->
<g id="edge36" class="edge">
<title>hidebound.server&#45;&gt;hidebound.server.server_tools</title>
<path fill="none" stroke="#a0d17b" d="M1376.132,-1159.9177C1400.3378,-1149.8155 1426.3167,-1134.7552 1443,-1113 1490.2621,-1051.3697 1432.6852,-1004.3453 1479,-942 1494.8008,-920.7302 1519.0627,-905.1546 1542.2318,-894.1713"/>
<polygon fill="#a0d17b" stroke="#a0d17b" points="1543.7072,-897.3454 1551.3783,-890.0376 1540.8243,-890.9666 1543.7072,-897.3454"/>
</g>
<!-- dash_html_components -->
<g id="node21" class="node">
<title>dash_html_components</title>
<polygon fill="#343434" stroke="#343434" points="1698,-1074 1516,-1074 1516,-1038 1698,-1038 1698,-1074"/>
<text text-anchor="middle" x="1607" y="-1052.3" font-family="Courier,monospace" font-size="14.00" fill="#de958e">dash_html_components</text>
</g>
<!-- dash_html_components&#45;&gt;hidebound.server.app -->
<g id="edge37" class="edge">
<title>dash_html_components&#45;&gt;hidebound.server.app</title>
<path fill="none" stroke="#de958e" d="M1698.2246,-1041.3566C1780.6944,-1026.9853 1904.9185,-1002.5036 2010,-970 2036.5066,-961.801 2065.1783,-950.3008 2088.5601,-940.1995"/>
<polygon fill="#de958e" stroke="#de958e" points="2090.1421,-943.3279 2097.9038,-936.1163 2087.339,-936.9136 2090.1421,-943.3279"/>
</g>
<!-- dash_html_components&#45;&gt;hidebound.server.components -->
<g id="edge38" class="edge">
<title>dash_html_components&#45;&gt;hidebound.server.components</title>
<path fill="none" stroke="#de958e" d="M1688.5768,-1074.0115C1704.1412,-1078.1165 1720.1901,-1082.8169 1735,-1088 1773.7129,-1101.5484 1815.9466,-1121.161 1846.617,-1136.3416"/>
<polygon fill="#de958e" stroke="#de958e" points="1845.237,-1139.5645 1855.7475,-1140.8989 1848.3632,-1133.3014 1845.237,-1139.5645"/>
</g>
<!-- dash_table -->
<g id="node22" class="node">
<title>dash_table</title>
<polygon fill="#343434" stroke="#343434" points="1656.5,-1020 1557.5,-1020 1557.5,-984 1656.5,-984 1656.5,-1020"/>
<text text-anchor="middle" x="1607" y="-998.3" font-family="Courier,monospace" font-size="14.00" fill="#de958e">dash_table</text>
</g>
<!-- dash_table&#45;&gt;hidebound.server.app -->
<g id="edge39" class="edge">
<title>dash_table&#45;&gt;hidebound.server.app</title>
<path fill="none" stroke="#de958e" d="M1656.8611,-994.0975C1743.2839,-980.4003 1922.5004,-951.9962 2035.8629,-934.0293"/>
<polygon fill="#de958e" stroke="#de958e" points="2036.6139,-937.454 2045.9427,-932.4317 2035.5181,-930.5403 2036.6139,-937.454"/>
</g>
<!-- dash_table&#45;&gt;hidebound.server.components -->
<g id="edge40" class="edge">
<title>dash_table&#45;&gt;hidebound.server.components</title>
<path fill="none" stroke="#de958e" d="M1656.5432,-1006.7303C1681.0745,-1010.4731 1710.5868,-1017.1437 1735,-1029 1788.4633,-1054.9646 1839.0702,-1103.2588 1867.3161,-1133.1139"/>
<polygon fill="#de958e" stroke="#de958e" points="1864.9597,-1135.719 1874.3389,-1140.6468 1870.0798,-1130.9457 1864.9597,-1135.719"/>
</g>
<!-- dash.dependencies -->
<g id="node23" class="node">
<title>dash.dependencies</title>
<polygon fill="#343434" stroke="#343434" points="1969,-668 1812,-668 1812,-632 1969,-632 1969,-668"/>
<text text-anchor="middle" x="1890.5" y="-646.3" font-family="Courier,monospace" font-size="14.00" fill="#de958e">dash.dependencies</text>
</g>
<!-- dash.dependencies&#45;&gt;hidebound.server.app -->
<g id="edge41" class="edge">
<title>dash.dependencies&#45;&gt;hidebound.server.app</title>
<path fill="none" stroke="#de958e" d="M1969.0991,-661.2567C1983.7288,-665.9572 1998.1258,-672.6047 2010,-682 2079.3218,-736.8501 2115.6983,-840.268 2129.8494,-889.9567"/>
<polygon fill="#de958e" stroke="#de958e" points="2126.5052,-890.9961 2132.5355,-899.7074 2133.2538,-889.1369 2126.5052,-890.9961"/>
</g>
<!-- flask -->
<g id="node24" class="node">
<title>flask</title>
<polygon fill="#343434" stroke="#343434" points="1344,-1104 1286,-1104 1286,-1068 1344,-1068 1344,-1104"/>
<text text-anchor="middle" x="1315" y="-1082.3" font-family="Courier,monospace" font-size="14.00" fill="#de958e">flask</text>
</g>
<!-- flask&#45;&gt;hidebound.server.api -->
<g id="edge42" class="edge">
<title>flask&#45;&gt;hidebound.server.api</title>
<path fill="none" stroke="#de958e" d="M1344.0671,-1088.4975C1373.309,-1089.284 1417.6044,-1085.4648 1443,-1059 1509.7785,-989.4101 1406.9731,-909.1424 1479,-845 1523.1833,-805.6533 1682.0732,-808.3865 1788.9878,-815.2475"/>
<polygon fill="#de958e" stroke="#de958e" points="1788.9567,-818.7531 1799.1666,-815.9231 1789.4203,-811.7684 1788.9567,-818.7531"/>
</g>
<!-- flask&#45;&gt;hidebound.server.app -->
<g id="edge43" class="edge">
<title>flask&#45;&gt;hidebound.server.app</title>
<path fill="none" stroke="#de958e" d="M1344.1785,-1087.1714C1372.4638,-1086.7689 1415.0785,-1081.8994 1443,-1059 1474.4061,-1033.2428 1446.7316,-999.6684 1479,-975 1563.8206,-910.1567 1873.4346,-909.4902 2035.9072,-913.9439"/>
<polygon fill="#de958e" stroke="#de958e" points="2035.8196,-917.4427 2045.9155,-914.2298 2036.0195,-910.4456 2035.8196,-917.4427"/>
</g>
<!-- flask&#45;&gt;hidebound.server.components -->
<g id="edge44" class="edge">
<title>flask&#45;&gt;hidebound.server.components</title>
<path fill="none" stroke="#de958e" d="M1344.1651,-1087.6276C1412.6757,-1091.701 1589.1105,-1103.6474 1735,-1126 1757.5748,-1129.4588 1781.8037,-1134.1298 1804.2583,-1138.8679"/>
<polygon fill="#de958e" stroke="#de958e" points="1803.5884,-1142.3037 1814.0992,-1140.972 1805.0521,-1135.4584 1803.5884,-1142.3037"/>
</g>
<!-- flask&#45;&gt;hidebound.server.server_tools -->
<g id="edge45" class="edge">
<title>flask&#45;&gt;hidebound.server.server_tools</title>
<path fill="none" stroke="#de958e" d="M1344.0087,-1088.1776C1372.9895,-1088.6727 1416.8832,-1084.5914 1443,-1059 1493.5139,-1009.5023 1429.4126,-954.4259 1479,-904 1482.0264,-900.9224 1485.3009,-898.1245 1488.7704,-895.5817"/>
<polygon fill="#de958e" stroke="#de958e" points="1490.7219,-898.4877 1497.1951,-890.1003 1486.9043,-892.6203 1490.7219,-898.4877"/>
</g>
<!-- hidebound.exporters -->
<g id="node25" class="node">
<title>hidebound.exporters</title>
<polygon fill="#343434" stroke="#343434" points="476.5,-212 303.5,-212 303.5,-176 476.5,-176 476.5,-212"/>
<text text-anchor="middle" x="390" y="-190.3" font-family="Courier,monospace" font-size="14.00" fill="#a0d17b">hidebound.exporters</text>
</g>
<!-- hidebound.exporters&#45;&gt;hidebound.exporters.exporter_base -->
<g id="edge46" class="edge">
<title>hidebound.exporters&#45;&gt;hidebound.exporters.exporter_base</title>
<path fill="none" stroke="#a0d17b" d="M476.7918,-179.5085C499.1491,-175.7755 523.5912,-171.6944 547.2501,-167.7441"/>
<polygon fill="#a0d17b" stroke="#a0d17b" points="548.0463,-171.1597 557.3333,-166.0605 546.8934,-164.2553 548.0463,-171.1597"/>
</g>
<!-- hidebound.exporters&#45;&gt;hidebound.exporters.girder_exporter -->
<g id="edge47" class="edge">
<title>hidebound.exporters&#45;&gt;hidebound.exporters.girder_exporter</title>
<path fill="none" stroke="#a0d17b" d="M476.6977,-191.9218C562.0655,-191.281 695.8717,-194.0486 810,-213 854.1457,-220.3305 902.5812,-234.6047 939.2998,-246.774"/>
<polygon fill="#a0d17b" stroke="#a0d17b" points="938.2574,-250.116 948.8514,-249.9796 940.4846,-243.4797 938.2574,-250.116"/>
</g>
<!-- jinja2 -->
<g id="node26" class="node">
<title>jinja2</title>
<polygon fill="#343434" stroke="#343434" points="1348,-1050 1282,-1050 1282,-1014 1348,-1014 1348,-1050"/>
<text text-anchor="middle" x="1315" y="-1028.3" font-family="Courier,monospace" font-size="14.00" fill="#de958e">jinja2</text>
</g>
<!-- jinja2&#45;&gt;hidebound.server.server_tools -->
<g id="edge48" class="edge">
<title>jinja2&#45;&gt;hidebound.server.server_tools</title>
<path fill="none" stroke="#de958e" d="M1348.0679,-1031.9416C1376.5015,-1030.1602 1416.9348,-1023.256 1443,-1000 1477.0016,-969.663 1444.9984,-934.337 1479,-904 1482.6534,-900.7403 1486.5891,-897.8019 1490.7344,-895.1539"/>
<polygon fill="#de958e" stroke="#de958e" points="1492.5826,-898.1287 1499.5145,-890.1162 1489.0989,-892.0571 1492.5826,-898.1287"/>
</g>
<!-- rolling_pin.blob_etl -->
<g id="node27" class="node">
<title>rolling_pin.blob_etl</title>
<polygon fill="#343434" stroke="#343434" points="1698,-1296 1516,-1296 1516,-1260 1698,-1260 1698,-1296"/>
<text text-anchor="middle" x="1607" y="-1274.3" font-family="Courier,monospace" font-size="14.00" fill="#de958e">rolling_pin.blob_etl</text>
</g>
<!-- rolling_pin.blob_etl&#45;&gt;hidebound.server.components -->
<g id="edge49" class="edge">
<title>rolling_pin.blob_etl&#45;&gt;hidebound.server.components</title>
<path fill="none" stroke="#de958e" d="M1698.285,-1262.5801C1710.8118,-1259.3589 1723.359,-1255.5295 1735,-1251 1779.8316,-1233.5563 1826.7551,-1203.9953 1857.1748,-1183.0955"/>
<polygon fill="#de958e" stroke="#de958e" points="1859.4707,-1185.762 1865.6829,-1177.1794 1855.4745,-1180.0148 1859.4707,-1185.762"/>
</g>
<!-- dash.exceptions -->
<g id="node28" class="node">
<title>dash.exceptions</title>
<polygon fill="#343434" stroke="#343434" points="1960.5,-614 1820.5,-614 1820.5,-578 1960.5,-578 1960.5,-614"/>
<text text-anchor="middle" x="1890.5" y="-592.3" font-family="Courier,monospace" font-size="14.00" fill="#de958e">dash.exceptions</text>
</g>
<!-- dash.exceptions&#45;&gt;hidebound.server.app -->
<g id="edge50" class="edge">
<title>dash.exceptions&#45;&gt;hidebound.server.app</title>
<path fill="none" stroke="#de958e" d="M1960.6119,-600.5825C1978.2481,-604.5892 1996.094,-611.4469 2010,-623 2094.5881,-693.2756 2124.2197,-830.3605 2133.3671,-889.6032"/>
<polygon fill="#de958e" stroke="#de958e" points="2129.937,-890.3363 2134.8454,-899.7256 2136.8635,-889.3247 2129.937,-890.3363"/>
</g>
<!-- flasgger -->
<g id="node29" class="node">
<title>flasgger</title>
<polygon fill="#343434" stroke="#343434" points="1648.5,-36 1565.5,-36 1565.5,0 1648.5,0 1648.5,-36"/>
<text text-anchor="middle" x="1607" y="-14.3" font-family="Courier,monospace" font-size="14.00" fill="#de958e">flasgger</text>
</g>
<!-- flasgger&#45;&gt;hidebound.server.api -->
<g id="edge51" class="edge">
<title>flasgger&#45;&gt;hidebound.server.api</title>
<path fill="none" stroke="#de958e" d="M1648.507,-16.4956C1677.403,-17.8915 1714.3288,-25.035 1735,-50 1779.5037,-103.7481 1745.7684,-611.94 1771,-677 1790.1317,-726.3313 1832.4096,-771.7129 1861.1875,-798.6275"/>
<polygon fill="#de958e" stroke="#de958e" points="1859.1808,-801.5363 1868.9159,-805.7171 1863.9128,-796.3779 1859.1808,-801.5363"/>
</g>
<!-- flasgger&#45;&gt;hidebound.server.app -->
<g id="edge52" class="edge">
<title>flasgger&#45;&gt;hidebound.server.app</title>
<path fill="none" stroke="#de958e" d="M1648.5412,-19.8084C1675.625,-22.9069 1710.3813,-30.7247 1735,-50 1940.541,-210.9294 1904.0021,-330.4422 2010,-569 2061.7425,-685.4511 2109.2852,-830.1022 2128.2744,-890.0079"/>
<polygon fill="#de958e" stroke="#de958e" points="2125.035,-891.3732 2131.3807,-899.8574 2131.7108,-889.2677 2125.035,-891.3732"/>
</g>
<!-- girder_client -->
<g id="node30" class="node">
<title>girder_client</title>
<polygon fill="#343434" stroke="#343434" points="727.5,-258 603.5,-258 603.5,-222 727.5,-222 727.5,-258"/>
<text text-anchor="middle" x="665.5" y="-236.3" font-family="Courier,monospace" font-size="14.00" fill="#de958e">girder_client</text>
</g>
<!-- girder_client&#45;&gt;hidebound.exporters.girder_exporter -->
<g id="edge53" class="edge">
<title>girder_client&#45;&gt;hidebound.exporters.girder_exporter</title>
<path fill="none" stroke="#de958e" d="M727.7441,-245.2337C758.5033,-247.8201 797.2059,-251.0744 835.6489,-254.3068"/>
<polygon fill="#de958e" stroke="#de958e" points="835.6847,-257.8221 845.9428,-255.1724 836.2713,-250.8467 835.6847,-257.8221"/>
</g>
<!-- pandasql -->
<g id="node31" class="node">
<title>pandasql</title>
<polygon fill="#343434" stroke="#343434" points="1356.5,-714 1273.5,-714 1273.5,-678 1356.5,-678 1356.5,-714"/>
<text text-anchor="middle" x="1315" y="-692.3" font-family="Courier,monospace" font-size="14.00" fill="#de958e">pandasql</text>
</g>
<!-- pandasql&#45;&gt;hidebound.core.database -->
<g id="edge54" class="edge">
<title>pandasql&#45;&gt;hidebound.core.database</title>
<path fill="none" stroke="#de958e" d="M1356.5264,-702.5418C1392.3214,-708.1808 1445.7108,-716.5914 1494.0129,-724.2007"/>
<polygon fill="#de958e" stroke="#de958e" points="1493.4933,-727.6619 1503.9161,-725.7608 1494.5826,-720.7472 1493.4933,-727.6619"/>
</g>
<!-- lunchbox.tools -->
<g id="node32" class="node">
<title>lunchbox.tools</title>
<polygon fill="#343434" stroke="#343434" points="1064.5,-1016 932.5,-1016 932.5,-980 1064.5,-980 1064.5,-1016"/>
<text text-anchor="middle" x="998.5" y="-994.3" font-family="Courier,monospace" font-size="14.00" fill="#de958e">lunchbox.tools</text>
</g>
<!-- lunchbox.tools&#45;&gt;hidebound.core.database_tools -->
<g id="edge55" class="edge">
<title>lunchbox.tools&#45;&gt;hidebound.core.database_tools</title>
<path fill="none" stroke="#de958e" d="M1064.6739,-999.3995C1093.6732,-996.9129 1126.5849,-989.5318 1151,-971 1180.4514,-948.6455 1164.3674,-925.2383 1187,-896 1213.0484,-862.3489 1251.1502,-831.8748 1279.009,-811.9441"/>
<polygon fill="#de958e" stroke="#de958e" points="1281.1399,-814.7244 1287.3013,-806.1054 1277.1098,-809.0008 1281.1399,-814.7244"/>
</g>
<!-- lunchbox.tools&#45;&gt;hidebound.server.server_tools -->
<g id="edge56" class="edge">
<title>lunchbox.tools&#45;&gt;hidebound.server.server_tools</title>
<path fill="none" stroke="#de958e" d="M1064.5016,-999.7841C1172.5141,-1001.5412 1381.2121,-999.7176 1443,-962 1468.896,-946.1921 1454.4872,-921.8779 1479,-904 1483.861,-900.4548 1489.0719,-897.3001 1494.5098,-894.4933"/>
<polygon fill="#de958e" stroke="#de958e" points="1496.2997,-897.5191 1503.8539,-890.0904 1493.3159,-891.1868 1496.2997,-897.5191"/>
</g>
<!-- hidebound -->
<g id="node33" class="node">
<title>hidebound</title>
<polygon fill="#343434" stroke="#343434" points="91,-694 0,-694 0,-658 91,-658 91,-694"/>
<text text-anchor="middle" x="45.5" y="-672.3" font-family="Courier,monospace" font-size="14.00" fill="#a0d17b">hidebound</text>
</g>
<!-- hidebound&#45;&gt;hidebound.server -->
<g id="edge57" class="edge">
<title>hidebound&#45;&gt;hidebound.server</title>
<path fill="none" stroke="#a0d17b" d="M48.9088,-694.1274C66.606,-782.1747 156.3264,-1161 390,-1161 390,-1161 390,-1161 665.5,-1161 868.1979,-1161 1106.3569,-1169.3764 1230.3184,-1174.3696"/>
<polygon fill="#a0d17b" stroke="#a0d17b" points="1230.3653,-1177.8743 1240.4989,-1174.7824 1230.649,-1170.88 1230.3653,-1177.8743"/>
</g>
<!-- hidebound&#45;&gt;hidebound.exporters -->
<g id="edge58" class="edge">
<title>hidebound&#45;&gt;hidebound.exporters</title>
<path fill="none" stroke="#a0d17b" d="M82.6578,-657.9281C85.8144,-655.2794 88.6806,-652.3098 91,-649 140.3239,-578.6152 86.974,-535.0578 127,-459 183.42,-351.7901 297.6463,-259.8711 355.1959,-218.0629"/>
<polygon fill="#a0d17b" stroke="#a0d17b" points="357.5183,-220.704 363.5952,-212.0252 353.4325,-215.0201 357.5183,-220.704"/>
</g>
<!-- hidebound.core -->
<g id="node36" class="node">
<title>hidebound.core</title>
<polygon fill="#343434" stroke="#343434" points="259,-694 127,-694 127,-658 259,-658 259,-694"/>
<text text-anchor="middle" x="193" y="-672.3" font-family="Courier,monospace" font-size="14.00" fill="#a0d17b">hidebound.core</text>
</g>
<!-- hidebound&#45;&gt;hidebound.core -->
<g id="edge59" class="edge">
<title>hidebound&#45;&gt;hidebound.core</title>
<path fill="none" stroke="#a0d17b" d="M91.3614,-676C99.4456,-676 108.0541,-676 116.7093,-676"/>
<polygon fill="#a0d17b" stroke="#a0d17b" points="116.8627,-679.5001 126.8626,-676 116.8626,-672.5001 116.8627,-679.5001"/>
</g>
<!-- numpy -->
<g id="node34" class="node">
<title>numpy</title>
<polygon fill="#343434" stroke="#343434" points="1027.5,-962 969.5,-962 969.5,-926 1027.5,-926 1027.5,-962"/>
<text text-anchor="middle" x="998.5" y="-940.3" font-family="Courier,monospace" font-size="14.00" fill="#de958e">numpy</text>
</g>
<!-- numpy&#45;&gt;hidebound.core.database -->
<g id="edge60" class="edge">
<title>numpy&#45;&gt;hidebound.core.database</title>
<path fill="none" stroke="#de958e" d="M1027.6425,-939.7668C1058.6889,-934.8238 1109.0408,-925.5578 1151,-912 1167.6609,-906.6165 1170.2822,-901.2042 1187,-896 1297.529,-861.593 1350.963,-918.2117 1443,-848 1472.0789,-825.8168 1450.5953,-797.0402 1479,-774 1483.9033,-770.0228 1489.2345,-766.531 1494.8446,-763.4663"/>
<polygon fill="#de958e" stroke="#de958e" points="1496.4633,-766.5704 1503.8688,-758.9934 1493.3546,-760.2985 1496.4633,-766.5704"/>
</g>
<!-- numpy&#45;&gt;hidebound.core.database_tools -->
<g id="edge61" class="edge">
<title>numpy&#45;&gt;hidebound.core.database_tools</title>
<path fill="none" stroke="#de958e" d="M1027.6655,-931.1611C1058.5171,-917.4525 1108.5116,-894.8737 1151,-874 1192.8052,-853.4619 1239.8185,-828.6261 1272.7556,-810.9349"/>
<polygon fill="#de958e" stroke="#de958e" points="1274.5097,-813.9656 1281.6563,-806.1441 1271.1919,-807.8018 1274.5097,-813.9656"/>
</g>
<!-- numpy&#45;&gt;hidebound.server.api -->
<g id="edge62" class="edge">
<title>numpy&#45;&gt;hidebound.server.api</title>
<path fill="none" stroke="#de958e" d="M1027.7119,-949.0892C1104.3066,-960.7284 1313.9172,-981.404 1443,-886 1474.0296,-863.0663 1446.5489,-827.8738 1479,-807 1574.6908,-745.4479 1621.3908,-800.8083 1735,-807 1752.6177,-807.9602 1771.3084,-809.5279 1789.3928,-811.333"/>
<polygon fill="#de958e" stroke="#de958e" points="1789.0612,-814.8172 1799.3666,-812.3578 1789.7768,-807.8539 1789.0612,-814.8172"/>
</g>
<!-- pandas -->
<g id="node35" class="node">
<title>pandas</title>
<polygon fill="#343434" stroke="#343434" points="423,-908 357,-908 357,-872 423,-872 423,-908"/>
<text text-anchor="middle" x="390" y="-886.3" font-family="Courier,monospace" font-size="14.00" fill="#de958e">pandas</text>
</g>
<!-- pandas&#45;&gt;hidebound.core.database -->
<g id="edge63" class="edge">
<title>pandas&#45;&gt;hidebound.core.database</title>
<path fill="none" stroke="#de958e" d="M423.2444,-889.3532C494.2972,-887.8346 666.1942,-883.4339 810,-874 845.2433,-871.688 1411.5361,-831.0456 1443,-815 1464.6028,-803.9833 1458.2963,-786.6256 1479,-774 1485.252,-770.1874 1491.9386,-766.828 1498.8538,-763.868"/>
<polygon fill="#de958e" stroke="#de958e" points="1500.404,-767.0184 1508.406,-760.0743 1497.8202,-760.5127 1500.404,-767.0184"/>
</g>
<!-- pandas&#45;&gt;hidebound.core.database_tools -->
<g id="edge64" class="edge">
<title>pandas&#45;&gt;hidebound.core.database_tools</title>
<path fill="none" stroke="#de958e" d="M423.0251,-886.6085C528.9166,-875.6983 869.4779,-840.3318 1151,-808 1159.4886,-807.0251 1168.2224,-806.0063 1177.0293,-804.967"/>
<polygon fill="#de958e" stroke="#de958e" points="1177.4758,-808.4386 1186.9944,-803.7861 1176.652,-801.4873 1177.4758,-808.4386"/>
</g>
<!-- pandas&#45;&gt;hidebound.core.tools -->
<g id="edge65" class="edge">
<title>pandas&#45;&gt;hidebound.core.tools</title>
<path fill="none" stroke="#de958e" d="M423.4063,-881.9416C441.8138,-877.1449 464.9339,-870.531 485,-863 501.5659,-856.7826 504.258,-851.7263 521,-846 534.8274,-841.2706 549.6431,-837.0632 564.3254,-833.3792"/>
<polygon fill="#de958e" stroke="#de958e" points="565.5671,-836.6792 574.455,-830.9125 563.9108,-829.878 565.5671,-836.6792"/>
</g>
<!-- pandas&#45;&gt;hidebound.core.validators -->
<g id="edge66" class="edge">
<title>pandas&#45;&gt;hidebound.core.validators</title>
<path fill="none" stroke="#de958e" d="M423.3424,-889.6799C444.3783,-887.5672 470.2691,-881.0768 485,-863 553.692,-778.7053 448.4968,-456.04 521,-375 527.6304,-367.5889 535.5901,-361.8083 544.3207,-357.3336"/>
<polygon fill="#de958e" stroke="#de958e" points="545.9883,-360.4214 553.6746,-353.1296 543.1187,-354.0366 545.9883,-360.4214"/>
</g>
<!-- pandas&#45;&gt;hidebound.server.components -->
<g id="edge67" class="edge">
<title>pandas&#45;&gt;hidebound.server.components</title>
<path fill="none" stroke="#de958e" d="M423.0699,-900.2265C498.0579,-923.3197 686.8645,-980.9249 846,-1025 996.8422,-1066.7781 1032.4516,-1088.2296 1187,-1113 1385.5708,-1144.8261 1619.0444,-1154.7479 1760.8194,-1157.7723"/>
<polygon fill="#de958e" stroke="#de958e" points="1760.7973,-1161.2725 1770.867,-1157.9784 1760.9409,-1154.274 1760.7973,-1161.2725"/>
</g>
<!-- hidebound.core&#45;&gt;hidebound.core.config -->
<g id="edge68" class="edge">
<title>hidebound.core&#45;&gt;hidebound.core.config</title>
<path fill="none" stroke="#a0d17b" d="M202.2628,-657.9878C216.9578,-628.5237 245.3439,-567.8055 259,-513 277.6907,-437.9896 247.0502,-227.636 295,-167 361,-83.5382 416.0962,-105.8067 521,-88 797.5017,-41.0658 908.4842,16.8619 1151,-124 1231.4694,-170.7395 1283.1064,-274.5095 1304.1768,-324.2985"/>
<polygon fill="#a0d17b" stroke="#a0d17b" points="1301.0424,-325.8782 1308.0958,-333.784 1307.512,-323.2052 1301.0424,-325.8782"/>
</g>
<!-- hidebound.core&#45;&gt;hidebound.core.database -->
<g id="edge69" class="edge">
<title>hidebound.core&#45;&gt;hidebound.core.database</title>
<path fill="none" stroke="#a0d17b" d="M193.7188,-694.329C196.751,-744.3809 212.5651,-884.0365 295,-950 487.9717,-1104.4138 599.4181,-1008.2951 846,-1025 981.2456,-1034.1623 1019.7784,-1059.0029 1151,-1025 1168.7182,-1020.4088 1170.6906,-1013.3075 1187,-1005 1298.8013,-948.052 1354.6151,-975.0546 1443,-886 1470.1804,-858.6136 1452.2995,-834.8545 1479,-807 1496.7353,-788.4983 1520.8756,-774.3724 1543.4138,-764.0923"/>
<polygon fill="#a0d17b" stroke="#a0d17b" points="1544.8619,-767.2791 1552.6173,-760.0608 1542.0532,-760.8672 1544.8619,-767.2791"/>
</g>
<!-- hidebound.core&#45;&gt;hidebound.core.database_tools -->
<g id="edge70" class="edge">
<title>hidebound.core&#45;&gt;hidebound.core.database_tools</title>
<path fill="none" stroke="#a0d17b" d="M194.2245,-694.0727C198.4767,-740.7526 216.9814,-865.3017 295,-917 398.8651,-985.8252 543.1011,-965.6615 1151,-838 1185.8288,-830.6858 1223.8968,-819.2975 1254.5817,-809.236"/>
<polygon fill="#a0d17b" stroke="#a0d17b" points="1255.8813,-812.4926 1264.2714,-806.0228 1253.678,-805.8484 1255.8813,-812.4926"/>
</g>
<!-- hidebound.core&#45;&gt;hidebound.core.parser -->
<g id="edge71" class="edge">
<title>hidebound.core&#45;&gt;hidebound.core.parser</title>
<path fill="none" stroke="#a0d17b" d="M217.9502,-657.7623C253.1796,-632.0108 317.5723,-584.942 356.8059,-556.2637"/>
<polygon fill="#a0d17b" stroke="#a0d17b" points="359.2447,-558.8165 365.2524,-550.0896 355.1138,-553.1652 359.2447,-558.8165"/>
</g>
<!-- hidebound.core&#45;&gt;hidebound.core.specification_base -->
<g id="edge72" class="edge">
<title>hidebound.core&#45;&gt;hidebound.core.specification_base</title>
<path fill="none" stroke="#a0d17b" d="M259.2597,-662.5095C400.8082,-633.6902 733.3306,-565.9886 899.8519,-532.0848"/>
<polygon fill="#a0d17b" stroke="#a0d17b" points="900.9891,-535.4251 910.0897,-530.0004 899.5925,-528.5659 900.9891,-535.4251"/>
</g>
<!-- hidebound.core&#45;&gt;hidebound.core.specifications -->
<g id="edge73" class="edge">
<title>hidebound.core&#45;&gt;hidebound.core.specifications</title>
<path fill="none" stroke="#a0d17b" d="M259.2574,-671.5418C318.5421,-667.21 407.7556,-659.846 485,-650 747.4884,-616.5416 1054.0877,-561.3362 1210.941,-531.9134"/>
<polygon fill="#a0d17b" stroke="#a0d17b" points="1211.8724,-535.2998 1221.054,-530.0132 1210.5797,-528.4201 1211.8724,-535.2998"/>
</g>
<!-- hidebound.core&#45;&gt;hidebound.core.tools -->
<g id="edge74" class="edge">
<title>hidebound.core&#45;&gt;hidebound.core.tools</title>
<path fill="none" stroke="#a0d17b" d="M207.4212,-694.0308C225.4558,-715.1676 258.4391,-749.4131 295,-766 341.589,-787.1364 471.4482,-800.4503 564.2613,-807.5565"/>
<polygon fill="#a0d17b" stroke="#a0d17b" points="564.019,-811.048 574.2535,-808.3086 564.5444,-804.0678 564.019,-811.048"/>
</g>
<!-- hidebound.core&#45;&gt;hidebound.core.traits -->
<g id="edge75" class="edge">
<title>hidebound.core&#45;&gt;hidebound.core.traits</title>
<path fill="none" stroke="#a0d17b" d="M241.9133,-694.1267C347.4857,-730.5874 603.8285,-804.7383 810,-749 827.8813,-744.1658 828.7133,-734.6543 846,-728 860.9486,-722.2457 877.1404,-717.4414 893.2006,-713.4554"/>
<polygon fill="#a0d17b" stroke="#a0d17b" points="894.2555,-716.8021 903.1711,-711.0782 892.632,-709.993 894.2555,-716.8021"/>
</g>
<!-- hidebound.core&#45;&gt;hidebound.core.validators -->
<g id="edge76" class="edge">
<title>hidebound.core&#45;&gt;hidebound.core.validators</title>
<path fill="none" stroke="#a0d17b" d="M200.76,-657.5152C213.3455,-627.3878 238.8315,-565.7576 259,-513 275.8674,-468.8775 258.8548,-443.4111 295,-413 304.7273,-404.8159 439.719,-382.5362 543.9773,-366.3383"/>
<polygon fill="#a0d17b" stroke="#a0d17b" points="544.6196,-369.7807 553.9656,-364.7904 543.5476,-362.8632 544.6196,-369.7807"/>
</g>
<!-- pyparsing -->
<g id="node37" class="node">
<title>pyparsing</title>
<polygon fill="#343434" stroke="#343434" points="238.5,-504 147.5,-504 147.5,-468 238.5,-468 238.5,-504"/>
<text text-anchor="middle" x="193" y="-482.3" font-family="Courier,monospace" font-size="14.00" fill="#de958e">pyparsing</text>
</g>
<!-- pyparsing&#45;&gt;hidebound.core.parser -->
<g id="edge77" class="edge">
<title>pyparsing&#45;&gt;hidebound.core.parser</title>
<path fill="none" stroke="#de958e" d="M238.6909,-496.6689C257.8002,-501.131 280.6743,-506.4722 302.7804,-511.634"/>
<polygon fill="#de958e" stroke="#de958e" points="301.9952,-515.0447 312.5292,-513.9104 303.587,-508.2281 301.9952,-515.0447"/>
</g>
<!-- pyparsing&#45;&gt;hidebound.core.specification_base -->
<g id="edge78" class="edge">
<title>pyparsing&#45;&gt;hidebound.core.specification_base</title>
<path fill="none" stroke="#de958e" d="M238.6151,-487.4724C353.0757,-491.1669 656.6338,-500.9652 843.6011,-507.0002"/>
<polygon fill="#de958e" stroke="#de958e" points="843.6929,-510.5049 853.8007,-507.3294 843.9188,-503.5085 843.6929,-510.5049"/>
</g>
<!-- pyparsing&#45;&gt;hidebound.core.validators -->
<g id="edge79" class="edge">
<title>pyparsing&#45;&gt;hidebound.core.validators</title>
<path fill="none" stroke="#de958e" d="M197.8437,-467.8062C208.4823,-431.9743 237.6398,-352.9764 295,-321 339.5001,-296.1927 470.1916,-312.2895 563.737,-328.2505"/>
<polygon fill="#de958e" stroke="#de958e" points="563.3584,-331.7369 573.8087,-329.9926 564.5516,-324.8393 563.3584,-331.7369"/>
</g>
<!-- schematics -->
<g id="node38" class="node">
<title>schematics</title>
<polygon fill="#343434" stroke="#343434" points="715,-312 616,-312 616,-276 715,-276 715,-312"/>
<text text-anchor="middle" x="665.5" y="-290.3" font-family="Courier,monospace" font-size="14.00" fill="#de958e">schematics</text>
</g>
<!-- schematics&#45;&gt;hidebound.core.config -->
<g id="edge80" class="edge">
<title>schematics&#45;&gt;hidebound.core.config</title>
<path fill="none" stroke="#de958e" d="M715.1186,-298.4309C820.3131,-307.8247 1067.7039,-329.9166 1209.7542,-342.6016"/>
<polygon fill="#de958e" stroke="#de958e" points="1209.5247,-346.095 1219.7964,-343.4984 1210.1474,-339.1227 1209.5247,-346.095"/>
</g>
<!-- schematics&#45;&gt;hidebound.core.specification_base -->
<g id="edge81" class="edge">
<title>schematics&#45;&gt;hidebound.core.specification_base</title>
<path fill="none" stroke="#de958e" d="M715.1003,-295.9042C744.179,-298.7666 780.8136,-305.494 810,-321 886.2457,-361.5074 950.8827,-443.4581 980.763,-485.6234"/>
<polygon fill="#de958e" stroke="#de958e" points="978.0087,-487.7924 986.6033,-493.9879 983.7481,-483.785 978.0087,-487.7924"/>
</g>
<!-- schematics&#45;&gt;hidebound.exporters.girder_exporter -->
<g id="edge82" class="edge">
<title>schematics&#45;&gt;hidebound.exporters.girder_exporter</title>
<path fill="none" stroke="#de958e" d="M715.3535,-290.1075C747.672,-287.5842 791.7738,-284.1408 835.5484,-280.7229"/>
<polygon fill="#de958e" stroke="#de958e" points="836.069,-284.193 845.7662,-279.9252 835.524,-277.2143 836.069,-284.193"/>
</g>
<!-- schematics.types -->
<g id="node39" class="node">
<title>schematics.types</title>
<polygon fill="#343434" stroke="#343434" points="740,-420 591,-420 591,-384 740,-384 740,-420"/>
<text text-anchor="middle" x="665.5" y="-398.3" font-family="Courier,monospace" font-size="14.00" fill="#de958e">schematics.types</text>
</g>
<!-- schematics.types&#45;&gt;hidebound.core.config -->
<g id="edge83" class="edge">
<title>schematics.types&#45;&gt;hidebound.core.config</title>
<path fill="none" stroke="#de958e" d="M740.3596,-396.3659C835.7237,-389.1722 1005.6199,-376.3017 1151,-365 1169.914,-363.5296 1190.0536,-361.9471 1209.5095,-360.4096"/>
<polygon fill="#de958e" stroke="#de958e" points="1209.9184,-363.8883 1219.6112,-359.6106 1209.3664,-356.9101 1209.9184,-363.8883"/>
</g>
<!-- schematics.types&#45;&gt;hidebound.core.specification_base -->
<g id="edge84" class="edge">
<title>schematics.types&#45;&gt;hidebound.core.specification_base</title>
<path fill="none" stroke="#de958e" d="M740.1958,-408.5351C763.8602,-413.1418 789.2404,-420.9169 810,-434 831.9632,-447.8416 823.9603,-466.2805 846,-480 851.9407,-483.698 858.2379,-486.9754 864.7588,-489.8795"/>
<polygon fill="#de958e" stroke="#de958e" points="863.8779,-493.3018 874.4574,-493.8726 866.543,-486.829 863.8779,-493.3018"/>
</g>
<!-- schematics.types&#45;&gt;hidebound.core.specifications -->
<g id="edge85" class="edge">
<title>schematics.types&#45;&gt;hidebound.core.specifications</title>
<path fill="none" stroke="#de958e" d="M740.3214,-419.9539C772.6988,-427.3665 811.0999,-435.6827 846,-442 980.7071,-466.3834 1015.6743,-464.3239 1151,-485 1166.0923,-487.3059 1181.9517,-489.812 1197.6162,-492.3371"/>
<polygon fill="#de958e" stroke="#de958e" points="1197.4411,-495.8542 1207.8719,-493.9972 1198.5597,-488.9441 1197.4411,-495.8542"/>
</g>
<!-- schematics.types&#45;&gt;hidebound.exporters.girder_exporter -->
<g id="edge86" class="edge">
<title>schematics.types&#45;&gt;hidebound.exporters.girder_exporter</title>
<path fill="none" stroke="#de958e" d="M740.2766,-392.8809C763.0839,-388.8166 787.9482,-383.0621 810,-375 867.5863,-353.9465 928.2295,-316.3474 964.7101,-291.7931"/>
<polygon fill="#de958e" stroke="#de958e" points="966.702,-294.6712 973.004,-286.1544 962.7664,-288.8823 966.702,-294.6712"/>
</g>
<!-- wrapt -->
<g id="node40" class="node">
<title>wrapt</title>
<polygon fill="#343434" stroke="#343434" points="419,-366 361,-366 361,-330 419,-330 419,-366"/>
<text text-anchor="middle" x="390" y="-344.3" font-family="Courier,monospace" font-size="14.00" fill="#de958e">wrapt</text>
</g>
<!-- wrapt&#45;&gt;hidebound.core.validators -->
<g id="edge87" class="edge">
<title>wrapt&#45;&gt;hidebound.core.validators</title>
<path fill="none" stroke="#de958e" d="M419.2225,-348C449.1543,-348 497.7039,-348 543.8181,-348"/>
<polygon fill="#de958e" stroke="#de958e" points="543.9214,-351.5001 553.9214,-348 543.9214,-344.5001 543.9214,-351.5001"/>
</g>
<!-- schematics.exceptions -->
<g id="node41" class="node">
<title>schematics.exceptions</title>
<polygon fill="#343434" stroke="#343434" points="485,-458 295,-458 295,-422 485,-422 485,-458"/>
<text text-anchor="middle" x="390" y="-436.3" font-family="Courier,monospace" font-size="14.00" fill="#de958e">schematics.exceptions</text>
</g>
<!-- schematics.exceptions&#45;&gt;hidebound.core.config -->
<g id="edge88" class="edge">
<title>schematics.exceptions&#45;&gt;hidebound.core.config</title>
<path fill="none" stroke="#de958e" d="M430.7491,-421.9739C450.3212,-411.1861 472.2423,-395.5415 485,-375 545.1552,-278.1431 434.9065,-195.7517 521,-121 628.6136,-27.5632 1023.7233,-176.8771 1151,-241 1200.3245,-265.85 1252.3247,-303.2218 1284.2195,-327.6147"/>
<polygon fill="#de958e" stroke="#de958e" points="1282.216,-330.4895 1292.2722,-333.8249 1286.4909,-324.9464 1282.216,-330.4895"/>
</g>
<!-- schematics.exceptions&#45;&gt;hidebound.core.database_tools -->
<g id="edge89" class="edge">
<title>schematics.exceptions&#45;&gt;hidebound.core.database_tools</title>
<path fill="none" stroke="#de958e" d="M459.2017,-458.0707C479.1058,-463.0948 500.8745,-468.4242 521,-473 664.7247,-505.6778 700.8589,-513.3345 846,-539 913.4971,-550.9356 1100.044,-539.1546 1151,-585 1198.1213,-627.3953 1147.2395,-673.6352 1187,-723 1202.2527,-741.9371 1224.4704,-755.8808 1246.129,-765.8867"/>
<polygon fill="#de958e" stroke="#de958e" points="1244.7917,-769.1219 1255.3551,-769.9369 1247.6055,-762.7124 1244.7917,-769.1219"/>
</g>
<!-- schematics.exceptions&#45;&gt;hidebound.core.specification_base -->
<g id="edge90" class="edge">
<title>schematics.exceptions&#45;&gt;hidebound.core.specification_base</title>
<path fill="none" stroke="#de958e" d="M485.093,-443.3749C570.5018,-447.324 699.1459,-455.5457 810,-472 826.2127,-474.4065 829.9792,-476.5392 846,-480 864.0433,-483.8977 883.3026,-487.9911 901.8477,-491.899"/>
<polygon fill="#de958e" stroke="#de958e" points="901.2599,-495.3518 911.7662,-493.9858 902.7011,-488.5018 901.2599,-495.3518"/>
</g>
<!-- schematics.exceptions&#45;&gt;hidebound.core.tools -->
<g id="edge91" class="edge">
<title>schematics.exceptions&#45;&gt;hidebound.core.tools</title>
<path fill="none" stroke="#de958e" d="M430.7004,-458.0565C450.2596,-468.8523 472.1839,-484.4949 485,-505 543.0991,-597.9553 454.8976,-661.5548 521,-749 535.798,-768.5759 557.8297,-782.4016 580.2566,-792.1075"/>
<polygon fill="#de958e" stroke="#de958e" points="578.9497,-795.3544 589.531,-795.889 581.5926,-788.8724 578.9497,-795.3544"/>
</g>
<!-- schematics.exceptions&#45;&gt;hidebound.core.validators -->
<g id="edge92" class="edge">
<title>schematics.exceptions&#45;&gt;hidebound.core.validators</title>
<path fill="none" stroke="#de958e" d="M455.4771,-421.9812C465.6799,-418.0407 475.8587,-413.3982 485,-408 503.6896,-396.9633 501.5833,-384.7007 521,-375 528.3039,-371.3509 536.039,-368.1922 543.9834,-365.4583"/>
<polygon fill="#de958e" stroke="#de958e" points="545.3047,-368.7104 553.7627,-362.3298 543.1718,-362.0433 545.3047,-368.7104"/>
</g>
<!-- schematics.exceptions&#45;&gt;hidebound.server.api -->
<g id="edge93" class="edge">
<title>schematics.exceptions&#45;&gt;hidebound.server.api</title>
<path fill="none" stroke="#de958e" d="M431.3733,-421.7906C450.8566,-411.0341 472.5112,-395.4723 485,-375 518.4745,-320.1268 473.8864,-131.7254 521,-88 676.7493,56.5483 786.0099,-64 998.5,-64 998.5,-64 998.5,-64 1315,-64 1654.5582,-64 1562.5233,-408.9753 1771,-677 1804.2658,-719.7676 1844.2033,-768.3658 1868.4504,-797.5803"/>
<polygon fill="#de958e" stroke="#de958e" points="1866.0668,-800.1881 1875.1507,-805.6409 1871.4499,-795.7134 1866.0668,-800.1881"/>
</g>
<!-- OpenEXR -->
<g id="node42" class="node">
<title>OpenEXR</title>
<polygon fill="#343434" stroke="#343434" points="427,-854 353,-854 353,-818 427,-818 427,-854"/>
<text text-anchor="middle" x="390" y="-832.3" font-family="Courier,monospace" font-size="14.00" fill="#de958e">OpenEXR</text>
</g>
<!-- OpenEXR&#45;&gt;hidebound.core.tools -->
<g id="edge94" class="edge">
<title>OpenEXR&#45;&gt;hidebound.core.tools</title>
<path fill="none" stroke="#de958e" d="M427.1552,-833.033C462.1896,-830.2353 516.3125,-825.9133 564.1336,-822.0946"/>
<polygon fill="#de958e" stroke="#de958e" points="564.5437,-825.5731 574.2333,-821.2881 563.9864,-818.5953 564.5437,-825.5731"/>
</g>
<!-- skimage.io -->
<g id="node43" class="node">
<title>skimage.io</title>
<polygon fill="#343434" stroke="#343434" points="715,-740 616,-740 616,-704 715,-704 715,-740"/>
<text text-anchor="middle" x="665.5" y="-718.3" font-family="Courier,monospace" font-size="14.00" fill="#de958e">skimage.io</text>
</g>
<!-- skimage.io&#45;&gt;hidebound.core.traits -->
<g id="edge95" class="edge">
<title>skimage.io&#45;&gt;hidebound.core.traits</title>
<path fill="none" stroke="#de958e" d="M715.3535,-718.1075C762.177,-714.4516 833.7345,-708.8646 893.196,-704.2219"/>
<polygon fill="#de958e" stroke="#de958e" points="893.69,-707.6941 903.3872,-703.4262 893.1451,-700.7153 893.69,-707.6941"/>
</g>
</g>
</svg>
