<?xml version="1.0" encoding="UTF-8" standalone="no"?>
<!DOCTYPE svg PUBLIC "-//W3C//DTD SVG 1.1//EN"
 "http://www.w3.org/Graphics/SVG/1.1/DTD/svg11.dtd">
<!-- Generated by graphviz version 2.40.1 (20161225.0304)
 -->
<!-- Title: %3 Pages: 1 -->
<svg width="1480pt" height="1442pt"
 viewBox="0.00 0.00 1480.00 1441.74" xmlns="http://www.w3.org/2000/svg" xmlns:xlink="http://www.w3.org/1999/xlink">
<g id="graph0" class="graph" transform="scale(1 1) rotate(0) translate(4 1437.7444)">
<title>%3</title>
<polygon fill="#242424" stroke="transparent" points="-4,4 -4,-1437.7444 1476,-1437.7444 1476,4 -4,4"/>
<!-- cli -->
<g id="node1" class="node">
<title>cli</title>
<polygon fill="#343434" stroke="#343434" points="72.5,-93.7444 18.5,-93.7444 18.5,-57.7444 72.5,-57.7444 72.5,-93.7444"/>
<text text-anchor="middle" x="45.5" y="-72.0444" font-family="Courier,monospace" font-size="14.00" fill="#b6ecf3">cli</text>
</g>
<!-- hidebound.app -->
<g id="node2" class="node">
<title>hidebound.app</title>
<polygon fill="#343434" stroke="#343434" points="1472,-930.7444 1348,-930.7444 1348,-894.7444 1472,-894.7444 1472,-930.7444"/>
<text text-anchor="middle" x="1410" y="-909.0444" font-family="Courier,monospace" font-size="14.00" fill="#b6ecf3">hidebound.app</text>
</g>
<!-- hidebound.client -->
<g id="node3" class="node">
<title>hidebound.client</title>
<polygon fill="#343434" stroke="#343434" points="769.5,-1233.7444 620.5,-1233.7444 620.5,-1197.7444 769.5,-1197.7444 769.5,-1233.7444"/>
<text text-anchor="middle" x="695" y="-1212.0444" font-family="Courier,monospace" font-size="14.00" fill="#b6ecf3">hidebound.client</text>
</g>
<!-- hidebound.client&#45;&gt;hidebound.app -->
<g id="edge1" class="edge">
<title>hidebound.client&#45;&gt;hidebound.app</title>
<path fill="none" stroke="#b6ecf3" d="M769.6324,-1224.6425C894.8201,-1235.4286 1149.3532,-1239.1432 1312,-1117.7444 1370.6797,-1073.9461 1395.7869,-985.8865 1405.1569,-940.7773"/>
<polygon fill="#b6ecf3" stroke="#b6ecf3" points="1408.6233,-941.2885 1407.1162,-930.8014 1401.7546,-939.9394 1408.6233,-941.2885"/>
</g>
<!-- hidebound.config -->
<g id="node4" class="node">
<title>hidebound.config</title>
<polygon fill="#343434" stroke="#343434" points="1057.5,-632.7444 908.5,-632.7444 908.5,-596.7444 1057.5,-596.7444 1057.5,-632.7444"/>
<text text-anchor="middle" x="983" y="-611.0444" font-family="Courier,monospace" font-size="14.00" fill="#b6ecf3">hidebound.config</text>
</g>
<!-- hidebound.database -->
<g id="node5" class="node">
<title>hidebound.database</title>
<polygon fill="#343434" stroke="#343434" points="1312,-849.7444 1147,-849.7444 1147,-813.7444 1312,-813.7444 1312,-849.7444"/>
<text text-anchor="middle" x="1229.5" y="-828.0444" font-family="Courier,monospace" font-size="14.00" fill="#b6ecf3">hidebound.database</text>
</g>
<!-- hidebound.config&#45;&gt;hidebound.database -->
<g id="edge2" class="edge">
<title>hidebound.config&#45;&gt;hidebound.database</title>
<path fill="none" stroke="#b6ecf3" d="M1003.5925,-632.8724C1047.6361,-671.6451 1151.0497,-762.6826 1201.2159,-806.8451"/>
<polygon fill="#b6ecf3" stroke="#b6ecf3" points="1198.9741,-809.5347 1208.7928,-813.5153 1203.5995,-804.2805 1198.9741,-809.5347"/>
</g>
<!-- hidebound.database&#45;&gt;hidebound.app -->
<g id="edge3" class="edge">
<title>hidebound.database&#45;&gt;hidebound.app</title>
<path fill="none" stroke="#b6ecf3" d="M1289.037,-849.7464C1296.8461,-852.5382 1304.6745,-855.5608 1312,-858.7444 1332.3299,-867.5793 1354.0072,-879.267 1371.7914,-889.5089"/>
<polygon fill="#b6ecf3" stroke="#b6ecf3" points="1370.3073,-892.6952 1380.7088,-894.7103 1373.8342,-886.6486 1370.3073,-892.6952"/>
</g>
<!-- hidebound.database_test_base -->
<g id="node6" class="node">
<title>hidebound.database_test_base</title>
<polygon fill="#343434" stroke="#343434" points="1107,-487.7444 859,-487.7444 859,-451.7444 1107,-451.7444 1107,-487.7444"/>
<text text-anchor="middle" x="983" y="-466.0444" font-family="Courier,monospace" font-size="14.00" fill="#b6ecf3">hidebound.database_test_base</text>
</g>
<!-- hidebound.database_tools -->
<g id="node7" class="node">
<title>hidebound.database_tools</title>
<polygon fill="#343434" stroke="#343434" points="802.5,-843.7444 587.5,-843.7444 587.5,-807.7444 802.5,-807.7444 802.5,-843.7444"/>
<text text-anchor="middle" x="695" y="-822.0444" font-family="Courier,monospace" font-size="14.00" fill="#b6ecf3">hidebound.database_tools</text>
</g>
<!-- hidebound.database_tools&#45;&gt;hidebound.database -->
<g id="edge4" class="edge">
<title>hidebound.database_tools&#45;&gt;hidebound.database</title>
<path fill="none" stroke="#b6ecf3" d="M802.5211,-826.9513C900.3678,-828.0497 1043.3352,-829.6546 1136.399,-830.6993"/>
<polygon fill="#b6ecf3" stroke="#b6ecf3" points="1136.6111,-834.2018 1146.6497,-830.8143 1136.6897,-827.2022 1136.6111,-834.2018"/>
</g>
<!-- hidebound.parser -->
<g id="node8" class="node">
<title>hidebound.parser</title>
<polygon fill="#343434" stroke="#343434" points="296.5,-419.7444 147.5,-419.7444 147.5,-383.7444 296.5,-383.7444 296.5,-419.7444"/>
<text text-anchor="middle" x="222" y="-398.0444" font-family="Courier,monospace" font-size="14.00" fill="#b6ecf3">hidebound.parser</text>
</g>
<!-- hidebound.parser&#45;&gt;hidebound.database_tools -->
<g id="edge5" class="edge">
<title>hidebound.parser&#45;&gt;hidebound.database_tools</title>
<path fill="none" stroke="#b6ecf3" d="M235.8856,-420.169C258.7363,-449.9557 306.3949,-509.8774 353,-554.7444 457.2479,-655.1043 596.3331,-756.5745 660.2279,-801.6231"/>
<polygon fill="#b6ecf3" stroke="#b6ecf3" points="658.5388,-804.7139 668.7332,-807.5992 662.5632,-798.9863 658.5388,-804.7139"/>
</g>
<!-- hidebound.specification_base -->
<g id="node9" class="node">
<title>hidebound.specification_base</title>
<polygon fill="#343434" stroke="#343434" points="819,-510.7444 571,-510.7444 571,-474.7444 819,-474.7444 819,-510.7444"/>
<text text-anchor="middle" x="695" y="-489.0444" font-family="Courier,monospace" font-size="14.00" fill="#b6ecf3">hidebound.specification_base</text>
</g>
<!-- hidebound.parser&#45;&gt;hidebound.specification_base -->
<g id="edge6" class="edge">
<title>hidebound.parser&#45;&gt;hidebound.specification_base</title>
<path fill="none" stroke="#b6ecf3" d="M296.5392,-395.8838C361.9656,-393.6062 458.37,-397.3399 535,-429.7444 554.4473,-437.968 552.2884,-450.9616 571,-460.7444 578.6587,-464.7484 586.8505,-468.2743 595.2369,-471.3749"/>
<polygon fill="#b6ecf3" stroke="#b6ecf3" points="594.1752,-474.7113 604.77,-474.6977 596.4792,-468.1013 594.1752,-474.7113"/>
</g>
<!-- hidebound.validators -->
<g id="node14" class="node">
<title>hidebound.validators</title>
<polygon fill="#343434" stroke="#343434" points="535,-377.7444 353,-377.7444 353,-341.7444 535,-341.7444 535,-377.7444"/>
<text text-anchor="middle" x="444" y="-356.0444" font-family="Courier,monospace" font-size="14.00" fill="#b6ecf3">hidebound.validators</text>
</g>
<!-- hidebound.parser&#45;&gt;hidebound.validators -->
<g id="edge7" class="edge">
<title>hidebound.parser&#45;&gt;hidebound.validators</title>
<path fill="none" stroke="#b6ecf3" d="M296.5404,-387.6421C311.3165,-384.8466 327.0623,-381.8677 342.5578,-378.9361"/>
<polygon fill="#b6ecf3" stroke="#b6ecf3" points="343.5167,-382.3169 352.6917,-377.0189 342.2154,-375.4389 343.5167,-382.3169"/>
</g>
<!-- hidebound.specification_base&#45;&gt;hidebound.config -->
<g id="edge8" class="edge">
<title>hidebound.specification_base&#45;&gt;hidebound.config</title>
<path fill="none" stroke="#b6ecf3" d="M731.1379,-510.7786C763.3074,-526.5684 811.8206,-549.7362 855,-567.7444 876.3155,-576.6341 899.9741,-585.574 921.0942,-593.2348"/>
<polygon fill="#b6ecf3" stroke="#b6ecf3" points="920.0075,-596.5634 930.6019,-596.6598 922.38,-589.9777 920.0075,-596.5634"/>
</g>
<!-- hidebound.specification_base&#45;&gt;hidebound.database -->
<g id="edge9" class="edge">
<title>hidebound.specification_base&#45;&gt;hidebound.database</title>
<path fill="none" stroke="#b6ecf3" d="M819.1186,-508.8449C924.8902,-524.7318 1066.617,-551.8373 1111,-587.7444 1180.8983,-644.294 1212.4474,-752.2065 1223.9708,-803.4187"/>
<polygon fill="#b6ecf3" stroke="#b6ecf3" points="1220.6039,-804.4093 1226.1324,-813.4473 1227.4467,-802.9343 1220.6039,-804.4093"/>
</g>
<!-- hidebound.specification_base&#45;&gt;hidebound.database_test_base -->
<g id="edge10" class="edge">
<title>hidebound.specification_base&#45;&gt;hidebound.database_test_base</title>
<path fill="none" stroke="#b6ecf3" d="M819.2276,-482.8234C828.9448,-482.0474 838.7844,-481.2616 848.565,-480.4805"/>
<polygon fill="#b6ecf3" stroke="#b6ecf3" points="849.0387,-483.9539 858.7283,-479.6688 848.4814,-476.9761 849.0387,-483.9539"/>
</g>
<!-- hidebound.specifications -->
<g id="node10" class="node">
<title>hidebound.specifications</title>
<polygon fill="#343434" stroke="#343434" points="1090.5,-312.7444 875.5,-312.7444 875.5,-276.7444 1090.5,-276.7444 1090.5,-312.7444"/>
<text text-anchor="middle" x="983" y="-291.0444" font-family="Courier,monospace" font-size="14.00" fill="#b6ecf3">hidebound.specifications</text>
</g>
<!-- hidebound.specification_base&#45;&gt;hidebound.specifications -->
<g id="edge11" class="edge">
<title>hidebound.specification_base&#45;&gt;hidebound.specifications</title>
<path fill="none" stroke="#b6ecf3" d="M721.3216,-474.6483C773.3608,-438.8713 889.4161,-359.0833 947.8929,-318.8805"/>
<polygon fill="#b6ecf3" stroke="#b6ecf3" points="950.1693,-321.5628 956.4269,-313.0134 946.2036,-315.7945 950.1693,-321.5628"/>
</g>
<!-- hidebound.test_specifications -->
<g id="node11" class="node">
<title>hidebound.test_specifications</title>
<polygon fill="#343434" stroke="#343434" points="1111,-198.7444 855,-198.7444 855,-162.7444 1111,-162.7444 1111,-198.7444"/>
<text text-anchor="middle" x="983" y="-177.0444" font-family="Courier,monospace" font-size="14.00" fill="#b6ecf3">hidebound.test_specifications</text>
</g>
<!-- hidebound.specification_base&#45;&gt;hidebound.test_specifications -->
<g id="edge12" class="edge">
<title>hidebound.specification_base&#45;&gt;hidebound.test_specifications</title>
<path fill="none" stroke="#b6ecf3" d="M704.9557,-474.4785C727.6706,-433.9164 786.671,-334.6412 855,-267.7444 880.7883,-242.4966 914.7518,-219.7929 941.2129,-203.914"/>
<polygon fill="#b6ecf3" stroke="#b6ecf3" points="943.0462,-206.8961 949.8764,-198.7968 939.4862,-200.869 943.0462,-206.8961"/>
</g>
<!-- hidebound.tools -->
<g id="node12" class="node">
<title>hidebound.tools</title>
<polygon fill="#343434" stroke="#343434" points="514,-827.7444 374,-827.7444 374,-791.7444 514,-791.7444 514,-827.7444"/>
<text text-anchor="middle" x="444" y="-806.0444" font-family="Courier,monospace" font-size="14.00" fill="#b6ecf3">hidebound.tools</text>
</g>
<!-- hidebound.tools&#45;&gt;hidebound.client -->
<g id="edge13" class="edge">
<title>hidebound.tools&#45;&gt;hidebound.client</title>
<path fill="none" stroke="#b6ecf3" d="M462.5481,-827.9798C482.0414,-847.7398 512.8873,-880.7481 535,-912.7444 600.7485,-1007.8801 658.9057,-1133.2539 683.0869,-1188.0813"/>
<polygon fill="#b6ecf3" stroke="#b6ecf3" points="679.983,-1189.7188 687.2008,-1197.4747 686.395,-1186.9105 679.983,-1189.7188"/>
</g>
<!-- hidebound.tools&#45;&gt;hidebound.database -->
<g id="edge14" class="edge">
<title>hidebound.tools&#45;&gt;hidebound.database</title>
<path fill="none" stroke="#b6ecf3" d="M514.1321,-802.5788C532.6079,-800.9901 552.5377,-799.5424 571,-798.7444 681.1194,-793.9843 708.8664,-794.3247 819,-798.7444 928.2127,-803.1271 1053.3757,-814.0433 1136.4934,-822.127"/>
<polygon fill="#b6ecf3" stroke="#b6ecf3" points="1136.3767,-825.6323 1146.6701,-823.1231 1137.0586,-818.6655 1136.3767,-825.6323"/>
</g>
<!-- hidebound.tools&#45;&gt;hidebound.database_tools -->
<g id="edge15" class="edge">
<title>hidebound.tools&#45;&gt;hidebound.database_tools</title>
<path fill="none" stroke="#b6ecf3" d="M514.2513,-814.2225C533.7825,-815.4675 555.5443,-816.8547 577.0119,-818.2232"/>
<polygon fill="#b6ecf3" stroke="#b6ecf3" points="576.9769,-821.728 587.1793,-818.8713 577.4222,-814.7422 576.9769,-821.728"/>
</g>
<!-- hidebound.tools&#45;&gt;hidebound.specification_base -->
<g id="edge16" class="edge">
<title>hidebound.tools&#45;&gt;hidebound.specification_base</title>
<path fill="none" stroke="#b6ecf3" d="M458.5797,-791.3309C501.0491,-737.6943 624.7737,-581.4366 674.2242,-518.9831"/>
<polygon fill="#b6ecf3" stroke="#b6ecf3" points="677.2291,-520.8263 680.6928,-510.8136 671.7411,-516.4809 677.2291,-520.8263"/>
</g>
<!-- hidebound.traits -->
<g id="node13" class="node">
<title>hidebound.traits</title>
<polygon fill="#343434" stroke="#343434" points="769.5,-152.7444 620.5,-152.7444 620.5,-116.7444 769.5,-116.7444 769.5,-152.7444"/>
<text text-anchor="middle" x="695" y="-131.0444" font-family="Courier,monospace" font-size="14.00" fill="#b6ecf3">hidebound.traits</text>
</g>
<!-- hidebound.traits&#45;&gt;hidebound.database_test_base -->
<g id="edge17" class="edge">
<title>hidebound.traits&#45;&gt;hidebound.database_test_base</title>
<path fill="none" stroke="#b6ecf3" d="M721.9463,-152.9218C749.2971,-172.4784 791.432,-205.7886 819,-242.7444 842.0711,-273.6719 834.168,-289.2664 855,-321.7444 885.0091,-368.5297 928.9451,-415.9672 956.7475,-444.1122"/>
<polygon fill="#b6ecf3" stroke="#b6ecf3" points="954.597,-446.9124 964.1364,-451.5223 959.5539,-441.9697 954.597,-446.9124"/>
</g>
<!-- hidebound.traits&#45;&gt;hidebound.specifications -->
<g id="edge18" class="edge">
<title>hidebound.traits&#45;&gt;hidebound.specifications</title>
<path fill="none" stroke="#b6ecf3" d="M727.4774,-152.7874C779.9812,-181.9561 883.4506,-239.4391 941.3183,-271.5879"/>
<polygon fill="#b6ecf3" stroke="#b6ecf3" points="939.758,-274.7249 950.1994,-276.5218 943.1576,-268.6058 939.758,-274.7249"/>
</g>
<!-- hidebound.traits&#45;&gt;hidebound.test_specifications -->
<g id="edge19" class="edge">
<title>hidebound.traits&#45;&gt;hidebound.test_specifications</title>
<path fill="none" stroke="#b6ecf3" d="M769.5417,-146.6503C797.2136,-151.0701 829.3853,-156.2087 860.2285,-161.135"/>
<polygon fill="#b6ecf3" stroke="#b6ecf3" points="859.7616,-164.6047 870.1885,-162.7259 860.8657,-157.6923 859.7616,-164.6047"/>
</g>
<!-- hidebound.validators&#45;&gt;hidebound.config -->
<g id="edge20" class="edge">
<title>hidebound.validators&#45;&gt;hidebound.config</title>
<path fill="none" stroke="#b6ecf3" d="M453.0487,-377.9274C470.7757,-411.5659 513.4263,-483.3874 571,-519.7444 624.6833,-553.6446 793.9441,-585.1087 898.0686,-601.9494"/>
<polygon fill="#b6ecf3" stroke="#b6ecf3" points="897.8189,-605.454 908.2472,-603.5826 898.928,-598.5424 897.8189,-605.454"/>
</g>
<!-- hidebound.validators&#45;&gt;hidebound.database_test_base -->
<g id="edge21" class="edge">
<title>hidebound.validators&#45;&gt;hidebound.database_test_base</title>
<path fill="none" stroke="#b6ecf3" d="M532.4013,-377.7854C629.2274,-397.5459 784.1012,-429.1528 884.6867,-449.6804"/>
<polygon fill="#b6ecf3" stroke="#b6ecf3" points="884.0525,-453.123 894.5504,-451.6934 885.4522,-446.2644 884.0525,-453.123"/>
</g>
<!-- hidebound.validators&#45;&gt;hidebound.specification_base -->
<g id="edge22" class="edge">
<title>hidebound.validators&#45;&gt;hidebound.specification_base</title>
<path fill="none" stroke="#b6ecf3" d="M513.6491,-377.9068C521.3443,-381.6984 528.6719,-386.2607 535,-391.7444 561.1405,-414.3965 543.9144,-439.2313 571,-460.7444 575.3524,-464.2013 580.0373,-467.2883 584.9483,-470.0445"/>
<polygon fill="#b6ecf3" stroke="#b6ecf3" points="583.5095,-473.2395 594.0091,-474.6571 586.6852,-467.0013 583.5095,-473.2395"/>
</g>
<!-- hidebound.validators&#45;&gt;hidebound.specifications -->
<g id="edge23" class="edge">
<title>hidebound.validators&#45;&gt;hidebound.specifications</title>
<path fill="none" stroke="#b6ecf3" d="M535.1291,-348.7548C625.9676,-337.8002 765.8783,-320.9279 865.1234,-308.9595"/>
<polygon fill="#b6ecf3" stroke="#b6ecf3" points="865.6922,-312.4164 875.2012,-307.7442 864.854,-305.4667 865.6922,-312.4164"/>
</g>
<!-- hidebound.validators&#45;&gt;hidebound.test_specifications -->
<g id="edge24" class="edge">
<title>hidebound.validators&#45;&gt;hidebound.test_specifications</title>
<path fill="none" stroke="#b6ecf3" d="M491.1641,-341.7228C515.0051,-332.7578 544.442,-321.908 571,-312.7444 690.9107,-271.37 831.9172,-227.1374 913.9988,-201.8245"/>
<polygon fill="#b6ecf3" stroke="#b6ecf3" points="915.1847,-205.1215 923.7113,-198.8328 913.124,-198.4317 915.1847,-205.1215"/>
</g>
<!-- dash -->
<g id="node15" class="node">
<title>dash</title>
<polygon fill="#343434" stroke="#343434" points="471,-1287.7444 417,-1287.7444 417,-1251.7444 471,-1251.7444 471,-1287.7444"/>
<text text-anchor="middle" x="444" y="-1266.0444" font-family="Courier,monospace" font-size="14.00" fill="#de958e">dash</text>
</g>
<!-- dash&#45;&gt;hidebound.client -->
<g id="edge25" class="edge">
<title>dash&#45;&gt;hidebound.client</title>
<path fill="none" stroke="#de958e" d="M471.3392,-1263.8626C504.563,-1256.7149 562.1882,-1244.3174 610.6248,-1233.8968"/>
<polygon fill="#de958e" stroke="#de958e" points="611.4538,-1237.2986 620.4939,-1231.7736 609.9814,-1230.4552 611.4538,-1237.2986"/>
</g>
<!-- dash_ace_editor -->
<g id="node16" class="node">
<title>dash_ace_editor</title>
<polygon fill="#343434" stroke="#343434" points="514,-1233.7444 374,-1233.7444 374,-1197.7444 514,-1197.7444 514,-1233.7444"/>
<text text-anchor="middle" x="444" y="-1212.0444" font-family="Courier,monospace" font-size="14.00" fill="#de958e">dash_ace_editor</text>
</g>
<!-- dash_ace_editor&#45;&gt;hidebound.client -->
<g id="edge26" class="edge">
<title>dash_ace_editor&#45;&gt;hidebound.client</title>
<path fill="none" stroke="#de958e" d="M514.2513,-1215.7444C544.0886,-1215.7444 579.1315,-1215.7444 610.3788,-1215.7444"/>
<polygon fill="#de958e" stroke="#de958e" points="610.3793,-1219.2445 620.3793,-1215.7444 610.3792,-1212.2445 610.3793,-1219.2445"/>
</g>
<!-- dash_core_components -->
<g id="node17" class="node">
<title>dash_core_components</title>
<polygon fill="#343434" stroke="#343434" points="535,-1179.7444 353,-1179.7444 353,-1143.7444 535,-1143.7444 535,-1179.7444"/>
<text text-anchor="middle" x="444" y="-1158.0444" font-family="Courier,monospace" font-size="14.00" fill="#de958e">dash_core_components</text>
</g>
<!-- dash_core_components&#45;&gt;hidebound.client -->
<g id="edge27" class="edge">
<title>dash_core_components&#45;&gt;hidebound.client</title>
<path fill="none" stroke="#de958e" d="M527.9283,-1179.8006C554.4661,-1185.51 583.7997,-1191.8208 610.3852,-1197.5404"/>
<polygon fill="#de958e" stroke="#de958e" points="609.9158,-1201.0194 620.4283,-1199.701 611.3882,-1194.176 609.9158,-1201.0194"/>
</g>
<!-- dash_html_components -->
<g id="node18" class="node">
<title>dash_html_components</title>
<polygon fill="#343434" stroke="#343434" points="535,-1433.7444 353,-1433.7444 353,-1397.7444 535,-1397.7444 535,-1433.7444"/>
<text text-anchor="middle" x="444" y="-1412.0444" font-family="Courier,monospace" font-size="14.00" fill="#de958e">dash_html_components</text>
</g>
<!-- dash_html_components&#45;&gt;hidebound.client -->
<g id="edge28" class="edge">
<title>dash_html_components&#45;&gt;hidebound.client</title>
<path fill="none" stroke="#de958e" d="M507.9868,-1397.5909C517.3963,-1393.7009 526.7026,-1389.1092 535,-1383.7444 595.2778,-1344.7703 649.1702,-1278.6438 676.3559,-1242.0563"/>
<polygon fill="#de958e" stroke="#de958e" points="679.2783,-1243.9896 682.3688,-1233.8555 673.6332,-1239.8505 679.2783,-1243.9896"/>
</g>
<!-- flasgger -->
<g id="node19" class="node">
<title>flasgger</title>
<polygon fill="#343434" stroke="#343434" points="485.5,-1125.7444 402.5,-1125.7444 402.5,-1089.7444 485.5,-1089.7444 485.5,-1125.7444"/>
<text text-anchor="middle" x="444" y="-1104.0444" font-family="Courier,monospace" font-size="14.00" fill="#de958e">flasgger</text>
</g>
<!-- flasgger&#45;&gt;hidebound.app -->
<g id="edge29" class="edge">
<title>flasgger&#45;&gt;hidebound.app</title>
<path fill="none" stroke="#de958e" d="M485.7202,-1110.9832C591.8423,-1118.1025 880.0104,-1130.4114 1111,-1075.7444 1206.0727,-1053.244 1227.7936,-1036.286 1312,-986.7444 1336.49,-972.336 1362.0422,-952.8731 1380.9128,-937.5239"/>
<polygon fill="#de958e" stroke="#de958e" points="1383.3301,-940.0673 1388.8263,-931.0096 1378.8813,-934.6629 1383.3301,-940.0673"/>
</g>
<!-- flasgger&#45;&gt;hidebound.client -->
<g id="edge30" class="edge">
<title>flasgger&#45;&gt;hidebound.client</title>
<path fill="none" stroke="#de958e" d="M485.7595,-1118.4274C501.4163,-1122.8757 519.2279,-1128.4716 535,-1134.7444 576.9983,-1151.4476 622.8156,-1175.2541 654.6153,-1192.7365"/>
<polygon fill="#de958e" stroke="#de958e" points="653.1618,-1195.9324 663.6054,-1197.7159 656.5534,-1189.8089 653.1618,-1195.9324"/>
</g>
<!-- jinja2 -->
<g id="node20" class="node">
<title>jinja2</title>
<polygon fill="#343434" stroke="#343434" points="477,-1341.7444 411,-1341.7444 411,-1305.7444 477,-1305.7444 477,-1341.7444"/>
<text text-anchor="middle" x="444" y="-1320.0444" font-family="Courier,monospace" font-size="14.00" fill="#de958e">jinja2</text>
</g>
<!-- jinja2&#45;&gt;hidebound.client -->
<g id="edge31" class="edge">
<title>jinja2&#45;&gt;hidebound.client</title>
<path fill="none" stroke="#de958e" d="M477.3414,-1315.4029C494.7756,-1310.6545 516.3185,-1304.1742 535,-1296.7444 576.9983,-1280.0411 622.8156,-1256.2347 654.6153,-1238.7522"/>
<polygon fill="#de958e" stroke="#de958e" points="656.5534,-1241.6798 663.6054,-1233.7728 653.1618,-1235.5563 656.5534,-1241.6798"/>
</g>
<!-- dash.dependencies -->
<g id="node21" class="node">
<title>dash.dependencies</title>
<polygon fill="#343434" stroke="#343434" points="1308,-957.7444 1151,-957.7444 1151,-921.7444 1308,-921.7444 1308,-957.7444"/>
<text text-anchor="middle" x="1229.5" y="-936.0444" font-family="Courier,monospace" font-size="14.00" fill="#de958e">dash.dependencies</text>
</g>
<!-- dash.dependencies&#45;&gt;hidebound.app -->
<g id="edge32" class="edge">
<title>dash.dependencies&#45;&gt;hidebound.app</title>
<path fill="none" stroke="#de958e" d="M1308.1449,-927.9803C1318.0162,-926.5037 1328.0758,-924.9989 1337.8408,-923.5383"/>
<polygon fill="#de958e" stroke="#de958e" points="1338.5179,-926.976 1347.89,-922.035 1337.4823,-920.053 1338.5179,-926.976"/>
</g>
<!-- flask -->
<g id="node22" class="node">
<title>flask</title>
<polygon fill="#343434" stroke="#343434" points="1258.5,-903.7444 1200.5,-903.7444 1200.5,-867.7444 1258.5,-867.7444 1258.5,-903.7444"/>
<text text-anchor="middle" x="1229.5" y="-882.0444" font-family="Courier,monospace" font-size="14.00" fill="#de958e">flask</text>
</g>
<!-- flask&#45;&gt;hidebound.app -->
<g id="edge33" class="edge">
<title>flask&#45;&gt;hidebound.app</title>
<path fill="none" stroke="#de958e" d="M1258.5004,-890.0824C1279.8904,-893.282 1309.9715,-897.7816 1337.6976,-901.929"/>
<polygon fill="#de958e" stroke="#de958e" points="1337.3776,-905.42 1347.7854,-903.438 1338.4133,-898.4971 1337.3776,-905.42"/>
</g>
<!-- pandasql -->
<g id="node23" class="node">
<title>pandasql</title>
<polygon fill="#343434" stroke="#343434" points="1024.5,-889.7444 941.5,-889.7444 941.5,-853.7444 1024.5,-853.7444 1024.5,-889.7444"/>
<text text-anchor="middle" x="983" y="-868.0444" font-family="Courier,monospace" font-size="14.00" fill="#de958e">pandasql</text>
</g>
<!-- pandasql&#45;&gt;hidebound.database -->
<g id="edge34" class="edge">
<title>pandasql&#45;&gt;hidebound.database</title>
<path fill="none" stroke="#de958e" d="M1024.5366,-865.0041C1055.1432,-860.0376 1097.9855,-853.0854 1136.5925,-846.8206"/>
<polygon fill="#de958e" stroke="#de958e" points="1137.5189,-850.2162 1146.8292,-845.1595 1136.3976,-843.3065 1137.5189,-850.2162"/>
</g>
<!-- hidebound -->
<g id="node24" class="node">
<title>hidebound</title>
<polygon fill="#343434" stroke="#343434" points="91,-465.7444 0,-465.7444 0,-429.7444 91,-429.7444 91,-465.7444"/>
<text text-anchor="middle" x="45.5" y="-444.0444" font-family="Courier,monospace" font-size="14.00" fill="#a0d17b">hidebound</text>
</g>
<!-- hidebound&#45;&gt;hidebound.app -->
<g id="edge35" class="edge">
<title>hidebound&#45;&gt;hidebound.app</title>
<path fill="none" stroke="#a0d17b" d="M48.107,-429.4814C58.7199,-356.2796 99.4185,-86.7895 127,-60.7444 230.6033,37.0879 301.5051,-12.7444 444,-12.7444 444,-12.7444 444,-12.7444 983,-12.7444 1180.8131,-12.7444 1366.0604,-731.4017 1403.244,-884.3423"/>
<polygon fill="#a0d17b" stroke="#a0d17b" points="1399.9133,-885.4601 1405.6635,-894.3587 1406.7176,-883.8164 1399.9133,-885.4601"/>
</g>
<!-- hidebound&#45;&gt;hidebound.client -->
<g id="edge36" class="edge">
<title>hidebound&#45;&gt;hidebound.client</title>
<path fill="none" stroke="#a0d17b" d="M46.5097,-465.9861C51.7459,-556.9135 77.4885,-961.3528 127,-1075.7444 189.8395,-1220.9289 209.9656,-1283.1536 353,-1350.7444 426.1345,-1385.3039 459.027,-1378.5134 535,-1350.7444 594.4761,-1329.0051 647.1083,-1274.3227 674.6619,-1241.6096"/>
<polygon fill="#a0d17b" stroke="#a0d17b" points="677.4438,-1243.7377 681.1157,-1233.7995 672.0477,-1239.2787 677.4438,-1243.7377"/>
</g>
<!-- hidebound&#45;&gt;hidebound.config -->
<g id="edge37" class="edge">
<title>hidebound&#45;&gt;hidebound.config</title>
<path fill="none" stroke="#a0d17b" d="M58.2601,-466.0283C72.6795,-485.2355 97.9595,-514.8201 127,-530.7444 399.1496,-679.977 508.7638,-634.194 819,-624.7444 844.7999,-623.9585 872.8512,-622.4788 898.3387,-620.8939"/>
<polygon fill="#a0d17b" stroke="#a0d17b" points="898.5838,-624.3855 908.3418,-620.2586 898.1401,-617.3996 898.5838,-624.3855"/>
</g>
<!-- hidebound&#45;&gt;hidebound.database -->
<g id="edge38" class="edge">
<title>hidebound&#45;&gt;hidebound.database</title>
<path fill="none" stroke="#a0d17b" d="M45.7928,-465.7599C47.5037,-548.731 58.6815,-893.3071 127,-970.7444 223.9731,-1080.6609 297.4209,-1061.7444 444,-1061.7444 444,-1061.7444 444,-1061.7444 695,-1061.7444 788.4655,-1061.7444 1041.6258,-1062.3784 1111,-999.7444 1159.0061,-956.4024 1102.8076,-905.9687 1147,-858.7444 1147.8978,-857.785 1148.8301,-856.8596 1149.7936,-855.9671"/>
<polygon fill="#a0d17b" stroke="#a0d17b" points="1152.0198,-858.6692 1157.7339,-849.7473 1147.7032,-853.1586 1152.0198,-858.6692"/>
</g>
<!-- hidebound&#45;&gt;hidebound.database_test_base -->
<g id="edge39" class="edge">
<title>hidebound&#45;&gt;hidebound.database_test_base</title>
<path fill="none" stroke="#a0d17b" d="M84.1872,-465.9531C141.4103,-491.7776 252.6776,-537.7885 353,-554.7444 557.7901,-589.3567 615.837,-562.8928 819,-519.7444 853.6807,-512.3788 891.5917,-501.0433 922.2197,-491.0266"/>
<polygon fill="#a0d17b" stroke="#a0d17b" points="923.499,-494.29 931.8945,-487.8275 921.3013,-487.6439 923.499,-494.29"/>
</g>
<!-- hidebound&#45;&gt;hidebound.database_tools -->
<g id="edge40" class="edge">
<title>hidebound&#45;&gt;hidebound.database_tools</title>
<path fill="none" stroke="#a0d17b" d="M46.5428,-465.8079C50.9284,-534.781 70.3465,-780.0585 127,-827.7444 192.5908,-882.9529 431.12,-862.2415 577.4025,-843.2728"/>
<polygon fill="#a0d17b" stroke="#a0d17b" points="577.8771,-846.7406 587.3366,-841.969 576.9662,-839.8001 577.8771,-846.7406"/>
</g>
<!-- hidebound&#45;&gt;hidebound.parser -->
<g id="edge41" class="edge">
<title>hidebound&#45;&gt;hidebound.parser</title>
<path fill="none" stroke="#a0d17b" d="M91.4125,-435.7785C107.1837,-431.6681 125.3191,-426.9416 142.9584,-422.3444"/>
<polygon fill="#a0d17b" stroke="#a0d17b" points="143.8947,-425.7174 152.6888,-419.8085 142.1293,-418.9437 143.8947,-425.7174"/>
</g>
<!-- hidebound&#45;&gt;hidebound.specification_base -->
<g id="edge42" class="edge">
<title>hidebound&#45;&gt;hidebound.specification_base</title>
<path fill="none" stroke="#a0d17b" d="M91.2239,-446.5789C178.0269,-444.9136 372.5417,-443.8038 535,-461.7444 558.0282,-464.2874 582.6942,-468.3751 605.5943,-472.7593"/>
<polygon fill="#a0d17b" stroke="#a0d17b" points="605.148,-476.2382 615.6337,-474.721 606.4905,-469.3681 605.148,-476.2382"/>
</g>
<!-- hidebound&#45;&gt;hidebound.specifications -->
<g id="edge43" class="edge">
<title>hidebound&#45;&gt;hidebound.specifications</title>
<path fill="none" stroke="#a0d17b" d="M48.4395,-429.4288C57.7044,-374.014 88.0076,-209.7951 127,-174.7444 202.9791,-106.4457 251.9672,-147.9068 353,-132.7444 455.556,-117.3534 734.1548,-48.1129 819,-107.7444 857.6465,-134.9061 826.0498,-170.4189 855,-207.7444 876.157,-235.022 908.3169,-256.8327 935.1072,-271.7935"/>
<polygon fill="#a0d17b" stroke="#a0d17b" points="933.505,-274.9061 943.9631,-276.6025 936.8455,-268.7546 933.505,-274.9061"/>
</g>
<!-- hidebound&#45;&gt;hidebound.test_specifications -->
<g id="edge44" class="edge">
<title>hidebound&#45;&gt;hidebound.test_specifications</title>
<path fill="none" stroke="#a0d17b" d="M47.5546,-429.5258C54.8378,-368.3267 81.4588,-171.6701 127,-130.7444 241.6768,-27.6896 670.5636,-39.0585 819,-80.7444 871.1656,-95.3942 923.1775,-131.7309 954.2169,-156.3242"/>
<polygon fill="#a0d17b" stroke="#a0d17b" points="952.038,-159.0633 962.0208,-162.6121 956.43,-153.6125 952.038,-159.0633"/>
</g>
<!-- hidebound&#45;&gt;hidebound.tools -->
<g id="edge45" class="edge">
<title>hidebound&#45;&gt;hidebound.tools</title>
<path fill="none" stroke="#a0d17b" d="M47.0174,-465.7792C52.8408,-530.277 76.0343,-747.9306 127,-790.7444 191.8807,-845.2474 293.1141,-841.156 363.6661,-829.1809"/>
<polygon fill="#a0d17b" stroke="#a0d17b" points="364.6161,-832.5667 373.8449,-827.3629 363.3852,-825.6758 364.6161,-832.5667"/>
</g>
<!-- hidebound&#45;&gt;hidebound.traits -->
<g id="edge46" class="edge">
<title>hidebound&#45;&gt;hidebound.traits</title>
<path fill="none" stroke="#a0d17b" d="M49.9429,-429.6002C58.9805,-396.2436 82.5191,-324.7551 127,-282.7444 260.4888,-156.6687 487.4532,-134.7496 610.1781,-132.8246"/>
<polygon fill="#a0d17b" stroke="#a0d17b" points="610.3181,-136.3233 620.2769,-132.7077 610.237,-129.3237 610.3181,-136.3233"/>
</g>
<!-- hidebound&#45;&gt;hidebound.validators -->
<g id="edge47" class="edge">
<title>hidebound&#45;&gt;hidebound.validators</title>
<path fill="none" stroke="#a0d17b" d="M59.4225,-429.5079C74.0714,-411.9021 98.8765,-386.2672 127,-374.7444 195.1145,-346.8363 278.4724,-343.9723 342.6113,-347.6134"/>
<polygon fill="#a0d17b" stroke="#a0d17b" points="342.5347,-351.1154 352.7349,-348.2508 342.9746,-344.1292 342.5347,-351.1154"/>
</g>
<!-- numpy -->
<g id="node25" class="node">
<title>numpy</title>
<polygon fill="#343434" stroke="#343434" points="473,-957.7444 415,-957.7444 415,-921.7444 473,-921.7444 473,-957.7444"/>
<text text-anchor="middle" x="444" y="-936.0444" font-family="Courier,monospace" font-size="14.00" fill="#de958e">numpy</text>
</g>
<!-- numpy&#45;&gt;hidebound.app -->
<g id="edge48" class="edge">
<title>numpy&#45;&gt;hidebound.app</title>
<path fill="none" stroke="#de958e" d="M473.1201,-949.2678C498.6122,-957.0752 536.8143,-967.5038 571,-971.7444 692.317,-986.7932 1227.7451,-988.8771 1312,-966.7444 1335.0892,-960.6791 1358.5939,-947.9932 1376.7946,-936.4408"/>
<polygon fill="#de958e" stroke="#de958e" points="1378.8234,-939.2961 1385.2784,-930.8946 1374.9931,-933.437 1378.8234,-939.2961"/>
</g>
<!-- numpy&#45;&gt;hidebound.database -->
<g id="edge49" class="edge">
<title>numpy&#45;&gt;hidebound.database</title>
<path fill="none" stroke="#de958e" d="M473.2332,-945.3896C570.0628,-962.6009 886.8837,-1006.9183 1111,-898.7444 1132.5398,-888.3478 1126.9564,-871.7943 1147,-858.7444 1149.4272,-857.164 1151.955,-855.6688 1154.5545,-854.2548"/>
<polygon fill="#de958e" stroke="#de958e" points="1156.2241,-857.3337 1163.6275,-849.7547 1153.1137,-851.0627 1156.2241,-857.3337"/>
</g>
<!-- numpy&#45;&gt;hidebound.database_test_base -->
<g id="edge50" class="edge">
<title>numpy&#45;&gt;hidebound.database_test_base</title>
<path fill="none" stroke="#de958e" d="M473.0981,-928.1514C498.5762,-918.3672 536.7702,-904.5794 571,-895.7444 679.3168,-867.7866 741.3613,-933.2826 819,-852.7444 901.4919,-767.1716 800.0578,-693.1434 855,-587.7444 875.7267,-547.9829 915.4176,-514.6774 945.1319,-493.6986"/>
<polygon fill="#de958e" stroke="#de958e" points="947.3658,-496.4097 953.612,-487.8519 943.3924,-490.6467 947.3658,-496.4097"/>
</g>
<!-- numpy&#45;&gt;hidebound.database_tools -->
<g id="edge51" class="edge">
<title>numpy&#45;&gt;hidebound.database_tools</title>
<path fill="none" stroke="#de958e" d="M473.2198,-934.2379C492.2221,-929.5692 516.7651,-921.3908 535,-907.7444 556.9235,-891.3374 548.3947,-873.1983 571,-857.7444 576.3599,-854.0801 582.1106,-850.8354 588.0931,-847.9622"/>
<polygon fill="#de958e" stroke="#de958e" points="589.9223,-850.981 597.6623,-843.7462 587.0999,-844.5752 589.9223,-850.981"/>
</g>
<!-- humanfriendly -->
<g id="node26" class="node">
<title>humanfriendly</title>
<polygon fill="#343434" stroke="#343434" points="284,-781.7444 160,-781.7444 160,-745.7444 284,-745.7444 284,-781.7444"/>
<text text-anchor="middle" x="222" y="-760.0444" font-family="Courier,monospace" font-size="14.00" fill="#de958e">humanfriendly</text>
</g>
<!-- humanfriendly&#45;&gt;hidebound.tools -->
<g id="edge52" class="edge">
<title>humanfriendly&#45;&gt;hidebound.tools</title>
<path fill="none" stroke="#de958e" d="M284.1346,-776.6191C308.8165,-781.7334 337.5257,-787.6821 363.7492,-793.1158"/>
<polygon fill="#de958e" stroke="#de958e" points="363.1621,-796.5684 373.6643,-795.1703 364.5825,-789.714 363.1621,-796.5684"/>
</g>
<!-- schematics.exceptions -->
<g id="node27" class="node">
<title>schematics.exceptions</title>
<polygon fill="#343434" stroke="#343434" points="317,-720.7444 127,-720.7444 127,-684.7444 317,-684.7444 317,-720.7444"/>
<text text-anchor="middle" x="222" y="-699.0444" font-family="Courier,monospace" font-size="14.00" fill="#de958e">schematics.exceptions</text>
</g>
<!-- schematics.exceptions&#45;&gt;hidebound.app -->
<g id="edge53" class="edge">
<title>schematics.exceptions&#45;&gt;hidebound.app</title>
<path fill="none" stroke="#de958e" d="M317.0009,-709.7574C574.1903,-728.993 1267.7466,-782.62 1312,-804.7444 1348.0587,-822.7718 1377.174,-860.1545 1394.0335,-885.8413"/>
<polygon fill="#de958e" stroke="#de958e" points="1391.153,-887.8339 1399.4772,-894.3883 1397.0572,-884.0735 1391.153,-887.8339"/>
</g>
<!-- schematics.exceptions&#45;&gt;hidebound.config -->
<g id="edge54" class="edge">
<title>schematics.exceptions&#45;&gt;hidebound.config</title>
<path fill="none" stroke="#de958e" d="M317.2261,-704.1958C435.792,-704.3603 644.0463,-699.2384 819,-666.7444 855.8601,-659.8983 895.9994,-647.2652 927.3416,-636.1655"/>
<polygon fill="#de958e" stroke="#de958e" points="928.5445,-639.4524 936.7727,-632.778 926.1782,-632.8645 928.5445,-639.4524"/>
</g>
<!-- schematics.exceptions&#45;&gt;hidebound.database_tools -->
<g id="edge55" class="edge">
<title>schematics.exceptions&#45;&gt;hidebound.database_tools</title>
<path fill="none" stroke="#de958e" d="M283.8243,-720.7995C305.6297,-727.01 330.3521,-733.8735 353,-739.7444 433.4566,-760.6006 454.4123,-762.4005 535,-782.7444 562.8188,-789.767 593.2506,-797.8455 620.0356,-805.0907"/>
<polygon fill="#de958e" stroke="#de958e" points="619.1596,-808.4795 629.7271,-807.7188 620.9917,-801.7235 619.1596,-808.4795"/>
</g>
<!-- schematics.exceptions&#45;&gt;hidebound.specification_base -->
<g id="edge56" class="edge">
<title>schematics.exceptions&#45;&gt;hidebound.specification_base</title>
<path fill="none" stroke="#de958e" d="M227.3852,-684.4526C240.7261,-642.8766 279.6529,-541.7165 353,-500.7444 430.1286,-457.6598 533.0962,-461.9442 605.8326,-473.0955"/>
<polygon fill="#de958e" stroke="#de958e" points="605.4611,-476.5806 615.8896,-474.7104 606.571,-469.6692 605.4611,-476.5806"/>
</g>
<!-- schematics.exceptions&#45;&gt;hidebound.tools -->
<g id="edge57" class="edge">
<title>schematics.exceptions&#45;&gt;hidebound.tools</title>
<path fill="none" stroke="#de958e" d="M286.5095,-720.7968C297.1542,-725.166 307.7278,-730.4421 317,-736.7444 337.0556,-750.376 332.9067,-764.1684 353,-777.7444 358.2818,-781.3129 364.0046,-784.5278 369.9206,-787.4151"/>
<polygon fill="#de958e" stroke="#de958e" points="368.7876,-790.7444 379.3404,-791.6867 371.6785,-784.3692 368.7876,-790.7444"/>
</g>
<!-- schematics.exceptions&#45;&gt;hidebound.validators -->
<g id="edge58" class="edge">
<title>schematics.exceptions&#45;&gt;hidebound.validators</title>
<path fill="none" stroke="#de958e" d="M230.5886,-684.6617C250.0702,-644.3073 300.0487,-544.4234 353,-467.7444 373.5077,-438.047 400.5173,-406.7953 419.7718,-385.5947"/>
<polygon fill="#de958e" stroke="#de958e" points="422.5681,-387.7238 426.7419,-377.9858 417.4063,-382.9955 422.5681,-387.7238"/>
</g>
<!-- pandas -->
<g id="node28" class="node">
<title>pandas</title>
<polygon fill="#343434" stroke="#343434" points="255,-961.7444 189,-961.7444 189,-925.7444 255,-925.7444 255,-961.7444"/>
<text text-anchor="middle" x="222" y="-940.0444" font-family="Courier,monospace" font-size="14.00" fill="#de958e">pandas</text>
</g>
<!-- pandas&#45;&gt;hidebound.database -->
<g id="edge59" class="edge">
<title>pandas&#45;&gt;hidebound.database</title>
<path fill="none" stroke="#de958e" d="M254.1793,-961.8643C279.9889,-975.3043 317.6226,-992.4999 353,-999.7444 432.2444,-1015.9718 454.1715,-1002.8704 535,-999.7444 791.9723,-989.8061 905.2599,-1099.0316 1111,-944.7444 1144.1501,-919.8846 1116.5499,-886.8465 1147,-858.7444 1148.1421,-857.6903 1149.326,-856.6774 1150.5466,-855.704"/>
<polygon fill="#de958e" stroke="#de958e" points="1152.8227,-858.3865 1159.0788,-849.836 1148.856,-852.6189 1152.8227,-858.3865"/>
</g>
<!-- pandas&#45;&gt;hidebound.database_test_base -->
<g id="edge60" class="edge">
<title>pandas&#45;&gt;hidebound.database_test_base</title>
<path fill="none" stroke="#de958e" d="M255.353,-954.0379C358.602,-983.6006 674.677,-1056.3496 819,-888.7444 906.9139,-786.6481 793.6783,-707.7116 855,-587.7444 875.4083,-547.8185 915.1498,-514.5391 944.963,-493.6114"/>
<polygon fill="#de958e" stroke="#de958e" points="947.2022,-496.3199 953.4734,-487.7804 943.2457,-490.5453 947.2022,-496.3199"/>
</g>
<!-- pandas&#45;&gt;hidebound.database_tools -->
<g id="edge61" class="edge">
<title>pandas&#45;&gt;hidebound.database_tools</title>
<path fill="none" stroke="#de958e" d="M255.1103,-935.9056C281.5949,-929.6364 319.68,-920.6229 353,-912.7444 433.8855,-893.6188 455.0498,-892.4645 535,-869.7444 551.2231,-865.1341 554.8251,-862.521 571,-857.7444 584.126,-853.8681 598.1093,-850.0057 611.7787,-846.3746"/>
<polygon fill="#de958e" stroke="#de958e" points="612.8797,-849.7041 621.6599,-843.7746 611.0985,-842.9345 612.8797,-849.7041"/>
</g>
<!-- pandas&#45;&gt;hidebound.tools -->
<g id="edge62" class="edge">
<title>pandas&#45;&gt;hidebound.tools</title>
<path fill="none" stroke="#de958e" d="M251.9399,-925.6725C291.5792,-901.7461 361.5436,-859.5153 405.1964,-833.1663"/>
<polygon fill="#de958e" stroke="#de958e" points="407.0728,-836.122 413.8254,-827.9578 403.4554,-830.129 407.0728,-836.122"/>
</g>
<!-- pyparsing -->
<g id="node29" class="node">
<title>pyparsing</title>
<polygon fill="#343434" stroke="#343434" points="91,-147.7444 0,-147.7444 0,-111.7444 91,-111.7444 91,-147.7444"/>
<text text-anchor="middle" x="45.5" y="-126.0444" font-family="Courier,monospace" font-size="14.00" fill="#de958e">pyparsing</text>
</g>
<!-- pyparsing&#45;&gt;hidebound.parser -->
<g id="edge63" class="edge">
<title>pyparsing&#45;&gt;hidebound.parser</title>
<path fill="none" stroke="#de958e" d="M48.8746,-147.8875C56.7637,-186.2779 79.4574,-277.0929 127,-336.7444 140.3643,-353.5125 159.2144,-367.6431 176.6041,-378.4014"/>
<polygon fill="#de958e" stroke="#de958e" points="175.1453,-381.6062 185.5279,-383.7161 178.7271,-375.592 175.1453,-381.6062"/>
</g>
<!-- pyparsing&#45;&gt;hidebound.specification_base -->
<g id="edge64" class="edge">
<title>pyparsing&#45;&gt;hidebound.specification_base</title>
<path fill="none" stroke="#de958e" d="M91.2153,-121.2099C150.6419,-112.9258 254.2236,-108.4854 317,-162.7444 363.0064,-202.5086 308.7222,-253.064 353,-294.7444 413.1687,-351.3833 472.4578,-278.7377 535,-332.7444 570.1196,-363.0709 540.0703,-396.1548 571,-430.7444 586.3736,-447.9371 607.6118,-460.9457 628.1702,-470.4937"/>
<polygon fill="#de958e" stroke="#de958e" points="626.9834,-473.7958 637.5446,-474.6397 629.8148,-467.394 626.9834,-473.7958"/>
</g>
<!-- pyparsing&#45;&gt;hidebound.validators -->
<g id="edge65" class="edge">
<title>pyparsing&#45;&gt;hidebound.validators</title>
<path fill="none" stroke="#de958e" d="M88.6603,-147.797C145.0532,-172.7169 245.0707,-221.5894 317,-282.7444 336.5132,-299.3346 332.1115,-312.9231 353,-327.7444 357.8999,-331.221 363.2135,-334.3516 368.7287,-337.165"/>
<polygon fill="#de958e" stroke="#de958e" points="367.6249,-340.5137 378.1633,-341.6052 370.6057,-334.1801 367.6249,-340.5137"/>
</g>
<!-- schematics -->
<g id="node30" class="node">
<title>schematics</title>
<polygon fill="#343434" stroke="#343434" points="493.5,-545.7444 394.5,-545.7444 394.5,-509.7444 493.5,-509.7444 493.5,-545.7444"/>
<text text-anchor="middle" x="444" y="-524.0444" font-family="Courier,monospace" font-size="14.00" fill="#de958e">schematics</text>
</g>
<!-- schematics&#45;&gt;hidebound.config -->
<g id="edge66" class="edge">
<title>schematics&#45;&gt;hidebound.config</title>
<path fill="none" stroke="#de958e" d="M493.6531,-541.4647C507.5048,-546.2762 522.2439,-552.3639 535,-559.7444 553.276,-570.3186 551.4274,-582.8234 571,-590.7444 677.5827,-633.8779 812.4378,-632.3649 898.2374,-625.2301"/>
<polygon fill="#de958e" stroke="#de958e" points="898.7962,-628.6947 908.4523,-624.3348 898.1849,-621.7214 898.7962,-628.6947"/>
</g>
<!-- schematics&#45;&gt;hidebound.specification_base -->
<g id="edge67" class="edge">
<title>schematics&#45;&gt;hidebound.specification_base</title>
<path fill="none" stroke="#de958e" d="M493.5895,-520.8295C513.241,-518.0892 536.8701,-514.7943 560.9214,-511.4406"/>
<polygon fill="#de958e" stroke="#de958e" points="561.4565,-514.8999 570.8773,-510.0523 560.4897,-507.967 561.4565,-514.8999"/>
</g>
<!-- schematics.types -->
<g id="node31" class="node">
<title>schematics.types</title>
<polygon fill="#343434" stroke="#343434" points="518.5,-285.7444 369.5,-285.7444 369.5,-249.7444 518.5,-249.7444 518.5,-285.7444"/>
<text text-anchor="middle" x="444" y="-264.0444" font-family="Courier,monospace" font-size="14.00" fill="#de958e">schematics.types</text>
</g>
<!-- schematics.types&#45;&gt;hidebound.config -->
<g id="edge68" class="edge">
<title>schematics.types&#45;&gt;hidebound.config</title>
<path fill="none" stroke="#de958e" d="M513.1218,-285.7559C520.9965,-289.5793 528.5114,-294.1904 535,-299.7444 560.681,-321.7262 545.7825,-344.2322 571,-366.7444 659.5339,-445.7803 718.3635,-402.8379 819,-465.7444 826.6546,-470.5291 911.2738,-548.4212 955.8628,-589.6263"/>
<polygon fill="#de958e" stroke="#de958e" points="953.7173,-592.4093 963.4361,-596.6278 958.4692,-587.2693 953.7173,-592.4093"/>
</g>
<!-- schematics.types&#45;&gt;hidebound.database_test_base -->
<g id="edge69" class="edge">
<title>schematics.types&#45;&gt;hidebound.database_test_base</title>
<path fill="none" stroke="#de958e" d="M503.4585,-285.8087C577.9846,-308.9227 709.2677,-351.2041 819,-394.7444 859.5245,-410.8239 904.488,-431.6022 937.0703,-447.2095"/>
<polygon fill="#de958e" stroke="#de958e" points="935.8124,-450.4883 946.341,-451.6707 938.8478,-444.1806 935.8124,-450.4883"/>
</g>
<!-- schematics.types&#45;&gt;hidebound.specification_base -->
<g id="edge70" class="edge">
<title>schematics.types&#45;&gt;hidebound.specification_base</title>
<path fill="none" stroke="#de958e" d="M516.9867,-285.9793C523.6416,-289.7399 529.8153,-294.2751 535,-299.7444 574.187,-341.0823 535.5928,-378.1263 571,-422.7444 587.4776,-443.5084 611.9061,-459.1589 634.7343,-470.3368"/>
<polygon fill="#de958e" stroke="#de958e" points="633.5135,-473.6299 644.0538,-474.7039 636.4838,-467.2913 633.5135,-473.6299"/>
</g>
<!-- schematics.types&#45;&gt;hidebound.specifications -->
<g id="edge71" class="edge">
<title>schematics.types&#45;&gt;hidebound.specifications</title>
<path fill="none" stroke="#de958e" d="M518.6625,-271.4844C608.2613,-275.9727 759.5841,-283.5528 865.0408,-288.8355"/>
<polygon fill="#de958e" stroke="#de958e" points="864.9369,-292.3345 875.0995,-289.3393 865.2872,-285.3433 864.9369,-292.3345"/>
</g>
<!-- schematics.types&#45;&gt;hidebound.test_specifications -->
<g id="edge72" class="edge">
<title>schematics.types&#45;&gt;hidebound.test_specifications</title>
<path fill="none" stroke="#de958e" d="M516.9319,-249.7167C523.2199,-247.0931 529.3358,-244.1159 535,-240.7444 554.4435,-229.1707 550.3557,-214.0079 571,-204.7444 656.4297,-166.41 762.0066,-160.9602 844.8968,-164.8103"/>
<polygon fill="#de958e" stroke="#de958e" points="844.7234,-168.3059 854.8901,-165.3244 845.0831,-161.3152 844.7234,-168.3059"/>
</g>
<!-- wrapt -->
<g id="node32" class="node">
<title>wrapt</title>
<polygon fill="#343434" stroke="#343434" points="251,-327.7444 193,-327.7444 193,-291.7444 251,-291.7444 251,-327.7444"/>
<text text-anchor="middle" x="222" y="-306.0444" font-family="Courier,monospace" font-size="14.00" fill="#de958e">wrapt</text>
</g>
<!-- wrapt&#45;&gt;hidebound.validators -->
<g id="edge73" class="edge">
<title>wrapt&#45;&gt;hidebound.validators</title>
<path fill="none" stroke="#de958e" d="M251.0226,-316.281C277.2398,-322.1857 317.2424,-331.1953 354.042,-339.4835"/>
<polygon fill="#de958e" stroke="#de958e" points="353.2939,-342.9027 363.8186,-341.6855 354.832,-336.0737 353.2939,-342.9027"/>
</g>
<!-- skimage.io -->
<g id="node33" class="node">
<title>skimage.io</title>
<polygon fill="#343434" stroke="#343434" points="493.5,-231.7444 394.5,-231.7444 394.5,-195.7444 493.5,-195.7444 493.5,-231.7444"/>
<text text-anchor="middle" x="444" y="-210.0444" font-family="Courier,monospace" font-size="14.00" fill="#de958e">skimage.io</text>
</g>
<!-- skimage.io&#45;&gt;hidebound.database_test_base -->
<g id="edge74" class="edge">
<title>skimage.io&#45;&gt;hidebound.database_test_base</title>
<path fill="none" stroke="#de958e" d="M493.5285,-217.584C568.3585,-225.1776 712.7647,-246.9411 819,-306.7444 881.3414,-341.8383 936.3627,-407.0639 964.0439,-443.462"/>
<polygon fill="#de958e" stroke="#de958e" points="961.3666,-445.7258 970.164,-451.6298 966.9685,-441.5284 961.3666,-445.7258"/>
</g>
<!-- skimage.io&#45;&gt;hidebound.traits -->
<g id="edge75" class="edge">
<title>skimage.io&#45;&gt;hidebound.traits</title>
<path fill="none" stroke="#de958e" d="M493.7764,-196.8126C507.2135,-192.0863 521.7103,-186.845 535,-181.7444 551.1824,-175.5335 554.5667,-172.2572 571,-166.7444 583.7213,-162.4767 597.3361,-158.4428 610.7161,-154.7696"/>
<polygon fill="#de958e" stroke="#de958e" points="611.6559,-158.1413 620.4012,-152.1605 609.835,-151.3822 611.6559,-158.1413"/>
</g>
</g>
</svg>
