<?xml version="1.0" encoding="UTF-8" standalone="no"?>
<!DOCTYPE svg PUBLIC "-//W3C//DTD SVG 1.1//EN"
 "http://www.w3.org/Graphics/SVG/1.1/DTD/svg11.dtd">
<!-- Generated by graphviz version 2.40.1 (20161225.0304)
 -->
<!-- Title: %3 Pages: 1 -->
<svg width="1245pt" height="332pt"
 viewBox="0.00 0.00 1245.00 332.00" xmlns="http://www.w3.org/2000/svg" xmlns:xlink="http://www.w3.org/1999/xlink">
<g id="graph0" class="graph" transform="scale(1 1) rotate(0) translate(4 328)">
<title>%3</title>
<polygon fill="#242424" stroke="transparent" points="-4,4 -4,-328 1241,-328 1241,4 -4,4"/>
<!-- cli -->
<g id="node1" class="node">
<title>cli</title>
<polygon fill="#343434" stroke="#343434" points="54,-324 0,-324 0,-288 54,-288 54,-324"/>
<text text-anchor="middle" x="27" y="-302.3" font-family="Courier,monospace" font-size="14.00" fill="#b6ecf3">cli</text>
</g>
<!-- nerve.database -->
<g id="node2" class="node">
<title>nerve.database</title>
<polygon fill="#343434" stroke="#343434" points="991,-36 859,-36 859,0 991,0 991,-36"/>
<text text-anchor="middle" x="925" y="-14.3" font-family="Courier,monospace" font-size="14.00" fill="#b6ecf3">nerve.database</text>
</g>
<!-- nerve.parser -->
<g id="node3" class="node">
<title>nerve.parser</title>
<polygon fill="#343434" stroke="#343434" points="637,-252 521,-252 521,-216 637,-216 637,-252"/>
<text text-anchor="middle" x="579" y="-230.3" font-family="Courier,monospace" font-size="14.00" fill="#b6ecf3">nerve.parser</text>
</g>
<!-- nerve.parser&#45;&gt;nerve.database -->
<g id="edge1" class="edge">
<title>nerve.parser&#45;&gt;nerve.database</title>
<path fill="none" stroke="#b6ecf3" d="M637.2233,-216.327C662.2102,-207.3917 691.0915,-195.1898 715,-180 774.1824,-142.3996 773.5697,-113.6169 830,-72 845.316,-60.7046 863.2155,-49.97 879.3223,-41.091"/>
<polygon fill="#b6ecf3" stroke="#b6ecf3" points="881.4375,-43.926 888.5655,-36.0874 878.1051,-37.77 881.4375,-43.926"/>
</g>
<!-- nerve.specification_base -->
<g id="node4" class="node">
<title>nerve.specification_base</title>
<polygon fill="#343434" stroke="#343434" points="703.5,-108 488.5,-108 488.5,-72 703.5,-72 703.5,-108"/>
<text text-anchor="middle" x="596" y="-86.3" font-family="Courier,monospace" font-size="14.00" fill="#b6ecf3">nerve.specification_base</text>
</g>
<!-- nerve.parser&#45;&gt;nerve.specification_base -->
<g id="edge2" class="edge">
<title>nerve.parser&#45;&gt;nerve.specification_base</title>
<path fill="none" stroke="#b6ecf3" d="M581.1531,-215.7623C584.0527,-191.201 589.2416,-147.2474 592.6526,-118.3541"/>
<polygon fill="#b6ecf3" stroke="#b6ecf3" points="596.1678,-118.431 593.8644,-108.0896 589.2161,-117.6103 596.1678,-118.431"/>
</g>
<!-- nerve.validators -->
<g id="node8" class="node">
<title>nerve.validators</title>
<polygon fill="#343434" stroke="#343434" points="384.5,-180 235.5,-180 235.5,-144 384.5,-144 384.5,-180"/>
<text text-anchor="middle" x="310" y="-158.3" font-family="Courier,monospace" font-size="14.00" fill="#b6ecf3">nerve.validators</text>
</g>
<!-- nerve.parser&#45;&gt;nerve.validators -->
<g id="edge3" class="edge">
<title>nerve.parser&#45;&gt;nerve.validators</title>
<path fill="none" stroke="#b6ecf3" d="M520.9622,-218.4657C481.8443,-207.9955 429.8051,-194.0668 387.2003,-182.6633"/>
<polygon fill="#b6ecf3" stroke="#b6ecf3" points="387.9914,-179.2519 377.4265,-180.0472 386.1815,-186.0139 387.9914,-179.2519"/>
</g>
<!-- nerve.specification_base&#45;&gt;nerve.database -->
<g id="edge4" class="edge">
<title>nerve.specification_base&#45;&gt;nerve.database</title>
<path fill="none" stroke="#b6ecf3" d="M678.5959,-71.9243C730.8811,-60.482 797.9871,-45.7961 848.962,-34.6405"/>
<polygon fill="#b6ecf3" stroke="#b6ecf3" points="849.9122,-38.0155 858.9327,-32.4585 848.4156,-31.1773 849.9122,-38.0155"/>
</g>
<!-- nerve.specifications -->
<g id="node5" class="node">
<title>nerve.specifications</title>
<polygon fill="#343434" stroke="#343434" points="551,-36 369,-36 369,0 551,0 551,-36"/>
<text text-anchor="middle" x="460" y="-14.3" font-family="Courier,monospace" font-size="14.00" fill="#b6ecf3">nerve.specifications</text>
</g>
<!-- nerve.specification_base&#45;&gt;nerve.specifications -->
<g id="edge5" class="edge">
<title>nerve.specification_base&#45;&gt;nerve.specifications</title>
<path fill="none" stroke="#b6ecf3" d="M561.6815,-71.8314C543.9641,-62.4516 522.1655,-50.9112 503.3016,-40.9244"/>
<polygon fill="#b6ecf3" stroke="#b6ecf3" points="504.7831,-37.7485 494.3076,-36.1628 501.5078,-43.935 504.7831,-37.7485"/>
</g>
<!-- nerve.tools -->
<g id="node6" class="node">
<title>nerve.tools</title>
<polygon fill="#343434" stroke="#343434" points="1123.5,-108 1016.5,-108 1016.5,-72 1123.5,-72 1123.5,-108"/>
<text text-anchor="middle" x="1070" y="-86.3" font-family="Courier,monospace" font-size="14.00" fill="#b6ecf3">nerve.tools</text>
</g>
<!-- nerve.tools&#45;&gt;nerve.database -->
<g id="edge6" class="edge">
<title>nerve.tools&#45;&gt;nerve.database</title>
<path fill="none" stroke="#b6ecf3" d="M1033.4104,-71.8314C1014.2761,-62.3302 990.6771,-50.6121 970.3878,-40.5374"/>
<polygon fill="#b6ecf3" stroke="#b6ecf3" points="971.8397,-37.3506 961.3265,-36.038 968.7265,-43.6203 971.8397,-37.3506"/>
</g>
<!-- nerve.traits -->
<g id="node7" class="node">
<title>nerve.traits</title>
<polygon fill="#343434" stroke="#343434" points="180,-252 64,-252 64,-216 180,-216 180,-252"/>
<text text-anchor="middle" x="122" y="-230.3" font-family="Courier,monospace" font-size="14.00" fill="#b6ecf3">nerve.traits</text>
</g>
<!-- nerve.traits&#45;&gt;nerve.specifications -->
<g id="edge7" class="edge">
<title>nerve.traits&#45;&gt;nerve.specifications</title>
<path fill="none" stroke="#b6ecf3" d="M136.5053,-215.6615C152.6537,-196.1063 180.2815,-165.1064 209,-144 270.2136,-99.0117 349.8877,-62.1132 402.8786,-40.1212"/>
<polygon fill="#b6ecf3" stroke="#b6ecf3" points="404.5313,-43.2262 412.4521,-36.1897 401.8722,-36.7509 404.5313,-43.2262"/>
</g>
<!-- nerve.validators&#45;&gt;nerve.specification_base -->
<g id="edge8" class="edge">
<title>nerve.validators&#45;&gt;nerve.specification_base</title>
<path fill="none" stroke="#b6ecf3" d="M381.8007,-143.9243C422.0885,-133.7819 472.499,-121.0912 514.2936,-110.5694"/>
<polygon fill="#b6ecf3" stroke="#b6ecf3" points="515.3268,-113.9186 524.1697,-108.0831 513.6178,-107.1304 515.3268,-113.9186"/>
</g>
<!-- nerve.validators&#45;&gt;nerve.specifications -->
<g id="edge9" class="edge">
<title>nerve.validators&#45;&gt;nerve.specifications</title>
<path fill="none" stroke="#b6ecf3" d="M328.9976,-143.7623C355.4839,-118.3354 403.6195,-72.1253 433.5866,-43.3569"/>
<polygon fill="#b6ecf3" stroke="#b6ecf3" points="436.3666,-45.5398 441.1566,-36.0896 431.5189,-40.4901 436.3666,-45.5398"/>
</g>
<!-- humanfriendly -->
<g id="node9" class="node">
<title>humanfriendly</title>
<polygon fill="#343434" stroke="#343434" points="1115,-180 991,-180 991,-144 1115,-144 1115,-180"/>
<text text-anchor="middle" x="1053" y="-158.3" font-family="Courier,monospace" font-size="14.00" fill="#de958e">humanfriendly</text>
</g>
<!-- humanfriendly&#45;&gt;nerve.tools -->
<g id="edge10" class="edge">
<title>humanfriendly&#45;&gt;nerve.tools</title>
<path fill="none" stroke="#de958e" d="M1057.2898,-143.8314C1059.108,-136.131 1061.2699,-126.9743 1063.2905,-118.4166"/>
<polygon fill="#de958e" stroke="#de958e" points="1066.7608,-118.95 1065.6524,-108.4133 1059.9481,-117.3414 1066.7608,-118.95"/>
</g>
<!-- numpy -->
<g id="node10" class="node">
<title>numpy</title>
<polygon fill="#343434" stroke="#343434" points="897,-108 839,-108 839,-72 897,-72 897,-108"/>
<text text-anchor="middle" x="868" y="-86.3" font-family="Courier,monospace" font-size="14.00" fill="#de958e">numpy</text>
</g>
<!-- numpy&#45;&gt;nerve.database -->
<g id="edge11" class="edge">
<title>numpy&#45;&gt;nerve.database</title>
<path fill="none" stroke="#de958e" d="M882.3835,-71.8314C888.9486,-63.5386 896.8507,-53.557 904.0578,-44.4533"/>
<polygon fill="#de958e" stroke="#de958e" points="906.9599,-46.4262 910.4228,-36.4133 901.4716,-42.0813 906.9599,-46.4262"/>
</g>
<!-- pandas -->
<g id="node11" class="node">
<title>pandas</title>
<polygon fill="#343434" stroke="#343434" points="1237,-180 1171,-180 1171,-144 1237,-144 1237,-180"/>
<text text-anchor="middle" x="1204" y="-158.3" font-family="Courier,monospace" font-size="14.00" fill="#de958e">pandas</text>
</g>
<!-- pandas&#45;&gt;nerve.database -->
<g id="edge12" class="edge">
<title>pandas&#45;&gt;nerve.database</title>
<path fill="none" stroke="#de958e" d="M1194.5232,-143.887C1182.8242,-123.3269 1160.9957,-90.2794 1133,-72 1093.7513,-46.3731 1042.9272,-32.8938 1001.3435,-25.8112"/>
<polygon fill="#de958e" stroke="#de958e" points="1001.687,-22.3214 991.2576,-24.1864 1000.5736,-29.2323 1001.687,-22.3214"/>
</g>
<!-- pandas&#45;&gt;nerve.tools -->
<g id="edge13" class="edge">
<title>pandas&#45;&gt;nerve.tools</title>
<path fill="none" stroke="#de958e" d="M1170.8764,-144.2022C1153.293,-134.7545 1131.4854,-123.0369 1112.6497,-112.9162"/>
<polygon fill="#de958e" stroke="#de958e" points="1114.1389,-109.7432 1103.6733,-108.0931 1110.8256,-115.9095 1114.1389,-109.7432"/>
</g>
<!-- nerve -->
<g id="node12" class="node">
<title>nerve</title>
<polygon fill="#343434" stroke="#343434" points="701,-324 643,-324 643,-288 701,-288 701,-324"/>
<text text-anchor="middle" x="672" y="-302.3" font-family="Courier,monospace" font-size="14.00" fill="#a0d17b">nerve</text>
</g>
<!-- nerve&#45;&gt;nerve.database -->
<g id="edge14" class="edge">
<title>nerve&#45;&gt;nerve.database</title>
<path fill="none" stroke="#a0d17b" d="M701.0418,-303.8725C759.7135,-298.9252 889.1663,-284.5048 917,-252 966.8786,-193.7507 947.5866,-94.2725 933.9852,-45.9663"/>
<polygon fill="#a0d17b" stroke="#a0d17b" points="937.2913,-44.8026 931.1126,-36.1959 930.5755,-46.7771 937.2913,-44.8026"/>
</g>
<!-- nerve&#45;&gt;nerve.parser -->
<g id="edge15" class="edge">
<title>nerve&#45;&gt;nerve.parser</title>
<path fill="none" stroke="#a0d17b" d="M648.5322,-287.8314C636.9673,-278.8779 622.8596,-267.9558 610.3817,-258.2955"/>
<polygon fill="#a0d17b" stroke="#a0d17b" points="612.5102,-255.5171 602.4603,-252.1628 608.225,-261.0521 612.5102,-255.5171"/>
</g>
<!-- nerve&#45;&gt;nerve.specification_base -->
<g id="edge16" class="edge">
<title>nerve&#45;&gt;nerve.specification_base</title>
<path fill="none" stroke="#a0d17b" d="M673.7905,-287.8083C676.0888,-269.1875 681.0345,-239.7008 691,-216 698.4534,-198.2736 709.4276,-198.4045 715,-180 719.6365,-164.6865 723.6664,-157.4496 715,-144 706.2482,-130.4179 693.1559,-120.2135 678.8156,-112.5587"/>
<polygon fill="#a0d17b" stroke="#a0d17b" points="680.2726,-109.375 669.7531,-108.1145 677.1906,-115.66 680.2726,-109.375"/>
</g>
<!-- nerve&#45;&gt;nerve.specifications -->
<g id="edge17" class="edge">
<title>nerve&#45;&gt;nerve.specifications</title>
<path fill="none" stroke="#a0d17b" d="M701.2084,-303.4576C756.8397,-297.9459 874.6412,-282.8331 899,-252 908.9185,-239.4452 906.0643,-230.356 899,-216 837.6075,-91.239 670.7085,-45.0151 561.2954,-27.9398"/>
<polygon fill="#a0d17b" stroke="#a0d17b" points="561.6307,-24.4509 551.2213,-26.4243 560.5893,-31.373 561.6307,-24.4509"/>
</g>
<!-- nerve&#45;&gt;nerve.tools -->
<g id="edge18" class="edge">
<title>nerve&#45;&gt;nerve.tools</title>
<path fill="none" stroke="#a0d17b" d="M701.1058,-302.8734C793.6752,-292.2262 1077.9242,-253.8735 1124,-180 1132.4674,-166.4242 1130.1229,-158.7821 1124,-144 1119.4479,-133.0103 1111.454,-123.0911 1102.9898,-114.8418"/>
<polygon fill="#a0d17b" stroke="#a0d17b" points="1105.2589,-112.1745 1095.5052,-108.0373 1100.5501,-117.354 1105.2589,-112.1745"/>
</g>
<!-- nerve&#45;&gt;nerve.traits -->
<g id="edge19" class="edge">
<title>nerve&#45;&gt;nerve.traits</title>
<path fill="none" stroke="#a0d17b" d="M642.8179,-302.1798C558.2278,-291.1062 311.2513,-258.7747 190.317,-242.9433"/>
<polygon fill="#a0d17b" stroke="#a0d17b" points="190.4409,-239.4298 180.0712,-241.602 189.5322,-246.3705 190.4409,-239.4298"/>
</g>
<!-- nerve&#45;&gt;nerve.validators -->
<g id="edge20" class="edge">
<title>nerve&#45;&gt;nerve.validators</title>
<path fill="none" stroke="#a0d17b" d="M642.8021,-297.0516C610.5015,-286.9431 557.0591,-269.5971 512,-252 458.0858,-230.9447 397.6183,-203.4764 357.0131,-184.4502"/>
<polygon fill="#a0d17b" stroke="#a0d17b" points="358.4372,-181.2523 347.8984,-180.1648 355.4588,-187.587 358.4372,-181.2523"/>
</g>
<!-- pyparsing -->
<g id="node13" class="node">
<title>pyparsing</title>
<polygon fill="#343434" stroke="#343434" points="327.5,-324 236.5,-324 236.5,-288 327.5,-288 327.5,-324"/>
<text text-anchor="middle" x="282" y="-302.3" font-family="Courier,monospace" font-size="14.00" fill="#de958e">pyparsing</text>
</g>
<!-- pyparsing&#45;&gt;nerve.parser -->
<g id="edge21" class="edge">
<title>pyparsing&#45;&gt;nerve.parser</title>
<path fill="none" stroke="#de958e" d="M327.7554,-294.9078C376.7219,-283.0371 454.9222,-264.0795 511.0756,-250.4665"/>
<polygon fill="#de958e" stroke="#de958e" points="512.0468,-253.8325 520.9406,-248.075 510.3975,-247.0296 512.0468,-253.8325"/>
</g>
<!-- pyparsing&#45;&gt;nerve.specification_base -->
<g id="edge22" class="edge">
<title>pyparsing&#45;&gt;nerve.specification_base</title>
<path fill="none" stroke="#de958e" d="M265.3787,-287.7773C237.7791,-255.2895 189.0195,-186.7695 226,-144 242.5648,-124.8422 376.4235,-108.975 478.4199,-99.5054"/>
<polygon fill="#de958e" stroke="#de958e" points="478.8593,-102.9799 488.4977,-98.5808 478.2197,-96.0092 478.8593,-102.9799"/>
</g>
<!-- pyparsing&#45;&gt;nerve.validators -->
<g id="edge23" class="edge">
<title>pyparsing&#45;&gt;nerve.validators</title>
<path fill="none" stroke="#de958e" d="M285.5462,-287.7623C290.3431,-263.0928 298.9439,-218.8598 304.5608,-189.9731"/>
<polygon fill="#de958e" stroke="#de958e" points="308.0095,-190.5738 306.4826,-180.0896 301.1381,-189.2377 308.0095,-190.5738"/>
</g>
<!-- schematics.exceptions -->
<g id="node14" class="node">
<title>schematics.exceptions</title>
<polygon fill="#343434" stroke="#343434" points="890,-252 700,-252 700,-216 890,-216 890,-252"/>
<text text-anchor="middle" x="795" y="-230.3" font-family="Courier,monospace" font-size="14.00" fill="#de958e">schematics.exceptions</text>
</g>
<!-- schematics.exceptions&#45;&gt;nerve.database -->
<g id="edge24" class="edge">
<title>schematics.exceptions&#45;&gt;nerve.database</title>
<path fill="none" stroke="#de958e" d="M816.638,-215.8915C842.1161,-193.3239 883.7709,-152.2947 906,-108 915.7,-88.6714 920.4544,-64.6072 922.7811,-46.2264"/>
<polygon fill="#de958e" stroke="#de958e" points="926.2762,-46.4621 923.8896,-36.1396 919.3181,-45.6974 926.2762,-46.4621"/>
</g>
<!-- schematics.exceptions&#45;&gt;nerve.specification_base -->
<g id="edge25" class="edge">
<title>schematics.exceptions&#45;&gt;nerve.specification_base</title>
<path fill="none" stroke="#de958e" d="M790.1833,-215.9268C783.9102,-195.7167 771.0545,-163.2964 749,-144 732.8035,-129.829 712.6473,-119.3069 692.3373,-111.5177"/>
<polygon fill="#de958e" stroke="#de958e" points="693.2855,-108.1386 682.6914,-108.019 690.8987,-114.7191 693.2855,-108.1386"/>
</g>
<!-- schematics.exceptions&#45;&gt;nerve.validators -->
<g id="edge26" class="edge">
<title>schematics.exceptions&#45;&gt;nerve.validators</title>
<path fill="none" stroke="#de958e" d="M699.9629,-222.1263C605.0951,-210.1216 464.673,-191.9032 394.7901,-180.2194"/>
<polygon fill="#de958e" stroke="#de958e" points="395.0488,-176.7128 384.6012,-178.4734 393.8664,-183.6122 395.0488,-176.7128"/>
</g>
<!-- schematics -->
<g id="node15" class="node">
<title>schematics</title>
<polygon fill="#343434" stroke="#343434" points="706.5,-180 607.5,-180 607.5,-144 706.5,-144 706.5,-180"/>
<text text-anchor="middle" x="657" y="-158.3" font-family="Courier,monospace" font-size="14.00" fill="#de958e">schematics</text>
</g>
<!-- schematics&#45;&gt;nerve.specification_base -->
<g id="edge27" class="edge">
<title>schematics&#45;&gt;nerve.specification_base</title>
<path fill="none" stroke="#de958e" d="M641.6071,-143.8314C634.5096,-135.454 625.952,-125.3531 618.176,-116.1749"/>
<polygon fill="#de958e" stroke="#de958e" points="620.7348,-113.7807 611.6001,-108.4133 615.3939,-118.3056 620.7348,-113.7807"/>
</g>
<!-- schematics.types -->
<g id="node16" class="node">
<title>schematics.types</title>
<polygon fill="#343434" stroke="#343434" points="551.5,-180 402.5,-180 402.5,-144 551.5,-144 551.5,-180"/>
<text text-anchor="middle" x="477" y="-158.3" font-family="Courier,monospace" font-size="14.00" fill="#de958e">schematics.types</text>
</g>
<!-- schematics.types&#45;&gt;nerve.specification_base -->
<g id="edge28" class="edge">
<title>schematics.types&#45;&gt;nerve.specification_base</title>
<path fill="none" stroke="#de958e" d="M507.0287,-143.8314C522.2496,-134.6221 540.9128,-123.3301 557.2083,-113.4706"/>
<polygon fill="#de958e" stroke="#de958e" points="559.2369,-116.3341 565.9809,-108.1628 555.6132,-110.345 559.2369,-116.3341"/>
</g>
<!-- schematics.types&#45;&gt;nerve.specifications -->
<g id="edge29" class="edge">
<title>schematics.types&#45;&gt;nerve.specifications</title>
<path fill="none" stroke="#de958e" d="M474.8469,-143.7623C471.9473,-119.201 466.7584,-75.2474 463.3474,-46.3541"/>
<polygon fill="#de958e" stroke="#de958e" points="466.7839,-45.6103 462.1356,-36.0896 459.8322,-46.431 466.7839,-45.6103"/>
</g>
<!-- wrapt -->
<g id="node17" class="node">
<title>wrapt</title>
<polygon fill="#343434" stroke="#343434" points="368,-252 310,-252 310,-216 368,-216 368,-252"/>
<text text-anchor="middle" x="339" y="-230.3" font-family="Courier,monospace" font-size="14.00" fill="#de958e">wrapt</text>
</g>
<!-- wrapt&#45;&gt;nerve.validators -->
<g id="edge30" class="edge">
<title>wrapt&#45;&gt;nerve.validators</title>
<path fill="none" stroke="#de958e" d="M331.6821,-215.8314C328.5124,-207.9617 324.73,-198.5712 321.2187,-189.8533"/>
<polygon fill="#de958e" stroke="#de958e" points="324.3992,-188.3815 317.4165,-180.4133 317.9061,-190.9968 324.3992,-188.3815"/>
</g>
<!-- skimage.io -->
<g id="node18" class="node">
<title>skimage.io</title>
<polygon fill="#343434" stroke="#343434" points="171.5,-324 72.5,-324 72.5,-288 171.5,-288 171.5,-324"/>
<text text-anchor="middle" x="122" y="-302.3" font-family="Courier,monospace" font-size="14.00" fill="#de958e">skimage.io</text>
</g>
<!-- skimage.io&#45;&gt;nerve.traits -->
<g id="edge31" class="edge">
<title>skimage.io&#45;&gt;nerve.traits</title>
<path fill="none" stroke="#de958e" d="M122,-287.8314C122,-280.131 122,-270.9743 122,-262.4166"/>
<polygon fill="#de958e" stroke="#de958e" points="125.5001,-262.4132 122,-252.4133 118.5001,-262.4133 125.5001,-262.4132"/>
</g>
</g>
</svg>
