<?xml version="1.0" encoding="UTF-8" standalone="no"?>
<!DOCTYPE svg PUBLIC "-//W3C//DTD SVG 1.1//EN"
 "http://www.w3.org/Graphics/SVG/1.1/DTD/svg11.dtd">
<!-- Generated by graphviz version 2.40.1 (20161225.0304)
 -->
<!-- Title: %3 Pages: 1 -->
<svg width="2236pt" height="1506pt"
 viewBox="0.00 0.00 2236.00 1506.00" xmlns="http://www.w3.org/2000/svg" xmlns:xlink="http://www.w3.org/1999/xlink">
<g id="graph0" class="graph" transform="scale(1 1) rotate(0) translate(4 1502)">
<title>%3</title>
<polygon fill="#242424" stroke="transparent" points="-4,4 -4,-1502 2232,-1502 2232,4 -4,4"/>
<!-- cli -->
<g id="node1" class="node">
<title>cli</title>
<polygon fill="#343434" stroke="#343434" points="72.5,-908 18.5,-908 18.5,-872 72.5,-872 72.5,-908"/>
<text text-anchor="middle" x="45.5" y="-886.3" font-family="Courier,monospace" font-size="14.00" fill="#b6ecf3">cli</text>
</g>
<!-- hidebound.core.config -->
<g id="node2" class="node">
<title>hidebound.core.config</title>
<polygon fill="#343434" stroke="#343434" points="1410,-833 1220,-833 1220,-797 1410,-797 1410,-833"/>
<text text-anchor="middle" x="1315" y="-811.3" font-family="Courier,monospace" font-size="14.00" fill="#b6ecf3">hidebound.core.config</text>
</g>
<!-- hidebound.core.database -->
<g id="node3" class="node">
<title>hidebound.core.database</title>
<polygon fill="#343434" stroke="#343434" points="1710,-564 1504,-564 1504,-528 1710,-528 1710,-564"/>
<text text-anchor="middle" x="1607" y="-542.3" font-family="Courier,monospace" font-size="14.00" fill="#b6ecf3">hidebound.core.database</text>
</g>
<!-- hidebound.core.config&#45;&gt;hidebound.core.database -->
<g id="edge1" class="edge">
<title>hidebound.core.config&#45;&gt;hidebound.core.database</title>
<path fill="none" stroke="#b6ecf3" d="M1339.2609,-796.8013C1365.5162,-776.806 1408.2833,-743.3526 1443,-712 1495.3289,-664.7417 1552.3088,-605.0133 1583.4278,-571.6148"/>
<polygon fill="#b6ecf3" stroke="#b6ecf3" points="1586.1573,-573.8191 1590.3978,-564.1099 1581.0281,-569.0555 1586.1573,-573.8191"/>
</g>
<!-- hidebound.server.app -->
<g id="node15" class="node">
<title>hidebound.server.app</title>
<polygon fill="#343434" stroke="#343434" points="2228,-992 2046,-992 2046,-956 2228,-956 2228,-992"/>
<text text-anchor="middle" x="2137" y="-970.3" font-family="Courier,monospace" font-size="14.00" fill="#b6ecf3">hidebound.server.app</text>
</g>
<!-- hidebound.core.config&#45;&gt;hidebound.server.app -->
<g id="edge2" class="edge">
<title>hidebound.core.config&#45;&gt;hidebound.server.app</title>
<path fill="none" stroke="#b6ecf3" d="M1410.0671,-818.0182C1546.1245,-824.6426 1802.8245,-845.7635 2010,-913 2040.1198,-922.775 2072.2549,-938.2636 2096.6642,-951.187"/>
<polygon fill="#b6ecf3" stroke="#b6ecf3" points="2095.1548,-954.3492 2105.6207,-955.9972 2098.4669,-948.1823 2095.1548,-954.3492"/>
</g>
<!-- hidebound.server.api -->
<g id="node14" class="node">
<title>hidebound.server.api</title>
<polygon fill="#343434" stroke="#343434" points="1981.5,-816 1799.5,-816 1799.5,-780 1981.5,-780 1981.5,-816"/>
<text text-anchor="middle" x="1890.5" y="-794.3" font-family="Courier,monospace" font-size="14.00" fill="#b6ecf3">hidebound.server.api</text>
</g>
<!-- hidebound.core.database&#45;&gt;hidebound.server.api -->
<g id="edge3" class="edge">
<title>hidebound.core.database&#45;&gt;hidebound.server.api</title>
<path fill="none" stroke="#b6ecf3" d="M1614.6343,-564.0072C1633.9264,-607.2002 1689.0063,-717.0953 1771,-771 1776.7914,-774.8074 1783.0446,-778.083 1789.5483,-780.9005"/>
<polygon fill="#b6ecf3" stroke="#b6ecf3" points="1788.6443,-784.3059 1799.2315,-784.7092 1791.2066,-777.7917 1788.6443,-784.3059"/>
</g>
<!-- hidebound.core.database_tools -->
<g id="node4" class="node">
<title>hidebound.core.database_tools</title>
<polygon fill="#343434" stroke="#343434" points="1443,-326 1187,-326 1187,-290 1443,-290 1443,-326"/>
<text text-anchor="middle" x="1315" y="-304.3" font-family="Courier,monospace" font-size="14.00" fill="#b6ecf3">hidebound.core.database_tools</text>
</g>
<!-- hidebound.core.database_tools&#45;&gt;hidebound.core.database -->
<g id="edge4" class="edge">
<title>hidebound.core.database_tools&#45;&gt;hidebound.core.database</title>
<path fill="none" stroke="#b6ecf3" d="M1362.6562,-326.0797C1387.8135,-336.8239 1418.4656,-351.8899 1443,-370 1503.0388,-414.3176 1559.1597,-482.5083 1587.5846,-519.6587"/>
<polygon fill="#b6ecf3" stroke="#b6ecf3" points="1585.048,-522.1067 1593.8747,-527.9668 1590.6289,-517.8814 1585.048,-522.1067"/>
</g>
<!-- hidebound.core.parser -->
<g id="node5" class="node">
<title>hidebound.core.parser</title>
<polygon fill="#343434" stroke="#343434" points="485,-578 295,-578 295,-542 485,-542 485,-578"/>
<text text-anchor="middle" x="390" y="-556.3" font-family="Courier,monospace" font-size="14.00" fill="#b6ecf3">hidebound.core.parser</text>
</g>
<!-- hidebound.core.parser&#45;&gt;hidebound.core.database_tools -->
<g id="edge5" class="edge">
<title>hidebound.core.parser&#45;&gt;hidebound.core.database_tools</title>
<path fill="none" stroke="#b6ecf3" d="M422.0857,-541.9897C448.1545,-527.8724 486.1802,-508.4342 521,-495 746.0222,-408.1815 1023.0554,-354.1152 1183.3055,-327.6475"/>
<polygon fill="#b6ecf3" stroke="#b6ecf3" points="1183.9147,-331.0945 1193.2159,-326.0213 1182.7811,-324.1868 1183.9147,-331.0945"/>
</g>
<!-- hidebound.core.specification_base -->
<g id="node6" class="node">
<title>hidebound.core.specification_base</title>
<polygon fill="#343434" stroke="#343434" points="1143,-610 854,-610 854,-574 1143,-574 1143,-610"/>
<text text-anchor="middle" x="998.5" y="-588.3" font-family="Courier,monospace" font-size="14.00" fill="#b6ecf3">hidebound.core.specification_base</text>
</g>
<!-- hidebound.core.parser&#45;&gt;hidebound.core.specification_base -->
<g id="edge6" class="edge">
<title>hidebound.core.parser&#45;&gt;hidebound.core.specification_base</title>
<path fill="none" stroke="#b6ecf3" d="M485.3032,-577.6638C497.2868,-579.3952 509.405,-580.9108 521,-582 628.4303,-592.0918 750.0271,-594.5076 843.6275,-594.4436"/>
<polygon fill="#b6ecf3" stroke="#b6ecf3" points="843.7514,-597.9435 853.7456,-594.427 843.7398,-590.9435 843.7514,-597.9435"/>
</g>
<!-- hidebound.core.validators -->
<g id="node10" class="node">
<title>hidebound.core.validators</title>
<polygon fill="#343434" stroke="#343434" points="777,-708 554,-708 554,-672 777,-672 777,-708"/>
<text text-anchor="middle" x="665.5" y="-686.3" font-family="Courier,monospace" font-size="14.00" fill="#b6ecf3">hidebound.core.validators</text>
</g>
<!-- hidebound.core.parser&#45;&gt;hidebound.core.validators -->
<g id="edge7" class="edge">
<title>hidebound.core.parser&#45;&gt;hidebound.core.validators</title>
<path fill="none" stroke="#b6ecf3" d="M453.3466,-578.0115C464.1749,-582.0208 475.1113,-586.6876 485,-592 502.8562,-601.5926 503.7842,-609.3004 521,-620 550.2475,-638.1773 584.9165,-655.1118 612.9639,-667.7701"/>
<polygon fill="#b6ecf3" stroke="#b6ecf3" points="611.6461,-671.0147 622.2043,-671.8946 614.4993,-664.6226 611.6461,-671.0147"/>
</g>
<!-- hidebound.core.specification_base&#45;&gt;hidebound.core.config -->
<g id="edge8" class="edge">
<title>hidebound.core.specification_base&#45;&gt;hidebound.core.config</title>
<path fill="none" stroke="#b6ecf3" d="M1031.9233,-610.0576C1065.0677,-629.1649 1115.8507,-661.8033 1151,-700 1172.3167,-723.1649 1163.3003,-740.2795 1187,-761 1202.6042,-774.6427 1222.1563,-785.2111 1241.2472,-793.2319"/>
<polygon fill="#b6ecf3" stroke="#b6ecf3" points="1239.9785,-796.494 1250.5628,-796.967 1242.5836,-789.9968 1239.9785,-796.494"/>
</g>
<!-- hidebound.core.specification_base&#45;&gt;hidebound.core.database -->
<g id="edge9" class="edge">
<title>hidebound.core.specification_base&#45;&gt;hidebound.core.database</title>
<path fill="none" stroke="#b6ecf3" d="M1111.6719,-573.9707C1136.4413,-570.5337 1162.5609,-567.2976 1187,-565 1290.5261,-555.2672 1408.8933,-550.4829 1493.525,-548.1535"/>
<polygon fill="#b6ecf3" stroke="#b6ecf3" points="1493.7729,-551.6482 1503.6755,-547.8815 1493.5853,-544.6508 1493.7729,-551.6482"/>
</g>
<!-- hidebound.core.specification_base&#45;&gt;hidebound.core.database_tools -->
<g id="edge10" class="edge">
<title>hidebound.core.specification_base&#45;&gt;hidebound.core.database_tools</title>
<path fill="none" stroke="#b6ecf3" d="M1100.6738,-573.9043C1118.47,-567.8471 1136.0435,-559.7695 1151,-549 1229.5464,-492.4427 1282.2641,-385.8845 1303.907,-335.5992"/>
<polygon fill="#b6ecf3" stroke="#b6ecf3" points="1307.1577,-336.898 1307.8197,-326.3239 1300.7081,-334.1773 1307.1577,-336.898"/>
</g>
<!-- hidebound.core.specifications -->
<g id="node7" class="node">
<title>hidebound.core.specifications</title>
<polygon fill="#343434" stroke="#343434" points="1443,-610 1187,-610 1187,-574 1443,-574 1443,-610"/>
<text text-anchor="middle" x="1315" y="-588.3" font-family="Courier,monospace" font-size="14.00" fill="#b6ecf3">hidebound.core.specifications</text>
</g>
<!-- hidebound.core.specification_base&#45;&gt;hidebound.core.specifications -->
<g id="edge11" class="edge">
<title>hidebound.core.specification_base&#45;&gt;hidebound.core.specifications</title>
<path fill="none" stroke="#b6ecf3" d="M1143.3193,-592C1154.4106,-592 1165.5905,-592 1176.639,-592"/>
<polygon fill="#b6ecf3" stroke="#b6ecf3" points="1176.7423,-595.5001 1186.7423,-592 1176.7423,-588.5001 1176.7423,-595.5001"/>
</g>
<!-- hidebound.core.tools -->
<g id="node8" class="node">
<title>hidebound.core.tools</title>
<polygon fill="#343434" stroke="#343434" points="756.5,-258 574.5,-258 574.5,-222 756.5,-222 756.5,-258"/>
<text text-anchor="middle" x="665.5" y="-236.3" font-family="Courier,monospace" font-size="14.00" fill="#b6ecf3">hidebound.core.tools</text>
</g>
<!-- hidebound.core.tools&#45;&gt;hidebound.core.database -->
<g id="edge12" class="edge">
<title>hidebound.core.tools&#45;&gt;hidebound.core.database</title>
<path fill="none" stroke="#b6ecf3" d="M756.7115,-234.2101C936.806,-224.4671 1330.3815,-212.0594 1443,-281 1533.3575,-336.3133 1581.4374,-462.0502 1599.0507,-518.1161"/>
<polygon fill="#b6ecf3" stroke="#b6ecf3" points="1595.7216,-519.1986 1601.9883,-527.7414 1602.4168,-517.1552 1595.7216,-519.1986"/>
</g>
<!-- hidebound.core.tools&#45;&gt;hidebound.core.database_tools -->
<g id="edge13" class="edge">
<title>hidebound.core.tools&#45;&gt;hidebound.core.database_tools</title>
<path fill="none" stroke="#b6ecf3" d="M756.8368,-249.5626C866.0375,-260.9955 1049.9012,-280.2452 1176.5862,-293.5086"/>
<polygon fill="#b6ecf3" stroke="#b6ecf3" points="1176.44,-297.0124 1186.7501,-294.5728 1177.169,-290.0504 1176.44,-297.0124"/>
</g>
<!-- hidebound.core.tools&#45;&gt;hidebound.core.specification_base -->
<g id="edge14" class="edge">
<title>hidebound.core.tools&#45;&gt;hidebound.core.specification_base</title>
<path fill="none" stroke="#b6ecf3" d="M703.6457,-258.0524C737.2117,-276.0133 784.5805,-306.8259 810,-348 857.6754,-425.2237 785.0337,-481.7724 846,-549 853.4277,-557.1905 862.2825,-563.8691 871.9332,-569.3086"/>
<polygon fill="#b6ecf3" stroke="#b6ecf3" points="870.5069,-572.5106 881.0017,-573.9636 873.7036,-566.2832 870.5069,-572.5106"/>
</g>
<!-- hidebound.core.traits -->
<g id="node9" class="node">
<title>hidebound.core.traits</title>
<polygon fill="#343434" stroke="#343434" points="1093.5,-540 903.5,-540 903.5,-504 1093.5,-504 1093.5,-540"/>
<text text-anchor="middle" x="998.5" y="-518.3" font-family="Courier,monospace" font-size="14.00" fill="#b6ecf3">hidebound.core.traits</text>
</g>
<!-- hidebound.core.tools&#45;&gt;hidebound.core.traits -->
<g id="edge15" class="edge">
<title>hidebound.core.tools&#45;&gt;hidebound.core.traits</title>
<path fill="none" stroke="#b6ecf3" d="M700.7269,-258.0585C733.4312,-276.5151 781.2706,-308.0942 810,-348 839.8083,-389.4045 811.4696,-419.4432 846,-457 864.0499,-476.6318 889.013,-490.5678 913.5198,-500.3591"/>
<polygon fill="#b6ecf3" stroke="#b6ecf3" points="912.2835,-503.6334 922.8746,-503.9121 914.7689,-497.0895 912.2835,-503.6334"/>
</g>
<!-- hidebound.core.traits&#45;&gt;hidebound.core.specifications -->
<g id="edge16" class="edge">
<title>hidebound.core.traits&#45;&gt;hidebound.core.specifications</title>
<path fill="none" stroke="#b6ecf3" d="M1080.0066,-540.0267C1123.9457,-549.7447 1178.2996,-561.7661 1223.6624,-571.7989"/>
<polygon fill="#b6ecf3" stroke="#b6ecf3" points="1222.9751,-575.2315 1233.495,-573.9736 1224.4868,-568.3966 1222.9751,-575.2315"/>
</g>
<!-- hidebound.core.validators&#45;&gt;hidebound.core.config -->
<g id="edge17" class="edge">
<title>hidebound.core.validators&#45;&gt;hidebound.core.config</title>
<path fill="none" stroke="#b6ecf3" d="M777.0061,-689.1396C877.1061,-691.2928 1026.9444,-701.8243 1151,-741 1168.4537,-746.5117 1170.544,-752.9866 1187,-761 1210.3379,-772.3646 1236.6762,-783.7178 1259.3671,-793.0606"/>
<polygon fill="#b6ecf3" stroke="#b6ecf3" points="1258.2683,-796.3925 1268.8492,-796.9357 1260.9165,-789.9127 1258.2683,-796.3925"/>
</g>
<!-- hidebound.core.validators&#45;&gt;hidebound.core.specification_base -->
<g id="edge18" class="edge">
<title>hidebound.core.validators&#45;&gt;hidebound.core.specification_base</title>
<path fill="none" stroke="#b6ecf3" d="M776.5978,-671.9026C788.201,-668.1145 799.5567,-663.5353 810,-658 829.4453,-647.6933 826.4978,-634.1986 846,-624 853.7507,-619.9468 861.9762,-616.407 870.4328,-613.3155"/>
<polygon fill="#b6ecf3" stroke="#b6ecf3" points="871.7419,-616.5667 880.0659,-610.0122 869.4713,-609.9452 871.7419,-616.5667"/>
</g>
<!-- hidebound.core.validators&#45;&gt;hidebound.core.specifications -->
<g id="edge19" class="edge">
<title>hidebound.core.validators&#45;&gt;hidebound.core.specifications</title>
<path fill="none" stroke="#b6ecf3" d="M777.1551,-672.4326C799.9253,-668.9195 823.7275,-665.2974 846,-662 981.4201,-641.9515 1015.6743,-639.6761 1151,-619 1166.0923,-616.6941 1181.9517,-614.188 1197.6162,-611.6629"/>
<polygon fill="#b6ecf3" stroke="#b6ecf3" points="1198.5597,-615.0559 1207.8719,-610.0028 1197.4411,-608.1458 1198.5597,-615.0559"/>
</g>
<!-- hidebound.exporters.girder_exporter -->
<g id="node12" class="node">
<title>hidebound.exporters.girder_exporter</title>
<polygon fill="#343434" stroke="#343434" points="1151,-908 846,-908 846,-872 1151,-872 1151,-908"/>
<text text-anchor="middle" x="998.5" y="-886.3" font-family="Courier,monospace" font-size="14.00" fill="#b6ecf3">hidebound.exporters.girder_exporter</text>
</g>
<!-- hidebound.core.validators&#45;&gt;hidebound.exporters.girder_exporter -->
<g id="edge20" class="edge">
<title>hidebound.core.validators&#45;&gt;hidebound.exporters.girder_exporter</title>
<path fill="none" stroke="#b6ecf3" d="M777.2919,-698.1597C789.2335,-702.5998 800.4766,-708.6997 810,-717 848.1425,-750.2438 811.7038,-787.8009 846,-825 864.0769,-844.607 889.0475,-858.536 913.5528,-868.3288"/>
<polygon fill="#b6ecf3" stroke="#b6ecf3" points="912.3155,-871.6027 922.9067,-871.8826 914.8017,-865.0591 912.3155,-871.6027"/>
</g>
<!-- hidebound.exporters.s3_exporter -->
<g id="node13" class="node">
<title>hidebound.exporters.s3_exporter</title>
<polygon fill="#343434" stroke="#343434" points="1134.5,-816 862.5,-816 862.5,-780 1134.5,-780 1134.5,-816"/>
<text text-anchor="middle" x="998.5" y="-794.3" font-family="Courier,monospace" font-size="14.00" fill="#b6ecf3">hidebound.exporters.s3_exporter</text>
</g>
<!-- hidebound.core.validators&#45;&gt;hidebound.exporters.s3_exporter -->
<g id="edge21" class="edge">
<title>hidebound.core.validators&#45;&gt;hidebound.exporters.s3_exporter</title>
<path fill="none" stroke="#b6ecf3" d="M776.1706,-708.0685C787.6805,-710.7232 799.1347,-713.695 810,-717 860.7356,-732.4327 916.2141,-757.3114 953.7587,-775.4292"/>
<polygon fill="#b6ecf3" stroke="#b6ecf3" points="952.3804,-778.6508 962.9038,-779.8798 955.4437,-772.3566 952.3804,-778.6508"/>
</g>
<!-- hidebound.exporters.exporter_base -->
<g id="node11" class="node">
<title>hidebound.exporters.exporter_base</title>
<polygon fill="#343434" stroke="#343434" points="810,-962 521,-962 521,-926 810,-926 810,-962"/>
<text text-anchor="middle" x="665.5" y="-940.3" font-family="Courier,monospace" font-size="14.00" fill="#b6ecf3">hidebound.exporters.exporter_base</text>
</g>
<!-- hidebound.exporters.exporter_base&#45;&gt;hidebound.exporters.girder_exporter -->
<g id="edge22" class="edge">
<title>hidebound.exporters.exporter_base&#45;&gt;hidebound.exporters.girder_exporter</title>
<path fill="none" stroke="#b6ecf3" d="M776.8471,-925.9437C809.0605,-920.7199 844.379,-914.9926 877.169,-909.6753"/>
<polygon fill="#b6ecf3" stroke="#b6ecf3" points="877.947,-913.0949 887.2578,-908.0393 876.8264,-906.1852 877.947,-913.0949"/>
</g>
<!-- hidebound.exporters.exporter_base&#45;&gt;hidebound.exporters.s3_exporter -->
<g id="edge23" class="edge">
<title>hidebound.exporters.exporter_base&#45;&gt;hidebound.exporters.s3_exporter</title>
<path fill="none" stroke="#b6ecf3" d="M793.8359,-925.9852C799.4668,-923.3561 804.8893,-920.3759 810,-917 834.0677,-901.102 823.8063,-881.4239 846,-863 868.7793,-844.0899 897.8752,-829.8818 924.5333,-819.6502"/>
<polygon fill="#b6ecf3" stroke="#b6ecf3" points="926.0664,-822.8148 934.2282,-816.0593 923.635,-816.2506 926.0664,-822.8148"/>
</g>
<!-- hidebound.exporters.girder_exporter&#45;&gt;hidebound.core.config -->
<g id="edge24" class="edge">
<title>hidebound.exporters.girder_exporter&#45;&gt;hidebound.core.config</title>
<path fill="none" stroke="#b6ecf3" d="M1088.1735,-871.9572C1108.8515,-867.5822 1130.726,-862.7819 1151,-858 1179.9597,-851.1695 1211.6197,-843.0287 1239.3323,-835.6775"/>
<polygon fill="#b6ecf3" stroke="#b6ecf3" points="1240.5891,-838.9648 1249.3512,-833.0087 1238.7873,-832.2007 1240.5891,-838.9648"/>
</g>
<!-- hidebound.exporters.girder_exporter&#45;&gt;hidebound.core.database -->
<g id="edge25" class="edge">
<title>hidebound.exporters.girder_exporter&#45;&gt;hidebound.core.database</title>
<path fill="none" stroke="#b6ecf3" d="M1151.0441,-907.0413C1242.7934,-909.6074 1357.8914,-898.5187 1443,-842 1540.1853,-777.4615 1585.2774,-634.9444 1600.6166,-574.2561"/>
<polygon fill="#b6ecf3" stroke="#b6ecf3" points="1604.0892,-574.7892 1603.0626,-564.2442 1597.2892,-573.1278 1604.0892,-574.7892"/>
</g>
<!-- hidebound.exporters.s3_exporter&#45;&gt;hidebound.core.config -->
<g id="edge26" class="edge">
<title>hidebound.exporters.s3_exporter&#45;&gt;hidebound.core.config</title>
<path fill="none" stroke="#b6ecf3" d="M1134.5613,-805.3082C1159.63,-806.6547 1185.4566,-808.0419 1209.4572,-809.331"/>
<polygon fill="#b6ecf3" stroke="#b6ecf3" points="1209.4504,-812.8356 1219.6238,-809.8771 1209.8259,-805.8457 1209.4504,-812.8356"/>
</g>
<!-- hidebound.exporters.s3_exporter&#45;&gt;hidebound.core.database -->
<g id="edge27" class="edge">
<title>hidebound.exporters.s3_exporter&#45;&gt;hidebound.core.database</title>
<path fill="none" stroke="#b6ecf3" d="M1105.5508,-779.9168C1198.3228,-761.4864 1334.352,-727.7163 1443,-673 1496.7346,-645.9387 1550.1822,-600.1081 1580.8312,-571.5323"/>
<polygon fill="#b6ecf3" stroke="#b6ecf3" points="1583.6138,-573.719 1588.4855,-564.3107 1578.81,-568.6274 1583.6138,-573.719"/>
</g>
<!-- hidebound.server.api&#45;&gt;hidebound.server.app -->
<g id="edge28" class="edge">
<title>hidebound.server.api&#45;&gt;hidebound.server.app</title>
<path fill="none" stroke="#b6ecf3" d="M1980.9961,-816.057C1991.1559,-819.8617 2001.0548,-824.4558 2010,-830 2058.6887,-860.1768 2099.2371,-914.7262 2120.6349,-947.3298"/>
<polygon fill="#b6ecf3" stroke="#b6ecf3" points="2117.7984,-949.3899 2126.1532,-955.9052 2123.685,-945.6018 2117.7984,-949.3899"/>
</g>
<!-- hidebound.server.components -->
<g id="node16" class="node">
<title>hidebound.server.components</title>
<polygon fill="#343434" stroke="#343434" points="2010,-1275 1771,-1275 1771,-1239 2010,-1239 2010,-1275"/>
<text text-anchor="middle" x="1890.5" y="-1253.3" font-family="Courier,monospace" font-size="14.00" fill="#b6ecf3">hidebound.server.components</text>
</g>
<!-- hidebound.server.components&#45;&gt;hidebound.server.app -->
<g id="edge29" class="edge">
<title>hidebound.server.components&#45;&gt;hidebound.server.app</title>
<path fill="none" stroke="#b6ecf3" d="M1914.9424,-1238.8274C1940.2483,-1219.3767 1980.1819,-1186.8582 2010,-1154 2055.3733,-1104.0007 2098.5629,-1037.3609 2121.003,-1000.8089"/>
<polygon fill="#b6ecf3" stroke="#b6ecf3" points="2124.038,-1002.5541 2126.2497,-992.1927 2118.0593,-998.9134 2124.038,-1002.5541"/>
</g>
<!-- hidebound.server.server_tools -->
<g id="node17" class="node">
<title>hidebound.server.server_tools</title>
<polygon fill="#343434" stroke="#343434" points="1735,-908 1479,-908 1479,-872 1735,-872 1735,-908"/>
<text text-anchor="middle" x="1607" y="-886.3" font-family="Courier,monospace" font-size="14.00" fill="#b6ecf3">hidebound.server.server_tools</text>
</g>
<!-- hidebound.server.server_tools&#45;&gt;hidebound.server.api -->
<g id="edge30" class="edge">
<title>hidebound.server.server_tools&#45;&gt;hidebound.server.api</title>
<path fill="none" stroke="#b6ecf3" d="M1662.6722,-871.9335C1709.3859,-856.7742 1776.1721,-835.1011 1825.3628,-819.138"/>
<polygon fill="#b6ecf3" stroke="#b6ecf3" points="1826.5238,-822.441 1834.9551,-816.0251 1824.363,-815.7828 1826.5238,-822.441"/>
</g>
<!-- hidebound.server.server_tools&#45;&gt;hidebound.server.app -->
<g id="edge31" class="edge">
<title>hidebound.server.server_tools&#45;&gt;hidebound.server.app</title>
<path fill="none" stroke="#b6ecf3" d="M1720.6983,-908.0201C1814.367,-922.8657 1945.9635,-943.7225 2035.9757,-957.9886"/>
<polygon fill="#b6ecf3" stroke="#b6ecf3" points="2035.4946,-961.456 2045.9192,-959.5646 2036.5904,-954.5422 2035.4946,-961.456"/>
</g>
<!-- dash -->
<g id="node18" class="node">
<title>dash</title>
<polygon fill="#343434" stroke="#343434" points="1634,-1498 1580,-1498 1580,-1462 1634,-1462 1634,-1498"/>
<text text-anchor="middle" x="1607" y="-1476.3" font-family="Courier,monospace" font-size="14.00" fill="#de958e">dash</text>
</g>
<!-- dash&#45;&gt;hidebound.server.app -->
<g id="edge32" class="edge">
<title>dash&#45;&gt;hidebound.server.app</title>
<path fill="none" stroke="#de958e" d="M1634.2396,-1479.9135C1706.3657,-1478.1581 1904.0151,-1463.189 2010,-1355 2109.3446,-1253.5894 2130.9996,-1072.4825 2135.7023,-1002.5999"/>
<polygon fill="#de958e" stroke="#de958e" points="2139.2109,-1002.5614 2136.3208,-992.3684 2132.2237,-1002.139 2139.2109,-1002.5614"/>
</g>
<!-- dash&#45;&gt;hidebound.server.components -->
<g id="edge33" class="edge">
<title>dash&#45;&gt;hidebound.server.components</title>
<path fill="none" stroke="#de958e" d="M1634.2068,-1479.5373C1661.5586,-1477.9207 1704.0007,-1472.1769 1735,-1453 1803.3405,-1410.7229 1854.1174,-1327.1859 1877.024,-1284.1052"/>
<polygon fill="#de958e" stroke="#de958e" points="1880.2201,-1285.5457 1881.7386,-1275.0602 1874.0127,-1282.3101 1880.2201,-1285.5457"/>
</g>
<!-- dash_core_components -->
<g id="node19" class="node">
<title>dash_core_components</title>
<polygon fill="#343434" stroke="#343434" points="1698,-1444 1516,-1444 1516,-1408 1698,-1408 1698,-1444"/>
<text text-anchor="middle" x="1607" y="-1422.3" font-family="Courier,monospace" font-size="14.00" fill="#de958e">dash_core_components</text>
</g>
<!-- dash_core_components&#45;&gt;hidebound.server.app -->
<g id="edge34" class="edge">
<title>dash_core_components&#45;&gt;hidebound.server.app</title>
<path fill="none" stroke="#de958e" d="M1698.2588,-1416.1153C1788.4538,-1401.7597 1924.9358,-1367.0396 2010,-1284 2092.2771,-1203.6811 2123.2162,-1062.5409 2133.0412,-1002.417"/>
<polygon fill="#de958e" stroke="#de958e" points="2136.557,-1002.5858 2134.6377,-992.1663 2129.6404,-1001.5085 2136.557,-1002.5858"/>
</g>
<!-- dash_core_components&#45;&gt;hidebound.server.components -->
<g id="edge35" class="edge">
<title>dash_core_components&#45;&gt;hidebound.server.components</title>
<path fill="none" stroke="#de958e" d="M1698.1294,-1410.9495C1711.0727,-1406.6464 1723.7793,-1401.1136 1735,-1394 1756.3399,-1380.4712 1752.9169,-1367.6472 1771,-1350 1797.4232,-1324.2137 1830.8198,-1298.7307 1855.5862,-1280.9789"/>
<polygon fill="#de958e" stroke="#de958e" points="1857.8322,-1283.6768 1863.9609,-1275.0345 1853.7804,-1277.9686 1857.8322,-1283.6768"/>
</g>
<!-- dash_cytoscape -->
<g id="node20" class="node">
<title>dash_cytoscape</title>
<polygon fill="#343434" stroke="#343434" points="1673,-1298 1541,-1298 1541,-1262 1673,-1262 1673,-1298"/>
<text text-anchor="middle" x="1607" y="-1276.3" font-family="Courier,monospace" font-size="14.00" fill="#de958e">dash_cytoscape</text>
</g>
<!-- dash_cytoscape&#45;&gt;hidebound.server.components -->
<g id="edge36" class="edge">
<title>dash_cytoscape&#45;&gt;hidebound.server.components</title>
<path fill="none" stroke="#de958e" d="M1673.1104,-1274.6365C1699.2763,-1272.5137 1730.3053,-1269.9964 1760.6066,-1267.5381"/>
<polygon fill="#de958e" stroke="#de958e" points="1761.1625,-1271.0046 1770.8467,-1266.7073 1760.5964,-1264.0275 1761.1625,-1271.0046"/>
</g>
<!-- hidebound.server -->
<g id="node21" class="node">
<title>hidebound.server</title>
<polygon fill="#343434" stroke="#343434" points="1389.5,-1206 1240.5,-1206 1240.5,-1170 1389.5,-1170 1389.5,-1206"/>
<text text-anchor="middle" x="1315" y="-1184.3" font-family="Courier,monospace" font-size="14.00" fill="#a0d17b">hidebound.server</text>
</g>
<!-- hidebound.server&#45;&gt;hidebound.server.api -->
<g id="edge37" class="edge">
<title>hidebound.server&#45;&gt;hidebound.server.api</title>
<path fill="none" stroke="#a0d17b" d="M1389.7815,-1185.828C1409.1133,-1181.8843 1428.5311,-1174.4559 1443,-1161 1485.3356,-1121.6285 1438.8754,-1077.6225 1479,-1036 1562.1079,-949.7895 1632.8386,-1014.4677 1735,-952 1791.6284,-917.374 1843.3824,-858.2919 1870.5442,-824.256"/>
<polygon fill="#a0d17b" stroke="#a0d17b" points="1873.4722,-826.1949 1876.9078,-816.1726 1867.9721,-821.8649 1873.4722,-826.1949"/>
</g>
<!-- hidebound.server&#45;&gt;hidebound.server.app -->
<g id="edge38" class="edge">
<title>hidebound.server&#45;&gt;hidebound.server.app</title>
<path fill="none" stroke="#a0d17b" d="M1389.6541,-1184.7962C1408.762,-1180.8148 1428.0973,-1173.6252 1443,-1161 1476.5019,-1132.6182 1444.6004,-1096.2867 1479,-1069 1500.6047,-1051.8626 1856.7513,-1007.3578 2035.8403,-985.9053"/>
<polygon fill="#a0d17b" stroke="#a0d17b" points="2036.2907,-989.3765 2045.8043,-984.7137 2035.4594,-982.426 2036.2907,-989.3765"/>
</g>
<!-- hidebound.server&#45;&gt;hidebound.server.components -->
<g id="edge39" class="edge">
<title>hidebound.server&#45;&gt;hidebound.server.components</title>
<path fill="none" stroke="#a0d17b" d="M1325.1826,-1206.2001C1347.3585,-1243.7097 1404.1,-1328.7974 1479,-1361 1583.5263,-1405.9403 1626.1287,-1394.0517 1735,-1361 1785.5639,-1345.6496 1834.667,-1307.8021 1863.7417,-1282.2545"/>
<polygon fill="#a0d17b" stroke="#a0d17b" points="1866.2786,-1284.6811 1871.3957,-1275.4039 1861.6101,-1279.4652 1866.2786,-1284.6811"/>
</g>
<!-- hidebound.server&#45;&gt;hidebound.server.server_tools -->
<g id="edge40" class="edge">
<title>hidebound.server&#45;&gt;hidebound.server.server_tools</title>
<path fill="none" stroke="#a0d17b" d="M1389.6785,-1186.5498C1409.2388,-1182.6508 1428.801,-1175.065 1443,-1161 1495.7085,-1108.7888 1440.6237,-1061.4938 1479,-998 1500.5352,-962.3698 1538.0243,-932.8101 1566.8832,-913.6768"/>
<polygon fill="#a0d17b" stroke="#a0d17b" points="1569.0408,-916.4496 1575.5351,-908.0785 1565.238,-910.5726 1569.0408,-916.4496"/>
</g>
<!-- dash_html_components -->
<g id="node22" class="node">
<title>dash_html_components</title>
<polygon fill="#343434" stroke="#343434" points="1698,-1168 1516,-1168 1516,-1132 1698,-1132 1698,-1168"/>
<text text-anchor="middle" x="1607" y="-1146.3" font-family="Courier,monospace" font-size="14.00" fill="#de958e">dash_html_components</text>
</g>
<!-- dash_html_components&#45;&gt;hidebound.server.app -->
<g id="edge41" class="edge">
<title>dash_html_components&#45;&gt;hidebound.server.app</title>
<path fill="none" stroke="#de958e" d="M1698.0628,-1153.9796C1782.9114,-1154.0962 1910.8776,-1144.8915 2010,-1097 2056.0327,-1074.7591 2095.9257,-1029.3923 2118.1823,-1000.4066"/>
<polygon fill="#de958e" stroke="#de958e" points="2121.0352,-1002.4362 2124.2467,-992.3398 2115.44,-998.2298 2121.0352,-1002.4362"/>
</g>
<!-- dash_html_components&#45;&gt;hidebound.server.components -->
<g id="edge42" class="edge">
<title>dash_html_components&#45;&gt;hidebound.server.components</title>
<path fill="none" stroke="#de958e" d="M1689.6886,-1168.0328C1704.9236,-1172.0976 1720.5686,-1176.778 1735,-1182 1774.8454,-1196.4179 1818.1056,-1217.7845 1848.8571,-1234.028"/>
<polygon fill="#de958e" stroke="#de958e" points="1847.5104,-1237.2763 1857.9814,-1238.8912 1850.8029,-1231.0989 1847.5104,-1237.2763"/>
</g>
<!-- dash_table -->
<g id="node23" class="node">
<title>dash_table</title>
<polygon fill="#343434" stroke="#343434" points="1656.5,-1114 1557.5,-1114 1557.5,-1078 1656.5,-1078 1656.5,-1114"/>
<text text-anchor="middle" x="1607" y="-1092.3" font-family="Courier,monospace" font-size="14.00" fill="#de958e">dash_table</text>
</g>
<!-- dash_table&#45;&gt;hidebound.server.app -->
<g id="edge43" class="edge">
<title>dash_table&#45;&gt;hidebound.server.app</title>
<path fill="none" stroke="#de958e" d="M1656.5269,-1100.3182C1734.3615,-1105.3096 1888.9243,-1107.905 2010,-1064 2048.8021,-1049.9294 2086.5102,-1020.6125 2110.618,-999.2503"/>
<polygon fill="#de958e" stroke="#de958e" points="2113.1851,-1001.6477 2118.2542,-992.3442 2108.4898,-996.4559 2113.1851,-1001.6477"/>
</g>
<!-- dash_table&#45;&gt;hidebound.server.components -->
<g id="edge44" class="edge">
<title>dash_table&#45;&gt;hidebound.server.components</title>
<path fill="none" stroke="#de958e" d="M1656.6194,-1100.5749C1681.1698,-1104.2788 1710.6761,-1110.9615 1735,-1123 1789.2412,-1149.8453 1839.9483,-1200.0426 1867.9404,-1230.7958"/>
<polygon fill="#de958e" stroke="#de958e" points="1865.6054,-1233.4345 1874.8868,-1238.544 1870.8174,-1228.7618 1865.6054,-1233.4345"/>
</g>
<!-- flask -->
<g id="node24" class="node">
<title>flask</title>
<polygon fill="#343434" stroke="#343434" points="1344,-1152 1286,-1152 1286,-1116 1344,-1116 1344,-1152"/>
<text text-anchor="middle" x="1315" y="-1130.3" font-family="Courier,monospace" font-size="14.00" fill="#de958e">flask</text>
</g>
<!-- flask&#45;&gt;hidebound.server.api -->
<g id="edge45" class="edge">
<title>flask&#45;&gt;hidebound.server.api</title>
<path fill="none" stroke="#de958e" d="M1344.2156,-1136.1169C1373.1485,-1136.5307 1416.8122,-1132.3558 1443,-1107 1491.3243,-1060.211 1429.7159,-1005.7769 1479,-960 1563.5324,-881.4832 1629.1815,-962.9681 1735,-917 1786.8059,-894.4952 1836.8677,-851.0752 1865.6265,-823.3692"/>
<polygon fill="#de958e" stroke="#de958e" points="1868.1082,-825.8377 1872.812,-816.3442 1863.2147,-820.8323 1868.1082,-825.8377"/>
</g>
<!-- flask&#45;&gt;hidebound.server.app -->
<g id="edge46" class="edge">
<title>flask&#45;&gt;hidebound.server.app</title>
<path fill="none" stroke="#de958e" d="M1344.1324,-1134.7725C1372.183,-1134.0468 1414.4461,-1128.9198 1443,-1107 1471.0644,-1085.456 1449.7544,-1055.9111 1479,-1036 1567.1108,-976.0122 1873.9171,-970.4409 2035.5652,-971.8966"/>
<polygon fill="#de958e" stroke="#de958e" points="2035.964,-975.4007 2045.9989,-972.0021 2036.0348,-968.4011 2035.964,-975.4007"/>
</g>
<!-- flask&#45;&gt;hidebound.server.components -->
<g id="edge47" class="edge">
<title>flask&#45;&gt;hidebound.server.components</title>
<path fill="none" stroke="#de958e" d="M1344.1766,-1138.3557C1370.4202,-1142.6952 1409.8327,-1150.2637 1443,-1161 1459.6581,-1166.3922 1462.2337,-1171.9543 1479,-1177 1589.4773,-1210.2472 1621.9283,-1197.0784 1735,-1220 1759.2622,-1224.9184 1785.4978,-1230.9019 1809.3853,-1236.611"/>
<polygon fill="#de958e" stroke="#de958e" points="1808.5724,-1240.0153 1819.1137,-1238.9517 1810.2099,-1233.2095 1808.5724,-1240.0153"/>
</g>
<!-- flask&#45;&gt;hidebound.server.server_tools -->
<g id="edge48" class="edge">
<title>flask&#45;&gt;hidebound.server.server_tools</title>
<path fill="none" stroke="#de958e" d="M1344.2008,-1136.3702C1373.3347,-1137.0187 1417.3483,-1133.0575 1443,-1107 1501.7638,-1047.3065 1421.3533,-982.7729 1479,-922 1481.8449,-919.0008 1484.9248,-916.2655 1488.1925,-913.7716"/>
<polygon fill="#de958e" stroke="#de958e" points="1490.3365,-916.5474 1496.6747,-908.0575 1486.4255,-910.7419 1490.3365,-916.5474"/>
</g>
<!-- jinja2 -->
<g id="node25" class="node">
<title>jinja2</title>
<polygon fill="#343434" stroke="#343434" points="1348,-1098 1282,-1098 1282,-1062 1348,-1062 1348,-1098"/>
<text text-anchor="middle" x="1315" y="-1076.3" font-family="Courier,monospace" font-size="14.00" fill="#de958e">jinja2</text>
</g>
<!-- jinja2&#45;&gt;hidebound.server.server_tools -->
<g id="edge49" class="edge">
<title>jinja2&#45;&gt;hidebound.server.server_tools</title>
<path fill="none" stroke="#de958e" d="M1348.2546,-1080.4607C1377.0084,-1079.0366 1417.809,-1072.3653 1443,-1048 1484.8629,-1007.5093 1437.1371,-962.4907 1479,-922 1482.2839,-918.8237 1485.8331,-915.9481 1489.5863,-913.3456"/>
<polygon fill="#de958e" stroke="#de958e" points="1491.4433,-916.3125 1498.1049,-908.0739 1487.7597,-910.3601 1491.4433,-916.3125"/>
</g>
<!-- dash.dependencies -->
<g id="node26" class="node">
<title>dash.dependencies</title>
<polygon fill="#343434" stroke="#343434" points="1969,-762 1812,-762 1812,-726 1969,-726 1969,-762"/>
<text text-anchor="middle" x="1890.5" y="-740.3" font-family="Courier,monospace" font-size="14.00" fill="#de958e">dash.dependencies</text>
</g>
<!-- dash.dependencies&#45;&gt;hidebound.server.app -->
<g id="edge50" class="edge">
<title>dash.dependencies&#45;&gt;hidebound.server.app</title>
<path fill="none" stroke="#de958e" d="M1969.1625,-752.4929C1983.6252,-756.5485 1997.9431,-762.4473 2010,-771 2072.7563,-815.517 2111.1525,-901.7724 2127.6095,-946.1451"/>
<polygon fill="#de958e" stroke="#de958e" points="2124.3741,-947.4911 2131.057,-955.7123 2130.9596,-945.1179 2124.3741,-947.4911"/>
</g>
<!-- rolling_pin.blob_etl -->
<g id="node27" class="node">
<title>rolling_pin.blob_etl</title>
<polygon fill="#343434" stroke="#343434" points="1698,-1352 1516,-1352 1516,-1316 1698,-1316 1698,-1352"/>
<text text-anchor="middle" x="1607" y="-1330.3" font-family="Courier,monospace" font-size="14.00" fill="#de958e">rolling_pin.blob_etl</text>
</g>
<!-- rolling_pin.blob_etl&#45;&gt;hidebound.server.components -->
<g id="edge51" class="edge">
<title>rolling_pin.blob_etl&#45;&gt;hidebound.server.components</title>
<path fill="none" stroke="#de958e" d="M1698.1762,-1315.9752C1710.5985,-1313.1675 1723.1465,-1310.1469 1735,-1307 1766.3826,-1298.6685 1800.7997,-1287.7874 1829.2589,-1278.3042"/>
<polygon fill="#de958e" stroke="#de958e" points="1830.695,-1281.5142 1839.062,-1275.0146 1828.4681,-1274.8778 1830.695,-1281.5142"/>
</g>
<!-- hidebound.exporters -->
<g id="node28" class="node">
<title>hidebound.exporters</title>
<polygon fill="#343434" stroke="#343434" points="476.5,-962 303.5,-962 303.5,-926 476.5,-926 476.5,-962"/>
<text text-anchor="middle" x="390" y="-940.3" font-family="Courier,monospace" font-size="14.00" fill="#a0d17b">hidebound.exporters</text>
</g>
<!-- hidebound.exporters&#45;&gt;hidebound.exporters.exporter_base -->
<g id="edge52" class="edge">
<title>hidebound.exporters&#45;&gt;hidebound.exporters.exporter_base</title>
<path fill="none" stroke="#a0d17b" d="M476.7918,-944C487.7098,-944 499.125,-944 510.7034,-944"/>
<polygon fill="#a0d17b" stroke="#a0d17b" points="510.912,-947.5001 520.912,-944 510.912,-940.5001 510.912,-947.5001"/>
</g>
<!-- hidebound.exporters&#45;&gt;hidebound.exporters.girder_exporter -->
<g id="edge53" class="edge">
<title>hidebound.exporters&#45;&gt;hidebound.exporters.girder_exporter</title>
<path fill="none" stroke="#a0d17b" d="M410.9159,-962.1368C435.3862,-982.0425 478.046,-1012.7928 521,-1025 644.552,-1060.1124 687.7075,-1064.275 810,-1025 877.058,-1003.4639 940.5081,-948.3012 973.9557,-915.5393"/>
<polygon fill="#a0d17b" stroke="#a0d17b" points="976.7902,-917.6562 981.408,-908.1207 971.8517,-912.6953 976.7902,-917.6562"/>
</g>
<!-- hidebound.exporters&#45;&gt;hidebound.exporters.s3_exporter -->
<g id="edge54" class="edge">
<title>hidebound.exporters&#45;&gt;hidebound.exporters.s3_exporter</title>
<path fill="none" stroke="#a0d17b" d="M412.5905,-925.8378C437.5465,-906.8208 479.6908,-877.7177 521,-863 643.036,-819.5208 681.6551,-842.6291 810,-825 827.4789,-822.5991 845.8621,-820.0259 864.013,-817.4565"/>
<polygon fill="#a0d17b" stroke="#a0d17b" points="864.6564,-820.9004 874.0658,-816.0306 863.6733,-813.9698 864.6564,-820.9004"/>
</g>
<!-- dash.exceptions -->
<g id="node29" class="node">
<title>dash.exceptions</title>
<polygon fill="#343434" stroke="#343434" points="1960.5,-708 1820.5,-708 1820.5,-672 1960.5,-672 1960.5,-708"/>
<text text-anchor="middle" x="1890.5" y="-686.3" font-family="Courier,monospace" font-size="14.00" fill="#de958e">dash.exceptions</text>
</g>
<!-- dash.exceptions&#45;&gt;hidebound.server.app -->
<g id="edge55" class="edge">
<title>dash.exceptions&#45;&gt;hidebound.server.app</title>
<path fill="none" stroke="#de958e" d="M1960.5241,-695.1467C1978.0609,-699.1609 1995.8794,-705.8812 2010,-717 2085.515,-776.4616 2119.3709,-892.4698 2131.4461,-945.8674"/>
<polygon fill="#de958e" stroke="#de958e" points="2128.0338,-946.6475 2133.5766,-955.6768 2134.8744,-945.1617 2128.0338,-946.6475"/>
</g>
<!-- flasgger -->
<g id="node30" class="node">
<title>flasgger</title>
<polygon fill="#343434" stroke="#343434" points="1648.5,-36 1565.5,-36 1565.5,0 1648.5,0 1648.5,-36"/>
<text text-anchor="middle" x="1607" y="-14.3" font-family="Courier,monospace" font-size="14.00" fill="#de958e">flasgger</text>
</g>
<!-- flasgger&#45;&gt;hidebound.server.api -->
<g id="edge56" class="edge">
<title>flasgger&#45;&gt;hidebound.server.api</title>
<path fill="none" stroke="#de958e" d="M1648.563,-16.4494C1677.4865,-17.8227 1714.4221,-24.958 1735,-50 1836.8486,-173.9436 1667.747,-648.2239 1771,-771 1776.3422,-777.3523 1782.8325,-782.3954 1789.9967,-786.3808"/>
<polygon fill="#de958e" stroke="#de958e" points="1788.8653,-789.7196 1799.3962,-790.8822 1791.8888,-783.4062 1788.8653,-789.7196"/>
</g>
<!-- flasgger&#45;&gt;hidebound.server.app -->
<g id="edge57" class="edge">
<title>flasgger&#45;&gt;hidebound.server.app</title>
<path fill="none" stroke="#de958e" d="M1648.6634,-19.2563C1675.972,-22.1066 1710.9384,-29.8547 1735,-50 1963.9537,-241.6884 1892.4278,-388.5168 2010,-663 2054.533,-766.9664 2104.4758,-891.8874 2126.0763,-946.3527"/>
<polygon fill="#de958e" stroke="#de958e" points="2122.8349,-947.6738 2129.772,-955.6817 2129.3429,-945.0955 2122.8349,-947.6738"/>
</g>
<!-- pandasql -->
<g id="node31" class="node">
<title>pandasql</title>
<polygon fill="#343434" stroke="#343434" points="1356.5,-170 1273.5,-170 1273.5,-134 1356.5,-134 1356.5,-170"/>
<text text-anchor="middle" x="1315" y="-148.3" font-family="Courier,monospace" font-size="14.00" fill="#de958e">pandasql</text>
</g>
<!-- pandasql&#45;&gt;hidebound.core.database -->
<g id="edge58" class="edge">
<title>pandasql&#45;&gt;hidebound.core.database</title>
<path fill="none" stroke="#de958e" d="M1356.6395,-153.285C1383.9376,-156.1478 1418.9014,-163.899 1443,-184 1550.6275,-273.7736 1590.7109,-449.0021 1602.6764,-517.5472"/>
<polygon fill="#de958e" stroke="#de958e" points="1599.2568,-518.3188 1604.3613,-527.6028 1606.1605,-517.1619 1599.2568,-518.3188"/>
</g>
<!-- requests -->
<g id="node32" class="node">
<title>requests</title>
<polygon fill="#343434" stroke="#343434" points="1356.5,-664 1273.5,-664 1273.5,-628 1356.5,-628 1356.5,-664"/>
<text text-anchor="middle" x="1315" y="-642.3" font-family="Courier,monospace" font-size="14.00" fill="#de958e">requests</text>
</g>
<!-- requests&#45;&gt;hidebound.core.database -->
<g id="edge59" class="edge">
<title>requests&#45;&gt;hidebound.core.database</title>
<path fill="none" stroke="#de958e" d="M1356.5065,-639.5338C1381.8427,-635.0258 1414.6969,-628.1706 1443,-619 1484.9606,-605.4042 1530.6508,-584.5294 1563.1218,-568.5794"/>
<polygon fill="#de958e" stroke="#de958e" points="1564.9302,-571.5894 1572.3349,-564.0117 1561.8209,-565.3178 1564.9302,-571.5894"/>
</g>
<!-- boto3 -->
<g id="node33" class="node">
<title>boto3</title>
<polygon fill="#343434" stroke="#343434" points="694.5,-816 636.5,-816 636.5,-780 694.5,-780 694.5,-816"/>
<text text-anchor="middle" x="665.5" y="-794.3" font-family="Courier,monospace" font-size="14.00" fill="#de958e">boto3</text>
</g>
<!-- boto3&#45;&gt;hidebound.exporters.s3_exporter -->
<g id="edge60" class="edge">
<title>boto3&#45;&gt;hidebound.exporters.s3_exporter</title>
<path fill="none" stroke="#de958e" d="M694.7597,-798C730.3163,-798 792.9135,-798 852.0786,-798"/>
<polygon fill="#de958e" stroke="#de958e" points="852.3066,-801.5001 862.3065,-798 852.3065,-794.5001 852.3066,-801.5001"/>
</g>
<!-- jsoncomment -->
<g id="node34" class="node">
<title>jsoncomment</title>
<polygon fill="#343434" stroke="#343434" points="443.5,-1168 336.5,-1168 336.5,-1132 443.5,-1132 443.5,-1168"/>
<text text-anchor="middle" x="390" y="-1146.3" font-family="Courier,monospace" font-size="14.00" fill="#de958e">jsoncomment</text>
</g>
<!-- jsoncomment&#45;&gt;hidebound.core.database -->
<g id="edge61" class="edge">
<title>jsoncomment&#45;&gt;hidebound.core.database</title>
<path fill="none" stroke="#de958e" d="M443.7028,-1145.8586C569.6672,-1135.0975 892.9754,-1101.3747 1151,-1022 1185.1197,-1011.5039 1417.5455,-913.0278 1443,-888 1537.2932,-795.2876 1584.5694,-637.5764 1600.569,-573.8959"/>
<polygon fill="#de958e" stroke="#de958e" points="1603.9735,-574.7079 1602.953,-564.1623 1597.1744,-573.0426 1603.9735,-574.7079"/>
</g>
<!-- jsoncomment&#45;&gt;hidebound.exporters.exporter_base -->
<g id="edge62" class="edge">
<title>jsoncomment&#45;&gt;hidebound.exporters.exporter_base</title>
<path fill="none" stroke="#de958e" d="M397.6888,-1131.7377C414.2689,-1094.7762 457.1253,-1011.2127 521,-971 523.4803,-969.4385 526.0289,-967.9628 528.6347,-966.5682"/>
<polygon fill="#de958e" stroke="#de958e" points="530.2543,-969.6723 537.6982,-962.1331 527.1776,-963.3847 530.2543,-969.6723"/>
</g>
<!-- jsoncomment&#45;&gt;hidebound.server.server_tools -->
<g id="edge63" class="edge">
<title>jsoncomment&#45;&gt;hidebound.server.server_tools</title>
<path fill="none" stroke="#de958e" d="M433.7431,-1168.074C559.6955,-1216.9341 928.3865,-1337.2319 1151,-1172 1195.3697,-1139.0672 1145.521,-1089.5065 1187,-1053 1273.606,-976.7765 1354.0875,-1083.5199 1443,-1010 1476.0851,-982.6426 1448.0293,-947.5376 1478.1318,-915.013"/>
<polygon fill="#de958e" stroke="#de958e" points="1480.5847,-917.511 1485.4811,-908.1154 1475.7942,-912.4068 1480.5847,-917.511"/>
</g>
<!-- lunchbox.tools -->
<g id="node35" class="node">
<title>lunchbox.tools</title>
<polygon fill="#343434" stroke="#343434" points="1064.5,-448 932.5,-448 932.5,-412 1064.5,-412 1064.5,-448"/>
<text text-anchor="middle" x="998.5" y="-426.3" font-family="Courier,monospace" font-size="14.00" fill="#de958e">lunchbox.tools</text>
</g>
<!-- lunchbox.tools&#45;&gt;hidebound.core.database_tools -->
<g id="edge64" class="edge">
<title>lunchbox.tools&#45;&gt;hidebound.core.database_tools</title>
<path fill="none" stroke="#de958e" d="M1045.2007,-411.9985C1102.0015,-390.1037 1197.8129,-353.1717 1258.6546,-329.7192"/>
<polygon fill="#de958e" stroke="#de958e" points="1260.0358,-332.9379 1268.1077,-326.0754 1257.5181,-326.4064 1260.0358,-332.9379"/>
</g>
<!-- lunchbox.tools&#45;&gt;hidebound.server.server_tools -->
<g id="edge65" class="edge">
<title>lunchbox.tools&#45;&gt;hidebound.server.server_tools</title>
<path fill="none" stroke="#de958e" d="M1064.5783,-443.2297C1095.182,-452.6714 1129.4567,-468.5611 1151,-495 1201.9848,-557.5709 1136.6211,-609.9402 1187,-673 1264.8536,-770.4502 1332.9052,-729.3752 1443,-788 1488.7181,-812.3446 1538.9772,-844.4493 1571.6501,-866.0844"/>
<polygon fill="#de958e" stroke="#de958e" points="1570.1165,-869.268 1580.3807,-871.8939 1573.9943,-863.4402 1570.1165,-869.268"/>
</g>
<!-- girder_client -->
<g id="node36" class="node">
<title>girder_client</title>
<polygon fill="#343434" stroke="#343434" points="727.5,-1016 603.5,-1016 603.5,-980 727.5,-980 727.5,-1016"/>
<text text-anchor="middle" x="665.5" y="-994.3" font-family="Courier,monospace" font-size="14.00" fill="#de958e">girder_client</text>
</g>
<!-- girder_client&#45;&gt;hidebound.exporters.girder_exporter -->
<g id="edge66" class="edge">
<title>girder_client&#45;&gt;hidebound.exporters.girder_exporter</title>
<path fill="none" stroke="#de958e" d="M727.7488,-989.4643C753.5158,-985.1359 783.5082,-979.0583 810,-971 860.7356,-955.5673 916.2141,-930.6886 953.7587,-912.5708"/>
<polygon fill="#de958e" stroke="#de958e" points="955.4437,-915.6434 962.9038,-908.1202 952.3804,-909.3492 955.4437,-915.6434"/>
</g>
<!-- hidebound -->
<g id="node37" class="node">
<title>hidebound</title>
<polygon fill="#343434" stroke="#343434" points="91,-962 0,-962 0,-926 91,-926 91,-962"/>
<text text-anchor="middle" x="45.5" y="-940.3" font-family="Courier,monospace" font-size="14.00" fill="#a0d17b">hidebound</text>
</g>
<!-- hidebound&#45;&gt;hidebound.server -->
<g id="edge67" class="edge">
<title>hidebound&#45;&gt;hidebound.server</title>
<path fill="none" stroke="#a0d17b" d="M53.4578,-962.1019C85.0436,-1030.8635 208.7325,-1272 390,-1272 390,-1272 390,-1272 665.5,-1272 882.1621,-1272 937.2736,-1263.5459 1151,-1228 1180.7398,-1223.0538 1213.0603,-1215.6238 1241.0852,-1208.5048"/>
<polygon fill="#a0d17b" stroke="#a0d17b" points="1241.9945,-1211.8849 1250.8075,-1206.0043 1240.2508,-1205.1055 1241.9945,-1211.8849"/>
</g>
<!-- hidebound&#45;&gt;hidebound.exporters -->
<g id="edge68" class="edge">
<title>hidebound&#45;&gt;hidebound.exporters</title>
<path fill="none" stroke="#a0d17b" d="M91.2469,-944C142.517,-944 227.1118,-944 293.2202,-944"/>
<polygon fill="#a0d17b" stroke="#a0d17b" points="293.248,-947.5001 303.248,-944 293.2479,-940.5001 293.248,-947.5001"/>
</g>
<!-- hidebound.core -->
<g id="node42" class="node">
<title>hidebound.core</title>
<polygon fill="#343434" stroke="#343434" points="259,-513 127,-513 127,-477 259,-477 259,-513"/>
<text text-anchor="middle" x="193" y="-491.3" font-family="Courier,monospace" font-size="14.00" fill="#a0d17b">hidebound.core</text>
</g>
<!-- hidebound&#45;&gt;hidebound.core -->
<g id="edge69" class="edge">
<title>hidebound&#45;&gt;hidebound.core</title>
<path fill="none" stroke="#a0d17b" d="M83.3136,-925.7185C86.255,-923.1312 88.8944,-920.2326 91,-917 164.2943,-804.4757 86.3329,-744.9842 127,-617 138.1223,-581.9968 159.4178,-545.3989 174.8171,-521.5302"/>
<polygon fill="#a0d17b" stroke="#a0d17b" points="177.8321,-523.3152 180.3968,-513.0354 171.9814,-519.4721 177.8321,-523.3152"/>
</g>
<!-- numpy -->
<g id="node38" class="node">
<title>numpy</title>
<polygon fill="#343434" stroke="#343434" points="1027.5,-128 969.5,-128 969.5,-92 1027.5,-92 1027.5,-128"/>
<text text-anchor="middle" x="998.5" y="-106.3" font-family="Courier,monospace" font-size="14.00" fill="#de958e">numpy</text>
</g>
<!-- numpy&#45;&gt;hidebound.core.database -->
<g id="edge70" class="edge">
<title>numpy&#45;&gt;hidebound.core.database</title>
<path fill="none" stroke="#de958e" d="M1027.7843,-111.0996C1059.8447,-113.4101 1111.8916,-120.4842 1151,-142 1171.1024,-153.0595 1166.6782,-168.349 1187,-179 1289.1869,-232.558 1350.071,-153.6274 1443,-222 1545.0095,-297.0535 1587.9081,-453.8164 1601.6523,-517.8441"/>
<polygon fill="#de958e" stroke="#de958e" points="1598.2981,-518.9075 1603.7508,-527.9915 1605.1531,-517.4899 1598.2981,-518.9075"/>
</g>
<!-- numpy&#45;&gt;hidebound.core.database_tools -->
<g id="edge71" class="edge">
<title>numpy&#45;&gt;hidebound.core.database_tools</title>
<path fill="none" stroke="#de958e" d="M1027.6547,-108.98C1060.7981,-109.3079 1114.9633,-114.5302 1151,-142 1178.8227,-163.2085 1164.4317,-185.2685 1187,-212 1211.901,-241.4944 1247.4838,-267.2551 1274.8148,-284.645"/>
<polygon fill="#de958e" stroke="#de958e" points="1273.0388,-287.6623 1283.3746,-289.991 1276.7469,-281.7251 1273.0388,-287.6623"/>
</g>
<!-- numpy&#45;&gt;hidebound.server.api -->
<g id="edge72" class="edge">
<title>numpy&#45;&gt;hidebound.server.api</title>
<path fill="none" stroke="#de958e" d="M1027.7077,-102.7896C1102.1214,-86.0694 1302.8456,-51.4329 1443,-125 1635.9885,-226.2997 1652.1659,-317.3947 1735,-519 1777.9971,-623.6482 1694.2762,-687.8528 1771,-771 1776.4766,-776.9351 1782.9573,-781.7035 1790.0239,-785.5209"/>
<polygon fill="#de958e" stroke="#de958e" points="1788.718,-788.7745 1799.2567,-789.8638 1791.6976,-782.4402 1788.718,-788.7745"/>
</g>
<!-- pandas -->
<g id="node39" class="node">
<title>pandas</title>
<polygon fill="#343434" stroke="#343434" points="423,-369 357,-369 357,-333 423,-333 423,-369"/>
<text text-anchor="middle" x="390" y="-347.3" font-family="Courier,monospace" font-size="14.00" fill="#de958e">pandas</text>
</g>
<!-- pandas&#45;&gt;hidebound.core.database -->
<g id="edge73" class="edge">
<title>pandas&#45;&gt;hidebound.core.database</title>
<path fill="none" stroke="#de958e" d="M423.3595,-350.4957C530.2515,-349.4701 873.475,-350.7611 1151,-403 1299.7774,-431.0046 1468.1315,-491.7366 1552.5713,-524.3149"/>
<polygon fill="#de958e" stroke="#de958e" points="1551.3652,-527.6011 1561.9543,-527.9526 1553.8956,-521.0744 1551.3652,-527.6011"/>
</g>
<!-- pandas&#45;&gt;hidebound.core.database_tools -->
<g id="edge74" class="edge">
<title>pandas&#45;&gt;hidebound.core.database_tools</title>
<path fill="none" stroke="#de958e" d="M423.2082,-342.3841C441.5557,-337.4185 464.6817,-330.8213 485,-324 501.2746,-318.5362 504.1311,-313.1866 521,-310 642.4273,-287.0617 983.2287,-295.2725 1176.5623,-302.2526"/>
<polygon fill="#de958e" stroke="#de958e" points="1176.6753,-305.759 1186.7963,-302.6259 1176.9305,-298.7636 1176.6753,-305.759"/>
</g>
<!-- pandas&#45;&gt;hidebound.core.tools -->
<g id="edge75" class="edge">
<title>pandas&#45;&gt;hidebound.core.tools</title>
<path fill="none" stroke="#de958e" d="M423.2128,-347.2429C442.6578,-343.7308 466.8726,-336.9709 485,-324 507.8598,-307.6429 497.6679,-287.676 521,-272 533.9467,-263.3016 548.8782,-256.929 564.1254,-252.2685"/>
<polygon fill="#de958e" stroke="#de958e" points="565.4922,-255.5201 574.1729,-249.4458 563.5989,-248.781 565.4922,-255.5201"/>
</g>
<!-- pandas&#45;&gt;hidebound.core.validators -->
<g id="edge76" class="edge">
<title>pandas&#45;&gt;hidebound.core.validators</title>
<path fill="none" stroke="#de958e" d="M400.2018,-369.0954C420.8307,-405.0251 469.9034,-487.2256 521,-549 557.2988,-592.8843 605.7297,-637.8619 636.2702,-664.8671"/>
<polygon fill="#de958e" stroke="#de958e" points="634.1844,-667.6934 644.0076,-671.6626 638.8037,-662.4338 634.1844,-667.6934"/>
</g>
<!-- pandas&#45;&gt;hidebound.server.components -->
<g id="edge77" class="edge">
<title>pandas&#45;&gt;hidebound.server.components</title>
<path fill="none" stroke="#de958e" d="M402.7148,-369.046C424.146,-400.5725 466.8919,-468.4847 485,-533 501.34,-591.2161 481.3292,-1030.3673 521,-1076 719.3862,-1304.2004 887.2801,-1174.9942 1187,-1215 1294.1664,-1229.3043 1588.644,-1243.8751 1760.7388,-1251.5273"/>
<polygon fill="#de958e" stroke="#de958e" points="1760.7301,-1255.0303 1770.8752,-1251.9763 1761.04,-1248.0371 1760.7301,-1255.0303"/>
</g>
<!-- pyparsing -->
<g id="node40" class="node">
<title>pyparsing</title>
<polygon fill="#343434" stroke="#343434" points="238.5,-662 147.5,-662 147.5,-626 238.5,-626 238.5,-662"/>
<text text-anchor="middle" x="193" y="-640.3" font-family="Courier,monospace" font-size="14.00" fill="#de958e">pyparsing</text>
</g>
<!-- pyparsing&#45;&gt;hidebound.core.parser -->
<g id="edge78" class="edge">
<title>pyparsing&#45;&gt;hidebound.core.parser</title>
<path fill="none" stroke="#de958e" d="M235.2614,-625.9799C265.411,-613.1243 306.132,-595.761 338.2331,-582.0732"/>
<polygon fill="#de958e" stroke="#de958e" points="339.6431,-585.2769 347.469,-578.135 336.8975,-578.8378 339.6431,-585.2769"/>
</g>
<!-- pyparsing&#45;&gt;hidebound.core.specification_base -->
<g id="edge79" class="edge">
<title>pyparsing&#45;&gt;hidebound.core.specification_base</title>
<path fill="none" stroke="#de958e" d="M238.6151,-641.0553C353.0757,-633.6661 656.6338,-614.0696 843.6011,-601.9997"/>
<polygon fill="#de958e" stroke="#de958e" points="844.047,-605.4783 853.8007,-601.3412 843.5959,-598.4928 844.047,-605.4783"/>
</g>
<!-- pyparsing&#45;&gt;hidebound.core.validators -->
<g id="edge80" class="edge">
<title>pyparsing&#45;&gt;hidebound.core.validators</title>
<path fill="none" stroke="#de958e" d="M210.923,-662.2708C229.8807,-680.1743 261.6177,-706.2851 295,-717 375.4041,-742.8078 400.7882,-723.2635 485,-717 507.1576,-715.352 530.7196,-712.5809 553.2541,-709.4258"/>
<polygon fill="#de958e" stroke="#de958e" points="553.7808,-712.8861 563.1828,-708.0022 552.7872,-705.957 553.7808,-712.8861"/>
</g>
<!-- schematics -->
<g id="node41" class="node">
<title>schematics</title>
<polygon fill="#343434" stroke="#343434" points="715,-908 616,-908 616,-872 715,-872 715,-908"/>
<text text-anchor="middle" x="665.5" y="-886.3" font-family="Courier,monospace" font-size="14.00" fill="#de958e">schematics</text>
</g>
<!-- schematics&#45;&gt;hidebound.core.config -->
<g id="edge81" class="edge">
<title>schematics&#45;&gt;hidebound.core.config</title>
<path fill="none" stroke="#de958e" d="M715.2133,-881.928C751.4189,-876.2045 801.6734,-868.5805 846,-863 970.5812,-847.3158 1114.2726,-833.192 1209.4319,-824.3909"/>
<polygon fill="#de958e" stroke="#de958e" points="1210.0009,-827.8534 1219.6374,-823.4502 1209.3583,-820.8829 1210.0009,-827.8534"/>
</g>
<!-- schematics&#45;&gt;hidebound.core.specification_base -->
<g id="edge82" class="edge">
<title>schematics&#45;&gt;hidebound.core.specification_base</title>
<path fill="none" stroke="#de958e" d="M715.2022,-875.4214C745.0247,-864.8909 782.3975,-848.3794 810,-825 832.0102,-806.3573 828.617,-794.018 846,-771 888.8212,-714.2975 943.9058,-651.9576 974.7858,-617.855"/>
<polygon fill="#de958e" stroke="#de958e" points="977.5931,-619.97 981.7271,-610.215 972.4121,-615.2628 977.5931,-619.97"/>
</g>
<!-- schematics&#45;&gt;hidebound.exporters.girder_exporter -->
<g id="edge83" class="edge">
<title>schematics&#45;&gt;hidebound.exporters.girder_exporter</title>
<path fill="none" stroke="#de958e" d="M715.3535,-890C747.672,-890 791.7738,-890 835.5484,-890"/>
<polygon fill="#de958e" stroke="#de958e" points="835.7662,-893.5001 845.7662,-890 835.7661,-886.5001 835.7662,-893.5001"/>
</g>
<!-- schematics&#45;&gt;hidebound.exporters.s3_exporter -->
<g id="edge84" class="edge">
<title>schematics&#45;&gt;hidebound.exporters.s3_exporter</title>
<path fill="none" stroke="#de958e" d="M715.0915,-884.5478C743.8291,-880.056 780.1201,-872.0482 810,-858 828.3435,-849.3757 827.6089,-838.5224 846,-830 854.9282,-825.8627 864.3982,-822.255 874.0756,-819.1101"/>
<polygon fill="#de958e" stroke="#de958e" points="875.2802,-822.4015 883.8098,-816.1169 873.2227,-815.7106 875.2802,-822.4015"/>
</g>
<!-- hidebound.core&#45;&gt;hidebound.core.config -->
<g id="edge85" class="edge">
<title>hidebound.core&#45;&gt;hidebound.core.config</title>
<path fill="none" stroke="#a0d17b" d="M206.2323,-513.3293C221.9937,-536.2856 247.6181,-577.4252 259,-617 276.2337,-676.9217 249.5192,-1134.3491 295,-1177 372.9547,-1250.1042 913.9332,-1172.1938 1151,-1022 1223.3466,-976.1648 1277.4309,-887.0094 1301.3856,-842.1553"/>
<polygon fill="#a0d17b" stroke="#a0d17b" points="1304.6251,-843.5139 1306.1673,-833.0319 1298.4251,-840.2644 1304.6251,-843.5139"/>
</g>
<!-- hidebound.core&#45;&gt;hidebound.core.database -->
<g id="edge86" class="edge">
<title>hidebound.core&#45;&gt;hidebound.core.database</title>
<path fill="none" stroke="#a0d17b" d="M196.2257,-476.7902C207.9051,-412.6206 249.6888,-198.1188 295,-147 409.9038,-17.3687 492.2742,-26 665.5,-26 665.5,-26 665.5,-26 998.5,-26 1200.8961,-26 1289.4101,6.8117 1443,-125 1566.398,-230.9008 1597.4876,-441.3588 1604.8502,-517.5921"/>
<polygon fill="#a0d17b" stroke="#a0d17b" points="1601.3899,-518.1914 1605.7725,-527.8373 1608.3617,-517.5637 1601.3899,-518.1914"/>
</g>
<!-- hidebound.core&#45;&gt;hidebound.core.database_tools -->
<g id="edge87" class="edge">
<title>hidebound.core&#45;&gt;hidebound.core.database_tools</title>
<path fill="none" stroke="#a0d17b" d="M195.9966,-476.894C206.6156,-415.1682 244.5385,-214.7726 295,-178 371.8709,-121.9822 1061.307,-155.3411 1151,-187 1170.114,-193.7467 1170.7986,-202.8189 1187,-215 1218.5606,-238.729 1255.0366,-265.1329 1280.9566,-283.7257"/>
<polygon fill="#a0d17b" stroke="#a0d17b" points="1279.1521,-286.7384 1289.3197,-289.7165 1283.2285,-281.0478 1279.1521,-286.7384"/>
</g>
<!-- hidebound.core&#45;&gt;hidebound.core.parser -->
<g id="edge88" class="edge">
<title>hidebound.core&#45;&gt;hidebound.core.parser</title>
<path fill="none" stroke="#a0d17b" d="M247.6139,-513.0198C271.7399,-520.9802 300.2814,-530.3974 325.4524,-538.7026"/>
<polygon fill="#a0d17b" stroke="#a0d17b" points="324.6868,-542.1355 335.2799,-541.9451 326.8801,-535.488 324.6868,-542.1355"/>
</g>
<!-- hidebound.core&#45;&gt;hidebound.core.specification_base -->
<g id="edge89" class="edge">
<title>hidebound.core&#45;&gt;hidebound.core.specification_base</title>
<path fill="none" stroke="#a0d17b" d="M259.0296,-498.1517C318.9328,-502.2843 409.2052,-511.7114 485,-533 501.8568,-537.7346 504.0528,-544.6001 521,-549 580.0542,-564.332 728.0655,-576.2054 843.7823,-583.5534"/>
<polygon fill="#a0d17b" stroke="#a0d17b" points="843.615,-587.0497 853.8149,-584.1844 844.0544,-580.0635 843.615,-587.0497"/>
</g>
<!-- hidebound.core&#45;&gt;hidebound.core.specifications -->
<g id="edge90" class="edge">
<title>hidebound.core&#45;&gt;hidebound.core.specifications</title>
<path fill="none" stroke="#a0d17b" d="M259.2733,-485.3161C271.1444,-483.9348 283.4198,-482.735 295,-482 484.8621,-469.9497 968.4896,-441.3085 1151,-495 1201.7634,-509.9338 1253.1193,-544.077 1284.5074,-567.5931"/>
<polygon fill="#a0d17b" stroke="#a0d17b" points="1282.7378,-570.6448 1292.8139,-573.9192 1286.979,-565.0759 1282.7378,-570.6448"/>
</g>
<!-- hidebound.core&#45;&gt;hidebound.core.tools -->
<g id="edge91" class="edge">
<title>hidebound.core&#45;&gt;hidebound.core.tools</title>
<path fill="none" stroke="#a0d17b" d="M195.1028,-476.8281C201.2657,-432.7727 223.6114,-320.2126 295,-270 336.9523,-240.492 469.6534,-236.0622 564.2312,-236.9439"/>
<polygon fill="#a0d17b" stroke="#a0d17b" points="564.3721,-240.4456 574.4115,-237.0605 564.4523,-233.4461 564.3721,-240.4456"/>
</g>
<!-- hidebound.core&#45;&gt;hidebound.core.traits -->
<g id="edge92" class="edge">
<title>hidebound.core&#45;&gt;hidebound.core.traits</title>
<path fill="none" stroke="#a0d17b" d="M259.3079,-491.9155C372.4373,-487.343 609.9287,-480.744 810,-495 837.0475,-496.9273 866.1134,-500.3912 893.1278,-504.2093"/>
<polygon fill="#a0d17b" stroke="#a0d17b" points="892.975,-507.7234 903.3724,-505.6875 893.9748,-500.7952 892.975,-507.7234"/>
</g>
<!-- hidebound.core&#45;&gt;hidebound.core.validators -->
<g id="edge93" class="edge">
<title>hidebound.core&#45;&gt;hidebound.core.validators</title>
<path fill="none" stroke="#a0d17b" d="M208.4256,-513.299C226.9338,-534.1127 259.8895,-567.7037 295,-587 372.4122,-629.5448 468.7729,-655.6255 543.8175,-670.896"/>
<polygon fill="#a0d17b" stroke="#a0d17b" points="543.3012,-674.3619 553.793,-672.888 544.672,-667.4975 543.3012,-674.3619"/>
</g>
<!-- schematics.types -->
<g id="node43" class="node">
<title>schematics.types</title>
<polygon fill="#343434" stroke="#343434" points="740,-762 591,-762 591,-726 740,-726 740,-762"/>
<text text-anchor="middle" x="665.5" y="-740.3" font-family="Courier,monospace" font-size="14.00" fill="#de958e">schematics.types</text>
</g>
<!-- schematics.types&#45;&gt;hidebound.core.config -->
<g id="edge94" class="edge">
<title>schematics.types&#45;&gt;hidebound.core.config</title>
<path fill="none" stroke="#de958e" d="M740.0356,-743.3895C835.7735,-743.6908 1006.7945,-747.9001 1151,-771 1183.8205,-776.2574 1219.5444,-785.4193 1249.2472,-794.0263"/>
<polygon fill="#de958e" stroke="#de958e" points="1248.4953,-797.4533 1259.0766,-796.9175 1250.4707,-790.7378 1248.4953,-797.4533"/>
</g>
<!-- schematics.types&#45;&gt;hidebound.core.specification_base -->
<g id="edge95" class="edge">
<title>schematics.types&#45;&gt;hidebound.core.specification_base</title>
<path fill="none" stroke="#de958e" d="M740.0179,-741.5257C763.9327,-737.8588 789.5081,-730.6605 810,-717 834.309,-700.7949 823.8591,-681.0608 846,-662 870.3974,-640.9967 902.1483,-625.0826 930.358,-613.7778"/>
<polygon fill="#de958e" stroke="#de958e" points="931.7194,-617.0038 939.7732,-610.12 929.1845,-610.4789 931.7194,-617.0038"/>
</g>
<!-- schematics.types&#45;&gt;hidebound.core.specifications -->
<g id="edge96" class="edge">
<title>schematics.types&#45;&gt;hidebound.core.specifications</title>
<path fill="none" stroke="#de958e" d="M740.1114,-743.3852C839.2943,-739.7157 1017.5588,-723.0145 1151,-654 1170.8213,-643.7486 1167.3062,-629.4944 1187,-619 1190.3541,-617.2127 1193.8166,-615.5437 1197.3591,-613.9851"/>
<polygon fill="#de958e" stroke="#de958e" points="1198.9532,-617.1155 1206.9034,-610.1122 1196.3211,-610.6292 1198.9532,-617.1155"/>
</g>
<!-- schematics.types&#45;&gt;hidebound.exporters.girder_exporter -->
<g id="edge97" class="edge">
<title>schematics.types&#45;&gt;hidebound.exporters.girder_exporter</title>
<path fill="none" stroke="#de958e" d="M740.3228,-746.6325C764.1261,-750.3237 789.5571,-757.4964 810,-771 834.0677,-786.898 823.8063,-806.5761 846,-825 868.7793,-843.9101 897.8752,-858.1182 924.5333,-868.3498"/>
<polygon fill="#de958e" stroke="#de958e" points="923.635,-871.7494 934.2282,-871.9407 926.0664,-865.1852 923.635,-871.7494"/>
</g>
<!-- schematics.types&#45;&gt;hidebound.exporters.s3_exporter -->
<g id="edge98" class="edge">
<title>schematics.types&#45;&gt;hidebound.exporters.s3_exporter</title>
<path fill="none" stroke="#de958e" d="M740.2317,-756.1187C780.6062,-762.6659 831.4504,-770.9109 877.3254,-778.3501"/>
<polygon fill="#de958e" stroke="#de958e" points="876.906,-781.8277 887.3374,-779.9736 878.0266,-774.918 876.906,-781.8277"/>
</g>
<!-- wrapt -->
<g id="node44" class="node">
<title>wrapt</title>
<polygon fill="#343434" stroke="#343434" points="419,-708 361,-708 361,-672 419,-672 419,-708"/>
<text text-anchor="middle" x="390" y="-686.3" font-family="Courier,monospace" font-size="14.00" fill="#de958e">wrapt</text>
</g>
<!-- wrapt&#45;&gt;hidebound.core.validators -->
<g id="edge99" class="edge">
<title>wrapt&#45;&gt;hidebound.core.validators</title>
<path fill="none" stroke="#de958e" d="M419.2225,-690C449.1543,-690 497.7039,-690 543.8181,-690"/>
<polygon fill="#de958e" stroke="#de958e" points="543.9214,-693.5001 553.9214,-690 543.9214,-686.5001 543.9214,-693.5001"/>
</g>
<!-- schematics.exceptions -->
<g id="node45" class="node">
<title>schematics.exceptions</title>
<polygon fill="#343434" stroke="#343434" points="485,-315 295,-315 295,-279 485,-279 485,-315"/>
<text text-anchor="middle" x="390" y="-293.3" font-family="Courier,monospace" font-size="14.00" fill="#de958e">schematics.exceptions</text>
</g>
<!-- schematics.exceptions&#45;&gt;hidebound.core.config -->
<g id="edge100" class="edge">
<title>schematics.exceptions&#45;&gt;hidebound.core.config</title>
<path fill="none" stroke="#de958e" d="M475.9355,-315.0876C479.2744,-317.6914 482.3294,-320.647 485,-324 533.5904,-385.0054 464.4551,-971.2845 521,-1025 747.9206,-1240.5661 1169.4588,-932.0627 1285.0294,-839.727"/>
<polygon fill="#de958e" stroke="#de958e" points="1287.5275,-842.2093 1293.1232,-833.2126 1283.1384,-836.7561 1287.5275,-842.2093"/>
</g>
<!-- schematics.exceptions&#45;&gt;hidebound.core.database_tools -->
<g id="edge101" class="edge">
<title>schematics.exceptions&#45;&gt;hidebound.core.database_tools</title>
<path fill="none" stroke="#de958e" d="M416.4483,-278.8997C451.2957,-255.2307 509.5275,-216.3623 521,-213 789.7215,-134.245 1127.896,-238.5668 1259.2609,-286.3631"/>
<polygon fill="#de958e" stroke="#de958e" points="1258.1366,-289.6787 1268.7302,-289.8414 1260.5503,-283.108 1258.1366,-289.6787"/>
</g>
<!-- schematics.exceptions&#45;&gt;hidebound.core.specification_base -->
<g id="edge102" class="edge">
<title>schematics.exceptions&#45;&gt;hidebound.core.specification_base</title>
<path fill="none" stroke="#de958e" d="M459.8272,-315.0439C468.3966,-317.7848 476.9609,-320.7832 485,-324 636.5368,-384.6365 688.7636,-385.7209 810,-495 831.4253,-514.3121 822.6728,-532.0341 846,-549 858.1356,-557.8262 872.0239,-564.8434 886.3668,-570.4217"/>
<polygon fill="#de958e" stroke="#de958e" points="885.2501,-573.74 895.8439,-573.8843 887.6523,-567.165 885.2501,-573.74"/>
</g>
<!-- schematics.exceptions&#45;&gt;hidebound.core.tools -->
<g id="edge103" class="edge">
<title>schematics.exceptions&#45;&gt;hidebound.core.tools</title>
<path fill="none" stroke="#de958e" d="M477.1699,-278.9648C506.2044,-272.9577 538.7205,-266.2303 568.456,-260.0781"/>
<polygon fill="#de958e" stroke="#de958e" points="569.3412,-263.4691 578.4247,-258.0156 567.9229,-256.6143 569.3412,-263.4691"/>
</g>
<!-- schematics.exceptions&#45;&gt;hidebound.core.validators -->
<g id="edge104" class="edge">
<title>schematics.exceptions&#45;&gt;hidebound.core.validators</title>
<path fill="none" stroke="#de958e" d="M475.0902,-315.1498C478.7004,-317.7324 482.0395,-320.6669 485,-324 552.2533,-399.7165 474.4005,-459.0862 521,-549 546.6481,-598.488 596.1901,-640.9014 630.0441,-665.9335"/>
<polygon fill="#de958e" stroke="#de958e" points="628.1399,-668.876 638.289,-671.9168 632.2513,-663.2106 628.1399,-668.876"/>
</g>
<!-- schematics.exceptions&#45;&gt;hidebound.server.api -->
<g id="edge105" class="edge">
<title>schematics.exceptions&#45;&gt;hidebound.server.api</title>
<path fill="none" stroke="#de958e" d="M422.4935,-278.7857C441.9144,-266.9657 466.3537,-250.3758 485,-232 504.7614,-212.5253 498.4918,-197.2222 521,-181 698.2593,-53.2447 780,-64 998.5,-64 998.5,-64 998.5,-64 1315,-64 1504.9401,-64 1611.9828,1.7204 1735,-143 1825.5334,-249.5057 1680.636,-664.3506 1771,-771 1776.3656,-777.3326 1782.8722,-782.362 1790.0471,-786.3382"/>
<polygon fill="#de958e" stroke="#de958e" points="1788.9251,-789.6809 1799.4574,-790.8305 1791.9408,-783.3638 1788.9251,-789.6809"/>
</g>
<!-- OpenEXR -->
<g id="node46" class="node">
<title>OpenEXR</title>
<polygon fill="#343434" stroke="#343434" points="427,-223 353,-223 353,-187 427,-187 427,-223"/>
<text text-anchor="middle" x="390" y="-201.3" font-family="Courier,monospace" font-size="14.00" fill="#de958e">OpenEXR</text>
</g>
<!-- OpenEXR&#45;&gt;hidebound.core.tools -->
<g id="edge106" class="edge">
<title>OpenEXR&#45;&gt;hidebound.core.tools</title>
<path fill="none" stroke="#de958e" d="M427.1552,-209.7203C462.1896,-214.1711 516.3125,-221.047 564.1336,-227.1222"/>
<polygon fill="#de958e" stroke="#de958e" points="563.8719,-230.617 574.2333,-228.4053 564.7542,-223.6729 563.8719,-230.617"/>
</g>
<!-- skimage.io -->
<g id="node47" class="node">
<title>skimage.io</title>
<polygon fill="#343434" stroke="#343434" points="715,-540 616,-540 616,-504 715,-504 715,-540"/>
<text text-anchor="middle" x="665.5" y="-518.3" font-family="Courier,monospace" font-size="14.00" fill="#de958e">skimage.io</text>
</g>
<!-- skimage.io&#45;&gt;hidebound.core.traits -->
<g id="edge107" class="edge">
<title>skimage.io&#45;&gt;hidebound.core.traits</title>
<path fill="none" stroke="#de958e" d="M715.3535,-522C762.177,-522 833.7345,-522 893.196,-522"/>
<polygon fill="#de958e" stroke="#de958e" points="893.3873,-525.5001 903.3872,-522 893.3872,-518.5001 893.3873,-525.5001"/>
</g>
</g>
</svg>
