<?xml version="1.0" encoding="UTF-8" standalone="no"?>
<!DOCTYPE svg PUBLIC "-//W3C//DTD SVG 1.1//EN"
 "http://www.w3.org/Graphics/SVG/1.1/DTD/svg11.dtd">
<!-- Generated by graphviz version 2.40.1 (20161225.0304)
 -->
<!-- Title: %3 Pages: 1 -->
<svg width="1312pt" height="960pt"
 viewBox="0.00 0.00 1312.00 959.92" xmlns="http://www.w3.org/2000/svg" xmlns:xlink="http://www.w3.org/1999/xlink">
<g id="graph0" class="graph" transform="scale(1 1) rotate(0) translate(4 955.9234)">
<title>%3</title>
<polygon fill="#242424" stroke="transparent" points="-4,4 -4,-955.9234 1308,-955.9234 1308,4 -4,4"/>
<!-- cli -->
<g id="node1" class="node">
<title>cli</title>
<polygon fill="#343434" stroke="#343434" points="72.5,-471.2765 18.5,-471.2765 18.5,-435.2765 72.5,-435.2765 72.5,-471.2765"/>
<text text-anchor="middle" x="45.5" y="-449.5765" font-family="Courier,monospace" font-size="14.00" fill="#b6ecf3">cli</text>
</g>
<!-- hidebound.config -->
<g id="node2" class="node">
<title>hidebound.config</title>
<polygon fill="#343434" stroke="#343434" points="1053.5,-803.2765 904.5,-803.2765 904.5,-767.2765 1053.5,-767.2765 1053.5,-803.2765"/>
<text text-anchor="middle" x="979" y="-781.5765" font-family="Courier,monospace" font-size="14.00" fill="#b6ecf3">hidebound.config</text>
</g>
<!-- hidebound.database -->
<g id="node3" class="node">
<title>hidebound.database</title>
<polygon fill="#343434" stroke="#343434" points="1304,-278.2765 1139,-278.2765 1139,-242.2765 1304,-242.2765 1304,-278.2765"/>
<text text-anchor="middle" x="1221.5" y="-256.5765" font-family="Courier,monospace" font-size="14.00" fill="#b6ecf3">hidebound.database</text>
</g>
<!-- hidebound.config&#45;&gt;hidebound.database -->
<g id="edge1" class="edge">
<title>hidebound.config&#45;&gt;hidebound.database</title>
<path fill="none" stroke="#b6ecf3" d="M1034.9362,-767.1806C1059.094,-756.7292 1085.7221,-741.2126 1103,-719.2765 1157.3238,-650.3071 1203.4058,-377.4927 1217.2523,-288.507"/>
<polygon fill="#b6ecf3" stroke="#b6ecf3" points="1220.752,-288.7763 1218.8149,-278.3601 1213.8336,-287.7108 1220.752,-288.7763"/>
</g>
<!-- hidebound.database_test_base -->
<g id="node4" class="node">
<title>hidebound.database_test_base</title>
<polygon fill="#343434" stroke="#343434" points="1103,-475.2765 855,-475.2765 855,-439.2765 1103,-439.2765 1103,-475.2765"/>
<text text-anchor="middle" x="979" y="-453.5765" font-family="Courier,monospace" font-size="14.00" fill="#b6ecf3">hidebound.database_test_base</text>
</g>
<!-- hidebound.database_tools -->
<g id="node5" class="node">
<title>hidebound.database_tools</title>
<polygon fill="#343434" stroke="#343434" points="802.5,-246.2765 587.5,-246.2765 587.5,-210.2765 802.5,-210.2765 802.5,-246.2765"/>
<text text-anchor="middle" x="695" y="-224.5765" font-family="Courier,monospace" font-size="14.00" fill="#b6ecf3">hidebound.database_tools</text>
</g>
<!-- hidebound.database_tools&#45;&gt;hidebound.database -->
<g id="edge2" class="edge">
<title>hidebound.database_tools&#45;&gt;hidebound.database</title>
<path fill="none" stroke="#b6ecf3" d="M802.8156,-234.8294C898.7984,-240.6631 1037.7314,-249.1073 1128.8193,-254.6435"/>
<polygon fill="#b6ecf3" stroke="#b6ecf3" points="1128.6628,-258.1404 1138.8567,-255.2536 1129.0875,-251.1533 1128.6628,-258.1404"/>
</g>
<!-- hidebound.parser -->
<g id="node6" class="node">
<title>hidebound.parser</title>
<polygon fill="#343434" stroke="#343434" points="296.5,-761.2765 147.5,-761.2765 147.5,-725.2765 296.5,-725.2765 296.5,-761.2765"/>
<text text-anchor="middle" x="222" y="-739.5765" font-family="Courier,monospace" font-size="14.00" fill="#b6ecf3">hidebound.parser</text>
</g>
<!-- hidebound.parser&#45;&gt;hidebound.database_tools -->
<g id="edge3" class="edge">
<title>hidebound.parser&#45;&gt;hidebound.database_tools</title>
<path fill="none" stroke="#b6ecf3" d="M296.5011,-732.0534C304.3299,-728.1618 311.4431,-723.0285 317,-716.2765 378.0754,-642.0661 287.8753,-355.96 353,-285.2765 368.397,-268.5653 484.6147,-251.7372 577.3609,-240.744"/>
<polygon fill="#b6ecf3" stroke="#b6ecf3" points="577.8758,-244.2077 587.3997,-239.5658 577.0599,-237.2554 577.8758,-244.2077"/>
</g>
<!-- hidebound.specification_base -->
<g id="node7" class="node">
<title>hidebound.specification_base</title>
<polygon fill="#343434" stroke="#343434" points="819,-780.2765 571,-780.2765 571,-744.2765 819,-744.2765 819,-780.2765"/>
<text text-anchor="middle" x="695" y="-758.5765" font-family="Courier,monospace" font-size="14.00" fill="#b6ecf3">hidebound.specification_base</text>
</g>
<!-- hidebound.parser&#45;&gt;hidebound.specification_base -->
<g id="edge4" class="edge">
<title>hidebound.parser&#45;&gt;hidebound.specification_base</title>
<path fill="none" stroke="#b6ecf3" d="M296.6872,-746.2766C367.4293,-749.1183 475.2798,-753.4506 560.9214,-756.8907"/>
<polygon fill="#b6ecf3" stroke="#b6ecf3" points="560.8534,-760.3907 570.9859,-757.295 561.1344,-753.3963 560.8534,-760.3907"/>
</g>
<!-- hidebound.validators -->
<g id="node11" class="node">
<title>hidebound.validators</title>
<polygon fill="#343434" stroke="#343434" points="535,-723.2765 353,-723.2765 353,-687.2765 535,-687.2765 535,-723.2765"/>
<text text-anchor="middle" x="444" y="-701.5765" font-family="Courier,monospace" font-size="14.00" fill="#b6ecf3">hidebound.validators</text>
</g>
<!-- hidebound.parser&#45;&gt;hidebound.validators -->
<g id="edge5" class="edge">
<title>hidebound.parser&#45;&gt;hidebound.validators</title>
<path fill="none" stroke="#b6ecf3" d="M296.5404,-730.5174C311.3165,-727.9881 327.0623,-725.2929 342.5578,-722.6405"/>
<polygon fill="#b6ecf3" stroke="#b6ecf3" points="343.4256,-726.043 352.6917,-720.9059 342.2445,-719.1433 343.4256,-726.043"/>
</g>
<!-- hidebound.specification_base&#45;&gt;hidebound.config -->
<g id="edge6" class="edge">
<title>hidebound.specification_base&#45;&gt;hidebound.config</title>
<path fill="none" stroke="#b6ecf3" d="M819.1534,-772.3312C844.3768,-774.3739 870.3635,-776.4785 893.8618,-778.3815"/>
<polygon fill="#b6ecf3" stroke="#b6ecf3" points="893.8698,-781.8936 904.1197,-779.2123 894.4349,-774.9164 893.8698,-781.8936"/>
</g>
<!-- hidebound.specification_base&#45;&gt;hidebound.database -->
<g id="edge7" class="edge">
<title>hidebound.specification_base&#45;&gt;hidebound.database</title>
<path fill="none" stroke="#b6ecf3" d="M819.3676,-751.5427C909.3336,-737.427 1027.8318,-704.7749 1103,-629.2765 1152.5346,-579.5243 1200.0548,-365.6818 1215.9287,-288.3341"/>
<polygon fill="#b6ecf3" stroke="#b6ecf3" points="1219.3945,-288.8538 1217.9554,-278.3571 1212.5346,-287.4602 1219.3945,-288.8538"/>
</g>
<!-- hidebound.specification_base&#45;&gt;hidebound.database_test_base -->
<g id="edge8" class="edge">
<title>hidebound.specification_base&#45;&gt;hidebound.database_test_base</title>
<path fill="none" stroke="#b6ecf3" d="M721.9463,-744.099C749.2971,-724.5425 791.432,-691.2323 819,-654.2765 842.0711,-623.3489 832.6159,-606.7049 855,-575.2765 881.0915,-538.6428 919.6713,-504.0826 946.8545,-481.9478"/>
<polygon fill="#b6ecf3" stroke="#b6ecf3" points="949.2924,-484.479 954.8984,-475.4888 944.9096,-479.0208 949.2924,-484.479"/>
</g>
<!-- hidebound.specifications -->
<g id="node8" class="node">
<title>hidebound.specifications</title>
<polygon fill="#343434" stroke="#343434" points="1086.5,-620.2765 871.5,-620.2765 871.5,-584.2765 1086.5,-584.2765 1086.5,-620.2765"/>
<text text-anchor="middle" x="979" y="-598.5765" font-family="Courier,monospace" font-size="14.00" fill="#b6ecf3">hidebound.specifications</text>
</g>
<!-- hidebound.specification_base&#45;&gt;hidebound.specifications -->
<g id="edge9" class="edge">
<title>hidebound.specification_base&#45;&gt;hidebound.specifications</title>
<path fill="none" stroke="#b6ecf3" d="M727.0264,-744.2335C778.8009,-715.0647 880.8332,-657.5817 937.8972,-625.433"/>
<polygon fill="#b6ecf3" stroke="#b6ecf3" points="939.6604,-628.4569 946.6549,-620.4991 936.2245,-622.3582 939.6604,-628.4569"/>
</g>
<!-- hidebound.tools -->
<g id="node9" class="node">
<title>hidebound.tools</title>
<polygon fill="#343434" stroke="#343434" points="514,-162.2765 374,-162.2765 374,-126.2765 514,-126.2765 514,-162.2765"/>
<text text-anchor="middle" x="444" y="-140.5765" font-family="Courier,monospace" font-size="14.00" fill="#b6ecf3">hidebound.tools</text>
</g>
<!-- hidebound.tools&#45;&gt;hidebound.database -->
<g id="edge10" class="edge">
<title>hidebound.tools&#45;&gt;hidebound.database</title>
<path fill="none" stroke="#b6ecf3" d="M514.4754,-152.3488C635.3161,-166.5602 889.6627,-198.0909 1103,-235.2765 1111.7466,-236.8011 1120.8318,-238.5029 1129.906,-240.282"/>
<polygon fill="#b6ecf3" stroke="#b6ecf3" points="1129.2407,-243.7182 1139.7316,-242.2381 1130.6075,-236.8529 1129.2407,-243.7182"/>
</g>
<!-- hidebound.tools&#45;&gt;hidebound.database_tools -->
<g id="edge11" class="edge">
<title>hidebound.tools&#45;&gt;hidebound.database_tools</title>
<path fill="none" stroke="#b6ecf3" d="M497.8458,-162.2966C536.9191,-175.373 589.9282,-193.1131 631.1399,-206.905"/>
<polygon fill="#b6ecf3" stroke="#b6ecf3" points="630.2169,-210.2869 640.8108,-210.1415 632.4385,-203.6487 630.2169,-210.2869"/>
</g>
<!-- hidebound.tools&#45;&gt;hidebound.specification_base -->
<g id="edge12" class="edge">
<title>hidebound.tools&#45;&gt;hidebound.specification_base</title>
<path fill="none" stroke="#b6ecf3" d="M459.3638,-162.5198C480.0796,-188.164 516.4991,-237.1413 535,-285.2765 570.8606,-378.5778 540.8234,-411.9849 571,-507.2765 598.7383,-594.8685 651.9415,-690.2824 678.7342,-735.554"/>
<polygon fill="#b6ecf3" stroke="#b6ecf3" points="675.7497,-737.3829 683.8787,-744.1778 681.7613,-733.7967 675.7497,-737.3829"/>
</g>
<!-- hidebound.traits -->
<g id="node10" class="node">
<title>hidebound.traits</title>
<polygon fill="#343434" stroke="#343434" points="769.5,-498.2765 620.5,-498.2765 620.5,-462.2765 769.5,-462.2765 769.5,-498.2765"/>
<text text-anchor="middle" x="695" y="-476.5765" font-family="Courier,monospace" font-size="14.00" fill="#b6ecf3">hidebound.traits</text>
</g>
<!-- hidebound.traits&#45;&gt;hidebound.database_test_base -->
<g id="edge13" class="edge">
<title>hidebound.traits&#45;&gt;hidebound.database_test_base</title>
<path fill="none" stroke="#b6ecf3" d="M769.6177,-474.2335C792.6862,-472.3653 818.8434,-470.247 844.6619,-468.156"/>
<polygon fill="#b6ecf3" stroke="#b6ecf3" points="845.2328,-471.6213 854.9176,-467.3255 844.6677,-464.6442 845.2328,-471.6213"/>
</g>
<!-- hidebound.traits&#45;&gt;hidebound.specifications -->
<g id="edge14" class="edge">
<title>hidebound.traits&#45;&gt;hidebound.specifications</title>
<path fill="none" stroke="#b6ecf3" d="M769.7797,-496.225C786.2541,-500.6589 803.4269,-506.0118 819,-512.2765 863.9999,-530.3791 912.0435,-558.7663 943.6077,-578.8118"/>
<polygon fill="#b6ecf3" stroke="#b6ecf3" points="941.7497,-581.7781 952.0572,-584.2289 945.5278,-575.8852 941.7497,-581.7781"/>
</g>
<!-- hidebound.validators&#45;&gt;hidebound.config -->
<g id="edge15" class="edge">
<title>hidebound.validators&#45;&gt;hidebound.config</title>
<path fill="none" stroke="#b6ecf3" d="M456.6245,-723.5248C476.9571,-751.1103 519.8952,-802.3243 571,-822.2765 673.6745,-862.3625 709.7877,-837.1631 819,-822.2765 835.4537,-820.0338 838.8807,-816.2668 855,-812.2765 867.6967,-809.1335 881.1731,-805.9962 894.3849,-803.0309"/>
<polygon fill="#b6ecf3" stroke="#b6ecf3" points="895.4173,-806.3869 904.4191,-800.7997 893.8978,-799.5538 895.4173,-806.3869"/>
</g>
<!-- hidebound.validators&#45;&gt;hidebound.database_test_base -->
<g id="edge16" class="edge">
<title>hidebound.validators&#45;&gt;hidebound.database_test_base</title>
<path fill="none" stroke="#b6ecf3" d="M489.6325,-687.2763C560.8484,-658.83 702.3516,-600.881 819,-544.2765 860.5545,-524.1119 906.783,-498.6318 938.8206,-480.4684"/>
<polygon fill="#b6ecf3" stroke="#b6ecf3" points="940.9151,-483.3036 947.8752,-475.3156 937.4529,-477.2198 940.9151,-483.3036"/>
</g>
<!-- hidebound.validators&#45;&gt;hidebound.specification_base -->
<g id="edge17" class="edge">
<title>hidebound.validators&#45;&gt;hidebound.specification_base</title>
<path fill="none" stroke="#b6ecf3" d="M523.418,-723.3117C549.6405,-729.2666 578.9799,-735.9293 605.8788,-742.0378"/>
<polygon fill="#b6ecf3" stroke="#b6ecf3" points="605.1414,-745.4594 615.6682,-744.2609 606.6916,-738.6332 605.1414,-745.4594"/>
</g>
<!-- hidebound.validators&#45;&gt;hidebound.specifications -->
<g id="edge18" class="edge">
<title>hidebound.validators&#45;&gt;hidebound.specifications</title>
<path fill="none" stroke="#b6ecf3" d="M535.369,-697.4662C611.8116,-689.8337 723.4028,-676.1263 819,-654.2765 853.5572,-646.3781 891.3092,-634.2815 921.4599,-623.7424"/>
<polygon fill="#b6ecf3" stroke="#b6ecf3" points="922.7056,-627.0144 930.9683,-620.3827 920.3735,-620.4143 922.7056,-627.0144"/>
</g>
<!-- pandasql -->
<g id="node12" class="node">
<title>pandasql</title>
<polygon fill="#343434" stroke="#343434" points="1020.5,-857.2765 937.5,-857.2765 937.5,-821.2765 1020.5,-821.2765 1020.5,-857.2765"/>
<text text-anchor="middle" x="979" y="-835.5765" font-family="Courier,monospace" font-size="14.00" fill="#de958e">pandasql</text>
</g>
<!-- pandasql&#45;&gt;hidebound.database -->
<g id="edge19" class="edge">
<title>pandasql&#45;&gt;hidebound.database</title>
<path fill="none" stroke="#de958e" d="M1020.6564,-841.0539C1047.6738,-839.8809 1081.6879,-833.6512 1103,-812.2765 1178.3707,-736.6846 1211.2698,-390.1221 1219.4077,-288.4133"/>
<polygon fill="#de958e" stroke="#de958e" points="1222.9085,-288.5382 1220.1995,-278.2956 1215.9298,-287.992 1222.9085,-288.5382"/>
</g>
<!-- numpy -->
<g id="node13" class="node">
<title>numpy</title>
<polygon fill="#343434" stroke="#343434" points="473,-330.2765 415,-330.2765 415,-294.2765 473,-294.2765 473,-330.2765"/>
<text text-anchor="middle" x="444" y="-308.5765" font-family="Courier,monospace" font-size="14.00" fill="#de958e">numpy</text>
</g>
<!-- numpy&#45;&gt;hidebound.database -->
<g id="edge20" class="edge">
<title>numpy&#45;&gt;hidebound.database</title>
<path fill="none" stroke="#de958e" d="M473.2478,-309.8558C498.9831,-307.754 537.4683,-304.679 571,-302.2765 769.6505,-288.0433 1002.5887,-273.531 1128.7967,-265.8496"/>
<polygon fill="#de958e" stroke="#de958e" points="1129.0435,-269.3411 1138.8127,-265.2407 1128.6187,-262.354 1129.0435,-269.3411"/>
</g>
<!-- numpy&#45;&gt;hidebound.database_test_base -->
<g id="edge21" class="edge">
<title>numpy&#45;&gt;hidebound.database_test_base</title>
<path fill="none" stroke="#de958e" d="M473.3278,-309.6978C538.009,-305.0843 696.8559,-299.688 819,-344.2765 871.7841,-363.5453 923.0858,-405.0161 952.8288,-432.0011"/>
<polygon fill="#de958e" stroke="#de958e" points="950.5467,-434.6577 960.2716,-438.8622 955.2913,-429.5108 950.5467,-434.6577"/>
</g>
<!-- numpy&#45;&gt;hidebound.database_tools -->
<g id="edge22" class="edge">
<title>numpy&#45;&gt;hidebound.database_tools</title>
<path fill="none" stroke="#de958e" d="M473.0421,-303.0982C491.0887,-297.1414 514.6468,-288.9032 535,-280.2765 551.4702,-273.2957 554.2939,-268.6724 571,-262.2765 583.4975,-257.4919 596.9418,-253.0837 610.204,-249.1379"/>
<polygon fill="#de958e" stroke="#de958e" points="611.1854,-252.4976 619.8127,-246.3477 609.2333,-245.7752 611.1854,-252.4976"/>
</g>
<!-- hidebound -->
<g id="node14" class="node">
<title>hidebound</title>
<polygon fill="#343434" stroke="#343434" points="91,-525.2765 0,-525.2765 0,-489.2765 91,-489.2765 91,-525.2765"/>
<text text-anchor="middle" x="45.5" y="-503.5765" font-family="Courier,monospace" font-size="14.00" fill="#a0d17b">hidebound</text>
</g>
<!-- hidebound&#45;&gt;hidebound.config -->
<g id="edge23" class="edge">
<title>hidebound&#45;&gt;hidebound.config</title>
<path fill="none" stroke="#a0d17b" d="M48.5482,-525.6132C58.3647,-582.8009 90.6395,-756.6166 127,-799.2765 198.724,-883.4267 244.9915,-879.6174 353,-903.2765 555.5605,-947.6471 645.8163,-994.3244 819,-880.2765 847.5597,-861.4689 827.7593,-832.9484 855,-812.2765 866.5507,-803.5112 880.3576,-797.4682 894.4974,-793.3272"/>
<polygon fill="#a0d17b" stroke="#a0d17b" points="895.5299,-796.6749 904.316,-790.7541 893.7553,-789.9035 895.5299,-796.6749"/>
</g>
<!-- hidebound&#45;&gt;hidebound.database -->
<g id="edge24" class="edge">
<title>hidebound&#45;&gt;hidebound.database</title>
<path fill="none" stroke="#a0d17b" d="M83.432,-489.0706C86.3494,-486.4681 88.9508,-483.5452 91,-480.2765 141.2273,-400.1576 60.8795,-123.8776 127,-56.2765 226.0794,45.0216 302.3031,-22.2765 444,-22.2765 444,-22.2765 444,-22.2765 695,-22.2765 880.9845,-22.2765 944.9191,-17.2936 1103,-115.2765 1150.4859,-144.7096 1187.6163,-199.9644 1206.8967,-233.112"/>
<polygon fill="#a0d17b" stroke="#a0d17b" points="1203.8707,-234.8712 1211.8552,-241.8353 1209.9563,-231.412 1203.8707,-234.8712"/>
</g>
<!-- hidebound&#45;&gt;hidebound.database_test_base -->
<g id="edge25" class="edge">
<title>hidebound&#45;&gt;hidebound.database_test_base</title>
<path fill="none" stroke="#a0d17b" d="M90.6628,-489.2313C149.7924,-466.6675 257.2013,-429.3003 353,-415.2765 537.2912,-388.2985 754.6805,-416.0986 878.7304,-437.5355"/>
<polygon fill="#a0d17b" stroke="#a0d17b" points="878.1473,-440.9866 888.6008,-439.2619 879.3534,-434.0912 878.1473,-440.9866"/>
</g>
<!-- hidebound&#45;&gt;hidebound.database_tools -->
<g id="edge26" class="edge">
<title>hidebound&#45;&gt;hidebound.database_tools</title>
<path fill="none" stroke="#a0d17b" d="M81.6673,-489.1372C85.0989,-486.4785 88.2986,-483.5254 91,-480.2765 120.6663,-444.5975 99.7436,-419.8288 127,-382.2765 202.1045,-278.8021 232.1897,-246.1396 353,-204.2765 443.3226,-172.978 554.9177,-190.3954 625.5466,-207.7229"/>
<polygon fill="#a0d17b" stroke="#a0d17b" points="625.1104,-211.2224 635.6626,-210.273 626.8215,-204.4347 625.1104,-211.2224"/>
</g>
<!-- hidebound&#45;&gt;hidebound.parser -->
<g id="edge27" class="edge">
<title>hidebound&#45;&gt;hidebound.parser</title>
<path fill="none" stroke="#a0d17b" d="M47.2207,-525.3813C52.0439,-565.7866 69.3715,-663.8733 127,-716.2765 130.4469,-719.4109 134.2324,-722.1841 138.2457,-724.6375"/>
<polygon fill="#a0d17b" stroke="#a0d17b" points="136.8846,-727.8788 147.3525,-729.5135 140.1888,-721.7077 136.8846,-727.8788"/>
</g>
<!-- hidebound&#45;&gt;hidebound.specification_base -->
<g id="edge28" class="edge">
<title>hidebound&#45;&gt;hidebound.specification_base</title>
<path fill="none" stroke="#a0d17b" d="M48.343,-525.6357C57.2244,-580.3366 86.3077,-740.2852 127,-770.2765 194.0314,-819.6806 419.7855,-800.425 565.6923,-781.5947"/>
<polygon fill="#a0d17b" stroke="#a0d17b" points="566.1579,-785.0637 575.6205,-780.2982 565.2514,-778.1226 566.1579,-785.0637"/>
</g>
<!-- hidebound&#45;&gt;hidebound.specifications -->
<g id="edge29" class="edge">
<title>hidebound&#45;&gt;hidebound.specifications</title>
<path fill="none" stroke="#a0d17b" d="M91.4043,-510.2034C211.3411,-518.1164 543.8559,-541.7586 819,-577.2765 832.5747,-579.0289 846.7727,-581.0188 860.8661,-583.0927"/>
<polygon fill="#a0d17b" stroke="#a0d17b" points="860.6931,-586.6054 871.0993,-584.6154 861.7234,-579.6816 860.6931,-586.6054"/>
</g>
<!-- hidebound&#45;&gt;hidebound.tools -->
<g id="edge30" class="edge">
<title>hidebound&#45;&gt;hidebound.tools</title>
<path fill="none" stroke="#a0d17b" d="M83.3524,-489.0201C86.2859,-486.4278 88.9129,-483.5211 91,-480.2765 131.1477,-417.864 72.0832,-198.1895 127,-148.2765 160.4297,-117.8928 281.3278,-124.83 363.7755,-133.7187"/>
<polygon fill="#a0d17b" stroke="#a0d17b" points="363.5575,-137.2159 373.8821,-134.8386 364.3284,-130.2585 363.5575,-137.2159"/>
</g>
<!-- hidebound&#45;&gt;hidebound.traits -->
<g id="edge31" class="edge">
<title>hidebound&#45;&gt;hidebound.traits</title>
<path fill="none" stroke="#a0d17b" d="M91.1716,-505.3779C199.0628,-500.8928 471.0692,-489.5854 610.1923,-483.802"/>
<polygon fill="#a0d17b" stroke="#a0d17b" points="610.5367,-487.2908 620.3827,-483.3784 610.2459,-480.2969 610.5367,-487.2908"/>
</g>
<!-- hidebound&#45;&gt;hidebound.validators -->
<g id="edge32" class="edge">
<title>hidebound&#45;&gt;hidebound.validators</title>
<path fill="none" stroke="#a0d17b" d="M52.9285,-525.6338C64.5759,-551.9372 89.7255,-599.8617 127,-624.2765 199.039,-671.4621 233.8205,-639.9769 317,-662.2765 330.0663,-665.7795 357.446,-674.9651 383.449,-683.9513"/>
<polygon fill="#a0d17b" stroke="#a0d17b" points="382.3429,-687.2721 392.9377,-687.2421 384.6366,-680.6586 382.3429,-687.2721"/>
</g>
<!-- humanfriendly -->
<g id="node15" class="node">
<title>humanfriendly</title>
<polygon fill="#343434" stroke="#343434" points="284,-193.2765 160,-193.2765 160,-157.2765 284,-157.2765 284,-193.2765"/>
<text text-anchor="middle" x="222" y="-171.5765" font-family="Courier,monospace" font-size="14.00" fill="#de958e">humanfriendly</text>
</g>
<!-- humanfriendly&#45;&gt;hidebound.tools -->
<g id="edge33" class="edge">
<title>humanfriendly&#45;&gt;hidebound.tools</title>
<path fill="none" stroke="#de958e" d="M284.1346,-166.6001C308.8165,-163.1535 337.5257,-159.1446 363.7492,-155.4827"/>
<polygon fill="#de958e" stroke="#de958e" points="364.2445,-158.9476 373.6643,-154.0982 363.2763,-152.0149 364.2445,-158.9476"/>
</g>
<!-- skimage.io -->
<g id="node16" class="node">
<title>skimage.io</title>
<polygon fill="#343434" stroke="#343434" points="493.5,-460.2765 394.5,-460.2765 394.5,-424.2765 493.5,-424.2765 493.5,-460.2765"/>
<text text-anchor="middle" x="444" y="-438.5765" font-family="Courier,monospace" font-size="14.00" fill="#de958e">skimage.io</text>
</g>
<!-- skimage.io&#45;&gt;hidebound.database_test_base -->
<g id="edge34" class="edge">
<title>skimage.io&#45;&gt;hidebound.database_test_base</title>
<path fill="none" stroke="#de958e" d="M493.8511,-443.6742C573.1059,-445.8963 730.5308,-450.3101 844.6099,-453.5086"/>
<polygon fill="#de958e" stroke="#de958e" points="844.723,-457.013 854.8172,-453.7948 844.9192,-450.0158 844.723,-457.013"/>
</g>
<!-- skimage.io&#45;&gt;hidebound.traits -->
<g id="edge35" class="edge">
<title>skimage.io&#45;&gt;hidebound.traits</title>
<path fill="none" stroke="#de958e" d="M493.5895,-449.7841C526.7704,-454.8075 571.291,-461.5477 610.0366,-467.4135"/>
<polygon fill="#de958e" stroke="#de958e" points="609.8619,-470.9269 620.2732,-468.9633 610.9098,-464.0058 609.8619,-470.9269"/>
</g>
<!-- pandas -->
<g id="node17" class="node">
<title>pandas</title>
<polygon fill="#343434" stroke="#343434" points="255,-101.2765 189,-101.2765 189,-65.2765 255,-65.2765 255,-101.2765"/>
<text text-anchor="middle" x="222" y="-79.5765" font-family="Courier,monospace" font-size="14.00" fill="#de958e">pandas</text>
</g>
<!-- pandas&#45;&gt;hidebound.database -->
<g id="edge36" class="edge">
<title>pandas&#45;&gt;hidebound.database</title>
<path fill="none" stroke="#de958e" d="M255.4571,-80.6016C312.8279,-76.5403 433.5981,-70.2878 535,-80.2765 791.1519,-105.5092 861.701,-103.6926 1103,-193.2765 1132.535,-204.2416 1163.4423,-221.9543 1186.2844,-236.4141"/>
<polygon fill="#de958e" stroke="#de958e" points="1184.6286,-239.5106 1194.9323,-241.9771 1188.4157,-233.6235 1184.6286,-239.5106"/>
</g>
<!-- pandas&#45;&gt;hidebound.database_test_base -->
<g id="edge37" class="edge">
<title>pandas&#45;&gt;hidebound.database_test_base</title>
<path fill="none" stroke="#de958e" d="M255.2567,-97.7335C276.2565,-108.5983 302.1392,-125.5208 317,-148.2765 364.2334,-220.6031 289.107,-281.1404 353,-339.2765 429.9195,-409.2655 718.6395,-355.0215 819,-382.2765 862.2482,-394.0215 908.2375,-416.7835 939.7574,-434.165"/>
<polygon fill="#de958e" stroke="#de958e" points="938.2158,-437.313 948.6521,-439.1393 941.6326,-431.2035 938.2158,-437.313"/>
</g>
<!-- pandas&#45;&gt;hidebound.database_tools -->
<g id="edge38" class="edge">
<title>pandas&#45;&gt;hidebound.database_tools</title>
<path fill="none" stroke="#de958e" d="M255.2087,-81.6183C313.7378,-79.829 438.2193,-81.1394 535,-117.2765 587.0422,-136.7087 638.1944,-176.9258 668.1584,-203.2399"/>
<polygon fill="#de958e" stroke="#de958e" points="665.876,-205.894 675.6693,-209.9365 670.5344,-200.6692 665.876,-205.894"/>
</g>
<!-- pandas&#45;&gt;hidebound.tools -->
<g id="edge39" class="edge">
<title>pandas&#45;&gt;hidebound.tools</title>
<path fill="none" stroke="#de958e" d="M255.2356,-92.4088C285.1199,-100.6203 330.1167,-112.9843 368.6827,-123.5812"/>
<polygon fill="#de958e" stroke="#de958e" points="367.7659,-126.959 378.3359,-126.2337 369.6207,-120.2092 367.7659,-126.959"/>
</g>
<!-- schematics.exceptions -->
<g id="node18" class="node">
<title>schematics.exceptions</title>
<polygon fill="#343434" stroke="#343434" points="317,-615.2765 127,-615.2765 127,-579.2765 317,-579.2765 317,-615.2765"/>
<text text-anchor="middle" x="222" y="-593.5765" font-family="Courier,monospace" font-size="14.00" fill="#de958e">schematics.exceptions</text>
</g>
<!-- schematics.exceptions&#45;&gt;hidebound.config -->
<g id="edge40" class="edge">
<title>schematics.exceptions&#45;&gt;hidebound.config</title>
<path fill="none" stroke="#de958e" d="M302.2131,-615.3149C307.2536,-616.8735 312.2188,-618.5281 317,-620.2765 333.8004,-626.4204 336.1355,-632.311 353,-638.2765 431.0786,-665.8953 473.6597,-622.6309 535,-678.2765 573.4124,-713.1228 529.0501,-758.7809 571,-789.2765 620.6281,-825.3539 789.9154,-810.7736 894.1938,-797.5743"/>
<polygon fill="#de958e" stroke="#de958e" points="894.9167,-801.0102 904.3881,-796.2622 894.0231,-794.0675 894.9167,-801.0102"/>
</g>
<!-- schematics.exceptions&#45;&gt;hidebound.database_tools -->
<g id="edge41" class="edge">
<title>schematics.exceptions&#45;&gt;hidebound.database_tools</title>
<path fill="none" stroke="#de958e" d="M226.2026,-579.034C241.6174,-513.8081 297.0721,-293.8288 353,-252.2765 422.3598,-200.7448 523.0342,-199.9402 597.203,-208.9017"/>
<polygon fill="#de958e" stroke="#de958e" points="597.1213,-212.42 607.4866,-210.2268 598.0159,-205.4774 597.1213,-212.42"/>
</g>
<!-- schematics.exceptions&#45;&gt;hidebound.specification_base -->
<g id="edge42" class="edge">
<title>schematics.exceptions&#45;&gt;hidebound.specification_base</title>
<path fill="none" stroke="#de958e" d="M317.113,-601.7933C396.4878,-607.3508 501.8061,-619.4522 535,-645.2765 567.381,-670.4684 539.9237,-703.4918 571,-730.2765 574.8997,-733.6377 579.1085,-736.6526 583.5386,-739.3565"/>
<polygon fill="#de958e" stroke="#de958e" points="581.859,-742.4271 592.3075,-744.1819 585.2338,-736.2944 581.859,-742.4271"/>
</g>
<!-- schematics.exceptions&#45;&gt;hidebound.tools -->
<g id="edge43" class="edge">
<title>schematics.exceptions&#45;&gt;hidebound.tools</title>
<path fill="none" stroke="#de958e" d="M224.4011,-579.1934C232.8457,-521.1419 265.5387,-336.1849 353,-214.2765 366.2802,-195.7659 385.8416,-179.8306 403.4282,-167.8609"/>
<polygon fill="#de958e" stroke="#de958e" points="405.4361,-170.7295 411.8668,-162.3095 401.5889,-164.8815 405.4361,-170.7295"/>
</g>
<!-- schematics.exceptions&#45;&gt;hidebound.validators -->
<g id="edge44" class="edge">
<title>schematics.exceptions&#45;&gt;hidebound.validators</title>
<path fill="none" stroke="#de958e" d="M291.1687,-615.4117C300.2519,-619.2506 309.127,-623.8325 317,-629.2765 337.7823,-643.6471 332.3132,-658.7687 353,-673.2765 358.1288,-676.8734 363.7017,-680.1024 369.4794,-682.9942"/>
<polygon fill="#de958e" stroke="#de958e" points="368.1482,-686.2348 378.6929,-687.2653 371.0923,-679.884 368.1482,-686.2348"/>
</g>
<!-- schematics.types -->
<g id="node19" class="node">
<title>schematics.types</title>
<polygon fill="#343434" stroke="#343434" points="518.5,-593.2765 369.5,-593.2765 369.5,-557.2765 518.5,-557.2765 518.5,-593.2765"/>
<text text-anchor="middle" x="444" y="-571.5765" font-family="Courier,monospace" font-size="14.00" fill="#de958e">schematics.types</text>
</g>
<!-- schematics.types&#45;&gt;hidebound.config -->
<g id="edge45" class="edge">
<title>schematics.types&#45;&gt;hidebound.config</title>
<path fill="none" stroke="#de958e" d="M513.3451,-593.341C520.6961,-595.5491 528.0285,-597.8773 535,-600.2765 682.202,-650.9356 850.4649,-725.9175 931.0553,-762.9339"/>
<polygon fill="#de958e" stroke="#de958e" points="929.8943,-766.2524 940.4415,-767.2557 932.822,-759.8941 929.8943,-766.2524"/>
</g>
<!-- schematics.types&#45;&gt;hidebound.database_test_base -->
<g id="edge46" class="edge">
<title>schematics.types&#45;&gt;hidebound.database_test_base</title>
<path fill="none" stroke="#de958e" d="M518.5701,-564.5351C594.6587,-552.9263 715.8763,-532.6367 819,-507.2765 851.7535,-499.2218 887.6442,-488.2121 917.1182,-478.574"/>
<polygon fill="#de958e" stroke="#de958e" points="918.4527,-481.8194 926.854,-475.3643 916.2609,-475.1714 918.4527,-481.8194"/>
</g>
<!-- schematics.types&#45;&gt;hidebound.specification_base -->
<g id="edge47" class="edge">
<title>schematics.types&#45;&gt;hidebound.specification_base</title>
<path fill="none" stroke="#de958e" d="M516.9867,-593.5115C523.6416,-597.2721 529.8153,-601.8073 535,-607.2765 574.187,-648.6145 530.0804,-690.6529 571,-730.2765 574.278,-733.4507 577.8274,-736.3216 581.5836,-738.9175"/>
<polygon fill="#de958e" stroke="#de958e" points="579.7621,-741.9062 590.1118,-744.1719 583.434,-735.9465 579.7621,-741.9062"/>
</g>
<!-- schematics.types&#45;&gt;hidebound.specifications -->
<g id="edge48" class="edge">
<title>schematics.types&#45;&gt;hidebound.specifications</title>
<path fill="none" stroke="#de958e" d="M518.6709,-579.045C607.3807,-583.5219 756.4743,-591.0463 860.8803,-596.3153"/>
<polygon fill="#de958e" stroke="#de958e" points="860.9941,-599.8255 871.1579,-596.834 861.347,-592.8343 860.9941,-599.8255"/>
</g>
<!-- schematics -->
<g id="node20" class="node">
<title>schematics</title>
<polygon fill="#343434" stroke="#343434" points="493.5,-894.2765 394.5,-894.2765 394.5,-858.2765 493.5,-858.2765 493.5,-894.2765"/>
<text text-anchor="middle" x="444" y="-872.5765" font-family="Courier,monospace" font-size="14.00" fill="#de958e">schematics</text>
</g>
<!-- schematics&#45;&gt;hidebound.config -->
<g id="edge49" class="edge">
<title>schematics&#45;&gt;hidebound.config</title>
<path fill="none" stroke="#de958e" d="M493.5779,-882.3972C567.8521,-889.3984 710.8297,-894.3662 819,-846.2765 839.1101,-837.3361 835.5365,-822.5487 855,-812.2765 867.1515,-805.8633 880.7413,-800.9725 894.3475,-797.2428"/>
<polygon fill="#de958e" stroke="#de958e" points="895.409,-800.5843 904.2375,-794.727 893.6833,-793.8003 895.409,-800.5843"/>
</g>
<!-- schematics&#45;&gt;hidebound.specification_base -->
<g id="edge50" class="edge">
<title>schematics&#45;&gt;hidebound.specification_base</title>
<path fill="none" stroke="#de958e" d="M493.5853,-860.2068C507.1561,-855.44 521.7677,-849.9628 535,-844.2765 576.3701,-826.4985 621.9227,-802.7179 653.807,-785.3451"/>
<polygon fill="#de958e" stroke="#de958e" points="655.7445,-788.2745 662.8324,-780.3996 652.3807,-782.1356 655.7445,-788.2745"/>
</g>
<!-- pyparsing -->
<g id="node21" class="node">
<title>pyparsing</title>
<polygon fill="#343434" stroke="#343434" points="91,-845.2765 0,-845.2765 0,-809.2765 91,-809.2765 91,-845.2765"/>
<text text-anchor="middle" x="45.5" y="-823.5765" font-family="Courier,monospace" font-size="14.00" fill="#de958e">pyparsing</text>
</g>
<!-- pyparsing&#45;&gt;hidebound.parser -->
<g id="edge51" class="edge">
<title>pyparsing&#45;&gt;hidebound.parser</title>
<path fill="none" stroke="#de958e" d="M83.3637,-809.2564C110.028,-796.5663 145.9215,-779.4839 174.5053,-765.8802"/>
<polygon fill="#de958e" stroke="#de958e" points="176.3694,-768.8693 183.8948,-761.4116 173.3612,-762.5486 176.3694,-768.8693"/>
</g>
<!-- pyparsing&#45;&gt;hidebound.specification_base -->
<g id="edge52" class="edge">
<title>pyparsing&#45;&gt;hidebound.specification_base</title>
<path fill="none" stroke="#de958e" d="M91.0184,-828.0946C177.8775,-828.9831 373.0491,-827.74 535,-803.2765 565.4358,-798.679 598.479,-790.7284 626.5917,-783.045"/>
<polygon fill="#de958e" stroke="#de958e" points="627.6185,-786.3924 636.3175,-780.3444 625.7456,-779.6476 627.6185,-786.3924"/>
</g>
<!-- pyparsing&#45;&gt;hidebound.validators -->
<g id="edge53" class="edge">
<title>pyparsing&#45;&gt;hidebound.validators</title>
<path fill="none" stroke="#de958e" d="M91.1836,-821.4758C145.9672,-813.6624 240.0369,-797.5008 317,-770.2765 347.8513,-759.3634 380.6854,-742.4016 405.2382,-728.5412"/>
<polygon fill="#de958e" stroke="#de958e" points="407.2807,-731.405 414.2214,-723.4001 403.8037,-725.3296 407.2807,-731.405"/>
</g>
<!-- wrapt -->
<g id="node22" class="node">
<title>wrapt</title>
<polygon fill="#343434" stroke="#343434" points="251,-707.2765 193,-707.2765 193,-671.2765 251,-671.2765 251,-707.2765"/>
<text text-anchor="middle" x="222" y="-685.5765" font-family="Courier,monospace" font-size="14.00" fill="#de958e">wrapt</text>
</g>
<!-- wrapt&#45;&gt;hidebound.validators -->
<g id="edge54" class="edge">
<title>wrapt&#45;&gt;hidebound.validators</title>
<path fill="none" stroke="#de958e" d="M251.0226,-691.3682C274.4553,-693.0571 308.9007,-695.5396 342.2287,-697.9417"/>
<polygon fill="#de958e" stroke="#de958e" points="342.2969,-701.4556 352.5226,-698.6836 342.8001,-694.4737 342.2969,-701.4556"/>
</g>
</g>
</svg>
