<?xml version="1.0" encoding="UTF-8" standalone="no"?>
<!DOCTYPE svg PUBLIC "-//W3C//DTD SVG 1.1//EN"
 "http://www.w3.org/Graphics/SVG/1.1/DTD/svg11.dtd">
<!-- Generated by graphviz version 2.40.1 (20161225.0304)
 -->
<!-- Title: %3 Pages: 1 -->
<svg width="2195pt" height="1166pt"
 viewBox="0.00 0.00 2195.00 1165.79" xmlns="http://www.w3.org/2000/svg" xmlns:xlink="http://www.w3.org/1999/xlink">
<g id="graph0" class="graph" transform="scale(1 1) rotate(0) translate(4 1161.7867)">
<title>%3</title>
<polygon fill="#242424" stroke="transparent" points="-4,4 -4,-1161.7867 2191,-1161.7867 2191,4 -4,4"/>
<!-- cli -->
<g id="node1" class="node">
<title>cli</title>
<polygon fill="#343434" stroke="#343434" points="72.5,-176.1964 18.5,-176.1964 18.5,-140.1964 72.5,-140.1964 72.5,-176.1964"/>
<text text-anchor="middle" x="45.5" y="-154.4964" font-family="Courier,monospace" font-size="14.00" fill="#b6ecf3">cli</text>
</g>
<!-- hidebound.core.config -->
<g id="node2" class="node">
<title>hidebound.core.config</title>
<polygon fill="#343434" stroke="#343434" points="1348.5,-689.1964 1158.5,-689.1964 1158.5,-653.1964 1348.5,-653.1964 1348.5,-689.1964"/>
<text text-anchor="middle" x="1253.5" y="-667.4964" font-family="Courier,monospace" font-size="14.00" fill="#b6ecf3">hidebound.core.config</text>
</g>
<!-- hidebound.core.database -->
<g id="node3" class="node">
<title>hidebound.core.database</title>
<polygon fill="#343434" stroke="#343434" points="1669,-909.1964 1463,-909.1964 1463,-873.1964 1669,-873.1964 1669,-909.1964"/>
<text text-anchor="middle" x="1566" y="-887.4964" font-family="Courier,monospace" font-size="14.00" fill="#b6ecf3">hidebound.core.database</text>
</g>
<!-- hidebound.core.config&#45;&gt;hidebound.core.database -->
<g id="edge1" class="edge">
<title>hidebound.core.config&#45;&gt;hidebound.core.database</title>
<path fill="none" stroke="#b6ecf3" d="M1306.6176,-689.3123C1335.9986,-700.5666 1372.4345,-716.6187 1402,-736.1964 1458.8512,-773.8421 1514.2043,-831.9441 1543.8182,-865.2864"/>
<polygon fill="#b6ecf3" stroke="#b6ecf3" points="1541.199,-867.608 1550.4318,-872.8048 1546.4549,-862.9846 1541.199,-867.608"/>
</g>
<!-- hidebound.server.api -->
<g id="node13" class="node">
<title>hidebound.server.api</title>
<polygon fill="#343434" stroke="#343434" points="1940.5,-518.1964 1758.5,-518.1964 1758.5,-482.1964 1940.5,-482.1964 1940.5,-518.1964"/>
<text text-anchor="middle" x="1849.5" y="-496.4964" font-family="Courier,monospace" font-size="14.00" fill="#b6ecf3">hidebound.server.api</text>
</g>
<!-- hidebound.core.database&#45;&gt;hidebound.server.api -->
<g id="edge2" class="edge">
<title>hidebound.core.database&#45;&gt;hidebound.server.api</title>
<path fill="none" stroke="#b6ecf3" d="M1616.696,-873.138C1642.4128,-861.9464 1672.6397,-845.421 1694,-823.1964 1779.6396,-734.0914 1825.9833,-588.874 1842.465,-528.2104"/>
<polygon fill="#b6ecf3" stroke="#b6ecf3" points="1845.9319,-528.7914 1845.1128,-518.2283 1839.1659,-526.9966 1845.9319,-528.7914"/>
</g>
<!-- hidebound.core.database_test_base -->
<g id="node4" class="node">
<title>hidebound.core.database_test_base</title>
<polygon fill="#343434" stroke="#343434" points="1398,-513.1964 1109,-513.1964 1109,-477.1964 1398,-477.1964 1398,-513.1964"/>
<text text-anchor="middle" x="1253.5" y="-491.4964" font-family="Courier,monospace" font-size="14.00" fill="#b6ecf3">hidebound.core.database_test_base</text>
</g>
<!-- hidebound.core.database_tools -->
<g id="node5" class="node">
<title>hidebound.core.database_tools</title>
<polygon fill="#343434" stroke="#343434" points="1052.5,-911.1964 796.5,-911.1964 796.5,-875.1964 1052.5,-875.1964 1052.5,-911.1964"/>
<text text-anchor="middle" x="924.5" y="-889.4964" font-family="Courier,monospace" font-size="14.00" fill="#b6ecf3">hidebound.core.database_tools</text>
</g>
<!-- hidebound.core.database_tools&#45;&gt;hidebound.core.database -->
<g id="edge3" class="edge">
<title>hidebound.core.database_tools&#45;&gt;hidebound.core.database</title>
<path fill="none" stroke="#b6ecf3" d="M1052.7753,-892.7965C1169.6054,-892.4322 1340.4982,-891.8994 1452.4744,-891.5503"/>
<polygon fill="#b6ecf3" stroke="#b6ecf3" points="1452.7969,-895.0494 1462.7859,-891.5182 1452.775,-888.0495 1452.7969,-895.0494"/>
</g>
<!-- hidebound.core.parser -->
<g id="node6" class="node">
<title>hidebound.core.parser</title>
<polygon fill="#343434" stroke="#343434" points="485,-617.1964 295,-617.1964 295,-581.1964 485,-581.1964 485,-617.1964"/>
<text text-anchor="middle" x="390" y="-595.4964" font-family="Courier,monospace" font-size="14.00" fill="#b6ecf3">hidebound.core.parser</text>
</g>
<!-- hidebound.core.parser&#45;&gt;hidebound.core.database_tools -->
<g id="edge4" class="edge">
<title>hidebound.core.parser&#45;&gt;hidebound.core.database_tools</title>
<path fill="none" stroke="#b6ecf3" d="M407.2374,-617.4614C431.0375,-641.9051 476.1287,-685.4991 521,-714.1964 552.5065,-734.3463 770.5697,-827.8421 872.3675,-871.1139"/>
<polygon fill="#b6ecf3" stroke="#b6ecf3" points="871.2733,-874.4518 881.8458,-875.1406 874.0104,-868.0091 871.2733,-874.4518"/>
</g>
<!-- hidebound.core.specification_base -->
<g id="node7" class="node">
<title>hidebound.core.specification_base</title>
<polygon fill="#343434" stroke="#343434" points="1069,-703.1964 780,-703.1964 780,-667.1964 1069,-667.1964 1069,-703.1964"/>
<text text-anchor="middle" x="924.5" y="-681.4964" font-family="Courier,monospace" font-size="14.00" fill="#b6ecf3">hidebound.core.specification_base</text>
</g>
<!-- hidebound.core.parser&#45;&gt;hidebound.core.specification_base -->
<g id="edge5" class="edge">
<title>hidebound.core.parser&#45;&gt;hidebound.core.specification_base</title>
<path fill="none" stroke="#b6ecf3" d="M443.8017,-581.1418C517.1717,-559.996 650.1942,-534.3343 744,-589.1964 772.1714,-605.6724 753.7875,-633.7544 780,-653.1964 784.7595,-656.7266 789.8343,-659.8804 795.1287,-662.697"/>
<polygon fill="#b6ecf3" stroke="#b6ecf3" points="793.7062,-665.8972 804.2296,-667.1258 796.7693,-659.6029 793.7062,-665.8972"/>
</g>
<!-- hidebound.core.validators -->
<g id="node12" class="node">
<title>hidebound.core.validators</title>
<polygon fill="#343434" stroke="#343434" points="744,-537.1964 521,-537.1964 521,-501.1964 744,-501.1964 744,-537.1964"/>
<text text-anchor="middle" x="632.5" y="-515.4964" font-family="Courier,monospace" font-size="14.00" fill="#b6ecf3">hidebound.core.validators</text>
</g>
<!-- hidebound.core.parser&#45;&gt;hidebound.core.validators -->
<g id="edge6" class="edge">
<title>hidebound.core.parser&#45;&gt;hidebound.core.validators</title>
<path fill="none" stroke="#b6ecf3" d="M446.3233,-581.1908C459.1203,-576.8327 472.5948,-572.0303 485,-567.1964 501.3143,-560.8393 504.5456,-557.1814 521,-551.1964 531.6126,-547.3363 542.9256,-543.6319 554.1231,-540.2002"/>
<polygon fill="#b6ecf3" stroke="#b6ecf3" points="555.3438,-543.4881 563.913,-537.2576 553.3288,-536.7843 555.3438,-543.4881"/>
</g>
<!-- hidebound.core.specification_base&#45;&gt;hidebound.core.config -->
<g id="edge7" class="edge">
<title>hidebound.core.specification_base&#45;&gt;hidebound.core.config</title>
<path fill="none" stroke="#b6ecf3" d="M1069.283,-679.0354C1095.7989,-677.9071 1123.0083,-676.7492 1148.1016,-675.6814"/>
<polygon fill="#b6ecf3" stroke="#b6ecf3" points="1148.5035,-679.1676 1158.3456,-675.2455 1148.2058,-672.1739 1148.5035,-679.1676"/>
</g>
<!-- hidebound.core.specification_base&#45;&gt;hidebound.core.database -->
<g id="edge8" class="edge">
<title>hidebound.core.specification_base&#45;&gt;hidebound.core.database</title>
<path fill="none" stroke="#b6ecf3" d="M949.8095,-703.3679C983.598,-726.7961 1046.0484,-767.2448 1105,-790.1964 1219.2985,-834.6962 1357.5633,-861.6894 1452.679,-876.4336"/>
<polygon fill="#b6ecf3" stroke="#b6ecf3" points="1452.1978,-879.9006 1462.6122,-877.9532 1453.2565,-872.9811 1452.1978,-879.9006"/>
</g>
<!-- hidebound.core.specification_base&#45;&gt;hidebound.core.database_test_base -->
<g id="edge9" class="edge">
<title>hidebound.core.specification_base&#45;&gt;hidebound.core.database_test_base</title>
<path fill="none" stroke="#b6ecf3" d="M965.3725,-667.0637C994.6991,-653.6533 1034.8936,-634.4486 1069,-615.1964 1123.2176,-584.592 1183.1599,-544.3335 1219.5761,-519.1078"/>
<polygon fill="#b6ecf3" stroke="#b6ecf3" points="1221.6537,-521.9262 1227.8657,-513.3435 1217.6574,-516.1791 1221.6537,-521.9262"/>
</g>
<!-- hidebound.core.specifications -->
<g id="node8" class="node">
<title>hidebound.core.specifications</title>
<polygon fill="#343434" stroke="#343434" points="1381.5,-345.1964 1125.5,-345.1964 1125.5,-309.1964 1381.5,-309.1964 1381.5,-345.1964"/>
<text text-anchor="middle" x="1253.5" y="-323.4964" font-family="Courier,monospace" font-size="14.00" fill="#b6ecf3">hidebound.core.specifications</text>
</g>
<!-- hidebound.core.specification_base&#45;&gt;hidebound.core.specifications -->
<g id="edge10" class="edge">
<title>hidebound.core.specification_base&#45;&gt;hidebound.core.specifications</title>
<path fill="none" stroke="#b6ecf3" d="M931.9638,-666.9512C958.1811,-603.7379 1047.5691,-395.6935 1105,-354.1964 1108.5244,-351.6498 1112.2159,-349.3199 1116.038,-347.1893"/>
<polygon fill="#b6ecf3" stroke="#b6ecf3" points="1117.8294,-350.2055 1125.1758,-342.5714 1114.6721,-343.958 1117.8294,-350.2055"/>
</g>
<!-- hidebound.core.test_specifications -->
<g id="node9" class="node">
<title>hidebound.core.test_specifications</title>
<polygon fill="#343434" stroke="#343434" points="1402,-399.1964 1105,-399.1964 1105,-363.1964 1402,-363.1964 1402,-399.1964"/>
<text text-anchor="middle" x="1253.5" y="-377.4964" font-family="Courier,monospace" font-size="14.00" fill="#b6ecf3">hidebound.core.test_specifications</text>
</g>
<!-- hidebound.core.specification_base&#45;&gt;hidebound.core.test_specifications -->
<g id="edge11" class="edge">
<title>hidebound.core.specification_base&#45;&gt;hidebound.core.test_specifications</title>
<path fill="none" stroke="#b6ecf3" d="M959.7269,-667.1378C992.4312,-648.6813 1040.2706,-617.1022 1069,-577.1964 1098.8083,-535.7919 1072.9233,-507.8695 1105,-468.1964 1128.4096,-439.243 1164.2139,-417.863 1194.8001,-403.5437"/>
<polygon fill="#b6ecf3" stroke="#b6ecf3" points="1196.4423,-406.6422 1204.1053,-399.3259 1193.5523,-400.2665 1196.4423,-406.6422"/>
</g>
<!-- hidebound.core.tools -->
<g id="node10" class="node">
<title>hidebound.core.tools</title>
<polygon fill="#343434" stroke="#343434" points="723.5,-949.1964 541.5,-949.1964 541.5,-913.1964 723.5,-913.1964 723.5,-949.1964"/>
<text text-anchor="middle" x="632.5" y="-927.4964" font-family="Courier,monospace" font-size="14.00" fill="#b6ecf3">hidebound.core.tools</text>
</g>
<!-- hidebound.core.tools&#45;&gt;hidebound.core.database -->
<g id="edge12" class="edge">
<title>hidebound.core.tools&#45;&gt;hidebound.core.database</title>
<path fill="none" stroke="#b6ecf3" d="M721.1071,-949.2163C865.526,-975.4313 1159.8644,-1015.6526 1402,-964.1964 1446.9483,-954.6444 1494.5233,-931.8794 1526.7886,-914.2903"/>
<polygon fill="#b6ecf3" stroke="#b6ecf3" points="1528.8301,-917.1604 1535.8788,-909.2505 1525.4359,-911.0384 1528.8301,-917.1604"/>
</g>
<!-- hidebound.core.tools&#45;&gt;hidebound.core.database_tools -->
<g id="edge13" class="edge">
<title>hidebound.core.tools&#45;&gt;hidebound.core.database_tools</title>
<path fill="none" stroke="#b6ecf3" d="M723.6895,-919.3293C743.5525,-916.7444 764.9989,-913.9534 786.2268,-911.1909"/>
<polygon fill="#b6ecf3" stroke="#b6ecf3" points="786.8242,-914.6427 796.2889,-909.8814 785.9208,-907.7012 786.8242,-914.6427"/>
</g>
<!-- hidebound.core.tools&#45;&gt;hidebound.core.specification_base -->
<g id="edge14" class="edge">
<title>hidebound.core.tools&#45;&gt;hidebound.core.specification_base</title>
<path fill="none" stroke="#b6ecf3" d="M653.9715,-913.1074C705.5454,-869.6581 836.4718,-759.3571 895.2045,-709.8768"/>
<polygon fill="#b6ecf3" stroke="#b6ecf3" points="897.6043,-712.4316 902.9971,-703.3119 893.0942,-707.0782 897.6043,-712.4316"/>
</g>
<!-- hidebound.server.server_tools -->
<g id="node16" class="node">
<title>hidebound.server.server_tools</title>
<polygon fill="#343434" stroke="#343434" points="1694,-486.1964 1438,-486.1964 1438,-450.1964 1694,-450.1964 1694,-486.1964"/>
<text text-anchor="middle" x="1566" y="-464.4964" font-family="Courier,monospace" font-size="14.00" fill="#b6ecf3">hidebound.server.server_tools</text>
</g>
<!-- hidebound.core.tools&#45;&gt;hidebound.server.server_tools -->
<g id="edge15" class="edge">
<title>hidebound.core.tools&#45;&gt;hidebound.server.server_tools</title>
<path fill="none" stroke="#b6ecf3" d="M671.2634,-913.0728C700.8006,-899.5179 742.6205,-880.8711 780,-866.1964 906.516,-816.5278 950.6415,-833.0136 1069,-766.1964 1087.1368,-755.9576 1085.9071,-744.5174 1105,-736.1964 1226.9939,-683.0295 1298.7251,-782.1221 1402,-698.1964 1439.9595,-667.3488 1411.8831,-635.5534 1438,-594.1964 1463.6857,-553.5222 1504.8976,-516.1129 1533.5949,-492.8046"/>
<polygon fill="#b6ecf3" stroke="#b6ecf3" points="1536.0751,-495.3028 1541.7004,-486.3248 1531.7041,-489.8352 1536.0751,-495.3028"/>
</g>
<!-- hidebound.core.traits -->
<g id="node11" class="node">
<title>hidebound.core.traits</title>
<polygon fill="#343434" stroke="#343434" points="1019.5,-269.1964 829.5,-269.1964 829.5,-233.1964 1019.5,-233.1964 1019.5,-269.1964"/>
<text text-anchor="middle" x="924.5" y="-247.4964" font-family="Courier,monospace" font-size="14.00" fill="#b6ecf3">hidebound.core.traits</text>
</g>
<!-- hidebound.core.traits&#45;&gt;hidebound.core.database_test_base -->
<g id="edge16" class="edge">
<title>hidebound.core.traits&#45;&gt;hidebound.core.database_test_base</title>
<path fill="none" stroke="#b6ecf3" d="M1019.8678,-257.2907C1037.9461,-262.345 1055.4226,-270.4418 1069,-283.1964 1111.1373,-322.7801 1069.5249,-362.5462 1105,-408.1964 1127.6805,-437.3822 1163.1162,-458.6762 1193.6842,-472.8905"/>
<polygon fill="#b6ecf3" stroke="#b6ecf3" points="1192.4392,-476.1681 1202.9951,-477.0754 1195.3089,-469.7834 1192.4392,-476.1681"/>
</g>
<!-- hidebound.core.traits&#45;&gt;hidebound.core.specifications -->
<g id="edge17" class="edge">
<title>hidebound.core.traits&#45;&gt;hidebound.core.specifications</title>
<path fill="none" stroke="#b6ecf3" d="M1012.7374,-269.2088C1031.4038,-273.4455 1050.9217,-278.1961 1069,-283.1964 1085.2552,-287.6924 1088.7321,-290.7467 1105,-295.1964 1120.1678,-299.3452 1136.3258,-303.2973 1152.1899,-306.9193"/>
<polygon fill="#b6ecf3" stroke="#b6ecf3" points="1151.4938,-310.3501 1162.0182,-309.1306 1153.0304,-303.5208 1151.4938,-310.3501"/>
</g>
<!-- hidebound.core.traits&#45;&gt;hidebound.core.test_specifications -->
<g id="edge18" class="edge">
<title>hidebound.core.traits&#45;&gt;hidebound.core.test_specifications</title>
<path fill="none" stroke="#b6ecf3" d="M1019.6131,-259.7639C1037.2978,-264.6794 1054.6866,-272.0938 1069,-283.1964 1096.9558,-304.8811 1076.6364,-333.0479 1105,-354.1964 1106.6543,-355.4299 1108.3474,-356.613 1110.0752,-357.7478"/>
<polygon fill="#b6ecf3" stroke="#b6ecf3" points="1108.5987,-360.9411 1118.9862,-363.027 1112.1667,-354.9187 1108.5987,-360.9411"/>
</g>
<!-- hidebound.core.validators&#45;&gt;hidebound.core.config -->
<g id="edge19" class="edge">
<title>hidebound.core.validators&#45;&gt;hidebound.core.config</title>
<path fill="none" stroke="#b6ecf3" d="M716.3899,-537.2496C726.1732,-541.2798 735.6322,-546.198 744,-552.1964 766.5496,-568.361 756.3379,-588.7091 780,-603.1964 810.8042,-622.0565 1018.4059,-646.6861 1148.29,-660.534"/>
<polygon fill="#b6ecf3" stroke="#b6ecf3" points="1147.9649,-664.0191 1158.2785,-661.5941 1148.7037,-657.0582 1147.9649,-664.0191"/>
</g>
<!-- hidebound.core.validators&#45;&gt;hidebound.core.database_test_base -->
<g id="edge20" class="edge">
<title>hidebound.core.validators&#45;&gt;hidebound.core.database_test_base</title>
<path fill="none" stroke="#b6ecf3" d="M708.7932,-537.2627C720.8375,-541.1972 732.9515,-545.8255 744,-551.1964 761.7503,-559.8252 761.2208,-571.1241 780,-577.1964 902.214,-616.7148 943.3536,-603.8604 1069,-577.1964 1122.1047,-565.9268 1178.4821,-538.2809 1214.7359,-518.198"/>
<polygon fill="#b6ecf3" stroke="#b6ecf3" points="1216.5023,-521.2202 1223.5051,-513.2697 1213.0727,-515.1179 1216.5023,-521.2202"/>
</g>
<!-- hidebound.core.validators&#45;&gt;hidebound.core.specification_base -->
<g id="edge21" class="edge">
<title>hidebound.core.validators&#45;&gt;hidebound.core.specification_base</title>
<path fill="none" stroke="#b6ecf3" d="M724.1603,-537.3004C731.3824,-541.0945 738.136,-545.6731 744,-551.1964 778.9947,-584.1583 744.0077,-621.3269 780,-653.1964 783.6551,-656.4328 787.5635,-659.365 791.6677,-662.0205"/>
<polygon fill="#b6ecf3" stroke="#b6ecf3" points="789.9481,-665.0694 800.3483,-667.0911 793.4789,-659.025 789.9481,-665.0694"/>
</g>
<!-- hidebound.core.validators&#45;&gt;hidebound.core.specifications -->
<g id="edge22" class="edge">
<title>hidebound.core.validators&#45;&gt;hidebound.core.specifications</title>
<path fill="none" stroke="#b6ecf3" d="M653.9546,-501.0375C681.3838,-478.785 731.1888,-441.539 780,-421.1964 887.7772,-376.2791 1018.4835,-352.4112 1115.2416,-339.985"/>
<polygon fill="#b6ecf3" stroke="#b6ecf3" points="1115.8995,-343.4299 1125.3841,-338.7083 1115.0252,-336.4847 1115.8995,-343.4299"/>
</g>
<!-- hidebound.core.validators&#45;&gt;hidebound.core.test_specifications -->
<g id="edge23" class="edge">
<title>hidebound.core.validators&#45;&gt;hidebound.core.test_specifications</title>
<path fill="none" stroke="#b6ecf3" d="M713.6849,-501.1553C829.4448,-475.4309 1041.2831,-428.3557 1162.3077,-401.4613"/>
<polygon fill="#b6ecf3" stroke="#b6ecf3" points="1163.2926,-404.828 1172.2952,-399.2419 1161.774,-397.9946 1163.2926,-404.828"/>
</g>
<!-- hidebound.server.app -->
<g id="node14" class="node">
<title>hidebound.server.app</title>
<polygon fill="#343434" stroke="#343434" points="2187,-295.1964 2005,-295.1964 2005,-259.1964 2187,-259.1964 2187,-295.1964"/>
<text text-anchor="middle" x="2096" y="-273.4964" font-family="Courier,monospace" font-size="14.00" fill="#b6ecf3">hidebound.server.app</text>
</g>
<!-- hidebound.server.api&#45;&gt;hidebound.server.app -->
<g id="edge24" class="edge">
<title>hidebound.server.api&#45;&gt;hidebound.server.app</title>
<path fill="none" stroke="#b6ecf3" d="M1908.5265,-482.1691C1928.9806,-474.1385 1951.218,-463.2576 1969,-449.1964 2020.5842,-408.406 2061.5961,-341.6951 2081.9629,-304.4775"/>
<polygon fill="#b6ecf3" stroke="#b6ecf3" points="2085.2727,-305.712 2086.9211,-295.2462 2079.1059,-302.3997 2085.2727,-305.712"/>
</g>
<!-- hidebound.server.components -->
<g id="node15" class="node">
<title>hidebound.server.components</title>
<polygon fill="#343434" stroke="#343434" points="1969,-272.1964 1730,-272.1964 1730,-236.1964 1969,-236.1964 1969,-272.1964"/>
<text text-anchor="middle" x="1849.5" y="-250.4964" font-family="Courier,monospace" font-size="14.00" fill="#b6ecf3">hidebound.server.components</text>
</g>
<!-- hidebound.server.components&#45;&gt;hidebound.server.app -->
<g id="edge25" class="edge">
<title>hidebound.server.components&#45;&gt;hidebound.server.app</title>
<path fill="none" stroke="#b6ecf3" d="M1969.1396,-265.3595C1977.6859,-266.157 1986.2554,-266.9565 1994.6835,-267.7429"/>
<polygon fill="#b6ecf3" stroke="#b6ecf3" points="1994.6008,-271.2503 2004.8828,-268.6946 1995.2512,-264.2806 1994.6008,-271.2503"/>
</g>
<!-- hidebound.server.server_tools&#45;&gt;hidebound.server.api -->
<g id="edge26" class="edge">
<title>hidebound.server.server_tools&#45;&gt;hidebound.server.api</title>
<path fill="none" stroke="#b6ecf3" d="M1694.0646,-482.6517C1712.2188,-484.7008 1730.6753,-486.7841 1748.2278,-488.7653"/>
<polygon fill="#b6ecf3" stroke="#b6ecf3" points="1748.1195,-492.2752 1758.449,-489.919 1748.9047,-485.3194 1748.1195,-492.2752"/>
</g>
<!-- hidebound.server.server_tools&#45;&gt;hidebound.server.app -->
<g id="edge27" class="edge">
<title>hidebound.server.server_tools&#45;&gt;hidebound.server.app</title>
<path fill="none" stroke="#b6ecf3" d="M1667.9795,-450.1934C1751.3245,-433.3036 1870.9646,-404.0175 1969,-360.1964 2003.8471,-344.62 2039.9377,-320.0821 2064.6978,-301.7196"/>
<polygon fill="#b6ecf3" stroke="#b6ecf3" points="2067.0721,-304.3134 2072.9626,-295.507 2062.866,-298.718 2067.0721,-304.3134"/>
</g>
<!-- dash -->
<g id="node17" class="node">
<title>dash</title>
<polygon fill="#343434" stroke="#343434" points="1593,-318.1964 1539,-318.1964 1539,-282.1964 1593,-282.1964 1593,-318.1964"/>
<text text-anchor="middle" x="1566" y="-296.4964" font-family="Courier,monospace" font-size="14.00" fill="#de958e">dash</text>
</g>
<!-- dash&#45;&gt;hidebound.server.app -->
<g id="edge28" class="edge">
<title>dash&#45;&gt;hidebound.server.app</title>
<path fill="none" stroke="#de958e" d="M1593.0114,-299.0242C1665.9517,-295.8589 1869.7836,-287.0133 1994.4438,-281.6036"/>
<polygon fill="#de958e" stroke="#de958e" points="1994.9261,-285.086 2004.7649,-281.1557 1994.6225,-278.0926 1994.9261,-285.086"/>
</g>
<!-- dash&#45;&gt;hidebound.server.components -->
<g id="edge29" class="edge">
<title>dash&#45;&gt;hidebound.server.components</title>
<path fill="none" stroke="#de958e" d="M1593.1832,-295.7857C1624.5607,-290.6945 1678.3083,-281.9735 1728.5063,-273.8285"/>
<polygon fill="#de958e" stroke="#de958e" points="1729.1806,-277.265 1738.4909,-272.2085 1728.0594,-270.3554 1729.1806,-277.265"/>
</g>
<!-- dash_ace_editor -->
<g id="node18" class="node">
<title>dash_ace_editor</title>
<polygon fill="#343434" stroke="#343434" points="1636,-64.1964 1496,-64.1964 1496,-28.1964 1636,-28.1964 1636,-64.1964"/>
<text text-anchor="middle" x="1566" y="-42.4964" font-family="Courier,monospace" font-size="14.00" fill="#de958e">dash_ace_editor</text>
</g>
<!-- dash_ace_editor&#45;&gt;hidebound.server.components -->
<g id="edge30" class="edge">
<title>dash_ace_editor&#45;&gt;hidebound.server.components</title>
<path fill="none" stroke="#de958e" d="M1636.2359,-46.9539C1657.2031,-50.5788 1678.6598,-58.1863 1694,-73.1964 1744.2399,-122.3552 1680.1133,-177.6791 1730,-227.1964 1730.934,-228.1235 1731.8927,-229.0216 1732.8744,-229.8915"/>
<polygon fill="#de958e" stroke="#de958e" points="1730.765,-232.6847 1740.8202,-236.023 1735.0414,-227.1428 1730.765,-232.6847"/>
</g>
<!-- dash_core_components -->
<g id="node19" class="node">
<title>dash_core_components</title>
<polygon fill="#343434" stroke="#343434" points="1657,-226.1964 1475,-226.1964 1475,-190.1964 1657,-190.1964 1657,-226.1964"/>
<text text-anchor="middle" x="1566" y="-204.4964" font-family="Courier,monospace" font-size="14.00" fill="#de958e">dash_core_components</text>
</g>
<!-- dash_core_components&#45;&gt;hidebound.server.components -->
<g id="edge31" class="edge">
<title>dash_core_components&#45;&gt;hidebound.server.components</title>
<path fill="none" stroke="#de958e" d="M1657.2617,-223.0043C1679.8523,-226.6698 1704.4109,-230.6546 1728.186,-234.5123"/>
<polygon fill="#de958e" stroke="#de958e" points="1727.8879,-238.0096 1738.3194,-236.1565 1729.0091,-231.1 1727.8879,-238.0096"/>
</g>
<!-- hidebound.server -->
<g id="node20" class="node">
<title>hidebound.server</title>
<polygon fill="#343434" stroke="#343434" points="1328,-145.1964 1179,-145.1964 1179,-109.1964 1328,-109.1964 1328,-145.1964"/>
<text text-anchor="middle" x="1253.5" y="-123.4964" font-family="Courier,monospace" font-size="14.00" fill="#a0d17b">hidebound.server</text>
</g>
<!-- hidebound.server&#45;&gt;hidebound.server.api -->
<g id="edge32" class="edge">
<title>hidebound.server&#45;&gt;hidebound.server.api</title>
<path fill="none" stroke="#a0d17b" d="M1328.1347,-124.369C1354.5913,-127.2259 1382.5814,-135.2631 1402,-154.1964 1458.2317,-209.0225 1384.3114,-269.8777 1438,-327.1964 1518.7166,-413.3705 1586.4578,-349.454 1694,-398.1964 1740.3673,-419.2119 1788.6077,-453.0342 1818.824,-475.9149"/>
<polygon fill="#a0d17b" stroke="#a0d17b" points="1816.7835,-478.7607 1826.852,-482.0586 1821.0377,-473.2017 1816.7835,-478.7607"/>
</g>
<!-- hidebound.server&#45;&gt;hidebound.server.app -->
<g id="edge33" class="edge">
<title>hidebound.server&#45;&gt;hidebound.server.app</title>
<path fill="none" stroke="#a0d17b" d="M1275.3054,-109.1311C1308.1401,-83.2287 1373.3414,-36.7294 1438,-19.1964 1547.8122,10.5805 1581.9479,.5444 1694,-19.1964 1822.0798,-41.7608 1863.2484,-43.4984 1969,-119.1964 2019.0442,-155.0185 2059.9793,-215.627 2080.8984,-250.4434"/>
<polygon fill="#a0d17b" stroke="#a0d17b" points="2077.9233,-252.2888 2086.0192,-259.1232 2083.9523,-248.7319 2077.9233,-252.2888"/>
</g>
<!-- hidebound.server&#45;&gt;hidebound.server.components -->
<g id="edge34" class="edge">
<title>hidebound.server&#45;&gt;hidebound.server.components</title>
<path fill="none" stroke="#a0d17b" d="M1328.012,-126.9162C1353.6896,-130.1872 1381.1933,-137.8401 1402,-154.1964 1432.9714,-178.5433 1405.4712,-212.973 1438,-235.1964 1482.3616,-265.5039 1616.394,-266.7809 1719.5609,-262.6641"/>
<polygon fill="#a0d17b" stroke="#a0d17b" points="1719.9157,-266.1524 1729.76,-262.2357 1719.6219,-259.1585 1719.9157,-266.1524"/>
</g>
<!-- hidebound.server&#45;&gt;hidebound.server.server_tools -->
<g id="edge35" class="edge">
<title>hidebound.server&#45;&gt;hidebound.server.server_tools</title>
<path fill="none" stroke="#a0d17b" d="M1328.3505,-123.7312C1354.9934,-126.4785 1383.0541,-134.6075 1402,-154.1964 1478.2079,-232.9907 1375.3452,-308.2488 1438,-398.1964 1452.8232,-419.4768 1476.2658,-434.9324 1499.0613,-445.8185"/>
<polygon fill="#a0d17b" stroke="#a0d17b" points="1497.8693,-449.1209 1508.4224,-450.0611 1500.759,-442.7451 1497.8693,-449.1209"/>
</g>
<!-- dash_html_components -->
<g id="node21" class="node">
<title>dash_html_components</title>
<polygon fill="#343434" stroke="#343434" points="1657,-172.1964 1475,-172.1964 1475,-136.1964 1657,-136.1964 1657,-172.1964"/>
<text text-anchor="middle" x="1566" y="-150.4964" font-family="Courier,monospace" font-size="14.00" fill="#de958e">dash_html_components</text>
</g>
<!-- dash_html_components&#45;&gt;hidebound.server.components -->
<g id="edge36" class="edge">
<title>dash_html_components&#45;&gt;hidebound.server.components</title>
<path fill="none" stroke="#de958e" d="M1657.2039,-165.1633C1670.1369,-169.0332 1682.8208,-174.2293 1694,-181.1964 1716.0325,-194.9275 1708.0664,-213.3078 1730,-227.1964 1732.4849,-228.7699 1735.05,-230.2521 1737.6794,-231.6484"/>
<polygon fill="#de958e" stroke="#de958e" points="1736.3169,-234.8771 1746.8441,-236.0724 1739.36,-228.5731 1736.3169,-234.8771"/>
</g>
<!-- dash_table -->
<g id="node22" class="node">
<title>dash_table</title>
<polygon fill="#343434" stroke="#343434" points="1615.5,-118.1964 1516.5,-118.1964 1516.5,-82.1964 1615.5,-82.1964 1615.5,-118.1964"/>
<text text-anchor="middle" x="1566" y="-96.4964" font-family="Courier,monospace" font-size="14.00" fill="#de958e">dash_table</text>
</g>
<!-- dash_table&#45;&gt;hidebound.server.components -->
<g id="edge37" class="edge">
<title>dash_table&#45;&gt;hidebound.server.components</title>
<path fill="none" stroke="#de958e" d="M1615.7467,-99.5494C1641.8215,-101.7314 1672.6784,-108.6251 1694,-127.1964 1729.6196,-158.2214 1694.6034,-195.9171 1730,-227.1964 1731.3149,-228.3583 1732.6692,-229.4734 1734.0589,-230.5435"/>
<polygon fill="#de958e" stroke="#de958e" points="1732.1393,-233.4707 1742.3786,-236.1922 1736.0713,-227.6794 1732.1393,-233.4707"/>
</g>
<!-- dash.dependencies -->
<g id="node23" class="node">
<title>dash.dependencies</title>
<polygon fill="#343434" stroke="#343434" points="1928,-218.1964 1771,-218.1964 1771,-182.1964 1928,-182.1964 1928,-218.1964"/>
<text text-anchor="middle" x="1849.5" y="-196.4964" font-family="Courier,monospace" font-size="14.00" fill="#de958e">dash.dependencies</text>
</g>
<!-- dash.dependencies&#45;&gt;hidebound.server.app -->
<g id="edge38" class="edge">
<title>dash.dependencies&#45;&gt;hidebound.server.app</title>
<path fill="none" stroke="#de958e" d="M1928.0541,-216.1423C1941.7979,-219.4437 1955.8884,-223.1601 1969,-227.1964 1994.677,-235.1009 2022.5208,-245.8112 2045.5757,-255.2916"/>
<polygon fill="#de958e" stroke="#de958e" points="2044.2365,-258.5252 2054.8141,-259.1295 2046.9221,-252.0608 2044.2365,-258.5252"/>
</g>
<!-- dash.exceptions -->
<g id="node24" class="node">
<title>dash.exceptions</title>
<polygon fill="#343434" stroke="#343434" points="1919.5,-164.1964 1779.5,-164.1964 1779.5,-128.1964 1919.5,-128.1964 1919.5,-164.1964"/>
<text text-anchor="middle" x="1849.5" y="-142.4964" font-family="Courier,monospace" font-size="14.00" fill="#de958e">dash.exceptions</text>
</g>
<!-- dash.exceptions&#45;&gt;hidebound.server.app -->
<g id="edge39" class="edge">
<title>dash.exceptions&#45;&gt;hidebound.server.app</title>
<path fill="none" stroke="#de958e" d="M1919.6024,-156.3487C1936.3056,-160.295 1953.7095,-165.7312 1969,-173.1964 2009.4392,-192.9399 2048.3115,-227.897 2072.1634,-251.787"/>
<polygon fill="#de958e" stroke="#de958e" points="2069.8598,-254.4366 2079.3627,-259.1213 2074.8553,-249.5331 2069.8598,-254.4366"/>
</g>
<!-- flasgger -->
<g id="node25" class="node">
<title>flasgger</title>
<polygon fill="#343434" stroke="#343434" points="1295,-781.1964 1212,-781.1964 1212,-745.1964 1295,-745.1964 1295,-781.1964"/>
<text text-anchor="middle" x="1253.5" y="-759.4964" font-family="Courier,monospace" font-size="14.00" fill="#de958e">flasgger</text>
</g>
<!-- flasgger&#45;&gt;hidebound.server.api -->
<g id="edge40" class="edge">
<title>flasgger&#45;&gt;hidebound.server.api</title>
<path fill="none" stroke="#de958e" d="M1295.2871,-757.226C1325.5034,-752.1834 1366.9974,-743.751 1402,-731.1964 1562.3406,-673.686 1737.8193,-569.9165 1812.5242,-523.6096"/>
<polygon fill="#de958e" stroke="#de958e" points="1814.4873,-526.5103 1821.1272,-518.2542 1810.788,-520.5676 1814.4873,-526.5103"/>
</g>
<!-- flasgger&#45;&gt;hidebound.server.server_tools -->
<g id="edge41" class="edge">
<title>flasgger&#45;&gt;hidebound.server.server_tools</title>
<path fill="none" stroke="#de958e" d="M1295.2829,-765.8625C1328.7919,-765.5854 1374.603,-759.3667 1402,-731.1964 1462.8356,-668.6435 1386.7776,-608.837 1438,-538.1964 1453.4886,-516.8361 1477.5668,-501.2688 1500.6794,-490.3168"/>
<polygon fill="#de958e" stroke="#de958e" points="1502.1347,-493.5 1509.8101,-486.1966 1499.2555,-487.1195 1502.1347,-493.5"/>
</g>
<!-- jinja2 -->
<g id="node26" class="node">
<title>jinja2</title>
<polygon fill="#343434" stroke="#343434" points="1286.5,-253.1964 1220.5,-253.1964 1220.5,-217.1964 1286.5,-217.1964 1286.5,-253.1964"/>
<text text-anchor="middle" x="1253.5" y="-231.4964" font-family="Courier,monospace" font-size="14.00" fill="#de958e">jinja2</text>
</g>
<!-- jinja2&#45;&gt;hidebound.server.server_tools -->
<g id="edge42" class="edge">
<title>jinja2&#45;&gt;hidebound.server.server_tools</title>
<path fill="none" stroke="#de958e" d="M1286.6566,-232.7373C1320.3732,-232.1698 1371.825,-236.9501 1402,-267.1964 1456.239,-321.5637 1384.6581,-380.9486 1438,-436.1964 1440.8713,-439.1703 1443.9739,-441.884 1447.2609,-444.3592"/>
<polygon fill="#de958e" stroke="#de958e" points="1445.5209,-447.4055 1455.7846,-450.0337 1449.4001,-441.5786 1445.5209,-447.4055"/>
</g>
<!-- flask -->
<g id="node27" class="node">
<title>flask</title>
<polygon fill="#343434" stroke="#343434" points="1282.5,-199.1964 1224.5,-199.1964 1224.5,-163.1964 1282.5,-163.1964 1282.5,-199.1964"/>
<text text-anchor="middle" x="1253.5" y="-177.4964" font-family="Courier,monospace" font-size="14.00" fill="#de958e">flask</text>
</g>
<!-- flask&#45;&gt;hidebound.server.api -->
<g id="edge43" class="edge">
<title>flask&#45;&gt;hidebound.server.api</title>
<path fill="none" stroke="#de958e" d="M1282.7035,-177.6013C1316.2436,-175.2356 1370.6634,-177.0908 1402,-208.1964 1462.9981,-268.7447 1376.5965,-338.0593 1438,-398.1964 1520.4256,-478.9221 1582.6414,-411.032 1694,-441.1964 1729.9622,-450.9377 1769.1777,-465.8484 1799.2303,-478.2425"/>
<polygon fill="#de958e" stroke="#de958e" points="1798.073,-481.552 1808.6499,-482.1684 1800.766,-475.0907 1798.073,-481.552"/>
</g>
<!-- flask&#45;&gt;hidebound.server.app -->
<g id="edge44" class="edge">
<title>flask&#45;&gt;hidebound.server.app</title>
<path fill="none" stroke="#de958e" d="M1282.7286,-178.1698C1315.7812,-176.4354 1369.2475,-178.9775 1402,-208.1964 1443.2328,-244.9808 1393.6303,-294.2636 1438,-327.1964 1526.161,-392.6327 1851.1513,-332.0575 2008.925,-297.4797"/>
<polygon fill="#de958e" stroke="#de958e" points="2010.06,-300.8135 2019.0711,-295.2413 2008.5519,-293.9779 2010.06,-300.8135"/>
</g>
<!-- flask&#45;&gt;hidebound.server.server_tools -->
<g id="edge45" class="edge">
<title>flask&#45;&gt;hidebound.server.server_tools</title>
<path fill="none" stroke="#de958e" d="M1282.5724,-177.4568C1316.2479,-174.8999 1371.0522,-176.5205 1402,-208.1964 1473.6929,-281.576 1368.7341,-360.5216 1438,-436.1964 1440.7488,-439.1995 1443.7329,-441.9399 1446.9064,-444.4396"/>
<polygon fill="#de958e" stroke="#de958e" points="1444.9484,-447.341 1455.1586,-450.1696 1448.9409,-441.5912 1444.9484,-447.341"/>
</g>
<!-- pandasql -->
<g id="node28" class="node">
<title>pandasql</title>
<polygon fill="#343434" stroke="#343434" points="1295,-955.1964 1212,-955.1964 1212,-919.1964 1295,-919.1964 1295,-955.1964"/>
<text text-anchor="middle" x="1253.5" y="-933.4964" font-family="Courier,monospace" font-size="14.00" fill="#de958e">pandasql</text>
</g>
<!-- pandasql&#45;&gt;hidebound.core.database -->
<g id="edge46" class="edge">
<title>pandasql&#45;&gt;hidebound.core.database</title>
<path fill="none" stroke="#de958e" d="M1295.3209,-931.0404C1335.4811,-925.1288 1397.967,-915.9309 1452.7872,-907.8613"/>
<polygon fill="#de958e" stroke="#de958e" points="1453.5433,-911.2878 1462.927,-906.3687 1452.5239,-904.3625 1453.5433,-911.2878"/>
</g>
<!-- hidebound -->
<g id="node29" class="node">
<title>hidebound</title>
<polygon fill="#343434" stroke="#343434" points="91,-230.1964 0,-230.1964 0,-194.1964 91,-194.1964 91,-230.1964"/>
<text text-anchor="middle" x="45.5" y="-208.4964" font-family="Courier,monospace" font-size="14.00" fill="#a0d17b">hidebound</text>
</g>
<!-- hidebound&#45;&gt;hidebound.server -->
<g id="edge47" class="edge">
<title>hidebound&#45;&gt;hidebound.server</title>
<path fill="none" stroke="#a0d17b" d="M76.6667,-194.0671C133.2463,-161.3698 251.0634,-94.3244 295,-77.1964 335.5747,-61.379 346.4512,-53.1964 390,-53.1964 390,-53.1964 390,-53.1964 632.5,-53.1964 826.793,-53.1964 877.182,-46.2829 1069,-77.1964 1109.5799,-83.7363 1154.0802,-95.6517 1189.2088,-106.2103"/>
<polygon fill="#a0d17b" stroke="#a0d17b" points="1188.2715,-109.5835 1198.8573,-109.1468 1190.3097,-102.8867 1188.2715,-109.5835"/>
</g>
<!-- hidebound.core -->
<g id="node30" class="node">
<title>hidebound.core</title>
<polygon fill="#343434" stroke="#343434" points="259,-384.1964 127,-384.1964 127,-348.1964 259,-348.1964 259,-384.1964"/>
<text text-anchor="middle" x="193" y="-362.4964" font-family="Courier,monospace" font-size="14.00" fill="#a0d17b">hidebound.core</text>
</g>
<!-- hidebound&#45;&gt;hidebound.core -->
<g id="edge48" class="edge">
<title>hidebound&#45;&gt;hidebound.core</title>
<path fill="none" stroke="#a0d17b" d="M62.9994,-230.467C89.1693,-257.7901 138.6044,-309.4037 168.398,-340.5103"/>
<polygon fill="#a0d17b" stroke="#a0d17b" points="166.0787,-343.1487 175.5234,-347.9496 171.134,-338.3068 166.0787,-343.1487"/>
</g>
<!-- hidebound.core&#45;&gt;hidebound.core.config -->
<g id="edge49" class="edge">
<title>hidebound.core&#45;&gt;hidebound.core.config</title>
<path fill="none" stroke="#a0d17b" d="M259.1537,-371.1403C331.912,-377.0256 443.9616,-387.5351 485,-399.1964 502.0204,-404.0328 504.0652,-411.0681 521,-416.1964 616.8901,-445.2344 658.6651,-396.698 744,-449.1964 767.631,-463.7343 757.7971,-483.5588 780,-500.1964 888.6515,-581.614 941.5086,-552.5067 1069,-599.1964 1113.0129,-615.3148 1162.4675,-634.6828 1199.0886,-649.2694"/>
<polygon fill="#a0d17b" stroke="#a0d17b" points="1198.0007,-652.6036 1208.5857,-653.0595 1200.5954,-646.1022 1198.0007,-652.6036"/>
</g>
<!-- hidebound.core&#45;&gt;hidebound.core.database -->
<g id="edge50" class="edge">
<title>hidebound.core&#45;&gt;hidebound.core.database</title>
<path fill="none" stroke="#a0d17b" d="M196.6832,-348.072C205.7136,-308.7232 232.9053,-215.5362 295,-172.1964 365.6202,-122.9061 1000.5088,-78.9881 1069,-131.1964 1117.0204,-167.8006 1059.4042,-222.6129 1105,-262.1964 1205.4908,-349.4365 1305.3353,-208.7351 1402,-300.1964 1466.0174,-360.7677 1416.4013,-409.7528 1438,-495.1964 1473.5488,-635.8264 1532.0613,-799.4263 1555.658,-863.4822"/>
<polygon fill="#a0d17b" stroke="#a0d17b" points="1552.3854,-864.7239 1559.1364,-872.8894 1558.951,-862.2961 1552.3854,-864.7239"/>
</g>
<!-- hidebound.core&#45;&gt;hidebound.core.database_test_base -->
<g id="edge51" class="edge">
<title>hidebound.core&#45;&gt;hidebound.core.database_test_base</title>
<path fill="none" stroke="#a0d17b" d="M259.2751,-365.1512C325.5252,-364.1622 430.3109,-362.7494 521,-362.1964 620.1093,-361.5921 645.797,-348.8105 744,-362.1964 760.4537,-364.4392 763.8171,-368.4727 780,-372.1964 907.2611,-401.4789 943.2145,-390.1131 1069,-425.1964 1115.3477,-438.1234 1166.3735,-457.9358 1202.9938,-473.1875"/>
<polygon fill="#a0d17b" stroke="#a0d17b" points="1201.8772,-476.5146 1212.4525,-477.1588 1204.5872,-470.0604 1201.8772,-476.5146"/>
</g>
<!-- hidebound.core&#45;&gt;hidebound.core.database_tools -->
<g id="edge52" class="edge">
<title>hidebound.core&#45;&gt;hidebound.core.database_tools</title>
<path fill="none" stroke="#a0d17b" d="M199.9441,-384.3788C213.2734,-419.9393 242.5766,-501.4084 259,-572.1964 271.4369,-625.8016 256.6624,-777.7195 295,-817.1964 360.8229,-884.9755 621.404,-896.0291 785.9657,-895.9554"/>
<polygon fill="#a0d17b" stroke="#a0d17b" points="786.1796,-899.4551 796.1731,-895.9365 786.1666,-892.4551 786.1796,-899.4551"/>
</g>
<!-- hidebound.core&#45;&gt;hidebound.core.parser -->
<g id="edge53" class="edge">
<title>hidebound.core&#45;&gt;hidebound.core.parser</title>
<path fill="none" stroke="#a0d17b" d="M201.4896,-384.3384C216.9541,-416.1304 252.1107,-482.9228 295,-529.1964 311.2766,-546.7574 332.4923,-562.8739 350.7446,-575.2046"/>
<polygon fill="#a0d17b" stroke="#a0d17b" points="349.1592,-578.3519 359.4322,-580.9434 353.0175,-572.5112 349.1592,-578.3519"/>
</g>
<!-- hidebound.core&#45;&gt;hidebound.core.specification_base -->
<g id="edge54" class="edge">
<title>hidebound.core&#45;&gt;hidebound.core.specification_base</title>
<path fill="none" stroke="#a0d17b" d="M245.3905,-384.2021C261.2361,-389.3616 278.7455,-394.7797 295,-399.1964 394.2737,-426.1713 420.2622,-428.3445 521,-449.1964 619.8416,-469.6558 658.1512,-439.1093 744,-492.1964 766.3793,-506.0353 762.7107,-519.3615 780,-539.1964 818.7197,-583.617 867.6553,-631.5191 897.4885,-659.9029"/>
<polygon fill="#a0d17b" stroke="#a0d17b" points="895.3416,-662.6903 905.0078,-667.0281 900.1565,-657.6092 895.3416,-662.6903"/>
</g>
<!-- hidebound.core&#45;&gt;hidebound.core.specifications -->
<g id="edge55" class="edge">
<title>hidebound.core&#45;&gt;hidebound.core.specifications</title>
<path fill="none" stroke="#a0d17b" d="M199.5034,-348.0459C212.2674,-315.2518 243.8912,-246.4508 295,-213.1964 380.436,-157.6067 419.5503,-184.0703 521,-174.1964 642.2123,-162.399 971.8494,-94.7568 1069,-168.1964 1115.801,-203.5749 1062.2097,-255.0596 1105,-295.1964 1108.5976,-298.5709 1112.4622,-301.6232 1116.5356,-304.3822"/>
<polygon fill="#a0d17b" stroke="#a0d17b" points="1114.8101,-307.4294 1125.1711,-309.6431 1118.452,-301.4514 1114.8101,-307.4294"/>
</g>
<!-- hidebound.core&#45;&gt;hidebound.core.test_specifications -->
<g id="edge56" class="edge">
<title>hidebound.core&#45;&gt;hidebound.core.test_specifications</title>
<path fill="none" stroke="#a0d17b" d="M206.5517,-347.9949C224.1942,-325.8421 257.2684,-289.2823 295,-272.1964 451.9854,-201.1094 931.8441,-119.8603 1069,-224.1964 1116.7153,-260.494 1060.7372,-313.7603 1105,-354.1964 1106.0066,-355.116 1107.0337,-356.0094 1108.0799,-356.8772"/>
<polygon fill="#a0d17b" stroke="#a0d17b" points="1106.3273,-359.933 1116.4559,-363.0415 1110.4765,-354.2952 1106.3273,-359.933"/>
</g>
<!-- hidebound.core&#45;&gt;hidebound.core.tools -->
<g id="edge57" class="edge">
<title>hidebound.core&#45;&gt;hidebound.core.tools</title>
<path fill="none" stroke="#a0d17b" d="M200.1654,-384.3295C213.8777,-419.8047 243.8142,-501.1327 259,-572.1964 274.0926,-642.824 243.8105,-844.2486 295,-895.1964 327.3408,-927.3845 444.0668,-933.8028 531.2439,-933.8506"/>
<polygon fill="#a0d17b" stroke="#a0d17b" points="531.4609,-937.3502 541.4529,-933.8275 531.445,-930.3503 531.4609,-937.3502"/>
</g>
<!-- hidebound.core&#45;&gt;hidebound.core.traits -->
<g id="edge58" class="edge">
<title>hidebound.core&#45;&gt;hidebound.core.traits</title>
<path fill="none" stroke="#a0d17b" d="M239.9182,-348.1466C257.1246,-341.8009 276.8334,-334.8493 295,-329.1964 394.1228,-298.3523 418.3737,-285.8337 521,-270.1964 621.3937,-254.8993 737.3161,-250.8286 819.0775,-250.1783"/>
<polygon fill="#a0d17b" stroke="#a0d17b" points="819.3993,-253.6764 829.3769,-250.113 819.3549,-246.6766 819.3993,-253.6764"/>
</g>
<!-- hidebound.core&#45;&gt;hidebound.core.validators -->
<g id="edge59" class="edge">
<title>hidebound.core&#45;&gt;hidebound.core.validators</title>
<path fill="none" stroke="#a0d17b" d="M201.13,-384.4418C215.3639,-413.9203 247.8393,-471.2365 295,-496.1964 360.4198,-530.82 443.2246,-536.9272 510.4416,-534.204"/>
<polygon fill="#a0d17b" stroke="#a0d17b" points="510.8433,-537.6889 520.6656,-533.7175 510.5105,-530.6969 510.8433,-537.6889"/>
</g>
<!-- numpy -->
<g id="node31" class="node">
<title>numpy</title>
<polygon fill="#343434" stroke="#343434" points="661.5,-1079.1964 603.5,-1079.1964 603.5,-1043.1964 661.5,-1043.1964 661.5,-1079.1964"/>
<text text-anchor="middle" x="632.5" y="-1057.4964" font-family="Courier,monospace" font-size="14.00" fill="#de958e">numpy</text>
</g>
<!-- numpy&#45;&gt;hidebound.core.database -->
<g id="edge60" class="edge">
<title>numpy&#45;&gt;hidebound.core.database</title>
<path fill="none" stroke="#de958e" d="M661.7376,-1063.1045C765.6602,-1068.9367 1125.7449,-1080.9958 1402,-990.1964 1452.5395,-973.5851 1503.9513,-939.0799 1535.4129,-915.5283"/>
<polygon fill="#de958e" stroke="#de958e" points="1537.8961,-918.0372 1543.7403,-909.1999 1533.6608,-912.4638 1537.8961,-918.0372"/>
</g>
<!-- numpy&#45;&gt;hidebound.core.database_test_base -->
<g id="edge61" class="edge">
<title>numpy&#45;&gt;hidebound.core.database_test_base</title>
<path fill="none" stroke="#de958e" d="M661.6628,-1055.9601C754.9193,-1038.9497 1041.3942,-984.5377 1069,-953.1964 1114.6937,-901.3197 1074.9397,-706.4498 1105,-644.1964 1130.7286,-590.9137 1183.3678,-545.3959 1218.5518,-519.155"/>
<polygon fill="#de958e" stroke="#de958e" points="1220.6542,-521.9536 1226.6544,-513.2215 1216.5184,-516.3059 1220.6542,-521.9536"/>
</g>
<!-- numpy&#45;&gt;hidebound.core.database_tools -->
<g id="edge62" class="edge">
<title>numpy&#45;&gt;hidebound.core.database_tools</title>
<path fill="none" stroke="#de958e" d="M661.8967,-1043.8489C684.686,-1030.1372 716.8513,-1010.2046 744,-991.1964 760.6045,-979.5708 762.7842,-973.896 780,-963.1964 809.2475,-945.0191 843.9165,-928.0846 871.9639,-915.4263"/>
<polygon fill="#de958e" stroke="#de958e" points="873.4993,-918.5738 881.2043,-911.3018 870.6461,-912.1817 873.4993,-918.5738"/>
</g>
<!-- numpy&#45;&gt;hidebound.server.api -->
<g id="edge63" class="edge">
<title>numpy&#45;&gt;hidebound.server.api</title>
<path fill="none" stroke="#de958e" d="M661.6254,-1068.355C800.4974,-1100.5767 1400.7721,-1217.9461 1694,-918.1964 1805.7283,-803.9831 1838.3706,-602.3067 1846.8295,-528.3766"/>
<polygon fill="#de958e" stroke="#de958e" points="1850.3105,-528.7404 1847.9086,-518.4215 1843.3513,-527.986 1850.3105,-528.7404"/>
</g>
<!-- pandas -->
<g id="node32" class="node">
<title>pandas</title>
<polygon fill="#343434" stroke="#343434" points="423,-1037.1964 357,-1037.1964 357,-1001.1964 423,-1001.1964 423,-1037.1964"/>
<text text-anchor="middle" x="390" y="-1015.4964" font-family="Courier,monospace" font-size="14.00" fill="#de958e">pandas</text>
</g>
<!-- pandas&#45;&gt;hidebound.core.database -->
<g id="edge64" class="edge">
<title>pandas&#45;&gt;hidebound.core.database</title>
<path fill="none" stroke="#de958e" d="M415.5609,-1037.5038C440.9135,-1054.4492 481.5734,-1078.4479 521,-1088.1964 901.822,-1182.3577 1043.7726,-1194.0866 1402,-1034.1964 1462.1035,-1007.37 1516.3619,-950.8193 1544.8904,-917.4318"/>
<polygon fill="#de958e" stroke="#de958e" points="1547.8231,-919.3822 1551.577,-909.4747 1542.464,-914.8788 1547.8231,-919.3822"/>
</g>
<!-- pandas&#45;&gt;hidebound.core.database_test_base -->
<g id="edge65" class="edge">
<title>pandas&#45;&gt;hidebound.core.database_test_base</title>
<path fill="none" stroke="#de958e" d="M423.2945,-1024.3788C488.5706,-1032.934 636.3677,-1044.2884 744,-992.1964 765.233,-981.92 758.9638,-963.8698 780,-953.1964 837.6442,-923.9488 1022.9286,-965.5362 1069,-920.1964 1113.0853,-876.8113 1077.723,-699.7099 1105,-644.1964 1131.0935,-591.0915 1183.6357,-545.5264 1218.6994,-519.2269"/>
<polygon fill="#de958e" stroke="#de958e" points="1220.7976,-522.0284 1226.7727,-513.2792 1216.6457,-516.3926 1220.7976,-522.0284"/>
</g>
<!-- pandas&#45;&gt;hidebound.core.database_tools -->
<g id="edge66" class="edge">
<title>pandas&#45;&gt;hidebound.core.database_tools</title>
<path fill="none" stroke="#de958e" d="M423.1347,-1014.5749C505.5655,-1002.9239 715.3083,-972.2795 744,-958.1964 763.4845,-948.6326 760.7471,-935.2182 780,-925.1964 787.783,-921.1451 796.0608,-917.6052 804.5628,-914.5124"/>
<polygon fill="#de958e" stroke="#de958e" points="805.9103,-917.7507 814.2428,-911.207 803.6483,-911.1263 805.9103,-917.7507"/>
</g>
<!-- pandas&#45;&gt;hidebound.core.tools -->
<g id="edge67" class="edge">
<title>pandas&#45;&gt;hidebound.core.tools</title>
<path fill="none" stroke="#de958e" d="M423.3242,-1013.1616C442.1287,-1008.9271 465.6601,-1002.2039 485,-992.1964 503.2474,-982.7542 502.7648,-972.6621 521,-963.1964 528.5973,-959.2527 536.7455,-955.7365 545.0522,-952.6144"/>
<polygon fill="#de958e" stroke="#de958e" points="546.2326,-955.9094 554.4771,-949.2553 543.8825,-949.3157 546.2326,-955.9094"/>
</g>
<!-- humanfriendly -->
<g id="node33" class="node">
<title>humanfriendly</title>
<polygon fill="#343434" stroke="#343434" points="452,-983.1964 328,-983.1964 328,-947.1964 452,-947.1964 452,-983.1964"/>
<text text-anchor="middle" x="390" y="-961.4964" font-family="Courier,monospace" font-size="14.00" fill="#de958e">humanfriendly</text>
</g>
<!-- humanfriendly&#45;&gt;hidebound.core.tools -->
<g id="edge68" class="edge">
<title>humanfriendly&#45;&gt;hidebound.core.tools</title>
<path fill="none" stroke="#de958e" d="M452.1349,-956.4847C476.1506,-953.1175 504.2629,-949.176 531.05,-945.4203"/>
<polygon fill="#de958e" stroke="#de958e" points="531.8231,-948.8462 541.2402,-943.9916 530.8511,-941.914 531.8231,-948.8462"/>
</g>
<!-- schematics.exceptions -->
<g id="node34" class="node">
<title>schematics.exceptions</title>
<polygon fill="#343434" stroke="#343434" points="485,-808.1964 295,-808.1964 295,-772.1964 485,-772.1964 485,-808.1964"/>
<text text-anchor="middle" x="390" y="-786.4964" font-family="Courier,monospace" font-size="14.00" fill="#de958e">schematics.exceptions</text>
</g>
<!-- schematics.exceptions&#45;&gt;hidebound.core.config -->
<g id="edge69" class="edge">
<title>schematics.exceptions&#45;&gt;hidebound.core.config</title>
<path fill="none" stroke="#de958e" d="M485.0709,-788.5488C646.1121,-784.6632 965.181,-771.9255 1069,-731.1964 1087.8696,-723.7937 1086.632,-711.7685 1105,-703.1964 1118.625,-696.8378 1133.5464,-691.7243 1148.5111,-687.6166"/>
<polygon fill="#de958e" stroke="#de958e" points="1149.5417,-690.9651 1158.338,-685.0596 1147.7789,-684.1906 1149.5417,-690.9651"/>
</g>
<!-- schematics.exceptions&#45;&gt;hidebound.core.database_tools -->
<g id="edge70" class="edge">
<title>schematics.exceptions&#45;&gt;hidebound.core.database_tools</title>
<path fill="none" stroke="#de958e" d="M457.4282,-808.2111C477.7834,-813.3708 500.2376,-818.7868 521,-823.1964 612.7052,-842.673 716.9908,-860.6571 796.5669,-873.5189"/>
<polygon fill="#de958e" stroke="#de958e" points="796.2095,-877.0064 806.6388,-875.1408 797.3225,-870.0954 796.2095,-877.0064"/>
</g>
<!-- schematics.exceptions&#45;&gt;hidebound.core.specification_base -->
<g id="edge71" class="edge">
<title>schematics.exceptions&#45;&gt;hidebound.core.specification_base</title>
<path fill="none" stroke="#de958e" d="M401.3463,-771.9291C421.2366,-741.8654 465.6004,-683.0194 521,-660.1964 569.9375,-640.0356 701.2628,-652.3071 800.9141,-665.7941"/>
<polygon fill="#de958e" stroke="#de958e" points="800.6815,-669.2949 811.0645,-667.1867 801.633,-662.3599 800.6815,-669.2949"/>
</g>
<!-- schematics.exceptions&#45;&gt;hidebound.core.tools -->
<g id="edge72" class="edge">
<title>schematics.exceptions&#45;&gt;hidebound.core.tools</title>
<path fill="none" stroke="#de958e" d="M421.2062,-808.341C464.9501,-833.7756 544.5155,-880.0384 592.5394,-907.9616"/>
<polygon fill="#de958e" stroke="#de958e" points="591.0094,-911.1206 601.4136,-913.1214 594.528,-905.0691 591.0094,-911.1206"/>
</g>
<!-- schematics.exceptions&#45;&gt;hidebound.core.validators -->
<g id="edge73" class="edge">
<title>schematics.exceptions&#45;&gt;hidebound.core.validators</title>
<path fill="none" stroke="#de958e" d="M403.4525,-771.9901C426.446,-741.2173 475.2643,-677.3697 521,-627.1964 548.2397,-597.3136 581.85,-565.3607 605.0065,-544.029"/>
<polygon fill="#de958e" stroke="#de958e" points="607.4278,-546.5575 612.4345,-537.2202 602.6978,-541.3973 607.4278,-546.5575"/>
</g>
<!-- schematics.exceptions&#45;&gt;hidebound.server.api -->
<g id="edge74" class="edge">
<title>schematics.exceptions&#45;&gt;hidebound.server.api</title>
<path fill="none" stroke="#de958e" d="M485.0672,-795.6156C591.9195,-801.2315 770.5949,-809.1964 924.5,-809.1964 924.5,-809.1964 924.5,-809.1964 1253.5,-809.1964 1458.6602,-809.1964 1525.8303,-788.7109 1694,-671.1964 1752.6176,-630.2353 1804.9805,-563.4344 1831.39,-526.6206"/>
<polygon fill="#de958e" stroke="#de958e" points="1834.3074,-528.5571 1837.2311,-518.3736 1828.595,-524.5112 1834.3074,-528.5571"/>
</g>
<!-- pyparsing -->
<g id="node35" class="node">
<title>pyparsing</title>
<polygon fill="#343434" stroke="#343434" points="238.5,-617.1964 147.5,-617.1964 147.5,-581.1964 238.5,-581.1964 238.5,-617.1964"/>
<text text-anchor="middle" x="193" y="-595.4964" font-family="Courier,monospace" font-size="14.00" fill="#de958e">pyparsing</text>
</g>
<!-- pyparsing&#45;&gt;hidebound.core.parser -->
<g id="edge75" class="edge">
<title>pyparsing&#45;&gt;hidebound.core.parser</title>
<path fill="none" stroke="#de958e" d="M238.6909,-599.1964C252.6218,-599.1964 268.5536,-599.1964 284.73,-599.1964"/>
<polygon fill="#de958e" stroke="#de958e" points="284.8181,-602.6965 294.818,-599.1964 284.818,-595.6965 284.8181,-602.6965"/>
</g>
<!-- pyparsing&#45;&gt;hidebound.core.specification_base -->
<g id="edge76" class="edge">
<title>pyparsing&#45;&gt;hidebound.core.specification_base</title>
<path fill="none" stroke="#de958e" d="M238.5081,-613.4982C255.9946,-618.3957 276.255,-623.3532 295,-626.1964 492.4755,-656.1492 545.9561,-619.2671 744,-645.1964 777.8866,-649.6331 814.8099,-657.2988 846.3817,-664.74"/>
<polygon fill="#de958e" stroke="#de958e" points="845.8938,-668.222 856.4336,-667.1437 847.5219,-661.4139 845.8938,-668.222"/>
</g>
<!-- pyparsing&#45;&gt;hidebound.core.validators -->
<g id="edge77" class="edge">
<title>pyparsing&#45;&gt;hidebound.core.validators</title>
<path fill="none" stroke="#de958e" d="M238.7119,-586.0213C256.2226,-581.2581 276.4464,-576.098 295,-572.1964 365.9347,-557.2797 446.0591,-544.5264 510.4329,-535.2705"/>
<polygon fill="#de958e" stroke="#de958e" points="511.2206,-538.6936 520.6254,-533.8152 510.2311,-531.7638 511.2206,-538.6936"/>
</g>
<!-- schematics -->
<g id="node36" class="node">
<title>schematics</title>
<polygon fill="#343434" stroke="#343434" points="682,-705.1964 583,-705.1964 583,-669.1964 682,-669.1964 682,-705.1964"/>
<text text-anchor="middle" x="632.5" y="-683.4964" font-family="Courier,monospace" font-size="14.00" fill="#de958e">schematics</text>
</g>
<!-- schematics&#45;&gt;hidebound.core.config -->
<g id="edge78" class="edge">
<title>schematics&#45;&gt;hidebound.core.config</title>
<path fill="none" stroke="#de958e" d="M682.0755,-697.736C710.5728,-703.2562 747.1306,-709.4306 780,-712.1964 907.9921,-722.9664 941.5179,-727.8902 1069,-712.1964 1085.3689,-710.1813 1088.9367,-706.934 1105,-703.1964 1121.856,-699.2744 1139.8279,-695.2604 1157.2361,-691.4594"/>
<polygon fill="#de958e" stroke="#de958e" points="1158.3796,-694.7926 1167.4079,-689.2483 1156.8927,-687.9524 1158.3796,-694.7926"/>
</g>
<!-- schematics&#45;&gt;hidebound.core.specification_base -->
<g id="edge79" class="edge">
<title>schematics&#45;&gt;hidebound.core.specification_base</title>
<path fill="none" stroke="#de958e" d="M682.0338,-686.8571C706.6266,-686.6887 737.8291,-686.475 769.5958,-686.2574"/>
<polygon fill="#de958e" stroke="#de958e" points="769.9461,-689.7552 779.9219,-686.1867 769.8981,-682.7553 769.9461,-689.7552"/>
</g>
<!-- schematics.types -->
<g id="node37" class="node">
<title>schematics.types</title>
<polygon fill="#343434" stroke="#343434" points="707,-407.1964 558,-407.1964 558,-371.1964 707,-371.1964 707,-407.1964"/>
<text text-anchor="middle" x="632.5" y="-385.4964" font-family="Courier,monospace" font-size="14.00" fill="#de958e">schematics.types</text>
</g>
<!-- schematics.types&#45;&gt;hidebound.core.config -->
<g id="edge80" class="edge">
<title>schematics.types&#45;&gt;hidebound.core.config</title>
<path fill="none" stroke="#de958e" d="M707.2564,-404.3672C720.0542,-408.6944 732.8149,-414.2036 744,-421.1964 764.2804,-433.8754 759.0639,-449.6323 780,-461.1964 894.1035,-524.2218 951.2224,-455.3373 1069,-511.1964 1137.558,-543.7118 1200.4286,-608.9597 1232.0585,-645.2841"/>
<polygon fill="#de958e" stroke="#de958e" points="1229.5172,-647.6971 1238.6878,-653.0027 1234.8274,-643.1362 1229.5172,-647.6971"/>
</g>
<!-- schematics.types&#45;&gt;hidebound.core.database_test_base -->
<g id="edge81" class="edge">
<title>schematics.types&#45;&gt;hidebound.core.database_test_base</title>
<path fill="none" stroke="#de958e" d="M700.8737,-407.2814C725.6831,-413.4729 754.0011,-420.1132 780,-425.1964 885.8341,-445.8886 1006.0436,-463.59 1098.8582,-476.0155"/>
<polygon fill="#de958e" stroke="#de958e" points="1098.5181,-479.501 1108.8928,-477.3526 1099.4427,-472.5624 1098.5181,-479.501"/>
</g>
<!-- schematics.types&#45;&gt;hidebound.core.specification_base -->
<g id="edge82" class="edge">
<title>schematics.types&#45;&gt;hidebound.core.specification_base</title>
<path fill="none" stroke="#de958e" d="M667.7442,-407.2743C690.7916,-420.0342 720.8105,-438.4963 744,-459.1964 753.3948,-467.5826 858.9305,-601.6376 904.1412,-659.2317"/>
<polygon fill="#de958e" stroke="#de958e" points="901.4283,-661.4441 910.3552,-667.1503 906.9351,-657.1227 901.4283,-661.4441"/>
</g>
<!-- schematics.types&#45;&gt;hidebound.core.specifications -->
<g id="edge83" class="edge">
<title>schematics.types&#45;&gt;hidebound.core.specifications</title>
<path fill="none" stroke="#de958e" d="M678.9036,-371.1492C701.2214,-360.4341 726.7962,-344.8603 744,-324.1964 774.2235,-287.8942 741.3535,-251.3581 780,-224.1964 885.0861,-150.3391 959.5494,-156.9763 1069,-224.1964 1099.1483,-242.7122 1076.9826,-273.5914 1105,-295.1964 1109.438,-298.6187 1114.1624,-301.6933 1119.0952,-304.4544"/>
<polygon fill="#de958e" stroke="#de958e" points="1117.6842,-307.6637 1128.1822,-309.0931 1120.8669,-301.4291 1117.6842,-307.6637"/>
</g>
<!-- schematics.types&#45;&gt;hidebound.core.test_specifications -->
<g id="edge84" class="edge">
<title>schematics.types&#45;&gt;hidebound.core.test_specifications</title>
<path fill="none" stroke="#de958e" d="M707.0984,-388.2354C802.4844,-387.0066 970.1899,-384.8461 1094.7225,-383.2418"/>
<polygon fill="#de958e" stroke="#de958e" points="1094.7886,-386.7414 1104.7427,-383.1128 1094.6984,-379.742 1094.7886,-386.7414"/>
</g>
<!-- wrapt -->
<g id="node38" class="node">
<title>wrapt</title>
<polygon fill="#343434" stroke="#343434" points="419,-487.1964 361,-487.1964 361,-451.1964 419,-451.1964 419,-487.1964"/>
<text text-anchor="middle" x="390" y="-465.4964" font-family="Courier,monospace" font-size="14.00" fill="#de958e">wrapt</text>
</g>
<!-- wrapt&#45;&gt;hidebound.core.validators -->
<g id="edge85" class="edge">
<title>wrapt&#45;&gt;hidebound.core.validators</title>
<path fill="none" stroke="#de958e" d="M419.2512,-475.2276C447.9986,-481.1549 493.4838,-490.5333 535.0754,-499.1089"/>
<polygon fill="#de958e" stroke="#de958e" points="534.492,-502.5621 544.9928,-501.1537 535.9056,-495.7063 534.492,-502.5621"/>
</g>
<!-- skimage.io -->
<g id="node39" class="node">
<title>skimage.io</title>
<polygon fill="#343434" stroke="#343434" points="682,-315.1964 583,-315.1964 583,-279.1964 682,-279.1964 682,-315.1964"/>
<text text-anchor="middle" x="632.5" y="-293.4964" font-family="Courier,monospace" font-size="14.00" fill="#de958e">skimage.io</text>
</g>
<!-- skimage.io&#45;&gt;hidebound.core.database_test_base -->
<g id="edge86" class="edge">
<title>skimage.io&#45;&gt;hidebound.core.database_test_base</title>
<path fill="none" stroke="#de958e" d="M682.1675,-304.2108C764.4728,-316.7905 933.4994,-346.6976 1069,-397.1964 1122.5757,-417.1632 1180.1298,-449.7001 1216.4473,-471.755"/>
<polygon fill="#de958e" stroke="#de958e" points="1214.8522,-474.8824 1225.2076,-477.1223 1218.5092,-468.9136 1214.8522,-474.8824"/>
</g>
<!-- skimage.io&#45;&gt;hidebound.core.traits -->
<g id="edge87" class="edge">
<title>skimage.io&#45;&gt;hidebound.core.traits</title>
<path fill="none" stroke="#de958e" d="M682.0338,-289.3931C719.6309,-283.4703 772.6761,-275.1139 819.5685,-267.7267"/>
<polygon fill="#de958e" stroke="#de958e" points="820.1402,-271.1799 829.4737,-266.1663 819.0508,-264.2652 820.1402,-271.1799"/>
</g>
</g>
</svg>
