<?xml version="1.0" encoding="UTF-8" standalone="no"?>
<!DOCTYPE svg PUBLIC "-//W3C//DTD SVG 1.1//EN"
 "http://www.w3.org/Graphics/SVG/1.1/DTD/svg11.dtd">
<!-- Generated by graphviz version 2.40.1 (20161225.0304)
 -->
<!-- Title: %3 Pages: 1 -->
<svg width="1086pt" height="824pt"
 viewBox="0.00 0.00 1086.00 824.21" xmlns="http://www.w3.org/2000/svg" xmlns:xlink="http://www.w3.org/1999/xlink">
<g id="graph0" class="graph" transform="scale(1 1) rotate(0) translate(4 820.2119)">
<title>%3</title>
<polygon fill="#242424" stroke="transparent" points="-4,4 -4,-820.2119 1082,-820.2119 1082,4 -4,4"/>
<!-- cli -->
<g id="node1" class="node">
<title>cli</title>
<polygon fill="#343434" stroke="#343434" points="76.5,-36 22.5,-36 22.5,0 76.5,0 76.5,-36"/>
<text text-anchor="middle" x="49.5" y="-14.3" font-family="Courier,monospace" font-size="14.00" fill="#b6ecf3">cli</text>
</g>
<!-- hidebound.config -->
<g id="node2" class="node">
<title>hidebound.config</title>
<polygon fill="#343434" stroke="#343434" points="1045,-411 896,-411 896,-375 1045,-375 1045,-411"/>
<text text-anchor="middle" x="970.5" y="-389.3" font-family="Courier,monospace" font-size="14.00" fill="#b6ecf3">hidebound.config</text>
</g>
<!-- hidebound.database -->
<g id="node3" class="node">
<title>hidebound.database</title>
<polygon fill="#343434" stroke="#343434" points="1053,-668 888,-668 888,-632 1053,-632 1053,-668"/>
<text text-anchor="middle" x="970.5" y="-646.3" font-family="Courier,monospace" font-size="14.00" fill="#b6ecf3">hidebound.database</text>
</g>
<!-- hidebound.parser -->
<g id="node4" class="node">
<title>hidebound.parser</title>
<polygon fill="#343434" stroke="#343434" points="304.5,-350 155.5,-350 155.5,-314 304.5,-314 304.5,-350"/>
<text text-anchor="middle" x="230" y="-328.3" font-family="Courier,monospace" font-size="14.00" fill="#b6ecf3">hidebound.parser</text>
</g>
<!-- hidebound.parser&#45;&gt;hidebound.database -->
<g id="edge1" class="edge">
<title>hidebound.parser&#45;&gt;hidebound.database</title>
<path fill="none" stroke="#b6ecf3" d="M241.7219,-350.0835C262.1657,-380.0942 307.3239,-439.9506 361,-471 545.2932,-577.6059 626.1535,-511.3638 827,-582 862.1657,-594.3675 900.2168,-612.6409 928.2948,-627.1311"/>
<polygon fill="#b6ecf3" stroke="#b6ecf3" points="926.9307,-630.3669 937.416,-631.8861 930.1666,-624.1597 926.9307,-630.3669"/>
</g>
<!-- hidebound.specification_base -->
<g id="node5" class="node">
<title>hidebound.specification_base</title>
<polygon fill="#343434" stroke="#343434" points="827,-378 579,-378 579,-342 827,-342 827,-378"/>
<text text-anchor="middle" x="703" y="-356.3" font-family="Courier,monospace" font-size="14.00" fill="#b6ecf3">hidebound.specification_base</text>
</g>
<!-- hidebound.parser&#45;&gt;hidebound.specification_base -->
<g id="edge2" class="edge">
<title>hidebound.parser&#45;&gt;hidebound.specification_base</title>
<path fill="none" stroke="#b6ecf3" d="M304.6747,-334.4458C368.1187,-336.738 461.5857,-340.6198 543,-346 551.2991,-346.5484 559.8365,-347.1591 568.4438,-347.8101"/>
<polygon fill="#b6ecf3" stroke="#b6ecf3" points="568.3305,-351.3117 578.5702,-348.5916 568.8692,-344.3325 568.3305,-351.3117"/>
</g>
<!-- hidebound.validators -->
<g id="node9" class="node">
<title>hidebound.validators</title>
<polygon fill="#343434" stroke="#343434" points="543,-256 361,-256 361,-220 543,-220 543,-256"/>
<text text-anchor="middle" x="452" y="-234.3" font-family="Courier,monospace" font-size="14.00" fill="#b6ecf3">hidebound.validators</text>
</g>
<!-- hidebound.parser&#45;&gt;hidebound.validators -->
<g id="edge3" class="edge">
<title>hidebound.parser&#45;&gt;hidebound.validators</title>
<path fill="none" stroke="#b6ecf3" d="M287.4588,-313.9778C299.9468,-309.6918 313.0056,-304.9238 325,-300 353.5796,-288.2679 384.769,-273.0778 409.0869,-260.6695"/>
<polygon fill="#b6ecf3" stroke="#b6ecf3" points="410.7562,-263.7469 418.0508,-256.0632 407.5567,-257.5208 410.7562,-263.7469"/>
</g>
<!-- hidebound.specification_base&#45;&gt;hidebound.config -->
<g id="edge4" class="edge">
<title>hidebound.specification_base&#45;&gt;hidebound.config</title>
<path fill="none" stroke="#b6ecf3" d="M827.3526,-375.3407C847.0379,-377.7692 866.9961,-380.2313 885.5101,-382.5153"/>
<polygon fill="#b6ecf3" stroke="#b6ecf3" points="885.2829,-386.0137 895.6362,-383.7645 886.14,-379.0663 885.2829,-386.0137"/>
</g>
<!-- hidebound.specification_base&#45;&gt;hidebound.database -->
<g id="edge5" class="edge">
<title>hidebound.specification_base&#45;&gt;hidebound.database</title>
<path fill="none" stroke="#b6ecf3" d="M723.9625,-378.1115C749.2647,-400.306 792.6872,-439.4746 827,-476 873.8354,-525.8555 923.5738,-588.6952 950.4431,-623.5818"/>
<polygon fill="#b6ecf3" stroke="#b6ecf3" points="947.9023,-626.02 956.7659,-631.8241 953.4564,-621.7594 947.9023,-626.02"/>
</g>
<!-- hidebound.specifications -->
<g id="node6" class="node">
<title>hidebound.specifications</title>
<polygon fill="#343434" stroke="#343434" points="1078,-194 863,-194 863,-158 1078,-158 1078,-194"/>
<text text-anchor="middle" x="970.5" y="-172.3" font-family="Courier,monospace" font-size="14.00" fill="#b6ecf3">hidebound.specifications</text>
</g>
<!-- hidebound.specification_base&#45;&gt;hidebound.specifications -->
<g id="edge6" class="edge">
<title>hidebound.specification_base&#45;&gt;hidebound.specifications</title>
<path fill="none" stroke="#b6ecf3" d="M729.6269,-341.6847C778.2975,-308.2066 881.5839,-237.161 935.7287,-199.9174"/>
<polygon fill="#b6ecf3" stroke="#b6ecf3" points="937.7253,-202.7922 943.9808,-194.2412 933.7582,-197.0249 937.7253,-202.7922"/>
</g>
<!-- hidebound.tools -->
<g id="node7" class="node">
<title>hidebound.tools</title>
<polygon fill="#343434" stroke="#343434" points="522,-668 382,-668 382,-632 522,-632 522,-668"/>
<text text-anchor="middle" x="452" y="-646.3" font-family="Courier,monospace" font-size="14.00" fill="#b6ecf3">hidebound.tools</text>
</g>
<!-- hidebound.tools&#45;&gt;hidebound.database -->
<g id="edge7" class="edge">
<title>hidebound.tools&#45;&gt;hidebound.database</title>
<path fill="none" stroke="#b6ecf3" d="M522.1968,-650C614.0731,-650 775.3695,-650 877.3777,-650"/>
<polygon fill="#b6ecf3" stroke="#b6ecf3" points="877.6727,-653.5001 887.6726,-650 877.6726,-646.5001 877.6727,-653.5001"/>
</g>
<!-- hidebound.tools&#45;&gt;hidebound.specification_base -->
<g id="edge8" class="edge">
<title>hidebound.tools&#45;&gt;hidebound.specification_base</title>
<path fill="none" stroke="#b6ecf3" d="M467.7012,-631.8592C510.7525,-582.1187 630.7752,-443.447 680.7354,-385.724"/>
<polygon fill="#b6ecf3" stroke="#b6ecf3" points="683.4068,-387.9857 687.3048,-378.1339 678.114,-383.4046 683.4068,-387.9857"/>
</g>
<!-- hidebound.traits -->
<g id="node8" class="node">
<title>hidebound.traits</title>
<polygon fill="#343434" stroke="#343434" points="304.5,-90 155.5,-90 155.5,-54 304.5,-54 304.5,-90"/>
<text text-anchor="middle" x="230" y="-68.3" font-family="Courier,monospace" font-size="14.00" fill="#b6ecf3">hidebound.traits</text>
</g>
<!-- hidebound.traits&#45;&gt;hidebound.specifications -->
<g id="edge9" class="edge">
<title>hidebound.traits&#45;&gt;hidebound.specifications</title>
<path fill="none" stroke="#b6ecf3" d="M304.9332,-72.299C418.9774,-74.1454 642.3559,-83.2395 827,-124 858.8263,-131.0257 893.196,-143.3041 920.3182,-154.1659"/>
<polygon fill="#b6ecf3" stroke="#b6ecf3" points="919.0115,-157.4128 929.5933,-157.9378 921.6485,-150.9285 919.0115,-157.4128"/>
</g>
<!-- hidebound.validators&#45;&gt;hidebound.config -->
<g id="edge10" class="edge">
<title>hidebound.validators&#45;&gt;hidebound.config</title>
<path fill="none" stroke="#b6ecf3" d="M538.3064,-256.0483C614.9932,-272.984 729.6867,-300.5277 827,-333 859.4222,-343.8189 894.8642,-358.6074 922.4135,-370.7952"/>
<polygon fill="#b6ecf3" stroke="#b6ecf3" points="921.2525,-374.1097 931.811,-374.9869 924.1041,-367.7168 921.2525,-374.1097"/>
</g>
<!-- hidebound.validators&#45;&gt;hidebound.specification_base -->
<g id="edge11" class="edge">
<title>hidebound.validators&#45;&gt;hidebound.specification_base</title>
<path fill="none" stroke="#b6ecf3" d="M517.89,-256.0644C526.7401,-259.9254 535.3806,-264.5322 543,-270 564.0922,-285.1359 557.9293,-300.8342 579,-316 591.547,-325.0308 606.126,-332.3619 620.7858,-338.2607"/>
<polygon fill="#b6ecf3" stroke="#b6ecf3" points="619.8198,-341.6382 630.4105,-341.9337 622.3156,-335.0983 619.8198,-341.6382"/>
</g>
<!-- hidebound.validators&#45;&gt;hidebound.specifications -->
<g id="edge12" class="edge">
<title>hidebound.validators&#45;&gt;hidebound.specifications</title>
<path fill="none" stroke="#b6ecf3" d="M543.3672,-227.9745C619.3318,-219.5307 730.2582,-206.9501 827,-195 835.3358,-193.9703 843.9409,-192.8856 852.6029,-191.7779"/>
<polygon fill="#b6ecf3" stroke="#b6ecf3" points="853.3128,-195.2155 862.7848,-190.4688 852.4201,-188.2727 853.3128,-195.2155"/>
</g>
<!-- numpy -->
<g id="node10" class="node">
<title>numpy</title>
<polygon fill="#343434" stroke="#343434" points="732,-756 674,-756 674,-720 732,-720 732,-756"/>
<text text-anchor="middle" x="703" y="-734.3" font-family="Courier,monospace" font-size="14.00" fill="#de958e">numpy</text>
</g>
<!-- numpy&#45;&gt;hidebound.database -->
<g id="edge13" class="edge">
<title>numpy&#45;&gt;hidebound.database</title>
<path fill="none" stroke="#de958e" d="M732.0943,-731.5303C757.4034,-725.6565 794.9463,-716.3494 827,-706 857.9607,-696.0035 891.9023,-682.8614 918.9996,-671.8209"/>
<polygon fill="#de958e" stroke="#de958e" points="920.3598,-675.046 928.2827,-668.012 917.7026,-668.5699 920.3598,-675.046"/>
</g>
<!-- humanfriendly -->
<g id="node11" class="node">
<title>humanfriendly</title>
<polygon fill="#343434" stroke="#343434" points="292,-653 168,-653 168,-617 292,-617 292,-653"/>
<text text-anchor="middle" x="230" y="-631.3" font-family="Courier,monospace" font-size="14.00" fill="#de958e">humanfriendly</text>
</g>
<!-- humanfriendly&#45;&gt;hidebound.tools -->
<g id="edge14" class="edge">
<title>humanfriendly&#45;&gt;hidebound.tools</title>
<path fill="none" stroke="#de958e" d="M292.1346,-639.1983C316.7077,-640.8586 345.2729,-642.7887 371.4025,-644.5542"/>
<polygon fill="#de958e" stroke="#de958e" points="371.4511,-648.0654 381.6643,-645.2476 371.923,-641.0813 371.4511,-648.0654"/>
</g>
<!-- pandas -->
<g id="node12" class="node">
<title>pandas</title>
<polygon fill="#343434" stroke="#343434" points="263,-745 197,-745 197,-709 263,-709 263,-745"/>
<text text-anchor="middle" x="230" y="-723.3" font-family="Courier,monospace" font-size="14.00" fill="#de958e">pandas</text>
</g>
<!-- pandas&#45;&gt;hidebound.database -->
<g id="edge15" class="edge">
<title>pandas&#45;&gt;hidebound.database</title>
<path fill="none" stroke="#de958e" d="M263.2563,-723.5419C370.7604,-712.3632 711.5428,-676.9274 877.6634,-659.6535"/>
<polygon fill="#de958e" stroke="#de958e" points="878.2799,-663.1084 887.8642,-658.5928 877.5558,-656.1459 878.2799,-663.1084"/>
</g>
<!-- pandas&#45;&gt;hidebound.tools -->
<g id="edge16" class="edge">
<title>pandas&#45;&gt;hidebound.tools</title>
<path fill="none" stroke="#de958e" d="M263.034,-716.0678C281.3288,-709.9644 304.46,-702.167 325,-695 341.0616,-689.3956 344.9759,-687.7106 361,-682 370.6832,-678.5492 380.9547,-674.9134 390.9756,-671.3798"/>
<polygon fill="#de958e" stroke="#de958e" points="392.2097,-674.656 400.479,-668.0326 389.8842,-668.0535 392.2097,-674.656"/>
</g>
<!-- hidebound -->
<g id="node13" class="node">
<title>hidebound</title>
<polygon fill="#343434" stroke="#343434" points="95,-373 4,-373 4,-337 95,-337 95,-373"/>
<text text-anchor="middle" x="49.5" y="-351.3" font-family="Courier,monospace" font-size="14.00" fill="#a0d17b">hidebound</text>
</g>
<!-- hidebound&#45;&gt;hidebound.config -->
<g id="edge17" class="edge">
<title>hidebound&#45;&gt;hidebound.config</title>
<path fill="none" stroke="#a0d17b" d="M50.9034,-373.2438C55.1552,-414.2343 71.8107,-513.2922 135,-555 250.7913,-631.4276 604.0869,-544.9459 827,-469 865.4065,-455.915 905.9848,-433.5214 934.1537,-416.4216"/>
<polygon fill="#a0d17b" stroke="#a0d17b" points="936.162,-419.2955 942.845,-411.0743 932.4938,-413.3335 936.162,-419.2955"/>
</g>
<!-- hidebound&#45;&gt;hidebound.database -->
<g id="edge18" class="edge">
<title>hidebound&#45;&gt;hidebound.database</title>
<path fill="none" stroke="#a0d17b" d="M50.5078,-373.0143C54.893,-444.1615 74.8733,-704.1488 135,-754 253.3963,-852.1627 681.8942,-815.9696 827,-765 877.1107,-747.3982 922.6925,-704.1094 948.4702,-675.9516"/>
<polygon fill="#a0d17b" stroke="#a0d17b" points="951.1316,-678.2262 955.2029,-668.4449 945.9205,-673.5524 951.1316,-678.2262"/>
</g>
<!-- hidebound&#45;&gt;hidebound.parser -->
<g id="edge19" class="edge">
<title>hidebound&#45;&gt;hidebound.parser</title>
<path fill="none" stroke="#a0d17b" d="M95.0478,-349.1961C110.3257,-347.2494 127.8902,-345.0112 145.1874,-342.8071"/>
<polygon fill="#a0d17b" stroke="#a0d17b" points="145.8442,-346.2518 155.3216,-341.5158 144.9593,-339.308 145.8442,-346.2518"/>
</g>
<!-- hidebound&#45;&gt;hidebound.specification_base -->
<g id="edge20" class="edge">
<title>hidebound&#45;&gt;hidebound.specification_base</title>
<path fill="none" stroke="#a0d17b" d="M95.19,-357.5181C108.0611,-358.1241 122.0756,-358.6865 135,-359 283.3259,-362.5984 453.503,-362.3124 568.6104,-361.465"/>
<polygon fill="#a0d17b" stroke="#a0d17b" points="568.907,-364.963 578.88,-361.3869 568.8536,-357.9632 568.907,-364.963"/>
</g>
<!-- hidebound&#45;&gt;hidebound.specifications -->
<g id="edge21" class="edge">
<title>hidebound&#45;&gt;hidebound.specifications</title>
<path fill="none" stroke="#a0d17b" d="M62.239,-336.8737C72.9817,-321.0515 88.2767,-297.2089 99,-275 119.5389,-232.4622 97.4632,-203.6757 135,-175 244.1728,-91.5992 649.2384,-132.1707 852.5304,-158.9121"/>
<polygon fill="#a0d17b" stroke="#a0d17b" points="852.278,-162.4092 862.6513,-160.2539 853.1981,-155.4699 852.278,-162.4092"/>
</g>
<!-- hidebound&#45;&gt;hidebound.tools -->
<g id="edge22" class="edge">
<title>hidebound&#45;&gt;hidebound.tools</title>
<path fill="none" stroke="#a0d17b" d="M51.7322,-373.3331C59.5226,-433.9382 87.6369,-626.0251 135,-662 210.6608,-719.4686 328.3057,-694.0327 396.9899,-671.3312"/>
<polygon fill="#a0d17b" stroke="#a0d17b" points="398.4155,-674.5434 406.7576,-668.0119 396.1632,-667.9157 398.4155,-674.5434"/>
</g>
<!-- hidebound&#45;&gt;hidebound.traits -->
<g id="edge23" class="edge">
<title>hidebound&#45;&gt;hidebound.traits</title>
<path fill="none" stroke="#a0d17b" d="M62.9182,-336.7714C73.933,-321.0788 89.2521,-297.4761 99,-275 123.3662,-218.818 100.4195,-192.5402 135,-142 147.9244,-123.1107 167.6607,-107.3768 185.8021,-95.6417"/>
<polygon fill="#a0d17b" stroke="#a0d17b" points="187.8996,-98.459 194.5429,-90.2057 184.2028,-92.5147 187.8996,-98.459"/>
</g>
<!-- hidebound&#45;&gt;hidebound.validators -->
<g id="edge24" class="edge">
<title>hidebound&#45;&gt;hidebound.validators</title>
<path fill="none" stroke="#a0d17b" d="M75.3443,-336.9298C91.7573,-326.2189 113.8274,-313.1811 135,-305 204.7274,-278.0573 287.4849,-261.0323 350.9552,-250.8886"/>
<polygon fill="#a0d17b" stroke="#a0d17b" points="351.6336,-254.3251 360.9712,-249.3192 350.5499,-247.4095 351.6336,-254.3251"/>
</g>
<!-- schematics -->
<g id="node14" class="node">
<title>schematics</title>
<polygon fill="#343434" stroke="#343434" points="501.5,-462 402.5,-462 402.5,-426 501.5,-426 501.5,-462"/>
<text text-anchor="middle" x="452" y="-440.3" font-family="Courier,monospace" font-size="14.00" fill="#de958e">schematics</text>
</g>
<!-- schematics&#45;&gt;hidebound.config -->
<g id="edge25" class="edge">
<title>schematics&#45;&gt;hidebound.config</title>
<path fill="none" stroke="#de958e" d="M501.716,-439.1099C590.3254,-430.3942 776.4779,-412.0841 885.6619,-401.3447"/>
<polygon fill="#de958e" stroke="#de958e" points="886.0479,-404.8237 895.6572,-400.3616 885.3626,-397.8574 886.0479,-404.8237"/>
</g>
<!-- schematics&#45;&gt;hidebound.specification_base -->
<g id="edge26" class="edge">
<title>schematics&#45;&gt;hidebound.specification_base</title>
<path fill="none" stroke="#de958e" d="M501.5895,-427.4043C541.0879,-414.1857 596.6552,-395.5895 639.4215,-381.2773"/>
<polygon fill="#de958e" stroke="#de958e" points="640.7964,-384.508 649.1686,-378.0153 638.5748,-377.8699 640.7964,-384.508"/>
</g>
<!-- schematics.types -->
<g id="node15" class="node">
<title>schematics.types</title>
<polygon fill="#343434" stroke="#343434" points="526.5,-202 377.5,-202 377.5,-166 526.5,-166 526.5,-202"/>
<text text-anchor="middle" x="452" y="-180.3" font-family="Courier,monospace" font-size="14.00" fill="#de958e">schematics.types</text>
</g>
<!-- schematics.types&#45;&gt;hidebound.config -->
<g id="edge27" class="edge">
<title>schematics.types&#45;&gt;hidebound.config</title>
<path fill="none" stroke="#de958e" d="M526.8934,-195.2733C620.7008,-210.199 775.3964,-237.7086 827,-264 877.2023,-289.5775 923.3789,-337.2268 949.1508,-366.9064"/>
<polygon fill="#de958e" stroke="#de958e" points="946.7091,-369.4368 955.8651,-374.7678 952.0319,-364.8907 946.7091,-369.4368"/>
</g>
<!-- schematics.types&#45;&gt;hidebound.specification_base -->
<g id="edge28" class="edge">
<title>schematics.types&#45;&gt;hidebound.specification_base</title>
<path fill="none" stroke="#de958e" d="M524.3318,-202.0512C530.8121,-204.6771 537.1336,-207.648 543,-211 600.118,-243.637 653.2311,-300.3748 681.5829,-333.6223"/>
<polygon fill="#de958e" stroke="#de958e" points="679.1285,-336.1415 688.2449,-341.5399 684.4847,-331.6347 679.1285,-336.1415"/>
</g>
<!-- schematics.types&#45;&gt;hidebound.specifications -->
<g id="edge29" class="edge">
<title>schematics.types&#45;&gt;hidebound.specifications</title>
<path fill="none" stroke="#de958e" d="M526.5643,-182.8495C611.7714,-181.5349 752.3399,-179.366 852.4655,-177.8212"/>
<polygon fill="#de958e" stroke="#de958e" points="852.6897,-181.3182 862.6345,-177.6643 852.5816,-174.3191 852.6897,-181.3182"/>
</g>
<!-- schematics.exceptions -->
<g id="node16" class="node">
<title>schematics.exceptions</title>
<polygon fill="#343434" stroke="#343434" points="325,-546 135,-546 135,-510 325,-510 325,-546"/>
<text text-anchor="middle" x="230" y="-524.3" font-family="Courier,monospace" font-size="14.00" fill="#de958e">schematics.exceptions</text>
</g>
<!-- schematics.exceptions&#45;&gt;hidebound.config -->
<g id="edge30" class="edge">
<title>schematics.exceptions&#45;&gt;hidebound.config</title>
<path fill="none" stroke="#de958e" d="M325.2328,-516.2557C443.5864,-500.8791 651.4046,-471.3136 827,-433 851.542,-427.6451 878.1172,-420.5959 901.6503,-413.9087"/>
<polygon fill="#de958e" stroke="#de958e" points="902.8889,-417.1945 911.5348,-411.0709 900.9573,-410.4663 902.8889,-417.1945"/>
</g>
<!-- schematics.exceptions&#45;&gt;hidebound.database -->
<g id="edge31" class="edge">
<title>schematics.exceptions&#45;&gt;hidebound.database</title>
<path fill="none" stroke="#de958e" d="M325.2915,-543.6996C468.2453,-567.2518 736.4811,-611.4446 877.8647,-634.738"/>
<polygon fill="#de958e" stroke="#de958e" points="877.3857,-638.2062 887.8217,-636.3784 878.5237,-631.2993 877.3857,-638.2062"/>
</g>
<!-- schematics.exceptions&#45;&gt;hidebound.specification_base -->
<g id="edge32" class="edge">
<title>schematics.exceptions&#45;&gt;hidebound.specification_base</title>
<path fill="none" stroke="#de958e" d="M245.6658,-509.5802C268.331,-484.2619 312.8592,-439.3145 361,-417 397.5297,-400.0675 489.2744,-385.2663 568.5509,-374.9928"/>
<polygon fill="#de958e" stroke="#de958e" points="569.1747,-378.4416 578.6491,-373.6996 568.2855,-371.4983 569.1747,-378.4416"/>
</g>
<!-- schematics.exceptions&#45;&gt;hidebound.tools -->
<g id="edge33" class="edge">
<title>schematics.exceptions&#45;&gt;hidebound.tools</title>
<path fill="none" stroke="#de958e" d="M262.7569,-546.0015C301.8604,-567.4908 367.3227,-603.4656 410.0823,-626.9642"/>
<polygon fill="#de958e" stroke="#de958e" points="408.6592,-630.1758 419.1087,-631.9246 412.0306,-624.0411 408.6592,-630.1758"/>
</g>
<!-- schematics.exceptions&#45;&gt;hidebound.validators -->
<g id="edge34" class="edge">
<title>schematics.exceptions&#45;&gt;hidebound.validators</title>
<path fill="none" stroke="#de958e" d="M243.8871,-509.8592C281.8865,-460.2204 387.686,-322.0138 432.036,-264.0791"/>
<polygon fill="#de958e" stroke="#de958e" points="434.8187,-266.2019 438.1182,-256.1339 429.2604,-261.9469 434.8187,-266.2019"/>
</g>
<!-- pyparsing -->
<g id="node17" class="node">
<title>pyparsing</title>
<polygon fill="#343434" stroke="#343434" points="95,-266 4,-266 4,-230 95,-230 95,-266"/>
<text text-anchor="middle" x="49.5" y="-244.3" font-family="Courier,monospace" font-size="14.00" fill="#de958e">pyparsing</text>
</g>
<!-- pyparsing&#45;&gt;hidebound.parser -->
<g id="edge35" class="edge">
<title>pyparsing&#45;&gt;hidebound.parser</title>
<path fill="none" stroke="#de958e" d="M88.2218,-266.0201C115.609,-278.7654 152.5167,-295.9413 181.8098,-309.5735"/>
<polygon fill="#de958e" stroke="#de958e" points="180.4882,-312.8189 191.0313,-313.865 183.4417,-306.4725 180.4882,-312.8189"/>
</g>
<!-- pyparsing&#45;&gt;hidebound.specification_base -->
<g id="edge36" class="edge">
<title>pyparsing&#45;&gt;hidebound.specification_base</title>
<path fill="none" stroke="#de958e" d="M95.1931,-255.8311C196.3237,-273.1634 441.671,-315.2122 587.8574,-340.2663"/>
<polygon fill="#de958e" stroke="#de958e" points="587.3266,-343.7263 597.7741,-341.9659 588.5091,-336.8269 587.3266,-343.7263"/>
</g>
<!-- pyparsing&#45;&gt;hidebound.validators -->
<g id="edge37" class="edge">
<title>pyparsing&#45;&gt;hidebound.validators</title>
<path fill="none" stroke="#de958e" d="M63.9038,-229.7949C79.301,-211.9438 105.5172,-185.8741 135,-175 214.2274,-145.7787 246.9835,-142.6845 325,-175 345.905,-183.6591 341.5565,-199.4264 361,-211 363.8321,-212.6858 366.7771,-214.273 369.8001,-215.7667"/>
<polygon fill="#de958e" stroke="#de958e" points="368.5155,-219.0272 379.0681,-219.9724 371.4082,-212.6528 368.5155,-219.0272"/>
</g>
<!-- wrapt -->
<g id="node18" class="node">
<title>wrapt</title>
<polygon fill="#343434" stroke="#343434" points="259,-220 201,-220 201,-184 259,-184 259,-220"/>
<text text-anchor="middle" x="230" y="-198.3" font-family="Courier,monospace" font-size="14.00" fill="#de958e">wrapt</text>
</g>
<!-- wrapt&#45;&gt;hidebound.validators -->
<g id="edge38" class="edge">
<title>wrapt&#45;&gt;hidebound.validators</title>
<path fill="none" stroke="#de958e" d="M259.0226,-206.7064C282.4553,-210.5063 316.9007,-216.092 350.2287,-221.4966"/>
<polygon fill="#de958e" stroke="#de958e" points="350.0913,-225.0199 360.5226,-223.1658 351.2118,-218.1102 350.0913,-225.0199"/>
</g>
<!-- skimage.io -->
<g id="node19" class="node">
<title>skimage.io</title>
<polygon fill="#343434" stroke="#343434" points="99,-90 0,-90 0,-54 99,-54 99,-90"/>
<text text-anchor="middle" x="49.5" y="-68.3" font-family="Courier,monospace" font-size="14.00" fill="#de958e">skimage.io</text>
</g>
<!-- skimage.io&#45;&gt;hidebound.traits -->
<g id="edge39" class="edge">
<title>skimage.io&#45;&gt;hidebound.traits</title>
<path fill="none" stroke="#de958e" d="M99.3002,-72C113.5097,-72 129.4059,-72 145.0865,-72"/>
<polygon fill="#de958e" stroke="#de958e" points="145.3399,-75.5001 155.3399,-72 145.3399,-68.5001 145.3399,-75.5001"/>
</g>
</g>
</svg>
