<?xml version="1.0" encoding="UTF-8" standalone="no"?>
<!DOCTYPE svg PUBLIC "-//W3C//DTD SVG 1.1//EN"
 "http://www.w3.org/Graphics/SVG/1.1/DTD/svg11.dtd">
<!-- Generated by graphviz version 2.40.1 (20161225.0304)
 -->
<!-- Title: %3 Pages: 1 -->
<svg width="1679pt" height="332pt"
 viewBox="0.00 0.00 1678.74 332.00" xmlns="http://www.w3.org/2000/svg" xmlns:xlink="http://www.w3.org/1999/xlink">
<g id="graph0" class="graph" transform="scale(1 1) rotate(0) translate(4 328)">
<title>%3</title>
<polygon fill="#242424" stroke="transparent" points="-4,4 -4,-328 1674.743,-328 1674.743,4 -4,4"/>
<!-- cli -->
<g id="node1" class="node">
<title>cli</title>
<polygon fill="#343434" stroke="#343434" points="54,-324 0,-324 0,-288 54,-288 54,-324"/>
<text text-anchor="middle" x="27" y="-302.3" font-family="Courier,monospace" font-size="14.00" fill="#b6ecf3">cli</text>
</g>
<!-- nerve.errors -->
<g id="node2" class="node">
<title>nerve.errors</title>
<polygon fill="#343434" stroke="#343434" points="1029,-252 913,-252 913,-216 1029,-216 1029,-252"/>
<text text-anchor="middle" x="971" y="-230.3" font-family="Courier,monospace" font-size="14.00" fill="#b6ecf3">nerve.errors</text>
</g>
<!-- nerve.metadata -->
<g id="node3" class="node">
<title>nerve.metadata</title>
<polygon fill="#343434" stroke="#343434" points="1447,-36 1315,-36 1315,0 1447,0 1447,-36"/>
<text text-anchor="middle" x="1381" y="-14.3" font-family="Courier,monospace" font-size="14.00" fill="#b6ecf3">nerve.metadata</text>
</g>
<!-- nerve.parser -->
<g id="node4" class="node">
<title>nerve.parser</title>
<polygon fill="#343434" stroke="#343434" points="176,-252 60,-252 60,-216 176,-216 176,-252"/>
<text text-anchor="middle" x="118" y="-230.3" font-family="Courier,monospace" font-size="14.00" fill="#b6ecf3">nerve.parser</text>
</g>
<!-- nerve.spec.base -->
<g id="node5" class="node">
<title>nerve.spec.base</title>
<polygon fill="#343434" stroke="#343434" points="958,-108 818,-108 818,-72 958,-72 958,-108"/>
<text text-anchor="middle" x="888" y="-86.3" font-family="Courier,monospace" font-size="14.00" fill="#b6ecf3">nerve.spec.base</text>
</g>
<!-- nerve.spec.base&#45;&gt;nerve.metadata -->
<g id="edge1" class="edge">
<title>nerve.spec.base&#45;&gt;nerve.metadata</title>
<path fill="none" stroke="#b6ecf3" d="M958.1113,-79.7606C1049.8069,-66.369 1209.887,-42.9901 1304.5937,-29.1587"/>
<polygon fill="#b6ecf3" stroke="#b6ecf3" points="1305.2901,-32.5942 1314.6793,-27.6858 1304.2785,-25.6677 1305.2901,-32.5942"/>
</g>
<!-- nerve.spec.specifications -->
<g id="node6" class="node">
<title>nerve.spec.specifications</title>
<polygon fill="#343434" stroke="#343434" points="1141.5,-36 918.5,-36 918.5,0 1141.5,0 1141.5,-36"/>
<text text-anchor="middle" x="1030" y="-14.3" font-family="Courier,monospace" font-size="14.00" fill="#b6ecf3">nerve.spec.specifications</text>
</g>
<!-- nerve.spec.base&#45;&gt;nerve.spec.specifications -->
<g id="edge2" class="edge">
<title>nerve.spec.base&#45;&gt;nerve.spec.specifications</title>
<path fill="none" stroke="#b6ecf3" d="M923.8326,-71.8314C942.4157,-62.4089 965.2989,-50.8062 985.0565,-40.7883"/>
<polygon fill="#b6ecf3" stroke="#b6ecf3" points="986.8427,-43.8069 994.1789,-36.1628 983.677,-37.5635 986.8427,-43.8069"/>
</g>
<!-- nerve.spec.traits -->
<g id="node7" class="node">
<title>nerve.spec.traits</title>
<polygon fill="#343434" stroke="#343434" points="1333.5,-108 1176.5,-108 1176.5,-72 1333.5,-72 1333.5,-108"/>
<text text-anchor="middle" x="1255" y="-86.3" font-family="Courier,monospace" font-size="14.00" fill="#b6ecf3">nerve.spec.traits</text>
</g>
<!-- nerve.spec.validators -->
<g id="node8" class="node">
<title>nerve.spec.validators</title>
<polygon fill="#343434" stroke="#343434" points="1044,-180 854,-180 854,-144 1044,-144 1044,-180"/>
<text text-anchor="middle" x="949" y="-158.3" font-family="Courier,monospace" font-size="14.00" fill="#b6ecf3">nerve.spec.validators</text>
</g>
<!-- nerve.spec.validators&#45;&gt;nerve.spec.base -->
<g id="edge3" class="edge">
<title>nerve.spec.validators&#45;&gt;nerve.spec.base</title>
<path fill="none" stroke="#b6ecf3" d="M933.6071,-143.8314C926.5096,-135.454 917.952,-125.3531 910.176,-116.1749"/>
<polygon fill="#b6ecf3" stroke="#b6ecf3" points="912.7348,-113.7807 903.6001,-108.4133 907.3939,-118.3056 912.7348,-113.7807"/>
</g>
<!-- nerve.utils -->
<g id="node9" class="node">
<title>nerve.utils</title>
<polygon fill="#343434" stroke="#343434" points="1535.5,-108 1428.5,-108 1428.5,-72 1535.5,-72 1535.5,-108"/>
<text text-anchor="middle" x="1482" y="-86.3" font-family="Courier,monospace" font-size="14.00" fill="#b6ecf3">nerve.utils</text>
</g>
<!-- pyparsing -->
<g id="node10" class="node">
<title>pyparsing</title>
<polygon fill="#343434" stroke="#343434" points="163.5,-324 72.5,-324 72.5,-288 163.5,-288 163.5,-324"/>
<text text-anchor="middle" x="118" y="-302.3" font-family="Courier,monospace" font-size="14.00" fill="#de958e">pyparsing</text>
</g>
<!-- pyparsing&#45;&gt;nerve.parser -->
<g id="edge4" class="edge">
<title>pyparsing&#45;&gt;nerve.parser</title>
<path fill="none" stroke="#de958e" d="M118,-287.8314C118,-280.131 118,-270.9743 118,-262.4166"/>
<polygon fill="#de958e" stroke="#de958e" points="121.5001,-262.4132 118,-252.4133 114.5001,-262.4133 121.5001,-262.4132"/>
</g>
<!-- nerve -->
<g id="node11" class="node">
<title>nerve</title>
<polygon fill="#343434" stroke="#343434" points="1086,-324 1028,-324 1028,-288 1086,-288 1086,-324"/>
<text text-anchor="middle" x="1057" y="-302.3" font-family="Courier,monospace" font-size="14.00" fill="#a0d17b">nerve</text>
</g>
<!-- nerve&#45;&gt;nerve.errors -->
<g id="edge5" class="edge">
<title>nerve&#45;&gt;nerve.errors</title>
<path fill="none" stroke="#a0d17b" d="M1035.2986,-287.8314C1024.8079,-279.0485 1012.0545,-268.3712 1000.6806,-258.8489"/>
<polygon fill="#a0d17b" stroke="#a0d17b" points="1002.6089,-255.8986 992.6945,-252.1628 998.1153,-261.2659 1002.6089,-255.8986"/>
</g>
<!-- nerve&#45;&gt;nerve.metadata -->
<g id="edge6" class="edge">
<title>nerve&#45;&gt;nerve.metadata</title>
<path fill="none" stroke="#a0d17b" d="M1086.119,-304.6528C1196.3501,-298.8779 1585.4217,-272.1498 1657,-180 1718.1046,-101.3341 1558.2637,-53.3987 1456.9712,-31.7326"/>
<polygon fill="#a0d17b" stroke="#a0d17b" points="1457.5625,-28.2806 1447.0572,-29.6554 1456.1269,-35.1318 1457.5625,-28.2806"/>
</g>
<!-- nerve&#45;&gt;nerve.parser -->
<g id="edge7" class="edge">
<title>nerve&#45;&gt;nerve.parser</title>
<path fill="none" stroke="#a0d17b" d="M1027.5705,-304.891C895.5273,-299.804 356.9216,-277.8412 190,-252 188.7466,-251.806 187.4831,-251.6002 186.2122,-251.384"/>
<polygon fill="#a0d17b" stroke="#a0d17b" points="186.8401,-247.9408 176.3667,-249.5401 185.5515,-254.8212 186.8401,-247.9408"/>
</g>
<!-- nerve&#45;&gt;nerve.spec.base -->
<g id="edge8" class="edge">
<title>nerve&#45;&gt;nerve.spec.base</title>
<path fill="none" stroke="#a0d17b" d="M1027.5811,-303.7971C885.8259,-292.891 277.8485,-242.6856 224,-180 213.5742,-167.8632 213.1545,-155.7633 224,-144 243.541,-122.8053 635.4973,-101.866 807.8516,-93.6433"/>
<polygon fill="#a0d17b" stroke="#a0d17b" points="808.0627,-97.1373 817.8856,-93.1671 807.7309,-90.1452 808.0627,-97.1373"/>
</g>
<!-- nerve&#45;&gt;nerve.spec.validators -->
<g id="edge9" class="edge">
<title>nerve&#45;&gt;nerve.spec.validators</title>
<path fill="none" stroke="#a0d17b" d="M1057.2711,-287.7616C1056.685,-268.2919 1053.1477,-237.3647 1038,-216 1028.9964,-203.3011 1015.9764,-193.0345 1002.6619,-185.001"/>
<polygon fill="#a0d17b" stroke="#a0d17b" points="1004.3349,-181.9262 993.9091,-180.0412 1000.8838,-188.0164 1004.3349,-181.9262"/>
</g>
<!-- nerve&#45;&gt;nerve.utils -->
<g id="edge10" class="edge">
<title>nerve&#45;&gt;nerve.utils</title>
<path fill="none" stroke="#a0d17b" d="M1086.179,-304.4243C1156.4749,-299.1258 1337.1984,-276.3552 1443,-180 1460.9046,-163.6939 1470.9519,-137.7309 1476.3463,-117.872"/>
<polygon fill="#a0d17b" stroke="#a0d17b" points="1479.7531,-118.6751 1478.7601,-108.1269 1472.9584,-116.9921 1479.7531,-118.6751"/>
</g>
<!-- nerve.spec -->
<g id="node12" class="node">
<title>nerve.spec</title>
<polygon fill="#343434" stroke="#343434" points="1184.5,-252 1085.5,-252 1085.5,-216 1184.5,-216 1184.5,-252"/>
<text text-anchor="middle" x="1135" y="-230.3" font-family="Courier,monospace" font-size="14.00" fill="#a0d17b">nerve.spec</text>
</g>
<!-- nerve&#45;&gt;nerve.spec -->
<g id="edge11" class="edge">
<title>nerve&#45;&gt;nerve.spec</title>
<path fill="none" stroke="#a0d17b" d="M1076.6827,-287.8314C1086.1051,-279.1337 1097.5401,-268.5783 1107.7796,-259.1265"/>
<polygon fill="#a0d17b" stroke="#a0d17b" points="1110.3495,-261.5175 1115.3236,-252.1628 1105.6016,-256.3738 1110.3495,-261.5175"/>
</g>
<!-- nerve.spec&#45;&gt;nerve.metadata -->
<g id="edge12" class="edge">
<title>nerve.spec&#45;&gt;nerve.metadata</title>
<path fill="none" stroke="#a0d17b" d="M1184.6428,-223.7609C1230.099,-213.5309 1293.0899,-196.9289 1312,-180 1351.698,-144.4612 1369.3245,-82.221 1376.5321,-46.1118"/>
<polygon fill="#a0d17b" stroke="#a0d17b" points="1379.9817,-46.7053 1378.3732,-36.2332 1373.1002,-45.4227 1379.9817,-46.7053"/>
</g>
<!-- nerve.spec&#45;&gt;nerve.spec.base -->
<g id="edge13" class="edge">
<title>nerve.spec&#45;&gt;nerve.spec.base</title>
<path fill="none" stroke="#a0d17b" d="M1122.9062,-215.881C1108.5052,-195.629 1082.6412,-163.1702 1053,-144 1027.4171,-127.4545 996.3123,-115.556 968.0348,-107.2143"/>
<polygon fill="#a0d17b" stroke="#a0d17b" points="968.7402,-103.7763 958.1644,-104.4103 966.8273,-110.5098 968.7402,-103.7763"/>
</g>
<!-- nerve.spec&#45;&gt;nerve.spec.specifications -->
<g id="edge14" class="edge">
<title>nerve.spec&#45;&gt;nerve.spec.specifications</title>
<path fill="none" stroke="#a0d17b" d="M1126.2284,-215.9555C1107.8148,-178.0762 1065.0398,-90.0818 1043.2582,-45.274"/>
<polygon fill="#a0d17b" stroke="#a0d17b" points="1046.3403,-43.6086 1038.8205,-36.1451 1040.0447,-46.6689 1046.3403,-43.6086"/>
</g>
<!-- nerve.spec&#45;&gt;nerve.spec.traits -->
<g id="edge15" class="edge">
<title>nerve.spec&#45;&gt;nerve.spec.traits</title>
<path fill="none" stroke="#a0d17b" d="M1184.5862,-223.984C1226.8128,-214.329 1282.7007,-198.4881 1296,-180 1310.3003,-160.1205 1295.9402,-134.4565 1280.4162,-115.6239"/>
<polygon fill="#a0d17b" stroke="#a0d17b" points="1282.9833,-113.2425 1273.7719,-108.0079 1277.7085,-117.8443 1282.9833,-113.2425"/>
</g>
<!-- nerve.spec&#45;&gt;nerve.spec.validators -->
<g id="edge16" class="edge">
<title>nerve.spec&#45;&gt;nerve.spec.validators</title>
<path fill="none" stroke="#a0d17b" d="M1088.0643,-215.8314C1062.8563,-206.0734 1031.6074,-193.977 1005.1209,-183.7242"/>
<polygon fill="#a0d17b" stroke="#a0d17b" points="1006.1873,-180.384 995.5981,-180.038 1003.6603,-186.912 1006.1873,-180.384"/>
</g>
<!-- yaml -->
<g id="node13" class="node">
<title>yaml</title>
<polygon fill="#343434" stroke="#343434" points="1434,-180 1380,-180 1380,-144 1434,-144 1434,-180"/>
<text text-anchor="middle" x="1407" y="-158.3" font-family="Courier,monospace" font-size="14.00" fill="#de958e">yaml</text>
</g>
<!-- yaml&#45;&gt;nerve.metadata -->
<g id="edge17" class="edge">
<title>yaml&#45;&gt;nerve.metadata</title>
<path fill="none" stroke="#de958e" d="M1403.7071,-143.7623C1399.2529,-119.0928 1391.2663,-74.8598 1386.0507,-45.9731"/>
<polygon fill="#de958e" stroke="#de958e" points="1389.4874,-45.3086 1384.2662,-36.0896 1382.5988,-46.5524 1389.4874,-45.3086"/>
</g>
<!-- yaml&#45;&gt;nerve.spec.traits -->
<g id="edge18" class="edge">
<title>yaml&#45;&gt;nerve.spec.traits</title>
<path fill="none" stroke="#de958e" d="M1379.8254,-149.1278C1358.3027,-138.9329 1327.7203,-124.4465 1302.2138,-112.3645"/>
<polygon fill="#de958e" stroke="#de958e" points="1303.6083,-109.1522 1293.0725,-108.0344 1300.6116,-115.4784 1303.6083,-109.1522"/>
</g>
<!-- yaml&#45;&gt;nerve.utils -->
<g id="edge19" class="edge">
<title>yaml&#45;&gt;nerve.utils</title>
<path fill="none" stroke="#de958e" d="M1425.9257,-143.8314C1434.9857,-135.1337 1445.9809,-124.5783 1455.8265,-115.1265"/>
<polygon fill="#de958e" stroke="#de958e" points="1458.2904,-117.613 1463.0804,-108.1628 1453.4426,-112.5633 1458.2904,-117.613"/>
</g>
<!-- nerve.core.utils -->
<g id="node14" class="node">
<title>nerve.core.utils</title>
<polygon fill="#343434" stroke="#343434" points="1286.5,-180 1137.5,-180 1137.5,-144 1286.5,-144 1286.5,-180"/>
<text text-anchor="middle" x="1212" y="-158.3" font-family="Courier,monospace" font-size="14.00" fill="#de958e">nerve.core.utils</text>
</g>
<!-- nerve.core.utils&#45;&gt;nerve.metadata -->
<g id="edge20" class="edge">
<title>nerve.core.utils&#45;&gt;nerve.metadata</title>
<path fill="none" stroke="#de958e" d="M1191.9057,-143.8554C1173.1889,-124.7431 1150.5904,-94.3741 1168,-72 1184.9547,-50.2106 1250.8273,-35.7981 1304.8819,-27.3863"/>
<polygon fill="#de958e" stroke="#de958e" points="1305.4579,-30.8391 1314.8231,-25.8851 1304.4126,-23.9176 1305.4579,-30.8391"/>
</g>
<!-- nerve.core.utils&#45;&gt;nerve.spec.base -->
<g id="edge21" class="edge">
<title>nerve.core.utils&#45;&gt;nerve.spec.base</title>
<path fill="none" stroke="#de958e" d="M1137.261,-145.3913C1086.6092,-134.1354 1019.7351,-119.2745 968.0073,-107.7794"/>
<polygon fill="#de958e" stroke="#de958e" points="968.7241,-104.3534 958.203,-105.6007 967.2056,-111.1867 968.7241,-104.3534"/>
</g>
<!-- nerve.core.utils&#45;&gt;nerve.spec.traits -->
<g id="edge22" class="edge">
<title>nerve.core.utils&#45;&gt;nerve.spec.traits</title>
<path fill="none" stroke="#de958e" d="M1222.8507,-143.8314C1227.7023,-135.7079 1233.5217,-125.9637 1238.868,-117.0118"/>
<polygon fill="#de958e" stroke="#de958e" points="1241.8806,-118.7933 1244.0032,-108.4133 1235.8708,-115.2041 1241.8806,-118.7933"/>
</g>
<!-- nerve.core.errors -->
<g id="node15" class="node">
<title>nerve.core.errors</title>
<polygon fill="#343434" stroke="#343434" points="1647.5,-180 1490.5,-180 1490.5,-144 1647.5,-144 1647.5,-180"/>
<text text-anchor="middle" x="1569" y="-158.3" font-family="Courier,monospace" font-size="14.00" fill="#de958e">nerve.core.errors</text>
</g>
<!-- nerve.core.errors&#45;&gt;nerve.metadata -->
<g id="edge23" class="edge">
<title>nerve.core.errors&#45;&gt;nerve.metadata</title>
<path fill="none" stroke="#de958e" d="M1569.0197,-143.6878C1568.0486,-123.5668 1563.4282,-91.5192 1545,-72 1532.2963,-58.5442 1493.6991,-45.507 1457.1397,-35.6144"/>
<polygon fill="#de958e" stroke="#de958e" points="1457.9701,-32.2137 1447.4075,-33.0397 1456.1797,-38.9809 1457.9701,-32.2137"/>
</g>
<!-- nerve.core.errors&#45;&gt;nerve.utils -->
<g id="edge24" class="edge">
<title>nerve.core.errors&#45;&gt;nerve.utils</title>
<path fill="none" stroke="#de958e" d="M1547.0462,-143.8314C1536.3305,-134.9632 1523.2811,-124.1637 1511.691,-114.5718"/>
<polygon fill="#de958e" stroke="#de958e" points="1513.8822,-111.8422 1503.9467,-108.1628 1509.4192,-117.2349 1513.8822,-111.8422"/>
</g>
<!-- schematics.exceptions -->
<g id="node16" class="node">
<title>schematics.exceptions</title>
<polygon fill="#343434" stroke="#343434" points="895,-252 705,-252 705,-216 895,-216 895,-252"/>
<text text-anchor="middle" x="800" y="-230.3" font-family="Courier,monospace" font-size="14.00" fill="#de958e">schematics.exceptions</text>
</g>
<!-- schematics.exceptions&#45;&gt;nerve.spec.base -->
<g id="edge25" class="edge">
<title>schematics.exceptions&#45;&gt;nerve.spec.base</title>
<path fill="none" stroke="#de958e" d="M807.7403,-215.8114C815.971,-197.1931 829.8684,-167.7083 845,-144 851.0586,-134.5073 858.4631,-124.7076 865.4091,-116.1054"/>
<polygon fill="#de958e" stroke="#de958e" points="868.2058,-118.2153 871.8693,-108.274 862.806,-113.7609 868.2058,-118.2153"/>
</g>
<!-- schematics.exceptions&#45;&gt;nerve.spec.validators -->
<g id="edge26" class="edge">
<title>schematics.exceptions&#45;&gt;nerve.spec.validators</title>
<path fill="none" stroke="#de958e" d="M837.599,-215.8314C857.3497,-206.2874 881.7297,-194.5065 902.6417,-184.4013"/>
<polygon fill="#de958e" stroke="#de958e" points="904.1903,-187.5403 911.6714,-180.038 901.1447,-181.2376 904.1903,-187.5403"/>
</g>
<!-- schematics.models -->
<g id="node17" class="node">
<title>schematics.models</title>
<polygon fill="#343434" stroke="#343434" points="389.5,-180 232.5,-180 232.5,-144 389.5,-144 389.5,-180"/>
<text text-anchor="middle" x="311" y="-158.3" font-family="Courier,monospace" font-size="14.00" fill="#de958e">schematics.models</text>
</g>
<!-- schematics.models&#45;&gt;nerve.spec.base -->
<g id="edge27" class="edge">
<title>schematics.models&#45;&gt;nerve.spec.base</title>
<path fill="none" stroke="#de958e" d="M389.6174,-145.5469C392.7823,-145.0026 395.919,-144.4842 399,-144 542.223,-121.4928 710.5026,-105.0919 807.6434,-96.5948"/>
<polygon fill="#de958e" stroke="#de958e" points="808.0256,-100.0749 817.6851,-95.7225 807.4197,-93.1011 808.0256,-100.0749"/>
</g>
<!-- schematics.types -->
<g id="node18" class="node">
<title>schematics.types</title>
<polygon fill="#343434" stroke="#343434" points="556.5,-180 407.5,-180 407.5,-144 556.5,-144 556.5,-180"/>
<text text-anchor="middle" x="482" y="-158.3" font-family="Courier,monospace" font-size="14.00" fill="#de958e">schematics.types</text>
</g>
<!-- schematics.types&#45;&gt;nerve.spec.base -->
<g id="edge28" class="edge">
<title>schematics.types&#45;&gt;nerve.spec.base</title>
<path fill="none" stroke="#de958e" d="M556.6197,-145.8281C559.7865,-145.1993 562.9235,-144.5873 566,-144 648.0506,-128.337 742.3383,-112.8127 807.5852,-102.4577"/>
<polygon fill="#de958e" stroke="#de958e" points="808.4713,-105.8611 817.8013,-100.8409 807.3771,-98.9472 808.4713,-105.8611"/>
</g>
<!-- schematics.types.compound -->
<g id="node19" class="node">
<title>schematics.types.compound</title>
<polygon fill="#343434" stroke="#343434" points="797.5,-180 574.5,-180 574.5,-144 797.5,-144 797.5,-180"/>
<text text-anchor="middle" x="686" y="-158.3" font-family="Courier,monospace" font-size="14.00" fill="#de958e">schematics.types.compound</text>
</g>
<!-- schematics.types.compound&#45;&gt;nerve.spec.base -->
<g id="edge29" class="edge">
<title>schematics.types.compound&#45;&gt;nerve.spec.base</title>
<path fill="none" stroke="#de958e" d="M736.7124,-143.9243C764.327,-134.0815 798.675,-121.8386 827.6601,-111.5073"/>
<polygon fill="#de958e" stroke="#de958e" points="829.0223,-114.7375 837.2667,-108.0831 826.6721,-108.1438 829.0223,-114.7375"/>
</g>
</g>
</svg>
