<?xml version="1.0" encoding="UTF-8" standalone="no"?>
<!DOCTYPE svg PUBLIC "-//W3C//DTD SVG 1.1//EN"
 "http://www.w3.org/Graphics/SVG/1.1/DTD/svg11.dtd">
<!-- Generated by graphviz version 2.40.1 (20161225.0304)
 -->
<!-- Title: %3 Pages: 1 -->
<svg width="1312pt" height="854pt"
 viewBox="0.00 0.00 1312.00 854.13" xmlns="http://www.w3.org/2000/svg" xmlns:xlink="http://www.w3.org/1999/xlink">
<g id="graph0" class="graph" transform="scale(1 1) rotate(0) translate(4 850.1253)">
<title>%3</title>
<polygon fill="#242424" stroke="transparent" points="-4,4 -4,-850.1253 1308,-850.1253 1308,4 -4,4"/>
<!-- cli -->
<g id="node1" class="node">
<title>cli</title>
<polygon fill="#343434" stroke="#343434" points="72.5,-118.1253 18.5,-118.1253 18.5,-82.1253 72.5,-82.1253 72.5,-118.1253"/>
<text text-anchor="middle" x="45.5" y="-96.4253" font-family="Courier,monospace" font-size="14.00" fill="#b6ecf3">cli</text>
</g>
<!-- hidebound.config -->
<g id="node2" class="node">
<title>hidebound.config</title>
<polygon fill="#343434" stroke="#343434" points="1053.5,-146.1253 904.5,-146.1253 904.5,-110.1253 1053.5,-110.1253 1053.5,-146.1253"/>
<text text-anchor="middle" x="979" y="-124.4253" font-family="Courier,monospace" font-size="14.00" fill="#b6ecf3">hidebound.config</text>
</g>
<!-- hidebound.database -->
<g id="node3" class="node">
<title>hidebound.database</title>
<polygon fill="#343434" stroke="#343434" points="1304,-521.1253 1139,-521.1253 1139,-485.1253 1304,-485.1253 1304,-521.1253"/>
<text text-anchor="middle" x="1221.5" y="-499.4253" font-family="Courier,monospace" font-size="14.00" fill="#b6ecf3">hidebound.database</text>
</g>
<!-- hidebound.config&#45;&gt;hidebound.database -->
<g id="edge1" class="edge">
<title>hidebound.config&#45;&gt;hidebound.database</title>
<path fill="none" stroke="#b6ecf3" d="M1027.593,-146.1438C1052.9723,-157.6672 1082.8511,-174.8595 1103,-198.1253 1175.9964,-282.414 1206.7189,-416.7516 1217.0801,-474.8386"/>
<polygon fill="#b6ecf3" stroke="#b6ecf3" points="1213.643,-475.5038 1218.7834,-484.7681 1220.5423,-474.3203 1213.643,-475.5038"/>
</g>
<!-- hidebound.database_test_base -->
<g id="node4" class="node">
<title>hidebound.database_test_base</title>
<polygon fill="#343434" stroke="#343434" points="1103,-643.1253 855,-643.1253 855,-607.1253 1103,-607.1253 1103,-643.1253"/>
<text text-anchor="middle" x="979" y="-621.4253" font-family="Courier,monospace" font-size="14.00" fill="#b6ecf3">hidebound.database_test_base</text>
</g>
<!-- hidebound.database_tools -->
<g id="node5" class="node">
<title>hidebound.database_tools</title>
<polygon fill="#343434" stroke="#343434" points="802.5,-544.1253 587.5,-544.1253 587.5,-508.1253 802.5,-508.1253 802.5,-544.1253"/>
<text text-anchor="middle" x="695" y="-522.4253" font-family="Courier,monospace" font-size="14.00" fill="#b6ecf3">hidebound.database_tools</text>
</g>
<!-- hidebound.database_tools&#45;&gt;hidebound.database -->
<g id="edge2" class="edge">
<title>hidebound.database_tools&#45;&gt;hidebound.database</title>
<path fill="none" stroke="#b6ecf3" d="M802.8156,-521.4154C898.7984,-517.2224 1037.7314,-511.1532 1128.8193,-507.174"/>
<polygon fill="#b6ecf3" stroke="#b6ecf3" points="1129.019,-510.6687 1138.8567,-506.7355 1128.7135,-503.6754 1129.019,-510.6687"/>
</g>
<!-- hidebound.parser -->
<g id="node6" class="node">
<title>hidebound.parser</title>
<polygon fill="#343434" stroke="#343434" points="296.5,-272.1253 147.5,-272.1253 147.5,-236.1253 296.5,-236.1253 296.5,-272.1253"/>
<text text-anchor="middle" x="222" y="-250.4253" font-family="Courier,monospace" font-size="14.00" fill="#b6ecf3">hidebound.parser</text>
</g>
<!-- hidebound.parser&#45;&gt;hidebound.database_tools -->
<g id="edge3" class="edge">
<title>hidebound.parser&#45;&gt;hidebound.database_tools</title>
<path fill="none" stroke="#b6ecf3" d="M247.6042,-272.178C279.2381,-294.2241 331.5071,-329.7438 353,-339.1253 429.4655,-372.5021 461.1878,-346.2312 535,-385.1253 591.4675,-414.8799 644.4395,-468.5 673.0175,-500.3508"/>
<polygon fill="#b6ecf3" stroke="#b6ecf3" points="670.4962,-502.783 679.7447,-507.9516 675.738,-498.1436 670.4962,-502.783"/>
</g>
<!-- hidebound.specification_base -->
<g id="node7" class="node">
<title>hidebound.specification_base</title>
<polygon fill="#343434" stroke="#343434" points="819,-192.1253 571,-192.1253 571,-156.1253 819,-156.1253 819,-192.1253"/>
<text text-anchor="middle" x="695" y="-170.4253" font-family="Courier,monospace" font-size="14.00" fill="#b6ecf3">hidebound.specification_base</text>
</g>
<!-- hidebound.parser&#45;&gt;hidebound.specification_base -->
<g id="edge4" class="edge">
<title>hidebound.parser&#45;&gt;hidebound.specification_base</title>
<path fill="none" stroke="#b6ecf3" d="M296.5476,-236.7214C303.6535,-233.9499 310.5902,-230.7687 317,-227.1253 336.133,-216.2498 332.7827,-201.8204 353,-193.1253 417.5587,-165.3598 495.3942,-159.1802 560.4909,-160.574"/>
<polygon fill="#b6ecf3" stroke="#b6ecf3" points="560.7319,-164.0819 570.8251,-160.8605 560.926,-157.0846 560.7319,-164.0819"/>
</g>
<!-- hidebound.validators -->
<g id="node11" class="node">
<title>hidebound.validators</title>
<polygon fill="#343434" stroke="#343434" points="535,-238.1253 353,-238.1253 353,-202.1253 535,-202.1253 535,-238.1253"/>
<text text-anchor="middle" x="444" y="-216.4253" font-family="Courier,monospace" font-size="14.00" fill="#b6ecf3">hidebound.validators</text>
</g>
<!-- hidebound.parser&#45;&gt;hidebound.validators -->
<g id="edge5" class="edge">
<title>hidebound.parser&#45;&gt;hidebound.validators</title>
<path fill="none" stroke="#b6ecf3" d="M296.5404,-242.7092C311.3165,-240.4462 327.0623,-238.0347 342.5578,-235.6615"/>
<polygon fill="#b6ecf3" stroke="#b6ecf3" points="343.3369,-239.0831 352.6917,-234.1094 342.2771,-232.1637 343.3369,-239.0831"/>
</g>
<!-- hidebound.specification_base&#45;&gt;hidebound.config -->
<g id="edge6" class="edge">
<title>hidebound.specification_base&#45;&gt;hidebound.config</title>
<path fill="none" stroke="#b6ecf3" d="M806.4292,-156.0769C835.6321,-151.3469 866.6458,-146.3235 894.207,-141.8594"/>
<polygon fill="#b6ecf3" stroke="#b6ecf3" points="894.8835,-145.2955 904.1952,-140.2416 893.7642,-138.3855 894.8835,-145.2955"/>
</g>
<!-- hidebound.specification_base&#45;&gt;hidebound.database -->
<g id="edge7" class="edge">
<title>hidebound.specification_base&#45;&gt;hidebound.database</title>
<path fill="none" stroke="#b6ecf3" d="M819.1915,-176.0867C906.7518,-183.4263 1022.3296,-205.8156 1103,-269.1253 1170.9159,-322.4253 1203.2299,-425.1192 1215.425,-474.8136"/>
<polygon fill="#b6ecf3" stroke="#b6ecf3" points="1212.0909,-475.925 1217.7906,-484.8561 1218.9045,-474.32 1212.0909,-475.925"/>
</g>
<!-- hidebound.specification_base&#45;&gt;hidebound.database_test_base -->
<g id="edge8" class="edge">
<title>hidebound.specification_base&#45;&gt;hidebound.database_test_base</title>
<path fill="none" stroke="#b6ecf3" d="M712.8691,-192.4128C738.3453,-219.0615 785.7029,-270.7815 819,-320.1253 884.0208,-416.4813 942.5555,-542.3754 966.9605,-597.3826"/>
<polygon fill="#b6ecf3" stroke="#b6ecf3" points="963.8779,-599.0669 971.1141,-606.8056 970.2832,-596.2434 963.8779,-599.0669"/>
</g>
<!-- hidebound.specifications -->
<g id="node8" class="node">
<title>hidebound.specifications</title>
<polygon fill="#343434" stroke="#343434" points="1086.5,-314.1253 871.5,-314.1253 871.5,-278.1253 1086.5,-278.1253 1086.5,-314.1253"/>
<text text-anchor="middle" x="979" y="-292.4253" font-family="Courier,monospace" font-size="14.00" fill="#b6ecf3">hidebound.specifications</text>
</g>
<!-- hidebound.specification_base&#45;&gt;hidebound.specifications -->
<g id="edge9" class="edge">
<title>hidebound.specification_base&#45;&gt;hidebound.specifications</title>
<path fill="none" stroke="#b6ecf3" d="M736.9052,-192.1268C787.5587,-213.8864 872.7862,-250.4983 927.4259,-273.9702"/>
<polygon fill="#b6ecf3" stroke="#b6ecf3" points="926.3533,-277.3187 936.9229,-278.0499 929.1163,-270.887 926.3533,-277.3187"/>
</g>
<!-- hidebound.tools -->
<g id="node9" class="node">
<title>hidebound.tools</title>
<polygon fill="#343434" stroke="#343434" points="514,-498.1253 374,-498.1253 374,-462.1253 514,-462.1253 514,-498.1253"/>
<text text-anchor="middle" x="444" y="-476.4253" font-family="Courier,monospace" font-size="14.00" fill="#b6ecf3">hidebound.tools</text>
</g>
<!-- hidebound.tools&#45;&gt;hidebound.database -->
<g id="edge10" class="edge">
<title>hidebound.tools&#45;&gt;hidebound.database</title>
<path fill="none" stroke="#b6ecf3" d="M514.0254,-482.1968C654.5553,-486.3539 970.9447,-495.7134 1128.5837,-500.3766"/>
<polygon fill="#b6ecf3" stroke="#b6ecf3" points="1128.6348,-503.8796 1138.7339,-500.6769 1128.8418,-496.8826 1128.6348,-503.8796"/>
</g>
<!-- hidebound.tools&#45;&gt;hidebound.database_tools -->
<g id="edge11" class="edge">
<title>hidebound.tools&#45;&gt;hidebound.database_tools</title>
<path fill="none" stroke="#b6ecf3" d="M514.2513,-493C536.6854,-497.1115 562.0623,-501.7622 586.556,-506.2511"/>
<polygon fill="#b6ecf3" stroke="#b6ecf3" points="586.1527,-509.7354 596.6198,-508.0955 587.4146,-502.8501 586.1527,-509.7354"/>
</g>
<!-- hidebound.tools&#45;&gt;hidebound.specification_base -->
<g id="edge12" class="edge">
<title>hidebound.tools&#45;&gt;hidebound.specification_base</title>
<path fill="none" stroke="#b6ecf3" d="M458.9495,-461.9C501.5868,-409.9198 623.9057,-260.798 673.6127,-200.199"/>
<polygon fill="#b6ecf3" stroke="#b6ecf3" points="676.4929,-202.2065 680.1288,-192.2551 671.0807,-197.7671 676.4929,-202.2065"/>
</g>
<!-- hidebound.traits -->
<g id="node10" class="node">
<title>hidebound.traits</title>
<polygon fill="#343434" stroke="#343434" points="769.5,-620.1253 620.5,-620.1253 620.5,-584.1253 769.5,-584.1253 769.5,-620.1253"/>
<text text-anchor="middle" x="695" y="-598.4253" font-family="Courier,monospace" font-size="14.00" fill="#b6ecf3">hidebound.traits</text>
</g>
<!-- hidebound.traits&#45;&gt;hidebound.database_test_base -->
<g id="edge13" class="edge">
<title>hidebound.traits&#45;&gt;hidebound.database_test_base</title>
<path fill="none" stroke="#b6ecf3" d="M769.6177,-608.1683C792.6862,-610.0365 818.8434,-612.1549 844.6619,-614.2458"/>
<polygon fill="#b6ecf3" stroke="#b6ecf3" points="844.6677,-617.7576 854.9176,-615.0764 845.2328,-610.7805 844.6677,-617.7576"/>
</g>
<!-- hidebound.traits&#45;&gt;hidebound.specifications -->
<g id="edge14" class="edge">
<title>hidebound.traits&#45;&gt;hidebound.specifications</title>
<path fill="none" stroke="#b6ecf3" d="M762.9737,-584.1121C782.4788,-576.7083 802.8233,-566.6168 819,-553.1253 896.5726,-488.4289 947.8485,-376.0269 968.5915,-324.0104"/>
<polygon fill="#b6ecf3" stroke="#b6ecf3" points="971.9499,-325.0322 972.3317,-314.4443 965.4305,-322.4832 971.9499,-325.0322"/>
</g>
<!-- hidebound.validators&#45;&gt;hidebound.config -->
<g id="edge15" class="edge">
<title>hidebound.validators&#45;&gt;hidebound.config</title>
<path fill="none" stroke="#b6ecf3" d="M467.7055,-201.8394C492.0962,-184.1952 531.9408,-158.531 571,-147.1253 679.2511,-115.5149 810.463,-115.8466 894.3306,-120.6329"/>
<polygon fill="#b6ecf3" stroke="#b6ecf3" points="894.1258,-124.1268 904.3189,-121.2368 894.5484,-117.1395 894.1258,-124.1268"/>
</g>
<!-- hidebound.validators&#45;&gt;hidebound.database_test_base -->
<g id="edge16" class="edge">
<title>hidebound.validators&#45;&gt;hidebound.database_test_base</title>
<path fill="none" stroke="#b6ecf3" d="M490.2457,-238.2311C514.2362,-247.4641 544.0807,-258.7028 571,-268.1253 680.3121,-306.3876 728.9104,-275.3448 819,-348.1253 903.3882,-416.2997 952.1511,-541.7162 970.5216,-597.3226"/>
<polygon fill="#b6ecf3" stroke="#b6ecf3" points="967.1984,-598.4213 973.5999,-606.8636 973.8602,-596.2719 967.1984,-598.4213"/>
</g>
<!-- hidebound.validators&#45;&gt;hidebound.specification_base -->
<g id="edge17" class="edge">
<title>hidebound.validators&#45;&gt;hidebound.specification_base</title>
<path fill="none" stroke="#b6ecf3" d="M535.3268,-203.3881C551.9654,-200.3388 569.4715,-197.1305 586.5486,-194.0009"/>
<polygon fill="#b6ecf3" stroke="#b6ecf3" points="587.3386,-197.4144 596.5439,-192.169 586.0767,-190.5291 587.3386,-197.4144"/>
</g>
<!-- hidebound.validators&#45;&gt;hidebound.specifications -->
<g id="edge18" class="edge">
<title>hidebound.validators&#45;&gt;hidebound.specifications</title>
<path fill="none" stroke="#b6ecf3" d="M535.0585,-233.0607C625.0325,-245.8421 763.0784,-265.4523 861.325,-279.4088"/>
<polygon fill="#b6ecf3" stroke="#b6ecf3" points="860.9101,-282.885 871.303,-280.8263 861.8947,-275.9545 860.9101,-282.885"/>
</g>
<!-- numpy -->
<g id="node12" class="node">
<title>numpy</title>
<polygon fill="#343434" stroke="#343434" points="473,-796.1253 415,-796.1253 415,-760.1253 473,-760.1253 473,-796.1253"/>
<text text-anchor="middle" x="444" y="-774.4253" font-family="Courier,monospace" font-size="14.00" fill="#de958e">numpy</text>
</g>
<!-- numpy&#45;&gt;hidebound.database -->
<g id="edge19" class="edge">
<title>numpy&#45;&gt;hidebound.database</title>
<path fill="none" stroke="#de958e" d="M473.1287,-782.3361C536.7634,-790.6403 692.6137,-806.0972 819,-779.1253 954.223,-750.2676 993.7455,-736.8689 1103,-652.1253 1147.6402,-617.5 1185.4976,-562.6864 1205.7285,-530.0802"/>
<polygon fill="#de958e" stroke="#de958e" points="1208.7381,-531.8674 1210.9582,-521.5077 1202.7623,-528.2218 1208.7381,-531.8674"/>
</g>
<!-- numpy&#45;&gt;hidebound.database_test_base -->
<g id="edge20" class="edge">
<title>numpy&#45;&gt;hidebound.database_test_base</title>
<path fill="none" stroke="#de958e" d="M473.4383,-780.999C538.3396,-786.2009 697.5984,-792.6976 819,-746.1253 873.6233,-725.1706 925.4551,-679.6139 954.6381,-650.7663"/>
<polygon fill="#de958e" stroke="#de958e" points="957.3329,-653.0201 961.9048,-643.4625 952.3706,-648.083 957.3329,-653.0201"/>
</g>
<!-- numpy&#45;&gt;hidebound.database_tools -->
<g id="edge21" class="edge">
<title>numpy&#45;&gt;hidebound.database_tools</title>
<path fill="none" stroke="#de958e" d="M463.8315,-760.116C484.0959,-740.7986 515.3057,-708.3873 535,-675.1253 559.0665,-634.4791 538.1164,-609.0367 571,-575.1253 581.9053,-563.8791 595.7106,-555.1546 610.1205,-548.4044"/>
<polygon fill="#de958e" stroke="#de958e" points="611.8858,-551.453 619.6527,-544.247 609.0874,-545.0367 611.8858,-551.453"/>
</g>
<!-- skimage.io -->
<g id="node13" class="node">
<title>skimage.io</title>
<polygon fill="#343434" stroke="#343434" points="493.5,-666.1253 394.5,-666.1253 394.5,-630.1253 493.5,-630.1253 493.5,-666.1253"/>
<text text-anchor="middle" x="444" y="-644.4253" font-family="Courier,monospace" font-size="14.00" fill="#de958e">skimage.io</text>
</g>
<!-- skimage.io&#45;&gt;hidebound.database_test_base -->
<g id="edge22" class="edge">
<title>skimage.io&#45;&gt;hidebound.database_test_base</title>
<path fill="none" stroke="#de958e" d="M493.8511,-645.9822C573.1059,-642.5749 730.5308,-635.8071 844.6099,-630.9028"/>
<polygon fill="#de958e" stroke="#de958e" points="844.9768,-634.3904 854.8172,-630.464 844.6761,-627.3968 844.9768,-634.3904"/>
</g>
<!-- skimage.io&#45;&gt;hidebound.traits -->
<g id="edge23" class="edge">
<title>skimage.io&#45;&gt;hidebound.traits</title>
<path fill="none" stroke="#de958e" d="M493.5895,-639.0372C526.7704,-632.9562 571.291,-624.7971 610.0366,-617.6963"/>
<polygon fill="#de958e" stroke="#de958e" points="611.068,-621.0656 620.2732,-615.8202 609.806,-614.1803 611.068,-621.0656"/>
</g>
<!-- hidebound -->
<g id="node14" class="node">
<title>hidebound</title>
<polygon fill="#343434" stroke="#343434" points="91,-456.1253 0,-456.1253 0,-420.1253 91,-420.1253 91,-456.1253"/>
<text text-anchor="middle" x="45.5" y="-434.4253" font-family="Courier,monospace" font-size="14.00" fill="#a0d17b">hidebound</text>
</g>
<!-- hidebound&#45;&gt;hidebound.config -->
<g id="edge24" class="edge">
<title>hidebound&#45;&gt;hidebound.config</title>
<path fill="none" stroke="#a0d17b" d="M48.4715,-419.9958C58.306,-361.7286 91.2132,-180.3598 127,-134.1253 197.6572,-42.8401 241.3749,-35.5408 353,-6.1253 415.6168,10.3755 799.9621,-11.7686 819,-18.1253 871.8319,-35.7657 923.1197,-76.4604 952.8468,-103.0997"/>
<polygon fill="#a0d17b" stroke="#a0d17b" points="950.5365,-105.7297 960.2854,-109.8781 955.2513,-100.5556 950.5365,-105.7297"/>
</g>
<!-- hidebound&#45;&gt;hidebound.database -->
<g id="edge25" class="edge">
<title>hidebound&#45;&gt;hidebound.database</title>
<path fill="none" stroke="#a0d17b" d="M47.6885,-456.3581C53.5448,-498.2565 72.9773,-602.8814 127,-669.1253 228.9812,-794.1771 282.6367,-846.1253 444,-846.1253 444,-846.1253 444,-846.1253 695,-846.1253 884.1397,-846.1253 956.4545,-844.7005 1103,-725.1253 1166.5693,-673.2553 1200.6419,-578.0195 1214.2849,-530.9561"/>
<polygon fill="#a0d17b" stroke="#a0d17b" points="1217.7063,-531.7175 1217.0338,-521.1441 1210.9658,-529.8291 1217.7063,-531.7175"/>
</g>
<!-- hidebound&#45;&gt;hidebound.database_test_base -->
<g id="edge26" class="edge">
<title>hidebound&#45;&gt;hidebound.database_test_base</title>
<path fill="none" stroke="#a0d17b" d="M49.5038,-456.3128C57.9917,-490.8875 80.9082,-566.6117 127,-611.1253 205.6249,-687.058 246.0868,-685.383 353,-708.1253 454.2914,-729.6717 729.4319,-763.1037 819,-711.1253 844.3865,-696.3929 831.6027,-671.7581 854.7843,-649.6346"/>
<polygon fill="#a0d17b" stroke="#a0d17b" points="857.2017,-652.1807 862.7719,-643.1683 852.7973,-646.74 857.2017,-652.1807"/>
</g>
<!-- hidebound&#45;&gt;hidebound.database_tools -->
<g id="edge27" class="edge">
<title>hidebound&#45;&gt;hidebound.database_tools</title>
<path fill="none" stroke="#a0d17b" d="M51.7133,-456.4229C62.235,-484.1288 86.4637,-535.7557 127,-557.1253 203.2496,-597.3219 439.6088,-568.2865 582.2746,-545.745"/>
<polygon fill="#a0d17b" stroke="#a0d17b" points="583.0567,-549.1646 592.3811,-544.1342 581.9549,-542.2518 583.0567,-549.1646"/>
</g>
<!-- hidebound&#45;&gt;hidebound.parser -->
<g id="edge28" class="edge">
<title>hidebound&#45;&gt;hidebound.parser</title>
<path fill="none" stroke="#a0d17b" d="M50.369,-420.0992C59.829,-388.4439 83.666,-322.7558 127,-286.1253 130.9687,-282.7705 135.304,-279.763 139.8664,-277.0674"/>
<polygon fill="#a0d17b" stroke="#a0d17b" points="141.7068,-280.0526 148.8835,-272.2586 138.4128,-273.876 141.7068,-280.0526"/>
</g>
<!-- hidebound&#45;&gt;hidebound.specification_base -->
<g id="edge29" class="edge">
<title>hidebound&#45;&gt;hidebound.specification_base</title>
<path fill="none" stroke="#a0d17b" d="M48.4258,-419.7661C57.5421,-365.0447 87.2215,-204.8839 127,-173.1253 191.4562,-121.6645 414.2044,-137.8841 560.8531,-155.3066"/>
<polygon fill="#a0d17b" stroke="#a0d17b" points="560.4917,-158.7883 570.8384,-156.5087 561.3284,-151.8385 560.4917,-158.7883"/>
</g>
<!-- hidebound&#45;&gt;hidebound.specifications -->
<g id="edge30" class="edge">
<title>hidebound&#45;&gt;hidebound.specifications</title>
<path fill="none" stroke="#a0d17b" d="M91.1931,-421.3291C102.7566,-417.5393 115.2356,-413.8396 127,-411.1253 429.377,-341.3613 511.5078,-359.9277 819,-318.1253 832.6378,-316.2713 846.9282,-314.3194 861.1194,-312.3754"/>
<polygon fill="#a0d17b" stroke="#a0d17b" points="861.9926,-315.7885 871.4245,-310.9628 861.0418,-308.8534 861.9926,-315.7885"/>
</g>
<!-- hidebound&#45;&gt;hidebound.tools -->
<g id="edge31" class="edge">
<title>hidebound&#45;&gt;hidebound.tools</title>
<path fill="none" stroke="#a0d17b" d="M91.0443,-455.6366C102.6115,-459.4087 115.1294,-462.9211 127,-465.1253 206.5717,-479.9007 299.197,-482.6586 363.6976,-482.3255"/>
<polygon fill="#a0d17b" stroke="#a0d17b" points="363.8293,-485.8247 373.8017,-482.2469 363.7747,-478.8249 363.8293,-485.8247"/>
</g>
<!-- hidebound&#45;&gt;hidebound.traits -->
<g id="edge32" class="edge">
<title>hidebound&#45;&gt;hidebound.traits</title>
<path fill="none" stroke="#a0d17b" d="M49.6996,-456.1276C58.1652,-487.8449 80.5687,-552.9848 127,-581.1253 205.8302,-628.9016 472.1104,-618.1294 610.2609,-608.8193"/>
<polygon fill="#a0d17b" stroke="#a0d17b" points="610.6502,-612.3009 620.3869,-608.124 610.1706,-605.3174 610.6502,-612.3009"/>
</g>
<!-- hidebound&#45;&gt;hidebound.validators -->
<g id="edge33" class="edge">
<title>hidebound&#45;&gt;hidebound.validators</title>
<path fill="none" stroke="#a0d17b" d="M52.6497,-419.9016C64.1012,-393.2516 89.1845,-344.1091 127,-319.1253 198.8515,-271.6546 241.6289,-322.7822 317,-281.1253 337.3615,-269.8717 332.9272,-254.8861 353,-243.1253 353.0923,-243.0712 353.1847,-243.0173 353.2772,-242.9635"/>
<polygon fill="#a0d17b" stroke="#a0d17b" points="354.9502,-246.0384 362.2007,-238.3131 351.7151,-239.8308 354.9502,-246.0384"/>
</g>
<!-- humanfriendly -->
<g id="node15" class="node">
<title>humanfriendly</title>
<polygon fill="#343434" stroke="#343434" points="284,-456.1253 160,-456.1253 160,-420.1253 284,-420.1253 284,-456.1253"/>
<text text-anchor="middle" x="222" y="-434.4253" font-family="Courier,monospace" font-size="14.00" fill="#de958e">humanfriendly</text>
</g>
<!-- humanfriendly&#45;&gt;hidebound.tools -->
<g id="edge34" class="edge">
<title>humanfriendly&#45;&gt;hidebound.tools</title>
<path fill="none" stroke="#de958e" d="M284.1346,-449.8805C308.8165,-454.55 337.5257,-459.9815 363.7492,-464.9427"/>
<polygon fill="#de958e" stroke="#de958e" points="363.188,-468.3985 373.6643,-466.8185 364.4893,-461.5205 363.188,-468.3985"/>
</g>
<!-- pandas -->
<g id="node16" class="node">
<title>pandas</title>
<polygon fill="#343434" stroke="#343434" points="255,-548.1253 189,-548.1253 189,-512.1253 255,-512.1253 255,-548.1253"/>
<text text-anchor="middle" x="222" y="-526.4253" font-family="Courier,monospace" font-size="14.00" fill="#de958e">pandas</text>
</g>
<!-- pandas&#45;&gt;hidebound.database_test_base -->
<g id="edge35" class="edge">
<title>pandas&#45;&gt;hidebound.database_test_base</title>
<path fill="none" stroke="#de958e" d="M231.5943,-548.3343C250.0063,-581.0516 293.7818,-648.8192 353,-675.1253 547.8427,-761.6789 810.2853,-686.8264 923.3629,-646.6504"/>
<polygon fill="#de958e" stroke="#de958e" points="924.6403,-649.9106 932.8641,-643.2308 922.2697,-643.3242 924.6403,-649.9106"/>
</g>
<!-- pandas&#45;&gt;hidebound.database_tools -->
<g id="edge36" class="edge">
<title>pandas&#45;&gt;hidebound.database_tools</title>
<path fill="none" stroke="#de958e" d="M255.2604,-529.844C321.0593,-529.2876 470.6748,-528.0223 577.083,-527.1225"/>
<polygon fill="#de958e" stroke="#de958e" points="577.2714,-530.6211 587.2414,-527.0366 577.2121,-523.6214 577.2714,-530.6211"/>
</g>
<!-- pandas&#45;&gt;hidebound.tools -->
<g id="edge37" class="edge">
<title>pandas&#45;&gt;hidebound.tools</title>
<path fill="none" stroke="#de958e" d="M255.2356,-522.6398C283.8829,-516.1877 326.4175,-506.6078 363.8621,-498.1744"/>
<polygon fill="#de958e" stroke="#de958e" points="364.7784,-501.5558 373.765,-495.944 363.2403,-494.7268 364.7784,-501.5558"/>
</g>
<!-- schematics.types -->
<g id="node17" class="node">
<title>schematics.types</title>
<polygon fill="#343434" stroke="#343434" points="518.5,-330.1253 369.5,-330.1253 369.5,-294.1253 518.5,-294.1253 518.5,-330.1253"/>
<text text-anchor="middle" x="444" y="-308.4253" font-family="Courier,monospace" font-size="14.00" fill="#de958e">schematics.types</text>
</g>
<!-- schematics.types&#45;&gt;hidebound.config -->
<g id="edge38" class="edge">
<title>schematics.types&#45;&gt;hidebound.config</title>
<path fill="none" stroke="#de958e" d="M515.823,-294.0799C592.0364,-274.1893 715.5011,-239.836 819,-201.1253 858.6931,-186.2793 902.3783,-166.0725 934.0585,-150.6822"/>
<polygon fill="#de958e" stroke="#de958e" points="935.6269,-153.8114 943.0738,-146.2751 932.5527,-147.5225 935.6269,-153.8114"/>
</g>
<!-- schematics.types&#45;&gt;hidebound.database_test_base -->
<g id="edge39" class="edge">
<title>schematics.types&#45;&gt;hidebound.database_test_base</title>
<path fill="none" stroke="#de958e" d="M518.5472,-329.1568C524.1749,-330.9915 529.7154,-332.98 535,-335.1253 706.7385,-404.8422 882.9446,-544.2491 950.3865,-600.6249"/>
<polygon fill="#de958e" stroke="#de958e" points="948.1571,-603.3232 958.0643,-607.0781 952.6611,-597.9646 948.1571,-603.3232"/>
</g>
<!-- schematics.types&#45;&gt;hidebound.specification_base -->
<g id="edge40" class="edge">
<title>schematics.types&#45;&gt;hidebound.specification_base</title>
<path fill="none" stroke="#de958e" d="M514.2597,-293.9044C521.7602,-290.1284 528.8746,-285.5859 535,-280.1253 562.301,-255.7874 542.6828,-229.273 571,-206.1253 575.2496,-202.6515 579.8328,-199.55 584.6457,-196.7815"/>
<polygon fill="#de958e" stroke="#de958e" points="586.284,-199.8745 593.5345,-192.1491 583.0489,-193.6669 586.284,-199.8745"/>
</g>
<!-- schematics.types&#45;&gt;hidebound.specifications -->
<g id="edge41" class="edge">
<title>schematics.types&#45;&gt;hidebound.specifications</title>
<path fill="none" stroke="#de958e" d="M518.6709,-309.8921C607.3807,-307.2391 756.4743,-302.7803 860.8803,-299.6578"/>
<polygon fill="#de958e" stroke="#de958e" points="861.267,-303.1479 871.1579,-299.3505 861.0577,-296.1511 861.267,-303.1479"/>
</g>
<!-- pyparsing -->
<g id="node18" class="node">
<title>pyparsing</title>
<polygon fill="#343434" stroke="#343434" points="91,-172.1253 0,-172.1253 0,-136.1253 91,-136.1253 91,-172.1253"/>
<text text-anchor="middle" x="45.5" y="-150.4253" font-family="Courier,monospace" font-size="14.00" fill="#de958e">pyparsing</text>
</g>
<!-- pyparsing&#45;&gt;hidebound.parser -->
<g id="edge42" class="edge">
<title>pyparsing&#45;&gt;hidebound.parser</title>
<path fill="none" stroke="#de958e" d="M61.2119,-172.2928C76.4603,-188.8441 101.0472,-212.8232 127,-227.1253 130.4492,-229.0261 134.0442,-230.8031 137.7311,-232.4634"/>
<polygon fill="#de958e" stroke="#de958e" points="136.4776,-235.7327 147.0542,-236.3535 139.1732,-229.2726 136.4776,-235.7327"/>
</g>
<!-- pyparsing&#45;&gt;hidebound.specification_base -->
<g id="edge43" class="edge">
<title>pyparsing&#45;&gt;hidebound.specification_base</title>
<path fill="none" stroke="#de958e" d="M76.5206,-136.1199C81.4015,-133.1715 86.3639,-130.1052 91,-127.1253 107.3865,-116.5926 108.4106,-107.9469 127,-102.1253 300.2539,-47.8676 357.1717,-85.548 535,-122.1253 570.3668,-129.3998 608.8867,-141.7745 639.2674,-152.6272"/>
<polygon fill="#de958e" stroke="#de958e" points="638.2367,-155.9763 648.8309,-156.089 640.6193,-149.3942 638.2367,-155.9763"/>
</g>
<!-- pyparsing&#45;&gt;hidebound.validators -->
<g id="edge44" class="edge">
<title>pyparsing&#45;&gt;hidebound.validators</title>
<path fill="none" stroke="#de958e" d="M91.2096,-153.3909C145.62,-153.4161 238.9367,-156.3105 317,-173.1253 343.4618,-178.8252 371.8103,-188.905 394.9958,-198.2721"/>
<polygon fill="#de958e" stroke="#de958e" points="393.6873,-201.5183 404.2667,-202.0899 396.3528,-195.0457 393.6873,-201.5183"/>
</g>
<!-- schematics.exceptions -->
<g id="node19" class="node">
<title>schematics.exceptions</title>
<polygon fill="#343434" stroke="#343434" points="317,-364.1253 127,-364.1253 127,-328.1253 317,-328.1253 317,-364.1253"/>
<text text-anchor="middle" x="222" y="-342.4253" font-family="Courier,monospace" font-size="14.00" fill="#de958e">schematics.exceptions</text>
</g>
<!-- schematics.exceptions&#45;&gt;hidebound.config -->
<g id="edge45" class="edge">
<title>schematics.exceptions&#45;&gt;hidebound.config</title>
<path fill="none" stroke="#de958e" d="M262.7584,-328.1049C282.333,-317.3187 304.2534,-301.6737 317,-281.1253 377.5666,-183.4878 266.2828,-100.5011 353,-25.1253 408.4916,23.1088 781.555,-56.3031 819,-66.1253 857.3877,-76.1947 899.1508,-92.5739 930.3808,-105.9689"/>
<polygon fill="#de958e" stroke="#de958e" points="929.1524,-109.2511 939.7193,-110.0199 931.9382,-102.8293 929.1524,-109.2511"/>
</g>
<!-- schematics.exceptions&#45;&gt;hidebound.database_tools -->
<g id="edge46" class="edge">
<title>schematics.exceptions&#45;&gt;hidebound.database_tools</title>
<path fill="none" stroke="#de958e" d="M280.3124,-364.1584C343.6485,-384.1843 447.4923,-418.3035 535,-453.1253 574.1174,-468.6912 617.5145,-488.6674 649.2323,-503.7869"/>
<polygon fill="#de958e" stroke="#de958e" points="647.7374,-506.9516 658.2683,-508.1134 650.7604,-500.638 647.7374,-506.9516"/>
</g>
<!-- schematics.exceptions&#45;&gt;hidebound.specification_base -->
<g id="edge47" class="edge">
<title>schematics.exceptions&#45;&gt;hidebound.specification_base</title>
<path fill="none" stroke="#de958e" d="M285.9266,-328.0675C296.5815,-324.0843 307.3096,-319.4382 317,-314.1253 335.0156,-304.2479 334.4286,-293.9132 353,-285.1253 427.6928,-249.7808 463.6217,-288.7592 535,-247.1253 555.9468,-234.9073 550.3443,-218.8292 571,-206.1253 577.1844,-202.3217 583.8088,-198.9677 590.6603,-196.0107"/>
<polygon fill="#de958e" stroke="#de958e" points="592.1428,-199.1872 600.124,-192.2193 589.5396,-192.6893 592.1428,-199.1872"/>
</g>
<!-- schematics.exceptions&#45;&gt;hidebound.tools -->
<g id="edge48" class="edge">
<title>schematics.exceptions&#45;&gt;hidebound.tools</title>
<path fill="none" stroke="#de958e" d="M251.773,-364.3195C271.0684,-376.6281 296.3582,-393.754 317,-411.1253 334.5547,-425.8986 333.6665,-435.7707 353,-448.1253 358.6888,-451.7606 364.8425,-455.0444 371.1736,-457.9974"/>
<polygon fill="#de958e" stroke="#de958e" points="369.9779,-461.2944 380.5428,-462.0896 372.7797,-454.8796 369.9779,-461.2944"/>
</g>
<!-- schematics.exceptions&#45;&gt;hidebound.validators -->
<g id="edge49" class="edge">
<title>schematics.exceptions&#45;&gt;hidebound.validators</title>
<path fill="none" stroke="#de958e" d="M294.4511,-328.0028C302.5291,-324.2043 310.2602,-319.6295 317,-314.1253 341.6797,-293.9704 328.4542,-272.4431 353,-252.1253 357.0093,-248.8066 361.3863,-245.822 365.9826,-243.1394"/>
<polygon fill="#de958e" stroke="#de958e" points="367.8481,-246.1123 375.0529,-238.3443 364.5764,-239.9238 367.8481,-246.1123"/>
</g>
<!-- wrapt -->
<g id="node20" class="node">
<title>wrapt</title>
<polygon fill="#343434" stroke="#343434" points="251,-218.1253 193,-218.1253 193,-182.1253 251,-182.1253 251,-218.1253"/>
<text text-anchor="middle" x="222" y="-196.4253" font-family="Courier,monospace" font-size="14.00" fill="#de958e">wrapt</text>
</g>
<!-- wrapt&#45;&gt;hidebound.validators -->
<g id="edge50" class="edge">
<title>wrapt&#45;&gt;hidebound.validators</title>
<path fill="none" stroke="#de958e" d="M251.0226,-202.7399C274.4553,-204.851 308.9007,-207.9542 342.2287,-210.9567"/>
<polygon fill="#de958e" stroke="#de958e" points="342.2489,-214.4726 352.5226,-211.8841 342.877,-207.5008 342.2489,-214.4726"/>
</g>
<!-- schematics -->
<g id="node21" class="node">
<title>schematics</title>
<polygon fill="#343434" stroke="#343434" points="493.5,-70.1253 394.5,-70.1253 394.5,-34.1253 493.5,-34.1253 493.5,-70.1253"/>
<text text-anchor="middle" x="444" y="-48.4253" font-family="Courier,monospace" font-size="14.00" fill="#de958e">schematics</text>
</g>
<!-- schematics&#45;&gt;hidebound.config -->
<g id="edge51" class="edge">
<title>schematics&#45;&gt;hidebound.config</title>
<path fill="none" stroke="#de958e" d="M493.8511,-59.2069C585.5071,-72.2272 781.7104,-100.0991 894.5115,-116.1232"/>
<polygon fill="#de958e" stroke="#de958e" points="894.099,-119.5996 904.4919,-117.541 895.0835,-112.6692 894.099,-119.5996"/>
</g>
<!-- schematics&#45;&gt;hidebound.specification_base -->
<g id="edge52" class="edge">
<title>schematics&#45;&gt;hidebound.specification_base</title>
<path fill="none" stroke="#de958e" d="M493.7345,-67.8569C507.3059,-72.6224 521.8805,-78.1834 535,-84.1253 578.5208,-103.836 625.9355,-131.3231 657.7608,-150.7206"/>
<polygon fill="#de958e" stroke="#de958e" points="655.9536,-153.718 666.3076,-155.964 659.6141,-147.7514 655.9536,-153.718"/>
</g>
</g>
</svg>
