<?xml version="1.0" encoding="UTF-8" standalone="no"?>
<!DOCTYPE svg PUBLIC "-//W3C//DTD SVG 1.1//EN"
 "http://www.w3.org/Graphics/SVG/1.1/DTD/svg11.dtd">
<!-- Generated by graphviz version 2.43.0 (0)
 -->
<!-- Title: %3 Pages: 1 -->
<svg width="3264pt" height="2086pt"
 viewBox="0.00 0.00 3264.00 2085.77" xmlns="http://www.w3.org/2000/svg" xmlns:xlink="http://www.w3.org/1999/xlink">
<g id="graph0" class="graph" transform="scale(1 1) rotate(0) translate(4 2081.77)">
<title>%3</title>
<polygon fill="#242424" stroke="transparent" points="-4,4 -4,-2081.77 3260,-2081.77 3260,4 -4,4"/>
<!-- cli -->
<g id="node1" class="node">
<title>cli</title>
<polygon fill="#343434" stroke="#343434" points="72.5,-1455.76 18.5,-1455.76 18.5,-1419.76 72.5,-1419.76 72.5,-1455.76"/>
<text text-anchor="middle" x="45.5" y="-1434.06" font-family="Courier,monospace" font-size="14.00" fill="#b6ecf3">cli</text>
</g>
<!-- hidebound.command -->
<g id="node2" class="node">
<title>hidebound.command</title>
<polygon fill="#343434" stroke="#343434" points="284,-1920.76 127,-1920.76 127,-1884.76 284,-1884.76 284,-1920.76"/>
<text text-anchor="middle" x="205.5" y="-1899.06" font-family="Courier,monospace" font-size="14.00" fill="#b6ecf3">hidebound.command</text>
</g>
<!-- hidebound.core.config -->
<g id="node3" class="node">
<title>hidebound.core.config</title>
<polygon fill="#343434" stroke="#343434" points="1986,-723.76 1796,-723.76 1796,-687.76 1986,-687.76 1986,-723.76"/>
<text text-anchor="middle" x="1891" y="-702.06" font-family="Courier,monospace" font-size="14.00" fill="#b6ecf3">hidebound.core.config</text>
</g>
<!-- hidebound.core.database -->
<g id="node5" class="node">
<title>hidebound.core.database</title>
<polygon fill="#343434" stroke="#343434" points="2253,-991.76 2047,-991.76 2047,-955.76 2253,-955.76 2253,-991.76"/>
<text text-anchor="middle" x="2150" y="-970.06" font-family="Courier,monospace" font-size="14.00" fill="#b6ecf3">hidebound.core.database</text>
</g>
<!-- hidebound.core.config&#45;&gt;hidebound.core.database -->
<g id="edge1" class="edge">
<title>hidebound.core.config&#45;&gt;hidebound.core.database</title>
<path fill="none" stroke="#b6ecf3" d="M1974.15,-723.89C1978.4,-726.47 1982.39,-729.41 1986,-732.76 2019.98,-764.36 1998.18,-790.94 2022,-830.76 2049.58,-876.86 2093.02,-921.81 2121.27,-948.64"/>
<polygon fill="#b6ecf3" stroke="#b6ecf3" points="2119.12,-951.43 2128.8,-955.72 2123.91,-946.32 2119.12,-951.43"/>
</g>
<!-- hidebound.server.extension -->
<g id="node21" class="node">
<title>hidebound.server.extension</title>
<polygon fill="#343434" stroke="#343434" points="2763,-1281.76 2532,-1281.76 2532,-1245.76 2763,-1245.76 2763,-1281.76"/>
<text text-anchor="middle" x="2647.5" y="-1260.06" font-family="Courier,monospace" font-size="14.00" fill="#b6ecf3">hidebound.server.extension</text>
</g>
<!-- hidebound.core.config&#45;&gt;hidebound.server.extension -->
<g id="edge2" class="edge">
<title>hidebound.core.config&#45;&gt;hidebound.server.extension</title>
<path fill="none" stroke="#b6ecf3" d="M1963.68,-723.83C1971.34,-726.5 1978.91,-729.48 1986,-732.76 2233.18,-847.28 2295.88,-887.92 2496,-1072.76 2551.84,-1124.34 2603.59,-1197.85 2629.37,-1236.93"/>
<polygon fill="#b6ecf3" stroke="#b6ecf3" points="2626.66,-1239.18 2635.06,-1245.63 2632.52,-1235.35 2626.66,-1239.18"/>
</g>
<!-- hidebound.core.connection -->
<g id="node4" class="node">
<title>hidebound.core.connection</title>
<polygon fill="#343434" stroke="#343434" points="1061,-841.76 838,-841.76 838,-805.76 1061,-805.76 1061,-841.76"/>
<text text-anchor="middle" x="949.5" y="-820.06" font-family="Courier,monospace" font-size="14.00" fill="#b6ecf3">hidebound.core.connection</text>
</g>
<!-- hidebound.core.connection&#45;&gt;hidebound.core.config -->
<g id="edge3" class="edge">
<title>hidebound.core.connection&#45;&gt;hidebound.core.config</title>
<path fill="none" stroke="#b6ecf3" d="M990.57,-805.73C1026.36,-790.49 1080.61,-769.48 1130,-758.76 1252.04,-732.28 1607.56,-716.03 1785.71,-709.32"/>
<polygon fill="#b6ecf3" stroke="#b6ecf3" points="1786.02,-712.81 1795.88,-708.94 1785.76,-705.82 1786.02,-712.81"/>
</g>
<!-- hidebound.core.connection&#45;&gt;hidebound.core.database -->
<g id="edge4" class="edge">
<title>hidebound.core.connection&#45;&gt;hidebound.core.database</title>
<path fill="none" stroke="#b6ecf3" d="M1061.24,-821.72C1319.58,-817.25 1943.56,-808.26 1986,-824.76 2049.42,-849.41 2103.24,-911.49 2130.29,-947.25"/>
<polygon fill="#b6ecf3" stroke="#b6ecf3" points="2127.82,-949.79 2136.59,-955.74 2133.44,-945.62 2127.82,-949.79"/>
</g>
<!-- hidebound.exporters.exporter_base -->
<g id="node15" class="node">
<title>hidebound.exporters.exporter_base</title>
<polygon fill="#343434" stroke="#343434" points="1419,-711.76 1130,-711.76 1130,-675.76 1419,-675.76 1419,-711.76"/>
<text text-anchor="middle" x="1274.5" y="-690.06" font-family="Courier,monospace" font-size="14.00" fill="#b6ecf3">hidebound.exporters.exporter_base</text>
</g>
<!-- hidebound.core.connection&#45;&gt;hidebound.exporters.exporter_base -->
<g id="edge5" class="edge">
<title>hidebound.core.connection&#45;&gt;hidebound.exporters.exporter_base</title>
<path fill="none" stroke="#b6ecf3" d="M977.93,-805.59C1012.17,-783.67 1073.17,-747.12 1130,-725.76 1141.31,-721.51 1153.35,-717.73 1165.45,-714.41"/>
<polygon fill="#b6ecf3" stroke="#b6ecf3" points="1166.39,-717.78 1175.16,-711.83 1164.6,-711.01 1166.39,-717.78"/>
</g>
<!-- hidebound.server.api -->
<g id="node18" class="node">
<title>hidebound.server.api</title>
<polygon fill="#343434" stroke="#343434" points="2496,-1622.76 2314,-1622.76 2314,-1586.76 2496,-1586.76 2496,-1622.76"/>
<text text-anchor="middle" x="2405" y="-1601.06" font-family="Courier,monospace" font-size="14.00" fill="#b6ecf3">hidebound.server.api</text>
</g>
<!-- hidebound.core.database&#45;&gt;hidebound.server.api -->
<g id="edge6" class="edge">
<title>hidebound.core.database&#45;&gt;hidebound.server.api</title>
<path fill="none" stroke="#b6ecf3" d="M2158.3,-991.96C2193.93,-1080.84 2349.65,-1469.2 2392.85,-1576.95"/>
<polygon fill="#b6ecf3" stroke="#b6ecf3" points="2389.7,-1578.5 2396.67,-1586.48 2396.2,-1575.9 2389.7,-1578.5"/>
</g>
<!-- hidebound.core.database&#45;&gt;hidebound.server.extension -->
<g id="edge7" class="edge">
<title>hidebound.core.database&#45;&gt;hidebound.server.extension</title>
<path fill="none" stroke="#b6ecf3" d="M2182,-991.9C2268.2,-1042.35 2510.74,-1184.3 2606.7,-1240.46"/>
<polygon fill="#b6ecf3" stroke="#b6ecf3" points="2605.12,-1243.6 2615.52,-1245.63 2608.65,-1237.55 2605.12,-1243.6"/>
</g>
<!-- hidebound.core.database_tools -->
<g id="node6" class="node">
<title>hidebound.core.database_tools</title>
<polygon fill="#343434" stroke="#343434" points="1402.5,-1383.76 1146.5,-1383.76 1146.5,-1347.76 1402.5,-1347.76 1402.5,-1383.76"/>
<text text-anchor="middle" x="1274.5" y="-1362.06" font-family="Courier,monospace" font-size="14.00" fill="#b6ecf3">hidebound.core.database_tools</text>
</g>
<!-- hidebound.core.database_tools&#45;&gt;hidebound.core.database -->
<g id="edge8" class="edge">
<title>hidebound.core.database_tools&#45;&gt;hidebound.core.database</title>
<path fill="none" stroke="#b6ecf3" d="M1399.85,-1347.63C1406.78,-1343.77 1413.24,-1339.19 1419,-1333.76 1461.38,-1293.81 1413.62,-1248.75 1455,-1207.76 1554.89,-1108.81 1644.58,-1204.05 1760,-1123.76 1782.48,-1108.12 1773.36,-1089.16 1796,-1073.76 1868.03,-1024.79 1902.25,-1049.67 1986,-1025.76 2019.12,-1016.3 2055.68,-1004.75 2085.76,-994.93"/>
<polygon fill="#b6ecf3" stroke="#b6ecf3" points="2086.88,-998.25 2095.29,-991.81 2084.7,-991.6 2086.88,-998.25"/>
</g>
<!-- hidebound.core.logging -->
<g id="node7" class="node">
<title>hidebound.core.logging</title>
<polygon fill="#343434" stroke="#343434" points="1048.5,-971.76 850.5,-971.76 850.5,-935.76 1048.5,-935.76 1048.5,-971.76"/>
<text text-anchor="middle" x="949.5" y="-950.06" font-family="Courier,monospace" font-size="14.00" fill="#b6ecf3">hidebound.core.logging</text>
</g>
<!-- hidebound.core.logging&#45;&gt;hidebound.core.database -->
<g id="edge9" class="edge">
<title>hidebound.core.logging&#45;&gt;hidebound.core.database</title>
<path fill="none" stroke="#b6ecf3" d="M1048.02,-935.74C1146.51,-922.31 1300.6,-914.59 1419,-969.76 1440.68,-979.86 1433.15,-1000.03 1455,-1009.76 1578.83,-1064.91 1626.19,-1031.47 1760,-1009.76 1776.65,-1007.06 1779.45,-1001.02 1796,-997.76 1875.55,-982.06 1966.93,-976.17 2036.77,-974.15"/>
<polygon fill="#b6ecf3" stroke="#b6ecf3" points="2037.02,-977.64 2046.92,-973.88 2036.83,-970.65 2037.02,-977.64"/>
</g>
<!-- hidebound.core.logging&#45;&gt;hidebound.exporters.exporter_base -->
<g id="edge10" class="edge">
<title>hidebound.core.logging&#45;&gt;hidebound.exporters.exporter_base</title>
<path fill="none" stroke="#b6ecf3" d="M1014.48,-935.66C1042.46,-924.77 1073.5,-908.17 1094,-883.76 1131.19,-839.49 1092.19,-802.49 1130,-758.76 1146.74,-739.39 1170.43,-725.5 1193.74,-715.67"/>
<polygon fill="#b6ecf3" stroke="#b6ecf3" points="1195.35,-718.79 1203.33,-711.83 1192.75,-712.29 1195.35,-718.79"/>
</g>
<!-- hidebound.core.logging&#45;&gt;hidebound.server.api -->
<g id="edge11" class="edge">
<title>hidebound.core.logging&#45;&gt;hidebound.server.api</title>
<path fill="none" stroke="#b6ecf3" d="M1008.63,-971.78C1043.54,-982.06 1088.99,-994.51 1130,-1002.76 1193.5,-1015.54 1372.5,-995.67 1419,-1040.76 1490.44,-1110.04 1402.75,-1177.06 1455,-1261.76 1553.24,-1421.03 1622.89,-1437.68 1796,-1508.76 1996.49,-1591.08 2064.13,-1547.67 2278,-1582.76 2286.44,-1584.14 2295.19,-1585.61 2303.97,-1587.1"/>
<polygon fill="#b6ecf3" stroke="#b6ecf3" points="2303.43,-1590.56 2313.87,-1588.79 2304.61,-1583.66 2303.43,-1590.56"/>
</g>
<!-- hidebound.server.server_tools -->
<g id="node23" class="node">
<title>hidebound.server.server_tools</title>
<polygon fill="#343434" stroke="#343434" points="2278,-1465.76 2022,-1465.76 2022,-1429.76 2278,-1429.76 2278,-1465.76"/>
<text text-anchor="middle" x="2150" y="-1444.06" font-family="Courier,monospace" font-size="14.00" fill="#b6ecf3">hidebound.server.server_tools</text>
</g>
<!-- hidebound.core.logging&#45;&gt;hidebound.server.server_tools -->
<g id="edge12" class="edge">
<title>hidebound.core.logging&#45;&gt;hidebound.server.server_tools</title>
<path fill="none" stroke="#b6ecf3" d="M1048.58,-961.03C1176.41,-971.13 1387.43,-990.15 1419,-1007.76 1478.07,-1040.71 1735.14,-1456.25 1796,-1485.76 1871.98,-1522.6 1902.48,-1498.23 1986,-1485.76 2002.55,-1483.29 2005.8,-1478.95 2022,-1474.76 2030.81,-1472.48 2040.01,-1470.25 2049.24,-1468.11"/>
<polygon fill="#b6ecf3" stroke="#b6ecf3" points="2050.3,-1471.46 2059.27,-1465.82 2048.74,-1464.63 2050.3,-1471.46"/>
</g>
<!-- hidebound.core.parser -->
<g id="node8" class="node">
<title>hidebound.core.parser</title>
<polygon fill="#343434" stroke="#343434" points="510,-1465.76 320,-1465.76 320,-1429.76 510,-1429.76 510,-1465.76"/>
<text text-anchor="middle" x="415" y="-1444.06" font-family="Courier,monospace" font-size="14.00" fill="#b6ecf3">hidebound.core.parser</text>
</g>
<!-- hidebound.core.parser&#45;&gt;hidebound.core.database_tools -->
<g id="edge13" class="edge">
<title>hidebound.core.parser&#45;&gt;hidebound.core.database_tools</title>
<path fill="none" stroke="#b6ecf3" d="M510.07,-1451.81C522.16,-1452.2 534.37,-1452.54 546,-1452.76 790.26,-1457.46 853.91,-1454.93 1094,-1409.76 1128.29,-1403.31 1165.84,-1394.4 1197.69,-1386.28"/>
<polygon fill="#b6ecf3" stroke="#b6ecf3" points="1198.57,-1389.67 1207.38,-1383.79 1196.83,-1382.89 1198.57,-1389.67"/>
</g>
<!-- hidebound.core.specification_base -->
<g id="node9" class="node">
<title>hidebound.core.specification_base</title>
<polygon fill="#343434" stroke="#343434" points="1094,-1063.76 805,-1063.76 805,-1027.76 1094,-1027.76 1094,-1063.76"/>
<text text-anchor="middle" x="949.5" y="-1042.06" font-family="Courier,monospace" font-size="14.00" fill="#b6ecf3">hidebound.core.specification_base</text>
</g>
<!-- hidebound.core.parser&#45;&gt;hidebound.core.specification_base -->
<g id="edge14" class="edge">
<title>hidebound.core.parser&#45;&gt;hidebound.core.specification_base</title>
<path fill="none" stroke="#b6ecf3" d="M486.55,-1429.75C494.57,-1427.04 502.54,-1424.04 510,-1420.76 527.17,-1413.21 528.51,-1405.53 546,-1398.76 640.12,-1362.3 699.86,-1429.3 769,-1355.76 854.34,-1264.99 720.98,-1169.76 805,-1077.76 807.61,-1074.91 810.41,-1072.28 813.37,-1069.86"/>
<polygon fill="#b6ecf3" stroke="#b6ecf3" points="815.51,-1072.63 821.56,-1063.93 811.41,-1066.96 815.51,-1072.63"/>
</g>
<!-- hidebound.core.validators -->
<g id="node13" class="node">
<title>hidebound.core.validators</title>
<polygon fill="#343434" stroke="#343434" points="769,-1443.76 546,-1443.76 546,-1407.76 769,-1407.76 769,-1443.76"/>
<text text-anchor="middle" x="657.5" y="-1422.06" font-family="Courier,monospace" font-size="14.00" fill="#b6ecf3">hidebound.core.validators</text>
</g>
<!-- hidebound.core.parser&#45;&gt;hidebound.core.validators -->
<g id="edge15" class="edge">
<title>hidebound.core.parser&#45;&gt;hidebound.core.validators</title>
<path fill="none" stroke="#b6ecf3" d="M510.02,-1439.16C518.44,-1438.39 527.05,-1437.6 535.66,-1436.81"/>
<polygon fill="#b6ecf3" stroke="#b6ecf3" points="536.13,-1440.29 545.77,-1435.89 535.49,-1433.31 536.13,-1440.29"/>
</g>
<!-- hidebound.core.specification_base&#45;&gt;hidebound.core.config -->
<g id="edge16" class="edge">
<title>hidebound.core.specification_base&#45;&gt;hidebound.core.config</title>
<path fill="none" stroke="#b6ecf3" d="M961.57,-1064.03C986.13,-1102.6 1049.47,-1191.47 1130,-1224.76 1189.35,-1249.3 1371.11,-1267.55 1419,-1224.76 1472.2,-1177.23 1411.51,-962.31 1455,-905.76 1543.71,-790.42 1646.62,-877.96 1760,-786.76 1782.48,-768.68 1772.71,-749.78 1796,-732.76 1797.89,-731.38 1799.86,-730.06 1801.87,-728.82"/>
<polygon fill="#b6ecf3" stroke="#b6ecf3" points="1803.97,-731.66 1811.05,-723.77 1800.6,-725.52 1803.97,-731.66"/>
</g>
<!-- hidebound.core.specification_base&#45;&gt;hidebound.core.database -->
<g id="edge17" class="edge">
<title>hidebound.core.specification_base&#45;&gt;hidebound.core.database</title>
<path fill="none" stroke="#b6ecf3" d="M999.56,-1063.82C1030.79,-1077.66 1069.77,-1099.71 1094,-1130.76 1128.52,-1174.99 1085.02,-1218.22 1130,-1251.76 1232.96,-1328.55 1316.62,-1329.32 1419,-1251.76 1466.11,-1216.07 1413.1,-1165.43 1455,-1123.76 1554.69,-1024.61 1626.53,-1083.96 1760,-1039.76 1776.3,-1034.36 1779.4,-1030.15 1796,-1025.76 1796.19,-1025.71 1933.48,-1005.49 2036.77,-990.28"/>
<polygon fill="#b6ecf3" stroke="#b6ecf3" points="2037.59,-993.7 2046.97,-988.78 2036.57,-986.78 2037.59,-993.7"/>
</g>
<!-- hidebound.core.specification_base&#45;&gt;hidebound.core.database_tools -->
<g id="edge18" class="edge">
<title>hidebound.core.specification_base&#45;&gt;hidebound.core.database_tools</title>
<path fill="none" stroke="#b6ecf3" d="M959.4,-1063.81C982.18,-1108.45 1046.7,-1225.46 1130,-1295.76 1154.07,-1316.07 1185.03,-1332.14 1212.03,-1343.73"/>
<polygon fill="#b6ecf3" stroke="#b6ecf3" points="1210.83,-1347.02 1221.4,-1347.65 1213.52,-1340.56 1210.83,-1347.02"/>
</g>
<!-- hidebound.core.specifications -->
<g id="node10" class="node">
<title>hidebound.core.specifications</title>
<polygon fill="#343434" stroke="#343434" points="1402.5,-1085.76 1146.5,-1085.76 1146.5,-1049.76 1402.5,-1049.76 1402.5,-1085.76"/>
<text text-anchor="middle" x="1274.5" y="-1064.06" font-family="Courier,monospace" font-size="14.00" fill="#b6ecf3">hidebound.core.specifications</text>
</g>
<!-- hidebound.core.specification_base&#45;&gt;hidebound.core.specifications -->
<g id="edge19" class="edge">
<title>hidebound.core.specification_base&#45;&gt;hidebound.core.specifications</title>
<path fill="none" stroke="#b6ecf3" d="M1094.05,-1055.54C1108.02,-1056.49 1122.16,-1057.45 1136.07,-1058.4"/>
<polygon fill="#b6ecf3" stroke="#b6ecf3" points="1135.93,-1061.9 1146.14,-1059.09 1136.4,-1054.91 1135.93,-1061.9"/>
</g>
<!-- hidebound.core.tools -->
<g id="node11" class="node">
<title>hidebound.core.tools</title>
<polygon fill="#343434" stroke="#343434" points="748.5,-524.76 566.5,-524.76 566.5,-488.76 748.5,-488.76 748.5,-524.76"/>
<text text-anchor="middle" x="657.5" y="-503.06" font-family="Courier,monospace" font-size="14.00" fill="#b6ecf3">hidebound.core.tools</text>
</g>
<!-- hidebound.core.tools&#45;&gt;hidebound.core.database -->
<g id="edge20" class="edge">
<title>hidebound.core.tools&#45;&gt;hidebound.core.database</title>
<path fill="none" stroke="#b6ecf3" d="M662.71,-488.45C674.94,-439.86 715.47,-307.51 805,-250.76 893.21,-194.85 1169.06,-213.76 1273.5,-213.76 1273.5,-213.76 1273.5,-213.76 1608.5,-213.76 1797.96,-213.76 1870.24,-261.78 1986,-411.76 2117.98,-582.76 2143.17,-857.41 2147.91,-945.56"/>
<polygon fill="#b6ecf3" stroke="#b6ecf3" points="2144.42,-945.78 2148.41,-955.6 2151.41,-945.44 2144.42,-945.78"/>
</g>
<!-- hidebound.core.tools&#45;&gt;hidebound.core.database_tools -->
<g id="edge21" class="edge">
<title>hidebound.core.tools&#45;&gt;hidebound.core.database_tools</title>
<path fill="none" stroke="#b6ecf3" d="M725.74,-524.77C741.95,-532.01 757.79,-542.02 769,-555.76 816.44,-613.93 753.06,-666.57 805,-720.76 896.9,-816.64 1008.56,-695.08 1094,-796.76 1155.4,-869.84 1089.43,-1138.37 1130,-1224.76 1153.54,-1274.89 1202.97,-1317.01 1237.19,-1341.82"/>
<polygon fill="#b6ecf3" stroke="#b6ecf3" points="1235.36,-1344.81 1245.54,-1347.74 1239.41,-1339.1 1235.36,-1344.81"/>
</g>
<!-- hidebound.core.tools&#45;&gt;hidebound.core.specification_base -->
<g id="edge22" class="edge">
<title>hidebound.core.tools&#45;&gt;hidebound.core.specification_base</title>
<path fill="none" stroke="#b6ecf3" d="M729.27,-524.87C744.64,-532.05 759.2,-542 769,-555.76 823.99,-632.96 750.31,-903.34 805,-980.76 818.81,-1000.31 839.94,-1014.08 861.78,-1023.75"/>
<polygon fill="#b6ecf3" stroke="#b6ecf3" points="860.58,-1027.05 871.16,-1027.65 863.27,-1020.58 860.58,-1027.05"/>
</g>
<!-- hidebound.exporters.disk_exporter -->
<g id="node14" class="node">
<title>hidebound.exporters.disk_exporter</title>
<polygon fill="#343434" stroke="#343434" points="1752,-379.76 1463,-379.76 1463,-343.76 1752,-343.76 1752,-379.76"/>
<text text-anchor="middle" x="1607.5" y="-358.06" font-family="Courier,monospace" font-size="14.00" fill="#b6ecf3">hidebound.exporters.disk_exporter</text>
</g>
<!-- hidebound.core.tools&#45;&gt;hidebound.exporters.disk_exporter -->
<g id="edge23" class="edge">
<title>hidebound.core.tools&#45;&gt;hidebound.exporters.disk_exporter</title>
<path fill="none" stroke="#b6ecf3" d="M665.65,-488.46C682.61,-447.92 729.64,-351.17 805,-313.76 1058.62,-187.86 1414.37,-291.97 1550.51,-340.35"/>
<polygon fill="#b6ecf3" stroke="#b6ecf3" points="1549.33,-343.65 1559.92,-343.73 1551.7,-337.06 1549.33,-343.65"/>
</g>
<!-- hidebound.core.tools&#45;&gt;hidebound.exporters.exporter_base -->
<g id="edge24" class="edge">
<title>hidebound.core.tools&#45;&gt;hidebound.exporters.exporter_base</title>
<path fill="none" stroke="#b6ecf3" d="M748.84,-510.52C840.15,-517.42 983.2,-536.9 1094,-591.76 1113.18,-601.26 1112.21,-611.85 1130,-623.76 1158.04,-642.54 1191.86,-659.29 1219.62,-671.69"/>
<polygon fill="#b6ecf3" stroke="#b6ecf3" points="1218.23,-674.9 1228.79,-675.73 1221.05,-668.49 1218.23,-674.9"/>
</g>
<!-- hidebound.server.app -->
<g id="node19" class="node">
<title>hidebound.server.app</title>
<polygon fill="#343434" stroke="#343434" points="3256,-1729.76 3074,-1729.76 3074,-1693.76 3256,-1693.76 3256,-1729.76"/>
<text text-anchor="middle" x="3165" y="-1708.06" font-family="Courier,monospace" font-size="14.00" fill="#b6ecf3">hidebound.server.app</text>
</g>
<!-- hidebound.core.tools&#45;&gt;hidebound.server.app -->
<g id="edge25" class="edge">
<title>hidebound.core.tools&#45;&gt;hidebound.server.app</title>
<path fill="none" stroke="#b6ecf3" d="M658.97,-488.56C661.69,-425.06 680.13,-212.07 805,-118.76 836.8,-95 1494.61,-23.76 2404,-23.76 2404,-23.76 2404,-23.76 2648.5,-23.76 3010.66,-23.76 3143.53,-1462.99 3161.76,-1683.55"/>
<polygon fill="#b6ecf3" stroke="#b6ecf3" points="3158.29,-1683.98 3162.59,-1693.66 3165.26,-1683.41 3158.29,-1683.98"/>
</g>
<!-- hidebound.core.tools&#45;&gt;hidebound.server.extension -->
<g id="edge26" class="edge">
<title>hidebound.core.tools&#45;&gt;hidebound.server.extension</title>
<path fill="none" stroke="#b6ecf3" d="M666.23,-488.38C692.67,-425.92 779.3,-224.62 805,-206.76 1003.94,-68.48 1647.72,-99.76 1890,-99.76 1890,-99.76 1890,-99.76 2151,-99.76 2406.05,-99.76 2606.16,-1057.85 2641.09,-1235.58"/>
<polygon fill="#b6ecf3" stroke="#b6ecf3" points="2637.67,-1236.33 2643.02,-1245.48 2644.54,-1234.99 2637.67,-1236.33"/>
</g>
<!-- hidebound.core.traits -->
<g id="node12" class="node">
<title>hidebound.core.traits</title>
<polygon fill="#343434" stroke="#343434" points="510,-1227.76 320,-1227.76 320,-1191.76 510,-1191.76 510,-1227.76"/>
<text text-anchor="middle" x="415" y="-1206.06" font-family="Courier,monospace" font-size="14.00" fill="#b6ecf3">hidebound.core.traits</text>
</g>
<!-- hidebound.core.traits&#45;&gt;hidebound.core.specifications -->
<g id="edge27" class="edge">
<title>hidebound.core.traits&#45;&gt;hidebound.core.specifications</title>
<path fill="none" stroke="#b6ecf3" d="M510.29,-1193.56C589.05,-1180.08 704.31,-1160.47 805,-1143.76 922.37,-1124.28 1056.38,-1102.6 1150.93,-1087.39"/>
<polygon fill="#b6ecf3" stroke="#b6ecf3" points="1151.49,-1090.85 1160.81,-1085.81 1150.38,-1083.94 1151.49,-1090.85"/>
</g>
<!-- hidebound.core.validators&#45;&gt;hidebound.core.config -->
<g id="edge28" class="edge">
<title>hidebound.core.validators&#45;&gt;hidebound.core.config</title>
<path fill="none" stroke="#b6ecf3" d="M769.16,-1440.81C781.23,-1442.02 793.36,-1443.05 805,-1443.76 941.25,-1452.1 1318.45,-1517.09 1419,-1424.76 1501.36,-1349.13 1399.26,-1272.7 1455,-1175.76 1541.26,-1025.75 1671.23,-1082.3 1760,-933.76 1806.55,-855.86 1735.2,-800.14 1796,-732.76 1796.65,-732.04 1797.31,-731.34 1797.99,-730.66"/>
<polygon fill="#b6ecf3" stroke="#b6ecf3" points="1800.47,-733.16 1805.87,-724.04 1795.97,-727.8 1800.47,-733.16"/>
</g>
<!-- hidebound.core.validators&#45;&gt;hidebound.core.connection -->
<g id="edge29" class="edge">
<title>hidebound.core.validators&#45;&gt;hidebound.core.connection</title>
<path fill="none" stroke="#b6ecf3" d="M659.63,-1407.61C664.72,-1338.56 690.61,-1088.04 805,-926.76 829.7,-891.93 869.99,-864.51 901.6,-846.75"/>
<polygon fill="#b6ecf3" stroke="#b6ecf3" points="903.6,-849.65 910.69,-841.78 900.23,-843.51 903.6,-849.65"/>
</g>
<!-- hidebound.core.validators&#45;&gt;hidebound.core.specification_base -->
<g id="edge30" class="edge">
<title>hidebound.core.validators&#45;&gt;hidebound.core.specification_base</title>
<path fill="none" stroke="#b6ecf3" d="M752.78,-1407.65C758.84,-1403.83 764.36,-1399.25 769,-1393.76 860.19,-1285.75 710.48,-1182.86 805,-1077.76 807.58,-1074.89 810.36,-1072.24 813.31,-1069.81"/>
<polygon fill="#b6ecf3" stroke="#b6ecf3" points="815.46,-1072.57 821.46,-1063.84 811.33,-1066.92 815.46,-1072.57"/>
</g>
<!-- hidebound.core.validators&#45;&gt;hidebound.core.specifications -->
<g id="edge31" class="edge">
<title>hidebound.core.validators&#45;&gt;hidebound.core.specifications</title>
<path fill="none" stroke="#b6ecf3" d="M751.89,-1407.63C758.24,-1403.83 764.06,-1399.25 769,-1393.76 829.99,-1325.97 740.14,-1255.86 805,-1191.76 897.61,-1100.24 981.32,-1209 1094,-1143.76 1115.87,-1131.1 1108.49,-1113.01 1130,-1099.76 1136.2,-1095.94 1142.8,-1092.57 1149.64,-1089.61"/>
<polygon fill="#b6ecf3" stroke="#b6ecf3" points="1151.11,-1092.78 1159.08,-1085.81 1148.5,-1086.29 1151.11,-1092.78"/>
</g>
<!-- hidebound.core.validators&#45;&gt;hidebound.exporters.disk_exporter -->
<g id="edge32" class="edge">
<title>hidebound.core.validators&#45;&gt;hidebound.exporters.disk_exporter</title>
<path fill="none" stroke="#b6ecf3" d="M746.77,-1407.74C755.08,-1403.27 762.72,-1397.7 769,-1390.76 821.13,-1333.19 748.02,-1272.53 805,-1219.76 900.05,-1131.74 984.02,-1250.22 1094,-1181.76 1118.49,-1166.52 1105.38,-1142.79 1130,-1127.76 1185.17,-1094.07 1374.37,-1141.51 1419,-1094.76 1460.06,-1051.75 1434.11,-616.44 1455,-560.76 1481.85,-489.22 1543.38,-422 1579.22,-386.96"/>
<polygon fill="#b6ecf3" stroke="#b6ecf3" points="1581.68,-389.45 1586.45,-379.99 1576.83,-384.41 1581.68,-389.45"/>
</g>
<!-- hidebound.core.validators&#45;&gt;hidebound.exporters.exporter_base -->
<g id="edge33" class="edge">
<title>hidebound.core.validators&#45;&gt;hidebound.exporters.exporter_base</title>
<path fill="none" stroke="#b6ecf3" d="M748.02,-1407.7C755.93,-1403.23 763.14,-1397.67 769,-1390.76 841.88,-1304.8 728.78,-1222.78 805,-1139.76 894.17,-1042.63 1006.21,-1171.14 1094,-1072.76 1187.53,-967.95 1047.26,-872.28 1130,-758.76 1144.24,-739.23 1165.74,-725.43 1187.81,-715.75"/>
<polygon fill="#b6ecf3" stroke="#b6ecf3" points="1189.37,-718.89 1197.28,-711.84 1186.7,-712.42 1189.37,-718.89"/>
</g>
<!-- hidebound.exporters.girder_exporter -->
<g id="node16" class="node">
<title>hidebound.exporters.girder_exporter</title>
<polygon fill="#343434" stroke="#343434" points="1760,-605.76 1455,-605.76 1455,-569.76 1760,-569.76 1760,-605.76"/>
<text text-anchor="middle" x="1607.5" y="-584.06" font-family="Courier,monospace" font-size="14.00" fill="#b6ecf3">hidebound.exporters.girder_exporter</text>
</g>
<!-- hidebound.core.validators&#45;&gt;hidebound.exporters.girder_exporter -->
<g id="edge34" class="edge">
<title>hidebound.core.validators&#45;&gt;hidebound.exporters.girder_exporter</title>
<path fill="none" stroke="#b6ecf3" d="M722.31,-1407.67C737.78,-1402.71 754.14,-1396.96 769,-1390.76 919.62,-1327.87 970.3,-1326.24 1094,-1219.76 1114.48,-1202.13 1106.86,-1184.71 1130,-1170.76 1241.22,-1103.72 1329.82,-1222.15 1419,-1127.76 1479.53,-1063.69 1416.73,-812.16 1455,-732.76 1480.24,-680.38 1532.95,-636.93 1569.03,-611.64"/>
<polygon fill="#b6ecf3" stroke="#b6ecf3" points="1571.1,-614.47 1577.36,-605.92 1567.14,-608.7 1571.1,-614.47"/>
</g>
<!-- hidebound.exporters.s3_exporter -->
<g id="node17" class="node">
<title>hidebound.exporters.s3_exporter</title>
<polygon fill="#343434" stroke="#343434" points="1743.5,-777.76 1471.5,-777.76 1471.5,-741.76 1743.5,-741.76 1743.5,-777.76"/>
<text text-anchor="middle" x="1607.5" y="-756.06" font-family="Courier,monospace" font-size="14.00" fill="#b6ecf3">hidebound.exporters.s3_exporter</text>
</g>
<!-- hidebound.core.validators&#45;&gt;hidebound.exporters.s3_exporter -->
<g id="edge35" class="edge">
<title>hidebound.core.validators&#45;&gt;hidebound.exporters.s3_exporter</title>
<path fill="none" stroke="#b6ecf3" d="M769.16,-1428.87C968.91,-1433.34 1373.36,-1436.76 1419,-1392.76 1491.06,-1323.29 1417.46,-1036.55 1455,-943.76 1481.69,-877.78 1540.9,-817.41 1576.89,-784.88"/>
<polygon fill="#b6ecf3" stroke="#b6ecf3" points="1579.49,-787.26 1584.63,-777.99 1574.83,-782.03 1579.49,-787.26"/>
</g>
<!-- hidebound.core.validators&#45;&gt;hidebound.server.api -->
<g id="edge36" class="edge">
<title>hidebound.core.validators&#45;&gt;hidebound.server.api</title>
<path fill="none" stroke="#b6ecf3" d="M751.13,-1443.81C757.72,-1447.62 763.81,-1452.22 769,-1457.76 819.74,-1511.88 750.08,-1570.89 805,-1620.76 882.64,-1691.26 1168.62,-1677.76 1273.5,-1677.76 1273.5,-1677.76 1273.5,-1677.76 1608.5,-1677.76 1776.49,-1677.76 1820.53,-1687.75 1986,-1658.76 2002.48,-1655.87 2005.62,-1651.15 2022,-1647.76 2116.44,-1628.19 2225.98,-1617.01 2303.49,-1610.99"/>
<polygon fill="#b6ecf3" stroke="#b6ecf3" points="2304.02,-1614.46 2313.73,-1610.21 2303.49,-1607.48 2304.02,-1614.46"/>
</g>
<!-- hidebound.exporters.disk_exporter&#45;&gt;hidebound.core.config -->
<g id="edge37" class="edge">
<title>hidebound.exporters.disk_exporter&#45;&gt;hidebound.core.config</title>
<path fill="none" stroke="#b6ecf3" d="M1738.28,-379.78C1746.04,-383.65 1753.38,-388.27 1760,-393.76 1783.41,-413.16 1854.12,-605.64 1880.2,-678.24"/>
<polygon fill="#b6ecf3" stroke="#b6ecf3" points="1876.91,-679.42 1883.57,-687.66 1883.5,-677.06 1876.91,-679.42"/>
</g>
<!-- hidebound.exporters.disk_exporter&#45;&gt;hidebound.core.database -->
<g id="edge38" class="edge">
<title>hidebound.exporters.disk_exporter&#45;&gt;hidebound.core.database</title>
<path fill="none" stroke="#b6ecf3" d="M1725.27,-379.77C1737.31,-383.57 1749.12,-388.18 1760,-393.76 1880.95,-455.75 1906.88,-489.25 1986,-599.76 2069,-715.69 2122.25,-880.54 2141.22,-945.7"/>
<polygon fill="#b6ecf3" stroke="#b6ecf3" points="2137.95,-946.99 2144.07,-955.63 2144.68,-945.06 2137.95,-946.99"/>
</g>
<!-- hidebound.exporters.exporter_base&#45;&gt;hidebound.exporters.disk_exporter -->
<g id="edge39" class="edge">
<title>hidebound.exporters.exporter_base&#45;&gt;hidebound.exporters.disk_exporter</title>
<path fill="none" stroke="#b6ecf3" d="M1305.24,-675.69C1335.52,-656.57 1383,-624.55 1419,-590.76 1489.08,-525 1556.84,-433.09 1588.27,-388.35"/>
<polygon fill="#b6ecf3" stroke="#b6ecf3" points="1591.2,-390.25 1594.06,-380.05 1585.46,-386.25 1591.2,-390.25"/>
</g>
<!-- hidebound.exporters.exporter_base&#45;&gt;hidebound.exporters.girder_exporter -->
<g id="edge40" class="edge">
<title>hidebound.exporters.exporter_base&#45;&gt;hidebound.exporters.girder_exporter</title>
<path fill="none" stroke="#b6ecf3" d="M1332.02,-675.66C1389.86,-657.14 1479.67,-628.38 1540.67,-608.84"/>
<polygon fill="#b6ecf3" stroke="#b6ecf3" points="1541.75,-612.17 1550.21,-605.79 1539.62,-605.5 1541.75,-612.17"/>
</g>
<!-- hidebound.exporters.exporter_base&#45;&gt;hidebound.exporters.s3_exporter -->
<g id="edge41" class="edge">
<title>hidebound.exporters.exporter_base&#45;&gt;hidebound.exporters.s3_exporter</title>
<path fill="none" stroke="#b6ecf3" d="M1365.95,-711.79C1409.37,-720.45 1461.53,-730.85 1506.17,-739.75"/>
<polygon fill="#b6ecf3" stroke="#b6ecf3" points="1505.67,-743.22 1516.16,-741.75 1507.04,-736.36 1505.67,-743.22"/>
</g>
<!-- hidebound.exporters.girder_exporter&#45;&gt;hidebound.core.config -->
<g id="edge42" class="edge">
<title>hidebound.exporters.girder_exporter&#45;&gt;hidebound.core.config</title>
<path fill="none" stroke="#b6ecf3" d="M1651.56,-605.81C1701.54,-626.76 1783.95,-661.31 1837.6,-683.8"/>
<polygon fill="#b6ecf3" stroke="#b6ecf3" points="1836.37,-687.07 1846.94,-687.71 1839.08,-680.62 1836.37,-687.07"/>
</g>
<!-- hidebound.exporters.girder_exporter&#45;&gt;hidebound.core.database -->
<g id="edge43" class="edge">
<title>hidebound.exporters.girder_exporter&#45;&gt;hidebound.core.database</title>
<path fill="none" stroke="#b6ecf3" d="M1760.45,-596C1834.69,-606.66 1921.66,-629.72 1986,-678.76 2077.97,-748.86 2125.08,-886.54 2141.79,-945.68"/>
<polygon fill="#b6ecf3" stroke="#b6ecf3" points="2138.45,-946.74 2144.47,-955.45 2145.2,-944.88 2138.45,-946.74"/>
</g>
<!-- hidebound.exporters.s3_exporter&#45;&gt;hidebound.core.config -->
<g id="edge44" class="edge">
<title>hidebound.exporters.s3_exporter&#45;&gt;hidebound.core.config</title>
<path fill="none" stroke="#b6ecf3" d="M1702.63,-741.7C1729.39,-736.57 1758.69,-730.95 1786,-725.71"/>
<polygon fill="#b6ecf3" stroke="#b6ecf3" points="1786.8,-729.12 1795.96,-723.8 1785.48,-722.25 1786.8,-729.12"/>
</g>
<!-- hidebound.exporters.s3_exporter&#45;&gt;hidebound.core.database -->
<g id="edge45" class="edge">
<title>hidebound.exporters.s3_exporter&#45;&gt;hidebound.core.database</title>
<path fill="none" stroke="#b6ecf3" d="M1631.32,-777.95C1665.26,-804.11 1731.92,-852.12 1796,-878.76 1875.94,-912 1902.46,-899.03 1986,-921.76 2019.62,-930.91 2056.66,-942.59 2086.91,-952.57"/>
<polygon fill="#b6ecf3" stroke="#b6ecf3" points="2085.9,-955.91 2096.49,-955.74 2088.1,-949.27 2085.9,-955.91"/>
</g>
<!-- hidebound.server.api&#45;&gt;hidebound.server.extension -->
<g id="edge46" class="edge">
<title>hidebound.server.api&#45;&gt;hidebound.server.extension</title>
<path fill="none" stroke="#b6ecf3" d="M2418.93,-1586.43C2458.99,-1529.63 2581.13,-1356.44 2627.96,-1290.05"/>
<polygon fill="#b6ecf3" stroke="#b6ecf3" points="2630.89,-1291.96 2633.8,-1281.77 2625.17,-1287.92 2630.89,-1291.96"/>
</g>
<!-- hidebound.server.components -->
<g id="node20" class="node">
<title>hidebound.server.components</title>
<polygon fill="#343434" stroke="#343434" points="2269.5,-1893.76 2030.5,-1893.76 2030.5,-1857.76 2269.5,-1857.76 2269.5,-1893.76"/>
<text text-anchor="middle" x="2150" y="-1872.06" font-family="Courier,monospace" font-size="14.00" fill="#b6ecf3">hidebound.server.components</text>
</g>
<!-- hidebound.server.components&#45;&gt;hidebound.server.app -->
<g id="edge47" class="edge">
<title>hidebound.server.components&#45;&gt;hidebound.server.app</title>
<path fill="none" stroke="#b6ecf3" d="M2210.92,-1893.81C2360.27,-1935.24 2757.24,-2023.14 3038,-1881.76 3097.44,-1851.83 3135.85,-1779.14 3153.23,-1739.19"/>
<polygon fill="#b6ecf3" stroke="#b6ecf3" points="3156.53,-1740.35 3157.19,-1729.78 3150.08,-1737.63 3156.53,-1740.35"/>
</g>
<!-- hidebound.server.extensions -->
<g id="node22" class="node">
<title>hidebound.server.extensions</title>
<polygon fill="#343434" stroke="#343434" points="3038,-1756.76 2799,-1756.76 2799,-1720.76 3038,-1720.76 3038,-1756.76"/>
<text text-anchor="middle" x="2918.5" y="-1735.06" font-family="Courier,monospace" font-size="14.00" fill="#b6ecf3">hidebound.server.extensions</text>
</g>
<!-- hidebound.server.extension&#45;&gt;hidebound.server.extensions -->
<g id="edge48" class="edge">
<title>hidebound.server.extension&#45;&gt;hidebound.server.extensions</title>
<path fill="none" stroke="#b6ecf3" d="M2658.13,-1282.04C2679.91,-1324.09 2733.36,-1431.41 2763,-1526.76 2787.87,-1606.75 2740.72,-1651.59 2799,-1711.76 2799.81,-1712.59 2800.63,-1713.4 2801.48,-1714.19"/>
<polygon fill="#b6ecf3" stroke="#b6ecf3" points="2799.58,-1717.15 2809.57,-1720.68 2803.96,-1711.69 2799.58,-1717.15"/>
</g>
<!-- hidebound.server.extensions&#45;&gt;hidebound.server.api -->
<g id="edge49" class="edge">
<title>hidebound.server.extensions&#45;&gt;hidebound.server.api</title>
<path fill="none" stroke="#b6ecf3" d="M2836.12,-1720.69C2823.67,-1717.79 2810.98,-1714.75 2799,-1711.76 2686.83,-1683.72 2557.63,-1647.85 2478.91,-1625.59"/>
<polygon fill="#b6ecf3" stroke="#b6ecf3" points="2479.66,-1622.17 2469.09,-1622.81 2477.76,-1628.9 2479.66,-1622.17"/>
</g>
<!-- hidebound.server.extensions&#45;&gt;hidebound.server.app -->
<g id="edge50" class="edge">
<title>hidebound.server.extensions&#45;&gt;hidebound.server.app</title>
<path fill="none" stroke="#b6ecf3" d="M3038.17,-1725.66C3046.73,-1724.71 3055.32,-1723.76 3063.76,-1722.83"/>
<polygon fill="#b6ecf3" stroke="#b6ecf3" points="3064.42,-1726.28 3073.98,-1721.7 3063.65,-1719.32 3064.42,-1726.28"/>
</g>
<!-- hidebound.server.server_tools&#45;&gt;hidebound.server.api -->
<g id="edge51" class="edge">
<title>hidebound.server.server_tools&#45;&gt;hidebound.server.api</title>
<path fill="none" stroke="#b6ecf3" d="M2258.69,-1465.83C2265.39,-1468.42 2271.89,-1471.38 2278,-1474.76 2324.06,-1500.24 2363.78,-1548.01 2385.74,-1578.01"/>
<polygon fill="#b6ecf3" stroke="#b6ecf3" points="2383.04,-1580.25 2391.72,-1586.34 2388.73,-1576.17 2383.04,-1580.25"/>
</g>
<!-- hidebound.server.server_tools&#45;&gt;hidebound.server.app -->
<g id="edge52" class="edge">
<title>hidebound.server.server_tools&#45;&gt;hidebound.server.app</title>
<path fill="none" stroke="#b6ecf3" d="M2278.2,-1432.96C2459.31,-1418.09 2796.3,-1413.89 3038,-1549.76 3093.17,-1580.77 3132.44,-1646.74 3151.32,-1684.23"/>
<polygon fill="#b6ecf3" stroke="#b6ecf3" points="3148.34,-1686.11 3155.88,-1693.55 3154.63,-1683.03 3148.34,-1686.11"/>
</g>
<!-- click -->
<g id="node24" class="node">
<title>click</title>
<polygon fill="#343434" stroke="#343434" points="74.5,-1920.76 16.5,-1920.76 16.5,-1884.76 74.5,-1884.76 74.5,-1920.76"/>
<text text-anchor="middle" x="45.5" y="-1899.06" font-family="Courier,monospace" font-size="14.00" fill="#de958e">click</text>
</g>
<!-- click&#45;&gt;hidebound.command -->
<g id="edge53" class="edge">
<title>click&#45;&gt;hidebound.command</title>
<path fill="none" stroke="#de958e" d="M74.75,-1902.76C86.76,-1902.76 101.49,-1902.76 116.66,-1902.76"/>
<polygon fill="#de958e" stroke="#de958e" points="116.67,-1906.26 126.67,-1902.76 116.67,-1899.26 116.67,-1906.26"/>
</g>
<!-- dash -->
<g id="node25" class="node">
<title>dash</title>
<polygon fill="#343434" stroke="#343434" points="1918,-2044.76 1864,-2044.76 1864,-2008.76 1918,-2008.76 1918,-2044.76"/>
<text text-anchor="middle" x="1891" y="-2023.06" font-family="Courier,monospace" font-size="14.00" fill="#de958e">dash</text>
</g>
<!-- dash&#45;&gt;hidebound.server.app -->
<g id="edge54" class="edge">
<title>dash&#45;&gt;hidebound.server.app</title>
<path fill="none" stroke="#de958e" d="M1918.03,-2030.85C1993.17,-2042.28 2216.99,-2073.76 2404,-2073.76 2404,-2073.76 2404,-2073.76 2648.5,-2073.76 2825.22,-2073.76 2900.21,-2104.41 3038,-1993.76 3119.9,-1927.99 3150.23,-1797.77 3159.97,-1740.24"/>
<polygon fill="#de958e" stroke="#de958e" points="3163.47,-1740.48 3161.6,-1730.05 3156.56,-1739.37 3163.47,-1740.48"/>
</g>
<!-- dash&#45;&gt;hidebound.server.components -->
<g id="edge55" class="edge">
<title>dash&#45;&gt;hidebound.server.components</title>
<path fill="none" stroke="#de958e" d="M1918.06,-2011.45C1963.17,-1984.94 2056.1,-1930.34 2109.3,-1899.09"/>
<polygon fill="#de958e" stroke="#de958e" points="2111.26,-1901.99 2118.11,-1893.91 2107.72,-1895.96 2111.26,-1901.99"/>
</g>
<!-- dash_cytoscape -->
<g id="node26" class="node">
<title>dash_cytoscape</title>
<polygon fill="#343434" stroke="#343434" points="1957,-1889.76 1825,-1889.76 1825,-1853.76 1957,-1853.76 1957,-1889.76"/>
<text text-anchor="middle" x="1891" y="-1868.06" font-family="Courier,monospace" font-size="14.00" fill="#de958e">dash_cytoscape</text>
</g>
<!-- dash_cytoscape&#45;&gt;hidebound.server.components -->
<g id="edge56" class="edge">
<title>dash_cytoscape&#45;&gt;hidebound.server.components</title>
<path fill="none" stroke="#de958e" d="M1957.18,-1872.77C1976.53,-1873.08 1998.42,-1873.42 2020.33,-1873.76"/>
<polygon fill="#de958e" stroke="#de958e" points="2020.33,-1877.26 2030.38,-1873.91 2020.44,-1870.26 2020.33,-1877.26"/>
</g>
<!-- dash.dependencies -->
<g id="node27" class="node">
<title>dash.dependencies</title>
<polygon fill="#343434" stroke="#343434" points="2997,-1702.76 2840,-1702.76 2840,-1666.76 2997,-1666.76 2997,-1702.76"/>
<text text-anchor="middle" x="2918.5" y="-1681.06" font-family="Courier,monospace" font-size="14.00" fill="#de958e">dash.dependencies</text>
</g>
<!-- dash.dependencies&#45;&gt;hidebound.server.app -->
<g id="edge57" class="edge">
<title>dash.dependencies&#45;&gt;hidebound.server.app</title>
<path fill="none" stroke="#de958e" d="M2997.2,-1693.34C3018.3,-1695.67 3041.45,-1698.23 3063.61,-1700.67"/>
<polygon fill="#de958e" stroke="#de958e" points="3063.38,-1704.17 3073.71,-1701.79 3064.15,-1697.21 3063.38,-1704.17"/>
</g>
<!-- dash.exceptions -->
<g id="node28" class="node">
<title>dash.exceptions</title>
<polygon fill="#343434" stroke="#343434" points="2988.5,-1648.76 2848.5,-1648.76 2848.5,-1612.76 2988.5,-1612.76 2988.5,-1648.76"/>
<text text-anchor="middle" x="2918.5" y="-1627.06" font-family="Courier,monospace" font-size="14.00" fill="#de958e">dash.exceptions</text>
</g>
<!-- dash.exceptions&#45;&gt;hidebound.server.app -->
<g id="edge58" class="edge">
<title>dash.exceptions&#45;&gt;hidebound.server.app</title>
<path fill="none" stroke="#de958e" d="M2988.69,-1644.31C3005.01,-1648.12 3022.25,-1652.64 3038,-1657.76 3064.85,-1666.49 3093.88,-1678.73 3117.3,-1689.35"/>
<polygon fill="#de958e" stroke="#de958e" points="3116.09,-1692.65 3126.64,-1693.63 3119.01,-1686.28 3116.09,-1692.65"/>
</g>
<!-- flask_monitoringdashboard -->
<g id="node29" class="node">
<title>flask_monitoringdashboard</title>
<polygon fill="#343434" stroke="#343434" points="3030,-1594.76 2807,-1594.76 2807,-1558.76 3030,-1558.76 3030,-1594.76"/>
<text text-anchor="middle" x="2918.5" y="-1573.06" font-family="Courier,monospace" font-size="14.00" fill="#de958e">flask_monitoringdashboard</text>
</g>
<!-- flask_monitoringdashboard&#45;&gt;hidebound.server.app -->
<g id="edge59" class="edge">
<title>flask_monitoringdashboard&#45;&gt;hidebound.server.app</title>
<path fill="none" stroke="#de958e" d="M3016.9,-1594.85C3024.2,-1597.44 3031.31,-1600.39 3038,-1603.76 3078.87,-1624.33 3117.52,-1660.94 3140.98,-1685.78"/>
<polygon fill="#de958e" stroke="#de958e" points="3138.68,-1688.44 3148.05,-1693.39 3143.81,-1683.68 3138.68,-1688.44"/>
</g>
<!-- hidebound.server -->
<g id="node30" class="node">
<title>hidebound.server</title>
<polygon fill="#343434" stroke="#343434" points="1965.5,-1943.76 1816.5,-1943.76 1816.5,-1907.76 1965.5,-1907.76 1965.5,-1943.76"/>
<text text-anchor="middle" x="1891" y="-1922.06" font-family="Courier,monospace" font-size="14.00" fill="#a0d17b">hidebound.server</text>
</g>
<!-- hidebound.server&#45;&gt;hidebound.server.api -->
<g id="edge60" class="edge">
<title>hidebound.server&#45;&gt;hidebound.server.api</title>
<path fill="none" stroke="#a0d17b" d="M1965.76,-1930.39C2063.61,-1935.03 2229.61,-1937.23 2278,-1902.76 2312.08,-1878.48 2297.79,-1854.34 2314,-1815.76 2341.73,-1749.76 2374.9,-1672.41 2392.19,-1632.19"/>
<polygon fill="#a0d17b" stroke="#a0d17b" points="2395.49,-1633.36 2396.23,-1622.8 2389.06,-1630.6 2395.49,-1633.36"/>
</g>
<!-- hidebound.server&#45;&gt;hidebound.server.app -->
<g id="edge61" class="edge">
<title>hidebound.server&#45;&gt;hidebound.server.app</title>
<path fill="none" stroke="#a0d17b" d="M1928.68,-1943.88C1954.26,-1955.79 1989.49,-1970.78 2022,-1979.76 2187.39,-2025.47 2232.41,-2035.76 2404,-2035.76 2404,-2035.76 2404,-2035.76 2648.5,-2035.76 2828.02,-2035.76 2895.78,-2038.32 3038,-1928.76 3102.65,-1878.96 3140.15,-1785.84 3155.62,-1739.47"/>
<polygon fill="#a0d17b" stroke="#a0d17b" points="3159,-1740.39 3158.75,-1729.79 3152.34,-1738.23 3159,-1740.39"/>
</g>
<!-- hidebound.server&#45;&gt;hidebound.server.components -->
<g id="edge62" class="edge">
<title>hidebound.server&#45;&gt;hidebound.server.components</title>
<path fill="none" stroke="#a0d17b" d="M1965.65,-1911.43C1990.75,-1906.55 2019.28,-1901 2046.24,-1895.75"/>
<polygon fill="#a0d17b" stroke="#a0d17b" points="2046.95,-1899.18 2056.1,-1893.83 2045.61,-1892.31 2046.95,-1899.18"/>
</g>
<!-- hidebound.server&#45;&gt;hidebound.server.extension -->
<g id="edge63" class="edge">
<title>hidebound.server&#45;&gt;hidebound.server.extension</title>
<path fill="none" stroke="#a0d17b" d="M1965.36,-1943.79C2045.55,-1959.73 2176.18,-1974.48 2278,-1931.76 2547.49,-1818.69 2626.18,-1404.27 2642.78,-1291.98"/>
<polygon fill="#a0d17b" stroke="#a0d17b" points="2646.28,-1292.19 2644.23,-1281.79 2639.35,-1291.2 2646.28,-1292.19"/>
</g>
<!-- hidebound.server&#45;&gt;hidebound.server.extensions -->
<g id="edge64" class="edge">
<title>hidebound.server&#45;&gt;hidebound.server.extensions</title>
<path fill="none" stroke="#a0d17b" d="M1948.01,-1943.76C1970.72,-1950.17 1997.36,-1956.59 2022,-1959.76 2134.85,-1974.27 2165.79,-1978.6 2278,-1959.76 2508.29,-1921.09 2766.55,-1809.21 2870.47,-1761.14"/>
<polygon fill="#a0d17b" stroke="#a0d17b" points="2872.15,-1764.22 2879.75,-1756.83 2869.2,-1757.87 2872.15,-1764.22"/>
</g>
<!-- hidebound.server&#45;&gt;hidebound.server.server_tools -->
<g id="edge65" class="edge">
<title>hidebound.server&#45;&gt;hidebound.server.server_tools</title>
<path fill="none" stroke="#a0d17b" d="M1965.72,-1914.42C1973.46,-1910.55 1980.5,-1905.45 1986,-1898.76 2046.04,-1825.7 1959.43,-1545.66 2022,-1474.76 2022.64,-1474.04 2023.29,-1473.33 2023.95,-1472.65"/>
<polygon fill="#a0d17b" stroke="#a0d17b" points="2026.41,-1475.14 2031.54,-1465.87 2021.75,-1469.92 2026.41,-1475.14"/>
</g>
<!-- flask -->
<g id="node31" class="node">
<title>flask</title>
<polygon fill="#343434" stroke="#343434" points="1920,-1790.76 1862,-1790.76 1862,-1754.76 1920,-1754.76 1920,-1790.76"/>
<text text-anchor="middle" x="1891" y="-1769.06" font-family="Courier,monospace" font-size="14.00" fill="#de958e">flask</text>
</g>
<!-- flask&#45;&gt;hidebound.server.api -->
<g id="edge66" class="edge">
<title>flask&#45;&gt;hidebound.server.api</title>
<path fill="none" stroke="#de958e" d="M1920.24,-1758.83C1946.13,-1746.59 1985.83,-1729.16 2022,-1718.76 2132.88,-1686.87 2169.22,-1714.21 2278,-1675.76 2310.89,-1664.13 2345.19,-1644.21 2369.69,-1628.43"/>
<polygon fill="#de958e" stroke="#de958e" points="2371.8,-1631.23 2378.25,-1622.82 2367.96,-1625.37 2371.8,-1631.23"/>
</g>
<!-- flask&#45;&gt;hidebound.server.app -->
<g id="edge67" class="edge">
<title>flask&#45;&gt;hidebound.server.app</title>
<path fill="none" stroke="#de958e" d="M1920.2,-1779.5C1946.39,-1785.4 1986.57,-1793.52 2022,-1796.76 2135.3,-1807.13 2164.25,-1799.08 2278,-1796.76 2615.99,-1789.87 2708.3,-1840.47 3038,-1765.76 3067.2,-1759.14 3098.13,-1745.99 3122.04,-1734.32"/>
<polygon fill="#de958e" stroke="#de958e" points="3123.77,-1737.36 3131.16,-1729.77 3120.65,-1731.1 3123.77,-1737.36"/>
</g>
<!-- flask&#45;&gt;hidebound.server.components -->
<g id="edge68" class="edge">
<title>flask&#45;&gt;hidebound.server.components</title>
<path fill="none" stroke="#de958e" d="M1920.37,-1778.51C1939.93,-1783.38 1965.91,-1791.69 1986,-1804.76 2005.77,-1817.62 2001.72,-1831.71 2022,-1843.76 2028.6,-1847.68 2035.66,-1851.12 2042.96,-1854.14"/>
<polygon fill="#de958e" stroke="#de958e" points="2041.71,-1857.42 2052.3,-1857.75 2044.24,-1850.89 2041.71,-1857.42"/>
</g>
<!-- flask&#45;&gt;hidebound.server.extension -->
<g id="edge69" class="edge">
<title>flask&#45;&gt;hidebound.server.extension</title>
<path fill="none" stroke="#de958e" d="M1920.39,-1778.12C1985.35,-1789.25 2149.14,-1810.8 2278,-1772.76 2388.67,-1740.09 2422.33,-1720.57 2496,-1631.76 2584.91,-1524.57 2627.16,-1357.75 2641.07,-1291.88"/>
<polygon fill="#de958e" stroke="#de958e" points="2644.55,-1292.34 2643.13,-1281.84 2637.69,-1290.93 2644.55,-1292.34"/>
</g>
<!-- flask&#45;&gt;hidebound.server.server_tools -->
<g id="edge70" class="edge">
<title>flask&#45;&gt;hidebound.server.server_tools</title>
<path fill="none" stroke="#de958e" d="M1911.94,-1754.67C1933.69,-1733.76 1967.81,-1697.26 1986,-1658.76 2021.6,-1583.42 1963.56,-1534.16 2022,-1474.76 2022.81,-1473.94 2023.64,-1473.13 2024.48,-1472.36"/>
<polygon fill="#de958e" stroke="#de958e" points="2026.92,-1474.89 2032.54,-1465.91 2022.55,-1469.42 2026.92,-1474.89"/>
</g>
<!-- hidebound -->
<g id="node32" class="node">
<title>hidebound</title>
<polygon fill="#343434" stroke="#343434" points="91,-1509.76 0,-1509.76 0,-1473.76 91,-1473.76 91,-1509.76"/>
<text text-anchor="middle" x="45.5" y="-1488.06" font-family="Courier,monospace" font-size="14.00" fill="#a0d17b">hidebound</text>
</g>
<!-- hidebound&#45;&gt;hidebound.command -->
<g id="edge71" class="edge">
<title>hidebound&#45;&gt;hidebound.command</title>
<path fill="none" stroke="#a0d17b" d="M48.15,-1510.14C54.58,-1578.12 79.98,-1814.28 127,-1870.76 129.42,-1873.67 132.16,-1876.32 135.11,-1878.74"/>
<polygon fill="#a0d17b" stroke="#a0d17b" points="133.2,-1881.67 143.38,-1884.58 137.24,-1875.95 133.2,-1881.67"/>
</g>
<!-- hidebound&#45;&gt;hidebound.server -->
<g id="edge72" class="edge">
<title>hidebound&#45;&gt;hidebound.server</title>
<path fill="none" stroke="#a0d17b" d="M53.87,-1509.86C85.19,-1583.51 214.82,-1856.76 414,-1856.76 414,-1856.76 414,-1856.76 1275.5,-1856.76 1466.13,-1856.76 1687.97,-1889.96 1806,-1910.3"/>
<polygon fill="#a0d17b" stroke="#a0d17b" points="1805.6,-1913.78 1816.05,-1912.05 1806.79,-1906.89 1805.6,-1913.78"/>
</g>
<!-- hidebound.exporters -->
<g id="node34" class="node">
<title>hidebound.exporters</title>
<polygon fill="#343434" stroke="#343434" points="1036,-429.76 863,-429.76 863,-393.76 1036,-393.76 1036,-429.76"/>
<text text-anchor="middle" x="949.5" y="-408.06" font-family="Courier,monospace" font-size="14.00" fill="#a0d17b">hidebound.exporters</text>
</g>
<!-- hidebound&#45;&gt;hidebound.exporters -->
<g id="edge73" class="edge">
<title>hidebound&#45;&gt;hidebound.exporters</title>
<path fill="none" stroke="#a0d17b" d="M83.55,-1473.43C86.42,-1470.85 88.97,-1467.97 91,-1464.76 133.55,-1397.33 111.33,-1185.94 127,-1107.76 184.96,-818.54 91.8,-659.66 320,-472.76 473.23,-347.26 723.21,-368.52 857.07,-391.9"/>
<polygon fill="#a0d17b" stroke="#a0d17b" points="856.83,-395.41 867.29,-393.72 858.06,-388.52 856.83,-395.41"/>
</g>
<!-- hidebound.core -->
<g id="node36" class="node">
<title>hidebound.core</title>
<polygon fill="#343434" stroke="#343434" points="271.5,-1152.76 139.5,-1152.76 139.5,-1116.76 271.5,-1116.76 271.5,-1152.76"/>
<text text-anchor="middle" x="205.5" y="-1131.06" font-family="Courier,monospace" font-size="14.00" fill="#a0d17b">hidebound.core</text>
</g>
<!-- hidebound&#45;&gt;hidebound.core -->
<g id="edge74" class="edge">
<title>hidebound&#45;&gt;hidebound.core</title>
<path fill="none" stroke="#a0d17b" d="M83.05,-1473.74C86.1,-1471.08 88.83,-1468.09 91,-1464.76 159.84,-1358.81 58.65,-1289.02 127,-1182.76 133.29,-1172.98 142.36,-1164.86 152.08,-1158.25"/>
<polygon fill="#a0d17b" stroke="#a0d17b" points="154.13,-1161.1 160.75,-1152.83 150.41,-1155.17 154.13,-1161.1"/>
</g>
<!-- rolling_pin.blob_etl -->
<g id="node33" class="node">
<title>rolling_pin.blob_etl</title>
<polygon fill="#343434" stroke="#343434" points="1982,-1649.76 1800,-1649.76 1800,-1613.76 1982,-1613.76 1982,-1649.76"/>
<text text-anchor="middle" x="1891" y="-1628.06" font-family="Courier,monospace" font-size="14.00" fill="#de958e">rolling_pin.blob_etl</text>
</g>
<!-- rolling_pin.blob_etl&#45;&gt;hidebound.server.components -->
<g id="edge75" class="edge">
<title>rolling_pin.blob_etl&#45;&gt;hidebound.server.components</title>
<path fill="none" stroke="#de958e" d="M1907.23,-1649.9C1930.75,-1677.52 1977.81,-1731.29 2022,-1772.76 2052.63,-1801.51 2090.29,-1831.44 2116.61,-1851.58"/>
<polygon fill="#de958e" stroke="#de958e" points="2114.66,-1854.49 2124.74,-1857.76 2118.9,-1848.92 2114.66,-1854.49"/>
</g>
<!-- rolling_pin.blob_etl&#45;&gt;hidebound.server.server_tools -->
<g id="edge76" class="edge">
<title>rolling_pin.blob_etl&#45;&gt;hidebound.server.server_tools</title>
<path fill="none" stroke="#de958e" d="M1908.78,-1613.43C1927.96,-1592.25 1960.06,-1556.17 1986,-1523.76 2002.89,-1502.66 1999.3,-1489.42 2022,-1474.76 2024.44,-1473.18 2026.96,-1471.7 2029.54,-1470.3"/>
<polygon fill="#de958e" stroke="#de958e" points="2031.11,-1473.42 2038.53,-1465.86 2028.01,-1467.15 2031.11,-1473.42"/>
</g>
<!-- hidebound.exporters&#45;&gt;hidebound.exporters.disk_exporter -->
<g id="edge77" class="edge">
<title>hidebound.exporters&#45;&gt;hidebound.exporters.disk_exporter</title>
<path fill="none" stroke="#a0d17b" d="M1036.26,-405.22C1141.78,-397.18 1322.88,-383.38 1452.69,-373.48"/>
<polygon fill="#a0d17b" stroke="#a0d17b" points="1453.03,-376.97 1462.73,-372.72 1452.49,-369.99 1453.03,-376.97"/>
</g>
<!-- hidebound.exporters&#45;&gt;hidebound.exporters.exporter_base -->
<g id="edge78" class="edge">
<title>hidebound.exporters&#45;&gt;hidebound.exporters.exporter_base</title>
<path fill="none" stroke="#a0d17b" d="M1015.57,-429.85C1043.43,-440.68 1074.07,-457.24 1094,-481.76 1135.07,-532.28 1088.93,-573.24 1130,-623.76 1147.68,-645.5 1173.77,-660.99 1198.87,-671.77"/>
<polygon fill="#a0d17b" stroke="#a0d17b" points="1197.84,-675.13 1208.43,-675.67 1200.49,-668.65 1197.84,-675.13"/>
</g>
<!-- hidebound.exporters&#45;&gt;hidebound.exporters.girder_exporter -->
<g id="edge79" class="edge">
<title>hidebound.exporters&#45;&gt;hidebound.exporters.girder_exporter</title>
<path fill="none" stroke="#a0d17b" d="M1036.36,-416.93C1151.84,-424.69 1350.64,-441.13 1419,-465.76 1481.07,-488.12 1543.33,-534.53 1578.19,-563.22"/>
<polygon fill="#a0d17b" stroke="#a0d17b" points="1576.11,-566.04 1586.04,-569.76 1580.59,-560.67 1576.11,-566.04"/>
</g>
<!-- hidebound.exporters&#45;&gt;hidebound.exporters.s3_exporter -->
<g id="edge80" class="edge">
<title>hidebound.exporters&#45;&gt;hidebound.exporters.s3_exporter</title>
<path fill="none" stroke="#a0d17b" d="M986.38,-429.92C1018.13,-447.49 1063.96,-476.72 1094,-512.76 1118.45,-542.09 1099.44,-567.87 1130,-590.76 1233.92,-668.63 1297.92,-586.84 1419,-633.76 1481.29,-657.9 1543.7,-705.7 1578.5,-734.99"/>
<polygon fill="#a0d17b" stroke="#a0d17b" points="1576.43,-737.83 1586.32,-741.65 1580.98,-732.5 1576.43,-737.83"/>
</g>
<!-- json_logging -->
<g id="node35" class="node">
<title>json_logging</title>
<polygon fill="#343434" stroke="#343434" points="715.5,-971.76 599.5,-971.76 599.5,-935.76 715.5,-935.76 715.5,-971.76"/>
<text text-anchor="middle" x="657.5" y="-950.06" font-family="Courier,monospace" font-size="14.00" fill="#de958e">json_logging</text>
</g>
<!-- json_logging&#45;&gt;hidebound.core.logging -->
<g id="edge81" class="edge">
<title>json_logging&#45;&gt;hidebound.core.logging</title>
<path fill="none" stroke="#de958e" d="M715.79,-953.76C751.32,-953.76 798.11,-953.76 840.4,-953.76"/>
<polygon fill="#de958e" stroke="#de958e" points="840.48,-957.26 850.48,-953.76 840.48,-950.26 840.48,-957.26"/>
</g>
<!-- hidebound.core&#45;&gt;hidebound.core.config -->
<g id="edge82" class="edge">
<title>hidebound.core&#45;&gt;hidebound.core.config</title>
<path fill="none" stroke="#a0d17b" d="M211.95,-1116.72C226.1,-1069.25 264.24,-936.67 284,-823.76 297.51,-746.52 276.66,-538.1 320,-472.76 455.89,-267.89 566.85,-267.78 805,-206.76 1034.28,-148.01 1724.46,-247.39 1760,-276.76 1823.85,-329.53 1871.4,-591.17 1885.61,-677.83"/>
<polygon fill="#a0d17b" stroke="#a0d17b" points="1882.16,-678.42 1887.21,-687.73 1889.07,-677.3 1882.16,-678.42"/>
</g>
<!-- hidebound.core&#45;&gt;hidebound.core.connection -->
<g id="edge83" class="edge">
<title>hidebound.core&#45;&gt;hidebound.core.connection</title>
<path fill="none" stroke="#a0d17b" d="M209.64,-1116.52C218.65,-1069.03 248.7,-939.84 320,-861.76 396.55,-777.94 435.8,-770 546,-742.76 642.22,-718.98 675.81,-709.02 769,-742.76 788.58,-749.85 786.91,-762.45 805,-772.76 826,-784.73 850.31,-794.66 872.88,-802.47"/>
<polygon fill="#a0d17b" stroke="#a0d17b" points="871.84,-805.82 882.43,-805.69 874.07,-799.18 871.84,-805.82"/>
</g>
<!-- hidebound.core&#45;&gt;hidebound.core.database -->
<g id="edge84" class="edge">
<title>hidebound.core&#45;&gt;hidebound.core.database</title>
<path fill="none" stroke="#a0d17b" d="M251,-1152.85C263.72,-1160.23 276.23,-1170.07 284,-1182.76 334.97,-1266.06 248.17,-1554.59 320,-1620.76 573.01,-1853.83 794.02,-1789.13 1094,-1620.76 1120.79,-1605.72 1104.42,-1578.77 1130,-1561.76 1238.18,-1489.8 1318.78,-1600.44 1419,-1517.76 1455.76,-1487.43 1421.76,-1450.9 1455,-1416.76 1556.39,-1312.62 1659.24,-1403.51 1760,-1298.76 1794.2,-1263.2 1758.47,-1225.78 1796,-1193.76 1861.21,-1138.14 1911.32,-1202.82 1986,-1160.76 2055.08,-1121.86 2109.09,-1042.21 2133.99,-1000.53"/>
<polygon fill="#a0d17b" stroke="#a0d17b" points="2137.09,-1002.16 2139.13,-991.76 2131.05,-998.62 2137.09,-1002.16"/>
</g>
<!-- hidebound.core&#45;&gt;hidebound.core.database_tools -->
<g id="edge85" class="edge">
<title>hidebound.core&#45;&gt;hidebound.core.database_tools</title>
<path fill="none" stroke="#a0d17b" d="M271.6,-1143.48C333.25,-1152.11 428.27,-1166.37 510,-1182.76 788.08,-1238.51 853.8,-1269.34 1130,-1333.76 1146.62,-1337.64 1164.35,-1341.67 1181.48,-1345.52"/>
<polygon fill="#a0d17b" stroke="#a0d17b" points="1180.96,-1348.99 1191.48,-1347.76 1182.49,-1342.16 1180.96,-1348.99"/>
</g>
<!-- hidebound.core&#45;&gt;hidebound.core.logging -->
<g id="edge86" class="edge">
<title>hidebound.core&#45;&gt;hidebound.core.logging</title>
<path fill="none" stroke="#a0d17b" d="M228.5,-1116.75C250.35,-1099.84 285.5,-1075.18 320,-1061.76 367.6,-1043.25 673.08,-995.32 839.97,-969.99"/>
<polygon fill="#a0d17b" stroke="#a0d17b" points="840.91,-973.39 850.27,-968.43 839.86,-966.47 840.91,-973.39"/>
</g>
<!-- hidebound.core&#45;&gt;hidebound.core.parser -->
<g id="edge87" class="edge">
<title>hidebound.core&#45;&gt;hidebound.core.parser</title>
<path fill="none" stroke="#a0d17b" d="M250.08,-1152.94C262.91,-1160.36 275.72,-1170.21 284,-1182.76 342.91,-1272.06 249.41,-1340.37 320,-1420.76 320.64,-1421.49 321.29,-1422.19 321.96,-1422.88"/>
<polygon fill="#a0d17b" stroke="#a0d17b" points="319.9,-1425.72 329.77,-1429.57 324.45,-1420.4 319.9,-1425.72"/>
</g>
<!-- hidebound.core&#45;&gt;hidebound.core.specification_base -->
<g id="edge88" class="edge">
<title>hidebound.core&#45;&gt;hidebound.core.specification_base</title>
<path fill="none" stroke="#a0d17b" d="M271.57,-1133.18C399.19,-1129.49 677.86,-1118.35 769,-1089.76 786.67,-1084.22 787.56,-1075 805,-1068.76 806.87,-1068.09 808.76,-1067.44 810.67,-1066.81"/>
<polygon fill="#a0d17b" stroke="#a0d17b" points="811.84,-1070.11 820.35,-1063.81 809.76,-1063.43 811.84,-1070.11"/>
</g>
<!-- hidebound.core&#45;&gt;hidebound.core.specifications -->
<g id="edge89" class="edge">
<title>hidebound.core&#45;&gt;hidebound.core.specifications</title>
<path fill="none" stroke="#a0d17b" d="M271.88,-1117.81C381.28,-1090.43 608.78,-1037.6 805,-1018.76 932.86,-1006.48 968.67,-990.66 1094,-1018.76 1111.27,-1022.63 1113.26,-1030.02 1130,-1035.76 1142.31,-1039.98 1155.42,-1043.79 1168.51,-1047.19"/>
<polygon fill="#a0d17b" stroke="#a0d17b" points="1167.95,-1050.65 1178.5,-1049.7 1169.66,-1043.87 1167.95,-1050.65"/>
</g>
<!-- hidebound.core&#45;&gt;hidebound.core.tools -->
<g id="edge90" class="edge">
<title>hidebound.core&#45;&gt;hidebound.core.tools</title>
<path fill="none" stroke="#a0d17b" d="M207,-1116.5C209.95,-1023.78 228.25,-606.47 320,-525.76 390.32,-463.9 504.26,-471.97 579.77,-486.7"/>
<polygon fill="#a0d17b" stroke="#a0d17b" points="579.21,-490.16 589.71,-488.72 580.6,-483.3 579.21,-490.16"/>
</g>
<!-- hidebound.core&#45;&gt;hidebound.core.traits -->
<g id="edge91" class="edge">
<title>hidebound.core&#45;&gt;hidebound.core.traits</title>
<path fill="none" stroke="#a0d17b" d="M253.03,-1152.8C273.51,-1160.63 297.89,-1169.81 320,-1177.76 329.71,-1181.25 340.02,-1184.86 350.12,-1188.34"/>
<polygon fill="#a0d17b" stroke="#a0d17b" points="349.11,-1191.7 359.71,-1191.63 351.39,-1185.07 349.11,-1191.7"/>
</g>
<!-- hidebound.core&#45;&gt;hidebound.core.validators -->
<g id="edge92" class="edge">
<title>hidebound.core&#45;&gt;hidebound.core.validators</title>
<path fill="none" stroke="#a0d17b" d="M247.23,-1152.91C260.49,-1160.51 274.28,-1170.47 284,-1182.76 315.38,-1222.45 285.29,-1253.95 320,-1290.76 382.39,-1356.93 425.6,-1332.88 510,-1366.76 540.5,-1379 574.56,-1392.71 602.15,-1403.84"/>
<polygon fill="#a0d17b" stroke="#a0d17b" points="601.05,-1407.16 611.63,-1407.66 603.66,-1400.67 601.05,-1407.16"/>
</g>
<!-- dask.distributed -->
<g id="node37" class="node">
<title>dask.distributed</title>
<polygon fill="#343434" stroke="#343434" points="732,-787.76 583,-787.76 583,-751.76 732,-751.76 732,-787.76"/>
<text text-anchor="middle" x="657.5" y="-766.06" font-family="Courier,monospace" font-size="14.00" fill="#de958e">dask.distributed</text>
</g>
<!-- dask.distributed&#45;&gt;hidebound.core.connection -->
<g id="edge93" class="edge">
<title>dask.distributed&#45;&gt;hidebound.core.connection</title>
<path fill="none" stroke="#de958e" d="M732.05,-783.46C765.26,-789.64 805.13,-797.06 841.56,-803.85"/>
<polygon fill="#de958e" stroke="#de958e" points="841.26,-807.35 851.73,-805.74 842.54,-800.47 841.26,-807.35"/>
</g>
<!-- dask_gateway -->
<g id="node38" class="node">
<title>dask_gateway</title>
<polygon fill="#343434" stroke="#343434" points="715.5,-841.76 599.5,-841.76 599.5,-805.76 715.5,-805.76 715.5,-841.76"/>
<text text-anchor="middle" x="657.5" y="-820.06" font-family="Courier,monospace" font-size="14.00" fill="#de958e">dask_gateway</text>
</g>
<!-- dask_gateway&#45;&gt;hidebound.core.connection -->
<g id="edge94" class="edge">
<title>dask_gateway&#45;&gt;hidebound.core.connection</title>
<path fill="none" stroke="#de958e" d="M715.79,-823.76C747.77,-823.76 788.85,-823.76 827.58,-823.76"/>
<polygon fill="#de958e" stroke="#de958e" points="827.9,-827.26 837.9,-823.76 827.9,-820.26 827.9,-827.26"/>
</g>
<!-- boto3 -->
<g id="node39" class="node">
<title>boto3</title>
<polygon fill="#343434" stroke="#343434" points="1303.5,-1215.76 1245.5,-1215.76 1245.5,-1179.76 1303.5,-1179.76 1303.5,-1215.76"/>
<text text-anchor="middle" x="1274.5" y="-1194.06" font-family="Courier,monospace" font-size="14.00" fill="#de958e">boto3</text>
</g>
<!-- boto3&#45;&gt;hidebound.exporters.s3_exporter -->
<g id="edge95" class="edge">
<title>boto3&#45;&gt;hidebound.exporters.s3_exporter</title>
<path fill="none" stroke="#de958e" d="M1303.71,-1200.32C1336.61,-1201.59 1390.18,-1198.03 1419,-1165.76 1519.05,-1053.75 1367.45,-951.79 1455,-829.76 1470.95,-807.53 1495.75,-792.17 1520.7,-781.65"/>
<polygon fill="#de958e" stroke="#de958e" points="1522.25,-784.79 1530.25,-777.84 1519.66,-778.29 1522.25,-784.79"/>
</g>
<!-- jinja2 -->
<g id="node40" class="node">
<title>jinja2</title>
<polygon fill="#343434" stroke="#343434" points="1924,-1389.76 1858,-1389.76 1858,-1353.76 1924,-1353.76 1924,-1389.76"/>
<text text-anchor="middle" x="1891" y="-1368.06" font-family="Courier,monospace" font-size="14.00" fill="#de958e">jinja2</text>
</g>
<!-- jinja2&#45;&gt;hidebound.server.server_tools -->
<g id="edge96" class="edge">
<title>jinja2&#45;&gt;hidebound.server.server_tools</title>
<path fill="none" stroke="#de958e" d="M1924.22,-1380.91C1942.38,-1386.09 1965.47,-1392.73 1986,-1398.76 2016.82,-1407.82 2050.86,-1418.02 2079.82,-1426.76"/>
<polygon fill="#de958e" stroke="#de958e" points="2078.86,-1430.12 2089.44,-1429.66 2080.88,-1423.42 2078.86,-1430.12"/>
</g>
<!-- botocore.exceptions -->
<g id="node41" class="node">
<title>botocore.exceptions</title>
<polygon fill="#343434" stroke="#343434" points="1361,-803.76 1188,-803.76 1188,-767.76 1361,-767.76 1361,-803.76"/>
<text text-anchor="middle" x="1274.5" y="-782.06" font-family="Courier,monospace" font-size="14.00" fill="#de958e">botocore.exceptions</text>
</g>
<!-- botocore.exceptions&#45;&gt;hidebound.exporters.s3_exporter -->
<g id="edge97" class="edge">
<title>botocore.exceptions&#45;&gt;hidebound.exporters.s3_exporter</title>
<path fill="none" stroke="#de958e" d="M1361.17,-779.03C1391.77,-776.63 1427.15,-773.85 1461.36,-771.16"/>
<polygon fill="#de958e" stroke="#de958e" points="1461.75,-774.64 1471.45,-770.37 1461.2,-767.66 1461.75,-774.64"/>
</g>
<!-- girder_client -->
<g id="node42" class="node">
<title>girder_client</title>
<polygon fill="#343434" stroke="#343434" points="1336.5,-581.76 1212.5,-581.76 1212.5,-545.76 1336.5,-545.76 1336.5,-581.76"/>
<text text-anchor="middle" x="1274.5" y="-560.06" font-family="Courier,monospace" font-size="14.00" fill="#de958e">girder_client</text>
</g>
<!-- girder_client&#45;&gt;hidebound.exporters.girder_exporter -->
<g id="edge98" class="edge">
<title>girder_client&#45;&gt;hidebound.exporters.girder_exporter</title>
<path fill="none" stroke="#de958e" d="M1336.6,-568.19C1367.29,-570.42 1406.08,-573.23 1444.61,-576.02"/>
<polygon fill="#de958e" stroke="#de958e" points="1444.7,-579.54 1454.93,-576.77 1445.21,-572.56 1444.7,-579.54"/>
</g>
<!-- flasgger -->
<g id="node43" class="node">
<title>flasgger</title>
<polygon fill="#343434" stroke="#343434" points="2191.5,-1519.76 2108.5,-1519.76 2108.5,-1483.76 2191.5,-1483.76 2191.5,-1519.76"/>
<text text-anchor="middle" x="2150" y="-1498.06" font-family="Courier,monospace" font-size="14.00" fill="#de958e">flasgger</text>
</g>
<!-- flasgger&#45;&gt;hidebound.server.api -->
<g id="edge99" class="edge">
<title>flasgger&#45;&gt;hidebound.server.api</title>
<path fill="none" stroke="#de958e" d="M2191.68,-1508.97C2217.06,-1514.2 2250.11,-1522.38 2278,-1533.76 2295.15,-1540.76 2297.9,-1545.59 2314,-1554.76 2329.56,-1563.62 2346.73,-1573.21 2361.87,-1581.59"/>
<polygon fill="#de958e" stroke="#de958e" points="2360.55,-1584.86 2370.99,-1586.64 2363.94,-1578.74 2360.55,-1584.86"/>
</g>
<!-- flasgger&#45;&gt;hidebound.server.extensions -->
<g id="edge100" class="edge">
<title>flasgger&#45;&gt;hidebound.server.extensions</title>
<path fill="none" stroke="#de958e" d="M2191.8,-1499.37C2298.04,-1495.34 2587.19,-1498.61 2763,-1637.76 2791.68,-1660.46 2770.36,-1689.02 2799,-1711.76 2800.58,-1713.01 2802.21,-1714.21 2803.88,-1715.36"/>
<polygon fill="#de958e" stroke="#de958e" points="2802.18,-1718.42 2812.54,-1720.65 2805.83,-1712.45 2802.18,-1718.42"/>
</g>
<!-- flask.testing -->
<g id="node44" class="node">
<title>flask.testing</title>
<polygon fill="#343434" stroke="#343434" points="1953,-1443.76 1829,-1443.76 1829,-1407.76 1953,-1407.76 1953,-1443.76"/>
<text text-anchor="middle" x="1891" y="-1422.06" font-family="Courier,monospace" font-size="14.00" fill="#de958e">flask.testing</text>
</g>
<!-- flask.testing&#45;&gt;hidebound.server.server_tools -->
<g id="edge101" class="edge">
<title>flask.testing&#45;&gt;hidebound.server.server_tools</title>
<path fill="none" stroke="#de958e" d="M1953.23,-1431C1971.03,-1432.52 1991.23,-1434.25 2011.72,-1436.01"/>
<polygon fill="#de958e" stroke="#de958e" points="2011.54,-1439.51 2021.8,-1436.87 2012.13,-1432.53 2011.54,-1439.51"/>
</g>
<!-- pandas -->
<g id="node45" class="node">
<title>pandas</title>
<polygon fill="#343434" stroke="#343434" points="448,-1611.76 382,-1611.76 382,-1575.76 448,-1575.76 448,-1611.76"/>
<text text-anchor="middle" x="415" y="-1590.06" font-family="Courier,monospace" font-size="14.00" fill="#de958e">pandas</text>
</g>
<!-- pandas&#45;&gt;hidebound.core.database -->
<g id="edge102" class="edge">
<title>pandas&#45;&gt;hidebound.core.database</title>
<path fill="none" stroke="#de958e" d="M448.24,-1596.76C514.82,-1602.78 672.39,-1616.16 805,-1620.76 1078.98,-1630.26 1156.37,-1640.37 1419,-1561.76 1576.77,-1514.54 1656.05,-1544.5 1760,-1416.76 1811.49,-1353.48 1739.04,-1295.17 1796,-1236.76 1856.45,-1174.77 1913.48,-1241.05 1986,-1193.76 2061.09,-1144.79 2114,-1048.58 2136.66,-1001.31"/>
<polygon fill="#de958e" stroke="#de958e" points="2139.95,-1002.53 2141.04,-992 2133.62,-999.56 2139.95,-1002.53"/>
</g>
<!-- pandas&#45;&gt;hidebound.core.database_tools -->
<g id="edge103" class="edge">
<title>pandas&#45;&gt;hidebound.core.database_tools</title>
<path fill="none" stroke="#de958e" d="M448,-1588.93C546.19,-1573.63 851.19,-1522.56 1094,-1443.76 1141.02,-1428.5 1192.58,-1405.39 1228.32,-1388.28"/>
<polygon fill="#de958e" stroke="#de958e" points="1230.03,-1391.35 1237.51,-1383.85 1226.99,-1385.04 1230.03,-1391.35"/>
</g>
<!-- pandas&#45;&gt;hidebound.core.tools -->
<g id="edge104" class="edge">
<title>pandas&#45;&gt;hidebound.core.tools</title>
<path fill="none" stroke="#de958e" d="M448.19,-1580.82C469.79,-1570.27 496.65,-1553.12 510,-1528.76 562,-1433.89 485.34,-645.34 546,-555.76 553.45,-544.75 563.99,-536.19 575.62,-529.54"/>
<polygon fill="#de958e" stroke="#de958e" points="577.43,-532.54 584.69,-524.82 574.2,-526.33 577.43,-532.54"/>
</g>
<!-- pandas&#45;&gt;hidebound.core.validators -->
<g id="edge105" class="edge">
<title>pandas&#45;&gt;hidebound.core.validators</title>
<path fill="none" stroke="#de958e" d="M448.35,-1586.36C467.19,-1581.2 490.91,-1573.16 510,-1561.76 536.6,-1545.88 597.33,-1486.03 631.66,-1451.24"/>
<polygon fill="#de958e" stroke="#de958e" points="634.46,-1453.39 638.97,-1443.81 629.47,-1448.48 634.46,-1453.39"/>
</g>
<!-- pandas&#45;&gt;hidebound.server.components -->
<g id="edge106" class="edge">
<title>pandas&#45;&gt;hidebound.server.components</title>
<path fill="none" stroke="#de958e" d="M423.55,-1611.82C439.86,-1648.32 482.14,-1730.55 546,-1767.76 701.8,-1858.54 768.18,-1818.76 948.5,-1818.76 948.5,-1818.76 948.5,-1818.76 1608.5,-1818.76 1776.68,-1818.76 1819.21,-1823.23 1986,-1844.76 2008.4,-1847.65 2032.36,-1851.68 2054.84,-1855.87"/>
<polygon fill="#de958e" stroke="#de958e" points="2054.23,-1859.32 2064.71,-1857.75 2055.53,-1852.44 2054.23,-1859.32"/>
</g>
<!-- pyparsing -->
<g id="node46" class="node">
<title>pyparsing</title>
<polygon fill="#343434" stroke="#343434" points="251,-1465.76 160,-1465.76 160,-1429.76 251,-1429.76 251,-1465.76"/>
<text text-anchor="middle" x="205.5" y="-1444.06" font-family="Courier,monospace" font-size="14.00" fill="#de958e">pyparsing</text>
</g>
<!-- pyparsing&#45;&gt;hidebound.core.parser -->
<g id="edge107" class="edge">
<title>pyparsing&#45;&gt;hidebound.core.parser</title>
<path fill="none" stroke="#de958e" d="M251.01,-1447.76C268.31,-1447.76 288.91,-1447.76 309.54,-1447.76"/>
<polygon fill="#de958e" stroke="#de958e" points="309.66,-1451.26 319.66,-1447.76 309.66,-1444.26 309.66,-1451.26"/>
</g>
<!-- pyparsing&#45;&gt;hidebound.core.specification_base -->
<g id="edge108" class="edge">
<title>pyparsing&#45;&gt;hidebound.core.specification_base</title>
<path fill="none" stroke="#de958e" d="M228.49,-1429.64C250.62,-1411.99 286.22,-1385.22 320,-1366.76 511.86,-1261.91 621.86,-1327.47 769,-1165.76 797.89,-1134.01 773.23,-1102.42 804.18,-1070.59"/>
<polygon fill="#de958e" stroke="#de958e" points="806.61,-1073.11 811.67,-1063.8 801.91,-1067.93 806.61,-1073.11"/>
</g>
<!-- pyparsing&#45;&gt;hidebound.core.validators -->
<g id="edge109" class="edge">
<title>pyparsing&#45;&gt;hidebound.core.validators</title>
<path fill="none" stroke="#de958e" d="M224.16,-1465.85C244.93,-1485.72 281.5,-1516.43 320,-1528.76 400.42,-1554.51 429.49,-1554.23 510,-1528.76 558.02,-1513.57 603.94,-1476.35 631.18,-1451.07"/>
<polygon fill="#de958e" stroke="#de958e" points="633.83,-1453.39 638.68,-1443.97 629.01,-1448.3 633.83,-1453.39"/>
</g>
<!-- flask_healthz -->
<g id="node47" class="node">
<title>flask_healthz</title>
<polygon fill="#343434" stroke="#343434" points="2709.5,-1756.76 2585.5,-1756.76 2585.5,-1720.76 2709.5,-1720.76 2709.5,-1756.76"/>
<text text-anchor="middle" x="2647.5" y="-1735.06" font-family="Courier,monospace" font-size="14.00" fill="#de958e">flask_healthz</text>
</g>
<!-- flask_healthz&#45;&gt;hidebound.server.extensions -->
<g id="edge110" class="edge">
<title>flask_healthz&#45;&gt;hidebound.server.extensions</title>
<path fill="none" stroke="#de958e" d="M2709.54,-1738.76C2733.15,-1738.76 2761.11,-1738.76 2788.75,-1738.76"/>
<polygon fill="#de958e" stroke="#de958e" points="2788.91,-1742.26 2798.91,-1738.76 2788.91,-1735.26 2788.91,-1742.26"/>
</g>
<!-- schematics -->
<g id="node48" class="node">
<title>schematics</title>
<polygon fill="#343434" stroke="#343434" points="707,-665.76 608,-665.76 608,-629.76 707,-629.76 707,-665.76"/>
<text text-anchor="middle" x="657.5" y="-644.06" font-family="Courier,monospace" font-size="14.00" fill="#de958e">schematics</text>
</g>
<!-- schematics&#45;&gt;hidebound.core.config -->
<g id="edge111" class="edge">
<title>schematics&#45;&gt;hidebound.core.config</title>
<path fill="none" stroke="#de958e" d="M707.06,-642.45C729.12,-637.51 753.66,-628 769,-609.76 834.17,-532.24 727.94,-450.47 805,-384.76 902.74,-301.42 965.75,-377.68 1094,-384.76 1399.7,-401.64 1509.89,-384.18 1760,-560.76 1806.96,-593.91 1848.88,-646.98 1871.75,-678.89"/>
<polygon fill="#de958e" stroke="#de958e" points="1869.05,-681.15 1877.68,-687.3 1874.77,-677.11 1869.05,-681.15"/>
</g>
<!-- schematics&#45;&gt;hidebound.core.connection -->
<g id="edge112" class="edge">
<title>schematics&#45;&gt;hidebound.core.connection</title>
<path fill="none" stroke="#de958e" d="M705.56,-665.88C727.14,-676.11 751.71,-690.69 769,-709.76 795.74,-739.24 774.26,-766.48 805,-791.76 812.09,-797.59 820.03,-802.42 828.43,-806.41"/>
<polygon fill="#de958e" stroke="#de958e" points="827.14,-809.66 837.71,-810.41 829.91,-803.24 827.14,-809.66"/>
</g>
<!-- schematics&#45;&gt;hidebound.core.specification_base -->
<g id="edge113" class="edge">
<title>schematics&#45;&gt;hidebound.core.specification_base</title>
<path fill="none" stroke="#de958e" d="M689.94,-665.89C715.62,-682.47 750.57,-709.44 769,-742.76 820.8,-836.37 740.44,-895.45 805,-980.76 819.73,-1000.22 841.63,-1014.02 863.91,-1023.73"/>
<polygon fill="#de958e" stroke="#de958e" points="862.88,-1027.09 873.46,-1027.64 865.54,-1020.61 862.88,-1027.09"/>
</g>
<!-- schematics&#45;&gt;hidebound.exporters.exporter_base -->
<g id="edge114" class="edge">
<title>schematics&#45;&gt;hidebound.exporters.exporter_base</title>
<path fill="none" stroke="#de958e" d="M707.28,-648.21C787.93,-649.33 954.08,-653.22 1094,-666.76 1114.08,-668.7 1135.35,-671.36 1155.95,-674.26"/>
<polygon fill="#de958e" stroke="#de958e" points="1155.6,-677.75 1166,-675.7 1156.59,-670.82 1155.6,-677.75"/>
</g>
<!-- schematics&#45;&gt;hidebound.exporters.girder_exporter -->
<g id="edge115" class="edge">
<title>schematics&#45;&gt;hidebound.exporters.girder_exporter</title>
<path fill="none" stroke="#de958e" d="M707.05,-632.39C791.81,-606.45 972.75,-555.02 1130,-536.76 1257.59,-521.94 1291.69,-519.75 1419,-536.76 1461.79,-542.48 1508.65,-555.22 1544.82,-566.54"/>
<polygon fill="#de958e" stroke="#de958e" points="1544.14,-569.99 1554.73,-569.69 1546.26,-563.32 1544.14,-569.99"/>
</g>
<!-- pyjson5 -->
<g id="node49" class="node">
<title>pyjson5</title>
<polygon fill="#343434" stroke="#343434" points="452,-75.76 378,-75.76 378,-39.76 452,-39.76 452,-75.76"/>
<text text-anchor="middle" x="415" y="-54.06" font-family="Courier,monospace" font-size="14.00" fill="#de958e">pyjson5</text>
</g>
<!-- pyjson5&#45;&gt;hidebound.core.database -->
<g id="edge116" class="edge">
<title>pyjson5&#45;&gt;hidebound.core.database</title>
<path fill="none" stroke="#de958e" d="M452.29,-56.52C665.23,-50.04 1751.03,-27.85 1986,-239.76 2094.21,-337.35 2137.65,-822.99 2146.99,-945.61"/>
<polygon fill="#de958e" stroke="#de958e" points="2143.51,-945.98 2147.75,-955.7 2150.49,-945.46 2143.51,-945.98"/>
</g>
<!-- pyjson5&#45;&gt;hidebound.core.tools -->
<g id="edge117" class="edge">
<title>pyjson5&#45;&gt;hidebound.core.tools</title>
<path fill="none" stroke="#de958e" d="M425.73,-75.92C463.04,-145.58 597.2,-396.05 641.89,-479.49"/>
<polygon fill="#de958e" stroke="#de958e" points="638.85,-481.21 646.65,-488.38 645.02,-477.91 638.85,-481.21"/>
</g>
<!-- pyjson5&#45;&gt;hidebound.server.extension -->
<g id="edge118" class="edge">
<title>pyjson5&#45;&gt;hidebound.server.extension</title>
<path fill="none" stroke="#de958e" d="M452.11,-53.86C538.01,-44.93 761.37,-23.76 948.5,-23.76 948.5,-23.76 948.5,-23.76 1608.5,-23.76 2014.56,-23.76 2283.97,105.55 2496,-240.76 2602.66,-414.96 2638.62,-1087.86 2645.29,-1235.16"/>
<polygon fill="#de958e" stroke="#de958e" points="2641.81,-1235.75 2645.75,-1245.58 2648.81,-1235.44 2641.81,-1235.75"/>
</g>
<!-- lunchbox.enforce -->
<g id="node50" class="node">
<title>lunchbox.enforce</title>
<polygon fill="#343434" stroke="#343434" points="489.5,-570.76 340.5,-570.76 340.5,-534.76 489.5,-534.76 489.5,-570.76"/>
<text text-anchor="middle" x="415" y="-549.06" font-family="Courier,monospace" font-size="14.00" fill="#de958e">lunchbox.enforce</text>
</g>
<!-- lunchbox.enforce&#45;&gt;hidebound.core.tools -->
<g id="edge119" class="edge">
<title>lunchbox.enforce&#45;&gt;hidebound.core.tools</title>
<path fill="none" stroke="#de958e" d="M489.79,-538.65C510.84,-534.62 534.13,-530.16 556.47,-525.89"/>
<polygon fill="#de958e" stroke="#de958e" points="557.15,-529.33 566.31,-524.01 555.83,-522.45 557.15,-529.33"/>
</g>
<!-- lunchbox.tools -->
<g id="node51" class="node">
<title>lunchbox.tools</title>
<polygon fill="#343434" stroke="#343434" points="1015.5,-711.76 883.5,-711.76 883.5,-675.76 1015.5,-675.76 1015.5,-711.76"/>
<text text-anchor="middle" x="949.5" y="-690.06" font-family="Courier,monospace" font-size="14.00" fill="#de958e">lunchbox.tools</text>
</g>
<!-- lunchbox.tools&#45;&gt;hidebound.core.database_tools -->
<g id="edge120" class="edge">
<title>lunchbox.tools&#45;&gt;hidebound.core.database_tools</title>
<path fill="none" stroke="#de958e" d="M1015.71,-709.68C1044.48,-720.17 1075.83,-737.06 1094,-763.76 1151.8,-848.72 1086.6,-1131.62 1130,-1224.76 1153.32,-1274.81 1202.57,-1316.82 1236.83,-1341.63"/>
<polygon fill="#de958e" stroke="#de958e" points="1235.01,-1344.63 1245.19,-1347.56 1239.06,-1338.92 1235.01,-1344.63"/>
</g>
<!-- lunchbox.tools&#45;&gt;hidebound.server.server_tools -->
<g id="edge121" class="edge">
<title>lunchbox.tools&#45;&gt;hidebound.server.server_tools</title>
<path fill="none" stroke="#de958e" d="M1015.59,-690.47C1042.46,-692.35 1072.32,-699.03 1094,-716.76 1129.28,-745.61 1097.57,-780.75 1130,-812.76 1341.81,-1021.84 1578.48,-803.9 1760,-1039.76 1816.19,-1112.77 1728.09,-1390.51 1796,-1452.76 1828.47,-1482.52 1935.72,-1477.29 2023.57,-1466.98"/>
<polygon fill="#de958e" stroke="#de958e" points="2024.13,-1470.44 2033.64,-1465.76 2023.29,-1463.49 2024.13,-1470.44"/>
</g>
<!-- schematics.exceptions -->
<g id="node52" class="node">
<title>schematics.exceptions</title>
<polygon fill="#343434" stroke="#343434" points="510,-1281.76 320,-1281.76 320,-1245.76 510,-1245.76 510,-1281.76"/>
<text text-anchor="middle" x="415" y="-1260.06" font-family="Courier,monospace" font-size="14.00" fill="#de958e">schematics.exceptions</text>
</g>
<!-- schematics.exceptions&#45;&gt;hidebound.core.config -->
<g id="edge122" class="edge">
<title>schematics.exceptions&#45;&gt;hidebound.core.config</title>
<path fill="none" stroke="#de958e" d="M510.38,-1269.57C747.24,-1283.2 1352.67,-1311.72 1419,-1251.76 1471.76,-1204.07 1407.88,-987.02 1455,-933.76 1547.36,-829.37 1659.53,-957.37 1760,-860.76 1802.6,-819.8 1754.33,-774.66 1796,-732.76 1796.94,-731.81 1797.92,-730.9 1798.92,-730.01"/>
<polygon fill="#de958e" stroke="#de958e" points="1801.23,-732.65 1807.11,-723.84 1797.01,-727.07 1801.23,-732.65"/>
</g>
<!-- schematics.exceptions&#45;&gt;hidebound.core.database_tools -->
<g id="edge123" class="edge">
<title>schematics.exceptions&#45;&gt;hidebound.core.database_tools</title>
<path fill="none" stroke="#de958e" d="M490.98,-1281.82C497.42,-1283.45 503.83,-1285.12 510,-1286.76 641.85,-1321.87 669.89,-1352.68 805,-1371.76 932.18,-1389.72 965.57,-1373.91 1094,-1371.76 1107.55,-1371.53 1121.67,-1371.21 1135.77,-1370.83"/>
<polygon fill="#de958e" stroke="#de958e" points="1136.14,-1374.32 1146.04,-1370.55 1135.94,-1367.33 1136.14,-1374.32"/>
</g>
<!-- schematics.exceptions&#45;&gt;hidebound.core.specification_base -->
<g id="edge124" class="edge">
<title>schematics.exceptions&#45;&gt;hidebound.core.specification_base</title>
<path fill="none" stroke="#de958e" d="M496.09,-1245.56C501.01,-1243 505.7,-1240.09 510,-1236.76 534.89,-1217.49 520.47,-1194.17 546,-1175.76 628.23,-1116.46 684.16,-1183.27 769,-1127.76 791.91,-1112.77 782.14,-1092.84 805,-1077.76 810.65,-1074.03 816.68,-1070.73 822.94,-1067.81"/>
<polygon fill="#de958e" stroke="#de958e" points="824.45,-1070.97 832.25,-1063.8 821.68,-1064.54 824.45,-1070.97"/>
</g>
<!-- schematics.exceptions&#45;&gt;hidebound.core.tools -->
<g id="edge125" class="edge">
<title>schematics.exceptions&#45;&gt;hidebound.core.tools</title>
<path fill="none" stroke="#de958e" d="M501.03,-1245.6C504.33,-1243.01 507.36,-1240.08 510,-1236.76 604.34,-1118.16 460.04,-680.57 546,-555.76 553.59,-544.74 564.25,-536.17 575.98,-529.52"/>
<polygon fill="#de958e" stroke="#de958e" points="577.85,-532.49 585.13,-524.79 574.64,-526.27 577.85,-532.49"/>
</g>
<!-- schematics.exceptions&#45;&gt;hidebound.core.validators -->
<g id="edge126" class="edge">
<title>schematics.exceptions&#45;&gt;hidebound.core.validators</title>
<path fill="none" stroke="#de958e" d="M443.12,-1282.03C486.81,-1311.46 572.76,-1369.35 621.18,-1401.97"/>
<polygon fill="#de958e" stroke="#de958e" points="619.23,-1404.87 629.48,-1407.56 623.14,-1399.07 619.23,-1404.87"/>
</g>
<!-- schematics.exceptions&#45;&gt;hidebound.server.api -->
<g id="edge127" class="edge">
<title>schematics.exceptions&#45;&gt;hidebound.server.api</title>
<path fill="none" stroke="#de958e" d="M436.18,-1281.85C456.86,-1301.24 488.9,-1333.7 510,-1366.76 532.29,-1401.69 519.6,-1420.82 546,-1452.76 621.78,-1544.45 687.44,-1514.17 769,-1600.76 790.85,-1623.96 778.32,-1645.33 805,-1662.76 980.43,-1777.37 1063.95,-1715.76 1273.5,-1715.76 1273.5,-1715.76 1273.5,-1715.76 1608.5,-1715.76 1776.92,-1715.76 1819.22,-1706.2 1986,-1682.76 2002.14,-1680.49 2005.9,-1678.33 2022,-1675.76 2135.23,-1657.7 2167.53,-1674.49 2278,-1643.76 2294.87,-1639.07 2297.46,-1633.5 2314,-1627.76 2315.68,-1627.18 2317.37,-1626.6 2319.09,-1626.04"/>
<polygon fill="#de958e" stroke="#de958e" points="2320.58,-1629.23 2329.06,-1622.88 2318.47,-1622.56 2320.58,-1629.23"/>
</g>
<!-- requests -->
<g id="node53" class="node">
<title>requests</title>
<polygon fill="#343434" stroke="#343434" points="1932.5,-1335.76 1849.5,-1335.76 1849.5,-1299.76 1932.5,-1299.76 1932.5,-1335.76"/>
<text text-anchor="middle" x="1891" y="-1314.06" font-family="Courier,monospace" font-size="14.00" fill="#de958e">requests</text>
</g>
<!-- requests&#45;&gt;hidebound.core.database -->
<g id="edge128" class="edge">
<title>requests&#45;&gt;hidebound.core.database</title>
<path fill="none" stroke="#de958e" d="M1932.88,-1313.4C1950.77,-1309.75 1971.04,-1303.05 1986,-1290.76 2081.37,-1212.4 2127.08,-1063.71 2142.62,-1001.85"/>
<polygon fill="#de958e" stroke="#de958e" points="2146.04,-1002.56 2145.01,-992.02 2139.24,-1000.9 2146.04,-1002.56"/>
</g>
<!-- requests&#45;&gt;hidebound.server.server_tools -->
<g id="edge129" class="edge">
<title>requests&#45;&gt;hidebound.server.server_tools</title>
<path fill="none" stroke="#de958e" d="M1932.68,-1326.75C1949.57,-1331.17 1969.11,-1337.19 1986,-1344.76 2034.16,-1366.36 2084.83,-1400.43 2116.65,-1423.41"/>
<polygon fill="#de958e" stroke="#de958e" points="2114.96,-1426.51 2125.1,-1429.58 2119.09,-1420.86 2114.96,-1426.51"/>
</g>
<!-- schematics.models -->
<g id="node54" class="node">
<title>schematics.models</title>
<polygon fill="#343434" stroke="#343434" points="493.5,-1411.76 336.5,-1411.76 336.5,-1375.76 493.5,-1375.76 493.5,-1411.76"/>
<text text-anchor="middle" x="415" y="-1390.06" font-family="Courier,monospace" font-size="14.00" fill="#de958e">schematics.models</text>
</g>
<!-- schematics.models&#45;&gt;hidebound.core.validators -->
<g id="edge130" class="edge">
<title>schematics.models&#45;&gt;hidebound.core.validators</title>
<path fill="none" stroke="#de958e" d="M493.75,-1404.11C507.11,-1405.88 521.28,-1407.77 535.46,-1409.65"/>
<polygon fill="#de958e" stroke="#de958e" points="535.4,-1413.18 545.78,-1411.03 536.33,-1406.24 535.4,-1413.18"/>
</g>
<!-- schematics.types -->
<g id="node55" class="node">
<title>schematics.types</title>
<polygon fill="#343434" stroke="#343434" points="732,-600.76 583,-600.76 583,-564.76 732,-564.76 732,-600.76"/>
<text text-anchor="middle" x="657.5" y="-579.06" font-family="Courier,monospace" font-size="14.00" fill="#de958e">schematics.types</text>
</g>
<!-- schematics.types&#45;&gt;hidebound.core.config -->
<g id="edge131" class="edge">
<title>schematics.types&#45;&gt;hidebound.core.config</title>
<path fill="none" stroke="#de958e" d="M727.45,-564.68C743.24,-557.47 758.46,-547.5 769,-533.76 831.97,-451.66 726.38,-371.03 805,-303.76 885.67,-234.74 1676.27,-269.48 1760,-334.76 1870.1,-420.6 1887.25,-606.14 1889.7,-677.24"/>
<polygon fill="#de958e" stroke="#de958e" points="1886.21,-677.73 1889.98,-687.63 1893.21,-677.54 1886.21,-677.73"/>
</g>
<!-- schematics.types&#45;&gt;hidebound.core.connection -->
<g id="edge132" class="edge">
<title>schematics.types&#45;&gt;hidebound.core.connection</title>
<path fill="none" stroke="#de958e" d="M732.14,-596.24C746,-601.8 759.2,-609.66 769,-620.76 820.42,-678.97 750.41,-736.52 805,-791.76 811.86,-798.7 819.87,-804.28 828.53,-808.75"/>
<polygon fill="#de958e" stroke="#de958e" points="827.23,-812.01 837.77,-813.02 830.16,-805.65 827.23,-812.01"/>
</g>
<!-- schematics.types&#45;&gt;hidebound.core.specification_base -->
<g id="edge133" class="edge">
<title>schematics.types&#45;&gt;hidebound.core.specification_base</title>
<path fill="none" stroke="#de958e" d="M732.23,-595.11C746.34,-600.74 759.62,-608.91 769,-620.76 868.81,-746.83 711.23,-850.13 805,-980.76 819.02,-1000.3 840.35,-1014.08 862.3,-1023.76"/>
<polygon fill="#de958e" stroke="#de958e" points="861.15,-1027.07 871.72,-1027.66 863.82,-1020.61 861.15,-1027.07"/>
</g>
<!-- schematics.types&#45;&gt;hidebound.core.specifications -->
<g id="edge134" class="edge">
<title>schematics.types&#45;&gt;hidebound.core.specifications</title>
<path fill="none" stroke="#de958e" d="M732.15,-597.77C745.67,-603.22 758.74,-610.65 769,-620.76 802.64,-653.92 770.16,-688.87 805,-720.76 902.97,-810.43 986.02,-719.43 1094,-796.76 1105.75,-805.17 1213.65,-973.67 1256.28,-1040.65"/>
<polygon fill="#de958e" stroke="#de958e" points="1253.53,-1042.84 1261.85,-1049.4 1259.43,-1039.08 1253.53,-1042.84"/>
</g>
<!-- schematics.types&#45;&gt;hidebound.exporters.disk_exporter -->
<g id="edge135" class="edge">
<title>schematics.types&#45;&gt;hidebound.exporters.disk_exporter</title>
<path fill="none" stroke="#de958e" d="M726.5,-564.64C742.5,-557.42 758.06,-547.45 769,-533.76 820.48,-469.35 741.29,-404.1 805,-351.76 905.8,-268.95 1288.86,-312.8 1486.67,-342.2"/>
<polygon fill="#de958e" stroke="#de958e" points="1486.41,-345.7 1496.82,-343.72 1487.45,-338.78 1486.41,-345.7"/>
</g>
<!-- schematics.types&#45;&gt;hidebound.exporters.exporter_base -->
<g id="edge136" class="edge">
<title>schematics.types&#45;&gt;hidebound.exporters.exporter_base</title>
<path fill="none" stroke="#de958e" d="M732.08,-587.96C819.61,-595.42 969.54,-612.27 1094,-646.76 1110.7,-651.39 1113.48,-656.52 1130,-661.76 1143.34,-665.99 1157.56,-669.88 1171.65,-673.37"/>
<polygon fill="#de958e" stroke="#de958e" points="1170.84,-676.78 1181.38,-675.73 1172.49,-669.98 1170.84,-676.78"/>
</g>
<!-- schematics.types&#45;&gt;hidebound.exporters.girder_exporter -->
<g id="edge137" class="edge">
<title>schematics.types&#45;&gt;hidebound.exporters.girder_exporter</title>
<path fill="none" stroke="#de958e" d="M698.47,-564.7C737.97,-547 794.04,-522.3 805,-519.76 1070.94,-458.15 1152.05,-446.7 1419,-503.76 1473.34,-515.38 1530.99,-543.97 1567.79,-564.57"/>
<polygon fill="#de958e" stroke="#de958e" points="1566.25,-567.72 1576.68,-569.62 1569.71,-561.63 1566.25,-567.72"/>
</g>
<!-- schematics.types&#45;&gt;hidebound.exporters.s3_exporter -->
<g id="edge138" class="edge">
<title>schematics.types&#45;&gt;hidebound.exporters.s3_exporter</title>
<path fill="none" stroke="#de958e" d="M732.37,-568.4C821.81,-554.51 975.21,-542.1 1094,-591.76 1114.59,-600.37 1109.95,-616.96 1130,-626.76 1246.51,-683.68 1295.08,-628.57 1419,-666.76 1473.58,-683.58 1531.82,-714.81 1568.65,-736.41"/>
<polygon fill="#de958e" stroke="#de958e" points="1567.15,-739.59 1577.54,-741.67 1570.72,-733.56 1567.15,-739.59"/>
</g>
<!-- wrapt -->
<g id="node56" class="node">
<title>wrapt</title>
<polygon fill="#343434" stroke="#343434" points="444,-1519.76 386,-1519.76 386,-1483.76 444,-1483.76 444,-1519.76"/>
<text text-anchor="middle" x="415" y="-1498.06" font-family="Courier,monospace" font-size="14.00" fill="#de958e">wrapt</text>
</g>
<!-- wrapt&#45;&gt;hidebound.core.validators -->
<g id="edge139" class="edge">
<title>wrapt&#45;&gt;hidebound.core.validators</title>
<path fill="none" stroke="#de958e" d="M444.06,-1494.04C462.8,-1488.8 487.95,-1481.61 510,-1474.76 537.93,-1466.08 568.66,-1455.9 594.72,-1447.08"/>
<polygon fill="#de958e" stroke="#de958e" points="596.13,-1450.3 604.47,-1443.77 593.87,-1443.67 596.13,-1450.3"/>
</g>
<!-- dask.dataframe -->
<g id="node57" class="node">
<title>dask.dataframe</title>
<polygon fill="#343434" stroke="#343434" points="481,-906.76 349,-906.76 349,-870.76 481,-870.76 481,-906.76"/>
<text text-anchor="middle" x="415" y="-885.06" font-family="Courier,monospace" font-size="14.00" fill="#de958e">dask.dataframe</text>
</g>
<!-- dask.dataframe&#45;&gt;hidebound.core.database -->
<g id="edge140" class="edge">
<title>dask.dataframe&#45;&gt;hidebound.core.database</title>
<path fill="none" stroke="#de958e" d="M481.13,-891.33C501.87,-892.13 524.9,-893 546,-893.76 933.96,-907.66 1031.3,-902.78 1419,-922.76 1638,-934.04 1893.54,-953.3 2036.79,-964.64"/>
<polygon fill="#de958e" stroke="#de958e" points="2036.67,-968.14 2046.91,-965.45 2037.22,-961.16 2036.67,-968.14"/>
</g>
<!-- dask.dataframe&#45;&gt;hidebound.core.database_tools -->
<g id="edge141" class="edge">
<title>dask.dataframe&#45;&gt;hidebound.core.database_tools</title>
<path fill="none" stroke="#de958e" d="M439.84,-906.96C465.47,-926.2 507.7,-957 546,-980.76 793.39,-1134.23 1107.78,-1287.27 1225.84,-1343.36"/>
<polygon fill="#de958e" stroke="#de958e" points="1224.46,-1346.58 1235,-1347.7 1227.46,-1340.25 1224.46,-1346.58"/>
</g>
<!-- dask.dataframe&#45;&gt;hidebound.core.tools -->
<g id="edge142" class="edge">
<title>dask.dataframe&#45;&gt;hidebound.core.tools</title>
<path fill="none" stroke="#de958e" d="M418.2,-870.67C425.74,-816.04 455.31,-650.65 546,-555.76 556.59,-544.68 570.12,-535.94 584.06,-529.1"/>
<polygon fill="#de958e" stroke="#de958e" points="585.63,-532.23 593.26,-524.87 582.71,-525.87 585.63,-532.23"/>
</g>
<!-- dask.dataframe&#45;&gt;hidebound.exporters.exporter_base -->
<g id="edge143" class="edge">
<title>dask.dataframe&#45;&gt;hidebound.exporters.exporter_base</title>
<path fill="none" stroke="#de958e" d="M481.06,-889.06C641.22,-889.24 1045.16,-886.14 1094,-850.76 1129.56,-825 1099.78,-790.61 1130,-758.76 1148.28,-739.49 1173.34,-725.49 1197.41,-715.53"/>
<polygon fill="#de958e" stroke="#de958e" points="1198.91,-718.7 1206.92,-711.78 1196.34,-712.19 1198.91,-718.7"/>
</g>
<!-- yaml -->
<g id="node58" class="node">
<title>yaml</title>
<polygon fill="#343434" stroke="#343434" points="1918,-1281.76 1864,-1281.76 1864,-1245.76 1918,-1245.76 1918,-1281.76"/>
<text text-anchor="middle" x="1891" y="-1260.06" font-family="Courier,monospace" font-size="14.00" fill="#de958e">yaml</text>
</g>
<!-- yaml&#45;&gt;hidebound.core.database -->
<g id="edge144" class="edge">
<title>yaml&#45;&gt;hidebound.core.database</title>
<path fill="none" stroke="#de958e" d="M1918.2,-1259.74C1938.44,-1255.56 1966.24,-1247.34 1986,-1231.76 2066.32,-1168.42 2118.2,-1053.89 2138.85,-1001.39"/>
<polygon fill="#de958e" stroke="#de958e" points="2142.12,-1002.64 2142.45,-992.05 2135.59,-1000.12 2142.12,-1002.64"/>
</g>
<!-- yaml&#45;&gt;hidebound.server.extension -->
<g id="edge145" class="edge">
<title>yaml&#45;&gt;hidebound.server.extension</title>
<path fill="none" stroke="#de958e" d="M1918.41,-1263.76C2013.12,-1263.76 2339.74,-1263.76 2521.66,-1263.76"/>
<polygon fill="#de958e" stroke="#de958e" points="2521.82,-1267.26 2531.82,-1263.76 2521.82,-1260.26 2521.82,-1267.26"/>
</g>
<!-- yaml&#45;&gt;hidebound.server.server_tools -->
<g id="edge146" class="edge">
<title>yaml&#45;&gt;hidebound.server.server_tools</title>
<path fill="none" stroke="#de958e" d="M1918.07,-1267.73C1937.73,-1271.53 1964.82,-1278.54 1986,-1290.76 2046.02,-1325.38 2100.71,-1386.81 2128.92,-1421.68"/>
<polygon fill="#de958e" stroke="#de958e" points="2126.21,-1423.9 2135.18,-1429.53 2131.68,-1419.53 2126.21,-1423.9"/>
</g>
<!-- numpy -->
<g id="node59" class="node">
<title>numpy</title>
<polygon fill="#343434" stroke="#343434" points="978.5,-1611.76 920.5,-1611.76 920.5,-1575.76 978.5,-1575.76 978.5,-1611.76"/>
<text text-anchor="middle" x="949.5" y="-1590.06" font-family="Courier,monospace" font-size="14.00" fill="#de958e">numpy</text>
</g>
<!-- numpy&#45;&gt;hidebound.core.database -->
<g id="edge147" class="edge">
<title>numpy&#45;&gt;hidebound.core.database</title>
<path fill="none" stroke="#de958e" d="M978.65,-1591.18C1008.48,-1587.61 1056.36,-1579.49 1094,-1561.76 1112.34,-1553.12 1111.59,-1542.23 1130,-1533.76 1249.09,-1478.97 1317.72,-1557.99 1419,-1474.76 1451.01,-1448.45 1428.84,-1420.89 1455,-1388.76 1558.74,-1261.32 1652.38,-1303.94 1760,-1179.76 1783.69,-1152.42 1767.59,-1129.16 1796,-1106.76 1863.99,-1053.16 1905.08,-1094.55 1986,-1063.76 2032.12,-1046.21 2081.19,-1017.59 2113.3,-997.34"/>
<polygon fill="#de958e" stroke="#de958e" points="2115.34,-1000.2 2121.89,-991.87 2111.58,-994.29 2115.34,-1000.2"/>
</g>
<!-- numpy&#45;&gt;hidebound.core.database_tools -->
<g id="edge148" class="edge">
<title>numpy&#45;&gt;hidebound.core.database_tools</title>
<path fill="none" stroke="#de958e" d="M978.65,-1583.65C1008.89,-1571.99 1057.53,-1550.89 1094,-1523.76 1112.93,-1509.68 1112.88,-1500.99 1130,-1484.76 1166.71,-1449.95 1212.09,-1413.29 1241.86,-1390.01"/>
<polygon fill="#de958e" stroke="#de958e" points="1244.08,-1392.71 1249.83,-1383.81 1239.79,-1387.19 1244.08,-1392.71"/>
</g>
<!-- numpy&#45;&gt;hidebound.server.api -->
<g id="edge149" class="edge">
<title>numpy&#45;&gt;hidebound.server.api</title>
<path fill="none" stroke="#de958e" d="M978.63,-1593.17C1069.49,-1591.32 1363.33,-1585.76 1606.5,-1585.76 1606.5,-1585.76 1606.5,-1585.76 1892,-1585.76 2035.11,-1585.76 2200.57,-1593.26 2303.76,-1598.84"/>
<polygon fill="#de958e" stroke="#de958e" points="2303.69,-1602.34 2313.86,-1599.39 2304.07,-1595.35 2303.69,-1602.34"/>
</g>
<!-- pandasql -->
<g id="node60" class="node">
<title>pandasql</title>
<polygon fill="#343434" stroke="#343434" points="1932.5,-869.76 1849.5,-869.76 1849.5,-833.76 1932.5,-833.76 1932.5,-869.76"/>
<text text-anchor="middle" x="1891" y="-848.06" font-family="Courier,monospace" font-size="14.00" fill="#de958e">pandasql</text>
</g>
<!-- pandasql&#45;&gt;hidebound.core.database -->
<g id="edge150" class="edge">
<title>pandasql&#45;&gt;hidebound.core.database</title>
<path fill="none" stroke="#de958e" d="M1932.85,-863.93C1949.58,-869.36 1968.97,-876.23 1986,-883.76 2030.45,-903.42 2078.92,-931.03 2111.35,-950.47"/>
<polygon fill="#de958e" stroke="#de958e" points="2109.68,-953.56 2120.05,-955.73 2113.3,-947.56 2109.68,-953.56"/>
</g>
<!-- requests.exceptions -->
<g id="node61" class="node">
<title>requests.exceptions</title>
<polygon fill="#343434" stroke="#343434" points="1977.5,-777.76 1804.5,-777.76 1804.5,-741.76 1977.5,-741.76 1977.5,-777.76"/>
<text text-anchor="middle" x="1891" y="-756.06" font-family="Courier,monospace" font-size="14.00" fill="#de958e">requests.exceptions</text>
</g>
<!-- requests.exceptions&#45;&gt;hidebound.core.database -->
<g id="edge151" class="edge">
<title>requests.exceptions&#45;&gt;hidebound.core.database</title>
<path fill="none" stroke="#de958e" d="M1959.24,-777.88C1968.6,-781.75 1977.8,-786.34 1986,-791.76 1990.3,-794.61 2082.31,-898.36 2126.15,-947.91"/>
<polygon fill="#de958e" stroke="#de958e" points="2123.76,-950.49 2133,-955.66 2129,-945.85 2123.76,-950.49"/>
</g>
<!-- requests.models -->
<g id="node62" class="node">
<title>requests.models</title>
<polygon fill="#343434" stroke="#343434" points="1961,-1151.76 1821,-1151.76 1821,-1115.76 1961,-1115.76 1961,-1151.76"/>
<text text-anchor="middle" x="1891" y="-1130.06" font-family="Courier,monospace" font-size="14.00" fill="#de958e">requests.models</text>
</g>
<!-- requests.models&#45;&gt;hidebound.core.database -->
<g id="edge152" class="edge">
<title>requests.models&#45;&gt;hidebound.core.database</title>
<path fill="none" stroke="#de958e" d="M1954.95,-1115.64C1965.58,-1111.65 1976.3,-1107.02 1986,-1101.76 2038.84,-1073.1 2092.14,-1027.33 2122.79,-998.99"/>
<polygon fill="#de958e" stroke="#de958e" points="2125.53,-1001.22 2130.44,-991.84 2120.75,-996.11 2125.53,-1001.22"/>
</g>
<!-- werkzeug.exceptions -->
<g id="node63" class="node">
<title>werkzeug.exceptions</title>
<polygon fill="#343434" stroke="#343434" points="2236.5,-1763.76 2063.5,-1763.76 2063.5,-1727.76 2236.5,-1727.76 2236.5,-1763.76"/>
<text text-anchor="middle" x="2150" y="-1742.06" font-family="Courier,monospace" font-size="14.00" fill="#de958e">werkzeug.exceptions</text>
</g>
<!-- werkzeug.exceptions&#45;&gt;hidebound.server.api -->
<g id="edge153" class="edge">
<title>werkzeug.exceptions&#45;&gt;hidebound.server.api</title>
<path fill="none" stroke="#de958e" d="M2236.71,-1730C2250.93,-1725.76 2265.19,-1720.43 2278,-1713.76 2318.74,-1692.55 2357.43,-1655.71 2380.93,-1630.79"/>
<polygon fill="#de958e" stroke="#de958e" points="2383.77,-1632.87 2388.01,-1623.15 2378.64,-1628.11 2383.77,-1632.87"/>
</g>
<!-- skimage.io -->
<g id="node64" class="node">
<title>skimage.io</title>
<polygon fill="#343434" stroke="#343434" points="255,-1227.76 156,-1227.76 156,-1191.76 255,-1191.76 255,-1227.76"/>
<text text-anchor="middle" x="205.5" y="-1206.06" font-family="Courier,monospace" font-size="14.00" fill="#de958e">skimage.io</text>
</g>
<!-- skimage.io&#45;&gt;hidebound.core.traits -->
<g id="edge154" class="edge">
<title>skimage.io&#45;&gt;hidebound.core.traits</title>
<path fill="none" stroke="#de958e" d="M255.15,-1209.76C271.67,-1209.76 290.83,-1209.76 309.99,-1209.76"/>
<polygon fill="#de958e" stroke="#de958e" points="310,-1213.26 320,-1209.76 310,-1206.26 310,-1213.26"/>
</g>
</g>
</svg>
