<?xml version="1.0" encoding="UTF-8" standalone="no"?>
<!DOCTYPE svg PUBLIC "-//W3C//DTD SVG 1.1//EN"
 "http://www.w3.org/Graphics/SVG/1.1/DTD/svg11.dtd">
<!-- Generated by graphviz version 2.40.1 (20161225.0304)
 -->
<!-- Title: %3 Pages: 1 -->
<svg width="2451pt" height="1873pt"
 viewBox="0.00 0.00 2451.00 1872.52" xmlns="http://www.w3.org/2000/svg" xmlns:xlink="http://www.w3.org/1999/xlink">
<g id="graph0" class="graph" transform="scale(1 1) rotate(0) translate(4 1868.5236)">
<title>%3</title>
<polygon fill="#242424" stroke="transparent" points="-4,4 -4,-1868.5236 2447,-1868.5236 2447,4 -4,4"/>
<!-- cli -->
<g id="node1" class="node">
<title>cli</title>
<polygon fill="#343434" stroke="#343434" points="171.5,-977.8305 117.5,-977.8305 117.5,-941.8305 171.5,-941.8305 171.5,-977.8305"/>
<text text-anchor="middle" x="144.5" y="-956.1305" font-family="Courier,monospace" font-size="14.00" fill="#b6ecf3">cli</text>
</g>
<!-- hidebound.core.config -->
<g id="node2" class="node">
<title>hidebound.core.config</title>
<polygon fill="#343434" stroke="#343434" points="1641,-1356.8305 1451,-1356.8305 1451,-1320.8305 1641,-1320.8305 1641,-1356.8305"/>
<text text-anchor="middle" x="1546" y="-1335.1305" font-family="Courier,monospace" font-size="14.00" fill="#b6ecf3">hidebound.core.config</text>
</g>
<!-- hidebound.core.database -->
<g id="node3" class="node">
<title>hidebound.core.database</title>
<polygon fill="#343434" stroke="#343434" points="1941,-1210.8305 1735,-1210.8305 1735,-1174.8305 1941,-1174.8305 1941,-1210.8305"/>
<text text-anchor="middle" x="1838" y="-1189.1305" font-family="Courier,monospace" font-size="14.00" fill="#b6ecf3">hidebound.core.database</text>
</g>
<!-- hidebound.core.config&#45;&gt;hidebound.core.database -->
<g id="edge1" class="edge">
<title>hidebound.core.config&#45;&gt;hidebound.core.database</title>
<path fill="none" stroke="#b6ecf3" d="M1640.5734,-1320.7393C1652.1535,-1316.9257 1663.5682,-1312.3387 1674,-1306.8305 1692.9304,-1296.8349 1692.9347,-1287.7552 1710,-1274.8305 1738.3232,-1253.3794 1772.2561,-1231.8124 1798.0656,-1216.1838"/>
<polygon fill="#b6ecf3" stroke="#b6ecf3" points="1800.0659,-1219.0651 1806.8334,-1210.9133 1796.4595,-1213.0656 1800.0659,-1219.0651"/>
</g>
<!-- hidebound.server.app -->
<g id="node17" class="node">
<title>hidebound.server.app</title>
<polygon fill="#343434" stroke="#343434" points="2443,-313.8305 2261,-313.8305 2261,-277.8305 2443,-277.8305 2443,-313.8305"/>
<text text-anchor="middle" x="2352" y="-292.1305" font-family="Courier,monospace" font-size="14.00" fill="#b6ecf3">hidebound.server.app</text>
</g>
<!-- hidebound.core.config&#45;&gt;hidebound.server.app -->
<g id="edge2" class="edge">
<title>hidebound.core.config&#45;&gt;hidebound.server.app</title>
<path fill="none" stroke="#b6ecf3" d="M1641.3056,-1334.8283C1734.4473,-1326.1159 1875.1214,-1299.5368 1966,-1219.8305 2258.4206,-963.3591 2334.5409,-449.4418 2349.0853,-323.9509"/>
<polygon fill="#b6ecf3" stroke="#b6ecf3" points="2352.5667,-324.3122 2350.204,-313.9842 2345.6103,-323.5314 2352.5667,-324.3122"/>
</g>
<!-- hidebound.server.api -->
<g id="node16" class="node">
<title>hidebound.server.api</title>
<polygon fill="#343434" stroke="#343434" points="2204.5,-564.8305 2022.5,-564.8305 2022.5,-528.8305 2204.5,-528.8305 2204.5,-564.8305"/>
<text text-anchor="middle" x="2113.5" y="-543.1305" font-family="Courier,monospace" font-size="14.00" fill="#b6ecf3">hidebound.server.api</text>
</g>
<!-- hidebound.core.database&#45;&gt;hidebound.server.api -->
<g id="edge3" class="edge">
<title>hidebound.core.database&#45;&gt;hidebound.server.api</title>
<path fill="none" stroke="#b6ecf3" d="M1848.8858,-1174.6915C1872.222,-1135.3666 1928.0245,-1038.9393 1966,-953.8305 2027.918,-815.0631 2084.0363,-641.62 2104.8943,-574.83"/>
<polygon fill="#b6ecf3" stroke="#b6ecf3" points="2108.3089,-575.6362 2107.9347,-565.048 2101.6243,-573.5585 2108.3089,-575.6362"/>
</g>
<!-- hidebound.core.database_tools -->
<g id="node4" class="node">
<title>hidebound.core.database_tools</title>
<polygon fill="#343434" stroke="#343434" points="1674,-909.8305 1418,-909.8305 1418,-873.8305 1674,-873.8305 1674,-909.8305"/>
<text text-anchor="middle" x="1546" y="-888.1305" font-family="Courier,monospace" font-size="14.00" fill="#b6ecf3">hidebound.core.database_tools</text>
</g>
<!-- hidebound.core.database_tools&#45;&gt;hidebound.core.database -->
<g id="edge4" class="edge">
<title>hidebound.core.database_tools&#45;&gt;hidebound.core.database</title>
<path fill="none" stroke="#b6ecf3" d="M1585.4124,-909.9387C1612.2342,-923.4692 1647.528,-943.7379 1674,-967.8305 1740.7497,-1028.5807 1797.3738,-1120.4078 1823.1333,-1165.6608"/>
<polygon fill="#b6ecf3" stroke="#b6ecf3" points="1820.1996,-1167.5842 1828.1542,-1174.5824 1826.2999,-1164.1511 1820.1996,-1167.5842"/>
</g>
<!-- hidebound.core.logging -->
<g id="node5" class="node">
<title>hidebound.core.logging</title>
<polygon fill="#343434" stroke="#343434" points="1645,-527.8305 1447,-527.8305 1447,-491.8305 1645,-491.8305 1645,-527.8305"/>
<text text-anchor="middle" x="1546" y="-506.1305" font-family="Courier,monospace" font-size="14.00" fill="#b6ecf3">hidebound.core.logging</text>
</g>
<!-- hidebound.core.logging&#45;&gt;hidebound.core.database -->
<g id="edge5" class="edge">
<title>hidebound.core.logging&#45;&gt;hidebound.core.database</title>
<path fill="none" stroke="#b6ecf3" d="M1605.6013,-527.9287C1629.9881,-538.1092 1656.5228,-553.2249 1674,-574.8305 1712.6343,-622.5909 1807.0752,-1049.8223 1831.9263,-1164.5694"/>
<polygon fill="#b6ecf3" stroke="#b6ecf3" points="1828.5767,-1165.6399 1834.1098,-1174.6752 1835.4189,-1164.1616 1828.5767,-1165.6399"/>
</g>
<!-- hidebound.server.progress -->
<g id="node19" class="node">
<title>hidebound.server.progress</title>
<polygon fill="#343434" stroke="#343434" points="1949.5,-508.8305 1726.5,-508.8305 1726.5,-472.8305 1949.5,-472.8305 1949.5,-508.8305"/>
<text text-anchor="middle" x="1838" y="-487.1305" font-family="Courier,monospace" font-size="14.00" fill="#b6ecf3">hidebound.server.progress</text>
</g>
<!-- hidebound.core.logging&#45;&gt;hidebound.server.progress -->
<g id="edge6" class="edge">
<title>hidebound.core.logging&#45;&gt;hidebound.server.progress</title>
<path fill="none" stroke="#b6ecf3" d="M1645.2653,-503.3715C1668.1228,-501.8842 1692.6888,-500.2857 1716.374,-498.7445"/>
<polygon fill="#b6ecf3" stroke="#b6ecf3" points="1716.7117,-502.2301 1726.4633,-498.088 1716.2571,-495.2448 1716.7117,-502.2301"/>
</g>
<!-- hidebound.core.parser -->
<g id="node6" class="node">
<title>hidebound.core.parser</title>
<polygon fill="#343434" stroke="#343434" points="683,-1229.8305 493,-1229.8305 493,-1193.8305 683,-1193.8305 683,-1229.8305"/>
<text text-anchor="middle" x="588" y="-1208.1305" font-family="Courier,monospace" font-size="14.00" fill="#b6ecf3">hidebound.core.parser</text>
</g>
<!-- hidebound.core.parser&#45;&gt;hidebound.core.database_tools -->
<g id="edge7" class="edge">
<title>hidebound.core.parser&#45;&gt;hidebound.core.database_tools</title>
<path fill="none" stroke="#b6ecf3" d="M617.69,-1193.7228C711.4152,-1136.6994 997.5492,-963.7222 1044,-948.8305 1187.7309,-902.7518 1232.1729,-934.0968 1382,-915.8305 1393.4925,-914.4294 1405.4236,-912.8759 1417.3714,-911.2524"/>
<polygon fill="#b6ecf3" stroke="#b6ecf3" points="1417.9718,-914.7029 1427.4023,-909.8741 1417.0189,-907.7681 1417.9718,-914.7029"/>
</g>
<!-- hidebound.core.specification_base -->
<g id="node7" class="node">
<title>hidebound.core.specification_base</title>
<polygon fill="#343434" stroke="#343434" points="1357.5,-1237.8305 1068.5,-1237.8305 1068.5,-1201.8305 1357.5,-1201.8305 1357.5,-1237.8305"/>
<text text-anchor="middle" x="1213" y="-1216.1305" font-family="Courier,monospace" font-size="14.00" fill="#b6ecf3">hidebound.core.specification_base</text>
</g>
<!-- hidebound.core.parser&#45;&gt;hidebound.core.specification_base -->
<g id="edge8" class="edge">
<title>hidebound.core.parser&#45;&gt;hidebound.core.specification_base</title>
<path fill="none" stroke="#b6ecf3" d="M683.264,-1213.0499C782.8774,-1214.3249 940.7773,-1216.3461 1058.3038,-1217.8504"/>
<polygon fill="#b6ecf3" stroke="#b6ecf3" points="1058.4306,-1221.3522 1068.4746,-1217.9806 1058.5203,-1214.3528 1058.4306,-1221.3522"/>
</g>
<!-- hidebound.core.validators -->
<g id="node11" class="node">
<title>hidebound.core.validators</title>
<polygon fill="#343434" stroke="#343434" points="975,-1275.8305 752,-1275.8305 752,-1239.8305 975,-1239.8305 975,-1275.8305"/>
<text text-anchor="middle" x="863.5" y="-1254.1305" font-family="Courier,monospace" font-size="14.00" fill="#b6ecf3">hidebound.core.validators</text>
</g>
<!-- hidebound.core.parser&#45;&gt;hidebound.core.validators -->
<g id="edge9" class="edge">
<title>hidebound.core.parser&#45;&gt;hidebound.core.validators</title>
<path fill="none" stroke="#b6ecf3" d="M683.1972,-1227.7255C703.2462,-1231.0731 724.6288,-1234.6433 745.4026,-1238.1119"/>
<polygon fill="#b6ecf3" stroke="#b6ecf3" points="745.1033,-1241.6103 755.5432,-1239.8051 746.2562,-1234.7059 745.1033,-1241.6103"/>
</g>
<!-- hidebound.core.specification_base&#45;&gt;hidebound.core.config -->
<g id="edge10" class="edge">
<title>hidebound.core.specification_base&#45;&gt;hidebound.core.config</title>
<path fill="none" stroke="#b6ecf3" d="M1355.649,-1237.907C1364.9183,-1241.7588 1373.8072,-1246.3546 1382,-1251.8305 1406.2894,-1268.0649 1394.1902,-1289.9005 1418,-1306.8305 1425.1886,-1311.942 1433.1108,-1316.2398 1441.3832,-1319.853"/>
<polygon fill="#b6ecf3" stroke="#b6ecf3" points="1440.2671,-1323.1763 1450.8514,-1323.6485 1442.8717,-1316.6789 1440.2671,-1323.1763"/>
</g>
<!-- hidebound.core.specification_base&#45;&gt;hidebound.core.database -->
<g id="edge11" class="edge">
<title>hidebound.core.specification_base&#45;&gt;hidebound.core.database</title>
<path fill="none" stroke="#b6ecf3" d="M1336.7622,-1237.8795C1352.2342,-1241.7001 1367.65,-1246.3003 1382,-1251.8305 1399.4968,-1258.5735 1399.9498,-1268.7518 1418,-1273.8305 1527.525,-1304.6471 1563.2023,-1299.7005 1674,-1273.8305 1721.3462,-1262.7757 1770.7203,-1235.9714 1802.7616,-1216.2103"/>
<polygon fill="#b6ecf3" stroke="#b6ecf3" points="1804.71,-1219.1199 1811.3232,-1210.8424 1800.9915,-1213.1891 1804.71,-1219.1199"/>
</g>
<!-- hidebound.core.specification_base&#45;&gt;hidebound.core.database_tools -->
<g id="edge12" class="edge">
<title>hidebound.core.specification_base&#45;&gt;hidebound.core.database_tools</title>
<path fill="none" stroke="#b6ecf3" d="M1231.3779,-1201.7286C1287.3239,-1146.6226 1455.6659,-980.8083 1520.3225,-917.1225"/>
<polygon fill="#b6ecf3" stroke="#b6ecf3" points="1523.0107,-919.3874 1527.6789,-909.8765 1518.0985,-914.4004 1523.0107,-919.3874"/>
</g>
<!-- hidebound.core.specifications -->
<g id="node8" class="node">
<title>hidebound.core.specifications</title>
<polygon fill="#343434" stroke="#343434" points="1674,-1156.8305 1418,-1156.8305 1418,-1120.8305 1674,-1120.8305 1674,-1156.8305"/>
<text text-anchor="middle" x="1546" y="-1135.1305" font-family="Courier,monospace" font-size="14.00" fill="#b6ecf3">hidebound.core.specifications</text>
</g>
<!-- hidebound.core.specification_base&#45;&gt;hidebound.core.specifications -->
<g id="edge13" class="edge">
<title>hidebound.core.specification_base&#45;&gt;hidebound.core.specifications</title>
<path fill="none" stroke="#b6ecf3" d="M1278.3417,-1201.7329C1318.5052,-1190.8297 1371.0861,-1176.9501 1418,-1165.8305 1427.613,-1163.552 1437.655,-1161.2683 1447.7024,-1159.0468"/>
<polygon fill="#b6ecf3" stroke="#b6ecf3" points="1448.7168,-1162.4077 1457.7361,-1156.8487 1447.2187,-1155.5699 1448.7168,-1162.4077"/>
</g>
<!-- hidebound.core.tools -->
<g id="node9" class="node">
<title>hidebound.core.tools</title>
<polygon fill="#343434" stroke="#343434" points="954.5,-955.8305 772.5,-955.8305 772.5,-919.8305 954.5,-919.8305 954.5,-955.8305"/>
<text text-anchor="middle" x="863.5" y="-934.1305" font-family="Courier,monospace" font-size="14.00" fill="#b6ecf3">hidebound.core.tools</text>
</g>
<!-- hidebound.core.tools&#45;&gt;hidebound.core.database -->
<g id="edge14" class="edge">
<title>hidebound.core.tools&#45;&gt;hidebound.core.database</title>
<path fill="none" stroke="#b6ecf3" d="M954.7067,-950.4221C972.9805,-955.0201 991.59,-961.2885 1008,-969.8305 1027.2529,-979.8523 1024.2799,-993.7625 1044,-1002.8305 1172.1189,-1061.7438 1542.2117,-1028.66 1674,-1078.8305 1727.5467,-1099.2152 1780.2929,-1140.778 1810.9644,-1167.6879"/>
<polygon fill="#b6ecf3" stroke="#b6ecf3" points="1808.8471,-1170.4891 1818.643,-1174.5255 1813.5023,-1165.2613 1808.8471,-1170.4891"/>
</g>
<!-- hidebound.core.tools&#45;&gt;hidebound.core.database_tools -->
<g id="edge15" class="edge">
<title>hidebound.core.tools&#45;&gt;hidebound.core.database_tools</title>
<path fill="none" stroke="#b6ecf3" d="M954.7268,-925.3886C983.2677,-921.8519 1014.9032,-918.2959 1044,-915.8305 1166.719,-905.4324 1306.7252,-899.2045 1407.6467,-895.7092"/>
<polygon fill="#b6ecf3" stroke="#b6ecf3" points="1408.0294,-899.1983 1417.904,-895.3587 1407.7903,-892.2024 1408.0294,-899.1983"/>
</g>
<!-- hidebound.core.tools&#45;&gt;hidebound.core.specification_base -->
<g id="edge16" class="edge">
<title>hidebound.core.tools&#45;&gt;hidebound.core.specification_base</title>
<path fill="none" stroke="#b6ecf3" d="M888.6581,-955.9066C917.7722,-976.9914 966.9724,-1013.138 1008,-1045.8305 1072.4194,-1097.1625 1145.4258,-1160.3954 1184.5781,-1194.7373"/>
<polygon fill="#b6ecf3" stroke="#b6ecf3" points="1182.581,-1197.6416 1192.4037,-1201.6123 1187.2011,-1192.3828 1182.581,-1197.6416"/>
</g>
<!-- hidebound.core.traits -->
<g id="node10" class="node">
<title>hidebound.core.traits</title>
<polygon fill="#343434" stroke="#343434" points="1308,-863.8305 1118,-863.8305 1118,-827.8305 1308,-827.8305 1308,-863.8305"/>
<text text-anchor="middle" x="1213" y="-842.1305" font-family="Courier,monospace" font-size="14.00" fill="#b6ecf3">hidebound.core.traits</text>
</g>
<!-- hidebound.core.tools&#45;&gt;hidebound.core.traits -->
<g id="edge17" class="edge">
<title>hidebound.core.tools&#45;&gt;hidebound.core.traits</title>
<path fill="none" stroke="#b6ecf3" d="M954.6636,-928.7641C972.9405,-924.7716 991.5622,-919.043 1008,-910.8305 1027.4167,-901.1298 1024.595,-887.5547 1044,-877.8305 1063.6787,-867.9692 1086.0361,-861.1337 1107.8982,-856.3991"/>
<polygon fill="#b6ecf3" stroke="#b6ecf3" points="1108.7935,-859.7888 1117.8967,-854.3683 1107.4001,-852.9289 1108.7935,-859.7888"/>
</g>
<!-- hidebound.exporters.local_disk_exporter -->
<g id="node14" class="node">
<title>hidebound.exporters.local_disk_exporter</title>
<polygon fill="#343434" stroke="#343434" points="1382,-1405.8305 1044,-1405.8305 1044,-1369.8305 1382,-1369.8305 1382,-1405.8305"/>
<text text-anchor="middle" x="1213" y="-1384.1305" font-family="Courier,monospace" font-size="14.00" fill="#b6ecf3">hidebound.exporters.local_disk_exporter</text>
</g>
<!-- hidebound.core.tools&#45;&gt;hidebound.exporters.local_disk_exporter -->
<g id="edge18" class="edge">
<title>hidebound.core.tools&#45;&gt;hidebound.exporters.local_disk_exporter</title>
<path fill="none" stroke="#b6ecf3" d="M871.3556,-955.9406C893.5463,-1005.8431 960.5452,-1148.1662 1044,-1246.8305 1083.9794,-1294.0961 1141.0423,-1338.0087 1177.5538,-1363.8819"/>
<polygon fill="#b6ecf3" stroke="#b6ecf3" points="1175.7225,-1366.8726 1185.9193,-1369.7492 1179.742,-1361.1416 1175.7225,-1366.8726"/>
</g>
<!-- hidebound.core.traits&#45;&gt;hidebound.core.specifications -->
<g id="edge19" class="edge">
<title>hidebound.core.traits&#45;&gt;hidebound.core.specifications</title>
<path fill="none" stroke="#b6ecf3" d="M1249.7897,-863.9493C1285.569,-882.5263 1340.4527,-913.6198 1382,-948.8305 1442.1104,-999.7732 1499.1268,-1073.545 1527.4296,-1112.479"/>
<polygon fill="#b6ecf3" stroke="#b6ecf3" points="1524.6611,-1114.6239 1533.3475,-1120.69 1530.34,-1110.531 1524.6611,-1114.6239"/>
</g>
<!-- hidebound.core.validators&#45;&gt;hidebound.core.config -->
<g id="edge20" class="edge">
<title>hidebound.core.validators&#45;&gt;hidebound.core.config</title>
<path fill="none" stroke="#b6ecf3" d="M975.0553,-1271.07C1104.0332,-1286.3773 1314.72,-1311.3819 1440.8962,-1326.3566"/>
<polygon fill="#b6ecf3" stroke="#b6ecf3" points="1440.6151,-1329.8478 1450.9579,-1327.5508 1441.4402,-1322.8966 1440.6151,-1329.8478"/>
</g>
<!-- hidebound.core.validators&#45;&gt;hidebound.core.specification_base -->
<g id="edge21" class="edge">
<title>hidebound.core.validators&#45;&gt;hidebound.core.specification_base</title>
<path fill="none" stroke="#b6ecf3" d="M975.0449,-1245.7026C1001.4664,-1242.8299 1030.1158,-1239.7149 1058.079,-1236.6746"/>
<polygon fill="#b6ecf3" stroke="#b6ecf3" points="1058.7817,-1240.1189 1068.3448,-1235.5584 1058.025,-1233.1599 1058.7817,-1240.1189"/>
</g>
<!-- hidebound.core.validators&#45;&gt;hidebound.core.specifications -->
<g id="edge22" class="edge">
<title>hidebound.core.validators&#45;&gt;hidebound.core.specifications</title>
<path fill="none" stroke="#b6ecf3" d="M904.9522,-1239.6937C940.998,-1224.7061 994.9903,-1204.1201 1044,-1192.8305 1165.2087,-1164.9095 1306.283,-1151.3503 1407.9593,-1144.8101"/>
<polygon fill="#b6ecf3" stroke="#b6ecf3" points="1408.2228,-1148.3005 1417.9834,-1144.1798 1407.7834,-1141.3143 1408.2228,-1148.3005"/>
</g>
<!-- hidebound.exporters.girder_exporter -->
<g id="node13" class="node">
<title>hidebound.exporters.girder_exporter</title>
<polygon fill="#343434" stroke="#343434" points="1365.5,-1497.8305 1060.5,-1497.8305 1060.5,-1461.8305 1365.5,-1461.8305 1365.5,-1497.8305"/>
<text text-anchor="middle" x="1213" y="-1476.1305" font-family="Courier,monospace" font-size="14.00" fill="#b6ecf3">hidebound.exporters.girder_exporter</text>
</g>
<!-- hidebound.core.validators&#45;&gt;hidebound.exporters.girder_exporter -->
<g id="edge23" class="edge">
<title>hidebound.core.validators&#45;&gt;hidebound.exporters.girder_exporter</title>
<path fill="none" stroke="#b6ecf3" d="M930.9057,-1275.8882C957.7989,-1285.9625 987.2371,-1301.0086 1008,-1322.8305 1038.2662,-1354.6403 1012.8623,-1383.8733 1044,-1414.8305 1064.0531,-1434.7674 1090.8797,-1448.7188 1117.2438,-1458.4296"/>
<polygon fill="#b6ecf3" stroke="#b6ecf3" points="1116.3277,-1461.8171 1126.9226,-1461.8186 1118.6411,-1455.2104 1116.3277,-1461.8171"/>
</g>
<!-- hidebound.core.validators&#45;&gt;hidebound.exporters.local_disk_exporter -->
<g id="edge24" class="edge">
<title>hidebound.core.validators&#45;&gt;hidebound.exporters.local_disk_exporter</title>
<path fill="none" stroke="#b6ecf3" d="M912.0965,-1275.9065C975.6501,-1299.5458 1086.8706,-1340.9154 1154.833,-1366.1947"/>
<polygon fill="#b6ecf3" stroke="#b6ecf3" points="1153.9427,-1369.5978 1164.5355,-1369.8037 1156.3831,-1363.0369 1153.9427,-1369.5978"/>
</g>
<!-- hidebound.exporters.s3_exporter -->
<g id="node15" class="node">
<title>hidebound.exporters.s3_exporter</title>
<polygon fill="#343434" stroke="#343434" points="1349,-1551.8305 1077,-1551.8305 1077,-1515.8305 1349,-1515.8305 1349,-1551.8305"/>
<text text-anchor="middle" x="1213" y="-1530.1305" font-family="Courier,monospace" font-size="14.00" fill="#b6ecf3">hidebound.exporters.s3_exporter</text>
</g>
<!-- hidebound.core.validators&#45;&gt;hidebound.exporters.s3_exporter -->
<g id="edge25" class="edge">
<title>hidebound.core.validators&#45;&gt;hidebound.exporters.s3_exporter</title>
<path fill="none" stroke="#b6ecf3" d="M937.7784,-1275.9453C963.56,-1285.7761 990.391,-1300.6337 1008,-1322.8305 1059.7881,-1388.1114 984.0621,-1448.9422 1044,-1506.8305 1050.9793,-1513.5712 1058.9281,-1519.0314 1067.4853,-1523.4283"/>
<polygon fill="#b6ecf3" stroke="#b6ecf3" points="1066.0613,-1526.6258 1076.6081,-1527.6345 1068.9923,-1520.269 1066.0613,-1526.6258"/>
</g>
<!-- hidebound.exporters.exporter_base -->
<g id="node12" class="node">
<title>hidebound.exporters.exporter_base</title>
<polygon fill="#343434" stroke="#343434" points="1008,-1605.8305 719,-1605.8305 719,-1569.8305 1008,-1569.8305 1008,-1605.8305"/>
<text text-anchor="middle" x="863.5" y="-1584.1305" font-family="Courier,monospace" font-size="14.00" fill="#b6ecf3">hidebound.exporters.exporter_base</text>
</g>
<!-- hidebound.exporters.exporter_base&#45;&gt;hidebound.exporters.girder_exporter -->
<g id="edge26" class="edge">
<title>hidebound.exporters.exporter_base&#45;&gt;hidebound.exporters.girder_exporter</title>
<path fill="none" stroke="#b6ecf3" d="M980.4963,-1569.7705C990.1775,-1565.9649 999.4968,-1561.3718 1008,-1555.8305 1030.6404,-1541.0764 1020.9307,-1520.9045 1044,-1506.8305 1046.5563,-1505.271 1049.1732,-1503.7924 1051.8421,-1502.3908"/>
<polygon fill="#b6ecf3" stroke="#b6ecf3" points="1053.6219,-1505.4181 1061.1035,-1497.9163 1050.5767,-1499.1151 1053.6219,-1505.4181"/>
</g>
<!-- hidebound.exporters.exporter_base&#45;&gt;hidebound.exporters.local_disk_exporter -->
<g id="edge27" class="edge">
<title>hidebound.exporters.exporter_base&#45;&gt;hidebound.exporters.local_disk_exporter</title>
<path fill="none" stroke="#b6ecf3" d="M926.9231,-1569.8097C954.3838,-1559.5343 985.3533,-1544.3227 1008,-1522.8305 1033.376,-1498.7482 1017.9651,-1476.199 1044,-1452.8305 1066.0776,-1433.014 1094.8445,-1418.9745 1122.3685,-1409.1458"/>
<polygon fill="#b6ecf3" stroke="#b6ecf3" points="1123.7075,-1412.3871 1132.0392,-1405.8424 1121.4447,-1405.7629 1123.7075,-1412.3871"/>
</g>
<!-- hidebound.exporters.exporter_base&#45;&gt;hidebound.exporters.s3_exporter -->
<g id="edge28" class="edge">
<title>hidebound.exporters.exporter_base&#45;&gt;hidebound.exporters.s3_exporter</title>
<path fill="none" stroke="#b6ecf3" d="M980.3643,-1569.7742C1014.3196,-1564.5279 1051.562,-1558.7737 1086.102,-1553.4371"/>
<polygon fill="#b6ecf3" stroke="#b6ecf3" points="1086.8975,-1556.8558 1096.2458,-1551.8698 1085.8286,-1549.9379 1086.8975,-1556.8558"/>
</g>
<!-- hidebound.exporters.girder_exporter&#45;&gt;hidebound.core.config -->
<g id="edge29" class="edge">
<title>hidebound.exporters.girder_exporter&#45;&gt;hidebound.core.config</title>
<path fill="none" stroke="#b6ecf3" d="M1339.216,-1461.7271C1353.8942,-1457.9306 1368.4492,-1453.351 1382,-1447.8305 1433.5878,-1426.814 1485.9442,-1388.3938 1517.192,-1363.2382"/>
<polygon fill="#b6ecf3" stroke="#b6ecf3" points="1519.5085,-1365.8654 1525.0478,-1356.834 1515.0854,-1360.4399 1519.5085,-1365.8654"/>
</g>
<!-- hidebound.exporters.girder_exporter&#45;&gt;hidebound.core.database -->
<g id="edge30" class="edge">
<title>hidebound.exporters.girder_exporter&#45;&gt;hidebound.core.database</title>
<path fill="none" stroke="#b6ecf3" d="M1365.7398,-1481.3326C1460.4056,-1475.9126 1581.2108,-1457.015 1674,-1401.8305 1748.3877,-1357.5899 1801.84,-1265.9089 1825.0793,-1220.1079"/>
<polygon fill="#b6ecf3" stroke="#b6ecf3" points="1828.2577,-1221.5768 1829.5764,-1211.0644 1821.9899,-1218.46 1828.2577,-1221.5768"/>
</g>
<!-- hidebound.exporters.local_disk_exporter&#45;&gt;hidebound.core.config -->
<g id="edge31" class="edge">
<title>hidebound.exporters.local_disk_exporter&#45;&gt;hidebound.core.config</title>
<path fill="none" stroke="#b6ecf3" d="M1335.5783,-1369.7935C1370.0309,-1364.7239 1407.1858,-1359.2566 1440.5457,-1354.3478"/>
<polygon fill="#b6ecf3" stroke="#b6ecf3" points="1441.3858,-1357.762 1450.7697,-1352.8434 1440.3667,-1350.8365 1441.3858,-1357.762"/>
</g>
<!-- hidebound.exporters.local_disk_exporter&#45;&gt;hidebound.core.database -->
<g id="edge32" class="edge">
<title>hidebound.exporters.local_disk_exporter&#45;&gt;hidebound.core.database</title>
<path fill="none" stroke="#b6ecf3" d="M1333.3405,-1405.8686C1429.8946,-1414.8865 1566.5681,-1415.087 1674,-1365.8305 1742.5808,-1334.3869 1796.6518,-1259.9977 1822.1009,-1219.7718"/>
<polygon fill="#b6ecf3" stroke="#b6ecf3" points="1825.226,-1221.3735 1827.5203,-1211.03 1819.2765,-1217.6851 1825.226,-1221.3735"/>
</g>
<!-- hidebound.exporters.s3_exporter&#45;&gt;hidebound.core.config -->
<g id="edge33" class="edge">
<title>hidebound.exporters.s3_exporter&#45;&gt;hidebound.core.config</title>
<path fill="none" stroke="#b6ecf3" d="M1349.2489,-1520.0082C1360.6341,-1516.4928 1371.7106,-1512.1603 1382,-1506.8305 1447.1699,-1473.0732 1501.799,-1403.688 1528.4735,-1365.4956"/>
<polygon fill="#b6ecf3" stroke="#b6ecf3" points="1531.5682,-1367.1715 1534.3409,-1356.9459 1525.7966,-1363.2106 1531.5682,-1367.1715"/>
</g>
<!-- hidebound.exporters.s3_exporter&#45;&gt;hidebound.core.database -->
<g id="edge34" class="edge">
<title>hidebound.exporters.s3_exporter&#45;&gt;hidebound.core.database</title>
<path fill="none" stroke="#b6ecf3" d="M1349.0025,-1538.4519C1447.0786,-1535.395 1578.4696,-1517.5519 1674,-1452.8305 1759.9215,-1394.619 1809.9406,-1274.8145 1829.022,-1220.5842"/>
<polygon fill="#b6ecf3" stroke="#b6ecf3" points="1832.3927,-1221.5447 1832.3272,-1210.9501 1825.7715,-1219.2732 1832.3927,-1221.5447"/>
</g>
<!-- hidebound.server.api&#45;&gt;hidebound.server.app -->
<g id="edge35" class="edge">
<title>hidebound.server.api&#45;&gt;hidebound.server.app</title>
<path fill="none" stroke="#b6ecf3" d="M2130.6523,-528.7792C2172.4071,-484.836 2279.4428,-372.1905 2327.7278,-321.3749"/>
<polygon fill="#b6ecf3" stroke="#b6ecf3" points="2330.3316,-323.7157 2334.6826,-314.0555 2325.2571,-318.8939 2330.3316,-323.7157"/>
</g>
<!-- hidebound.server.components -->
<g id="node18" class="node">
<title>hidebound.server.components</title>
<polygon fill="#343434" stroke="#343434" points="1957.5,-286.8305 1718.5,-286.8305 1718.5,-250.8305 1957.5,-250.8305 1957.5,-286.8305"/>
<text text-anchor="middle" x="1838" y="-265.1305" font-family="Courier,monospace" font-size="14.00" fill="#b6ecf3">hidebound.server.components</text>
</g>
<!-- hidebound.server.components&#45;&gt;hidebound.server.app -->
<g id="edge36" class="edge">
<title>hidebound.server.components&#45;&gt;hidebound.server.app</title>
<path fill="none" stroke="#b6ecf3" d="M1875.7104,-250.7152C1908.2881,-236.1287 1957.0714,-216.7911 2002,-208.8305 2099.5911,-191.5389 2130.3245,-179.5121 2225,-208.8305 2263.9929,-220.9055 2301.6641,-249.5402 2325.7111,-270.6767"/>
<polygon fill="#b6ecf3" stroke="#b6ecf3" points="2323.5495,-273.4399 2333.3261,-277.5226 2328.2294,-268.2342 2323.5495,-273.4399"/>
</g>
<!-- hidebound.server.server_tools -->
<g id="node20" class="node">
<title>hidebound.server.server_tools</title>
<polygon fill="#343434" stroke="#343434" points="1966,-638.8305 1710,-638.8305 1710,-602.8305 1966,-602.8305 1966,-638.8305"/>
<text text-anchor="middle" x="1838" y="-617.1305" font-family="Courier,monospace" font-size="14.00" fill="#b6ecf3">hidebound.server.server_tools</text>
</g>
<!-- hidebound.server.server_tools&#45;&gt;hidebound.server.api -->
<g id="edge37" class="edge">
<title>hidebound.server.server_tools&#45;&gt;hidebound.server.api</title>
<path fill="none" stroke="#b6ecf3" d="M1911.8833,-602.7934C1929.6361,-598.3396 1948.5179,-593.5034 1966,-588.8305 1990.8684,-582.1832 2017.9904,-574.5665 2042.117,-567.6607"/>
<polygon fill="#b6ecf3" stroke="#b6ecf3" points="2043.2588,-570.9744 2051.905,-564.8511 2041.3275,-564.246 2043.2588,-570.9744"/>
</g>
<!-- hidebound.server.server_tools&#45;&gt;hidebound.server.app -->
<g id="edge38" class="edge">
<title>hidebound.server.server_tools&#45;&gt;hidebound.server.app</title>
<path fill="none" stroke="#b6ecf3" d="M1966.2181,-635.4111C2047.6667,-637.896 2151.2552,-627.7758 2225,-573.8305 2309.0877,-512.3192 2338.8969,-381.6294 2348.2235,-324.0616"/>
<polygon fill="#b6ecf3" stroke="#b6ecf3" points="2351.7285,-324.2945 2349.7806,-313.8803 2344.8089,-323.2362 2351.7285,-324.2945"/>
</g>
<!-- dash -->
<g id="node21" class="node">
<title>dash</title>
<polygon fill="#343434" stroke="#343434" points="1573,-128.8305 1519,-128.8305 1519,-92.8305 1573,-92.8305 1573,-128.8305"/>
<text text-anchor="middle" x="1546" y="-107.1305" font-family="Courier,monospace" font-size="14.00" fill="#de958e">dash</text>
</g>
<!-- dash&#45;&gt;hidebound.server.app -->
<g id="edge39" class="edge">
<title>dash&#45;&gt;hidebound.server.app</title>
<path fill="none" stroke="#de958e" d="M1573.1546,-98.3255C1670.0833,-55.6975 2004.9684,74.1558 2225,-57.8305 2302.4024,-104.2605 2335.2405,-215.668 2346.7451,-267.9061"/>
<polygon fill="#de958e" stroke="#de958e" points="2343.3464,-268.7523 2348.8267,-277.8196 2350.197,-267.3138 2343.3464,-268.7523"/>
</g>
<!-- dash&#45;&gt;hidebound.server.components -->
<g id="edge40" class="edge">
<title>dash&#45;&gt;hidebound.server.components</title>
<path fill="none" stroke="#de958e" d="M1573.2084,-125.5529C1624.2473,-153.1698 1734.6828,-212.926 1795.5716,-245.8727"/>
<polygon fill="#de958e" stroke="#de958e" points="1794.0816,-249.0459 1804.5423,-250.7267 1797.4129,-242.8894 1794.0816,-249.0459"/>
</g>
<!-- dash.dependencies -->
<g id="node22" class="node">
<title>dash.dependencies</title>
<polygon fill="#343434" stroke="#343434" points="2192,-340.8305 2035,-340.8305 2035,-304.8305 2192,-304.8305 2192,-340.8305"/>
<text text-anchor="middle" x="2113.5" y="-319.1305" font-family="Courier,monospace" font-size="14.00" fill="#de958e">dash.dependencies</text>
</g>
<!-- dash.dependencies&#45;&gt;hidebound.server.app -->
<g id="edge41" class="edge">
<title>dash.dependencies&#45;&gt;hidebound.server.app</title>
<path fill="none" stroke="#de958e" d="M2192.2548,-313.9149C2210.9727,-311.7959 2231.2011,-309.5059 2250.767,-307.2908"/>
<polygon fill="#de958e" stroke="#de958e" points="2251.3841,-310.7434 2260.9269,-306.1407 2250.5966,-303.7879 2251.3841,-310.7434"/>
</g>
<!-- dash.exceptions -->
<g id="node23" class="node">
<title>dash.exceptions</title>
<polygon fill="#343434" stroke="#343434" points="2183.5,-286.8305 2043.5,-286.8305 2043.5,-250.8305 2183.5,-250.8305 2183.5,-286.8305"/>
<text text-anchor="middle" x="2113.5" y="-265.1305" font-family="Courier,monospace" font-size="14.00" fill="#de958e">dash.exceptions</text>
</g>
<!-- dash.exceptions&#45;&gt;hidebound.server.app -->
<g id="edge42" class="edge">
<title>dash.exceptions&#45;&gt;hidebound.server.app</title>
<path fill="none" stroke="#de958e" d="M2183.7679,-276.7854C2204.8339,-279.1702 2228.3682,-281.8345 2251.0038,-284.397"/>
<polygon fill="#de958e" stroke="#de958e" points="2250.6525,-287.8795 2260.9828,-285.5267 2251.44,-280.9239 2250.6525,-287.8795"/>
</g>
<!-- hidebound.server -->
<g id="node24" class="node">
<title>hidebound.server</title>
<polygon fill="#343434" stroke="#343434" points="1620.5,-419.8305 1471.5,-419.8305 1471.5,-383.8305 1620.5,-383.8305 1620.5,-419.8305"/>
<text text-anchor="middle" x="1546" y="-398.1305" font-family="Courier,monospace" font-size="14.00" fill="#a0d17b">hidebound.server</text>
</g>
<!-- hidebound.server&#45;&gt;hidebound.server.api -->
<g id="edge43" class="edge">
<title>hidebound.server&#45;&gt;hidebound.server.api</title>
<path fill="none" stroke="#a0d17b" d="M1620.7633,-404.6571C1706.2874,-409.7486 1849.5335,-423.9957 1966,-463.8305 2007.5731,-478.0497 2050.9041,-503.9758 2079.7554,-523.0814"/>
<polygon fill="#a0d17b" stroke="#a0d17b" points="2077.9736,-526.1008 2088.2264,-528.7712 2081.8767,-520.2899 2077.9736,-526.1008"/>
</g>
<!-- hidebound.server&#45;&gt;hidebound.server.app -->
<g id="edge44" class="edge">
<title>hidebound.server&#45;&gt;hidebound.server.app</title>
<path fill="none" stroke="#a0d17b" d="M1620.6964,-390.3163C1638.8799,-385.6132 1657.7547,-379.0285 1674,-369.8305 1693.6904,-358.682 1689.095,-342.4896 1710,-333.8305 1815.117,-290.2896 1854.7008,-310.2112 1966,-333.8305 1983.1277,-337.4652 1984.8723,-346.1958 2002,-349.8305 2098.952,-370.4051 2127.8846,-369.6198 2225,-349.8305 2254.8445,-343.7491 2286.3659,-330.3914 2310.5393,-318.4837"/>
<polygon fill="#a0d17b" stroke="#a0d17b" points="2312.4014,-321.4647 2319.7564,-313.8387 2309.2511,-315.2136 2312.4014,-321.4647"/>
</g>
<!-- hidebound.server&#45;&gt;hidebound.server.components -->
<g id="edge45" class="edge">
<title>hidebound.server&#45;&gt;hidebound.server.components</title>
<path fill="none" stroke="#a0d17b" d="M1620.5677,-394.203C1639.4595,-389.4586 1658.708,-381.8822 1674,-369.8305 1701.1669,-348.4202 1682.8331,-322.2408 1710,-300.8305 1714.3852,-297.3745 1719.0958,-294.2865 1724.03,-291.5278"/>
<polygon fill="#a0d17b" stroke="#a0d17b" points="1725.7975,-294.5558 1733.1312,-286.9094 1722.6298,-288.3135 1725.7975,-294.5558"/>
</g>
<!-- hidebound.server&#45;&gt;hidebound.server.progress -->
<g id="edge46" class="edge">
<title>hidebound.server&#45;&gt;hidebound.server.progress</title>
<path fill="none" stroke="#a0d17b" d="M1620.7936,-411.2576C1638.786,-415.2278 1657.548,-420.8566 1674,-428.8305 1692.742,-437.9143 1691.4297,-449.4007 1710,-458.8305 1717.9493,-462.8671 1726.4403,-466.4159 1735.1244,-469.5321"/>
<polygon fill="#a0d17b" stroke="#a0d17b" points="1734.0126,-472.8507 1744.6069,-472.7462 1736.2597,-466.2212 1734.0126,-472.8507"/>
</g>
<!-- hidebound.server&#45;&gt;hidebound.server.server_tools -->
<g id="edge47" class="edge">
<title>hidebound.server&#45;&gt;hidebound.server.server_tools</title>
<path fill="none" stroke="#a0d17b" d="M1620.5594,-405.1468C1639.6669,-409.1286 1659.0256,-416.2904 1674,-428.8305 1706.7131,-456.2257 1684.5597,-483.5751 1710,-517.8305 1734.0926,-550.2713 1770.7188,-578.3501 1798.6286,-596.9599"/>
<polygon fill="#a0d17b" stroke="#a0d17b" points="1797.071,-600.1231 1807.3569,-602.6629 1800.8999,-594.2631 1797.071,-600.1231"/>
</g>
<!-- dash_cytoscape -->
<g id="node25" class="node">
<title>dash_cytoscape</title>
<polygon fill="#343434" stroke="#343434" points="1612,-297.8305 1480,-297.8305 1480,-261.8305 1612,-261.8305 1612,-297.8305"/>
<text text-anchor="middle" x="1546" y="-276.1305" font-family="Courier,monospace" font-size="14.00" fill="#de958e">dash_cytoscape</text>
</g>
<!-- dash_cytoscape&#45;&gt;hidebound.server.components -->
<g id="edge48" class="edge">
<title>dash_cytoscape&#45;&gt;hidebound.server.components</title>
<path fill="none" stroke="#de958e" d="M1612.2593,-277.3344C1640.6989,-276.2631 1674.9616,-274.9724 1708.1036,-273.7239"/>
<polygon fill="#de958e" stroke="#de958e" points="1708.4843,-277.2121 1718.3455,-273.338 1708.2208,-270.2171 1708.4843,-277.2121"/>
</g>
<!-- flask -->
<g id="node26" class="node">
<title>flask</title>
<polygon fill="#343434" stroke="#343434" points="1575,-473.8305 1517,-473.8305 1517,-437.8305 1575,-437.8305 1575,-473.8305"/>
<text text-anchor="middle" x="1546" y="-452.1305" font-family="Courier,monospace" font-size="14.00" fill="#de958e">flask</text>
</g>
<!-- flask&#45;&gt;hidebound.server.api -->
<g id="edge49" class="edge">
<title>flask&#45;&gt;hidebound.server.api</title>
<path fill="none" stroke="#de958e" d="M1575.0219,-457.3444C1602.0412,-459.7875 1642.7327,-466.1689 1674,-482.8305 1693.6938,-493.3249 1689.638,-508.7 1710,-517.8305 1805.9132,-560.839 1927.5929,-563.4712 2012.1285,-558.2376"/>
<polygon fill="#de958e" stroke="#de958e" points="2012.5045,-561.7204 2022.2494,-557.5626 2012.0386,-554.7359 2012.5045,-561.7204"/>
</g>
<!-- flask&#45;&gt;hidebound.server.app -->
<g id="edge50" class="edge">
<title>flask&#45;&gt;hidebound.server.app</title>
<path fill="none" stroke="#de958e" d="M1575.0852,-456.4593C1670.9152,-457.6561 1984.3411,-454.5778 2225,-371.8305 2259.995,-359.7979 2295.8098,-337.2505 2320.4463,-319.8271"/>
<polygon fill="#de958e" stroke="#de958e" points="2322.6038,-322.5867 2328.6747,-313.9036 2318.5141,-316.9056 2322.6038,-322.5867"/>
</g>
<!-- flask&#45;&gt;hidebound.server.components -->
<g id="edge51" class="edge">
<title>flask&#45;&gt;hidebound.server.components</title>
<path fill="none" stroke="#de958e" d="M1575.1237,-457.258C1603.5698,-457.0763 1646.487,-452.3941 1674,-428.8305 1708.2937,-399.4595 1679.8365,-367.4293 1710,-333.8305 1726.7539,-315.1685 1750.1131,-301.1348 1772.2965,-290.9741"/>
<polygon fill="#de958e" stroke="#de958e" points="1773.9514,-294.0704 1781.7091,-286.8545 1771.1447,-287.6577 1773.9514,-294.0704"/>
</g>
<!-- flask&#45;&gt;hidebound.server.progress -->
<g id="edge52" class="edge">
<title>flask&#45;&gt;hidebound.server.progress</title>
<path fill="none" stroke="#de958e" d="M1575.0656,-459.3144C1608.1324,-463.2779 1664.2939,-470.0096 1716.2427,-476.2363"/>
<polygon fill="#de958e" stroke="#de958e" points="1715.8816,-479.718 1726.2271,-477.4331 1716.7147,-472.7677 1715.8816,-479.718"/>
</g>
<!-- flask&#45;&gt;hidebound.server.server_tools -->
<g id="edge53" class="edge">
<title>flask&#45;&gt;hidebound.server.server_tools</title>
<path fill="none" stroke="#de958e" d="M1575.0487,-455.1679C1603.0367,-455.9761 1645.2539,-461.1633 1674,-482.8305 1701.3078,-503.4136 1685.9839,-526.487 1710,-550.8305 1729.865,-570.9663 1756.7568,-586.8553 1780.7644,-598.3708"/>
<polygon fill="#de958e" stroke="#de958e" points="1779.6051,-601.6912 1790.1493,-602.7251 1782.5512,-595.3414 1779.6051,-601.6912"/>
</g>
<!-- flask_healthz -->
<g id="node27" class="node">
<title>flask_healthz</title>
<polygon fill="#343434" stroke="#343434" points="2175.5,-156.8305 2051.5,-156.8305 2051.5,-120.8305 2175.5,-120.8305 2175.5,-156.8305"/>
<text text-anchor="middle" x="2113.5" y="-135.1305" font-family="Courier,monospace" font-size="14.00" fill="#de958e">flask_healthz</text>
</g>
<!-- flask_healthz&#45;&gt;hidebound.server.app -->
<g id="edge54" class="edge">
<title>flask_healthz&#45;&gt;hidebound.server.app</title>
<path fill="none" stroke="#de958e" d="M2175.6277,-150.7872C2192.3488,-155.5457 2209.9562,-162.0469 2225,-170.8305 2269.2553,-196.6698 2309.4125,-241.4062 2332.2457,-269.7658"/>
<polygon fill="#de958e" stroke="#de958e" points="2329.5371,-271.9833 2338.4883,-277.6514 2335.0255,-267.6384 2329.5371,-271.9833"/>
</g>
<!-- rolling_pin.blob_etl -->
<g id="node28" class="node">
<title>rolling_pin.blob_etl</title>
<polygon fill="#343434" stroke="#343434" points="1637,-243.8305 1455,-243.8305 1455,-207.8305 1637,-207.8305 1637,-243.8305"/>
<text text-anchor="middle" x="1546" y="-222.1305" font-family="Courier,monospace" font-size="14.00" fill="#de958e">rolling_pin.blob_etl</text>
</g>
<!-- rolling_pin.blob_etl&#45;&gt;hidebound.server.components -->
<g id="edge55" class="edge">
<title>rolling_pin.blob_etl&#45;&gt;hidebound.server.components</title>
<path fill="none" stroke="#de958e" d="M1637.1895,-239.2591C1659.6649,-242.5688 1684.1674,-246.1771 1708.0869,-249.6995"/>
<polygon fill="#de958e" stroke="#de958e" points="1707.8916,-253.2084 1718.2948,-251.2027 1708.9115,-246.2831 1707.8916,-253.2084"/>
</g>
<!-- flask_monitoringdashboard -->
<g id="node29" class="node">
<title>flask_monitoringdashboard</title>
<polygon fill="#343434" stroke="#343434" points="2225,-102.8305 2002,-102.8305 2002,-66.8305 2225,-66.8305 2225,-102.8305"/>
<text text-anchor="middle" x="2113.5" y="-81.1305" font-family="Courier,monospace" font-size="14.00" fill="#de958e">flask_monitoringdashboard</text>
</g>
<!-- flask_monitoringdashboard&#45;&gt;hidebound.server.app -->
<g id="edge56" class="edge">
<title>flask_monitoringdashboard&#45;&gt;hidebound.server.app</title>
<path fill="none" stroke="#de958e" d="M2209.2518,-102.8924C2214.7743,-105.4844 2220.0757,-108.4462 2225,-111.8305 2283.0697,-151.7393 2322.6441,-227.5707 2340.754,-268.3109"/>
<polygon fill="#de958e" stroke="#de958e" points="2337.6061,-269.8493 2344.7942,-277.6328 2344.0288,-267.0656 2337.6061,-269.8493"/>
</g>
<!-- json_logging -->
<g id="node30" class="node">
<title>json_logging</title>
<polygon fill="#343434" stroke="#343434" points="1271,-527.8305 1155,-527.8305 1155,-491.8305 1271,-491.8305 1271,-527.8305"/>
<text text-anchor="middle" x="1213" y="-506.1305" font-family="Courier,monospace" font-size="14.00" fill="#de958e">json_logging</text>
</g>
<!-- json_logging&#45;&gt;hidebound.core.logging -->
<g id="edge57" class="edge">
<title>json_logging&#45;&gt;hidebound.core.logging</title>
<path fill="none" stroke="#de958e" d="M1271.0042,-509.8305C1316.6141,-509.8305 1381.463,-509.8305 1436.7326,-509.8305"/>
<polygon fill="#de958e" stroke="#de958e" points="1436.9344,-513.3306 1446.9343,-509.8305 1436.9343,-506.3306 1436.9344,-513.3306"/>
</g>
<!-- pandasql -->
<g id="node31" class="node">
<title>pandasql</title>
<polygon fill="#343434" stroke="#343434" points="1587.5,-1264.8305 1504.5,-1264.8305 1504.5,-1228.8305 1587.5,-1228.8305 1587.5,-1264.8305"/>
<text text-anchor="middle" x="1546" y="-1243.1305" font-family="Courier,monospace" font-size="14.00" fill="#de958e">pandasql</text>
</g>
<!-- pandasql&#45;&gt;hidebound.core.database -->
<g id="edge58" class="edge">
<title>pandasql&#45;&gt;hidebound.core.database</title>
<path fill="none" stroke="#de958e" d="M1587.5264,-1239.151C1624.7247,-1232.2718 1680.9238,-1221.8789 1730.6687,-1212.6795"/>
<polygon fill="#de958e" stroke="#de958e" points="1731.3273,-1216.1171 1740.5241,-1210.8569 1730.0543,-1209.2338 1731.3273,-1216.1171"/>
</g>
<!-- flasgger -->
<g id="node32" class="node">
<title>flasgger</title>
<polygon fill="#343434" stroke="#343434" points="1879.5,-378.8305 1796.5,-378.8305 1796.5,-342.8305 1879.5,-342.8305 1879.5,-378.8305"/>
<text text-anchor="middle" x="1838" y="-357.1305" font-family="Courier,monospace" font-size="14.00" fill="#de958e">flasgger</text>
</g>
<!-- flasgger&#45;&gt;hidebound.server.api -->
<g id="edge59" class="edge">
<title>flasgger&#45;&gt;hidebound.server.api</title>
<path fill="none" stroke="#de958e" d="M1874.7976,-378.8906C1900.8995,-392.1925 1936.4063,-411.2963 1966,-430.8305 2009.4916,-459.5385 2056.221,-497.6606 2085.1614,-522.2235"/>
<polygon fill="#de958e" stroke="#de958e" points="2082.9564,-524.9431 2092.8348,-528.7729 2087.5008,-519.6187 2082.9564,-524.9431"/>
</g>
<!-- flasgger&#45;&gt;hidebound.server.app -->
<g id="edge60" class="edge">
<title>flasgger&#45;&gt;hidebound.server.app</title>
<path fill="none" stroke="#de958e" d="M1879.5997,-346.0916C1906.3718,-335.155 1940.7523,-318.2591 1966,-295.8305 1987.5645,-276.6739 1976.5686,-255.441 2002,-241.8305 2102.1803,-188.2157 2240.1206,-240.1523 2309.094,-273.1855"/>
<polygon fill="#de958e" stroke="#de958e" points="2307.8359,-276.466 2318.3577,-277.7082 2310.907,-270.1757 2307.8359,-276.466"/>
</g>
<!-- jinja2 -->
<g id="node33" class="node">
<title>jinja2</title>
<polygon fill="#343434" stroke="#343434" points="1579,-619.8305 1513,-619.8305 1513,-583.8305 1579,-583.8305 1579,-619.8305"/>
<text text-anchor="middle" x="1546" y="-598.1305" font-family="Courier,monospace" font-size="14.00" fill="#de958e">jinja2</text>
</g>
<!-- jinja2&#45;&gt;hidebound.server.server_tools -->
<g id="edge61" class="edge">
<title>jinja2&#45;&gt;hidebound.server.server_tools</title>
<path fill="none" stroke="#de958e" d="M1579.2118,-603.9916C1609.0205,-605.9312 1654.8674,-608.9143 1699.737,-611.8339"/>
<polygon fill="#de958e" stroke="#de958e" points="1699.6872,-615.338 1709.8934,-612.4948 1700.1418,-608.3528 1699.6872,-615.338"/>
</g>
<!-- requests -->
<g id="node34" class="node">
<title>requests</title>
<polygon fill="#343434" stroke="#343434" points="1587.5,-1210.8305 1504.5,-1210.8305 1504.5,-1174.8305 1587.5,-1174.8305 1587.5,-1210.8305"/>
<text text-anchor="middle" x="1546" y="-1189.1305" font-family="Courier,monospace" font-size="14.00" fill="#de958e">requests</text>
</g>
<!-- requests&#45;&gt;hidebound.core.database -->
<g id="edge62" class="edge">
<title>requests&#45;&gt;hidebound.core.database</title>
<path fill="none" stroke="#de958e" d="M1587.5264,-1192.8305C1623.2467,-1192.8305 1676.4879,-1192.8305 1724.7103,-1192.8305"/>
<polygon fill="#de958e" stroke="#de958e" points="1724.9162,-1196.3306 1734.9161,-1192.8305 1724.9161,-1189.3306 1724.9162,-1196.3306"/>
</g>
<!-- girder_client -->
<g id="node35" class="node">
<title>girder_client</title>
<polygon fill="#343434" stroke="#343434" points="925.5,-1513.8305 801.5,-1513.8305 801.5,-1477.8305 925.5,-1477.8305 925.5,-1513.8305"/>
<text text-anchor="middle" x="863.5" y="-1492.1305" font-family="Courier,monospace" font-size="14.00" fill="#de958e">girder_client</text>
</g>
<!-- girder_client&#45;&gt;hidebound.exporters.girder_exporter -->
<g id="edge63" class="edge">
<title>girder_client&#45;&gt;hidebound.exporters.girder_exporter</title>
<path fill="none" stroke="#de958e" d="M925.5809,-1492.9885C960.5037,-1491.3897 1005.8921,-1489.3118 1050.2451,-1487.2814"/>
<polygon fill="#de958e" stroke="#de958e" points="1050.4562,-1490.7755 1060.2856,-1486.8217 1050.136,-1483.7828 1050.4562,-1490.7755"/>
</g>
<!-- lunchbox.tools -->
<g id="node36" class="node">
<title>lunchbox.tools</title>
<polygon fill="#343434" stroke="#343434" points="1279,-619.8305 1147,-619.8305 1147,-583.8305 1279,-583.8305 1279,-619.8305"/>
<text text-anchor="middle" x="1213" y="-598.1305" font-family="Courier,monospace" font-size="14.00" fill="#de958e">lunchbox.tools</text>
</g>
<!-- lunchbox.tools&#45;&gt;hidebound.core.database_tools -->
<g id="edge64" class="edge">
<title>lunchbox.tools&#45;&gt;hidebound.core.database_tools</title>
<path fill="none" stroke="#de958e" d="M1279.0634,-602.1864C1312.3777,-605.2265 1351.9706,-613.4686 1382,-633.8305 1467.2204,-691.6153 1517.4596,-809.9811 1536.7963,-863.9275"/>
<polygon fill="#de958e" stroke="#de958e" points="1533.5465,-865.2374 1540.151,-873.5217 1540.1542,-862.9269 1533.5465,-865.2374"/>
</g>
<!-- lunchbox.tools&#45;&gt;hidebound.server.server_tools -->
<g id="edge65" class="edge">
<title>lunchbox.tools&#45;&gt;hidebound.server.server_tools</title>
<path fill="none" stroke="#de958e" d="M1279.2555,-612.7951C1319.2966,-618.8622 1371.4331,-625.7771 1418,-628.8305 1531.534,-636.275 1560.256,-631.6031 1674,-628.8305 1682.3979,-628.6258 1691.0355,-628.3622 1699.7464,-628.056"/>
<polygon fill="#de958e" stroke="#de958e" points="1700.1318,-631.5443 1709.9959,-627.678 1699.8737,-624.549 1700.1318,-631.5443"/>
</g>
<!-- boto3 -->
<g id="node37" class="node">
<title>boto3</title>
<polygon fill="#343434" stroke="#343434" points="892.5,-1659.8305 834.5,-1659.8305 834.5,-1623.8305 892.5,-1623.8305 892.5,-1659.8305"/>
<text text-anchor="middle" x="863.5" y="-1638.1305" font-family="Courier,monospace" font-size="14.00" fill="#de958e">boto3</text>
</g>
<!-- boto3&#45;&gt;hidebound.exporters.s3_exporter -->
<g id="edge66" class="edge">
<title>boto3&#45;&gt;hidebound.exporters.s3_exporter</title>
<path fill="none" stroke="#de958e" d="M892.6673,-1638.0566C922.1265,-1633.8558 968.7624,-1626.135 1008,-1614.8305 1062.9247,-1599.0065 1123.5436,-1574.0735 1164.5145,-1556.0478"/>
<polygon fill="#de958e" stroke="#de958e" points="1165.9946,-1559.2202 1173.7191,-1551.9688 1163.1585,-1552.8204 1165.9946,-1559.2202"/>
</g>
<!-- hidebound.exporters -->
<g id="node38" class="node">
<title>hidebound.exporters</title>
<polygon fill="#343434" stroke="#343434" points="674.5,-1559.8305 501.5,-1559.8305 501.5,-1523.8305 674.5,-1523.8305 674.5,-1559.8305"/>
<text text-anchor="middle" x="588" y="-1538.1305" font-family="Courier,monospace" font-size="14.00" fill="#a0d17b">hidebound.exporters</text>
</g>
<!-- hidebound.exporters&#45;&gt;hidebound.exporters.exporter_base -->
<g id="edge67" class="edge">
<title>hidebound.exporters&#45;&gt;hidebound.exporters.exporter_base</title>
<path fill="none" stroke="#a0d17b" d="M674.7918,-1556.3221C697.1491,-1560.055 721.5912,-1564.1361 745.2501,-1568.0864"/>
<polygon fill="#a0d17b" stroke="#a0d17b" points="744.8934,-1571.5752 755.3333,-1569.77 746.0463,-1564.6708 744.8934,-1571.5752"/>
</g>
<!-- hidebound.exporters&#45;&gt;hidebound.exporters.girder_exporter -->
<g id="edge68" class="edge">
<title>hidebound.exporters&#45;&gt;hidebound.exporters.girder_exporter</title>
<path fill="none" stroke="#a0d17b" d="M674.552,-1547.1935C760.3837,-1550.3571 895.0457,-1549.4825 1008,-1522.8305 1025.0411,-1518.8096 1027.2137,-1511.8091 1044,-1506.8305 1052.2787,-1504.3751 1060.8558,-1502.1293 1069.5568,-1500.077"/>
<polygon fill="#a0d17b" stroke="#a0d17b" points="1070.4446,-1503.4647 1079.424,-1497.8414 1068.8977,-1496.6377 1070.4446,-1503.4647"/>
</g>
<!-- hidebound.exporters&#45;&gt;hidebound.exporters.local_disk_exporter -->
<g id="edge69" class="edge">
<title>hidebound.exporters&#45;&gt;hidebound.exporters.local_disk_exporter</title>
<path fill="none" stroke="#a0d17b" d="M600.2503,-1523.3609C620.8055,-1494.1779 665.3083,-1438.3103 719,-1414.8305 773.9609,-1390.7957 916.0111,-1384.9507 1033.753,-1384.6013"/>
<polygon fill="#a0d17b" stroke="#a0d17b" points="1033.9892,-1388.101 1043.9834,-1384.5844 1033.9776,-1381.101 1033.9892,-1388.101"/>
</g>
<!-- hidebound.exporters&#45;&gt;hidebound.exporters.s3_exporter -->
<g id="edge70" class="edge">
<title>hidebound.exporters&#45;&gt;hidebound.exporters.s3_exporter</title>
<path fill="none" stroke="#a0d17b" d="M599.779,-1560.1617C619.9833,-1589.6889 664.3938,-1646.7062 719,-1668.8305 838.0446,-1717.0628 884.9622,-1705.7043 1008,-1668.8305 1079.7262,-1647.3345 1149.5674,-1591.7478 1186.3206,-1558.995"/>
<polygon fill="#a0d17b" stroke="#a0d17b" points="1189.0085,-1561.2832 1194.0783,-1551.9801 1184.3135,-1556.0912 1189.0085,-1561.2832"/>
</g>
<!-- numpy -->
<g id="node39" class="node">
<title>numpy</title>
<polygon fill="#343434" stroke="#343434" points="1242,-993.8305 1184,-993.8305 1184,-957.8305 1242,-957.8305 1242,-993.8305"/>
<text text-anchor="middle" x="1213" y="-972.1305" font-family="Courier,monospace" font-size="14.00" fill="#de958e">numpy</text>
</g>
<!-- numpy&#45;&gt;hidebound.core.database -->
<g id="edge71" class="edge">
<title>numpy&#45;&gt;hidebound.core.database</title>
<path fill="none" stroke="#de958e" d="M1242.1946,-970.6193C1318.0759,-958.5424 1525.9007,-934.9338 1674,-1007.8305 1745.0659,-1042.8102 1798.8965,-1123.4944 1823.4109,-1165.8116"/>
<polygon fill="#de958e" stroke="#de958e" points="1820.4855,-1167.7481 1828.4648,-1174.7182 1826.5737,-1164.2935 1820.4855,-1167.7481"/>
</g>
<!-- numpy&#45;&gt;hidebound.core.database_tools -->
<g id="edge72" class="edge">
<title>numpy&#45;&gt;hidebound.core.database_tools</title>
<path fill="none" stroke="#de958e" d="M1242.0244,-972.8083C1276.1925,-968.6897 1334.3235,-959.9157 1382,-943.8305 1398.9499,-938.1119 1401.2685,-932.1596 1418,-925.8305 1430.7194,-921.0191 1444.3938,-916.6161 1457.9029,-912.6895"/>
<polygon fill="#de958e" stroke="#de958e" points="1459.0271,-916.0089 1467.6945,-909.9156 1457.1191,-909.2739 1459.0271,-916.0089"/>
</g>
<!-- numpy&#45;&gt;hidebound.server.api -->
<g id="edge73" class="edge">
<title>numpy&#45;&gt;hidebound.server.api</title>
<path fill="none" stroke="#de958e" d="M1242.127,-972.6934C1340.3022,-962.0588 1654.0774,-927.5539 1674,-918.8305 1864.0682,-835.6067 2034.8446,-642.791 2092.6651,-572.8055"/>
<polygon fill="#de958e" stroke="#de958e" points="2095.5168,-574.8476 2099.1501,-564.8952 2090.1034,-570.4096 2095.5168,-574.8476"/>
</g>
<!-- jsoncomment -->
<g id="node40" class="node">
<title>jsoncomment</title>
<polygon fill="#343434" stroke="#343434" points="641.5,-1743.8305 534.5,-1743.8305 534.5,-1707.8305 641.5,-1707.8305 641.5,-1743.8305"/>
<text text-anchor="middle" x="588" y="-1722.1305" font-family="Courier,monospace" font-size="14.00" fill="#de958e">jsoncomment</text>
</g>
<!-- jsoncomment&#45;&gt;hidebound.core.database -->
<g id="edge74" class="edge">
<title>jsoncomment&#45;&gt;hidebound.core.database</title>
<path fill="none" stroke="#de958e" d="M633.6359,-1743.9235C794.9432,-1804.6122 1346.1249,-1983.8223 1674,-1739.8305 1760.8034,-1675.2348 1818.8097,-1323.128 1834.0205,-1220.7566"/>
<polygon fill="#de958e" stroke="#de958e" points="1837.4852,-1221.2524 1835.474,-1210.8502 1830.5593,-1220.2361 1837.4852,-1221.2524"/>
</g>
<!-- jsoncomment&#45;&gt;hidebound.exporters.exporter_base -->
<g id="edge75" class="edge">
<title>jsoncomment&#45;&gt;hidebound.exporters.exporter_base</title>
<path fill="none" stroke="#de958e" d="M603.7272,-1707.5416C626.4655,-1682.3788 671.0798,-1637.6151 719,-1614.8305 723.1307,-1612.8665 727.3912,-1611.0451 731.7432,-1609.3561"/>
<polygon fill="#de958e" stroke="#de958e" points="733.1863,-1612.5562 741.4015,-1605.8658 730.8072,-1605.9729 733.1863,-1612.5562"/>
</g>
<!-- jsoncomment&#45;&gt;hidebound.server.server_tools -->
<g id="edge76" class="edge">
<title>jsoncomment&#45;&gt;hidebound.server.server_tools</title>
<path fill="none" stroke="#de958e" d="M641.7118,-1728.4841C826.6713,-1734.2764 1438.7209,-1724.9049 1674,-1365.8305 1723.4998,-1290.2858 1691.6685,-1254.268 1710,-1165.8305 1751.2512,-966.8201 1810.5164,-729.2894 1830.8425,-648.954"/>
<polygon fill="#de958e" stroke="#de958e" points="1834.2754,-649.655 1833.3396,-639.1016 1827.4899,-647.9352 1834.2754,-649.655"/>
</g>
<!-- hidebound -->
<g id="node41" class="node">
<title>hidebound</title>
<polygon fill="#343434" stroke="#343434" points="190,-1031.8305 99,-1031.8305 99,-995.8305 190,-995.8305 190,-1031.8305"/>
<text text-anchor="middle" x="144.5" y="-1010.1305" font-family="Courier,monospace" font-size="14.00" fill="#a0d17b">hidebound</text>
</g>
<!-- hidebound&#45;&gt;hidebound.server -->
<g id="edge77" class="edge">
<title>hidebound&#45;&gt;hidebound.server</title>
<path fill="none" stroke="#a0d17b" d="M190.2944,-1015.7641C221.1626,-1014.7431 261.1749,-1008.6283 289,-986.8305 518.8584,-806.7623 296.0078,-401.8305 588,-401.8305 588,-401.8305 588,-401.8305 863.5,-401.8305 1078.6564,-401.8305 1331.9657,-401.8305 1461.0551,-401.8305"/>
<polygon fill="#a0d17b" stroke="#a0d17b" points="1461.2663,-405.3306 1471.2663,-401.8305 1461.2662,-398.3306 1461.2663,-405.3306"/>
</g>
<!-- hidebound&#45;&gt;hidebound.exporters -->
<g id="edge78" class="edge">
<title>hidebound&#45;&gt;hidebound.exporters</title>
<path fill="none" stroke="#a0d17b" d="M190.3048,-1009.297C222.6249,-1008.8282 264.393,-1014.2256 289,-1040.8305 339.9892,-1095.9596 285.1994,-1313.1514 325,-1376.8305 370.4222,-1449.5038 460.8703,-1495.5519 522.8951,-1520.0148"/>
<polygon fill="#a0d17b" stroke="#a0d17b" points="522.0048,-1523.4227 532.5944,-1523.7564 524.5242,-1516.8918 522.0048,-1523.4227"/>
</g>
<!-- hidebound.core -->
<g id="node48" class="node">
<title>hidebound.core</title>
<polygon fill="#343434" stroke="#343434" points="457,-1031.8305 325,-1031.8305 325,-995.8305 457,-995.8305 457,-1031.8305"/>
<text text-anchor="middle" x="391" y="-1010.1305" font-family="Courier,monospace" font-size="14.00" fill="#a0d17b">hidebound.core</text>
</g>
<!-- hidebound&#45;&gt;hidebound.core -->
<g id="edge79" class="edge">
<title>hidebound&#45;&gt;hidebound.core</title>
<path fill="none" stroke="#a0d17b" d="M190.2871,-1013.8305C225.0707,-1013.8305 273.6972,-1013.8305 314.3758,-1013.8305"/>
<polygon fill="#a0d17b" stroke="#a0d17b" points="314.5334,-1017.3306 324.5333,-1013.8305 314.5333,-1010.3306 314.5334,-1017.3306"/>
</g>
<!-- schematics -->
<g id="node42" class="node">
<title>schematics</title>
<polygon fill="#343434" stroke="#343434" points="913,-1459.8305 814,-1459.8305 814,-1423.8305 913,-1423.8305 913,-1459.8305"/>
<text text-anchor="middle" x="863.5" y="-1438.1305" font-family="Courier,monospace" font-size="14.00" fill="#de958e">schematics</text>
</g>
<!-- schematics&#45;&gt;hidebound.core.config -->
<g id="edge80" class="edge">
<title>schematics&#45;&gt;hidebound.core.config</title>
<path fill="none" stroke="#de958e" d="M913.0188,-1445.4195C1006.3521,-1450.8385 1214.0167,-1456.4715 1382,-1414.8305 1427.049,-1403.6634 1474.7849,-1380.0324 1507.0666,-1362.0665"/>
<polygon fill="#de958e" stroke="#de958e" points="1509.1732,-1364.8963 1516.1572,-1356.9292 1505.7292,-1358.8021 1509.1732,-1364.8963"/>
</g>
<!-- schematics&#45;&gt;hidebound.core.specification_base -->
<g id="edge81" class="edge">
<title>schematics&#45;&gt;hidebound.core.specification_base</title>
<path fill="none" stroke="#de958e" d="M910.7485,-1423.8183C939.6612,-1412.0145 976.9395,-1395.3707 1008,-1376.8305 1075.5608,-1336.5032 1146.8431,-1277.6742 1184.9864,-1244.6695"/>
<polygon fill="#de958e" stroke="#de958e" points="1187.3643,-1247.2399 1192.6095,-1238.0346 1182.7686,-1241.9598 1187.3643,-1247.2399"/>
</g>
<!-- schematics&#45;&gt;hidebound.exporters.girder_exporter -->
<g id="edge82" class="edge">
<title>schematics&#45;&gt;hidebound.exporters.girder_exporter</title>
<path fill="none" stroke="#de958e" d="M913.2037,-1447.2346C949.2594,-1451.1549 1000.2297,-1456.6967 1049.9338,-1462.1008"/>
<polygon fill="#de958e" stroke="#de958e" points="1049.8636,-1465.6138 1060.1834,-1463.2153 1050.6203,-1458.6548 1049.8636,-1465.6138"/>
</g>
<!-- schematics&#45;&gt;hidebound.exporters.local_disk_exporter -->
<g id="edge83" class="edge">
<title>schematics&#45;&gt;hidebound.exporters.local_disk_exporter</title>
<path fill="none" stroke="#de958e" d="M913.2037,-1434.151C958.1908,-1427.2002 1026.3965,-1416.662 1086.3913,-1407.3924"/>
<polygon fill="#de958e" stroke="#de958e" points="1086.981,-1410.8429 1096.3293,-1405.8569 1085.9121,-1403.925 1086.981,-1410.8429"/>
</g>
<!-- schematics&#45;&gt;hidebound.exporters.s3_exporter -->
<g id="edge84" class="edge">
<title>schematics&#45;&gt;hidebound.exporters.s3_exporter</title>
<path fill="none" stroke="#de958e" d="M913.2174,-1443.5169C942.3371,-1446.3032 978.9736,-1453.0271 1008,-1468.8305 1028.4324,-1479.9549 1023.4231,-1495.9758 1044,-1506.8305 1051.3666,-1510.7165 1059.1462,-1514.0753 1067.16,-1516.9756"/>
<polygon fill="#de958e" stroke="#de958e" points="1066.0704,-1520.3017 1076.6645,-1520.1739 1068.303,-1513.6673 1066.0704,-1520.3017"/>
</g>
<!-- schematics.types -->
<g id="node43" class="node">
<title>schematics.types</title>
<polygon fill="#343434" stroke="#343434" points="938,-1367.8305 789,-1367.8305 789,-1331.8305 938,-1331.8305 938,-1367.8305"/>
<text text-anchor="middle" x="863.5" y="-1346.1305" font-family="Courier,monospace" font-size="14.00" fill="#de958e">schematics.types</text>
</g>
<!-- schematics.types&#45;&gt;hidebound.core.config -->
<g id="edge85" class="edge">
<title>schematics.types&#45;&gt;hidebound.core.config</title>
<path fill="none" stroke="#de958e" d="M938.1649,-1348.6271C1059.8961,-1346.6651 1301.4776,-1342.7715 1440.6238,-1340.5289"/>
<polygon fill="#de958e" stroke="#de958e" points="1440.9321,-1344.0245 1450.8743,-1340.3637 1440.8192,-1337.0254 1440.9321,-1344.0245"/>
</g>
<!-- schematics.types&#45;&gt;hidebound.core.specification_base -->
<g id="edge86" class="edge">
<title>schematics.types&#45;&gt;hidebound.core.specification_base</title>
<path fill="none" stroke="#de958e" d="M938.3441,-1339.7972C961.3916,-1335.0009 986.3749,-1327.9977 1008,-1317.8305 1026.3435,-1309.2062 1026.4791,-1300.0227 1044,-1289.8305 1077.3544,-1270.4278 1117.1182,-1253.6741 1149.6933,-1241.4257"/>
<polygon fill="#de958e" stroke="#de958e" points="1150.9572,-1244.69 1159.1168,-1237.932 1148.5238,-1238.1266 1150.9572,-1244.69"/>
</g>
<!-- schematics.types&#45;&gt;hidebound.core.specifications -->
<g id="edge87" class="edge">
<title>schematics.types&#45;&gt;hidebound.core.specifications</title>
<path fill="none" stroke="#de958e" d="M938.0376,-1343.4372C1064.5881,-1331.2362 1314.3439,-1300.9103 1382,-1246.8305 1412.7727,-1222.2329 1387.3729,-1190.6092 1418,-1165.8305 1419.556,-1164.5717 1421.1565,-1163.3675 1422.7966,-1162.2157"/>
<polygon fill="#de958e" stroke="#de958e" points="1424.6905,-1165.1594 1431.3051,-1156.883 1420.973,-1159.2281 1424.6905,-1165.1594"/>
</g>
<!-- schematics.types&#45;&gt;hidebound.exporters.girder_exporter -->
<g id="edge88" class="edge">
<title>schematics.types&#45;&gt;hidebound.exporters.girder_exporter</title>
<path fill="none" stroke="#de958e" d="M912.0965,-1367.9065C975.6501,-1391.5458 1086.8706,-1432.9154 1154.833,-1458.1947"/>
<polygon fill="#de958e" stroke="#de958e" points="1153.9427,-1461.5978 1164.5355,-1461.8037 1156.3831,-1455.0369 1153.9427,-1461.5978"/>
</g>
<!-- schematics.types&#45;&gt;hidebound.exporters.local_disk_exporter -->
<g id="edge89" class="edge">
<title>schematics.types&#45;&gt;hidebound.exporters.local_disk_exporter</title>
<path fill="none" stroke="#de958e" d="M938.0478,-1357.9359C967.2423,-1361.1101 1002.0724,-1364.897 1036.9705,-1368.6914"/>
<polygon fill="#de958e" stroke="#de958e" points="1036.982,-1372.2132 1047.3017,-1369.8147 1037.7387,-1365.2542 1036.982,-1372.2132"/>
</g>
<!-- schematics.types&#45;&gt;hidebound.exporters.s3_exporter -->
<g id="edge90" class="edge">
<title>schematics.types&#45;&gt;hidebound.exporters.s3_exporter</title>
<path fill="none" stroke="#de958e" d="M930.9057,-1367.8882C957.7989,-1377.9625 987.2371,-1393.0086 1008,-1414.8305 1038.2662,-1446.6403 1009.8065,-1479.2859 1044,-1506.8305 1051.2218,-1512.648 1059.1947,-1517.4484 1067.6281,-1521.3931"/>
<polygon fill="#de958e" stroke="#de958e" points="1066.3735,-1524.6627 1076.9464,-1525.3453 1069.1069,-1518.2184 1066.3735,-1524.6627"/>
</g>
<!-- wrapt -->
<g id="node44" class="node">
<title>wrapt</title>
<polygon fill="#343434" stroke="#343434" points="617,-1321.8305 559,-1321.8305 559,-1285.8305 617,-1285.8305 617,-1321.8305"/>
<text text-anchor="middle" x="588" y="-1300.1305" font-family="Courier,monospace" font-size="14.00" fill="#de958e">wrapt</text>
</g>
<!-- wrapt&#45;&gt;hidebound.core.validators -->
<g id="edge91" class="edge">
<title>wrapt&#45;&gt;hidebound.core.validators</title>
<path fill="none" stroke="#de958e" d="M617.2225,-1298.9513C647.9281,-1293.8244 698.2266,-1285.4261 745.3895,-1277.5513"/>
<polygon fill="#de958e" stroke="#de958e" points="746.1107,-1280.9794 755.3977,-1275.8803 744.9578,-1274.075 746.1107,-1280.9794"/>
</g>
<!-- pyparsing -->
<g id="node45" class="node">
<title>pyparsing</title>
<polygon fill="#343434" stroke="#343434" points="436.5,-1367.8305 345.5,-1367.8305 345.5,-1331.8305 436.5,-1331.8305 436.5,-1367.8305"/>
<text text-anchor="middle" x="391" y="-1346.1305" font-family="Courier,monospace" font-size="14.00" fill="#de958e">pyparsing</text>
</g>
<!-- pyparsing&#45;&gt;hidebound.core.parser -->
<g id="edge92" class="edge">
<title>pyparsing&#45;&gt;hidebound.core.parser</title>
<path fill="none" stroke="#de958e" d="M416.0456,-1331.6822C436.6295,-1316.8209 466.595,-1295.3096 493,-1276.8305 512.6987,-1263.0447 534.8646,-1247.8601 552.8279,-1235.6363"/>
<polygon fill="#de958e" stroke="#de958e" points="554.976,-1238.4082 561.2794,-1229.8925 551.0413,-1232.6187 554.976,-1238.4082"/>
</g>
<!-- pyparsing&#45;&gt;hidebound.core.specification_base -->
<g id="edge93" class="edge">
<title>pyparsing&#45;&gt;hidebound.core.specification_base</title>
<path fill="none" stroke="#de958e" d="M436.6583,-1362.819C496.0151,-1377.2055 601.6916,-1394.1638 683,-1359.8305 704.1367,-1350.9053 698.4914,-1333.1173 719,-1322.8305 834.7994,-1264.7469 894.0896,-1346.5366 1008,-1284.8305 1029.6174,-1273.1202 1022.4091,-1254.5897 1044,-1242.8305 1048.6746,-1240.2845 1053.5261,-1237.9827 1058.5065,-1235.9033"/>
<polygon fill="#de958e" stroke="#de958e" points="1060.1476,-1239.0225 1068.2305,-1232.1728 1057.6403,-1232.4869 1060.1476,-1239.0225"/>
</g>
<!-- pyparsing&#45;&gt;hidebound.core.validators -->
<g id="edge94" class="edge">
<title>pyparsing&#45;&gt;hidebound.core.validators</title>
<path fill="none" stroke="#de958e" d="M436.5029,-1357.1563C496.384,-1364.5804 603.3582,-1370.0521 683,-1330.8305 704.7547,-1320.1169 698.1275,-1302.175 719,-1289.8305 726.3122,-1285.5059 734.1458,-1281.7646 742.2443,-1278.5281"/>
<polygon fill="#de958e" stroke="#de958e" points="743.7029,-1281.72 751.8575,-1274.9558 741.2646,-1275.1584 743.7029,-1281.72"/>
</g>
<!-- pandas -->
<g id="node46" class="node">
<title>pandas</title>
<polygon fill="#343434" stroke="#343434" points="621,-733.8305 555,-733.8305 555,-697.8305 621,-697.8305 621,-733.8305"/>
<text text-anchor="middle" x="588" y="-712.1305" font-family="Courier,monospace" font-size="14.00" fill="#de958e">pandas</text>
</g>
<!-- pandas&#45;&gt;hidebound.core.database -->
<g id="edge95" class="edge">
<title>pandas&#45;&gt;hidebound.core.database</title>
<path fill="none" stroke="#de958e" d="M621.2626,-709.1446C731.7461,-688.23 1095.7188,-629.7286 1382,-703.8305 1525.4691,-740.9665 1571.3384,-757.9517 1674,-864.8305 1761.7609,-956.1965 1812.1766,-1103.7003 1830.2793,-1164.8677"/>
<polygon fill="#de958e" stroke="#de958e" points="1826.9515,-1165.9592 1833.0977,-1174.5891 1833.6747,-1164.01 1826.9515,-1165.9592"/>
</g>
<!-- pandas&#45;&gt;hidebound.core.database_tools -->
<g id="edge96" class="edge">
<title>pandas&#45;&gt;hidebound.core.database_tools</title>
<path fill="none" stroke="#de958e" d="M621.4237,-714.2478C753.7742,-708.4269 1240.7737,-691.3546 1382,-747.8305 1443.7846,-772.538 1497.979,-831.1133 1525.921,-865.4621"/>
<polygon fill="#de958e" stroke="#de958e" points="1523.4735,-868.0063 1532.4479,-873.6375 1528.9439,-863.6388 1523.4735,-868.0063"/>
</g>
<!-- pandas&#45;&gt;hidebound.core.tools -->
<g id="edge97" class="edge">
<title>pandas&#45;&gt;hidebound.core.tools</title>
<path fill="none" stroke="#de958e" d="M599.5919,-733.8904C629.9743,-781.1142 710.1844,-905.0297 719,-910.8305 731.9416,-919.3462 746.8705,-925.3416 762.1166,-929.533"/>
<polygon fill="#de958e" stroke="#de958e" points="761.614,-933.0146 772.1635,-932.0352 763.3058,-926.2221 761.614,-933.0146"/>
</g>
<!-- pandas&#45;&gt;hidebound.core.validators -->
<g id="edge98" class="edge">
<title>pandas&#45;&gt;hidebound.core.validators</title>
<path fill="none" stroke="#de958e" d="M601.3803,-733.8699C621.1657,-761.1431 658.5188,-814.9901 683,-864.8305 703.8256,-907.2286 700.5241,-921.357 719,-964.8305 761.5158,-1064.8696 821.3585,-1179.3343 848.7578,-1230.5597"/>
<polygon fill="#de958e" stroke="#de958e" points="845.8257,-1232.4981 853.6377,-1239.6552 851.994,-1229.1886 845.8257,-1232.4981"/>
</g>
<!-- pandas&#45;&gt;hidebound.server.components -->
<g id="edge99" class="edge">
<title>pandas&#45;&gt;hidebound.server.components</title>
<path fill="none" stroke="#de958e" d="M615.0091,-697.5387C641.0916,-680.2094 681.9737,-653.9195 719,-633.8305 1010.2066,-475.8334 1098.1862,-461.3376 1418,-374.8305 1533.9168,-343.4759 1668.6317,-309.996 1753.5967,-289.2407"/>
<polygon fill="#de958e" stroke="#de958e" points="1754.5655,-292.607 1763.4507,-286.8361 1752.906,-285.8066 1754.5655,-292.607"/>
</g>
<!-- schematics.exceptions -->
<g id="node47" class="node">
<title>schematics.exceptions</title>
<polygon fill="#343434" stroke="#343434" points="683,-1001.8305 493,-1001.8305 493,-965.8305 683,-965.8305 683,-1001.8305"/>
<text text-anchor="middle" x="588" y="-980.1305" font-family="Courier,monospace" font-size="14.00" fill="#de958e">schematics.exceptions</text>
</g>
<!-- schematics.exceptions&#45;&gt;hidebound.core.config -->
<g id="edge100" class="edge">
<title>schematics.exceptions&#45;&gt;hidebound.core.config</title>
<path fill="none" stroke="#de958e" d="M683.2511,-988.1353C769.0407,-993.4562 898.1621,-1005.0599 1008,-1029.8305 1093.8331,-1049.1876 1320.6802,-1096.7282 1382,-1159.8305 1419.0286,-1197.9355 1383.6329,-1233.3087 1418,-1273.8305 1433.9394,-1292.6244 1456.6605,-1306.5971 1478.5469,-1316.6691"/>
<polygon fill="#de958e" stroke="#de958e" points="1477.2897,-1319.9395 1487.8536,-1320.7496 1480.1006,-1313.5286 1477.2897,-1319.9395"/>
</g>
<!-- schematics.exceptions&#45;&gt;hidebound.core.database_tools -->
<g id="edge101" class="edge">
<title>schematics.exceptions&#45;&gt;hidebound.core.database_tools</title>
<path fill="none" stroke="#de958e" d="M621.9915,-965.6588C641.4723,-954.0784 665.4578,-937.7211 683,-918.8305 704.6825,-895.4815 692.3569,-874.3077 719,-856.8305 965.7912,-694.9423 1093.2967,-757.4782 1382,-818.8305 1426.9483,-828.3825 1474.5233,-851.1475 1506.7886,-868.7366"/>
<polygon fill="#de958e" stroke="#de958e" points="1505.4359,-871.9885 1515.8788,-873.7764 1508.8301,-865.8665 1505.4359,-871.9885"/>
</g>
<!-- schematics.exceptions&#45;&gt;hidebound.core.specification_base -->
<g id="edge102" class="edge">
<title>schematics.exceptions&#45;&gt;hidebound.core.specification_base</title>
<path fill="none" stroke="#de958e" d="M635.7469,-1001.8598C748.9638,-1044.6104 1033.3489,-1151.9943 1155.6357,-1198.1698"/>
<polygon fill="#de958e" stroke="#de958e" points="1154.6158,-1201.5258 1165.2075,-1201.7841 1157.0886,-1194.9771 1154.6158,-1201.5258"/>
</g>
<!-- schematics.exceptions&#45;&gt;hidebound.core.tools -->
<g id="edge103" class="edge">
<title>schematics.exceptions&#45;&gt;hidebound.core.tools</title>
<path fill="none" stroke="#de958e" d="M683.1972,-967.9355C708.736,-963.6713 736.4386,-959.0458 762.2905,-954.7294"/>
<polygon fill="#de958e" stroke="#de958e" points="763.1912,-958.1275 772.4782,-953.0283 762.0383,-951.2231 763.1912,-958.1275"/>
</g>
<!-- schematics.exceptions&#45;&gt;hidebound.core.validators -->
<g id="edge104" class="edge">
<title>schematics.exceptions&#45;&gt;hidebound.core.validators</title>
<path fill="none" stroke="#de958e" d="M606.5041,-1002.2339C654.4381,-1049.9069 782.7356,-1177.5058 837.8075,-1232.2779"/>
<polygon fill="#de958e" stroke="#de958e" points="835.5179,-1234.9371 845.0764,-1239.5072 840.4542,-1229.9738 835.5179,-1234.9371"/>
</g>
<!-- schematics.exceptions&#45;&gt;hidebound.server.api -->
<g id="edge105" class="edge">
<title>schematics.exceptions&#45;&gt;hidebound.server.api</title>
<path fill="none" stroke="#de958e" d="M627.6827,-965.6955C647.2175,-954.7968 669.4292,-939.0851 683,-918.8305 725.7465,-855.0307 672.9304,-811.2737 719,-749.8305 817.4147,-618.5745 885.3912,-616.745 1044,-574.8305 1143.0701,-548.6499 1863.5921,-557.4262 1966,-553.8305 1980.922,-553.3066 1996.6889,-552.6587 2012.1438,-551.9704"/>
<polygon fill="#de958e" stroke="#de958e" points="2012.4115,-555.462 2022.2429,-551.5132 2012.0948,-548.4692 2012.4115,-555.462"/>
</g>
<!-- hidebound.core&#45;&gt;hidebound.core.config -->
<g id="edge106" class="edge">
<title>hidebound.core&#45;&gt;hidebound.core.config</title>
<path fill="none" stroke="#a0d17b" d="M405.3409,-1032.0417C423.2964,-1053.3561 456.2019,-1087.7765 493,-1103.8305 674.9786,-1183.2228 1221.1256,-1076.4742 1382,-1192.8305 1413.9211,-1215.9182 1390.8719,-1245.2636 1418,-1273.8305 1435.5731,-1292.3356 1459.5658,-1306.4362 1482.0314,-1316.6952"/>
<polygon fill="#a0d17b" stroke="#a0d17b" points="1480.6456,-1319.9092 1491.2095,-1320.7183 1483.4559,-1313.4981 1480.6456,-1319.9092"/>
</g>
<!-- hidebound.core&#45;&gt;hidebound.core.database -->
<g id="edge107" class="edge">
<title>hidebound.core&#45;&gt;hidebound.core.database</title>
<path fill="none" stroke="#a0d17b" d="M457.104,-1017.4004C702.9205,-1030.8779 1556.1774,-1079.5395 1674,-1111.8305 1720.3306,-1124.5281 1769.1732,-1150.5038 1801.3805,-1169.6308"/>
<polygon fill="#a0d17b" stroke="#a0d17b" points="1799.6356,-1172.6657 1810.0076,-1174.8273 1803.2474,-1166.6694 1799.6356,-1172.6657"/>
</g>
<!-- hidebound.core&#45;&gt;hidebound.core.database_tools -->
<g id="edge108" class="edge">
<title>hidebound.core&#45;&gt;hidebound.core.database_tools</title>
<path fill="none" stroke="#a0d17b" d="M393.8503,-995.7119C404.1247,-932.9668 441.3997,-726.7179 493,-688.8305 522.2347,-667.365 1224.7673,-630.2947 1382,-703.8305 1454.9205,-737.9345 1508.4032,-821.6148 1532.2354,-864.9076"/>
<polygon fill="#a0d17b" stroke="#a0d17b" points="1529.1746,-866.6057 1536.9986,-873.7496 1535.3373,-863.2858 1529.1746,-866.6057"/>
</g>
<!-- hidebound.core&#45;&gt;hidebound.core.logging -->
<g id="edge109" class="edge">
<title>hidebound.core&#45;&gt;hidebound.core.logging</title>
<path fill="none" stroke="#a0d17b" d="M394.0675,-995.429C405.2129,-930.6041 445.4169,-714.0932 493,-664.8305 748.1403,-400.6845 1241.7856,-453.256 1449.8328,-489.984"/>
<polygon fill="#a0d17b" stroke="#a0d17b" points="1449.3618,-493.4553 1459.8224,-491.7743 1450.5967,-486.565 1449.3618,-493.4553"/>
</g>
<!-- hidebound.core&#45;&gt;hidebound.core.parser -->
<g id="edge110" class="edge">
<title>hidebound.core&#45;&gt;hidebound.core.parser</title>
<path fill="none" stroke="#a0d17b" d="M397.311,-1031.9185C410.0538,-1065.8495 442.0581,-1139.2756 493,-1179.8305 497.34,-1183.2856 502.0721,-1186.3764 507.0313,-1189.1401"/>
<polygon fill="#a0d17b" stroke="#a0d17b" points="505.6652,-1192.3715 516.1675,-1193.7694 508.8292,-1186.1274 505.6652,-1192.3715"/>
</g>
<!-- hidebound.core&#45;&gt;hidebound.core.specification_base -->
<g id="edge111" class="edge">
<title>hidebound.core&#45;&gt;hidebound.core.specification_base</title>
<path fill="none" stroke="#a0d17b" d="M399.5571,-1032.0594C414.1844,-1060.9303 446.9417,-1116.4928 493,-1141.8305 541.2859,-1168.3937 861.146,-1195.1579 1057.9462,-1209.3883"/>
<polygon fill="#a0d17b" stroke="#a0d17b" points="1057.8723,-1212.892 1068.0978,-1210.1192 1058.375,-1205.9101 1057.8723,-1212.892"/>
</g>
<!-- hidebound.core&#45;&gt;hidebound.core.specifications -->
<g id="edge112" class="edge">
<title>hidebound.core&#45;&gt;hidebound.core.specifications</title>
<path fill="none" stroke="#a0d17b" d="M393.3967,-995.6877C400.1305,-952.8245 423.5031,-845.4063 493,-798.8305 575.0753,-743.8248 1303.6626,-758.6206 1382,-818.8305 1419.4524,-847.6163 1398.0404,-876.0178 1418,-918.8305 1451.8496,-991.437 1501.9482,-1071.5375 1528.3067,-1112.1065"/>
<polygon fill="#a0d17b" stroke="#a0d17b" points="1525.4637,-1114.1542 1533.8625,-1120.6126 1531.3243,-1110.3262 1525.4637,-1114.1542"/>
</g>
<!-- hidebound.core&#45;&gt;hidebound.core.tools -->
<g id="edge113" class="edge">
<title>hidebound.core&#45;&gt;hidebound.core.tools</title>
<path fill="none" stroke="#a0d17b" d="M415.9576,-995.5662C435.7653,-982.1764 464.7345,-964.9711 493,-956.8305 581.4042,-931.3698 686.4995,-928.406 762.1384,-930.7609"/>
<polygon fill="#a0d17b" stroke="#a0d17b" points="762.0286,-934.2591 772.1441,-931.1087 762.2718,-927.2633 762.0286,-934.2591"/>
</g>
<!-- hidebound.core&#45;&gt;hidebound.core.traits -->
<g id="edge114" class="edge">
<title>hidebound.core&#45;&gt;hidebound.core.traits</title>
<path fill="none" stroke="#a0d17b" d="M397.1452,-995.7317C409.4186,-962.7882 440.4013,-893.7668 493,-864.8305 700.028,-750.9378 993.7197,-794.8312 1133.334,-825.6282"/>
<polygon fill="#a0d17b" stroke="#a0d17b" points="1132.5933,-829.049 1143.1167,-827.8206 1134.1242,-822.2184 1132.5933,-829.049"/>
</g>
<!-- hidebound.core&#45;&gt;hidebound.core.validators -->
<g id="edge115" class="edge">
<title>hidebound.core&#45;&gt;hidebound.core.validators</title>
<path fill="none" stroke="#a0d17b" d="M393.0101,-1032.1362C398.9645,-1076.4928 420.8772,-1189.6784 493,-1238.8305 532.2444,-1265.5758 649.2236,-1267.8123 741.3544,-1264.9018"/>
<polygon fill="#a0d17b" stroke="#a0d17b" points="741.73,-1268.3912 751.6055,-1264.5538 741.4925,-1261.3952 741.73,-1268.3912"/>
</g>
<!-- OpenEXR -->
<g id="node49" class="node">
<title>OpenEXR</title>
<polygon fill="#343434" stroke="#343434" points="625,-909.8305 551,-909.8305 551,-873.8305 625,-873.8305 625,-909.8305"/>
<text text-anchor="middle" x="588" y="-888.1305" font-family="Courier,monospace" font-size="14.00" fill="#de958e">OpenEXR</text>
</g>
<!-- OpenEXR&#45;&gt;hidebound.core.tools -->
<g id="edge116" class="edge">
<title>OpenEXR&#45;&gt;hidebound.core.tools</title>
<path fill="none" stroke="#de958e" d="M625.1552,-898.0343C660.1896,-903.8839 714.3125,-912.9208 762.1336,-920.9054"/>
<polygon fill="#de958e" stroke="#de958e" points="761.7934,-924.397 772.2333,-922.5918 762.9463,-917.4926 761.7934,-924.397"/>
</g>
<!-- selenium.webdriver.chrome.options -->
<g id="node50" class="node">
<title>selenium.webdriver.chrome.options</title>
<polygon fill="#343434" stroke="#343434" points="289,-1085.8305 0,-1085.8305 0,-1049.8305 289,-1049.8305 289,-1085.8305"/>
<text text-anchor="middle" x="144.5" y="-1064.1305" font-family="Courier,monospace" font-size="14.00" fill="#de958e">selenium.webdriver.chrome.options</text>
</g>
<!-- skimage.io -->
<g id="node51" class="node">
<title>skimage.io</title>
<polygon fill="#343434" stroke="#343434" points="913,-901.8305 814,-901.8305 814,-865.8305 913,-865.8305 913,-901.8305"/>
<text text-anchor="middle" x="863.5" y="-880.1305" font-family="Courier,monospace" font-size="14.00" fill="#de958e">skimage.io</text>
</g>
<!-- skimage.io&#45;&gt;hidebound.core.traits -->
<g id="edge117" class="edge">
<title>skimage.io&#45;&gt;hidebound.core.traits</title>
<path fill="none" stroke="#de958e" d="M913.2037,-878.4264C963.5607,-872.9512 1043.0103,-864.3129 1107.471,-857.3043"/>
<polygon fill="#de958e" stroke="#de958e" points="1108.1181,-860.7547 1117.6812,-856.1942 1107.3614,-853.7957 1108.1181,-860.7547"/>
</g>
</g>
</svg>
