<?xml version="1.0" encoding="UTF-8" standalone="no"?>
<!DOCTYPE svg PUBLIC "-//W3C//DTD SVG 1.1//EN"
 "http://www.w3.org/Graphics/SVG/1.1/DTD/svg11.dtd">
<!-- Generated by graphviz version 2.40.1 (20161225.0304)
 -->
<!-- Title: %3 Pages: 1 -->
<svg width="2195pt" height="1298pt"
 viewBox="0.00 0.00 2195.00 1297.91" xmlns="http://www.w3.org/2000/svg" xmlns:xlink="http://www.w3.org/1999/xlink">
<g id="graph0" class="graph" transform="scale(1 1) rotate(0) translate(4 1293.9078)">
<title>%3</title>
<polygon fill="#242424" stroke="transparent" points="-4,4 -4,-1293.9078 2191,-1293.9078 2191,4 -4,4"/>
<!-- cli -->
<g id="node1" class="node">
<title>cli</title>
<polygon fill="#343434" stroke="#343434" points="72.5,-860.9078 18.5,-860.9078 18.5,-824.9078 72.5,-824.9078 72.5,-860.9078"/>
<text text-anchor="middle" x="45.5" y="-839.2078" font-family="Courier,monospace" font-size="14.00" fill="#b6ecf3">cli</text>
</g>
<!-- hidebound.core.config -->
<g id="node2" class="node">
<title>hidebound.core.config</title>
<polygon fill="#343434" stroke="#343434" points="1348.5,-598.9078 1158.5,-598.9078 1158.5,-562.9078 1348.5,-562.9078 1348.5,-598.9078"/>
<text text-anchor="middle" x="1253.5" y="-577.2078" font-family="Courier,monospace" font-size="14.00" fill="#b6ecf3">hidebound.core.config</text>
</g>
<!-- hidebound.core.database -->
<g id="node3" class="node">
<title>hidebound.core.database</title>
<polygon fill="#343434" stroke="#343434" points="1669,-949.9078 1463,-949.9078 1463,-913.9078 1669,-913.9078 1669,-949.9078"/>
<text text-anchor="middle" x="1566" y="-928.2078" font-family="Courier,monospace" font-size="14.00" fill="#b6ecf3">hidebound.core.database</text>
</g>
<!-- hidebound.core.config&#45;&gt;hidebound.core.database -->
<g id="edge1" class="edge">
<title>hidebound.core.config&#45;&gt;hidebound.core.database</title>
<path fill="none" stroke="#b6ecf3" d="M1269.8614,-599.2849C1321.7532,-657.5698 1482.7656,-838.4189 1542.9722,-906.0429"/>
<polygon fill="#b6ecf3" stroke="#b6ecf3" points="1540.5369,-908.5711 1549.8006,-913.7126 1545.7651,-903.9164 1540.5369,-908.5711"/>
</g>
<!-- hidebound.server.api -->
<g id="node13" class="node">
<title>hidebound.server.api</title>
<polygon fill="#343434" stroke="#343434" points="1940.5,-949.9078 1758.5,-949.9078 1758.5,-913.9078 1940.5,-913.9078 1940.5,-949.9078"/>
<text text-anchor="middle" x="1849.5" y="-928.2078" font-family="Courier,monospace" font-size="14.00" fill="#b6ecf3">hidebound.server.api</text>
</g>
<!-- hidebound.core.database&#45;&gt;hidebound.server.api -->
<g id="edge2" class="edge">
<title>hidebound.core.database&#45;&gt;hidebound.server.api</title>
<path fill="none" stroke="#b6ecf3" d="M1669.152,-931.9078C1694.869,-931.9078 1722.4209,-931.9078 1748.0548,-931.9078"/>
<polygon fill="#b6ecf3" stroke="#b6ecf3" points="1748.1528,-935.4079 1758.1528,-931.9078 1748.1527,-928.4079 1748.1528,-935.4079"/>
</g>
<!-- hidebound.core.database_test_base -->
<g id="node4" class="node">
<title>hidebound.core.database_test_base</title>
<polygon fill="#343434" stroke="#343434" points="1398,-468.9078 1109,-468.9078 1109,-432.9078 1398,-432.9078 1398,-468.9078"/>
<text text-anchor="middle" x="1253.5" y="-447.2078" font-family="Courier,monospace" font-size="14.00" fill="#b6ecf3">hidebound.core.database_test_base</text>
</g>
<!-- hidebound.core.database_tools -->
<g id="node5" class="node">
<title>hidebound.core.database_tools</title>
<polygon fill="#343434" stroke="#343434" points="1052.5,-933.9078 796.5,-933.9078 796.5,-897.9078 1052.5,-897.9078 1052.5,-933.9078"/>
<text text-anchor="middle" x="924.5" y="-912.2078" font-family="Courier,monospace" font-size="14.00" fill="#b6ecf3">hidebound.core.database_tools</text>
</g>
<!-- hidebound.core.database_tools&#45;&gt;hidebound.core.database -->
<g id="edge3" class="edge">
<title>hidebound.core.database_tools&#45;&gt;hidebound.core.database</title>
<path fill="none" stroke="#b6ecf3" d="M1026.8172,-933.91C1052.2762,-937.644 1079.5635,-941.0158 1105,-942.9078 1236.6364,-952.6987 1270.074,-947.3271 1402,-942.9078 1418.2966,-942.3618 1435.4888,-941.5116 1452.365,-940.5201"/>
<polygon fill="#b6ecf3" stroke="#b6ecf3" points="1453.0513,-943.985 1462.821,-939.8859 1452.6275,-936.9978 1453.0513,-943.985"/>
</g>
<!-- hidebound.core.parser -->
<g id="node6" class="node">
<title>hidebound.core.parser</title>
<polygon fill="#343434" stroke="#343434" points="485,-460.9078 295,-460.9078 295,-424.9078 485,-424.9078 485,-460.9078"/>
<text text-anchor="middle" x="390" y="-439.2078" font-family="Courier,monospace" font-size="14.00" fill="#b6ecf3">hidebound.core.parser</text>
</g>
<!-- hidebound.core.parser&#45;&gt;hidebound.core.database_tools -->
<g id="edge4" class="edge">
<title>hidebound.core.parser&#45;&gt;hidebound.core.database_tools</title>
<path fill="none" stroke="#b6ecf3" d="M397.4257,-461.1198C413.9729,-501.9466 454.7937,-604.0267 485,-690.9078 502.5877,-741.4945 480.2857,-771.1128 521,-805.9078 597.1654,-870.9997 657.1269,-788.996 744,-838.9078 766.2081,-851.6671 758.2589,-870.368 780,-883.9078 786.1479,-887.7365 792.6938,-891.1101 799.4756,-894.0823"/>
<polygon fill="#b6ecf3" stroke="#b6ecf3" points="798.2723,-897.3712 808.8543,-897.8915 800.9065,-890.8857 798.2723,-897.3712"/>
</g>
<!-- hidebound.core.specification_base -->
<g id="node7" class="node">
<title>hidebound.core.specification_base</title>
<polygon fill="#343434" stroke="#343434" points="1069,-514.9078 780,-514.9078 780,-478.9078 1069,-478.9078 1069,-514.9078"/>
<text text-anchor="middle" x="924.5" y="-493.2078" font-family="Courier,monospace" font-size="14.00" fill="#b6ecf3">hidebound.core.specification_base</text>
</g>
<!-- hidebound.core.parser&#45;&gt;hidebound.core.specification_base -->
<g id="edge5" class="edge">
<title>hidebound.core.parser&#45;&gt;hidebound.core.specification_base</title>
<path fill="none" stroke="#b6ecf3" d="M485.1114,-450.697C556.4249,-456.7336 656.4023,-465.6125 744,-474.9078 752.3484,-475.7936 760.9102,-476.7329 769.5509,-477.7048"/>
<polygon fill="#b6ecf3" stroke="#b6ecf3" points="769.3916,-481.2091 779.7226,-478.8596 770.1813,-474.2538 769.3916,-481.2091"/>
</g>
<!-- hidebound.core.validators -->
<g id="node12" class="node">
<title>hidebound.core.validators</title>
<polygon fill="#343434" stroke="#343434" points="744,-368.9078 521,-368.9078 521,-332.9078 744,-332.9078 744,-368.9078"/>
<text text-anchor="middle" x="632.5" y="-347.2078" font-family="Courier,monospace" font-size="14.00" fill="#b6ecf3">hidebound.core.validators</text>
</g>
<!-- hidebound.core.parser&#45;&gt;hidebound.core.validators -->
<g id="edge6" class="edge">
<title>hidebound.core.parser&#45;&gt;hidebound.core.validators</title>
<path fill="none" stroke="#b6ecf3" d="M455.4771,-424.8889C465.6799,-420.9485 475.8587,-416.306 485,-410.9078 503.6896,-399.871 501.8465,-388.1182 521,-377.9078 524.4602,-376.0632 528.0477,-374.3426 531.7223,-372.7379"/>
<polygon fill="#b6ecf3" stroke="#b6ecf3" points="533.0532,-375.9751 541.0133,-368.9831 530.4303,-369.4851 533.0532,-375.9751"/>
</g>
<!-- hidebound.core.specification_base&#45;&gt;hidebound.core.config -->
<g id="edge7" class="edge">
<title>hidebound.core.specification_base&#45;&gt;hidebound.core.config</title>
<path fill="none" stroke="#b6ecf3" d="M1009.8846,-514.9735C1029.3635,-519.3287 1049.937,-524.1147 1069,-528.9078 1106.7468,-538.3985 1148.5122,-550.0708 1182.746,-559.9504"/>
<polygon fill="#b6ecf3" stroke="#b6ecf3" points="1182.0737,-563.3994 1192.6526,-562.8198 1184.0212,-556.6758 1182.0737,-563.3994"/>
</g>
<!-- hidebound.core.specification_base&#45;&gt;hidebound.core.database -->
<g id="edge8" class="edge">
<title>hidebound.core.specification_base&#45;&gt;hidebound.core.database</title>
<path fill="none" stroke="#b6ecf3" d="M1069.1013,-495.6559C1191.9503,-497.8195 1355.5461,-509.3949 1402,-553.9078 1473.8542,-622.7597 1397.1726,-684.1514 1438,-774.9078 1461.8397,-827.9016 1508.2298,-877.8925 1538.1286,-906.6796"/>
<polygon fill="#b6ecf3" stroke="#b6ecf3" points="1536.0555,-909.537 1545.7211,-913.876 1540.871,-904.4565 1536.0555,-909.537"/>
</g>
<!-- hidebound.core.specification_base&#45;&gt;hidebound.core.database_test_base -->
<g id="edge9" class="edge">
<title>hidebound.core.specification_base&#45;&gt;hidebound.core.database_test_base</title>
<path fill="none" stroke="#b6ecf3" d="M1053.5852,-478.8594C1073.5286,-476.0709 1094.2011,-473.1806 1114.3534,-470.3629"/>
<polygon fill="#b6ecf3" stroke="#b6ecf3" points="1115.0981,-473.7929 1124.5171,-468.9419 1114.1287,-466.8604 1115.0981,-473.7929"/>
</g>
<!-- hidebound.core.specifications -->
<g id="node8" class="node">
<title>hidebound.core.specifications</title>
<polygon fill="#343434" stroke="#343434" points="1381.5,-148.9078 1125.5,-148.9078 1125.5,-112.9078 1381.5,-112.9078 1381.5,-148.9078"/>
<text text-anchor="middle" x="1253.5" y="-127.2078" font-family="Courier,monospace" font-size="14.00" fill="#b6ecf3">hidebound.core.specifications</text>
</g>
<!-- hidebound.core.specification_base&#45;&gt;hidebound.core.specifications -->
<g id="edge10" class="edge">
<title>hidebound.core.specification_base&#45;&gt;hidebound.core.specifications</title>
<path fill="none" stroke="#b6ecf3" d="M933.9532,-478.6745C958.0082,-433.4481 1025.3138,-313.9885 1105,-233.9078 1136.9263,-201.8234 1180.0267,-173.1915 1211.5696,-154.3094"/>
<polygon fill="#b6ecf3" stroke="#b6ecf3" points="1213.7178,-157.1057 1220.5508,-149.0088 1210.1599,-151.0773 1213.7178,-157.1057"/>
</g>
<!-- hidebound.core.test_specifications -->
<g id="node9" class="node">
<title>hidebound.core.test_specifications</title>
<polygon fill="#343434" stroke="#343434" points="1402,-278.9078 1105,-278.9078 1105,-242.9078 1402,-242.9078 1402,-278.9078"/>
<text text-anchor="middle" x="1253.5" y="-257.2078" font-family="Courier,monospace" font-size="14.00" fill="#b6ecf3">hidebound.core.test_specifications</text>
</g>
<!-- hidebound.core.specification_base&#45;&gt;hidebound.core.test_specifications -->
<g id="edge11" class="edge">
<title>hidebound.core.specification_base&#45;&gt;hidebound.core.test_specifications</title>
<path fill="none" stroke="#b6ecf3" d="M949.7698,-478.7811C1008.3787,-436.7395 1153.6003,-332.5683 1219.7301,-285.1317"/>
<polygon fill="#b6ecf3" stroke="#b6ecf3" points="1222.0585,-287.7689 1228.1441,-279.0962 1217.9784,-282.081 1222.0585,-287.7689"/>
</g>
<!-- hidebound.core.tools -->
<g id="node10" class="node">
<title>hidebound.core.tools</title>
<polygon fill="#343434" stroke="#343434" points="723.5,-1078.9078 541.5,-1078.9078 541.5,-1042.9078 723.5,-1042.9078 723.5,-1078.9078"/>
<text text-anchor="middle" x="632.5" y="-1057.2078" font-family="Courier,monospace" font-size="14.00" fill="#b6ecf3">hidebound.core.tools</text>
</g>
<!-- hidebound.core.tools&#45;&gt;hidebound.core.database -->
<g id="edge12" class="edge">
<title>hidebound.core.tools&#45;&gt;hidebound.core.database</title>
<path fill="none" stroke="#b6ecf3" d="M723.6424,-1060.5625C914.903,-1059.1579 1345.2264,-1052.1792 1402,-1017.9078 1428.6237,-1001.8364 1412.6066,-975.8601 1438,-957.9078 1442.8634,-954.4695 1448.0762,-951.4631 1453.5156,-948.8361"/>
<polygon fill="#b6ecf3" stroke="#b6ecf3" points="1455.0922,-951.967 1462.8619,-944.764 1452.2962,-945.5496 1455.0922,-951.967"/>
</g>
<!-- hidebound.core.tools&#45;&gt;hidebound.core.database_tools -->
<g id="edge13" class="edge">
<title>hidebound.core.tools&#45;&gt;hidebound.core.database_tools</title>
<path fill="none" stroke="#b6ecf3" d="M668.8916,-1042.8366C722.0406,-1016.4441 820.8585,-967.3736 878.8235,-938.5896"/>
<polygon fill="#b6ecf3" stroke="#b6ecf3" points="880.7097,-941.5608 888.1095,-933.9784 877.5964,-935.2912 880.7097,-941.5608"/>
</g>
<!-- hidebound.core.tools&#45;&gt;hidebound.core.specification_base -->
<g id="edge14" class="edge">
<title>hidebound.core.tools&#45;&gt;hidebound.core.specification_base</title>
<path fill="none" stroke="#b6ecf3" d="M641.8846,-1042.7813C684.4442,-960.5773 859.4465,-622.559 910.4745,-523.9981"/>
<polygon fill="#b6ecf3" stroke="#b6ecf3" points="913.6607,-525.4565 915.1502,-514.9669 907.4444,-522.2381 913.6607,-525.4565"/>
</g>
<!-- hidebound.server.server_tools -->
<g id="node16" class="node">
<title>hidebound.server.server_tools</title>
<polygon fill="#343434" stroke="#343434" points="1694,-1155.9078 1438,-1155.9078 1438,-1119.9078 1694,-1119.9078 1694,-1155.9078"/>
<text text-anchor="middle" x="1566" y="-1134.2078" font-family="Courier,monospace" font-size="14.00" fill="#b6ecf3">hidebound.server.server_tools</text>
</g>
<!-- hidebound.core.tools&#45;&gt;hidebound.server.server_tools -->
<g id="edge15" class="edge">
<title>hidebound.core.tools&#45;&gt;hidebound.server.server_tools</title>
<path fill="none" stroke="#b6ecf3" d="M702.7226,-1078.9788C794.4684,-1101.5704 960.4648,-1138.9675 1105,-1152.9078 1236.3903,-1165.5802 1270.1372,-1158.9255 1402,-1152.9078 1410.314,-1152.5283 1418.8578,-1152.0413 1427.4715,-1151.4759"/>
<polygon fill="#b6ecf3" stroke="#b6ecf3" points="1427.8699,-1154.9569 1437.6058,-1150.7781 1427.3889,-1147.9734 1427.8699,-1154.9569"/>
</g>
<!-- hidebound.core.traits -->
<g id="node11" class="node">
<title>hidebound.core.traits</title>
<polygon fill="#343434" stroke="#343434" points="1019.5,-232.9078 829.5,-232.9078 829.5,-196.9078 1019.5,-196.9078 1019.5,-232.9078"/>
<text text-anchor="middle" x="924.5" y="-211.2078" font-family="Courier,monospace" font-size="14.00" fill="#b6ecf3">hidebound.core.traits</text>
</g>
<!-- hidebound.core.traits&#45;&gt;hidebound.core.database_test_base -->
<g id="edge16" class="edge">
<title>hidebound.core.traits&#45;&gt;hidebound.core.database_test_base</title>
<path fill="none" stroke="#b6ecf3" d="M949.7698,-233.0344C1008.3787,-275.0761 1153.6003,-379.2472 1219.7301,-426.6838"/>
<polygon fill="#b6ecf3" stroke="#b6ecf3" points="1217.9784,-429.7346 1228.1441,-432.7193 1222.0585,-424.0466 1217.9784,-429.7346"/>
</g>
<!-- hidebound.core.traits&#45;&gt;hidebound.core.specifications -->
<g id="edge17" class="edge">
<title>hidebound.core.traits&#45;&gt;hidebound.core.specifications</title>
<path fill="none" stroke="#b6ecf3" d="M995.0788,-196.8877C1047.2476,-183.5679 1118.3693,-165.4092 1172.7949,-151.5133"/>
<polygon fill="#b6ecf3" stroke="#b6ecf3" points="1173.9314,-154.8355 1182.7547,-148.9704 1172.1997,-148.0531 1173.9314,-154.8355"/>
</g>
<!-- hidebound.core.traits&#45;&gt;hidebound.core.test_specifications -->
<g id="edge18" class="edge">
<title>hidebound.core.traits&#45;&gt;hidebound.core.test_specifications</title>
<path fill="none" stroke="#b6ecf3" d="M1019.6604,-228.2129C1049.2002,-232.343 1082.3913,-236.9837 1114.2835,-241.4428"/>
<polygon fill="#b6ecf3" stroke="#b6ecf3" points="1114.1978,-244.9648 1124.5862,-242.8833 1115.1672,-238.0323 1114.1978,-244.9648"/>
</g>
<!-- hidebound.core.validators&#45;&gt;hidebound.core.config -->
<g id="edge19" class="edge">
<title>hidebound.core.validators&#45;&gt;hidebound.core.config</title>
<path fill="none" stroke="#b6ecf3" d="M715.258,-368.9462C725.0325,-371.6645 734.7973,-374.6588 744,-377.9078 760.685,-383.7982 763.3637,-388.8812 780,-394.9078 904.7653,-440.1041 946.6607,-418.5056 1069,-469.9078 1125.075,-493.4683 1184.4019,-531.9203 1220.194,-556.8162"/>
<polygon fill="#b6ecf3" stroke="#b6ecf3" points="1218.5746,-559.9556 1228.7704,-562.8363 1222.5964,-554.2262 1218.5746,-559.9556"/>
</g>
<!-- hidebound.core.validators&#45;&gt;hidebound.core.database_test_base -->
<g id="edge20" class="edge">
<title>hidebound.core.validators&#45;&gt;hidebound.core.database_test_base</title>
<path fill="none" stroke="#b6ecf3" d="M744.0431,-358.0711C832.6969,-364.9878 959.5532,-377.6181 1069,-398.9078 1109.3104,-406.749 1153.6278,-419.113 1188.7232,-429.8177"/>
<polygon fill="#b6ecf3" stroke="#b6ecf3" points="1187.7791,-433.1891 1198.3664,-432.7878 1189.8397,-426.4992 1187.7791,-433.1891"/>
</g>
<!-- hidebound.core.validators&#45;&gt;hidebound.core.specification_base -->
<g id="edge21" class="edge">
<title>hidebound.core.validators&#45;&gt;hidebound.core.specification_base</title>
<path fill="none" stroke="#b6ecf3" d="M727.8586,-369.0131C733.509,-371.5938 738.9434,-374.5413 744,-377.9078 766.4944,-392.8835 759.2296,-409.6202 780,-426.9078 804.436,-447.2463 835.78,-463.3565 863.0264,-474.9691"/>
<polygon fill="#b6ecf3" stroke="#b6ecf3" points="861.897,-478.2897 872.4749,-478.8885 864.5792,-471.8239 861.897,-478.2897"/>
</g>
<!-- hidebound.core.validators&#45;&gt;hidebound.core.specifications -->
<g id="edge22" class="edge">
<title>hidebound.core.validators&#45;&gt;hidebound.core.specifications</title>
<path fill="none" stroke="#b6ecf3" d="M676.7311,-332.9039C700.1518,-321.1688 727.4215,-303.599 744,-279.9078 786.536,-219.1222 722.1587,-163.3682 780,-116.9078 833.4776,-73.9524 1018.3049,-92.921 1140.6001,-111.3521"/>
<polygon fill="#b6ecf3" stroke="#b6ecf3" points="1140.3478,-114.8541 1150.7616,-112.9039 1141.4046,-107.9343 1140.3478,-114.8541"/>
</g>
<!-- hidebound.core.validators&#45;&gt;hidebound.core.test_specifications -->
<g id="edge23" class="edge">
<title>hidebound.core.validators&#45;&gt;hidebound.core.test_specifications</title>
<path fill="none" stroke="#b6ecf3" d="M663.7985,-332.7827C692.8558,-316.973 737.8544,-295.0292 780,-284.9078 882.8971,-260.1966 1001.8657,-254.2527 1094.8112,-254.4583"/>
<polygon fill="#b6ecf3" stroke="#b6ecf3" points="1094.8495,-257.9584 1104.8656,-254.5047 1094.8819,-250.9585 1094.8495,-257.9584"/>
</g>
<!-- hidebound.server.app -->
<g id="node14" class="node">
<title>hidebound.server.app</title>
<polygon fill="#343434" stroke="#343434" points="2187,-903.9078 2005,-903.9078 2005,-867.9078 2187,-867.9078 2187,-903.9078"/>
<text text-anchor="middle" x="2096" y="-882.2078" font-family="Courier,monospace" font-size="14.00" fill="#b6ecf3">hidebound.server.app</text>
</g>
<!-- hidebound.server.api&#45;&gt;hidebound.server.app -->
<g id="edge24" class="edge">
<title>hidebound.server.api&#45;&gt;hidebound.server.app</title>
<path fill="none" stroke="#b6ecf3" d="M1940.5872,-914.9098C1958.2918,-911.6058 1976.9485,-908.1243 1994.9516,-904.7647"/>
<polygon fill="#b6ecf3" stroke="#b6ecf3" points="1995.6877,-908.1878 2004.8759,-902.9127 1994.4035,-901.3066 1995.6877,-908.1878"/>
</g>
<!-- hidebound.server.components -->
<g id="node15" class="node">
<title>hidebound.server.components</title>
<polygon fill="#343434" stroke="#343434" points="1969,-657.9078 1730,-657.9078 1730,-621.9078 1969,-621.9078 1969,-657.9078"/>
<text text-anchor="middle" x="1849.5" y="-636.2078" font-family="Courier,monospace" font-size="14.00" fill="#b6ecf3">hidebound.server.components</text>
</g>
<!-- hidebound.server.components&#45;&gt;hidebound.server.app -->
<g id="edge25" class="edge">
<title>hidebound.server.components&#45;&gt;hidebound.server.app</title>
<path fill="none" stroke="#b6ecf3" d="M1904.9507,-657.9702C1926.5079,-666.8073 1950.4308,-679.022 1969,-694.9078 2023.79,-741.7802 2064.6092,-817.9002 2083.8104,-858.4443"/>
<polygon fill="#b6ecf3" stroke="#b6ecf3" points="2080.7278,-860.1163 2088.1148,-867.7113 2087.0764,-857.1674 2080.7278,-860.1163"/>
</g>
<!-- hidebound.server.server_tools&#45;&gt;hidebound.server.api -->
<g id="edge26" class="edge">
<title>hidebound.server.server_tools&#45;&gt;hidebound.server.api</title>
<path fill="none" stroke="#b6ecf3" d="M1591.1587,-1119.6266C1642.3308,-1082.4434 1758.5458,-997.9979 1816.0265,-956.2307"/>
<polygon fill="#b6ecf3" stroke="#b6ecf3" points="1818.3652,-958.8577 1824.3976,-950.1479 1814.2504,-953.1948 1818.3652,-958.8577"/>
</g>
<!-- hidebound.server.server_tools&#45;&gt;hidebound.server.app -->
<g id="edge27" class="edge">
<title>hidebound.server.server_tools&#45;&gt;hidebound.server.app</title>
<path fill="none" stroke="#b6ecf3" d="M1694.3503,-1148.2862C1778.5775,-1148.953 1887.7577,-1137.6019 1969,-1085.9078 2033.3882,-1044.9378 2071.1564,-958.2925 2087.0679,-913.7046"/>
<polygon fill="#b6ecf3" stroke="#b6ecf3" points="2090.4315,-914.6869 2090.3905,-904.0921 2083.8156,-912.4 2090.4315,-914.6869"/>
</g>
<!-- dash -->
<g id="node17" class="node">
<title>dash</title>
<polygon fill="#343434" stroke="#343434" points="1593,-711.9078 1539,-711.9078 1539,-675.9078 1593,-675.9078 1593,-711.9078"/>
<text text-anchor="middle" x="1566" y="-690.2078" font-family="Courier,monospace" font-size="14.00" fill="#de958e">dash</text>
</g>
<!-- dash&#45;&gt;hidebound.server.app -->
<g id="edge28" class="edge">
<title>dash&#45;&gt;hidebound.server.app</title>
<path fill="none" stroke="#de958e" d="M1593.1948,-692.7171C1660.7973,-690.8938 1840.2769,-693.0902 1969,-758.9078 2015.494,-782.6807 2055.5066,-829.6993 2077.6208,-859.3766"/>
<polygon fill="#de958e" stroke="#de958e" points="2074.9136,-861.6043 2083.6355,-867.6192 2080.5682,-857.4781 2074.9136,-861.6043"/>
</g>
<!-- dash&#45;&gt;hidebound.server.components -->
<g id="edge29" class="edge">
<title>dash&#45;&gt;hidebound.server.components</title>
<path fill="none" stroke="#de958e" d="M1593.1832,-688.73C1627.9531,-682.1072 1690.1919,-670.2522 1744.6309,-659.8828"/>
<polygon fill="#de958e" stroke="#de958e" points="1745.5283,-663.2749 1754.6968,-657.9655 1744.2184,-656.3985 1745.5283,-663.2749"/>
</g>
<!-- dash_ace_editor -->
<g id="node18" class="node">
<title>dash_ace_editor</title>
<polygon fill="#343434" stroke="#343434" points="1636,-495.9078 1496,-495.9078 1496,-459.9078 1636,-459.9078 1636,-495.9078"/>
<text text-anchor="middle" x="1566" y="-474.2078" font-family="Courier,monospace" font-size="14.00" fill="#de958e">dash_ace_editor</text>
</g>
<!-- dash_ace_editor&#45;&gt;hidebound.server.components -->
<g id="edge30" class="edge">
<title>dash_ace_editor&#45;&gt;hidebound.server.components</title>
<path fill="none" stroke="#de958e" d="M1636.2345,-486.1021C1655.6221,-490.1065 1676.2059,-496.0602 1694,-504.9078 1748.6583,-532.0848 1799.5789,-583.0628 1827.4335,-614.0038"/>
<polygon fill="#de958e" stroke="#de958e" points="1825.0815,-616.6268 1834.3346,-621.7873 1830.3193,-611.9828 1825.0815,-616.6268"/>
</g>
<!-- dash_core_components -->
<g id="node19" class="node">
<title>dash_core_components</title>
<polygon fill="#343434" stroke="#343434" points="1657,-657.9078 1475,-657.9078 1475,-621.9078 1657,-621.9078 1657,-657.9078"/>
<text text-anchor="middle" x="1566" y="-636.2078" font-family="Courier,monospace" font-size="14.00" fill="#de958e">dash_core_components</text>
</g>
<!-- dash_core_components&#45;&gt;hidebound.server.components -->
<g id="edge31" class="edge">
<title>dash_core_components&#45;&gt;hidebound.server.components</title>
<path fill="none" stroke="#de958e" d="M1657.2617,-639.9078C1677.2441,-639.9078 1698.7663,-639.9078 1719.924,-639.9078"/>
<polygon fill="#de958e" stroke="#de958e" points="1719.9414,-643.4079 1729.9413,-639.9078 1719.9413,-636.4079 1719.9414,-643.4079"/>
</g>
<!-- hidebound.server -->
<g id="node20" class="node">
<title>hidebound.server</title>
<polygon fill="#343434" stroke="#343434" points="1328,-1289.9078 1179,-1289.9078 1179,-1253.9078 1328,-1253.9078 1328,-1289.9078"/>
<text text-anchor="middle" x="1253.5" y="-1268.2078" font-family="Courier,monospace" font-size="14.00" fill="#a0d17b">hidebound.server</text>
</g>
<!-- hidebound.server&#45;&gt;hidebound.server.api -->
<g id="edge32" class="edge">
<title>hidebound.server&#45;&gt;hidebound.server.api</title>
<path fill="none" stroke="#a0d17b" d="M1328.1185,-1263.9554C1445.8366,-1250.8812 1664.3892,-1224.266 1694,-1203.9078 1781.7684,-1143.5645 1826.2469,-1016.397 1842.31,-959.9364"/>
<polygon fill="#a0d17b" stroke="#a0d17b" points="1845.697,-960.8196 1844.9826,-950.2489 1838.9491,-958.9579 1845.697,-960.8196"/>
</g>
<!-- hidebound.server&#45;&gt;hidebound.server.app -->
<g id="edge33" class="edge">
<title>hidebound.server&#45;&gt;hidebound.server.app</title>
<path fill="none" stroke="#a0d17b" d="M1328.1782,-1280.1066C1471.637,-1291.4748 1787.5859,-1294.647 1969,-1129.9078 2036.3329,-1068.7638 2073.7712,-963.5495 2088.5286,-913.6793"/>
<polygon fill="#a0d17b" stroke="#a0d17b" points="2091.9369,-914.4911 2091.336,-903.9134 2085.2094,-912.5571 2091.9369,-914.4911"/>
</g>
<!-- hidebound.server&#45;&gt;hidebound.server.components -->
<g id="edge34" class="edge">
<title>hidebound.server&#45;&gt;hidebound.server.components</title>
<path fill="none" stroke="#a0d17b" d="M1328.2167,-1268.1464C1352.9271,-1264.4077 1379.7656,-1257.4925 1402,-1244.9078 1423.1038,-1232.9629 1416.7271,-1215.5488 1438,-1203.9078 1538.9621,-1148.6586 1615.2114,-1248.8016 1694,-1164.9078 1756.0066,-1098.8833 1691.5867,-840.935 1730,-758.9078 1748.5111,-719.3793 1785.9872,-685.5338 1814.0628,-664.1572"/>
<polygon fill="#a0d17b" stroke="#a0d17b" points="1816.5032,-666.7043 1822.4427,-657.9309 1812.3284,-661.0855 1816.5032,-666.7043"/>
</g>
<!-- hidebound.server&#45;&gt;hidebound.server.server_tools -->
<g id="edge35" class="edge">
<title>hidebound.server&#45;&gt;hidebound.server.server_tools</title>
<path fill="none" stroke="#a0d17b" d="M1328.2213,-1271.3617C1353.6277,-1267.9683 1380.9021,-1260.4488 1402,-1244.9078 1429.8496,-1224.3933 1411.3063,-1197.9053 1438,-1175.9078 1445.5806,-1169.6608 1454.1586,-1164.4408 1463.1963,-1160.0789"/>
<polygon fill="#a0d17b" stroke="#a0d17b" points="1464.6547,-1163.2609 1472.3673,-1155.9967 1461.8081,-1156.8658 1464.6547,-1163.2609"/>
</g>
<!-- dash_html_components -->
<g id="node21" class="node">
<title>dash_html_components</title>
<polygon fill="#343434" stroke="#343434" points="1657,-603.9078 1475,-603.9078 1475,-567.9078 1657,-567.9078 1657,-603.9078"/>
<text text-anchor="middle" x="1566" y="-582.2078" font-family="Courier,monospace" font-size="14.00" fill="#de958e">dash_html_components</text>
</g>
<!-- dash_html_components&#45;&gt;hidebound.server.components -->
<g id="edge36" class="edge">
<title>dash_html_components&#45;&gt;hidebound.server.components</title>
<path fill="none" stroke="#de958e" d="M1657.2617,-603.2909C1685.2072,-608.6139 1716.1642,-614.5105 1744.9244,-619.9886"/>
<polygon fill="#de958e" stroke="#de958e" points="1744.5187,-623.4742 1754.997,-621.9072 1745.8286,-616.5978 1744.5187,-623.4742"/>
</g>
<!-- dash_table -->
<g id="node22" class="node">
<title>dash_table</title>
<polygon fill="#343434" stroke="#343434" points="1615.5,-549.9078 1516.5,-549.9078 1516.5,-513.9078 1615.5,-513.9078 1615.5,-549.9078"/>
<text text-anchor="middle" x="1566" y="-528.2078" font-family="Courier,monospace" font-size="14.00" fill="#de958e">dash_table</text>
</g>
<!-- dash_table&#45;&gt;hidebound.server.components -->
<g id="edge37" class="edge">
<title>dash_table&#45;&gt;hidebound.server.components</title>
<path fill="none" stroke="#de958e" d="M1615.7981,-539.1611C1639.8522,-543.48 1668.8783,-549.9064 1694,-558.9078 1736.2513,-574.0468 1781.4163,-598.6169 1812.1228,-616.7322"/>
<polygon fill="#de958e" stroke="#de958e" points="1810.3953,-619.7771 1820.7767,-621.8929 1813.9806,-613.765 1810.3953,-619.7771"/>
</g>
<!-- dash.dependencies -->
<g id="node23" class="node">
<title>dash.dependencies</title>
<polygon fill="#343434" stroke="#343434" points="1928,-857.9078 1771,-857.9078 1771,-821.9078 1928,-821.9078 1928,-857.9078"/>
<text text-anchor="middle" x="1849.5" y="-836.2078" font-family="Courier,monospace" font-size="14.00" fill="#de958e">dash.dependencies</text>
</g>
<!-- dash.dependencies&#45;&gt;hidebound.server.app -->
<g id="edge38" class="edge">
<title>dash.dependencies&#45;&gt;hidebound.server.app</title>
<path fill="none" stroke="#de958e" d="M1928.1719,-854.5889C1949.3099,-858.5336 1972.4698,-862.8555 1994.6517,-866.9949"/>
<polygon fill="#de958e" stroke="#de958e" points="1994.2914,-870.488 2004.7638,-868.8819 1995.5756,-863.6068 1994.2914,-870.488"/>
</g>
<!-- dash.exceptions -->
<g id="node24" class="node">
<title>dash.exceptions</title>
<polygon fill="#343434" stroke="#343434" points="1919.5,-803.9078 1779.5,-803.9078 1779.5,-767.9078 1919.5,-767.9078 1919.5,-803.9078"/>
<text text-anchor="middle" x="1849.5" y="-782.2078" font-family="Courier,monospace" font-size="14.00" fill="#de958e">dash.exceptions</text>
</g>
<!-- dash.exceptions&#45;&gt;hidebound.server.app -->
<g id="edge39" class="edge">
<title>dash.exceptions&#45;&gt;hidebound.server.app</title>
<path fill="none" stroke="#de958e" d="M1919.748,-798.0968C1936.1934,-801.9543 1953.4451,-806.8397 1969,-812.9078 2001.9178,-825.7492 2036.5129,-846.1541 2061.2686,-862.1302"/>
<polygon fill="#de958e" stroke="#de958e" points="2059.6386,-865.2463 2069.9227,-867.7935 2063.4717,-859.389 2059.6386,-865.2463"/>
</g>
<!-- flask -->
<g id="node25" class="node">
<title>flask</title>
<polygon fill="#343434" stroke="#343434" points="1282.5,-1143.9078 1224.5,-1143.9078 1224.5,-1107.9078 1282.5,-1107.9078 1282.5,-1143.9078"/>
<text text-anchor="middle" x="1253.5" y="-1122.2078" font-family="Courier,monospace" font-size="14.00" fill="#de958e">flask</text>
</g>
<!-- flask&#45;&gt;hidebound.server.api -->
<g id="edge40" class="edge">
<title>flask&#45;&gt;hidebound.server.api</title>
<path fill="none" stroke="#de958e" d="M1282.5358,-1124.4966C1313.7564,-1121.9124 1364.0186,-1114.599 1402,-1093.9078 1421.8702,-1083.083 1418.607,-1069.5659 1438,-1057.9078 1535.1125,-999.5285 1661.578,-966.0987 1748.538,-948.5458"/>
<polygon fill="#de958e" stroke="#de958e" points="1749.2847,-951.966 1758.4123,-946.5866 1747.9223,-945.0999 1749.2847,-951.966"/>
</g>
<!-- flask&#45;&gt;hidebound.server.app -->
<g id="edge41" class="edge">
<title>flask&#45;&gt;hidebound.server.app</title>
<path fill="none" stroke="#de958e" d="M1282.7168,-1122.2577C1381.9072,-1109.2102 1713.7869,-1060.1675 1969,-958.9078 2001.8432,-945.8767 2036.4446,-925.4881 2061.2219,-909.5664"/>
<polygon fill="#de958e" stroke="#de958e" points="2063.415,-912.3149 2069.8844,-903.9245 2059.5947,-906.4493 2063.415,-912.3149"/>
</g>
<!-- flask&#45;&gt;hidebound.server.server_tools -->
<g id="edge42" class="edge">
<title>flask&#45;&gt;hidebound.server.server_tools</title>
<path fill="none" stroke="#de958e" d="M1282.6186,-1127.0259C1316.0681,-1128.3104 1373.3558,-1130.5102 1427.7064,-1132.5973"/>
<polygon fill="#de958e" stroke="#de958e" points="1427.6872,-1136.099 1437.8142,-1132.9854 1427.9559,-1129.1042 1427.6872,-1136.099"/>
</g>
<!-- jinja2 -->
<g id="node26" class="node">
<title>jinja2</title>
<polygon fill="#343434" stroke="#343434" points="1286.5,-1235.9078 1220.5,-1235.9078 1220.5,-1199.9078 1286.5,-1199.9078 1286.5,-1235.9078"/>
<text text-anchor="middle" x="1253.5" y="-1214.2078" font-family="Courier,monospace" font-size="14.00" fill="#de958e">jinja2</text>
</g>
<!-- jinja2&#45;&gt;hidebound.server.server_tools -->
<g id="edge43" class="edge">
<title>jinja2&#45;&gt;hidebound.server.server_tools</title>
<path fill="none" stroke="#de958e" d="M1286.6893,-1211.4729C1316.8906,-1205.4475 1362.633,-1195.8964 1402,-1185.9078 1411.5634,-1183.4812 1455.474,-1170.6147 1495.452,-1158.8138"/>
<polygon fill="#de958e" stroke="#de958e" points="1496.6403,-1162.1124 1505.2392,-1155.923 1494.6573,-1155.3991 1496.6403,-1162.1124"/>
</g>
<!-- flasgger -->
<g id="node27" class="node">
<title>flasgger</title>
<polygon fill="#343434" stroke="#343434" points="1607.5,-765.9078 1524.5,-765.9078 1524.5,-729.9078 1607.5,-729.9078 1607.5,-765.9078"/>
<text text-anchor="middle" x="1566" y="-744.2078" font-family="Courier,monospace" font-size="14.00" fill="#de958e">flasgger</text>
</g>
<!-- flasgger&#45;&gt;hidebound.server.api -->
<g id="edge44" class="edge">
<title>flasgger&#45;&gt;hidebound.server.api</title>
<path fill="none" stroke="#de958e" d="M1607.6394,-748.0991C1635.469,-750.4327 1671.0518,-758.0021 1694,-779.9078 1734.2771,-818.3551 1690.0446,-861.1262 1730,-899.9078 1735.689,-905.4297 1742.2221,-910.0245 1749.2375,-913.8447"/>
<polygon fill="#de958e" stroke="#de958e" points="1747.8309,-917.0526 1758.3543,-918.2809 1750.8938,-910.7582 1747.8309,-917.0526"/>
</g>
<!-- flasgger&#45;&gt;hidebound.server.app -->
<g id="edge45" class="edge">
<title>flasgger&#45;&gt;hidebound.server.app</title>
<path fill="none" stroke="#de958e" d="M1607.5572,-748.9066C1634.9938,-751.6318 1670.15,-759.3367 1694,-779.9078 1725.6877,-807.239 1695.825,-842.7587 1730,-866.9078 1771.1118,-895.9585 1901.2317,-896.3555 1994.6206,-892.4219"/>
<polygon fill="#de958e" stroke="#de958e" points="1994.8417,-895.9156 2004.6767,-891.9758 1994.5314,-888.9225 1994.8417,-895.9156"/>
</g>
<!-- pandasql -->
<g id="node28" class="node">
<title>pandasql</title>
<polygon fill="#343434" stroke="#343434" points="1295,-933.9078 1212,-933.9078 1212,-897.9078 1295,-897.9078 1295,-933.9078"/>
<text text-anchor="middle" x="1253.5" y="-912.2078" font-family="Courier,monospace" font-size="14.00" fill="#de958e">pandasql</text>
</g>
<!-- pandasql&#45;&gt;hidebound.core.database -->
<g id="edge46" class="edge">
<title>pandasql&#45;&gt;hidebound.core.database</title>
<path fill="none" stroke="#de958e" d="M1295.3209,-918.049C1335.4811,-920.1052 1397.967,-923.3045 1452.7872,-926.1113"/>
<polygon fill="#de958e" stroke="#de958e" points="1452.7611,-929.6144 1462.927,-926.6304 1453.1191,-922.6236 1452.7611,-929.6144"/>
</g>
<!-- hidebound -->
<g id="node29" class="node">
<title>hidebound</title>
<polygon fill="#343434" stroke="#343434" points="91,-914.9078 0,-914.9078 0,-878.9078 91,-878.9078 91,-914.9078"/>
<text text-anchor="middle" x="45.5" y="-893.2078" font-family="Courier,monospace" font-size="14.00" fill="#a0d17b">hidebound</text>
</g>
<!-- hidebound&#45;&gt;hidebound.server -->
<g id="edge47" class="edge">
<title>hidebound&#45;&gt;hidebound.server</title>
<path fill="none" stroke="#a0d17b" d="M52.7852,-914.9184C82.7318,-985.6989 203.6304,-1240.9078 390,-1240.9078 390,-1240.9078 390,-1240.9078 632.5,-1240.9078 824.4481,-1240.9078 1049.3548,-1255.8643 1168.8253,-1264.9997"/>
<polygon fill="#a0d17b" stroke="#a0d17b" points="1168.7601,-1268.505 1178.9994,-1265.7832 1169.2976,-1261.5256 1168.7601,-1268.505"/>
</g>
<!-- hidebound.core -->
<g id="node30" class="node">
<title>hidebound.core</title>
<polygon fill="#343434" stroke="#343434" points="259,-571.9078 127,-571.9078 127,-535.9078 259,-535.9078 259,-571.9078"/>
<text text-anchor="middle" x="193" y="-550.2078" font-family="Courier,monospace" font-size="14.00" fill="#a0d17b">hidebound.core</text>
</g>
<!-- hidebound&#45;&gt;hidebound.core -->
<g id="edge48" class="edge">
<title>hidebound&#45;&gt;hidebound.core</title>
<path fill="none" stroke="#a0d17b" d="M81.7989,-878.8757C85.2059,-876.197 88.3638,-873.2098 91,-869.9078 161.9362,-781.0541 184.1127,-641.5524 190.5565,-582.1793"/>
<polygon fill="#a0d17b" stroke="#a0d17b" points="194.0563,-582.3583 191.5849,-572.0558 187.0921,-581.6508 194.0563,-582.3583"/>
</g>
<!-- hidebound.core&#45;&gt;hidebound.core.config -->
<g id="edge49" class="edge">
<title>hidebound.core&#45;&gt;hidebound.core.config</title>
<path fill="none" stroke="#a0d17b" d="M209.2466,-572.2247C227.7661,-591.5879 260.0306,-620.9493 295,-632.9078 457.747,-688.5621 898.62,-656.4592 1069,-632.9078 1111.6378,-627.014 1158.2872,-613.8021 1194.0108,-602.1713"/>
<polygon fill="#a0d17b" stroke="#a0d17b" points="1195.3885,-605.4022 1203.7845,-598.9401 1193.1913,-598.7559 1195.3885,-605.4022"/>
</g>
<!-- hidebound.core&#45;&gt;hidebound.core.database -->
<g id="edge50" class="edge">
<title>hidebound.core&#45;&gt;hidebound.core.database</title>
<path fill="none" stroke="#a0d17b" d="M193.5065,-571.953C196.3166,-657.409 212.995,-1020.084 295,-1087.9078 342.4222,-1127.1292 1352.2062,-1084.0708 1402,-1047.9078 1436.8583,-1022.5918 1404.9207,-985.5078 1438,-957.9078 1442.8562,-953.856 1448.1735,-950.3785 1453.7939,-947.3982"/>
<polygon fill="#a0d17b" stroke="#a0d17b" points="1455.3096,-950.553 1462.8526,-943.113 1452.3163,-944.2253 1455.3096,-950.553"/>
</g>
<!-- hidebound.core&#45;&gt;hidebound.core.database_test_base -->
<g id="edge51" class="edge">
<title>hidebound.core&#45;&gt;hidebound.core.database_test_base</title>
<path fill="none" stroke="#a0d17b" d="M259.3034,-565.9745C325.3546,-577.3399 429.7941,-593.5434 521,-599.9078 766.2902,-617.0242 834.3322,-597.3331 1069,-523.9078 1115.3245,-509.4133 1166.55,-488.7585 1203.2465,-473.1163"/>
<polygon fill="#a0d17b" stroke="#a0d17b" points="1204.9124,-476.2102 1212.7223,-469.0509 1202.1524,-469.7772 1204.9124,-476.2102"/>
</g>
<!-- hidebound.core&#45;&gt;hidebound.core.database_tools -->
<g id="edge52" class="edge">
<title>hidebound.core&#45;&gt;hidebound.core.database_tools</title>
<path fill="none" stroke="#a0d17b" d="M198.8435,-572.0108C211.383,-608.5313 243.9457,-692.0442 295,-744.9078 375.6526,-828.4186 410.5086,-840.2627 521,-875.9078 606.4493,-903.4742 706.9121,-913.5012 786.2176,-916.6232"/>
<polygon fill="#a0d17b" stroke="#a0d17b" points="786.1544,-920.1231 796.2743,-916.9867 786.4073,-913.1276 786.1544,-920.1231"/>
</g>
<!-- hidebound.core&#45;&gt;hidebound.core.parser -->
<g id="edge53" class="edge">
<title>hidebound.core&#45;&gt;hidebound.core.parser</title>
<path fill="none" stroke="#a0d17b" d="M212.3148,-535.7223C231.8648,-518.1306 263.6097,-491.7299 295,-474.9078 302.0341,-471.1382 309.5963,-467.6923 317.2718,-464.5751"/>
<polygon fill="#a0d17b" stroke="#a0d17b" points="318.6028,-467.8131 326.6625,-460.9362 316.0735,-461.286 318.6028,-467.8131"/>
</g>
<!-- hidebound.core&#45;&gt;hidebound.core.specification_base -->
<g id="edge54" class="edge">
<title>hidebound.core&#45;&gt;hidebound.core.specification_base</title>
<path fill="none" stroke="#a0d17b" d="M259.262,-540.8236C325.2816,-528.4461 429.6978,-510.6468 521,-502.9078 603.0091,-495.9564 694.7207,-494.1214 769.9607,-494.1709"/>
<polygon fill="#a0d17b" stroke="#a0d17b" points="769.9869,-497.6708 779.9931,-494.1886 769.9994,-490.6708 769.9869,-497.6708"/>
</g>
<!-- hidebound.core&#45;&gt;hidebound.core.specifications -->
<g id="edge55" class="edge">
<title>hidebound.core&#45;&gt;hidebound.core.specifications</title>
<path fill="none" stroke="#a0d17b" d="M194.52,-535.7823C201.1828,-461.0115 230.4043,-177.835 295,-121.9078 560.8697,108.2836 1040.9481,-47.6993 1200.4083,-109.1506"/>
<polygon fill="#a0d17b" stroke="#a0d17b" points="1199.4091,-112.5174 1209.9977,-112.8817 1201.9474,-105.9938 1199.4091,-112.5174"/>
</g>
<!-- hidebound.core&#45;&gt;hidebound.core.test_specifications -->
<g id="edge56" class="edge">
<title>hidebound.core&#45;&gt;hidebound.core.test_specifications</title>
<path fill="none" stroke="#a0d17b" d="M195.8359,-535.7867C206.1992,-472.0015 244.09,-259.4172 295,-216.9078 568.0338,11.0731 1052.4417,-171.8749 1205.6546,-238.8522"/>
<polygon fill="#a0d17b" stroke="#a0d17b" points="1204.2755,-242.0693 1214.8376,-242.9018 1207.1,-235.6644 1204.2755,-242.0693"/>
</g>
<!-- hidebound.core&#45;&gt;hidebound.core.tools -->
<g id="edge57" class="edge">
<title>hidebound.core&#45;&gt;hidebound.core.tools</title>
<path fill="none" stroke="#a0d17b" d="M194.5895,-572.0157C201.5785,-647.4013 232.069,-935.235 295,-995.9078 297.1804,-998.0099 432.4513,-1023.6097 531.0537,-1042.0443"/>
<polygon fill="#a0d17b" stroke="#a0d17b" points="530.6033,-1045.5206 541.0761,-1043.917 531.8891,-1038.6397 530.6033,-1045.5206"/>
</g>
<!-- hidebound.core&#45;&gt;hidebound.core.traits -->
<g id="edge58" class="edge">
<title>hidebound.core&#45;&gt;hidebound.core.traits</title>
<path fill="none" stroke="#a0d17b" d="M196.338,-535.8177C205.0626,-493.323 232.3507,-386.0416 295,-323.9078 433.5803,-186.4676 679.0839,-186.4741 819.0357,-199.9097"/>
<polygon fill="#a0d17b" stroke="#a0d17b" points="819.0419,-203.4278 829.3409,-200.9417 819.7395,-196.4626 819.0419,-203.4278"/>
</g>
<!-- hidebound.core&#45;&gt;hidebound.core.validators -->
<g id="edge59" class="edge">
<title>hidebound.core&#45;&gt;hidebound.core.validators</title>
<path fill="none" stroke="#a0d17b" d="M200.963,-535.7091C215.1659,-505.553 247.8654,-445.6084 295,-415.9078 299.9875,-412.765 427.4925,-388.7212 524.3126,-370.7859"/>
<polygon fill="#a0d17b" stroke="#a0d17b" points="524.9773,-374.2224 534.1732,-368.9607 523.7032,-367.3393 524.9773,-374.2224"/>
</g>
<!-- numpy -->
<g id="node31" class="node">
<title>numpy</title>
<polygon fill="#343434" stroke="#343434" points="661.5,-796.9078 603.5,-796.9078 603.5,-760.9078 661.5,-760.9078 661.5,-796.9078"/>
<text text-anchor="middle" x="632.5" y="-775.2078" font-family="Courier,monospace" font-size="14.00" fill="#de958e">numpy</text>
</g>
<!-- numpy&#45;&gt;hidebound.core.database -->
<g id="edge60" class="edge">
<title>numpy&#45;&gt;hidebound.core.database</title>
<path fill="none" stroke="#de958e" d="M661.9276,-779.6473C685.6178,-781.441 718.974,-786.7616 744,-801.9078 765.6163,-814.9903 757.5539,-834.3063 780,-845.9078 903.0836,-909.5247 1265.2782,-866.4616 1402,-888.9078 1434.0979,-894.1774 1469.0441,-902.9102 1498.3984,-911.1342"/>
<polygon fill="#de958e" stroke="#de958e" points="1497.5509,-914.5319 1508.1267,-913.898 1499.4639,-907.7984 1497.5509,-914.5319"/>
</g>
<!-- numpy&#45;&gt;hidebound.core.database_test_base -->
<g id="edge61" class="edge">
<title>numpy&#45;&gt;hidebound.core.database_test_base</title>
<path fill="none" stroke="#de958e" d="M661.6707,-777.0032C738.0648,-770.5362 946.5178,-743.1824 1069,-632.9078 1097.6752,-607.0906 1080.2618,-583.5188 1105,-553.9078 1133.5005,-519.7933 1175.9389,-491.8912 1208.1582,-473.7741"/>
<polygon fill="#de958e" stroke="#de958e" points="1209.8858,-476.8184 1216.9547,-468.9266 1206.5072,-470.6877 1209.8858,-476.8184"/>
</g>
<!-- numpy&#45;&gt;hidebound.core.database_tools -->
<g id="edge62" class="edge">
<title>numpy&#45;&gt;hidebound.core.database_tools</title>
<path fill="none" stroke="#de958e" d="M661.6081,-780.8009C686.0648,-783.7792 720.6642,-791.4088 744,-810.9078 771.7598,-834.1033 751.5396,-861.5773 780,-883.9078 784.3588,-887.3278 789.0086,-890.3987 793.8692,-893.155"/>
<polygon fill="#de958e" stroke="#de958e" points="792.3381,-896.3035 802.829,-897.7842 795.5513,-890.0845 792.3381,-896.3035"/>
</g>
<!-- numpy&#45;&gt;hidebound.server.api -->
<g id="edge63" class="edge">
<title>numpy&#45;&gt;hidebound.server.api</title>
<path fill="none" stroke="#de958e" d="M661.7037,-781.792C786.3268,-794.2229 1285.8745,-845.2974 1694,-904.9078 1711.6148,-907.4806 1730.3041,-910.4865 1748.388,-913.5399"/>
<polygon fill="#de958e" stroke="#de958e" points="1747.9159,-917.0099 1758.3617,-915.2388 1749.0914,-910.1092 1747.9159,-917.0099"/>
</g>
<!-- pandas -->
<g id="node32" class="node">
<title>pandas</title>
<polygon fill="#343434" stroke="#343434" points="423,-986.9078 357,-986.9078 357,-950.9078 423,-950.9078 423,-986.9078"/>
<text text-anchor="middle" x="390" y="-965.2078" font-family="Courier,monospace" font-size="14.00" fill="#de958e">pandas</text>
</g>
<!-- pandas&#45;&gt;hidebound.core.database -->
<g id="edge64" class="edge">
<title>pandas&#45;&gt;hidebound.core.database</title>
<path fill="none" stroke="#de958e" d="M423.2384,-975.0798C449.6322,-979.6532 487.5347,-985.4935 521,-987.9078 619.8542,-995.0393 644.9129,-990.0902 744,-987.9078 1036.6574,-981.4618 1110.8414,-989.1824 1402,-958.9078 1420.2463,-957.0105 1439.5442,-954.3905 1458.2461,-951.5236"/>
<polygon fill="#de958e" stroke="#de958e" points="1458.9235,-954.9603 1468.2624,-949.9567 1457.8416,-948.0444 1458.9235,-954.9603"/>
</g>
<!-- pandas&#45;&gt;hidebound.core.database_test_base -->
<g id="edge65" class="edge">
<title>pandas&#45;&gt;hidebound.core.database_test_base</title>
<path fill="none" stroke="#de958e" d="M423.2781,-970.1527C553.2799,-974.682 1022.0212,-987.7666 1069,-942.9078 1131.787,-882.9542 1061.2379,-628.8846 1105,-553.9078 1126.3964,-517.2497 1166.6481,-490.5721 1199.8522,-473.5636"/>
<polygon fill="#de958e" stroke="#de958e" points="1201.6053,-476.601 1209.0091,-469.0224 1198.4952,-470.3298 1201.6053,-476.601"/>
</g>
<!-- pandas&#45;&gt;hidebound.core.database_tools -->
<g id="edge66" class="edge">
<title>pandas&#45;&gt;hidebound.core.database_tools</title>
<path fill="none" stroke="#de958e" d="M423.032,-965.6324C493.8183,-958.6133 663.6388,-941.7743 786.0613,-929.6351"/>
<polygon fill="#de958e" stroke="#de958e" points="786.6647,-933.0925 796.2705,-928.6228 785.9739,-926.1267 786.6647,-933.0925"/>
</g>
<!-- pandas&#45;&gt;hidebound.core.tools -->
<g id="edge67" class="edge">
<title>pandas&#45;&gt;hidebound.core.tools</title>
<path fill="none" stroke="#de958e" d="M423.2245,-977.1272C441.9967,-982.4906 465.5292,-990.4478 485,-1000.9078 502.8562,-1010.5004 502.9305,-1019.7231 521,-1028.9078 528.7611,-1032.8527 537.0807,-1036.3779 545.5487,-1039.5125"/>
<polygon fill="#de958e" stroke="#de958e" points="544.5557,-1042.8733 555.1506,-1042.8872 546.8768,-1036.2693 544.5557,-1042.8733"/>
</g>
<!-- humanfriendly -->
<g id="node33" class="node">
<title>humanfriendly</title>
<polygon fill="#343434" stroke="#343434" points="452,-1078.9078 328,-1078.9078 328,-1042.9078 452,-1042.9078 452,-1078.9078"/>
<text text-anchor="middle" x="390" y="-1057.2078" font-family="Courier,monospace" font-size="14.00" fill="#de958e">humanfriendly</text>
</g>
<!-- humanfriendly&#45;&gt;hidebound.core.tools -->
<g id="edge68" class="edge">
<title>humanfriendly&#45;&gt;hidebound.core.tools</title>
<path fill="none" stroke="#de958e" d="M452.1349,-1060.9078C476.1506,-1060.9078 504.2629,-1060.9078 531.05,-1060.9078"/>
<polygon fill="#de958e" stroke="#de958e" points="531.2403,-1064.4079 541.2402,-1060.9078 531.2402,-1057.4079 531.2403,-1064.4079"/>
</g>
<!-- schematics.exceptions -->
<g id="node34" class="node">
<title>schematics.exceptions</title>
<polygon fill="#343434" stroke="#343434" points="485,-735.9078 295,-735.9078 295,-699.9078 485,-699.9078 485,-735.9078"/>
<text text-anchor="middle" x="390" y="-714.2078" font-family="Courier,monospace" font-size="14.00" fill="#de958e">schematics.exceptions</text>
</g>
<!-- schematics.exceptions&#45;&gt;hidebound.core.config -->
<g id="edge69" class="edge">
<title>schematics.exceptions&#45;&gt;hidebound.core.config</title>
<path fill="none" stroke="#de958e" d="M485.2414,-715.8073C645.3882,-711.525 961.63,-699.6403 1069,-670.9078 1123.1133,-656.4269 1180.3292,-625.8003 1216.4385,-604.3133"/>
<polygon fill="#de958e" stroke="#de958e" points="1218.3916,-607.2227 1225.1493,-599.0628 1214.778,-601.2275 1218.3916,-607.2227"/>
</g>
<!-- schematics.exceptions&#45;&gt;hidebound.core.database_tools -->
<g id="edge70" class="edge">
<title>schematics.exceptions&#45;&gt;hidebound.core.database_tools</title>
<path fill="none" stroke="#de958e" d="M403.8984,-736.0329C425.7027,-763.0801 470.6897,-813.532 521,-838.9078 546.1235,-851.5797 693.6271,-877.8924 803.0685,-896.2108"/>
<polygon fill="#de958e" stroke="#de958e" points="802.7623,-899.708 813.2021,-897.9023 803.9149,-892.8035 802.7623,-899.708"/>
</g>
<!-- schematics.exceptions&#45;&gt;hidebound.core.specification_base -->
<g id="edge71" class="edge">
<title>schematics.exceptions&#45;&gt;hidebound.core.specification_base</title>
<path fill="none" stroke="#de958e" d="M397.8233,-699.7425C414.5079,-663.4625 457.3309,-582.3936 521,-545.9078 562.7261,-521.9965 674.4036,-509.6568 769.7161,-503.345"/>
<polygon fill="#de958e" stroke="#de958e" points="770.0156,-506.833 779.7699,-502.6972 769.5655,-499.8475 770.0156,-506.833"/>
</g>
<!-- schematics.exceptions&#45;&gt;hidebound.core.tools -->
<g id="edge72" class="edge">
<title>schematics.exceptions&#45;&gt;hidebound.core.tools</title>
<path fill="none" stroke="#de958e" d="M403.0379,-736.3489C443.4287,-793.4791 566.5913,-967.6843 613.8061,-1034.4665"/>
<polygon fill="#de958e" stroke="#de958e" points="611.0611,-1036.6468 619.692,-1042.7917 616.7769,-1032.6058 611.0611,-1036.6468"/>
</g>
<!-- schematics.exceptions&#45;&gt;hidebound.core.validators -->
<g id="edge73" class="edge">
<title>schematics.exceptions&#45;&gt;hidebound.core.validators</title>
<path fill="none" stroke="#de958e" d="M396.9462,-699.713C423.7935,-629.4098 519.3657,-379.3421 521,-377.9078 522.3122,-376.7562 523.6653,-375.6518 525.0548,-374.5927"/>
<polygon fill="#de958e" stroke="#de958e" points="527.0255,-377.4854 533.3826,-369.0097 523.1275,-371.6711 527.0255,-377.4854"/>
</g>
<!-- schematics.exceptions&#45;&gt;hidebound.server.api -->
<g id="edge74" class="edge">
<title>schematics.exceptions&#45;&gt;hidebound.server.api</title>
<path fill="none" stroke="#de958e" d="M485.0746,-726.6171C556.3694,-733.2506 656.3395,-742.7695 744,-751.9078 1167.0122,-796.0054 1300.875,-704.622 1694,-866.9078 1712.4868,-874.5393 1712.2205,-884.7487 1730,-893.9078 1742.3029,-900.2455 1755.8644,-905.7789 1769.3009,-910.5166"/>
<polygon fill="#de958e" stroke="#de958e" points="1768.4484,-913.9234 1779.0428,-913.8259 1770.7,-907.2954 1768.4484,-913.9234"/>
</g>
<!-- pyparsing -->
<g id="node35" class="node">
<title>pyparsing</title>
<polygon fill="#343434" stroke="#343434" points="238.5,-148.9078 147.5,-148.9078 147.5,-112.9078 238.5,-112.9078 238.5,-148.9078"/>
<text text-anchor="middle" x="193" y="-127.2078" font-family="Courier,monospace" font-size="14.00" fill="#de958e">pyparsing</text>
</g>
<!-- pyparsing&#45;&gt;hidebound.core.parser -->
<g id="edge75" class="edge">
<title>pyparsing&#45;&gt;hidebound.core.parser</title>
<path fill="none" stroke="#de958e" d="M196.751,-149.1993C206.4506,-192.8543 235.8391,-304.9258 295,-377.9078 308.5026,-394.5648 327.375,-408.6774 344.7441,-419.4523"/>
<polygon fill="#de958e" stroke="#de958e" points="343.2744,-422.6515 353.6535,-424.7785 346.8662,-416.6432 343.2744,-422.6515"/>
</g>
<!-- pyparsing&#45;&gt;hidebound.core.specification_base -->
<g id="edge76" class="edge">
<title>pyparsing&#45;&gt;hidebound.core.specification_base</title>
<path fill="none" stroke="#de958e" d="M238.5813,-128.2278C301.2502,-127.0245 414.2794,-134.0817 485,-192.9078 517.1713,-219.6682 488.6367,-253.3799 521,-279.9078 599.1289,-343.9492 654.3706,-277.3031 744,-323.9078 813.8162,-360.2101 875.2694,-431.8547 905.1921,-470.5802"/>
<polygon fill="#de958e" stroke="#de958e" points="902.5873,-472.9367 911.4302,-478.7723 908.1565,-468.6959 902.5873,-472.9367"/>
</g>
<!-- pyparsing&#45;&gt;hidebound.core.validators -->
<g id="edge77" class="edge">
<title>pyparsing&#45;&gt;hidebound.core.validators</title>
<path fill="none" stroke="#de958e" d="M221.5076,-149.018C277.3614,-183.9767 405.8112,-261.8097 521,-312.9078 534.4423,-318.8708 549.13,-324.482 563.3029,-329.4686"/>
<polygon fill="#de958e" stroke="#de958e" points="562.4164,-332.8651 573.0111,-332.8177 564.6993,-326.2478 562.4164,-332.8651"/>
</g>
<!-- schematics -->
<g id="node36" class="node">
<title>schematics</title>
<polygon fill="#343434" stroke="#343434" points="682,-590.9078 583,-590.9078 583,-554.9078 682,-554.9078 682,-590.9078"/>
<text text-anchor="middle" x="632.5" y="-569.2078" font-family="Courier,monospace" font-size="14.00" fill="#de958e">schematics</text>
</g>
<!-- schematics&#45;&gt;hidebound.core.config -->
<g id="edge78" class="edge">
<title>schematics&#45;&gt;hidebound.core.config</title>
<path fill="none" stroke="#de958e" d="M682.0083,-573.5456C782.476,-574.8398 1012.2373,-577.7997 1147.8525,-579.5468"/>
<polygon fill="#de958e" stroke="#de958e" points="1148.2117,-583.0516 1158.256,-579.6808 1148.3019,-576.0522 1148.2117,-583.0516"/>
</g>
<!-- schematics&#45;&gt;hidebound.core.specification_base -->
<g id="edge79" class="edge">
<title>schematics&#45;&gt;hidebound.core.specification_base</title>
<path fill="none" stroke="#de958e" d="M682.0338,-560.0154C726.7456,-548.3781 793.3053,-531.0543 845.3823,-517.5"/>
<polygon fill="#de958e" stroke="#de958e" points="846.4651,-520.8349 855.261,-514.9289 844.7018,-514.0606 846.4651,-520.8349"/>
</g>
<!-- schematics.types -->
<g id="node37" class="node">
<title>schematics.types</title>
<polygon fill="#343434" stroke="#343434" points="707,-422.9078 558,-422.9078 558,-386.9078 707,-386.9078 707,-422.9078"/>
<text text-anchor="middle" x="632.5" y="-401.2078" font-family="Courier,monospace" font-size="14.00" fill="#de958e">schematics.types</text>
</g>
<!-- schematics.types&#45;&gt;hidebound.core.config -->
<g id="edge80" class="edge">
<title>schematics.types&#45;&gt;hidebound.core.config</title>
<path fill="none" stroke="#de958e" d="M648.519,-423.1529C673.553,-450.3011 724.8289,-500.6252 780,-523.9078 844.3021,-551.0437 1029.2586,-567.1589 1148.0716,-575.0004"/>
<polygon fill="#de958e" stroke="#de958e" points="1148.0809,-578.5083 1158.2871,-575.665 1148.5355,-571.5231 1148.0809,-578.5083"/>
</g>
<!-- schematics.types&#45;&gt;hidebound.core.database_test_base -->
<g id="edge81" class="edge">
<title>schematics.types&#45;&gt;hidebound.core.database_test_base</title>
<path fill="none" stroke="#de958e" d="M707.0984,-410.4336C803.5041,-417.5747 973.7839,-430.1881 1098.7016,-439.4412"/>
<polygon fill="#de958e" stroke="#de958e" points="1098.5169,-442.937 1108.7482,-440.1854 1099.0341,-435.9562 1098.5169,-442.937"/>
</g>
<!-- schematics.types&#45;&gt;hidebound.core.specification_base -->
<g id="edge82" class="edge">
<title>schematics.types&#45;&gt;hidebound.core.specification_base</title>
<path fill="none" stroke="#de958e" d="M707.1889,-422.0523C719.7964,-426.1473 732.5101,-431.0675 744,-436.9078 762.0695,-446.0924 761.6565,-456.2834 780,-464.9078 788.807,-469.0484 798.171,-472.6643 807.7344,-475.8201"/>
<polygon fill="#de958e" stroke="#de958e" points="806.7622,-479.1832 817.3509,-478.8249 808.8499,-472.5017 806.7622,-479.1832"/>
</g>
<!-- schematics.types&#45;&gt;hidebound.core.specifications -->
<g id="edge83" class="edge">
<title>schematics.types&#45;&gt;hidebound.core.specifications</title>
<path fill="none" stroke="#de958e" d="M707.1868,-399.2193C720.9751,-394.9821 734.1182,-388.2998 744,-377.9078 803.2253,-315.6243 717.2117,-246.5976 780,-187.9078 827.2144,-143.7752 992.9247,-132.2711 1115.0535,-130.0126"/>
<polygon fill="#de958e" stroke="#de958e" points="1115.306,-133.509 1125.2466,-129.8436 1115.1899,-126.51 1115.306,-133.509"/>
</g>
<!-- schematics.types&#45;&gt;hidebound.core.test_specifications -->
<g id="edge84" class="edge">
<title>schematics.types&#45;&gt;hidebound.core.test_specifications</title>
<path fill="none" stroke="#de958e" d="M707.0984,-387.6096C822.4088,-360.871 1043.4064,-309.6251 1166.0565,-281.1845"/>
<polygon fill="#de958e" stroke="#de958e" points="1166.8498,-284.5935 1175.8006,-278.925 1165.2685,-277.7745 1166.8498,-284.5935"/>
</g>
<!-- wrapt -->
<g id="node38" class="node">
<title>wrapt</title>
<polygon fill="#343434" stroke="#343434" points="419,-368.9078 361,-368.9078 361,-332.9078 419,-332.9078 419,-368.9078"/>
<text text-anchor="middle" x="390" y="-347.2078" font-family="Courier,monospace" font-size="14.00" fill="#de958e">wrapt</text>
</g>
<!-- wrapt&#45;&gt;hidebound.core.validators -->
<g id="edge85" class="edge">
<title>wrapt&#45;&gt;hidebound.core.validators</title>
<path fill="none" stroke="#de958e" d="M419.2512,-350.9078C442.4686,-350.9078 476.6038,-350.9078 510.7879,-350.9078"/>
<polygon fill="#de958e" stroke="#de958e" points="510.9021,-354.4079 520.9021,-350.9078 510.902,-347.4079 510.9021,-354.4079"/>
</g>
<!-- skimage.io -->
<g id="node39" class="node">
<title>skimage.io</title>
<polygon fill="#343434" stroke="#343434" points="682,-270.9078 583,-270.9078 583,-234.9078 682,-234.9078 682,-270.9078"/>
<text text-anchor="middle" x="632.5" y="-249.2078" font-family="Courier,monospace" font-size="14.00" fill="#de958e">skimage.io</text>
</g>
<!-- skimage.io&#45;&gt;hidebound.core.database_test_base -->
<g id="edge86" class="edge">
<title>skimage.io&#45;&gt;hidebound.core.database_test_base</title>
<path fill="none" stroke="#de958e" d="M682.0306,-260.9708C764.1391,-275.183 932.8892,-307.9951 1069,-357.9078 1121.158,-377.0344 1177.7341,-407.0567 1214.2927,-427.7909"/>
<polygon fill="#de958e" stroke="#de958e" points="1212.7226,-430.9249 1223.1411,-432.85 1216.197,-424.848 1212.7226,-430.9249"/>
</g>
<!-- skimage.io&#45;&gt;hidebound.core.traits -->
<g id="edge87" class="edge">
<title>skimage.io&#45;&gt;hidebound.core.traits</title>
<path fill="none" stroke="#de958e" d="M682.0338,-246.4616C719.5523,-241.579 772.4542,-234.6945 819.2741,-228.6015"/>
<polygon fill="#de958e" stroke="#de958e" points="820.009,-232.0355 829.4737,-227.2742 819.1056,-225.094 820.009,-232.0355"/>
</g>
</g>
</svg>
