<?xml version="1.0" encoding="UTF-8" standalone="no"?>
<!DOCTYPE svg PUBLIC "-//W3C//DTD SVG 1.1//EN"
 "http://www.w3.org/Graphics/SVG/1.1/DTD/svg11.dtd">
<!-- Generated by graphviz version 2.40.1 (20161225.0304)
 -->
<!-- Title: %3 Pages: 1 -->
<svg width="2236pt" height="1690pt"
 viewBox="0.00 0.00 2236.00 1689.71" xmlns="http://www.w3.org/2000/svg" xmlns:xlink="http://www.w3.org/1999/xlink">
<g id="graph0" class="graph" transform="scale(1 1) rotate(0) translate(4 1685.7076)">
<title>%3</title>
<polygon fill="#242424" stroke="transparent" points="-4,4 -4,-1685.7076 2232,-1685.7076 2232,4 -4,4"/>
<!-- cli -->
<g id="node1" class="node">
<title>cli</title>
<polygon fill="#343434" stroke="#343434" points="72.5,-508.7076 18.5,-508.7076 18.5,-472.7076 72.5,-472.7076 72.5,-508.7076"/>
<text text-anchor="middle" x="45.5" y="-487.0076" font-family="Courier,monospace" font-size="14.00" fill="#b6ecf3">cli</text>
</g>
<!-- hidebound.core.config -->
<g id="node2" class="node">
<title>hidebound.core.config</title>
<polygon fill="#343434" stroke="#343434" points="1410,-362.7076 1220,-362.7076 1220,-326.7076 1410,-326.7076 1410,-362.7076"/>
<text text-anchor="middle" x="1315" y="-341.0076" font-family="Courier,monospace" font-size="14.00" fill="#b6ecf3">hidebound.core.config</text>
</g>
<!-- hidebound.core.database -->
<g id="node3" class="node">
<title>hidebound.core.database</title>
<polygon fill="#343434" stroke="#343434" points="1710,-898.7076 1504,-898.7076 1504,-862.7076 1710,-862.7076 1710,-898.7076"/>
<text text-anchor="middle" x="1607" y="-877.0076" font-family="Courier,monospace" font-size="14.00" fill="#b6ecf3">hidebound.core.database</text>
</g>
<!-- hidebound.core.config&#45;&gt;hidebound.core.database -->
<g id="edge1" class="edge">
<title>hidebound.core.config&#45;&gt;hidebound.core.database</title>
<path fill="none" stroke="#b6ecf3" d="M1373.2996,-362.8212C1398.9942,-373.8956 1426.9449,-390.8342 1443,-415.7076 1495.9629,-497.7607 1414.4233,-780.4435 1479,-853.7076 1483.6413,-858.9733 1489.0275,-863.361 1494.9112,-867.0061"/>
<polygon fill="#b6ecf3" stroke="#b6ecf3" points="1493.3955,-870.1652 1503.8586,-871.831 1496.718,-864.0039 1493.3955,-870.1652"/>
</g>
<!-- hidebound.server.app -->
<g id="node14" class="node">
<title>hidebound.server.app</title>
<polygon fill="#343434" stroke="#343434" points="2228,-1175.7076 2046,-1175.7076 2046,-1139.7076 2228,-1139.7076 2228,-1175.7076"/>
<text text-anchor="middle" x="2137" y="-1154.0076" font-family="Courier,monospace" font-size="14.00" fill="#b6ecf3">hidebound.server.app</text>
</g>
<!-- hidebound.core.config&#45;&gt;hidebound.server.app -->
<g id="edge2" class="edge">
<title>hidebound.core.config&#45;&gt;hidebound.server.app</title>
<path fill="none" stroke="#b6ecf3" d="M1357.5554,-362.8084C1383.8966,-375.2865 1417.4473,-393.5862 1443,-415.7076 1605.0994,-556.0399 1643.6982,-605.7144 1735,-799.7076 1764.9321,-863.3056 1722.2964,-903.0262 1771,-953.7076 1847.3561,-1033.1642 1915.9476,-962.2815 2010,-1019.7076 2057.2462,-1048.555 2097.7524,-1099.9522 2119.6326,-1131.2241"/>
<polygon fill="#b6ecf3" stroke="#b6ecf3" points="2116.7533,-1133.214 2125.3001,-1139.4752 2122.5232,-1129.2507 2116.7533,-1133.214"/>
</g>
<!-- hidebound.server.api -->
<g id="node13" class="node">
<title>hidebound.server.api</title>
<polygon fill="#343434" stroke="#343434" points="1981.5,-1064.7076 1799.5,-1064.7076 1799.5,-1028.7076 1981.5,-1028.7076 1981.5,-1064.7076"/>
<text text-anchor="middle" x="1890.5" y="-1043.0076" font-family="Courier,monospace" font-size="14.00" fill="#b6ecf3">hidebound.server.api</text>
</g>
<!-- hidebound.core.database&#45;&gt;hidebound.server.api -->
<g id="edge3" class="edge">
<title>hidebound.core.database&#45;&gt;hidebound.server.api</title>
<path fill="none" stroke="#b6ecf3" d="M1710.1312,-897.701C1719.0631,-901.7138 1727.5284,-906.647 1735,-912.7076 1763.4047,-935.7478 1745.3007,-960.684 1771,-986.7076 1786.7717,-1002.6783 1807.6762,-1015.144 1827.5865,-1024.4741"/>
<polygon fill="#b6ecf3" stroke="#b6ecf3" points="1826.3903,-1027.7735 1836.947,-1028.6725 1829.2551,-1021.3865 1826.3903,-1027.7735"/>
</g>
<!-- hidebound.core.database_tools -->
<g id="node4" class="node">
<title>hidebound.core.database_tools</title>
<polygon fill="#343434" stroke="#343434" points="1443,-828.7076 1187,-828.7076 1187,-792.7076 1443,-792.7076 1443,-828.7076"/>
<text text-anchor="middle" x="1315" y="-807.0076" font-family="Courier,monospace" font-size="14.00" fill="#b6ecf3">hidebound.core.database_tools</text>
</g>
<!-- hidebound.core.database_tools&#45;&gt;hidebound.core.database -->
<g id="edge4" class="edge">
<title>hidebound.core.database_tools&#45;&gt;hidebound.core.database</title>
<path fill="none" stroke="#b6ecf3" d="M1381.0482,-828.8061C1410.8843,-836.7801 1446.6312,-846.055 1479,-853.7076 1488.6143,-855.9806 1498.6571,-858.2607 1508.7051,-860.4799"/>
<polygon fill="#b6ecf3" stroke="#b6ecf3" points="1508.222,-863.957 1518.7392,-862.6763 1509.7189,-857.1189 1508.222,-863.957"/>
</g>
<!-- hidebound.core.parser -->
<g id="node5" class="node">
<title>hidebound.core.parser</title>
<polygon fill="#343434" stroke="#343434" points="485,-646.7076 295,-646.7076 295,-610.7076 485,-610.7076 485,-646.7076"/>
<text text-anchor="middle" x="390" y="-625.0076" font-family="Courier,monospace" font-size="14.00" fill="#b6ecf3">hidebound.core.parser</text>
</g>
<!-- hidebound.core.parser&#45;&gt;hidebound.core.database_tools -->
<g id="edge5" class="edge">
<title>hidebound.core.parser&#45;&gt;hidebound.core.database_tools</title>
<path fill="none" stroke="#b6ecf3" d="M485.2539,-629.0191C631.7851,-631.9937 919.7839,-647.794 1151,-721.7076 1198.6659,-736.9451 1248.522,-766.2 1280.569,-787.0071"/>
<polygon fill="#b6ecf3" stroke="#b6ecf3" points="1278.8414,-790.06 1289.1191,-792.6331 1282.6892,-784.2124 1278.8414,-790.06"/>
</g>
<!-- hidebound.core.specification_base -->
<g id="node6" class="node">
<title>hidebound.core.specification_base</title>
<polygon fill="#343434" stroke="#343434" points="1143,-599.7076 854,-599.7076 854,-563.7076 1143,-563.7076 1143,-599.7076"/>
<text text-anchor="middle" x="998.5" y="-578.0076" font-family="Courier,monospace" font-size="14.00" fill="#b6ecf3">hidebound.core.specification_base</text>
</g>
<!-- hidebound.core.parser&#45;&gt;hidebound.core.specification_base -->
<g id="edge6" class="edge">
<title>hidebound.core.parser&#45;&gt;hidebound.core.specification_base</title>
<path fill="none" stroke="#b6ecf3" d="M485.339,-611.395C497.3166,-609.6041 509.4235,-607.9785 521,-606.7076 628.4817,-594.9077 750.2052,-588.6434 843.8528,-585.3364"/>
<polygon fill="#b6ecf3" stroke="#b6ecf3" points="844.1026,-588.83 853.9757,-584.9866 843.8608,-581.8342 844.1026,-588.83"/>
</g>
<!-- hidebound.core.validators -->
<g id="node10" class="node">
<title>hidebound.core.validators</title>
<polygon fill="#343434" stroke="#343434" points="777,-516.7076 554,-516.7076 554,-480.7076 777,-480.7076 777,-516.7076"/>
<text text-anchor="middle" x="665.5" y="-495.0076" font-family="Courier,monospace" font-size="14.00" fill="#b6ecf3">hidebound.core.validators</text>
</g>
<!-- hidebound.core.parser&#45;&gt;hidebound.core.validators -->
<g id="edge7" class="edge">
<title>hidebound.core.parser&#45;&gt;hidebound.core.validators</title>
<path fill="none" stroke="#b6ecf3" d="M453.3466,-610.696C464.1749,-606.6867 475.1113,-602.0199 485,-596.7076 502.8562,-587.1149 503.7842,-579.4072 521,-568.7076 550.2475,-550.5303 584.9165,-533.5958 612.9639,-520.9375"/>
<polygon fill="#b6ecf3" stroke="#b6ecf3" points="614.4993,-524.085 622.2043,-516.813 611.6461,-517.6929 614.4993,-524.085"/>
</g>
<!-- hidebound.core.specification_base&#45;&gt;hidebound.core.config -->
<g id="edge8" class="edge">
<title>hidebound.core.specification_base&#45;&gt;hidebound.core.config</title>
<path fill="none" stroke="#b6ecf3" d="M1064.3688,-563.6406C1094.1794,-552.5766 1127.8422,-535.6334 1151,-510.7076 1181.7327,-477.6286 1157.4557,-449.8521 1187,-415.7076 1205.2756,-394.5864 1231.4527,-378.514 1255.3777,-367.0483"/>
<polygon fill="#b6ecf3" stroke="#b6ecf3" points="1257.1445,-370.088 1264.7625,-362.7249 1254.2155,-363.7302 1257.1445,-370.088"/>
</g>
<!-- hidebound.core.specification_base&#45;&gt;hidebound.core.database -->
<g id="edge9" class="edge">
<title>hidebound.core.specification_base&#45;&gt;hidebound.core.database</title>
<path fill="none" stroke="#b6ecf3" d="M1074.8939,-599.7424C1171.1579,-625.8691 1336.8253,-682.5581 1443,-783.7076 1468.3298,-807.8385 1451.1885,-832.4844 1479,-853.7076 1483.8,-857.3705 1488.9836,-860.5638 1494.4192,-863.3456"/>
<polygon fill="#b6ecf3" stroke="#b6ecf3" points="1493.2338,-866.6527 1503.7817,-867.6488 1496.1572,-860.2924 1493.2338,-866.6527"/>
</g>
<!-- hidebound.core.specification_base&#45;&gt;hidebound.core.database_tools -->
<g id="edge10" class="edge">
<title>hidebound.core.specification_base&#45;&gt;hidebound.core.database_tools</title>
<path fill="none" stroke="#b6ecf3" d="M1027.3367,-599.8579C1058.3418,-619.5912 1108.8593,-652.3774 1151,-682.7076 1198.9681,-717.232 1252.6193,-759.9173 1285.0903,-786.2253"/>
<polygon fill="#b6ecf3" stroke="#b6ecf3" points="1282.904,-788.9586 1292.873,-792.546 1287.317,-783.5248 1282.904,-788.9586"/>
</g>
<!-- hidebound.core.specifications -->
<g id="node7" class="node">
<title>hidebound.core.specifications</title>
<polygon fill="#343434" stroke="#343434" points="1443,-514.7076 1187,-514.7076 1187,-478.7076 1443,-478.7076 1443,-514.7076"/>
<text text-anchor="middle" x="1315" y="-493.0076" font-family="Courier,monospace" font-size="14.00" fill="#b6ecf3">hidebound.core.specifications</text>
</g>
<!-- hidebound.core.specification_base&#45;&gt;hidebound.core.specifications -->
<g id="edge11" class="edge">
<title>hidebound.core.specification_base&#45;&gt;hidebound.core.specifications</title>
<path fill="none" stroke="#b6ecf3" d="M1088.7484,-563.6467C1109.299,-559.1274 1130.9742,-554.0365 1151,-548.7076 1184.9899,-539.6627 1222.4101,-527.9364 1252.9132,-517.9093"/>
<polygon fill="#b6ecf3" stroke="#b6ecf3" points="1254.1651,-521.1817 1262.5606,-514.719 1251.9673,-514.5357 1254.1651,-521.1817"/>
</g>
<!-- hidebound.core.tools -->
<g id="node8" class="node">
<title>hidebound.core.tools</title>
<polygon fill="#343434" stroke="#343434" points="756.5,-836.7076 574.5,-836.7076 574.5,-800.7076 756.5,-800.7076 756.5,-836.7076"/>
<text text-anchor="middle" x="665.5" y="-815.0076" font-family="Courier,monospace" font-size="14.00" fill="#b6ecf3">hidebound.core.tools</text>
</g>
<!-- hidebound.core.tools&#45;&gt;hidebound.core.database -->
<g id="edge12" class="edge">
<title>hidebound.core.tools&#45;&gt;hidebound.core.database</title>
<path fill="none" stroke="#b6ecf3" d="M752.6165,-836.784C773.5604,-844.6133 794.368,-855.7869 810,-871.7076 844.2689,-906.6094 806.1559,-947.3361 846,-975.7076 956.4221,-1054.335 1016.1587,-989.6044 1151,-975.7076 1286.8781,-961.7039 1441.9762,-924.8192 1531.7713,-901.3458"/>
<polygon fill="#b6ecf3" stroke="#b6ecf3" points="1532.8087,-904.692 1541.5901,-898.7643 1531.0288,-897.9221 1532.8087,-904.692"/>
</g>
<!-- hidebound.core.tools&#45;&gt;hidebound.core.database_tools -->
<g id="edge13" class="edge">
<title>hidebound.core.tools&#45;&gt;hidebound.core.database_tools</title>
<path fill="none" stroke="#b6ecf3" d="M756.8368,-817.5826C866.0375,-816.2375 1049.9012,-813.9728 1176.5862,-812.4124"/>
<polygon fill="#b6ecf3" stroke="#b6ecf3" points="1176.794,-815.9102 1186.7501,-812.2872 1176.7078,-808.9108 1176.794,-815.9102"/>
</g>
<!-- hidebound.core.tools&#45;&gt;hidebound.core.specification_base -->
<g id="edge14" class="edge">
<title>hidebound.core.tools&#45;&gt;hidebound.core.specification_base</title>
<path fill="none" stroke="#b6ecf3" d="M690.8024,-800.6995C749.9219,-758.6235 897.1734,-653.8229 964.2452,-606.0871"/>
<polygon fill="#b6ecf3" stroke="#b6ecf3" points="966.6615,-608.6634 972.7793,-600.0133 962.6025,-602.9603 966.6615,-608.6634"/>
</g>
<!-- hidebound.core.traits -->
<g id="node9" class="node">
<title>hidebound.core.traits</title>
<polygon fill="#343434" stroke="#343434" points="485,-386.7076 295,-386.7076 295,-350.7076 485,-350.7076 485,-386.7076"/>
<text text-anchor="middle" x="390" y="-365.0076" font-family="Courier,monospace" font-size="14.00" fill="#b6ecf3">hidebound.core.traits</text>
</g>
<!-- hidebound.core.traits&#45;&gt;hidebound.core.specifications -->
<g id="edge15" class="edge">
<title>hidebound.core.traits&#45;&gt;hidebound.core.specifications</title>
<path fill="none" stroke="#b6ecf3" d="M469.3879,-386.7356C486.3513,-390.1197 504.2155,-393.3347 521,-395.7076 660.0403,-415.3639 1018.724,-397.5734 1151,-444.7076 1169.3495,-451.2461 1169.115,-461.9886 1187,-469.7076 1191.765,-471.7641 1196.6993,-473.6686 1201.7345,-475.4319"/>
<polygon fill="#b6ecf3" stroke="#b6ecf3" points="1200.9315,-478.8521 1211.5244,-478.6515 1203.1184,-472.2025 1200.9315,-478.8521"/>
</g>
<!-- hidebound.core.validators&#45;&gt;hidebound.core.config -->
<g id="edge16" class="edge">
<title>hidebound.core.validators&#45;&gt;hidebound.core.config</title>
<path fill="none" stroke="#b6ecf3" d="M741.5962,-480.6648C863.4537,-451.7717 1101.6084,-395.3039 1229.2895,-365.03"/>
<polygon fill="#b6ecf3" stroke="#b6ecf3" points="1230.1169,-368.4309 1239.0396,-362.7182 1228.5019,-361.6198 1230.1169,-368.4309"/>
</g>
<!-- hidebound.core.validators&#45;&gt;hidebound.core.specification_base -->
<g id="edge17" class="edge">
<title>hidebound.core.validators&#45;&gt;hidebound.core.specification_base</title>
<path fill="none" stroke="#b6ecf3" d="M762.425,-516.7171C778.5064,-520.6861 794.8644,-525.3401 810,-530.7076 826.8598,-536.6865 829.1258,-542.7693 846,-548.7076 859.3911,-553.4201 873.6903,-557.5861 887.9647,-561.2319"/>
<polygon fill="#b6ecf3" stroke="#b6ecf3" points="887.2837,-564.6688 897.8316,-563.6731 888.9649,-557.8737 887.2837,-564.6688"/>
</g>
<!-- hidebound.core.validators&#45;&gt;hidebound.core.specifications -->
<g id="edge18" class="edge">
<title>hidebound.core.validators&#45;&gt;hidebound.core.specifications</title>
<path fill="none" stroke="#b6ecf3" d="M777.134,-507.2911C799.9058,-508.715 823.714,-509.9676 846,-510.7076 981.4809,-515.2061 1015.5673,-516.4777 1151,-510.7076 1159.3107,-510.3535 1167.8518,-509.8989 1176.4636,-509.3713"/>
<polygon fill="#b6ecf3" stroke="#b6ecf3" points="1176.8411,-512.8543 1186.5959,-508.72 1176.392,-505.8688 1176.8411,-512.8543"/>
</g>
<!-- hidebound.exporters.girder_exporter -->
<g id="node12" class="node">
<title>hidebound.exporters.girder_exporter</title>
<polygon fill="#343434" stroke="#343434" points="1151,-278.7076 846,-278.7076 846,-242.7076 1151,-242.7076 1151,-278.7076"/>
<text text-anchor="middle" x="998.5" y="-257.0076" font-family="Courier,monospace" font-size="14.00" fill="#b6ecf3">hidebound.exporters.girder_exporter</text>
</g>
<!-- hidebound.core.validators&#45;&gt;hidebound.exporters.girder_exporter -->
<g id="edge19" class="edge">
<title>hidebound.core.validators&#45;&gt;hidebound.exporters.girder_exporter</title>
<path fill="none" stroke="#b6ecf3" d="M690.832,-480.6767C719.6926,-460.1282 768.2638,-425.5277 810,-395.7076 864.1231,-357.0371 926.9177,-312.0383 964.6361,-284.9947"/>
<polygon fill="#b6ecf3" stroke="#b6ecf3" points="967.1194,-287.5209 973.2067,-278.8493 963.0404,-281.8321 967.1194,-287.5209"/>
</g>
<!-- hidebound.exporters.exporter_base -->
<g id="node11" class="node">
<title>hidebound.exporters.exporter_base</title>
<polygon fill="#343434" stroke="#343434" points="810,-186.7076 521,-186.7076 521,-150.7076 810,-150.7076 810,-186.7076"/>
<text text-anchor="middle" x="665.5" y="-165.0076" font-family="Courier,monospace" font-size="14.00" fill="#b6ecf3">hidebound.exporters.exporter_base</text>
</g>
<!-- hidebound.exporters.exporter_base&#45;&gt;hidebound.exporters.girder_exporter -->
<g id="edge20" class="edge">
<title>hidebound.exporters.exporter_base&#45;&gt;hidebound.exporters.girder_exporter</title>
<path fill="none" stroke="#b6ecf3" d="M730.8928,-186.774C786.22,-202.0597 865.5192,-223.9681 923.4297,-239.9674"/>
<polygon fill="#b6ecf3" stroke="#b6ecf3" points="922.6858,-243.393 933.2568,-242.6824 924.55,-236.6457 922.6858,-243.393"/>
</g>
<!-- hidebound.exporters.girder_exporter&#45;&gt;hidebound.core.config -->
<g id="edge21" class="edge">
<title>hidebound.exporters.girder_exporter&#45;&gt;hidebound.core.config</title>
<path fill="none" stroke="#b6ecf3" d="M1091.9957,-278.7793C1111.575,-282.9959 1132.0309,-287.7235 1151,-292.7076 1185.0181,-301.6458 1222.4406,-313.3635 1252.9378,-323.4126"/>
<polygon fill="#b6ecf3" stroke="#b6ecf3" points="1251.9897,-326.7855 1262.5831,-326.611 1254.193,-320.1413 1251.9897,-326.7855"/>
</g>
<!-- hidebound.exporters.girder_exporter&#45;&gt;hidebound.core.database -->
<g id="edge22" class="edge">
<title>hidebound.exporters.girder_exporter&#45;&gt;hidebound.core.database</title>
<path fill="none" stroke="#b6ecf3" d="M1087.2964,-242.6765C1189.0048,-227.758 1353.1457,-222.2482 1443,-317.7076 1524.8234,-404.6351 1400.7341,-763.5638 1479,-853.7076 1483.6018,-859.0078 1488.9581,-863.4218 1494.8197,-867.0862"/>
<polygon fill="#b6ecf3" stroke="#b6ecf3" points="1493.2825,-870.2343 1503.74,-871.9348 1496.6254,-864.0841 1493.2825,-870.2343"/>
</g>
<!-- hidebound.server.api&#45;&gt;hidebound.server.app -->
<g id="edge23" class="edge">
<title>hidebound.server.api&#45;&gt;hidebound.server.app</title>
<path fill="none" stroke="#b6ecf3" d="M1930.6531,-1064.7887C1973.5369,-1084.0994 2041.5434,-1114.7231 2087.6598,-1135.4895"/>
<polygon fill="#b6ecf3" stroke="#b6ecf3" points="2086.3088,-1138.7196 2096.8641,-1139.6342 2089.183,-1132.3368 2086.3088,-1138.7196"/>
</g>
<!-- hidebound.server.components -->
<g id="node15" class="node">
<title>hidebound.server.components</title>
<polygon fill="#343434" stroke="#343434" points="2010,-1458.7076 1771,-1458.7076 1771,-1422.7076 2010,-1422.7076 2010,-1458.7076"/>
<text text-anchor="middle" x="1890.5" y="-1437.0076" font-family="Courier,monospace" font-size="14.00" fill="#b6ecf3">hidebound.server.components</text>
</g>
<!-- hidebound.server.components&#45;&gt;hidebound.server.app -->
<g id="edge24" class="edge">
<title>hidebound.server.components&#45;&gt;hidebound.server.app</title>
<path fill="none" stroke="#b6ecf3" d="M1915.4835,-1422.6568C1940.8681,-1403.6433 1980.5373,-1372.0281 2010,-1339.7076 2055.9431,-1289.3081 2099.0669,-1221.5979 2121.3072,-1184.6076"/>
<polygon fill="#b6ecf3" stroke="#b6ecf3" points="2124.3871,-1186.2763 2126.5006,-1175.8943 2118.3742,-1182.6923 2124.3871,-1186.2763"/>
</g>
<!-- hidebound.server.server_tools -->
<g id="node16" class="node">
<title>hidebound.server.server_tools</title>
<polygon fill="#343434" stroke="#343434" points="1735,-1129.7076 1479,-1129.7076 1479,-1093.7076 1735,-1093.7076 1735,-1129.7076"/>
<text text-anchor="middle" x="1607" y="-1108.0076" font-family="Courier,monospace" font-size="14.00" fill="#b6ecf3">hidebound.server.server_tools</text>
</g>
<!-- hidebound.server.server_tools&#45;&gt;hidebound.server.api -->
<g id="edge25" class="edge">
<title>hidebound.server.server_tools&#45;&gt;hidebound.server.api</title>
<path fill="none" stroke="#b6ecf3" d="M1685.5941,-1093.6878C1721.6962,-1085.4104 1764.6686,-1075.5578 1801.9142,-1067.0182"/>
<polygon fill="#b6ecf3" stroke="#b6ecf3" points="1802.7882,-1070.4088 1811.753,-1064.7624 1801.2237,-1063.5858 1802.7882,-1070.4088"/>
</g>
<!-- hidebound.server.server_tools&#45;&gt;hidebound.server.app -->
<g id="edge26" class="edge">
<title>hidebound.server.server_tools&#45;&gt;hidebound.server.app</title>
<path fill="none" stroke="#b6ecf3" d="M1735.043,-1120.8712C1814.2953,-1126.792 1918.118,-1134.9973 2010,-1143.7076 2018.3329,-1144.4975 2026.9686,-1145.3588 2035.6368,-1146.2531"/>
<polygon fill="#b6ecf3" stroke="#b6ecf3" points="2035.5016,-1149.758 2045.8111,-1147.316 2036.2289,-1142.7958 2035.5016,-1149.758"/>
</g>
<!-- dash -->
<g id="node17" class="node">
<title>dash</title>
<polygon fill="#343434" stroke="#343434" points="1634,-1681.7076 1580,-1681.7076 1580,-1645.7076 1634,-1645.7076 1634,-1681.7076"/>
<text text-anchor="middle" x="1607" y="-1660.0076" font-family="Courier,monospace" font-size="14.00" fill="#de958e">dash</text>
</g>
<!-- dash&#45;&gt;hidebound.server.app -->
<g id="edge27" class="edge">
<title>dash&#45;&gt;hidebound.server.app</title>
<path fill="none" stroke="#de958e" d="M1634.2332,-1663.6951C1706.3434,-1662.1345 1903.9572,-1647.6914 2010,-1539.7076 2109.9359,-1437.9425 2131.246,-1255.6619 2135.7793,-1185.9128"/>
<polygon fill="#de958e" stroke="#de958e" points="2139.2858,-1185.9005 2136.3723,-1175.7142 2132.2976,-1185.4942 2139.2858,-1185.9005"/>
</g>
<!-- dash&#45;&gt;hidebound.server.components -->
<g id="edge28" class="edge">
<title>dash&#45;&gt;hidebound.server.components</title>
<path fill="none" stroke="#de958e" d="M1634.2068,-1663.2449C1661.5586,-1661.6283 1704.0007,-1655.8845 1735,-1636.7076 1803.3405,-1594.4305 1854.1174,-1510.8934 1877.024,-1467.8128"/>
<polygon fill="#de958e" stroke="#de958e" points="1880.2201,-1469.2533 1881.7386,-1458.7678 1874.0127,-1466.0177 1880.2201,-1469.2533"/>
</g>
<!-- dash_core_components -->
<g id="node18" class="node">
<title>dash_core_components</title>
<polygon fill="#343434" stroke="#343434" points="1698,-1627.7076 1516,-1627.7076 1516,-1591.7076 1698,-1591.7076 1698,-1627.7076"/>
<text text-anchor="middle" x="1607" y="-1606.0076" font-family="Courier,monospace" font-size="14.00" fill="#de958e">dash_core_components</text>
</g>
<!-- dash_core_components&#45;&gt;hidebound.server.app -->
<g id="edge29" class="edge">
<title>dash_core_components&#45;&gt;hidebound.server.app</title>
<path fill="none" stroke="#de958e" d="M1698.0021,-1600.0582C1788.3229,-1585.8763 1925.1986,-1551.2799 2010,-1467.7076 2091.8953,-1386.9993 2123.0422,-1246.0711 2132.9818,-1186.064"/>
<polygon fill="#de958e" stroke="#de958e" points="2136.4946,-1186.2576 2134.5984,-1175.8338 2129.5803,-1185.1649 2136.4946,-1186.2576"/>
</g>
<!-- dash_core_components&#45;&gt;hidebound.server.components -->
<g id="edge30" class="edge">
<title>dash_core_components&#45;&gt;hidebound.server.components</title>
<path fill="none" stroke="#de958e" d="M1698.1294,-1594.6571C1711.0727,-1590.3539 1723.7793,-1584.8211 1735,-1577.7076 1756.3399,-1564.1788 1752.9169,-1551.3548 1771,-1533.7076 1797.4232,-1507.9212 1830.8198,-1482.4382 1855.5862,-1464.6864"/>
<polygon fill="#de958e" stroke="#de958e" points="1857.8322,-1467.3844 1863.9609,-1458.742 1853.7804,-1461.6761 1857.8322,-1467.3844"/>
</g>
<!-- dash_cytoscape -->
<g id="node19" class="node">
<title>dash_cytoscape</title>
<polygon fill="#343434" stroke="#343434" points="1673,-1481.7076 1541,-1481.7076 1541,-1445.7076 1673,-1445.7076 1673,-1481.7076"/>
<text text-anchor="middle" x="1607" y="-1460.0076" font-family="Courier,monospace" font-size="14.00" fill="#de958e">dash_cytoscape</text>
</g>
<!-- dash_cytoscape&#45;&gt;hidebound.server.components -->
<g id="edge31" class="edge">
<title>dash_cytoscape&#45;&gt;hidebound.server.components</title>
<path fill="none" stroke="#de958e" d="M1673.1104,-1458.3441C1699.2763,-1456.2213 1730.3053,-1453.704 1760.6066,-1451.2457"/>
<polygon fill="#de958e" stroke="#de958e" points="1761.1625,-1454.7122 1770.8467,-1450.4149 1760.5964,-1447.7351 1761.1625,-1454.7122"/>
</g>
<!-- hidebound.server -->
<g id="node20" class="node">
<title>hidebound.server</title>
<polygon fill="#343434" stroke="#343434" points="1389.5,-1280.7076 1240.5,-1280.7076 1240.5,-1244.7076 1389.5,-1244.7076 1389.5,-1280.7076"/>
<text text-anchor="middle" x="1315" y="-1259.0076" font-family="Courier,monospace" font-size="14.00" fill="#a0d17b">hidebound.server</text>
</g>
<!-- hidebound.server&#45;&gt;hidebound.server.api -->
<g id="edge32" class="edge">
<title>hidebound.server&#45;&gt;hidebound.server.api</title>
<path fill="none" stroke="#a0d17b" d="M1389.8113,-1249.6856C1407.4431,-1245.8602 1426.0382,-1241.1981 1443,-1235.7076 1459.6581,-1230.3153 1462.6277,-1225.9138 1479,-1219.7076 1590.589,-1177.4078 1626.0512,-1187.4061 1735,-1138.7076 1778.3968,-1119.3098 1824.9047,-1090.6393 1855.6337,-1070.4715"/>
<polygon fill="#a0d17b" stroke="#a0d17b" points="1857.8479,-1073.2032 1864.2543,-1064.7646 1853.9838,-1067.3663 1857.8479,-1073.2032"/>
</g>
<!-- hidebound.server&#45;&gt;hidebound.server.app -->
<g id="edge33" class="edge">
<title>hidebound.server&#45;&gt;hidebound.server.app</title>
<path fill="none" stroke="#a0d17b" d="M1389.7013,-1257.3875C1517.4256,-1247.6564 1785.7192,-1224.4474 2010,-1186.7076 2024.4967,-1184.2682 2039.8193,-1181.198 2054.6137,-1177.9746"/>
<polygon fill="#a0d17b" stroke="#a0d17b" points="2055.7507,-1181.3075 2064.7551,-1175.7243 2054.2343,-1174.4737 2055.7507,-1181.3075"/>
</g>
<!-- hidebound.server&#45;&gt;hidebound.server.components -->
<g id="edge34" class="edge">
<title>hidebound.server&#45;&gt;hidebound.server.components</title>
<path fill="none" stroke="#a0d17b" d="M1318.9966,-1281.0063C1331.5929,-1333.6335 1375.906,-1485.4026 1479,-1544.7076 1577.624,-1601.4411 1626.1287,-1577.7593 1735,-1544.7076 1785.5639,-1529.3571 1834.667,-1491.5096 1863.7417,-1465.9621"/>
<polygon fill="#a0d17b" stroke="#a0d17b" points="1866.2786,-1468.3887 1871.3957,-1459.1115 1861.6101,-1463.1727 1866.2786,-1468.3887"/>
</g>
<!-- hidebound.server&#45;&gt;hidebound.server.server_tools -->
<g id="edge35" class="edge">
<title>hidebound.server&#45;&gt;hidebound.server.server_tools</title>
<path fill="none" stroke="#a0d17b" d="M1389.6432,-1256.9372C1408.2224,-1252.9121 1427.2987,-1246.3424 1443,-1235.7076 1466.8819,-1219.5319 1457.7308,-1201.1914 1479,-1181.7076 1500.529,-1161.9858 1528.6226,-1145.8318 1553.0037,-1134.0314"/>
<polygon fill="#a0d17b" stroke="#a0d17b" points="1554.591,-1137.1526 1562.1448,-1129.7235 1551.6069,-1130.8205 1554.591,-1137.1526"/>
</g>
<!-- dash.dependencies -->
<g id="node21" class="node">
<title>dash.dependencies</title>
<polygon fill="#343434" stroke="#343434" points="1969,-944.7076 1812,-944.7076 1812,-908.7076 1969,-908.7076 1969,-944.7076"/>
<text text-anchor="middle" x="1890.5" y="-923.0076" font-family="Courier,monospace" font-size="14.00" fill="#de958e">dash.dependencies</text>
</g>
<!-- dash.dependencies&#45;&gt;hidebound.server.app -->
<g id="edge36" class="edge">
<title>dash.dependencies&#45;&gt;hidebound.server.app</title>
<path fill="none" stroke="#de958e" d="M1969.1863,-938.8683C1983.647,-943.4971 1997.9581,-949.8869 2010,-958.7076 2041.6169,-981.8669 2096.8742,-1081.4876 2122.804,-1130.4001"/>
<polygon fill="#de958e" stroke="#de958e" points="2119.8246,-1132.2539 2127.5832,-1139.4688 2126.0173,-1128.9904 2119.8246,-1132.2539"/>
</g>
<!-- dash_html_components -->
<g id="node22" class="node">
<title>dash_html_components</title>
<polygon fill="#343434" stroke="#343434" points="1698,-1351.7076 1516,-1351.7076 1516,-1315.7076 1698,-1315.7076 1698,-1351.7076"/>
<text text-anchor="middle" x="1607" y="-1330.0076" font-family="Courier,monospace" font-size="14.00" fill="#de958e">dash_html_components</text>
</g>
<!-- dash_html_components&#45;&gt;hidebound.server.app -->
<g id="edge37" class="edge">
<title>dash_html_components&#45;&gt;hidebound.server.app</title>
<path fill="none" stroke="#de958e" d="M1698.0628,-1337.6872C1782.9114,-1337.8037 1910.8776,-1328.5991 2010,-1280.7076 2056.0327,-1258.4666 2095.9257,-1213.0999 2118.1823,-1184.1142"/>
<polygon fill="#de958e" stroke="#de958e" points="2121.0352,-1186.1438 2124.2467,-1176.0473 2115.44,-1181.9374 2121.0352,-1186.1438"/>
</g>
<!-- dash_html_components&#45;&gt;hidebound.server.components -->
<g id="edge38" class="edge">
<title>dash_html_components&#45;&gt;hidebound.server.components</title>
<path fill="none" stroke="#de958e" d="M1689.6886,-1351.7404C1704.9236,-1355.8051 1720.5686,-1360.4856 1735,-1365.7076 1774.8454,-1380.1255 1818.1056,-1401.4921 1848.8571,-1417.7355"/>
<polygon fill="#de958e" stroke="#de958e" points="1847.5104,-1420.9838 1857.9814,-1422.5988 1850.8029,-1414.8065 1847.5104,-1420.9838"/>
</g>
<!-- dash_table -->
<g id="node23" class="node">
<title>dash_table</title>
<polygon fill="#343434" stroke="#343434" points="1656.5,-1297.7076 1557.5,-1297.7076 1557.5,-1261.7076 1656.5,-1261.7076 1656.5,-1297.7076"/>
<text text-anchor="middle" x="1607" y="-1276.0076" font-family="Courier,monospace" font-size="14.00" fill="#de958e">dash_table</text>
</g>
<!-- dash_table&#45;&gt;hidebound.server.app -->
<g id="edge39" class="edge">
<title>dash_table&#45;&gt;hidebound.server.app</title>
<path fill="none" stroke="#de958e" d="M1656.5269,-1284.0258C1734.3615,-1289.0172 1888.9243,-1291.6125 2010,-1247.7076 2048.8021,-1233.637 2086.5102,-1204.3201 2110.618,-1182.9579"/>
<polygon fill="#de958e" stroke="#de958e" points="2113.1851,-1185.3552 2118.2542,-1176.0517 2108.4898,-1180.1635 2113.1851,-1185.3552"/>
</g>
<!-- dash_table&#45;&gt;hidebound.server.components -->
<g id="edge40" class="edge">
<title>dash_table&#45;&gt;hidebound.server.components</title>
<path fill="none" stroke="#de958e" d="M1656.6194,-1284.2825C1681.1698,-1287.9864 1710.6761,-1294.6691 1735,-1306.7076 1789.2412,-1333.5529 1839.9483,-1383.7502 1867.9404,-1414.5034"/>
<polygon fill="#de958e" stroke="#de958e" points="1865.6054,-1417.1421 1874.8868,-1422.2516 1870.8174,-1412.4694 1865.6054,-1417.1421"/>
</g>
<!-- rolling_pin.blob_etl -->
<g id="node24" class="node">
<title>rolling_pin.blob_etl</title>
<polygon fill="#343434" stroke="#343434" points="1698,-1535.7076 1516,-1535.7076 1516,-1499.7076 1698,-1499.7076 1698,-1535.7076"/>
<text text-anchor="middle" x="1607" y="-1514.0076" font-family="Courier,monospace" font-size="14.00" fill="#de958e">rolling_pin.blob_etl</text>
</g>
<!-- rolling_pin.blob_etl&#45;&gt;hidebound.server.components -->
<g id="edge41" class="edge">
<title>rolling_pin.blob_etl&#45;&gt;hidebound.server.components</title>
<path fill="none" stroke="#de958e" d="M1698.1762,-1499.6827C1710.5985,-1496.8751 1723.1465,-1493.8545 1735,-1490.7076 1766.3826,-1482.3761 1800.7997,-1471.495 1829.2589,-1462.0118"/>
<polygon fill="#de958e" stroke="#de958e" points="1830.695,-1465.2217 1839.062,-1458.7222 1828.4681,-1458.5854 1830.695,-1465.2217"/>
</g>
<!-- dash.exceptions -->
<g id="node25" class="node">
<title>dash.exceptions</title>
<polygon fill="#343434" stroke="#343434" points="1960.5,-890.7076 1820.5,-890.7076 1820.5,-854.7076 1960.5,-854.7076 1960.5,-890.7076"/>
<text text-anchor="middle" x="1890.5" y="-869.0076" font-family="Courier,monospace" font-size="14.00" fill="#de958e">dash.exceptions</text>
</g>
<!-- dash.exceptions&#45;&gt;hidebound.server.app -->
<g id="edge42" class="edge">
<title>dash.exceptions&#45;&gt;hidebound.server.app</title>
<path fill="none" stroke="#de958e" d="M1960.5357,-877.8397C1978.0724,-881.8539 1995.888,-888.5779 2010,-899.7076 2085.8891,-959.5585 2119.628,-1076.4321 2131.5676,-1129.857"/>
<polygon fill="#de958e" stroke="#de958e" points="2128.151,-1130.6171 2133.6709,-1139.6603 2134.9952,-1129.1486 2128.151,-1130.6171"/>
</g>
<!-- flask -->
<g id="node26" class="node">
<title>flask</title>
<polygon fill="#343434" stroke="#343434" points="1344,-1226.7076 1286,-1226.7076 1286,-1190.7076 1344,-1190.7076 1344,-1226.7076"/>
<text text-anchor="middle" x="1315" y="-1205.0076" font-family="Courier,monospace" font-size="14.00" fill="#de958e">flask</text>
</g>
<!-- flask&#45;&gt;hidebound.server.api -->
<g id="edge43" class="edge">
<title>flask&#45;&gt;hidebound.server.api</title>
<path fill="none" stroke="#de958e" d="M1344.1581,-1210.1752C1372.6308,-1210.0243 1415.5679,-1205.3653 1443,-1181.7076 1477.8232,-1151.6757 1442.4972,-1112.6739 1479,-1084.7076 1525.9651,-1048.7257 1683.215,-1043.3344 1789.1525,-1044.0522"/>
<polygon fill="#de958e" stroke="#de958e" points="1789.2089,-1047.5527 1799.239,-1044.1399 1789.2698,-1040.553 1789.2089,-1047.5527"/>
</g>
<!-- flask&#45;&gt;hidebound.server.app -->
<g id="edge44" class="edge">
<title>flask&#45;&gt;hidebound.server.app</title>
<path fill="none" stroke="#de958e" d="M1344.2554,-1206.8925C1454.4813,-1200.0536 1847.9588,-1175.6408 2035.7937,-1163.9868"/>
<polygon fill="#de958e" stroke="#de958e" points="2036.1856,-1167.4693 2045.9496,-1163.3567 2035.752,-1160.4827 2036.1856,-1167.4693"/>
</g>
<!-- flask&#45;&gt;hidebound.server.components -->
<g id="edge45" class="edge">
<title>flask&#45;&gt;hidebound.server.components</title>
<path fill="none" stroke="#de958e" d="M1344.0049,-1206.8127C1372.7718,-1206.5738 1416.3074,-1210.8838 1443,-1235.7076 1485.3356,-1275.0791 1435.8571,-1322.2224 1479,-1360.7076 1565.095,-1437.5078 1621.9283,-1380.786 1735,-1403.7076 1759.2622,-1408.6259 1785.4978,-1414.6095 1809.3853,-1420.3186"/>
<polygon fill="#de958e" stroke="#de958e" points="1808.5724,-1423.7229 1819.1137,-1422.6593 1810.2099,-1416.9171 1808.5724,-1423.7229"/>
</g>
<!-- flask&#45;&gt;hidebound.server.server_tools -->
<g id="edge46" class="edge">
<title>flask&#45;&gt;hidebound.server.server_tools</title>
<path fill="none" stroke="#de958e" d="M1344.1817,-1207.4862C1371.3139,-1205.2498 1412.0818,-1199.0082 1443,-1181.7076 1463.3022,-1170.3473 1458.912,-1155.4424 1479,-1143.7076 1485.6753,-1139.8081 1492.8152,-1136.3806 1500.1813,-1133.3684"/>
<polygon fill="#de958e" stroke="#de958e" points="1501.5182,-1136.6045 1509.6146,-1129.7708 1499.0238,-1130.064 1501.5182,-1136.6045"/>
</g>
<!-- jinja2 -->
<g id="node27" class="node">
<title>jinja2</title>
<polygon fill="#343434" stroke="#343434" points="1348,-1172.7076 1282,-1172.7076 1282,-1136.7076 1348,-1136.7076 1348,-1172.7076"/>
<text text-anchor="middle" x="1315" y="-1151.0076" font-family="Courier,monospace" font-size="14.00" fill="#de958e">jinja2</text>
</g>
<!-- jinja2&#45;&gt;hidebound.server.server_tools -->
<g id="edge47" class="edge">
<title>jinja2&#45;&gt;hidebound.server.server_tools</title>
<path fill="none" stroke="#de958e" d="M1348.2118,-1149.8168C1379.3319,-1145.234 1427.9325,-1138.0771 1474.6521,-1131.1972"/>
<polygon fill="#de958e" stroke="#de958e" points="1475.2026,-1134.6539 1484.586,-1129.7343 1474.1828,-1127.7286 1475.2026,-1134.6539"/>
</g>
<!-- hidebound.exporters -->
<g id="node28" class="node">
<title>hidebound.exporters</title>
<polygon fill="#343434" stroke="#343434" points="476.5,-186.7076 303.5,-186.7076 303.5,-150.7076 476.5,-150.7076 476.5,-186.7076"/>
<text text-anchor="middle" x="390" y="-165.0076" font-family="Courier,monospace" font-size="14.00" fill="#a0d17b">hidebound.exporters</text>
</g>
<!-- hidebound.exporters&#45;&gt;hidebound.exporters.exporter_base -->
<g id="edge48" class="edge">
<title>hidebound.exporters&#45;&gt;hidebound.exporters.exporter_base</title>
<path fill="none" stroke="#a0d17b" d="M476.7918,-168.7076C487.7098,-168.7076 499.125,-168.7076 510.7034,-168.7076"/>
<polygon fill="#a0d17b" stroke="#a0d17b" points="510.912,-172.2077 520.912,-168.7076 510.912,-165.2077 510.912,-172.2077"/>
</g>
<!-- hidebound.exporters&#45;&gt;hidebound.exporters.girder_exporter -->
<g id="edge49" class="edge">
<title>hidebound.exporters&#45;&gt;hidebound.exporters.girder_exporter</title>
<path fill="none" stroke="#a0d17b" d="M456.6225,-150.7011C540.7477,-131.0505 689.0976,-106.7375 810,-141.7076 873.5015,-160.0749 936.1802,-206.9081 970.8648,-236.0448"/>
<polygon fill="#a0d17b" stroke="#a0d17b" points="968.7732,-238.861 978.6529,-242.6874 973.3157,-233.5351 968.7732,-238.861"/>
</g>
<!-- flasgger -->
<g id="node29" class="node">
<title>flasgger</title>
<polygon fill="#343434" stroke="#343434" points="1648.5,-844.7076 1565.5,-844.7076 1565.5,-808.7076 1648.5,-808.7076 1648.5,-844.7076"/>
<text text-anchor="middle" x="1607" y="-823.0076" font-family="Courier,monospace" font-size="14.00" fill="#de958e">flasgger</text>
</g>
<!-- flasgger&#45;&gt;hidebound.server.api -->
<g id="edge50" class="edge">
<title>flasgger&#45;&gt;hidebound.server.api</title>
<path fill="none" stroke="#de958e" d="M1648.6945,-824.8955C1676.549,-825.9716 1712.1391,-832.1021 1735,-853.7076 1779.5068,-895.7702 1732.2605,-939.28 1771,-986.7076 1784.3778,-1003.0856 1803.3659,-1015.405 1822.2778,-1024.4804"/>
<polygon fill="#de958e" stroke="#de958e" points="1820.9781,-1027.734 1831.5308,-1028.6785 1823.8704,-1021.3595 1820.9781,-1027.734"/>
</g>
<!-- flasgger&#45;&gt;hidebound.server.app -->
<g id="edge51" class="edge">
<title>flasgger&#45;&gt;hidebound.server.app</title>
<path fill="none" stroke="#de958e" d="M1648.7676,-815.2619C1727.5224,-796.3352 1899.9242,-767.841 2010,-845.7076 2105.6822,-913.3923 2129.3872,-1066.3089 2135.1705,-1129.5326"/>
<polygon fill="#de958e" stroke="#de958e" points="2131.6885,-1129.8952 2136.0047,-1139.5709 2138.6644,-1129.3154 2131.6885,-1129.8952"/>
</g>
<!-- pandasql -->
<g id="node30" class="node">
<title>pandasql</title>
<polygon fill="#343434" stroke="#343434" points="1356.5,-460.7076 1273.5,-460.7076 1273.5,-424.7076 1356.5,-424.7076 1356.5,-460.7076"/>
<text text-anchor="middle" x="1315" y="-439.0076" font-family="Courier,monospace" font-size="14.00" fill="#de958e">pandasql</text>
</g>
<!-- pandasql&#45;&gt;hidebound.core.database -->
<g id="edge52" class="edge">
<title>pandasql&#45;&gt;hidebound.core.database</title>
<path fill="none" stroke="#de958e" d="M1356.6865,-439.6924C1385.2824,-440.0842 1421.7637,-445.8912 1443,-469.7076 1500.0401,-533.6779 1421.9599,-789.7373 1479,-853.7076 1483.6714,-858.9466 1489.0805,-863.3141 1494.9811,-866.9442"/>
<polygon fill="#de958e" stroke="#de958e" points="1493.4818,-870.1116 1503.9491,-871.7508 1496.7886,-863.9419 1493.4818,-870.1116"/>
</g>
<!-- hidebound -->
<g id="node31" class="node">
<title>hidebound</title>
<polygon fill="#343434" stroke="#343434" points="91,-562.7076 0,-562.7076 0,-526.7076 91,-526.7076 91,-562.7076"/>
<text text-anchor="middle" x="45.5" y="-541.0076" font-family="Courier,monospace" font-size="14.00" fill="#a0d17b">hidebound</text>
</g>
<!-- hidebound&#45;&gt;hidebound.server -->
<g id="edge53" class="edge">
<title>hidebound&#45;&gt;hidebound.server</title>
<path fill="none" stroke="#a0d17b" d="M46.2053,-563.0486C51.3596,-669.6434 92.0707,-1204.7076 390,-1204.7076 390,-1204.7076 390,-1204.7076 665.5,-1204.7076 868.6595,-1204.7076 1106.1525,-1233.2085 1230.012,-1250.2523"/>
<polygon fill="#a0d17b" stroke="#a0d17b" points="1229.7995,-1253.7562 1240.1852,-1251.6617 1230.7601,-1246.8225 1229.7995,-1253.7562"/>
</g>
<!-- hidebound&#45;&gt;hidebound.exporters -->
<g id="edge54" class="edge">
<title>hidebound&#45;&gt;hidebound.exporters</title>
<path fill="none" stroke="#a0d17b" d="M82.6085,-526.6009C85.7747,-523.959 88.6566,-521.0004 91,-517.7076 137.2934,-452.6566 82.224,-407.8123 127,-341.7076 177.3311,-267.4015 271.3093,-217.2394 332.2284,-190.8215"/>
<polygon fill="#a0d17b" stroke="#a0d17b" points="333.8798,-193.9225 341.71,-186.7854 331.138,-187.4818 333.8798,-193.9225"/>
</g>
<!-- hidebound.core -->
<g id="node35" class="node">
<title>hidebound.core</title>
<polygon fill="#343434" stroke="#343434" points="259,-562.7076 127,-562.7076 127,-526.7076 259,-526.7076 259,-562.7076"/>
<text text-anchor="middle" x="193" y="-541.0076" font-family="Courier,monospace" font-size="14.00" fill="#a0d17b">hidebound.core</text>
</g>
<!-- hidebound&#45;&gt;hidebound.core -->
<g id="edge55" class="edge">
<title>hidebound&#45;&gt;hidebound.core</title>
<path fill="none" stroke="#a0d17b" d="M91.3614,-544.7076C99.4456,-544.7076 108.0541,-544.7076 116.7093,-544.7076"/>
<polygon fill="#a0d17b" stroke="#a0d17b" points="116.8627,-548.2077 126.8626,-544.7076 116.8626,-541.2077 116.8627,-548.2077"/>
</g>
<!-- lunchbox.tools -->
<g id="node32" class="node">
<title>lunchbox.tools</title>
<polygon fill="#343434" stroke="#343434" points="1064.5,-966.7076 932.5,-966.7076 932.5,-930.7076 1064.5,-930.7076 1064.5,-966.7076"/>
<text text-anchor="middle" x="998.5" y="-945.0076" font-family="Courier,monospace" font-size="14.00" fill="#de958e">lunchbox.tools</text>
</g>
<!-- lunchbox.tools&#45;&gt;hidebound.core.database_tools -->
<g id="edge56" class="edge">
<title>lunchbox.tools&#45;&gt;hidebound.core.database_tools</title>
<path fill="none" stroke="#de958e" d="M1064.736,-943.1146C1092.161,-939.2465 1123.8393,-932.7174 1151,-921.7076 1203.0627,-900.6034 1255.4776,-861.2189 1286.5849,-835.4876"/>
<polygon fill="#de958e" stroke="#de958e" points="1288.9823,-838.0451 1294.3984,-828.9393 1284.486,-832.68 1288.9823,-838.0451"/>
</g>
<!-- lunchbox.tools&#45;&gt;hidebound.server.server_tools -->
<g id="edge57" class="edge">
<title>lunchbox.tools&#45;&gt;hidebound.server.server_tools</title>
<path fill="none" stroke="#de958e" d="M1064.7785,-966.4617C1178.1788,-996.8385 1408.841,-1058.6264 1529.5016,-1090.9479"/>
<polygon fill="#de958e" stroke="#de958e" points="1528.8468,-1094.3959 1539.4119,-1093.6026 1530.6581,-1087.6343 1528.8468,-1094.3959"/>
</g>
<!-- girder_client -->
<g id="node33" class="node">
<title>girder_client</title>
<polygon fill="#343434" stroke="#343434" points="727.5,-278.7076 603.5,-278.7076 603.5,-242.7076 727.5,-242.7076 727.5,-278.7076"/>
<text text-anchor="middle" x="665.5" y="-257.0076" font-family="Courier,monospace" font-size="14.00" fill="#de958e">girder_client</text>
</g>
<!-- girder_client&#45;&gt;hidebound.exporters.girder_exporter -->
<g id="edge58" class="edge">
<title>girder_client&#45;&gt;hidebound.exporters.girder_exporter</title>
<path fill="none" stroke="#de958e" d="M727.7441,-260.7076C758.5033,-260.7076 797.2059,-260.7076 835.6489,-260.7076"/>
<polygon fill="#de958e" stroke="#de958e" points="835.9429,-264.2077 845.9428,-260.7076 835.9428,-257.2077 835.9429,-264.2077"/>
</g>
<!-- numpy -->
<g id="node34" class="node">
<title>numpy</title>
<polygon fill="#343434" stroke="#343434" points="1027.5,-912.7076 969.5,-912.7076 969.5,-876.7076 1027.5,-876.7076 1027.5,-912.7076"/>
<text text-anchor="middle" x="998.5" y="-891.0076" font-family="Courier,monospace" font-size="14.00" fill="#de958e">numpy</text>
</g>
<!-- numpy&#45;&gt;hidebound.core.database -->
<g id="edge59" class="edge">
<title>numpy&#45;&gt;hidebound.core.database</title>
<path fill="none" stroke="#de958e" d="M1027.8492,-894.0323C1110.7315,-892.1254 1349.8626,-886.6236 1493.6209,-883.3161"/>
<polygon fill="#de958e" stroke="#de958e" points="1493.8864,-886.811 1503.8032,-883.0819 1493.7253,-879.8129 1493.8864,-886.811"/>
</g>
<!-- numpy&#45;&gt;hidebound.core.database_tools -->
<g id="edge60" class="edge">
<title>numpy&#45;&gt;hidebound.core.database_tools</title>
<path fill="none" stroke="#de958e" d="M1027.6541,-889.4903C1058.4963,-883.7615 1108.4831,-873.8788 1151,-862.7076 1185.0181,-853.7694 1222.4406,-842.0516 1252.9378,-832.0026"/>
<polygon fill="#de958e" stroke="#de958e" points="1254.193,-835.2739 1262.5831,-828.8042 1251.9897,-828.6296 1254.193,-835.2739"/>
</g>
<!-- numpy&#45;&gt;hidebound.server.api -->
<g id="edge61" class="edge">
<title>numpy&#45;&gt;hidebound.server.api</title>
<path fill="none" stroke="#de958e" d="M1027.7112,-898.9023C1127.061,-913.2806 1460.9416,-962.5186 1735,-1013.7076 1755.8434,-1017.6007 1778.1823,-1022.1295 1799.2414,-1026.5617"/>
<polygon fill="#de958e" stroke="#de958e" points="1798.6315,-1030.0101 1809.1396,-1028.6573 1800.0814,-1023.1619 1798.6315,-1030.0101"/>
</g>
<!-- hidebound.core&#45;&gt;hidebound.core.config -->
<g id="edge62" class="edge">
<title>hidebound.core&#45;&gt;hidebound.core.config</title>
<path fill="none" stroke="#a0d17b" d="M203.0454,-526.5111C217.7471,-499.0376 244.9029,-444.9379 259,-395.7076 274.6936,-340.9017 253.7303,-181.0368 295,-141.7076 571.1802,121.4873 811.4996,-31.6772 1151,-205.7076 1207.9511,-234.9011 1262.1861,-287.3468 1291.7935,-318.7989"/>
<polygon fill="#a0d17b" stroke="#a0d17b" points="1289.4063,-321.3718 1298.7768,-326.316 1294.5348,-316.6074 1289.4063,-321.3718"/>
</g>
<!-- hidebound.core&#45;&gt;hidebound.core.database -->
<g id="edge63" class="edge">
<title>hidebound.core&#45;&gt;hidebound.core.database</title>
<path fill="none" stroke="#a0d17b" d="M223.0766,-562.9408C236.4145,-572.6961 250.8968,-585.9558 259,-601.7076 298.9155,-679.299 231.3943,-932.9749 295,-992.7076 572.3741,-1253.192 771.751,-1039.6709 1151,-1008.7076 1282.0834,-998.0054 1317.6849,-1000.6264 1443,-960.7076 1487.6969,-946.4695 1535.5571,-921.9363 1567.9663,-903.7819"/>
<polygon fill="#a0d17b" stroke="#a0d17b" points="1569.7065,-906.8188 1576.6822,-898.8444 1566.2562,-900.7281 1569.7065,-906.8188"/>
</g>
<!-- hidebound.core&#45;&gt;hidebound.core.database_tools -->
<g id="edge64" class="edge">
<title>hidebound.core&#45;&gt;hidebound.core.database_tools</title>
<path fill="none" stroke="#a0d17b" d="M221.079,-562.744C234.4453,-572.7038 249.5386,-586.1976 259,-601.7076 294.4789,-659.868 242.7285,-707.0146 295,-750.7076 311.6897,-764.6583 901.9256,-792.468 1176.764,-804.699"/>
<polygon fill="#a0d17b" stroke="#a0d17b" points="1176.6615,-808.1978 1186.8071,-805.1453 1176.9723,-801.2047 1176.6615,-808.1978"/>
</g>
<!-- hidebound.core&#45;&gt;hidebound.core.parser -->
<g id="edge65" class="edge">
<title>hidebound.core&#45;&gt;hidebound.core.parser</title>
<path fill="none" stroke="#a0d17b" d="M235.2614,-562.7277C265.411,-575.5833 306.132,-592.9466 338.2331,-606.6344"/>
<polygon fill="#a0d17b" stroke="#a0d17b" points="336.8975,-609.8697 347.469,-610.5725 339.6431,-603.4307 336.8975,-609.8697"/>
</g>
<!-- hidebound.core&#45;&gt;hidebound.core.specification_base -->
<g id="edge66" class="edge">
<title>hidebound.core&#45;&gt;hidebound.core.specification_base</title>
<path fill="none" stroke="#a0d17b" d="M259.2597,-547.7512C386.2532,-553.5845 666.9653,-566.4788 843.6058,-574.5926"/>
<polygon fill="#a0d17b" stroke="#a0d17b" points="843.6233,-578.097 853.7734,-575.0597 843.9446,-571.1044 843.6233,-578.097"/>
</g>
<!-- hidebound.core&#45;&gt;hidebound.core.specifications -->
<g id="edge67" class="edge">
<title>hidebound.core&#45;&gt;hidebound.core.specifications</title>
<path fill="none" stroke="#a0d17b" d="M202.9665,-526.613C218.5975,-500.3566 251.6278,-452.7554 295,-433.7076 373.599,-399.1891 916.3412,-452.8715 1176.5062,-481.1219"/>
<polygon fill="#a0d17b" stroke="#a0d17b" points="1176.4603,-484.6375 1186.7803,-482.2403 1177.2178,-477.6786 1176.4603,-484.6375"/>
</g>
<!-- hidebound.core&#45;&gt;hidebound.core.tools -->
<g id="edge68" class="edge">
<title>hidebound.core&#45;&gt;hidebound.core.tools</title>
<path fill="none" stroke="#a0d17b" d="M221.712,-562.8162C235.0684,-572.7077 249.9649,-586.1202 259,-601.7076 301.0067,-674.1778 232.7139,-730.6992 295,-786.7076 370.657,-854.7393 493.5712,-851.1372 576.8882,-838.3152"/>
<polygon fill="#a0d17b" stroke="#a0d17b" points="577.5311,-841.7569 586.8467,-836.7101 576.4171,-834.8461 577.5311,-841.7569"/>
</g>
<!-- hidebound.core&#45;&gt;hidebound.core.traits -->
<g id="edge69" class="edge">
<title>hidebound.core&#45;&gt;hidebound.core.traits</title>
<path fill="none" stroke="#a0d17b" d="M201.2185,-526.4168C215.7979,-495.9795 249.0378,-434.9072 295,-400.7076 299.7407,-397.1801 304.895,-394.0255 310.2697,-391.2067"/>
<polygon fill="#a0d17b" stroke="#a0d17b" points="311.9936,-394.2615 319.4892,-386.7737 308.9601,-387.9529 311.9936,-394.2615"/>
</g>
<!-- hidebound.core&#45;&gt;hidebound.core.validators -->
<g id="edge70" class="edge">
<title>hidebound.core&#45;&gt;hidebound.core.validators</title>
<path fill="none" stroke="#a0d17b" d="M259.056,-535.1479C271.0061,-533.559 283.3647,-532.0077 295,-530.7076 377.8822,-521.4462 471.4541,-513.3837 543.8255,-507.6683"/>
<polygon fill="#a0d17b" stroke="#a0d17b" points="544.1982,-511.1499 553.8934,-506.8775 543.65,-504.1714 544.1982,-511.1499"/>
</g>
<!-- pandas -->
<g id="node36" class="node">
<title>pandas</title>
<polygon fill="#343434" stroke="#343434" points="423,-983.7076 357,-983.7076 357,-947.7076 423,-947.7076 423,-983.7076"/>
<text text-anchor="middle" x="390" y="-962.0076" font-family="Courier,monospace" font-size="14.00" fill="#de958e">pandas</text>
</g>
<!-- pandas&#45;&gt;hidebound.core.database -->
<g id="edge71" class="edge">
<title>pandas&#45;&gt;hidebound.core.database</title>
<path fill="none" stroke="#de958e" d="M423.1232,-975.5308C555.99,-1013.2084 1061.5098,-1139.9595 1443,-1008.7076 1501.8765,-988.4511 1555.8269,-937.4321 1584.787,-906.2672"/>
<polygon fill="#de958e" stroke="#de958e" points="1587.4436,-908.5484 1591.5991,-898.8026 1582.273,-903.8299 1587.4436,-908.5484"/>
</g>
<!-- pandas&#45;&gt;hidebound.core.database_tools -->
<g id="edge72" class="edge">
<title>pandas&#45;&gt;hidebound.core.database_tools</title>
<path fill="none" stroke="#de958e" d="M423.268,-957.471C498.276,-939.14 686.4858,-894.4849 846,-867.7076 907.6028,-857.3664 1061.9204,-839.1535 1176.8225,-826.0963"/>
<polygon fill="#de958e" stroke="#de958e" points="1177.2239,-829.5733 1186.7655,-824.968 1176.4346,-822.6179 1177.2239,-829.5733"/>
</g>
<!-- pandas&#45;&gt;hidebound.core.tools -->
<g id="edge73" class="edge">
<title>pandas&#45;&gt;hidebound.core.tools</title>
<path fill="none" stroke="#de958e" d="M423.2317,-947.9759C473.153,-921.3392 567.5027,-870.9965 622.5724,-841.6127"/>
<polygon fill="#de958e" stroke="#de958e" points="624.5444,-844.5276 631.7194,-836.7321 621.2491,-838.3518 624.5444,-844.5276"/>
</g>
<!-- pandas&#45;&gt;hidebound.server.components -->
<g id="edge74" class="edge">
<title>pandas&#45;&gt;hidebound.server.components</title>
<path fill="none" stroke="#de958e" d="M401.5819,-983.9863C456.7373,-1068.5483 702.4031,-1417.7076 998.5,-1417.7076 998.5,-1417.7076 998.5,-1417.7076 1315,-1417.7076 1468.2717,-1417.7076 1644.3219,-1425.9534 1760.9229,-1432.5705"/>
<polygon fill="#de958e" stroke="#de958e" points="1760.7811,-1436.068 1770.9647,-1433.1447 1761.1808,-1429.0794 1760.7811,-1436.068"/>
</g>
<!-- schematics -->
<g id="node37" class="node">
<title>schematics</title>
<polygon fill="#343434" stroke="#343434" points="715,-332.7076 616,-332.7076 616,-296.7076 715,-296.7076 715,-332.7076"/>
<text text-anchor="middle" x="665.5" y="-311.0076" font-family="Courier,monospace" font-size="14.00" fill="#de958e">schematics</text>
</g>
<!-- schematics&#45;&gt;hidebound.core.config -->
<g id="edge75" class="edge">
<title>schematics&#45;&gt;hidebound.core.config</title>
<path fill="none" stroke="#de958e" d="M715.1186,-316.9994C820.3131,-321.8583 1067.7039,-333.2851 1209.7542,-339.8463"/>
<polygon fill="#de958e" stroke="#de958e" points="1209.6455,-343.345 1219.7964,-340.3102 1209.9686,-336.3524 1209.6455,-343.345"/>
</g>
<!-- schematics&#45;&gt;hidebound.core.specification_base -->
<g id="edge76" class="edge">
<title>schematics&#45;&gt;hidebound.core.specification_base</title>
<path fill="none" stroke="#de958e" d="M715.0982,-315.3664C744.5242,-317.7664 781.5178,-324.4455 810,-341.7076 897.2615,-394.5936 959.9115,-503.7357 985.5947,-554.5605"/>
<polygon fill="#de958e" stroke="#de958e" points="982.5153,-556.2289 990.0965,-563.63 988.7854,-553.1166 982.5153,-556.2289"/>
</g>
<!-- schematics&#45;&gt;hidebound.exporters.girder_exporter -->
<g id="edge77" class="edge">
<title>schematics&#45;&gt;hidebound.exporters.girder_exporter</title>
<path fill="none" stroke="#de958e" d="M715.3535,-306.6232C758.058,-299.6982 821.3363,-289.4368 877.248,-280.3701"/>
<polygon fill="#de958e" stroke="#de958e" points="877.9226,-283.8065 887.2334,-278.7508 876.802,-276.8967 877.9226,-283.8065"/>
</g>
<!-- schematics.types -->
<g id="node38" class="node">
<title>schematics.types</title>
<polygon fill="#343434" stroke="#343434" points="740,-386.7076 591,-386.7076 591,-350.7076 740,-350.7076 740,-386.7076"/>
<text text-anchor="middle" x="665.5" y="-365.0076" font-family="Courier,monospace" font-size="14.00" fill="#de958e">schematics.types</text>
</g>
<!-- schematics.types&#45;&gt;hidebound.core.config -->
<g id="edge78" class="edge">
<title>schematics.types&#45;&gt;hidebound.core.config</title>
<path fill="none" stroke="#de958e" d="M740.0059,-365.9545C855.4538,-361.6885 1077.9609,-353.4665 1209.7647,-348.5962"/>
<polygon fill="#de958e" stroke="#de958e" points="1210.014,-352.0895 1219.8779,-348.2225 1209.7554,-345.0942 1210.014,-352.0895"/>
</g>
<!-- schematics.types&#45;&gt;hidebound.core.specification_base -->
<g id="edge79" class="edge">
<title>schematics.types&#45;&gt;hidebound.core.specification_base</title>
<path fill="none" stroke="#de958e" d="M693.8914,-386.8678C754.1012,-425.3804 894.5598,-515.2233 961.6074,-558.1096"/>
<polygon fill="#de958e" stroke="#de958e" points="959.8704,-561.1533 970.1805,-563.5933 963.6423,-555.2564 959.8704,-561.1533"/>
</g>
<!-- schematics.types&#45;&gt;hidebound.core.specifications -->
<g id="edge80" class="edge">
<title>schematics.types&#45;&gt;hidebound.core.specifications</title>
<path fill="none" stroke="#de958e" d="M740.1656,-370.7354C867.7247,-374.76 1117.1909,-385.2804 1151,-406.7076 1178.2392,-423.971 1160.9375,-450.7142 1187,-469.7076 1188.8641,-471.0661 1190.7818,-472.3593 1192.7458,-473.5902"/>
<polygon fill="#de958e" stroke="#de958e" points="1191.2019,-476.7376 1201.6321,-478.598 1194.6386,-470.6393 1191.2019,-476.7376"/>
</g>
<!-- schematics.types&#45;&gt;hidebound.exporters.girder_exporter -->
<g id="edge81" class="edge">
<title>schematics.types&#45;&gt;hidebound.exporters.girder_exporter</title>
<path fill="none" stroke="#de958e" d="M740.1419,-358.0076C762.8284,-353.8903 787.659,-348.5032 810,-341.7076 860.7356,-326.2749 916.2141,-301.3962 953.7587,-283.2784"/>
<polygon fill="#de958e" stroke="#de958e" points="955.4437,-286.3509 962.9038,-278.8277 952.3804,-280.0568 955.4437,-286.3509"/>
</g>
<!-- pyparsing -->
<g id="node39" class="node">
<title>pyparsing</title>
<polygon fill="#343434" stroke="#343434" points="238.5,-646.7076 147.5,-646.7076 147.5,-610.7076 238.5,-610.7076 238.5,-646.7076"/>
<text text-anchor="middle" x="193" y="-625.0076" font-family="Courier,monospace" font-size="14.00" fill="#de958e">pyparsing</text>
</g>
<!-- pyparsing&#45;&gt;hidebound.core.parser -->
<g id="edge82" class="edge">
<title>pyparsing&#45;&gt;hidebound.core.parser</title>
<path fill="none" stroke="#de958e" d="M238.6909,-628.7076C252.6218,-628.7076 268.5536,-628.7076 284.73,-628.7076"/>
<polygon fill="#de958e" stroke="#de958e" points="284.8181,-632.2077 294.818,-628.7076 284.818,-625.2077 284.8181,-632.2077"/>
</g>
<!-- pyparsing&#45;&gt;hidebound.core.specification_base -->
<g id="edge83" class="edge">
<title>pyparsing&#45;&gt;hidebound.core.specification_base</title>
<path fill="none" stroke="#de958e" d="M238.7021,-643.5037C256.1238,-648.4269 276.2899,-653.2732 295,-655.7076 378.7386,-666.603 403.482,-677.7459 485,-655.7076 502.8813,-650.8734 503.3729,-640.3993 521,-634.7076 643.8027,-595.0549 681.795,-621.4152 810,-606.7076 825.2007,-604.9638 841.0759,-603.0319 856.8832,-601.0373"/>
<polygon fill="#de958e" stroke="#de958e" points="857.7746,-604.4522 867.2532,-599.7188 856.8916,-597.5081 857.7746,-604.4522"/>
</g>
<!-- pyparsing&#45;&gt;hidebound.core.validators -->
<g id="edge84" class="edge">
<title>pyparsing&#45;&gt;hidebound.core.validators</title>
<path fill="none" stroke="#de958e" d="M238.7346,-616.1245C320.2083,-593.7085 491.1916,-546.6654 590.2216,-519.4191"/>
<polygon fill="#de958e" stroke="#de958e" points="591.156,-522.7921 599.8693,-516.7647 589.2991,-516.0429 591.156,-522.7921"/>
</g>
<!-- schematics.exceptions -->
<g id="node40" class="node">
<title>schematics.exceptions</title>
<polygon fill="#343434" stroke="#343434" points="485,-741.7076 295,-741.7076 295,-705.7076 485,-705.7076 485,-741.7076"/>
<text text-anchor="middle" x="390" y="-720.0076" font-family="Courier,monospace" font-size="14.00" fill="#de958e">schematics.exceptions</text>
</g>
<!-- schematics.exceptions&#45;&gt;hidebound.core.config -->
<g id="edge85" class="edge">
<title>schematics.exceptions&#45;&gt;hidebound.core.config</title>
<path fill="none" stroke="#de958e" d="M429.8048,-705.5497C449.884,-694.2044 472.5615,-677.5671 485,-655.7076 531.5471,-573.9051 451.6775,-297.3681 521,-233.7076 572.5582,-186.3604 1084.075,-213.1882 1151,-233.7076 1205.615,-250.4526 1258.42,-292.2195 1288.7584,-319.4745"/>
<polygon fill="#de958e" stroke="#de958e" points="1286.5968,-322.2405 1296.3387,-326.4053 1291.3202,-317.0744 1286.5968,-322.2405"/>
</g>
<!-- schematics.exceptions&#45;&gt;hidebound.core.database_tools -->
<g id="edge86" class="edge">
<title>schematics.exceptions&#45;&gt;hidebound.core.database_tools</title>
<path fill="none" stroke="#de958e" d="M485.1956,-720.1807C630.1502,-716.5824 914.3562,-716.5001 1151,-758.7076 1188.0413,-765.3142 1228.3381,-778.0097 1259.7179,-789.2022"/>
<polygon fill="#de958e" stroke="#de958e" points="1258.5625,-792.5062 1269.1567,-792.6191 1260.9452,-785.9242 1258.5625,-792.5062"/>
</g>
<!-- schematics.exceptions&#45;&gt;hidebound.core.specification_base -->
<g id="edge87" class="edge">
<title>schematics.exceptions&#45;&gt;hidebound.core.specification_base</title>
<path fill="none" stroke="#de958e" d="M483.8142,-705.6514C569.1955,-688.7863 698.5446,-662.1543 810,-634.7076 849.3743,-625.0114 892.9815,-612.844 928.3282,-602.6136"/>
<polygon fill="#de958e" stroke="#de958e" points="929.4423,-605.9348 938.0683,-599.7832 927.4888,-599.2128 929.4423,-605.9348"/>
</g>
<!-- schematics.exceptions&#45;&gt;hidebound.core.tools -->
<g id="edge88" class="edge">
<title>schematics.exceptions&#45;&gt;hidebound.core.tools</title>
<path fill="none" stroke="#de958e" d="M442.4679,-741.8C488.3302,-757.6145 554.9858,-780.5992 603.4767,-797.3202"/>
<polygon fill="#de958e" stroke="#de958e" points="602.6327,-800.7314 613.2274,-800.6825 604.9147,-794.1138 602.6327,-800.7314"/>
</g>
<!-- schematics.exceptions&#45;&gt;hidebound.core.validators -->
<g id="edge89" class="edge">
<title>schematics.exceptions&#45;&gt;hidebound.core.validators</title>
<path fill="none" stroke="#de958e" d="M416.7024,-705.6014C436.0182,-692.2628 462.5582,-673.4348 485,-655.7076 541.1202,-611.3773 603.409,-555.6501 638.1768,-523.9149"/>
<polygon fill="#de958e" stroke="#de958e" points="640.977,-526.0966 645.9907,-516.7632 636.2509,-520.9329 640.977,-526.0966"/>
</g>
<!-- schematics.exceptions&#45;&gt;hidebound.server.api -->
<g id="edge90" class="edge">
<title>schematics.exceptions&#45;&gt;hidebound.server.api</title>
<path fill="none" stroke="#de958e" d="M406.4218,-741.9907C429.9853,-767.487 475.574,-814.1367 521,-845.7076 653.6937,-937.929 689.4551,-968.6315 846,-1008.7076 857.3366,-1011.6098 1529.1509,-1034.5267 1789.2209,-1043.3037"/>
<polygon fill="#de958e" stroke="#de958e" points="1789.3089,-1046.8086 1799.4213,-1043.6478 1789.545,-1039.8125 1789.3089,-1046.8086"/>
</g>
<!-- wrapt -->
<g id="node41" class="node">
<title>wrapt</title>
<polygon fill="#343434" stroke="#343434" points="419,-478.7076 361,-478.7076 361,-442.7076 419,-442.7076 419,-478.7076"/>
<text text-anchor="middle" x="390" y="-457.0076" font-family="Courier,monospace" font-size="14.00" fill="#de958e">wrapt</text>
</g>
<!-- wrapt&#45;&gt;hidebound.core.validators -->
<g id="edge91" class="edge">
<title>wrapt&#45;&gt;hidebound.core.validators</title>
<path fill="none" stroke="#de958e" d="M419.2225,-464.7383C449.1543,-468.8668 497.7039,-475.5633 543.8181,-481.9239"/>
<polygon fill="#de958e" stroke="#de958e" points="543.5369,-485.4181 553.9214,-483.3174 544.4935,-478.4838 543.5369,-485.4181"/>
</g>
<!-- skimage.io -->
<g id="node42" class="node">
<title>skimage.io</title>
<polygon fill="#343434" stroke="#343434" points="242.5,-386.7076 143.5,-386.7076 143.5,-350.7076 242.5,-350.7076 242.5,-386.7076"/>
<text text-anchor="middle" x="193" y="-365.0076" font-family="Courier,monospace" font-size="14.00" fill="#de958e">skimage.io</text>
</g>
<!-- skimage.io&#45;&gt;hidebound.core.traits -->
<g id="edge92" class="edge">
<title>skimage.io&#45;&gt;hidebound.core.traits</title>
<path fill="none" stroke="#de958e" d="M242.7114,-368.7076C255.6771,-368.7076 270.1516,-368.7076 284.8245,-368.7076"/>
<polygon fill="#de958e" stroke="#de958e" points="284.9983,-372.2077 294.9983,-368.7076 284.9983,-365.2077 284.9983,-372.2077"/>
</g>
</g>
</svg>
