<?xml version="1.0" encoding="UTF-8" standalone="no"?>
<!DOCTYPE svg PUBLIC "-//W3C//DTD SVG 1.1//EN"
 "http://www.w3.org/Graphics/SVG/1.1/DTD/svg11.dtd">
<!-- Generated by graphviz version 2.40.1 (20161225.0304)
 -->
<!-- Title: %3 Pages: 1 -->
<svg width="2644pt" height="2058pt"
 viewBox="0.00 0.00 2644.00 2057.61" xmlns="http://www.w3.org/2000/svg" xmlns:xlink="http://www.w3.org/1999/xlink">
<g id="graph0" class="graph" transform="scale(1 1) rotate(0) translate(4 2053.6066)">
<title>%3</title>
<polygon fill="#242424" stroke="transparent" points="-4,4 -4,-2053.6066 2640,-2053.6066 2640,4 -4,4"/>
<!-- cli -->
<g id="node1" class="node">
<title>cli</title>
<polygon fill="#343434" stroke="#343434" points="171.5,-1090.9531 117.5,-1090.9531 117.5,-1054.9531 171.5,-1054.9531 171.5,-1090.9531"/>
<text text-anchor="middle" x="144.5" y="-1069.2531" font-family="Courier,monospace" font-size="14.00" fill="#b6ecf3">cli</text>
</g>
<!-- hidebound.core.config -->
<g id="node2" class="node">
<title>hidebound.core.config</title>
<polygon fill="#343434" stroke="#343434" points="1867,-1610.9531 1677,-1610.9531 1677,-1574.9531 1867,-1574.9531 1867,-1610.9531"/>
<text text-anchor="middle" x="1772" y="-1589.2531" font-family="Courier,monospace" font-size="14.00" fill="#b6ecf3">hidebound.core.config</text>
</g>
<!-- hidebound.core.database -->
<g id="node3" class="node">
<title>hidebound.core.database</title>
<polygon fill="#343434" stroke="#343434" points="2134,-1030.9531 1928,-1030.9531 1928,-994.9531 2134,-994.9531 2134,-1030.9531"/>
<text text-anchor="middle" x="2031" y="-1009.2531" font-family="Courier,monospace" font-size="14.00" fill="#b6ecf3">hidebound.core.database</text>
</g>
<!-- hidebound.core.config&#45;&gt;hidebound.core.database -->
<g id="edge1" class="edge">
<title>hidebound.core.config&#45;&gt;hidebound.core.database</title>
<path fill="none" stroke="#b6ecf3" d="M1780.7,-1574.9308C1797.6442,-1539.7268 1836.116,-1459.2875 1867,-1390.9531 1925.8857,-1260.6622 1992.7915,-1103.4015 2019.2986,-1040.707"/>
<polygon fill="#b6ecf3" stroke="#b6ecf3" points="2022.6742,-1041.7103 2023.3416,-1031.1365 2016.226,-1038.9862 2022.6742,-1041.7103"/>
</g>
<!-- hidebound.server.app -->
<g id="node17" class="node">
<title>hidebound.server.app</title>
<polygon fill="#343434" stroke="#343434" points="2636,-332.9531 2454,-332.9531 2454,-296.9531 2636,-296.9531 2636,-332.9531"/>
<text text-anchor="middle" x="2545" y="-311.2531" font-family="Courier,monospace" font-size="14.00" fill="#b6ecf3">hidebound.server.app</text>
</g>
<!-- hidebound.core.config&#45;&gt;hidebound.server.app -->
<g id="edge2" class="edge">
<title>hidebound.core.config&#45;&gt;hidebound.server.app</title>
<path fill="none" stroke="#b6ecf3" d="M1786.7594,-1574.8184C1862.3312,-1481.2818 2210.4448,-1042.0911 2418,-636.9531 2471.5238,-532.4773 2517.3104,-399.9579 2536.0033,-343.0237"/>
<polygon fill="#b6ecf3" stroke="#b6ecf3" points="2539.4026,-343.8886 2539.1742,-333.2962 2532.7472,-341.7191 2539.4026,-343.8886"/>
</g>
<!-- hidebound.server.api -->
<g id="node16" class="node">
<title>hidebound.server.api</title>
<polygon fill="#343434" stroke="#343434" points="2397.5,-627.9531 2215.5,-627.9531 2215.5,-591.9531 2397.5,-591.9531 2397.5,-627.9531"/>
<text text-anchor="middle" x="2306.5" y="-606.2531" font-family="Courier,monospace" font-size="14.00" fill="#b6ecf3">hidebound.server.api</text>
</g>
<!-- hidebound.core.database&#45;&gt;hidebound.server.api -->
<g id="edge3" class="edge">
<title>hidebound.core.database&#45;&gt;hidebound.server.api</title>
<path fill="none" stroke="#b6ecf3" d="M2043.3729,-994.8542C2087.3405,-930.5386 2236.1881,-712.8051 2288.2993,-636.577"/>
<polygon fill="#b6ecf3" stroke="#b6ecf3" points="2291.407,-638.2328 2294.1612,-628.0022 2285.6283,-634.2823 2291.407,-638.2328"/>
</g>
<!-- hidebound.core.database_tools -->
<g id="node4" class="node">
<title>hidebound.core.database_tools</title>
<polygon fill="#343434" stroke="#343434" points="1600,-779.9531 1344,-779.9531 1344,-743.9531 1600,-743.9531 1600,-779.9531"/>
<text text-anchor="middle" x="1472" y="-758.2531" font-family="Courier,monospace" font-size="14.00" fill="#b6ecf3">hidebound.core.database_tools</text>
</g>
<!-- hidebound.core.database_tools&#45;&gt;hidebound.core.database -->
<g id="edge4" class="edge">
<title>hidebound.core.database_tools&#45;&gt;hidebound.core.database</title>
<path fill="none" stroke="#b6ecf3" d="M1600.1781,-746.4912C1681.458,-742.6915 1786.1387,-749.3121 1867,-793.9531 1945.9744,-837.5526 1998.0313,-936.9905 2019.6447,-985.4232"/>
<polygon fill="#b6ecf3" stroke="#b6ecf3" points="2016.4722,-986.9042 2023.6771,-994.6721 2022.8888,-984.1066 2016.4722,-986.9042"/>
</g>
<!-- hidebound.core.logging -->
<g id="node5" class="node">
<title>hidebound.core.logging</title>
<polygon fill="#343434" stroke="#343434" points="929.5,-810.9531 731.5,-810.9531 731.5,-774.9531 929.5,-774.9531 929.5,-810.9531"/>
<text text-anchor="middle" x="830.5" y="-789.2531" font-family="Courier,monospace" font-size="14.00" fill="#b6ecf3">hidebound.core.logging</text>
</g>
<!-- hidebound.core.logging&#45;&gt;hidebound.core.database -->
<g id="edge5" class="edge">
<title>hidebound.core.logging&#45;&gt;hidebound.core.database</title>
<path fill="none" stroke="#b6ecf3" d="M929.7051,-794.0574C1172.5118,-797.3358 1783.0008,-809.2645 1867,-846.9531 1933.7267,-876.892 1987.8989,-947.1554 2014.0409,-985.9827"/>
<polygon fill="#b6ecf3" stroke="#b6ecf3" points="2011.3501,-988.2598 2019.7798,-994.6778 2017.1924,-984.4038 2011.3501,-988.2598"/>
</g>
<!-- hidebound.exporters.exporter_base -->
<g id="node12" class="node">
<title>hidebound.exporters.exporter_base</title>
<polygon fill="#343434" stroke="#343434" points="1267,-1190.9531 978,-1190.9531 978,-1154.9531 1267,-1154.9531 1267,-1190.9531"/>
<text text-anchor="middle" x="1122.5" y="-1169.2531" font-family="Courier,monospace" font-size="14.00" fill="#b6ecf3">hidebound.exporters.exporter_base</text>
</g>
<!-- hidebound.core.logging&#45;&gt;hidebound.exporters.exporter_base -->
<g id="edge6" class="edge">
<title>hidebound.core.logging&#45;&gt;hidebound.exporters.exporter_base</title>
<path fill="none" stroke="#b6ecf3" d="M844.3873,-811.0257C891.6551,-872.5386 1046.4425,-1073.9742 1102.2291,-1146.5732"/>
<polygon fill="#b6ecf3" stroke="#b6ecf3" points="1099.6593,-1148.9732 1108.5276,-1154.7699 1105.2098,-1144.708 1099.6593,-1148.9732"/>
</g>
<!-- hidebound.server.progress -->
<g id="node19" class="node">
<title>hidebound.server.progress</title>
<polygon fill="#343434" stroke="#343434" points="2142.5,-535.9531 1919.5,-535.9531 1919.5,-499.9531 2142.5,-499.9531 2142.5,-535.9531"/>
<text text-anchor="middle" x="2031" y="-514.2531" font-family="Courier,monospace" font-size="14.00" fill="#b6ecf3">hidebound.server.progress</text>
</g>
<!-- hidebound.core.logging&#45;&gt;hidebound.server.progress -->
<g id="edge7" class="edge">
<title>hidebound.core.logging&#45;&gt;hidebound.server.progress</title>
<path fill="none" stroke="#b6ecf3" d="M837.841,-774.7928C855.2254,-734.4969 903.148,-638.0107 978,-597.9531 1152.4909,-504.5731 1670.3195,-566.9462 1867,-544.9531 1884.7841,-542.9645 1903.5761,-540.3549 1921.844,-537.5418"/>
<polygon fill="#b6ecf3" stroke="#b6ecf3" points="1922.5919,-540.9674 1931.9292,-535.9608 1921.5077,-534.0519 1922.5919,-540.9674"/>
</g>
<!-- hidebound.core.parser -->
<g id="node6" class="node">
<title>hidebound.core.parser</title>
<polygon fill="#343434" stroke="#343434" points="683,-1548.9531 493,-1548.9531 493,-1512.9531 683,-1512.9531 683,-1548.9531"/>
<text text-anchor="middle" x="588" y="-1527.2531" font-family="Courier,monospace" font-size="14.00" fill="#b6ecf3">hidebound.core.parser</text>
</g>
<!-- hidebound.core.parser&#45;&gt;hidebound.core.database_tools -->
<g id="edge8" class="edge">
<title>hidebound.core.parser&#45;&gt;hidebound.core.database_tools</title>
<path fill="none" stroke="#b6ecf3" d="M594.5738,-1512.6592C611.8493,-1463.8538 658.8556,-1326.2161 683,-1207.9531 696.7402,-1140.6517 672.0533,-951.0957 719,-900.9531 760.5961,-856.5255 1127.9957,-804.5322 1333.7962,-778.5311"/>
<polygon fill="#b6ecf3" stroke="#b6ecf3" points="1334.2909,-781.9965 1343.7754,-777.2747 1333.4164,-775.0513 1334.2909,-781.9965"/>
</g>
<!-- hidebound.core.specification_base -->
<g id="node7" class="node">
<title>hidebound.core.specification_base</title>
<polygon fill="#343434" stroke="#343434" points="1267,-1770.9531 978,-1770.9531 978,-1734.9531 1267,-1734.9531 1267,-1770.9531"/>
<text text-anchor="middle" x="1122.5" y="-1749.2531" font-family="Courier,monospace" font-size="14.00" fill="#b6ecf3">hidebound.core.specification_base</text>
</g>
<!-- hidebound.core.parser&#45;&gt;hidebound.core.specification_base -->
<g id="edge9" class="edge">
<title>hidebound.core.parser&#45;&gt;hidebound.core.specification_base</title>
<path fill="none" stroke="#b6ecf3" d="M668.2622,-1549.1359C673.4552,-1551.698 678.4275,-1554.6203 683,-1557.9531 706.3096,-1574.9432 695.7476,-1594.8849 719,-1611.9531 802.2216,-1673.0411 855.8939,-1620.003 942,-1676.9531 963.0745,-1690.8917 956.4791,-1707.7141 978,-1720.9531 984.1689,-1724.7481 990.7311,-1728.0952 997.5253,-1731.0473"/>
<polygon fill="#b6ecf3" stroke="#b6ecf3" points="996.3354,-1734.3412 1006.9188,-1734.8328 998.9519,-1727.8486 996.3354,-1734.3412"/>
</g>
<!-- hidebound.core.validators -->
<g id="node11" class="node">
<title>hidebound.core.validators</title>
<polygon fill="#343434" stroke="#343434" points="942,-1602.9531 719,-1602.9531 719,-1566.9531 942,-1566.9531 942,-1602.9531"/>
<text text-anchor="middle" x="830.5" y="-1581.2531" font-family="Courier,monospace" font-size="14.00" fill="#b6ecf3">hidebound.core.validators</text>
</g>
<!-- hidebound.core.parser&#45;&gt;hidebound.core.validators -->
<g id="edge10" class="edge">
<title>hidebound.core.parser&#45;&gt;hidebound.core.validators</title>
<path fill="none" stroke="#b6ecf3" d="M669.0861,-1549.0094C691.7359,-1554.0531 716.4936,-1559.5662 739.6667,-1564.7264"/>
<polygon fill="#b6ecf3" stroke="#b6ecf3" points="738.9686,-1568.1565 749.4903,-1566.9139 740.4901,-1561.3239 738.9686,-1568.1565"/>
</g>
<!-- hidebound.core.specification_base&#45;&gt;hidebound.core.config -->
<g id="edge11" class="edge">
<title>hidebound.core.specification_base&#45;&gt;hidebound.core.config</title>
<path fill="none" stroke="#b6ecf3" d="M1237.1955,-1734.9194C1343.2113,-1716.8768 1504.4956,-1685.9279 1641,-1644.9531 1668.414,-1636.7242 1698.1259,-1625.1588 1722.3123,-1615.0238"/>
<polygon fill="#b6ecf3" stroke="#b6ecf3" points="1723.7914,-1618.1984 1731.6337,-1611.0746 1721.0606,-1611.7531 1723.7914,-1618.1984"/>
</g>
<!-- hidebound.core.specification_base&#45;&gt;hidebound.core.database -->
<g id="edge12" class="edge">
<title>hidebound.core.specification_base&#45;&gt;hidebound.core.database</title>
<path fill="none" stroke="#b6ecf3" d="M1267.0985,-1747.0859C1460.206,-1736.0287 1787.3013,-1704.965 1867,-1619.9531 1948.9249,-1532.5667 2010.9126,-1148.9103 2026.938,-1041.1771"/>
<polygon fill="#b6ecf3" stroke="#b6ecf3" points="2030.431,-1041.4801 2028.4254,-1031.0769 2023.5057,-1040.4602 2030.431,-1041.4801"/>
</g>
<!-- hidebound.core.specification_base&#45;&gt;hidebound.core.database_tools -->
<g id="edge13" class="edge">
<title>hidebound.core.specification_base&#45;&gt;hidebound.core.database_tools</title>
<path fill="none" stroke="#b6ecf3" d="M1143.6199,-1734.876C1176.6693,-1705.1495 1239.6537,-1642.3776 1267,-1573.9531 1340.1452,-1390.9335 1253.3097,-1322.6815 1303,-1131.9531 1338.4056,-996.0544 1420.7831,-848.0226 1455.7923,-788.7119"/>
<polygon fill="#b6ecf3" stroke="#b6ecf3" points="1458.8877,-790.3543 1460.9899,-779.9701 1452.8709,-786.7768 1458.8877,-790.3543"/>
</g>
<!-- hidebound.core.specifications -->
<g id="node8" class="node">
<title>hidebound.core.specifications</title>
<polygon fill="#343434" stroke="#343434" points="1600,-1816.9531 1344,-1816.9531 1344,-1780.9531 1600,-1780.9531 1600,-1816.9531"/>
<text text-anchor="middle" x="1472" y="-1795.2531" font-family="Courier,monospace" font-size="14.00" fill="#b6ecf3">hidebound.core.specifications</text>
</g>
<!-- hidebound.core.specification_base&#45;&gt;hidebound.core.specifications -->
<g id="edge14" class="edge">
<title>hidebound.core.specification_base&#45;&gt;hidebound.core.specifications</title>
<path fill="none" stroke="#b6ecf3" d="M1259.3779,-1770.9686C1283.8476,-1774.1892 1309.3579,-1777.5467 1333.8626,-1780.772"/>
<polygon fill="#b6ecf3" stroke="#b6ecf3" points="1333.5573,-1784.2619 1343.9286,-1782.0968 1334.4708,-1777.3217 1333.5573,-1784.2619"/>
</g>
<!-- hidebound.core.tools -->
<g id="node9" class="node">
<title>hidebound.core.tools</title>
<polygon fill="#343434" stroke="#343434" points="921.5,-1198.9531 739.5,-1198.9531 739.5,-1162.9531 921.5,-1162.9531 921.5,-1198.9531"/>
<text text-anchor="middle" x="830.5" y="-1177.2531" font-family="Courier,monospace" font-size="14.00" fill="#b6ecf3">hidebound.core.tools</text>
</g>
<!-- hidebound.core.tools&#45;&gt;hidebound.core.database -->
<g id="edge15" class="edge">
<title>hidebound.core.tools&#45;&gt;hidebound.core.database</title>
<path fill="none" stroke="#b6ecf3" d="M921.5361,-1167.84C929.0261,-1164.2011 936.0065,-1159.6451 942,-1153.9531 982.6843,-1115.3159 933.344,-1066.9222 978,-1032.9531 1051.285,-977.2064 1661.1901,-996.8058 1917.8617,-1007.6936"/>
<polygon fill="#b6ecf3" stroke="#b6ecf3" points="1917.8173,-1011.1948 1927.9577,-1008.1251 1918.1163,-1004.2012 1917.8173,-1011.1948"/>
</g>
<!-- hidebound.core.tools&#45;&gt;hidebound.core.database_tools -->
<g id="edge16" class="edge">
<title>hidebound.core.tools&#45;&gt;hidebound.core.database_tools</title>
<path fill="none" stroke="#b6ecf3" d="M921.6392,-1168.3531C929.156,-1164.6154 936.1127,-1159.8959 942,-1153.9531 991.7736,-1103.7111 929.5404,-1050.4638 978,-998.9531 1069.8252,-901.3465 1147.0412,-972.6927 1267,-912.9531 1336.6327,-878.276 1407.4052,-819.9183 1444.8446,-786.8247"/>
<polygon fill="#b6ecf3" stroke="#b6ecf3" points="1447.1805,-789.4313 1452.3155,-780.164 1442.5221,-784.2063 1447.1805,-789.4313"/>
</g>
<!-- hidebound.core.tools&#45;&gt;hidebound.core.specification_base -->
<g id="edge17" class="edge">
<title>hidebound.core.tools&#45;&gt;hidebound.core.specification_base</title>
<path fill="none" stroke="#b6ecf3" d="M839.6283,-1199.1138C860.0982,-1240.3674 910.3484,-1344.6478 942,-1435.9531 962.7611,-1495.8427 949.4535,-1517.3592 978,-1573.9531 1008.889,-1635.1913 1063.3623,-1694.8209 1095.8774,-1727.4422"/>
<polygon fill="#b6ecf3" stroke="#b6ecf3" points="1093.6855,-1730.1978 1103.2506,-1734.754 1098.6145,-1725.2273 1093.6855,-1730.1978"/>
</g>
<!-- hidebound.core.traits -->
<g id="node10" class="node">
<title>hidebound.core.traits</title>
<polygon fill="#343434" stroke="#343434" points="1217.5,-1900.9531 1027.5,-1900.9531 1027.5,-1864.9531 1217.5,-1864.9531 1217.5,-1900.9531"/>
<text text-anchor="middle" x="1122.5" y="-1879.2531" font-family="Courier,monospace" font-size="14.00" fill="#b6ecf3">hidebound.core.traits</text>
</g>
<!-- hidebound.core.tools&#45;&gt;hidebound.core.traits -->
<g id="edge18" class="edge">
<title>hidebound.core.tools&#45;&gt;hidebound.core.traits</title>
<path fill="none" stroke="#b6ecf3" d="M840.7988,-1199.1145C863.4196,-1239.9525 917.3831,-1342.7551 942,-1435.9531 981.2576,-1584.5797 900.5661,-1647.1563 978,-1779.9531 999.1354,-1816.1998 1038.6812,-1843.0319 1071.066,-1860.2077"/>
<polygon fill="#b6ecf3" stroke="#b6ecf3" points="1069.4954,-1863.3356 1079.9891,-1864.7959 1072.6964,-1857.1104 1069.4954,-1863.3356"/>
</g>
<!-- hidebound.core.tools&#45;&gt;hidebound.exporters.exporter_base -->
<g id="edge19" class="edge">
<title>hidebound.core.tools&#45;&gt;hidebound.exporters.exporter_base</title>
<path fill="none" stroke="#b6ecf3" d="M921.6895,-1178.4548C936.3772,-1178.0524 951.9306,-1177.6263 967.6213,-1177.1964"/>
<polygon fill="#b6ecf3" stroke="#b6ecf3" points="968.0441,-1180.6862 977.9444,-1176.9136 967.8523,-1173.6888 968.0441,-1180.6862"/>
</g>
<!-- hidebound.exporters.local_disk_exporter -->
<g id="node14" class="node">
<title>hidebound.exporters.local_disk_exporter</title>
<polygon fill="#343434" stroke="#343434" points="1641,-1176.9531 1303,-1176.9531 1303,-1140.9531 1641,-1140.9531 1641,-1176.9531"/>
<text text-anchor="middle" x="1472" y="-1155.2531" font-family="Courier,monospace" font-size="14.00" fill="#b6ecf3">hidebound.exporters.local_disk_exporter</text>
</g>
<!-- hidebound.core.tools&#45;&gt;hidebound.exporters.local_disk_exporter -->
<g id="edge20" class="edge">
<title>hidebound.core.tools&#45;&gt;hidebound.exporters.local_disk_exporter</title>
<path fill="none" stroke="#b6ecf3" d="M921.5656,-1166.5607C928.9126,-1163.1741 935.8576,-1159.0268 942,-1153.9531 971.7486,-1129.3806 945.5489,-1095.827 978,-1074.9531 1086.0259,-1005.4666 1140.9761,-1050.1349 1267,-1074.9531 1326.1674,-1086.6051 1389.7551,-1115.4925 1430.1553,-1136.1331"/>
<polygon fill="#b6ecf3" stroke="#b6ecf3" points="1428.6712,-1139.306 1439.161,-1140.7944 1431.8889,-1133.0893 1428.6712,-1139.306"/>
</g>
<!-- hidebound.exporters.s3_exporter -->
<g id="node15" class="node">
<title>hidebound.exporters.s3_exporter</title>
<polygon fill="#343434" stroke="#343434" points="1608,-1461.9531 1336,-1461.9531 1336,-1425.9531 1608,-1425.9531 1608,-1461.9531"/>
<text text-anchor="middle" x="1472" y="-1440.2531" font-family="Courier,monospace" font-size="14.00" fill="#b6ecf3">hidebound.exporters.s3_exporter</text>
</g>
<!-- hidebound.core.tools&#45;&gt;hidebound.exporters.s3_exporter -->
<g id="edge21" class="edge">
<title>hidebound.core.tools&#45;&gt;hidebound.exporters.s3_exporter</title>
<path fill="none" stroke="#b6ecf3" d="M839.3519,-1199.087C858.717,-1236.6304 908.7136,-1322.7172 978,-1362.9531 1083.6456,-1424.3036 1222.2169,-1442.7014 1325.7019,-1446.8193"/>
<polygon fill="#b6ecf3" stroke="#b6ecf3" points="1325.8022,-1450.325 1335.9208,-1447.1843 1326.0521,-1443.3295 1325.8022,-1450.325"/>
</g>
<!-- hidebound.core.traits&#45;&gt;hidebound.core.specifications -->
<g id="edge22" class="edge">
<title>hidebound.core.traits&#45;&gt;hidebound.core.specifications</title>
<path fill="none" stroke="#b6ecf3" d="M1205.8876,-1864.9411C1225.9296,-1860.4865 1247.2506,-1855.6436 1267,-1850.9531 1308.6475,-1841.062 1354.877,-1829.3955 1392.8782,-1819.6219"/>
<polygon fill="#b6ecf3" stroke="#b6ecf3" points="1394.0493,-1822.9346 1402.8595,-1817.0498 1392.3024,-1816.156 1394.0493,-1822.9346"/>
</g>
<!-- hidebound.core.validators&#45;&gt;hidebound.core.config -->
<g id="edge23" class="edge">
<title>hidebound.core.validators&#45;&gt;hidebound.core.config</title>
<path fill="none" stroke="#b6ecf3" d="M846.452,-1602.9811C870.8164,-1631.4916 917.0892,-1689.6524 942,-1746.9531 971.5791,-1814.9919 920.1587,-1863.4927 978,-1909.9531 1093.7845,-2002.9559 1521.8596,-1914.6161 1641,-1825.9531 1711.7296,-1773.317 1749.6274,-1670.4792 1764.4694,-1620.9425"/>
<polygon fill="#b6ecf3" stroke="#b6ecf3" points="1767.8657,-1621.7974 1767.2901,-1611.2182 1761.1428,-1619.8473 1767.8657,-1621.7974"/>
</g>
<!-- hidebound.core.validators&#45;&gt;hidebound.core.specification_base -->
<g id="edge24" class="edge">
<title>hidebound.core.validators&#45;&gt;hidebound.core.specification_base</title>
<path fill="none" stroke="#b6ecf3" d="M915.304,-1602.9567C925.1071,-1607.6347 934.3241,-1613.5283 942,-1620.9531 975.9521,-1653.7946 942.5367,-1689.7496 978,-1720.9531 981.6652,-1724.1781 985.5823,-1727.1006 989.6937,-1729.7478"/>
<polygon fill="#b6ecf3" stroke="#b6ecf3" points="987.9834,-1732.8019 998.3874,-1734.8035 991.5024,-1726.7507 987.9834,-1732.8019"/>
</g>
<!-- hidebound.core.validators&#45;&gt;hidebound.core.specifications -->
<g id="edge25" class="edge">
<title>hidebound.core.validators&#45;&gt;hidebound.core.specifications</title>
<path fill="none" stroke="#b6ecf3" d="M842.964,-1603.2063C874.9194,-1649.7368 958.6179,-1769.8423 978,-1779.9531 1037.582,-1811.0346 1209.1195,-1811.2 1333.349,-1806.6423"/>
<polygon fill="#b6ecf3" stroke="#b6ecf3" points="1333.8511,-1810.1258 1343.7104,-1806.2473 1333.5843,-1803.1309 1333.8511,-1810.1258"/>
</g>
<!-- hidebound.core.validators&#45;&gt;hidebound.exporters.exporter_base -->
<g id="edge26" class="edge">
<title>hidebound.core.validators&#45;&gt;hidebound.exporters.exporter_base</title>
<path fill="none" stroke="#b6ecf3" d="M923.1704,-1566.8396C930.2767,-1562.5808 936.7232,-1557.3565 942,-1550.9531 1040.3238,-1431.6383 875.0965,-1320.3415 978,-1204.9531 980.4691,-1202.1845 983.1192,-1199.6264 985.9222,-1197.2638"/>
<polygon fill="#b6ecf3" stroke="#b6ecf3" points="988.2634,-1199.8847 994.2026,-1191.1111 984.0884,-1194.266 988.2634,-1199.8847"/>
</g>
<!-- hidebound.exporters.girder_exporter -->
<g id="node13" class="node">
<title>hidebound.exporters.girder_exporter</title>
<polygon fill="#343434" stroke="#343434" points="1624.5,-1305.9531 1319.5,-1305.9531 1319.5,-1269.9531 1624.5,-1269.9531 1624.5,-1305.9531"/>
<text text-anchor="middle" x="1472" y="-1284.2531" font-family="Courier,monospace" font-size="14.00" fill="#b6ecf3">hidebound.exporters.girder_exporter</text>
</g>
<!-- hidebound.core.validators&#45;&gt;hidebound.exporters.girder_exporter -->
<g id="edge27" class="edge">
<title>hidebound.core.validators&#45;&gt;hidebound.exporters.girder_exporter</title>
<path fill="none" stroke="#b6ecf3" d="M905.1385,-1566.9122C917.816,-1562.5331 930.5663,-1557.2506 942,-1550.9531 960.4949,-1540.7665 959.4067,-1529.9589 978,-1519.9531 1095.5717,-1456.6834 1147.0151,-1496.5175 1267,-1437.9531 1303.5454,-1420.1154 1393.8301,-1350.1288 1441.4576,-1312.389"/>
<polygon fill="#b6ecf3" stroke="#b6ecf3" points="1443.9005,-1314.9184 1449.5542,-1305.9581 1439.5468,-1309.4369 1443.9005,-1314.9184"/>
</g>
<!-- hidebound.core.validators&#45;&gt;hidebound.exporters.local_disk_exporter -->
<g id="edge28" class="edge">
<title>hidebound.core.validators&#45;&gt;hidebound.exporters.local_disk_exporter</title>
<path fill="none" stroke="#b6ecf3" d="M922.8363,-1566.9338C930.0605,-1562.6594 936.6238,-1557.4055 942,-1550.9531 1031.6362,-1443.3741 879.7916,-1337.768 978,-1237.9531 1023.4298,-1191.7802 1203.0948,-1210.533 1267,-1199.9531 1303.5015,-1193.9101 1343.438,-1186.1788 1378.2864,-1179.0619"/>
<polygon fill="#b6ecf3" stroke="#b6ecf3" points="1379.3581,-1182.415 1388.4494,-1176.9745 1377.9497,-1175.5581 1379.3581,-1182.415"/>
</g>
<!-- hidebound.core.validators&#45;&gt;hidebound.exporters.s3_exporter -->
<g id="edge29" class="edge">
<title>hidebound.core.validators&#45;&gt;hidebound.exporters.s3_exporter</title>
<path fill="none" stroke="#b6ecf3" d="M942.0702,-1598.264C1031.8494,-1605.1808 1160.2042,-1606.4249 1267,-1573.9531 1337.2854,-1552.5826 1406.9025,-1500.0401 1444.1731,-1468.6856"/>
<polygon fill="#b6ecf3" stroke="#b6ecf3" points="1446.7237,-1471.1103 1452.0607,-1461.9578 1442.181,-1465.7845 1446.7237,-1471.1103"/>
</g>
<!-- hidebound.exporters.exporter_base&#45;&gt;hidebound.exporters.girder_exporter -->
<g id="edge30" class="edge">
<title>hidebound.exporters.exporter_base&#45;&gt;hidebound.exporters.girder_exporter</title>
<path fill="none" stroke="#b6ecf3" d="M1177.4938,-1191.0484C1239.7536,-1211.5344 1341.0903,-1244.8784 1407.1537,-1266.616"/>
<polygon fill="#b6ecf3" stroke="#b6ecf3" points="1406.4459,-1270.0677 1417.0389,-1269.8686 1408.6338,-1263.4184 1406.4459,-1270.0677"/>
</g>
<!-- hidebound.exporters.exporter_base&#45;&gt;hidebound.exporters.local_disk_exporter -->
<g id="edge31" class="edge">
<title>hidebound.exporters.exporter_base&#45;&gt;hidebound.exporters.local_disk_exporter</title>
<path fill="none" stroke="#b6ecf3" d="M1267.1779,-1167.1577C1275.6139,-1166.8198 1284.1463,-1166.478 1292.6932,-1166.1357"/>
<polygon fill="#b6ecf3" stroke="#b6ecf3" points="1292.8764,-1169.6312 1302.7283,-1165.7337 1292.5962,-1162.6368 1292.8764,-1169.6312"/>
</g>
<!-- hidebound.exporters.exporter_base&#45;&gt;hidebound.exporters.s3_exporter -->
<g id="edge32" class="edge">
<title>hidebound.exporters.exporter_base&#45;&gt;hidebound.exporters.s3_exporter</title>
<path fill="none" stroke="#b6ecf3" d="M1187.3966,-1190.988C1214.6548,-1201.1832 1245.056,-1216.3278 1267,-1237.9531 1293.9076,-1264.47 1279.3019,-1285.5327 1303,-1314.9531 1339.0123,-1359.6613 1393.646,-1397.6603 1430.982,-1420.6001"/>
<polygon fill="#b6ecf3" stroke="#b6ecf3" points="1429.2423,-1423.6383 1439.6095,-1425.8226 1432.8672,-1417.6499 1429.2423,-1423.6383"/>
</g>
<!-- hidebound.exporters.girder_exporter&#45;&gt;hidebound.core.config -->
<g id="edge33" class="edge">
<title>hidebound.exporters.girder_exporter&#45;&gt;hidebound.core.config</title>
<path fill="none" stroke="#b6ecf3" d="M1500.5415,-1306.1202C1535.7835,-1329.3305 1596.5103,-1371.9213 1641,-1416.9531 1688.2603,-1464.7894 1732.6365,-1530.3472 1755.6315,-1566.436"/>
<polygon fill="#b6ecf3" stroke="#b6ecf3" points="1752.7073,-1568.3605 1761.0057,-1574.9474 1758.6262,-1564.6233 1752.7073,-1568.3605"/>
</g>
<!-- hidebound.exporters.girder_exporter&#45;&gt;hidebound.core.database -->
<g id="edge34" class="edge">
<title>hidebound.exporters.girder_exporter&#45;&gt;hidebound.core.database</title>
<path fill="none" stroke="#b6ecf3" d="M1580.6504,-1269.8969C1663.2823,-1252.8539 1777.6092,-1221.9626 1867,-1169.9531 1927.0845,-1134.9947 1982.2174,-1073.6908 2010.7051,-1038.932"/>
<polygon fill="#b6ecf3" stroke="#b6ecf3" points="2013.4635,-1041.0873 2017.0317,-1031.1114 2008.0212,-1036.6847 2013.4635,-1041.0873"/>
</g>
<!-- hidebound.exporters.local_disk_exporter&#45;&gt;hidebound.core.config -->
<g id="edge35" class="edge">
<title>hidebound.exporters.local_disk_exporter&#45;&gt;hidebound.core.config</title>
<path fill="none" stroke="#b6ecf3" d="M1518.6147,-1177.0777C1556.1925,-1193.8018 1608.0346,-1221.9577 1641,-1260.9531 1720.4371,-1354.921 1755.4592,-1502.8724 1767.1739,-1564.5178"/>
<polygon fill="#b6ecf3" stroke="#b6ecf3" points="1763.7873,-1565.4548 1769.0365,-1574.6579 1770.6722,-1564.1901 1763.7873,-1565.4548"/>
</g>
<!-- hidebound.exporters.local_disk_exporter&#45;&gt;hidebound.core.database -->
<g id="edge36" class="edge">
<title>hidebound.exporters.local_disk_exporter&#45;&gt;hidebound.core.database</title>
<path fill="none" stroke="#b6ecf3" d="M1641.2634,-1172.9707C1712.8786,-1173.3142 1795.9874,-1166.1565 1867,-1139.9531 1924.93,-1118.5772 1978.8326,-1068.8602 2008.1137,-1038.3578"/>
<polygon fill="#b6ecf3" stroke="#b6ecf3" points="2010.6964,-1040.7206 2015.015,-1031.0459 2005.6057,-1035.9158 2010.6964,-1040.7206"/>
</g>
<!-- hidebound.exporters.s3_exporter&#45;&gt;hidebound.core.config -->
<g id="edge37" class="edge">
<title>hidebound.exporters.s3_exporter&#45;&gt;hidebound.core.config</title>
<path fill="none" stroke="#b6ecf3" d="M1508.486,-1462.0745C1563.1805,-1489.2395 1666.3659,-1540.4882 1726.0994,-1570.1559"/>
<polygon fill="#b6ecf3" stroke="#b6ecf3" points="1724.7861,-1573.4114 1735.2991,-1574.7251 1727.8999,-1567.1421 1724.7861,-1573.4114"/>
</g>
<!-- hidebound.exporters.s3_exporter&#45;&gt;hidebound.core.database -->
<g id="edge38" class="edge">
<title>hidebound.exporters.s3_exporter&#45;&gt;hidebound.core.database</title>
<path fill="none" stroke="#b6ecf3" d="M1516.0881,-1425.896C1592.9726,-1392.9982 1754.1351,-1317.6778 1867,-1220.9531 1931.4105,-1165.7537 1988.1482,-1082.1072 2014.8278,-1039.67"/>
<polygon fill="#b6ecf3" stroke="#b6ecf3" points="2017.8973,-1041.3617 2020.2063,-1031.0216 2011.9531,-1037.6649 2017.8973,-1041.3617"/>
</g>
<!-- hidebound.server.api&#45;&gt;hidebound.server.app -->
<g id="edge39" class="edge">
<title>hidebound.server.api&#45;&gt;hidebound.server.app</title>
<path fill="none" stroke="#b6ecf3" d="M2395.8662,-591.9474C2403.8344,-588.1417 2411.3778,-583.5333 2418,-577.9531 2493.0645,-514.7006 2527.226,-396.7108 2539.4206,-342.9438"/>
<polygon fill="#b6ecf3" stroke="#b6ecf3" points="2542.8601,-343.5982 2541.5723,-333.0819 2536.021,-342.106 2542.8601,-343.5982"/>
</g>
<!-- hidebound.server.components -->
<g id="node18" class="node">
<title>hidebound.server.components</title>
<polygon fill="#343434" stroke="#343434" points="2150.5,-297.9531 1911.5,-297.9531 1911.5,-261.9531 2150.5,-261.9531 2150.5,-297.9531"/>
<text text-anchor="middle" x="2031" y="-276.2531" font-family="Courier,monospace" font-size="14.00" fill="#b6ecf3">hidebound.server.components</text>
</g>
<!-- hidebound.server.components&#45;&gt;hidebound.server.app -->
<g id="edge40" class="edge">
<title>hidebound.server.components&#45;&gt;hidebound.server.app</title>
<path fill="none" stroke="#b6ecf3" d="M2150.5375,-288.0929C2239.4636,-294.1481 2359.5033,-302.322 2443.7259,-308.057"/>
<polygon fill="#b6ecf3" stroke="#b6ecf3" points="2443.6002,-311.5565 2453.8149,-308.744 2444.0758,-304.5727 2443.6002,-311.5565"/>
</g>
<!-- hidebound.server.server_tools -->
<g id="node20" class="node">
<title>hidebound.server.server_tools</title>
<polygon fill="#343434" stroke="#343434" points="2159,-481.9531 1903,-481.9531 1903,-445.9531 2159,-445.9531 2159,-481.9531"/>
<text text-anchor="middle" x="2031" y="-460.2531" font-family="Courier,monospace" font-size="14.00" fill="#b6ecf3">hidebound.server.server_tools</text>
</g>
<!-- hidebound.server.server_tools&#45;&gt;hidebound.server.api -->
<g id="edge41" class="edge">
<title>hidebound.server.server_tools&#45;&gt;hidebound.server.api</title>
<path fill="none" stroke="#b6ecf3" d="M2136.7566,-482.0651C2144.4274,-484.6461 2151.9222,-487.5918 2159,-490.9531 2208.1722,-514.3056 2255.393,-557.1762 2282.6471,-584.5835"/>
<polygon fill="#b6ecf3" stroke="#b6ecf3" points="2280.2916,-587.1805 2289.7898,-591.8747 2285.292,-582.2819 2280.2916,-587.1805"/>
</g>
<!-- hidebound.server.server_tools&#45;&gt;hidebound.server.app -->
<g id="edge42" class="edge">
<title>hidebound.server.server_tools&#45;&gt;hidebound.server.app</title>
<path fill="none" stroke="#b6ecf3" d="M2131.9563,-445.8978C2210.961,-430.4152 2322.9841,-405.4641 2418,-372.9531 2446.4459,-363.22 2477.1406,-349.3029 2501.2272,-337.541"/>
<polygon fill="#b6ecf3" stroke="#b6ecf3" points="2503.0333,-340.5527 2510.4491,-332.9859 2499.9332,-334.2765 2503.0333,-340.5527"/>
</g>
<!-- dash -->
<g id="node21" class="node">
<title>dash</title>
<polygon fill="#343434" stroke="#343434" points="1799,-105.9531 1745,-105.9531 1745,-69.9531 1799,-69.9531 1799,-105.9531"/>
<text text-anchor="middle" x="1772" y="-84.2531" font-family="Courier,monospace" font-size="14.00" fill="#de958e">dash</text>
</g>
<!-- dash&#45;&gt;hidebound.server.app -->
<g id="edge43" class="edge">
<title>dash&#45;&gt;hidebound.server.app</title>
<path fill="none" stroke="#de958e" d="M1799.2797,-76.8454C1893.6504,-40.3406 2211.7499,66.5164 2418,-60.9531 2499.5844,-111.3751 2530.5123,-231.834 2540.6611,-286.7744"/>
<polygon fill="#de958e" stroke="#de958e" points="2537.2524,-287.601 2542.4226,-296.8487 2544.1478,-286.3953 2537.2524,-287.601"/>
</g>
<!-- dash&#45;&gt;hidebound.server.components -->
<g id="edge44" class="edge">
<title>dash&#45;&gt;hidebound.server.components</title>
<path fill="none" stroke="#de958e" d="M1796.3661,-106.016C1843.1262,-140.6799 1945.4754,-216.5526 1998.1864,-255.628"/>
<polygon fill="#de958e" stroke="#de958e" points="1996.3922,-258.6548 2006.51,-261.7984 2000.5609,-253.0314 1996.3922,-258.6548"/>
</g>
<!-- dash_cytoscape -->
<g id="node22" class="node">
<title>dash_cytoscape</title>
<polygon fill="#343434" stroke="#343434" points="1838,-205.9531 1706,-205.9531 1706,-169.9531 1838,-169.9531 1838,-205.9531"/>
<text text-anchor="middle" x="1772" y="-184.2531" font-family="Courier,monospace" font-size="14.00" fill="#de958e">dash_cytoscape</text>
</g>
<!-- dash_cytoscape&#45;&gt;hidebound.server.components -->
<g id="edge45" class="edge">
<title>dash_cytoscape&#45;&gt;hidebound.server.components</title>
<path fill="none" stroke="#de958e" d="M1838.1907,-205.8406C1847.9016,-208.7322 1857.7449,-211.8127 1867,-214.9531 1905.1115,-227.8851 1947.3085,-244.6674 1979.355,-257.9398"/>
<polygon fill="#de958e" stroke="#de958e" points="1978.3817,-261.3257 1988.9588,-261.938 1981.0721,-254.8634 1978.3817,-261.3257"/>
</g>
<!-- hidebound.server -->
<g id="node23" class="node">
<title>hidebound.server</title>
<polygon fill="#343434" stroke="#343434" points="1846.5,-351.9531 1697.5,-351.9531 1697.5,-315.9531 1846.5,-315.9531 1846.5,-351.9531"/>
<text text-anchor="middle" x="1772" y="-330.2531" font-family="Courier,monospace" font-size="14.00" fill="#a0d17b">hidebound.server</text>
</g>
<!-- hidebound.server&#45;&gt;hidebound.server.api -->
<g id="edge46" class="edge">
<title>hidebound.server&#45;&gt;hidebound.server.api</title>
<path fill="none" stroke="#a0d17b" d="M1846.763,-350.99C1853.8261,-353.8345 1860.694,-357.133 1867,-360.9531 1886.8981,-373.0072 1882.3634,-388.2124 1903,-398.9531 2005.0319,-452.0578 2058.3936,-381.195 2159,-436.9531 2221.4815,-471.5817 2269.3413,-543.7181 2292.0236,-583.0181"/>
<polygon fill="#a0d17b" stroke="#a0d17b" points="2289.0202,-584.8174 2296.9879,-591.8007 2295.114,-581.3728 2289.0202,-584.8174"/>
</g>
<!-- hidebound.server&#45;&gt;hidebound.server.app -->
<g id="edge47" class="edge">
<title>hidebound.server&#45;&gt;hidebound.server.app</title>
<path fill="none" stroke="#a0d17b" d="M1846.8209,-332.1141C1986.3167,-328.6853 2286.2034,-321.3143 2443.6858,-317.4434"/>
<polygon fill="#a0d17b" stroke="#a0d17b" points="2443.9388,-320.9383 2453.8498,-317.1936 2443.7668,-313.9405 2443.9388,-320.9383"/>
</g>
<!-- hidebound.server&#45;&gt;hidebound.server.components -->
<g id="edge48" class="edge">
<title>hidebound.server&#45;&gt;hidebound.server.components</title>
<path fill="none" stroke="#a0d17b" d="M1846.5661,-318.4066C1873.9704,-312.6929 1905.4035,-306.1393 1934.4641,-300.0803"/>
<polygon fill="#a0d17b" stroke="#a0d17b" points="1935.5586,-303.4275 1944.6337,-297.96 1934.1298,-296.5748 1935.5586,-303.4275"/>
</g>
<!-- hidebound.server&#45;&gt;hidebound.server.progress -->
<g id="edge49" class="edge">
<title>hidebound.server&#45;&gt;hidebound.server.progress</title>
<path fill="none" stroke="#a0d17b" d="M1846.7463,-346.897C1854.2353,-350.5151 1861.2001,-355.1139 1867,-360.9531 1909.2492,-403.4887 1859.3084,-449.9006 1903,-490.9531 1905.4827,-493.2859 1908.1139,-495.438 1910.8677,-497.4225"/>
<polygon fill="#a0d17b" stroke="#a0d17b" points="1909.1531,-500.4798 1919.4709,-502.8868 1912.9062,-494.5709 1909.1531,-500.4798"/>
</g>
<!-- hidebound.server&#45;&gt;hidebound.server.server_tools -->
<g id="edge50" class="edge">
<title>hidebound.server&#45;&gt;hidebound.server.server_tools</title>
<path fill="none" stroke="#a0d17b" d="M1846.6124,-348.5256C1853.9463,-351.8523 1860.9131,-355.9374 1867,-360.9531 1894.3043,-383.4526 1875.3399,-409.8924 1903,-431.9531 1907.3091,-435.3899 1911.939,-438.4634 1916.7913,-441.2114"/>
<polygon fill="#a0d17b" stroke="#a0d17b" points="1915.2507,-444.3547 1925.7445,-445.8145 1918.4515,-438.1293 1915.2507,-444.3547"/>
</g>
<!-- flask -->
<g id="node24" class="node">
<title>flask</title>
<polygon fill="#343434" stroke="#343434" points="1801,-535.9531 1743,-535.9531 1743,-499.9531 1801,-499.9531 1801,-535.9531"/>
<text text-anchor="middle" x="1772" y="-514.2531" font-family="Courier,monospace" font-size="14.00" fill="#de958e">flask</text>
</g>
<!-- flask&#45;&gt;hidebound.server.api -->
<g id="edge51" class="edge">
<title>flask&#45;&gt;hidebound.server.api</title>
<path fill="none" stroke="#de958e" d="M1801.0738,-534.8782C1826.9175,-549.0284 1866.2001,-568.3871 1903,-577.9531 2003.5444,-604.0895 2122.5236,-610.7109 2205.1168,-611.6403"/>
<polygon fill="#de958e" stroke="#de958e" points="2205.2276,-615.1413 2215.2575,-611.7279 2205.2882,-608.1416 2205.2276,-615.1413"/>
</g>
<!-- flask&#45;&gt;hidebound.server.app -->
<g id="edge52" class="edge">
<title>flask&#45;&gt;hidebound.server.app</title>
<path fill="none" stroke="#de958e" d="M1801.1115,-525.7849C1866.2191,-542.0484 2028.1582,-575.5201 2159,-544.9531 2309.1798,-509.8685 2457.6117,-391.8012 2517.428,-339.8459"/>
<polygon fill="#de958e" stroke="#de958e" points="2520.0595,-342.1934 2525.2712,-332.969 2515.4446,-336.93 2520.0595,-342.1934"/>
</g>
<!-- flask&#45;&gt;hidebound.server.components -->
<g id="edge53" class="edge">
<title>flask&#45;&gt;hidebound.server.components</title>
<path fill="none" stroke="#de958e" d="M1791.5094,-499.9174C1811.9814,-480.3242 1844.284,-447.4539 1867,-414.9531 1887.0418,-386.2786 1878.199,-369.6272 1903,-344.9531 1921.4019,-326.6454 1946.0168,-312.4756 1968.7435,-302.1071"/>
<polygon fill="#de958e" stroke="#de958e" points="1970.2607,-305.2635 1978.0085,-298.037 1967.4452,-298.8546 1970.2607,-305.2635"/>
</g>
<!-- flask&#45;&gt;hidebound.server.progress -->
<g id="edge54" class="edge">
<title>flask&#45;&gt;hidebound.server.progress</title>
<path fill="none" stroke="#de958e" d="M1801.2071,-517.9531C1827.7943,-517.9531 1868.9138,-517.9531 1909.0609,-517.9531"/>
<polygon fill="#de958e" stroke="#de958e" points="1909.2374,-521.4532 1919.2374,-517.9531 1909.2373,-514.4532 1909.2374,-521.4532"/>
</g>
<!-- flask&#45;&gt;hidebound.server.server_tools -->
<g id="edge55" class="edge">
<title>flask&#45;&gt;hidebound.server.server_tools</title>
<path fill="none" stroke="#de958e" d="M1801.2071,-511.8636C1833.505,-505.1297 1887.2483,-493.9245 1934.6422,-484.0432"/>
<polygon fill="#de958e" stroke="#de958e" points="1935.5741,-487.4242 1944.6492,-481.9568 1934.1453,-480.5716 1935.5741,-487.4242"/>
</g>
<!-- dash.dependencies -->
<g id="node25" class="node">
<title>dash.dependencies</title>
<polygon fill="#343434" stroke="#343434" points="2385,-267.9531 2228,-267.9531 2228,-231.9531 2385,-231.9531 2385,-267.9531"/>
<text text-anchor="middle" x="2306.5" y="-246.2531" font-family="Courier,monospace" font-size="14.00" fill="#de958e">dash.dependencies</text>
</g>
<!-- dash.dependencies&#45;&gt;hidebound.server.app -->
<g id="edge56" class="edge">
<title>dash.dependencies&#45;&gt;hidebound.server.app</title>
<path fill="none" stroke="#de958e" d="M2372.6188,-267.9729C2402.4735,-276.1094 2437.9128,-285.768 2468.8713,-294.2053"/>
<polygon fill="#de958e" stroke="#de958e" points="2468.1841,-297.6456 2478.7526,-296.8983 2470.0248,-290.8919 2468.1841,-297.6456"/>
</g>
<!-- rolling_pin.blob_etl -->
<g id="node26" class="node">
<title>rolling_pin.blob_etl</title>
<polygon fill="#343434" stroke="#343434" points="1863,-259.9531 1681,-259.9531 1681,-223.9531 1863,-223.9531 1863,-259.9531"/>
<text text-anchor="middle" x="1772" y="-238.2531" font-family="Courier,monospace" font-size="14.00" fill="#de958e">rolling_pin.blob_etl</text>
</g>
<!-- rolling_pin.blob_etl&#45;&gt;hidebound.server.components -->
<g id="edge57" class="edge">
<title>rolling_pin.blob_etl&#45;&gt;hidebound.server.components</title>
<path fill="none" stroke="#de958e" d="M1863.3137,-255.3505C1875.61,-257.1546 1888.4108,-259.0327 1901.2153,-260.9114"/>
<polygon fill="#de958e" stroke="#de958e" points="1901.0733,-264.4279 1911.4755,-262.4167 1902.0895,-257.5021 1901.0733,-264.4279"/>
</g>
<!-- dash.exceptions -->
<g id="node27" class="node">
<title>dash.exceptions</title>
<polygon fill="#343434" stroke="#343434" points="2376.5,-213.9531 2236.5,-213.9531 2236.5,-177.9531 2376.5,-177.9531 2376.5,-213.9531"/>
<text text-anchor="middle" x="2306.5" y="-192.2531" font-family="Courier,monospace" font-size="14.00" fill="#de958e">dash.exceptions</text>
</g>
<!-- dash.exceptions&#45;&gt;hidebound.server.app -->
<g id="edge58" class="edge">
<title>dash.exceptions&#45;&gt;hidebound.server.app</title>
<path fill="none" stroke="#de958e" d="M2376.6158,-208.5152C2390.6635,-212.248 2405.0691,-216.9875 2418,-222.9531 2455.3146,-240.1681 2492.7765,-269.065 2517.2405,-289.884"/>
<polygon fill="#de958e" stroke="#de958e" points="2515.1649,-292.7161 2525.0197,-296.6062 2519.7417,-287.4196 2515.1649,-292.7161"/>
</g>
<!-- flask_healthz -->
<g id="node28" class="node">
<title>flask_healthz</title>
<polygon fill="#343434" stroke="#343434" points="2368.5,-159.9531 2244.5,-159.9531 2244.5,-123.9531 2368.5,-123.9531 2368.5,-159.9531"/>
<text text-anchor="middle" x="2306.5" y="-138.2531" font-family="Courier,monospace" font-size="14.00" fill="#de958e">flask_healthz</text>
</g>
<!-- flask_healthz&#45;&gt;hidebound.server.app -->
<g id="edge59" class="edge">
<title>flask_healthz&#45;&gt;hidebound.server.app</title>
<path fill="none" stroke="#de958e" d="M2368.7618,-149.9491C2385.5733,-153.9503 2403.1935,-159.9518 2418,-168.9531 2467.3304,-198.9426 2507.659,-254.4574 2528.8429,-287.7159"/>
<polygon fill="#de958e" stroke="#de958e" points="2526.0393,-289.8346 2534.3017,-296.4666 2531.9785,-286.1296 2526.0393,-289.8346"/>
</g>
<!-- flask_monitoringdashboard -->
<g id="node29" class="node">
<title>flask_monitoringdashboard</title>
<polygon fill="#343434" stroke="#343434" points="2418,-105.9531 2195,-105.9531 2195,-69.9531 2418,-69.9531 2418,-105.9531"/>
<text text-anchor="middle" x="2306.5" y="-84.2531" font-family="Courier,monospace" font-size="14.00" fill="#de958e">flask_monitoringdashboard</text>
</g>
<!-- flask_monitoringdashboard&#45;&gt;hidebound.server.app -->
<g id="edge60" class="edge">
<title>flask_monitoringdashboard&#45;&gt;hidebound.server.app</title>
<path fill="none" stroke="#de958e" d="M2402.9534,-106.0614C2408.2402,-108.644 2413.3035,-111.591 2418,-114.9531 2479.7449,-159.1555 2518.4835,-243.62 2535.2861,-287.2861"/>
<polygon fill="#de958e" stroke="#de958e" points="2532.0299,-288.5711 2538.8138,-296.7092 2538.5856,-286.1168 2532.0299,-288.5711"/>
</g>
<!-- jinja2 -->
<g id="node30" class="node">
<title>jinja2</title>
<polygon fill="#343434" stroke="#343434" points="1805,-405.9531 1739,-405.9531 1739,-369.9531 1805,-369.9531 1805,-405.9531"/>
<text text-anchor="middle" x="1772" y="-384.2531" font-family="Courier,monospace" font-size="14.00" fill="#de958e">jinja2</text>
</g>
<!-- jinja2&#45;&gt;hidebound.server.server_tools -->
<g id="edge61" class="edge">
<title>jinja2&#45;&gt;hidebound.server.server_tools</title>
<path fill="none" stroke="#de958e" d="M1805.2556,-399.1586C1843.2524,-411.9564 1900.5462,-431.2355 1903,-431.9531 1916.3569,-435.8593 1930.5832,-439.7137 1944.5139,-443.3209"/>
<polygon fill="#de958e" stroke="#de958e" points="1944.033,-446.8106 1954.5887,-445.901 1945.7697,-440.0294 1944.033,-446.8106"/>
</g>
<!-- flasgger -->
<g id="node31" class="node">
<title>flasgger</title>
<polygon fill="#343434" stroke="#343434" points="2072.5,-389.9531 1989.5,-389.9531 1989.5,-353.9531 2072.5,-353.9531 2072.5,-389.9531"/>
<text text-anchor="middle" x="2031" y="-368.2531" font-family="Courier,monospace" font-size="14.00" fill="#de958e">flasgger</text>
</g>
<!-- flasgger&#45;&gt;hidebound.server.api -->
<g id="edge62" class="edge">
<title>flasgger&#45;&gt;hidebound.server.api</title>
<path fill="none" stroke="#de958e" d="M2072.6172,-374.9878C2099.2316,-378.6164 2133.4289,-386.5643 2159,-403.9531 2226.6315,-449.9438 2273.8309,-537.7996 2294.6004,-582.4439"/>
<polygon fill="#de958e" stroke="#de958e" points="2291.5284,-584.1434 2298.8567,-591.795 2297.8995,-581.2435 2291.5284,-584.1434"/>
</g>
<!-- flasgger&#45;&gt;hidebound.server.app -->
<g id="edge63" class="edge">
<title>flasgger&#45;&gt;hidebound.server.app</title>
<path fill="none" stroke="#de958e" d="M2072.524,-371.9855C2143.6926,-371.461 2293.3552,-367.8226 2418,-347.9531 2436.8788,-344.9437 2457.0274,-340.3612 2475.5846,-335.5604"/>
<polygon fill="#de958e" stroke="#de958e" points="2476.6471,-338.8998 2485.4193,-332.9587 2474.8568,-332.1326 2476.6471,-338.8998"/>
</g>
<!-- boto3 -->
<g id="node32" class="node">
<title>boto3</title>
<polygon fill="#343434" stroke="#343434" points="1151.5,-1564.9531 1093.5,-1564.9531 1093.5,-1528.9531 1151.5,-1528.9531 1151.5,-1564.9531"/>
<text text-anchor="middle" x="1122.5" y="-1543.2531" font-family="Courier,monospace" font-size="14.00" fill="#de958e">boto3</text>
</g>
<!-- boto3&#45;&gt;hidebound.exporters.s3_exporter -->
<g id="edge64" class="edge">
<title>boto3&#45;&gt;hidebound.exporters.s3_exporter</title>
<path fill="none" stroke="#de958e" d="M1151.5317,-1541.5491C1180.8854,-1535.8459 1227.4409,-1526.1435 1267,-1514.9531 1317.8319,-1500.574 1374.4989,-1480.639 1415.3492,-1465.552"/>
<polygon fill="#de958e" stroke="#de958e" points="1416.7009,-1468.7837 1424.8578,-1462.0224 1414.2649,-1462.2213 1416.7009,-1468.7837"/>
</g>
<!-- requests -->
<g id="node33" class="node">
<title>requests</title>
<polygon fill="#343434" stroke="#343434" points="1813.5,-1130.9531 1730.5,-1130.9531 1730.5,-1094.9531 1813.5,-1094.9531 1813.5,-1130.9531"/>
<text text-anchor="middle" x="1772" y="-1109.2531" font-family="Courier,monospace" font-size="14.00" fill="#de958e">requests</text>
</g>
<!-- requests&#45;&gt;hidebound.core.database -->
<g id="edge65" class="edge">
<title>requests&#45;&gt;hidebound.core.database</title>
<path fill="none" stroke="#de958e" d="M1813.5561,-1102.5164C1830.3263,-1097.9499 1849.7523,-1092.207 1867,-1085.9531 1907.7999,-1071.1594 1952.7392,-1050.8599 1985.2421,-1035.4218"/>
<polygon fill="#de958e" stroke="#de958e" points="1986.9753,-1038.4727 1994.488,-1031.0021 1983.9563,-1032.1572 1986.9753,-1038.4727"/>
</g>
<!-- pandasql -->
<g id="node34" class="node">
<title>pandasql</title>
<polygon fill="#343434" stroke="#343434" points="1813.5,-1076.9531 1730.5,-1076.9531 1730.5,-1040.9531 1813.5,-1040.9531 1813.5,-1076.9531"/>
<text text-anchor="middle" x="1772" y="-1055.2531" font-family="Courier,monospace" font-size="14.00" fill="#de958e">pandasql</text>
</g>
<!-- pandasql&#45;&gt;hidebound.core.database -->
<g id="edge66" class="edge">
<title>pandasql&#45;&gt;hidebound.core.database</title>
<path fill="none" stroke="#de958e" d="M1813.6128,-1051.5624C1842.2942,-1046.4685 1881.8657,-1039.4403 1919.3933,-1032.7752"/>
<polygon fill="#de958e" stroke="#de958e" points="1920.1618,-1036.1935 1929.3957,-1030.9987 1918.9377,-1029.3014 1920.1618,-1036.1935"/>
</g>
<!-- girder_client -->
<g id="node35" class="node">
<title>girder_client</title>
<polygon fill="#343434" stroke="#343434" points="1184.5,-1282.9531 1060.5,-1282.9531 1060.5,-1246.9531 1184.5,-1246.9531 1184.5,-1282.9531"/>
<text text-anchor="middle" x="1122.5" y="-1261.2531" font-family="Courier,monospace" font-size="14.00" fill="#de958e">girder_client</text>
</g>
<!-- girder_client&#45;&gt;hidebound.exporters.girder_exporter -->
<g id="edge67" class="edge">
<title>girder_client&#45;&gt;hidebound.exporters.girder_exporter</title>
<path fill="none" stroke="#de958e" d="M1184.5809,-1269.0386C1219.5037,-1271.3368 1264.8921,-1274.3237 1309.2451,-1277.2425"/>
<polygon fill="#de958e" stroke="#de958e" points="1309.0773,-1280.739 1319.2856,-1277.9033 1309.5371,-1273.7541 1309.0773,-1280.739"/>
</g>
<!-- lunchbox.tools -->
<g id="node36" class="node">
<title>lunchbox.tools</title>
<polygon fill="#343434" stroke="#343434" points="1188.5,-512.9531 1056.5,-512.9531 1056.5,-476.9531 1188.5,-476.9531 1188.5,-512.9531"/>
<text text-anchor="middle" x="1122.5" y="-491.2531" font-family="Courier,monospace" font-size="14.00" fill="#de958e">lunchbox.tools</text>
</g>
<!-- lunchbox.tools&#45;&gt;hidebound.core.database_tools -->
<g id="edge68" class="edge">
<title>lunchbox.tools&#45;&gt;hidebound.core.database_tools</title>
<path fill="none" stroke="#de958e" d="M1148.9205,-513.1295C1178.1368,-533.3804 1226.441,-567.3113 1267,-597.9531 1330.4889,-645.9182 1402.7234,-704.7343 1442.2484,-737.2943"/>
<polygon fill="#de958e" stroke="#de958e" points="1440.23,-740.1665 1450.1712,-743.8304 1444.6846,-734.7668 1440.23,-740.1665"/>
</g>
<!-- lunchbox.tools&#45;&gt;hidebound.server.server_tools -->
<g id="edge69" class="edge">
<title>lunchbox.tools&#45;&gt;hidebound.server.server_tools</title>
<path fill="none" stroke="#de958e" d="M1188.5689,-492.6987C1335.8625,-487.6728 1693.7769,-475.4599 1892.4131,-468.682"/>
<polygon fill="#de958e" stroke="#de958e" points="1892.753,-472.1726 1902.6278,-468.3335 1892.5142,-465.1766 1892.753,-472.1726"/>
</g>
<!-- numpy -->
<g id="node37" class="node">
<title>numpy</title>
<polygon fill="#343434" stroke="#343434" points="1151.5,-642.9531 1093.5,-642.9531 1093.5,-606.9531 1151.5,-606.9531 1151.5,-642.9531"/>
<text text-anchor="middle" x="1122.5" y="-621.2531" font-family="Courier,monospace" font-size="14.00" fill="#de958e">numpy</text>
</g>
<!-- numpy&#45;&gt;hidebound.core.database -->
<g id="edge70" class="edge">
<title>numpy&#45;&gt;hidebound.core.database</title>
<path fill="none" stroke="#de958e" d="M1151.7929,-630.3476C1187.4217,-636.7493 1249.446,-647.3814 1303,-653.9531 1427.8499,-669.2739 1762.1451,-632.4717 1867,-701.9531 1968.9724,-769.5246 2011.794,-921.8925 2025.5835,-984.8831"/>
<polygon fill="#de958e" stroke="#de958e" points="2022.2042,-985.821 2027.6911,-994.8843 2029.0538,-984.3775 2022.2042,-985.821"/>
</g>
<!-- numpy&#45;&gt;hidebound.core.database_tools -->
<g id="edge71" class="edge">
<title>numpy&#45;&gt;hidebound.core.database_tools</title>
<path fill="none" stroke="#de958e" d="M1151.697,-636.398C1209.9882,-659.2475 1341.6251,-710.8477 1416.7395,-740.2917"/>
<polygon fill="#de958e" stroke="#de958e" points="1415.4695,-743.5531 1426.0571,-743.9441 1418.0242,-737.0359 1415.4695,-743.5531"/>
</g>
<!-- numpy&#45;&gt;hidebound.server.api -->
<g id="edge72" class="edge">
<title>numpy&#45;&gt;hidebound.server.api</title>
<path fill="none" stroke="#de958e" d="M1151.7676,-624.5824C1297.7944,-622.7324 1950.6235,-614.4617 2204.779,-611.2418"/>
<polygon fill="#de958e" stroke="#de958e" points="2205.1608,-614.7374 2215.1156,-611.1109 2205.0721,-607.7379 2205.1608,-614.7374"/>
</g>
<!-- json_logging -->
<g id="node38" class="node">
<title>json_logging</title>
<polygon fill="#343434" stroke="#343434" points="646,-810.9531 530,-810.9531 530,-774.9531 646,-774.9531 646,-810.9531"/>
<text text-anchor="middle" x="588" y="-789.2531" font-family="Courier,monospace" font-size="14.00" fill="#de958e">json_logging</text>
</g>
<!-- json_logging&#45;&gt;hidebound.core.logging -->
<g id="edge73" class="edge">
<title>json_logging&#45;&gt;hidebound.core.logging</title>
<path fill="none" stroke="#de958e" d="M646.0848,-792.9531C668.5981,-792.9531 695.1424,-792.9531 720.9707,-792.9531"/>
<polygon fill="#de958e" stroke="#de958e" points="721.2073,-796.4532 731.2073,-792.9531 721.2073,-789.4532 721.2073,-796.4532"/>
</g>
<!-- hidebound.exporters -->
<g id="node39" class="node">
<title>hidebound.exporters</title>
<polygon fill="#343434" stroke="#343434" points="917,-1144.9531 744,-1144.9531 744,-1108.9531 917,-1108.9531 917,-1144.9531"/>
<text text-anchor="middle" x="830.5" y="-1123.2531" font-family="Courier,monospace" font-size="14.00" fill="#a0d17b">hidebound.exporters</text>
</g>
<!-- hidebound.exporters&#45;&gt;hidebound.exporters.exporter_base -->
<g id="edge74" class="edge">
<title>hidebound.exporters&#45;&gt;hidebound.exporters.exporter_base</title>
<path fill="none" stroke="#a0d17b" d="M917.319,-1140.6301C942.6975,-1144.6281 970.9477,-1149.0785 998.1699,-1153.3669"/>
<polygon fill="#a0d17b" stroke="#a0d17b" points="997.7225,-1156.8395 1008.1454,-1154.9384 998.8119,-1149.9248 997.7225,-1156.8395"/>
</g>
<!-- hidebound.exporters&#45;&gt;hidebound.exporters.girder_exporter -->
<g id="edge75" class="edge">
<title>hidebound.exporters&#45;&gt;hidebound.exporters.girder_exporter</title>
<path fill="none" stroke="#a0d17b" d="M917.1907,-1111.7705C1008.7905,-1099.9269 1155.1752,-1093.207 1267,-1145.9531 1288.6319,-1156.1566 1284.5614,-1170.7194 1303,-1185.9531 1341.4401,-1217.7117 1390.7762,-1246.3186 1426.2057,-1265.0976"/>
<polygon fill="#a0d17b" stroke="#a0d17b" points="1424.871,-1268.3496 1435.353,-1269.8918 1428.1205,-1262.1495 1424.871,-1268.3496"/>
</g>
<!-- hidebound.exporters&#45;&gt;hidebound.exporters.local_disk_exporter -->
<g id="edge76" class="edge">
<title>hidebound.exporters&#45;&gt;hidebound.exporters.local_disk_exporter</title>
<path fill="none" stroke="#a0d17b" d="M850.5927,-1108.7504C877.3634,-1085.853 927.2757,-1047.7422 978,-1032.9531 1101.3103,-997.0011 1143.4012,-998.0058 1267,-1032.9531 1336.7004,-1052.6608 1406.0242,-1103.472 1443.5083,-1134.2141"/>
<polygon fill="#a0d17b" stroke="#a0d17b" points="1441.5269,-1137.1185 1451.4532,-1140.8226 1446.0034,-1131.7369 1441.5269,-1137.1185"/>
</g>
<!-- hidebound.exporters&#45;&gt;hidebound.exporters.s3_exporter -->
<g id="edge77" class="edge">
<title>hidebound.exporters&#45;&gt;hidebound.exporters.s3_exporter</title>
<path fill="none" stroke="#a0d17b" d="M917.1024,-1137.7074C926.3145,-1141.6905 934.8965,-1146.9736 942,-1153.9531 987.2134,-1198.3776 932.8605,-1247.4536 978,-1291.9531 1072.19,-1384.8077 1140.9843,-1322.7814 1267,-1362.9531 1320.7821,-1380.098 1380.6483,-1404.3782 1421.7305,-1421.8785"/>
<polygon fill="#a0d17b" stroke="#a0d17b" points="1420.4067,-1425.119 1430.9771,-1425.838 1423.1623,-1418.6841 1420.4067,-1425.119"/>
</g>
<!-- schematics -->
<g id="node40" class="node">
<title>schematics</title>
<polygon fill="#343434" stroke="#343434" points="880,-1541.9531 781,-1541.9531 781,-1505.9531 880,-1505.9531 880,-1541.9531"/>
<text text-anchor="middle" x="830.5" y="-1520.2531" font-family="Courier,monospace" font-size="14.00" fill="#de958e">schematics</text>
</g>
<!-- schematics&#45;&gt;hidebound.core.config -->
<g id="edge78" class="edge">
<title>schematics&#45;&gt;hidebound.core.config</title>
<path fill="none" stroke="#de958e" d="M880.21,-1531.9549C900.6972,-1536.9931 923.8377,-1545.0807 942,-1557.9531 964.0476,-1573.5792 953.8893,-1594.7487 978,-1606.9531 1095.3884,-1666.3731 1479.0891,-1629.4088 1666.7471,-1606.7515"/>
<polygon fill="#de958e" stroke="#de958e" points="1667.399,-1610.1981 1676.9032,-1605.5161 1666.5537,-1603.2493 1667.399,-1610.1981"/>
</g>
<!-- schematics&#45;&gt;hidebound.core.specification_base -->
<g id="edge79" class="edge">
<title>schematics&#45;&gt;hidebound.core.specification_base</title>
<path fill="none" stroke="#de958e" d="M880.0534,-1527.9246C901.8881,-1532.1911 926.134,-1540.7882 942,-1557.9531 992.3586,-1612.4344 925.5544,-1668.4778 978,-1720.9531 981.0651,-1724.02 984.354,-1726.8216 987.8239,-1729.3795"/>
<polygon fill="#de958e" stroke="#de958e" points="985.9522,-1732.3377 996.2285,-1734.9161 989.8031,-1726.4921 985.9522,-1732.3377"/>
</g>
<!-- schematics&#45;&gt;hidebound.exporters.exporter_base -->
<g id="edge80" class="edge">
<title>schematics&#45;&gt;hidebound.exporters.exporter_base</title>
<path fill="none" stroke="#de958e" d="M880.2089,-1520.7289C902.351,-1516.6432 926.8072,-1507.9821 942,-1489.9531 1024.2723,-1392.3227 891.9817,-1299.2999 978,-1204.9531 980.6211,-1202.0783 983.4375,-1199.4316 986.4171,-1196.9961"/>
<polygon fill="#de958e" stroke="#de958e" points="988.6124,-1199.7278 994.6631,-1191.0308 984.5095,-1194.0563 988.6124,-1199.7278"/>
</g>
<!-- schematics&#45;&gt;hidebound.exporters.girder_exporter -->
<g id="edge81" class="edge">
<title>schematics&#45;&gt;hidebound.exporters.girder_exporter</title>
<path fill="none" stroke="#de958e" d="M880.1327,-1509.6086C899.5279,-1503.7973 921.8975,-1496.84 942,-1489.9531 1118.0719,-1429.6331 1323.0588,-1348.2713 1418.2854,-1309.8197"/>
<polygon fill="#de958e" stroke="#de958e" points="1419.7434,-1313.0055 1427.7026,-1306.0125 1417.1197,-1306.5158 1419.7434,-1313.0055"/>
</g>
<!-- schematics.types -->
<g id="node41" class="node">
<title>schematics.types</title>
<polygon fill="#343434" stroke="#343434" points="905,-1480.9531 756,-1480.9531 756,-1444.9531 905,-1444.9531 905,-1480.9531"/>
<text text-anchor="middle" x="830.5" y="-1459.2531" font-family="Courier,monospace" font-size="14.00" fill="#de958e">schematics.types</text>
</g>
<!-- schematics.types&#45;&gt;hidebound.core.config -->
<g id="edge82" class="edge">
<title>schematics.types&#45;&gt;hidebound.core.config</title>
<path fill="none" stroke="#de958e" d="M905.1834,-1476.2245C918.4918,-1481.1126 931.4533,-1487.8011 942,-1496.9531 970.5327,-1521.7128 946.3732,-1553.2914 978,-1573.9531 1034.1921,-1610.6635 1464.2406,-1602.5219 1666.9296,-1596.5197"/>
<polygon fill="#de958e" stroke="#de958e" points="1667.107,-1600.016 1676.9976,-1596.2177 1666.8971,-1593.0192 1667.107,-1600.016"/>
</g>
<!-- schematics.types&#45;&gt;hidebound.core.specification_base -->
<g id="edge83" class="edge">
<title>schematics.types&#45;&gt;hidebound.core.specification_base</title>
<path fill="none" stroke="#de958e" d="M905.0873,-1473.1657C919.0527,-1478.2687 932.291,-1485.818 942,-1496.9531 1008.2666,-1572.9535 908.8191,-1647.5958 978,-1720.9531 980.7958,-1723.9178 983.7998,-1726.6379 986.9755,-1729.1324"/>
<polygon fill="#de958e" stroke="#de958e" points="984.9998,-1732.0216 995.202,-1734.8792 989.0085,-1726.2831 984.9998,-1732.0216"/>
</g>
<!-- schematics.types&#45;&gt;hidebound.core.specifications -->
<g id="edge84" class="edge">
<title>schematics.types&#45;&gt;hidebound.core.specifications</title>
<path fill="none" stroke="#de958e" d="M905.237,-1474.9085C918.7755,-1479.9031 931.8094,-1486.9675 942,-1496.9531 978.7414,-1532.9558 942.629,-1569.6033 978,-1606.9531 993.7627,-1623.5977 1284.4111,-1730.7027 1412.3689,-1777.3242"/>
<polygon fill="#de958e" stroke="#de958e" points="1411.4366,-1780.7095 1422.0306,-1780.8421 1413.8316,-1774.1319 1411.4366,-1780.7095"/>
</g>
<!-- schematics.types&#45;&gt;hidebound.exporters.exporter_base -->
<g id="edge85" class="edge">
<title>schematics.types&#45;&gt;hidebound.exporters.exporter_base</title>
<path fill="none" stroke="#de958e" d="M835.2884,-1444.8309C848.8478,-1397.2558 892.205,-1268.1258 978,-1204.9531 982.7718,-1201.4396 987.8566,-1198.2993 993.1592,-1195.4937"/>
<polygon fill="#de958e" stroke="#de958e" points="994.797,-1198.5895 1002.272,-1191.0811 991.7463,-1192.2892 994.797,-1198.5895"/>
</g>
<!-- schematics.types&#45;&gt;hidebound.exporters.girder_exporter -->
<g id="edge86" class="edge">
<title>schematics.types&#45;&gt;hidebound.exporters.girder_exporter</title>
<path fill="none" stroke="#de958e" d="M854.0794,-1444.6392C882.0396,-1423.8903 930.8182,-1390.6657 978,-1372.9531 1084.4342,-1332.9967 1210.8841,-1311.6853 1309.2046,-1300.3946"/>
<polygon fill="#de958e" stroke="#de958e" points="1309.6871,-1303.8625 1319.2331,-1299.2665 1308.9045,-1296.9064 1309.6871,-1303.8625"/>
</g>
<!-- schematics.types&#45;&gt;hidebound.exporters.local_disk_exporter -->
<g id="edge87" class="edge">
<title>schematics.types&#45;&gt;hidebound.exporters.local_disk_exporter</title>
<path fill="none" stroke="#de958e" d="M838.3632,-1444.6605C866.8986,-1378.4686 964.0532,-1154.8464 978,-1145.9531 1113.1525,-1059.7728 1314.1531,-1106.3087 1412.9005,-1137.746"/>
<polygon fill="#de958e" stroke="#de958e" points="1412.1138,-1141.1703 1422.7059,-1140.9256 1414.2731,-1134.5116 1412.1138,-1141.1703"/>
</g>
<!-- schematics.types&#45;&gt;hidebound.exporters.s3_exporter -->
<g id="edge88" class="edge">
<title>schematics.types&#45;&gt;hidebound.exporters.s3_exporter</title>
<path fill="none" stroke="#de958e" d="M905.029,-1460.7457C1007.676,-1457.7055 1194.7193,-1452.1657 1325.8148,-1448.2829"/>
<polygon fill="#de958e" stroke="#de958e" points="1326.0524,-1451.7775 1335.9444,-1447.9829 1325.8451,-1444.7805 1326.0524,-1451.7775"/>
</g>
<!-- wrapt -->
<g id="node42" class="node">
<title>wrapt</title>
<polygon fill="#343434" stroke="#343434" points="617,-1602.9531 559,-1602.9531 559,-1566.9531 617,-1566.9531 617,-1602.9531"/>
<text text-anchor="middle" x="588" y="-1581.2531" font-family="Courier,monospace" font-size="14.00" fill="#de958e">wrapt</text>
</g>
<!-- wrapt&#45;&gt;hidebound.core.validators -->
<g id="edge89" class="edge">
<title>wrapt&#45;&gt;hidebound.core.validators</title>
<path fill="none" stroke="#de958e" d="M617.2512,-1584.9531C640.4686,-1584.9531 674.6038,-1584.9531 708.7879,-1584.9531"/>
<polygon fill="#de958e" stroke="#de958e" points="708.9021,-1588.4532 718.9021,-1584.9531 708.902,-1581.4532 708.9021,-1588.4532"/>
</g>
<!-- pyparsing -->
<g id="node43" class="node">
<title>pyparsing</title>
<polygon fill="#343434" stroke="#343434" points="436.5,-1648.9531 345.5,-1648.9531 345.5,-1612.9531 436.5,-1612.9531 436.5,-1648.9531"/>
<text text-anchor="middle" x="391" y="-1627.2531" font-family="Courier,monospace" font-size="14.00" fill="#de958e">pyparsing</text>
</g>
<!-- pyparsing&#45;&gt;hidebound.core.parser -->
<g id="edge90" class="edge">
<title>pyparsing&#45;&gt;hidebound.core.parser</title>
<path fill="none" stroke="#de958e" d="M411.9036,-1612.6728C431.6145,-1596.276 462.593,-1572.6055 493,-1557.9531 496.9738,-1556.0383 501.1084,-1554.2356 505.3312,-1552.5418"/>
<polygon fill="#de958e" stroke="#de958e" points="506.5709,-1555.815 514.6887,-1549.0069 504.0971,-1549.2667 506.5709,-1555.815"/>
</g>
<!-- pyparsing&#45;&gt;hidebound.core.specification_base -->
<g id="edge91" class="edge">
<title>pyparsing&#45;&gt;hidebound.core.specification_base</title>
<path fill="none" stroke="#de958e" d="M402.0512,-1649.3731C418.3368,-1674.5368 451.3995,-1718.6235 493,-1736.9531 667.1115,-1813.6687 895.4266,-1793.4717 1023.7774,-1772.6748"/>
<polygon fill="#de958e" stroke="#de958e" points="1024.6879,-1776.0718 1033.9821,-1770.9858 1023.5448,-1769.1658 1024.6879,-1776.0718"/>
</g>
<!-- pyparsing&#45;&gt;hidebound.core.validators -->
<g id="edge92" class="edge">
<title>pyparsing&#45;&gt;hidebound.core.validators</title>
<path fill="none" stroke="#de958e" d="M436.674,-1629.6217C494.2775,-1627.5661 596.2814,-1622.6747 683,-1611.9531 698.7259,-1610.0089 715.3121,-1607.4628 731.4604,-1604.711"/>
<polygon fill="#de958e" stroke="#de958e" points="732.1943,-1608.136 741.4469,-1602.9746 730.9951,-1601.2395 732.1943,-1608.136"/>
</g>
<!-- hidebound -->
<g id="node44" class="node">
<title>hidebound</title>
<polygon fill="#343434" stroke="#343434" points="190,-1144.9531 99,-1144.9531 99,-1108.9531 190,-1108.9531 190,-1144.9531"/>
<text text-anchor="middle" x="144.5" y="-1123.2531" font-family="Courier,monospace" font-size="14.00" fill="#a0d17b">hidebound</text>
</g>
<!-- hidebound&#45;&gt;hidebound.server -->
<g id="edge93" class="edge">
<title>hidebound&#45;&gt;hidebound.server</title>
<path fill="none" stroke="#a0d17b" d="M190.2689,-1129.6898C221.5243,-1129.0983 262.007,-1123.1665 289,-1099.9531 553.8911,-872.1529 238.6288,-372.9531 588,-372.9531 588,-372.9531 588,-372.9531 1122.5,-372.9531 1325.2188,-372.9531 1562.889,-353.7887 1686.8937,-342.3282"/>
<polygon fill="#a0d17b" stroke="#a0d17b" points="1687.4465,-345.792 1697.0792,-341.3805 1686.7979,-338.8221 1687.4465,-345.792"/>
</g>
<!-- hidebound&#45;&gt;hidebound.exporters -->
<g id="edge94" class="edge">
<title>hidebound&#45;&gt;hidebound.exporters</title>
<path fill="none" stroke="#a0d17b" d="M190.0416,-1126.9531C300.3243,-1126.9531 583.6659,-1126.9531 733.7973,-1126.9531"/>
<polygon fill="#a0d17b" stroke="#a0d17b" points="733.9313,-1130.4532 743.9313,-1126.9531 733.9313,-1123.4532 733.9313,-1130.4532"/>
</g>
<!-- hidebound.core -->
<g id="node49" class="node">
<title>hidebound.core</title>
<polygon fill="#343434" stroke="#343434" points="457,-1502.9531 325,-1502.9531 325,-1466.9531 457,-1466.9531 457,-1502.9531"/>
<text text-anchor="middle" x="391" y="-1481.2531" font-family="Courier,monospace" font-size="14.00" fill="#a0d17b">hidebound.core</text>
</g>
<!-- hidebound&#45;&gt;hidebound.core -->
<g id="edge95" class="edge">
<title>hidebound&#45;&gt;hidebound.core</title>
<path fill="none" stroke="#a0d17b" d="M190.1948,-1123.9117C221.6188,-1124.3262 262.3348,-1130.1717 289,-1153.9531 335.2073,-1195.1633 373.077,-1384.2553 386.1232,-1456.6481"/>
<polygon fill="#a0d17b" stroke="#a0d17b" points="382.7384,-1457.6051 387.9339,-1466.8385 389.6304,-1456.3804 382.7384,-1457.6051"/>
</g>
<!-- pandas -->
<g id="node45" class="node">
<title>pandas</title>
<polygon fill="#343434" stroke="#343434" points="621,-718.9531 555,-718.9531 555,-682.9531 621,-682.9531 621,-718.9531"/>
<text text-anchor="middle" x="588" y="-697.2531" font-family="Courier,monospace" font-size="14.00" fill="#de958e">pandas</text>
</g>
<!-- pandas&#45;&gt;hidebound.core.database -->
<g id="edge96" class="edge">
<title>pandas&#45;&gt;hidebound.core.database</title>
<path fill="none" stroke="#de958e" d="M621.1992,-700.1085C811.331,-695.5216 1757.4241,-676.156 1867,-741.9531 1959.7623,-797.6542 2006.8107,-927.8146 2023.6192,-985.0773"/>
<polygon fill="#de958e" stroke="#de958e" points="2020.3071,-986.2262 2026.41,-994.8868 2027.04,-984.3107 2020.3071,-986.2262"/>
</g>
<!-- pandas&#45;&gt;hidebound.core.database_tools -->
<g id="edge97" class="edge">
<title>pandas&#45;&gt;hidebound.core.database_tools</title>
<path fill="none" stroke="#de958e" d="M621.2847,-701.4211C719.9978,-703.0454 1019.6754,-709.6828 1267,-732.9531 1293.3381,-735.4312 1321.4757,-738.8814 1348.2013,-742.5398"/>
<polygon fill="#de958e" stroke="#de958e" points="1347.9821,-746.0428 1358.3683,-743.9505 1348.9443,-739.1093 1347.9821,-746.0428"/>
</g>
<!-- pandas&#45;&gt;hidebound.core.tools -->
<g id="edge98" class="edge">
<title>pandas&#45;&gt;hidebound.core.tools</title>
<path fill="none" stroke="#de958e" d="M621.0339,-714.5004C642.5059,-725.1503 669.0195,-742.1813 683,-765.9531 726.8973,-840.5943 662.3679,-1088.4468 719,-1153.9531 722.4529,-1157.9471 726.3862,-1161.4034 730.6634,-1164.3906"/>
<polygon fill="#de958e" stroke="#de958e" points="728.9041,-1167.4168 739.2768,-1169.575 732.5139,-1161.4193 728.9041,-1167.4168"/>
</g>
<!-- pandas&#45;&gt;hidebound.core.validators -->
<g id="edge99" class="edge">
<title>pandas&#45;&gt;hidebound.core.validators</title>
<path fill="none" stroke="#de958e" d="M621.39,-714.2965C643.0209,-724.8554 669.5782,-741.8615 683,-765.9531 725.4941,-842.2288 665.444,-1481.9932 719,-1550.9531 721.8706,-1554.6493 725.1323,-1557.9552 728.6912,-1560.9111"/>
<polygon fill="#de958e" stroke="#de958e" points="726.7606,-1563.8339 736.9204,-1566.8387 730.8519,-1558.1539 726.7606,-1563.8339"/>
</g>
<!-- pandas&#45;&gt;hidebound.server.components -->
<g id="edge100" class="edge">
<title>pandas&#45;&gt;hidebound.server.components</title>
<path fill="none" stroke="#de958e" d="M612.1266,-682.8112C671.2627,-639.2049 829.4584,-527.7061 978,-467.9531 1293.9797,-340.8459 1697.6723,-299.3706 1901.2196,-286.0691"/>
<polygon fill="#de958e" stroke="#de958e" points="1901.6003,-289.5519 1911.3558,-285.4192 1901.1523,-282.5663 1901.6003,-289.5519"/>
</g>
<!-- jsoncomment -->
<g id="node46" class="node">
<title>jsoncomment</title>
<polygon fill="#343434" stroke="#343434" points="641.5,-558.9531 534.5,-558.9531 534.5,-522.9531 641.5,-522.9531 641.5,-558.9531"/>
<text text-anchor="middle" x="588" y="-537.2531" font-family="Courier,monospace" font-size="14.00" fill="#de958e">jsoncomment</text>
</g>
<!-- jsoncomment&#45;&gt;hidebound.core.database -->
<g id="edge101" class="edge">
<title>jsoncomment&#45;&gt;hidebound.core.database</title>
<path fill="none" stroke="#de958e" d="M641.5593,-538.8198C858.0135,-531.2246 1666.1368,-513.08 1867,-655.9531 1980.1653,-736.4471 2017.0617,-914.7275 2027.424,-984.3292"/>
<polygon fill="#de958e" stroke="#de958e" points="2024.0014,-985.1236 2028.8669,-994.5351 2030.9325,-984.1436 2024.0014,-985.1236"/>
</g>
<!-- jsoncomment&#45;&gt;hidebound.core.tools -->
<g id="edge102" class="edge">
<title>jsoncomment&#45;&gt;hidebound.core.tools</title>
<path fill="none" stroke="#de958e" d="M606.2104,-559.2745C628.7735,-583.2861 666.28,-627.7983 683,-673.9531 719.4327,-774.5237 649.7606,-1072.4198 719,-1153.9531 722.4568,-1158.0237 726.4126,-1161.5377 730.7249,-1164.5672"/>
<polygon fill="#de958e" stroke="#de958e" points="729.0498,-1167.6443 739.42,-1169.8147 732.6668,-1161.6511 729.0498,-1167.6443"/>
</g>
<!-- jsoncomment&#45;&gt;hidebound.server.server_tools -->
<g id="edge103" class="edge">
<title>jsoncomment&#45;&gt;hidebound.server.server_tools</title>
<path fill="none" stroke="#de958e" d="M641.5027,-527.7473C716.2525,-510.0309 856.4465,-479.4643 978,-467.9531 1304.8587,-436.9996 1691.3477,-447.5075 1892.9372,-456.5373"/>
<polygon fill="#de958e" stroke="#de958e" points="1892.8392,-460.0364 1902.9875,-456.9932 1893.1564,-453.0436 1892.8392,-460.0364"/>
</g>
<!-- OpenEXR -->
<g id="node47" class="node">
<title>OpenEXR</title>
<polygon fill="#343434" stroke="#343434" points="625,-1198.9531 551,-1198.9531 551,-1162.9531 625,-1162.9531 625,-1198.9531"/>
<text text-anchor="middle" x="588" y="-1177.2531" font-family="Courier,monospace" font-size="14.00" fill="#de958e">OpenEXR</text>
</g>
<!-- OpenEXR&#45;&gt;hidebound.core.tools -->
<g id="edge104" class="edge">
<title>OpenEXR&#45;&gt;hidebound.core.tools</title>
<path fill="none" stroke="#de958e" d="M625.0945,-1180.9531C652.8668,-1180.9531 692.2626,-1180.9531 729.1359,-1180.9531"/>
<polygon fill="#de958e" stroke="#de958e" points="729.4574,-1184.4532 739.4574,-1180.9531 729.4574,-1177.4532 729.4574,-1184.4532"/>
</g>
<!-- schematics.exceptions -->
<g id="node48" class="node">
<title>schematics.exceptions</title>
<polygon fill="#343434" stroke="#343434" points="683,-1694.9531 493,-1694.9531 493,-1658.9531 683,-1658.9531 683,-1694.9531"/>
<text text-anchor="middle" x="588" y="-1673.2531" font-family="Courier,monospace" font-size="14.00" fill="#de958e">schematics.exceptions</text>
</g>
<!-- schematics.exceptions&#45;&gt;hidebound.core.config -->
<g id="edge105" class="edge">
<title>schematics.exceptions&#45;&gt;hidebound.core.config</title>
<path fill="none" stroke="#de958e" d="M660.7278,-1694.9869C758.527,-1719.8591 922.4958,-1763.9896 942,-1784.9531 991.0588,-1837.6826 921.6994,-1898.0376 978,-1942.9531 1078.4069,-2023.0558 1138.8171,-1951.1452 1267,-1942.9531 1434.2444,-1932.2647 1507.0401,-1995.6492 1641,-1894.9531 1731.7171,-1826.7622 1760.5196,-1682.6488 1768.8765,-1621.4281"/>
<polygon fill="#de958e" stroke="#de958e" points="1772.3708,-1621.6953 1770.1696,-1611.3317 1765.4275,-1620.806 1772.3708,-1621.6953"/>
</g>
<!-- schematics.exceptions&#45;&gt;hidebound.core.database_tools -->
<g id="edge106" class="edge">
<title>schematics.exceptions&#45;&gt;hidebound.core.database_tools</title>
<path fill="none" stroke="#de958e" d="M630.3408,-1658.7577C649.8148,-1648.0812 671.1739,-1632.5853 683,-1611.9531 739.7202,-1512.9976 653.7026,-1193.4712 719,-1099.9531 802.8427,-979.8748 1232.8664,-836.0627 1402.7911,-782.9733"/>
<polygon fill="#de958e" stroke="#de958e" points="1403.8813,-786.2997 1412.3886,-779.9849 1401.8002,-779.6161 1403.8813,-786.2997"/>
</g>
<!-- schematics.exceptions&#45;&gt;hidebound.core.specification_base -->
<g id="edge107" class="edge">
<title>schematics.exceptions&#45;&gt;hidebound.core.specification_base</title>
<path fill="none" stroke="#de958e" d="M683.163,-1679.5875C754.9352,-1683.0099 855.4701,-1690.876 942,-1708.9531 958.5091,-1712.4021 961.7448,-1716.4571 978,-1720.9531 992.8298,-1725.0549 1008.6284,-1728.9887 1024.1311,-1732.6086"/>
<polygon fill="#de958e" stroke="#de958e" points="1023.7323,-1736.1083 1034.2626,-1734.9407 1025.3026,-1729.2867 1023.7323,-1736.1083"/>
</g>
<!-- schematics.exceptions&#45;&gt;hidebound.core.tools -->
<g id="edge108" class="edge">
<title>schematics.exceptions&#45;&gt;hidebound.core.tools</title>
<path fill="none" stroke="#de958e" d="M627.7504,-1658.8633C647.3036,-1647.977 669.5115,-1632.2627 683,-1611.9531 727.1721,-1545.4434 694.873,-1512.0623 719,-1435.9531 746.2627,-1349.9522 793.0721,-1253.7492 816.4113,-1207.9771"/>
<polygon fill="#de958e" stroke="#de958e" points="819.5679,-1209.492 821.02,-1198.9972 813.3401,-1206.2958 819.5679,-1209.492"/>
</g>
<!-- schematics.exceptions&#45;&gt;hidebound.core.validators -->
<g id="edge109" class="edge">
<title>schematics.exceptions&#45;&gt;hidebound.core.validators</title>
<path fill="none" stroke="#de958e" d="M643.4597,-1658.91C656.4844,-1654.4965 670.2746,-1649.6795 683,-1644.9531 715.1311,-1633.0193 750.7368,-1618.5713 778.9147,-1606.8436"/>
<polygon fill="#de958e" stroke="#de958e" points="780.2914,-1610.0617 788.1702,-1602.9783 777.5938,-1603.6024 780.2914,-1610.0617"/>
</g>
<!-- schematics.exceptions&#45;&gt;hidebound.server.api -->
<g id="edge110" class="edge">
<title>schematics.exceptions&#45;&gt;hidebound.server.api</title>
<path fill="none" stroke="#de958e" d="M614.8449,-1695.0046C687.1457,-1743.8231 884.379,-1878.38 942,-1931.9531 960.2538,-1948.9247 955.7467,-1963.7271 978,-1974.9531 1174.3861,-2074.0234 1252.04,-2004.9531 1472,-2004.9531 1472,-2004.9531 1472,-2004.9531 1772,-2004.9531 2075.862,-2004.9531 2271.2692,-836.2257 2302.1869,-638.2731"/>
<polygon fill="#de958e" stroke="#de958e" points="2305.6905,-638.5195 2303.7637,-628.1013 2298.7731,-637.4471 2305.6905,-638.5195"/>
</g>
<!-- hidebound.core&#45;&gt;hidebound.core.config -->
<g id="edge111" class="edge">
<title>hidebound.core&#45;&gt;hidebound.core.config</title>
<path fill="none" stroke="#a0d17b" d="M404.1149,-1503.2951C419.5093,-1525.8292 444.5184,-1565.7803 457,-1603.9531 496.6788,-1725.304 417.351,-1786.1053 493,-1888.9531 590.6934,-2021.7712 665.6223,-2042.9531 830.5,-2042.9531 830.5,-2042.9531 830.5,-2042.9531 1122.5,-2042.9531 1357.7108,-2042.9531 1461.7538,-2089.2518 1641,-1936.9531 1739.2622,-1853.4635 1764.0084,-1687.8908 1770.0832,-1621.486"/>
<polygon fill="#a0d17b" stroke="#a0d17b" points="1773.5853,-1621.6067 1770.9337,-1611.349 1766.6098,-1621.0214 1773.5853,-1621.6067"/>
</g>
<!-- hidebound.core&#45;&gt;hidebound.core.database -->
<g id="edge112" class="edge">
<title>hidebound.core&#45;&gt;hidebound.core.database</title>
<path fill="none" stroke="#a0d17b" d="M394.3372,-1466.6067C406.0687,-1403.9814 447.1887,-1199.9841 493,-1153.9531 652.3485,-993.8407 755.3158,-1039.8965 978,-1001.9531 1315.7361,-944.4061 1723.2661,-977.0045 1917.4322,-998.6087"/>
<polygon fill="#a0d17b" stroke="#a0d17b" points="1917.3197,-1002.118 1927.6481,-999.7572 1918.1018,-995.1618 1917.3197,-1002.118"/>
</g>
<!-- hidebound.core&#45;&gt;hidebound.core.database_tools -->
<g id="edge113" class="edge">
<title>hidebound.core&#45;&gt;hidebound.core.database_tools</title>
<path fill="none" stroke="#a0d17b" d="M392.1811,-1466.7436C399.314,-1359.5416 438.1764,-813.745 493,-765.9531 554.7535,-712.1202 1078.773,-737.1041 1333.7469,-752.721"/>
<polygon fill="#a0d17b" stroke="#a0d17b" points="1333.6238,-756.22 1343.8202,-753.3417 1334.0544,-749.2332 1333.6238,-756.22"/>
</g>
<!-- hidebound.core&#45;&gt;hidebound.core.logging -->
<g id="edge114" class="edge">
<title>hidebound.core&#45;&gt;hidebound.core.logging</title>
<path fill="none" stroke="#a0d17b" d="M391.3078,-1466.8831C393.2647,-1374.1744 406.8491,-952.7976 493,-862.9531 497.1668,-858.6077 629.5356,-832.0502 727.2331,-812.9324"/>
<polygon fill="#a0d17b" stroke="#a0d17b" points="728.0268,-816.3436 737.1696,-810.9902 726.6839,-809.4736 728.0268,-816.3436"/>
</g>
<!-- hidebound.core&#45;&gt;hidebound.core.parser -->
<g id="edge115" class="edge">
<title>hidebound.core&#45;&gt;hidebound.core.parser</title>
<path fill="none" stroke="#a0d17b" d="M457.1462,-1500.3984C471.1325,-1503.6643 486.0978,-1507.1587 500.7283,-1510.575"/>
<polygon fill="#a0d17b" stroke="#a0d17b" points="500.2535,-1514.0582 510.7875,-1512.9238 501.8453,-1507.2416 500.2535,-1514.0582"/>
</g>
<!-- hidebound.core&#45;&gt;hidebound.core.specification_base -->
<g id="edge116" class="edge">
<title>hidebound.core&#45;&gt;hidebound.core.specification_base</title>
<path fill="none" stroke="#a0d17b" d="M402.2314,-1503.03C416.188,-1525.9514 440.2098,-1566.9501 457,-1603.9531 476.5184,-1646.9687 455.4374,-1675.3112 493,-1703.9531 652.5038,-1825.5769 905.6037,-1798.3674 1037.0076,-1772.9514"/>
<polygon fill="#a0d17b" stroke="#a0d17b" points="1037.8945,-1776.3439 1047.026,-1770.9713 1036.5371,-1769.4767 1037.8945,-1776.3439"/>
</g>
<!-- hidebound.core&#45;&gt;hidebound.core.specifications -->
<g id="edge117" class="edge">
<title>hidebound.core&#45;&gt;hidebound.core.specifications</title>
<path fill="none" stroke="#a0d17b" d="M403.1808,-1503.1357C417.8826,-1525.8339 442.439,-1566.2707 457,-1603.9531 482.1791,-1669.1146 443.0679,-1708.0984 493,-1756.9531 608.5314,-1869.9918 1091.944,-1838.3609 1333.4514,-1814.5476"/>
<polygon fill="#a0d17b" stroke="#a0d17b" points="1334.1025,-1818.0002 1343.7066,-1813.5268 1333.409,-1811.0346 1334.1025,-1818.0002"/>
</g>
<!-- hidebound.core&#45;&gt;hidebound.core.tools -->
<g id="edge118" class="edge">
<title>hidebound.core&#45;&gt;hidebound.core.tools</title>
<path fill="none" stroke="#a0d17b" d="M417.1765,-1466.847C492.7503,-1414.5729 711.2911,-1263.4093 796.1968,-1204.6805"/>
<polygon fill="#a0d17b" stroke="#a0d17b" points="798.2274,-1207.5317 804.4606,-1198.9645 794.2453,-1201.7747 798.2274,-1207.5317"/>
</g>
<!-- hidebound.core&#45;&gt;hidebound.core.traits -->
<g id="edge119" class="edge">
<title>hidebound.core&#45;&gt;hidebound.core.traits</title>
<path fill="none" stroke="#a0d17b" d="M403.9918,-1503.336C419.265,-1525.9104 444.1548,-1565.9011 457,-1603.9531 474.741,-1656.5083 451.9793,-1813.6156 493,-1850.9531 567.1886,-1918.4805 858.0131,-1905.6951 1017.1052,-1892.9998"/>
<polygon fill="#a0d17b" stroke="#a0d17b" points="1017.7062,-1896.4626 1027.3901,-1892.1646 1017.1396,-1889.4856 1017.7062,-1896.4626"/>
</g>
<!-- hidebound.core&#45;&gt;hidebound.core.validators -->
<g id="edge120" class="edge">
<title>hidebound.core&#45;&gt;hidebound.core.validators</title>
<path fill="none" stroke="#a0d17b" d="M457.2706,-1474.3415C519.374,-1467.7084 612.8905,-1466.4613 683,-1503.9531 706.2031,-1516.3613 697.3814,-1535.9537 719,-1550.9531 725.547,-1555.4956 732.7179,-1559.4451 740.1657,-1562.8765"/>
<polygon fill="#a0d17b" stroke="#a0d17b" points="739.1502,-1566.2484 749.7217,-1566.9516 741.8961,-1559.8094 739.1502,-1566.2484"/>
</g>
<!-- selenium.webdriver.chrome.options -->
<g id="node50" class="node">
<title>selenium.webdriver.chrome.options</title>
<polygon fill="#343434" stroke="#343434" points="289,-1198.9531 0,-1198.9531 0,-1162.9531 289,-1162.9531 289,-1198.9531"/>
<text text-anchor="middle" x="144.5" y="-1177.2531" font-family="Courier,monospace" font-size="14.00" fill="#de958e">selenium.webdriver.chrome.options</text>
</g>
<!-- skimage.io -->
<g id="node51" class="node">
<title>skimage.io</title>
<polygon fill="#343434" stroke="#343434" points="880,-1976.9531 781,-1976.9531 781,-1940.9531 880,-1940.9531 880,-1976.9531"/>
<text text-anchor="middle" x="830.5" y="-1955.2531" font-family="Courier,monospace" font-size="14.00" fill="#de958e">skimage.io</text>
</g>
<!-- skimage.io&#45;&gt;hidebound.core.traits -->
<g id="edge121" class="edge">
<title>skimage.io&#45;&gt;hidebound.core.traits</title>
<path fill="none" stroke="#de958e" d="M880.0338,-1946.0608C924.7456,-1934.4235 991.3053,-1917.0997 1043.3823,-1903.5454"/>
<polygon fill="#de958e" stroke="#de958e" points="1044.4651,-1906.8803 1053.261,-1900.9742 1042.7018,-1900.106 1044.4651,-1906.8803"/>
</g>
</g>
</svg>
