<?xml version="1.0" encoding="UTF-8" standalone="no"?>
<!DOCTYPE svg PUBLIC "-//W3C//DTD SVG 1.1//EN"
 "http://www.w3.org/Graphics/SVG/1.1/DTD/svg11.dtd">
<!-- Generated by graphviz version 2.40.1 (20161225.0304)
 -->
<!-- Title: %3 Pages: 1 -->
<svg width="2947pt" height="2116pt"
 viewBox="0.00 0.00 2947.00 2115.65" xmlns="http://www.w3.org/2000/svg" xmlns:xlink="http://www.w3.org/1999/xlink">
<g id="graph0" class="graph" transform="scale(1 1) rotate(0) translate(4 2111.6518)">
<title>%3</title>
<polygon fill="#242424" stroke="transparent" points="-4,4 -4,-2111.6518 2943,-2111.6518 2943,4 -4,4"/>
<!-- cli -->
<g id="node1" class="node">
<title>cli</title>
<polygon fill="#343434" stroke="#343434" points="72.5,-1444 18.5,-1444 18.5,-1408 72.5,-1408 72.5,-1444"/>
<text text-anchor="middle" x="45.5" y="-1422.3" font-family="Courier,monospace" font-size="14.00" fill="#b6ecf3">cli</text>
</g>
<!-- hidebound.core.config -->
<g id="node2" class="node">
<title>hidebound.core.config</title>
<polygon fill="#343434" stroke="#343434" points="1669,-994 1479,-994 1479,-958 1669,-958 1669,-994"/>
<text text-anchor="middle" x="1574" y="-972.3" font-family="Courier,monospace" font-size="14.00" fill="#b6ecf3">hidebound.core.config</text>
</g>
<!-- hidebound.core.database -->
<g id="node3" class="node">
<title>hidebound.core.database</title>
<polygon fill="#343434" stroke="#343434" points="1936,-804 1730,-804 1730,-768 1936,-768 1936,-804"/>
<text text-anchor="middle" x="1833" y="-782.3" font-family="Courier,monospace" font-size="14.00" fill="#b6ecf3">hidebound.core.database</text>
</g>
<!-- hidebound.core.config&#45;&gt;hidebound.core.database -->
<g id="edge1" class="edge">
<title>hidebound.core.config&#45;&gt;hidebound.core.database</title>
<path fill="none" stroke="#b6ecf3" d="M1598.834,-957.782C1645.7289,-923.3804 1747.3171,-848.8562 1799.9279,-810.2614"/>
<polygon fill="#b6ecf3" stroke="#b6ecf3" points="1802.2484,-812.8999 1808.2412,-804.1628 1798.1078,-807.2558 1802.2484,-812.8999"/>
</g>
<!-- hidebound.server.extension -->
<g id="node19" class="node">
<title>hidebound.server.extension</title>
<polygon fill="#343434" stroke="#343434" points="2446,-1573 2215,-1573 2215,-1537 2446,-1537 2446,-1573"/>
<text text-anchor="middle" x="2330.5" y="-1551.3" font-family="Courier,monospace" font-size="14.00" fill="#b6ecf3">hidebound.server.extension</text>
</g>
<!-- hidebound.core.config&#45;&gt;hidebound.server.extension -->
<g id="edge2" class="edge">
<title>hidebound.core.config&#45;&gt;hidebound.server.extension</title>
<path fill="none" stroke="#b6ecf3" d="M1581.284,-994.1396C1614.5229,-1074.2166 1760.4485,-1397.7978 1997,-1527 2059.561,-1561.1703 2138.7547,-1569.0196 2204.27,-1567.9283"/>
<polygon fill="#b6ecf3" stroke="#b6ecf3" points="2204.7496,-1571.4179 2214.6628,-1567.679 2204.5817,-1564.4199 2204.7496,-1571.4179"/>
</g>
<!-- hidebound.server.api -->
<g id="node16" class="node">
<title>hidebound.server.api</title>
<polygon fill="#343434" stroke="#343434" points="2179,-1619 1997,-1619 1997,-1583 2179,-1583 2179,-1619"/>
<text text-anchor="middle" x="2088" y="-1597.3" font-family="Courier,monospace" font-size="14.00" fill="#b6ecf3">hidebound.server.api</text>
</g>
<!-- hidebound.core.database&#45;&gt;hidebound.server.api -->
<g id="edge3" class="edge">
<title>hidebound.core.database&#45;&gt;hidebound.server.api</title>
<path fill="none" stroke="#b6ecf3" d="M1835.2888,-804.1726C1848.3264,-905.6971 1915.5179,-1402.719 1997,-1531 2009.0311,-1549.9411 2028.0789,-1565.7603 2045.6454,-1577.5404"/>
<polygon fill="#b6ecf3" stroke="#b6ecf3" points="2043.8106,-1580.5218 2054.1128,-1582.9949 2047.6014,-1574.6371 2043.8106,-1580.5218"/>
</g>
<!-- hidebound.core.database&#45;&gt;hidebound.server.extension -->
<g id="edge4" class="edge">
<title>hidebound.core.database&#45;&gt;hidebound.server.extension</title>
<path fill="none" stroke="#b6ecf3" d="M1834.5795,-804.2745C1843.6741,-905.1655 1892.6444,-1393.1506 1997,-1493 2012.3901,-1507.7255 2116.8973,-1525.6086 2204.8802,-1538.3774"/>
<polygon fill="#b6ecf3" stroke="#b6ecf3" points="2204.5762,-1541.8696 2214.973,-1539.8304 2205.5738,-1534.9411 2204.5762,-1541.8696"/>
</g>
<!-- hidebound.core.database_tools -->
<g id="node4" class="node">
<title>hidebound.core.database_tools</title>
<polygon fill="#343434" stroke="#343434" points="1402,-563 1146,-563 1146,-527 1402,-527 1402,-563"/>
<text text-anchor="middle" x="1274" y="-541.3" font-family="Courier,monospace" font-size="14.00" fill="#b6ecf3">hidebound.core.database_tools</text>
</g>
<!-- hidebound.core.database_tools&#45;&gt;hidebound.core.database -->
<g id="edge5" class="edge">
<title>hidebound.core.database_tools&#45;&gt;hidebound.core.database</title>
<path fill="none" stroke="#b6ecf3" d="M1316.5388,-563.0155C1357.5522,-579.8457 1421.6658,-604.7483 1479,-621 1561.8526,-644.485 1591.6126,-621.2205 1669,-659 1687.9743,-668.263 1688.5448,-676.7692 1705,-690 1736.3135,-715.1776 1773.1062,-742.552 1799.1891,-761.6024"/>
<polygon fill="#b6ecf3" stroke="#b6ecf3" points="1797.4567,-764.6706 1807.6006,-767.7287 1801.5778,-759.0123 1797.4567,-764.6706"/>
</g>
<!-- hidebound.core.logging -->
<g id="node5" class="node">
<title>hidebound.core.logging</title>
<polygon fill="#343434" stroke="#343434" points="731.5,-1818 533.5,-1818 533.5,-1782 731.5,-1782 731.5,-1818"/>
<text text-anchor="middle" x="632.5" y="-1796.3" font-family="Courier,monospace" font-size="14.00" fill="#b6ecf3">hidebound.core.logging</text>
</g>
<!-- hidebound.core.logging&#45;&gt;hidebound.core.database -->
<g id="edge6" class="edge">
<title>hidebound.core.logging&#45;&gt;hidebound.core.database</title>
<path fill="none" stroke="#b6ecf3" d="M731.5852,-1810.7023C747.748,-1812.0745 764.3267,-1813.2578 780,-1814 1074.3369,-1827.9372 1153.8212,-1870.6042 1443,-1814 1549.4284,-1793.1676 1600.9075,-1806.4062 1669,-1722 1698.6201,-1685.2835 1806.2589,-966.7826 1828.8306,-814.291"/>
<polygon fill="#b6ecf3" stroke="#b6ecf3" points="1832.3065,-814.7113 1830.3065,-804.3069 1825.3817,-813.6876 1832.3065,-814.7113"/>
</g>
<!-- hidebound.exporters.exporter_base -->
<g id="node12" class="node">
<title>hidebound.exporters.exporter_base</title>
<polygon fill="#343434" stroke="#343434" points="1069,-1376 780,-1376 780,-1340 1069,-1340 1069,-1376"/>
<text text-anchor="middle" x="924.5" y="-1354.3" font-family="Courier,monospace" font-size="14.00" fill="#b6ecf3">hidebound.exporters.exporter_base</text>
</g>
<!-- hidebound.core.logging&#45;&gt;hidebound.exporters.exporter_base -->
<g id="edge7" class="edge">
<title>hidebound.core.logging&#45;&gt;hidebound.exporters.exporter_base</title>
<path fill="none" stroke="#b6ecf3" d="M644.3098,-1781.8888C669.2732,-1743.6268 729.2763,-1651.771 780,-1575 825.4447,-1506.2188 879.3685,-1425.4664 906.7026,-1384.5931"/>
<polygon fill="#b6ecf3" stroke="#b6ecf3" points="909.6256,-1386.5184 912.2763,-1376.2605 903.8072,-1382.6265 909.6256,-1386.5184"/>
</g>
<!-- hidebound.core.logging&#45;&gt;hidebound.server.api -->
<g id="edge8" class="edge">
<title>hidebound.core.logging&#45;&gt;hidebound.server.api</title>
<path fill="none" stroke="#b6ecf3" d="M687.5235,-1818.0414C714.9797,-1826.1436 748.8929,-1834.8109 780,-1839 923.1583,-1858.2786 960.5509,-1841.3333 1105,-1842 1255.2206,-1842.6933 1294.2055,-1862.662 1443,-1842 1546.4021,-1827.6413 1589.1292,-1845.2222 1669,-1778 1697.2887,-1754.1912 1675.031,-1724.6558 1705,-1703 1797.9835,-1635.8095 1858.392,-1721.304 1961,-1670 1981.5216,-1659.7392 1977.6665,-1645.3545 1997,-1633 2002.6888,-1629.3647 2008.8425,-1626.0809 2015.1736,-1623.1279"/>
<polygon fill="#b6ecf3" stroke="#b6ecf3" points="2016.7797,-1626.2457 2024.5428,-1619.0357 2013.9779,-1619.8309 2016.7797,-1626.2457"/>
</g>
<!-- hidebound.server.server_tools -->
<g id="node21" class="node">
<title>hidebound.server.server_tools</title>
<polygon fill="#343434" stroke="#343434" points="1961,-681 1705,-681 1705,-645 1961,-645 1961,-681"/>
<text text-anchor="middle" x="1833" y="-659.3" font-family="Courier,monospace" font-size="14.00" fill="#b6ecf3">hidebound.server.server_tools</text>
</g>
<!-- hidebound.core.logging&#45;&gt;hidebound.server.server_tools -->
<g id="edge9" class="edge">
<title>hidebound.core.logging&#45;&gt;hidebound.server.server_tools</title>
<path fill="none" stroke="#b6ecf3" d="M731.7383,-1802.3127C899.4754,-1800.8028 1240.524,-1773.5919 1443,-1591 1650.9157,-1403.5026 1597.9139,-1273.7969 1669,-1003 1696.8326,-896.9739 1648.9339,-853.1955 1705,-759 1723.9094,-727.2307 1757.7552,-702.5465 1785.8951,-686.1675"/>
<polygon fill="#b6ecf3" stroke="#b6ecf3" points="1787.8136,-689.1039 1794.8048,-681.1431 1784.3751,-683.0066 1787.8136,-689.1039"/>
</g>
<!-- hidebound.core.parser -->
<g id="node6" class="node">
<title>hidebound.core.parser</title>
<polygon fill="#343434" stroke="#343434" points="485,-910 295,-910 295,-874 485,-874 485,-910"/>
<text text-anchor="middle" x="390" y="-888.3" font-family="Courier,monospace" font-size="14.00" fill="#b6ecf3">hidebound.core.parser</text>
</g>
<!-- hidebound.core.parser&#45;&gt;hidebound.core.database_tools -->
<g id="edge10" class="edge">
<title>hidebound.core.parser&#45;&gt;hidebound.core.database_tools</title>
<path fill="none" stroke="#b6ecf3" d="M485.2011,-875.3703C659.7943,-844.4131 1018.0493,-778.5895 1069,-751 1152.398,-705.8404 1223.8467,-615.9377 1255.9315,-571.3442"/>
<polygon fill="#b6ecf3" stroke="#b6ecf3" points="1258.8804,-573.2365 1261.8155,-563.0563 1253.1726,-569.1842 1258.8804,-573.2365"/>
</g>
<!-- hidebound.core.specification_base -->
<g id="node7" class="node">
<title>hidebound.core.specification_base</title>
<polygon fill="#343434" stroke="#343434" points="1069,-872 780,-872 780,-836 1069,-836 1069,-872"/>
<text text-anchor="middle" x="924.5" y="-850.3" font-family="Courier,monospace" font-size="14.00" fill="#b6ecf3">hidebound.core.specification_base</text>
</g>
<!-- hidebound.core.parser&#45;&gt;hidebound.core.specification_base -->
<g id="edge11" class="edge">
<title>hidebound.core.parser&#45;&gt;hidebound.core.specification_base</title>
<path fill="none" stroke="#b6ecf3" d="M485.143,-896.8694C497.2098,-897.3363 509.3919,-897.7343 521,-898 620.0852,-900.2679 646.1687,-913.8758 744,-898 760.6477,-895.2984 763.7448,-890.496 780,-886 794.8298,-881.8982 810.6284,-877.9644 826.1311,-874.3445"/>
<polygon fill="#b6ecf3" stroke="#b6ecf3" points="827.3026,-877.6664 836.2626,-872.0124 825.7323,-870.8448 827.3026,-877.6664"/>
</g>
<!-- hidebound.core.validators -->
<g id="node11" class="node">
<title>hidebound.core.validators</title>
<polygon fill="#343434" stroke="#343434" points="744,-1216 521,-1216 521,-1180 744,-1180 744,-1216"/>
<text text-anchor="middle" x="632.5" y="-1194.3" font-family="Courier,monospace" font-size="14.00" fill="#b6ecf3">hidebound.core.validators</text>
</g>
<!-- hidebound.core.parser&#45;&gt;hidebound.core.validators -->
<g id="edge12" class="edge">
<title>hidebound.core.parser&#45;&gt;hidebound.core.validators</title>
<path fill="none" stroke="#b6ecf3" d="M468.0387,-910.2004C474.3649,-913.9688 480.1683,-918.5152 485,-924 538.641,-984.8911 479.8507,-1033.0584 521,-1103 538.4188,-1132.6068 568.4974,-1157.4183 593.027,-1174.2523"/>
<polygon fill="#b6ecf3" stroke="#b6ecf3" points="591.1816,-1177.2285 601.4422,-1179.8688 595.0675,-1171.4062 591.1816,-1177.2285"/>
</g>
<!-- hidebound.core.specification_base&#45;&gt;hidebound.core.config -->
<g id="edge13" class="edge">
<title>hidebound.core.specification_base&#45;&gt;hidebound.core.config</title>
<path fill="none" stroke="#b6ecf3" d="M1031.4694,-835.9845C1139.1572,-822.445 1308.1749,-813.9316 1443,-865 1488.7267,-882.3202 1529.6379,-923.0164 1553.1311,-950.0216"/>
<polygon fill="#b6ecf3" stroke="#b6ecf3" points="1550.7047,-952.571 1559.849,-957.9219 1556.0374,-948.0364 1550.7047,-952.571"/>
</g>
<!-- hidebound.core.specification_base&#45;&gt;hidebound.core.database -->
<g id="edge14" class="edge">
<title>hidebound.core.specification_base&#45;&gt;hidebound.core.database</title>
<path fill="none" stroke="#b6ecf3" d="M1012.2907,-835.9567C1041.646,-830.5871 1074.623,-825.2697 1105,-822 1354.4166,-795.1534 1418.6258,-815.5616 1669,-800 1685.4507,-798.9775 1702.8138,-797.7051 1719.8431,-796.3473"/>
<polygon fill="#b6ecf3" stroke="#b6ecf3" points="1720.1368,-799.835 1729.8216,-795.5391 1719.5717,-792.8579 1720.1368,-799.835"/>
</g>
<!-- hidebound.core.specification_base&#45;&gt;hidebound.core.database_tools -->
<g id="edge15" class="edge">
<title>hidebound.core.specification_base&#45;&gt;hidebound.core.database_tools</title>
<path fill="none" stroke="#b6ecf3" d="M1041.4756,-835.9082C1051.1612,-832.1093 1060.4872,-827.5265 1069,-822 1119.8176,-789.0095 1218.5438,-634.8337 1257.562,-571.8788"/>
<polygon fill="#b6ecf3" stroke="#b6ecf3" points="1260.5971,-573.6252 1262.8727,-563.2776 1254.641,-569.9476 1260.5971,-573.6252"/>
</g>
<!-- hidebound.core.specifications -->
<g id="node8" class="node">
<title>hidebound.core.specifications</title>
<polygon fill="#343434" stroke="#343434" points="1402,-910 1146,-910 1146,-874 1402,-874 1402,-910"/>
<text text-anchor="middle" x="1274" y="-888.3" font-family="Courier,monospace" font-size="14.00" fill="#b6ecf3">hidebound.core.specifications</text>
</g>
<!-- hidebound.core.specification_base&#45;&gt;hidebound.core.specifications -->
<g id="edge16" class="edge">
<title>hidebound.core.specification_base&#45;&gt;hidebound.core.specifications</title>
<path fill="none" stroke="#b6ecf3" d="M1069.1779,-869.7304C1091.2442,-872.1296 1113.9701,-874.6005 1135.8906,-876.9838"/>
<polygon fill="#b6ecf3" stroke="#b6ecf3" points="1135.5805,-880.4706 1145.9003,-878.0721 1136.3372,-873.5117 1135.5805,-880.4706"/>
</g>
<!-- hidebound.core.tools -->
<g id="node9" class="node">
<title>hidebound.core.tools</title>
<polygon fill="#343434" stroke="#343434" points="723.5,-551 541.5,-551 541.5,-515 723.5,-515 723.5,-551"/>
<text text-anchor="middle" x="632.5" y="-529.3" font-family="Courier,monospace" font-size="14.00" fill="#b6ecf3">hidebound.core.tools</text>
</g>
<!-- hidebound.core.tools&#45;&gt;hidebound.core.database -->
<g id="edge17" class="edge">
<title>hidebound.core.tools&#45;&gt;hidebound.core.database</title>
<path fill="none" stroke="#b6ecf3" d="M636.7359,-514.8553C649.0549,-466.7735 689.8616,-336.2657 780,-285 830.3985,-256.3361 1421.1259,-277.3324 1443,-296 1508.376,-351.7928 1418.5353,-424.919 1479,-486 1539.5842,-547.2018 1607.6161,-463.6004 1669,-524 1722.8112,-576.9483 1664.2345,-626.46 1705,-690 1725.1671,-721.4339 1759.4568,-746.3295 1787.4724,-762.8842"/>
<polygon fill="#b6ecf3" stroke="#b6ecf3" points="1785.9068,-766.0211 1796.322,-767.9637 1789.3915,-759.9501 1785.9068,-766.0211"/>
</g>
<!-- hidebound.core.tools&#45;&gt;hidebound.core.database_tools -->
<g id="edge18" class="edge">
<title>hidebound.core.tools&#45;&gt;hidebound.core.database_tools</title>
<path fill="none" stroke="#b6ecf3" d="M723.73,-534.7066C831.2505,-536.7179 1011.0303,-540.0808 1135.7048,-542.413"/>
<polygon fill="#b6ecf3" stroke="#b6ecf3" points="1135.6463,-545.9124 1145.71,-542.6002 1135.7773,-538.9137 1135.6463,-545.9124"/>
</g>
<!-- hidebound.core.tools&#45;&gt;hidebound.core.specification_base -->
<g id="edge19" class="edge">
<title>hidebound.core.tools&#45;&gt;hidebound.core.specification_base</title>
<path fill="none" stroke="#b6ecf3" d="M644.9288,-551.1648C665.5814,-581.3747 708.2359,-643.8786 744,-697 760.1089,-720.927 759.9252,-730.2876 780,-751 811.0285,-783.0141 853.1524,-811.7477 883.9121,-830.6795"/>
<polygon fill="#b6ecf3" stroke="#b6ecf3" points="882.3027,-833.7968 892.6674,-835.9931 885.9345,-827.8127 882.3027,-833.7968"/>
</g>
<!-- hidebound.core.traits -->
<g id="node10" class="node">
<title>hidebound.core.traits</title>
<polygon fill="#343434" stroke="#343434" points="1019.5,-742 829.5,-742 829.5,-706 1019.5,-706 1019.5,-742"/>
<text text-anchor="middle" x="924.5" y="-720.3" font-family="Courier,monospace" font-size="14.00" fill="#b6ecf3">hidebound.core.traits</text>
</g>
<!-- hidebound.core.tools&#45;&gt;hidebound.core.traits -->
<g id="edge20" class="edge">
<title>hidebound.core.tools&#45;&gt;hidebound.core.traits</title>
<path fill="none" stroke="#b6ecf3" d="M647.0331,-551.2176C677.466,-588.9152 747.7403,-673.5114 780,-692 792.2263,-699.0071 805.846,-704.4805 819.7009,-708.7559"/>
<polygon fill="#b6ecf3" stroke="#b6ecf3" points="818.7378,-712.1207 829.3161,-711.5284 820.6773,-705.3948 818.7378,-712.1207"/>
</g>
<!-- hidebound.core.tools&#45;&gt;hidebound.exporters.exporter_base -->
<g id="edge21" class="edge">
<title>hidebound.core.tools&#45;&gt;hidebound.exporters.exporter_base</title>
<path fill="none" stroke="#b6ecf3" d="M649.8874,-551.3578C675.7061,-579.9065 723.3502,-637.8387 744,-697 814.7925,-899.8191 700.9477,-979.2554 780,-1179 805.2097,-1242.6984 861.5086,-1301.3973 895.9177,-1333.1996"/>
<polygon fill="#b6ecf3" stroke="#b6ecf3" points="893.5754,-1335.8004 903.3263,-1339.9442 898.2878,-1330.6241 893.5754,-1335.8004"/>
</g>
<!-- hidebound.exporters.local_disk_exporter -->
<g id="node14" class="node">
<title>hidebound.exporters.local_disk_exporter</title>
<polygon fill="#343434" stroke="#343434" points="1443,-1254 1105,-1254 1105,-1218 1443,-1218 1443,-1254"/>
<text text-anchor="middle" x="1274" y="-1232.3" font-family="Courier,monospace" font-size="14.00" fill="#b6ecf3">hidebound.exporters.local_disk_exporter</text>
</g>
<!-- hidebound.core.tools&#45;&gt;hidebound.exporters.local_disk_exporter -->
<g id="edge22" class="edge">
<title>hidebound.core.tools&#45;&gt;hidebound.exporters.local_disk_exporter</title>
<path fill="none" stroke="#b6ecf3" d="M656.2115,-551.3632C684.2957,-572.2766 733.1908,-606.114 780,-626 901.7339,-677.7163 983.0969,-596.4297 1069,-697 1130.9911,-769.5756 1056.1909,-1042.9769 1105,-1125 1129.8225,-1166.7139 1177.1385,-1195.7503 1215.4053,-1213.6339"/>
<polygon fill="#b6ecf3" stroke="#b6ecf3" points="1214.3665,-1217.0055 1224.9199,-1217.9412 1217.2534,-1210.6285 1214.3665,-1217.0055"/>
</g>
<!-- hidebound.exporters.s3_exporter -->
<g id="node15" class="node">
<title>hidebound.exporters.s3_exporter</title>
<polygon fill="#343434" stroke="#343434" points="1410,-1116 1138,-1116 1138,-1080 1410,-1080 1410,-1116"/>
<text text-anchor="middle" x="1274" y="-1094.3" font-family="Courier,monospace" font-size="14.00" fill="#b6ecf3">hidebound.exporters.s3_exporter</text>
</g>
<!-- hidebound.core.tools&#45;&gt;hidebound.exporters.s3_exporter -->
<g id="edge23" class="edge">
<title>hidebound.core.tools&#45;&gt;hidebound.exporters.s3_exporter</title>
<path fill="none" stroke="#b6ecf3" d="M723.8659,-548.5481C838.079,-569.9122 1024.0802,-611.7117 1069,-664 1143.5847,-750.8192 1055.3738,-815.8608 1105,-919 1136.659,-984.7977 1201.3318,-1042.4965 1240.8527,-1073.6009"/>
<polygon fill="#b6ecf3" stroke="#b6ecf3" points="1238.836,-1076.466 1248.8833,-1079.8279 1243.1255,-1070.9342 1238.836,-1076.466"/>
</g>
<!-- hidebound.server.app -->
<g id="node17" class="node">
<title>hidebound.server.app</title>
<polygon fill="#343434" stroke="#343434" points="2939,-1569 2757,-1569 2757,-1533 2939,-1533 2939,-1569"/>
<text text-anchor="middle" x="2848" y="-1547.3" font-family="Courier,monospace" font-size="14.00" fill="#b6ecf3">hidebound.server.app</text>
</g>
<!-- hidebound.core.tools&#45;&gt;hidebound.server.app -->
<g id="edge24" class="edge">
<title>hidebound.core.tools&#45;&gt;hidebound.server.app</title>
<path fill="none" stroke="#b6ecf3" d="M638.8598,-514.8515C665.0708,-440.2756 764.0914,-160.7804 780,-149 868.4439,-83.507 1163.947,-114 1274,-114 1274,-114 1274,-114 2330.5,-114 2641.6458,-114 2817.2211,-1321.6383 2844.3048,-1522.7655"/>
<polygon fill="#b6ecf3" stroke="#b6ecf3" points="2840.856,-1523.3823 2845.6489,-1532.831 2847.7945,-1522.4557 2840.856,-1523.3823"/>
</g>
<!-- hidebound.core.tools&#45;&gt;hidebound.server.extension -->
<g id="edge25" class="edge">
<title>hidebound.core.tools&#45;&gt;hidebound.server.extension</title>
<path fill="none" stroke="#b6ecf3" d="M637.0543,-514.7329C650.1639,-466.1275 692.7587,-332.8555 780,-267 959.9199,-131.1846 1048.5738,-152 1274,-152 1274,-152 1274,-152 1833,-152 1900.3227,-152 1916.4614,-182.5158 1961,-233 2111.7377,-403.8602 2110.145,-479.8041 2179,-697 2279.2082,-1013.096 2318.8891,-1417.0017 2328.2225,-1526.5334"/>
<polygon fill="#b6ecf3" stroke="#b6ecf3" points="2324.7565,-1527.0879 2329.0779,-1536.7614 2331.7322,-1526.5044 2324.7565,-1527.0879"/>
</g>
<!-- hidebound.core.traits&#45;&gt;hidebound.core.specifications -->
<g id="edge26" class="edge">
<title>hidebound.core.traits&#45;&gt;hidebound.core.specifications</title>
<path fill="none" stroke="#b6ecf3" d="M1019.7306,-739.8524C1036.488,-744.1086 1053.5107,-749.4176 1069,-756 1136.7892,-784.8081 1206.2774,-836.5217 1244.4114,-867.2062"/>
<polygon fill="#b6ecf3" stroke="#b6ecf3" points="1242.5434,-870.1981 1252.5114,-873.7883 1246.958,-864.7656 1242.5434,-870.1981"/>
</g>
<!-- hidebound.core.validators&#45;&gt;hidebound.core.config -->
<g id="edge27" class="edge">
<title>hidebound.core.validators&#45;&gt;hidebound.core.config</title>
<path fill="none" stroke="#b6ecf3" d="M638.1756,-1216.3246C653.0179,-1260.6395 697.6491,-1373.1772 780,-1417 893.3891,-1477.3397 942.9974,-1441.9265 1069,-1417 1245.3448,-1382.1146 1313.5222,-1387.6995 1443,-1263 1520.0886,-1188.7564 1555.8181,-1060.6375 1568.4132,-1004.1469"/>
<polygon fill="#b6ecf3" stroke="#b6ecf3" points="1571.8822,-1004.6634 1570.5651,-994.1508 1565.0389,-1003.1903 1571.8822,-1004.6634"/>
</g>
<!-- hidebound.core.validators&#45;&gt;hidebound.core.specification_base -->
<g id="edge28" class="edge">
<title>hidebound.core.validators&#45;&gt;hidebound.core.specification_base</title>
<path fill="none" stroke="#b6ecf3" d="M661.4444,-1179.8273C686.4763,-1162.7624 722.008,-1135.0983 744,-1103 771.4089,-1062.9955 754.3134,-1041.1315 780,-1000 810.7366,-950.782 860.7757,-905.1487 893.1636,-878.4261"/>
<polygon fill="#b6ecf3" stroke="#b6ecf3" points="895.4507,-881.0773 900.995,-872.0489 891.0307,-875.6493 895.4507,-881.0773"/>
</g>
<!-- hidebound.core.validators&#45;&gt;hidebound.core.specifications -->
<g id="edge29" class="edge">
<title>hidebound.core.validators&#45;&gt;hidebound.core.specifications</title>
<path fill="none" stroke="#b6ecf3" d="M653.9893,-1179.9203C676.5272,-1160.905 712.9226,-1130.0462 744,-1103 760.1483,-1088.9464 761.6074,-1081.9536 780,-1071 912.3562,-992.1759 1085.0623,-939.4528 1187.2853,-912.6963"/>
<polygon fill="#b6ecf3" stroke="#b6ecf3" points="1188.4577,-916.0082 1197.2588,-910.1098 1186.7003,-909.2323 1188.4577,-916.0082"/>
</g>
<!-- hidebound.core.validators&#45;&gt;hidebound.exporters.exporter_base -->
<g id="edge30" class="edge">
<title>hidebound.core.validators&#45;&gt;hidebound.exporters.exporter_base</title>
<path fill="none" stroke="#b6ecf3" d="M647.7158,-1216.0233C672.4562,-1244.097 724.2755,-1297.9502 780,-1326 788.0902,-1330.0723 796.6922,-1333.6299 805.5116,-1336.7373"/>
<polygon fill="#b6ecf3" stroke="#b6ecf3" points="804.5596,-1340.1089 815.153,-1339.9354 806.7635,-1333.4649 804.5596,-1340.1089"/>
</g>
<!-- hidebound.exporters.girder_exporter -->
<g id="node13" class="node">
<title>hidebound.exporters.girder_exporter</title>
<polygon fill="#343434" stroke="#343434" points="1426.5,-1582 1121.5,-1582 1121.5,-1546 1426.5,-1546 1426.5,-1582"/>
<text text-anchor="middle" x="1274" y="-1560.3" font-family="Courier,monospace" font-size="14.00" fill="#b6ecf3">hidebound.exporters.girder_exporter</text>
</g>
<!-- hidebound.core.validators&#45;&gt;hidebound.exporters.girder_exporter -->
<g id="edge31" class="edge">
<title>hidebound.core.validators&#45;&gt;hidebound.exporters.girder_exporter</title>
<path fill="none" stroke="#b6ecf3" d="M641.98,-1216.044C663.17,-1257.0587 714.7981,-1360.8819 744,-1453 768.127,-1529.1092 718.1446,-1578.5161 780,-1629 829.7545,-1669.6076 1005.5331,-1638.8209 1069,-1629 1122.117,-1620.7806 1180.3208,-1601.2507 1221.0933,-1585.7302"/>
<polygon fill="#b6ecf3" stroke="#b6ecf3" points="1222.4808,-1588.9464 1230.5517,-1582.0826 1219.962,-1582.4153 1222.4808,-1588.9464"/>
</g>
<!-- hidebound.core.validators&#45;&gt;hidebound.exporters.local_disk_exporter -->
<g id="edge32" class="edge">
<title>hidebound.core.validators&#45;&gt;hidebound.exporters.local_disk_exporter</title>
<path fill="none" stroke="#b6ecf3" d="M640.0361,-1216.0464C657.6588,-1255.548 705.7737,-1349.0099 780,-1385 895.5752,-1441.0389 946.8458,-1424.703 1069,-1385 1144.1995,-1360.5584 1214.8463,-1297.002 1250.272,-1261.295"/>
<polygon fill="#b6ecf3" stroke="#b6ecf3" points="1252.7967,-1263.7192 1257.2858,-1254.1223 1247.7919,-1258.8252 1252.7967,-1263.7192"/>
</g>
<!-- hidebound.core.validators&#45;&gt;hidebound.exporters.s3_exporter -->
<g id="edge33" class="edge">
<title>hidebound.core.validators&#45;&gt;hidebound.exporters.s3_exporter</title>
<path fill="none" stroke="#b6ecf3" d="M744.1092,-1203.2537C833.0743,-1205.0297 960.3143,-1202.1539 1069,-1179 1126.6404,-1166.7206 1189.1191,-1139.9016 1229.755,-1120.4804"/>
<polygon fill="#b6ecf3" stroke="#b6ecf3" points="1231.3617,-1123.5912 1238.8408,-1116.087 1228.3144,-1117.2893 1231.3617,-1123.5912"/>
</g>
<!-- hidebound.core.validators&#45;&gt;hidebound.server.api -->
<g id="edge34" class="edge">
<title>hidebound.core.validators&#45;&gt;hidebound.server.api</title>
<path fill="none" stroke="#b6ecf3" d="M642.2987,-1216.3034C663.9089,-1257.4284 715.9606,-1360.7739 744,-1453 770.2717,-1539.412 713.6424,-1591.7309 780,-1653 852.7919,-1720.2099 1588.463,-1779.7028 1669,-1722 1709.4445,-1693.0225 1665.1303,-1645.7635 1705,-1616 1793.6473,-1549.823 1928.6731,-1563.2691 2012.4601,-1580.8331"/>
<polygon fill="#b6ecf3" stroke="#b6ecf3" points="2011.903,-1584.2935 2022.4174,-1582.9904 2013.3853,-1577.4523 2011.903,-1584.2935"/>
</g>
<!-- hidebound.exporters.exporter_base&#45;&gt;hidebound.exporters.girder_exporter -->
<g id="edge35" class="edge">
<title>hidebound.exporters.exporter_base&#45;&gt;hidebound.exporters.girder_exporter</title>
<path fill="none" stroke="#b6ecf3" d="M955.2095,-1376.1006C1018.5765,-1413.4499 1163.7708,-1499.0294 1234.2133,-1540.5492"/>
<polygon fill="#b6ecf3" stroke="#b6ecf3" points="1232.8431,-1543.8043 1243.2353,-1545.8669 1236.3976,-1537.7738 1232.8431,-1543.8043"/>
</g>
<!-- hidebound.exporters.exporter_base&#45;&gt;hidebound.exporters.local_disk_exporter -->
<g id="edge36" class="edge">
<title>hidebound.exporters.exporter_base&#45;&gt;hidebound.exporters.local_disk_exporter</title>
<path fill="none" stroke="#b6ecf3" d="M976.0699,-1339.9985C1039.0512,-1318.0136 1145.4658,-1280.8674 1212.6072,-1257.4304"/>
<polygon fill="#b6ecf3" stroke="#b6ecf3" points="1213.9307,-1260.6756 1222.2185,-1254.0754 1211.6237,-1254.0667 1213.9307,-1260.6756"/>
</g>
<!-- hidebound.exporters.exporter_base&#45;&gt;hidebound.exporters.s3_exporter -->
<g id="edge37" class="edge">
<title>hidebound.exporters.exporter_base&#45;&gt;hidebound.exporters.s3_exporter</title>
<path fill="none" stroke="#b6ecf3" d="M983.7251,-1339.9838C1012.4156,-1328.8062 1045.6269,-1311.9297 1069,-1288 1095.9607,-1260.3973 1079.8896,-1238.296 1105,-1209 1138.1691,-1170.302 1188.0772,-1139.7941 1225.0669,-1120.6343"/>
<polygon fill="#b6ecf3" stroke="#b6ecf3" points="1226.8429,-1123.6579 1234.1746,-1116.0096 1223.6736,-1117.4164 1226.8429,-1123.6579"/>
</g>
<!-- hidebound.exporters.girder_exporter&#45;&gt;hidebound.core.config -->
<g id="edge38" class="edge">
<title>hidebound.exporters.girder_exporter&#45;&gt;hidebound.core.config</title>
<path fill="none" stroke="#b6ecf3" d="M1425.0755,-1545.8507C1431.5288,-1541.9144 1437.561,-1537.3293 1443,-1532 1498.4744,-1477.6439 1461.6943,-1436.7134 1479,-1361 1509.5977,-1227.1333 1550.1866,-1068.1492 1566.6227,-1004.4538"/>
<polygon fill="#b6ecf3" stroke="#b6ecf3" points="1570.1128,-1004.9369 1569.2262,-994.3792 1563.3354,-1003.1855 1570.1128,-1004.9369"/>
</g>
<!-- hidebound.exporters.girder_exporter&#45;&gt;hidebound.core.database -->
<g id="edge39" class="edge">
<title>hidebound.exporters.girder_exporter&#45;&gt;hidebound.core.database</title>
<path fill="none" stroke="#b6ecf3" d="M1418.8009,-1545.891C1427.3503,-1542.0242 1435.5069,-1537.4357 1443,-1532 1703.9999,-1342.6628 1804.8001,-925.571 1827.6703,-813.9397"/>
<polygon fill="#b6ecf3" stroke="#b6ecf3" points="1831.1073,-814.6013 1829.6431,-804.1081 1824.2441,-813.2241 1831.1073,-814.6013"/>
</g>
<!-- hidebound.exporters.local_disk_exporter&#45;&gt;hidebound.core.config -->
<g id="edge40" class="edge">
<title>hidebound.exporters.local_disk_exporter&#45;&gt;hidebound.core.config</title>
<path fill="none" stroke="#b6ecf3" d="M1306.9545,-1217.9265C1342.4084,-1197.6939 1399.5441,-1162.7592 1443,-1125 1486.9668,-1086.7969 1530.0081,-1034.0509 1554.1625,-1002.6439"/>
<polygon fill="#b6ecf3" stroke="#b6ecf3" points="1557.1818,-1004.4563 1560.4595,-994.3812 1551.6143,-1000.2133 1557.1818,-1004.4563"/>
</g>
<!-- hidebound.exporters.local_disk_exporter&#45;&gt;hidebound.core.database -->
<g id="edge41" class="edge">
<title>hidebound.exporters.local_disk_exporter&#45;&gt;hidebound.core.database</title>
<path fill="none" stroke="#b6ecf3" d="M1340.806,-1217.9516C1425.2087,-1192.4411 1571.2225,-1138.9967 1669,-1052 1747.2492,-982.3785 1800.7471,-866.4866 1822.3238,-813.7069"/>
<polygon fill="#b6ecf3" stroke="#b6ecf3" points="1825.6156,-814.9018 1826.0959,-804.3178 1819.1202,-812.2922 1825.6156,-814.9018"/>
</g>
<!-- hidebound.exporters.s3_exporter&#45;&gt;hidebound.core.config -->
<g id="edge42" class="edge">
<title>hidebound.exporters.s3_exporter&#45;&gt;hidebound.core.config</title>
<path fill="none" stroke="#b6ecf3" d="M1318.266,-1079.9985C1371.9949,-1058.1487 1462.5486,-1021.3236 1520.2356,-997.8642"/>
<polygon fill="#b6ecf3" stroke="#b6ecf3" points="1521.6075,-1001.0847 1529.5524,-994.0754 1518.9705,-994.6004 1521.6075,-1001.0847"/>
</g>
<!-- hidebound.exporters.s3_exporter&#45;&gt;hidebound.core.database -->
<g id="edge43" class="edge">
<title>hidebound.exporters.s3_exporter&#45;&gt;hidebound.core.database</title>
<path fill="none" stroke="#b6ecf3" d="M1410.1981,-1088.2499C1490.8584,-1077.1304 1591.9996,-1053.4286 1669,-1003 1743.3156,-954.3298 1796.9694,-860.0113 1820.198,-813.4144"/>
<polygon fill="#b6ecf3" stroke="#b6ecf3" points="1823.4408,-814.7501 1824.6894,-804.2291 1817.1523,-811.6752 1823.4408,-814.7501"/>
</g>
<!-- hidebound.server.api&#45;&gt;hidebound.server.extension -->
<g id="edge44" class="edge">
<title>hidebound.server.api&#45;&gt;hidebound.server.extension</title>
<path fill="none" stroke="#b6ecf3" d="M2179.3333,-1583.6749C2194.3117,-1580.8336 2209.9399,-1577.8691 2225.2234,-1574.97"/>
<polygon fill="#b6ecf3" stroke="#b6ecf3" points="2226.0343,-1578.3787 2235.2068,-1573.0762 2224.7297,-1571.5013 2226.0343,-1578.3787"/>
</g>
<!-- hidebound.server.components -->
<g id="node18" class="node">
<title>hidebound.server.components</title>
<polygon fill="#343434" stroke="#343434" points="1952.5,-1921 1713.5,-1921 1713.5,-1885 1952.5,-1885 1952.5,-1921"/>
<text text-anchor="middle" x="1833" y="-1899.3" font-family="Courier,monospace" font-size="14.00" fill="#b6ecf3">hidebound.server.components</text>
</g>
<!-- hidebound.server.components&#45;&gt;hidebound.server.app -->
<g id="edge45" class="edge">
<title>hidebound.server.components&#45;&gt;hidebound.server.app</title>
<path fill="none" stroke="#b6ecf3" d="M1885.6871,-1921.0339C2033.389,-1968.0249 2457.8019,-2078.2292 2721,-1893 2774.6874,-1855.2168 2824.7047,-1654.3595 2841.7903,-1579.3141"/>
<polygon fill="#b6ecf3" stroke="#b6ecf3" points="2845.2879,-1579.7135 2844.0687,-1569.1891 2838.4587,-1578.1767 2845.2879,-1579.7135"/>
</g>
<!-- hidebound.server.extensions -->
<g id="node20" class="node">
<title>hidebound.server.extensions</title>
<polygon fill="#343434" stroke="#343434" points="2721,-1642 2482,-1642 2482,-1606 2721,-1606 2721,-1642"/>
<text text-anchor="middle" x="2601.5" y="-1620.3" font-family="Courier,monospace" font-size="14.00" fill="#b6ecf3">hidebound.server.extensions</text>
</g>
<!-- hidebound.server.extension&#45;&gt;hidebound.server.extensions -->
<g id="edge46" class="edge">
<title>hidebound.server.extension&#45;&gt;hidebound.server.extensions</title>
<path fill="none" stroke="#b6ecf3" d="M2401.3481,-1573.0388C2437.9142,-1582.349 2482.6851,-1593.7482 2520.6045,-1603.403"/>
<polygon fill="#b6ecf3" stroke="#b6ecf3" points="2520.0408,-1606.8711 2530.5953,-1605.9468 2521.7681,-1600.0875 2520.0408,-1606.8711"/>
</g>
<!-- hidebound.server.extensions&#45;&gt;hidebound.server.api -->
<g id="edge47" class="edge">
<title>hidebound.server.extensions&#45;&gt;hidebound.server.api</title>
<path fill="none" stroke="#b6ecf3" d="M2481.6875,-1618.6335C2392.9227,-1614.6577 2273.2883,-1609.2992 2189.2761,-1605.5362"/>
<polygon fill="#b6ecf3" stroke="#b6ecf3" points="2189.3584,-1602.0365 2179.2118,-1605.0854 2189.0451,-1609.0295 2189.3584,-1602.0365"/>
</g>
<!-- hidebound.server.extensions&#45;&gt;hidebound.server.app -->
<g id="edge48" class="edge">
<title>hidebound.server.extensions&#45;&gt;hidebound.server.app</title>
<path fill="none" stroke="#b6ecf3" d="M2662.4326,-1605.9551C2697.0971,-1595.6893 2740.6866,-1582.7804 2776.907,-1572.0539"/>
<polygon fill="#b6ecf3" stroke="#b6ecf3" points="2778.3196,-1575.2859 2786.9141,-1569.0904 2776.3318,-1568.5741 2778.3196,-1575.2859"/>
</g>
<!-- hidebound.server.server_tools&#45;&gt;hidebound.server.api -->
<g id="edge49" class="edge">
<title>hidebound.server.server_tools&#45;&gt;hidebound.server.api</title>
<path fill="none" stroke="#b6ecf3" d="M1873.0538,-681.102C1903.0216,-696.9937 1941.9797,-723.1813 1961,-759 2037.59,-903.2331 1937.247,-1341.0171 1997,-1493 2009.9437,-1525.9226 2037.2029,-1556.0404 2058.5296,-1576.0574"/>
<polygon fill="#b6ecf3" stroke="#b6ecf3" points="2056.339,-1578.7968 2066.081,-1582.9615 2061.0624,-1573.6306 2056.339,-1578.7968"/>
</g>
<!-- hidebound.server.server_tools&#45;&gt;hidebound.server.app -->
<g id="edge50" class="edge">
<title>hidebound.server.server_tools&#45;&gt;hidebound.server.app</title>
<path fill="none" stroke="#b6ecf3" d="M1861.8168,-681.1011C1889.0583,-698.9902 1930.2294,-728.0953 1961,-759 2234.888,-1034.0822 2158.9417,-1244.7834 2482,-1460 2561.2683,-1512.8074 2668.6293,-1534.9838 2746.5611,-1544.2895"/>
<polygon fill="#b6ecf3" stroke="#b6ecf3" points="2746.5424,-1547.81 2756.8748,-1545.4666 2747.3363,-1540.8551 2746.5424,-1547.81"/>
</g>
<!-- dash -->
<g id="node22" class="node">
<title>dash</title>
<polygon fill="#343434" stroke="#343434" points="1601,-2103 1547,-2103 1547,-2067 1601,-2067 1601,-2103"/>
<text text-anchor="middle" x="1574" y="-2081.3" font-family="Courier,monospace" font-size="14.00" fill="#de958e">dash</text>
</g>
<!-- dash&#45;&gt;hidebound.server.app -->
<g id="edge51" class="edge">
<title>dash&#45;&gt;hidebound.server.app</title>
<path fill="none" stroke="#de958e" d="M1601.0196,-2086.434C1677.4313,-2090.3612 1901.6294,-2101 2088,-2101 2088,-2101 2088,-2101 2330.5,-2101 2507.7499,-2101 2591.9671,-2141.5238 2721,-2020 2786.8631,-1957.9698 2831.5179,-1670.6045 2844.2632,-1579.0802"/>
<polygon fill="#de958e" stroke="#de958e" points="2847.7329,-1579.5393 2845.6264,-1569.156 2840.798,-1578.5867 2847.7329,-1579.5393"/>
</g>
<!-- dash&#45;&gt;hidebound.server.components -->
<g id="edge52" class="edge">
<title>dash&#45;&gt;hidebound.server.components</title>
<path fill="none" stroke="#de958e" d="M1601.1981,-2074.6685C1620.7538,-2066.7077 1647.3769,-2054.7571 1669,-2041 1721.9654,-2007.3022 1776.3441,-1958.0877 1807.2718,-1928.4416"/>
<polygon fill="#de958e" stroke="#de958e" points="1809.8546,-1930.8129 1814.6143,-1921.3474 1804.9907,-1925.7787 1809.8546,-1930.8129"/>
</g>
<!-- dash_cytoscape -->
<g id="node23" class="node">
<title>dash_cytoscape</title>
<polygon fill="#343434" stroke="#343434" points="1640,-1978 1508,-1978 1508,-1942 1640,-1942 1640,-1978"/>
<text text-anchor="middle" x="1574" y="-1956.3" font-family="Courier,monospace" font-size="14.00" fill="#de958e">dash_cytoscape</text>
</g>
<!-- dash_cytoscape&#45;&gt;hidebound.server.components -->
<g id="edge53" class="edge">
<title>dash_cytoscape&#45;&gt;hidebound.server.components</title>
<path fill="none" stroke="#de958e" d="M1640.0268,-1945.469C1670.5869,-1938.7434 1707.4125,-1930.639 1740.6659,-1923.3206"/>
<polygon fill="#de958e" stroke="#de958e" points="1741.8464,-1926.6447 1750.8604,-1921.0771 1740.3418,-1919.8083 1741.8464,-1926.6447"/>
</g>
<!-- hidebound.server -->
<g id="node24" class="node">
<title>hidebound.server</title>
<polygon fill="#343434" stroke="#343434" points="1648.5,-2032 1499.5,-2032 1499.5,-1996 1648.5,-1996 1648.5,-2032"/>
<text text-anchor="middle" x="1574" y="-2010.3" font-family="Courier,monospace" font-size="14.00" fill="#a0d17b">hidebound.server</text>
</g>
<!-- hidebound.server&#45;&gt;hidebound.server.api -->
<g id="edge54" class="edge">
<title>hidebound.server&#45;&gt;hidebound.server.api</title>
<path fill="none" stroke="#a0d17b" d="M1640.4281,-1995.9824C1650.0586,-1993.1207 1659.8161,-1990.0832 1669,-1987 1685.2746,-1981.5362 1688.4485,-1977.5568 1705,-1973 1816.2332,-1942.3765 1872.7949,-2004.3672 1961,-1930 1998.0746,-1898.7418 1979.9389,-1872.393 1997,-1827 2024.1401,-1754.7904 2058.7961,-1670.7638 2076.4844,-1628.4067"/>
<polygon fill="#a0d17b" stroke="#a0d17b" points="2079.7679,-1629.6265 2080.3988,-1619.0505 2073.3103,-1626.9248 2079.7679,-1629.6265"/>
</g>
<!-- hidebound.server&#45;&gt;hidebound.server.app -->
<g id="edge55" class="edge">
<title>hidebound.server&#45;&gt;hidebound.server.app</title>
<path fill="none" stroke="#a0d17b" d="M1648.6963,-2025.6123C1748.5375,-2040.1023 1931.1288,-2063 2088,-2063 2088,-2063 2088,-2063 2330.5,-2063 2510.9309,-2063 2591.5313,-2077.6709 2721,-1952 2776.2197,-1898.4001 2826.5969,-1661.2575 2842.6771,-1579.1193"/>
<polygon fill="#a0d17b" stroke="#a0d17b" points="2846.1251,-1579.7235 2844.5915,-1569.2402 2839.2529,-1578.3918 2846.1251,-1579.7235"/>
</g>
<!-- hidebound.server&#45;&gt;hidebound.server.components -->
<g id="edge56" class="edge">
<title>hidebound.server&#45;&gt;hidebound.server.components</title>
<path fill="none" stroke="#a0d17b" d="M1648.9226,-1998.1508C1656.0318,-1995.0688 1662.8646,-1991.3902 1669,-1987 1691.8598,-1970.6429 1681.882,-1950.9901 1705,-1935 1710.2543,-1931.3658 1715.883,-1928.1436 1721.7422,-1925.2868"/>
<polygon fill="#a0d17b" stroke="#a0d17b" points="1723.4199,-1928.3706 1731.1185,-1921.0917 1720.561,-1921.981 1723.4199,-1928.3706"/>
</g>
<!-- hidebound.server&#45;&gt;hidebound.server.extension -->
<g id="edge57" class="edge">
<title>hidebound.server&#45;&gt;hidebound.server.extension</title>
<path fill="none" stroke="#a0d17b" d="M1648.5095,-2011.1398C1745.5512,-2006.3032 1908.9507,-1994.0289 1961,-1965 2095.699,-1889.8759 2096.6329,-1825.396 2179,-1695 2198.7461,-1663.7398 2189.7195,-1646.9816 2215,-1620 2231.6506,-1602.229 2254.2752,-1588.0421 2275.0882,-1577.5132"/>
<polygon fill="#a0d17b" stroke="#a0d17b" points="2276.7285,-1580.6073 2284.1838,-1573.0795 2273.6612,-1574.3151 2276.7285,-1580.6073"/>
</g>
<!-- hidebound.server&#45;&gt;hidebound.server.extensions -->
<g id="edge58" class="edge">
<title>hidebound.server&#45;&gt;hidebound.server.extensions</title>
<path fill="none" stroke="#a0d17b" d="M1648.5482,-2020.982C1727.5547,-2026.1594 1855.2614,-2028.1408 1961,-2000 2223.547,-1930.1269 2487.8021,-1720.5609 2573.0974,-1648.5869"/>
<polygon fill="#a0d17b" stroke="#a0d17b" points="2575.4276,-1651.1999 2580.787,-1642.0605 2570.898,-1645.8629 2575.4276,-1651.1999"/>
</g>
<!-- hidebound.server&#45;&gt;hidebound.server.server_tools -->
<g id="edge59" class="edge">
<title>hidebound.server&#45;&gt;hidebound.server.server_tools</title>
<path fill="none" stroke="#a0d17b" d="M1648.8558,-2003.0609C1656.6253,-1999.1217 1663.6275,-1993.8996 1669,-1987 1752.8645,-1879.2975 1642.1715,-880.1844 1705,-759 1721.786,-726.623 1755.0211,-702.2054 1783.4182,-686.0991"/>
<polygon fill="#a0d17b" stroke="#a0d17b" points="1785.3483,-689.0327 1792.441,-681.1622 1781.9883,-682.8918 1785.3483,-689.0327"/>
</g>
<!-- dash.dependencies -->
<g id="node25" class="node">
<title>dash.dependencies</title>
<polygon fill="#343434" stroke="#343434" points="2680,-1451 2523,-1451 2523,-1415 2680,-1415 2680,-1451"/>
<text text-anchor="middle" x="2601.5" y="-1429.3" font-family="Courier,monospace" font-size="14.00" fill="#de958e">dash.dependencies</text>
</g>
<!-- dash.dependencies&#45;&gt;hidebound.server.app -->
<g id="edge60" class="edge">
<title>dash.dependencies&#45;&gt;hidebound.server.app</title>
<path fill="none" stroke="#de958e" d="M2680.2767,-1450.0784C2694.1326,-1454.2069 2708.2038,-1459.1555 2721,-1465 2756.6888,-1481.3003 2793.3668,-1507.3262 2818.0727,-1526.4826"/>
<polygon fill="#de958e" stroke="#de958e" points="2815.9483,-1529.2646 2825.9735,-1532.6918 2820.2737,-1523.7608 2815.9483,-1529.2646"/>
</g>
<!-- dash.exceptions -->
<g id="node26" class="node">
<title>dash.exceptions</title>
<polygon fill="#343434" stroke="#343434" points="2671.5,-1397 2531.5,-1397 2531.5,-1361 2671.5,-1361 2671.5,-1397"/>
<text text-anchor="middle" x="2601.5" y="-1375.3" font-family="Courier,monospace" font-size="14.00" fill="#de958e">dash.exceptions</text>
</g>
<!-- dash.exceptions&#45;&gt;hidebound.server.app -->
<g id="edge61" class="edge">
<title>dash.exceptions&#45;&gt;hidebound.server.app</title>
<path fill="none" stroke="#de958e" d="M2671.6131,-1387.1753C2688.5808,-1391.1775 2706.1039,-1397.1346 2721,-1406 2770.4166,-1435.4102 2810.7157,-1490.6728 2831.8708,-1523.8281"/>
<polygon fill="#de958e" stroke="#de958e" points="2829.055,-1525.9268 2837.3217,-1532.5535 2834.9918,-1522.218 2829.055,-1525.9268"/>
</g>
<!-- flask -->
<g id="node27" class="node">
<title>flask</title>
<polygon fill="#343434" stroke="#343434" points="1603,-1886 1545,-1886 1545,-1850 1603,-1850 1603,-1886"/>
<text text-anchor="middle" x="1574" y="-1864.3" font-family="Courier,monospace" font-size="14.00" fill="#de958e">flask</text>
</g>
<!-- flask&#45;&gt;hidebound.server.api -->
<g id="edge62" class="edge">
<title>flask&#45;&gt;hidebound.server.api</title>
<path fill="none" stroke="#de958e" d="M1603.3939,-1864.5286C1624.0124,-1860.6957 1651.0039,-1852.6825 1669,-1836 1699.0873,-1808.1088 1673.0413,-1776.7256 1705,-1751 1795.175,-1678.4124 1855.8261,-1751.3627 1961,-1703 2001.3403,-1684.4501 2039.9695,-1650.2865 2063.8124,-1626.6389"/>
<polygon fill="#de958e" stroke="#de958e" points="2066.4675,-1628.9319 2071.0174,-1619.3638 2061.4938,-1624.0061 2066.4675,-1628.9319"/>
</g>
<!-- flask&#45;&gt;hidebound.server.app -->
<g id="edge63" class="edge">
<title>flask&#45;&gt;hidebound.server.app</title>
<path fill="none" stroke="#de958e" d="M1603.1978,-1866.4653C1667.8181,-1862.9092 1827.7632,-1853.2282 1961,-1838 2306.6024,-1798.4998 2415.4294,-1817.2164 2721,-1651 2759.0385,-1630.3088 2797.3607,-1598.2311 2821.8055,-1576.01"/>
<polygon fill="#de958e" stroke="#de958e" points="2824.2502,-1578.5167 2829.2365,-1569.1686 2819.509,-1573.3668 2824.2502,-1578.5167"/>
</g>
<!-- flask&#45;&gt;hidebound.server.components -->
<g id="edge64" class="edge">
<title>flask&#45;&gt;hidebound.server.components</title>
<path fill="none" stroke="#de958e" d="M1603.2071,-1871.9469C1628.1029,-1875.3112 1665.7407,-1880.3974 1703.3909,-1885.4853"/>
<polygon fill="#de958e" stroke="#de958e" points="1703.0968,-1888.9773 1713.4755,-1886.848 1704.0343,-1882.0403 1703.0968,-1888.9773"/>
</g>
<!-- flask&#45;&gt;hidebound.server.extension -->
<g id="edge65" class="edge">
<title>flask&#45;&gt;hidebound.server.extension</title>
<path fill="none" stroke="#de958e" d="M1603.2793,-1863.1719C1623.3239,-1858.7292 1649.6701,-1850.5451 1669,-1836 1691.4607,-1819.0991 1681.2719,-1799.0699 1705,-1784 1802.3901,-1722.147 1851.3546,-1776.8957 1961,-1741 2027.5425,-1719.2153 2207.0767,-1622.7119 2288.8765,-1577.9484"/>
<polygon fill="#de958e" stroke="#de958e" points="2290.7991,-1580.8859 2297.8866,-1573.0107 2287.435,-1574.7473 2290.7991,-1580.8859"/>
</g>
<!-- flask&#45;&gt;hidebound.server.server_tools -->
<g id="edge66" class="edge">
<title>flask&#45;&gt;hidebound.server.server_tools</title>
<path fill="none" stroke="#de958e" d="M1586.9009,-1849.7833C1608.6131,-1817.9523 1651.7713,-1749.355 1669,-1684 1695.2187,-1584.5422 1657.2211,-850.0848 1705,-759 1721.9993,-726.5929 1755.4007,-702.1165 1783.8207,-685.9907"/>
<polygon fill="#de958e" stroke="#de958e" points="1785.7556,-688.9216 1792.8458,-681.049 1782.3937,-682.7818 1785.7556,-688.9216"/>
</g>
<!-- rolling_pin.blob_etl -->
<g id="node28" class="node">
<title>rolling_pin.blob_etl</title>
<polygon fill="#343434" stroke="#343434" points="1665,-612 1483,-612 1483,-576 1665,-576 1665,-612"/>
<text text-anchor="middle" x="1574" y="-590.3" font-family="Courier,monospace" font-size="14.00" fill="#de958e">rolling_pin.blob_etl</text>
</g>
<!-- rolling_pin.blob_etl&#45;&gt;hidebound.server.components -->
<g id="edge67" class="edge">
<title>rolling_pin.blob_etl&#45;&gt;hidebound.server.components</title>
<path fill="none" stroke="#de958e" d="M1617.1879,-612.2663C1636.6131,-622.8863 1657.6814,-638.3127 1669,-659 1731.9071,-773.9769 1634.748,-1727.358 1705,-1838 1717.1645,-1857.1582 1736.8688,-1870.9111 1757.2106,-1880.6801"/>
<polygon fill="#de958e" stroke="#de958e" points="1756.0212,-1883.9828 1766.5768,-1884.8933 1758.8929,-1877.599 1756.0212,-1883.9828"/>
</g>
<!-- rolling_pin.blob_etl&#45;&gt;hidebound.server.server_tools -->
<g id="edge68" class="edge">
<title>rolling_pin.blob_etl&#45;&gt;hidebound.server.server_tools</title>
<path fill="none" stroke="#de958e" d="M1641.7109,-612.0388C1676.5092,-621.3094 1719.0823,-632.6513 1755.2236,-642.2796"/>
<polygon fill="#de958e" stroke="#de958e" points="1754.671,-645.7544 1765.235,-644.9468 1756.473,-638.9903 1754.671,-645.7544"/>
</g>
<!-- flasgger -->
<g id="node29" class="node">
<title>flasgger</title>
<polygon fill="#343434" stroke="#343434" points="1874.5,-1829 1791.5,-1829 1791.5,-1793 1874.5,-1793 1874.5,-1829"/>
<text text-anchor="middle" x="1833" y="-1807.3" font-family="Courier,monospace" font-size="14.00" fill="#de958e">flasgger</text>
</g>
<!-- flasgger&#45;&gt;hidebound.server.api -->
<g id="edge69" class="edge">
<title>flasgger&#45;&gt;hidebound.server.api</title>
<path fill="none" stroke="#de958e" d="M1874.0457,-1792.9095C1900.2662,-1780.3331 1934.2398,-1762.0811 1961,-1741 2004.1702,-1706.9914 2045.2077,-1657.5657 2068.4283,-1627.4476"/>
<polygon fill="#de958e" stroke="#de958e" points="2071.492,-1629.2017 2074.7689,-1619.1264 2065.9241,-1624.9591 2071.492,-1629.2017"/>
</g>
<!-- flasgger&#45;&gt;hidebound.server.extensions -->
<g id="edge70" class="edge">
<title>flasgger&#45;&gt;hidebound.server.extensions</title>
<path fill="none" stroke="#de958e" d="M1874.5516,-1810.6166C1940.0636,-1809.242 2071.0169,-1803.365 2179,-1779 2319.3308,-1747.3361 2476.3599,-1681.0379 2553.4735,-1646.3059"/>
<polygon fill="#de958e" stroke="#de958e" points="2555.2557,-1649.341 2562.9218,-1642.0279 2552.3684,-1642.9642 2555.2557,-1649.341"/>
</g>
<!-- jinja2 -->
<g id="node30" class="node">
<title>jinja2</title>
<polygon fill="#343434" stroke="#343434" points="1607,-260 1541,-260 1541,-224 1607,-224 1607,-260"/>
<text text-anchor="middle" x="1574" y="-238.3" font-family="Courier,monospace" font-size="14.00" fill="#de958e">jinja2</text>
</g>
<!-- jinja2&#45;&gt;hidebound.server.server_tools -->
<g id="edge71" class="edge">
<title>jinja2&#45;&gt;hidebound.server.server_tools</title>
<path fill="none" stroke="#de958e" d="M1607.3676,-244.2839C1627.3548,-247.2549 1652.0838,-253.9635 1669,-269 1782.7742,-370.1316 1819.5597,-562.7075 1829.6506,-634.8125"/>
<polygon fill="#de958e" stroke="#de958e" points="1826.2093,-635.4862 1831.0004,-644.9359 1833.1479,-634.561 1826.2093,-635.4862"/>
</g>
<!-- flask_monitoringdashboard -->
<g id="node31" class="node">
<title>flask_monitoringdashboard</title>
<polygon fill="#343434" stroke="#343434" points="2713,-86 2490,-86 2490,-50 2713,-50 2713,-86"/>
<text text-anchor="middle" x="2601.5" y="-64.3" font-family="Courier,monospace" font-size="14.00" fill="#de958e">flask_monitoringdashboard</text>
</g>
<!-- flask_monitoringdashboard&#45;&gt;hidebound.server.app -->
<g id="edge72" class="edge">
<title>flask_monitoringdashboard&#45;&gt;hidebound.server.app</title>
<path fill="none" stroke="#de958e" d="M2704.9145,-86.0099C2710.9135,-89.872 2716.3746,-94.4888 2721,-100 2816.0321,-213.2327 2843.4165,-1330.2301 2847.4459,-1522.7996"/>
<polygon fill="#de958e" stroke="#de958e" points="2843.9498,-1523.0293 2847.6545,-1532.9552 2850.9484,-1522.8854 2843.9498,-1523.0293"/>
</g>
<!-- requests -->
<g id="node32" class="node">
<title>requests</title>
<polygon fill="#343434" stroke="#343434" points="1615.5,-406 1532.5,-406 1532.5,-370 1615.5,-370 1615.5,-406"/>
<text text-anchor="middle" x="1574" y="-384.3" font-family="Courier,monospace" font-size="14.00" fill="#de958e">requests</text>
</g>
<!-- requests&#45;&gt;hidebound.core.database -->
<g id="edge73" class="edge">
<title>requests&#45;&gt;hidebound.core.database</title>
<path fill="none" stroke="#de958e" d="M1615.6701,-392.0549C1634.7359,-396.1143 1655.9403,-404.1513 1669,-420 1745.9877,-513.4285 1643.8071,-585.5422 1705,-690 1723.6876,-721.9003 1757.5423,-746.5793 1785.7418,-762.923"/>
<polygon fill="#de958e" stroke="#de958e" points="1784.2389,-766.0931 1794.6723,-767.9351 1787.6648,-759.9887 1784.2389,-766.0931"/>
</g>
<!-- requests&#45;&gt;hidebound.server.server_tools -->
<g id="edge74" class="edge">
<title>requests&#45;&gt;hidebound.server.server_tools</title>
<path fill="none" stroke="#de958e" d="M1615.6419,-395.7722C1633.3729,-400.5865 1653.4947,-408.188 1669,-420 1746.4308,-478.9869 1799.6998,-585.4608 1821.6929,-635.548"/>
<polygon fill="#de958e" stroke="#de958e" points="1818.5007,-636.9844 1825.6724,-644.7829 1824.9292,-634.2141 1818.5007,-636.9844"/>
</g>
<!-- flask_healthz -->
<g id="node33" class="node">
<title>flask_healthz</title>
<polygon fill="#343434" stroke="#343434" points="2392.5,-1665 2268.5,-1665 2268.5,-1629 2392.5,-1629 2392.5,-1665"/>
<text text-anchor="middle" x="2330.5" y="-1643.3" font-family="Courier,monospace" font-size="14.00" fill="#de958e">flask_healthz</text>
</g>
<!-- flask_healthz&#45;&gt;hidebound.server.extensions -->
<g id="edge75" class="edge">
<title>flask_healthz&#45;&gt;hidebound.server.extensions</title>
<path fill="none" stroke="#de958e" d="M2392.6729,-1641.7233C2416.263,-1639.7212 2444.0964,-1637.359 2471.6201,-1635.023"/>
<polygon fill="#de958e" stroke="#de958e" points="2472.0698,-1638.4975 2481.7379,-1634.1643 2471.4777,-1631.5226 2472.0698,-1638.4975"/>
</g>
<!-- yaml -->
<g id="node34" class="node">
<title>yaml</title>
<polygon fill="#343434" stroke="#343434" points="1601,-314 1547,-314 1547,-278 1601,-278 1601,-314"/>
<text text-anchor="middle" x="1574" y="-292.3" font-family="Courier,monospace" font-size="14.00" fill="#de958e">yaml</text>
</g>
<!-- yaml&#45;&gt;hidebound.core.database -->
<g id="edge76" class="edge">
<title>yaml&#45;&gt;hidebound.core.database</title>
<path fill="none" stroke="#de958e" d="M1601.0068,-306.7711C1623.224,-317.1523 1653.4888,-335.1157 1669,-361 1744.6101,-487.1747 1632.1487,-562.2126 1705,-690 1723.2485,-722.0094 1756.9507,-746.6212 1785.193,-762.9078"/>
<polygon fill="#de958e" stroke="#de958e" points="1783.7061,-766.0861 1794.1442,-767.902 1787.1168,-759.9732 1783.7061,-766.0861"/>
</g>
<!-- yaml&#45;&gt;hidebound.server.extension -->
<g id="edge77" class="edge">
<title>yaml&#45;&gt;hidebound.server.extension</title>
<path fill="none" stroke="#de958e" d="M1601.3564,-301.1257C1621.2342,-305.7228 1648.1872,-313.8191 1669,-327 1828.632,-428.0957 1859.0828,-476.8912 1961,-636 2166.5249,-956.8568 2293.088,-1410.7783 2323.4043,-1527.0321"/>
<polygon fill="#de958e" stroke="#de958e" points="2320.0687,-1528.1136 2325.9616,-1536.9184 2326.8457,-1526.3605 2320.0687,-1528.1136"/>
</g>
<!-- yaml&#45;&gt;hidebound.server.server_tools -->
<g id="edge78" class="edge">
<title>yaml&#45;&gt;hidebound.server.server_tools</title>
<path fill="none" stroke="#de958e" d="M1601.1784,-298.6095C1622.2954,-302.0196 1650.9384,-309.8814 1669,-328 1704.7206,-363.8335 1684.4801,-389.7514 1705,-436 1738.5054,-511.5156 1789.3365,-594.7954 1815.7301,-636.3424"/>
<polygon fill="#de958e" stroke="#de958e" points="1812.7961,-638.2509 1821.1288,-644.7943 1818.6953,-634.4827 1812.7961,-638.2509"/>
</g>
<!-- werkzeug.exceptions -->
<g id="node35" class="node">
<title>werkzeug.exceptions</title>
<polygon fill="#343434" stroke="#343434" points="1919.5,-1661 1746.5,-1661 1746.5,-1625 1919.5,-1625 1919.5,-1661"/>
<text text-anchor="middle" x="1833" y="-1639.3" font-family="Courier,monospace" font-size="14.00" fill="#de958e">werkzeug.exceptions</text>
</g>
<!-- werkzeug.exceptions&#45;&gt;hidebound.server.api -->
<g id="edge79" class="edge">
<title>werkzeug.exceptions&#45;&gt;hidebound.server.api</title>
<path fill="none" stroke="#de958e" d="M1919.6872,-1628.7221C1941.223,-1625.175 1964.4956,-1621.3419 1986.6652,-1617.6904"/>
<polygon fill="#de958e" stroke="#de958e" points="1987.4652,-1621.1059 1996.7634,-1616.0272 1986.3275,-1614.199 1987.4652,-1621.1059"/>
</g>
<!-- boto3 -->
<g id="node36" class="node">
<title>boto3</title>
<polygon fill="#343434" stroke="#343434" points="953.5,-1170 895.5,-1170 895.5,-1134 953.5,-1134 953.5,-1170"/>
<text text-anchor="middle" x="924.5" y="-1148.3" font-family="Courier,monospace" font-size="14.00" fill="#de958e">boto3</text>
</g>
<!-- boto3&#45;&gt;hidebound.exporters.s3_exporter -->
<g id="edge80" class="edge">
<title>boto3&#45;&gt;hidebound.exporters.s3_exporter</title>
<path fill="none" stroke="#de958e" d="M953.697,-1147.4889C996.0732,-1140.9415 1077.2121,-1128.405 1147.2182,-1117.5886"/>
<polygon fill="#de958e" stroke="#de958e" points="1148.112,-1120.9921 1157.4603,-1116.0061 1147.0431,-1114.0742 1148.112,-1120.9921"/>
</g>
<!-- dask.distributed -->
<g id="node37" class="node">
<title>dask.distributed</title>
<polygon fill="#343434" stroke="#343434" points="1648.5,-758 1499.5,-758 1499.5,-722 1648.5,-722 1648.5,-758"/>
<text text-anchor="middle" x="1574" y="-736.3" font-family="Courier,monospace" font-size="14.00" fill="#de958e">dask.distributed</text>
</g>
<!-- dask.distributed&#45;&gt;hidebound.core.database -->
<g id="edge81" class="edge">
<title>dask.distributed&#45;&gt;hidebound.core.database</title>
<path fill="none" stroke="#de958e" d="M1648.5661,-753.2434C1671.2887,-757.2791 1696.7811,-761.8067 1721.3943,-766.1781"/>
<polygon fill="#de958e" stroke="#de958e" points="1721.0501,-769.6717 1731.5081,-767.9744 1722.2743,-762.7796 1721.0501,-769.6717"/>
</g>
<!-- pandasql -->
<g id="node38" class="node">
<title>pandasql</title>
<polygon fill="#343434" stroke="#343434" points="1615.5,-704 1532.5,-704 1532.5,-668 1615.5,-668 1615.5,-704"/>
<text text-anchor="middle" x="1574" y="-682.3" font-family="Courier,monospace" font-size="14.00" fill="#de958e">pandasql</text>
</g>
<!-- pandasql&#45;&gt;hidebound.core.database -->
<g id="edge82" class="edge">
<title>pandasql&#45;&gt;hidebound.core.database</title>
<path fill="none" stroke="#de958e" d="M1615.5561,-696.4367C1632.3263,-701.0032 1651.7523,-706.7461 1669,-713 1709.7999,-727.7938 1754.7392,-748.0933 1787.2421,-763.5313"/>
<polygon fill="#de958e" stroke="#de958e" points="1785.9563,-766.796 1796.488,-767.951 1788.9753,-760.4804 1785.9563,-766.796"/>
</g>
<!-- json_logging -->
<g id="node39" class="node">
<title>json_logging</title>
<polygon fill="#343434" stroke="#343434" points="448,-1818 332,-1818 332,-1782 448,-1782 448,-1818"/>
<text text-anchor="middle" x="390" y="-1796.3" font-family="Courier,monospace" font-size="14.00" fill="#de958e">json_logging</text>
</g>
<!-- json_logging&#45;&gt;hidebound.core.logging -->
<g id="edge83" class="edge">
<title>json_logging&#45;&gt;hidebound.core.logging</title>
<path fill="none" stroke="#de958e" d="M448.0848,-1800C470.5981,-1800 497.1424,-1800 522.9707,-1800"/>
<polygon fill="#de958e" stroke="#de958e" points="523.2073,-1803.5001 533.2073,-1800 523.2073,-1796.5001 523.2073,-1803.5001"/>
</g>
<!-- lunchbox.tools -->
<g id="node40" class="node">
<title>lunchbox.tools</title>
<polygon fill="#343434" stroke="#343434" points="990.5,-422 858.5,-422 858.5,-386 990.5,-386 990.5,-422"/>
<text text-anchor="middle" x="924.5" y="-400.3" font-family="Courier,monospace" font-size="14.00" fill="#de958e">lunchbox.tools</text>
</g>
<!-- lunchbox.tools&#45;&gt;hidebound.core.database_tools -->
<g id="edge84" class="edge">
<title>lunchbox.tools&#45;&gt;hidebound.core.database_tools</title>
<path fill="none" stroke="#de958e" d="M990.6776,-414.7416C1015.6536,-419.8064 1044.0488,-426.7983 1069,-436 1130.8808,-458.8209 1197.4059,-496.9987 1237.3585,-521.5794"/>
<polygon fill="#de958e" stroke="#de958e" points="1235.6109,-524.614 1245.9539,-526.9107 1239.3006,-518.6654 1235.6109,-524.614"/>
</g>
<!-- lunchbox.tools&#45;&gt;hidebound.server.server_tools -->
<g id="edge85" class="edge">
<title>lunchbox.tools&#45;&gt;hidebound.server.server_tools</title>
<path fill="none" stroke="#de958e" d="M990.6348,-390.6358C1151.3258,-359.649 1557.2965,-290.7124 1669,-361 1700.2946,-380.6916 1687.9103,-403.212 1705,-436 1743.2992,-509.4802 1792.3124,-594.0071 1817.1069,-636.1651"/>
<polygon fill="#de958e" stroke="#de958e" points="1814.2093,-638.142 1822.3018,-644.9802 1820.2399,-634.5879 1814.2093,-638.142"/>
</g>
<!-- botocore.exceptions -->
<g id="node41" class="node">
<title>botocore.exceptions</title>
<polygon fill="#343434" stroke="#343434" points="1011,-1116 838,-1116 838,-1080 1011,-1080 1011,-1116"/>
<text text-anchor="middle" x="924.5" y="-1094.3" font-family="Courier,monospace" font-size="14.00" fill="#de958e">botocore.exceptions</text>
</g>
<!-- botocore.exceptions&#45;&gt;hidebound.exporters.s3_exporter -->
<g id="edge86" class="edge">
<title>botocore.exceptions&#45;&gt;hidebound.exporters.s3_exporter</title>
<path fill="none" stroke="#de958e" d="M1011.3423,-1098C1046.5665,-1098 1088.2342,-1098 1127.8806,-1098"/>
<polygon fill="#de958e" stroke="#de958e" points="1127.9116,-1101.5001 1137.9115,-1098 1127.9115,-1094.5001 1127.9116,-1101.5001"/>
</g>
<!-- numpy -->
<g id="node42" class="node">
<title>numpy</title>
<polygon fill="#343434" stroke="#343434" points="953.5,-330 895.5,-330 895.5,-294 953.5,-294 953.5,-330"/>
<text text-anchor="middle" x="924.5" y="-308.3" font-family="Courier,monospace" font-size="14.00" fill="#de958e">numpy</text>
</g>
<!-- numpy&#45;&gt;hidebound.core.database -->
<g id="edge87" class="edge">
<title>numpy&#45;&gt;hidebound.core.database</title>
<path fill="none" stroke="#de958e" d="M953.576,-307.6378C1040.114,-296.4034 1298.9288,-275.7222 1443,-404 1484.5862,-441.0274 1438.2946,-486.0064 1479,-524 1542.2934,-583.0766 1605.9057,-507.7108 1669,-567 1710.509,-606.0057 1672.5559,-643.1831 1705,-690 1726.4154,-720.9025 1760.9668,-745.9636 1788.7772,-762.7217"/>
<polygon fill="#de958e" stroke="#de958e" points="1787.1486,-765.8242 1797.5445,-767.8678 1790.6921,-759.7873 1787.1486,-765.8242"/>
</g>
<!-- numpy&#45;&gt;hidebound.core.database_tools -->
<g id="edge88" class="edge">
<title>numpy&#45;&gt;hidebound.core.database_tools</title>
<path fill="none" stroke="#de958e" d="M953.5952,-322.4687C983.6093,-333.8588 1031.2338,-353.6047 1069,-377 1138.7525,-420.2101 1210.7949,-484.7345 1248.0946,-519.9157"/>
<polygon fill="#de958e" stroke="#de958e" points="1245.8514,-522.6122 1255.5133,-526.9594 1250.6712,-517.5358 1245.8514,-522.6122"/>
</g>
<!-- numpy&#45;&gt;hidebound.server.api -->
<g id="edge89" class="edge">
<title>numpy&#45;&gt;hidebound.server.api</title>
<path fill="none" stroke="#de958e" d="M953.6254,-303.7711C1075.0758,-270.1237 1540.8129,-147.9066 1669,-215 1870.7484,-320.5956 1878.9464,-423.5852 1961,-636 2029.9181,-814.4105 2076.2561,-1431.8422 2086.0595,-1572.3797"/>
<polygon fill="#de958e" stroke="#de958e" points="2082.5937,-1572.9954 2086.7754,-1582.7301 2089.577,-1572.5124 2082.5937,-1572.9954"/>
</g>
<!-- girder_client -->
<g id="node43" class="node">
<title>girder_client</title>
<polygon fill="#343434" stroke="#343434" points="986.5,-1620 862.5,-1620 862.5,-1584 986.5,-1584 986.5,-1620"/>
<text text-anchor="middle" x="924.5" y="-1598.3" font-family="Courier,monospace" font-size="14.00" fill="#de958e">girder_client</text>
</g>
<!-- girder_client&#45;&gt;hidebound.exporters.girder_exporter -->
<g id="edge90" class="edge">
<title>girder_client&#45;&gt;hidebound.exporters.girder_exporter</title>
<path fill="none" stroke="#de958e" d="M986.5809,-1595.2501C1021.5037,-1591.4531 1066.8921,-1586.5182 1111.2451,-1581.6958"/>
<polygon fill="#de958e" stroke="#de958e" points="1111.7226,-1585.1646 1121.2856,-1580.6041 1110.9659,-1578.2056 1111.7226,-1585.1646"/>
</g>
<!-- hidebound.exporters -->
<g id="node44" class="node">
<title>hidebound.exporters</title>
<polygon fill="#343434" stroke="#343434" points="719,-1498 546,-1498 546,-1462 719,-1462 719,-1498"/>
<text text-anchor="middle" x="632.5" y="-1476.3" font-family="Courier,monospace" font-size="14.00" fill="#a0d17b">hidebound.exporters</text>
</g>
<!-- hidebound.exporters&#45;&gt;hidebound.exporters.exporter_base -->
<g id="edge91" class="edge">
<title>hidebound.exporters&#45;&gt;hidebound.exporters.exporter_base</title>
<path fill="none" stroke="#a0d17b" d="M656.4849,-1461.8995C684.6293,-1441.5091 733.3916,-1408.7729 780,-1390 790.5074,-1385.7678 801.6812,-1382.0443 812.9803,-1378.7798"/>
<polygon fill="#a0d17b" stroke="#a0d17b" points="814.2235,-1382.0674 822.9284,-1376.0278 812.3572,-1375.3207 814.2235,-1382.0674"/>
</g>
<!-- hidebound.exporters&#45;&gt;hidebound.exporters.girder_exporter -->
<g id="edge92" class="edge">
<title>hidebound.exporters&#45;&gt;hidebound.exporters.girder_exporter</title>
<path fill="none" stroke="#a0d17b" d="M640.4517,-1498.1626C658.5819,-1536.9694 707.1255,-1627.2584 780,-1662 895.943,-1717.2738 943.7351,-1690.4021 1069,-1662 1131.9951,-1647.7167 1198.2739,-1611.6111 1237.8629,-1587.4433"/>
<polygon fill="#a0d17b" stroke="#a0d17b" points="1239.9517,-1590.2667 1246.6142,-1582.0289 1236.2687,-1584.3139 1239.9517,-1590.2667"/>
</g>
<!-- hidebound.exporters&#45;&gt;hidebound.exporters.local_disk_exporter -->
<g id="edge93" class="edge">
<title>hidebound.exporters&#45;&gt;hidebound.exporters.local_disk_exporter</title>
<path fill="none" stroke="#a0d17b" d="M719.0388,-1481.8397C810.1892,-1480.5807 955.9051,-1469.323 1069,-1417 1148.415,-1380.2589 1219.7352,-1302.6072 1253.455,-1261.9937"/>
<polygon fill="#a0d17b" stroke="#a0d17b" points="1256.249,-1264.1061 1259.8792,-1254.1525 1250.8343,-1259.6698 1256.249,-1264.1061"/>
</g>
<!-- hidebound.exporters&#45;&gt;hidebound.exporters.s3_exporter -->
<g id="edge94" class="edge">
<title>hidebound.exporters&#45;&gt;hidebound.exporters.s3_exporter</title>
<path fill="none" stroke="#a0d17b" d="M667.5728,-1461.905C696.8512,-1447.6281 740.0921,-1428.4373 780,-1418 842.5362,-1401.6446 1021.3252,-1428.6507 1069,-1385 1127.8872,-1331.0832 1060.2012,-1275.0892 1105,-1209 1132.6899,-1168.1506 1180.9344,-1138.6918 1218.8071,-1120.4323"/>
<polygon fill="#a0d17b" stroke="#a0d17b" points="1220.6251,-1123.4455 1228.1934,-1116.0312 1217.6534,-1117.1076 1220.6251,-1123.4455"/>
</g>
<!-- schematics.types -->
<g id="node45" class="node">
<title>schematics.types</title>
<polygon fill="#343434" stroke="#343434" points="707,-1094 558,-1094 558,-1058 707,-1058 707,-1094"/>
<text text-anchor="middle" x="632.5" y="-1072.3" font-family="Courier,monospace" font-size="14.00" fill="#de958e">schematics.types</text>
</g>
<!-- schematics.types&#45;&gt;hidebound.core.config -->
<g id="edge95" class="edge">
<title>schematics.types&#45;&gt;hidebound.core.config</title>
<path fill="none" stroke="#de958e" d="M707.1649,-1068.0696C873.8064,-1050.37 1276.4672,-1007.602 1468.5883,-987.1961"/>
<polygon fill="#de958e" stroke="#de958e" points="1469.1219,-990.6593 1478.6962,-986.1225 1468.3825,-983.6984 1469.1219,-990.6593"/>
</g>
<!-- schematics.types&#45;&gt;hidebound.core.specification_base -->
<g id="edge96" class="edge">
<title>schematics.types&#45;&gt;hidebound.core.specification_base</title>
<path fill="none" stroke="#de958e" d="M707.2336,-1069.9908C720.9351,-1065.7667 734.0326,-1059.171 744,-1049 795.9277,-996.0121 727.5544,-938.4753 780,-886 783.0651,-882.9331 786.354,-880.1316 789.8239,-877.5736"/>
<polygon fill="#de958e" stroke="#de958e" points="791.8031,-880.4611 798.2285,-872.037 787.9522,-874.6154 791.8031,-880.4611"/>
</g>
<!-- schematics.types&#45;&gt;hidebound.core.specifications -->
<g id="edge97" class="edge">
<title>schematics.types&#45;&gt;hidebound.core.specifications</title>
<path fill="none" stroke="#de958e" d="M707.0655,-1068.2227C720.4608,-1064.1064 733.4846,-1058.0021 744,-1049 775.7886,-1021.7861 746.9318,-987.6438 780,-962 834.0245,-920.1051 1009.2438,-903.2613 1135.6599,-896.5038"/>
<polygon fill="#de958e" stroke="#de958e" points="1136.0144,-899.9902 1145.8196,-895.9767 1135.6517,-892.9996 1136.0144,-899.9902"/>
</g>
<!-- schematics.types&#45;&gt;hidebound.exporters.exporter_base -->
<g id="edge98" class="edge">
<title>schematics.types&#45;&gt;hidebound.exporters.exporter_base</title>
<path fill="none" stroke="#de958e" d="M663.0573,-1094.1131C688.5985,-1110.8584 723.9713,-1138.087 744,-1171 780.7649,-1231.4154 729.7353,-1276.2492 780,-1326 783.0817,-1329.0502 786.385,-1331.8373 789.8673,-1334.3828"/>
<polygon fill="#de958e" stroke="#de958e" points="788.0121,-1337.3515 798.2974,-1339.8937 791.8424,-1331.4924 788.0121,-1337.3515"/>
</g>
<!-- schematics.types&#45;&gt;hidebound.exporters.girder_exporter -->
<g id="edge99" class="edge">
<title>schematics.types&#45;&gt;hidebound.exporters.girder_exporter</title>
<path fill="none" stroke="#de958e" d="M664.0818,-1094.142C689.9018,-1110.7263 725.1189,-1137.7076 744,-1171 791.5791,-1254.8949 718.2428,-1310.9178 780,-1385 861.6466,-1482.941 1001.4121,-1527.2932 1111.4863,-1547.3777"/>
<polygon fill="#de958e" stroke="#de958e" points="1110.9117,-1550.8304 1121.3693,-1549.1308 1112.1343,-1543.938 1110.9117,-1550.8304"/>
</g>
<!-- schematics.types&#45;&gt;hidebound.exporters.local_disk_exporter -->
<g id="edge100" class="edge">
<title>schematics.types&#45;&gt;hidebound.exporters.local_disk_exporter</title>
<path fill="none" stroke="#de958e" d="M651.6506,-1094.1823C678.1561,-1118.1417 728.5966,-1159.5205 780,-1179 879.9007,-1216.8577 998.648,-1231.4345 1094.6792,-1236.3917"/>
<polygon fill="#de958e" stroke="#de958e" points="1094.6295,-1239.8933 1104.7874,-1236.8824 1094.969,-1232.9015 1094.6295,-1239.8933"/>
</g>
<!-- schematics.types&#45;&gt;hidebound.exporters.s3_exporter -->
<g id="edge101" class="edge">
<title>schematics.types&#45;&gt;hidebound.exporters.s3_exporter</title>
<path fill="none" stroke="#de958e" d="M707.146,-1072.978C730.4731,-1072.1657 756.3027,-1071.4015 780,-1071 908.426,-1068.8239 940.8308,-1062.5959 1069,-1071 1094.4565,-1072.6692 1121.5774,-1075.4924 1147.4769,-1078.7002"/>
<polygon fill="#de958e" stroke="#de958e" points="1147.3592,-1082.2131 1157.7195,-1079.9961 1148.238,-1075.2685 1147.3592,-1082.2131"/>
</g>
<!-- schematics.models -->
<g id="node46" class="node">
<title>schematics.models</title>
<polygon fill="#343434" stroke="#343434" points="468.5,-1185 311.5,-1185 311.5,-1149 468.5,-1149 468.5,-1185"/>
<text text-anchor="middle" x="390" y="-1163.3" font-family="Courier,monospace" font-size="14.00" fill="#de958e">schematics.models</text>
</g>
<!-- schematics.models&#45;&gt;hidebound.core.validators -->
<g id="edge102" class="edge">
<title>schematics.models&#45;&gt;hidebound.core.validators</title>
<path fill="none" stroke="#de958e" d="M468.7328,-1177.0648C482.0872,-1178.772 496.2294,-1180.5798 510.3874,-1182.3897"/>
<polygon fill="#de958e" stroke="#de958e" points="510.3251,-1185.9102 520.6883,-1183.7065 511.2128,-1178.9667 510.3251,-1185.9102"/>
</g>
<!-- wrapt -->
<g id="node47" class="node">
<title>wrapt</title>
<polygon fill="#343434" stroke="#343434" points="419,-1131 361,-1131 361,-1095 419,-1095 419,-1131"/>
<text text-anchor="middle" x="390" y="-1109.3" font-family="Courier,monospace" font-size="14.00" fill="#de958e">wrapt</text>
</g>
<!-- wrapt&#45;&gt;hidebound.core.validators -->
<g id="edge103" class="edge">
<title>wrapt&#45;&gt;hidebound.core.validators</title>
<path fill="none" stroke="#de958e" d="M419.3317,-1120.5414C438.2241,-1125.5937 463.2325,-1132.6466 485,-1140 516.9477,-1150.7924 552.1099,-1164.5436 580.0876,-1175.9474"/>
<polygon fill="#de958e" stroke="#de958e" points="579.0867,-1179.3197 589.667,-1179.8745 581.742,-1172.8428 579.0867,-1179.3197"/>
</g>
<!-- pandas -->
<g id="node48" class="node">
<title>pandas</title>
<polygon fill="#343434" stroke="#343434" points="423,-1292 357,-1292 357,-1256 423,-1256 423,-1292"/>
<text text-anchor="middle" x="390" y="-1270.3" font-family="Courier,monospace" font-size="14.00" fill="#de958e">pandas</text>
</g>
<!-- pandas&#45;&gt;hidebound.core.database -->
<g id="edge104" class="edge">
<title>pandas&#45;&gt;hidebound.core.database</title>
<path fill="none" stroke="#de958e" d="M423.1246,-1273.3393C443.7956,-1274.7809 469.359,-1280.2616 485,-1297 549.6529,-1366.189 470.6864,-1426.7775 521,-1507 596.1613,-1626.8409 645.2878,-1648.8295 780,-1692 1063.8471,-1782.9631 1179.8795,-1731.0395 1443,-1591 1560.3685,-1528.5335 1598.4079,-1507.6685 1669,-1395 1793.1598,-1196.8349 1824.2986,-905.4598 1831.21,-814.3139"/>
<polygon fill="#de958e" stroke="#de958e" points="1834.7102,-814.4364 1831.9374,-804.2109 1827.7282,-813.9337 1834.7102,-814.4364"/>
</g>
<!-- pandas&#45;&gt;hidebound.core.database_tools -->
<g id="edge105" class="edge">
<title>pandas&#45;&gt;hidebound.core.database_tools</title>
<path fill="none" stroke="#de958e" d="M423.3156,-1281.6589C533.7154,-1304.8657 890.6578,-1362.1235 1069,-1179 1118.0024,-1128.6839 1084.2427,-932.0975 1105,-865 1141.0707,-748.4025 1219.7133,-624.4958 1255.5471,-571.5132"/>
<polygon fill="#de958e" stroke="#de958e" points="1258.5791,-573.2793 1261.3199,-563.0451 1252.7952,-569.3364 1258.5791,-573.2793"/>
</g>
<!-- pandas&#45;&gt;hidebound.core.tools -->
<g id="edge106" class="edge">
<title>pandas&#45;&gt;hidebound.core.tools</title>
<path fill="none" stroke="#de958e" d="M422.8595,-1255.8744C444.5463,-1241.9903 471.3835,-1220.6996 485,-1194 535.3083,-1095.3539 484.6254,-801.589 521,-697 539.895,-642.6706 581.6166,-589.4046 608.3231,-558.9534"/>
<polygon fill="#de958e" stroke="#de958e" points="611.0567,-561.1467 615.096,-551.352 605.8303,-556.4899 611.0567,-561.1467"/>
</g>
<!-- pandas&#45;&gt;hidebound.core.validators -->
<g id="edge107" class="edge">
<title>pandas&#45;&gt;hidebound.core.validators</title>
<path fill="none" stroke="#de958e" d="M423.2101,-1263.5919C459.6619,-1252.1678 519.1464,-1233.5252 565.4,-1219.0293"/>
<polygon fill="#de958e" stroke="#de958e" points="566.5605,-1222.3335 575.0561,-1216.003 564.467,-1215.6539 566.5605,-1222.3335"/>
</g>
<!-- pandas&#45;&gt;hidebound.server.components -->
<g id="edge108" class="edge">
<title>pandas&#45;&gt;hidebound.server.components</title>
<path fill="none" stroke="#de958e" d="M391.7232,-1292.0743C400.332,-1378.5469 441.4588,-1749.0526 521,-1827 652.028,-1955.4025 741.0455,-1914 924.5,-1914 924.5,-1914 924.5,-1914 1274,-1914 1421.1066,-1914 1589.947,-1910.1449 1703.2336,-1906.9992"/>
<polygon fill="#de958e" stroke="#de958e" points="1703.4389,-1910.4949 1713.337,-1906.7164 1703.243,-1903.4977 1703.4389,-1910.4949"/>
</g>
<!-- schematics -->
<g id="node49" class="node">
<title>schematics</title>
<polygon fill="#343434" stroke="#343434" points="682,-1040 583,-1040 583,-1004 682,-1004 682,-1040"/>
<text text-anchor="middle" x="632.5" y="-1018.3" font-family="Courier,monospace" font-size="14.00" fill="#de958e">schematics</text>
</g>
<!-- schematics&#45;&gt;hidebound.core.config -->
<g id="edge109" class="edge">
<title>schematics&#45;&gt;hidebound.core.config</title>
<path fill="none" stroke="#de958e" d="M682.0463,-1012.0919C701.9484,-1007.0237 724.7006,-999.8099 744,-990 762.0695,-980.8153 760.8274,-968.5783 780,-962 1058.7173,-866.3699 1148.7507,-946.3214 1443,-962 1451.3723,-962.4461 1460.0329,-963.0515 1468.7276,-963.7614"/>
<polygon fill="#de958e" stroke="#de958e" points="1468.6715,-967.2694 1478.9347,-964.6395 1469.2715,-960.2952 1468.6715,-967.2694"/>
</g>
<!-- schematics&#45;&gt;hidebound.core.specification_base -->
<g id="edge110" class="edge">
<title>schematics&#45;&gt;hidebound.core.specification_base</title>
<path fill="none" stroke="#de958e" d="M682.26,-1017.9078C703.6117,-1013.7939 727.4085,-1005.7227 744,-990 779.5039,-956.3553 743.4777,-918.5364 780,-886 783.6453,-882.7526 787.5454,-879.8109 791.6425,-877.1475"/>
<polygon fill="#de958e" stroke="#de958e" points="793.456,-880.1415 800.3104,-872.0626 789.914,-874.1038 793.456,-880.1415"/>
</g>
<!-- schematics&#45;&gt;hidebound.exporters.exporter_base -->
<g id="edge111" class="edge">
<title>schematics&#45;&gt;hidebound.exporters.exporter_base</title>
<path fill="none" stroke="#de958e" d="M682.2243,-1021.963C704.2318,-1024.6466 728.5716,-1031.8026 744,-1049 826.9031,-1141.409 696.1933,-1234.4097 780,-1326 782.6262,-1328.8701 785.4472,-1331.5127 788.4308,-1333.9446"/>
<polygon fill="#de958e" stroke="#de958e" points="786.5288,-1336.8881 796.6861,-1339.9014 790.6248,-1331.2116 786.5288,-1336.8881"/>
</g>
<!-- schematics&#45;&gt;hidebound.exporters.girder_exporter -->
<g id="edge112" class="edge">
<title>schematics&#45;&gt;hidebound.exporters.girder_exporter</title>
<path fill="none" stroke="#de958e" d="M682.0185,-1023.0906C703.5805,-1026.0651 727.6139,-1033.1391 744,-1049 787.0774,-1090.6966 742.3781,-1132.3217 780,-1179 871.0715,-1291.9943 954.9512,-1241.2525 1069,-1331 1149.1523,-1394.0736 1222.8589,-1491.2694 1255.8259,-1537.6359"/>
<polygon fill="#de958e" stroke="#de958e" points="1253.0607,-1539.7879 1261.6831,-1545.9446 1258.782,-1535.7547 1253.0607,-1539.7879"/>
</g>
<!-- pyparsing -->
<g id="node50" class="node">
<title>pyparsing</title>
<polygon fill="#343434" stroke="#343434" points="238.5,-994 147.5,-994 147.5,-958 238.5,-958 238.5,-994"/>
<text text-anchor="middle" x="193" y="-972.3" font-family="Courier,monospace" font-size="14.00" fill="#de958e">pyparsing</text>
</g>
<!-- pyparsing&#45;&gt;hidebound.core.parser -->
<g id="edge113" class="edge">
<title>pyparsing&#45;&gt;hidebound.core.parser</title>
<path fill="none" stroke="#de958e" d="M235.2614,-957.9799C265.411,-945.1243 306.132,-927.761 338.2331,-914.0732"/>
<polygon fill="#de958e" stroke="#de958e" points="339.6431,-917.2769 347.469,-910.135 336.8975,-910.8378 339.6431,-917.2769"/>
</g>
<!-- pyparsing&#45;&gt;hidebound.core.specification_base -->
<g id="edge114" class="edge">
<title>pyparsing&#45;&gt;hidebound.core.specification_base</title>
<path fill="none" stroke="#de958e" d="M238.6977,-976.3225C334.4683,-975.8398 562.3825,-968.5949 744,-915 761.1571,-909.937 763.364,-903.5761 780,-897 800.7918,-888.7812 823.7961,-881.2597 845.2216,-874.8853"/>
<polygon fill="#de958e" stroke="#de958e" points="846.3279,-878.2084 854.9411,-872.0389 844.3604,-871.4906 846.3279,-878.2084"/>
</g>
<!-- pyparsing&#45;&gt;hidebound.core.validators -->
<g id="edge115" class="edge">
<title>pyparsing&#45;&gt;hidebound.core.validators</title>
<path fill="none" stroke="#de958e" d="M195.1376,-994.2539C201.3405,-1037.8945 223.7018,-1148.0474 295,-1194 373.677,-1244.7083 485.5721,-1233.6929 558.5988,-1218.2386"/>
<polygon fill="#de958e" stroke="#de958e" points="559.621,-1221.5976 568.6377,-1216.0345 558.1197,-1214.7605 559.621,-1221.5976"/>
</g>
<!-- jsoncomment -->
<g id="node51" class="node">
<title>jsoncomment</title>
<polygon fill="#343434" stroke="#343434" points="443.5,-56 336.5,-56 336.5,-20 443.5,-20 443.5,-56"/>
<text text-anchor="middle" x="390" y="-34.3" font-family="Courier,monospace" font-size="14.00" fill="#de958e">jsoncomment</text>
</g>
<!-- jsoncomment&#45;&gt;hidebound.core.database -->
<g id="edge116" class="edge">
<title>jsoncomment&#45;&gt;hidebound.core.database</title>
<path fill="none" stroke="#de958e" d="M443.5668,-36.9116C637.5768,-34.1482 1299.6182,-35.344 1443,-176 1519.6831,-251.2254 1405.8672,-336.3187 1479,-415 1537.9445,-478.4165 1609.9149,-394.7146 1669,-458 1740.2086,-534.2708 1651.297,-600.5356 1705,-690 1724.0923,-721.806 1758.0985,-746.5529 1786.2626,-762.95"/>
<polygon fill="#de958e" stroke="#de958e" points="1784.746,-766.1129 1795.1752,-767.9787 1788.1858,-760.0164 1784.746,-766.1129"/>
</g>
<!-- jsoncomment&#45;&gt;hidebound.core.tools -->
<g id="edge117" class="edge">
<title>jsoncomment&#45;&gt;hidebound.core.tools</title>
<path fill="none" stroke="#de958e" d="M398.9183,-56.2044C435.6478,-131.178 575.3362,-416.3152 619.2228,-505.898"/>
<polygon fill="#de958e" stroke="#de958e" points="616.0863,-507.4515 623.6289,-514.892 622.3725,-504.3719 616.0863,-507.4515"/>
</g>
<!-- jsoncomment&#45;&gt;hidebound.server.extension -->
<g id="edge118" class="edge">
<title>jsoncomment&#45;&gt;hidebound.server.extension</title>
<path fill="none" stroke="#de958e" d="M443.776,-31.6397C540.0339,-20.822 748.2094,0 924.5,0 924.5,0 924.5,0 1833,0 2030.2653,0 2083.3864,-105.4554 2179,-278 2303.8136,-503.239 2326.7036,-1359.4773 2330.0101,-1526.6156"/>
<polygon fill="#de958e" stroke="#de958e" points="2326.5107,-1526.6826 2330.2005,-1536.6141 2333.5094,-1526.5493 2326.5107,-1526.6826"/>
</g>
<!-- hidebound -->
<g id="node52" class="node">
<title>hidebound</title>
<polygon fill="#343434" stroke="#343434" points="91,-1498 0,-1498 0,-1462 91,-1462 91,-1498"/>
<text text-anchor="middle" x="45.5" y="-1476.3" font-family="Courier,monospace" font-size="14.00" fill="#a0d17b">hidebound</text>
</g>
<!-- hidebound&#45;&gt;hidebound.server -->
<g id="edge119" class="edge">
<title>hidebound&#45;&gt;hidebound.server</title>
<path fill="none" stroke="#a0d17b" d="M48.5649,-1498.1992C64.882,-1588.3768 149.998,-1983 390,-1983 390,-1983 390,-1983 924.5,-1983 1127.0847,-1983 1364.8088,-1998.2333 1488.8578,-2007.3429"/>
<polygon fill="#a0d17b" stroke="#a0d17b" points="1488.816,-2010.8493 1499.0469,-2008.0962 1489.3322,-2003.8683 1488.816,-2010.8493"/>
</g>
<!-- hidebound&#45;&gt;hidebound.exporters -->
<g id="edge120" class="edge">
<title>hidebound&#45;&gt;hidebound.exporters</title>
<path fill="none" stroke="#a0d17b" d="M91.0725,-1480C186.145,-1480 407.4235,-1480 535.7329,-1480"/>
<polygon fill="#a0d17b" stroke="#a0d17b" points="535.9484,-1483.5001 545.9484,-1480 535.9483,-1476.5001 535.9484,-1483.5001"/>
</g>
<!-- hidebound.core -->
<g id="node56" class="node">
<title>hidebound.core</title>
<polygon fill="#343434" stroke="#343434" points="259,-788 127,-788 127,-752 259,-752 259,-788"/>
<text text-anchor="middle" x="193" y="-766.3" font-family="Courier,monospace" font-size="14.00" fill="#a0d17b">hidebound.core</text>
</g>
<!-- hidebound&#45;&gt;hidebound.core -->
<g id="edge121" class="edge">
<title>hidebound&#45;&gt;hidebound.core</title>
<path fill="none" stroke="#a0d17b" d="M83.478,-1461.8227C86.3861,-1459.2144 88.9728,-1456.2823 91,-1453 150.0031,-1357.4666 103.3429,-1058.7649 127,-949 138.9405,-893.5981 164.4048,-832.2882 179.9799,-797.719"/>
<polygon fill="#a0d17b" stroke="#a0d17b" points="183.313,-798.8455 184.2806,-788.2949 176.9448,-795.9393 183.313,-798.8455"/>
</g>
<!-- OpenEXR -->
<g id="node53" class="node">
<title>OpenEXR</title>
<polygon fill="#343434" stroke="#343434" points="427,-597 353,-597 353,-561 427,-561 427,-597"/>
<text text-anchor="middle" x="390" y="-575.3" font-family="Courier,monospace" font-size="14.00" fill="#de958e">OpenEXR</text>
</g>
<!-- OpenEXR&#45;&gt;hidebound.core.tools -->
<g id="edge122" class="edge">
<title>OpenEXR&#45;&gt;hidebound.core.tools</title>
<path fill="none" stroke="#de958e" d="M427.0945,-571.9635C454.9855,-566.6728 494.5995,-559.1584 531.6085,-552.1382"/>
<polygon fill="#de958e" stroke="#de958e" points="532.2849,-555.5724 541.4574,-550.2699 530.9803,-548.695 532.2849,-555.5724"/>
</g>
<!-- schematics.exceptions -->
<g id="node54" class="node">
<title>schematics.exceptions</title>
<polygon fill="#343434" stroke="#343434" points="485,-505 295,-505 295,-469 485,-469 485,-505"/>
<text text-anchor="middle" x="390" y="-483.3" font-family="Courier,monospace" font-size="14.00" fill="#de958e">schematics.exceptions</text>
</g>
<!-- schematics.exceptions&#45;&gt;hidebound.core.config -->
<g id="edge123" class="edge">
<title>schematics.exceptions&#45;&gt;hidebound.core.config</title>
<path fill="none" stroke="#de958e" d="M437.7284,-468.9196C510.3472,-442.4755 653.5191,-394.4958 780,-377 907.2329,-359.4002 943.6679,-348.8957 1069,-377 1086.2655,-380.8716 1088.6778,-387.1683 1105,-394 1252.6046,-455.7806 1342.2137,-393.7178 1443,-518 1513.4299,-604.8489 1447.5504,-659.6965 1479,-767 1498.9971,-835.2284 1537.2523,-909.8507 1558.6115,-948.8286"/>
<polygon fill="#de958e" stroke="#de958e" points="1555.7519,-950.8899 1563.6563,-957.9447 1561.8766,-947.5004 1555.7519,-950.8899"/>
</g>
<!-- schematics.exceptions&#45;&gt;hidebound.core.database_tools -->
<g id="edge124" class="edge">
<title>schematics.exceptions&#45;&gt;hidebound.core.database_tools</title>
<path fill="none" stroke="#de958e" d="M485.0626,-491.59C556.3514,-495.1566 656.3192,-500.4215 744,-506 877.0182,-514.4629 1028.6876,-525.794 1135.5979,-534.061"/>
<polygon fill="#de958e" stroke="#de958e" points="1135.5617,-537.5686 1145.8022,-534.8513 1136.1023,-530.5895 1135.5617,-537.5686"/>
</g>
<!-- schematics.exceptions&#45;&gt;hidebound.core.specification_base -->
<g id="edge125" class="edge">
<title>schematics.exceptions&#45;&gt;hidebound.core.specification_base</title>
<path fill="none" stroke="#de958e" d="M430.424,-505.2324C449.9102,-516.0747 471.8525,-531.7058 485,-552 533.8691,-627.4336 459.7397,-685.2308 521,-751 556.7072,-789.3353 681.2997,-817.2761 782.6965,-834.3055"/>
<polygon fill="#de958e" stroke="#de958e" points="782.307,-837.7886 792.7446,-835.9704 783.4513,-830.8828 782.307,-837.7886"/>
</g>
<!-- schematics.exceptions&#45;&gt;hidebound.core.tools -->
<g id="edge126" class="edge">
<title>schematics.exceptions&#45;&gt;hidebound.core.tools</title>
<path fill="none" stroke="#de958e" d="M485.1464,-505.0484C500.2763,-507.9184 515.9754,-510.8964 531.2399,-513.7919"/>
<polygon fill="#de958e" stroke="#de958e" points="530.7206,-517.2557 541.1977,-515.6808 532.0252,-510.3784 530.7206,-517.2557"/>
</g>
<!-- schematics.exceptions&#45;&gt;hidebound.core.validators -->
<g id="edge127" class="edge">
<title>schematics.exceptions&#45;&gt;hidebound.core.validators</title>
<path fill="none" stroke="#de958e" d="M432.3847,-505.1703C451.8695,-515.8407 473.225,-531.3386 485,-552 545.7563,-658.6083 465.9555,-993.3335 521,-1103 536.2564,-1133.3956 566.0008,-1157.9593 590.933,-1174.4893"/>
<polygon fill="#de958e" stroke="#de958e" points="589.2126,-1177.544 599.5194,-1179.9976 592.9923,-1171.6521 589.2126,-1177.544"/>
</g>
<!-- schematics.exceptions&#45;&gt;hidebound.server.api -->
<g id="edge128" class="edge">
<title>schematics.exceptions&#45;&gt;hidebound.server.api</title>
<path fill="none" stroke="#de958e" d="M400.7934,-468.7359C440.7862,-403.1193 588.1739,-179.0235 780,-100 1084.976,25.636 1775.7771,-37.2125 1961,-233 2056.5273,-333.9759 2083.3866,-1385.3257 2087.4266,-1572.5582"/>
<polygon fill="#de958e" stroke="#de958e" points="2083.9304,-1572.7807 2087.6412,-1582.7044 2090.9288,-1572.6326 2083.9304,-1572.7807"/>
</g>
<!-- dask.dataframe -->
<g id="node55" class="node">
<title>dask.dataframe</title>
<polygon fill="#343434" stroke="#343434" points="456,-651 324,-651 324,-615 456,-615 456,-651"/>
<text text-anchor="middle" x="390" y="-629.3" font-family="Courier,monospace" font-size="14.00" fill="#de958e">dask.dataframe</text>
</g>
<!-- dask.dataframe&#45;&gt;hidebound.core.database -->
<g id="edge129" class="edge">
<title>dask.dataframe&#45;&gt;hidebound.core.database</title>
<path fill="none" stroke="#de958e" d="M456.2095,-637.5803C577.8802,-646.3662 845.0947,-667.3765 1069,-697 1252.262,-721.2463 1295.2861,-746.4564 1479,-767 1559.1603,-775.9638 1650.0218,-780.7293 1719.6199,-783.2458"/>
<polygon fill="#de958e" stroke="#de958e" points="1719.6136,-786.7477 1729.7303,-783.601 1719.8594,-779.752 1719.6136,-786.7477"/>
</g>
<!-- dask.dataframe&#45;&gt;hidebound.core.database_tools -->
<g id="edge130" class="edge">
<title>dask.dataframe&#45;&gt;hidebound.core.database_tools</title>
<path fill="none" stroke="#de958e" d="M456.2769,-615.8142C476.8919,-611.0116 499.779,-606.2289 521,-603 734.0362,-570.5849 983.8865,-555.8854 1135.4802,-549.5149"/>
<polygon fill="#de958e" stroke="#de958e" points="1135.9258,-552.9996 1145.7725,-549.0889 1135.6362,-546.0056 1135.9258,-552.9996"/>
</g>
<!-- dask.dataframe&#45;&gt;hidebound.core.tools -->
<g id="edge131" class="edge">
<title>dask.dataframe&#45;&gt;hidebound.core.tools</title>
<path fill="none" stroke="#de958e" d="M456.497,-619.4189C466.4646,-615.8987 476.3033,-611.4958 485,-606 505.4995,-593.0455 500.5172,-577.9809 521,-565 527.0229,-561.183 533.5125,-557.8098 540.2247,-554.8305"/>
<polygon fill="#de958e" stroke="#de958e" points="541.583,-558.0564 549.4927,-551.0074 538.9136,-551.5853 541.583,-558.0564"/>
</g>
<!-- hidebound.core&#45;&gt;hidebound.core.config -->
<g id="edge132" class="edge">
<title>hidebound.core&#45;&gt;hidebound.core.config</title>
<path fill="none" stroke="#a0d17b" d="M195.8513,-751.6433C206.4087,-685.9503 245.2494,-463.8678 295,-415 543.8497,-170.5658 723.6823,-235.7051 1069,-285 1240.4002,-309.4678 1332.5629,-260.6571 1443,-394 1496.1169,-458.1339 1457.4774,-686.5553 1479,-767 1497.3283,-835.5054 1536.0683,-909.7416 1557.9943,-948.6522"/>
<polygon fill="#a0d17b" stroke="#a0d17b" points="1555.1916,-950.8033 1563.1837,-957.7587 1561.2734,-947.3375 1555.1916,-950.8033"/>
</g>
<!-- hidebound.core&#45;&gt;hidebound.core.database -->
<g id="edge133" class="edge">
<title>hidebound.core&#45;&gt;hidebound.core.database</title>
<path fill="none" stroke="#a0d17b" d="M194.1233,-751.7578C199.4841,-670.8542 225.1603,-345.438 295,-277 438.1524,-136.7208 543.5792,-233.4584 744,-235 1055.0248,-237.3924 1210.382,-62.5272 1443,-269 1504.3417,-323.4472 1420.7403,-392.2669 1479,-450 1540.0489,-510.4971 1608.6099,-424.8453 1669,-486 1733.6908,-551.5099 1656.8002,-611.5575 1705,-690 1724.4209,-721.6065 1758.4128,-746.3619 1786.4882,-762.813"/>
<polygon fill="#a0d17b" stroke="#a0d17b" points="1784.9463,-765.9624 1795.3697,-767.8606 1788.405,-759.8766 1784.9463,-765.9624"/>
</g>
<!-- hidebound.core&#45;&gt;hidebound.core.database_tools -->
<g id="edge134" class="edge">
<title>hidebound.core&#45;&gt;hidebound.core.database_tools</title>
<path fill="none" stroke="#a0d17b" d="M196.1375,-751.8661C207.0723,-690.9976 245.5438,-495.7918 295,-460 437.1853,-357.0993 983.2319,-474.5164 1192.098,-524.5708"/>
<polygon fill="#a0d17b" stroke="#a0d17b" points="1191.544,-528.0373 1202.0854,-526.9746 1193.182,-521.2317 1191.544,-528.0373"/>
</g>
<!-- hidebound.core&#45;&gt;hidebound.core.logging -->
<g id="edge135" class="edge">
<title>hidebound.core&#45;&gt;hidebound.core.logging</title>
<path fill="none" stroke="#a0d17b" d="M201.5225,-788.3389C215.9421,-820.237 244.9507,-888.3372 259,-949 294.4818,-1102.2054 250.0912,-1150.2881 295,-1301 357.4421,-1510.5527 368.7373,-1581.0687 521,-1738 536.8446,-1754.3304 557.928,-1767.5385 577.494,-1777.5004"/>
<polygon fill="#a0d17b" stroke="#a0d17b" points="576.1294,-1780.7293 586.6491,-1781.9887 579.2108,-1774.444 576.1294,-1780.7293"/>
</g>
<!-- hidebound.core&#45;&gt;hidebound.core.parser -->
<g id="edge136" class="edge">
<title>hidebound.core&#45;&gt;hidebound.core.parser</title>
<path fill="none" stroke="#a0d17b" d="M209.3702,-788.2773C228.2451,-808.3671 261.056,-840.3869 295,-860 301.3713,-863.6814 308.2295,-867.0197 315.2399,-870.0277"/>
<polygon fill="#a0d17b" stroke="#a0d17b" points="314.28,-873.4151 324.8625,-873.9261 316.9084,-866.9273 314.28,-873.4151"/>
</g>
<!-- hidebound.core&#45;&gt;hidebound.core.specification_base -->
<g id="edge137" class="edge">
<title>hidebound.core&#45;&gt;hidebound.core.specification_base</title>
<path fill="none" stroke="#a0d17b" d="M259.084,-779.3222C271.0312,-780.9358 283.3816,-782.5569 295,-784 456.7596,-804.0916 642.2541,-824.3858 769.7595,-837.9115"/>
<polygon fill="#a0d17b" stroke="#a0d17b" points="769.6762,-841.4221 779.9893,-838.9953 770.4137,-834.4611 769.6762,-841.4221"/>
</g>
<!-- hidebound.core&#45;&gt;hidebound.core.specifications -->
<g id="edge138" class="edge">
<title>hidebound.core&#45;&gt;hidebound.core.specifications</title>
<path fill="none" stroke="#a0d17b" d="M259.0987,-768.6945C406.1307,-767.0077 770.8134,-769.5688 1069,-827 1120.761,-836.9692 1177.7797,-855.7118 1218.5142,-870.5189"/>
<polygon fill="#a0d17b" stroke="#a0d17b" points="1217.3925,-873.8354 1227.9861,-873.9976 1219.8058,-867.2646 1217.3925,-873.8354"/>
</g>
<!-- hidebound.core&#45;&gt;hidebound.core.tools -->
<g id="edge139" class="edge">
<title>hidebound.core&#45;&gt;hidebound.core.tools</title>
<path fill="none" stroke="#a0d17b" d="M195.2709,-751.9481C201.77,-708.756 224.7391,-599.5235 295,-552 332.2529,-526.8027 445.8763,-524.9665 531.0693,-527.5504"/>
<polygon fill="#a0d17b" stroke="#a0d17b" points="531.2014,-531.0565 541.3107,-527.8862 531.4308,-524.0603 531.2014,-531.0565"/>
</g>
<!-- hidebound.core&#45;&gt;hidebound.core.traits -->
<g id="edge140" class="edge">
<title>hidebound.core&#45;&gt;hidebound.core.traits</title>
<path fill="none" stroke="#a0d17b" d="M254.893,-751.9617C320.3354,-733.899 426.9139,-707.3434 521,-697 619.5176,-686.1694 645.1619,-689.6486 744,-697 768.4392,-698.8178 794.5869,-702.0017 819.18,-705.5603"/>
<polygon fill="#a0d17b" stroke="#a0d17b" points="818.8434,-709.0485 829.2481,-707.05 819.8681,-702.1239 818.8434,-709.0485"/>
</g>
<!-- hidebound.core&#45;&gt;hidebound.core.validators -->
<g id="edge141" class="edge">
<title>hidebound.core&#45;&gt;hidebound.core.validators</title>
<path fill="none" stroke="#a0d17b" d="M203.16,-788.1443C220.0375,-817.4347 255.8883,-876.1782 295,-919 346.8351,-975.7521 527.3492,-1116.9176 600.9229,-1173.7377"/>
<polygon fill="#a0d17b" stroke="#a0d17b" points="598.8836,-1176.585 608.9393,-1179.9216 603.1592,-1171.0424 598.8836,-1176.585"/>
</g>
<!-- skimage.io -->
<g id="node57" class="node">
<title>skimage.io</title>
<polygon fill="#343434" stroke="#343434" points="682,-742 583,-742 583,-706 682,-706 682,-742"/>
<text text-anchor="middle" x="632.5" y="-720.3" font-family="Courier,monospace" font-size="14.00" fill="#de958e">skimage.io</text>
</g>
<!-- skimage.io&#45;&gt;hidebound.core.traits -->
<g id="edge142" class="edge">
<title>skimage.io&#45;&gt;hidebound.core.traits</title>
<path fill="none" stroke="#de958e" d="M682.0338,-724C719.5523,-724 772.4542,-724 819.2741,-724"/>
<polygon fill="#de958e" stroke="#de958e" points="819.4737,-727.5001 829.4737,-724 819.4737,-720.5001 819.4737,-727.5001"/>
</g>
</g>
</svg>
