<?xml version="1.0" encoding="UTF-8" standalone="no"?>
<!DOCTYPE svg PUBLIC "-//W3C//DTD SVG 1.1//EN"
 "http://www.w3.org/Graphics/SVG/1.1/DTD/svg11.dtd">
<!-- Generated by graphviz version 2.40.1 (20161225.0304)
 -->
<!-- Title: %3 Pages: 1 -->
<svg width="2236pt" height="1346pt"
 viewBox="0.00 0.00 2236.00 1345.85" xmlns="http://www.w3.org/2000/svg" xmlns:xlink="http://www.w3.org/1999/xlink">
<g id="graph0" class="graph" transform="scale(1 1) rotate(0) translate(4 1341.8486)">
<title>%3</title>
<polygon fill="#242424" stroke="transparent" points="-4,4 -4,-1341.8486 2232,-1341.8486 2232,4 -4,4"/>
<!-- cli -->
<g id="node1" class="node">
<title>cli</title>
<polygon fill="#343434" stroke="#343434" points="72.5,-793.0316 18.5,-793.0316 18.5,-757.0316 72.5,-757.0316 72.5,-793.0316"/>
<text text-anchor="middle" x="45.5" y="-771.3316" font-family="Courier,monospace" font-size="14.00" fill="#b6ecf3">cli</text>
</g>
<!-- hidebound.core.config -->
<g id="node2" class="node">
<title>hidebound.core.config</title>
<polygon fill="#343434" stroke="#343434" points="1410,-867.0316 1220,-867.0316 1220,-831.0316 1410,-831.0316 1410,-867.0316"/>
<text text-anchor="middle" x="1315" y="-845.3316" font-family="Courier,monospace" font-size="14.00" fill="#b6ecf3">hidebound.core.config</text>
</g>
<!-- hidebound.core.database -->
<g id="node3" class="node">
<title>hidebound.core.database</title>
<polygon fill="#343434" stroke="#343434" points="1710,-601.0316 1504,-601.0316 1504,-565.0316 1710,-565.0316 1710,-601.0316"/>
<text text-anchor="middle" x="1607" y="-579.3316" font-family="Courier,monospace" font-size="14.00" fill="#b6ecf3">hidebound.core.database</text>
</g>
<!-- hidebound.core.config&#45;&gt;hidebound.core.database -->
<g id="edge1" class="edge">
<title>hidebound.core.config&#45;&gt;hidebound.core.database</title>
<path fill="none" stroke="#b6ecf3" d="M1410.0705,-841.0047C1422.1685,-836.6888 1433.5878,-830.5853 1443,-822.0316 1482.6348,-786.0117 1450.9004,-752.625 1479,-707.0316 1503.8953,-666.6373 1544.8996,-630.1395 1573.7776,-607.3664"/>
<polygon fill="#b6ecf3" stroke="#b6ecf3" points="1576.1886,-609.9259 1581.9478,-601.0331 1571.9,-604.3935 1576.1886,-609.9259"/>
</g>
<!-- hidebound.server.app -->
<g id="node14" class="node">
<title>hidebound.server.app</title>
<polygon fill="#343434" stroke="#343434" points="2228,-371.0316 2046,-371.0316 2046,-335.0316 2228,-335.0316 2228,-371.0316"/>
<text text-anchor="middle" x="2137" y="-349.3316" font-family="Courier,monospace" font-size="14.00" fill="#b6ecf3">hidebound.server.app</text>
</g>
<!-- hidebound.core.config&#45;&gt;hidebound.server.app -->
<g id="edge2" class="edge">
<title>hidebound.core.config&#45;&gt;hidebound.server.app</title>
<path fill="none" stroke="#b6ecf3" d="M1410.2795,-850.1202C1558.519,-846.5318 1844.4983,-817.6502 2010,-658.0316 2091.4255,-579.5005 2122.7674,-440.945 2132.867,-381.4622"/>
<polygon fill="#b6ecf3" stroke="#b6ecf3" points="2136.3677,-381.7392 2134.5129,-371.308 2129.4579,-380.6191 2136.3677,-381.7392"/>
</g>
<!-- hidebound.server.api -->
<g id="node13" class="node">
<title>hidebound.server.api</title>
<polygon fill="#343434" stroke="#343434" points="1981.5,-578.0316 1799.5,-578.0316 1799.5,-542.0316 1981.5,-542.0316 1981.5,-578.0316"/>
<text text-anchor="middle" x="1890.5" y="-556.3316" font-family="Courier,monospace" font-size="14.00" fill="#b6ecf3">hidebound.server.api</text>
</g>
<!-- hidebound.core.database&#45;&gt;hidebound.server.api -->
<g id="edge3" class="edge">
<title>hidebound.core.database&#45;&gt;hidebound.server.api</title>
<path fill="none" stroke="#b6ecf3" d="M1710.152,-574.663C1735.869,-572.5766 1763.4209,-570.3414 1789.0548,-568.2617"/>
<polygon fill="#b6ecf3" stroke="#b6ecf3" points="1789.4686,-571.7398 1799.1528,-567.4425 1788.9025,-564.7627 1789.4686,-571.7398"/>
</g>
<!-- hidebound.core.database_tools -->
<g id="node4" class="node">
<title>hidebound.core.database_tools</title>
<polygon fill="#343434" stroke="#343434" points="1126.5,-565.0316 870.5,-565.0316 870.5,-529.0316 1126.5,-529.0316 1126.5,-565.0316"/>
<text text-anchor="middle" x="998.5" y="-543.3316" font-family="Courier,monospace" font-size="14.00" fill="#b6ecf3">hidebound.core.database_tools</text>
</g>
<!-- hidebound.core.database_tools&#45;&gt;hidebound.core.database -->
<g id="edge4" class="edge">
<title>hidebound.core.database_tools&#45;&gt;hidebound.core.database</title>
<path fill="none" stroke="#b6ecf3" d="M1126.9824,-551.0345C1215.8076,-554.2376 1336.6669,-559.4576 1443,-567.0316 1459.459,-568.204 1476.8266,-569.6603 1493.858,-571.2131"/>
<polygon fill="#b6ecf3" stroke="#b6ecf3" points="1493.5574,-574.7001 1503.8375,-572.137 1494.2028,-567.7299 1493.5574,-574.7001"/>
</g>
<!-- hidebound.core.parser -->
<g id="node5" class="node">
<title>hidebound.core.parser</title>
<polygon fill="#343434" stroke="#343434" points="485,-931.0316 295,-931.0316 295,-895.0316 485,-895.0316 485,-931.0316"/>
<text text-anchor="middle" x="390" y="-909.3316" font-family="Courier,monospace" font-size="14.00" fill="#b6ecf3">hidebound.core.parser</text>
</g>
<!-- hidebound.core.parser&#45;&gt;hidebound.core.database_tools -->
<g id="edge5" class="edge">
<title>hidebound.core.parser&#45;&gt;hidebound.core.database_tools</title>
<path fill="none" stroke="#b6ecf3" d="M423.7132,-894.9749C495.6648,-856.1932 669.1865,-761.3595 810,-674.0316 865.1066,-639.8563 927.1359,-597.2268 964.4948,-571.078"/>
<polygon fill="#b6ecf3" stroke="#b6ecf3" points="966.8116,-573.7281 972.9879,-565.1197 962.7914,-567.9976 966.8116,-573.7281"/>
</g>
<!-- hidebound.core.specification_base -->
<g id="node6" class="node">
<title>hidebound.core.specification_base</title>
<polygon fill="#343434" stroke="#343434" points="1143,-951.0316 854,-951.0316 854,-915.0316 1143,-915.0316 1143,-951.0316"/>
<text text-anchor="middle" x="998.5" y="-929.3316" font-family="Courier,monospace" font-size="14.00" fill="#b6ecf3">hidebound.core.specification_base</text>
</g>
<!-- hidebound.core.parser&#45;&gt;hidebound.core.specification_base -->
<g id="edge6" class="edge">
<title>hidebound.core.parser&#45;&gt;hidebound.core.specification_base</title>
<path fill="none" stroke="#b6ecf3" d="M453.3466,-931.0431C464.1749,-935.0524 475.1113,-939.7192 485,-945.0316 502.8562,-954.6242 501.8274,-966.4533 521,-973.0316 663.1612,-1021.8082 842.4889,-981.8163 935.7199,-954.0558"/>
<polygon fill="#b6ecf3" stroke="#b6ecf3" points="937.0061,-957.3233 945.5622,-951.0748 934.977,-950.6238 937.0061,-957.3233"/>
</g>
<!-- hidebound.core.validators -->
<g id="node10" class="node">
<title>hidebound.core.validators</title>
<polygon fill="#343434" stroke="#343434" points="777,-1061.0316 554,-1061.0316 554,-1025.0316 777,-1025.0316 777,-1061.0316"/>
<text text-anchor="middle" x="665.5" y="-1039.3316" font-family="Courier,monospace" font-size="14.00" fill="#b6ecf3">hidebound.core.validators</text>
</g>
<!-- hidebound.core.parser&#45;&gt;hidebound.core.validators -->
<g id="edge7" class="edge">
<title>hidebound.core.parser&#45;&gt;hidebound.core.validators</title>
<path fill="none" stroke="#b6ecf3" d="M463.0779,-931.2108C470.9554,-934.9941 478.4676,-939.5498 485,-945.0316 510.595,-966.5104 494.2933,-990.9518 521,-1011.0316 528.2394,-1016.4746 536.2248,-1021.0254 544.6136,-1024.8265"/>
<polygon fill="#b6ecf3" stroke="#b6ecf3" points="543.2807,-1028.0627 553.8585,-1028.6636 545.9641,-1021.5975 543.2807,-1028.0627"/>
</g>
<!-- hidebound.core.specification_base&#45;&gt;hidebound.core.config -->
<g id="edge8" class="edge">
<title>hidebound.core.specification_base&#45;&gt;hidebound.core.config</title>
<path fill="none" stroke="#b6ecf3" d="M1105.0876,-914.9534C1120.7046,-911.0752 1136.4255,-906.4671 1151,-901.0316 1168.1495,-894.6358 1169.9756,-887.7533 1187,-881.0316 1197.4639,-876.9002 1208.624,-873.1762 1219.828,-869.8554"/>
<polygon fill="#b6ecf3" stroke="#b6ecf3" points="1221.0169,-873.1557 1229.6688,-867.0407 1219.0919,-866.4256 1221.0169,-873.1557"/>
</g>
<!-- hidebound.core.specification_base&#45;&gt;hidebound.core.database -->
<g id="edge9" class="edge">
<title>hidebound.core.specification_base&#45;&gt;hidebound.core.database</title>
<path fill="none" stroke="#b6ecf3" d="M1015.4797,-914.8933C1046.8555,-882.1698 1117.1111,-812.5292 1187,-768.0316 1195.3879,-762.6911 1446.2191,-653.1276 1556.1785,-605.1783"/>
<polygon fill="#b6ecf3" stroke="#b6ecf3" points="1557.6569,-608.352 1565.4246,-601.1469 1554.8591,-601.9354 1557.6569,-608.352"/>
</g>
<!-- hidebound.core.specifications -->
<g id="node7" class="node">
<title>hidebound.core.specifications</title>
<polygon fill="#343434" stroke="#343434" points="1443,-813.0316 1187,-813.0316 1187,-777.0316 1443,-777.0316 1443,-813.0316"/>
<text text-anchor="middle" x="1315" y="-791.3316" font-family="Courier,monospace" font-size="14.00" fill="#b6ecf3">hidebound.core.specifications</text>
</g>
<!-- hidebound.core.specification_base&#45;&gt;hidebound.core.specifications -->
<g id="edge10" class="edge">
<title>hidebound.core.specification_base&#45;&gt;hidebound.core.specifications</title>
<path fill="none" stroke="#b6ecf3" d="M1023.0745,-914.9981C1057.8355,-890.3459 1124.1517,-846.4109 1187,-822.0316 1192.5615,-819.8743 1198.3292,-817.8754 1204.2022,-816.0252"/>
<polygon fill="#b6ecf3" stroke="#b6ecf3" points="1205.5869,-819.2645 1214.1678,-813.05 1203.5844,-812.557 1205.5869,-819.2645"/>
</g>
<!-- hidebound.core.tools -->
<g id="node8" class="node">
<title>hidebound.core.tools</title>
<polygon fill="#343434" stroke="#343434" points="756.5,-611.0316 574.5,-611.0316 574.5,-575.0316 756.5,-575.0316 756.5,-611.0316"/>
<text text-anchor="middle" x="665.5" y="-589.3316" font-family="Courier,monospace" font-size="14.00" fill="#b6ecf3">hidebound.core.tools</text>
</g>
<!-- hidebound.core.tools&#45;&gt;hidebound.core.database -->
<g id="edge11" class="edge">
<title>hidebound.core.tools&#45;&gt;hidebound.core.database</title>
<path fill="none" stroke="#b6ecf3" d="M756.6304,-592.0637C929.5063,-590.2275 1304.6307,-586.2432 1493.5073,-584.2371"/>
<polygon fill="#b6ecf3" stroke="#b6ecf3" points="1493.7788,-587.7345 1503.741,-584.1284 1493.7044,-580.7349 1493.7788,-587.7345"/>
</g>
<!-- hidebound.core.tools&#45;&gt;hidebound.core.database_tools -->
<g id="edge12" class="edge">
<title>hidebound.core.tools&#45;&gt;hidebound.core.database_tools</title>
<path fill="none" stroke="#b6ecf3" d="M756.9342,-580.4011C788.8284,-575.9953 825.3704,-570.9474 860.2143,-566.1341"/>
<polygon fill="#b6ecf3" stroke="#b6ecf3" points="861.0502,-569.552 870.4772,-564.7164 860.0923,-562.6178 861.0502,-569.552"/>
</g>
<!-- hidebound.core.tools&#45;&gt;hidebound.core.specification_base -->
<g id="edge13" class="edge">
<title>hidebound.core.tools&#45;&gt;hidebound.core.specification_base</title>
<path fill="none" stroke="#b6ecf3" d="M683.4035,-611.3115C738.9647,-668.0406 908.5837,-841.2252 973.1673,-907.1664"/>
<polygon fill="#b6ecf3" stroke="#b6ecf3" points="971.0103,-909.9661 980.508,-914.6613 976.0113,-905.0681 971.0103,-909.9661"/>
</g>
<!-- hidebound.server.server_tools -->
<g id="node16" class="node">
<title>hidebound.server.server_tools</title>
<polygon fill="#343434" stroke="#343434" points="1735,-752.0316 1479,-752.0316 1479,-716.0316 1735,-716.0316 1735,-752.0316"/>
<text text-anchor="middle" x="1607" y="-730.3316" font-family="Courier,monospace" font-size="14.00" fill="#b6ecf3">hidebound.server.server_tools</text>
</g>
<!-- hidebound.core.tools&#45;&gt;hidebound.server.server_tools -->
<g id="edge14" class="edge">
<title>hidebound.core.tools&#45;&gt;hidebound.server.server_tools</title>
<path fill="none" stroke="#b6ecf3" d="M756.6304,-606.6794C924.4619,-631.814 1282.911,-685.4957 1476.5071,-714.4889"/>
<polygon fill="#b6ecf3" stroke="#b6ecf3" points="1476.0458,-717.9587 1486.4539,-715.9785 1477.0826,-711.0359 1476.0458,-717.9587"/>
</g>
<!-- hidebound.core.traits -->
<g id="node9" class="node">
<title>hidebound.core.traits</title>
<polygon fill="#343434" stroke="#343434" points="485,-1326.0316 295,-1326.0316 295,-1290.0316 485,-1290.0316 485,-1326.0316"/>
<text text-anchor="middle" x="390" y="-1304.3316" font-family="Courier,monospace" font-size="14.00" fill="#b6ecf3">hidebound.core.traits</text>
</g>
<!-- hidebound.core.traits&#45;&gt;hidebound.core.specifications -->
<g id="edge15" class="edge">
<title>hidebound.core.traits&#45;&gt;hidebound.core.specifications</title>
<path fill="none" stroke="#b6ecf3" d="M485.2104,-1324.3942C653.4644,-1347.1124 999.8428,-1364.6691 1151,-1158.0316 1239.6719,-1036.8139 1086.3058,-933.4637 1187,-822.0316 1187.6495,-821.3128 1188.3129,-820.6105 1188.9896,-819.9243"/>
<polygon fill="#b6ecf3" stroke="#b6ecf3" points="1191.4896,-822.3878 1196.7172,-813.1724 1186.8838,-817.1164 1191.4896,-822.3878"/>
</g>
<!-- hidebound.core.validators&#45;&gt;hidebound.core.config -->
<g id="edge16" class="edge">
<title>hidebound.core.validators&#45;&gt;hidebound.core.config</title>
<path fill="none" stroke="#b6ecf3" d="M777.2465,-1048.7673C902.623,-1052.7983 1095.7259,-1051.0251 1151,-1006.0316 1195.8369,-969.534 1145.4018,-921.1814 1187,-881.0316 1193.9113,-874.361 1201.9928,-869.0171 1210.6758,-864.7443"/>
<polygon fill="#b6ecf3" stroke="#b6ecf3" points="1212.1806,-867.9059 1219.9182,-860.6685 1209.3561,-861.501 1212.1806,-867.9059"/>
</g>
<!-- hidebound.core.validators&#45;&gt;hidebound.core.specification_base -->
<g id="edge17" class="edge">
<title>hidebound.core.validators&#45;&gt;hidebound.core.specification_base</title>
<path fill="none" stroke="#b6ecf3" d="M775.7572,-1025.021C787.6386,-1021.2148 799.2879,-1016.6076 810,-1011.0316 829.2529,-1001.0098 827.1043,-988.7116 846,-978.0316 863.3716,-968.2131 883.0921,-960.3515 902.4499,-954.1245"/>
<polygon fill="#b6ecf3" stroke="#b6ecf3" points="903.696,-957.4028 912.2172,-951.1068 901.6296,-950.7147 903.696,-957.4028"/>
</g>
<!-- hidebound.core.validators&#45;&gt;hidebound.core.specifications -->
<g id="edge18" class="edge">
<title>hidebound.core.validators&#45;&gt;hidebound.core.specifications</title>
<path fill="none" stroke="#b6ecf3" d="M748.8987,-1024.9841C779.3849,-1018.6387 814.1905,-1011.6866 846,-1006.0316 913.4862,-994.0342 1100.044,-1005.8771 1151,-960.0316 1198.1213,-917.6363 1141.1322,-865.78 1187,-822.0316 1187.9707,-821.1058 1188.9647,-820.2083 1189.9804,-819.3384"/>
<polygon fill="#b6ecf3" stroke="#b6ecf3" points="1192.2697,-821.9964 1198.1674,-813.1948 1188.0682,-816.3975 1192.2697,-821.9964"/>
</g>
<!-- hidebound.exporters.girder_exporter -->
<g id="node12" class="node">
<title>hidebound.exporters.girder_exporter</title>
<polygon fill="#343434" stroke="#343434" points="1151,-1149.0316 846,-1149.0316 846,-1113.0316 1151,-1113.0316 1151,-1149.0316"/>
<text text-anchor="middle" x="998.5" y="-1127.3316" font-family="Courier,monospace" font-size="14.00" fill="#b6ecf3">hidebound.exporters.girder_exporter</text>
</g>
<!-- hidebound.core.validators&#45;&gt;hidebound.exporters.girder_exporter -->
<g id="edge19" class="edge">
<title>hidebound.core.validators&#45;&gt;hidebound.exporters.girder_exporter</title>
<path fill="none" stroke="#b6ecf3" d="M733.6911,-1061.0521C787.8111,-1075.3541 863.5211,-1095.3615 920.1328,-1110.322"/>
<polygon fill="#b6ecf3" stroke="#b6ecf3" points="919.5523,-1113.7886 930.1146,-1112.9598 921.3408,-1107.0209 919.5523,-1113.7886"/>
</g>
<!-- hidebound.exporters.exporter_base -->
<g id="node11" class="node">
<title>hidebound.exporters.exporter_base</title>
<polygon fill="#343434" stroke="#343434" points="810,-1299.0316 521,-1299.0316 521,-1263.0316 810,-1263.0316 810,-1299.0316"/>
<text text-anchor="middle" x="665.5" y="-1277.3316" font-family="Courier,monospace" font-size="14.00" fill="#b6ecf3">hidebound.exporters.exporter_base</text>
</g>
<!-- hidebound.exporters.exporter_base&#45;&gt;hidebound.exporters.girder_exporter -->
<g id="edge20" class="edge">
<title>hidebound.exporters.exporter_base&#45;&gt;hidebound.exporters.girder_exporter</title>
<path fill="none" stroke="#b6ecf3" d="M767.8991,-1262.9387C782.2792,-1259.0819 796.684,-1254.4838 810,-1249.0316 869.5406,-1224.6528 931.4382,-1182.013 967.3956,-1155.2156"/>
<polygon fill="#b6ecf3" stroke="#b6ecf3" points="969.6441,-1157.904 975.5289,-1149.0938 965.4344,-1152.3112 969.6441,-1157.904"/>
</g>
<!-- hidebound.exporters.girder_exporter&#45;&gt;hidebound.core.config -->
<g id="edge21" class="edge">
<title>hidebound.exporters.girder_exporter&#45;&gt;hidebound.core.config</title>
<path fill="none" stroke="#b6ecf3" d="M1127.6113,-1112.9996C1136.2585,-1108.1892 1144.2114,-1102.2776 1151,-1095.0316 1216.9411,-1024.6477 1121.5234,-951.8478 1187,-881.0316 1193.694,-873.7917 1201.7561,-868.0817 1210.5367,-863.592"/>
<polygon fill="#b6ecf3" stroke="#b6ecf3" points="1212.255,-866.6561 1219.92,-859.3419 1209.3668,-860.2797 1212.255,-866.6561"/>
</g>
<!-- hidebound.exporters.girder_exporter&#45;&gt;hidebound.core.database -->
<g id="edge22" class="edge">
<title>hidebound.exporters.girder_exporter&#45;&gt;hidebound.core.database</title>
<path fill="none" stroke="#b6ecf3" d="M1111.9639,-1112.8656C1126.6167,-1106.3943 1140.2379,-1097.6983 1151,-1086.0316 1203.9554,-1028.6254 1130.1704,-967.6054 1187,-914.0316 1270.6967,-835.1299 1359.1631,-954.7843 1443,-876.0316 1498.9739,-823.4521 1441.8067,-774.2204 1479,-707.0316 1501.7758,-665.8876 1542.6287,-629.8882 1572.0638,-607.4286"/>
<polygon fill="#b6ecf3" stroke="#b6ecf3" points="1574.5058,-609.9728 1580.4185,-601.1813 1570.3138,-604.3668 1574.5058,-609.9728"/>
</g>
<!-- hidebound.server.api&#45;&gt;hidebound.server.app -->
<g id="edge23" class="edge">
<title>hidebound.server.api&#45;&gt;hidebound.server.app</title>
<path fill="none" stroke="#b6ecf3" d="M1911.944,-542.0238C1956.1044,-504.9398 2057.258,-419.9955 2107.5264,-377.7823"/>
<polygon fill="#b6ecf3" stroke="#b6ecf3" points="2110.0228,-380.2563 2115.43,-371.1452 2105.5212,-374.8957 2110.0228,-380.2563"/>
</g>
<!-- hidebound.server.components -->
<g id="node15" class="node">
<title>hidebound.server.components</title>
<polygon fill="#343434" stroke="#343434" points="2010,-325.0316 1771,-325.0316 1771,-289.0316 2010,-289.0316 2010,-325.0316"/>
<text text-anchor="middle" x="1890.5" y="-303.3316" font-family="Courier,monospace" font-size="14.00" fill="#b6ecf3">hidebound.server.components</text>
</g>
<!-- hidebound.server.components&#45;&gt;hidebound.server.app -->
<g id="edge24" class="edge">
<title>hidebound.server.components&#45;&gt;hidebound.server.app</title>
<path fill="none" stroke="#b6ecf3" d="M1987.2158,-325.08C2003.1885,-328.0607 2019.7854,-331.1579 2035.8632,-334.1582"/>
<polygon fill="#b6ecf3" stroke="#b6ecf3" points="2035.3243,-337.618 2045.7966,-336.0119 2036.6084,-330.7368 2035.3243,-337.618"/>
</g>
<!-- hidebound.server.server_tools&#45;&gt;hidebound.server.api -->
<g id="edge25" class="edge">
<title>hidebound.server.server_tools&#45;&gt;hidebound.server.api</title>
<path fill="none" stroke="#b6ecf3" d="M1668.7577,-716.0103C1690.4077,-708.4983 1714.4371,-698.7609 1735,-687.0316 1785.3058,-658.3366 1835.8147,-613.3917 1865.0721,-585.3779"/>
<polygon fill="#b6ecf3" stroke="#b6ecf3" points="1867.6377,-587.7657 1872.3912,-578.2971 1862.7705,-582.7348 1867.6377,-587.7657"/>
</g>
<!-- hidebound.server.server_tools&#45;&gt;hidebound.server.app -->
<g id="edge26" class="edge">
<title>hidebound.server.server_tools&#45;&gt;hidebound.server.app</title>
<path fill="none" stroke="#b6ecf3" d="M1717.5358,-715.9561C1805.2897,-696.7725 1926.6718,-658.8951 2010,-587.0316 2076.1997,-529.94 2113.9004,-429.4926 2129.0804,-380.9075"/>
<polygon fill="#b6ecf3" stroke="#b6ecf3" points="2132.5055,-381.6734 2132.0605,-371.0879 2125.8072,-379.6405 2132.5055,-381.6734"/>
</g>
<!-- dash -->
<g id="node17" class="node">
<title>dash</title>
<polygon fill="#343434" stroke="#343434" points="1634,-417.0316 1580,-417.0316 1580,-381.0316 1634,-381.0316 1634,-417.0316"/>
<text text-anchor="middle" x="1607" y="-395.3316" font-family="Courier,monospace" font-size="14.00" fill="#de958e">dash</text>
</g>
<!-- dash&#45;&gt;hidebound.server.app -->
<g id="edge27" class="edge">
<title>dash&#45;&gt;hidebound.server.app</title>
<path fill="none" stroke="#de958e" d="M1634.0114,-396.6872C1706.9517,-390.3566 1910.7836,-372.6655 2035.4438,-361.8459"/>
<polygon fill="#de958e" stroke="#de958e" points="2036.105,-365.3018 2045.7649,-360.9501 2035.4997,-358.328 2036.105,-365.3018"/>
</g>
<!-- dash&#45;&gt;hidebound.server.components -->
<g id="edge28" class="edge">
<title>dash&#45;&gt;hidebound.server.components</title>
<path fill="none" stroke="#de958e" d="M1634.2399,-393.2461C1660.3398,-387.4627 1700.7146,-377.8863 1735,-367.0316 1769.9745,-355.9587 1808.4451,-341.1379 1838.3714,-328.9969"/>
<polygon fill="#de958e" stroke="#de958e" points="1839.838,-332.1787 1847.7722,-325.1574 1837.1912,-325.6983 1839.838,-332.1787"/>
</g>
<!-- dash_core_components -->
<g id="node18" class="node">
<title>dash_core_components</title>
<polygon fill="#343434" stroke="#343434" points="1698,-125.0316 1516,-125.0316 1516,-89.0316 1698,-89.0316 1698,-125.0316"/>
<text text-anchor="middle" x="1607" y="-103.3316" font-family="Courier,monospace" font-size="14.00" fill="#de958e">dash_core_components</text>
</g>
<!-- dash_core_components&#45;&gt;hidebound.server.app -->
<g id="edge29" class="edge">
<title>dash_core_components&#45;&gt;hidebound.server.app</title>
<path fill="none" stroke="#de958e" d="M1696.6785,-125.0812C1710.7142,-130.9507 1724.1428,-138.7277 1735,-149.0316 1767.1488,-179.5422 1736.5244,-214.1771 1771,-242.0316 1854.6621,-309.6263 1908.5892,-244.1952 2010,-280.0316 2043.7421,-291.9553 2078.7625,-312.8275 2103.4606,-329.2078"/>
<polygon fill="#de958e" stroke="#de958e" points="2101.8236,-332.3253 2112.0714,-335.0145 2105.7373,-326.5216 2101.8236,-332.3253"/>
</g>
<!-- dash_core_components&#45;&gt;hidebound.server.components -->
<g id="edge30" class="edge">
<title>dash_core_components&#45;&gt;hidebound.server.components</title>
<path fill="none" stroke="#de958e" d="M1698.0406,-116.8925C1711.7563,-121.8141 1724.7257,-128.8981 1735,-139.0316 1779.5166,-182.9384 1726.8508,-230.7554 1771,-275.0316 1774.0709,-278.1114 1777.4037,-280.9041 1780.9378,-283.436"/>
<polygon fill="#de958e" stroke="#de958e" points="1779.2018,-286.4796 1789.5206,-288.8826 1782.9526,-280.5693 1779.2018,-286.4796"/>
</g>
<!-- dash_cytoscape -->
<g id="node19" class="node">
<title>dash_cytoscape</title>
<polygon fill="#343434" stroke="#343434" points="1673,-217.0316 1541,-217.0316 1541,-181.0316 1673,-181.0316 1673,-217.0316"/>
<text text-anchor="middle" x="1607" y="-195.3316" font-family="Courier,monospace" font-size="14.00" fill="#de958e">dash_cytoscape</text>
</g>
<!-- dash_cytoscape&#45;&gt;hidebound.server.components -->
<g id="edge31" class="edge">
<title>dash_cytoscape&#45;&gt;hidebound.server.components</title>
<path fill="none" stroke="#de958e" d="M1673.0242,-203.6467C1694.0925,-207.47 1716.674,-214.2198 1735,-226.0316 1757.7142,-240.6718 1748.6874,-259.7863 1771,-275.0316 1776.3533,-278.6893 1782.1057,-281.9293 1788.0887,-284.7993"/>
<polygon fill="#de958e" stroke="#de958e" points="1787.0935,-288.1853 1797.6561,-289.0116 1789.9141,-281.7787 1787.0935,-288.1853"/>
</g>
<!-- hidebound.server -->
<g id="node20" class="node">
<title>hidebound.server</title>
<polygon fill="#343434" stroke="#343434" points="1389.5,-308.0316 1240.5,-308.0316 1240.5,-272.0316 1389.5,-272.0316 1389.5,-308.0316"/>
<text text-anchor="middle" x="1315" y="-286.3316" font-family="Courier,monospace" font-size="14.00" fill="#a0d17b">hidebound.server</text>
</g>
<!-- hidebound.server&#45;&gt;hidebound.server.api -->
<g id="edge32" class="edge">
<title>hidebound.server&#45;&gt;hidebound.server.api</title>
<path fill="none" stroke="#a0d17b" d="M1354.1197,-308.1095C1382.3966,-322.9855 1419.593,-346.5611 1443,-377.0316 1472.5416,-415.488 1441.9254,-448.7734 1479,-480.0316 1567.2051,-554.3988 1621.9283,-500.11 1735,-523.0316 1759.2622,-527.95 1785.4978,-533.9335 1809.3853,-539.6427"/>
<polygon fill="#a0d17b" stroke="#a0d17b" points="1808.5724,-543.0469 1819.1137,-541.9833 1810.2099,-536.2411 1808.5724,-543.0469"/>
</g>
<!-- hidebound.server&#45;&gt;hidebound.server.app -->
<g id="edge33" class="edge">
<title>hidebound.server&#45;&gt;hidebound.server.app</title>
<path fill="none" stroke="#a0d17b" d="M1319.6881,-271.7843C1333.7261,-221.4398 1380.6768,-80.7025 1479,-26.0316 1578.4395,29.26 1621.3486,-20.6709 1735,-26.0316 1857.6309,-31.8158 1911.0107,20.5833 2010,-52.0316 2101.0303,-118.8081 2127.2813,-263.7151 2134.456,-324.8838"/>
<polygon fill="#a0d17b" stroke="#a0d17b" points="2130.9912,-325.3982 2135.552,-334.9612 2137.9502,-324.6413 2130.9912,-325.3982"/>
</g>
<!-- hidebound.server&#45;&gt;hidebound.server.components -->
<g id="edge34" class="edge">
<title>hidebound.server&#45;&gt;hidebound.server.components</title>
<path fill="none" stroke="#a0d17b" d="M1332.0438,-271.9792C1359.7244,-244.1294 1417.5725,-191.8339 1479,-172.0316 1533.145,-154.5769 1688.6095,-139.1034 1735,-172.0316 1774.5443,-200.1004 1735.4552,-242.0442 1771,-275.0316 1774.5519,-278.328 1778.406,-281.2919 1782.4814,-283.9563"/>
<polygon fill="#a0d17b" stroke="#a0d17b" points="1780.7325,-286.988 1791.1315,-289.0153 1784.2664,-280.9456 1780.7325,-286.988"/>
</g>
<!-- hidebound.server&#45;&gt;hidebound.server.server_tools -->
<g id="edge35" class="edge">
<title>hidebound.server&#45;&gt;hidebound.server.server_tools</title>
<path fill="none" stroke="#a0d17b" d="M1321.8426,-308.1905C1341.4674,-358.9485 1401.5375,-505.432 1479,-610.0316 1507.4904,-648.5029 1548.3,-685.7672 1576.1297,-709.23"/>
<polygon fill="#a0d17b" stroke="#a0d17b" points="1574.0449,-712.0487 1583.9674,-715.7627 1578.5267,-706.6715 1574.0449,-712.0487"/>
</g>
<!-- dash_html_components -->
<g id="node21" class="node">
<title>dash_html_components</title>
<polygon fill="#343434" stroke="#343434" points="1698,-71.0316 1516,-71.0316 1516,-35.0316 1698,-35.0316 1698,-71.0316"/>
<text text-anchor="middle" x="1607" y="-49.3316" font-family="Courier,monospace" font-size="14.00" fill="#de958e">dash_html_components</text>
</g>
<!-- dash_html_components&#45;&gt;hidebound.server.app -->
<g id="edge36" class="edge">
<title>dash_html_components&#45;&gt;hidebound.server.app</title>
<path fill="none" stroke="#de958e" d="M1698.2486,-50.6676C1785.9012,-52.8407 1918.2044,-68.246 2010,-134.0316 2077.2308,-182.2127 2114.2473,-277.9046 2129.1401,-325.2174"/>
<polygon fill="#de958e" stroke="#de958e" points="2125.8011,-326.2674 2132.0642,-334.8128 2132.4971,-324.2268 2125.8011,-326.2674"/>
</g>
<!-- dash_html_components&#45;&gt;hidebound.server.components -->
<g id="edge37" class="edge">
<title>dash_html_components&#45;&gt;hidebound.server.components</title>
<path fill="none" stroke="#de958e" d="M1698.2155,-58.7728C1711.911,-63.2238 1724.8283,-69.9689 1735,-80.0316 1787.4339,-131.9034 1726.6197,-183.1216 1771,-242.0316 1784.987,-260.5978 1805.8833,-274.4959 1826.3085,-284.571"/>
<polygon fill="#de958e" stroke="#de958e" points="1825.0925,-287.8662 1835.6334,-288.9341 1828.0592,-281.5259 1825.0925,-287.8662"/>
</g>
<!-- dash_table -->
<g id="node22" class="node">
<title>dash_table</title>
<polygon fill="#343434" stroke="#343434" points="1656.5,-325.0316 1557.5,-325.0316 1557.5,-289.0316 1656.5,-289.0316 1656.5,-325.0316"/>
<text text-anchor="middle" x="1607" y="-303.3316" font-family="Courier,monospace" font-size="14.00" fill="#de958e">dash_table</text>
</g>
<!-- dash_table&#45;&gt;hidebound.server.components -->
<g id="edge38" class="edge">
<title>dash_table&#45;&gt;hidebound.server.components</title>
<path fill="none" stroke="#de958e" d="M1656.7063,-307.0316C1685.6647,-307.0316 1723.6525,-307.0316 1760.5644,-307.0316"/>
<polygon fill="#de958e" stroke="#de958e" points="1760.9386,-310.5317 1770.9385,-307.0316 1760.9385,-303.5317 1760.9386,-310.5317"/>
</g>
<!-- rolling_pin.blob_etl -->
<g id="node23" class="node">
<title>rolling_pin.blob_etl</title>
<polygon fill="#343434" stroke="#343434" points="1698,-271.0316 1516,-271.0316 1516,-235.0316 1698,-235.0316 1698,-271.0316"/>
<text text-anchor="middle" x="1607" y="-249.3316" font-family="Courier,monospace" font-size="14.00" fill="#de958e">rolling_pin.blob_etl</text>
</g>
<!-- rolling_pin.blob_etl&#45;&gt;hidebound.server.components -->
<g id="edge39" class="edge">
<title>rolling_pin.blob_etl&#45;&gt;hidebound.server.components</title>
<path fill="none" stroke="#de958e" d="M1698.2617,-270.4148C1726.2072,-275.7377 1757.1642,-281.6343 1785.9244,-287.1124"/>
<polygon fill="#de958e" stroke="#de958e" points="1785.5187,-290.598 1795.997,-289.031 1786.8286,-283.7217 1785.5187,-290.598"/>
</g>
<!-- dash.dependencies -->
<g id="node24" class="node">
<title>dash.dependencies</title>
<polygon fill="#343434" stroke="#343434" points="1969,-233.0316 1812,-233.0316 1812,-197.0316 1969,-197.0316 1969,-233.0316"/>
<text text-anchor="middle" x="1890.5" y="-211.3316" font-family="Courier,monospace" font-size="14.00" fill="#de958e">dash.dependencies</text>
</g>
<!-- dash.dependencies&#45;&gt;hidebound.server.app -->
<g id="edge40" class="edge">
<title>dash.dependencies&#45;&gt;hidebound.server.app</title>
<path fill="none" stroke="#de958e" d="M1969.1579,-230.8634C1983.1671,-235.1347 1997.3221,-240.4543 2010,-247.0316 2050.2557,-267.9165 2089.1709,-303.3679 2113.0826,-327.4691"/>
<polygon fill="#de958e" stroke="#de958e" points="2110.8111,-330.1527 2120.3016,-334.8625 2115.8196,-325.2623 2110.8111,-330.1527"/>
</g>
<!-- dash.exceptions -->
<g id="node25" class="node">
<title>dash.exceptions</title>
<polygon fill="#343434" stroke="#343434" points="1960.5,-179.0316 1820.5,-179.0316 1820.5,-143.0316 1960.5,-143.0316 1960.5,-179.0316"/>
<text text-anchor="middle" x="1890.5" y="-157.3316" font-family="Courier,monospace" font-size="14.00" fill="#de958e">dash.exceptions</text>
</g>
<!-- dash.exceptions&#45;&gt;hidebound.server.app -->
<g id="edge41" class="edge">
<title>dash.exceptions&#45;&gt;hidebound.server.app</title>
<path fill="none" stroke="#de958e" d="M1960.7026,-168.4821C1977.7597,-172.4971 1995.3024,-178.6418 2010,-188.0316 2063.97,-222.5113 2104.0655,-288.2936 2123.6416,-325.5377"/>
<polygon fill="#de958e" stroke="#de958e" points="2120.7133,-327.4975 2128.3933,-334.796 2126.9409,-324.3011 2120.7133,-327.4975"/>
</g>
<!-- flask -->
<g id="node26" class="node">
<title>flask</title>
<polygon fill="#343434" stroke="#343434" points="1344,-1013.0316 1286,-1013.0316 1286,-977.0316 1344,-977.0316 1344,-1013.0316"/>
<text text-anchor="middle" x="1315" y="-991.3316" font-family="Courier,monospace" font-size="14.00" fill="#de958e">flask</text>
</g>
<!-- flask&#45;&gt;hidebound.server.api -->
<g id="edge42" class="edge">
<title>flask&#45;&gt;hidebound.server.api</title>
<path fill="none" stroke="#de958e" d="M1344.0186,-992.3929C1370.676,-989.1718 1410.8097,-982.2792 1443,-968.0316 1461.0478,-960.0436 1462.9421,-953.5066 1479,-942.0316 1592.3719,-861.0161 1634.3724,-857.4202 1735,-761.0316 1793.0569,-705.4204 1847.2486,-627.1402 1873.6632,-586.6375"/>
<polygon fill="#de958e" stroke="#de958e" points="1876.6785,-588.4201 1879.1695,-578.1222 1870.8004,-584.6191 1876.6785,-588.4201"/>
</g>
<!-- flask&#45;&gt;hidebound.server.app -->
<g id="edge43" class="edge">
<title>flask&#45;&gt;hidebound.server.app</title>
<path fill="none" stroke="#de958e" d="M1344.095,-993.2842C1449.9902,-985.3298 1818.6534,-943.4403 2010,-739.0316 2108.3923,-633.9226 2130.6199,-451.0875 2135.5888,-381.251"/>
<polygon fill="#de958e" stroke="#de958e" points="2139.0963,-381.2466 2136.2471,-371.0421 2132.1108,-380.7961 2139.0963,-381.2466"/>
</g>
<!-- flask&#45;&gt;hidebound.server.server_tools -->
<g id="edge44" class="edge">
<title>flask&#45;&gt;hidebound.server.server_tools</title>
<path fill="none" stroke="#de958e" d="M1344.2116,-997.4125C1373.3541,-998.0694 1417.3745,-994.1149 1443,-968.0316 1502.3155,-907.6567 1424.1819,-845.5175 1479,-781.0316 1487.6749,-770.8268 1498.7674,-762.837 1510.7853,-756.5816"/>
<polygon fill="#de958e" stroke="#de958e" points="1512.6092,-759.5896 1520.1311,-752.1281 1509.598,-753.2703 1512.6092,-759.5896"/>
</g>
<!-- jinja2 -->
<g id="node27" class="node">
<title>jinja2</title>
<polygon fill="#343434" stroke="#343434" points="1348,-959.0316 1282,-959.0316 1282,-923.0316 1348,-923.0316 1348,-959.0316"/>
<text text-anchor="middle" x="1315" y="-937.3316" font-family="Courier,monospace" font-size="14.00" fill="#de958e">jinja2</text>
</g>
<!-- jinja2&#45;&gt;hidebound.server.server_tools -->
<g id="edge45" class="edge">
<title>jinja2&#45;&gt;hidebound.server.server_tools</title>
<path fill="none" stroke="#de958e" d="M1348.2791,-941.5175C1377.049,-940.11 1417.8594,-933.4489 1443,-909.0316 1485.3926,-867.8587 1438.8681,-824.4111 1479,-781.0316 1488.5082,-770.754 1500.4551,-762.7166 1513.2065,-756.433"/>
<polygon fill="#de958e" stroke="#de958e" points="1514.9536,-759.4835 1522.6102,-752.1604 1512.058,-753.1105 1514.9536,-759.4835"/>
</g>
<!-- flasgger -->
<g id="node28" class="node">
<title>flasgger</title>
<polygon fill="#343434" stroke="#343434" points="1648.5,-471.0316 1565.5,-471.0316 1565.5,-435.0316 1648.5,-435.0316 1648.5,-471.0316"/>
<text text-anchor="middle" x="1607" y="-449.3316" font-family="Courier,monospace" font-size="14.00" fill="#de958e">flasgger</text>
</g>
<!-- flasgger&#45;&gt;hidebound.server.api -->
<g id="edge46" class="edge">
<title>flasgger&#45;&gt;hidebound.server.api</title>
<path fill="none" stroke="#de958e" d="M1648.5683,-461.1664C1673.9271,-466.6814 1706.7834,-474.8215 1735,-485.0316 1774.8454,-499.4495 1818.1056,-520.8161 1848.8571,-537.0596"/>
<polygon fill="#de958e" stroke="#de958e" points="1847.5104,-540.3079 1857.9814,-541.9228 1850.8029,-534.1305 1847.5104,-540.3079"/>
</g>
<!-- flasgger&#45;&gt;hidebound.server.app -->
<g id="edge47" class="edge">
<title>flasgger&#45;&gt;hidebound.server.app</title>
<path fill="none" stroke="#de958e" d="M1648.7613,-447.824C1722.2517,-438.3205 1879.2969,-416.4937 2010,-388.0316 2028.5636,-383.9892 2048.4523,-378.8849 2066.8514,-373.8335"/>
<polygon fill="#de958e" stroke="#de958e" points="2067.9131,-377.1711 2076.611,-371.1215 2066.0389,-370.4267 2067.9131,-377.1711"/>
</g>
<!-- pandasql -->
<g id="node29" class="node">
<title>pandasql</title>
<polygon fill="#343434" stroke="#343434" points="1356.5,-645.0316 1273.5,-645.0316 1273.5,-609.0316 1356.5,-609.0316 1356.5,-645.0316"/>
<text text-anchor="middle" x="1315" y="-623.3316" font-family="Courier,monospace" font-size="14.00" fill="#de958e">pandasql</text>
</g>
<!-- pandasql&#45;&gt;hidebound.core.database -->
<g id="edge48" class="edge">
<title>pandasql&#45;&gt;hidebound.core.database</title>
<path fill="none" stroke="#de958e" d="M1356.5264,-620.7742C1392.3214,-615.3804 1445.7108,-607.3355 1494.0129,-600.0571"/>
<polygon fill="#de958e" stroke="#de958e" points="1494.5493,-603.5158 1503.9161,-598.5648 1493.5062,-596.594 1494.5493,-603.5158"/>
</g>
<!-- hidebound.exporters -->
<g id="node30" class="node">
<title>hidebound.exporters</title>
<polygon fill="#343434" stroke="#343434" points="476.5,-1253.0316 303.5,-1253.0316 303.5,-1217.0316 476.5,-1217.0316 476.5,-1253.0316"/>
<text text-anchor="middle" x="390" y="-1231.3316" font-family="Courier,monospace" font-size="14.00" fill="#a0d17b">hidebound.exporters</text>
</g>
<!-- hidebound.exporters&#45;&gt;hidebound.exporters.exporter_base -->
<g id="edge49" class="edge">
<title>hidebound.exporters&#45;&gt;hidebound.exporters.exporter_base</title>
<path fill="none" stroke="#a0d17b" d="M476.7918,-1249.5232C499.1491,-1253.2561 523.5912,-1257.3372 547.2501,-1261.2875"/>
<polygon fill="#a0d17b" stroke="#a0d17b" points="546.8934,-1264.7763 557.3333,-1262.9711 548.0463,-1257.8719 546.8934,-1264.7763"/>
</g>
<!-- hidebound.exporters&#45;&gt;hidebound.exporters.girder_exporter -->
<g id="edge50" class="edge">
<title>hidebound.exporters&#45;&gt;hidebound.exporters.girder_exporter</title>
<path fill="none" stroke="#a0d17b" d="M476.5831,-1240.5259C562.4385,-1243.7893 697.1181,-1242.9886 810,-1216.0316 864.2389,-1203.079 922.0581,-1174.5496 959.1428,-1154.1158"/>
<polygon fill="#a0d17b" stroke="#a0d17b" points="961.0844,-1157.0404 968.1096,-1149.1095 957.672,-1150.9284 961.0844,-1157.0404"/>
</g>
<!-- hidebound -->
<g id="node31" class="node">
<title>hidebound</title>
<polygon fill="#343434" stroke="#343434" points="91,-847.0316 0,-847.0316 0,-811.0316 91,-811.0316 91,-847.0316"/>
<text text-anchor="middle" x="45.5" y="-825.3316" font-family="Courier,monospace" font-size="14.00" fill="#a0d17b">hidebound</text>
</g>
<!-- hidebound&#45;&gt;hidebound.server -->
<g id="edge51" class="edge">
<title>hidebound&#45;&gt;hidebound.server</title>
<path fill="none" stroke="#a0d17b" d="M80.8431,-810.9068C84.5119,-808.2186 87.9917,-805.2548 91,-802.0316 228.517,-654.6901 181.8096,-563.7901 295,-397.0316 330.7154,-344.4136 326.4056,-290.0316 390,-290.0316 390,-290.0316 390,-290.0316 665.5,-290.0316 868.1285,-290.0316 1106.3156,-290.0316 1230.2999,-290.0316"/>
<polygon fill="#a0d17b" stroke="#a0d17b" points="1230.4824,-293.5317 1240.4824,-290.0316 1230.4823,-286.5317 1230.4824,-293.5317"/>
</g>
<!-- hidebound&#45;&gt;hidebound.exporters -->
<g id="edge52" class="edge">
<title>hidebound&#45;&gt;hidebound.exporters</title>
<path fill="none" stroke="#a0d17b" d="M47.1188,-847.357C51.877,-891.5991 69.3377,-1005.9133 127,-1078.0316 180.0349,-1144.3624 269.2552,-1189.035 328.8716,-1213.2571"/>
<polygon fill="#a0d17b" stroke="#a0d17b" points="327.5903,-1216.5141 338.1754,-1216.9692 330.1844,-1210.0125 327.5903,-1216.5141"/>
</g>
<!-- hidebound.core -->
<g id="node33" class="node">
<title>hidebound.core</title>
<polygon fill="#343434" stroke="#343434" points="259,-847.0316 127,-847.0316 127,-811.0316 259,-811.0316 259,-847.0316"/>
<text text-anchor="middle" x="193" y="-825.3316" font-family="Courier,monospace" font-size="14.00" fill="#a0d17b">hidebound.core</text>
</g>
<!-- hidebound&#45;&gt;hidebound.core -->
<g id="edge53" class="edge">
<title>hidebound&#45;&gt;hidebound.core</title>
<path fill="none" stroke="#a0d17b" d="M91.3614,-829.0316C99.4456,-829.0316 108.0541,-829.0316 116.7093,-829.0316"/>
<polygon fill="#a0d17b" stroke="#a0d17b" points="116.8627,-832.5317 126.8626,-829.0316 116.8626,-825.5317 116.8627,-832.5317"/>
</g>
<!-- girder_client -->
<g id="node32" class="node">
<title>girder_client</title>
<polygon fill="#343434" stroke="#343434" points="727.5,-1207.0316 603.5,-1207.0316 603.5,-1171.0316 727.5,-1171.0316 727.5,-1207.0316"/>
<text text-anchor="middle" x="665.5" y="-1185.3316" font-family="Courier,monospace" font-size="14.00" fill="#de958e">girder_client</text>
</g>
<!-- girder_client&#45;&gt;hidebound.exporters.girder_exporter -->
<g id="edge54" class="edge">
<title>girder_client&#45;&gt;hidebound.exporters.girder_exporter</title>
<path fill="none" stroke="#de958e" d="M727.7441,-1178.1903C771.8679,-1170.5051 832.3372,-1159.9729 884.9385,-1150.8111"/>
<polygon fill="#de958e" stroke="#de958e" points="885.7532,-1154.222 895.0043,-1149.0579 884.5521,-1147.3258 885.7532,-1154.222"/>
</g>
<!-- hidebound.core&#45;&gt;hidebound.core.config -->
<g id="edge55" class="edge">
<title>hidebound.core&#45;&gt;hidebound.core.config</title>
<path fill="none" stroke="#a0d17b" d="M259.4112,-830.2154C446.834,-833.5563 981.0505,-843.0789 1209.4002,-847.1493"/>
<polygon fill="#a0d17b" stroke="#a0d17b" points="1209.649,-850.6542 1219.7098,-847.333 1209.7738,-843.6553 1209.649,-850.6542"/>
</g>
<!-- hidebound.core&#45;&gt;hidebound.core.database -->
<g id="edge56" class="edge">
<title>hidebound.core&#45;&gt;hidebound.core.database</title>
<path fill="none" stroke="#a0d17b" d="M195.6024,-810.8442C205.5733,-743.6124 243.3877,-510.3677 295,-459.0316 368.7637,-385.6626 417.8636,-411.7058 521,-398.0316 927.8199,-344.094 1099.3474,-223.7225 1443,-448.0316 1471.3076,-466.5085 1455.0406,-491.185 1479,-515.0316 1498.5239,-534.4636 1524.7556,-549.7109 1548.3884,-560.7991"/>
<polygon fill="#a0d17b" stroke="#a0d17b" points="1547.0877,-564.0523 1557.6405,-564.9949 1549.9788,-557.6772 1547.0877,-564.0523"/>
</g>
<!-- hidebound.core&#45;&gt;hidebound.core.database_tools -->
<g id="edge57" class="edge">
<title>hidebound.core&#45;&gt;hidebound.core.database_tools</title>
<path fill="none" stroke="#a0d17b" d="M197.3373,-810.6582C210.6617,-755.917 252.6673,-595.8659 295,-566.0316 339.8567,-534.4185 668.2412,-537.8195 860.102,-542.6591"/>
<polygon fill="#a0d17b" stroke="#a0d17b" points="860.1805,-546.1622 870.2671,-542.9201 860.3603,-539.1645 860.1805,-546.1622"/>
</g>
<!-- hidebound.core&#45;&gt;hidebound.core.parser -->
<g id="edge58" class="edge">
<title>hidebound.core&#45;&gt;hidebound.core.parser</title>
<path fill="none" stroke="#a0d17b" d="M225.495,-847.1409C245.2508,-857.7595 271.1817,-871.0124 295,-881.0316 303.7511,-884.7128 313.0863,-888.2781 322.3593,-891.6099"/>
<polygon fill="#a0d17b" stroke="#a0d17b" points="321.3784,-894.975 331.9732,-894.9924 323.7017,-888.3718 321.3784,-894.975"/>
</g>
<!-- hidebound.core&#45;&gt;hidebound.core.specification_base -->
<g id="edge59" class="edge">
<title>hidebound.core&#45;&gt;hidebound.core.specification_base</title>
<path fill="none" stroke="#a0d17b" d="M259.1924,-839.4095C339.3378,-852.3681 466.0136,-874.2607 485,-886.0316 507.3634,-899.8961 497.4061,-921.3837 521,-933.0316 575.849,-960.1096 726.1378,-955.9688 843.6052,-947.6038"/>
<polygon fill="#a0d17b" stroke="#a0d17b" points="844.07,-951.0793 853.7894,-946.8623 843.5617,-944.0978 844.07,-951.0793"/>
</g>
<!-- hidebound.core&#45;&gt;hidebound.core.specifications -->
<g id="edge60" class="edge">
<title>hidebound.core&#45;&gt;hidebound.core.specifications</title>
<path fill="none" stroke="#a0d17b" d="M206.8694,-810.9785C224.5958,-789.55 257.5132,-754.9675 295,-741.0316 374.1519,-711.6064 400.6001,-738.289 485,-741.0316 728.6794,-748.9502 1011.965,-769.9126 1176.6178,-783.2689"/>
<polygon fill="#a0d17b" stroke="#a0d17b" points="1176.5514,-786.775 1186.8024,-784.0976 1177.1192,-779.798 1176.5514,-786.775"/>
</g>
<!-- hidebound.core&#45;&gt;hidebound.core.tools -->
<g id="edge61" class="edge">
<title>hidebound.core&#45;&gt;hidebound.core.tools</title>
<path fill="none" stroke="#a0d17b" d="M198.6326,-810.8197C210.4074,-776.0029 241.1016,-700.1651 295,-663.0316 317.0413,-647.8462 462.1459,-623.4923 564.0715,-607.8832"/>
<polygon fill="#a0d17b" stroke="#a0d17b" points="564.7458,-611.321 574.104,-606.3537 563.6907,-604.4009 564.7458,-611.321"/>
</g>
<!-- hidebound.core&#45;&gt;hidebound.core.traits -->
<g id="edge62" class="edge">
<title>hidebound.core&#45;&gt;hidebound.core.traits</title>
<path fill="none" stroke="#a0d17b" d="M200.3819,-847.2637C213.9289,-881.3997 242.8478,-957.5214 259,-1024.0316 284.2468,-1127.9909 231.542,-1175.9037 295,-1262.0316 301.8938,-1271.3882 311.2025,-1278.932 321.3066,-1284.987"/>
<polygon fill="#a0d17b" stroke="#a0d17b" points="319.8968,-1288.2052 330.3499,-1289.933 323.2558,-1282.0637 319.8968,-1288.2052"/>
</g>
<!-- hidebound.core&#45;&gt;hidebound.core.validators -->
<g id="edge63" class="edge">
<title>hidebound.core&#45;&gt;hidebound.core.validators</title>
<path fill="none" stroke="#a0d17b" d="M204.3299,-847.304C220.9466,-872.4471 254.4001,-917.1877 295,-940.0316 370.0521,-982.2605 404.1708,-948.3207 485,-978.0316 502.1795,-984.3464 504.1737,-990.8282 521,-998.0316 542.2514,-1007.1295 565.9629,-1015.289 587.9334,-1022.0805"/>
<polygon fill="#a0d17b" stroke="#a0d17b" points="586.9736,-1025.4468 597.5592,-1025.0044 589.0081,-1018.749 586.9736,-1025.4468"/>
</g>
<!-- numpy -->
<g id="node34" class="node">
<title>numpy</title>
<polygon fill="#343434" stroke="#343434" points="694.5,-443.0316 636.5,-443.0316 636.5,-407.0316 694.5,-407.0316 694.5,-443.0316"/>
<text text-anchor="middle" x="665.5" y="-421.3316" font-family="Courier,monospace" font-size="14.00" fill="#de958e">numpy</text>
</g>
<!-- numpy&#45;&gt;hidebound.core.database -->
<g id="edge64" class="edge">
<title>numpy&#45;&gt;hidebound.core.database</title>
<path fill="none" stroke="#de958e" d="M694.5411,-425.9416C827.9648,-430.3293 1378.4106,-450.7591 1443,-491.0316 1469.389,-507.4855 1454.013,-532.5178 1479,-551.0316 1483.8341,-554.6134 1489.0237,-557.797 1494.4449,-560.6266"/>
<polygon fill="#de958e" stroke="#de958e" points="1493.2315,-563.9252 1503.7652,-565.0619 1496.2394,-557.6044 1493.2315,-563.9252"/>
</g>
<!-- numpy&#45;&gt;hidebound.core.database_tools -->
<g id="edge65" class="edge">
<title>numpy&#45;&gt;hidebound.core.database_tools</title>
<path fill="none" stroke="#de958e" d="M694.7597,-435.7514C749.3277,-455.7433 867.5829,-499.068 939.38,-525.372"/>
<polygon fill="#de958e" stroke="#de958e" points="938.5974,-528.8128 949.1911,-528.9665 941.0055,-522.24 938.5974,-528.8128"/>
</g>
<!-- numpy&#45;&gt;hidebound.server.api -->
<g id="edge66" class="edge">
<title>numpy&#45;&gt;hidebound.server.api</title>
<path fill="none" stroke="#de958e" d="M694.6279,-421.999C820.448,-409.4754 1316.6227,-366.1747 1443,-448.0316 1471.3724,-466.4089 1450.9737,-496.1308 1479,-515.0316 1504.1956,-532.0234 1675.7388,-546.2064 1789.2399,-553.8745"/>
<polygon fill="#de958e" stroke="#de958e" points="1789.1412,-557.3756 1799.3525,-554.5509 1789.6084,-550.3912 1789.1412,-557.3756"/>
</g>
<!-- pandas -->
<g id="node35" class="node">
<title>pandas</title>
<polygon fill="#343434" stroke="#343434" points="423,-504.0316 357,-504.0316 357,-468.0316 423,-468.0316 423,-504.0316"/>
<text text-anchor="middle" x="390" y="-482.3316" font-family="Courier,monospace" font-size="14.00" fill="#de958e">pandas</text>
</g>
<!-- pandas&#45;&gt;hidebound.core.database -->
<g id="edge67" class="edge">
<title>pandas&#45;&gt;hidebound.core.database</title>
<path fill="none" stroke="#de958e" d="M423.4312,-485.805C554.4335,-485.3858 1045.1734,-488.2117 1443,-549.0316 1467.6314,-552.7973 1494.1489,-557.8516 1518.5299,-562.91"/>
<polygon fill="#de958e" stroke="#de958e" points="1517.9694,-566.3685 1528.4751,-564.9976 1519.4075,-559.5178 1517.9694,-566.3685"/>
</g>
<!-- pandas&#45;&gt;hidebound.core.database_tools -->
<g id="edge68" class="edge">
<title>pandas&#45;&gt;hidebound.core.database_tools</title>
<path fill="none" stroke="#de958e" d="M423.1477,-489.3546C504.4044,-497.5003 717.2683,-518.8391 860.0305,-533.1505"/>
<polygon fill="#de958e" stroke="#de958e" points="859.8862,-536.6535 870.1855,-534.1685 860.5845,-529.6884 859.8862,-536.6535"/>
</g>
<!-- pandas&#45;&gt;hidebound.core.tools -->
<g id="edge69" class="edge">
<title>pandas&#45;&gt;hidebound.core.tools</title>
<path fill="none" stroke="#de958e" d="M423.2317,-498.9383C469.3649,-516.8557 553.4399,-549.5092 609.3943,-571.241"/>
<polygon fill="#de958e" stroke="#de958e" points="608.2215,-574.5402 618.8103,-574.898 610.7558,-568.015 608.2215,-574.5402"/>
</g>
<!-- pandas&#45;&gt;hidebound.server.components -->
<g id="edge70" class="edge">
<title>pandas&#45;&gt;hidebound.server.components</title>
<path fill="none" stroke="#de958e" d="M409.4605,-467.9024C433.5472,-446.7439 476.8184,-412.7756 521,-398.0316 1033.5195,-226.9964 1198.0982,-394.5774 1735,-334.0316 1751.9568,-332.1194 1769.866,-329.5397 1787.2607,-326.7304"/>
<polygon fill="#de958e" stroke="#de958e" points="1788.1347,-330.1336 1797.4319,-325.0531 1786.9957,-323.2269 1788.1347,-330.1336"/>
</g>
<!-- schematics.exceptions -->
<g id="node36" class="node">
<title>schematics.exceptions</title>
<polygon fill="#343434" stroke="#343434" points="485,-786.0316 295,-786.0316 295,-750.0316 485,-750.0316 485,-786.0316"/>
<text text-anchor="middle" x="390" y="-764.3316" font-family="Courier,monospace" font-size="14.00" fill="#de958e">schematics.exceptions</text>
</g>
<!-- schematics.exceptions&#45;&gt;hidebound.core.config -->
<g id="edge71" class="edge">
<title>schematics.exceptions&#45;&gt;hidebound.core.config</title>
<path fill="none" stroke="#de958e" d="M485.0753,-776.3571C659.2762,-791.6115 1028.3708,-823.9322 1209.818,-839.8211"/>
<polygon fill="#de958e" stroke="#de958e" points="1209.638,-843.3186 1219.9053,-840.7044 1210.2487,-836.3453 1209.638,-843.3186"/>
</g>
<!-- schematics.exceptions&#45;&gt;hidebound.core.database_tools -->
<g id="edge72" class="edge">
<title>schematics.exceptions&#45;&gt;hidebound.core.database_tools</title>
<path fill="none" stroke="#de958e" d="M420.9492,-749.9714C446.9929,-735.3237 485.5553,-714.9024 521,-701.0316 645.2209,-652.4194 683.4354,-662.1668 810,-620.0316 856.4601,-604.5643 908.2729,-584.2714 945.8014,-569.0082"/>
<polygon fill="#de958e" stroke="#de958e" points="947.5722,-572.0656 955.506,-565.0438 944.925,-565.5854 947.5722,-572.0656"/>
</g>
<!-- schematics.exceptions&#45;&gt;hidebound.core.specification_base -->
<g id="edge73" class="edge">
<title>schematics.exceptions&#45;&gt;hidebound.core.specification_base</title>
<path fill="none" stroke="#de958e" d="M412.7061,-786.065C432.7493,-802.4988 462.2366,-827.9642 485,-853.0316 503.167,-873.0374 497.2975,-889.0522 521,-902.0316 574.8529,-931.5213 725.7147,-937.2912 843.603,-936.9015"/>
<polygon fill="#de958e" stroke="#de958e" points="843.8407,-940.4005 853.8236,-936.8521 843.8068,-933.4005 843.8407,-940.4005"/>
</g>
<!-- schematics.exceptions&#45;&gt;hidebound.core.tools -->
<g id="edge74" class="edge">
<title>schematics.exceptions&#45;&gt;hidebound.core.tools</title>
<path fill="none" stroke="#de958e" d="M409.7992,-749.795C434.5676,-727.5569 478.8617,-689.6498 521,-663.0316 550.0079,-644.7077 584.5261,-627.8222 612.5499,-615.2278"/>
<polygon fill="#de958e" stroke="#de958e" points="614.0687,-618.383 621.7873,-611.1253 611.2274,-611.9855 614.0687,-618.383"/>
</g>
<!-- schematics.exceptions&#45;&gt;hidebound.core.validators -->
<g id="edge75" class="edge">
<title>schematics.exceptions&#45;&gt;hidebound.core.validators</title>
<path fill="none" stroke="#de958e" d="M405.0634,-786.2271C424.0145,-809.2351 457.4175,-850.1772 485,-886.0316 501.4774,-907.4505 501.97,-915.8448 521,-935.0316 553.7201,-968.0213 597.045,-999.0453 627.6949,-1019.3028"/>
<polygon fill="#de958e" stroke="#de958e" points="626.093,-1022.4371 636.3785,-1024.9786 629.9229,-1016.5777 626.093,-1022.4371"/>
</g>
<!-- schematics.exceptions&#45;&gt;hidebound.server.api -->
<g id="edge76" class="edge">
<title>schematics.exceptions&#45;&gt;hidebound.server.api</title>
<path fill="none" stroke="#de958e" d="M485.2638,-759.0619C670.1862,-741.3527 1090.5894,-699.6393 1443,-654.0316 1573.1574,-637.1871 1613.9407,-660.7203 1735,-610.0316 1753.4481,-602.3072 1752.7124,-591.1287 1771,-583.0316 1777.0355,-580.3593 1783.3776,-577.9967 1789.8617,-575.908"/>
<polygon fill="#de958e" stroke="#de958e" points="1790.8677,-579.2604 1799.444,-573.0396 1788.8602,-572.5544 1790.8677,-579.2604"/>
</g>
<!-- humanfriendly -->
<g id="node37" class="node">
<title>humanfriendly</title>
<polygon fill="#343434" stroke="#343434" points="452,-611.0316 328,-611.0316 328,-575.0316 452,-575.0316 452,-611.0316"/>
<text text-anchor="middle" x="390" y="-589.3316" font-family="Courier,monospace" font-size="14.00" fill="#de958e">humanfriendly</text>
</g>
<!-- humanfriendly&#45;&gt;hidebound.core.tools -->
<g id="edge77" class="edge">
<title>humanfriendly&#45;&gt;hidebound.core.tools</title>
<path fill="none" stroke="#de958e" d="M452.1711,-593.0316C485.1007,-593.0316 526.3762,-593.0316 563.825,-593.0316"/>
<polygon fill="#de958e" stroke="#de958e" points="564.2759,-596.5317 574.2759,-593.0316 564.2758,-589.5317 564.2759,-596.5317"/>
</g>
<!-- pyparsing -->
<g id="node38" class="node">
<title>pyparsing</title>
<polygon fill="#343434" stroke="#343434" points="238.5,-1069.0316 147.5,-1069.0316 147.5,-1033.0316 238.5,-1033.0316 238.5,-1069.0316"/>
<text text-anchor="middle" x="193" y="-1047.3316" font-family="Courier,monospace" font-size="14.00" fill="#de958e">pyparsing</text>
</g>
<!-- pyparsing&#45;&gt;hidebound.core.parser -->
<g id="edge78" class="edge">
<title>pyparsing&#45;&gt;hidebound.core.parser</title>
<path fill="none" stroke="#de958e" d="M218.0456,-1032.8833C238.6295,-1018.022 268.595,-996.5107 295,-978.0316 314.6987,-964.2458 336.8646,-949.0612 354.8279,-936.8374"/>
<polygon fill="#de958e" stroke="#de958e" points="356.976,-939.6093 363.2794,-931.0936 353.0413,-933.8198 356.976,-939.6093"/>
</g>
<!-- pyparsing&#45;&gt;hidebound.core.specification_base -->
<g id="edge79" class="edge">
<title>pyparsing&#45;&gt;hidebound.core.specification_base</title>
<path fill="none" stroke="#de958e" d="M238.5036,-1056.9072C362.7932,-1072.2523 705.6948,-1109.6884 810,-1070.0316 830.0098,-1062.4239 829.1518,-1051.238 846,-1038.0316 884.04,-1008.2142 930.0045,-977.1999 961.4612,-956.6815"/>
<polygon fill="#de958e" stroke="#de958e" points="963.4493,-959.5637 969.9303,-951.1823 959.6372,-953.6928 963.4493,-959.5637"/>
</g>
<!-- pyparsing&#45;&gt;hidebound.core.validators -->
<g id="edge80" class="edge">
<title>pyparsing&#45;&gt;hidebound.core.validators</title>
<path fill="none" stroke="#de958e" d="M238.7346,-1050.2573C308.4827,-1049.0763 443.8303,-1046.7847 543.4752,-1045.0976"/>
<polygon fill="#de958e" stroke="#de958e" points="543.6719,-1048.5949 553.6112,-1044.926 543.5534,-1041.5959 543.6719,-1048.5949"/>
</g>
<!-- schematics -->
<g id="node39" class="node">
<title>schematics</title>
<polygon fill="#343434" stroke="#343434" points="715,-1153.0316 616,-1153.0316 616,-1117.0316 715,-1117.0316 715,-1153.0316"/>
<text text-anchor="middle" x="665.5" y="-1131.3316" font-family="Courier,monospace" font-size="14.00" fill="#de958e">schematics</text>
</g>
<!-- schematics&#45;&gt;hidebound.core.config -->
<g id="edge81" class="edge">
<title>schematics&#45;&gt;hidebound.core.config</title>
<path fill="none" stroke="#de958e" d="M715.1351,-1126.2614C837.275,-1104.5837 1143.1159,-1049.6771 1151,-1042.0316 1203.6371,-990.9872 1135.8051,-933.5224 1187,-881.0316 1193.766,-874.0944 1201.7912,-868.5761 1210.4748,-864.1972"/>
<polygon fill="#de958e" stroke="#de958e" points="1212.0506,-867.3263 1219.7371,-860.0346 1209.1812,-860.9414 1212.0506,-867.3263"/>
</g>
<!-- schematics&#45;&gt;hidebound.core.specification_base -->
<g id="edge82" class="edge">
<title>schematics&#45;&gt;hidebound.core.specification_base</title>
<path fill="none" stroke="#de958e" d="M715.109,-1131.0342C744.1908,-1127.034 780.8255,-1119.0329 810,-1103.0316 829.8393,-1092.1504 829.4925,-1082.5075 846,-1067.0316 887.895,-1027.7546 938.2384,-984.1912 969.3036,-957.7092"/>
<polygon fill="#de958e" stroke="#de958e" points="971.8011,-960.1797 977.1501,-951.0343 967.2654,-954.848 971.8011,-960.1797"/>
</g>
<!-- schematics&#45;&gt;hidebound.exporters.girder_exporter -->
<g id="edge83" class="edge">
<title>schematics&#45;&gt;hidebound.exporters.girder_exporter</title>
<path fill="none" stroke="#de958e" d="M715.3535,-1134.4328C747.672,-1134.0446 791.7738,-1133.5148 835.5484,-1132.989"/>
<polygon fill="#de958e" stroke="#de958e" points="835.809,-1136.4862 845.7662,-1132.8662 835.7248,-1129.4867 835.809,-1136.4862"/>
</g>
<!-- schematics.types -->
<g id="node40" class="node">
<title>schematics.types</title>
<polygon fill="#343434" stroke="#343434" points="740,-893.0316 591,-893.0316 591,-857.0316 740,-857.0316 740,-893.0316"/>
<text text-anchor="middle" x="665.5" y="-871.3316" font-family="Courier,monospace" font-size="14.00" fill="#de958e">schematics.types</text>
</g>
<!-- schematics.types&#45;&gt;hidebound.core.config -->
<g id="edge84" class="edge">
<title>schematics.types&#45;&gt;hidebound.core.config</title>
<path fill="none" stroke="#de958e" d="M740.4101,-874.5833C835.8267,-873.6897 1005.7779,-871.0175 1151,-863.0316 1169.9519,-861.9894 1190.1097,-860.5456 1209.5718,-858.9787"/>
<polygon fill="#de958e" stroke="#de958e" points="1209.9956,-862.4557 1219.6758,-858.1495 1209.423,-855.4792 1209.9956,-862.4557"/>
</g>
<!-- schematics.types&#45;&gt;hidebound.core.specification_base -->
<g id="edge85" class="edge">
<title>schematics.types&#45;&gt;hidebound.core.specification_base</title>
<path fill="none" stroke="#de958e" d="M740.2317,-888.0479C782.8392,-895.4691 837.1063,-904.921 884.8886,-913.2434"/>
<polygon fill="#de958e" stroke="#de958e" points="884.5276,-916.7332 894.9799,-915.0011 885.7288,-909.837 884.5276,-916.7332"/>
</g>
<!-- schematics.types&#45;&gt;hidebound.core.specifications -->
<g id="edge86" class="edge">
<title>schematics.types&#45;&gt;hidebound.core.specifications</title>
<path fill="none" stroke="#de958e" d="M740.0059,-865.8546C846.1985,-852.7747 1042.9727,-828.5377 1176.4181,-812.101"/>
<polygon fill="#de958e" stroke="#de958e" points="1177.219,-815.5289 1186.7161,-810.8326 1176.3632,-808.5814 1177.219,-815.5289"/>
</g>
<!-- schematics.types&#45;&gt;hidebound.exporters.girder_exporter -->
<g id="edge87" class="edge">
<title>schematics.types&#45;&gt;hidebound.exporters.girder_exporter</title>
<path fill="none" stroke="#de958e" d="M688.9159,-893.033C747.4078,-937.9998 899.9809,-1055.2932 966.6019,-1106.5093"/>
<polygon fill="#de958e" stroke="#de958e" points="964.603,-1109.3874 974.6642,-1112.7074 968.8694,-1103.8378 964.603,-1109.3874"/>
</g>
<!-- wrapt -->
<g id="node41" class="node">
<title>wrapt</title>
<polygon fill="#343434" stroke="#343434" points="419,-1023.0316 361,-1023.0316 361,-987.0316 419,-987.0316 419,-1023.0316"/>
<text text-anchor="middle" x="390" y="-1001.3316" font-family="Courier,monospace" font-size="14.00" fill="#de958e">wrapt</text>
</g>
<!-- wrapt&#45;&gt;hidebound.core.validators -->
<g id="edge88" class="edge">
<title>wrapt&#45;&gt;hidebound.core.validators</title>
<path fill="none" stroke="#de958e" d="M419.2225,-1009.0623C449.1543,-1013.1908 497.7039,-1019.8873 543.8181,-1026.2479"/>
<polygon fill="#de958e" stroke="#de958e" points="543.5369,-1029.7422 553.9214,-1027.6415 544.4935,-1022.8078 543.5369,-1029.7422"/>
</g>
<!-- skimage.io -->
<g id="node42" class="node">
<title>skimage.io</title>
<polygon fill="#343434" stroke="#343434" points="242.5,-1326.0316 143.5,-1326.0316 143.5,-1290.0316 242.5,-1290.0316 242.5,-1326.0316"/>
<text text-anchor="middle" x="193" y="-1304.3316" font-family="Courier,monospace" font-size="14.00" fill="#de958e">skimage.io</text>
</g>
<!-- skimage.io&#45;&gt;hidebound.core.traits -->
<g id="edge89" class="edge">
<title>skimage.io&#45;&gt;hidebound.core.traits</title>
<path fill="none" stroke="#de958e" d="M242.7114,-1308.0316C255.6771,-1308.0316 270.1516,-1308.0316 284.8245,-1308.0316"/>
<polygon fill="#de958e" stroke="#de958e" points="284.9983,-1311.5317 294.9983,-1308.0316 284.9983,-1304.5317 284.9983,-1311.5317"/>
</g>
</g>
</svg>
