<?xml version="1.0" encoding="UTF-8" standalone="no"?>
<!DOCTYPE svg PUBLIC "-//W3C//DTD SVG 1.1//EN"
 "http://www.w3.org/Graphics/SVG/1.1/DTD/svg11.dtd">
<!-- Generated by graphviz version 2.40.1 (20161225.0304)
 -->
<!-- Title: %3 Pages: 1 -->
<svg width="2467pt" height="1619pt"
 viewBox="0.00 0.00 2467.00 1619.27" xmlns="http://www.w3.org/2000/svg" xmlns:xlink="http://www.w3.org/1999/xlink">
<g id="graph0" class="graph" transform="scale(1 1) rotate(0) translate(4 1615.2691)">
<title>%3</title>
<polygon fill="#242424" stroke="transparent" points="-4,4 -4,-1615.2691 2463,-1615.2691 2463,4 -4,4"/>
<!-- cli -->
<g id="node1" class="node">
<title>cli</title>
<polygon fill="#343434" stroke="#343434" points="171.5,-648.4839 117.5,-648.4839 117.5,-612.4839 171.5,-612.4839 171.5,-648.4839"/>
<text text-anchor="middle" x="144.5" y="-626.7839" font-family="Courier,monospace" font-size="14.00" fill="#b6ecf3">cli</text>
</g>
<!-- hidebound.core.config -->
<g id="node2" class="node">
<title>hidebound.core.config</title>
<polygon fill="#343434" stroke="#343434" points="1641,-410.4839 1451,-410.4839 1451,-374.4839 1641,-374.4839 1641,-410.4839"/>
<text text-anchor="middle" x="1546" y="-388.7839" font-family="Courier,monospace" font-size="14.00" fill="#b6ecf3">hidebound.core.config</text>
</g>
<!-- hidebound.core.database -->
<g id="node3" class="node">
<title>hidebound.core.database</title>
<polygon fill="#343434" stroke="#343434" points="1941,-753.4839 1735,-753.4839 1735,-717.4839 1941,-717.4839 1941,-753.4839"/>
<text text-anchor="middle" x="1838" y="-731.7839" font-family="Courier,monospace" font-size="14.00" fill="#b6ecf3">hidebound.core.database</text>
</g>
<!-- hidebound.core.config&#45;&gt;hidebound.core.database -->
<g id="edge1" class="edge">
<title>hidebound.core.config&#45;&gt;hidebound.core.database</title>
<path fill="none" stroke="#b6ecf3" d="M1572.7139,-410.5095C1602.1556,-431.8273 1648.6868,-470.0777 1674,-514.4839 1709.2382,-576.3013 1666.1568,-614.4404 1710,-670.4839 1724.8481,-689.4638 1746.7391,-703.3788 1768.235,-713.3475"/>
<polygon fill="#b6ecf3" stroke="#b6ecf3" points="1766.8389,-716.557 1777.4016,-717.3814 1769.6584,-710.1499 1766.8389,-716.557"/>
</g>
<!-- hidebound.server.app -->
<g id="node16" class="node">
<title>hidebound.server.app</title>
<polygon fill="#343434" stroke="#343434" points="2459,-1006.4839 2277,-1006.4839 2277,-970.4839 2459,-970.4839 2459,-1006.4839"/>
<text text-anchor="middle" x="2368" y="-984.7839" font-family="Courier,monospace" font-size="14.00" fill="#b6ecf3">hidebound.server.app</text>
</g>
<!-- hidebound.core.config&#45;&gt;hidebound.server.app -->
<g id="edge2" class="edge">
<title>hidebound.core.config&#45;&gt;hidebound.server.app</title>
<path fill="none" stroke="#b6ecf3" d="M1622.7719,-410.5214C1719.7515,-437.6188 1883.8681,-498.7086 1966,-616.4839 2032.9812,-712.5335 1920.0567,-793.8341 2002,-877.4839 2077.2662,-954.3175 2139.5892,-879.6476 2241,-915.4839 2274.7421,-927.4076 2309.7625,-948.2799 2334.4606,-964.6601"/>
<polygon fill="#b6ecf3" stroke="#b6ecf3" points="2332.8236,-967.7776 2343.0714,-970.4669 2336.7373,-961.9739 2332.8236,-967.7776"/>
</g>
<!-- hidebound.server.api -->
<g id="node15" class="node">
<title>hidebound.server.api</title>
<polygon fill="#343434" stroke="#343434" points="2212.5,-960.4839 2030.5,-960.4839 2030.5,-924.4839 2212.5,-924.4839 2212.5,-960.4839"/>
<text text-anchor="middle" x="2121.5" y="-938.7839" font-family="Courier,monospace" font-size="14.00" fill="#b6ecf3">hidebound.server.api</text>
</g>
<!-- hidebound.core.database&#45;&gt;hidebound.server.api -->
<g id="edge3" class="edge">
<title>hidebound.core.database&#45;&gt;hidebound.server.api</title>
<path fill="none" stroke="#b6ecf3" d="M1849.8186,-753.7245C1873.9523,-789.4693 1932.5267,-868.8642 2002,-910.4839 2008.3334,-914.2781 2015.1205,-917.6303 2022.1254,-920.5908"/>
<polygon fill="#b6ecf3" stroke="#b6ecf3" points="2021.203,-923.9888 2031.7902,-924.3898 2023.7638,-917.4741 2021.203,-923.9888"/>
</g>
<!-- hidebound.core.database_tools -->
<g id="node4" class="node">
<title>hidebound.core.database_tools</title>
<polygon fill="#343434" stroke="#343434" points="1674,-776.4839 1418,-776.4839 1418,-740.4839 1674,-740.4839 1674,-776.4839"/>
<text text-anchor="middle" x="1546" y="-754.7839" font-family="Courier,monospace" font-size="14.00" fill="#b6ecf3">hidebound.core.database_tools</text>
</g>
<!-- hidebound.core.database_tools&#45;&gt;hidebound.core.database -->
<g id="edge4" class="edge">
<title>hidebound.core.database_tools&#45;&gt;hidebound.core.database</title>
<path fill="none" stroke="#b6ecf3" d="M1674.0755,-748.3958C1690.826,-747.0764 1707.8962,-745.7318 1724.386,-744.433"/>
<polygon fill="#b6ecf3" stroke="#b6ecf3" points="1724.8759,-747.9053 1734.5701,-743.6308 1724.3262,-740.9269 1724.8759,-747.9053"/>
</g>
<!-- hidebound.core.parser -->
<g id="node5" class="node">
<title>hidebound.core.parser</title>
<polygon fill="#343434" stroke="#343434" points="683,-656.4839 493,-656.4839 493,-620.4839 683,-620.4839 683,-656.4839"/>
<text text-anchor="middle" x="588" y="-634.7839" font-family="Courier,monospace" font-size="14.00" fill="#b6ecf3">hidebound.core.parser</text>
</g>
<!-- hidebound.core.parser&#45;&gt;hidebound.core.database_tools -->
<g id="edge5" class="edge">
<title>hidebound.core.parser&#45;&gt;hidebound.core.database_tools</title>
<path fill="none" stroke="#b6ecf3" d="M683.3591,-650.4287C853.6161,-671.7553 1210.4915,-716.4578 1407.6857,-741.1585"/>
<polygon fill="#b6ecf3" stroke="#b6ecf3" points="1407.4674,-744.6585 1417.8249,-742.4286 1408.3375,-737.7127 1407.4674,-744.6585"/>
</g>
<!-- hidebound.core.specification_base -->
<g id="node6" class="node">
<title>hidebound.core.specification_base</title>
<polygon fill="#343434" stroke="#343434" points="1357.5,-678.4839 1068.5,-678.4839 1068.5,-642.4839 1357.5,-642.4839 1357.5,-678.4839"/>
<text text-anchor="middle" x="1213" y="-656.7839" font-family="Courier,monospace" font-size="14.00" fill="#b6ecf3">hidebound.core.specification_base</text>
</g>
<!-- hidebound.core.parser&#45;&gt;hidebound.core.specification_base -->
<g id="edge6" class="edge">
<title>hidebound.core.parser&#45;&gt;hidebound.core.specification_base</title>
<path fill="none" stroke="#b6ecf3" d="M683.2824,-620.5853C695.2696,-618.8937 707.3942,-617.4517 719,-616.4839 847.0002,-605.8105 881.2141,-595.9094 1008,-616.4839 1024.6477,-619.1855 1027.6775,-624.2388 1044,-628.4839 1060.5487,-632.7879 1078.1497,-636.7675 1095.5042,-640.3525"/>
<polygon fill="#b6ecf3" stroke="#b6ecf3" points="1095.1878,-643.8595 1105.684,-642.4171 1096.5793,-636.9992 1095.1878,-643.8595"/>
</g>
<!-- hidebound.core.validators -->
<g id="node10" class="node">
<title>hidebound.core.validators</title>
<polygon fill="#343434" stroke="#343434" points="975,-526.4839 752,-526.4839 752,-490.4839 975,-490.4839 975,-526.4839"/>
<text text-anchor="middle" x="863.5" y="-504.7839" font-family="Courier,monospace" font-size="14.00" fill="#b6ecf3">hidebound.core.validators</text>
</g>
<!-- hidebound.core.parser&#45;&gt;hidebound.core.validators -->
<g id="edge7" class="edge">
<title>hidebound.core.parser&#45;&gt;hidebound.core.validators</title>
<path fill="none" stroke="#b6ecf3" d="M651.3466,-620.4724C662.1749,-616.4631 673.1113,-611.7963 683,-606.4839 700.8562,-596.8913 701.7842,-589.1835 719,-578.4839 748.2475,-560.3066 782.9165,-543.3721 810.9639,-530.7138"/>
<polygon fill="#b6ecf3" stroke="#b6ecf3" points="812.4993,-533.8614 820.2043,-526.5893 809.6461,-527.4692 812.4993,-533.8614"/>
</g>
<!-- hidebound.core.specification_base&#45;&gt;hidebound.core.config -->
<g id="edge8" class="edge">
<title>hidebound.core.specification_base&#45;&gt;hidebound.core.config</title>
<path fill="none" stroke="#b6ecf3" d="M1247.9323,-642.4361C1283.2666,-623.453 1338.7018,-591.6389 1382,-557.4839 1437.6312,-513.6002 1494.034,-452.3742 1524.0249,-418.1842"/>
<polygon fill="#b6ecf3" stroke="#b6ecf3" points="1526.7848,-420.3445 1530.7146,-410.5055 1521.5068,-415.7463 1526.7848,-420.3445"/>
</g>
<!-- hidebound.core.specification_base&#45;&gt;hidebound.core.database -->
<g id="edge9" class="edge">
<title>hidebound.core.specification_base&#45;&gt;hidebound.core.database</title>
<path fill="none" stroke="#b6ecf3" d="M1317.3756,-678.5255C1349.5827,-683.7585 1385.2031,-689.2082 1418,-693.4839 1521.5184,-706.9795 1639.8865,-718.4612 1724.5205,-725.9912"/>
<polygon fill="#b6ecf3" stroke="#b6ecf3" points="1724.4016,-729.4942 1734.6713,-726.8897 1725.0189,-722.5215 1724.4016,-729.4942"/>
</g>
<!-- hidebound.core.specification_base&#45;&gt;hidebound.core.database_tools -->
<g id="edge10" class="edge">
<title>hidebound.core.specification_base&#45;&gt;hidebound.core.database_tools</title>
<path fill="none" stroke="#b6ecf3" d="M1347.3095,-678.5058C1359.3487,-682.3132 1371.0953,-686.9175 1382,-692.4839 1401.6017,-702.4899 1398.6959,-715.9153 1418,-726.4839 1425.2928,-730.4766 1433.0907,-733.9803 1441.104,-737.0536"/>
<polygon fill="#b6ecf3" stroke="#b6ecf3" points="1439.998,-740.3752 1450.5924,-740.467 1442.3676,-733.7885 1439.998,-740.3752"/>
</g>
<!-- hidebound.core.specifications -->
<g id="node7" class="node">
<title>hidebound.core.specifications</title>
<polygon fill="#343434" stroke="#343434" points="1674,-684.4839 1418,-684.4839 1418,-648.4839 1674,-648.4839 1674,-684.4839"/>
<text text-anchor="middle" x="1546" y="-662.7839" font-family="Courier,monospace" font-size="14.00" fill="#b6ecf3">hidebound.core.specifications</text>
</g>
<!-- hidebound.core.specification_base&#45;&gt;hidebound.core.specifications -->
<g id="edge11" class="edge">
<title>hidebound.core.specification_base&#45;&gt;hidebound.core.specifications</title>
<path fill="none" stroke="#b6ecf3" d="M1357.6058,-663.0894C1374.2489,-663.3893 1391.189,-663.6945 1407.7452,-663.9928"/>
<polygon fill="#b6ecf3" stroke="#b6ecf3" points="1407.9366,-667.4968 1417.9981,-664.1776 1408.0628,-660.4979 1407.9366,-667.4968"/>
</g>
<!-- hidebound.core.tools -->
<g id="node8" class="node">
<title>hidebound.core.tools</title>
<polygon fill="#343434" stroke="#343434" points="954.5,-846.4839 772.5,-846.4839 772.5,-810.4839 954.5,-810.4839 954.5,-846.4839"/>
<text text-anchor="middle" x="863.5" y="-824.7839" font-family="Courier,monospace" font-size="14.00" fill="#b6ecf3">hidebound.core.tools</text>
</g>
<!-- hidebound.core.tools&#45;&gt;hidebound.core.database -->
<g id="edge12" class="edge">
<title>hidebound.core.tools&#45;&gt;hidebound.core.database</title>
<path fill="none" stroke="#b6ecf3" d="M954.7203,-836.3785C1137.3343,-851.0952 1541.6436,-877.9128 1674,-839.4839 1726.9042,-824.1235 1779.0864,-786.0023 1809.9153,-760.4334"/>
<polygon fill="#b6ecf3" stroke="#b6ecf3" points="1812.2675,-763.0282 1817.6538,-753.9047 1807.7536,-757.6779 1812.2675,-763.0282"/>
</g>
<!-- hidebound.core.tools&#45;&gt;hidebound.core.database_tools -->
<g id="edge13" class="edge">
<title>hidebound.core.tools&#45;&gt;hidebound.core.database_tools</title>
<path fill="none" stroke="#b6ecf3" d="M954.6605,-829.2961C1058.8269,-828.7405 1234.0158,-823.2738 1382,-796.4839 1398.4627,-793.5037 1401.7991,-789.659 1418,-785.4839 1426.9775,-783.1704 1436.3464,-780.9081 1445.7538,-778.7397"/>
<polygon fill="#b6ecf3" stroke="#b6ecf3" points="1446.5786,-782.1416 1455.5563,-776.5157 1445.0298,-775.3151 1446.5786,-782.1416"/>
</g>
<!-- hidebound.core.tools&#45;&gt;hidebound.core.specification_base -->
<g id="edge14" class="edge">
<title>hidebound.core.tools&#45;&gt;hidebound.core.specification_base</title>
<path fill="none" stroke="#b6ecf3" d="M901.2347,-810.3454C965.5953,-779.4081 1096.4062,-716.529 1166.3778,-682.8946"/>
<polygon fill="#b6ecf3" stroke="#b6ecf3" points="1167.9266,-686.0335 1175.4231,-678.5467 1164.8939,-679.7246 1167.9266,-686.0335"/>
</g>
<!-- hidebound.core.traits -->
<g id="node9" class="node">
<title>hidebound.core.traits</title>
<polygon fill="#343434" stroke="#343434" points="1308,-922.4839 1118,-922.4839 1118,-886.4839 1308,-886.4839 1308,-922.4839"/>
<text text-anchor="middle" x="1213" y="-900.7839" font-family="Courier,monospace" font-size="14.00" fill="#b6ecf3">hidebound.core.traits</text>
</g>
<!-- hidebound.core.tools&#45;&gt;hidebound.core.traits -->
<g id="edge15" class="edge">
<title>hidebound.core.tools&#45;&gt;hidebound.core.traits</title>
<path fill="none" stroke="#b6ecf3" d="M934.0258,-846.5761C967.2913,-854.8784 1007.589,-864.6044 1044,-872.4839 1064.5345,-876.9277 1086.5471,-881.346 1107.6742,-885.4171"/>
<polygon fill="#b6ecf3" stroke="#b6ecf3" points="1107.1562,-888.8814 1117.6359,-887.3239 1108.4723,-882.0062 1107.1562,-888.8814"/>
</g>
<!-- hidebound.exporters.local_disk_exporter -->
<g id="node13" class="node">
<title>hidebound.exporters.local_disk_exporter</title>
<polygon fill="#343434" stroke="#343434" points="1382,-456.4839 1044,-456.4839 1044,-420.4839 1382,-420.4839 1382,-456.4839"/>
<text text-anchor="middle" x="1213" y="-434.7839" font-family="Courier,monospace" font-size="14.00" fill="#b6ecf3">hidebound.exporters.local_disk_exporter</text>
</g>
<!-- hidebound.core.tools&#45;&gt;hidebound.exporters.local_disk_exporter -->
<g id="edge16" class="edge">
<title>hidebound.core.tools&#45;&gt;hidebound.exporters.local_disk_exporter</title>
<path fill="none" stroke="#b6ecf3" d="M868.7431,-810.1689C885.2441,-755.6753 941.214,-592.8193 1044,-503.4839 1066.7098,-483.746 1096.0624,-469.6811 1123.916,-459.8063"/>
<polygon fill="#b6ecf3" stroke="#b6ecf3" points="1125.3492,-463.016 1133.6923,-456.4858 1123.0979,-456.3879 1125.3492,-463.016"/>
</g>
<!-- hidebound.core.traits&#45;&gt;hidebound.core.specifications -->
<g id="edge17" class="edge">
<title>hidebound.core.traits&#45;&gt;hidebound.core.specifications</title>
<path fill="none" stroke="#b6ecf3" d="M1231.3271,-886.4558C1265.8313,-853.1209 1343.6687,-780.7603 1418,-731.4839 1442.299,-715.3754 1471.1162,-700.4169 1495.2495,-688.9207"/>
<polygon fill="#b6ecf3" stroke="#b6ecf3" points="1497.0291,-691.9517 1504.591,-684.531 1494.0519,-685.6163 1497.0291,-691.9517"/>
</g>
<!-- hidebound.core.validators&#45;&gt;hidebound.core.config -->
<g id="edge18" class="edge">
<title>hidebound.core.validators&#45;&gt;hidebound.core.config</title>
<path fill="none" stroke="#b6ecf3" d="M975.1177,-503.6082C1103.9814,-497.2092 1307.7333,-484.5079 1382,-465.4839 1425.8278,-454.2571 1472.686,-432.2885 1505.044,-415.3711"/>
<polygon fill="#b6ecf3" stroke="#b6ecf3" points="1506.9903,-418.3008 1514.1857,-410.5241 1503.7112,-412.1163 1506.9903,-418.3008"/>
</g>
<!-- hidebound.core.validators&#45;&gt;hidebound.core.specification_base -->
<g id="edge19" class="edge">
<title>hidebound.core.validators&#45;&gt;hidebound.core.specification_base</title>
<path fill="none" stroke="#b6ecf3" d="M975.2598,-521.5024C987.1358,-526.1915 998.372,-532.371 1008,-540.4839 1040.3145,-567.7135 1011.2699,-601.7552 1044,-628.4839 1048.7415,-632.356 1053.8073,-635.8131 1059.115,-638.897"/>
<polygon fill="#b6ecf3" stroke="#b6ecf3" points="1057.7864,-642.1538 1068.2616,-643.7417 1061.063,-635.968 1057.7864,-642.1538"/>
</g>
<!-- hidebound.core.validators&#45;&gt;hidebound.core.specifications -->
<g id="edge20" class="edge">
<title>hidebound.core.validators&#45;&gt;hidebound.core.specifications</title>
<path fill="none" stroke="#b6ecf3" d="M975.0093,-524.3632C986.661,-528.5602 997.9141,-533.842 1008,-540.4839 1030.8694,-555.5443 1020.4664,-576.484 1044,-590.4839 1174.145,-667.9063 1232.5633,-608.9762 1382,-633.4839 1404.8435,-637.2303 1429.3602,-641.8427 1452.2938,-646.4188"/>
<polygon fill="#b6ecf3" stroke="#b6ecf3" points="1451.8665,-649.9029 1462.3606,-648.445 1453.2478,-643.0405 1451.8665,-649.9029"/>
</g>
<!-- hidebound.exporters.girder_exporter -->
<g id="node12" class="node">
<title>hidebound.exporters.girder_exporter</title>
<polygon fill="#343434" stroke="#343434" points="1365.5,-326.4839 1060.5,-326.4839 1060.5,-290.4839 1365.5,-290.4839 1365.5,-326.4839"/>
<text text-anchor="middle" x="1213" y="-304.7839" font-family="Courier,monospace" font-size="14.00" fill="#b6ecf3">hidebound.exporters.girder_exporter</text>
</g>
<!-- hidebound.core.validators&#45;&gt;hidebound.exporters.girder_exporter -->
<g id="edge21" class="edge">
<title>hidebound.core.validators&#45;&gt;hidebound.exporters.girder_exporter</title>
<path fill="none" stroke="#b6ecf3" d="M913.2478,-490.4723C942.0383,-478.9999 978.3301,-462.6977 1008,-443.4839 1025.9686,-431.8477 1026.791,-424.2166 1044,-411.4839 1085.0763,-381.0921 1135.4586,-351.2526 1170.474,-331.5793"/>
<polygon fill="#b6ecf3" stroke="#b6ecf3" points="1172.449,-334.4853 1179.4754,-326.5556 1169.0375,-328.3728 1172.449,-334.4853"/>
</g>
<!-- hidebound.core.validators&#45;&gt;hidebound.exporters.local_disk_exporter -->
<g id="edge22" class="edge">
<title>hidebound.core.validators&#45;&gt;hidebound.exporters.local_disk_exporter</title>
<path fill="none" stroke="#b6ecf3" d="M947.4544,-490.4387C977.8421,-484.0051 1012.4406,-476.7932 1044,-470.4839 1064.0057,-466.4845 1085.37,-462.3406 1105.9428,-458.4142"/>
<polygon fill="#b6ecf3" stroke="#b6ecf3" points="1106.8001,-461.814 1115.9692,-456.5058 1105.4911,-454.9375 1106.8001,-461.814"/>
</g>
<!-- hidebound.exporters.s3_exporter -->
<g id="node14" class="node">
<title>hidebound.exporters.s3_exporter</title>
<polygon fill="#343434" stroke="#343434" points="1349,-272.4839 1077,-272.4839 1077,-236.4839 1349,-236.4839 1349,-272.4839"/>
<text text-anchor="middle" x="1213" y="-250.7839" font-family="Courier,monospace" font-size="14.00" fill="#b6ecf3">hidebound.exporters.s3_exporter</text>
</g>
<!-- hidebound.core.validators&#45;&gt;hidebound.exporters.s3_exporter -->
<g id="edge23" class="edge">
<title>hidebound.core.validators&#45;&gt;hidebound.exporters.s3_exporter</title>
<path fill="none" stroke="#b6ecf3" d="M936.7276,-490.4128C962.7011,-480.5552 989.9362,-465.6681 1008,-443.4839 1054.5709,-386.29 990.2993,-332.0431 1044,-281.4839 1051.0645,-274.8327 1059.0768,-269.439 1067.68,-265.0902"/>
<polygon fill="#b6ecf3" stroke="#b6ecf3" points="1069.1869,-268.2499 1076.8443,-260.9277 1066.2921,-261.8765 1069.1869,-268.2499"/>
</g>
<!-- hidebound.exporters.exporter_base -->
<g id="node11" class="node">
<title>hidebound.exporters.exporter_base</title>
<polygon fill="#343434" stroke="#343434" points="1008,-272.4839 719,-272.4839 719,-236.4839 1008,-236.4839 1008,-272.4839"/>
<text text-anchor="middle" x="863.5" y="-250.7839" font-family="Courier,monospace" font-size="14.00" fill="#b6ecf3">hidebound.exporters.exporter_base</text>
</g>
<!-- hidebound.exporters.exporter_base&#45;&gt;hidebound.exporters.girder_exporter -->
<g id="edge24" class="edge">
<title>hidebound.exporters.exporter_base&#45;&gt;hidebound.exporters.girder_exporter</title>
<path fill="none" stroke="#b6ecf3" d="M980.3643,-272.5402C1014.3196,-277.7865 1051.562,-283.5407 1086.102,-288.8774"/>
<polygon fill="#b6ecf3" stroke="#b6ecf3" points="1085.8286,-292.3766 1096.2458,-290.4446 1086.8975,-285.4587 1085.8286,-292.3766"/>
</g>
<!-- hidebound.exporters.exporter_base&#45;&gt;hidebound.exporters.local_disk_exporter -->
<g id="edge25" class="edge">
<title>hidebound.exporters.exporter_base&#45;&gt;hidebound.exporters.local_disk_exporter</title>
<path fill="none" stroke="#b6ecf3" d="M991.8359,-272.4988C997.4668,-275.1278 1002.8893,-278.108 1008,-281.4839 1032.0677,-297.3819 1023.1936,-315.5066 1044,-335.4839 1079.3792,-369.4534 1127.8479,-397.5644 1163.8091,-415.7887"/>
<polygon fill="#b6ecf3" stroke="#b6ecf3" points="1162.6206,-419.1069 1173.1319,-420.4346 1165.7428,-412.8417 1162.6206,-419.1069"/>
</g>
<!-- hidebound.exporters.exporter_base&#45;&gt;hidebound.exporters.s3_exporter -->
<g id="edge26" class="edge">
<title>hidebound.exporters.exporter_base&#45;&gt;hidebound.exporters.s3_exporter</title>
<path fill="none" stroke="#b6ecf3" d="M1008.1779,-254.4839C1027.5278,-254.4839 1047.385,-254.4839 1066.7614,-254.4839"/>
<polygon fill="#b6ecf3" stroke="#b6ecf3" points="1066.8451,-257.984 1076.845,-254.4839 1066.845,-250.984 1066.8451,-257.984"/>
</g>
<!-- hidebound.exporters.girder_exporter&#45;&gt;hidebound.core.config -->
<g id="edge27" class="edge">
<title>hidebound.exporters.girder_exporter&#45;&gt;hidebound.core.config</title>
<path fill="none" stroke="#b6ecf3" d="M1318.9044,-326.518C1339.9119,-330.6622 1361.7317,-335.3714 1382,-340.4839 1416.3658,-349.1525 1454.1077,-360.9568 1484.7129,-371.1277"/>
<polygon fill="#b6ecf3" stroke="#b6ecf3" points="1483.7916,-374.5102 1494.3855,-374.3665 1486.0143,-367.8724 1483.7916,-374.5102"/>
</g>
<!-- hidebound.exporters.girder_exporter&#45;&gt;hidebound.core.database -->
<g id="edge28" class="edge">
<title>hidebound.exporters.girder_exporter&#45;&gt;hidebound.core.database</title>
<path fill="none" stroke="#b6ecf3" d="M1365.6718,-307.7211C1482.9172,-310.6049 1631.7058,-322.9552 1674,-365.4839 1770.2504,-462.2681 1631.8947,-558.5426 1710,-670.4839 1723.3548,-689.6242 1744.0663,-703.459 1764.9655,-713.3087"/>
<polygon fill="#b6ecf3" stroke="#b6ecf3" points="1763.6729,-716.5642 1774.2328,-717.4239 1766.5138,-710.1666 1763.6729,-716.5642"/>
</g>
<!-- hidebound.exporters.local_disk_exporter&#45;&gt;hidebound.core.config -->
<g id="edge29" class="edge">
<title>hidebound.exporters.local_disk_exporter&#45;&gt;hidebound.core.config</title>
<path fill="none" stroke="#b6ecf3" d="M1343.6547,-420.4355C1375.9625,-415.9726 1410.1607,-411.2485 1441.0652,-406.9794"/>
<polygon fill="#b6ecf3" stroke="#b6ecf3" points="1441.5499,-410.4458 1450.9768,-405.6102 1440.5919,-403.5116 1441.5499,-410.4458"/>
</g>
<!-- hidebound.exporters.local_disk_exporter&#45;&gt;hidebound.core.database -->
<g id="edge30" class="edge">
<title>hidebound.exporters.local_disk_exporter&#45;&gt;hidebound.core.database</title>
<path fill="none" stroke="#b6ecf3" d="M1382.1531,-435.9273C1479.1898,-443.439 1596.7088,-469.1318 1674,-542.4839 1716.8653,-583.1646 1672.4953,-624.814 1710,-670.4839 1725.501,-689.3596 1747.8919,-703.3091 1769.6259,-713.3378"/>
<polygon fill="#b6ecf3" stroke="#b6ecf3" points="1768.3148,-716.5846 1778.8783,-717.3987 1771.1281,-710.1748 1768.3148,-716.5846"/>
</g>
<!-- hidebound.exporters.s3_exporter&#45;&gt;hidebound.core.config -->
<g id="edge31" class="edge">
<title>hidebound.exporters.s3_exporter&#45;&gt;hidebound.core.config</title>
<path fill="none" stroke="#b6ecf3" d="M1349.0941,-270.84C1360.3952,-273.8151 1371.501,-277.3304 1382,-281.4839 1434.2383,-302.1498 1486.6046,-341.6555 1517.6538,-367.5319"/>
<polygon fill="#b6ecf3" stroke="#b6ecf3" points="1515.5539,-370.3397 1525.4517,-374.1193 1520.0712,-364.9923 1515.5539,-370.3397"/>
</g>
<!-- hidebound.exporters.s3_exporter&#45;&gt;hidebound.core.database -->
<g id="edge32" class="edge">
<title>hidebound.exporters.s3_exporter&#45;&gt;hidebound.core.database</title>
<path fill="none" stroke="#b6ecf3" d="M1293.8572,-236.4377C1397.473,-218.5771 1575.4454,-206.5655 1674,-306.4839 1731.0798,-364.3536 1664.1207,-603.3862 1710,-670.4839 1723.112,-689.66 1743.644,-703.4889 1764.4547,-713.3224"/>
<polygon fill="#b6ecf3" stroke="#b6ecf3" points="1763.1294,-716.5635 1773.6887,-717.4298 1765.9744,-710.1677 1763.1294,-716.5635"/>
</g>
<!-- hidebound.server.api&#45;&gt;hidebound.server.app -->
<g id="edge33" class="edge">
<title>hidebound.server.api&#45;&gt;hidebound.server.app</title>
<path fill="none" stroke="#b6ecf3" d="M2212.5872,-959.4819C2230.2918,-962.7858 2248.9485,-966.2674 2266.9516,-969.627"/>
<polygon fill="#b6ecf3" stroke="#b6ecf3" points="2266.4035,-973.0851 2276.8759,-971.479 2267.6877,-966.2039 2266.4035,-973.0851"/>
</g>
<!-- hidebound.server.components -->
<g id="node17" class="node">
<title>hidebound.server.components</title>
<polygon fill="#343434" stroke="#343434" points="2241,-1308.4839 2002,-1308.4839 2002,-1272.4839 2241,-1272.4839 2241,-1308.4839"/>
<text text-anchor="middle" x="2121.5" y="-1286.7839" font-family="Courier,monospace" font-size="14.00" fill="#b6ecf3">hidebound.server.components</text>
</g>
<!-- hidebound.server.components&#45;&gt;hidebound.server.app -->
<g id="edge34" class="edge">
<title>hidebound.server.components&#45;&gt;hidebound.server.app</title>
<path fill="none" stroke="#b6ecf3" d="M2145.1554,-1272.1655C2170.527,-1251.8526 2211.1841,-1217.3297 2241,-1182.4839 2287.8066,-1127.7812 2331.1971,-1054.8276 2353.1003,-1015.8215"/>
<polygon fill="#b6ecf3" stroke="#b6ecf3" points="2356.39,-1017.1078 2358.195,-1006.6678 2350.2735,-1013.7035 2356.39,-1017.1078"/>
</g>
<!-- hidebound.server.server_tools -->
<g id="node18" class="node">
<title>hidebound.server.server_tools</title>
<polygon fill="#343434" stroke="#343434" points="1966,-983.4839 1710,-983.4839 1710,-947.4839 1966,-947.4839 1966,-983.4839"/>
<text text-anchor="middle" x="1838" y="-961.7839" font-family="Courier,monospace" font-size="14.00" fill="#b6ecf3">hidebound.server.server_tools</text>
</g>
<!-- hidebound.server.server_tools&#45;&gt;hidebound.server.api -->
<g id="edge35" class="edge">
<title>hidebound.server.server_tools&#45;&gt;hidebound.server.api</title>
<path fill="none" stroke="#b6ecf3" d="M1966.0646,-955.0942C1984.2188,-953.6214 2002.6753,-952.124 2020.2278,-950.7"/>
<polygon fill="#b6ecf3" stroke="#b6ecf3" points="2020.7648,-954.168 2030.449,-949.8708 2020.1987,-947.191 2020.7648,-954.168"/>
</g>
<!-- hidebound.server.server_tools&#45;&gt;hidebound.server.app -->
<g id="edge36" class="edge">
<title>hidebound.server.server_tools&#45;&gt;hidebound.server.app</title>
<path fill="none" stroke="#b6ecf3" d="M1966.2982,-971.0516C2058.5896,-975.0567 2181.3436,-980.3837 2266.7615,-984.0906"/>
<polygon fill="#b6ecf3" stroke="#b6ecf3" points="2266.8463,-987.5974 2276.9886,-984.5344 2267.1498,-980.604 2266.8463,-987.5974"/>
</g>
<!-- dash -->
<g id="node19" class="node">
<title>dash</title>
<polygon fill="#343434" stroke="#343434" points="1865,-1535.4839 1811,-1535.4839 1811,-1499.4839 1865,-1499.4839 1865,-1535.4839"/>
<text text-anchor="middle" x="1838" y="-1513.7839" font-family="Courier,monospace" font-size="14.00" fill="#de958e">dash</text>
</g>
<!-- dash&#45;&gt;hidebound.server.app -->
<g id="edge37" class="edge">
<title>dash&#45;&gt;hidebound.server.app</title>
<path fill="none" stroke="#de958e" d="M1865.0951,-1517.3577C1937.2934,-1515.4932 2135.947,-1500.1293 2241,-1390.4839 2294.3604,-1334.7909 2345.9398,-1098.3239 2362.503,-1016.4898"/>
<polygon fill="#de958e" stroke="#de958e" points="2365.9419,-1017.1413 2364.4764,-1006.6483 2359.0785,-1015.765 2365.9419,-1017.1413"/>
</g>
<!-- dash&#45;&gt;hidebound.server.components -->
<g id="edge38" class="edge">
<title>dash&#45;&gt;hidebound.server.components</title>
<path fill="none" stroke="#de958e" d="M1865.2463,-1517.0847C1892.6291,-1515.5179 1935.0951,-1509.8127 1966,-1490.4839 2035.1623,-1447.2278 2085.7306,-1361.6692 2108.3442,-1317.81"/>
<polygon fill="#de958e" stroke="#de958e" points="2111.6064,-1319.1146 2112.9913,-1308.6106 2105.3583,-1315.9583 2111.6064,-1319.1146"/>
</g>
<!-- dash_core_components -->
<g id="node20" class="node">
<title>dash_core_components</title>
<polygon fill="#343434" stroke="#343434" points="1929,-1481.4839 1747,-1481.4839 1747,-1445.4839 1929,-1445.4839 1929,-1481.4839"/>
<text text-anchor="middle" x="1838" y="-1459.7839" font-family="Courier,monospace" font-size="14.00" fill="#de958e">dash_core_components</text>
</g>
<!-- dash_core_components&#45;&gt;hidebound.server.app -->
<g id="edge39" class="edge">
<title>dash_core_components&#45;&gt;hidebound.server.app</title>
<path fill="none" stroke="#de958e" d="M1929.0102,-1453.7813C2019.9981,-1439.3514 2157.9939,-1403.8787 2241,-1317.4839 2325.434,-1229.603 2355.3464,-1079.4828 2364.4767,-1017.0389"/>
<polygon fill="#de958e" stroke="#de958e" points="2367.9936,-1017.1586 2365.9038,-1006.7719 2361.0603,-1016.1948 2367.9936,-1017.1586"/>
</g>
<!-- dash_core_components&#45;&gt;hidebound.server.components -->
<g id="edge40" class="edge">
<title>dash_core_components&#45;&gt;hidebound.server.components</title>
<path fill="none" stroke="#de958e" d="M1929.1245,-1453.0172C1942.1385,-1449.0825 1954.8673,-1443.7353 1966,-1436.4839 1988.9448,-1421.5386 1983.1547,-1406.3506 2002,-1386.4839 2027.9982,-1359.0767 2061.9075,-1332.5467 2086.9605,-1314.3481"/>
<polygon fill="#de958e" stroke="#de958e" points="2089.013,-1317.1832 2095.093,-1308.5066 2084.9292,-1311.4979 2089.013,-1317.1832"/>
</g>
<!-- dash_cytoscape -->
<g id="node21" class="node">
<title>dash_cytoscape</title>
<polygon fill="#343434" stroke="#343434" points="1904,-1373.4839 1772,-1373.4839 1772,-1337.4839 1904,-1337.4839 1904,-1373.4839"/>
<text text-anchor="middle" x="1838" y="-1351.7839" font-family="Courier,monospace" font-size="14.00" fill="#de958e">dash_cytoscape</text>
</g>
<!-- dash_cytoscape&#45;&gt;hidebound.server.components -->
<g id="edge41" class="edge">
<title>dash_cytoscape&#45;&gt;hidebound.server.components</title>
<path fill="none" stroke="#de958e" d="M1904.1104,-1340.3263C1942.5089,-1331.5224 1991.3803,-1320.3174 2033.0559,-1310.7621"/>
<polygon fill="#de958e" stroke="#de958e" points="2033.9664,-1314.1443 2042.9313,-1308.4979 2032.402,-1307.3213 2033.9664,-1314.1443"/>
</g>
<!-- hidebound.server -->
<g id="node22" class="node">
<title>hidebound.server</title>
<polygon fill="#343434" stroke="#343434" points="1620.5,-1335.4839 1471.5,-1335.4839 1471.5,-1299.4839 1620.5,-1299.4839 1620.5,-1335.4839"/>
<text text-anchor="middle" x="1546" y="-1313.7839" font-family="Courier,monospace" font-size="14.00" fill="#a0d17b">hidebound.server</text>
</g>
<!-- hidebound.server&#45;&gt;hidebound.server.api -->
<g id="edge42" class="edge">
<title>hidebound.server&#45;&gt;hidebound.server.api</title>
<path fill="none" stroke="#a0d17b" d="M1606.1128,-1299.3953C1630.4416,-1289.2424 1656.7915,-1274.1453 1674,-1252.4839 1715.5719,-1200.1547 1664.1221,-1155.0821 1710,-1106.4839 1791.7386,-1019.8989 1856.3173,-1073.8292 1966,-1027.4839 2007.7866,-1009.8274 2053.0223,-984.3129 2083.8721,-965.8492"/>
<polygon fill="#a0d17b" stroke="#a0d17b" points="2085.8156,-968.7644 2092.5702,-960.6019 2082.1997,-962.7706 2085.8156,-968.7644"/>
</g>
<!-- hidebound.server&#45;&gt;hidebound.server.app -->
<g id="edge43" class="edge">
<title>hidebound.server&#45;&gt;hidebound.server.app</title>
<path fill="none" stroke="#a0d17b" d="M1552.3668,-1335.5203C1569.4756,-1380.844 1621.2551,-1499.1167 1710,-1544.4839 1922.8094,-1653.2742 2075.102,-1631.5334 2241,-1459.4839 2303.986,-1394.1625 2350.5115,-1108.1773 2364.0005,-1016.7183"/>
<polygon fill="#a0d17b" stroke="#a0d17b" points="2367.5025,-1016.9571 2365.4806,-1006.557 2360.5756,-1015.9481 2367.5025,-1016.9571"/>
</g>
<!-- hidebound.server&#45;&gt;hidebound.server.components -->
<g id="edge44" class="edge">
<title>hidebound.server&#45;&gt;hidebound.server.components</title>
<path fill="none" stroke="#a0d17b" d="M1620.6466,-1313.9818C1714.5275,-1309.5773 1877.2603,-1301.9426 1991.6992,-1296.5736"/>
<polygon fill="#a0d17b" stroke="#a0d17b" points="1992.1008,-1300.0587 2001.9257,-1296.0938 1991.7727,-1293.0664 1992.1008,-1300.0587"/>
</g>
<!-- hidebound.server&#45;&gt;hidebound.server.server_tools -->
<g id="edge45" class="edge">
<title>hidebound.server&#45;&gt;hidebound.server.server_tools</title>
<path fill="none" stroke="#a0d17b" d="M1607.228,-1299.4749C1631.45,-1289.3851 1657.4151,-1274.3142 1674,-1252.4839 1723.0902,-1187.8679 1668.6826,-1143.3263 1710,-1073.4839 1731.1305,-1037.7652 1768.4893,-1008.3031 1797.4113,-989.2245"/>
<polygon fill="#a0d17b" stroke="#a0d17b" points="1799.5728,-991.9957 1806.0889,-983.6415 1795.7853,-986.1088 1799.5728,-991.9957"/>
</g>
<!-- dash_html_components -->
<g id="node23" class="node">
<title>dash_html_components</title>
<polygon fill="#343434" stroke="#343434" points="1929,-1205.4839 1747,-1205.4839 1747,-1169.4839 1929,-1169.4839 1929,-1205.4839"/>
<text text-anchor="middle" x="1838" y="-1183.7839" font-family="Courier,monospace" font-size="14.00" fill="#de958e">dash_html_components</text>
</g>
<!-- dash_html_components&#45;&gt;hidebound.server.app -->
<g id="edge46" class="edge">
<title>dash_html_components&#45;&gt;hidebound.server.app</title>
<path fill="none" stroke="#de958e" d="M1929.403,-1182.5238C2014.2057,-1174.7969 2141.8885,-1155.0336 2241,-1104.4839 2284.3937,-1082.3519 2324.052,-1041.3254 2347.1161,-1014.4702"/>
<polygon fill="#de958e" stroke="#de958e" points="2349.9581,-1016.5292 2353.7269,-1006.6274 2344.6058,-1012.0177 2349.9581,-1016.5292"/>
</g>
<!-- dash_html_components&#45;&gt;hidebound.server.components -->
<g id="edge47" class="edge">
<title>dash_html_components&#45;&gt;hidebound.server.components</title>
<path fill="none" stroke="#de958e" d="M1919.5768,-1205.4954C1935.1412,-1209.6004 1951.1901,-1214.3009 1966,-1219.4839 2004.7129,-1233.0324 2046.9466,-1252.6449 2077.617,-1267.8255"/>
<polygon fill="#de958e" stroke="#de958e" points="2076.237,-1271.0485 2086.7475,-1272.3828 2079.3632,-1264.7853 2076.237,-1271.0485"/>
</g>
<!-- dash_table -->
<g id="node24" class="node">
<title>dash_table</title>
<polygon fill="#343434" stroke="#343434" points="1887.5,-1151.4839 1788.5,-1151.4839 1788.5,-1115.4839 1887.5,-1115.4839 1887.5,-1151.4839"/>
<text text-anchor="middle" x="1838" y="-1129.7839" font-family="Courier,monospace" font-size="14.00" fill="#de958e">dash_table</text>
</g>
<!-- dash_table&#45;&gt;hidebound.server.app -->
<g id="edge48" class="edge">
<title>dash_table&#45;&gt;hidebound.server.app</title>
<path fill="none" stroke="#de958e" d="M1887.5524,-1130.6287C1965.0952,-1124.9013 2118.8799,-1108.437 2241,-1063.4839 2275.1779,-1050.9029 2310.5803,-1029.1507 2335.2965,-1012.3017"/>
<polygon fill="#de958e" stroke="#de958e" points="2337.3453,-1015.1403 2343.5737,-1006.5695 2333.36,-1009.3855 2337.3453,-1015.1403"/>
</g>
<!-- dash_table&#45;&gt;hidebound.server.components -->
<g id="edge49" class="edge">
<title>dash_table&#45;&gt;hidebound.server.components</title>
<path fill="none" stroke="#de958e" d="M1887.5432,-1138.2142C1912.0745,-1141.957 1941.5868,-1148.6276 1966,-1160.4839 2019.4633,-1186.4485 2070.0702,-1234.7427 2098.3161,-1264.5978"/>
<polygon fill="#de958e" stroke="#de958e" points="2095.9597,-1267.203 2105.3389,-1272.1307 2101.0798,-1262.4296 2095.9597,-1267.203"/>
</g>
<!-- dash.dependencies -->
<g id="node25" class="node">
<title>dash.dependencies</title>
<polygon fill="#343434" stroke="#343434" points="2200,-868.4839 2043,-868.4839 2043,-832.4839 2200,-832.4839 2200,-868.4839"/>
<text text-anchor="middle" x="2121.5" y="-846.7839" font-family="Courier,monospace" font-size="14.00" fill="#de958e">dash.dependencies</text>
</g>
<!-- dash.dependencies&#45;&gt;hidebound.server.app -->
<g id="edge50" class="edge">
<title>dash.dependencies&#45;&gt;hidebound.server.app</title>
<path fill="none" stroke="#de958e" d="M2200.1579,-866.3157C2214.1671,-870.5871 2228.3221,-875.9066 2241,-882.4839 2281.2557,-903.3688 2320.1709,-938.8202 2344.0826,-962.9214"/>
<polygon fill="#de958e" stroke="#de958e" points="2341.8111,-965.605 2351.3016,-970.3148 2346.8196,-960.7146 2341.8111,-965.605"/>
</g>
<!-- flask -->
<g id="node26" class="node">
<title>flask</title>
<polygon fill="#343434" stroke="#343434" points="1575,-1243.4839 1517,-1243.4839 1517,-1207.4839 1575,-1207.4839 1575,-1243.4839"/>
<text text-anchor="middle" x="1546" y="-1221.7839" font-family="Courier,monospace" font-size="14.00" fill="#de958e">flask</text>
</g>
<!-- flask&#45;&gt;hidebound.server.api -->
<g id="edge51" class="edge">
<title>flask&#45;&gt;hidebound.server.api</title>
<path fill="none" stroke="#de958e" d="M1575.1385,-1226.42C1604.2226,-1225.6966 1648.1973,-1219.833 1674,-1193.4839 1724.3908,-1142.0259 1657.6272,-1084.9233 1710,-1035.4839 1793.8958,-956.2872 1853.9012,-1019.769 1966,-992.4839 1998.1815,-984.6509 2033.3659,-973.5577 2062.1145,-963.8096"/>
<polygon fill="#de958e" stroke="#de958e" points="2063.2758,-967.1115 2071.6037,-960.5619 2061.0091,-960.4886 2063.2758,-967.1115"/>
</g>
<!-- flask&#45;&gt;hidebound.server.app -->
<g id="edge52" class="edge">
<title>flask&#45;&gt;hidebound.server.app</title>
<path fill="none" stroke="#de958e" d="M1575.0584,-1225.4431C1603.4544,-1223.896 1646.334,-1217.3464 1674,-1193.4839 1705.6877,-1166.1526 1677.4076,-1132.7298 1710,-1106.4839 1794.1679,-1038.7054 2104.0788,-1007.0944 2266.7618,-994.8979"/>
<polygon fill="#de958e" stroke="#de958e" points="2267.0683,-998.3849 2276.7831,-994.1572 2266.5523,-991.4039 2267.0683,-998.3849"/>
</g>
<!-- flask&#45;&gt;hidebound.server.components -->
<g id="edge53" class="edge">
<title>flask&#45;&gt;hidebound.server.components</title>
<path fill="none" stroke="#de958e" d="M1575.1695,-1226.3704C1643.6892,-1228.7434 1820.1423,-1236.5455 1966,-1257.4839 1988.9634,-1260.7804 2013.6124,-1265.4701 2036.3641,-1270.2827"/>
<polygon fill="#de958e" stroke="#de958e" points="2035.8163,-1273.7448 2046.3284,-1272.4231 2037.2866,-1266.9009 2035.8163,-1273.7448"/>
</g>
<!-- flask&#45;&gt;hidebound.server.server_tools -->
<g id="edge54" class="edge">
<title>flask&#45;&gt;hidebound.server.server_tools</title>
<path fill="none" stroke="#de958e" d="M1575.0992,-1226.6483C1604.367,-1226.1333 1648.683,-1220.4573 1674,-1193.4839 1734.6131,-1128.9053 1649.3869,-1062.0625 1710,-997.4839 1712.7862,-994.5154 1715.8025,-991.8049 1719.0035,-989.3308"/>
<polygon fill="#de958e" stroke="#de958e" points="1721.0302,-992.1851 1727.315,-983.6556 1717.0829,-986.4042 1721.0302,-992.1851"/>
</g>
<!-- dash.exceptions -->
<g id="node27" class="node">
<title>dash.exceptions</title>
<polygon fill="#343434" stroke="#343434" points="2191.5,-814.4839 2051.5,-814.4839 2051.5,-778.4839 2191.5,-778.4839 2191.5,-814.4839"/>
<text text-anchor="middle" x="2121.5" y="-792.7839" font-family="Courier,monospace" font-size="14.00" fill="#de958e">dash.exceptions</text>
</g>
<!-- dash.exceptions&#45;&gt;hidebound.server.app -->
<g id="edge55" class="edge">
<title>dash.exceptions&#45;&gt;hidebound.server.app</title>
<path fill="none" stroke="#de958e" d="M2191.7026,-803.9344C2208.7597,-807.9495 2226.3024,-814.0941 2241,-823.4839 2294.97,-857.9636 2335.0655,-923.7459 2354.6416,-960.9901"/>
<polygon fill="#de958e" stroke="#de958e" points="2351.7133,-962.9498 2359.3933,-970.2483 2357.9409,-959.7534 2351.7133,-962.9498"/>
</g>
<!-- rolling_pin.blob_etl -->
<g id="node28" class="node">
<title>rolling_pin.blob_etl</title>
<polygon fill="#343434" stroke="#343434" points="1929,-1427.4839 1747,-1427.4839 1747,-1391.4839 1929,-1391.4839 1929,-1427.4839"/>
<text text-anchor="middle" x="1838" y="-1405.7839" font-family="Courier,monospace" font-size="14.00" fill="#de958e">rolling_pin.blob_etl</text>
</g>
<!-- rolling_pin.blob_etl&#45;&gt;hidebound.server.components -->
<g id="edge56" class="edge">
<title>rolling_pin.blob_etl&#45;&gt;hidebound.server.components</title>
<path fill="none" stroke="#de958e" d="M1929.285,-1394.064C1941.8118,-1390.8429 1954.359,-1387.0134 1966,-1382.4839 2010.8316,-1365.0402 2057.7551,-1335.4793 2088.1748,-1314.5794"/>
<polygon fill="#de958e" stroke="#de958e" points="2090.4707,-1317.2459 2096.6829,-1308.6634 2086.4745,-1311.4988 2090.4707,-1317.2459"/>
</g>
<!-- jinja2 -->
<g id="node29" class="node">
<title>jinja2</title>
<polygon fill="#343434" stroke="#343434" points="1579,-1151.4839 1513,-1151.4839 1513,-1115.4839 1579,-1115.4839 1579,-1151.4839"/>
<text text-anchor="middle" x="1546" y="-1129.7839" font-family="Courier,monospace" font-size="14.00" fill="#de958e">jinja2</text>
</g>
<!-- jinja2&#45;&gt;hidebound.server.server_tools -->
<g id="edge57" class="edge">
<title>jinja2&#45;&gt;hidebound.server.server_tools</title>
<path fill="none" stroke="#de958e" d="M1579.2145,-1133.5878C1607.7432,-1131.9116 1648.2337,-1125.0707 1674,-1101.4839 1710.079,-1068.4567 1673.921,-1030.5111 1710,-997.4839 1713.4676,-994.3096 1717.2019,-991.4386 1721.1379,-988.8427"/>
<polygon fill="#de958e" stroke="#de958e" points="1723.2141,-991.6816 1730.0512,-983.5881 1719.6592,-985.6515 1723.2141,-991.6816"/>
</g>
<!-- requests -->
<g id="node30" class="node">
<title>requests</title>
<polygon fill="#343434" stroke="#343434" points="1587.5,-630.4839 1504.5,-630.4839 1504.5,-594.4839 1587.5,-594.4839 1587.5,-630.4839"/>
<text text-anchor="middle" x="1546" y="-608.7839" font-family="Courier,monospace" font-size="14.00" fill="#de958e">requests</text>
</g>
<!-- requests&#45;&gt;hidebound.core.database -->
<g id="edge58" class="edge">
<title>requests&#45;&gt;hidebound.core.database</title>
<path fill="none" stroke="#de958e" d="M1587.594,-612.6731C1614.5309,-614.7305 1649.0997,-621.2084 1674,-639.4839 1700.3098,-658.794 1684.0527,-683.6893 1710,-703.4839 1714.8418,-707.1776 1720.0584,-710.4492 1725.5197,-713.3466"/>
<polygon fill="#de958e" stroke="#de958e" points="1724.3911,-716.6879 1734.9189,-717.8778 1727.431,-710.3824 1724.3911,-716.6879"/>
</g>
<!-- boto3 -->
<g id="node31" class="node">
<title>boto3</title>
<polygon fill="#343434" stroke="#343434" points="892.5,-180.4839 834.5,-180.4839 834.5,-144.4839 892.5,-144.4839 892.5,-180.4839"/>
<text text-anchor="middle" x="863.5" y="-158.7839" font-family="Courier,monospace" font-size="14.00" fill="#de958e">boto3</text>
</g>
<!-- boto3&#45;&gt;hidebound.exporters.s3_exporter -->
<g id="edge59" class="edge">
<title>boto3&#45;&gt;hidebound.exporters.s3_exporter</title>
<path fill="none" stroke="#de958e" d="M892.6967,-168.3521C921.9804,-174.3779 968.3047,-184.2917 1008,-194.4839 1054.1234,-206.3267 1105.5554,-221.3853 1145.3652,-233.4538"/>
<polygon fill="#de958e" stroke="#de958e" points="1144.3801,-236.8124 1154.9659,-236.3745 1146.4175,-230.1155 1144.3801,-236.8124"/>
</g>
<!-- jsoncomment -->
<g id="node32" class="node">
<title>jsoncomment</title>
<polygon fill="#343434" stroke="#343434" points="641.5,-1204.4839 534.5,-1204.4839 534.5,-1168.4839 641.5,-1168.4839 641.5,-1204.4839"/>
<text text-anchor="middle" x="588" y="-1182.7839" font-family="Courier,monospace" font-size="14.00" fill="#de958e">jsoncomment</text>
</g>
<!-- jsoncomment&#45;&gt;hidebound.core.database -->
<g id="edge60" class="edge">
<title>jsoncomment&#45;&gt;hidebound.core.database</title>
<path fill="none" stroke="#de958e" d="M641.6459,-1186.6553C797.0765,-1186.5534 1245.3142,-1181.8669 1382,-1132.4839 1400.5622,-1125.7776 1401.3725,-1117.1167 1418,-1106.4839 1527.9788,-1036.1558 1576.616,-1049.4191 1674,-962.4839 1741.891,-901.8773 1798.1807,-808.5368 1823.5372,-762.735"/>
<polygon fill="#de958e" stroke="#de958e" points="1826.7443,-764.165 1828.4715,-753.7119 1820.6027,-760.8064 1826.7443,-764.165"/>
</g>
<!-- jsoncomment&#45;&gt;hidebound.exporters.exporter_base -->
<g id="edge61" class="edge">
<title>jsoncomment&#45;&gt;hidebound.exporters.exporter_base</title>
<path fill="none" stroke="#de958e" d="M599.1178,-1168.3197C620.0358,-1133.0579 664.7781,-1052.2191 683,-977.4839 701.3432,-902.2511 668.0048,-339.7586 719,-281.4839 719.625,-280.7697 720.2623,-280.0706 720.9115,-279.3862"/>
<polygon fill="#de958e" stroke="#de958e" points="723.2982,-281.9464 728.2978,-272.6053 718.5643,-276.7898 723.2982,-281.9464"/>
</g>
<!-- jsoncomment&#45;&gt;hidebound.server.server_tools -->
<g id="edge62" class="edge">
<title>jsoncomment&#45;&gt;hidebound.server.server_tools</title>
<path fill="none" stroke="#de958e" d="M641.5196,-1189.4896C665.247,-1190.6791 693.5078,-1191.9004 719,-1192.4839 847.4108,-1195.4231 879.5926,-1195.567 1008,-1192.4839 1082.064,-1190.7056 1617.6354,-1208.5638 1674,-1160.4839 1730.9825,-1111.877 1660.274,-1048.3753 1708.6964,-990.9388"/>
<polygon fill="#de958e" stroke="#de958e" points="1711.2895,-993.2902 1715.5825,-983.604 1706.1862,-988.499 1711.2895,-993.2902"/>
</g>
<!-- flasgger -->
<g id="node33" class="node">
<title>flasgger</title>
<polygon fill="#343434" stroke="#343434" points="1879.5,-661.4839 1796.5,-661.4839 1796.5,-625.4839 1879.5,-625.4839 1879.5,-661.4839"/>
<text text-anchor="middle" x="1838" y="-639.7839" font-family="Courier,monospace" font-size="14.00" fill="#de958e">flasgger</text>
</g>
<!-- flasgger&#45;&gt;hidebound.server.api -->
<g id="edge63" class="edge">
<title>flasgger&#45;&gt;hidebound.server.api</title>
<path fill="none" stroke="#de958e" d="M1879.7229,-642.6389C1908.1458,-644.4308 1944.4023,-651.7788 1966,-675.4839 2037.1624,-753.59 1931.4909,-831.7876 2002,-910.4839 2007.4921,-916.6137 2014.0175,-921.6254 2021.144,-925.7163"/>
<polygon fill="#de958e" stroke="#de958e" points="2019.9555,-929.0371 2030.4596,-930.4207 2023.111,-922.7886 2019.9555,-929.0371"/>
</g>
<!-- flasgger&#45;&gt;hidebound.server.app -->
<g id="edge64" class="edge">
<title>flasgger&#45;&gt;hidebound.server.app</title>
<path fill="none" stroke="#de958e" d="M1879.6175,-646.0551C1906.397,-649.4889 1940.7791,-657.3939 1966,-675.4839 1990.0429,-692.7291 1977.2274,-715.3044 2002,-731.4839 2092.0513,-790.2985 2152.3197,-708.6218 2241,-769.4839 2309.3655,-816.4038 2345.9398,-913.1046 2360.4513,-960.7335"/>
<polygon fill="#de958e" stroke="#de958e" points="2357.1113,-961.7818 2363.2931,-970.3862 2363.8263,-959.8048 2357.1113,-961.7818"/>
</g>
<!-- pandasql -->
<g id="node34" class="node">
<title>pandasql</title>
<polygon fill="#343434" stroke="#343434" points="1587.5,-830.4839 1504.5,-830.4839 1504.5,-794.4839 1587.5,-794.4839 1587.5,-830.4839"/>
<text text-anchor="middle" x="1546" y="-808.7839" font-family="Courier,monospace" font-size="14.00" fill="#de958e">pandasql</text>
</g>
<!-- pandasql&#45;&gt;hidebound.core.database -->
<g id="edge65" class="edge">
<title>pandasql&#45;&gt;hidebound.core.database</title>
<path fill="none" stroke="#de958e" d="M1587.7205,-804.6485C1612.8462,-799.6906 1645.4072,-792.843 1674,-785.4839 1706.8916,-777.0184 1743.0427,-766.1664 1773.0137,-756.737"/>
<polygon fill="#de958e" stroke="#de958e" points="1774.4495,-759.9537 1782.9271,-753.5992 1772.3371,-753.28 1774.4495,-759.9537"/>
</g>
<!-- girder_client -->
<g id="node35" class="node">
<title>girder_client</title>
<polygon fill="#343434" stroke="#343434" points="925.5,-326.4839 801.5,-326.4839 801.5,-290.4839 925.5,-290.4839 925.5,-326.4839"/>
<text text-anchor="middle" x="863.5" y="-304.7839" font-family="Courier,monospace" font-size="14.00" fill="#de958e">girder_client</text>
</g>
<!-- girder_client&#45;&gt;hidebound.exporters.girder_exporter -->
<g id="edge66" class="edge">
<title>girder_client&#45;&gt;hidebound.exporters.girder_exporter</title>
<path fill="none" stroke="#de958e" d="M925.5809,-308.4839C960.5037,-308.4839 1005.8921,-308.4839 1050.2451,-308.4839"/>
<polygon fill="#de958e" stroke="#de958e" points="1050.2857,-311.984 1060.2856,-308.4839 1050.2856,-304.984 1050.2857,-311.984"/>
</g>
<!-- flask_healthz -->
<g id="node36" class="node">
<title>flask_healthz</title>
<polygon fill="#343434" stroke="#343434" points="2183.5,-722.4839 2059.5,-722.4839 2059.5,-686.4839 2183.5,-686.4839 2183.5,-722.4839"/>
<text text-anchor="middle" x="2121.5" y="-700.7839" font-family="Courier,monospace" font-size="14.00" fill="#de958e">flask_healthz</text>
</g>
<!-- flask_healthz&#45;&gt;hidebound.server.app -->
<g id="edge67" class="edge">
<title>flask_healthz&#45;&gt;hidebound.server.app</title>
<path fill="none" stroke="#de958e" d="M2183.5191,-710.8994C2203.5493,-715.4808 2224.7543,-723.2709 2241,-736.4839 2314.0722,-795.9152 2349.0179,-908.2078 2361.8904,-960.4456"/>
<polygon fill="#de958e" stroke="#de958e" points="2358.5266,-961.429 2364.2419,-970.3501 2365.3372,-959.812 2358.5266,-961.429"/>
</g>
<!-- hidebound.exporters -->
<g id="node37" class="node">
<title>hidebound.exporters</title>
<polygon fill="#343434" stroke="#343434" points="674.5,-272.4839 501.5,-272.4839 501.5,-236.4839 674.5,-236.4839 674.5,-272.4839"/>
<text text-anchor="middle" x="588" y="-250.7839" font-family="Courier,monospace" font-size="14.00" fill="#a0d17b">hidebound.exporters</text>
</g>
<!-- hidebound.exporters&#45;&gt;hidebound.exporters.exporter_base -->
<g id="edge68" class="edge">
<title>hidebound.exporters&#45;&gt;hidebound.exporters.exporter_base</title>
<path fill="none" stroke="#a0d17b" d="M674.7918,-254.4839C685.7098,-254.4839 697.125,-254.4839 708.7034,-254.4839"/>
<polygon fill="#a0d17b" stroke="#a0d17b" points="708.912,-257.984 718.912,-254.4839 708.912,-250.984 708.912,-257.984"/>
</g>
<!-- hidebound.exporters&#45;&gt;hidebound.exporters.girder_exporter -->
<g id="edge69" class="edge">
<title>hidebound.exporters&#45;&gt;hidebound.exporters.girder_exporter</title>
<path fill="none" stroke="#a0d17b" d="M662.4112,-236.4186C680.7956,-232.7121 700.519,-229.3687 719,-227.4839 846.7817,-214.4525 894.7538,-166.8764 1008,-227.4839 1033.4314,-241.0944 1019.7253,-265.9038 1044,-281.4839 1046.4614,-283.0637 1048.9835,-284.562 1051.5578,-285.9826"/>
<polygon fill="#a0d17b" stroke="#a0d17b" points="1049.9983,-289.1161 1060.4998,-290.5193 1053.1654,-282.8735 1049.9983,-289.1161"/>
</g>
<!-- hidebound.exporters&#45;&gt;hidebound.exporters.local_disk_exporter -->
<g id="edge70" class="edge">
<title>hidebound.exporters&#45;&gt;hidebound.exporters.local_disk_exporter</title>
<path fill="none" stroke="#a0d17b" d="M594.0154,-272.6399C608.2973,-312.3955 648.4394,-406.5382 719,-443.4839 773.0431,-471.781 919.5569,-467.0867 1039.0888,-457.3283"/>
<polygon fill="#a0d17b" stroke="#a0d17b" points="1039.4283,-460.8122 1049.1032,-456.4939 1038.8471,-453.8364 1039.4283,-460.8122"/>
</g>
<!-- hidebound.exporters&#45;&gt;hidebound.exporters.s3_exporter -->
<g id="edge71" class="edge">
<title>hidebound.exporters&#45;&gt;hidebound.exporters.s3_exporter</title>
<path fill="none" stroke="#a0d17b" d="M600.7437,-236.375C621.6614,-208.4213 666.2644,-155.8604 719,-135.4839 838.8117,-89.1901 883.9713,-102.0943 1008,-135.4839 1076.1603,-153.8333 1145.0143,-201.0171 1183.0326,-230.1579"/>
<polygon fill="#a0d17b" stroke="#a0d17b" points="1181.0721,-233.067 1191.1158,-236.4397 1185.3676,-227.5398 1181.0721,-233.067"/>
</g>
<!-- lunchbox.tools -->
<g id="node38" class="node">
<title>lunchbox.tools</title>
<polygon fill="#343434" stroke="#343434" points="1279,-1090.4839 1147,-1090.4839 1147,-1054.4839 1279,-1054.4839 1279,-1090.4839"/>
<text text-anchor="middle" x="1213" y="-1068.7839" font-family="Courier,monospace" font-size="14.00" fill="#de958e">lunchbox.tools</text>
</g>
<!-- lunchbox.tools&#45;&gt;hidebound.core.database_tools -->
<g id="edge72" class="edge">
<title>lunchbox.tools&#45;&gt;hidebound.core.database_tools</title>
<path fill="none" stroke="#de958e" d="M1279.3811,-1061.1316C1315.1263,-1051.54 1356.9147,-1034.0656 1382,-1002.4839 1442.8053,-925.9317 1350.3908,-856.0992 1418,-785.4839 1418.7853,-784.6637 1419.5888,-783.8652 1420.4094,-783.0879"/>
<polygon fill="#de958e" stroke="#de958e" points="1422.7338,-785.7078 1428.2305,-776.6504 1418.2853,-780.3032 1422.7338,-785.7078"/>
</g>
<!-- lunchbox.tools&#45;&gt;hidebound.server.server_tools -->
<g id="edge73" class="edge">
<title>lunchbox.tools&#45;&gt;hidebound.server.server_tools</title>
<path fill="none" stroke="#de958e" d="M1279.0694,-1076.9268C1371.0904,-1080.67 1541.4587,-1078.6259 1674,-1025.4839 1692.8139,-1017.9406 1691.7748,-1006.3555 1710,-997.4839 1718.4072,-993.3915 1727.3878,-989.7906 1736.5451,-986.6284"/>
<polygon fill="#de958e" stroke="#de958e" points="1737.7201,-989.9267 1746.1354,-983.4898 1735.5427,-983.2739 1737.7201,-989.9267"/>
</g>
<!-- numpy -->
<g id="node39" class="node">
<title>numpy</title>
<polygon fill="#343434" stroke="#343434" points="1242,-548.4839 1184,-548.4839 1184,-512.4839 1242,-512.4839 1242,-548.4839"/>
<text text-anchor="middle" x="1213" y="-526.7839" font-family="Courier,monospace" font-size="14.00" fill="#de958e">numpy</text>
</g>
<!-- numpy&#45;&gt;hidebound.core.database -->
<g id="edge74" class="edge">
<title>numpy&#45;&gt;hidebound.core.database</title>
<path fill="none" stroke="#de958e" d="M1242.1295,-532.125C1338.1963,-537.7854 1640.7726,-557.6831 1674,-585.4839 1716.0528,-620.6689 1670.2502,-665.7166 1710,-703.4839 1714.7405,-707.988 1720.0153,-711.8854 1725.6465,-715.2556"/>
<polygon fill="#de958e" stroke="#de958e" points="1724.2941,-718.5013 1734.7631,-720.1288 1727.594,-712.3279 1724.2941,-718.5013"/>
</g>
<!-- numpy&#45;&gt;hidebound.core.database_tools -->
<g id="edge75" class="edge">
<title>numpy&#45;&gt;hidebound.core.database_tools</title>
<path fill="none" stroke="#de958e" d="M1242.1948,-542.9305C1278.3815,-559.4688 1340.3555,-591.5498 1382,-633.4839 1403.9135,-655.5499 1395.2483,-672.2831 1418,-693.4839 1437.3914,-711.5535 1462.7611,-725.8274 1485.7957,-736.341"/>
<polygon fill="#de958e" stroke="#de958e" points="1484.5999,-739.6389 1495.1619,-740.4725 1487.4251,-733.2343 1484.5999,-739.6389"/>
</g>
<!-- numpy&#45;&gt;hidebound.server.api -->
<g id="edge76" class="edge">
<title>numpy&#45;&gt;hidebound.server.api</title>
<path fill="none" stroke="#de958e" d="M1242.2732,-526.9169C1332.8995,-516.5225 1606.789,-490.1781 1674,-542.4839 1720.6373,-578.7786 1665.6491,-631.4283 1710,-670.4839 1796.3245,-746.5016 1883.4945,-628.3374 1966,-708.4839 2031.4111,-772.0248 1940.3245,-843.3112 2002,-910.4839 2007.5152,-916.4907 2014.0232,-921.4197 2021.108,-925.4583"/>
<polygon fill="#de958e" stroke="#de958e" points="2019.8532,-928.7449 2030.3594,-930.1119 2022.9988,-922.4915 2019.8532,-928.7449"/>
</g>
<!-- flask_monitoringdashboard -->
<g id="node40" class="node">
<title>flask_monitoringdashboard</title>
<polygon fill="#343434" stroke="#343434" points="2233,-668.4839 2010,-668.4839 2010,-632.4839 2233,-632.4839 2233,-668.4839"/>
<text text-anchor="middle" x="2121.5" y="-646.7839" font-family="Courier,monospace" font-size="14.00" fill="#de958e">flask_monitoringdashboard</text>
</g>
<!-- flask_monitoringdashboard&#45;&gt;hidebound.server.app -->
<g id="edge77" class="edge">
<title>flask_monitoringdashboard&#45;&gt;hidebound.server.app</title>
<path fill="none" stroke="#de958e" d="M2228.1701,-668.5278C2232.7133,-671.146 2237.0233,-674.1163 2241,-677.4839 2329.5901,-752.5056 2357.1956,-898.8815 2365.0937,-960.2958"/>
<polygon fill="#de958e" stroke="#de958e" points="2361.6406,-960.896 2366.3122,-970.4053 2368.5903,-960.0583 2361.6406,-960.896"/>
</g>
<!-- hidebound -->
<g id="node41" class="node">
<title>hidebound</title>
<polygon fill="#343434" stroke="#343434" points="190,-702.4839 99,-702.4839 99,-666.4839 190,-666.4839 190,-702.4839"/>
<text text-anchor="middle" x="144.5" y="-680.7839" font-family="Courier,monospace" font-size="14.00" fill="#a0d17b">hidebound</text>
</g>
<!-- hidebound&#45;&gt;hidebound.server -->
<g id="edge78" class="edge">
<title>hidebound&#45;&gt;hidebound.server</title>
<path fill="none" stroke="#a0d17b" d="M190.2414,-682.1882C221.2834,-683.015 261.5228,-689.0469 289,-711.4839 514.5551,-895.6657 296.799,-1294.4839 588,-1294.4839 588,-1294.4839 588,-1294.4839 863.5,-1294.4839 1078.7785,-1294.4839 1332.0367,-1306.0556 1461.086,-1312.7832"/>
<polygon fill="#a0d17b" stroke="#a0d17b" points="1461.1243,-1316.2899 1471.294,-1313.3188 1461.4911,-1309.2996 1461.1243,-1316.2899"/>
</g>
<!-- hidebound&#45;&gt;hidebound.exporters -->
<g id="edge79" class="edge">
<title>hidebound&#45;&gt;hidebound.exporters</title>
<path fill="none" stroke="#a0d17b" d="M190.0698,-687.7632C221.64,-687.4975 262.5857,-681.7328 289,-657.4839 333.1643,-616.9403 295.2917,-579.5578 325,-527.4839 386.4186,-419.8271 499.8084,-322.8193 555.4613,-279.0574"/>
<polygon fill="#a0d17b" stroke="#a0d17b" points="557.8251,-281.6526 563.5608,-272.7446 553.5219,-276.1315 557.8251,-281.6526"/>
</g>
<!-- hidebound.core -->
<g id="node49" class="node">
<title>hidebound.core</title>
<polygon fill="#343434" stroke="#343434" points="457,-702.4839 325,-702.4839 325,-666.4839 457,-666.4839 457,-702.4839"/>
<text text-anchor="middle" x="391" y="-680.7839" font-family="Courier,monospace" font-size="14.00" fill="#a0d17b">hidebound.core</text>
</g>
<!-- hidebound&#45;&gt;hidebound.core -->
<g id="edge80" class="edge">
<title>hidebound&#45;&gt;hidebound.core</title>
<path fill="none" stroke="#a0d17b" d="M190.2871,-684.4839C225.0707,-684.4839 273.6972,-684.4839 314.3758,-684.4839"/>
<polygon fill="#a0d17b" stroke="#a0d17b" points="314.5334,-687.984 324.5333,-684.4839 314.5333,-680.984 314.5334,-687.984"/>
</g>
<!-- schematics -->
<g id="node42" class="node">
<title>schematics</title>
<polygon fill="#343434" stroke="#343434" points="913,-380.4839 814,-380.4839 814,-344.4839 913,-344.4839 913,-380.4839"/>
<text text-anchor="middle" x="863.5" y="-358.7839" font-family="Courier,monospace" font-size="14.00" fill="#de958e">schematics</text>
</g>
<!-- schematics&#45;&gt;hidebound.core.config -->
<g id="edge81" class="edge">
<title>schematics&#45;&gt;hidebound.core.config</title>
<path fill="none" stroke="#de958e" d="M913.1335,-364.6656C1023.4813,-369.5161 1291.185,-381.2833 1440.6524,-387.8533"/>
<polygon fill="#de958e" stroke="#de958e" points="1440.6206,-391.3552 1450.7647,-388.2978 1440.9281,-384.3619 1440.6206,-391.3552"/>
</g>
<!-- schematics&#45;&gt;hidebound.core.specification_base -->
<g id="edge82" class="edge">
<title>schematics&#45;&gt;hidebound.core.specification_base</title>
<path fill="none" stroke="#de958e" d="M913.2875,-358.7665C944.4843,-359.2513 983.3187,-365.4451 1008,-389.4839 1062.7032,-442.7631 999.8011,-495.2138 1044,-557.4839 1070.768,-595.1962 1116.1041,-621.7248 1153.0845,-638.4051"/>
<polygon fill="#de958e" stroke="#de958e" points="1151.7255,-641.6308 1162.2898,-642.4344 1154.5325,-635.2182 1151.7255,-641.6308"/>
</g>
<!-- schematics&#45;&gt;hidebound.exporters.girder_exporter -->
<g id="edge83" class="edge">
<title>schematics&#45;&gt;hidebound.exporters.girder_exporter</title>
<path fill="none" stroke="#de958e" d="M913.2037,-354.8044C958.1908,-347.8536 1026.3965,-337.3154 1086.3913,-328.0458"/>
<polygon fill="#de958e" stroke="#de958e" points="1086.981,-331.4963 1096.3293,-326.5103 1085.9121,-324.5784 1086.981,-331.4963"/>
</g>
<!-- schematics&#45;&gt;hidebound.exporters.local_disk_exporter -->
<g id="edge84" class="edge">
<title>schematics&#45;&gt;hidebound.exporters.local_disk_exporter</title>
<path fill="none" stroke="#de958e" d="M913.1112,-371.1225C941.0515,-376.1456 976.5478,-382.7909 1008,-389.4839 1048.7407,-398.1535 1093.7811,-408.801 1131.2429,-417.9534"/>
<polygon fill="#de958e" stroke="#de958e" points="1130.55,-421.3871 1141.0958,-420.3687 1132.2167,-414.5884 1130.55,-421.3871"/>
</g>
<!-- schematics&#45;&gt;hidebound.exporters.s3_exporter -->
<g id="edge85" class="edge">
<title>schematics&#45;&gt;hidebound.exporters.s3_exporter</title>
<path fill="none" stroke="#de958e" d="M913.2577,-362.6383C942.9196,-360.5489 980.104,-353.9107 1008,-335.4839 1032.0677,-319.586 1019.7253,-297.0641 1044,-281.4839 1051.3579,-276.7614 1059.2572,-272.7678 1067.4762,-269.3979"/>
<polygon fill="#de958e" stroke="#de958e" points="1068.7574,-272.6555 1076.8798,-265.8527 1066.2879,-266.1055 1068.7574,-272.6555"/>
</g>
<!-- schematics.types -->
<g id="node43" class="node">
<title>schematics.types</title>
<polygon fill="#343434" stroke="#343434" points="938,-434.4839 789,-434.4839 789,-398.4839 938,-398.4839 938,-434.4839"/>
<text text-anchor="middle" x="863.5" y="-412.7839" font-family="Courier,monospace" font-size="14.00" fill="#de958e">schematics.types</text>
</g>
<!-- schematics.types&#45;&gt;hidebound.core.config -->
<g id="edge86" class="edge">
<title>schematics.types&#45;&gt;hidebound.core.config</title>
<path fill="none" stroke="#de958e" d="M938.1649,-413.8583C1059.8961,-409.5777 1301.4776,-401.0825 1440.6238,-396.1895"/>
<polygon fill="#de958e" stroke="#de958e" points="1441.0035,-399.6784 1450.8743,-395.829 1440.7575,-392.6827 1441.0035,-399.6784"/>
</g>
<!-- schematics.types&#45;&gt;hidebound.core.specification_base -->
<g id="edge87" class="edge">
<title>schematics.types&#45;&gt;hidebound.core.specification_base</title>
<path fill="none" stroke="#de958e" d="M932.973,-434.551C959.5509,-444.5385 988.202,-459.5182 1008,-481.4839 1042.1569,-519.3807 1009.2781,-553.1041 1044,-590.4839 1064.8748,-612.9566 1094.0532,-628.4361 1122.2986,-639.0004"/>
<polygon fill="#de958e" stroke="#de958e" points="1121.2337,-642.3364 1131.8283,-642.3976 1123.5843,-635.7429 1121.2337,-642.3364"/>
</g>
<!-- schematics.types&#45;&gt;hidebound.core.specifications -->
<g id="edge88" class="edge">
<title>schematics.types&#45;&gt;hidebound.core.specifications</title>
<path fill="none" stroke="#de958e" d="M928.345,-434.5713C955.5936,-444.7762 986.0016,-459.9139 1008,-481.4839 1034.6871,-507.6514 1013.4268,-535.9847 1044,-557.4839 1167.4658,-644.3057 1250.8082,-515.8479 1382,-590.4839 1405.4885,-603.8467 1395.2858,-624.8437 1418,-639.4839 1420.4608,-641.07 1422.9983,-642.5648 1425.5985,-643.9735"/>
<polygon fill="#de958e" stroke="#de958e" points="1424.1437,-647.1584 1434.6609,-648.4388 1427.2377,-640.8793 1424.1437,-647.1584"/>
</g>
<!-- schematics.types&#45;&gt;hidebound.exporters.girder_exporter -->
<g id="edge89" class="edge">
<title>schematics.types&#45;&gt;hidebound.exporters.girder_exporter</title>
<path fill="none" stroke="#de958e" d="M938.0205,-405.3741C960.7025,-401.2414 985.561,-395.9487 1008,-389.4839 1062.9247,-373.6599 1123.5436,-348.7269 1164.5145,-330.7012"/>
<polygon fill="#de958e" stroke="#de958e" points="1165.9946,-333.8736 1173.7191,-326.6222 1163.1585,-327.4739 1165.9946,-333.8736"/>
</g>
<!-- schematics.types&#45;&gt;hidebound.exporters.local_disk_exporter -->
<g id="edge90" class="edge">
<title>schematics.types&#45;&gt;hidebound.exporters.local_disk_exporter</title>
<path fill="none" stroke="#de958e" d="M938.0478,-421.1765C966.33,-422.9568 999.901,-425.07 1033.6992,-427.1975"/>
<polygon fill="#de958e" stroke="#de958e" points="1033.5097,-430.6924 1043.7098,-427.8276 1033.9495,-423.7062 1033.5097,-430.6924"/>
</g>
<!-- schematics.types&#45;&gt;hidebound.exporters.s3_exporter -->
<g id="edge91" class="edge">
<title>schematics.types&#45;&gt;hidebound.exporters.s3_exporter</title>
<path fill="none" stroke="#de958e" d="M938.0192,-417.2557C962.7657,-413.962 988.857,-406.1683 1008,-389.4839 1046.1425,-356.2401 1005.4237,-314.2234 1044,-281.4839 1051.1536,-275.4127 1059.1138,-270.4285 1067.5728,-266.3554"/>
<polygon fill="#de958e" stroke="#de958e" points="1069.1583,-269.4826 1076.933,-262.285 1066.3667,-263.0633 1069.1583,-269.4826"/>
</g>
<!-- wrapt -->
<g id="node44" class="node">
<title>wrapt</title>
<polygon fill="#343434" stroke="#343434" points="617,-526.4839 559,-526.4839 559,-490.4839 617,-490.4839 617,-526.4839"/>
<text text-anchor="middle" x="588" y="-504.7839" font-family="Courier,monospace" font-size="14.00" fill="#de958e">wrapt</text>
</g>
<!-- wrapt&#45;&gt;hidebound.core.validators -->
<g id="edge92" class="edge">
<title>wrapt&#45;&gt;hidebound.core.validators</title>
<path fill="none" stroke="#de958e" d="M617.2225,-508.4839C647.1543,-508.4839 695.7039,-508.4839 741.8181,-508.4839"/>
<polygon fill="#de958e" stroke="#de958e" points="741.9214,-511.984 751.9214,-508.4839 741.9214,-504.984 741.9214,-511.984"/>
</g>
<!-- pyparsing -->
<g id="node45" class="node">
<title>pyparsing</title>
<polygon fill="#343434" stroke="#343434" points="436.5,-572.4839 345.5,-572.4839 345.5,-536.4839 436.5,-536.4839 436.5,-572.4839"/>
<text text-anchor="middle" x="391" y="-550.7839" font-family="Courier,monospace" font-size="14.00" fill="#de958e">pyparsing</text>
</g>
<!-- pyparsing&#45;&gt;hidebound.core.parser -->
<g id="edge93" class="edge">
<title>pyparsing&#45;&gt;hidebound.core.parser</title>
<path fill="none" stroke="#de958e" d="M433.2614,-572.504C463.411,-585.3597 504.132,-602.723 536.2331,-616.4107"/>
<polygon fill="#de958e" stroke="#de958e" points="534.8975,-619.6461 545.469,-620.3489 537.6431,-613.207 534.8975,-619.6461"/>
</g>
<!-- pyparsing&#45;&gt;hidebound.core.specification_base -->
<g id="edge94" class="edge">
<title>pyparsing&#45;&gt;hidebound.core.specification_base</title>
<path fill="none" stroke="#de958e" d="M436.8074,-549.9817C541.5277,-541.3755 805.0449,-529.3467 1008,-601.4839 1026.3547,-608.0078 1026.0791,-618.8487 1044,-626.4839 1056.0674,-631.6252 1068.9563,-636.0027 1082.0317,-639.7271"/>
<polygon fill="#de958e" stroke="#de958e" points="1081.4887,-643.2064 1092.0565,-642.4498 1083.3234,-636.4511 1081.4887,-643.2064"/>
</g>
<!-- pyparsing&#45;&gt;hidebound.core.validators -->
<g id="edge95" class="edge">
<title>pyparsing&#45;&gt;hidebound.core.validators</title>
<path fill="none" stroke="#de958e" d="M408.923,-536.2131C427.8807,-518.3096 459.6177,-492.1988 493,-481.4839 573.4041,-455.6761 598.7882,-475.2204 683,-481.4839 705.1576,-483.132 728.7196,-485.903 751.2541,-489.0581"/>
<polygon fill="#de958e" stroke="#de958e" points="750.7872,-492.5269 761.1828,-490.4817 751.7808,-485.5978 750.7872,-492.5269"/>
</g>
<!-- pandas -->
<g id="node46" class="node">
<title>pandas</title>
<polygon fill="#343434" stroke="#343434" points="621,-968.4839 555,-968.4839 555,-932.4839 621,-932.4839 621,-968.4839"/>
<text text-anchor="middle" x="588" y="-946.7839" font-family="Courier,monospace" font-size="14.00" fill="#de958e">pandas</text>
</g>
<!-- pandas&#45;&gt;hidebound.core.database -->
<g id="edge96" class="edge">
<title>pandas&#45;&gt;hidebound.core.database</title>
<path fill="none" stroke="#de958e" d="M621.3473,-961.5356C724.6438,-995.7491 1033.0505,-1097.7404 1044,-1099.4839 1192.3532,-1123.1069 1252.3268,-1175.323 1382,-1099.4839 1410.1714,-1083.0079 1395.8871,-1059.4862 1418,-1035.4839 1511.0448,-934.4891 1562.7664,-943.0095 1674,-862.4839 1721.597,-828.0269 1775.146,-785.8992 1807.7224,-759.878"/>
<polygon fill="#de958e" stroke="#de958e" points="1809.9161,-762.6053 1815.5362,-753.6239 1805.5419,-757.1402 1809.9161,-762.6053"/>
</g>
<!-- pandas&#45;&gt;hidebound.core.database_tools -->
<g id="edge97" class="edge">
<title>pandas&#45;&gt;hidebound.core.database_tools</title>
<path fill="none" stroke="#de958e" d="M621.3437,-954.8075C756.6366,-971.6017 1263.0548,-1026.9806 1382,-931.4839 1434.1145,-889.6432 1369.949,-831.9347 1418,-785.4839 1418.9644,-784.5516 1419.9525,-783.648 1420.9626,-782.7721"/>
<polygon fill="#de958e" stroke="#de958e" points="1423.2609,-785.4218 1429.1113,-776.5887 1419.0294,-779.8454 1423.2609,-785.4218"/>
</g>
<!-- pandas&#45;&gt;hidebound.core.tools -->
<g id="edge98" class="edge">
<title>pandas&#45;&gt;hidebound.core.tools</title>
<path fill="none" stroke="#de958e" d="M616.872,-932.3883C642.9085,-916.5612 682.5893,-893.642 719,-877.4839 742.4089,-867.0957 768.7459,-857.5653 792.4607,-849.7263"/>
<polygon fill="#de958e" stroke="#de958e" points="793.676,-853.0115 802.099,-846.5847 791.5066,-846.3561 793.676,-853.0115"/>
</g>
<!-- pandas&#45;&gt;hidebound.core.validators -->
<g id="edge99" class="edge">
<title>pandas&#45;&gt;hidebound.core.validators</title>
<path fill="none" stroke="#de958e" d="M609.5282,-932.4448C630.1319,-914.4283 661.2131,-885.2072 683,-855.4839 724.4089,-798.9909 816.2941,-608.2092 850.4128,-536.257"/>
<polygon fill="#de958e" stroke="#de958e" points="853.7178,-537.4553 854.8324,-526.9193 847.3907,-534.4606 853.7178,-537.4553"/>
</g>
<!-- pandas&#45;&gt;hidebound.server.components -->
<g id="edge100" class="edge">
<title>pandas&#45;&gt;hidebound.server.components</title>
<path fill="none" stroke="#de958e" d="M605.8306,-968.7597C629.5911,-992.1122 673.9032,-1032.2811 719,-1055.4839 1006.0082,-1203.1527 1099.5796,-1199.6803 1418,-1252.4839 1616.2616,-1285.3617 1849.8229,-1291.6896 1991.7004,-1292.0048"/>
<polygon fill="#de958e" stroke="#de958e" points="1991.751,-1295.5047 2001.7554,-1292.0174 1991.7598,-1288.5047 1991.751,-1295.5047"/>
</g>
<!-- schematics.exceptions -->
<g id="node47" class="node">
<title>schematics.exceptions</title>
<polygon fill="#343434" stroke="#343434" points="683,-751.4839 493,-751.4839 493,-715.4839 683,-715.4839 683,-751.4839"/>
<text text-anchor="middle" x="588" y="-729.7839" font-family="Courier,monospace" font-size="14.00" fill="#de958e">schematics.exceptions</text>
</g>
<!-- schematics.exceptions&#45;&gt;hidebound.core.config -->
<g id="edge101" class="edge">
<title>schematics.exceptions&#45;&gt;hidebound.core.config</title>
<path fill="none" stroke="#de958e" d="M627.9558,-715.4111C648.0793,-704.0907 670.7509,-687.4502 683,-665.4839 740.4935,-562.3815 632.7446,-216.0792 719,-135.4839 827.6841,-33.9317 1252.535,-154.2452 1382,-227.4839 1444.811,-263.0163 1499.8344,-329.3265 1527.3433,-366.1425"/>
<polygon fill="#de958e" stroke="#de958e" points="1524.6723,-368.4181 1533.4187,-374.3973 1530.31,-364.2688 1524.6723,-368.4181"/>
</g>
<!-- schematics.exceptions&#45;&gt;hidebound.core.database_tools -->
<g id="edge102" class="edge">
<title>schematics.exceptions&#45;&gt;hidebound.core.database_tools</title>
<path fill="none" stroke="#de958e" d="M683.3591,-735.9724C853.6161,-740.4155 1210.4915,-749.7285 1407.6857,-754.8745"/>
<polygon fill="#de958e" stroke="#de958e" points="1407.737,-758.3769 1417.8249,-755.1391 1407.9197,-751.3793 1407.737,-758.3769"/>
</g>
<!-- schematics.exceptions&#45;&gt;hidebound.core.specification_base -->
<g id="edge103" class="edge">
<title>schematics.exceptions&#45;&gt;hidebound.core.specification_base</title>
<path fill="none" stroke="#de958e" d="M683.264,-722.3571C782.8774,-710.7222 940.7773,-692.2795 1058.3038,-678.5524"/>
<polygon fill="#de958e" stroke="#de958e" points="1058.9482,-682.0011 1068.4746,-677.3645 1058.1361,-675.0483 1058.9482,-682.0011"/>
</g>
<!-- schematics.exceptions&#45;&gt;hidebound.core.tools -->
<g id="edge104" class="edge">
<title>schematics.exceptions&#45;&gt;hidebound.core.tools</title>
<path fill="none" stroke="#de958e" d="M640.4679,-751.5763C686.3302,-767.3909 752.9858,-790.3756 801.4767,-807.0966"/>
<polygon fill="#de958e" stroke="#de958e" points="800.6327,-810.5077 811.2274,-810.4589 802.9147,-803.8901 800.6327,-810.5077"/>
</g>
<!-- schematics.exceptions&#45;&gt;hidebound.core.validators -->
<g id="edge105" class="edge">
<title>schematics.exceptions&#45;&gt;hidebound.core.validators</title>
<path fill="none" stroke="#de958e" d="M614.7024,-715.3777C634.0182,-702.0392 660.5582,-683.2111 683,-665.4839 739.1202,-621.1536 801.409,-565.4265 836.1768,-533.6912"/>
<polygon fill="#de958e" stroke="#de958e" points="838.977,-535.873 843.9907,-526.5395 834.2509,-530.7093 838.977,-535.873"/>
</g>
<!-- schematics.exceptions&#45;&gt;hidebound.server.api -->
<g id="edge106" class="edge">
<title>schematics.exceptions&#45;&gt;hidebound.server.api</title>
<path fill="none" stroke="#de958e" d="M624.3478,-751.5225C644.3804,-763.202 668.1304,-780.202 683,-801.4839 717.3374,-850.6287 671.3867,-895.0525 719,-931.4839 725.8775,-936.7463 1957.3412,-938.3483 1966,-938.4839 1983.4617,-938.7575 2002.0242,-939.1481 2020.0169,-939.5792"/>
<polygon fill="#de958e" stroke="#de958e" points="2020.1539,-943.0835 2030.2367,-939.8296 2020.3255,-936.0856 2020.1539,-943.0835"/>
</g>
<!-- OpenEXR -->
<g id="node48" class="node">
<title>OpenEXR</title>
<polygon fill="#343434" stroke="#343434" points="625,-846.4839 551,-846.4839 551,-810.4839 625,-810.4839 625,-846.4839"/>
<text text-anchor="middle" x="588" y="-824.7839" font-family="Courier,monospace" font-size="14.00" fill="#de958e">OpenEXR</text>
</g>
<!-- OpenEXR&#45;&gt;hidebound.core.tools -->
<g id="edge107" class="edge">
<title>OpenEXR&#45;&gt;hidebound.core.tools</title>
<path fill="none" stroke="#de958e" d="M625.1552,-828.4839C660.1896,-828.4839 714.3125,-828.4839 762.1336,-828.4839"/>
<polygon fill="#de958e" stroke="#de958e" points="762.2333,-831.984 772.2333,-828.4839 762.2333,-824.984 762.2333,-831.984"/>
</g>
<!-- hidebound.core&#45;&gt;hidebound.core.config -->
<g id="edge108" class="edge">
<title>hidebound.core&#45;&gt;hidebound.core.config</title>
<path fill="none" stroke="#a0d17b" d="M406.5776,-666.1609C422.2488,-646.5876 445.6688,-613.9702 457,-581.4839 483.0418,-506.8229 449.5493,-293.5482 493,-227.4839 556.1933,-131.4022 607.6981,-130.4143 719,-101.4839 785.6109,-84.1699 1380.9492,-113.8593 1382,-114.4839 1477.1996,-171.0691 1523.1528,-305.9725 1539.1583,-364.5453"/>
<polygon fill="#a0d17b" stroke="#a0d17b" points="1535.7809,-365.464 1541.7216,-374.2366 1542.5482,-363.6741 1535.7809,-365.464"/>
</g>
<!-- hidebound.core&#45;&gt;hidebound.core.database -->
<g id="edge109" class="edge">
<title>hidebound.core&#45;&gt;hidebound.core.database</title>
<path fill="none" stroke="#a0d17b" d="M406.7457,-666.2184C422.5542,-646.6919 446.0846,-614.1123 457,-581.4839 490.5138,-481.3044 426.1485,-189.2763 493,-107.4839 601.3122,25.0353 692.3483,-2.4839 863.5,-2.4839 863.5,-2.4839 863.5,-2.4839 1213,-2.4839 1439.6427,-2.4839 1545.1963,-33.9993 1674,-220.4839 1731.0127,-303.0281 1654.155,-587.1453 1710,-670.4839 1722.8712,-689.6919 1743.2233,-703.5145 1763.9441,-713.3325"/>
<polygon fill="#a0d17b" stroke="#a0d17b" points="1762.5853,-716.5588 1773.1441,-717.4325 1765.4348,-710.165 1762.5853,-716.5588"/>
</g>
<!-- hidebound.core&#45;&gt;hidebound.core.database_tools -->
<g id="edge110" class="edge">
<title>hidebound.core&#45;&gt;hidebound.core.database_tools</title>
<path fill="none" stroke="#a0d17b" d="M408.0884,-702.7642C426.8464,-721.3738 458.8643,-749.0617 493,-760.4839 680.3468,-823.1723 1184.4663,-766.4944 1382,-763.4839 1390.3933,-763.356 1399.0275,-763.1913 1407.7357,-762.9999"/>
<polygon fill="#a0d17b" stroke="#a0d17b" points="1408.0659,-766.4933 1417.9825,-762.7637 1407.9044,-759.4952 1408.0659,-766.4933"/>
</g>
<!-- hidebound.core&#45;&gt;hidebound.core.parser -->
<g id="edge111" class="edge">
<title>hidebound.core&#45;&gt;hidebound.core.parser</title>
<path fill="none" stroke="#a0d17b" d="M457.1462,-669.0386C471.1325,-665.7728 486.0978,-662.2784 500.7283,-658.8621"/>
<polygon fill="#a0d17b" stroke="#a0d17b" points="501.8453,-662.1955 510.7875,-656.5132 500.2535,-655.3789 501.8453,-662.1955"/>
</g>
<!-- hidebound.core&#45;&gt;hidebound.core.specification_base -->
<g id="edge112" class="edge">
<title>hidebound.core&#45;&gt;hidebound.core.specification_base</title>
<path fill="none" stroke="#a0d17b" d="M457.2244,-682.5504C586.8986,-678.7643 877.3767,-670.2831 1058.0758,-665.0073"/>
<polygon fill="#a0d17b" stroke="#a0d17b" points="1058.3113,-668.502 1068.2048,-664.7115 1058.1069,-661.505 1058.3113,-668.502"/>
</g>
<!-- hidebound.core&#45;&gt;hidebound.core.specifications -->
<g id="edge113" class="edge">
<title>hidebound.core&#45;&gt;hidebound.core.specifications</title>
<path fill="none" stroke="#a0d17b" d="M393.9593,-702.8147C404.4563,-765.3076 442.0289,-968.1979 493,-1005.4839 561.1555,-1055.3406 598.5724,-1007.1718 683,-1005.4839 839.1702,-1002.3618 1270.6462,-1041.0247 1382,-931.4839 1446.3861,-868.1462 1364.0987,-803.9538 1418,-731.4839 1432.1229,-712.4957 1453.3777,-698.6512 1474.5312,-688.7469"/>
<polygon fill="#a0d17b" stroke="#a0d17b" points="1476.1636,-691.852 1483.8922,-684.6048 1473.3311,-685.4506 1476.1636,-691.852"/>
</g>
<!-- hidebound.core&#45;&gt;hidebound.core.tools -->
<g id="edge114" class="edge">
<title>hidebound.core&#45;&gt;hidebound.core.tools</title>
<path fill="none" stroke="#a0d17b" d="M395.4737,-702.747C405.5929,-739.5635 434.0846,-822.026 493,-855.4839 593.0971,-912.3289 733.7182,-876.783 809.698,-850.0457"/>
<polygon fill="#a0d17b" stroke="#a0d17b" points="811.3075,-853.1863 819.5316,-846.5068 808.9371,-846.5998 811.3075,-853.1863"/>
</g>
<!-- hidebound.core&#45;&gt;hidebound.core.traits -->
<g id="edge115" class="edge">
<title>hidebound.core&#45;&gt;hidebound.core.traits</title>
<path fill="none" stroke="#a0d17b" d="M394.5423,-702.8597C406.3092,-761.7826 446.0237,-944.096 493,-977.4839 594.4379,-1049.5799 970.0362,-966.3806 1134.7404,-925.0598"/>
<polygon fill="#a0d17b" stroke="#a0d17b" points="1135.9638,-928.3609 1144.804,-922.5213 1134.2516,-921.5735 1135.9638,-928.3609"/>
</g>
<!-- hidebound.core&#45;&gt;hidebound.core.validators -->
<g id="edge116" class="edge">
<title>hidebound.core&#45;&gt;hidebound.core.validators</title>
<path fill="none" stroke="#a0d17b" d="M411.5042,-666.4797C431.1818,-650.0438 462.3545,-626.1427 493,-611.4839 576.0001,-571.7821 677.0079,-544.9763 752.5819,-528.6875"/>
<polygon fill="#a0d17b" stroke="#a0d17b" points="753.55,-532.06 762.6035,-526.5569 752.0942,-525.213 753.55,-532.06"/>
</g>
<!-- selenium.webdriver.chrome.options -->
<g id="node50" class="node">
<title>selenium.webdriver.chrome.options</title>
<polygon fill="#343434" stroke="#343434" points="289,-756.4839 0,-756.4839 0,-720.4839 289,-720.4839 289,-756.4839"/>
<text text-anchor="middle" x="144.5" y="-734.7839" font-family="Courier,monospace" font-size="14.00" fill="#de958e">selenium.webdriver.chrome.options</text>
</g>
<!-- skimage.io -->
<g id="node51" class="node">
<title>skimage.io</title>
<polygon fill="#343434" stroke="#343434" points="913,-922.4839 814,-922.4839 814,-886.4839 913,-886.4839 913,-922.4839"/>
<text text-anchor="middle" x="863.5" y="-900.7839" font-family="Courier,monospace" font-size="14.00" fill="#de958e">skimage.io</text>
</g>
<!-- skimage.io&#45;&gt;hidebound.core.traits -->
<g id="edge117" class="edge">
<title>skimage.io&#45;&gt;hidebound.core.traits</title>
<path fill="none" stroke="#de958e" d="M913.2037,-904.4839C963.5607,-904.4839 1043.0103,-904.4839 1107.471,-904.4839"/>
<polygon fill="#de958e" stroke="#de958e" points="1107.6812,-907.984 1117.6812,-904.4839 1107.6811,-900.984 1107.6812,-907.984"/>
</g>
</g>
</svg>
