<?xml version="1.0" encoding="UTF-8" standalone="no"?>
<!DOCTYPE svg PUBLIC "-//W3C//DTD SVG 1.1//EN"
 "http://www.w3.org/Graphics/SVG/1.1/DTD/svg11.dtd">
<!-- Generated by graphviz version 2.40.1 (20161225.0304)
 -->
<!-- Title: %3 Pages: 1 -->
<svg width="2269pt" height="1451pt"
 viewBox="0.00 0.00 2269.00 1451.38" xmlns="http://www.w3.org/2000/svg" xmlns:xlink="http://www.w3.org/1999/xlink">
<g id="graph0" class="graph" transform="scale(1 1) rotate(0) translate(4 1447.3801)">
<title>%3</title>
<polygon fill="#242424" stroke="transparent" points="-4,4 -4,-1447.3801 2265,-1447.3801 2265,4 -4,4"/>
<!-- cli -->
<g id="node1" class="node">
<title>cli</title>
<polygon fill="#343434" stroke="#343434" points="72.5,-768.3875 18.5,-768.3875 18.5,-732.3875 72.5,-732.3875 72.5,-768.3875"/>
<text text-anchor="middle" x="45.5" y="-746.6875" font-family="Courier,monospace" font-size="14.00" fill="#b6ecf3">cli</text>
</g>
<!-- hidebound.core.config -->
<g id="node2" class="node">
<title>hidebound.core.config</title>
<polygon fill="#343434" stroke="#343434" points="1443,-514.3875 1253,-514.3875 1253,-478.3875 1443,-478.3875 1443,-514.3875"/>
<text text-anchor="middle" x="1348" y="-492.6875" font-family="Courier,monospace" font-size="14.00" fill="#b6ecf3">hidebound.core.config</text>
</g>
<!-- hidebound.core.database -->
<g id="node3" class="node">
<title>hidebound.core.database</title>
<polygon fill="#343434" stroke="#343434" points="1743,-399.3875 1537,-399.3875 1537,-363.3875 1743,-363.3875 1743,-399.3875"/>
<text text-anchor="middle" x="1640" y="-377.6875" font-family="Courier,monospace" font-size="14.00" fill="#b6ecf3">hidebound.core.database</text>
</g>
<!-- hidebound.core.config&#45;&gt;hidebound.core.database -->
<g id="edge1" class="edge">
<title>hidebound.core.config&#45;&gt;hidebound.core.database</title>
<path fill="none" stroke="#b6ecf3" d="M1393.9462,-478.2923C1445.4599,-458.0043 1528.9933,-425.1059 1584.2129,-403.3585"/>
<polygon fill="#b6ecf3" stroke="#b6ecf3" points="1585.8182,-406.488 1593.84,-399.567 1583.253,-399.9749 1585.8182,-406.488"/>
</g>
<!-- hidebound.server.app -->
<g id="node16" class="node">
<title>hidebound.server.app</title>
<polygon fill="#343434" stroke="#343434" points="2261,-920.3875 2079,-920.3875 2079,-884.3875 2261,-884.3875 2261,-920.3875"/>
<text text-anchor="middle" x="2170" y="-898.6875" font-family="Courier,monospace" font-size="14.00" fill="#b6ecf3">hidebound.server.app</text>
</g>
<!-- hidebound.core.config&#45;&gt;hidebound.server.app -->
<g id="edge2" class="edge">
<title>hidebound.core.config&#45;&gt;hidebound.server.app</title>
<path fill="none" stroke="#b6ecf3" d="M1380.4622,-514.3942C1453.8311,-554.4167 1638.9222,-651.6172 1804,-707.3875 1907.079,-742.212 1949.1058,-705.4157 2043,-760.3875 2092.0481,-789.1035 2132.4734,-843.2521 2153.7514,-875.75"/>
<polygon fill="#b6ecf3" stroke="#b6ecf3" points="2150.8918,-877.7745 2159.2364,-884.3028 2156.7842,-873.9956 2150.8918,-877.7745"/>
</g>
<!-- hidebound.server.api -->
<g id="node15" class="node">
<title>hidebound.server.api</title>
<polygon fill="#343434" stroke="#343434" points="2014.5,-805.3875 1832.5,-805.3875 1832.5,-769.3875 2014.5,-769.3875 2014.5,-805.3875"/>
<text text-anchor="middle" x="1923.5" y="-783.6875" font-family="Courier,monospace" font-size="14.00" fill="#b6ecf3">hidebound.server.api</text>
</g>
<!-- hidebound.core.database&#45;&gt;hidebound.server.api -->
<g id="edge3" class="edge">
<title>hidebound.core.database&#45;&gt;hidebound.server.api</title>
<path fill="none" stroke="#b6ecf3" d="M1645.4512,-399.523C1661.9898,-452.1815 1715.9235,-607.6685 1804,-707.3875 1824.5909,-730.7002 1853.4421,-750.2691 1877.6371,-764.2169"/>
<polygon fill="#b6ecf3" stroke="#b6ecf3" points="1876.2225,-767.4366 1886.6552,-769.2833 1879.6512,-761.3338 1876.2225,-767.4366"/>
</g>
<!-- hidebound.core.database_tools -->
<g id="node4" class="node">
<title>hidebound.core.database_tools</title>
<polygon fill="#343434" stroke="#343434" points="1476,-758.3875 1220,-758.3875 1220,-722.3875 1476,-722.3875 1476,-758.3875"/>
<text text-anchor="middle" x="1348" y="-736.6875" font-family="Courier,monospace" font-size="14.00" fill="#b6ecf3">hidebound.core.database_tools</text>
</g>
<!-- hidebound.core.database_tools&#45;&gt;hidebound.core.database -->
<g id="edge4" class="edge">
<title>hidebound.core.database_tools&#45;&gt;hidebound.core.database</title>
<path fill="none" stroke="#b6ecf3" d="M1378.7519,-722.2623C1406.4148,-704.933 1447.041,-676.8434 1476,-645.3875 1545.893,-569.4683 1602.8867,-459.6409 1627.2462,-408.9406"/>
<polygon fill="#b6ecf3" stroke="#b6ecf3" points="1630.5462,-410.1507 1631.6772,-399.6164 1624.2238,-407.1462 1630.5462,-410.1507"/>
</g>
<!-- hidebound.core.parser -->
<g id="node5" class="node">
<title>hidebound.core.parser</title>
<polygon fill="#343434" stroke="#343434" points="485,-624.3875 295,-624.3875 295,-588.3875 485,-588.3875 485,-624.3875"/>
<text text-anchor="middle" x="390" y="-602.6875" font-family="Courier,monospace" font-size="14.00" fill="#b6ecf3">hidebound.core.parser</text>
</g>
<!-- hidebound.core.parser&#45;&gt;hidebound.core.database_tools -->
<g id="edge5" class="edge">
<title>hidebound.core.parser&#45;&gt;hidebound.core.database_tools</title>
<path fill="none" stroke="#b6ecf3" d="M485.3591,-619.7259C655.6161,-643.5405 1012.4915,-693.4584 1209.6857,-721.0409"/>
<polygon fill="#b6ecf3" stroke="#b6ecf3" points="1209.4365,-724.54 1219.8249,-722.4591 1210.4062,-717.6075 1209.4365,-724.54"/>
</g>
<!-- hidebound.core.specification_base -->
<g id="node6" class="node">
<title>hidebound.core.specification_base</title>
<polygon fill="#343434" stroke="#343434" points="1159.5,-636.3875 870.5,-636.3875 870.5,-600.3875 1159.5,-600.3875 1159.5,-636.3875"/>
<text text-anchor="middle" x="1015" y="-614.6875" font-family="Courier,monospace" font-size="14.00" fill="#b6ecf3">hidebound.core.specification_base</text>
</g>
<!-- hidebound.core.parser&#45;&gt;hidebound.core.specification_base -->
<g id="edge6" class="edge">
<title>hidebound.core.parser&#45;&gt;hidebound.core.specification_base</title>
<path fill="none" stroke="#b6ecf3" d="M485.143,-601.5182C497.2098,-601.0512 509.3919,-600.6532 521,-600.3875 649.4108,-597.4484 681.6787,-594.7647 810,-600.3875 826.3358,-601.1033 843.3828,-602.1385 860.3646,-603.356"/>
<polygon fill="#b6ecf3" stroke="#b6ecf3" points="860.1194,-606.8473 870.3499,-604.0929 860.6346,-599.8663 860.1194,-606.8473"/>
</g>
<!-- hidebound.core.validators -->
<g id="node10" class="node">
<title>hidebound.core.validators</title>
<polygon fill="#343434" stroke="#343434" points="777,-494.3875 554,-494.3875 554,-458.3875 777,-458.3875 777,-494.3875"/>
<text text-anchor="middle" x="665.5" y="-472.6875" font-family="Courier,monospace" font-size="14.00" fill="#b6ecf3">hidebound.core.validators</text>
</g>
<!-- hidebound.core.parser&#45;&gt;hidebound.core.validators -->
<g id="edge7" class="edge">
<title>hidebound.core.parser&#45;&gt;hidebound.core.validators</title>
<path fill="none" stroke="#b6ecf3" d="M463.7211,-588.1651C471.3941,-584.3941 478.6824,-579.8531 485,-574.3875 511.7566,-551.2393 492.6879,-524.605 521,-503.3875 528.1224,-498.0499 535.9859,-493.6655 544.2565,-490.0737"/>
<polygon fill="#b6ecf3" stroke="#b6ecf3" points="545.7202,-493.2592 553.7494,-486.3466 543.162,-486.7434 545.7202,-493.2592"/>
</g>
<!-- hidebound.core.specification_base&#45;&gt;hidebound.core.config -->
<g id="edge8" class="edge">
<title>hidebound.core.specification_base&#45;&gt;hidebound.core.config</title>
<path fill="none" stroke="#b6ecf3" d="M1064.1353,-600.386C1124.0203,-578.4462 1225.1186,-541.4071 1289.1118,-517.9622"/>
<polygon fill="#b6ecf3" stroke="#b6ecf3" points="1290.4775,-521.1894 1298.6631,-514.4629 1288.0694,-514.6166 1290.4775,-521.1894"/>
</g>
<!-- hidebound.core.specification_base&#45;&gt;hidebound.core.database -->
<g id="edge9" class="edge">
<title>hidebound.core.specification_base&#45;&gt;hidebound.core.database</title>
<path fill="none" stroke="#b6ecf3" d="M1137.2188,-600.3616C1252.9872,-582.0078 1417.5599,-552.2273 1476,-523.3875 1534.5335,-494.5017 1588.9788,-439.6443 1618.0436,-407.2202"/>
<polygon fill="#b6ecf3" stroke="#b6ecf3" points="1620.8753,-409.3013 1624.8731,-399.4896 1615.6293,-404.6667 1620.8753,-409.3013"/>
</g>
<!-- hidebound.core.specification_base&#45;&gt;hidebound.core.database_tools -->
<g id="edge10" class="edge">
<title>hidebound.core.specification_base&#45;&gt;hidebound.core.database_tools</title>
<path fill="none" stroke="#b6ecf3" d="M1064.1353,-636.389C1124.0203,-658.3289 1225.1186,-695.3679 1289.1118,-718.8129"/>
<polygon fill="#b6ecf3" stroke="#b6ecf3" points="1288.0694,-722.1584 1298.6631,-722.3121 1290.4775,-715.5856 1288.0694,-722.1584"/>
</g>
<!-- hidebound.core.specifications -->
<g id="node7" class="node">
<title>hidebound.core.specifications</title>
<polygon fill="#343434" stroke="#343434" points="1476,-636.3875 1220,-636.3875 1220,-600.3875 1476,-600.3875 1476,-636.3875"/>
<text text-anchor="middle" x="1348" y="-614.6875" font-family="Courier,monospace" font-size="14.00" fill="#b6ecf3">hidebound.core.specifications</text>
</g>
<!-- hidebound.core.specification_base&#45;&gt;hidebound.core.specifications -->
<g id="edge11" class="edge">
<title>hidebound.core.specification_base&#45;&gt;hidebound.core.specifications</title>
<path fill="none" stroke="#b6ecf3" d="M1159.6058,-618.3875C1176.2489,-618.3875 1193.189,-618.3875 1209.7452,-618.3875"/>
<polygon fill="#b6ecf3" stroke="#b6ecf3" points="1209.9981,-621.8876 1219.9981,-618.3875 1209.9981,-614.8876 1209.9981,-621.8876"/>
</g>
<!-- hidebound.core.tools -->
<g id="node8" class="node">
<title>hidebound.core.tools</title>
<polygon fill="#343434" stroke="#343434" points="756.5,-868.3875 574.5,-868.3875 574.5,-832.3875 756.5,-832.3875 756.5,-868.3875"/>
<text text-anchor="middle" x="665.5" y="-846.6875" font-family="Courier,monospace" font-size="14.00" fill="#b6ecf3">hidebound.core.tools</text>
</g>
<!-- hidebound.core.tools&#45;&gt;hidebound.core.database -->
<g id="edge12" class="edge">
<title>hidebound.core.tools&#45;&gt;hidebound.core.database</title>
<path fill="none" stroke="#b6ecf3" d="M756.5971,-853.2875C944.8663,-857.3789 1368.2634,-856.1487 1476,-767.3875 1591.4565,-672.2662 1627.224,-481.2062 1636.8473,-409.4655"/>
<polygon fill="#b6ecf3" stroke="#b6ecf3" points="1640.3391,-409.7515 1638.1299,-399.3895 1633.3951,-408.8675 1640.3391,-409.7515"/>
</g>
<!-- hidebound.core.tools&#45;&gt;hidebound.core.database_tools -->
<g id="edge13" class="edge">
<title>hidebound.core.tools&#45;&gt;hidebound.core.database_tools</title>
<path fill="none" stroke="#b6ecf3" d="M756.7472,-845.5931C860.9927,-838.8695 1036.2536,-823.7584 1184,-792.3875 1219.8557,-784.7743 1259.0216,-772.5108 1290.0846,-761.8049"/>
<polygon fill="#b6ecf3" stroke="#b6ecf3" points="1291.5814,-764.9897 1299.8708,-758.3916 1289.276,-758.3802 1291.5814,-764.9897"/>
</g>
<!-- hidebound.core.tools&#45;&gt;hidebound.core.specification_base -->
<g id="edge14" class="edge">
<title>hidebound.core.tools&#45;&gt;hidebound.core.specification_base</title>
<path fill="none" stroke="#b6ecf3" d="M692.6339,-832.3759C755.079,-790.9245 908.9686,-688.7717 979.1152,-642.208"/>
<polygon fill="#b6ecf3" stroke="#b6ecf3" points="981.2466,-644.9942 987.6425,-636.5476 977.3753,-639.1621 981.2466,-644.9942"/>
</g>
<!-- hidebound.core.traits -->
<g id="node9" class="node">
<title>hidebound.core.traits</title>
<polygon fill="#343434" stroke="#343434" points="1110,-918.3875 920,-918.3875 920,-882.3875 1110,-882.3875 1110,-918.3875"/>
<text text-anchor="middle" x="1015" y="-896.6875" font-family="Courier,monospace" font-size="14.00" fill="#b6ecf3">hidebound.core.traits</text>
</g>
<!-- hidebound.core.tools&#45;&gt;hidebound.core.traits -->
<g id="edge15" class="edge">
<title>hidebound.core.tools&#45;&gt;hidebound.core.traits</title>
<path fill="none" stroke="#b6ecf3" d="M756.8705,-863.4591C803.7964,-870.1724 861.1997,-878.3846 909.9484,-885.3587"/>
<polygon fill="#b6ecf3" stroke="#b6ecf3" points="909.4994,-888.83 919.8944,-886.7816 910.4908,-881.9006 909.4994,-888.83"/>
</g>
<!-- hidebound.exporters.local_disk_exporter -->
<g id="node13" class="node">
<title>hidebound.exporters.local_disk_exporter</title>
<polygon fill="#343434" stroke="#343434" points="1184,-430.3875 846,-430.3875 846,-394.3875 1184,-394.3875 1184,-430.3875"/>
<text text-anchor="middle" x="1015" y="-408.6875" font-family="Courier,monospace" font-size="14.00" fill="#b6ecf3">hidebound.exporters.local_disk_exporter</text>
</g>
<!-- hidebound.core.tools&#45;&gt;hidebound.exporters.local_disk_exporter -->
<g id="edge16" class="edge">
<title>hidebound.core.tools&#45;&gt;hidebound.exporters.local_disk_exporter</title>
<path fill="none" stroke="#b6ecf3" d="M676.8827,-832.1433C704.152,-788.8853 776.1567,-677.2881 846,-591.3875 892.9993,-533.5828 954.3508,-471.5047 988.7174,-437.7745"/>
<polygon fill="#b6ecf3" stroke="#b6ecf3" points="991.3298,-440.1152 996.0339,-430.6219 986.4364,-435.1097 991.3298,-440.1152"/>
</g>
<!-- hidebound.core.traits&#45;&gt;hidebound.core.specifications -->
<g id="edge17" class="edge">
<title>hidebound.core.traits&#45;&gt;hidebound.core.specifications</title>
<path fill="none" stroke="#b6ecf3" d="M1033.645,-882.1944C1068.9907,-847.9767 1148.6064,-772.191 1220,-713.3875 1250.7066,-688.096 1287.2877,-661.2537 1313.464,-642.5769"/>
<polygon fill="#b6ecf3" stroke="#b6ecf3" points="1315.7938,-645.2151 1321.9187,-636.5701 1311.7396,-639.5087 1315.7938,-645.2151"/>
</g>
<!-- hidebound.core.validators&#45;&gt;hidebound.core.config -->
<g id="edge18" class="edge">
<title>hidebound.core.validators&#45;&gt;hidebound.core.config</title>
<path fill="none" stroke="#b6ecf3" d="M777.0815,-475.3097C882.133,-474.8563 1043.8401,-475.6034 1184,-482.3875 1202.9584,-483.3052 1223.1193,-484.6891 1242.5824,-486.2356"/>
<polygon fill="#b6ecf3" stroke="#b6ecf3" points="1242.4359,-489.7351 1252.6868,-487.0575 1243.0035,-482.7582 1242.4359,-489.7351"/>
</g>
<!-- hidebound.core.validators&#45;&gt;hidebound.core.specification_base -->
<g id="edge19" class="edge">
<title>hidebound.core.validators&#45;&gt;hidebound.core.specification_base</title>
<path fill="none" stroke="#b6ecf3" d="M777.3577,-488.893C788.8185,-492.6069 799.9331,-497.3478 810,-503.3875 831.9629,-516.5644 825.5234,-533.0022 846,-548.3875 874.3013,-569.652 909.9979,-585.67 941.2839,-596.9787"/>
<polygon fill="#b6ecf3" stroke="#b6ecf3" points="940.2438,-600.323 950.8387,-600.3377 942.5655,-593.7192 940.2438,-600.323"/>
</g>
<!-- hidebound.core.validators&#45;&gt;hidebound.core.specifications -->
<g id="edge20" class="edge">
<title>hidebound.core.validators&#45;&gt;hidebound.core.specifications</title>
<path fill="none" stroke="#b6ecf3" d="M777.0974,-488.3749C905.9412,-502.8317 1109.6736,-527.7611 1184,-548.3875 1226.0825,-560.0659 1271.5875,-580.1306 1303.9633,-595.7922"/>
<polygon fill="#b6ecf3" stroke="#b6ecf3" points="1302.6308,-599.0367 1313.1513,-600.2892 1305.7081,-592.7494 1302.6308,-599.0367"/>
</g>
<!-- hidebound.exporters.girder_exporter -->
<g id="node12" class="node">
<title>hidebound.exporters.girder_exporter</title>
<polygon fill="#343434" stroke="#343434" points="1167.5,-284.3875 862.5,-284.3875 862.5,-248.3875 1167.5,-248.3875 1167.5,-284.3875"/>
<text text-anchor="middle" x="1015" y="-262.6875" font-family="Courier,monospace" font-size="14.00" fill="#b6ecf3">hidebound.exporters.girder_exporter</text>
</g>
<!-- hidebound.core.validators&#45;&gt;hidebound.exporters.girder_exporter -->
<g id="edge21" class="edge">
<title>hidebound.core.validators&#45;&gt;hidebound.exporters.girder_exporter</title>
<path fill="none" stroke="#b6ecf3" d="M700.7736,-458.351C732.8242,-440.467 779.61,-410.4203 810,-373.3875 834.7339,-343.2473 815.0362,-317.0823 846,-293.3875 848.3781,-291.5677 850.8308,-289.8494 853.3486,-288.2273"/>
<polygon fill="#b6ecf3" stroke="#b6ecf3" points="855.2855,-291.1491 862.1463,-283.0757 851.7483,-285.1085 855.2855,-291.1491"/>
</g>
<!-- hidebound.core.validators&#45;&gt;hidebound.exporters.local_disk_exporter -->
<g id="edge22" class="edge">
<title>hidebound.core.validators&#45;&gt;hidebound.exporters.local_disk_exporter</title>
<path fill="none" stroke="#b6ecf3" d="M764.2513,-458.3043C808.6331,-450.1772 861.1375,-440.5626 906.604,-432.2369"/>
<polygon fill="#b6ecf3" stroke="#b6ecf3" points="907.2867,-435.6701 916.4927,-430.4261 906.0258,-428.7846 907.2867,-435.6701"/>
</g>
<!-- hidebound.exporters.s3_exporter -->
<g id="node14" class="node">
<title>hidebound.exporters.s3_exporter</title>
<polygon fill="#343434" stroke="#343434" points="1151,-338.3875 879,-338.3875 879,-302.3875 1151,-302.3875 1151,-338.3875"/>
<text text-anchor="middle" x="1015" y="-316.6875" font-family="Courier,monospace" font-size="14.00" fill="#b6ecf3">hidebound.exporters.s3_exporter</text>
</g>
<!-- hidebound.core.validators&#45;&gt;hidebound.exporters.s3_exporter -->
<g id="edge23" class="edge">
<title>hidebound.core.validators&#45;&gt;hidebound.exporters.s3_exporter</title>
<path fill="none" stroke="#b6ecf3" d="M698.9494,-458.2588C734.8243,-439.1159 793.7002,-408.5596 846,-385.3875 881.4232,-369.6928 921.9102,-354.0441 954.3743,-342.0349"/>
<polygon fill="#b6ecf3" stroke="#b6ecf3" points="956.0006,-345.166 964.1774,-338.4287 953.5838,-338.5964 956.0006,-345.166"/>
</g>
<!-- hidebound.exporters.exporter_base -->
<g id="node11" class="node">
<title>hidebound.exporters.exporter_base</title>
<polygon fill="#343434" stroke="#343434" points="810,-218.3875 521,-218.3875 521,-182.3875 810,-182.3875 810,-218.3875"/>
<text text-anchor="middle" x="665.5" y="-196.6875" font-family="Courier,monospace" font-size="14.00" fill="#b6ecf3">hidebound.exporters.exporter_base</text>
</g>
<!-- hidebound.exporters.exporter_base&#45;&gt;hidebound.exporters.girder_exporter -->
<g id="edge24" class="edge">
<title>hidebound.exporters.exporter_base&#45;&gt;hidebound.exporters.girder_exporter</title>
<path fill="none" stroke="#b6ecf3" d="M761.0024,-218.4223C807.0425,-227.1166 862.3935,-237.5691 909.6566,-246.4944"/>
<polygon fill="#b6ecf3" stroke="#b6ecf3" points="909.1372,-249.9581 919.6131,-248.3745 910.4362,-243.0796 909.1372,-249.9581"/>
</g>
<!-- hidebound.exporters.exporter_base&#45;&gt;hidebound.exporters.local_disk_exporter -->
<g id="edge25" class="edge">
<title>hidebound.exporters.exporter_base&#45;&gt;hidebound.exporters.local_disk_exporter</title>
<path fill="none" stroke="#b6ecf3" d="M731.3729,-218.4506C758.4858,-228.599 788.5069,-243.6996 810,-265.3875 838.017,-293.6584 817.2089,-319.9054 846,-347.3875 866.7584,-367.2022 894.2024,-381.1506 920.9242,-390.897"/>
<polygon fill="#b6ecf3" stroke="#b6ecf3" points="920.1278,-394.3254 930.7227,-394.3007 922.4249,-387.713 920.1278,-394.3254"/>
</g>
<!-- hidebound.exporters.exporter_base&#45;&gt;hidebound.exporters.s3_exporter -->
<g id="edge26" class="edge">
<title>hidebound.exporters.exporter_base&#45;&gt;hidebound.exporters.s3_exporter</title>
<path fill="none" stroke="#b6ecf3" d="M785.2847,-218.4723C794.0463,-222.2907 802.4097,-226.879 810,-232.3875 835.4779,-250.8777 819.9832,-275.6635 846,-293.3875 853.3149,-298.3708 861.2158,-302.5599 869.4672,-306.0723"/>
<polygon fill="#b6ecf3" stroke="#b6ecf3" points="868.3313,-309.386 878.9197,-309.7565 870.8734,-302.8638 868.3313,-309.386"/>
</g>
<!-- hidebound.exporters.girder_exporter&#45;&gt;hidebound.core.config -->
<g id="edge27" class="edge">
<title>hidebound.exporters.girder_exporter&#45;&gt;hidebound.core.config</title>
<path fill="none" stroke="#b6ecf3" d="M1167.8528,-281.0622C1173.6265,-284.5918 1179.0506,-288.6753 1184,-293.3875 1240.2489,-346.9418 1166.1207,-408.4499 1220,-464.3875 1226.7815,-471.4281 1234.8591,-477.0106 1243.6122,-481.4254"/>
<polygon fill="#b6ecf3" stroke="#b6ecf3" points="1242.3958,-484.7158 1252.9523,-485.6157 1245.2611,-478.329 1242.3958,-484.7158"/>
</g>
<!-- hidebound.exporters.girder_exporter&#45;&gt;hidebound.core.database -->
<g id="edge28" class="edge">
<title>hidebound.exporters.girder_exporter&#45;&gt;hidebound.core.database</title>
<path fill="none" stroke="#b6ecf3" d="M1158.7546,-284.4096C1250.0692,-296.8715 1370.5093,-315.1823 1476,-337.3875 1506.7074,-343.8513 1540.2337,-352.5473 1568.9252,-360.5016"/>
<polygon fill="#b6ecf3" stroke="#b6ecf3" points="1568.2864,-363.9572 1578.8596,-363.2793 1570.1714,-357.2157 1568.2864,-363.9572"/>
</g>
<!-- hidebound.exporters.local_disk_exporter&#45;&gt;hidebound.core.config -->
<g id="edge29" class="edge">
<title>hidebound.exporters.local_disk_exporter&#45;&gt;hidebound.core.config</title>
<path fill="none" stroke="#b6ecf3" d="M1136.2902,-430.4704C1152.5505,-434.3067 1168.8365,-438.9019 1184,-444.3875 1201.2117,-450.6141 1202.9756,-457.6658 1220,-464.3875 1230.4639,-468.5189 1241.624,-472.2429 1252.828,-475.5638"/>
<polygon fill="#b6ecf3" stroke="#b6ecf3" points="1252.0919,-478.9935 1262.6688,-478.3784 1254.0169,-472.2634 1252.0919,-478.9935"/>
</g>
<!-- hidebound.exporters.local_disk_exporter&#45;&gt;hidebound.core.database -->
<g id="edge30" class="edge">
<title>hidebound.exporters.local_disk_exporter&#45;&gt;hidebound.core.database</title>
<path fill="none" stroke="#b6ecf3" d="M1101.1141,-394.3537C1137.6034,-387.5809 1180.6959,-380.7187 1220,-377.3875 1333.3713,-367.779 1362.2307,-376.0003 1476,-377.3875 1492.2728,-377.5859 1509.4519,-377.8951 1526.3219,-378.2556"/>
<polygon fill="#b6ecf3" stroke="#b6ecf3" points="1526.7003,-381.7647 1536.7751,-378.4862 1526.8547,-374.7664 1526.7003,-381.7647"/>
</g>
<!-- hidebound.exporters.s3_exporter&#45;&gt;hidebound.core.config -->
<g id="edge31" class="edge">
<title>hidebound.exporters.s3_exporter&#45;&gt;hidebound.core.config</title>
<path fill="none" stroke="#b6ecf3" d="M1151.3098,-332.3288C1163.2167,-337.3398 1174.3758,-343.8873 1184,-352.3875 1223.1892,-387.0002 1181.8281,-428.6561 1220,-464.3875 1226.9504,-470.8936 1235.0179,-476.1306 1243.6565,-480.3391"/>
<polygon fill="#b6ecf3" stroke="#b6ecf3" points="1242.2786,-483.5565 1252.8427,-484.3625 1245.087,-477.1445 1242.2786,-483.5565"/>
</g>
<!-- hidebound.exporters.s3_exporter&#45;&gt;hidebound.core.database -->
<g id="edge32" class="edge">
<title>hidebound.exporters.s3_exporter&#45;&gt;hidebound.core.database</title>
<path fill="none" stroke="#b6ecf3" d="M1151.001,-333.6612C1263.3654,-344.628 1421.0282,-360.0159 1526.6537,-370.3249"/>
<polygon fill="#b6ecf3" stroke="#b6ecf3" points="1526.4171,-373.8184 1536.7098,-371.3064 1527.0971,-366.8515 1526.4171,-373.8184"/>
</g>
<!-- hidebound.server.api&#45;&gt;hidebound.server.app -->
<g id="edge33" class="edge">
<title>hidebound.server.api&#45;&gt;hidebound.server.app</title>
<path fill="none" stroke="#b6ecf3" d="M1963.1073,-805.4965C1986.3975,-816.1751 2016.4025,-829.9843 2043,-842.3875 2069.4368,-854.7159 2098.8967,-868.6233 2122.7823,-879.9424"/>
<polygon fill="#b6ecf3" stroke="#b6ecf3" points="2121.4441,-883.1814 2131.9794,-884.3034 2124.4433,-876.8564 2121.4441,-883.1814"/>
</g>
<!-- hidebound.server.components -->
<g id="node17" class="node">
<title>hidebound.server.components</title>
<polygon fill="#343434" stroke="#343434" points="2043,-1047.3875 1804,-1047.3875 1804,-1011.3875 2043,-1011.3875 2043,-1047.3875"/>
<text text-anchor="middle" x="1923.5" y="-1025.6875" font-family="Courier,monospace" font-size="14.00" fill="#b6ecf3">hidebound.server.components</text>
</g>
<!-- hidebound.server.components&#45;&gt;hidebound.server.app -->
<g id="edge34" class="edge">
<title>hidebound.server.components&#45;&gt;hidebound.server.app</title>
<path fill="none" stroke="#b6ecf3" d="M1958.5557,-1011.3264C2002.5101,-988.6805 2077.8912,-949.8432 2125.7679,-925.1765"/>
<polygon fill="#b6ecf3" stroke="#b6ecf3" points="2127.3797,-928.2834 2134.6662,-920.592 2124.1736,-922.0607 2127.3797,-928.2834"/>
</g>
<!-- hidebound.server.server_tools -->
<g id="node18" class="node">
<title>hidebound.server.server_tools</title>
<polygon fill="#343434" stroke="#343434" points="1768,-1158.3875 1512,-1158.3875 1512,-1122.3875 1768,-1122.3875 1768,-1158.3875"/>
<text text-anchor="middle" x="1640" y="-1136.6875" font-family="Courier,monospace" font-size="14.00" fill="#b6ecf3">hidebound.server.server_tools</text>
</g>
<!-- hidebound.server.server_tools&#45;&gt;hidebound.server.api -->
<g id="edge35" class="edge">
<title>hidebound.server.server_tools&#45;&gt;hidebound.server.api</title>
<path fill="none" stroke="#b6ecf3" d="M1667.735,-1122.2111C1695.3066,-1103.2458 1737.7422,-1071.5527 1768,-1037.3875 1832.2012,-964.8958 1886.5397,-862.7846 1910.4533,-814.5926"/>
<polygon fill="#b6ecf3" stroke="#b6ecf3" points="1913.6879,-815.946 1914.9558,-805.4273 1907.4051,-812.8594 1913.6879,-815.946"/>
</g>
<!-- hidebound.server.server_tools&#45;&gt;hidebound.server.app -->
<g id="edge36" class="edge">
<title>hidebound.server.server_tools&#45;&gt;hidebound.server.app</title>
<path fill="none" stroke="#b6ecf3" d="M1764.348,-1158.3993C1848.9128,-1164.3022 1960.067,-1159.0955 2043,-1108.3875 2110.1489,-1067.3305 2147.0294,-976.0526 2161.9832,-930.0389"/>
<polygon fill="#b6ecf3" stroke="#b6ecf3" points="2165.348,-931.0061 2165.0035,-920.4169 2158.6692,-928.9097 2165.348,-931.0061"/>
</g>
<!-- dash -->
<g id="node19" class="node">
<title>dash</title>
<polygon fill="#343434" stroke="#343434" points="1667,-1380.3875 1613,-1380.3875 1613,-1344.3875 1667,-1344.3875 1667,-1380.3875"/>
<text text-anchor="middle" x="1640" y="-1358.6875" font-family="Courier,monospace" font-size="14.00" fill="#de958e">dash</text>
</g>
<!-- dash&#45;&gt;hidebound.server.app -->
<g id="edge37" class="edge">
<title>dash&#45;&gt;hidebound.server.app</title>
<path fill="none" stroke="#de958e" d="M1667.0542,-1361.007C1738.7231,-1355.8888 1935.3449,-1332.1267 2043,-1223.3875 2126.7315,-1138.8129 2156.9789,-992.3009 2166.3356,-930.8286"/>
<polygon fill="#de958e" stroke="#de958e" points="2169.8318,-931.106 2167.802,-920.7074 2162.9042,-930.1022 2169.8318,-931.106"/>
</g>
<!-- dash&#45;&gt;hidebound.server.components -->
<g id="edge38" class="edge">
<title>dash&#45;&gt;hidebound.server.components</title>
<path fill="none" stroke="#de958e" d="M1667.0322,-1363.2015C1695.0338,-1362.6728 1738.7154,-1357.8474 1768,-1335.3875 1861.8977,-1263.3726 1903.688,-1118.9609 1917.7115,-1057.7988"/>
<polygon fill="#de958e" stroke="#de958e" points="1921.1993,-1058.2361 1919.9424,-1047.7161 1914.3646,-1056.7238 1921.1993,-1058.2361"/>
</g>
<!-- dash_core_components -->
<g id="node20" class="node">
<title>dash_core_components</title>
<polygon fill="#343434" stroke="#343434" points="1731,-1326.3875 1549,-1326.3875 1549,-1290.3875 1731,-1290.3875 1731,-1326.3875"/>
<text text-anchor="middle" x="1640" y="-1304.6875" font-family="Courier,monospace" font-size="14.00" fill="#de958e">dash_core_components</text>
</g>
<!-- dash_core_components&#45;&gt;hidebound.server.app -->
<g id="edge39" class="edge">
<title>dash_core_components&#45;&gt;hidebound.server.app</title>
<path fill="none" stroke="#de958e" d="M1731.3683,-1292.167C1820.6788,-1272.0747 1955.6129,-1229.8766 2043,-1147.3875 2109.1905,-1084.907 2147.0834,-980.2274 2162.2247,-930.3954"/>
<polygon fill="#de958e" stroke="#de958e" points="2165.6332,-931.2113 2165.1124,-920.6292 2158.9205,-929.2264 2165.6332,-931.2113"/>
</g>
<!-- dash_core_components&#45;&gt;hidebound.server.components -->
<g id="edge40" class="edge">
<title>dash_core_components&#45;&gt;hidebound.server.components</title>
<path fill="none" stroke="#de958e" d="M1731.2943,-1294.7889C1744.3571,-1290.2901 1757.0556,-1284.3163 1768,-1276.3875 1778.3678,-1268.8765 1869.3001,-1119.2501 1907.1149,-1056.6042"/>
<polygon fill="#de958e" stroke="#de958e" points="1910.3327,-1058.0458 1912.5005,-1047.6751 1904.3386,-1054.4304 1910.3327,-1058.0458"/>
</g>
<!-- hidebound.server -->
<g id="node21" class="node">
<title>hidebound.server</title>
<polygon fill="#343434" stroke="#343434" points="1422.5,-1254.3875 1273.5,-1254.3875 1273.5,-1218.3875 1422.5,-1218.3875 1422.5,-1254.3875"/>
<text text-anchor="middle" x="1348" y="-1232.6875" font-family="Courier,monospace" font-size="14.00" fill="#a0d17b">hidebound.server</text>
</g>
<!-- hidebound.server&#45;&gt;hidebound.server.api -->
<g id="edge41" class="edge">
<title>hidebound.server&#45;&gt;hidebound.server.api</title>
<path fill="none" stroke="#a0d17b" d="M1422.5359,-1233.9462C1529.6268,-1228.858 1719.4998,-1213.4298 1768,-1167.3875 1822.4358,-1115.7104 1777.4847,-1072.6066 1804,-1002.3875 1831.0945,-930.6347 1878.9894,-853.7382 1905.163,-814.232"/>
<polygon fill="#a0d17b" stroke="#a0d17b" points="1908.3701,-815.7322 1911.0172,-805.4734 1902.5504,-811.8423 1908.3701,-815.7322"/>
</g>
<!-- hidebound.server&#45;&gt;hidebound.server.app -->
<g id="edge42" class="edge">
<title>hidebound.server&#45;&gt;hidebound.server.app</title>
<path fill="none" stroke="#a0d17b" d="M1360.2046,-1254.6193C1384.373,-1288.866 1442.0803,-1361.8365 1512,-1389.3875 1735.0553,-1477.2797 1875.1179,-1465.5433 2043,-1294.3875 2095.6161,-1240.7454 2147.3964,-1011.185 2164.2834,-930.5362"/>
<polygon fill="#a0d17b" stroke="#a0d17b" points="2167.7397,-931.1057 2166.3439,-920.6032 2160.8856,-929.6839 2167.7397,-931.1057"/>
</g>
<!-- hidebound.server&#45;&gt;hidebound.server.components -->
<g id="edge43" class="edge">
<title>hidebound.server&#45;&gt;hidebound.server.components</title>
<path fill="none" stroke="#a0d17b" d="M1414.7742,-1254.4035C1501.3411,-1273.9527 1654.6274,-1295.3461 1768,-1238.3875 1844.4009,-1200.0036 1892.7636,-1104.3308 1912.8336,-1056.9165"/>
<polygon fill="#a0d17b" stroke="#a0d17b" points="1916.1114,-1058.1485 1916.6868,-1047.5693 1909.6397,-1055.4806 1916.1114,-1058.1485"/>
</g>
<!-- hidebound.server&#45;&gt;hidebound.server.server_tools -->
<g id="edge44" class="edge">
<title>hidebound.server&#45;&gt;hidebound.server.server_tools</title>
<path fill="none" stroke="#a0d17b" d="M1402.923,-1218.3307C1451.8119,-1202.2576 1523.386,-1178.7264 1575.0899,-1161.7278"/>
<polygon fill="#a0d17b" stroke="#a0d17b" points="1576.4211,-1164.9746 1584.8277,-1158.5264 1574.2348,-1158.3247 1576.4211,-1164.9746"/>
</g>
<!-- dash_cytoscape -->
<g id="node22" class="node">
<title>dash_cytoscape</title>
<polygon fill="#343434" stroke="#343434" points="1706,-1028.3875 1574,-1028.3875 1574,-992.3875 1706,-992.3875 1706,-1028.3875"/>
<text text-anchor="middle" x="1640" y="-1006.6875" font-family="Courier,monospace" font-size="14.00" fill="#de958e">dash_cytoscape</text>
</g>
<!-- dash_cytoscape&#45;&gt;hidebound.server.components -->
<g id="edge45" class="edge">
<title>dash_cytoscape&#45;&gt;hidebound.server.components</title>
<path fill="none" stroke="#de958e" d="M1706.1104,-1014.8182C1732.2763,-1016.5718 1763.3053,-1018.6514 1793.6066,-1020.6821"/>
<polygon fill="#de958e" stroke="#de958e" points="1793.635,-1024.1918 1803.8467,-1021.3684 1794.1031,-1017.2075 1793.635,-1024.1918"/>
</g>
<!-- dash_html_components -->
<g id="node23" class="node">
<title>dash_html_components</title>
<polygon fill="#343434" stroke="#343434" points="1731,-920.3875 1549,-920.3875 1549,-884.3875 1731,-884.3875 1731,-920.3875"/>
<text text-anchor="middle" x="1640" y="-898.6875" font-family="Courier,monospace" font-size="14.00" fill="#de958e">dash_html_components</text>
</g>
<!-- dash_html_components&#45;&gt;hidebound.server.app -->
<g id="edge46" class="edge">
<title>dash_html_components&#45;&gt;hidebound.server.app</title>
<path fill="none" stroke="#de958e" d="M1731.1102,-902.3875C1825.0121,-902.3875 1971.068,-902.3875 2068.5834,-902.3875"/>
<polygon fill="#de958e" stroke="#de958e" points="2068.7496,-905.8876 2078.7496,-902.3875 2068.7495,-898.8876 2068.7496,-905.8876"/>
</g>
<!-- dash_html_components&#45;&gt;hidebound.server.components -->
<g id="edge47" class="edge">
<title>dash_html_components&#45;&gt;hidebound.server.components</title>
<path fill="none" stroke="#de958e" d="M1731.1038,-917.3186C1743.7201,-920.6176 1756.3403,-924.5989 1768,-929.3875 1814.9505,-948.67 1863.2305,-982.2868 1893.2831,-1005.1716"/>
<polygon fill="#de958e" stroke="#de958e" points="1891.203,-1007.9874 1901.2598,-1011.3209 1895.4769,-1002.4435 1891.203,-1007.9874"/>
</g>
<!-- dash_table -->
<g id="node24" class="node">
<title>dash_table</title>
<polygon fill="#343434" stroke="#343434" points="1689.5,-866.3875 1590.5,-866.3875 1590.5,-830.3875 1689.5,-830.3875 1689.5,-866.3875"/>
<text text-anchor="middle" x="1640" y="-844.6875" font-family="Courier,monospace" font-size="14.00" fill="#de958e">dash_table</text>
</g>
<!-- dash_table&#45;&gt;hidebound.server.app -->
<g id="edge48" class="edge">
<title>dash_table&#45;&gt;hidebound.server.app</title>
<path fill="none" stroke="#de958e" d="M1689.8611,-853.4677C1776.2839,-862.2731 1955.5004,-880.5328 2068.8629,-892.083"/>
<polygon fill="#de958e" stroke="#de958e" points="2068.6394,-895.5783 2078.9427,-893.11 2069.349,-888.6143 2068.6394,-895.5783"/>
</g>
<!-- dash_table&#45;&gt;hidebound.server.components -->
<g id="edge49" class="edge">
<title>dash_table&#45;&gt;hidebound.server.components</title>
<path fill="none" stroke="#de958e" d="M1689.6784,-852.206C1714.3832,-855.7194 1744.0077,-862.46 1768,-875.3875 1826.8957,-907.1218 1878.3372,-968.0558 1904.7164,-1003.0093"/>
<polygon fill="#de958e" stroke="#de958e" points="1902.1016,-1005.3589 1910.8723,-1011.3025 1907.7223,-1001.1867 1902.1016,-1005.3589"/>
</g>
<!-- flask -->
<g id="node25" class="node">
<title>flask</title>
<polygon fill="#343434" stroke="#343434" points="1377,-1070.3875 1319,-1070.3875 1319,-1034.3875 1377,-1034.3875 1377,-1070.3875"/>
<text text-anchor="middle" x="1348" y="-1048.6875" font-family="Courier,monospace" font-size="14.00" fill="#de958e">flask</text>
</g>
<!-- flask&#45;&gt;hidebound.server.api -->
<g id="edge50" class="edge">
<title>flask&#45;&gt;hidebound.server.api</title>
<path fill="none" stroke="#de958e" d="M1377.114,-1053.5658C1406.3937,-1053.0619 1450.7191,-1047.3948 1476,-1020.3875 1537.4229,-954.7701 1445.4529,-881.802 1512,-821.3875 1555.8968,-781.536 1714.8705,-778.9892 1821.8802,-782.1767"/>
<polygon fill="#de958e" stroke="#de958e" points="1821.9615,-785.681 1832.0682,-782.502 1822.185,-778.6846 1821.9615,-785.681"/>
</g>
<!-- flask&#45;&gt;hidebound.server.app -->
<g id="edge51" class="edge">
<title>flask&#45;&gt;hidebound.server.app</title>
<path fill="none" stroke="#de958e" d="M1377.0509,-1055.8249C1493.0453,-1069.055 1922.5386,-1113.186 2043,-1056.3875 2098.5338,-1030.2029 2138.0286,-966.5027 2157.0864,-929.7543"/>
<polygon fill="#de958e" stroke="#de958e" points="2160.3278,-931.0995 2161.7028,-920.5943 2154.0768,-927.9492 2160.3278,-931.0995"/>
</g>
<!-- flask&#45;&gt;hidebound.server.components -->
<g id="edge52" class="edge">
<title>flask&#45;&gt;hidebound.server.components</title>
<path fill="none" stroke="#de958e" d="M1377.0303,-1051.5078C1445.2534,-1049.406 1621.1186,-1043.7883 1768,-1037.3875 1776.3467,-1037.0238 1784.9445,-1036.6313 1793.6111,-1036.2222"/>
<polygon fill="#de958e" stroke="#de958e" points="1793.9841,-1039.7085 1803.8056,-1035.7352 1793.65,-1032.7165 1793.9841,-1039.7085"/>
</g>
<!-- flask&#45;&gt;hidebound.server.server_tools -->
<g id="edge53" class="edge">
<title>flask&#45;&gt;hidebound.server.server_tools</title>
<path fill="none" stroke="#de958e" d="M1377.1458,-1056.7378C1403.7143,-1061.3791 1443.6353,-1070.0704 1476,-1084.3875 1493.5858,-1092.1669 1494.4142,-1100.6081 1512,-1108.3875 1521.2867,-1112.4957 1531.1955,-1116.1406 1541.2325,-1119.3596"/>
<polygon fill="#de958e" stroke="#de958e" points="1540.2921,-1122.732 1550.8787,-1122.3165 1542.3436,-1116.0394 1540.2921,-1122.732"/>
</g>
<!-- rolling_pin.blob_etl -->
<g id="node26" class="node">
<title>rolling_pin.blob_etl</title>
<polygon fill="#343434" stroke="#343434" points="1731,-974.3875 1549,-974.3875 1549,-938.3875 1731,-938.3875 1731,-974.3875"/>
<text text-anchor="middle" x="1640" y="-952.6875" font-family="Courier,monospace" font-size="14.00" fill="#de958e">rolling_pin.blob_etl</text>
</g>
<!-- rolling_pin.blob_etl&#45;&gt;hidebound.server.components -->
<g id="edge54" class="edge">
<title>rolling_pin.blob_etl&#45;&gt;hidebound.server.components</title>
<path fill="none" stroke="#de958e" d="M1730.073,-974.4425C1742.8426,-977.2767 1755.7801,-980.2965 1768,-983.3875 1797.2913,-990.7968 1829.352,-1000.0781 1856.7123,-1008.3597"/>
<polygon fill="#de958e" stroke="#de958e" points="1855.9801,-1011.7954 1866.566,-1011.3603 1858.0193,-1005.099 1855.9801,-1011.7954"/>
</g>
<!-- dash.dependencies -->
<g id="node27" class="node">
<title>dash.dependencies</title>
<polygon fill="#343434" stroke="#343434" points="2002,-698.3875 1845,-698.3875 1845,-662.3875 2002,-662.3875 2002,-698.3875"/>
<text text-anchor="middle" x="1923.5" y="-676.6875" font-family="Courier,monospace" font-size="14.00" fill="#de958e">dash.dependencies</text>
</g>
<!-- dash.dependencies&#45;&gt;hidebound.server.app -->
<g id="edge55" class="edge">
<title>dash.dependencies&#45;&gt;hidebound.server.app</title>
<path fill="none" stroke="#de958e" d="M2002.0386,-692.7522C2016.5118,-697.3636 2030.8653,-703.6949 2043,-712.3875 2101.975,-754.634 2141.4921,-833.4559 2159.2617,-875.0563"/>
<polygon fill="#de958e" stroke="#de958e" points="2156.0385,-876.4207 2163.115,-884.3058 2162.5002,-873.7288 2156.0385,-876.4207"/>
</g>
<!-- jinja2 -->
<g id="node28" class="node">
<title>jinja2</title>
<polygon fill="#343434" stroke="#343434" points="1381,-1162.3875 1315,-1162.3875 1315,-1126.3875 1381,-1126.3875 1381,-1162.3875"/>
<text text-anchor="middle" x="1348" y="-1140.6875" font-family="Courier,monospace" font-size="14.00" fill="#de958e">jinja2</text>
</g>
<!-- jinja2&#45;&gt;hidebound.server.server_tools -->
<g id="edge56" class="edge">
<title>jinja2&#45;&gt;hidebound.server.server_tools</title>
<path fill="none" stroke="#de958e" d="M1381.2118,-1143.9326C1411.0205,-1143.5242 1456.8674,-1142.8962 1501.737,-1142.2815"/>
<polygon fill="#de958e" stroke="#de958e" points="1501.9423,-1145.7792 1511.8934,-1142.1424 1501.8464,-1138.7798 1501.9423,-1145.7792"/>
</g>
<!-- hidebound.exporters -->
<g id="node29" class="node">
<title>hidebound.exporters</title>
<polygon fill="#343434" stroke="#343434" points="476.5,-264.3875 303.5,-264.3875 303.5,-228.3875 476.5,-228.3875 476.5,-264.3875"/>
<text text-anchor="middle" x="390" y="-242.6875" font-family="Courier,monospace" font-size="14.00" fill="#a0d17b">hidebound.exporters</text>
</g>
<!-- hidebound.exporters&#45;&gt;hidebound.exporters.exporter_base -->
<g id="edge57" class="edge">
<title>hidebound.exporters&#45;&gt;hidebound.exporters.exporter_base</title>
<path fill="none" stroke="#a0d17b" d="M476.7918,-231.896C499.1491,-228.163 523.5912,-224.0819 547.2501,-220.1316"/>
<polygon fill="#a0d17b" stroke="#a0d17b" points="548.0463,-223.5472 557.3333,-218.448 546.8934,-216.6428 548.0463,-223.5472"/>
</g>
<!-- hidebound.exporters&#45;&gt;hidebound.exporters.girder_exporter -->
<g id="edge58" class="edge">
<title>hidebound.exporters&#45;&gt;hidebound.exporters.girder_exporter</title>
<path fill="none" stroke="#a0d17b" d="M401.779,-228.0563C421.9833,-198.5292 466.3938,-141.5118 521,-119.3875 580.5223,-95.2714 758.2473,-81.3592 810,-119.3875 853.1582,-151.1006 805.9936,-198.7809 846,-234.3875 849.4819,-237.4865 853.1675,-240.3265 857.019,-242.9276"/>
<polygon fill="#a0d17b" stroke="#a0d17b" points="855.3458,-246.0072 865.701,-248.2481 859.0034,-240.0387 855.3458,-246.0072"/>
</g>
<!-- hidebound.exporters&#45;&gt;hidebound.exporters.local_disk_exporter -->
<g id="edge59" class="edge">
<title>hidebound.exporters&#45;&gt;hidebound.exporters.local_disk_exporter</title>
<path fill="none" stroke="#a0d17b" d="M402.3167,-264.7077C422.9651,-293.681 467.5961,-349.2603 521,-373.3875 575.7547,-398.125 717.8236,-407.4783 835.6253,-410.8709"/>
<polygon fill="#a0d17b" stroke="#a0d17b" points="835.7684,-414.376 845.8609,-411.1526 835.961,-407.3787 835.7684,-414.376"/>
</g>
<!-- hidebound.exporters&#45;&gt;hidebound.exporters.s3_exporter -->
<g id="edge60" class="edge">
<title>hidebound.exporters&#45;&gt;hidebound.exporters.s3_exporter</title>
<path fill="none" stroke="#a0d17b" d="M476.6616,-235.3604C563.7526,-227.6744 700.4201,-224.9992 810,-265.3875 829.0191,-272.3975 827.408,-285.3127 846,-293.3875 853.3626,-296.5852 861.0533,-299.4087 868.9208,-301.9013"/>
<polygon fill="#a0d17b" stroke="#a0d17b" points="868.0122,-305.2825 878.5951,-304.7805 870.009,-298.5733 868.0122,-305.2825"/>
</g>
<!-- jsoncomment -->
<g id="node30" class="node">
<title>jsoncomment</title>
<polygon fill="#343434" stroke="#343434" points="443.5,-88.3875 336.5,-88.3875 336.5,-52.3875 443.5,-52.3875 443.5,-88.3875"/>
<text text-anchor="middle" x="390" y="-66.6875" font-family="Courier,monospace" font-size="14.00" fill="#de958e">jsoncomment</text>
</g>
<!-- jsoncomment&#45;&gt;hidebound.core.database -->
<g id="edge61" class="edge">
<title>jsoncomment&#45;&gt;hidebound.core.database</title>
<path fill="none" stroke="#de958e" d="M443.609,-56.845C611.3263,-17.6952 1135.1382,79.8556 1476,-132.3875 1561.0381,-185.3379 1611.2279,-300.5306 1630.6596,-353.5991"/>
<polygon fill="#de958e" stroke="#de958e" points="1627.376,-354.8113 1634.0345,-363.0524 1633.9684,-352.4577 1627.376,-354.8113"/>
</g>
<!-- jsoncomment&#45;&gt;hidebound.exporters.exporter_base -->
<g id="edge62" class="edge">
<title>jsoncomment&#45;&gt;hidebound.exporters.exporter_base</title>
<path fill="none" stroke="#de958e" d="M407.1951,-88.5202C430.6017,-112.0303 474.8853,-152.4882 521,-173.3875 525.4166,-175.3891 529.9736,-177.2424 534.6257,-178.9582"/>
<polygon fill="#de958e" stroke="#de958e" points="533.6995,-182.3409 544.2942,-182.2907 535.9806,-175.723 533.6995,-182.3409"/>
</g>
<!-- jsoncomment&#45;&gt;hidebound.server.server_tools -->
<g id="edge63" class="edge">
<title>jsoncomment&#45;&gt;hidebound.server.server_tools</title>
<path fill="none" stroke="#de958e" d="M443.5586,-66.033C543.5686,-59.0353 753.6922,-50.0297 810,-92.3875 849.0882,-121.7918 808.0295,-165.5536 846,-196.3875 963.5551,-291.8482 1073.8188,-135.5027 1184,-239.3875 1247.1697,-298.9473 1157.4538,-371.1733 1220,-431.3875 1302.8646,-511.1627 1398.155,-384.7071 1476,-469.3875 1561.5947,-562.4982 1453.7927,-925.1024 1512,-1037.3875 1530.0828,-1072.2703 1565.7661,-1099.4354 1594.873,-1117.0887"/>
<polygon fill="#de958e" stroke="#de958e" points="1593.274,-1120.2086 1603.6684,-1122.2599 1596.8219,-1114.1743 1593.274,-1120.2086"/>
</g>
<!-- dash.exceptions -->
<g id="node31" class="node">
<title>dash.exceptions</title>
<polygon fill="#343434" stroke="#343434" points="1993.5,-644.3875 1853.5,-644.3875 1853.5,-608.3875 1993.5,-608.3875 1993.5,-644.3875"/>
<text text-anchor="middle" x="1923.5" y="-622.6875" font-family="Courier,monospace" font-size="14.00" fill="#de958e">dash.exceptions</text>
</g>
<!-- dash.exceptions&#45;&gt;hidebound.server.app -->
<g id="edge64" class="edge">
<title>dash.exceptions&#45;&gt;hidebound.server.app</title>
<path fill="none" stroke="#de958e" d="M1993.7409,-631.7266C2011.1778,-635.748 2028.8932,-642.4238 2043,-653.3875 2116.6644,-710.6391 2151.3128,-822.3339 2164.0006,-874.4091"/>
<polygon fill="#de958e" stroke="#de958e" points="2160.6258,-875.3486 2166.3158,-884.2859 2167.4411,-873.751 2160.6258,-875.3486"/>
</g>
<!-- requests -->
<g id="node32" class="node">
<title>requests</title>
<polygon fill="#343434" stroke="#343434" points="1389.5,-216.3875 1306.5,-216.3875 1306.5,-180.3875 1389.5,-180.3875 1389.5,-216.3875"/>
<text text-anchor="middle" x="1348" y="-194.6875" font-family="Courier,monospace" font-size="14.00" fill="#de958e">requests</text>
</g>
<!-- requests&#45;&gt;hidebound.core.database -->
<g id="edge65" class="edge">
<title>requests&#45;&gt;hidebound.core.database</title>
<path fill="none" stroke="#de958e" d="M1389.6814,-203.436C1415.6839,-207.8549 1449.1853,-215.9273 1476,-230.3875 1535.5104,-262.4795 1590.1712,-321.089 1618.8887,-355.0803"/>
<polygon fill="#de958e" stroke="#de958e" points="1616.529,-357.7161 1625.618,-363.1606 1621.908,-353.2365 1616.529,-357.7161"/>
</g>
<!-- pandasql -->
<g id="node33" class="node">
<title>pandasql</title>
<polygon fill="#343434" stroke="#343434" points="1389.5,-422.3875 1306.5,-422.3875 1306.5,-386.3875 1389.5,-386.3875 1389.5,-422.3875"/>
<text text-anchor="middle" x="1348" y="-400.6875" font-family="Courier,monospace" font-size="14.00" fill="#de958e">pandasql</text>
</g>
<!-- pandasql&#45;&gt;hidebound.core.database -->
<g id="edge66" class="edge">
<title>pandasql&#45;&gt;hidebound.core.database</title>
<path fill="none" stroke="#de958e" d="M1389.5264,-401.1166C1425.2467,-398.303 1478.4879,-394.1094 1526.7103,-390.311"/>
<polygon fill="#de958e" stroke="#de958e" points="1527.2219,-393.7817 1536.9161,-389.5071 1526.6721,-386.8033 1527.2219,-393.7817"/>
</g>
<!-- flasgger -->
<g id="node34" class="node">
<title>flasgger</title>
<polygon fill="#343434" stroke="#343434" points="1681.5,-86.3875 1598.5,-86.3875 1598.5,-50.3875 1681.5,-50.3875 1681.5,-86.3875"/>
<text text-anchor="middle" x="1640" y="-64.6875" font-family="Courier,monospace" font-size="14.00" fill="#de958e">flasgger</text>
</g>
<!-- flasgger&#45;&gt;hidebound.server.api -->
<g id="edge67" class="edge">
<title>flasgger&#45;&gt;hidebound.server.api</title>
<path fill="none" stroke="#de958e" d="M1681.7994,-66.9099C1710.6427,-68.3472 1747.3784,-75.5301 1768,-100.3875 1854.2759,-204.3851 1736.8525,-590.1261 1804,-707.3875 1818.4663,-732.6504 1844.5463,-751.4969 1868.6591,-764.5308"/>
<polygon fill="#de958e" stroke="#de958e" points="1867.2853,-767.7606 1877.7759,-769.2429 1870.4994,-761.5421 1867.2853,-767.7606"/>
</g>
<!-- flasgger&#45;&gt;hidebound.server.app -->
<g id="edge68" class="edge">
<title>flasgger&#45;&gt;hidebound.server.app</title>
<path fill="none" stroke="#de958e" d="M1681.7356,-70.3634C1708.7323,-73.5414 1743.3145,-81.385 1768,-100.3875 2041.4704,-310.9006 2142.7063,-757.8408 2164.9843,-874.212"/>
<polygon fill="#de958e" stroke="#de958e" points="2161.5602,-874.943 2166.8427,-884.127 2168.4404,-873.6534 2161.5602,-874.943"/>
</g>
<!-- boto3 -->
<g id="node35" class="node">
<title>boto3</title>
<polygon fill="#343434" stroke="#343434" points="694.5,-310.3875 636.5,-310.3875 636.5,-274.3875 694.5,-274.3875 694.5,-310.3875"/>
<text text-anchor="middle" x="665.5" y="-288.6875" font-family="Courier,monospace" font-size="14.00" fill="#de958e">boto3</text>
</g>
<!-- boto3&#45;&gt;hidebound.exporters.s3_exporter -->
<g id="edge69" class="edge">
<title>boto3&#45;&gt;hidebound.exporters.s3_exporter</title>
<path fill="none" stroke="#de958e" d="M694.697,-294.7266C733.2412,-297.8146 803.8546,-303.4717 868.9904,-308.69"/>
<polygon fill="#de958e" stroke="#de958e" points="868.7255,-312.18 878.9731,-309.4898 869.2846,-305.2023 868.7255,-312.18"/>
</g>
<!-- girder_client -->
<g id="node36" class="node">
<title>girder_client</title>
<polygon fill="#343434" stroke="#343434" points="727.5,-164.3875 603.5,-164.3875 603.5,-128.3875 727.5,-128.3875 727.5,-164.3875"/>
<text text-anchor="middle" x="665.5" y="-142.6875" font-family="Courier,monospace" font-size="14.00" fill="#de958e">girder_client</text>
</g>
<!-- girder_client&#45;&gt;hidebound.exporters.girder_exporter -->
<g id="edge70" class="edge">
<title>girder_client&#45;&gt;hidebound.exporters.girder_exporter</title>
<path fill="none" stroke="#de958e" d="M727.563,-146.6834C754.912,-149.5122 786.1729,-156.6924 810,-173.3875 835.7815,-191.452 820.2403,-216.2919 846,-234.3875 851.0092,-237.9064 856.2999,-241.0669 861.7948,-243.9038"/>
<polygon fill="#de958e" stroke="#de958e" points="860.6868,-247.2521 871.2215,-248.3789 863.6888,-240.9285 860.6868,-247.2521"/>
</g>
<!-- lunchbox.tools -->
<g id="node37" class="node">
<title>lunchbox.tools</title>
<polygon fill="#343434" stroke="#343434" points="1081,-1086.3875 949,-1086.3875 949,-1050.3875 1081,-1050.3875 1081,-1086.3875"/>
<text text-anchor="middle" x="1015" y="-1064.6875" font-family="Courier,monospace" font-size="14.00" fill="#de958e">lunchbox.tools</text>
</g>
<!-- lunchbox.tools&#45;&gt;hidebound.core.database_tools -->
<g id="edge71" class="edge">
<title>lunchbox.tools&#45;&gt;hidebound.core.database_tools</title>
<path fill="none" stroke="#de958e" d="M1081.0989,-1071.4276C1115.6501,-1069.5186 1156.3765,-1061.2697 1184,-1036.3875 1225.3721,-999.121 1195.2739,-966.2781 1220,-916.3875 1248.7681,-858.3412 1296.4233,-799.0945 1324.7582,-766.2969"/>
<polygon fill="#de958e" stroke="#de958e" points="1327.5847,-768.3811 1331.5225,-758.5452 1322.3104,-763.7787 1327.5847,-768.3811"/>
</g>
<!-- lunchbox.tools&#45;&gt;hidebound.server.server_tools -->
<g id="edge72" class="edge">
<title>lunchbox.tools&#45;&gt;hidebound.server.server_tools</title>
<path fill="none" stroke="#de958e" d="M1081.1145,-1074.7137C1170.7052,-1083.4464 1335.6086,-1100.0868 1476,-1117.3875 1485.3185,-1118.5359 1494.9282,-1119.7655 1504.6033,-1121.037"/>
<polygon fill="#de958e" stroke="#de958e" points="1504.3267,-1124.5309 1514.7,-1122.3755 1505.2467,-1117.5916 1504.3267,-1124.5309"/>
</g>
<!-- hidebound -->
<g id="node38" class="node">
<title>hidebound</title>
<polygon fill="#343434" stroke="#343434" points="91,-822.3875 0,-822.3875 0,-786.3875 91,-786.3875 91,-822.3875"/>
<text text-anchor="middle" x="45.5" y="-800.6875" font-family="Courier,monospace" font-size="14.00" fill="#a0d17b">hidebound</text>
</g>
<!-- hidebound&#45;&gt;hidebound.server -->
<g id="edge73" class="edge">
<title>hidebound&#45;&gt;hidebound.server</title>
<path fill="none" stroke="#a0d17b" d="M50.2121,-822.5048C72.5953,-903.9682 176.0975,-1232.3875 390,-1232.3875 390,-1232.3875 390,-1232.3875 665.5,-1232.3875 880.6601,-1232.3875 1133.9679,-1234.4 1263.056,-1235.57"/>
<polygon fill="#a0d17b" stroke="#a0d17b" points="1263.2355,-1239.0717 1273.2671,-1235.6632 1263.2995,-1232.072 1263.2355,-1239.0717"/>
</g>
<!-- hidebound&#45;&gt;hidebound.exporters -->
<g id="edge74" class="edge">
<title>hidebound&#45;&gt;hidebound.exporters</title>
<path fill="none" stroke="#a0d17b" d="M83.3567,-786.1339C86.2894,-783.541 88.915,-780.6334 91,-777.3875 172.1711,-651.0242 52.4053,-571.7412 127,-441.3875 175.2013,-357.1561 276.0913,-298.542 337.9501,-268.8414"/>
<polygon fill="#a0d17b" stroke="#a0d17b" points="339.6063,-271.93 347.1557,-264.4964 336.6184,-265.5997 339.6063,-271.93"/>
</g>
<!-- hidebound.core -->
<g id="node45" class="node">
<title>hidebound.core</title>
<polygon fill="#343434" stroke="#343434" points="259,-822.3875 127,-822.3875 127,-786.3875 259,-786.3875 259,-822.3875"/>
<text text-anchor="middle" x="193" y="-800.6875" font-family="Courier,monospace" font-size="14.00" fill="#a0d17b">hidebound.core</text>
</g>
<!-- hidebound&#45;&gt;hidebound.core -->
<g id="edge75" class="edge">
<title>hidebound&#45;&gt;hidebound.core</title>
<path fill="none" stroke="#a0d17b" d="M91.3614,-804.3875C99.4456,-804.3875 108.0541,-804.3875 116.7093,-804.3875"/>
<polygon fill="#a0d17b" stroke="#a0d17b" points="116.8627,-807.8876 126.8626,-804.3875 116.8626,-800.8876 116.8627,-807.8876"/>
</g>
<!-- numpy -->
<g id="node39" class="node">
<title>numpy</title>
<polygon fill="#343434" stroke="#343434" points="1044,-154.3875 986,-154.3875 986,-118.3875 1044,-118.3875 1044,-154.3875"/>
<text text-anchor="middle" x="1015" y="-132.6875" font-family="Courier,monospace" font-size="14.00" fill="#de958e">numpy</text>
</g>
<!-- numpy&#45;&gt;hidebound.core.database -->
<g id="edge76" class="edge">
<title>numpy&#45;&gt;hidebound.core.database</title>
<path fill="none" stroke="#de958e" d="M1044.2113,-135.5806C1133.4398,-133.5804 1400.9131,-131.1655 1476,-171.3875 1552.8995,-212.5805 1605.4993,-307.0442 1627.8695,-353.939"/>
<polygon fill="#de958e" stroke="#de958e" points="1624.7838,-355.6036 1632.1821,-363.1876 1631.128,-352.6453 1624.7838,-355.6036"/>
</g>
<!-- numpy&#45;&gt;hidebound.core.database_tools -->
<g id="edge77" class="edge">
<title>numpy&#45;&gt;hidebound.core.database_tools</title>
<path fill="none" stroke="#de958e" d="M1044.1792,-145.0015C1083.4016,-158.2662 1151.904,-187.729 1184,-239.3875 1279.602,-393.2591 1131.506,-487.321 1220,-645.3875 1237.8101,-677.1996 1271.1878,-701.4285 1299.3938,-717.4543"/>
<polygon fill="#de958e" stroke="#de958e" points="1297.8934,-720.6234 1308.3435,-722.3685 1301.2625,-714.4875 1297.8934,-720.6234"/>
</g>
<!-- numpy&#45;&gt;hidebound.server.api -->
<g id="edge78" class="edge">
<title>numpy&#45;&gt;hidebound.server.api</title>
<path fill="none" stroke="#de958e" d="M1044.0858,-129.7362C1118.4317,-114.0765 1320.5131,-79.9928 1476,-132.3875 1630.4903,-184.4465 1688.245,-212.2027 1768,-354.3875 1845.1508,-491.9298 1722.7506,-572.2259 1804,-707.3875 1819.1126,-732.5279 1845.5239,-751.4426 1869.6798,-764.5508"/>
<polygon fill="#de958e" stroke="#de958e" points="1868.3119,-767.7844 1878.7991,-769.2913 1871.5406,-761.5734 1868.3119,-767.7844"/>
</g>
<!-- schematics -->
<g id="node40" class="node">
<title>schematics</title>
<polygon fill="#343434" stroke="#343434" points="715,-364.3875 616,-364.3875 616,-328.3875 715,-328.3875 715,-364.3875"/>
<text text-anchor="middle" x="665.5" y="-342.6875" font-family="Courier,monospace" font-size="14.00" fill="#de958e">schematics</text>
</g>
<!-- schematics&#45;&gt;hidebound.core.config -->
<g id="edge79" class="edge">
<title>schematics&#45;&gt;hidebound.core.config</title>
<path fill="none" stroke="#de958e" d="M715.4132,-347.2815C837.9026,-349.8762 1146.1495,-358.9812 1184,-385.3875 1215.6449,-407.4645 1190.3425,-439.7051 1220,-464.3875 1227.0467,-470.2521 1235.0186,-475.0651 1243.4543,-479.012"/>
<polygon fill="#de958e" stroke="#de958e" points="1242.1954,-482.2798 1252.7681,-482.9636 1244.9294,-475.8358 1242.1954,-482.2798"/>
</g>
<!-- schematics&#45;&gt;hidebound.core.specification_base -->
<g id="edge80" class="edge">
<title>schematics&#45;&gt;hidebound.core.specification_base</title>
<path fill="none" stroke="#de958e" d="M712.2104,-364.3931C741.6059,-376.8156 779.5957,-394.9298 810,-416.3875 885.3945,-469.5967 958.7006,-551.1667 993.6911,-592.4827"/>
<polygon fill="#de958e" stroke="#de958e" points="991.0543,-594.7853 1000.1676,-600.1889 996.4132,-590.2816 991.0543,-594.7853"/>
</g>
<!-- schematics&#45;&gt;hidebound.exporters.girder_exporter -->
<g id="edge81" class="edge">
<title>schematics&#45;&gt;hidebound.exporters.girder_exporter</title>
<path fill="none" stroke="#de958e" d="M715.2329,-342.5434C743.8521,-339.012 779.9771,-332.262 810,-319.3875 828.1391,-311.6091 827.7602,-300.9268 846,-293.3875 851.1486,-291.2594 856.4496,-289.2982 861.853,-287.4908"/>
<polygon fill="#de958e" stroke="#de958e" points="863.1895,-290.7396 871.6791,-284.4009 861.0896,-284.0619 863.1895,-290.7396"/>
</g>
<!-- schematics&#45;&gt;hidebound.exporters.local_disk_exporter -->
<g id="edge82" class="edge">
<title>schematics&#45;&gt;hidebound.exporters.local_disk_exporter</title>
<path fill="none" stroke="#de958e" d="M715.2037,-355.7736C765.5607,-365.2831 845.0103,-380.2865 909.471,-392.4593"/>
<polygon fill="#de958e" stroke="#de958e" points="909.2053,-395.9709 919.6812,-394.3874 910.5043,-389.0925 909.2053,-395.9709"/>
</g>
<!-- schematics&#45;&gt;hidebound.exporters.s3_exporter -->
<g id="edge83" class="edge">
<title>schematics&#45;&gt;hidebound.exporters.s3_exporter</title>
<path fill="none" stroke="#de958e" d="M715.2037,-342.69C755.2997,-339.7071 813.84,-335.3522 868.5723,-331.2806"/>
<polygon fill="#de958e" stroke="#de958e" points="869.0296,-334.7563 878.7424,-330.524 868.5102,-327.7756 869.0296,-334.7563"/>
</g>
<!-- schematics.types -->
<g id="node41" class="node">
<title>schematics.types</title>
<polygon fill="#343434" stroke="#343434" points="740,-548.3875 591,-548.3875 591,-512.3875 740,-512.3875 740,-548.3875"/>
<text text-anchor="middle" x="665.5" y="-526.6875" font-family="Courier,monospace" font-size="14.00" fill="#de958e">schematics.types</text>
</g>
<!-- schematics.types&#45;&gt;hidebound.core.config -->
<g id="edge84" class="edge">
<title>schematics.types&#45;&gt;hidebound.core.config</title>
<path fill="none" stroke="#de958e" d="M740.1649,-526.668C861.8961,-520.6037 1103.4776,-508.5689 1242.6238,-501.637"/>
<polygon fill="#de958e" stroke="#de958e" points="1243.0609,-505.1197 1252.8743,-501.1264 1242.7125,-498.1284 1243.0609,-505.1197"/>
</g>
<!-- schematics.types&#45;&gt;hidebound.core.specification_base -->
<g id="edge85" class="edge">
<title>schematics.types&#45;&gt;hidebound.core.specification_base</title>
<path fill="none" stroke="#de958e" d="M740.2817,-541.4676C763.2069,-546.3042 788.1363,-553.0671 810,-562.3875 827.6893,-569.9284 828.1966,-579.1199 846,-586.3875 856.4777,-590.6647 867.557,-594.3768 878.8301,-597.5973"/>
<polygon fill="#de958e" stroke="#de958e" points="878.2083,-601.0553 888.7764,-600.3029 880.0457,-594.3008 878.2083,-601.0553"/>
</g>
<!-- schematics.types&#45;&gt;hidebound.core.specifications -->
<g id="edge86" class="edge">
<title>schematics.types&#45;&gt;hidebound.core.specifications</title>
<path fill="none" stroke="#de958e" d="M740.3409,-538.0982C841.2588,-548.7453 1026.4894,-569.1684 1184,-591.3875 1199.8533,-593.6239 1216.5385,-596.1591 1232.9502,-598.7587"/>
<polygon fill="#de958e" stroke="#de958e" points="1232.6968,-602.2625 1243.1236,-600.3835 1233.8008,-595.3501 1232.6968,-602.2625"/>
</g>
<!-- schematics.types&#45;&gt;hidebound.exporters.girder_exporter -->
<g id="edge87" class="edge">
<title>schematics.types&#45;&gt;hidebound.exporters.girder_exporter</title>
<path fill="none" stroke="#de958e" d="M740.002,-532.9186C765.3415,-529.9054 791.8206,-521.8406 810,-503.3875 876.4572,-435.9298 778.6616,-359.9657 846,-293.3875 848.5602,-290.8562 851.2567,-288.504 854.0708,-286.3197"/>
<polygon fill="#de958e" stroke="#de958e" points="856.0856,-289.1817 862.2974,-280.5989 852.0891,-283.4347 856.0856,-289.1817"/>
</g>
<!-- schematics.types&#45;&gt;hidebound.exporters.local_disk_exporter -->
<g id="edge88" class="edge">
<title>schematics.types&#45;&gt;hidebound.exporters.local_disk_exporter</title>
<path fill="none" stroke="#de958e" d="M740.3356,-521.4283C763.1453,-517.3705 787.9961,-511.5795 810,-503.3875 827.3593,-496.9247 829.4053,-490.6172 846,-482.3875 882.1234,-464.4731 923.9856,-447.1098 957.0086,-434.1577"/>
<polygon fill="#de958e" stroke="#de958e" points="958.4677,-437.3455 966.5155,-430.4547 955.9271,-430.8229 958.4677,-437.3455"/>
</g>
<!-- schematics.types&#45;&gt;hidebound.exporters.s3_exporter -->
<g id="edge89" class="edge">
<title>schematics.types&#45;&gt;hidebound.exporters.s3_exporter</title>
<path fill="none" stroke="#de958e" d="M740.2607,-531.4328C765.0291,-528.1639 791.0724,-520.3159 810,-503.3875 850.8695,-466.8347 808.6304,-425.5115 846,-385.3875 864.5227,-365.4995 889.8094,-351.6311 915.1788,-341.9847"/>
<polygon fill="#de958e" stroke="#de958e" points="916.6671,-345.169 924.892,-338.4907 914.2976,-338.5822 916.6671,-345.169"/>
</g>
<!-- pandas -->
<g id="node42" class="node">
<title>pandas</title>
<polygon fill="#343434" stroke="#343434" points="423,-1120.3875 357,-1120.3875 357,-1084.3875 423,-1084.3875 423,-1120.3875"/>
<text text-anchor="middle" x="390" y="-1098.6875" font-family="Courier,monospace" font-size="14.00" fill="#de958e">pandas</text>
</g>
<!-- pandas&#45;&gt;hidebound.core.database -->
<g id="edge90" class="edge">
<title>pandas&#45;&gt;hidebound.core.database</title>
<path fill="none" stroke="#de958e" d="M423.1943,-1106.5123C556.8088,-1122.4569 1054.3209,-1175.3055 1184,-1095.3875 1213.7828,-1077.0331 1197.9866,-1052.5778 1220,-1025.3875 1312.4223,-911.2304 1390.2597,-935.6449 1476,-816.3875 1572.7968,-681.7514 1619.8553,-483.0416 1634.6649,-409.8205"/>
<polygon fill="#de958e" stroke="#de958e" points="1638.187,-410.0508 1636.6931,-399.5618 1631.32,-408.6931 1638.187,-410.0508"/>
</g>
<!-- pandas&#45;&gt;hidebound.core.database_tools -->
<g id="edge91" class="edge">
<title>pandas&#45;&gt;hidebound.core.database_tools</title>
<path fill="none" stroke="#de958e" d="M423.1754,-1097.8751C498.3794,-1087.6622 687.5993,-1062.0579 846,-1041.3875 921.0799,-1031.59 1120.0732,-1038.9628 1184,-998.3875 1271.1422,-943.0772 1320.5274,-822.9202 1339.2336,-768.3529"/>
<polygon fill="#de958e" stroke="#de958e" points="1342.6244,-769.2485 1342.47,-758.6547 1335.9844,-767.0326 1342.6244,-769.2485"/>
</g>
<!-- pandas&#45;&gt;hidebound.core.tools -->
<g id="edge92" class="edge">
<title>pandas&#45;&gt;hidebound.core.tools</title>
<path fill="none" stroke="#de958e" d="M398.1972,-1084.1299C420.4126,-1035.449 482.6733,-904.4115 521,-877.3875 533.9545,-868.2534 549.1287,-861.9621 564.6829,-857.672"/>
<polygon fill="#de958e" stroke="#de958e" points="565.5426,-861.0648 574.4002,-855.2518 563.8508,-854.2723 565.5426,-861.0648"/>
</g>
<!-- pandas&#45;&gt;hidebound.core.validators -->
<g id="edge93" class="edge">
<title>pandas&#45;&gt;hidebound.core.validators</title>
<path fill="none" stroke="#de958e" d="M399.851,-1084.3798C419.7601,-1047.0455 464.6211,-957.9574 485,-877.3875 505.474,-796.4414 464.6374,-564.9888 521,-503.3875 527.7127,-496.0509 535.7296,-490.3221 544.4982,-485.8817"/>
<polygon fill="#de958e" stroke="#de958e" points="546.1698,-488.9688 553.8848,-481.7073 543.3254,-482.5728 546.1698,-488.9688"/>
</g>
<!-- pandas&#45;&gt;hidebound.server.components -->
<g id="edge94" class="edge">
<title>pandas&#45;&gt;hidebound.server.components</title>
<path fill="none" stroke="#de958e" d="M423.1489,-1114.3839C449.334,-1123.2759 487.0033,-1134.7851 521,-1140.3875 657.7437,-1162.9218 1638.7791,-1217.4735 1768,-1167.3875 1783.4602,-1161.3952 1856.84,-1092.9077 1897.028,-1054.727"/>
<polygon fill="#de958e" stroke="#de958e" points="1899.7664,-1056.9525 1904.596,-1047.5225 1894.9399,-1051.8825 1899.7664,-1056.9525"/>
</g>
<!-- pyparsing -->
<g id="node43" class="node">
<title>pyparsing</title>
<polygon fill="#343434" stroke="#343434" points="238.5,-486.3875 147.5,-486.3875 147.5,-450.3875 238.5,-450.3875 238.5,-486.3875"/>
<text text-anchor="middle" x="193" y="-464.6875" font-family="Courier,monospace" font-size="14.00" fill="#de958e">pyparsing</text>
</g>
<!-- pyparsing&#45;&gt;hidebound.core.parser -->
<g id="edge95" class="edge">
<title>pyparsing&#45;&gt;hidebound.core.parser</title>
<path fill="none" stroke="#de958e" d="M218.0456,-486.5358C238.6295,-501.3971 268.595,-522.9085 295,-541.3875 314.6987,-555.1733 336.8646,-570.358 354.8279,-582.5817"/>
<polygon fill="#de958e" stroke="#de958e" points="353.0413,-585.5993 363.2794,-588.3256 356.976,-579.8098 353.0413,-585.5993"/>
</g>
<!-- pyparsing&#45;&gt;hidebound.core.specification_base -->
<g id="edge96" class="edge">
<title>pyparsing&#45;&gt;hidebound.core.specification_base</title>
<path fill="none" stroke="#de958e" d="M238.5175,-455.9554C343.1827,-429.6897 607.5152,-376.6844 810,-449.3875 889.8056,-478.0421 960.707,-552.6918 994.3387,-592.5015"/>
<polygon fill="#de958e" stroke="#de958e" points="991.6633,-594.7582 1000.7498,-600.2068 997.0443,-590.2811 991.6633,-594.7582"/>
</g>
<!-- pyparsing&#45;&gt;hidebound.core.validators -->
<g id="edge97" class="edge">
<title>pyparsing&#45;&gt;hidebound.core.validators</title>
<path fill="none" stroke="#de958e" d="M238.7346,-469.1619C308.4827,-470.3428 443.8303,-472.6344 543.4752,-474.3215"/>
<polygon fill="#de958e" stroke="#de958e" points="543.5534,-477.8232 553.6112,-474.4931 543.6719,-470.8242 543.5534,-477.8232"/>
</g>
<!-- wrapt -->
<g id="node44" class="node">
<title>wrapt</title>
<polygon fill="#343434" stroke="#343434" points="419,-532.3875 361,-532.3875 361,-496.3875 419,-496.3875 419,-532.3875"/>
<text text-anchor="middle" x="390" y="-510.6875" font-family="Courier,monospace" font-size="14.00" fill="#de958e">wrapt</text>
</g>
<!-- wrapt&#45;&gt;hidebound.core.validators -->
<g id="edge98" class="edge">
<title>wrapt&#45;&gt;hidebound.core.validators</title>
<path fill="none" stroke="#de958e" d="M419.2225,-510.3568C449.1543,-506.2283 497.7039,-499.5318 543.8181,-493.1712"/>
<polygon fill="#de958e" stroke="#de958e" points="544.4935,-496.6113 553.9214,-491.7777 543.5369,-489.677 544.4935,-496.6113"/>
</g>
<!-- hidebound.core&#45;&gt;hidebound.core.config -->
<g id="edge99" class="edge">
<title>hidebound.core&#45;&gt;hidebound.core.config</title>
<path fill="none" stroke="#a0d17b" d="M200.7512,-822.7432C214.6421,-853.0581 246.8937,-912.8684 295,-939.3875 383.2744,-988.0498 420.2898,-954.1616 521,-958.3875 649.3315,-963.7725 681.6653,-963.6971 810,-958.3875 851.6624,-956.6638 1154.1628,-956.516 1184,-927.3875 1237.7338,-874.93 1182.7182,-656.5733 1220,-591.3875 1238.1004,-559.7397 1271.4696,-535.506 1299.5989,-519.4368"/>
<polygon fill="#a0d17b" stroke="#a0d17b" points="1301.4611,-522.4067 1308.5217,-514.5074 1298.0761,-516.2795 1301.4611,-522.4067"/>
</g>
<!-- hidebound.core&#45;&gt;hidebound.core.database -->
<g id="edge100" class="edge">
<title>hidebound.core&#45;&gt;hidebound.core.database</title>
<path fill="none" stroke="#a0d17b" d="M197.7907,-786.0806C210.0465,-738.5103 242.7166,-606.9341 259,-495.3875 266.2774,-445.5346 257.9879,-77.569 295,-43.3875 357.0363,13.9043 400.5724,-41.6996 485,-43.3875 629.5311,-46.277 694.3183,30.3034 810,-56.3875 850.1517,-86.4769 806.7274,-132.1594 846,-163.3875 905.0699,-210.3577 1114.1336,-167.8545 1184,-196.3875 1203.0206,-204.1554 1201.6042,-216.2378 1220,-225.3875 1325.0078,-277.6162 1367.0045,-246.0927 1476,-289.3875 1522.4527,-307.8393 1572.0021,-337.1273 1604.3286,-357.69"/>
<polygon fill="#a0d17b" stroke="#a0d17b" points="1602.6673,-360.7827 1612.9728,-363.2421 1606.4503,-354.893 1602.6673,-360.7827"/>
</g>
<!-- hidebound.core&#45;&gt;hidebound.core.database_tools -->
<g id="edge101" class="edge">
<title>hidebound.core&#45;&gt;hidebound.core.database_tools</title>
<path fill="none" stroke="#a0d17b" d="M259.1627,-802.0725C418.4883,-796.2893 836.0377,-779.8922 1184,-755.3875 1192.3021,-754.8029 1200.8367,-754.1572 1209.4434,-753.472"/>
<polygon fill="#a0d17b" stroke="#a0d17b" points="1209.8862,-756.9477 1219.5706,-752.6508 1209.3203,-749.9706 1209.8862,-756.9477"/>
</g>
<!-- hidebound.core&#45;&gt;hidebound.core.parser -->
<g id="edge102" class="edge">
<title>hidebound.core&#45;&gt;hidebound.core.parser</title>
<path fill="none" stroke="#a0d17b" d="M199.311,-786.2995C212.0538,-752.3685 244.0581,-678.9424 295,-638.3875 299.34,-634.9324 304.0721,-631.8416 309.0313,-629.078"/>
<polygon fill="#a0d17b" stroke="#a0d17b" points="310.8292,-632.0907 318.1675,-624.4487 307.6652,-625.8465 310.8292,-632.0907"/>
</g>
<!-- hidebound.core&#45;&gt;hidebound.core.specification_base -->
<g id="edge103" class="edge">
<title>hidebound.core&#45;&gt;hidebound.core.specification_base</title>
<path fill="none" stroke="#a0d17b" d="M209.2533,-786.178C228.0233,-766.2313 260.7406,-734.6522 295,-716.3875 472.2409,-621.8953 707.5182,-607.0328 860.0831,-609.3006"/>
<polygon fill="#a0d17b" stroke="#a0d17b" points="860.4068,-612.8067 870.4669,-609.4833 860.53,-605.8078 860.4068,-612.8067"/>
</g>
<!-- hidebound.core&#45;&gt;hidebound.core.specifications -->
<g id="edge104" class="edge">
<title>hidebound.core&#45;&gt;hidebound.core.specifications</title>
<path fill="none" stroke="#a0d17b" d="M195.9699,-822.5798C203.7307,-863.4323 228.805,-962.0258 295,-1002.3875 392.7129,-1061.967 695.7344,-1008.7834 810,-1002.3875 810.3262,-1002.3693 1183.7652,-960.6147 1184,-960.3875 1263.7245,-883.2437 1163.1037,-808.6239 1220,-713.3875 1238.8263,-681.8749 1272.5076,-657.5135 1300.5955,-641.3529"/>
<polygon fill="#a0d17b" stroke="#a0d17b" points="1302.4607,-644.3204 1309.4925,-636.3954 1299.0534,-638.2055 1302.4607,-644.3204"/>
</g>
<!-- hidebound.core&#45;&gt;hidebound.core.tools -->
<g id="edge105" class="edge">
<title>hidebound.core&#45;&gt;hidebound.core.tools</title>
<path fill="none" stroke="#a0d17b" d="M210.923,-822.6583C229.8807,-840.5619 261.6177,-866.6726 295,-877.3875 375.4041,-903.1953 400.7882,-883.6511 485,-877.3875 510.8031,-875.4683 538.5108,-872.0262 564.2824,-868.2281"/>
<polygon fill="#a0d17b" stroke="#a0d17b" points="565.0667,-871.6495 574.4341,-866.6995 564.0244,-864.7276 565.0667,-871.6495"/>
</g>
<!-- hidebound.core&#45;&gt;hidebound.core.traits -->
<g id="edge106" class="edge">
<title>hidebound.core&#45;&gt;hidebound.core.traits</title>
<path fill="none" stroke="#a0d17b" d="M207.0304,-822.5119C224.9192,-844.1961 258.0001,-879.7739 295,-897.3875 502.1164,-995.984 581.2584,-948.5849 810,-931.3875 842.5503,-928.9403 877.764,-924.3368 909.6696,-919.4118"/>
<polygon fill="#a0d17b" stroke="#a0d17b" points="910.5691,-922.8135 919.9047,-917.8039 909.4827,-915.8984 910.5691,-922.8135"/>
</g>
<!-- hidebound.core&#45;&gt;hidebound.core.validators -->
<g id="edge107" class="edge">
<title>hidebound.core&#45;&gt;hidebound.core.validators</title>
<path fill="none" stroke="#a0d17b" d="M195.5921,-786.0924C202.7538,-742.75 226.9943,-633.4077 295,-579.3875 362.4314,-525.8235 409.6289,-583.0445 485,-541.3875 505.3615,-530.1339 500.5676,-514.5119 521,-503.3875 528.3302,-499.3966 536.1456,-495.9848 544.2028,-493.0691"/>
<polygon fill="#a0d17b" stroke="#a0d17b" points="545.3867,-496.3638 553.7577,-489.8694 543.1638,-489.7261 545.3867,-496.3638"/>
</g>
<!-- schematics.exceptions -->
<g id="node46" class="node">
<title>schematics.exceptions</title>
<polygon fill="#343434" stroke="#343434" points="485,-761.3875 295,-761.3875 295,-725.3875 485,-725.3875 485,-761.3875"/>
<text text-anchor="middle" x="390" y="-739.6875" font-family="Courier,monospace" font-size="14.00" fill="#de958e">schematics.exceptions</text>
</g>
<!-- schematics.exceptions&#45;&gt;hidebound.core.config -->
<g id="edge108" class="edge">
<title>schematics.exceptions&#45;&gt;hidebound.core.config</title>
<path fill="none" stroke="#de958e" d="M485.3384,-741.6567C670.322,-736.6969 1069.8018,-717.6864 1184,-645.3875 1208.3709,-629.9583 1200.1252,-612.2918 1220,-591.3875 1246.7557,-563.246 1282.635,-537.4137 1309.5987,-519.8135"/>
<polygon fill="#de958e" stroke="#de958e" points="1311.502,-522.7509 1318.017,-514.3959 1307.7138,-516.8645 1311.502,-522.7509"/>
</g>
<!-- schematics.exceptions&#45;&gt;hidebound.core.database_tools -->
<g id="edge109" class="edge">
<title>schematics.exceptions&#45;&gt;hidebound.core.database_tools</title>
<path fill="none" stroke="#de958e" d="M485.0796,-743.1973C570.2062,-743.0185 698.4377,-742.7277 810,-742.3875 945.863,-741.9732 1101.025,-741.3841 1209.6912,-740.9525"/>
<polygon fill="#de958e" stroke="#de958e" points="1209.7445,-744.4524 1219.7305,-740.9125 1209.7166,-737.4524 1209.7445,-744.4524"/>
</g>
<!-- schematics.exceptions&#45;&gt;hidebound.core.specification_base -->
<g id="edge110" class="edge">
<title>schematics.exceptions&#45;&gt;hidebound.core.specification_base</title>
<path fill="none" stroke="#de958e" d="M469.9511,-725.3761C486.7955,-721.6691 504.4697,-717.8443 521,-714.3875 653.9064,-686.5943 807.5051,-657.1661 907.6901,-638.331"/>
<polygon fill="#de958e" stroke="#de958e" points="908.6381,-641.7143 917.8202,-636.4285 907.346,-634.8346 908.6381,-641.7143"/>
</g>
<!-- schematics.exceptions&#45;&gt;hidebound.core.tools -->
<g id="edge111" class="edge">
<title>schematics.exceptions&#45;&gt;hidebound.core.tools</title>
<path fill="none" stroke="#de958e" d="M436.4233,-761.4176C484.109,-779.938 558.3698,-808.7798 609.3358,-828.5742"/>
<polygon fill="#de958e" stroke="#de958e" points="608.2976,-831.9256 618.8864,-832.2835 610.8319,-825.4005 608.2976,-831.9256"/>
</g>
<!-- schematics.exceptions&#45;&gt;hidebound.core.validators -->
<g id="edge112" class="edge">
<title>schematics.exceptions&#45;&gt;hidebound.core.validators</title>
<path fill="none" stroke="#de958e" d="M410.4256,-725.1165C431.9808,-704.758 465.4784,-669.8764 485,-633.3875 513.2815,-580.5252 476.8357,-543.9312 521,-503.3875 527.9032,-497.0502 535.7989,-491.9754 544.2604,-487.9313"/>
<polygon fill="#de958e" stroke="#de958e" points="545.8139,-491.074 553.6438,-483.9366 543.0719,-484.6334 545.8139,-491.074"/>
</g>
<!-- schematics.exceptions&#45;&gt;hidebound.server.api -->
<g id="edge113" class="edge">
<title>schematics.exceptions&#45;&gt;hidebound.server.api</title>
<path fill="none" stroke="#de958e" d="M419.0668,-761.4763C440.0703,-775.9031 467.6836,-797.8756 485,-823.3875 513.4153,-865.2512 487.9196,-893.1032 521,-931.3875 626.7817,-1053.8099 688.6039,-1057.925 846,-1095.3875 992.1398,-1130.1709 1055.7667,-1173.6367 1184,-1095.3875 1213.8634,-1077.1646 1197.9866,-1052.5778 1220,-1025.3875 1312.4223,-911.2304 1368.3837,-916.3498 1476,-816.3875 1493.0454,-800.5544 1490.6287,-787.58 1512,-778.3875 1620.4483,-731.7405 1760.3014,-749.0487 1845.8597,-767.1928"/>
<polygon fill="#de958e" stroke="#de958e" points="1845.2462,-770.6411 1855.7618,-769.348 1846.7349,-763.8012 1845.2462,-770.6411"/>
</g>
<!-- OpenEXR -->
<g id="node47" class="node">
<title>OpenEXR</title>
<polygon fill="#343434" stroke="#343434" points="427,-868.3875 353,-868.3875 353,-832.3875 427,-832.3875 427,-868.3875"/>
<text text-anchor="middle" x="390" y="-846.6875" font-family="Courier,monospace" font-size="14.00" fill="#de958e">OpenEXR</text>
</g>
<!-- OpenEXR&#45;&gt;hidebound.core.tools -->
<g id="edge114" class="edge">
<title>OpenEXR&#45;&gt;hidebound.core.tools</title>
<path fill="none" stroke="#de958e" d="M427.1552,-850.3875C462.1896,-850.3875 516.3125,-850.3875 564.1336,-850.3875"/>
<polygon fill="#de958e" stroke="#de958e" points="564.2333,-853.8876 574.2333,-850.3875 564.2333,-846.8876 564.2333,-853.8876"/>
</g>
<!-- skimage.io -->
<g id="node48" class="node">
<title>skimage.io</title>
<polygon fill="#343434" stroke="#343434" points="715,-922.3875 616,-922.3875 616,-886.3875 715,-886.3875 715,-922.3875"/>
<text text-anchor="middle" x="665.5" y="-900.6875" font-family="Courier,monospace" font-size="14.00" fill="#de958e">skimage.io</text>
</g>
<!-- skimage.io&#45;&gt;hidebound.core.traits -->
<g id="edge115" class="edge">
<title>skimage.io&#45;&gt;hidebound.core.traits</title>
<path fill="none" stroke="#de958e" d="M715.2037,-903.8187C765.5607,-903.2423 845.0103,-902.333 909.471,-901.5953"/>
<polygon fill="#de958e" stroke="#de958e" points="909.7219,-905.0927 919.6812,-901.4784 909.6417,-898.0932 909.7219,-905.0927"/>
</g>
</g>
</svg>
