<?xml version="1.0" encoding="UTF-8" standalone="no"?>
<!DOCTYPE svg PUBLIC "-//W3C//DTD SVG 1.1//EN"
 "http://www.w3.org/Graphics/SVG/1.1/DTD/svg11.dtd">
<!-- Generated by graphviz version 2.40.1 (20161225.0304)
 -->
<!-- Title: %3 Pages: 1 -->
<svg width="2195pt" height="1342pt"
 viewBox="0.00 0.00 2195.00 1341.94" xmlns="http://www.w3.org/2000/svg" xmlns:xlink="http://www.w3.org/1999/xlink">
<g id="graph0" class="graph" transform="scale(1 1) rotate(0) translate(4 1337.9354)">
<title>%3</title>
<polygon fill="#242424" stroke="transparent" points="-4,4 -4,-1337.9354 2191,-1337.9354 2191,4 -4,4"/>
<!-- cli -->
<g id="node1" class="node">
<title>cli</title>
<polygon fill="#343434" stroke="#343434" points="72.5,-762.9354 18.5,-762.9354 18.5,-726.9354 72.5,-726.9354 72.5,-762.9354"/>
<text text-anchor="middle" x="45.5" y="-741.2354" font-family="Courier,monospace" font-size="14.00" fill="#b6ecf3">cli</text>
</g>
<!-- hidebound.core.config -->
<g id="node2" class="node">
<title>hidebound.core.config</title>
<polygon fill="#343434" stroke="#343434" points="1348.5,-632.9354 1158.5,-632.9354 1158.5,-596.9354 1348.5,-596.9354 1348.5,-632.9354"/>
<text text-anchor="middle" x="1253.5" y="-611.2354" font-family="Courier,monospace" font-size="14.00" fill="#b6ecf3">hidebound.core.config</text>
</g>
<!-- hidebound.core.database -->
<g id="node3" class="node">
<title>hidebound.core.database</title>
<polygon fill="#343434" stroke="#343434" points="1669,-874.9354 1463,-874.9354 1463,-838.9354 1669,-838.9354 1669,-874.9354"/>
<text text-anchor="middle" x="1566" y="-853.2354" font-family="Courier,monospace" font-size="14.00" fill="#b6ecf3">hidebound.core.database</text>
</g>
<!-- hidebound.core.config&#45;&gt;hidebound.core.database -->
<g id="edge1" class="edge">
<title>hidebound.core.config&#45;&gt;hidebound.core.database</title>
<path fill="none" stroke="#b6ecf3" d="M1274.7071,-633.0841C1308.6335,-661.9359 1377.4604,-719.7261 1438,-765.9354 1468.7663,-789.4191 1504.7693,-814.8394 1530.7416,-832.828"/>
<polygon fill="#b6ecf3" stroke="#b6ecf3" points="1528.9256,-835.8273 1539.143,-838.63 1532.9035,-830.0674 1528.9256,-835.8273"/>
</g>
<!-- hidebound.server.api -->
<g id="node13" class="node">
<title>hidebound.server.api</title>
<polygon fill="#343434" stroke="#343434" points="1940.5,-802.9354 1758.5,-802.9354 1758.5,-766.9354 1940.5,-766.9354 1940.5,-802.9354"/>
<text text-anchor="middle" x="1849.5" y="-781.2354" font-family="Courier,monospace" font-size="14.00" fill="#b6ecf3">hidebound.server.api</text>
</g>
<!-- hidebound.core.database&#45;&gt;hidebound.server.api -->
<g id="edge2" class="edge">
<title>hidebound.core.database&#45;&gt;hidebound.server.api</title>
<path fill="none" stroke="#b6ecf3" d="M1637.1731,-838.8597C1677.1087,-828.7174 1727.0786,-816.0266 1768.5079,-805.5049"/>
<polygon fill="#b6ecf3" stroke="#b6ecf3" points="1769.4669,-808.8725 1778.2976,-803.0186 1767.7438,-802.0879 1769.4669,-808.8725"/>
</g>
<!-- hidebound.core.database_test_base -->
<g id="node4" class="node">
<title>hidebound.core.database_test_base</title>
<polygon fill="#343434" stroke="#343434" points="1398,-445.9354 1109,-445.9354 1109,-409.9354 1398,-409.9354 1398,-445.9354"/>
<text text-anchor="middle" x="1253.5" y="-424.2354" font-family="Courier,monospace" font-size="14.00" fill="#b6ecf3">hidebound.core.database_test_base</text>
</g>
<!-- hidebound.core.database_tools -->
<g id="node5" class="node">
<title>hidebound.core.database_tools</title>
<polygon fill="#343434" stroke="#343434" points="1052.5,-958.9354 796.5,-958.9354 796.5,-922.9354 1052.5,-922.9354 1052.5,-958.9354"/>
<text text-anchor="middle" x="924.5" y="-937.2354" font-family="Courier,monospace" font-size="14.00" fill="#b6ecf3">hidebound.core.database_tools</text>
</g>
<!-- hidebound.core.database_tools&#45;&gt;hidebound.core.database -->
<g id="edge3" class="edge">
<title>hidebound.core.database_tools&#45;&gt;hidebound.core.database</title>
<path fill="none" stroke="#b6ecf3" d="M1052.5781,-951.5229C1149.6852,-956.3084 1285.7985,-956.0316 1402,-929.9354 1446.5586,-919.9286 1493.84,-897.4596 1526.1278,-880.0738"/>
<polygon fill="#b6ecf3" stroke="#b6ecf3" points="1528.1418,-882.9616 1535.2341,-875.0907 1524.7814,-876.8208 1528.1418,-882.9616"/>
</g>
<!-- hidebound.core.parser -->
<g id="node6" class="node">
<title>hidebound.core.parser</title>
<polygon fill="#343434" stroke="#343434" points="485,-540.9354 295,-540.9354 295,-504.9354 485,-504.9354 485,-540.9354"/>
<text text-anchor="middle" x="390" y="-519.2354" font-family="Courier,monospace" font-size="14.00" fill="#b6ecf3">hidebound.core.parser</text>
</g>
<!-- hidebound.core.parser&#45;&gt;hidebound.core.database_tools -->
<g id="edge4" class="edge">
<title>hidebound.core.parser&#45;&gt;hidebound.core.database_tools</title>
<path fill="none" stroke="#b6ecf3" d="M410.5915,-540.9636C436.1585,-563.2122 481.2573,-602.0152 521,-633.9354 655.917,-742.2972 821.5733,-865.2751 891.1931,-916.5168"/>
<polygon fill="#b6ecf3" stroke="#b6ecf3" points="889.4593,-919.5863 899.589,-922.6912 893.6065,-913.9471 889.4593,-919.5863"/>
</g>
<!-- hidebound.core.specification_base -->
<g id="node7" class="node">
<title>hidebound.core.specification_base</title>
<polygon fill="#343434" stroke="#343434" points="1069,-586.9354 780,-586.9354 780,-550.9354 1069,-550.9354 1069,-586.9354"/>
<text text-anchor="middle" x="924.5" y="-565.2354" font-family="Courier,monospace" font-size="14.00" fill="#b6ecf3">hidebound.core.specification_base</text>
</g>
<!-- hidebound.core.parser&#45;&gt;hidebound.core.specification_base -->
<g id="edge5" class="edge">
<title>hidebound.core.parser&#45;&gt;hidebound.core.specification_base</title>
<path fill="none" stroke="#b6ecf3" d="M485.0653,-511.575C497.1451,-510.4851 509.3515,-509.5561 521,-508.9354 619.9707,-503.662 650.2535,-476.7703 744,-508.9354 763.1726,-515.5137 761.6565,-528.3111 780,-536.9354 788.807,-541.0761 798.171,-544.692 807.7344,-547.8478"/>
<polygon fill="#b6ecf3" stroke="#b6ecf3" points="806.7622,-551.2108 817.3509,-550.8526 808.8499,-544.5294 806.7622,-551.2108"/>
</g>
<!-- hidebound.core.validators -->
<g id="node12" class="node">
<title>hidebound.core.validators</title>
<polygon fill="#343434" stroke="#343434" points="744,-418.9354 521,-418.9354 521,-382.9354 744,-382.9354 744,-418.9354"/>
<text text-anchor="middle" x="632.5" y="-397.2354" font-family="Courier,monospace" font-size="14.00" fill="#b6ecf3">hidebound.core.validators</text>
</g>
<!-- hidebound.core.parser&#45;&gt;hidebound.core.validators -->
<g id="edge6" class="edge">
<title>hidebound.core.parser&#45;&gt;hidebound.core.validators</title>
<path fill="none" stroke="#b6ecf3" d="M450.3425,-504.8703C462.0262,-500.7428 474.038,-496.0478 485,-490.9354 496.2791,-485.6752 554.9167,-449.4155 594.7738,-424.5569"/>
<polygon fill="#b6ecf3" stroke="#b6ecf3" points="596.8367,-427.3951 603.4662,-419.1307 593.1299,-421.4571 596.8367,-427.3951"/>
</g>
<!-- hidebound.core.specification_base&#45;&gt;hidebound.core.config -->
<g id="edge7" class="edge">
<title>hidebound.core.specification_base&#45;&gt;hidebound.core.config</title>
<path fill="none" stroke="#b6ecf3" d="M1053.5852,-586.9838C1084.9625,-591.3709 1118.1444,-596.0103 1148.266,-600.2219"/>
<polygon fill="#b6ecf3" stroke="#b6ecf3" points="1147.9685,-603.7142 1158.3568,-601.6328 1148.9378,-596.7817 1147.9685,-603.7142"/>
</g>
<!-- hidebound.core.specification_base&#45;&gt;hidebound.core.database -->
<g id="edge8" class="edge">
<title>hidebound.core.specification_base&#45;&gt;hidebound.core.database</title>
<path fill="none" stroke="#b6ecf3" d="M982.5404,-550.8375C1081.4002,-523.9599 1283.2595,-486.799 1402,-587.9354 1463.4454,-640.2712 1394.0269,-698.2529 1438,-765.9354 1457.2182,-795.5158 1489.7029,-818.4394 1517.1369,-833.8797"/>
<polygon fill="#b6ecf3" stroke="#b6ecf3" points="1515.7645,-837.1177 1526.2204,-838.8279 1519.1132,-830.9706 1515.7645,-837.1177"/>
</g>
<!-- hidebound.core.specification_base&#45;&gt;hidebound.core.database_test_base -->
<g id="edge9" class="edge">
<title>hidebound.core.specification_base&#45;&gt;hidebound.core.database_test_base</title>
<path fill="none" stroke="#b6ecf3" d="M966.5023,-550.9345C1026.6852,-525.1418 1137.3344,-477.7207 1202.2533,-449.8983"/>
<polygon fill="#b6ecf3" stroke="#b6ecf3" points="1203.6755,-453.0967 1211.4883,-445.9405 1200.9181,-446.6627 1203.6755,-453.0967"/>
</g>
<!-- hidebound.core.specifications -->
<g id="node8" class="node">
<title>hidebound.core.specifications</title>
<polygon fill="#343434" stroke="#343434" points="1381.5,-369.9354 1125.5,-369.9354 1125.5,-333.9354 1381.5,-333.9354 1381.5,-369.9354"/>
<text text-anchor="middle" x="1253.5" y="-348.2354" font-family="Courier,monospace" font-size="14.00" fill="#b6ecf3">hidebound.core.specifications</text>
</g>
<!-- hidebound.core.specification_base&#45;&gt;hidebound.core.specifications -->
<g id="edge10" class="edge">
<title>hidebound.core.specification_base&#45;&gt;hidebound.core.specifications</title>
<path fill="none" stroke="#b6ecf3" d="M939.2151,-550.7976C967.7511,-516.7414 1034.0696,-442.8894 1105,-400.9354 1124.3517,-389.4893 1146.7238,-380.3208 1168.1369,-373.1542"/>
<polygon fill="#b6ecf3" stroke="#b6ecf3" points="1169.4543,-376.4068 1177.8936,-370.0014 1167.3018,-369.746 1169.4543,-376.4068"/>
</g>
<!-- hidebound.core.test_specifications -->
<g id="node9" class="node">
<title>hidebound.core.test_specifications</title>
<polygon fill="#343434" stroke="#343434" points="1402,-315.9354 1105,-315.9354 1105,-279.9354 1402,-279.9354 1402,-315.9354"/>
<text text-anchor="middle" x="1253.5" y="-294.2354" font-family="Courier,monospace" font-size="14.00" fill="#b6ecf3">hidebound.core.test_specifications</text>
</g>
<!-- hidebound.core.specification_base&#45;&gt;hidebound.core.test_specifications -->
<g id="edge11" class="edge">
<title>hidebound.core.specification_base&#45;&gt;hidebound.core.test_specifications</title>
<path fill="none" stroke="#b6ecf3" d="M932.0695,-550.8778C952.4227,-504.744 1013.0776,-382.166 1105,-324.9354 1107.5025,-323.3774 1110.0719,-321.9041 1112.6974,-320.5112"/>
<polygon fill="#b6ecf3" stroke="#b6ecf3" points="1114.3586,-323.5954 1121.8248,-316.0784 1111.3005,-317.2987 1114.3586,-323.5954"/>
</g>
<!-- hidebound.core.tools -->
<g id="node10" class="node">
<title>hidebound.core.tools</title>
<polygon fill="#343434" stroke="#343434" points="723.5,-868.9354 541.5,-868.9354 541.5,-832.9354 723.5,-832.9354 723.5,-868.9354"/>
<text text-anchor="middle" x="632.5" y="-847.2354" font-family="Courier,monospace" font-size="14.00" fill="#b6ecf3">hidebound.core.tools</text>
</g>
<!-- hidebound.core.tools&#45;&gt;hidebound.core.database -->
<g id="edge12" class="edge">
<title>hidebound.core.tools&#45;&gt;hidebound.core.database</title>
<path fill="none" stroke="#b6ecf3" d="M723.7076,-851.5217C895.2304,-852.6241 1265.3802,-855.0032 1452.6163,-856.2067"/>
<polygon fill="#b6ecf3" stroke="#b6ecf3" points="1452.7407,-859.7075 1462.763,-856.2719 1452.7857,-852.7076 1452.7407,-859.7075"/>
</g>
<!-- hidebound.core.tools&#45;&gt;hidebound.core.database_tools -->
<g id="edge13" class="edge">
<title>hidebound.core.tools&#45;&gt;hidebound.core.database_tools</title>
<path fill="none" stroke="#b6ecf3" d="M691.2393,-869.04C738.8595,-883.7175 806.0425,-904.4246 856.0854,-919.8488"/>
<polygon fill="#b6ecf3" stroke="#b6ecf3" points="855.2673,-923.259 865.8546,-922.8598 857.3291,-916.5695 855.2673,-923.259"/>
</g>
<!-- hidebound.core.tools&#45;&gt;hidebound.core.specification_base -->
<g id="edge14" class="edge">
<title>hidebound.core.tools&#45;&gt;hidebound.core.specification_base</title>
<path fill="none" stroke="#b6ecf3" d="M651.2101,-832.8661C701.5646,-784.2361 840.068,-650.4759 898.2343,-594.3017"/>
<polygon fill="#b6ecf3" stroke="#b6ecf3" points="900.806,-596.6838 905.5678,-587.2193 895.9432,-591.6485 900.806,-596.6838"/>
</g>
<!-- hidebound.server.server_tools -->
<g id="node16" class="node">
<title>hidebound.server.server_tools</title>
<polygon fill="#343434" stroke="#343434" points="1694,-756.9354 1438,-756.9354 1438,-720.9354 1694,-720.9354 1694,-756.9354"/>
<text text-anchor="middle" x="1566" y="-735.2354" font-family="Courier,monospace" font-size="14.00" fill="#b6ecf3">hidebound.server.server_tools</text>
</g>
<!-- hidebound.core.tools&#45;&gt;hidebound.server.server_tools -->
<g id="edge15" class="edge">
<title>hidebound.core.tools&#45;&gt;hidebound.server.server_tools</title>
<path fill="none" stroke="#b6ecf3" d="M723.7076,-839.9925C887.9605,-820.2857 1234.36,-778.7251 1427.8521,-755.5102"/>
<polygon fill="#b6ecf3" stroke="#b6ecf3" points="1428.2926,-758.9826 1437.8044,-754.3162 1427.4587,-752.0324 1428.2926,-758.9826"/>
</g>
<!-- hidebound.core.traits -->
<g id="node11" class="node">
<title>hidebound.core.traits</title>
<polygon fill="#343434" stroke="#343434" points="1019.5,-152.9354 829.5,-152.9354 829.5,-116.9354 1019.5,-116.9354 1019.5,-152.9354"/>
<text text-anchor="middle" x="924.5" y="-131.2354" font-family="Courier,monospace" font-size="14.00" fill="#b6ecf3">hidebound.core.traits</text>
</g>
<!-- hidebound.core.traits&#45;&gt;hidebound.core.database_test_base -->
<g id="edge16" class="edge">
<title>hidebound.core.traits&#45;&gt;hidebound.core.database_test_base</title>
<path fill="none" stroke="#b6ecf3" d="M960.906,-152.9631C993.9826,-171.1957 1041.6604,-202.4424 1069,-242.9354 1103.9877,-294.7562 1062.1321,-333.4176 1105,-378.9354 1115.6879,-390.2841 1129.0525,-399.0069 1143.3553,-405.7109"/>
<polygon fill="#b6ecf3" stroke="#b6ecf3" points="1142.3037,-409.0696 1152.8711,-409.8322 1145.0857,-402.6462 1142.3037,-409.0696"/>
</g>
<!-- hidebound.core.traits&#45;&gt;hidebound.core.specifications -->
<g id="edge17" class="edge">
<title>hidebound.core.traits&#45;&gt;hidebound.core.specifications</title>
<path fill="none" stroke="#b6ecf3" d="M957.9781,-153.0856C990.0877,-171.9279 1038.1219,-204.0663 1069,-242.9354 1093.7577,-274.1004 1073.7648,-300.2664 1105,-324.9354 1108.626,-327.7992 1112.457,-330.3965 1116.4476,-332.7506"/>
<polygon fill="#b6ecf3" stroke="#b6ecf3" points="1114.9486,-335.9176 1125.4209,-337.5244 1118.2363,-329.7377 1114.9486,-335.9176"/>
</g>
<!-- hidebound.core.traits&#45;&gt;hidebound.core.test_specifications -->
<g id="edge18" class="edge">
<title>hidebound.core.traits&#45;&gt;hidebound.core.test_specifications</title>
<path fill="none" stroke="#b6ecf3" d="M1019.7306,-141.6936C1037.7128,-146.7143 1055.1864,-154.6294 1069,-166.9354 1105.5223,-199.4718 1067.8648,-239.1004 1105,-270.9354 1106.3335,-272.0787 1107.699,-273.1805 1109.0939,-274.2424"/>
<polygon fill="#b6ecf3" stroke="#b6ecf3" points="1107.1523,-277.1547 1117.3862,-279.8966 1111.0959,-271.3712 1107.1523,-277.1547"/>
</g>
<!-- hidebound.core.validators&#45;&gt;hidebound.core.config -->
<g id="edge19" class="edge">
<title>hidebound.core.validators&#45;&gt;hidebound.core.config</title>
<path fill="none" stroke="#b6ecf3" d="M721.0232,-419.0255C729.2525,-422.8136 737.0846,-427.3949 744,-432.9354 770.0762,-453.8275 752.6048,-479.8057 780,-498.9354 886.4696,-573.2821 943.581,-508.2711 1069,-541.9354 1116.9487,-554.8056 1169.3849,-576.3212 1206.0592,-592.6688"/>
<polygon fill="#b6ecf3" stroke="#b6ecf3" points="1204.9435,-596.0048 1215.4989,-596.9178 1207.8167,-589.6216 1204.9435,-596.0048"/>
</g>
<!-- hidebound.core.validators&#45;&gt;hidebound.core.database_test_base -->
<g id="edge20" class="edge">
<title>hidebound.core.validators&#45;&gt;hidebound.core.database_test_base</title>
<path fill="none" stroke="#b6ecf3" d="M741.8528,-418.9552C754.683,-420.562 767.6114,-421.9508 780,-422.9354 886.2502,-431.3799 1006.328,-432.5534 1098.9754,-431.6548"/>
<polygon fill="#b6ecf3" stroke="#b6ecf3" points="1099.0293,-435.1545 1108.9915,-431.5486 1098.9549,-428.1549 1099.0293,-435.1545"/>
</g>
<!-- hidebound.core.validators&#45;&gt;hidebound.core.specification_base -->
<g id="edge21" class="edge">
<title>hidebound.core.validators&#45;&gt;hidebound.core.specification_base</title>
<path fill="none" stroke="#b6ecf3" d="M724.196,-419.0016C731.4106,-422.8037 738.1528,-427.3944 744,-432.9354 779.5039,-466.5802 743.4777,-504.3991 780,-536.9354 783.6453,-540.1829 787.5454,-543.1245 791.6425,-545.7879"/>
<polygon fill="#b6ecf3" stroke="#b6ecf3" points="789.914,-548.8317 800.3104,-550.8729 793.456,-542.7939 789.914,-548.8317"/>
</g>
<!-- hidebound.core.validators&#45;&gt;hidebound.core.specifications -->
<g id="edge22" class="edge">
<title>hidebound.core.validators&#45;&gt;hidebound.core.specifications</title>
<path fill="none" stroke="#b6ecf3" d="M744.2396,-392.1186C848.2181,-383.9142 1003.4985,-371.6618 1115.2418,-362.8447"/>
<polygon fill="#b6ecf3" stroke="#b6ecf3" points="1115.5441,-366.3318 1125.2378,-362.056 1114.9934,-359.3535 1115.5441,-366.3318"/>
</g>
<!-- hidebound.core.validators&#45;&gt;hidebound.core.test_specifications -->
<g id="edge23" class="edge">
<title>hidebound.core.validators&#45;&gt;hidebound.core.test_specifications</title>
<path fill="none" stroke="#b6ecf3" d="M708.4572,-382.9018C720.3691,-379.97 732.5303,-376.9163 744,-373.9354 760.0719,-369.7586 763.741,-367.3113 780,-363.9354 884.0884,-342.3236 1002.5495,-325.8162 1094.9454,-314.7155"/>
<polygon fill="#b6ecf3" stroke="#b6ecf3" points="1095.4244,-318.1832 1104.9396,-313.5236 1094.5954,-311.2325 1095.4244,-318.1832"/>
</g>
<!-- hidebound.server.app -->
<g id="node14" class="node">
<title>hidebound.server.app</title>
<polygon fill="#343434" stroke="#343434" points="2187,-756.9354 2005,-756.9354 2005,-720.9354 2187,-720.9354 2187,-756.9354"/>
<text text-anchor="middle" x="2096" y="-735.2354" font-family="Courier,monospace" font-size="14.00" fill="#b6ecf3">hidebound.server.app</text>
</g>
<!-- hidebound.server.api&#45;&gt;hidebound.server.app -->
<g id="edge24" class="edge">
<title>hidebound.server.api&#45;&gt;hidebound.server.app</title>
<path fill="none" stroke="#b6ecf3" d="M1940.5872,-767.9374C1958.2918,-764.6335 1976.9485,-761.152 1994.9516,-757.7923"/>
<polygon fill="#b6ecf3" stroke="#b6ecf3" points="1995.6877,-761.2155 2004.8759,-755.9403 1994.4035,-754.3343 1995.6877,-761.2155"/>
</g>
<!-- hidebound.server.components -->
<g id="node15" class="node">
<title>hidebound.server.components</title>
<polygon fill="#343434" stroke="#343434" points="1969,-1210.9354 1730,-1210.9354 1730,-1174.9354 1969,-1174.9354 1969,-1210.9354"/>
<text text-anchor="middle" x="1849.5" y="-1189.2354" font-family="Courier,monospace" font-size="14.00" fill="#b6ecf3">hidebound.server.components</text>
</g>
<!-- hidebound.server.components&#45;&gt;hidebound.server.app -->
<g id="edge25" class="edge">
<title>hidebound.server.components&#45;&gt;hidebound.server.app</title>
<path fill="none" stroke="#b6ecf3" d="M1875.7353,-1174.9082C1902.5036,-1155.3065 1943.6145,-1121.6843 1969,-1083.9354 2039.727,-978.7628 2077.1449,-829.1675 2090.3726,-767.3483"/>
<polygon fill="#b6ecf3" stroke="#b6ecf3" points="2093.8756,-767.6956 2092.4956,-757.1911 2087.0237,-766.2634 2093.8756,-767.6956"/>
</g>
<!-- hidebound.server.server_tools&#45;&gt;hidebound.server.api -->
<g id="edge26" class="edge">
<title>hidebound.server.server_tools&#45;&gt;hidebound.server.api</title>
<path fill="none" stroke="#b6ecf3" d="M1677.233,-756.9838C1700.6103,-760.777 1725.15,-764.7587 1748.1427,-768.4895"/>
<polygon fill="#b6ecf3" stroke="#b6ecf3" points="1747.8083,-771.9809 1758.2398,-770.1278 1748.9295,-765.0713 1747.8083,-771.9809"/>
</g>
<!-- hidebound.server.server_tools&#45;&gt;hidebound.server.app -->
<g id="edge27" class="edge">
<title>hidebound.server.server_tools&#45;&gt;hidebound.server.app</title>
<path fill="none" stroke="#b6ecf3" d="M1694.2982,-738.9354C1786.5896,-738.9354 1909.3436,-738.9354 1994.7615,-738.9354"/>
<polygon fill="#b6ecf3" stroke="#b6ecf3" points="1994.9887,-742.4355 2004.9886,-738.9354 1994.9886,-735.4355 1994.9887,-742.4355"/>
</g>
<!-- dash -->
<g id="node17" class="node">
<title>dash</title>
<polygon fill="#343434" stroke="#343434" points="1593,-1333.9354 1539,-1333.9354 1539,-1297.9354 1593,-1297.9354 1593,-1333.9354"/>
<text text-anchor="middle" x="1566" y="-1312.2354" font-family="Courier,monospace" font-size="14.00" fill="#de958e">dash</text>
</g>
<!-- dash&#45;&gt;hidebound.server.app -->
<g id="edge28" class="edge">
<title>dash&#45;&gt;hidebound.server.app</title>
<path fill="none" stroke="#de958e" d="M1593.261,-1318.2461C1665.4398,-1322.7584 1863.2076,-1324.4337 1969,-1219.9354 2035.0513,-1154.6921 2079.7311,-859.8022 2092.3516,-766.9916"/>
<polygon fill="#de958e" stroke="#de958e" points="2095.8386,-767.3211 2093.6992,-756.9446 2088.9008,-766.3905 2095.8386,-767.3211"/>
</g>
<!-- dash&#45;&gt;hidebound.server.components -->
<g id="edge29" class="edge">
<title>dash&#45;&gt;hidebound.server.components</title>
<path fill="none" stroke="#de958e" d="M1593.2336,-1313.5093C1619.8595,-1310.3832 1661.0828,-1303.5048 1694,-1288.9354 1712.0478,-1280.9474 1713.4662,-1273.7134 1730,-1262.9354 1755.3391,-1246.4177 1784.6316,-1229.23 1807.8732,-1216.0197"/>
<polygon fill="#de958e" stroke="#de958e" points="1809.8036,-1218.949 1816.7854,-1210.98 1806.3579,-1212.8557 1809.8036,-1218.949"/>
</g>
<!-- dash_core_components -->
<g id="node18" class="node">
<title>dash_core_components</title>
<polygon fill="#343434" stroke="#343434" points="1657,-1279.9354 1475,-1279.9354 1475,-1243.9354 1657,-1243.9354 1657,-1279.9354"/>
<text text-anchor="middle" x="1566" y="-1258.2354" font-family="Courier,monospace" font-size="14.00" fill="#de958e">dash_core_components</text>
</g>
<!-- dash_core_components&#45;&gt;hidebound.server.components -->
<g id="edge30" class="edge">
<title>dash_core_components&#45;&gt;hidebound.server.components</title>
<path fill="none" stroke="#de958e" d="M1640.116,-1243.8966C1678.5316,-1234.5468 1725.6035,-1223.0902 1765.3792,-1213.4093"/>
<polygon fill="#de958e" stroke="#de958e" points="1766.4361,-1216.7543 1775.3247,-1210.9887 1764.7807,-1209.9529 1766.4361,-1216.7543"/>
</g>
<!-- hidebound.server -->
<g id="node19" class="node">
<title>hidebound.server</title>
<polygon fill="#343434" stroke="#343434" points="1328,-1164.9354 1179,-1164.9354 1179,-1128.9354 1328,-1128.9354 1328,-1164.9354"/>
<text text-anchor="middle" x="1253.5" y="-1143.2354" font-family="Courier,monospace" font-size="14.00" fill="#a0d17b">hidebound.server</text>
</g>
<!-- hidebound.server&#45;&gt;hidebound.server.api -->
<g id="edge31" class="edge">
<title>hidebound.server&#45;&gt;hidebound.server.api</title>
<path fill="none" stroke="#a0d17b" d="M1328.1525,-1142.7167C1353.4094,-1138.3484 1380.6062,-1130.1309 1402,-1114.9354 1427.0438,-1097.1475 1412.7192,-1073.385 1438,-1055.9354 1533.2698,-990.1771 1596.7675,-1070.7553 1694,-1007.9354 1769.1332,-959.3935 1818.2459,-860.5064 1838.6871,-812.4202"/>
<polygon fill="#a0d17b" stroke="#a0d17b" points="1842.0101,-813.5443 1842.6129,-802.9666 1835.5453,-810.8596 1842.0101,-813.5443"/>
</g>
<!-- hidebound.server&#45;&gt;hidebound.server.app -->
<g id="edge32" class="edge">
<title>hidebound.server&#45;&gt;hidebound.server.app</title>
<path fill="none" stroke="#a0d17b" d="M1328.2887,-1137.0523C1352.4831,-1132.2335 1378.9911,-1125.1793 1402,-1114.9354 1420.0303,-1106.9081 1419.7905,-1096.5475 1438,-1088.9354 1544.4454,-1044.4383 1588.1584,-1091.8504 1694,-1045.9354 1857.0136,-975.2188 2013.4816,-824.4938 2071.9083,-764.4201"/>
<polygon fill="#a0d17b" stroke="#a0d17b" points="2074.4301,-766.8473 2078.8598,-757.2229 2069.3951,-761.9842 2074.4301,-766.8473"/>
</g>
<!-- hidebound.server&#45;&gt;hidebound.server.components -->
<g id="edge33" class="edge">
<title>hidebound.server&#45;&gt;hidebound.server.components</title>
<path fill="none" stroke="#a0d17b" d="M1305.6294,-1165.0335C1342.173,-1176.7337 1392.4383,-1190.8711 1438,-1196.9354 1550.7831,-1211.947 1580.2316,-1198.3985 1694,-1196.9354 1702.3457,-1196.8281 1710.9427,-1196.6884 1719.6087,-1196.5257"/>
<polygon fill="#a0d17b" stroke="#a0d17b" points="1719.8736,-1200.0213 1729.8026,-1196.3247 1719.7355,-1193.0226 1719.8736,-1200.0213"/>
</g>
<!-- hidebound.server&#45;&gt;hidebound.server.server_tools -->
<g id="edge34" class="edge">
<title>hidebound.server&#45;&gt;hidebound.server.server_tools</title>
<path fill="none" stroke="#a0d17b" d="M1268.3145,-1128.7902C1297.1832,-1092.7446 1361.667,-1008.7802 1402,-929.9354 1423.5126,-887.8817 1409.4445,-867.5638 1438,-829.9354 1459.7687,-801.2502 1493.144,-777.9425 1520.3564,-762.0984"/>
<polygon fill="#a0d17b" stroke="#a0d17b" points="1522.3504,-764.9914 1529.323,-757.0144 1518.8977,-758.9021 1522.3504,-764.9914"/>
</g>
<!-- dash.dependencies -->
<g id="node20" class="node">
<title>dash.dependencies</title>
<polygon fill="#343434" stroke="#343434" points="1928,-672.9354 1771,-672.9354 1771,-636.9354 1928,-636.9354 1928,-672.9354"/>
<text text-anchor="middle" x="1849.5" y="-651.2354" font-family="Courier,monospace" font-size="14.00" fill="#de958e">dash.dependencies</text>
</g>
<!-- dash.dependencies&#45;&gt;hidebound.server.app -->
<g id="edge35" class="edge">
<title>dash.dependencies&#45;&gt;hidebound.server.app</title>
<path fill="none" stroke="#de958e" d="M1922.6146,-672.9355C1938.0419,-677.1731 1954.1429,-681.9271 1969,-686.9354 1994.8952,-695.6647 2023.0799,-707.0102 2046.3045,-716.8753"/>
<polygon fill="#de958e" stroke="#de958e" points="2045.0322,-720.1378 2055.6026,-720.8579 2047.7884,-713.7032 2045.0322,-720.1378"/>
</g>
<!-- dash_html_components -->
<g id="node21" class="node">
<title>dash_html_components</title>
<polygon fill="#343434" stroke="#343434" points="1657,-1187.9354 1475,-1187.9354 1475,-1151.9354 1657,-1151.9354 1657,-1187.9354"/>
<text text-anchor="middle" x="1566" y="-1166.2354" font-family="Courier,monospace" font-size="14.00" fill="#de958e">dash_html_components</text>
</g>
<!-- dash_html_components&#45;&gt;hidebound.server.components -->
<g id="edge36" class="edge">
<title>dash_html_components&#45;&gt;hidebound.server.components</title>
<path fill="none" stroke="#de958e" d="M1657.2617,-1177.3394C1677.2441,-1178.9605 1698.7663,-1180.7066 1719.924,-1182.4231"/>
<polygon fill="#de958e" stroke="#de958e" points="1719.691,-1185.9156 1729.9413,-1183.2358 1720.2571,-1178.9385 1719.691,-1185.9156"/>
</g>
<!-- dash_table -->
<g id="node22" class="node">
<title>dash_table</title>
<polygon fill="#343434" stroke="#343434" points="1615.5,-1133.9354 1516.5,-1133.9354 1516.5,-1097.9354 1615.5,-1097.9354 1615.5,-1133.9354"/>
<text text-anchor="middle" x="1566" y="-1112.2354" font-family="Courier,monospace" font-size="14.00" fill="#de958e">dash_table</text>
</g>
<!-- dash_table&#45;&gt;hidebound.server.components -->
<g id="edge37" class="edge">
<title>dash_table&#45;&gt;hidebound.server.components</title>
<path fill="none" stroke="#de958e" d="M1615.5149,-1125.141C1639.3741,-1129.8916 1668.3175,-1136.1172 1694,-1142.9354 1725.3826,-1151.267 1759.7997,-1162.148 1788.2589,-1171.6312"/>
<polygon fill="#de958e" stroke="#de958e" points="1787.4681,-1175.0576 1798.062,-1174.9208 1789.695,-1168.4213 1787.4681,-1175.0576"/>
</g>
<!-- dash.exceptions -->
<g id="node23" class="node">
<title>dash.exceptions</title>
<polygon fill="#343434" stroke="#343434" points="1919.5,-618.9354 1779.5,-618.9354 1779.5,-582.9354 1919.5,-582.9354 1919.5,-618.9354"/>
<text text-anchor="middle" x="1849.5" y="-597.2354" font-family="Courier,monospace" font-size="14.00" fill="#de958e">dash.exceptions</text>
</g>
<!-- dash.exceptions&#45;&gt;hidebound.server.app -->
<g id="edge38" class="edge">
<title>dash.exceptions&#45;&gt;hidebound.server.app</title>
<path fill="none" stroke="#de958e" d="M1919.7752,-610.741C1936.4731,-614.6978 1953.8313,-620.2257 1969,-627.9354 2011.1103,-649.3388 2050.5775,-687.8422 2074.0123,-713.3968"/>
<polygon fill="#de958e" stroke="#de958e" points="2071.4608,-715.7936 2080.7557,-720.8785 2076.6605,-711.1071 2071.4608,-715.7936"/>
</g>
<!-- flask -->
<g id="node24" class="node">
<title>flask</title>
<polygon fill="#343434" stroke="#343434" points="1282.5,-207.9354 1224.5,-207.9354 1224.5,-171.9354 1282.5,-171.9354 1282.5,-207.9354"/>
<text text-anchor="middle" x="1253.5" y="-186.2354" font-family="Courier,monospace" font-size="14.00" fill="#de958e">flask</text>
</g>
<!-- flask&#45;&gt;hidebound.server.api -->
<g id="edge39" class="edge">
<title>flask&#45;&gt;hidebound.server.api</title>
<path fill="none" stroke="#de958e" d="M1282.7064,-185.8125C1316.7764,-182.8282 1372.2228,-183.9799 1402,-216.9354 1470.296,-292.5211 1368.4851,-599.4693 1438,-673.9354 1477.2456,-715.9763 1638.9411,-695.3169 1694,-711.9354 1734.7523,-724.2358 1778.4013,-745.5133 1809.0483,-761.9336"/>
<polygon fill="#de958e" stroke="#de958e" points="1807.6656,-765.1654 1818.1244,-766.8584 1811.0041,-759.0128 1807.6656,-765.1654"/>
</g>
<!-- flask&#45;&gt;hidebound.server.app -->
<g id="edge40" class="edge">
<title>flask&#45;&gt;hidebound.server.app</title>
<path fill="none" stroke="#de958e" d="M1282.576,-191.9334C1313.1758,-194.7829 1362.3139,-201.5021 1402,-216.9354 1679.5424,-324.8674 1748.7631,-373.4989 1969,-573.9354 2015.6287,-616.372 2057.6711,-677.5732 2079.7325,-712.2721"/>
<polygon fill="#de958e" stroke="#de958e" points="2076.8739,-714.3013 2085.1572,-720.9071 2082.8013,-710.5776 2076.8739,-714.3013"/>
</g>
<!-- flask&#45;&gt;hidebound.server.server_tools -->
<g id="edge41" class="edge">
<title>flask&#45;&gt;hidebound.server.server_tools</title>
<path fill="none" stroke="#de958e" d="M1282.7362,-185.7856C1316.8352,-182.7752 1372.3098,-183.9015 1402,-216.9354 1474.9844,-298.1393 1367.6981,-623.3985 1438,-706.9354 1440.3576,-709.7368 1442.9197,-712.3132 1445.6518,-714.6816"/>
<polygon fill="#de958e" stroke="#de958e" points="1443.6843,-717.5818 1453.7721,-720.8201 1447.9055,-711.9977 1443.6843,-717.5818"/>
</g>
<!-- jinja2 -->
<g id="node25" class="node">
<title>jinja2</title>
<polygon fill="#343434" stroke="#343434" points="1286.5,-261.9354 1220.5,-261.9354 1220.5,-225.9354 1286.5,-225.9354 1286.5,-261.9354"/>
<text text-anchor="middle" x="1253.5" y="-240.2354" font-family="Courier,monospace" font-size="14.00" fill="#de958e">jinja2</text>
</g>
<!-- jinja2&#45;&gt;hidebound.server.server_tools -->
<g id="edge42" class="edge">
<title>jinja2&#45;&gt;hidebound.server.server_tools</title>
<path fill="none" stroke="#de958e" d="M1286.694,-239.5103C1320.9478,-237.0026 1373.305,-239.2977 1402,-270.9354 1467.3133,-342.9467 1375.0657,-632.836 1438,-706.9354 1440.3702,-709.7262 1442.9434,-712.2931 1445.6851,-714.6534"/>
<polygon fill="#de958e" stroke="#de958e" points="1443.7316,-717.5635 1453.8289,-720.7721 1447.9364,-711.967 1443.7316,-717.5635"/>
</g>
<!-- hidebound -->
<g id="node26" class="node">
<title>hidebound</title>
<polygon fill="#343434" stroke="#343434" points="91,-816.9354 0,-816.9354 0,-780.9354 91,-780.9354 91,-816.9354"/>
<text text-anchor="middle" x="45.5" y="-795.2354" font-family="Courier,monospace" font-size="14.00" fill="#a0d17b">hidebound</text>
</g>
<!-- hidebound&#45;&gt;hidebound.server -->
<g id="edge43" class="edge">
<title>hidebound&#45;&gt;hidebound.server</title>
<path fill="none" stroke="#a0d17b" d="M52.7852,-816.946C82.7318,-887.7266 203.6304,-1142.9354 390,-1142.9354 390,-1142.9354 390,-1142.9354 632.5,-1142.9354 824.2133,-1142.9354 1049.2115,-1144.8653 1168.7596,-1146.0441"/>
<polygon fill="#a0d17b" stroke="#a0d17b" points="1168.9061,-1149.5456 1178.9404,-1146.1452 1168.9757,-1142.546 1168.9061,-1149.5456"/>
</g>
<!-- hidebound.core -->
<g id="node29" class="node">
<title>hidebound.core</title>
<polygon fill="#343434" stroke="#343434" points="259,-471.9354 127,-471.9354 127,-435.9354 259,-435.9354 259,-471.9354"/>
<text text-anchor="middle" x="193" y="-450.2354" font-family="Courier,monospace" font-size="14.00" fill="#a0d17b">hidebound.core</text>
</g>
<!-- hidebound&#45;&gt;hidebound.core -->
<g id="edge44" class="edge">
<title>hidebound&#45;&gt;hidebound.core</title>
<path fill="none" stroke="#a0d17b" d="M83.2789,-780.6312C86.2273,-778.0485 88.8778,-775.1572 91,-771.9354 159.0492,-668.628 60.5692,-600.2909 127,-495.9354 131.359,-489.088 137.2799,-483.1486 143.7958,-478.0665"/>
<polygon fill="#a0d17b" stroke="#a0d17b" points="146.1323,-480.702 152.2949,-472.0838 142.103,-474.978 146.1323,-480.702"/>
</g>
<!-- flasgger -->
<g id="node27" class="node">
<title>flasgger</title>
<polygon fill="#343434" stroke="#343434" points="1607.5,-664.9354 1524.5,-664.9354 1524.5,-628.9354 1607.5,-628.9354 1607.5,-664.9354"/>
<text text-anchor="middle" x="1566" y="-643.2354" font-family="Courier,monospace" font-size="14.00" fill="#de958e">flasgger</text>
</g>
<!-- flasgger&#45;&gt;hidebound.server.api -->
<g id="edge45" class="edge">
<title>flasgger&#45;&gt;hidebound.server.api</title>
<path fill="none" stroke="#de958e" d="M1607.598,-651.5551C1633.7239,-655.814 1667.3895,-663.8689 1694,-678.9354 1713.6904,-690.0839 1712.0919,-701.1043 1730,-714.9354 1753.0988,-732.7756 1781.16,-749.4357 1804.2841,-762.0238"/>
<polygon fill="#de958e" stroke="#de958e" points="1802.7424,-765.1686 1813.2086,-766.8147 1806.0533,-759.0011 1802.7424,-765.1686"/>
</g>
<!-- flasgger&#45;&gt;hidebound.server.app -->
<g id="edge46" class="edge">
<title>flasgger&#45;&gt;hidebound.server.app</title>
<path fill="none" stroke="#de958e" d="M1607.664,-656.4983C1640.7356,-663.9264 1688.1994,-674.2263 1730,-681.9354 1819.0903,-698.3662 1920.9612,-713.9742 1994.5685,-724.6895"/>
<polygon fill="#de958e" stroke="#de958e" points="1994.364,-728.1964 2004.7629,-726.1686 1995.3691,-721.2689 1994.364,-728.1964"/>
</g>
<!-- pandasql -->
<g id="node28" class="node">
<title>pandasql</title>
<polygon fill="#343434" stroke="#343434" points="1295,-920.9354 1212,-920.9354 1212,-884.9354 1295,-884.9354 1295,-920.9354"/>
<text text-anchor="middle" x="1253.5" y="-899.2354" font-family="Courier,monospace" font-size="14.00" fill="#de958e">pandasql</text>
</g>
<!-- pandasql&#45;&gt;hidebound.core.database -->
<g id="edge47" class="edge">
<title>pandasql&#45;&gt;hidebound.core.database</title>
<path fill="none" stroke="#de958e" d="M1295.3209,-896.7794C1335.4811,-890.8678 1397.967,-881.6699 1452.7872,-873.6004"/>
<polygon fill="#de958e" stroke="#de958e" points="1453.5433,-877.0269 1462.927,-872.1078 1452.5239,-870.1015 1453.5433,-877.0269"/>
</g>
<!-- hidebound.core&#45;&gt;hidebound.core.config -->
<g id="edge48" class="edge">
<title>hidebound.core&#45;&gt;hidebound.core.config</title>
<path fill="none" stroke="#a0d17b" d="M227.1987,-471.9578C238.0724,-478.628 249.6829,-486.8145 259,-495.9354 279.6119,-516.1134 272.3791,-532.0387 295,-549.9354 379.0377,-616.4225 415.5336,-614.9694 521,-633.9354 741.3917,-673.5687 1005.0217,-649.7153 1148.2292,-630.9437"/>
<polygon fill="#a0d17b" stroke="#a0d17b" points="1148.8778,-634.3884 1158.3298,-629.6019 1147.9559,-627.4493 1148.8778,-634.3884"/>
</g>
<!-- hidebound.core&#45;&gt;hidebound.core.database -->
<g id="edge49" class="edge">
<title>hidebound.core&#45;&gt;hidebound.core.database</title>
<path fill="none" stroke="#a0d17b" d="M233.6538,-472.1166C243.3906,-478.3277 252.7622,-486.2213 259,-495.9354 322.0336,-594.0978 210.1416,-675.8846 295,-755.9354 336.8419,-795.4069 1148.8887,-837.376 1452.6339,-851.7568"/>
<polygon fill="#a0d17b" stroke="#a0d17b" points="1452.6312,-855.2605 1462.7852,-852.2361 1452.9614,-848.2683 1452.6312,-855.2605"/>
</g>
<!-- hidebound.core&#45;&gt;hidebound.core.database_test_base -->
<g id="edge50" class="edge">
<title>hidebound.core&#45;&gt;hidebound.core.database_test_base</title>
<path fill="none" stroke="#a0d17b" d="M201.4346,-435.6002C215.8899,-406.6315 248.4109,-351.1824 295,-327.9354 384.9333,-283.0608 420.5084,-321.7135 521,-319.9354 765.266,-315.6135 833.8678,-296.6227 1069,-362.9354 1085.8517,-367.688 1088.6661,-372.6289 1105,-378.9354 1130.6003,-388.8199 1159.1363,-398.538 1184.2983,-406.6801"/>
<polygon fill="#a0d17b" stroke="#a0d17b" points="1183.5342,-410.1107 1194.1255,-409.8359 1185.6746,-403.4459 1183.5342,-410.1107"/>
</g>
<!-- hidebound.core&#45;&gt;hidebound.core.database_tools -->
<g id="edge51" class="edge">
<title>hidebound.core&#45;&gt;hidebound.core.database_tools</title>
<path fill="none" stroke="#a0d17b" d="M234.4142,-472.0781C244.0243,-478.2573 253.1434,-486.1448 259,-495.9354 314.4795,-588.6828 215.802,-907.3982 295,-980.9354 330.1292,-1013.5538 611.7072,-982.8375 786.1634,-960.1666"/>
<polygon fill="#a0d17b" stroke="#a0d17b" points="786.7371,-963.6215 796.1996,-958.8559 785.8306,-956.6804 786.7371,-963.6215"/>
</g>
<!-- hidebound.core&#45;&gt;hidebound.core.parser -->
<g id="edge52" class="edge">
<title>hidebound.core&#45;&gt;hidebound.core.parser</title>
<path fill="none" stroke="#a0d17b" d="M244.5021,-471.9743C270.2916,-481.0071 301.6954,-492.0064 328.7178,-501.4711"/>
<polygon fill="#a0d17b" stroke="#a0d17b" points="327.8619,-504.8798 338.4567,-504.8822 330.1759,-498.2733 327.8619,-504.8798"/>
</g>
<!-- hidebound.core&#45;&gt;hidebound.core.specification_base -->
<g id="edge53" class="edge">
<title>hidebound.core&#45;&gt;hidebound.core.specification_base</title>
<path fill="none" stroke="#a0d17b" d="M259.035,-441.9812C367.2573,-425.7973 586.1091,-407.6054 744,-489.9354 766.7105,-501.7775 758.3484,-521.253 780,-534.9354 787.4397,-539.6369 795.4657,-543.689 803.7894,-547.1814"/>
<polygon fill="#a0d17b" stroke="#a0d17b" points="802.7098,-550.5171 813.298,-550.8914 805.2542,-543.9959 802.7098,-550.5171"/>
</g>
<!-- hidebound.core&#45;&gt;hidebound.core.specifications -->
<g id="edge54" class="edge">
<title>hidebound.core&#45;&gt;hidebound.core.specifications</title>
<path fill="none" stroke="#a0d17b" d="M193.9667,-435.9054C197.6324,-386.6175 214.9155,-248.7335 295,-179.9354 372.8208,-113.0822 419.5682,-148.3312 521,-132.9354 641.524,-114.6418 976.0139,-29.1047 1069,-107.9354 1143.5712,-171.1546 1036.4075,-255.2748 1105,-324.9354 1108.5478,-328.5385 1112.4045,-331.7517 1116.5033,-334.6135"/>
<polygon fill="#a0d17b" stroke="#a0d17b" points="1114.8882,-337.7297 1125.2356,-340.0063 1118.5664,-331.7739 1114.8882,-337.7297"/>
</g>
<!-- hidebound.core&#45;&gt;hidebound.core.test_specifications -->
<g id="edge55" class="edge">
<title>hidebound.core&#45;&gt;hidebound.core.test_specifications</title>
<path fill="none" stroke="#a0d17b" d="M196.3117,-435.5145C207.8063,-373.6318 247.8634,-174.7445 295,-132.9354 371.4924,-65.0884 419.5993,-103.0585 521,-89.9354 762.6714,-58.6589 881.978,84.289 1069,-71.9354 1137.9801,-129.5564 1041.4733,-207.3526 1105,-270.9354 1105.8103,-271.7464 1106.6362,-272.5376 1107.4771,-273.3094"/>
<polygon fill="#a0d17b" stroke="#a0d17b" points="1105.4515,-276.1727 1115.4264,-279.7437 1109.8555,-270.7316 1105.4515,-276.1727"/>
</g>
<!-- hidebound.core&#45;&gt;hidebound.core.tools -->
<g id="edge56" class="edge">
<title>hidebound.core&#45;&gt;hidebound.core.tools</title>
<path fill="none" stroke="#a0d17b" d="M233.8274,-472.0068C243.5638,-478.2181 252.8919,-486.1393 259,-495.9354 297.2123,-557.2206 243.5125,-768.2888 295,-818.9354 327.4402,-850.8458 443.8229,-855.8822 530.908,-854.8672"/>
<polygon fill="#a0d17b" stroke="#a0d17b" points="531.1591,-858.364 541.1073,-854.7195 531.0576,-851.3648 531.1591,-858.364"/>
</g>
<!-- hidebound.core&#45;&gt;hidebound.core.traits -->
<g id="edge57" class="edge">
<title>hidebound.core&#45;&gt;hidebound.core.traits</title>
<path fill="none" stroke="#a0d17b" d="M198.8047,-435.9042C210.9728,-400.9187 242.4567,-323.5324 295,-280.9354 446.7159,-157.9391 683.1997,-134.7091 818.9995,-132.4356"/>
<polygon fill="#a0d17b" stroke="#a0d17b" points="819.4516,-135.9301 829.4048,-132.2992 819.3598,-128.9307 819.4516,-135.9301"/>
</g>
<!-- hidebound.core&#45;&gt;hidebound.core.validators -->
<g id="edge58" class="edge">
<title>hidebound.core&#45;&gt;hidebound.core.validators</title>
<path fill="none" stroke="#a0d17b" d="M248.6345,-435.879C263.5514,-431.6553 279.769,-427.6127 295,-424.9354 365.8427,-412.483 446.1306,-406.4521 510.6201,-403.5487"/>
<polygon fill="#a0d17b" stroke="#a0d17b" points="510.9906,-407.036 520.8308,-403.109 510.6894,-400.0425 510.9906,-407.036"/>
</g>
<!-- numpy -->
<g id="node30" class="node">
<title>numpy</title>
<polygon fill="#343434" stroke="#343434" points="661.5,-1074.9354 603.5,-1074.9354 603.5,-1038.9354 661.5,-1038.9354 661.5,-1074.9354"/>
<text text-anchor="middle" x="632.5" y="-1053.2354" font-family="Courier,monospace" font-size="14.00" fill="#de958e">numpy</text>
</g>
<!-- numpy&#45;&gt;hidebound.core.database -->
<g id="edge59" class="edge">
<title>numpy&#45;&gt;hidebound.core.database</title>
<path fill="none" stroke="#de958e" d="M661.7377,-1054.695C784.8071,-1045.015 1260.8627,-1005.0025 1402,-954.9354 1451.4319,-937.4 1502.371,-904.1351 1534.0941,-881.2639"/>
<polygon fill="#de958e" stroke="#de958e" points="1536.5059,-883.8364 1542.5148,-875.1104 1532.3758,-878.1847 1536.5059,-883.8364"/>
</g>
<!-- numpy&#45;&gt;hidebound.core.database_test_base -->
<g id="edge60" class="edge">
<title>numpy&#45;&gt;hidebound.core.database_test_base</title>
<path fill="none" stroke="#de958e" d="M661.602,-1049.3662C684.2329,-1043.292 716.3288,-1034.265 744,-1024.9354 760.2676,-1019.4507 763.4066,-1015.3372 780,-1010.9354 842.7586,-994.2874 1024.3267,-1015.0533 1069,-967.9354 1127.3606,-906.3814 1070.3123,-665.3411 1105,-587.9354 1130.6112,-530.784 1185.036,-480.7464 1220.4033,-452.4529"/>
<polygon fill="#de958e" stroke="#de958e" points="1222.8183,-455.0065 1228.5172,-446.0749 1218.4923,-449.5032 1222.8183,-455.0065"/>
</g>
<!-- numpy&#45;&gt;hidebound.core.database_tools -->
<g id="edge61" class="edge">
<title>numpy&#45;&gt;hidebound.core.database_tools</title>
<path fill="none" stroke="#de958e" d="M661.8755,-1054.0056C685.8473,-1050.3989 719.6191,-1042.4285 744,-1024.9354 766.8387,-1008.5489 756.6679,-988.6115 780,-972.9354 785.3886,-969.315 791.1211,-966.0975 797.0771,-963.2387"/>
<polygon fill="#de958e" stroke="#de958e" points="798.8673,-966.2744 806.6031,-959.0351 796.0412,-959.8702 798.8673,-966.2744"/>
</g>
<!-- numpy&#45;&gt;hidebound.server.api -->
<g id="edge62" class="edge">
<title>numpy&#45;&gt;hidebound.server.api</title>
<path fill="none" stroke="#de958e" d="M661.7448,-1058.2186C764.9638,-1061.9953 1121.1156,-1068.6258 1402,-995.9354 1536.5637,-961.1116 1570.5268,-947.767 1694,-883.9354 1711.082,-875.1046 1713.8547,-870.3809 1730,-859.9354 1756.9888,-842.4746 1787.7107,-823.2062 1811.2458,-808.5722"/>
<polygon fill="#de958e" stroke="#de958e" points="1813.2421,-811.4525 1819.8912,-803.2039 1809.5494,-805.5057 1813.2421,-811.4525"/>
</g>
<!-- pandas -->
<g id="node31" class="node">
<title>pandas</title>
<polygon fill="#343434" stroke="#343434" points="423,-971.9354 357,-971.9354 357,-935.9354 423,-935.9354 423,-971.9354"/>
<text text-anchor="middle" x="390" y="-950.2354" font-family="Courier,monospace" font-size="14.00" fill="#de958e">pandas</text>
</g>
<!-- pandas&#45;&gt;hidebound.core.database -->
<g id="edge63" class="edge">
<title>pandas&#45;&gt;hidebound.core.database</title>
<path fill="none" stroke="#de958e" d="M401.3463,-972.2028C421.2366,-1002.2664 465.6004,-1061.1124 521,-1083.9354 612.6392,-1121.6881 645.0839,-1090.1501 744,-1083.9354 1038.4676,-1065.4347 1132.7931,-1116.6876 1402,-995.9354 1461.0203,-969.462 1515.2933,-915.1256 1544.196,-882.7864"/>
<polygon fill="#de958e" stroke="#de958e" points="1547.0079,-884.889 1550.9849,-875.0689 1541.752,-880.2655 1547.0079,-884.889"/>
</g>
<!-- pandas&#45;&gt;hidebound.core.database_test_base -->
<g id="edge64" class="edge">
<title>pandas&#45;&gt;hidebound.core.database_test_base</title>
<path fill="none" stroke="#de958e" d="M423.0357,-952.3068C487.8583,-947.9664 634.8972,-932.4092 744,-877.9354 858.0239,-821.0047 1142.3069,-539.83 1228.4002,-453.3134"/>
<polygon fill="#de958e" stroke="#de958e" points="1231.078,-455.584 1235.6436,-446.0234 1226.1124,-450.6502 1231.078,-455.584"/>
</g>
<!-- pandas&#45;&gt;hidebound.core.database_tools -->
<g id="edge65" class="edge">
<title>pandas&#45;&gt;hidebound.core.database_tools</title>
<path fill="none" stroke="#de958e" d="M423.1947,-953.8004C485.8943,-953.4711 626.0386,-952.3818 744,-948.9354 757.6244,-948.5374 771.824,-948.044 786.0111,-947.4991"/>
<polygon fill="#de958e" stroke="#de958e" points="786.4759,-950.9836 796.3309,-947.0938 786.2012,-943.989 786.4759,-950.9836"/>
</g>
<!-- pandas&#45;&gt;hidebound.core.tools -->
<g id="edge66" class="edge">
<title>pandas&#45;&gt;hidebound.core.tools</title>
<path fill="none" stroke="#de958e" d="M423.0629,-944.0115C442.0005,-937.5368 465.7505,-928.0368 485,-915.9354 503.3756,-904.3834 502.0646,-893.5449 521,-882.9354 527.9323,-879.0513 535.3764,-875.6043 543.0099,-872.5519"/>
<polygon fill="#de958e" stroke="#de958e" points="544.2663,-875.8188 552.3934,-869.0216 541.8014,-869.2671 544.2663,-875.8188"/>
</g>
<!-- humanfriendly -->
<g id="node32" class="node">
<title>humanfriendly</title>
<polygon fill="#343434" stroke="#343434" points="452,-906.9354 328,-906.9354 328,-870.9354 452,-870.9354 452,-906.9354"/>
<text text-anchor="middle" x="390" y="-885.2354" font-family="Courier,monospace" font-size="14.00" fill="#de958e">humanfriendly</text>
</g>
<!-- humanfriendly&#45;&gt;hidebound.core.tools -->
<g id="edge67" class="edge">
<title>humanfriendly&#45;&gt;hidebound.core.tools</title>
<path fill="none" stroke="#de958e" d="M452.1349,-879.1988C476.1506,-875.4356 504.2629,-871.0303 531.05,-866.8328"/>
<polygon fill="#de958e" stroke="#de958e" points="531.9027,-870.242 541.2402,-865.2359 530.8189,-863.3263 531.9027,-870.242"/>
</g>
<!-- schematics.exceptions -->
<g id="node33" class="node">
<title>schematics.exceptions</title>
<polygon fill="#343434" stroke="#343434" points="485,-746.9354 295,-746.9354 295,-710.9354 485,-710.9354 485,-746.9354"/>
<text text-anchor="middle" x="390" y="-725.2354" font-family="Courier,monospace" font-size="14.00" fill="#de958e">schematics.exceptions</text>
</g>
<!-- schematics.exceptions&#45;&gt;hidebound.core.config -->
<g id="edge68" class="edge">
<title>schematics.exceptions&#45;&gt;hidebound.core.config</title>
<path fill="none" stroke="#de958e" d="M485.2163,-725.753C617.2531,-720.0921 862.9752,-705.0406 1069,-666.9354 1109.8298,-659.3838 1154.6864,-646.8411 1189.9459,-635.9663"/>
<polygon fill="#de958e" stroke="#de958e" points="1191.12,-639.2665 1199.6251,-632.9488 1189.0366,-632.5837 1191.12,-639.2665"/>
</g>
<!-- schematics.exceptions&#45;&gt;hidebound.core.database_tools -->
<g id="edge69" class="edge">
<title>schematics.exceptions&#45;&gt;hidebound.core.database_tools</title>
<path fill="none" stroke="#de958e" d="M400.0439,-747.0031C419.0289,-779.2638 463.487,-846.3485 521,-877.9354 601.7527,-922.286 704.4871,-937.8446 786.0823,-942.4134"/>
<polygon fill="#de958e" stroke="#de958e" points="786.2672,-945.9273 796.4324,-942.9407 786.6235,-938.9364 786.2672,-945.9273"/>
</g>
<!-- schematics.exceptions&#45;&gt;hidebound.core.specification_base -->
<g id="edge70" class="edge">
<title>schematics.exceptions&#45;&gt;hidebound.core.specification_base</title>
<path fill="none" stroke="#de958e" d="M399.2416,-710.9181C417.3734,-677.7851 461.1219,-608.0098 521,-579.9354 614.744,-535.9828 734.6792,-539.0988 819.3507,-549.5938"/>
<polygon fill="#de958e" stroke="#de958e" points="819.1309,-553.0945 829.4975,-550.9076 820.0298,-546.1524 819.1309,-553.0945"/>
</g>
<!-- schematics.exceptions&#45;&gt;hidebound.core.tools -->
<g id="edge71" class="edge">
<title>schematics.exceptions&#45;&gt;hidebound.core.tools</title>
<path fill="none" stroke="#de958e" d="M425.7817,-746.937C468.7648,-768.5614 540.904,-804.8542 587.5899,-828.3415"/>
<polygon fill="#de958e" stroke="#de958e" points="586.0653,-831.4924 596.5715,-832.8601 589.2113,-825.2392 586.0653,-831.4924"/>
</g>
<!-- schematics.exceptions&#45;&gt;hidebound.core.validators -->
<g id="edge72" class="edge">
<title>schematics.exceptions&#45;&gt;hidebound.core.validators</title>
<path fill="none" stroke="#de958e" d="M402.8468,-710.7296C426.1223,-677.8254 476.9421,-606.352 521,-546.9354 552.2947,-504.7313 589.4851,-456.3855 612.0241,-427.2794"/>
<polygon fill="#de958e" stroke="#de958e" points="614.8904,-429.2946 618.2507,-419.2468 609.3579,-425.006 614.8904,-429.2946"/>
</g>
<!-- schematics.exceptions&#45;&gt;hidebound.server.api -->
<g id="edge73" class="edge">
<title>schematics.exceptions&#45;&gt;hidebound.server.api</title>
<path fill="none" stroke="#de958e" d="M485.1989,-732.5882C747.498,-742.6524 1479.0071,-770.7199 1748.3073,-781.0528"/>
<polygon fill="#de958e" stroke="#de958e" points="1748.3376,-784.5564 1758.4644,-781.4425 1748.606,-777.5615 1748.3376,-784.5564"/>
</g>
<!-- pyparsing -->
<g id="node34" class="node">
<title>pyparsing</title>
<polygon fill="#343434" stroke="#343434" points="238.5,-540.9354 147.5,-540.9354 147.5,-504.9354 238.5,-504.9354 238.5,-540.9354"/>
<text text-anchor="middle" x="193" y="-519.2354" font-family="Courier,monospace" font-size="14.00" fill="#de958e">pyparsing</text>
</g>
<!-- pyparsing&#45;&gt;hidebound.core.parser -->
<g id="edge74" class="edge">
<title>pyparsing&#45;&gt;hidebound.core.parser</title>
<path fill="none" stroke="#de958e" d="M238.6909,-522.9354C252.6218,-522.9354 268.5536,-522.9354 284.73,-522.9354"/>
<polygon fill="#de958e" stroke="#de958e" points="284.8181,-526.4355 294.818,-522.9354 284.818,-519.4355 284.8181,-526.4355"/>
</g>
<!-- pyparsing&#45;&gt;hidebound.core.specification_base -->
<g id="edge75" class="edge">
<title>pyparsing&#45;&gt;hidebound.core.specification_base</title>
<path fill="none" stroke="#de958e" d="M238.7021,-537.7316C256.1238,-542.6548 276.2899,-547.501 295,-549.9354 378.7386,-560.8309 401.3293,-561.3405 485,-549.9354 501.4537,-547.6927 504.5463,-542.1782 521,-539.9354 619.203,-526.5496 645.2031,-532.0494 744,-539.9354 768.7481,-541.9109 795.2247,-545.3867 820.0629,-549.2615"/>
<polygon fill="#de958e" stroke="#de958e" points="819.8007,-552.7639 830.2273,-550.883 820.9035,-545.8513 819.8007,-552.7639"/>
</g>
<!-- pyparsing&#45;&gt;hidebound.core.validators -->
<g id="edge76" class="edge">
<title>pyparsing&#45;&gt;hidebound.core.validators</title>
<path fill="none" stroke="#de958e" d="M238.7904,-510.2246C314.414,-489.2324 466.1207,-447.1204 557.5526,-421.74"/>
<polygon fill="#de958e" stroke="#de958e" points="558.601,-425.0813 567.3005,-419.0341 556.7287,-418.3364 558.601,-425.0813"/>
</g>
<!-- schematics -->
<g id="node35" class="node">
<title>schematics</title>
<polygon fill="#343434" stroke="#343434" points="682,-624.9354 583,-624.9354 583,-588.9354 682,-588.9354 682,-624.9354"/>
<text text-anchor="middle" x="632.5" y="-603.2354" font-family="Courier,monospace" font-size="14.00" fill="#de958e">schematics</text>
</g>
<!-- schematics&#45;&gt;hidebound.core.config -->
<g id="edge77" class="edge">
<title>schematics&#45;&gt;hidebound.core.config</title>
<path fill="none" stroke="#de958e" d="M682.0083,-607.5732C782.476,-608.8675 1012.2373,-611.8274 1147.8525,-613.5744"/>
<polygon fill="#de958e" stroke="#de958e" points="1148.2117,-617.0793 1158.256,-613.7085 1148.3019,-610.0799 1148.2117,-617.0793"/>
</g>
<!-- schematics&#45;&gt;hidebound.core.specification_base -->
<g id="edge78" class="edge">
<title>schematics&#45;&gt;hidebound.core.specification_base</title>
<path fill="none" stroke="#de958e" d="M682.0338,-600.4893C708.2465,-597.078 741.9681,-592.6896 775.8784,-588.2766"/>
<polygon fill="#de958e" stroke="#de958e" points="776.4543,-591.7313 785.919,-586.97 775.5509,-584.7898 776.4543,-591.7313"/>
</g>
<!-- schematics.types -->
<g id="node36" class="node">
<title>schematics.types</title>
<polygon fill="#343434" stroke="#343434" points="707,-364.9354 558,-364.9354 558,-328.9354 707,-328.9354 707,-364.9354"/>
<text text-anchor="middle" x="632.5" y="-343.2354" font-family="Courier,monospace" font-size="14.00" fill="#de958e">schematics.types</text>
</g>
<!-- schematics.types&#45;&gt;hidebound.core.config -->
<g id="edge79" class="edge">
<title>schematics.types&#45;&gt;hidebound.core.config</title>
<path fill="none" stroke="#de958e" d="M707.2534,-360.9832C719.7901,-364.4788 732.4636,-368.752 744,-373.9354 761.7685,-381.9191 762.6331,-390.1124 780,-398.9354 901.1753,-460.497 946.4494,-440.1594 1069,-498.9354 1124.9026,-525.7467 1184.8324,-565.7618 1220.7296,-591.0924"/>
<polygon fill="#de958e" stroke="#de958e" points="1218.7062,-593.9482 1228.8853,-596.887 1222.7606,-588.2419 1218.7062,-593.9482"/>
</g>
<!-- schematics.types&#45;&gt;hidebound.core.database_test_base -->
<g id="edge80" class="edge">
<title>schematics.types&#45;&gt;hidebound.core.database_test_base</title>
<path fill="none" stroke="#de958e" d="M707.0984,-356.6657C805.2299,-369.4654 979.9039,-392.249 1105.3657,-408.6136"/>
<polygon fill="#de958e" stroke="#de958e" points="1105.0791,-412.1058 1115.4479,-409.9286 1105.9846,-405.1646 1105.0791,-412.1058"/>
</g>
<!-- schematics.types&#45;&gt;hidebound.core.specification_base -->
<g id="edge81" class="edge">
<title>schematics.types&#45;&gt;hidebound.core.specification_base</title>
<path fill="none" stroke="#de958e" d="M707.03,-353.5302C720.6652,-357.7193 733.7889,-364.1526 744,-373.9354 785.7465,-413.9311 742.7533,-454.7189 780,-498.9354 798.3938,-520.7712 825.1993,-536.3394 850.7414,-547.16"/>
<polygon fill="#de958e" stroke="#de958e" points="849.4937,-550.4307 860.0766,-550.9345 852.1177,-543.9411 849.4937,-550.4307"/>
</g>
<!-- schematics.types&#45;&gt;hidebound.core.specifications -->
<g id="edge82" class="edge">
<title>schematics.types&#45;&gt;hidebound.core.specifications</title>
<path fill="none" stroke="#de958e" d="M707.0984,-347.5361C807.8185,-348.347 989.1725,-349.8072 1115.1892,-350.8218"/>
<polygon fill="#de958e" stroke="#de958e" points="1115.275,-354.3225 1125.3029,-350.9033 1115.3314,-347.3228 1115.275,-354.3225"/>
</g>
<!-- schematics.types&#45;&gt;hidebound.core.test_specifications -->
<g id="edge83" class="edge">
<title>schematics.types&#45;&gt;hidebound.core.test_specifications</title>
<path fill="none" stroke="#de958e" d="M660.1673,-328.8036C684.0366,-312.3395 718.5782,-286.4809 744,-258.9354 763.5626,-237.7387 754.5686,-218.5459 780,-204.9354 836.6231,-174.6317 1013.7754,-172.1523 1069,-204.9354 1097.732,-221.9917 1077.9158,-251.3678 1105,-270.9354 1106.8552,-272.2758 1108.7567,-273.5561 1110.6992,-274.7789"/>
<polygon fill="#de958e" stroke="#de958e" points="1109.0419,-277.863 1119.4619,-279.78 1112.5117,-271.7834 1109.0419,-277.863"/>
</g>
<!-- wrapt -->
<g id="node37" class="node">
<title>wrapt</title>
<polygon fill="#343434" stroke="#343434" points="419,-372.9354 361,-372.9354 361,-336.9354 419,-336.9354 419,-372.9354"/>
<text text-anchor="middle" x="390" y="-351.2354" font-family="Courier,monospace" font-size="14.00" fill="#de958e">wrapt</text>
</g>
<!-- wrapt&#45;&gt;hidebound.core.validators -->
<g id="edge84" class="edge">
<title>wrapt&#45;&gt;hidebound.core.validators</title>
<path fill="none" stroke="#de958e" d="M419.2512,-360.4841C446.2515,-365.6058 488.0169,-373.5284 527.4537,-381.0091"/>
<polygon fill="#de958e" stroke="#de958e" points="526.9424,-384.4745 537.4195,-382.8996 528.247,-377.5971 526.9424,-384.4745"/>
</g>
<!-- skimage.io -->
<g id="node38" class="node">
<title>skimage.io</title>
<polygon fill="#343434" stroke="#343434" points="682,-249.9354 583,-249.9354 583,-213.9354 682,-213.9354 682,-249.9354"/>
<text text-anchor="middle" x="632.5" y="-228.2354" font-family="Courier,monospace" font-size="14.00" fill="#de958e">skimage.io</text>
</g>
<!-- skimage.io&#45;&gt;hidebound.core.database_test_base -->
<g id="edge85" class="edge">
<title>skimage.io&#45;&gt;hidebound.core.database_test_base</title>
<path fill="none" stroke="#de958e" d="M682.1966,-222.1364C770.2679,-207.7861 955.1588,-191.6174 1069,-280.9354 1105.5063,-309.5777 1071.6471,-346.676 1105,-378.9354 1116.8777,-390.4237 1131.5021,-399.2191 1146.8956,-405.9526"/>
<polygon fill="#de958e" stroke="#de958e" points="1145.9802,-409.3586 1156.562,-409.8843 1148.6176,-402.8745 1145.9802,-409.3586"/>
</g>
<!-- skimage.io&#45;&gt;hidebound.core.traits -->
<g id="edge86" class="edge">
<title>skimage.io&#45;&gt;hidebound.core.traits</title>
<path fill="none" stroke="#de958e" d="M673.8202,-213.8257C694.8422,-204.5998 720.7922,-193.1922 744,-182.9354 760.0148,-175.8577 763.3692,-172.4113 780,-166.9354 792.8635,-162.7 806.5554,-158.8521 820.1894,-155.4118"/>
<polygon fill="#de958e" stroke="#de958e" points="821.2176,-158.7634 830.0941,-152.979 819.5478,-151.9654 821.2176,-158.7634"/>
</g>
</g>
</svg>
