<?xml version="1.0" encoding="UTF-8" standalone="no"?>
<!DOCTYPE svg PUBLIC "-//W3C//DTD SVG 1.1//EN"
 "http://www.w3.org/Graphics/SVG/1.1/DTD/svg11.dtd">
<!-- Generated by graphviz version 2.40.1 (20161225.0304)
 -->
<!-- Title: %3 Pages: 1 -->
<svg width="2277pt" height="1596pt"
 viewBox="0.00 0.00 2277.00 1595.78" xmlns="http://www.w3.org/2000/svg" xmlns:xlink="http://www.w3.org/1999/xlink">
<g id="graph0" class="graph" transform="scale(1 1) rotate(0) translate(4 1591.7829)">
<title>%3</title>
<polygon fill="#242424" stroke="transparent" points="-4,4 -4,-1591.7829 2273,-1591.7829 2273,4 -4,4"/>
<!-- cli -->
<g id="node1" class="node">
<title>cli</title>
<polygon fill="#343434" stroke="#343434" points="72.5,-1008 18.5,-1008 18.5,-972 72.5,-972 72.5,-1008"/>
<text text-anchor="middle" x="45.5" y="-986.3" font-family="Courier,monospace" font-size="14.00" fill="#b6ecf3">cli</text>
</g>
<!-- hidebound.core.config -->
<g id="node2" class="node">
<title>hidebound.core.config</title>
<polygon fill="#343434" stroke="#343434" points="1430.5,-1141 1240.5,-1141 1240.5,-1105 1430.5,-1105 1430.5,-1141"/>
<text text-anchor="middle" x="1335.5" y="-1119.3" font-family="Courier,monospace" font-size="14.00" fill="#b6ecf3">hidebound.core.config</text>
</g>
<!-- hidebound.core.database -->
<g id="node3" class="node">
<title>hidebound.core.database</title>
<polygon fill="#343434" stroke="#343434" points="1751,-604 1545,-604 1545,-568 1751,-568 1751,-604"/>
<text text-anchor="middle" x="1648" y="-582.3" font-family="Courier,monospace" font-size="14.00" fill="#b6ecf3">hidebound.core.database</text>
</g>
<!-- hidebound.core.config&#45;&gt;hidebound.core.database -->
<g id="edge1" class="edge">
<title>hidebound.core.config&#45;&gt;hidebound.core.database</title>
<path fill="none" stroke="#b6ecf3" d="M1430.5881,-1123.4487C1450.6018,-1119.0791 1469.8968,-1110.7938 1484,-1096 1525.9191,-1052.0284 1501.3585,-882.8205 1520,-825 1546.5635,-742.6077 1601.025,-655.2438 1629.5886,-612.5779"/>
<polygon fill="#b6ecf3" stroke="#b6ecf3" points="1632.5714,-614.4148 1635.2713,-604.1697 1626.7718,-610.4951 1632.5714,-614.4148"/>
</g>
<!-- hidebound.server.app -->
<g id="node16" class="node">
<title>hidebound.server.app</title>
<polygon fill="#343434" stroke="#343434" points="2269,-409 2087,-409 2087,-373 2269,-373 2269,-409"/>
<text text-anchor="middle" x="2178" y="-387.3" font-family="Courier,monospace" font-size="14.00" fill="#b6ecf3">hidebound.server.app</text>
</g>
<!-- hidebound.core.config&#45;&gt;hidebound.server.app -->
<g id="edge2" class="edge">
<title>hidebound.core.config&#45;&gt;hidebound.server.app</title>
<path fill="none" stroke="#b6ecf3" d="M1430.6816,-1111.8303C1448.7805,-1108.0037 1467.2769,-1102.8738 1484,-1096 1766.4266,-979.9126 1859.9786,-946.2266 2051,-708 2123.973,-616.994 2159.7952,-478.6251 2172.4674,-419.454"/>
<polygon fill="#b6ecf3" stroke="#b6ecf3" points="2175.9579,-419.8596 2174.5679,-409.3563 2169.1046,-418.4339 2175.9579,-419.8596"/>
</g>
<!-- hidebound.server.api -->
<g id="node15" class="node">
<title>hidebound.server.api</title>
<polygon fill="#343434" stroke="#343434" points="2022.5,-581 1840.5,-581 1840.5,-545 2022.5,-545 2022.5,-581"/>
<text text-anchor="middle" x="1931.5" y="-559.3" font-family="Courier,monospace" font-size="14.00" fill="#b6ecf3">hidebound.server.api</text>
</g>
<!-- hidebound.core.database&#45;&gt;hidebound.server.api -->
<g id="edge3" class="edge">
<title>hidebound.core.database&#45;&gt;hidebound.server.api</title>
<path fill="none" stroke="#b6ecf3" d="M1751.152,-577.6314C1776.869,-575.545 1804.4209,-573.3098 1830.0548,-571.2301"/>
<polygon fill="#b6ecf3" stroke="#b6ecf3" points="1830.4686,-574.7081 1840.1528,-570.4109 1829.9025,-567.7311 1830.4686,-574.7081"/>
</g>
<!-- hidebound.core.database_test_base -->
<g id="node4" class="node">
<title>hidebound.core.database_test_base</title>
<polygon fill="#343434" stroke="#343434" points="1480,-889 1191,-889 1191,-853 1480,-853 1480,-889"/>
<text text-anchor="middle" x="1335.5" y="-867.3" font-family="Courier,monospace" font-size="14.00" fill="#b6ecf3">hidebound.core.database_test_base</text>
</g>
<!-- hidebound.core.database_tools -->
<g id="node5" class="node">
<title>hidebound.core.database_tools</title>
<polygon fill="#343434" stroke="#343434" points="1126.5,-664 870.5,-664 870.5,-628 1126.5,-628 1126.5,-664"/>
<text text-anchor="middle" x="998.5" y="-642.3" font-family="Courier,monospace" font-size="14.00" fill="#b6ecf3">hidebound.core.database_tools</text>
</g>
<!-- hidebound.core.database_tools&#45;&gt;hidebound.core.database -->
<g id="edge4" class="edge">
<title>hidebound.core.database_tools&#45;&gt;hidebound.core.database</title>
<path fill="none" stroke="#b6ecf3" d="M1126.8203,-634.1459C1245.6942,-623.1645 1420.8151,-606.9871 1534.65,-596.4711"/>
<polygon fill="#b6ecf3" stroke="#b6ecf3" points="1535.1506,-599.9399 1544.7862,-595.5348 1534.5067,-592.9696 1535.1506,-599.9399"/>
</g>
<!-- hidebound.core.parser -->
<g id="node6" class="node">
<title>hidebound.core.parser</title>
<polygon fill="#343434" stroke="#343434" points="485,-1153 295,-1153 295,-1117 485,-1117 485,-1153"/>
<text text-anchor="middle" x="390" y="-1131.3" font-family="Courier,monospace" font-size="14.00" fill="#b6ecf3">hidebound.core.parser</text>
</g>
<!-- hidebound.core.parser&#45;&gt;hidebound.core.database_tools -->
<g id="edge5" class="edge">
<title>hidebound.core.parser&#45;&gt;hidebound.core.database_tools</title>
<path fill="none" stroke="#b6ecf3" d="M410.6271,-1116.835C432.3546,-1096.567 465.9985,-1061.7624 485,-1025 515.6871,-965.6294 475.7973,-928.2269 521,-879 612.7335,-779.0999 689.3381,-842.9337 810,-781 871.0017,-749.6889 934.2827,-700.2738 969.8004,-670.7111"/>
<polygon fill="#b6ecf3" stroke="#b6ecf3" points="972.3825,-673.1133 977.7918,-664.0034 967.8821,-667.7517 972.3825,-673.1133"/>
</g>
<!-- hidebound.core.specification_base -->
<g id="node7" class="node">
<title>hidebound.core.specification_base</title>
<polygon fill="#343434" stroke="#343434" points="1143,-1114 854,-1114 854,-1078 1143,-1078 1143,-1114"/>
<text text-anchor="middle" x="998.5" y="-1092.3" font-family="Courier,monospace" font-size="14.00" fill="#b6ecf3">hidebound.core.specification_base</text>
</g>
<!-- hidebound.core.parser&#45;&gt;hidebound.core.specification_base -->
<g id="edge6" class="edge">
<title>hidebound.core.parser&#45;&gt;hidebound.core.specification_base</title>
<path fill="none" stroke="#b6ecf3" d="M485.2014,-1133.201C570.4079,-1131.1018 698.6884,-1126.7358 810,-1118 820.9876,-1117.1377 832.3223,-1116.1251 843.7257,-1115.0162"/>
<polygon fill="#b6ecf3" stroke="#b6ecf3" points="844.1532,-1118.4911 853.7576,-1114.0183 843.4602,-1111.5254 844.1532,-1118.4911"/>
</g>
<!-- hidebound.core.validators -->
<g id="node12" class="node">
<title>hidebound.core.validators</title>
<polygon fill="#343434" stroke="#343434" points="777,-1206 554,-1206 554,-1170 777,-1170 777,-1206"/>
<text text-anchor="middle" x="665.5" y="-1184.3" font-family="Courier,monospace" font-size="14.00" fill="#b6ecf3">hidebound.core.validators</text>
</g>
<!-- hidebound.core.parser&#45;&gt;hidebound.core.validators -->
<g id="edge7" class="edge">
<title>hidebound.core.parser&#45;&gt;hidebound.core.validators</title>
<path fill="none" stroke="#b6ecf3" d="M483.6562,-1153.0173C508.7197,-1157.839 535.9604,-1163.0795 561.5436,-1168.0011"/>
<polygon fill="#b6ecf3" stroke="#b6ecf3" points="561.1538,-1171.4902 571.635,-1169.9425 562.4763,-1164.6163 561.1538,-1171.4902"/>
</g>
<!-- hidebound.core.specification_base&#45;&gt;hidebound.core.config -->
<g id="edge8" class="edge">
<title>hidebound.core.specification_base&#45;&gt;hidebound.core.config</title>
<path fill="none" stroke="#b6ecf3" d="M1143.3741,-1107.6071C1172.6087,-1109.9494 1202.8112,-1112.3691 1230.3672,-1114.5769"/>
<polygon fill="#b6ecf3" stroke="#b6ecf3" points="1230.1454,-1118.0703 1240.393,-1115.3802 1230.7045,-1111.0926 1230.1454,-1118.0703"/>
</g>
<!-- hidebound.core.specification_base&#45;&gt;hidebound.core.database -->
<g id="edge9" class="edge">
<title>hidebound.core.specification_base&#45;&gt;hidebound.core.database</title>
<path fill="none" stroke="#b6ecf3" d="M1053.2152,-1077.9418C1090.5481,-1066.212 1141.3212,-1051.4084 1187,-1042 1252.17,-1028.5771 1435.3054,-1049.3447 1484,-1004 1543.3871,-948.6984 1492.5496,-901.3647 1520,-825 1549.3581,-743.3281 1602.8275,-655.3204 1630.4458,-612.4721"/>
<polygon fill="#b6ecf3" stroke="#b6ecf3" points="1633.4157,-614.3252 1635.9289,-604.0327 1627.5458,-610.5114 1633.4157,-614.3252"/>
</g>
<!-- hidebound.core.specification_base&#45;&gt;hidebound.core.database_test_base -->
<g id="edge10" class="edge">
<title>hidebound.core.specification_base&#45;&gt;hidebound.core.database_test_base</title>
<path fill="none" stroke="#b6ecf3" d="M1027.5658,-1077.8706C1059.2078,-1057.5858 1110.678,-1022.9614 1151,-988 1168.5773,-972.7595 1168.4889,-964.0916 1187,-950 1216.7727,-927.3354 1253.9439,-907.568 1283.6488,-893.4754"/>
<polygon fill="#b6ecf3" stroke="#b6ecf3" points="1285.4323,-896.5054 1293.0121,-889.1028 1282.4704,-890.1629 1285.4323,-896.5054"/>
</g>
<!-- hidebound.core.specifications -->
<g id="node8" class="node">
<title>hidebound.core.specifications</title>
<polygon fill="#343434" stroke="#343434" points="1463.5,-995 1207.5,-995 1207.5,-959 1463.5,-959 1463.5,-995"/>
<text text-anchor="middle" x="1335.5" y="-973.3" font-family="Courier,monospace" font-size="14.00" fill="#b6ecf3">hidebound.core.specifications</text>
</g>
<!-- hidebound.core.specification_base&#45;&gt;hidebound.core.specifications -->
<g id="edge11" class="edge">
<title>hidebound.core.specification_base&#45;&gt;hidebound.core.specifications</title>
<path fill="none" stroke="#b6ecf3" d="M1038.0509,-1077.9877C1068.8678,-1063.9187 1112.7064,-1043.8296 1151,-1026 1167.0408,-1018.5314 1170.2417,-1014.6786 1187,-1009 1199.6627,-1004.7092 1213.1337,-1000.8629 1226.5963,-997.4534"/>
<polygon fill="#b6ecf3" stroke="#b6ecf3" points="1227.5101,-1000.833 1236.386,-995.0477 1225.8397,-994.0352 1227.5101,-1000.833"/>
</g>
<!-- hidebound.core.test_specifications -->
<g id="node9" class="node">
<title>hidebound.core.test_specifications</title>
<polygon fill="#343434" stroke="#343434" points="1484,-1087 1187,-1087 1187,-1051 1484,-1051 1484,-1087"/>
<text text-anchor="middle" x="1335.5" y="-1065.3" font-family="Courier,monospace" font-size="14.00" fill="#b6ecf3">hidebound.core.test_specifications</text>
</g>
<!-- hidebound.core.specification_base&#45;&gt;hidebound.core.test_specifications -->
<g id="edge12" class="edge">
<title>hidebound.core.specification_base&#45;&gt;hidebound.core.test_specifications</title>
<path fill="none" stroke="#b6ecf3" d="M1143.3741,-1084.3929C1154.4374,-1083.5065 1165.6394,-1082.609 1176.784,-1081.7161"/>
<polygon fill="#b6ecf3" stroke="#b6ecf3" points="1177.3087,-1085.1854 1186.9972,-1080.8978 1176.7496,-1078.2077 1177.3087,-1085.1854"/>
</g>
<!-- hidebound.core.tools -->
<g id="node10" class="node">
<title>hidebound.core.tools</title>
<polygon fill="#343434" stroke="#343434" points="756.5,-718 574.5,-718 574.5,-682 756.5,-682 756.5,-718"/>
<text text-anchor="middle" x="665.5" y="-696.3" font-family="Courier,monospace" font-size="14.00" fill="#b6ecf3">hidebound.core.tools</text>
</g>
<!-- hidebound.core.tools&#45;&gt;hidebound.core.database -->
<g id="edge13" class="edge">
<title>hidebound.core.tools&#45;&gt;hidebound.core.database</title>
<path fill="none" stroke="#b6ecf3" d="M756.6195,-698.4598C908.708,-694.4746 1223.3218,-680.1879 1484,-629 1514.6166,-622.988 1547.9968,-614.5823 1576.6027,-606.7959"/>
<polygon fill="#b6ecf3" stroke="#b6ecf3" points="1577.7949,-610.0981 1586.5094,-604.0725 1575.9394,-603.3485 1577.7949,-610.0981"/>
</g>
<!-- hidebound.core.tools&#45;&gt;hidebound.core.database_tools -->
<g id="edge14" class="edge">
<title>hidebound.core.tools&#45;&gt;hidebound.core.database_tools</title>
<path fill="none" stroke="#b6ecf3" d="M756.9342,-685.1728C794.1202,-679.1427 837.6244,-672.0879 877.389,-665.6396"/>
<polygon fill="#b6ecf3" stroke="#b6ecf3" points="878.1012,-669.0699 887.412,-664.0143 876.9806,-662.1602 878.1012,-669.0699"/>
</g>
<!-- hidebound.core.tools&#45;&gt;hidebound.core.specification_base -->
<g id="edge15" class="edge">
<title>hidebound.core.tools&#45;&gt;hidebound.core.specification_base</title>
<path fill="none" stroke="#b6ecf3" d="M680.4044,-718.0643C711.1999,-755.3564 784.1454,-843.5233 846,-917 892.0037,-971.6475 946.3626,-1035.2139 976.1645,-1069.9785"/>
<polygon fill="#b6ecf3" stroke="#b6ecf3" points="973.675,-1072.4522 982.8416,-1077.7649 978.9888,-1067.8954 973.675,-1072.4522"/>
</g>
<!-- hidebound.server.server_tools -->
<g id="node18" class="node">
<title>hidebound.server.server_tools</title>
<polygon fill="#343434" stroke="#343434" points="1776,-870 1520,-870 1520,-834 1776,-834 1776,-870"/>
<text text-anchor="middle" x="1648" y="-848.3" font-family="Courier,monospace" font-size="14.00" fill="#b6ecf3">hidebound.server.server_tools</text>
</g>
<!-- hidebound.core.tools&#45;&gt;hidebound.server.server_tools -->
<g id="edge16" class="edge">
<title>hidebound.core.tools&#45;&gt;hidebound.server.server_tools</title>
<path fill="none" stroke="#b6ecf3" d="M756.6226,-707.8342C854.4152,-716.7782 1014.1626,-732.9371 1151,-754 1293.8618,-775.9902 1458.1393,-810.1382 1557.4492,-831.7691"/>
<polygon fill="#b6ecf3" stroke="#b6ecf3" points="1556.9313,-835.2384 1567.4478,-833.9524 1558.4247,-828.3995 1556.9313,-835.2384"/>
</g>
<!-- hidebound.core.traits -->
<g id="node11" class="node">
<title>hidebound.core.traits</title>
<polygon fill="#343434" stroke="#343434" points="1093.5,-908 903.5,-908 903.5,-872 1093.5,-872 1093.5,-908"/>
<text text-anchor="middle" x="998.5" y="-886.3" font-family="Courier,monospace" font-size="14.00" fill="#b6ecf3">hidebound.core.traits</text>
</g>
<!-- hidebound.core.traits&#45;&gt;hidebound.core.database_test_base -->
<g id="edge17" class="edge">
<title>hidebound.core.traits&#45;&gt;hidebound.core.database_test_base</title>
<path fill="none" stroke="#b6ecf3" d="M1093.7194,-884.6315C1120.8243,-883.1034 1151.071,-881.3981 1180.7455,-879.725"/>
<polygon fill="#b6ecf3" stroke="#b6ecf3" points="1180.9946,-883.2166 1190.7817,-879.1592 1180.6005,-876.2277 1180.9946,-883.2166"/>
</g>
<!-- hidebound.core.traits&#45;&gt;hidebound.core.specifications -->
<g id="edge18" class="edge">
<title>hidebound.core.traits&#45;&gt;hidebound.core.specifications</title>
<path fill="none" stroke="#b6ecf3" d="M1090.7158,-908.0653C1110.6662,-912.3316 1131.5951,-917.0808 1151,-922 1190.6841,-932.0601 1234.6297,-945.0842 1269.6744,-955.933"/>
<polygon fill="#b6ecf3" stroke="#b6ecf3" points="1268.7235,-959.3026 1279.3118,-958.9309 1270.8028,-952.6185 1268.7235,-959.3026"/>
</g>
<!-- hidebound.core.traits&#45;&gt;hidebound.core.test_specifications -->
<g id="edge19" class="edge">
<title>hidebound.core.traits&#45;&gt;hidebound.core.test_specifications</title>
<path fill="none" stroke="#b6ecf3" d="M1025.9458,-908.1693C1062.0697,-931.7146 1127.9202,-973.3733 1187,-1004 1217.3043,-1019.7096 1252.2273,-1035.1239 1280.59,-1046.9965"/>
<polygon fill="#b6ecf3" stroke="#b6ecf3" points="1279.3634,-1050.2769 1289.941,-1050.8823 1282.0497,-1043.8128 1279.3634,-1050.2769"/>
</g>
<!-- hidebound.core.validators&#45;&gt;hidebound.core.config -->
<g id="edge20" class="edge">
<title>hidebound.core.validators&#45;&gt;hidebound.core.config</title>
<path fill="none" stroke="#b6ecf3" d="M777.1773,-1192.292C799.9458,-1193.0039 823.7417,-1193.6302 846,-1194 981.5368,-1196.2521 1028.5026,-1252.049 1151,-1194 1173.833,-1183.1799 1165.231,-1162.8269 1187,-1150 1200.2415,-1142.1978 1215.2105,-1136.5534 1230.4203,-1132.4877"/>
<polygon fill="#b6ecf3" stroke="#b6ecf3" points="1231.553,-1135.8138 1240.4344,-1130.0371 1229.889,-1129.0145 1231.553,-1135.8138"/>
</g>
<!-- hidebound.core.validators&#45;&gt;hidebound.core.database_test_base -->
<g id="edge21" class="edge">
<title>hidebound.core.validators&#45;&gt;hidebound.core.database_test_base</title>
<path fill="none" stroke="#b6ecf3" d="M676.7289,-1169.7367C701.864,-1130.4794 766.7205,-1037.8302 846,-991 966.1003,-920.0571 1015.549,-950.3169 1151,-917 1184.6992,-908.711 1221.8337,-899.4727 1253.8994,-891.4626"/>
<polygon fill="#b6ecf3" stroke="#b6ecf3" points="1254.8257,-894.8388 1263.6786,-889.0185 1253.1284,-888.0477 1254.8257,-894.8388"/>
</g>
<!-- hidebound.core.validators&#45;&gt;hidebound.core.specification_base -->
<g id="edge22" class="edge">
<title>hidebound.core.validators&#45;&gt;hidebound.core.specification_base</title>
<path fill="none" stroke="#b6ecf3" d="M772.6491,-1169.9171C785.5245,-1166.1089 798.2573,-1161.5209 810,-1156 828.3435,-1147.3757 827.6089,-1136.5224 846,-1128 854.9282,-1123.8627 864.3982,-1120.255 874.0756,-1117.1101"/>
<polygon fill="#b6ecf3" stroke="#b6ecf3" points="875.2802,-1120.4015 883.8098,-1114.1169 873.2227,-1113.7106 875.2802,-1120.4015"/>
</g>
<!-- hidebound.core.validators&#45;&gt;hidebound.core.specifications -->
<g id="edge23" class="edge">
<title>hidebound.core.validators&#45;&gt;hidebound.core.specifications</title>
<path fill="none" stroke="#b6ecf3" d="M686.6826,-1169.9019C718.8663,-1143.4122 783.0189,-1094.4719 846,-1069 959.3453,-1023.159 1096.8106,-999.8905 1197.175,-988.2442"/>
<polygon fill="#b6ecf3" stroke="#b6ecf3" points="1197.8407,-991.6912 1207.3819,-987.0849 1197.0507,-984.7359 1197.8407,-991.6912"/>
</g>
<!-- hidebound.core.validators&#45;&gt;hidebound.core.test_specifications -->
<g id="edge24" class="edge">
<title>hidebound.core.validators&#45;&gt;hidebound.core.test_specifications</title>
<path fill="none" stroke="#b6ecf3" d="M777.0838,-1188.8946C878.2267,-1186.0777 1029.5906,-1172.6643 1151,-1123 1169.5111,-1115.4278 1168.671,-1104.0029 1187,-1096 1191.756,-1093.9234 1196.6649,-1092.0065 1201.6746,-1090.237"/>
<polygon fill="#b6ecf3" stroke="#b6ecf3" points="1203.0248,-1093.477 1211.4191,-1087.0127 1200.8258,-1086.8313 1203.0248,-1093.477"/>
</g>
<!-- hidebound.exporters.girder_exporter -->
<g id="node14" class="node">
<title>hidebound.exporters.girder_exporter</title>
<polygon fill="#343434" stroke="#343434" points="1151,-1472 846,-1472 846,-1436 1151,-1436 1151,-1472"/>
<text text-anchor="middle" x="998.5" y="-1450.3" font-family="Courier,monospace" font-size="14.00" fill="#b6ecf3">hidebound.exporters.girder_exporter</text>
</g>
<!-- hidebound.core.validators&#45;&gt;hidebound.exporters.girder_exporter -->
<g id="edge25" class="edge">
<title>hidebound.core.validators&#45;&gt;hidebound.exporters.girder_exporter</title>
<path fill="none" stroke="#b6ecf3" d="M725.0407,-1206.0552C752.9673,-1216.5903 785.4246,-1232.0058 810,-1253 832.2133,-1271.9763 827.3276,-1285.5306 846,-1308 884.5487,-1354.3876 936.55,-1401.4645 968.7818,-1429.1781"/>
<polygon fill="#b6ecf3" stroke="#b6ecf3" points="966.6526,-1431.9624 976.5302,-1435.7945 971.1983,-1426.6391 966.6526,-1431.9624"/>
</g>
<!-- hidebound.exporters.exporter_base -->
<g id="node13" class="node">
<title>hidebound.exporters.exporter_base</title>
<polygon fill="#343434" stroke="#343434" points="810,-1498 521,-1498 521,-1462 810,-1462 810,-1498"/>
<text text-anchor="middle" x="665.5" y="-1476.3" font-family="Courier,monospace" font-size="14.00" fill="#b6ecf3">hidebound.exporters.exporter_base</text>
</g>
<!-- hidebound.exporters.exporter_base&#45;&gt;hidebound.exporters.girder_exporter -->
<g id="edge26" class="edge">
<title>hidebound.exporters.exporter_base&#45;&gt;hidebound.exporters.girder_exporter</title>
<path fill="none" stroke="#b6ecf3" d="M810.1058,-1468.7095C818.6214,-1468.0446 827.2147,-1467.3736 835.7946,-1466.7037"/>
<polygon fill="#b6ecf3" stroke="#b6ecf3" points="836.1578,-1470.1861 845.855,-1465.9182 835.6128,-1463.2074 836.1578,-1470.1861"/>
</g>
<!-- hidebound.server.api&#45;&gt;hidebound.server.app -->
<g id="edge27" class="edge">
<title>hidebound.server.api&#45;&gt;hidebound.server.app</title>
<path fill="none" stroke="#b6ecf3" d="M1957.4139,-544.9181C2002.1672,-513.6906 2093.9298,-449.6616 2143.8389,-414.8365"/>
<polygon fill="#b6ecf3" stroke="#b6ecf3" points="2145.8653,-417.6904 2152.0634,-409.0977 2141.8597,-411.9498 2145.8653,-417.6904"/>
</g>
<!-- hidebound.server.components -->
<g id="node17" class="node">
<title>hidebound.server.components</title>
<polygon fill="#343434" stroke="#343434" points="2051,-263 1812,-263 1812,-227 2051,-227 2051,-263"/>
<text text-anchor="middle" x="1931.5" y="-241.3" font-family="Courier,monospace" font-size="14.00" fill="#b6ecf3">hidebound.server.components</text>
</g>
<!-- hidebound.server.components&#45;&gt;hidebound.server.app -->
<g id="edge28" class="edge">
<title>hidebound.server.components&#45;&gt;hidebound.server.app</title>
<path fill="none" stroke="#b6ecf3" d="M1977.1214,-263.0417C1999.8656,-272.6752 2027.4673,-285.3483 2051,-299 2085.9112,-319.2525 2122.9764,-346.8995 2147.9943,-366.5859"/>
<polygon fill="#b6ecf3" stroke="#b6ecf3" points="2145.9871,-369.4612 2155.9963,-372.9349 2150.3379,-363.9775 2145.9871,-369.4612"/>
</g>
<!-- hidebound.server.server_tools&#45;&gt;hidebound.server.api -->
<g id="edge29" class="edge">
<title>hidebound.server.server_tools&#45;&gt;hidebound.server.api</title>
<path fill="none" stroke="#b6ecf3" d="M1755.9305,-833.8758C1763.1918,-830.0584 1769.9937,-825.4817 1776,-820 1811.8185,-787.3099 1788.8328,-759.6015 1812,-717 1838.7482,-667.8136 1880.8343,-617.8821 1907.2616,-588.7121"/>
<polygon fill="#b6ecf3" stroke="#b6ecf3" points="1910.1027,-590.792 1914.2745,-581.0531 1904.94,-586.0648 1910.1027,-590.792"/>
</g>
<!-- hidebound.server.server_tools&#45;&gt;hidebound.server.app -->
<g id="edge30" class="edge">
<title>hidebound.server.server_tools&#45;&gt;hidebound.server.app</title>
<path fill="none" stroke="#b6ecf3" d="M1741.4024,-833.9339C1753.3543,-830.1042 1765.1803,-825.5063 1776,-820 1918.0038,-747.7326 1945.7992,-709.668 2051,-590 2099.9762,-534.2886 2143.1803,-457.8843 2164.2938,-417.8934"/>
<polygon fill="#b6ecf3" stroke="#b6ecf3" points="2167.4081,-419.4907 2168.9373,-409.0068 2161.204,-416.2488 2167.4081,-419.4907"/>
</g>
<!-- dash -->
<g id="node19" class="node">
<title>dash</title>
<polygon fill="#343434" stroke="#343434" points="1675,-382 1621,-382 1621,-346 1675,-346 1675,-382"/>
<text text-anchor="middle" x="1648" y="-360.3" font-family="Courier,monospace" font-size="14.00" fill="#de958e">dash</text>
</g>
<!-- dash&#45;&gt;hidebound.server.app -->
<g id="edge31" class="edge">
<title>dash&#45;&gt;hidebound.server.app</title>
<path fill="none" stroke="#de958e" d="M1675.0114,-365.3761C1747.9517,-369.0919 1951.7836,-379.4758 2076.4438,-385.8264"/>
<polygon fill="#de958e" stroke="#de958e" points="2076.5997,-389.3388 2086.7649,-386.3522 2076.956,-382.3478 2076.5997,-389.3388"/>
</g>
<!-- dash&#45;&gt;hidebound.server.components -->
<g id="edge32" class="edge">
<title>dash&#45;&gt;hidebound.server.components</title>
<path fill="none" stroke="#de958e" d="M1675.1357,-361.1642C1702.0539,-357.4691 1743.8234,-349.306 1776,-332 1795.1156,-321.7188 1793.8825,-310.9526 1812,-299 1830.7841,-286.6076 1852.8782,-275.7344 1872.9258,-267.0548"/>
<polygon fill="#de958e" stroke="#de958e" points="1874.4299,-270.2189 1882.2755,-263.0987 1871.7021,-263.7722 1874.4299,-270.2189"/>
</g>
<!-- dash_core_components -->
<g id="node20" class="node">
<title>dash_core_components</title>
<polygon fill="#343434" stroke="#343434" points="1739,-90 1557,-90 1557,-54 1739,-54 1739,-90"/>
<text text-anchor="middle" x="1648" y="-68.3" font-family="Courier,monospace" font-size="14.00" fill="#de958e">dash_core_components</text>
</g>
<!-- dash_core_components&#45;&gt;hidebound.server.app -->
<g id="edge33" class="edge">
<title>dash_core_components&#45;&gt;hidebound.server.app</title>
<path fill="none" stroke="#de958e" d="M1739.33,-72.0556C1827.3522,-76.5456 1960.2004,-95.4871 2051,-164 2119.1745,-215.4411 2155.9322,-314.7664 2170.4847,-363.1508"/>
<polygon fill="#de958e" stroke="#de958e" points="2167.1784,-364.3158 2173.333,-372.9397 2173.8997,-362.36 2167.1784,-364.3158"/>
</g>
<!-- dash_core_components&#45;&gt;hidebound.server.components -->
<g id="edge34" class="edge">
<title>dash_core_components&#45;&gt;hidebound.server.components</title>
<path fill="none" stroke="#de958e" d="M1739.2388,-78.6143C1752.7676,-82.9873 1765.625,-89.4798 1776,-99 1816.7131,-136.3587 1771.5554,-180.3507 1812,-218 1813.119,-219.0416 1814.2693,-220.046 1815.4483,-221.0145"/>
<polygon fill="#de958e" stroke="#de958e" points="1813.4587,-223.8948 1823.619,-226.8982 1817.5493,-218.2143 1813.4587,-223.8948"/>
</g>
<!-- hidebound.exporters -->
<g id="node21" class="node">
<title>hidebound.exporters</title>
<polygon fill="#343434" stroke="#343434" points="476.5,-1498 303.5,-1498 303.5,-1462 476.5,-1462 476.5,-1498"/>
<text text-anchor="middle" x="390" y="-1476.3" font-family="Courier,monospace" font-size="14.00" fill="#a0d17b">hidebound.exporters</text>
</g>
<!-- hidebound.exporters&#45;&gt;hidebound.exporters.exporter_base -->
<g id="edge35" class="edge">
<title>hidebound.exporters&#45;&gt;hidebound.exporters.exporter_base</title>
<path fill="none" stroke="#a0d17b" d="M476.7918,-1480C487.7098,-1480 499.125,-1480 510.7034,-1480"/>
<polygon fill="#a0d17b" stroke="#a0d17b" points="510.912,-1483.5001 520.912,-1480 510.912,-1476.5001 510.912,-1483.5001"/>
</g>
<!-- hidebound.exporters&#45;&gt;hidebound.exporters.girder_exporter -->
<g id="edge36" class="edge">
<title>hidebound.exporters&#45;&gt;hidebound.exporters.girder_exporter</title>
<path fill="none" stroke="#a0d17b" d="M464.4112,-1498.0653C482.7956,-1501.7718 502.519,-1505.1153 521,-1507 648.7817,-1520.0314 682.7599,-1524.5477 810,-1507 854.0517,-1500.9248 902.3016,-1487.22 938.9575,-1475.2689"/>
<polygon fill="#a0d17b" stroke="#a0d17b" points="940.1007,-1478.5773 948.4954,-1472.1137 937.9021,-1471.9315 940.1007,-1478.5773"/>
</g>
<!-- dash_cytoscape -->
<g id="node22" class="node">
<title>dash_cytoscape</title>
<polygon fill="#343434" stroke="#343434" points="1714,-236 1582,-236 1582,-200 1714,-200 1714,-236"/>
<text text-anchor="middle" x="1648" y="-214.3" font-family="Courier,monospace" font-size="14.00" fill="#de958e">dash_cytoscape</text>
</g>
<!-- dash_cytoscape&#45;&gt;hidebound.server.components -->
<g id="edge37" class="edge">
<title>dash_cytoscape&#45;&gt;hidebound.server.components</title>
<path fill="none" stroke="#de958e" d="M1714.1104,-224.2962C1740.2763,-226.7882 1771.3053,-229.7434 1801.6066,-232.6292"/>
<polygon fill="#de958e" stroke="#de958e" points="1801.5599,-236.1405 1811.8467,-233.6044 1802.2236,-229.172 1801.5599,-236.1405"/>
</g>
<!-- hidebound.server -->
<g id="node23" class="node">
<title>hidebound.server</title>
<polygon fill="#343434" stroke="#343434" points="1410,-382 1261,-382 1261,-346 1410,-346 1410,-382"/>
<text text-anchor="middle" x="1335.5" y="-360.3" font-family="Courier,monospace" font-size="14.00" fill="#a0d17b">hidebound.server</text>
</g>
<!-- hidebound.server&#45;&gt;hidebound.server.api -->
<g id="edge38" class="edge">
<title>hidebound.server&#45;&gt;hidebound.server.api</title>
<path fill="none" stroke="#a0d17b" d="M1410.0197,-366.1587C1435.8468,-370.2697 1463.4462,-378.8506 1484,-396 1516.1308,-422.809 1487.2634,-456.9342 1520,-483 1610.256,-554.8642 1662.9283,-503.0784 1776,-526 1800.2622,-530.9184 1826.4978,-536.9019 1850.3853,-542.611"/>
<polygon fill="#a0d17b" stroke="#a0d17b" points="1849.5724,-546.0153 1860.1137,-544.9517 1851.2099,-539.2095 1849.5724,-546.0153"/>
</g>
<!-- hidebound.server&#45;&gt;hidebound.server.app -->
<g id="edge39" class="edge">
<title>hidebound.server&#45;&gt;hidebound.server.app</title>
<path fill="none" stroke="#a0d17b" d="M1410.1894,-377.3895C1443.6533,-382.7522 1483.6817,-388.2941 1520,-391 1716.5997,-405.6476 1947.1591,-400.5465 2076.5479,-395.6664"/>
<polygon fill="#a0d17b" stroke="#a0d17b" points="2076.9766,-399.1526 2086.8347,-395.2708 2076.7075,-392.1578 2076.9766,-399.1526"/>
</g>
<!-- hidebound.server&#45;&gt;hidebound.server.components -->
<g id="edge40" class="edge">
<title>hidebound.server&#45;&gt;hidebound.server.components</title>
<path fill="none" stroke="#a0d17b" d="M1347.5646,-345.7379C1373.6653,-308.1111 1439.5601,-222.814 1520,-191 1625.8034,-149.1548 1668.0609,-155.0203 1776,-191 1794.9737,-197.3246 1793.8446,-209.6107 1812,-218 1816.3563,-220.013 1820.873,-221.8809 1825.488,-223.6136"/>
<polygon fill="#a0d17b" stroke="#a0d17b" points="1824.484,-226.9705 1835.0788,-226.9836 1826.8046,-220.3664 1824.484,-226.9705"/>
</g>
<!-- hidebound.server&#45;&gt;hidebound.server.server_tools -->
<g id="edge41" class="edge">
<title>hidebound.server&#45;&gt;hidebound.server.server_tools</title>
<path fill="none" stroke="#a0d17b" d="M1361.2287,-382.0665C1394.1278,-406.4239 1450.7998,-452.8048 1484,-505 1511.1553,-547.6918 1499.984,-566.5311 1520,-613 1554.3484,-692.7429 1605.6558,-781.6582 1631.6478,-825.1235"/>
<polygon fill="#a0d17b" stroke="#a0d17b" points="1628.7926,-827.1674 1636.9437,-833.9357 1634.7925,-823.5616 1628.7926,-827.1674"/>
</g>
<!-- dash.dependencies -->
<g id="node24" class="node">
<title>dash.dependencies</title>
<polygon fill="#343434" stroke="#343434" points="2010,-344 1853,-344 1853,-308 2010,-308 2010,-344"/>
<text text-anchor="middle" x="1931.5" y="-322.3" font-family="Courier,monospace" font-size="14.00" fill="#de958e">dash.dependencies</text>
</g>
<!-- dash.dependencies&#45;&gt;hidebound.server.app -->
<g id="edge42" class="edge">
<title>dash.dependencies&#45;&gt;hidebound.server.app</title>
<path fill="none" stroke="#de958e" d="M1999.8366,-344.0198C2030.8263,-352.1915 2067.6381,-361.8985 2099.733,-370.3616"/>
<polygon fill="#de958e" stroke="#de958e" points="2098.9685,-373.7796 2109.5304,-372.9451 2100.7534,-367.011 2098.9685,-373.7796"/>
</g>
<!-- dash_html_components -->
<g id="node25" class="node">
<title>dash_html_components</title>
<polygon fill="#343434" stroke="#343434" points="1739,-36 1557,-36 1557,0 1739,0 1739,-36"/>
<text text-anchor="middle" x="1648" y="-14.3" font-family="Courier,monospace" font-size="14.00" fill="#de958e">dash_html_components</text>
</g>
<!-- dash_html_components&#45;&gt;hidebound.server.app -->
<g id="edge43" class="edge">
<title>dash_html_components&#45;&gt;hidebound.server.app</title>
<path fill="none" stroke="#de958e" d="M1739.2188,-6.5331C1828.0966,-.4862 1962.4202,-5.6003 2051,-75 2144.0541,-147.9052 2169.2226,-299.6769 2175.7836,-362.6588"/>
<polygon fill="#de958e" stroke="#de958e" points="2172.3046,-363.0462 2176.745,-372.6656 2179.2725,-362.3767 2172.3046,-363.0462"/>
</g>
<!-- dash_html_components&#45;&gt;hidebound.server.components -->
<g id="edge44" class="edge">
<title>dash_html_components&#45;&gt;hidebound.server.components</title>
<path fill="none" stroke="#de958e" d="M1739.0059,-23.5186C1752.8091,-27.9816 1765.8163,-34.7885 1776,-45 1831.4576,-100.609 1756.942,-161.9954 1812,-218 1812.9226,-218.9385 1813.8705,-219.8474 1814.8417,-220.7276"/>
<polygon fill="#de958e" stroke="#de958e" points="1812.6959,-223.4927 1822.7184,-226.9278 1817.0256,-217.9923 1812.6959,-223.4927"/>
</g>
<!-- dash_table -->
<g id="node26" class="node">
<title>dash_table</title>
<polygon fill="#343434" stroke="#343434" points="1697.5,-144 1598.5,-144 1598.5,-108 1697.5,-108 1697.5,-144"/>
<text text-anchor="middle" x="1648" y="-122.3" font-family="Courier,monospace" font-size="14.00" fill="#de958e">dash_table</text>
</g>
<!-- dash_table&#45;&gt;hidebound.server.components -->
<g id="edge45" class="edge">
<title>dash_table&#45;&gt;hidebound.server.components</title>
<path fill="none" stroke="#de958e" d="M1697.7288,-129.402C1723.1765,-133.2499 1753.4543,-141.295 1776,-158 1800.987,-176.5139 1786.8039,-199.7718 1812,-218 1813.8902,-219.3675 1815.8378,-220.6673 1817.8344,-221.9029"/>
<polygon fill="#de958e" stroke="#de958e" points="1816.4342,-225.1285 1826.8768,-226.9182 1819.8295,-219.007 1816.4342,-225.1285"/>
</g>
<!-- rolling_pin.blob_etl -->
<g id="node27" class="node">
<title>rolling_pin.blob_etl</title>
<polygon fill="#343434" stroke="#343434" points="1739,-290 1557,-290 1557,-254 1739,-254 1739,-290"/>
<text text-anchor="middle" x="1648" y="-268.3" font-family="Courier,monospace" font-size="14.00" fill="#de958e">rolling_pin.blob_etl</text>
</g>
<!-- rolling_pin.blob_etl&#45;&gt;hidebound.server.components -->
<g id="edge46" class="edge">
<title>rolling_pin.blob_etl&#45;&gt;hidebound.server.components</title>
<path fill="none" stroke="#de958e" d="M1739.2617,-263.3084C1759.2441,-261.4053 1780.7663,-259.3556 1801.924,-257.3406"/>
<polygon fill="#de958e" stroke="#de958e" points="1802.3182,-260.819 1811.9413,-256.3865 1801.6545,-253.8505 1802.3182,-260.819"/>
</g>
<!-- dash.exceptions -->
<g id="node28" class="node">
<title>dash.exceptions</title>
<polygon fill="#343434" stroke="#343434" points="2001.5,-209 1861.5,-209 1861.5,-173 2001.5,-173 2001.5,-209"/>
<text text-anchor="middle" x="1931.5" y="-187.3" font-family="Courier,monospace" font-size="14.00" fill="#de958e">dash.exceptions</text>
</g>
<!-- dash.exceptions&#45;&gt;hidebound.server.app -->
<g id="edge47" class="edge">
<title>dash.exceptions&#45;&gt;hidebound.server.app</title>
<path fill="none" stroke="#de958e" d="M2001.54,-198.1465C2018.6926,-202.1637 2036.3211,-208.3854 2051,-218 2107.0296,-254.6991 2146.9937,-325.1633 2165.8268,-363.8759"/>
<polygon fill="#de958e" stroke="#de958e" points="2162.7054,-365.4622 2170.1565,-372.9942 2169.0287,-362.4595 2162.7054,-365.4622"/>
</g>
<!-- flask -->
<g id="node29" class="node">
<title>flask</title>
<polygon fill="#343434" stroke="#343434" points="1364.5,-1249 1306.5,-1249 1306.5,-1213 1364.5,-1213 1364.5,-1249"/>
<text text-anchor="middle" x="1335.5" y="-1227.3" font-family="Courier,monospace" font-size="14.00" fill="#de958e">flask</text>
</g>
<!-- flask&#45;&gt;hidebound.server.api -->
<g id="edge48" class="edge">
<title>flask&#45;&gt;hidebound.server.api</title>
<path fill="none" stroke="#de958e" d="M1364.7101,-1231.6583C1396.3067,-1231.0781 1447.1015,-1226.284 1484,-1204 1506.2228,-1190.579 1503.2112,-1177.8018 1520,-1158 1628.8316,-1029.637 1680.9951,-1017.9081 1776,-879 1843.73,-779.9709 1898.9875,-647.1023 1921.1016,-590.4474"/>
<polygon fill="#de958e" stroke="#de958e" points="1924.3776,-591.6798 1924.722,-581.0905 1917.8492,-589.1538 1924.3776,-591.6798"/>
</g>
<!-- flask&#45;&gt;hidebound.server.app -->
<g id="edge49" class="edge">
<title>flask&#45;&gt;hidebound.server.app</title>
<path fill="none" stroke="#de958e" d="M1364.7458,-1228.6765C1395.2727,-1225.5679 1444.1563,-1218.6461 1484,-1204 1765.7497,-1100.432 1878.5211,-1082.6833 2051,-837 2146.4556,-701.0307 2170.5414,-494.4791 2176.2934,-419.4763"/>
<polygon fill="#de958e" stroke="#de958e" points="2179.7925,-419.6133 2177.0154,-409.3889 2172.8103,-419.1135 2179.7925,-419.6133"/>
</g>
<!-- flask&#45;&gt;hidebound.server.server_tools -->
<g id="edge50" class="edge">
<title>flask&#45;&gt;hidebound.server.server_tools</title>
<path fill="none" stroke="#de958e" d="M1364.5687,-1234.736C1398.2406,-1237.2893 1453.0415,-1235.6654 1484,-1204 1555.411,-1130.9586 1473.0771,-1067.7348 1520,-977 1541.7798,-934.8844 1583.0966,-898.5503 1612.9073,-876.0772"/>
<polygon fill="#de958e" stroke="#de958e" points="1615.0191,-878.8686 1620.9846,-870.1129 1610.8609,-873.2375 1615.0191,-878.8686"/>
</g>
<!-- jinja2 -->
<g id="node30" class="node">
<title>jinja2</title>
<polygon fill="#343434" stroke="#343434" points="1368.5,-1195 1302.5,-1195 1302.5,-1159 1368.5,-1159 1368.5,-1195"/>
<text text-anchor="middle" x="1335.5" y="-1173.3" font-family="Courier,monospace" font-size="14.00" fill="#de958e">jinja2</text>
</g>
<!-- jinja2&#45;&gt;hidebound.server.server_tools -->
<g id="edge51" class="edge">
<title>jinja2&#45;&gt;hidebound.server.server_tools</title>
<path fill="none" stroke="#de958e" d="M1368.5679,-1180.739C1402.212,-1182.5751 1453.6056,-1179.6347 1484,-1150 1540.2317,-1095.1739 1482.2645,-1045.8762 1520,-977 1542.7523,-935.4716 1583.7994,-899.0752 1613.2829,-876.4259"/>
<polygon fill="#de958e" stroke="#de958e" points="1615.7633,-878.9395 1621.6473,-870.1287 1611.5531,-873.3471 1615.7633,-878.9395"/>
</g>
<!-- hidebound -->
<g id="node31" class="node">
<title>hidebound</title>
<polygon fill="#343434" stroke="#343434" points="91,-1062 0,-1062 0,-1026 91,-1026 91,-1062"/>
<text text-anchor="middle" x="45.5" y="-1040.3" font-family="Courier,monospace" font-size="14.00" fill="#a0d17b">hidebound</text>
</g>
<!-- hidebound&#45;&gt;hidebound.exporters -->
<g id="edge52" class="edge">
<title>hidebound&#45;&gt;hidebound.exporters</title>
<path fill="none" stroke="#a0d17b" d="M48.6494,-1062.3645C58.7662,-1119.6536 91.8349,-1293.8929 127,-1338 175.644,-1399.0135 257.8895,-1437.3446 317.4755,-1458.5881"/>
<polygon fill="#a0d17b" stroke="#a0d17b" points="316.6118,-1461.9934 327.2066,-1461.978 318.9146,-1455.383 316.6118,-1461.9934"/>
</g>
<!-- hidebound&#45;&gt;hidebound.server -->
<g id="edge53" class="edge">
<title>hidebound&#45;&gt;hidebound.server</title>
<path fill="none" stroke="#a0d17b" d="M81.7002,-1025.8879C85.1257,-1023.2242 88.3149,-1020.2624 91,-1017 262.7869,-808.2781 138.1426,-664.162 295,-444 326.3749,-399.9628 335.9292,-368 390,-368 390,-368 390,-368 665.5,-368 876.0117,-368 1123.7217,-366.001 1250.8337,-364.8293"/>
<polygon fill="#a0d17b" stroke="#a0d17b" points="1250.9252,-368.3287 1260.8922,-364.736 1250.8602,-361.329 1250.9252,-368.3287"/>
</g>
<!-- hidebound.core -->
<g id="node34" class="node">
<title>hidebound.core</title>
<polygon fill="#343434" stroke="#343434" points="259,-1062 127,-1062 127,-1026 259,-1026 259,-1062"/>
<text text-anchor="middle" x="193" y="-1040.3" font-family="Courier,monospace" font-size="14.00" fill="#a0d17b">hidebound.core</text>
</g>
<!-- hidebound&#45;&gt;hidebound.core -->
<g id="edge54" class="edge">
<title>hidebound&#45;&gt;hidebound.core</title>
<path fill="none" stroke="#a0d17b" d="M91.3614,-1044C99.4456,-1044 108.0541,-1044 116.7093,-1044"/>
<polygon fill="#a0d17b" stroke="#a0d17b" points="116.8627,-1047.5001 126.8626,-1044 116.8626,-1040.5001 116.8627,-1047.5001"/>
</g>
<!-- flasgger -->
<g id="node32" class="node">
<title>flasgger</title>
<polygon fill="#343434" stroke="#343434" points="1689.5,-474 1606.5,-474 1606.5,-438 1689.5,-438 1689.5,-474"/>
<text text-anchor="middle" x="1648" y="-452.3" font-family="Courier,monospace" font-size="14.00" fill="#de958e">flasgger</text>
</g>
<!-- flasgger&#45;&gt;hidebound.server.api -->
<g id="edge55" class="edge">
<title>flasgger&#45;&gt;hidebound.server.api</title>
<path fill="none" stroke="#de958e" d="M1689.5683,-464.1348C1714.9271,-469.6498 1747.7834,-477.7899 1776,-488 1815.8454,-502.4179 1859.1056,-523.7845 1889.8571,-540.028"/>
<polygon fill="#de958e" stroke="#de958e" points="1888.5104,-543.2763 1898.9814,-544.8912 1891.8029,-537.0989 1888.5104,-543.2763"/>
</g>
<!-- flasgger&#45;&gt;hidebound.server.app -->
<g id="edge56" class="edge">
<title>flasgger&#45;&gt;hidebound.server.app</title>
<path fill="none" stroke="#de958e" d="M1689.7747,-455.0869C1763.2858,-452.9467 1920.3619,-445.9853 2051,-424 2069.5664,-420.8754 2089.3815,-416.3289 2107.7038,-411.6042"/>
<polygon fill="#de958e" stroke="#de958e" points="2108.6421,-414.9765 2117.4221,-409.0468 2106.8606,-408.207 2108.6421,-414.9765"/>
</g>
<!-- pandasql -->
<g id="node33" class="node">
<title>pandasql</title>
<polygon fill="#343434" stroke="#343434" points="1377,-550 1294,-550 1294,-514 1377,-514 1377,-550"/>
<text text-anchor="middle" x="1335.5" y="-528.3" font-family="Courier,monospace" font-size="14.00" fill="#de958e">pandasql</text>
</g>
<!-- pandasql&#45;&gt;hidebound.core.database -->
<g id="edge57" class="edge">
<title>pandasql&#45;&gt;hidebound.core.database</title>
<path fill="none" stroke="#de958e" d="M1377.3209,-539.2266C1417.4811,-546.1663 1479.967,-556.9639 1534.7872,-566.4368"/>
<polygon fill="#de958e" stroke="#de958e" points="1534.477,-569.935 1544.927,-568.189 1535.669,-563.0372 1534.477,-569.935"/>
</g>
<!-- hidebound.core&#45;&gt;hidebound.core.config -->
<g id="edge58" class="edge">
<title>hidebound.core&#45;&gt;hidebound.core.config</title>
<path fill="none" stroke="#a0d17b" d="M196.3541,-1062.1749C204.9122,-1103.1793 231.5299,-1203.2494 295,-1254 375.5776,-1318.4298 418.514,-1295.1437 521,-1307 660.2748,-1323.1123 1043.1118,-1362.5389 1151,-1273 1194.8313,-1236.6234 1144.6675,-1188.1104 1187,-1150 1199.2569,-1138.9656 1214.4627,-1131.7249 1230.4266,-1127.0794"/>
<polygon fill="#a0d17b" stroke="#a0d17b" points="1231.627,-1130.385 1240.4448,-1124.5116 1229.8889,-1123.6042 1231.627,-1130.385"/>
</g>
<!-- hidebound.core&#45;&gt;hidebound.core.database -->
<g id="edge59" class="edge">
<title>hidebound.core&#45;&gt;hidebound.core.database</title>
<path fill="none" stroke="#a0d17b" d="M194.3466,-1025.971C200.666,-945.9828 229.851,-623.9174 295,-551 408.8726,-423.5491 494.5886,-448 665.5,-448 665.5,-448 665.5,-448 998.5,-448 1214.5637,-448 1304.7593,-352.3505 1484,-473 1515.3394,-494.095 1491.199,-525.5529 1520,-550 1526.1253,-555.1993 1532.951,-559.6503 1540.1735,-563.4604"/>
<polygon fill="#a0d17b" stroke="#a0d17b" points="1538.9824,-566.7712 1549.5112,-567.9517 1542.0166,-560.463 1538.9824,-566.7712"/>
</g>
<!-- hidebound.core&#45;&gt;hidebound.core.database_test_base -->
<g id="edge60" class="edge">
<title>hidebound.core&#45;&gt;hidebound.core.database_test_base</title>
<path fill="none" stroke="#a0d17b" d="M204.0632,-1025.9862C220.5971,-1000.6656 254.2155,-954.9695 295,-931 383.859,-878.7766 419.2328,-895.3291 521,-879 797.777,-834.5895 871.1761,-832.3756 1151,-849 1163.7019,-849.7546 1176.8699,-850.799 1190.0587,-852.026"/>
<polygon fill="#a0d17b" stroke="#a0d17b" points="1189.8512,-855.5221 1200.1409,-852.998 1190.523,-848.5544 1189.8512,-855.5221"/>
</g>
<!-- hidebound.core&#45;&gt;hidebound.core.database_tools -->
<g id="edge61" class="edge">
<title>hidebound.core&#45;&gt;hidebound.core.database_tools</title>
<path fill="none" stroke="#a0d17b" d="M195.1845,-1025.8385C203.7864,-957.6447 237.6862,-718.4469 295,-673 338.0448,-638.8677 667.5931,-639.3599 860.0052,-642.6784"/>
<polygon fill="#a0d17b" stroke="#a0d17b" points="860.1389,-646.1812 870.1994,-642.859 860.263,-639.1823 860.1389,-646.1812"/>
</g>
<!-- hidebound.core&#45;&gt;hidebound.core.parser -->
<g id="edge62" class="edge">
<title>hidebound.core&#45;&gt;hidebound.core.parser</title>
<path fill="none" stroke="#a0d17b" d="M220.7745,-1062.0953C240.8447,-1074.6609 268.9035,-1091.1999 295,-1103 303.2684,-1106.7387 312.1095,-1110.2819 320.9472,-1113.5542"/>
<polygon fill="#a0d17b" stroke="#a0d17b" points="319.9138,-1116.902 330.5083,-1116.995 322.2842,-1110.3155 319.9138,-1116.902"/>
</g>
<!-- hidebound.core&#45;&gt;hidebound.core.specification_base -->
<g id="edge63" class="edge">
<title>hidebound.core&#45;&gt;hidebound.core.specification_base</title>
<path fill="none" stroke="#a0d17b" d="M259.0489,-1053.6242C270.9997,-1055.2064 283.3604,-1056.7387 295,-1058 483.2212,-1078.396 701.0176,-1088.0198 843.8157,-1092.4416"/>
<polygon fill="#a0d17b" stroke="#a0d17b" points="843.8641,-1095.9446 853.9661,-1092.751 844.0775,-1088.9478 843.8641,-1095.9446"/>
</g>
<!-- hidebound.core&#45;&gt;hidebound.core.specifications -->
<g id="edge64" class="edge">
<title>hidebound.core&#45;&gt;hidebound.core.specifications</title>
<path fill="none" stroke="#a0d17b" d="M259.1423,-1040.2434C318.3513,-1036.7501 407.5186,-1031.1682 485,-1025 645.6462,-1012.2111 685.1477,-1000.8644 846,-991 964.3262,-983.7435 1098.9782,-980.2385 1197.0654,-978.5511"/>
<polygon fill="#a0d17b" stroke="#a0d17b" points="1197.3995,-982.046 1207.3393,-978.3786 1197.282,-975.047 1197.3995,-982.046"/>
</g>
<!-- hidebound.core&#45;&gt;hidebound.core.test_specifications -->
<g id="edge65" class="edge">
<title>hidebound.core&#45;&gt;hidebound.core.test_specifications</title>
<path fill="none" stroke="#a0d17b" d="M198.7335,-1062.1987C211.1275,-1102.0519 240.7655,-1200.1818 259,-1284 269.6707,-1333.0499 258.1793,-1472.8827 295,-1507 368.9381,-1575.5096 420.2898,-1521.7741 521,-1526 801.4666,-1537.7688 956.3098,-1683.2269 1151,-1481 1210.5964,-1419.0966 1128.9268,-1159.3345 1187,-1096 1187.6586,-1095.2818 1188.3293,-1094.5787 1189.0118,-1093.8905"/>
<polygon fill="#a0d17b" stroke="#a0d17b" points="1191.56,-1096.3101 1196.7497,-1087.0733 1186.9326,-1091.0578 1191.56,-1096.3101"/>
</g>
<!-- hidebound.core&#45;&gt;hidebound.core.tools -->
<g id="edge66" class="edge">
<title>hidebound.core&#45;&gt;hidebound.core.tools</title>
<path fill="none" stroke="#a0d17b" d="M193.9006,-1025.8923C197.3974,-976.4061 214.289,-838.062 295,-770 305.3775,-761.2488 457.8989,-734.4429 563.9761,-716.6578"/>
<polygon fill="#a0d17b" stroke="#a0d17b" points="564.8049,-720.0679 574.0903,-714.9657 563.6498,-713.1638 564.8049,-720.0679"/>
</g>
<!-- hidebound.core&#45;&gt;hidebound.core.traits -->
<g id="edge67" class="edge">
<title>hidebound.core&#45;&gt;hidebound.core.traits</title>
<path fill="none" stroke="#a0d17b" d="M211.4526,-1025.9069C230.5859,-1008.4126 262.2396,-982.8626 295,-971 510.7992,-892.8588 584.4094,-975.2402 810,-933 826.4445,-929.9209 829.7969,-926.1665 846,-922 862.0976,-917.8606 879.2526,-913.8649 896.0301,-910.1823"/>
<polygon fill="#a0d17b" stroke="#a0d17b" points="896.8232,-913.5918 905.8541,-908.0515 895.3394,-906.7508 896.8232,-913.5918"/>
</g>
<!-- hidebound.core&#45;&gt;hidebound.core.validators -->
<g id="edge68" class="edge">
<title>hidebound.core&#45;&gt;hidebound.core.validators</title>
<path fill="none" stroke="#a0d17b" d="M202.5936,-1062.35C217.9667,-1089.6073 250.9279,-1139.9429 295,-1162 337.3096,-1183.175 452.859,-1188.617 543.7777,-1189.4054"/>
<polygon fill="#a0d17b" stroke="#a0d17b" points="543.8697,-1192.906 553.8936,-1189.475 543.918,-1185.9062 543.8697,-1192.906"/>
</g>
<!-- numpy -->
<g id="node35" class="node">
<title>numpy</title>
<polygon fill="#343434" stroke="#343434" points="694.5,-550 636.5,-550 636.5,-514 694.5,-514 694.5,-550"/>
<text text-anchor="middle" x="665.5" y="-528.3" font-family="Courier,monospace" font-size="14.00" fill="#de958e">numpy</text>
</g>
<!-- numpy&#45;&gt;hidebound.core.database -->
<g id="edge69" class="edge">
<title>numpy&#45;&gt;hidebound.core.database</title>
<path fill="none" stroke="#de958e" d="M694.576,-527.8593C770.9197,-517.9683 982.7865,-496.86 1151,-540 1168.5245,-544.4943 1169.5738,-554.1384 1187,-559 1302.3014,-591.1667 1439.9241,-594.9961 1534.6086,-592.601"/>
<polygon fill="#de958e" stroke="#de958e" points="1534.8867,-596.0947 1544.7846,-592.3155 1534.6903,-589.0975 1534.8867,-596.0947"/>
</g>
<!-- numpy&#45;&gt;hidebound.core.database_test_base -->
<g id="edge70" class="edge">
<title>numpy&#45;&gt;hidebound.core.database_test_base</title>
<path fill="none" stroke="#de958e" d="M694.5016,-533.7798C793.1914,-540.0334 1112.0421,-561.9255 1151,-586 1250.0954,-647.2371 1306.1471,-783.7818 1326.5549,-842.8611"/>
<polygon fill="#de958e" stroke="#de958e" points="1323.3372,-844.2728 1329.847,-852.6319 1329.9708,-842.0377 1323.3372,-844.2728"/>
</g>
<!-- numpy&#45;&gt;hidebound.core.database_tools -->
<g id="edge71" class="edge">
<title>numpy&#45;&gt;hidebound.core.database_tools</title>
<path fill="none" stroke="#de958e" d="M694.7597,-542.0168C748.4182,-560.3864 863.6587,-599.8381 935.752,-624.5187"/>
<polygon fill="#de958e" stroke="#de958e" points="935.0328,-627.9719 945.6274,-627.8995 937.3001,-621.3492 935.0328,-627.9719"/>
</g>
<!-- numpy&#45;&gt;hidebound.server.api -->
<g id="edge72" class="edge">
<title>numpy&#45;&gt;hidebound.server.api</title>
<path fill="none" stroke="#de958e" d="M694.7859,-527.2148C730.4078,-521.6387 792.4253,-512.7152 846,-509 1128.8818,-489.3833 1204.6848,-456.113 1484,-505 1500.7565,-507.9328 1503.428,-514.1594 1520,-518 1624.1104,-542.1277 1746.1183,-553.4088 1830.1021,-558.6267"/>
<polygon fill="#de958e" stroke="#de958e" points="1829.959,-562.1244 1840.1518,-559.2335 1830.3809,-555.1371 1829.959,-562.1244"/>
</g>
<!-- pandas -->
<g id="node36" class="node">
<title>pandas</title>
<polygon fill="#343434" stroke="#343434" points="423,-596 357,-596 357,-560 423,-560 423,-596"/>
<text text-anchor="middle" x="390" y="-574.3" font-family="Courier,monospace" font-size="14.00" fill="#de958e">pandas</text>
</g>
<!-- pandas&#45;&gt;hidebound.core.database -->
<g id="edge73" class="edge">
<title>pandas&#45;&gt;hidebound.core.database</title>
<path fill="none" stroke="#de958e" d="M413.5041,-559.991C438.5616,-542.0221 480.1772,-515.6065 521,-505 624.5616,-478.0929 1388.5336,-456.6765 1484,-505 1508.1107,-517.2044 1497.5612,-538.9411 1520,-554 1525.5589,-557.7306 1531.5168,-561.0265 1537.7103,-563.9383"/>
<polygon fill="#de958e" stroke="#de958e" points="1536.3667,-567.1705 1546.9339,-567.9354 1539.1501,-560.7477 1536.3667,-567.1705"/>
</g>
<!-- pandas&#45;&gt;hidebound.core.database_test_base -->
<g id="edge74" class="edge">
<title>pandas&#45;&gt;hidebound.core.database_test_base</title>
<path fill="none" stroke="#de958e" d="M423.3112,-578.0842C561.6838,-578.6638 1086.874,-583.2216 1151,-619 1243.2732,-670.4828 1301.9751,-789.6077 1324.7481,-843.5626"/>
<polygon fill="#de958e" stroke="#de958e" points="1321.5304,-844.9407 1328.5822,-852.8478 1328.0005,-842.2689 1321.5304,-844.9407"/>
</g>
<!-- pandas&#45;&gt;hidebound.core.database_tools -->
<g id="edge75" class="edge">
<title>pandas&#45;&gt;hidebound.core.database_tools</title>
<path fill="none" stroke="#de958e" d="M423.1477,-581.7043C504.4044,-590.7847 717.2683,-614.5723 860.0305,-630.526"/>
<polygon fill="#de958e" stroke="#de958e" points="859.8586,-634.0285 870.1855,-631.6608 860.6361,-627.0718 859.8586,-634.0285"/>
</g>
<!-- pandas&#45;&gt;hidebound.core.tools -->
<g id="edge76" class="edge">
<title>pandas&#45;&gt;hidebound.core.tools</title>
<path fill="none" stroke="#de958e" d="M423.2317,-592.7161C470.9884,-613.8642 559.4042,-653.0175 615.1941,-677.723"/>
<polygon fill="#de958e" stroke="#de958e" points="613.9742,-681.0105 624.5349,-681.8594 616.8085,-674.61 613.9742,-681.0105"/>
</g>
<!-- pandas&#45;&gt;hidebound.server.components -->
<g id="edge77" class="edge">
<title>pandas&#45;&gt;hidebound.server.components</title>
<path fill="none" stroke="#de958e" d="M409.3986,-559.621C433.7634,-537.3864 477.6505,-500.0731 521,-477 718.4515,-371.9051 774.8215,-318 998.5,-318 998.5,-318 998.5,-318 1335.5,-318 1531.4598,-318 1583.5177,-335.7532 1776,-299 1811.968,-292.1322 1850.8864,-278.6113 1880.7911,-266.8178"/>
<polygon fill="#de958e" stroke="#de958e" points="1882.1879,-270.0287 1890.1685,-263.0601 1879.5841,-263.5309 1882.1879,-270.0287"/>
</g>
<!-- schematics.exceptions -->
<g id="node37" class="node">
<title>schematics.exceptions</title>
<polygon fill="#343434" stroke="#343434" points="485,-1016 295,-1016 295,-980 485,-980 485,-1016"/>
<text text-anchor="middle" x="390" y="-994.3" font-family="Courier,monospace" font-size="14.00" fill="#de958e">schematics.exceptions</text>
</g>
<!-- schematics.exceptions&#45;&gt;hidebound.core.config -->
<g id="edge78" class="edge">
<title>schematics.exceptions&#45;&gt;hidebound.core.config</title>
<path fill="none" stroke="#de958e" d="M485.0851,-990.7027C632.9261,-982.864 924.4546,-981.5833 1151,-1069 1169.6591,-1076.1999 1168.671,-1087.9971 1187,-1096 1200.6911,-1101.9779 1215.6492,-1106.6323 1230.6309,-1110.2563"/>
<polygon fill="#de958e" stroke="#de958e" points="1229.9392,-1113.6883 1240.4664,-1112.4925 1231.4912,-1106.8625 1229.9392,-1113.6883"/>
</g>
<!-- schematics.exceptions&#45;&gt;hidebound.core.database_tools -->
<g id="edge79" class="edge">
<title>schematics.exceptions&#45;&gt;hidebound.core.database_tools</title>
<path fill="none" stroke="#de958e" d="M397.308,-979.9745C413.6006,-942.1056 456.6066,-853.9922 521,-808 629.5497,-730.4697 684.2225,-771.4297 810,-727 859.074,-709.6651 913.5373,-685.7306 951.2506,-668.3776"/>
<polygon fill="#de958e" stroke="#de958e" points="952.8577,-671.4906 960.4643,-664.1156 949.9189,-665.1373 952.8577,-671.4906"/>
</g>
<!-- schematics.exceptions&#45;&gt;hidebound.core.specification_base -->
<g id="edge80" class="edge">
<title>schematics.exceptions&#45;&gt;hidebound.core.specification_base</title>
<path fill="none" stroke="#de958e" d="M435.7057,-1016.0021C460.569,-1025.1166 492.0737,-1035.5824 521,-1042 627.383,-1065.6022 749.5128,-1079.1773 843.627,-1086.8131"/>
<polygon fill="#de958e" stroke="#de958e" points="843.5545,-1090.3183 853.8011,-1087.6243 844.1109,-1083.3405 843.5545,-1090.3183"/>
</g>
<!-- schematics.exceptions&#45;&gt;hidebound.core.tools -->
<g id="edge81" class="edge">
<title>schematics.exceptions&#45;&gt;hidebound.core.tools</title>
<path fill="none" stroke="#de958e" d="M396.1339,-979.9267C411.1875,-937.9589 453.7058,-832.7165 521,-770 543.4371,-749.0892 573.28,-733.2225 600.0181,-721.9267"/>
<polygon fill="#de958e" stroke="#de958e" points="601.3966,-725.1444 609.329,-718.1211 598.7481,-718.6648 601.3966,-725.1444"/>
</g>
<!-- schematics.exceptions&#45;&gt;hidebound.core.validators -->
<g id="edge82" class="edge">
<title>schematics.exceptions&#45;&gt;hidebound.core.validators</title>
<path fill="none" stroke="#de958e" d="M416.4161,-1016.218C466.4013,-1050.6906 574.8044,-1125.4513 630.6665,-1163.9769"/>
<polygon fill="#de958e" stroke="#de958e" points="628.9447,-1167.041 639.1639,-1169.8372 632.9188,-1161.2785 628.9447,-1167.041"/>
</g>
<!-- schematics.exceptions&#45;&gt;hidebound.server.api -->
<g id="edge83" class="edge">
<title>schematics.exceptions&#45;&gt;hidebound.server.api</title>
<path fill="none" stroke="#de958e" d="M414.8356,-979.8451C434.6272,-964.9209 462.6309,-942.7623 485,-921 502.6219,-903.8561 499.8564,-891.5456 521,-879 766.1742,-733.5258 1516.4161,-730.8529 1776,-613 1794.211,-604.7321 1793.7124,-594.0971 1812,-586 1818.0355,-583.3277 1824.3776,-580.9651 1830.8617,-578.8764"/>
<polygon fill="#de958e" stroke="#de958e" points="1831.8677,-582.2288 1840.444,-576.008 1829.8602,-575.5228 1831.8677,-582.2288"/>
</g>
<!-- humanfriendly -->
<g id="node38" class="node">
<title>humanfriendly</title>
<polygon fill="#343434" stroke="#343434" points="452,-718 328,-718 328,-682 452,-682 452,-718"/>
<text text-anchor="middle" x="390" y="-696.3" font-family="Courier,monospace" font-size="14.00" fill="#de958e">humanfriendly</text>
</g>
<!-- humanfriendly&#45;&gt;hidebound.core.tools -->
<g id="edge84" class="edge">
<title>humanfriendly&#45;&gt;hidebound.core.tools</title>
<path fill="none" stroke="#de958e" d="M452.1711,-700C485.1007,-700 526.3762,-700 563.825,-700"/>
<polygon fill="#de958e" stroke="#de958e" points="564.2759,-703.5001 574.2759,-700 564.2758,-696.5001 564.2759,-703.5001"/>
</g>
<!-- pyparsing -->
<g id="node39" class="node">
<title>pyparsing</title>
<polygon fill="#343434" stroke="#343434" points="238.5,-1329 147.5,-1329 147.5,-1293 238.5,-1293 238.5,-1329"/>
<text text-anchor="middle" x="193" y="-1307.3" font-family="Courier,monospace" font-size="14.00" fill="#de958e">pyparsing</text>
</g>
<!-- pyparsing&#45;&gt;hidebound.core.parser -->
<g id="edge85" class="edge">
<title>pyparsing&#45;&gt;hidebound.core.parser</title>
<path fill="none" stroke="#de958e" d="M207.4213,-1292.9103C226.2274,-1269.9141 260.7773,-1229.6445 295,-1200 312.3945,-1184.9325 333.3627,-1170.2681 351.1699,-1158.693"/>
<polygon fill="#de958e" stroke="#de958e" points="353.0985,-1161.6141 359.6282,-1153.2706 349.3206,-1155.7211 353.0985,-1161.6141"/>
</g>
<!-- pyparsing&#45;&gt;hidebound.core.specification_base -->
<g id="edge86" class="edge">
<title>pyparsing&#45;&gt;hidebound.core.specification_base</title>
<path fill="none" stroke="#de958e" d="M238.6728,-1318.4048C298.5071,-1325.898 405.1849,-1331.5328 485,-1293 506.5388,-1282.6016 499.8336,-1264.137 521,-1253 635.6483,-1192.6761 708.5671,-1295.589 810,-1215 843.3088,-1188.536 814.94,-1152.8122 846.1664,-1120.2396"/>
<polygon fill="#de958e" stroke="#de958e" points="848.7186,-1122.65 853.778,-1113.3412 844.0178,-1117.4632 848.7186,-1122.65"/>
</g>
<!-- pyparsing&#45;&gt;hidebound.core.validators -->
<g id="edge87" class="edge">
<title>pyparsing&#45;&gt;hidebound.core.validators</title>
<path fill="none" stroke="#de958e" d="M238.5676,-1309.8758C298.2868,-1306.7203 404.8388,-1295.2052 485,-1254 504.5734,-1243.9387 501.5547,-1230.3067 521,-1220 528.5877,-1215.9783 536.6571,-1212.4612 544.9531,-1209.3856"/>
<polygon fill="#de958e" stroke="#de958e" points="546.108,-1212.6897 554.4022,-1206.0974 543.8074,-1206.0785 546.108,-1212.6897"/>
</g>
<!-- schematics -->
<g id="node40" class="node">
<title>schematics</title>
<polygon fill="#343434" stroke="#343434" points="715,-1390 616,-1390 616,-1354 715,-1354 715,-1390"/>
<text text-anchor="middle" x="665.5" y="-1368.3" font-family="Courier,monospace" font-size="14.00" fill="#de958e">schematics</text>
</g>
<!-- schematics&#45;&gt;hidebound.core.config -->
<g id="edge88" class="edge">
<title>schematics&#45;&gt;hidebound.core.config</title>
<path fill="none" stroke="#de958e" d="M715.0171,-1381.2078C825.3752,-1400.5027 1086.8487,-1439.0367 1151,-1384 1230.8611,-1315.4857 1113.6146,-1225.4094 1187,-1150 1198.8396,-1137.8338 1214.1972,-1130.0962 1230.5339,-1125.3248"/>
<polygon fill="#de958e" stroke="#de958e" points="1231.4221,-1128.7104 1240.2467,-1122.8473 1229.6918,-1121.9276 1231.4221,-1128.7104"/>
</g>
<!-- schematics&#45;&gt;hidebound.core.specification_base -->
<g id="edge89" class="edge">
<title>schematics&#45;&gt;hidebound.core.specification_base</title>
<path fill="none" stroke="#de958e" d="M715.0906,-1355.6186C744.3387,-1344.5628 781.1507,-1328.1312 810,-1307 883.7766,-1252.9612 949.9403,-1165.9272 980.545,-1122.469"/>
<polygon fill="#de958e" stroke="#de958e" points="983.5086,-1124.3379 986.3549,-1114.1325 977.7657,-1120.3355 983.5086,-1124.3379"/>
</g>
<!-- schematics&#45;&gt;hidebound.exporters.girder_exporter -->
<g id="edge90" class="edge">
<title>schematics&#45;&gt;hidebound.exporters.girder_exporter</title>
<path fill="none" stroke="#de958e" d="M715.3017,-1376.5333C743.7798,-1380.2885 779.7414,-1387.0326 810,-1399 827.6559,-1405.983 828.4224,-1414.8222 846,-1422 856.4601,-1426.2713 867.5662,-1430.0007 878.8291,-1433.2512"/>
<polygon fill="#de958e" stroke="#de958e" points="878.1844,-1436.704 888.7549,-1435.9861 880.0439,-1429.9554 878.1844,-1436.704"/>
</g>
<!-- girder_client -->
<g id="node41" class="node">
<title>girder_client</title>
<polygon fill="#343434" stroke="#343434" points="727.5,-1444 603.5,-1444 603.5,-1408 727.5,-1408 727.5,-1444"/>
<text text-anchor="middle" x="665.5" y="-1422.3" font-family="Courier,monospace" font-size="14.00" fill="#de958e">girder_client</text>
</g>
<!-- girder_client&#45;&gt;hidebound.exporters.girder_exporter -->
<g id="edge91" class="edge">
<title>girder_client&#45;&gt;hidebound.exporters.girder_exporter</title>
<path fill="none" stroke="#de958e" d="M727.7441,-1431.2337C758.5033,-1433.8201 797.2059,-1437.0744 835.6489,-1440.3068"/>
<polygon fill="#de958e" stroke="#de958e" points="835.6847,-1443.8221 845.9428,-1441.1724 836.2713,-1436.8467 835.6847,-1443.8221"/>
</g>
<!-- schematics.types -->
<g id="node42" class="node">
<title>schematics.types</title>
<polygon fill="#343434" stroke="#343434" points="740,-1298 591,-1298 591,-1262 740,-1262 740,-1298"/>
<text text-anchor="middle" x="665.5" y="-1276.3" font-family="Courier,monospace" font-size="14.00" fill="#de958e">schematics.types</text>
</g>
<!-- schematics.types&#45;&gt;hidebound.core.config -->
<g id="edge92" class="edge">
<title>schematics.types&#45;&gt;hidebound.core.config</title>
<path fill="none" stroke="#de958e" d="M740.072,-1291.2044C842.4261,-1302.421 1027.7492,-1307.3683 1151,-1221 1179.9743,-1200.6962 1158.6364,-1171.1485 1187,-1150 1199.7865,-1140.4661 1214.8876,-1133.9395 1230.4797,-1129.5291"/>
<polygon fill="#de958e" stroke="#de958e" points="1231.4061,-1132.905 1240.2352,-1127.0485 1229.681,-1126.1209 1231.4061,-1132.905"/>
</g>
<!-- schematics.types&#45;&gt;hidebound.core.database_test_base -->
<g id="edge93" class="edge">
<title>schematics.types&#45;&gt;hidebound.core.database_test_base</title>
<path fill="none" stroke="#de958e" d="M740.0771,-1277.3183C764.6851,-1273.073 790.6738,-1264.54 810,-1248 843.3589,-1219.4503 811.12,-1182.67 846,-1156 954.3125,-1073.182 1050.0098,-1214.6046 1151,-1123 1209.1706,-1070.2355 1139.8768,-1012.8276 1187,-950 1206.5994,-923.8689 1237.4219,-905.4909 1265.9183,-893.0796"/>
<polygon fill="#de958e" stroke="#de958e" points="1267.5899,-896.1747 1275.4735,-889.0967 1264.8967,-889.7136 1267.5899,-896.1747"/>
</g>
<!-- schematics.types&#45;&gt;hidebound.core.specification_base -->
<g id="edge94" class="edge">
<title>schematics.types&#45;&gt;hidebound.core.specification_base</title>
<path fill="none" stroke="#de958e" d="M740.1084,-1278.3165C765.009,-1274.1973 791.1757,-1265.4888 810,-1248 850.7933,-1210.1008 804.997,-1165.6722 846,-1128 849.3974,-1124.8785 853.019,-1122.031 856.8198,-1119.4346"/>
<polygon fill="#de958e" stroke="#de958e" points="858.7309,-1122.3682 865.4093,-1114.1433 855.0594,-1116.4083 858.7309,-1122.3682"/>
</g>
<!-- schematics.types&#45;&gt;hidebound.core.specifications -->
<g id="edge95" class="edge">
<title>schematics.types&#45;&gt;hidebound.core.specifications</title>
<path fill="none" stroke="#de958e" d="M740.1541,-1266.4498C762.841,-1261.5375 787.6688,-1255.3528 810,-1248 826.6308,-1242.5241 829.4426,-1237.6938 846,-1232 978.1075,-1186.5704 1049.2182,-1251.6907 1151,-1156 1189.7112,-1119.6055 1151.4864,-1081.5208 1187,-1042 1204.5194,-1022.5038 1228.9468,-1008.5901 1252.9369,-998.7775"/>
<polygon fill="#de958e" stroke="#de958e" points="1254.3954,-1001.9658 1262.4502,-995.0832 1251.8614,-995.4406 1254.3954,-1001.9658"/>
</g>
<!-- schematics.types&#45;&gt;hidebound.core.test_specifications -->
<g id="edge96" class="edge">
<title>schematics.types&#45;&gt;hidebound.core.test_specifications</title>
<path fill="none" stroke="#de958e" d="M740.0068,-1274.8603C872.2365,-1265.4294 1135.5823,-1245.1261 1151,-1232 1198.6091,-1191.4673 1141.0776,-1138.4342 1187,-1096 1188.0014,-1095.0747 1189.0234,-1094.1759 1190.0648,-1093.3028"/>
<polygon fill="#de958e" stroke="#de958e" points="1192.4692,-1095.8766 1198.4077,-1087.1024 1188.2938,-1090.2582 1192.4692,-1095.8766"/>
</g>
<!-- schematics.types&#45;&gt;hidebound.exporters.girder_exporter -->
<g id="edge97" class="edge">
<title>schematics.types&#45;&gt;hidebound.exporters.girder_exporter</title>
<path fill="none" stroke="#de958e" d="M708.7189,-1298.0749C737.7195,-1310.5352 776.5825,-1327.878 810,-1345 863.4172,-1372.3691 923.082,-1407.7163 960.698,-1430.618"/>
<polygon fill="#de958e" stroke="#de958e" points="958.9468,-1433.6496 969.3051,-1435.8756 962.5957,-1427.6759 958.9468,-1433.6496"/>
</g>
<!-- wrapt -->
<g id="node43" class="node">
<title>wrapt</title>
<polygon fill="#343434" stroke="#343434" points="419,-1245 361,-1245 361,-1209 419,-1209 419,-1245"/>
<text text-anchor="middle" x="390" y="-1223.3" font-family="Courier,monospace" font-size="14.00" fill="#de958e">wrapt</text>
</g>
<!-- wrapt&#45;&gt;hidebound.core.validators -->
<g id="edge98" class="edge">
<title>wrapt&#45;&gt;hidebound.core.validators</title>
<path fill="none" stroke="#de958e" d="M419.2225,-1222.8632C449.1543,-1218.6261 497.7039,-1211.7534 543.8181,-1205.2254"/>
<polygon fill="#de958e" stroke="#de958e" points="544.5107,-1208.6623 553.9214,-1203.7952 543.5295,-1201.7314 544.5107,-1208.6623"/>
</g>
<!-- skimage.io -->
<g id="node44" class="node">
<title>skimage.io</title>
<polygon fill="#343434" stroke="#343434" points="715,-924 616,-924 616,-888 715,-888 715,-924"/>
<text text-anchor="middle" x="665.5" y="-902.3" font-family="Courier,monospace" font-size="14.00" fill="#de958e">skimage.io</text>
</g>
<!-- skimage.io&#45;&gt;hidebound.core.database_test_base -->
<g id="edge99" class="edge">
<title>skimage.io&#45;&gt;hidebound.core.database_test_base</title>
<path fill="none" stroke="#de958e" d="M715.2212,-895.9971C743.196,-890.1173 778.6901,-882.2367 810,-874 826.1798,-869.7436 829.4533,-865.4716 846,-863 980.0682,-842.9743 1015.4763,-860.0632 1151,-863 1160.7363,-863.211 1170.7597,-863.4845 1180.8648,-863.8028"/>
<polygon fill="#de958e" stroke="#de958e" points="1180.8801,-867.3051 1190.9896,-864.1354 1181.1099,-860.3089 1180.8801,-867.3051"/>
</g>
<!-- skimage.io&#45;&gt;hidebound.core.traits -->
<g id="edge100" class="edge">
<title>skimage.io&#45;&gt;hidebound.core.traits</title>
<path fill="none" stroke="#de958e" d="M715.3535,-903.6046C762.177,-901.3549 833.7345,-897.9167 893.196,-895.0596"/>
<polygon fill="#de958e" stroke="#de958e" points="893.5668,-898.546 903.3872,-894.57 893.2307,-891.554 893.5668,-898.546"/>
</g>
</g>
</svg>
