<?xml version="1.0" encoding="UTF-8" standalone="no"?>
<!DOCTYPE svg PUBLIC "-//W3C//DTD SVG 1.1//EN"
 "http://www.w3.org/Graphics/SVG/1.1/DTD/svg11.dtd">
<!-- Generated by graphviz version 2.40.1 (20161225.0304)
 -->
<!-- Title: %3 Pages: 1 -->
<svg width="893pt" height="332pt"
 viewBox="0.00 0.00 892.96 332.00" xmlns="http://www.w3.org/2000/svg" xmlns:xlink="http://www.w3.org/1999/xlink">
<g id="graph0" class="graph" transform="scale(1 1) rotate(0) translate(4 328)">
<title>%3</title>
<polygon fill="#242424" stroke="transparent" points="-4,4 -4,-328 888.9648,-328 888.9648,4 -4,4"/>
<!-- cli -->
<g id="node1" class="node">
<title>cli</title>
<polygon fill="#343434" stroke="#343434" points="208.1183,-324 154.1183,-324 154.1183,-288 208.1183,-288 208.1183,-324"/>
<text text-anchor="middle" x="181.1183" y="-302.3" font-family="Courier,monospace" font-size="14.00" fill="#b6ecf3">cli</text>
</g>
<!-- nerve.database -->
<g id="node2" class="node">
<title>nerve.database</title>
<polygon fill="#343434" stroke="#343434" points="760.1183,-36 628.1183,-36 628.1183,0 760.1183,0 760.1183,-36"/>
<text text-anchor="middle" x="694.1183" y="-14.3" font-family="Courier,monospace" font-size="14.00" fill="#b6ecf3">nerve.database</text>
</g>
<!-- nerve.parser -->
<g id="node3" class="node">
<title>nerve.parser</title>
<polygon fill="#343434" stroke="#343434" points="416.1183,-252 300.1183,-252 300.1183,-216 416.1183,-216 416.1183,-252"/>
<text text-anchor="middle" x="358.1183" y="-230.3" font-family="Courier,monospace" font-size="14.00" fill="#b6ecf3">nerve.parser</text>
</g>
<!-- nerve.parser&#45;&gt;nerve.database -->
<g id="edge1" class="edge">
<title>nerve.parser&#45;&gt;nerve.database</title>
<path fill="none" stroke="#b6ecf3" d="M416.3772,-218.3829C465.1753,-205.0119 528.5229,-186.865 539.1183,-180 592.2791,-145.5561 587.4538,-116.9168 632.1183,-72 642.1439,-61.9178 653.7543,-51.506 664.1983,-42.5476"/>
<polygon fill="#b6ecf3" stroke="#b6ecf3" points="666.5464,-45.1456 671.912,-36.0099 662.0204,-39.8055 666.5464,-45.1456"/>
</g>
<!-- nerve.specification_base -->
<g id="node4" class="node">
<title>nerve.specification_base</title>
<polygon fill="#343434" stroke="#343434" points="401.6183,-108 186.6183,-108 186.6183,-72 401.6183,-72 401.6183,-108"/>
<text text-anchor="middle" x="294.1183" y="-86.3" font-family="Courier,monospace" font-size="14.00" fill="#b6ecf3">nerve.specification_base</text>
</g>
<!-- nerve.parser&#45;&gt;nerve.specification_base -->
<g id="edge2" class="edge">
<title>nerve.parser&#45;&gt;nerve.specification_base</title>
<path fill="none" stroke="#b6ecf3" d="M300.0049,-216.7767C282.4964,-208.5694 265.254,-196.758 255.1183,-180 242.8139,-159.6563 255.5308,-134.7331 269.6365,-116.2767"/>
<polygon fill="#b6ecf3" stroke="#b6ecf3" points="272.5365,-118.258 276.1304,-108.2914 267.1056,-113.8415 272.5365,-118.258"/>
</g>
<!-- nerve.validators -->
<g id="node7" class="node">
<title>nerve.validators</title>
<polygon fill="#343434" stroke="#343434" points="530.6183,-180 381.6183,-180 381.6183,-144 530.6183,-144 530.6183,-180"/>
<text text-anchor="middle" x="456.1183" y="-158.3" font-family="Courier,monospace" font-size="14.00" fill="#b6ecf3">nerve.validators</text>
</g>
<!-- nerve.parser&#45;&gt;nerve.validators -->
<g id="edge3" class="edge">
<title>nerve.parser&#45;&gt;nerve.validators</title>
<path fill="none" stroke="#b6ecf3" d="M382.8479,-215.8314C395.0345,-206.8779 409.9007,-195.9558 423.0495,-186.2955"/>
<polygon fill="#b6ecf3" stroke="#b6ecf3" points="425.4101,-188.9042 431.3967,-180.1628 421.2656,-183.263 425.4101,-188.9042"/>
</g>
<!-- nerve.specification_base&#45;&gt;nerve.database -->
<g id="edge4" class="edge">
<title>nerve.specification_base&#45;&gt;nerve.database</title>
<path fill="none" stroke="#b6ecf3" d="M394.2811,-71.9707C463.6936,-59.4764 554.6849,-43.098 618.1477,-31.6747"/>
<polygon fill="#b6ecf3" stroke="#b6ecf3" points="618.8675,-35.1015 628.0892,-29.8852 617.6273,-28.2122 618.8675,-35.1015"/>
</g>
<!-- nerve.specifications -->
<g id="node5" class="node">
<title>nerve.specifications</title>
<polygon fill="#343434" stroke="#343434" points="297.1183,-36 115.1183,-36 115.1183,0 297.1183,0 297.1183,-36"/>
<text text-anchor="middle" x="206.1183" y="-14.3" font-family="Courier,monospace" font-size="14.00" fill="#b6ecf3">nerve.specifications</text>
</g>
<!-- nerve.specification_base&#45;&gt;nerve.specifications -->
<g id="edge5" class="edge">
<title>nerve.specification_base&#45;&gt;nerve.specifications</title>
<path fill="none" stroke="#b6ecf3" d="M271.9122,-71.8314C261.0734,-62.9632 247.874,-52.1637 236.1506,-42.5718"/>
<polygon fill="#b6ecf3" stroke="#b6ecf3" points="238.2733,-39.7864 228.3173,-36.1628 233.8406,-45.2041 238.2733,-39.7864"/>
</g>
<!-- nerve.tools -->
<g id="node6" class="node">
<title>nerve.tools</title>
<polygon fill="#343434" stroke="#343434" points="747.6183,-108 640.6183,-108 640.6183,-72 747.6183,-72 747.6183,-108"/>
<text text-anchor="middle" x="694.1183" y="-86.3" font-family="Courier,monospace" font-size="14.00" fill="#b6ecf3">nerve.tools</text>
</g>
<!-- nerve.tools&#45;&gt;nerve.database -->
<g id="edge6" class="edge">
<title>nerve.tools&#45;&gt;nerve.database</title>
<path fill="none" stroke="#b6ecf3" d="M694.1183,-71.8314C694.1183,-64.131 694.1183,-54.9743 694.1183,-46.4166"/>
<polygon fill="#b6ecf3" stroke="#b6ecf3" points="697.6184,-46.4132 694.1183,-36.4133 690.6184,-46.4133 697.6184,-46.4132"/>
</g>
<!-- nerve.validators&#45;&gt;nerve.database -->
<g id="edge7" class="edge">
<title>nerve.validators&#45;&gt;nerve.database</title>
<path fill="none" stroke="#b6ecf3" d="M478.996,-143.8383C503.6446,-124.7119 544.4175,-94.331 582.1183,-72 601.4312,-60.5605 623.5336,-49.5048 642.9729,-40.4085"/>
<polygon fill="#b6ecf3" stroke="#b6ecf3" points="644.6693,-43.4802 652.278,-36.1073 641.7322,-37.1262 644.6693,-43.4802"/>
</g>
<!-- nerve.validators&#45;&gt;nerve.specification_base -->
<g id="edge8" class="edge">
<title>nerve.validators&#45;&gt;nerve.specification_base</title>
<path fill="none" stroke="#b6ecf3" d="M415.2389,-143.8314C393.5723,-134.2018 366.782,-122.295 343.9105,-112.1299"/>
<polygon fill="#b6ecf3" stroke="#b6ecf3" points="345.2634,-108.9011 334.7038,-108.038 342.4204,-115.2978 345.2634,-108.9011"/>
</g>
<!-- nerve.validators&#45;&gt;nerve.specifications -->
<g id="edge9" class="edge">
<title>nerve.validators&#45;&gt;nerve.specifications</title>
<path fill="none" stroke="#b6ecf3" d="M451.6842,-143.9663C445.707,-123.4807 433.0683,-90.5032 410.1183,-72 393.5146,-58.6134 349.8165,-46.2335 307.104,-36.7137"/>
<polygon fill="#b6ecf3" stroke="#b6ecf3" points="307.6703,-33.255 297.154,-34.542 306.1776,-40.094 307.6703,-33.255"/>
</g>
<!-- humanfriendly -->
<g id="node8" class="node">
<title>humanfriendly</title>
<polygon fill="#343434" stroke="#343434" points="748.1183,-180 624.1183,-180 624.1183,-144 748.1183,-144 748.1183,-180"/>
<text text-anchor="middle" x="686.1183" y="-158.3" font-family="Courier,monospace" font-size="14.00" fill="#de958e">humanfriendly</text>
</g>
<!-- humanfriendly&#45;&gt;nerve.tools -->
<g id="edge10" class="edge">
<title>humanfriendly&#45;&gt;nerve.tools</title>
<path fill="none" stroke="#de958e" d="M688.1371,-143.8314C688.9927,-136.131 690.0101,-126.9743 690.9609,-118.4166"/>
<polygon fill="#de958e" stroke="#de958e" points="694.4466,-118.7386 692.0724,-108.4133 687.4894,-117.9656 694.4466,-118.7386"/>
</g>
<!-- numpy -->
<g id="node9" class="node">
<title>numpy</title>
<polygon fill="#343434" stroke="#343434" points="862.1183,-108 804.1183,-108 804.1183,-72 862.1183,-72 862.1183,-108"/>
<text text-anchor="middle" x="833.1183" y="-86.3" font-family="Courier,monospace" font-size="14.00" fill="#de958e">numpy</text>
</g>
<!-- numpy&#45;&gt;nerve.database -->
<g id="edge11" class="edge">
<title>numpy&#45;&gt;nerve.database</title>
<path fill="none" stroke="#de958e" d="M803.9794,-74.9064C784.8237,-64.9841 759.408,-51.8191 737.8472,-40.6509"/>
<polygon fill="#de958e" stroke="#de958e" points="739.3617,-37.4938 728.8724,-36.0021 736.1421,-43.7094 739.3617,-37.4938"/>
</g>
<!-- pandas -->
<g id="node10" class="node">
<title>pandas</title>
<polygon fill="#343434" stroke="#343434" points="870.1183,-180 804.1183,-180 804.1183,-144 870.1183,-144 870.1183,-180"/>
<text text-anchor="middle" x="837.1183" y="-158.3" font-family="Courier,monospace" font-size="14.00" fill="#de958e">pandas</text>
</g>
<!-- pandas&#45;&gt;nerve.database -->
<g id="edge12" class="edge">
<title>pandas&#45;&gt;nerve.database</title>
<path fill="none" stroke="#de958e" d="M822.165,-143.7602C806.5825,-125.1011 781.1315,-95.5844 757.1183,-72 746.8809,-61.9453 735.0721,-51.5397 724.4648,-42.5785"/>
<polygon fill="#de958e" stroke="#de958e" points="726.552,-39.7615 716.6334,-36.0371 722.0645,-45.134 726.552,-39.7615"/>
</g>
<!-- pandas&#45;&gt;nerve.tools -->
<g id="edge13" class="edge">
<title>pandas&#45;&gt;nerve.tools</title>
<path fill="none" stroke="#de958e" d="M803.9518,-145.3008C784.6903,-135.6027 760.1592,-123.2513 739.1685,-112.6826"/>
<polygon fill="#de958e" stroke="#de958e" points="740.6167,-109.4932 730.1109,-108.1222 737.4687,-115.7454 740.6167,-109.4932"/>
</g>
<!-- nerve -->
<g id="node11" class="node">
<title>nerve</title>
<polygon fill="#343434" stroke="#343434" points="568.1183,-324 510.1183,-324 510.1183,-288 568.1183,-288 568.1183,-324"/>
<text text-anchor="middle" x="539.1183" y="-302.3" font-family="Courier,monospace" font-size="14.00" fill="#a0d17b">nerve</text>
</g>
<!-- nerve&#45;&gt;nerve.database -->
<g id="edge14" class="edge">
<title>nerve&#45;&gt;nerve.database</title>
<path fill="none" stroke="#a0d17b" d="M568.3868,-299.8158C644.2679,-283.1078 843.8912,-234.6225 879.1183,-180 890.7432,-161.9748 882.0775,-85.2065 871.1183,-72 857.7278,-55.8636 811.9728,-42.1431 770.3404,-32.5703"/>
<polygon fill="#a0d17b" stroke="#a0d17b" points="770.9492,-29.12 760.4258,-30.3488 769.4186,-35.9506 770.9492,-29.12"/>
</g>
<!-- nerve&#45;&gt;nerve.parser -->
<g id="edge15" class="edge">
<title>nerve&#45;&gt;nerve.parser</title>
<path fill="none" stroke="#a0d17b" d="M510.0376,-294.432C483.9556,-284.0568 444.9872,-268.5556 413.0481,-255.8505"/>
<polygon fill="#a0d17b" stroke="#a0d17b" points="413.9692,-252.4502 403.3837,-252.0061 411.3818,-258.9545 413.9692,-252.4502"/>
</g>
<!-- nerve&#45;&gt;nerve.specification_base -->
<g id="edge16" class="edge">
<title>nerve&#45;&gt;nerve.specification_base</title>
<path fill="none" stroke="#a0d17b" d="M545.7095,-287.8135C556.2923,-255.0782 572.6798,-185.7642 539.1183,-144 522.5196,-123.3444 466.3517,-110.1248 411.9789,-101.939"/>
<polygon fill="#a0d17b" stroke="#a0d17b" points="412.2564,-98.4426 401.8571,-100.4684 411.2499,-105.3699 412.2564,-98.4426"/>
</g>
<!-- nerve&#45;&gt;nerve.specifications -->
<g id="edge17" class="edge">
<title>nerve&#45;&gt;nerve.specifications</title>
<path fill="none" stroke="#a0d17b" d="M509.8047,-303.6761C408.2813,-294.9593 74.4829,-260.5019 12.1183,-180 -34.0455,-120.4106 69.1046,-67.8468 141.9639,-39.7128"/>
<polygon fill="#a0d17b" stroke="#a0d17b" points="143.4654,-42.8868 151.5782,-36.0726 140.9867,-36.3404 143.4654,-42.8868"/>
</g>
<!-- nerve&#45;&gt;nerve.tools -->
<g id="edge18" class="edge">
<title>nerve&#45;&gt;nerve.tools</title>
<path fill="none" stroke="#a0d17b" d="M568.3968,-299.1196C617.7287,-285.7681 716.0439,-251.182 757.1183,-180 765.1151,-166.1417 763.804,-158.5362 757.1183,-144 751.8513,-132.5483 742.8248,-122.6164 733.2241,-114.5032"/>
<polygon fill="#a0d17b" stroke="#a0d17b" points="735.1218,-111.5433 725.0944,-108.1224 730.7998,-117.0498 735.1218,-111.5433"/>
</g>
<!-- nerve&#45;&gt;nerve.validators -->
<g id="edge19" class="edge">
<title>nerve&#45;&gt;nerve.validators</title>
<path fill="none" stroke="#a0d17b" d="M533.2923,-287.9993C526.8327,-269.273 515.4125,-239.4654 501.1183,-216 495.2488,-206.3645 487.7496,-196.6456 480.5633,-188.1603"/>
<polygon fill="#a0d17b" stroke="#a0d17b" points="483.0444,-185.6801 473.8328,-180.4459 477.7697,-190.2821 483.0444,-185.6801"/>
</g>
<!-- pyparsing -->
<g id="node12" class="node">
<title>pyparsing</title>
<polygon fill="#343434" stroke="#343434" points="317.6183,-324 226.6183,-324 226.6183,-288 317.6183,-288 317.6183,-324"/>
<text text-anchor="middle" x="272.1183" y="-302.3" font-family="Courier,monospace" font-size="14.00" fill="#de958e">pyparsing</text>
</g>
<!-- pyparsing&#45;&gt;nerve.parser -->
<g id="edge20" class="edge">
<title>pyparsing&#45;&gt;nerve.parser</title>
<path fill="none" stroke="#de958e" d="M293.8198,-287.8314C304.3104,-279.0485 317.0639,-268.3712 328.4378,-258.8489"/>
<polygon fill="#de958e" stroke="#de958e" points="331.003,-261.2659 336.4238,-252.1628 326.5095,-255.8986 331.003,-261.2659"/>
</g>
<!-- pyparsing&#45;&gt;nerve.specification_base -->
<g id="edge21" class="edge">
<title>pyparsing&#45;&gt;nerve.specification_base</title>
<path fill="none" stroke="#de958e" d="M263.5838,-287.8999C250.4033,-257.3078 228.4662,-193.8405 247.1183,-144 251.0137,-133.5911 257.9224,-123.8652 265.264,-115.6152"/>
<polygon fill="#de958e" stroke="#de958e" points="267.9827,-117.8358 272.3512,-108.1835 262.9169,-113.0048 267.9827,-117.8358"/>
</g>
<!-- pyparsing&#45;&gt;nerve.validators -->
<g id="edge22" class="edge">
<title>pyparsing&#45;&gt;nerve.validators</title>
<path fill="none" stroke="#de958e" d="M270.9479,-287.7665C270.6816,-267.716 273.4148,-235.7313 291.1183,-216 302.7097,-203.0809 337.2676,-190.8565 371.7811,-181.3166"/>
<polygon fill="#de958e" stroke="#de958e" points="372.7505,-184.6802 381.4953,-178.6986 370.929,-177.9214 372.7505,-184.6802"/>
</g>
<!-- schematics -->
<g id="node13" class="node">
<title>schematics</title>
<polygon fill="#343434" stroke="#343434" points="363.6183,-180 264.6183,-180 264.6183,-144 363.6183,-144 363.6183,-180"/>
<text text-anchor="middle" x="314.1183" y="-158.3" font-family="Courier,monospace" font-size="14.00" fill="#de958e">schematics</text>
</g>
<!-- schematics&#45;&gt;nerve.specification_base -->
<g id="edge23" class="edge">
<title>schematics&#45;&gt;nerve.specification_base</title>
<path fill="none" stroke="#de958e" d="M309.0715,-143.8314C306.909,-136.0463 304.333,-126.7729 301.9335,-118.1347"/>
<polygon fill="#de958e" stroke="#de958e" points="305.282,-117.1117 299.2331,-108.4133 298.5373,-118.9852 305.282,-117.1117"/>
</g>
<!-- schematics.types -->
<g id="node14" class="node">
<title>schematics.types</title>
<polygon fill="#343434" stroke="#343434" points="170.6183,-180 21.6183,-180 21.6183,-144 170.6183,-144 170.6183,-180"/>
<text text-anchor="middle" x="96.1183" y="-158.3" font-family="Courier,monospace" font-size="14.00" fill="#de958e">schematics.types</text>
</g>
<!-- schematics.types&#45;&gt;nerve.specification_base -->
<g id="edge24" class="edge">
<title>schematics.types&#45;&gt;nerve.specification_base</title>
<path fill="none" stroke="#de958e" d="M145.8265,-143.9243C172.8943,-134.0815 206.5622,-121.8386 234.9733,-111.5073"/>
<polygon fill="#de958e" stroke="#de958e" points="236.1879,-114.7899 244.3897,-108.0831 233.7956,-108.2114 236.1879,-114.7899"/>
</g>
<!-- schematics.types&#45;&gt;nerve.specifications -->
<g id="edge25" class="edge">
<title>schematics.types&#45;&gt;nerve.specifications</title>
<path fill="none" stroke="#de958e" d="M110.0499,-143.7623C129.3079,-118.5518 164.173,-72.9103 186.1845,-44.0952"/>
<polygon fill="#de958e" stroke="#de958e" points="189.0108,-46.161 192.2999,-36.0896 183.4481,-41.9117 189.0108,-46.161"/>
</g>
<!-- wrapt -->
<g id="node15" class="node">
<title>wrapt</title>
<polygon fill="#343434" stroke="#343434" points="492.1183,-252 434.1183,-252 434.1183,-216 492.1183,-216 492.1183,-252"/>
<text text-anchor="middle" x="463.1183" y="-230.3" font-family="Courier,monospace" font-size="14.00" fill="#de958e">wrapt</text>
</g>
<!-- wrapt&#45;&gt;nerve.validators -->
<g id="edge26" class="edge">
<title>wrapt&#45;&gt;nerve.validators</title>
<path fill="none" stroke="#de958e" d="M461.3519,-215.8314C460.6033,-208.131 459.7131,-198.9743 458.8811,-190.4166"/>
<polygon fill="#de958e" stroke="#de958e" points="462.3598,-190.0276 457.9085,-180.4133 455.3927,-190.7051 462.3598,-190.0276"/>
</g>
</g>
</svg>
