<?xml version="1.0" encoding="UTF-8" standalone="no"?>
<!DOCTYPE svg PUBLIC "-//W3C//DTD SVG 1.1//EN"
 "http://www.w3.org/Graphics/SVG/1.1/DTD/svg11.dtd">
<!-- Generated by graphviz version 2.40.1 (20161225.0304)
 -->
<!-- Title: %3 Pages: 1 -->
<svg width="2459pt" height="1774pt"
 viewBox="0.00 0.00 2459.00 1773.51" xmlns="http://www.w3.org/2000/svg" xmlns:xlink="http://www.w3.org/1999/xlink">
<g id="graph0" class="graph" transform="scale(1 1) rotate(0) translate(4 1769.5082)">
<title>%3</title>
<polygon fill="#242424" stroke="transparent" points="-4,4 -4,-1769.5082 2455,-1769.5082 2455,4 -4,4"/>
<!-- cli -->
<g id="node1" class="node">
<title>cli</title>
<polygon fill="#343434" stroke="#343434" points="171.5,-870.1981 117.5,-870.1981 117.5,-834.1981 171.5,-834.1981 171.5,-870.1981"/>
<text text-anchor="middle" x="144.5" y="-848.4981" font-family="Courier,monospace" font-size="14.00" fill="#b6ecf3">cli</text>
</g>
<!-- hidebound.core.config -->
<g id="node2" class="node">
<title>hidebound.core.config</title>
<polygon fill="#343434" stroke="#343434" points="1649,-1330.1981 1459,-1330.1981 1459,-1294.1981 1649,-1294.1981 1649,-1330.1981"/>
<text text-anchor="middle" x="1554" y="-1308.4981" font-family="Courier,monospace" font-size="14.00" fill="#b6ecf3">hidebound.core.config</text>
</g>
<!-- hidebound.core.database -->
<g id="node3" class="node">
<title>hidebound.core.database</title>
<polygon fill="#343434" stroke="#343434" points="1949,-1047.1981 1743,-1047.1981 1743,-1011.1981 1949,-1011.1981 1949,-1047.1981"/>
<text text-anchor="middle" x="1846" y="-1025.4981" font-family="Courier,monospace" font-size="14.00" fill="#b6ecf3">hidebound.core.database</text>
</g>
<!-- hidebound.core.config&#45;&gt;hidebound.core.database -->
<g id="edge1" class="edge">
<title>hidebound.core.config&#45;&gt;hidebound.core.database</title>
<path fill="none" stroke="#b6ecf3" d="M1649.1441,-1301.9468C1661.5331,-1296.9811 1673.0164,-1289.9859 1682,-1280.1981 1750.1828,-1205.912 1648.4515,-1129.2071 1718,-1056.1981 1722.7362,-1051.2263 1728.139,-1047.0522 1733.985,-1043.5569"/>
<polygon fill="#b6ecf3" stroke="#b6ecf3" points="1735.614,-1046.6547 1742.8411,-1038.9075 1732.3601,-1040.4569 1735.614,-1046.6547"/>
</g>
<!-- hidebound.server.app -->
<g id="node17" class="node">
<title>hidebound.server.app</title>
<polygon fill="#343434" stroke="#343434" points="2451,-333.1981 2269,-333.1981 2269,-297.1981 2451,-297.1981 2451,-333.1981"/>
<text text-anchor="middle" x="2360" y="-311.4981" font-family="Courier,monospace" font-size="14.00" fill="#b6ecf3">hidebound.server.app</text>
</g>
<!-- hidebound.core.config&#45;&gt;hidebound.server.app -->
<g id="edge2" class="edge">
<title>hidebound.core.config&#45;&gt;hidebound.server.app</title>
<path fill="none" stroke="#b6ecf3" d="M1627.4502,-1294.1439C1645.5696,-1288.8276 1664.7266,-1282.4577 1682,-1275.1981 1959.7787,-1158.4534 2079.9304,-1139.7362 2233,-880.1981 2288.4996,-786.0953 2341.2973,-444.5655 2355.9813,-343.536"/>
<polygon fill="#b6ecf3" stroke="#b6ecf3" points="2359.4691,-343.8711 2357.4329,-333.4738 2352.5408,-342.8716 2359.4691,-343.8711"/>
</g>
<!-- hidebound.server.api -->
<g id="node16" class="node">
<title>hidebound.server.api</title>
<polygon fill="#343434" stroke="#343434" points="2212.5,-593.1981 2030.5,-593.1981 2030.5,-557.1981 2212.5,-557.1981 2212.5,-593.1981"/>
<text text-anchor="middle" x="2121.5" y="-571.4981" font-family="Courier,monospace" font-size="14.00" fill="#b6ecf3">hidebound.server.api</text>
</g>
<!-- hidebound.core.database&#45;&gt;hidebound.server.api -->
<g id="edge3" class="edge">
<title>hidebound.core.database&#45;&gt;hidebound.server.api</title>
<path fill="none" stroke="#b6ecf3" d="M1885.3294,-1011.1309C1913.3401,-996.5315 1950.1099,-973.5941 1974,-944.1981 1979.7753,-937.0918 2077.4736,-687.8414 2110.6093,-603.0831"/>
<polygon fill="#b6ecf3" stroke="#b6ecf3" points="2113.9394,-604.1775 2114.3197,-593.5895 2107.4196,-601.6293 2113.9394,-604.1775"/>
</g>
<!-- hidebound.core.database_tools -->
<g id="node4" class="node">
<title>hidebound.core.database_tools</title>
<polygon fill="#343434" stroke="#343434" points="1682,-902.1981 1426,-902.1981 1426,-866.1981 1682,-866.1981 1682,-902.1981"/>
<text text-anchor="middle" x="1554" y="-880.4981" font-family="Courier,monospace" font-size="14.00" fill="#b6ecf3">hidebound.core.database_tools</text>
</g>
<!-- hidebound.core.database_tools&#45;&gt;hidebound.core.database -->
<g id="edge4" class="edge">
<title>hidebound.core.database_tools&#45;&gt;hidebound.core.database</title>
<path fill="none" stroke="#b6ecf3" d="M1590.3916,-902.2693C1643.5406,-928.6617 1742.3585,-977.7323 1800.3235,-1006.5163"/>
<polygon fill="#b6ecf3" stroke="#b6ecf3" points="1799.0964,-1009.8146 1809.6095,-1011.1275 1802.2097,-1003.5451 1799.0964,-1009.8146"/>
</g>
<!-- hidebound.core.logging -->
<g id="node5" class="node">
<title>hidebound.core.logging</title>
<polygon fill="#343434" stroke="#343434" points="691,-1265.1981 493,-1265.1981 493,-1229.1981 691,-1229.1981 691,-1265.1981"/>
<text text-anchor="middle" x="592" y="-1243.4981" font-family="Courier,monospace" font-size="14.00" fill="#b6ecf3">hidebound.core.logging</text>
</g>
<!-- hidebound.core.logging&#45;&gt;hidebound.core.database -->
<g id="edge5" class="edge">
<title>hidebound.core.logging&#45;&gt;hidebound.core.database</title>
<path fill="none" stroke="#b6ecf3" d="M638.0637,-1229.0755C675.3124,-1214.4816 722.3238,-1196.2254 727,-1195.1981 934.7157,-1149.566 1506.374,-1253.1298 1682,-1133.1981 1713.1976,-1111.8938 1688.4048,-1079.6775 1718,-1056.1981 1722.7872,-1052.4002 1727.982,-1049.1023 1733.4459,-1046.2414"/>
<polygon fill="#b6ecf3" stroke="#b6ecf3" points="1735.2989,-1049.2385 1742.8709,-1041.8281 1732.3304,-1042.8991 1735.2989,-1049.2385"/>
</g>
<!-- hidebound.exporters.exporter_base -->
<g id="node12" class="node">
<title>hidebound.exporters.exporter_base</title>
<polygon fill="#343434" stroke="#343434" points="1016,-1464.1981 727,-1464.1981 727,-1428.1981 1016,-1428.1981 1016,-1464.1981"/>
<text text-anchor="middle" x="871.5" y="-1442.4981" font-family="Courier,monospace" font-size="14.00" fill="#b6ecf3">hidebound.exporters.exporter_base</text>
</g>
<!-- hidebound.core.logging&#45;&gt;hidebound.exporters.exporter_base -->
<g id="edge6" class="edge">
<title>hidebound.core.logging&#45;&gt;hidebound.exporters.exporter_base</title>
<path fill="none" stroke="#b6ecf3" d="M606.5229,-1265.3215C629.6122,-1293.2009 677.1981,-1346.966 727,-1381.1981 752.4391,-1398.684 783.3419,-1413.3299 810.03,-1424.2657"/>
<polygon fill="#b6ecf3" stroke="#b6ecf3" points="809.0696,-1427.6515 819.6539,-1428.1252 811.6752,-1421.1544 809.0696,-1427.6515"/>
</g>
<!-- hidebound.server.progress -->
<g id="node19" class="node">
<title>hidebound.server.progress</title>
<polygon fill="#343434" stroke="#343434" points="1957.5,-528.1981 1734.5,-528.1981 1734.5,-492.1981 1957.5,-492.1981 1957.5,-528.1981"/>
<text text-anchor="middle" x="1846" y="-506.4981" font-family="Courier,monospace" font-size="14.00" fill="#b6ecf3">hidebound.server.progress</text>
</g>
<!-- hidebound.core.logging&#45;&gt;hidebound.server.progress -->
<g id="edge7" class="edge">
<title>hidebound.core.logging&#45;&gt;hidebound.server.progress</title>
<path fill="none" stroke="#b6ecf3" d="M636.6193,-1229.1595C656.7707,-1218.5935 678.7608,-1203.1467 691,-1182.1981 750.6629,-1080.0788 645.815,-737.2039 727,-651.1981 860.7141,-509.5441 1462.5246,-502.9084 1724.0375,-506.9825"/>
<polygon fill="#b6ecf3" stroke="#b6ecf3" points="1724.2785,-510.4868 1734.3346,-507.1512 1724.3933,-503.4877 1724.2785,-510.4868"/>
</g>
<!-- hidebound.core.parser -->
<g id="node6" class="node">
<title>hidebound.core.parser</title>
<polygon fill="#343434" stroke="#343434" points="687,-1043.1981 497,-1043.1981 497,-1007.1981 687,-1007.1981 687,-1043.1981"/>
<text text-anchor="middle" x="592" y="-1021.4981" font-family="Courier,monospace" font-size="14.00" fill="#b6ecf3">hidebound.core.parser</text>
</g>
<!-- hidebound.core.parser&#45;&gt;hidebound.core.database_tools -->
<g id="edge8" class="edge">
<title>hidebound.core.parser&#45;&gt;hidebound.core.database_tools</title>
<path fill="none" stroke="#b6ecf3" d="M687.3147,-1011.2278C859.8117,-985.945 1224.1051,-932.5507 1420.9975,-903.6922"/>
<polygon fill="#b6ecf3" stroke="#b6ecf3" points="1421.7272,-907.1227 1431.1139,-902.2095 1420.712,-900.1967 1421.7272,-907.1227"/>
</g>
<!-- hidebound.core.specification_base -->
<g id="node7" class="node">
<title>hidebound.core.specification_base</title>
<polygon fill="#343434" stroke="#343434" points="1365.5,-1070.1981 1076.5,-1070.1981 1076.5,-1034.1981 1365.5,-1034.1981 1365.5,-1070.1981"/>
<text text-anchor="middle" x="1221" y="-1048.4981" font-family="Courier,monospace" font-size="14.00" fill="#b6ecf3">hidebound.core.specification_base</text>
</g>
<!-- hidebound.core.parser&#45;&gt;hidebound.core.specification_base -->
<g id="edge9" class="edge">
<title>hidebound.core.parser&#45;&gt;hidebound.core.specification_base</title>
<path fill="none" stroke="#b6ecf3" d="M687.1899,-1029.2841C787.6365,-1033.5958 947.5158,-1040.4587 1066.1495,-1045.5511"/>
<polygon fill="#b6ecf3" stroke="#b6ecf3" points="1066.2739,-1049.0596 1076.4149,-1045.9917 1066.5742,-1042.066 1066.2739,-1049.0596"/>
</g>
<!-- hidebound.core.validators -->
<g id="node11" class="node">
<title>hidebound.core.validators</title>
<polygon fill="#343434" stroke="#343434" points="983,-1134.1981 760,-1134.1981 760,-1098.1981 983,-1098.1981 983,-1134.1981"/>
<text text-anchor="middle" x="871.5" y="-1112.4981" font-family="Courier,monospace" font-size="14.00" fill="#b6ecf3">hidebound.core.validators</text>
</g>
<!-- hidebound.core.parser&#45;&gt;hidebound.core.validators -->
<g id="edge10" class="edge">
<title>hidebound.core.parser&#45;&gt;hidebound.core.validators</title>
<path fill="none" stroke="#b6ecf3" d="M647.5544,-1043.2856C693.2788,-1058.1726 758.1749,-1079.3015 806.3449,-1094.9848"/>
<polygon fill="#b6ecf3" stroke="#b6ecf3" points="805.4585,-1098.377 816.0508,-1098.1448 807.6256,-1091.7209 805.4585,-1098.377"/>
</g>
<!-- hidebound.core.specification_base&#45;&gt;hidebound.core.config -->
<g id="edge11" class="edge">
<title>hidebound.core.specification_base&#45;&gt;hidebound.core.config</title>
<path fill="none" stroke="#b6ecf3" d="M1365.6224,-1066.7455C1374.1653,-1070.1913 1382.3734,-1074.3031 1390,-1079.1981 1414.2747,-1094.7782 1409.6089,-1109.4635 1426,-1133.1981 1463.8263,-1187.971 1509.4554,-1251.1032 1534.7442,-1285.844"/>
<polygon fill="#b6ecf3" stroke="#b6ecf3" points="1532.0003,-1288.0216 1540.7182,-1294.0423 1537.6577,-1283.8991 1532.0003,-1288.0216"/>
</g>
<!-- hidebound.core.specification_base&#45;&gt;hidebound.core.database -->
<g id="edge12" class="edge">
<title>hidebound.core.specification_base&#45;&gt;hidebound.core.database</title>
<path fill="none" stroke="#b6ecf3" d="M1337.2805,-1034.1942C1366.193,-1030.4603 1397.1643,-1027.0889 1426,-1025.1981 1539.534,-1017.7536 1568.2307,-1023.8109 1682,-1025.1981 1698.2728,-1025.3965 1715.4519,-1025.7056 1732.3219,-1026.0662"/>
<polygon fill="#b6ecf3" stroke="#b6ecf3" points="1732.7003,-1029.5753 1742.7751,-1026.2967 1732.8547,-1022.577 1732.7003,-1029.5753"/>
</g>
<!-- hidebound.core.specification_base&#45;&gt;hidebound.core.database_tools -->
<g id="edge13" class="edge">
<title>hidebound.core.specification_base&#45;&gt;hidebound.core.database_tools</title>
<path fill="none" stroke="#b6ecf3" d="M1365.6854,-1035.0031C1374.0728,-1032.1938 1382.2419,-1028.9474 1390,-1025.1981 1409.5425,-1015.7535 1409.7021,-1006.5329 1426,-992.1981 1459.0964,-963.0881 1497.88,-930.5829 1524.0098,-908.9111"/>
<polygon fill="#b6ecf3" stroke="#b6ecf3" points="1526.5557,-911.3472 1532.0256,-902.2735 1522.0912,-905.9556 1526.5557,-911.3472"/>
</g>
<!-- hidebound.core.specifications -->
<g id="node8" class="node">
<title>hidebound.core.specifications</title>
<polygon fill="#343434" stroke="#343434" points="1682,-750.1981 1426,-750.1981 1426,-714.1981 1682,-714.1981 1682,-750.1981"/>
<text text-anchor="middle" x="1554" y="-728.4981" font-family="Courier,monospace" font-size="14.00" fill="#b6ecf3">hidebound.core.specifications</text>
</g>
<!-- hidebound.core.specification_base&#45;&gt;hidebound.core.specifications -->
<g id="edge14" class="edge">
<title>hidebound.core.specification_base&#45;&gt;hidebound.core.specifications</title>
<path fill="none" stroke="#b6ecf3" d="M1365.7107,-1041.9889C1374.5536,-1037.5686 1382.7788,-1032.0486 1390,-1025.1981 1445.3989,-972.6427 1389.1108,-924.0584 1426,-857.1981 1448.8753,-815.7373 1489.8989,-779.328 1519.3432,-756.6571"/>
<polygon fill="#b6ecf3" stroke="#b6ecf3" points="1521.8222,-759.1712 1527.6957,-750.3534 1517.6054,-753.5838 1521.8222,-759.1712"/>
</g>
<!-- hidebound.core.tools -->
<g id="node9" class="node">
<title>hidebound.core.tools</title>
<polygon fill="#343434" stroke="#343434" points="962.5,-852.1981 780.5,-852.1981 780.5,-816.1981 962.5,-816.1981 962.5,-852.1981"/>
<text text-anchor="middle" x="871.5" y="-830.4981" font-family="Courier,monospace" font-size="14.00" fill="#b6ecf3">hidebound.core.tools</text>
</g>
<!-- hidebound.core.tools&#45;&gt;hidebound.core.database -->
<g id="edge15" class="edge">
<title>hidebound.core.tools&#45;&gt;hidebound.core.database</title>
<path fill="none" stroke="#b6ecf3" d="M898.8936,-816.0984C933.1351,-794.476 994.281,-759.1078 1052,-742.1981 1186.5845,-702.7693 1562.5224,-631.763 1682,-705.1981 1790.3717,-771.8071 1829.7909,-934.6845 1841.6289,-1000.7049"/>
<polygon fill="#b6ecf3" stroke="#b6ecf3" points="1838.2193,-1001.5311 1843.3566,-1010.7971 1845.1189,-1000.3499 1838.2193,-1001.5311"/>
</g>
<!-- hidebound.core.tools&#45;&gt;hidebound.core.database_tools -->
<g id="edge16" class="edge">
<title>hidebound.core.tools&#45;&gt;hidebound.core.database_tools</title>
<path fill="none" stroke="#b6ecf3" d="M962.8368,-840.8894C1079.0684,-849.4046 1280.9259,-864.1927 1415.9788,-874.0866"/>
<polygon fill="#b6ecf3" stroke="#b6ecf3" points="1415.7609,-877.58 1425.99,-874.8201 1416.2725,-870.5987 1415.7609,-877.58"/>
</g>
<!-- hidebound.core.tools&#45;&gt;hidebound.core.specification_base -->
<g id="edge17" class="edge">
<title>hidebound.core.tools&#45;&gt;hidebound.core.specification_base</title>
<path fill="none" stroke="#b6ecf3" d="M935.8258,-852.2817C963.9719,-863.1649 995.24,-879.7715 1016,-904.1981 1052.3353,-946.9508 1009.8188,-988.2008 1052,-1025.1981 1056.8375,-1029.441 1062.0659,-1033.1594 1067.5845,-1036.4114"/>
<polygon fill="#b6ecf3" stroke="#b6ecf3" points="1066.009,-1039.5377 1076.481,-1041.1465 1069.2979,-1033.3584 1066.009,-1039.5377"/>
</g>
<!-- hidebound.core.traits -->
<g id="node10" class="node">
<title>hidebound.core.traits</title>
<polygon fill="#343434" stroke="#343434" points="1316,-658.1981 1126,-658.1981 1126,-622.1981 1316,-622.1981 1316,-658.1981"/>
<text text-anchor="middle" x="1221" y="-636.4981" font-family="Courier,monospace" font-size="14.00" fill="#b6ecf3">hidebound.core.traits</text>
</g>
<!-- hidebound.core.tools&#45;&gt;hidebound.core.traits -->
<g id="edge18" class="edge">
<title>hidebound.core.tools&#45;&gt;hidebound.core.traits</title>
<path fill="none" stroke="#b6ecf3" d="M892.1553,-815.9114C920.2684,-790.9872 972.1076,-744.9044 1016,-705.1981 1032.0962,-690.637 1032.595,-681.9222 1052,-672.1981 1071.6787,-662.3368 1094.0361,-655.5013 1115.8982,-650.7667"/>
<polygon fill="#b6ecf3" stroke="#b6ecf3" points="1116.7935,-654.1564 1125.8967,-648.7359 1115.4001,-647.2965 1116.7935,-654.1564"/>
</g>
<!-- hidebound.exporters.local_disk_exporter -->
<g id="node14" class="node">
<title>hidebound.exporters.local_disk_exporter</title>
<polygon fill="#343434" stroke="#343434" points="1390,-1254.1981 1052,-1254.1981 1052,-1218.1981 1390,-1218.1981 1390,-1254.1981"/>
<text text-anchor="middle" x="1221" y="-1232.4981" font-family="Courier,monospace" font-size="14.00" fill="#b6ecf3">hidebound.exporters.local_disk_exporter</text>
</g>
<!-- hidebound.core.tools&#45;&gt;hidebound.exporters.local_disk_exporter -->
<g id="edge19" class="edge">
<title>hidebound.core.tools&#45;&gt;hidebound.exporters.local_disk_exporter</title>
<path fill="none" stroke="#b6ecf3" d="M880.9962,-852.3919C911.2921,-910.0056 1006.3274,-1087.3318 1052,-1133.1981 1086.2742,-1167.6176 1134.2301,-1195.4322 1170.3056,-1213.4405"/>
<polygon fill="#b6ecf3" stroke="#b6ecf3" points="1169.154,-1216.7738 1179.674,-1218.0311 1172.2342,-1210.4879 1169.154,-1216.7738"/>
</g>
<!-- hidebound.exporters.s3_exporter -->
<g id="node15" class="node">
<title>hidebound.exporters.s3_exporter</title>
<polygon fill="#343434" stroke="#343434" points="1357,-1346.1981 1085,-1346.1981 1085,-1310.1981 1357,-1310.1981 1357,-1346.1981"/>
<text text-anchor="middle" x="1221" y="-1324.4981" font-family="Courier,monospace" font-size="14.00" fill="#b6ecf3">hidebound.exporters.s3_exporter</text>
</g>
<!-- hidebound.core.tools&#45;&gt;hidebound.exporters.s3_exporter -->
<g id="edge20" class="edge">
<title>hidebound.core.tools&#45;&gt;hidebound.exporters.s3_exporter</title>
<path fill="none" stroke="#b6ecf3" d="M884.4987,-852.398C912.8081,-892.9055 980.349,-994.4209 1016,-1089.1981 1043.8035,-1163.113 1000.895,-1202.9924 1052,-1263.1981 1068.9563,-1283.1739 1092.7866,-1297.0324 1117.2172,-1306.6395"/>
<polygon fill="#b6ecf3" stroke="#b6ecf3" points="1116.0037,-1309.9224 1126.5968,-1310.1173 1118.4373,-1303.359 1116.0037,-1309.9224"/>
</g>
<!-- hidebound.core.traits&#45;&gt;hidebound.core.specifications -->
<g id="edge21" class="edge">
<title>hidebound.core.traits&#45;&gt;hidebound.core.specifications</title>
<path fill="none" stroke="#b6ecf3" d="M1286.3928,-658.2646C1341.72,-673.5502 1421.0192,-695.4586 1478.9297,-711.458"/>
<polygon fill="#b6ecf3" stroke="#b6ecf3" points="1478.1858,-714.8835 1488.7568,-714.1729 1480.05,-708.1362 1478.1858,-714.8835"/>
</g>
<!-- hidebound.core.validators&#45;&gt;hidebound.core.config -->
<g id="edge22" class="edge">
<title>hidebound.core.validators&#45;&gt;hidebound.core.config</title>
<path fill="none" stroke="#b6ecf3" d="M983.1842,-1131.1369C1112.6417,-1149.3426 1317.5004,-1181.1505 1390,-1209.1981 1440.3735,-1228.6859 1492.1062,-1264.275 1523.6562,-1288.0838"/>
<polygon fill="#b6ecf3" stroke="#b6ecf3" points="1521.5442,-1290.8748 1531.6154,-1294.1645 1525.7938,-1285.3123 1521.5442,-1290.8748"/>
</g>
<!-- hidebound.core.validators&#45;&gt;hidebound.core.specification_base -->
<g id="edge23" class="edge">
<title>hidebound.core.validators&#45;&gt;hidebound.core.specification_base</title>
<path fill="none" stroke="#b6ecf3" d="M955.8331,-1098.1151C986.104,-1091.8352 1020.5302,-1084.9345 1052,-1079.1981 1065.4073,-1076.7541 1079.4354,-1074.3192 1093.4315,-1071.9685"/>
<polygon fill="#b6ecf3" stroke="#b6ecf3" points="1094.3191,-1075.369 1103.6078,-1070.2728 1093.1685,-1068.4642 1094.3191,-1075.369"/>
</g>
<!-- hidebound.core.validators&#45;&gt;hidebound.core.specifications -->
<g id="edge24" class="edge">
<title>hidebound.core.validators&#45;&gt;hidebound.core.specifications</title>
<path fill="none" stroke="#b6ecf3" d="M878.964,-1098.1496C899.2725,-1051.3628 960.2244,-925.4151 1052,-862.1981 1160.2745,-787.6162 1308.3815,-755.8211 1415.639,-742.2672"/>
<polygon fill="#b6ecf3" stroke="#b6ecf3" points="1416.3883,-745.7017 1425.8885,-741.0117 1415.5371,-738.7536 1416.3883,-745.7017"/>
</g>
<!-- hidebound.exporters.girder_exporter -->
<g id="node13" class="node">
<title>hidebound.exporters.girder_exporter</title>
<polygon fill="#343434" stroke="#343434" points="1373.5,-1438.1981 1068.5,-1438.1981 1068.5,-1402.1981 1373.5,-1402.1981 1373.5,-1438.1981"/>
<text text-anchor="middle" x="1221" y="-1416.4981" font-family="Courier,monospace" font-size="14.00" fill="#b6ecf3">hidebound.exporters.girder_exporter</text>
</g>
<!-- hidebound.core.validators&#45;&gt;hidebound.exporters.girder_exporter -->
<g id="edge25" class="edge">
<title>hidebound.core.validators&#45;&gt;hidebound.exporters.girder_exporter</title>
<path fill="none" stroke="#b6ecf3" d="M910.4781,-1134.3156C943.4135,-1151.5957 989.3604,-1180.6863 1016,-1219.1981 1051.5703,-1270.6207 1010.2474,-1308.6551 1052,-1355.1981 1069.869,-1375.1172 1094.5406,-1388.9764 1119.5151,-1398.6032"/>
<polygon fill="#b6ecf3" stroke="#b6ecf3" points="1118.4941,-1401.9562 1129.0881,-1402.0894 1120.8894,-1395.3788 1118.4941,-1401.9562"/>
</g>
<!-- hidebound.core.validators&#45;&gt;hidebound.exporters.local_disk_exporter -->
<g id="edge26" class="edge">
<title>hidebound.core.validators&#45;&gt;hidebound.exporters.local_disk_exporter</title>
<path fill="none" stroke="#b6ecf3" d="M924.2021,-1134.2932C987.0898,-1155.8856 1092.0976,-1191.9398 1158.8758,-1214.8679"/>
<polygon fill="#b6ecf3" stroke="#b6ecf3" points="1157.8468,-1218.2151 1168.4414,-1218.1522 1160.12,-1211.5944 1157.8468,-1218.2151"/>
</g>
<!-- hidebound.core.validators&#45;&gt;hidebound.exporters.s3_exporter -->
<g id="edge27" class="edge">
<title>hidebound.core.validators&#45;&gt;hidebound.exporters.s3_exporter</title>
<path fill="none" stroke="#b6ecf3" d="M901.4655,-1134.2231C931.9659,-1153.3079 979.7813,-1185.31 1016,-1219.1981 1034.4502,-1236.461 1031.526,-1248.3915 1052,-1263.1981 1078.5476,-1282.397 1111.4896,-1296.7368 1141.2195,-1306.9919"/>
<polygon fill="#b6ecf3" stroke="#b6ecf3" points="1140.1533,-1310.3258 1150.7471,-1310.1789 1142.3739,-1303.6874 1140.1533,-1310.3258"/>
</g>
<!-- hidebound.exporters.exporter_base&#45;&gt;hidebound.exporters.girder_exporter -->
<g id="edge28" class="edge">
<title>hidebound.exporters.exporter_base&#45;&gt;hidebound.exporters.girder_exporter</title>
<path fill="none" stroke="#b6ecf3" d="M1016.1779,-1435.4352C1030.0048,-1434.4066 1044.0907,-1433.3587 1058.0752,-1432.3184"/>
<polygon fill="#b6ecf3" stroke="#b6ecf3" points="1058.5222,-1435.7949 1068.235,-1431.5626 1058.0029,-1428.8142 1058.5222,-1435.7949"/>
</g>
<!-- hidebound.exporters.exporter_base&#45;&gt;hidebound.exporters.local_disk_exporter -->
<g id="edge29" class="edge">
<title>hidebound.exporters.exporter_base&#45;&gt;hidebound.exporters.local_disk_exporter</title>
<path fill="none" stroke="#b6ecf3" d="M936.9115,-1428.1771C964.1027,-1418.0106 994.3104,-1402.8845 1016,-1381.1981 1043.5719,-1353.6302 1023.6733,-1327.9898 1052,-1301.1981 1073.0426,-1281.2957 1100.8297,-1267.2996 1127.7807,-1257.5365"/>
<polygon fill="#b6ecf3" stroke="#b6ecf3" points="1128.959,-1260.8325 1137.2663,-1254.257 1126.6716,-1254.2168 1128.959,-1260.8325"/>
</g>
<!-- hidebound.exporters.exporter_base&#45;&gt;hidebound.exporters.s3_exporter -->
<g id="edge30" class="edge">
<title>hidebound.exporters.exporter_base&#45;&gt;hidebound.exporters.s3_exporter</title>
<path fill="none" stroke="#b6ecf3" d="M972.2033,-1428.1278C987.1151,-1424.2415 1002.1219,-1419.6289 1016,-1414.1981 1033.2495,-1407.4479 1035.3017,-1401.2154 1052,-1393.1981 1086.1567,-1376.7985 1125.6131,-1361.4326 1157.8069,-1349.7624"/>
<polygon fill="#b6ecf3" stroke="#b6ecf3" points="1159.323,-1352.9369 1167.551,-1346.2623 1156.9565,-1346.349 1159.323,-1352.9369"/>
</g>
<!-- hidebound.exporters.girder_exporter&#45;&gt;hidebound.core.config -->
<g id="edge31" class="edge">
<title>hidebound.exporters.girder_exporter&#45;&gt;hidebound.core.config</title>
<path fill="none" stroke="#b6ecf3" d="M1336.9529,-1402.177C1354.8992,-1398.2617 1373.0822,-1393.6275 1390,-1388.1981 1433.1046,-1374.3646 1479.7071,-1351.9882 1512.1774,-1335.0897"/>
<polygon fill="#b6ecf3" stroke="#b6ecf3" points="1514.1414,-1338.0114 1521.363,-1330.2591 1510.8831,-1331.8159 1514.1414,-1338.0114"/>
</g>
<!-- hidebound.exporters.girder_exporter&#45;&gt;hidebound.core.database -->
<g id="edge32" class="edge">
<title>hidebound.exporters.girder_exporter&#45;&gt;hidebound.core.database</title>
<path fill="none" stroke="#b6ecf3" d="M1373.5612,-1436.1356C1475.2998,-1437.7325 1604.1859,-1420.7908 1682,-1339.1981 1769.5052,-1247.4436 1632.0654,-1149.4251 1718,-1056.1981 1722.7056,-1051.0931 1728.1127,-1046.8224 1733.9866,-1043.2594"/>
<polygon fill="#b6ecf3" stroke="#b6ecf3" points="1735.7058,-1046.3094 1742.8992,-1038.5308 1732.4251,-1040.1258 1735.7058,-1046.3094"/>
</g>
<!-- hidebound.exporters.local_disk_exporter&#45;&gt;hidebound.core.config -->
<g id="edge33" class="edge">
<title>hidebound.exporters.local_disk_exporter&#45;&gt;hidebound.core.config</title>
<path fill="none" stroke="#b6ecf3" d="M1323.1356,-1254.2591C1345.2482,-1258.5257 1368.4576,-1263.276 1390,-1268.1981 1420.0778,-1275.0703 1452.9734,-1283.6776 1481.3555,-1291.4527"/>
<polygon fill="#b6ecf3" stroke="#b6ecf3" points="1480.6239,-1294.8815 1491.1944,-1294.1639 1482.4835,-1288.133 1480.6239,-1294.8815"/>
</g>
<!-- hidebound.exporters.local_disk_exporter&#45;&gt;hidebound.core.database -->
<g id="edge34" class="edge">
<title>hidebound.exporters.local_disk_exporter&#45;&gt;hidebound.core.database</title>
<path fill="none" stroke="#b6ecf3" d="M1390.0325,-1244.7002C1503.0691,-1246.6816 1638.7292,-1240.6998 1682,-1204.1981 1733.7441,-1160.5487 1669.4023,-1103.3254 1718,-1056.1981 1722.7078,-1051.6327 1727.982,-1047.7538 1733.635,-1044.4644"/>
<polygon fill="#b6ecf3" stroke="#b6ecf3" points="1735.4993,-1047.4419 1742.8031,-1039.7669 1732.3073,-1041.2121 1735.4993,-1047.4419"/>
</g>
<!-- hidebound.exporters.s3_exporter&#45;&gt;hidebound.core.config -->
<g id="edge35" class="edge">
<title>hidebound.exporters.s3_exporter&#45;&gt;hidebound.core.config</title>
<path fill="none" stroke="#b6ecf3" d="M1357.4047,-1321.6441C1387.7714,-1320.185 1419.5197,-1318.6596 1448.426,-1317.2707"/>
<polygon fill="#b6ecf3" stroke="#b6ecf3" points="1448.7046,-1320.7615 1458.525,-1316.7855 1448.3686,-1313.7695 1448.7046,-1320.7615"/>
</g>
<!-- hidebound.exporters.s3_exporter&#45;&gt;hidebound.core.database -->
<g id="edge36" class="edge">
<title>hidebound.exporters.s3_exporter&#45;&gt;hidebound.core.database</title>
<path fill="none" stroke="#b6ecf3" d="M1304.6848,-1310.1472C1341.8031,-1302.2693 1386.0368,-1293.0566 1426,-1285.1981 1539.5057,-1262.878 1599.6435,-1319.4332 1682,-1238.1981 1740.7036,-1180.2938 1660.0634,-1114.8698 1718,-1056.1981 1722.6601,-1051.4788 1727.9228,-1047.4849 1733.5897,-1044.1122"/>
<polygon fill="#b6ecf3" stroke="#b6ecf3" points="1735.5515,-1047.0366 1742.7993,-1039.3088 1732.3143,-1040.83 1735.5515,-1047.0366"/>
</g>
<!-- hidebound.server.api&#45;&gt;hidebound.server.app -->
<g id="edge37" class="edge">
<title>hidebound.server.api&#45;&gt;hidebound.server.app</title>
<path fill="none" stroke="#b6ecf3" d="M2138.2709,-556.9154C2179.9233,-511.5081 2288.1869,-393.4849 2336.3265,-341.0057"/>
<polygon fill="#b6ecf3" stroke="#b6ecf3" points="2339.0671,-343.1957 2343.2477,-333.4606 2333.9086,-338.4638 2339.0671,-343.1957"/>
</g>
<!-- hidebound.server.components -->
<g id="node18" class="node">
<title>hidebound.server.components</title>
<polygon fill="#343434" stroke="#343434" points="1965.5,-306.1981 1726.5,-306.1981 1726.5,-270.1981 1965.5,-270.1981 1965.5,-306.1981"/>
<text text-anchor="middle" x="1846" y="-284.4981" font-family="Courier,monospace" font-size="14.00" fill="#b6ecf3">hidebound.server.components</text>
</g>
<!-- hidebound.server.components&#45;&gt;hidebound.server.app -->
<g id="edge38" class="edge">
<title>hidebound.server.components&#45;&gt;hidebound.server.app</title>
<path fill="none" stroke="#b6ecf3" d="M1965.5375,-294.4773C2054.4636,-299.1485 2174.5033,-305.4541 2258.7259,-309.8782"/>
<polygon fill="#b6ecf3" stroke="#b6ecf3" points="2258.645,-313.3787 2268.8149,-310.4082 2259.0123,-306.3884 2258.645,-313.3787"/>
</g>
<!-- hidebound.server.server_tools -->
<g id="node20" class="node">
<title>hidebound.server.server_tools</title>
<polygon fill="#343434" stroke="#343434" points="1974,-1101.1981 1718,-1101.1981 1718,-1065.1981 1974,-1065.1981 1974,-1101.1981"/>
<text text-anchor="middle" x="1846" y="-1079.4981" font-family="Courier,monospace" font-size="14.00" fill="#b6ecf3">hidebound.server.server_tools</text>
</g>
<!-- hidebound.server.server_tools&#45;&gt;hidebound.server.api -->
<g id="edge39" class="edge">
<title>hidebound.server.server_tools&#45;&gt;hidebound.server.api</title>
<path fill="none" stroke="#b6ecf3" d="M1963.4252,-1065.1604C1967.2049,-1062.5099 1970.7528,-1059.5346 1974,-1056.1981 2036.0765,-992.4134 1985.6226,-944.8002 2010,-859.1981 2037.6097,-762.2454 2085.79,-652.4893 2108.6975,-602.5476"/>
<polygon fill="#b6ecf3" stroke="#b6ecf3" points="2111.9166,-603.9247 2112.9284,-593.3783 2105.5606,-600.9919 2111.9166,-603.9247"/>
</g>
<!-- hidebound.server.server_tools&#45;&gt;hidebound.server.app -->
<g id="edge40" class="edge">
<title>hidebound.server.server_tools&#45;&gt;hidebound.server.app</title>
<path fill="none" stroke="#b6ecf3" d="M1959.3708,-1065.0925C1964.5005,-1062.4934 1969.4126,-1059.5437 1974,-1056.1981 2232.2906,-867.8248 2331.94,-454.6006 2354.6648,-343.2871"/>
<polygon fill="#b6ecf3" stroke="#b6ecf3" points="2358.098,-343.9671 2356.6265,-333.475 2351.2338,-342.5947 2358.098,-343.9671"/>
</g>
<!-- dash -->
<g id="node21" class="node">
<title>dash</title>
<polygon fill="#343434" stroke="#343434" points="1581,-122.1981 1527,-122.1981 1527,-86.1981 1581,-86.1981 1581,-122.1981"/>
<text text-anchor="middle" x="1554" y="-100.4981" font-family="Courier,monospace" font-size="14.00" fill="#de958e">dash</text>
</g>
<!-- dash&#45;&gt;hidebound.server.app -->
<g id="edge41" class="edge">
<title>dash&#45;&gt;hidebound.server.app</title>
<path fill="none" stroke="#de958e" d="M1581.2936,-92.1259C1678.6914,-51.0368 2014.9644,73.5553 2233,-61.1981 2314.5844,-111.62 2345.5123,-232.079 2355.6611,-287.0193"/>
<polygon fill="#de958e" stroke="#de958e" points="2352.2524,-287.846 2357.4226,-297.0936 2359.1478,-286.6402 2352.2524,-287.846"/>
</g>
<!-- dash&#45;&gt;hidebound.server.components -->
<g id="edge42" class="edge">
<title>dash&#45;&gt;hidebound.server.components</title>
<path fill="none" stroke="#de958e" d="M1581.2084,-121.3431C1633.5939,-154.3532 1748.5518,-226.7924 1808.2858,-264.433"/>
<polygon fill="#de958e" stroke="#de958e" points="1806.7062,-267.5745 1817.0325,-269.9446 1810.4381,-261.6522 1806.7062,-267.5745"/>
</g>
<!-- dash_cytoscape -->
<g id="node22" class="node">
<title>dash_cytoscape</title>
<polygon fill="#343434" stroke="#343434" points="1620,-295.1981 1488,-295.1981 1488,-259.1981 1620,-259.1981 1620,-295.1981"/>
<text text-anchor="middle" x="1554" y="-273.4981" font-family="Courier,monospace" font-size="14.00" fill="#de958e">dash_cytoscape</text>
</g>
<!-- dash_cytoscape&#45;&gt;hidebound.server.components -->
<g id="edge43" class="edge">
<title>dash_cytoscape&#45;&gt;hidebound.server.components</title>
<path fill="none" stroke="#de958e" d="M1620.2593,-279.6942C1648.6989,-280.7655 1682.9616,-282.0562 1716.1036,-283.3047"/>
<polygon fill="#de958e" stroke="#de958e" points="1716.2208,-286.8115 1726.3455,-283.6905 1716.4843,-279.8165 1716.2208,-286.8115"/>
</g>
<!-- hidebound.server -->
<g id="node23" class="node">
<title>hidebound.server</title>
<polygon fill="#343434" stroke="#343434" points="1628.5,-387.1981 1479.5,-387.1981 1479.5,-351.1981 1628.5,-351.1981 1628.5,-387.1981"/>
<text text-anchor="middle" x="1554" y="-365.4981" font-family="Courier,monospace" font-size="14.00" fill="#a0d17b">hidebound.server</text>
</g>
<!-- hidebound.server&#45;&gt;hidebound.server.api -->
<g id="edge44" class="edge">
<title>hidebound.server&#45;&gt;hidebound.server.api</title>
<path fill="none" stroke="#a0d17b" d="M1628.6521,-375.5327C1647.1303,-379.5573 1666.1557,-385.9858 1682,-396.1981 1704.7142,-410.8383 1694.8532,-431.2519 1718,-445.1981 1816.5234,-504.5593 1866.0491,-443.484 1974,-483.1981 2017.8256,-499.3211 2062.5565,-529.5622 2091.0889,-550.9657"/>
<polygon fill="#a0d17b" stroke="#a0d17b" points="2088.9713,-553.7524 2099.0485,-557.0236 2093.2107,-548.1822 2088.9713,-553.7524"/>
</g>
<!-- hidebound.server&#45;&gt;hidebound.server.app -->
<g id="edge45" class="edge">
<title>hidebound.server&#45;&gt;hidebound.server.app</title>
<path fill="none" stroke="#a0d17b" d="M1628.7019,-364.1861C1656.7106,-362.3073 1688.8159,-360.1542 1718,-358.1981 1909.1293,-345.3875 2132.2665,-330.4453 2258.7717,-321.9752"/>
<polygon fill="#a0d17b" stroke="#a0d17b" points="2259.0905,-325.4618 2268.8343,-321.3015 2258.6228,-318.4774 2259.0905,-325.4618"/>
</g>
<!-- hidebound.server&#45;&gt;hidebound.server.components -->
<g id="edge46" class="edge">
<title>hidebound.server&#45;&gt;hidebound.server.components</title>
<path fill="none" stroke="#a0d17b" d="M1628.5154,-353.1892C1646.2456,-348.6629 1664.9587,-343.2853 1682,-337.1981 1698.6631,-331.2459 1701.3369,-326.1502 1718,-320.1981 1729.4892,-316.0941 1741.7383,-312.3126 1753.9338,-308.8971"/>
<polygon fill="#a0d17b" stroke="#a0d17b" points="1754.9605,-312.245 1763.6873,-306.2373 1753.1188,-305.4917 1754.9605,-312.245"/>
</g>
<!-- hidebound.server&#45;&gt;hidebound.server.progress -->
<g id="edge47" class="edge">
<title>hidebound.server&#45;&gt;hidebound.server.progress</title>
<path fill="none" stroke="#a0d17b" d="M1628.6516,-372.8763C1647.6505,-376.8721 1666.9316,-383.9504 1682,-396.1981 1712.8863,-421.3025 1687.5845,-452.5252 1718,-478.1981 1722,-481.5744 1726.3058,-484.6028 1730.8309,-487.3187"/>
<polygon fill="#a0d17b" stroke="#a0d17b" points="1729.3206,-490.4811 1739.7806,-492.1655 1732.654,-484.3257 1729.3206,-490.4811"/>
</g>
<!-- hidebound.server&#45;&gt;hidebound.server.server_tools -->
<g id="edge48" class="edge">
<title>hidebound.server&#45;&gt;hidebound.server.server_tools</title>
<path fill="none" stroke="#a0d17b" d="M1628.5476,-368.8956C1648.707,-372.6476 1668.6227,-380.5936 1682,-396.1981 1777.5994,-507.7143 1622.4006,-944.6819 1718,-1056.1981 1718.5266,-1056.8124 1719.0633,-1057.4147 1719.6098,-1058.0055"/>
<polygon fill="#a0d17b" stroke="#a0d17b" points="1717.5111,-1060.8316 1727.2318,-1065.0457 1722.2607,-1055.6895 1717.5111,-1060.8316"/>
</g>
<!-- flask -->
<g id="node24" class="node">
<title>flask</title>
<polygon fill="#343434" stroke="#343434" points="1583,-441.1981 1525,-441.1981 1525,-405.1981 1583,-405.1981 1583,-441.1981"/>
<text text-anchor="middle" x="1554" y="-419.4981" font-family="Courier,monospace" font-size="14.00" fill="#de958e">flask</text>
</g>
<!-- flask&#45;&gt;hidebound.server.api -->
<g id="edge49" class="edge">
<title>flask&#45;&gt;hidebound.server.api</title>
<path fill="none" stroke="#de958e" d="M1583.2172,-423.381C1611.5319,-425.0514 1654.1683,-431.7061 1682,-455.1981 1712.4155,-480.871 1685.7338,-513.8938 1718,-537.1981 1764.6458,-570.888 1916.3858,-577.0406 2019.8951,-577.0909"/>
<polygon fill="#de958e" stroke="#de958e" points="2020.0745,-580.5907 2030.0695,-577.0764 2020.0645,-573.5907 2020.0745,-580.5907"/>
</g>
<!-- flask&#45;&gt;hidebound.server.app -->
<g id="edge50" class="edge">
<title>flask&#45;&gt;hidebound.server.app</title>
<path fill="none" stroke="#de958e" d="M1583.1742,-416.5558C1615.8492,-409.339 1670.4656,-397.94 1718,-391.1981 1945.5231,-358.928 2006.1543,-381.9288 2233,-345.1981 2248.8349,-342.6341 2265.6256,-339.1935 2281.6321,-335.5574"/>
<polygon fill="#de958e" stroke="#de958e" points="2282.5303,-338.9421 2291.4816,-333.2742 2280.9495,-332.1229 2282.5303,-338.9421"/>
</g>
<!-- flask&#45;&gt;hidebound.server.components -->
<g id="edge51" class="edge">
<title>flask&#45;&gt;hidebound.server.components</title>
<path fill="none" stroke="#de958e" d="M1583.1817,-421.9767C1610.3139,-419.7403 1651.0818,-413.4987 1682,-396.1981 1702.3022,-384.8378 1699.5705,-372.3962 1718,-358.1981 1742.1074,-339.6257 1771.7814,-323.0673 1796.4863,-310.7235"/>
<polygon fill="#de958e" stroke="#de958e" points="1798.2565,-313.7535 1805.6895,-306.2036 1795.1707,-307.4704 1798.2565,-313.7535"/>
</g>
<!-- flask&#45;&gt;hidebound.server.progress -->
<g id="edge52" class="edge">
<title>flask&#45;&gt;hidebound.server.progress</title>
<path fill="none" stroke="#de958e" d="M1583.0808,-427.6973C1609.6049,-432.4401 1649.4975,-441.1968 1682,-455.1981 1699.4376,-462.7097 1700.5624,-470.6864 1718,-478.1981 1727.4857,-482.2843 1737.6008,-485.9238 1747.8293,-489.1471"/>
<polygon fill="#de958e" stroke="#de958e" points="1747.0692,-492.5736 1757.6539,-492.1111 1749.091,-485.8719 1747.0692,-492.5736"/>
</g>
<!-- flask&#45;&gt;hidebound.server.server_tools -->
<g id="edge53" class="edge">
<title>flask&#45;&gt;hidebound.server.server_tools</title>
<path fill="none" stroke="#de958e" d="M1564.7099,-441.2285C1590.0284,-484.8209 1653.5738,-600.099 1682,-705.1981 1702.4718,-780.8876 1665.5621,-997.9034 1718,-1056.1981 1718.6479,-1056.9183 1719.3097,-1057.6221 1719.9849,-1058.3097"/>
<polygon fill="#de958e" stroke="#de958e" points="1717.8721,-1061.1121 1727.6982,-1065.0744 1722.4877,-1055.8494 1717.8721,-1061.1121"/>
</g>
<!-- dash.dependencies -->
<g id="node25" class="node">
<title>dash.dependencies</title>
<polygon fill="#343434" stroke="#343434" points="2200,-268.1981 2043,-268.1981 2043,-232.1981 2200,-232.1981 2200,-268.1981"/>
<text text-anchor="middle" x="2121.5" y="-246.4981" font-family="Courier,monospace" font-size="14.00" fill="#de958e">dash.dependencies</text>
</g>
<!-- dash.dependencies&#45;&gt;hidebound.server.app -->
<g id="edge54" class="edge">
<title>dash.dependencies&#45;&gt;hidebound.server.app</title>
<path fill="none" stroke="#de958e" d="M2187.6188,-268.2179C2217.4735,-276.3544 2252.9128,-286.0129 2283.8713,-294.4502"/>
<polygon fill="#de958e" stroke="#de958e" points="2283.1841,-297.8905 2293.7526,-297.1432 2285.0248,-291.1369 2283.1841,-297.8905"/>
</g>
<!-- dash.exceptions -->
<g id="node26" class="node">
<title>dash.exceptions</title>
<polygon fill="#343434" stroke="#343434" points="2191.5,-214.1981 2051.5,-214.1981 2051.5,-178.1981 2191.5,-178.1981 2191.5,-214.1981"/>
<text text-anchor="middle" x="2121.5" y="-192.4981" font-family="Courier,monospace" font-size="14.00" fill="#de958e">dash.exceptions</text>
</g>
<!-- dash.exceptions&#45;&gt;hidebound.server.app -->
<g id="edge55" class="edge">
<title>dash.exceptions&#45;&gt;hidebound.server.app</title>
<path fill="none" stroke="#de958e" d="M2191.6158,-208.7601C2205.6635,-212.493 2220.0691,-217.2324 2233,-223.1981 2270.3146,-240.4131 2307.7765,-269.3099 2332.2405,-290.129"/>
<polygon fill="#de958e" stroke="#de958e" points="2330.1649,-292.961 2340.0197,-296.8511 2334.7417,-287.6645 2330.1649,-292.961"/>
</g>
<!-- rolling_pin.blob_etl -->
<g id="node27" class="node">
<title>rolling_pin.blob_etl</title>
<polygon fill="#343434" stroke="#343434" points="1645,-241.1981 1463,-241.1981 1463,-205.1981 1645,-205.1981 1645,-241.1981"/>
<text text-anchor="middle" x="1554" y="-219.4981" font-family="Courier,monospace" font-size="14.00" fill="#de958e">rolling_pin.blob_etl</text>
</g>
<!-- rolling_pin.blob_etl&#45;&gt;hidebound.server.components -->
<g id="edge56" class="edge">
<title>rolling_pin.blob_etl&#45;&gt;hidebound.server.components</title>
<path fill="none" stroke="#de958e" d="M1640.805,-241.2661C1654.5957,-244.2064 1668.6952,-247.2537 1682,-250.1981 1707.318,-255.801 1734.7855,-262.0845 1759.8714,-267.9039"/>
<polygon fill="#de958e" stroke="#de958e" points="1759.1922,-271.3393 1769.7249,-270.1942 1760.777,-264.521 1759.1922,-271.3393"/>
</g>
<!-- flask_healthz -->
<g id="node28" class="node">
<title>flask_healthz</title>
<polygon fill="#343434" stroke="#343434" points="2183.5,-160.1981 2059.5,-160.1981 2059.5,-124.1981 2183.5,-124.1981 2183.5,-160.1981"/>
<text text-anchor="middle" x="2121.5" y="-138.4981" font-family="Courier,monospace" font-size="14.00" fill="#de958e">flask_healthz</text>
</g>
<!-- flask_healthz&#45;&gt;hidebound.server.app -->
<g id="edge57" class="edge">
<title>flask_healthz&#45;&gt;hidebound.server.app</title>
<path fill="none" stroke="#de958e" d="M2183.7618,-150.1941C2200.5733,-154.1952 2218.1935,-160.1968 2233,-169.1981 2282.3304,-199.1876 2322.659,-254.7023 2343.8429,-287.9608"/>
<polygon fill="#de958e" stroke="#de958e" points="2341.0393,-290.0795 2349.3017,-296.7115 2346.9785,-286.3745 2341.0393,-290.0795"/>
</g>
<!-- flask_monitoringdashboard -->
<g id="node29" class="node">
<title>flask_monitoringdashboard</title>
<polygon fill="#343434" stroke="#343434" points="2233,-106.1981 2010,-106.1981 2010,-70.1981 2233,-70.1981 2233,-106.1981"/>
<text text-anchor="middle" x="2121.5" y="-84.4981" font-family="Courier,monospace" font-size="14.00" fill="#de958e">flask_monitoringdashboard</text>
</g>
<!-- flask_monitoringdashboard&#45;&gt;hidebound.server.app -->
<g id="edge58" class="edge">
<title>flask_monitoringdashboard&#45;&gt;hidebound.server.app</title>
<path fill="none" stroke="#de958e" d="M2217.9534,-106.3064C2223.2402,-108.889 2228.3035,-111.8359 2233,-115.1981 2294.7449,-159.4004 2333.4835,-243.8649 2350.2861,-287.531"/>
<polygon fill="#de958e" stroke="#de958e" points="2347.0299,-288.816 2353.8138,-296.9541 2353.5856,-286.3618 2347.0299,-288.816"/>
</g>
<!-- jinja2 -->
<g id="node30" class="node">
<title>jinja2</title>
<polygon fill="#343434" stroke="#343434" points="1587,-1632.1981 1521,-1632.1981 1521,-1596.1981 1587,-1596.1981 1587,-1632.1981"/>
<text text-anchor="middle" x="1554" y="-1610.4981" font-family="Courier,monospace" font-size="14.00" fill="#de958e">jinja2</text>
</g>
<!-- jinja2&#45;&gt;hidebound.server.server_tools -->
<g id="edge59" class="edge">
<title>jinja2&#45;&gt;hidebound.server.server_tools</title>
<path fill="none" stroke="#de958e" d="M1587.0249,-1614.4165C1615.6277,-1612.8332 1656.3359,-1606.0645 1682,-1582.1981 1754.0159,-1515.2267 1821.0971,-1206.8881 1840.438,-1111.4402"/>
<polygon fill="#de958e" stroke="#de958e" points="1843.9209,-1111.8727 1842.459,-1101.3792 1837.058,-1110.4941 1843.9209,-1111.8727"/>
</g>
<!-- boto3 -->
<g id="node31" class="node">
<title>boto3</title>
<polygon fill="#343434" stroke="#343434" points="900.5,-1372.1981 842.5,-1372.1981 842.5,-1336.1981 900.5,-1336.1981 900.5,-1372.1981"/>
<text text-anchor="middle" x="871.5" y="-1350.4981" font-family="Courier,monospace" font-size="14.00" fill="#de958e">boto3</text>
</g>
<!-- boto3&#45;&gt;hidebound.exporters.s3_exporter -->
<g id="edge60" class="edge">
<title>boto3&#45;&gt;hidebound.exporters.s3_exporter</title>
<path fill="none" stroke="#de958e" d="M900.697,-1352.0261C939.2412,-1349.1587 1009.8546,-1343.9056 1074.9904,-1339.06"/>
<polygon fill="#de958e" stroke="#de958e" points="1075.2604,-1342.5497 1084.9731,-1338.3174 1074.741,-1335.569 1075.2604,-1342.5497"/>
</g>
<!-- flasgger -->
<g id="node32" class="node">
<title>flasgger</title>
<polygon fill="#343434" stroke="#343434" points="1887.5,-436.1981 1804.5,-436.1981 1804.5,-400.1981 1887.5,-400.1981 1887.5,-436.1981"/>
<text text-anchor="middle" x="1846" y="-414.4981" font-family="Courier,monospace" font-size="14.00" fill="#de958e">flasgger</text>
</g>
<!-- flasgger&#45;&gt;hidebound.server.api -->
<g id="edge61" class="edge">
<title>flasgger&#45;&gt;hidebound.server.api</title>
<path fill="none" stroke="#de958e" d="M1887.772,-423.6823C1913.6553,-428.2593 1946.9955,-436.3446 1974,-450.1981 2023.6844,-475.6864 2071.0832,-520.8347 2098.1855,-549.3277"/>
<polygon fill="#de958e" stroke="#de958e" points="2095.884,-551.9902 2105.2766,-556.8924 2100.9911,-547.2029 2095.884,-551.9902"/>
</g>
<!-- flasgger&#45;&gt;hidebound.server.app -->
<g id="edge62" class="edge">
<title>flasgger&#45;&gt;hidebound.server.app</title>
<path fill="none" stroke="#de958e" d="M1887.7502,-420.4531C1959.8867,-423.1052 2111.7733,-423.185 2233,-386.1981 2266.9987,-375.8249 2301.9936,-355.4029 2326.6167,-339.1137"/>
<polygon fill="#de958e" stroke="#de958e" points="2328.8648,-341.8192 2335.1981,-333.3257 2324.9505,-336.0159 2328.8648,-341.8192"/>
</g>
<!-- jsoncomment -->
<g id="node33" class="node">
<title>jsoncomment</title>
<polygon fill="#343434" stroke="#343434" points="645.5,-1640.1981 538.5,-1640.1981 538.5,-1604.1981 645.5,-1604.1981 645.5,-1640.1981"/>
<text text-anchor="middle" x="592" y="-1618.4981" font-family="Courier,monospace" font-size="14.00" fill="#de958e">jsoncomment</text>
</g>
<!-- jsoncomment&#45;&gt;hidebound.core.database -->
<g id="edge63" class="edge">
<title>jsoncomment&#45;&gt;hidebound.core.database</title>
<path fill="none" stroke="#de958e" d="M645.5172,-1631.9481C827.9035,-1661.7103 1427.8909,-1730.3998 1682,-1400.1981 1775.752,-1278.3721 1615.0758,-1170.3805 1718,-1056.1981 1722.6485,-1051.0411 1728.0122,-1046.7307 1733.8538,-1043.1383"/>
<polygon fill="#de958e" stroke="#de958e" points="1735.5724,-1046.1881 1742.7268,-1038.3737 1732.2608,-1040.021 1735.5724,-1046.1881"/>
</g>
<!-- jsoncomment&#45;&gt;hidebound.exporters.exporter_base -->
<g id="edge64" class="edge">
<title>jsoncomment&#45;&gt;hidebound.exporters.exporter_base</title>
<path fill="none" stroke="#de958e" d="M602.7486,-1604.0462C622.7853,-1571.9587 669.1072,-1505.5572 727,-1473.1981 730.1014,-1471.4646 733.2928,-1469.8397 736.5553,-1468.3169"/>
<polygon fill="#de958e" stroke="#de958e" points="738.1176,-1471.4551 745.922,-1464.2898 735.3527,-1465.0242 738.1176,-1471.4551"/>
</g>
<!-- jsoncomment&#45;&gt;hidebound.server.server_tools -->
<g id="edge65" class="edge">
<title>jsoncomment&#45;&gt;hidebound.server.server_tools</title>
<path fill="none" stroke="#de958e" d="M636.4573,-1640.2001C796.708,-1701.885 1352.6139,-1887.7071 1682,-1641.1981 1770.325,-1575.0966 1827.3554,-1215.2816 1842.1625,-1111.3315"/>
<polygon fill="#de958e" stroke="#de958e" points="1845.6491,-1111.671 1843.5754,-1101.2811 1838.7173,-1110.6964 1845.6491,-1111.671"/>
</g>
<!-- pandasql -->
<g id="node34" class="node">
<title>pandasql</title>
<polygon fill="#343434" stroke="#343434" points="1595.5,-1124.1981 1512.5,-1124.1981 1512.5,-1088.1981 1595.5,-1088.1981 1595.5,-1124.1981"/>
<text text-anchor="middle" x="1554" y="-1102.4981" font-family="Courier,monospace" font-size="14.00" fill="#de958e">pandasql</text>
</g>
<!-- pandasql&#45;&gt;hidebound.core.database -->
<g id="edge66" class="edge">
<title>pandasql&#45;&gt;hidebound.core.database</title>
<path fill="none" stroke="#de958e" d="M1595.7617,-1101.273C1621.339,-1097.318 1654.357,-1090.503 1682,-1079.1981 1699.5739,-1072.0111 1700.4261,-1063.3851 1718,-1056.1981 1723.1239,-1054.1026 1728.4325,-1052.1614 1733.8442,-1050.364"/>
<polygon fill="#de958e" stroke="#de958e" points="1735.1832,-1053.6123 1743.6789,-1047.282 1733.0898,-1046.9327 1735.1832,-1053.6123"/>
</g>
<!-- requests -->
<g id="node35" class="node">
<title>requests</title>
<polygon fill="#343434" stroke="#343434" points="1595.5,-1070.1981 1512.5,-1070.1981 1512.5,-1034.1981 1595.5,-1034.1981 1595.5,-1070.1981"/>
<text text-anchor="middle" x="1554" y="-1048.4981" font-family="Courier,monospace" font-size="14.00" fill="#de958e">requests</text>
</g>
<!-- requests&#45;&gt;hidebound.core.database -->
<g id="edge67" class="edge">
<title>requests&#45;&gt;hidebound.core.database</title>
<path fill="none" stroke="#de958e" d="M1595.5264,-1048.9272C1631.2467,-1046.1136 1684.4879,-1041.9199 1732.7103,-1038.1216"/>
<polygon fill="#de958e" stroke="#de958e" points="1733.2219,-1041.5922 1742.9161,-1037.3177 1732.6721,-1034.6138 1733.2219,-1041.5922"/>
</g>
<!-- lunchbox.tools -->
<g id="node36" class="node">
<title>lunchbox.tools</title>
<polygon fill="#343434" stroke="#343434" points="1287,-1124.1981 1155,-1124.1981 1155,-1088.1981 1287,-1088.1981 1287,-1124.1981"/>
<text text-anchor="middle" x="1221" y="-1102.4981" font-family="Courier,monospace" font-size="14.00" fill="#de958e">lunchbox.tools</text>
</g>
<!-- lunchbox.tools&#45;&gt;hidebound.core.database_tools -->
<g id="edge68" class="edge">
<title>lunchbox.tools&#45;&gt;hidebound.core.database_tools</title>
<path fill="none" stroke="#de958e" d="M1287.1828,-1107.7928C1320.3339,-1105.7112 1359.7438,-1098.6173 1390,-1079.1981 1414.2747,-1063.6179 1408.2568,-1047.9397 1426,-1025.1981 1459.0892,-982.7873 1501.8219,-937.3307 1528.5741,-909.8312"/>
<polygon fill="#de958e" stroke="#de958e" points="1531.1864,-912.1658 1535.6745,-902.5685 1526.1811,-907.2722 1531.1864,-912.1658"/>
</g>
<!-- lunchbox.tools&#45;&gt;hidebound.server.server_tools -->
<g id="edge69" class="edge">
<title>lunchbox.tools&#45;&gt;hidebound.server.server_tools</title>
<path fill="none" stroke="#de958e" d="M1287.0345,-1118.5546C1376.88,-1133.4375 1542.4393,-1153.9999 1682,-1133.1981 1718.7936,-1127.7139 1758.748,-1115.6682 1790.0084,-1104.7744"/>
<polygon fill="#de958e" stroke="#de958e" points="1791.5829,-1107.9296 1799.8374,-1101.2877 1789.2426,-1101.3324 1791.5829,-1107.9296"/>
</g>
<!-- girder_client -->
<g id="node37" class="node">
<title>girder_client</title>
<polygon fill="#343434" stroke="#343434" points="933.5,-1518.1981 809.5,-1518.1981 809.5,-1482.1981 933.5,-1482.1981 933.5,-1518.1981"/>
<text text-anchor="middle" x="871.5" y="-1496.4981" font-family="Courier,monospace" font-size="14.00" fill="#de958e">girder_client</text>
</g>
<!-- girder_client&#45;&gt;hidebound.exporters.girder_exporter -->
<g id="edge70" class="edge">
<title>girder_client&#45;&gt;hidebound.exporters.girder_exporter</title>
<path fill="none" stroke="#de958e" d="M933.5684,-1489.5601C959.173,-1484.9228 989.0948,-1479.1824 1016,-1473.1981 1059.1514,-1463.6003 1106.9976,-1451.3246 1145.6061,-1441.0047"/>
<polygon fill="#de958e" stroke="#de958e" points="1146.9746,-1444.2613 1155.7252,-1438.2883 1145.1597,-1437.5007 1146.9746,-1444.2613"/>
</g>
<!-- hidebound.exporters -->
<g id="node38" class="node">
<title>hidebound.exporters</title>
<polygon fill="#343434" stroke="#343434" points="678.5,-1418.1981 505.5,-1418.1981 505.5,-1382.1981 678.5,-1382.1981 678.5,-1418.1981"/>
<text text-anchor="middle" x="592" y="-1396.4981" font-family="Courier,monospace" font-size="14.00" fill="#a0d17b">hidebound.exporters</text>
</g>
<!-- hidebound.exporters&#45;&gt;hidebound.exporters.exporter_base -->
<g id="edge71" class="edge">
<title>hidebound.exporters&#45;&gt;hidebound.exporters.exporter_base</title>
<path fill="none" stroke="#a0d17b" d="M678.5214,-1414.4377C701.7012,-1418.2527 727.178,-1422.4456 751.8061,-1426.4989"/>
<polygon fill="#a0d17b" stroke="#a0d17b" points="751.4935,-1429.9945 761.9292,-1428.165 752.6303,-1423.0874 751.4935,-1429.9945"/>
</g>
<!-- hidebound.exporters&#45;&gt;hidebound.exporters.girder_exporter -->
<g id="edge72" class="edge">
<title>hidebound.exporters&#45;&gt;hidebound.exporters.girder_exporter</title>
<path fill="none" stroke="#a0d17b" d="M604.281,-1418.5442C625.3067,-1448.0928 671.3608,-1505.1403 727,-1527.1981 846.4035,-1574.5348 891.2531,-1557.7954 1016,-1527.1981 1081.2488,-1511.1942 1148.7908,-1470.3916 1187.7468,-1444.05"/>
<polygon fill="#a0d17b" stroke="#a0d17b" points="1189.811,-1446.8784 1196.0816,-1438.3385 1185.8541,-1441.1041 1189.811,-1446.8784"/>
</g>
<!-- hidebound.exporters&#45;&gt;hidebound.exporters.local_disk_exporter -->
<g id="edge73" class="edge">
<title>hidebound.exporters&#45;&gt;hidebound.exporters.local_disk_exporter</title>
<path fill="none" stroke="#a0d17b" d="M607.2746,-1381.7993C627.1768,-1357.5954 662.7655,-1313.5167 691,-1274.1981 708.0408,-1250.4675 701.3,-1233.0921 727,-1219.1981 787.223,-1186.6401 964.2717,-1201.2698 1089.1273,-1216.9142"/>
<polygon fill="#a0d17b" stroke="#a0d17b" points="1088.7917,-1220.3996 1099.1528,-1218.1865 1089.673,-1213.4553 1088.7917,-1220.3996"/>
</g>
<!-- hidebound.exporters&#45;&gt;hidebound.exporters.s3_exporter -->
<g id="edge74" class="edge">
<title>hidebound.exporters&#45;&gt;hidebound.exporters.s3_exporter</title>
<path fill="none" stroke="#a0d17b" d="M678.5869,-1401.5672C764.6365,-1401.6978 900.1371,-1398.5774 1016,-1381.1981 1062.9191,-1374.1603 1114.634,-1360.7478 1154.3838,-1349.177"/>
<polygon fill="#a0d17b" stroke="#a0d17b" points="1155.6176,-1352.4624 1164.2216,-1346.28 1153.6402,-1345.7475 1155.6176,-1352.4624"/>
</g>
<!-- json_logging -->
<g id="node39" class="node">
<title>json_logging</title>
<polygon fill="#343434" stroke="#343434" points="449,-1265.1981 333,-1265.1981 333,-1229.1981 449,-1229.1981 449,-1265.1981"/>
<text text-anchor="middle" x="391" y="-1243.4981" font-family="Courier,monospace" font-size="14.00" fill="#de958e">json_logging</text>
</g>
<!-- json_logging&#45;&gt;hidebound.core.logging -->
<g id="edge75" class="edge">
<title>json_logging&#45;&gt;hidebound.core.logging</title>
<path fill="none" stroke="#de958e" d="M449.1375,-1247.1981C459.7192,-1247.1981 471.0677,-1247.1981 482.5736,-1247.1981"/>
<polygon fill="#de958e" stroke="#de958e" points="482.7099,-1250.6982 492.7099,-1247.1981 482.7099,-1243.6982 482.7099,-1250.6982"/>
</g>
<!-- numpy -->
<g id="node40" class="node">
<title>numpy</title>
<polygon fill="#343434" stroke="#343434" points="1250,-1016.1981 1192,-1016.1981 1192,-980.1981 1250,-980.1981 1250,-1016.1981"/>
<text text-anchor="middle" x="1221" y="-994.4981" font-family="Courier,monospace" font-size="14.00" fill="#de958e">numpy</text>
</g>
<!-- numpy&#45;&gt;hidebound.core.database -->
<g id="edge76" class="edge">
<title>numpy&#45;&gt;hidebound.core.database</title>
<path fill="none" stroke="#de958e" d="M1250.1414,-999.0768C1322.9837,-1001.3433 1518.857,-1007.8699 1682,-1017.1981 1698.4397,-1018.1381 1715.7969,-1019.2637 1732.8234,-1020.4435"/>
<polygon fill="#de958e" stroke="#de958e" points="1732.5803,-1023.935 1742.8007,-1021.1435 1733.0702,-1016.9521 1732.5803,-1023.935"/>
</g>
<!-- numpy&#45;&gt;hidebound.core.database_tools -->
<g id="edge77" class="edge">
<title>numpy&#45;&gt;hidebound.core.database_tools</title>
<path fill="none" stroke="#de958e" d="M1250.2756,-999.0275C1285.9913,-998.6874 1346.926,-993.6224 1390,-966.1981 1413.0987,-951.4917 1403.3363,-931.5663 1426,-916.1981 1431.3498,-912.5704 1437.0755,-909.3536 1443.0292,-906.5012"/>
<polygon fill="#de958e" stroke="#de958e" points="1444.8073,-909.5428 1452.5514,-902.3123 1441.9885,-903.1354 1444.8073,-909.5428"/>
</g>
<!-- numpy&#45;&gt;hidebound.server.api -->
<g id="edge78" class="edge">
<title>numpy&#45;&gt;hidebound.server.api</title>
<path fill="none" stroke="#de958e" d="M1250.1691,-997.3264C1325.1317,-994.1269 1529.3324,-979.3063 1682,-911.1981 1861.5308,-831.1057 2034.9307,-664.2984 2097.2386,-600.6375"/>
<polygon fill="#de958e" stroke="#de958e" points="2099.8164,-603.0071 2104.2794,-593.3981 2094.7982,-598.1266 2099.8164,-603.0071"/>
</g>
<!-- hidebound -->
<g id="node41" class="node">
<title>hidebound</title>
<polygon fill="#343434" stroke="#343434" points="190,-924.1981 99,-924.1981 99,-888.1981 190,-888.1981 190,-924.1981"/>
<text text-anchor="middle" x="144.5" y="-902.4981" font-family="Courier,monospace" font-size="14.00" fill="#a0d17b">hidebound</text>
</g>
<!-- hidebound&#45;&gt;hidebound.server -->
<g id="edge79" class="edge">
<title>hidebound&#45;&gt;hidebound.server</title>
<path fill="none" stroke="#a0d17b" d="M190.2237,-908.041C221.06,-906.9789 261.0631,-900.8524 289,-879.1981 498.2903,-716.9739 327.1999,-366.1981 592,-366.1981 592,-366.1981 592,-366.1981 871.5,-366.1981 1086.6584,-366.1981 1339.9669,-367.7074 1469.0556,-368.5849"/>
<polygon fill="#a0d17b" stroke="#a0d17b" points="1469.243,-372.0862 1479.2667,-368.6548 1469.2909,-365.0864 1469.243,-372.0862"/>
</g>
<!-- hidebound&#45;&gt;hidebound.exporters -->
<g id="edge80" class="edge">
<title>hidebound&#45;&gt;hidebound.exporters</title>
<path fill="none" stroke="#a0d17b" d="M190.3171,-901.6532C222.6433,-901.1788 264.4137,-906.5741 289,-933.1981 340.6959,-989.1785 280.8793,-1212.0722 325,-1274.1981 364.9211,-1330.4106 436.6045,-1362.3374 495.6505,-1379.9804"/>
<polygon fill="#a0d17b" stroke="#a0d17b" points="494.8079,-1383.3801 505.3866,-1382.7959 496.7525,-1376.6556 494.8079,-1383.3801"/>
</g>
<!-- hidebound.core -->
<g id="node49" class="node">
<title>hidebound.core</title>
<polygon fill="#343434" stroke="#343434" points="457,-924.1981 325,-924.1981 325,-888.1981 457,-888.1981 457,-924.1981"/>
<text text-anchor="middle" x="391" y="-902.4981" font-family="Courier,monospace" font-size="14.00" fill="#a0d17b">hidebound.core</text>
</g>
<!-- hidebound&#45;&gt;hidebound.core -->
<g id="edge81" class="edge">
<title>hidebound&#45;&gt;hidebound.core</title>
<path fill="none" stroke="#a0d17b" d="M190.2871,-906.1981C225.0707,-906.1981 273.6972,-906.1981 314.3758,-906.1981"/>
<polygon fill="#a0d17b" stroke="#a0d17b" points="314.5334,-909.6982 324.5333,-906.1981 314.5333,-902.6982 314.5334,-909.6982"/>
</g>
<!-- schematics -->
<g id="node42" class="node">
<title>schematics</title>
<polygon fill="#343434" stroke="#343434" points="921,-1318.1981 822,-1318.1981 822,-1282.1981 921,-1282.1981 921,-1318.1981"/>
<text text-anchor="middle" x="871.5" y="-1296.4981" font-family="Courier,monospace" font-size="14.00" fill="#de958e">schematics</text>
</g>
<!-- schematics&#45;&gt;hidebound.core.config -->
<g id="edge82" class="edge">
<title>schematics&#45;&gt;hidebound.core.config</title>
<path fill="none" stroke="#de958e" d="M921.0724,-1303.6038C949.8034,-1306.9893 986.0944,-1313.7396 1016,-1327.1981 1034.4842,-1335.5166 1032.8274,-1348.6198 1052,-1355.1981 1194.0912,-1403.9507 1241.0108,-1374.4056 1390,-1355.1981 1423.3097,-1350.9038 1459.5062,-1341.8953 1489.399,-1333.228"/>
<polygon fill="#de958e" stroke="#de958e" points="1490.6827,-1336.4984 1499.2816,-1330.309 1488.6998,-1329.7851 1490.6827,-1336.4984"/>
</g>
<!-- schematics&#45;&gt;hidebound.core.specification_base -->
<g id="edge83" class="edge">
<title>schematics&#45;&gt;hidebound.core.specification_base</title>
<path fill="none" stroke="#de958e" d="M921.1641,-1304.1465C952.5122,-1303.7962 991.5628,-1297.6657 1016,-1273.1981 1077.9707,-1211.1505 989.2189,-1140.4256 1052,-1079.1981 1056.7462,-1074.5694 1061.9488,-1070.5424 1067.4923,-1067.0475"/>
<polygon fill="#de958e" stroke="#de958e" points="1069.4782,-1069.9457 1076.4675,-1061.9833 1066.0383,-1063.8492 1069.4782,-1069.9457"/>
</g>
<!-- schematics&#45;&gt;hidebound.exporters.girder_exporter -->
<g id="edge84" class="edge">
<title>schematics&#45;&gt;hidebound.exporters.girder_exporter</title>
<path fill="none" stroke="#de958e" d="M921.2857,-1299.4801C951.1392,-1301.3425 988.5153,-1307.9401 1016,-1327.1981 1041.7815,-1345.2626 1026.2403,-1370.1025 1052,-1388.1981 1057.0092,-1391.7169 1062.2999,-1394.8774 1067.7948,-1397.7144"/>
<polygon fill="#de958e" stroke="#de958e" points="1066.6868,-1401.0627 1077.2215,-1402.1895 1069.6888,-1394.7391 1066.6868,-1401.0627"/>
</g>
<!-- schematics&#45;&gt;hidebound.exporters.local_disk_exporter -->
<g id="edge85" class="edge">
<title>schematics&#45;&gt;hidebound.exporters.local_disk_exporter</title>
<path fill="none" stroke="#de958e" d="M921.2037,-1291.0964C970.7557,-1282.0225 1048.4776,-1267.7902 1112.3684,-1256.0906"/>
<polygon fill="#de958e" stroke="#de958e" points="1113.2913,-1259.4799 1122.4973,-1254.2358 1112.0304,-1252.5943 1113.2913,-1259.4799"/>
</g>
<!-- schematics&#45;&gt;hidebound.exporters.s3_exporter -->
<g id="edge86" class="edge">
<title>schematics&#45;&gt;hidebound.exporters.s3_exporter</title>
<path fill="none" stroke="#de958e" d="M921.2037,-1304.1801C961.2997,-1307.3923 1019.84,-1312.0823 1074.5723,-1316.4671"/>
<polygon fill="#de958e" stroke="#de958e" points="1074.4948,-1319.972 1084.7424,-1317.2819 1075.0538,-1312.9944 1074.4948,-1319.972"/>
</g>
<!-- schematics.types -->
<g id="node43" class="node">
<title>schematics.types</title>
<polygon fill="#343434" stroke="#343434" points="946,-1264.1981 797,-1264.1981 797,-1228.1981 946,-1228.1981 946,-1264.1981"/>
<text text-anchor="middle" x="871.5" y="-1242.4981" font-family="Courier,monospace" font-size="14.00" fill="#de958e">schematics.types</text>
</g>
<!-- schematics.types&#45;&gt;hidebound.core.config -->
<g id="edge87" class="edge">
<title>schematics.types&#45;&gt;hidebound.core.config</title>
<path fill="none" stroke="#de958e" d="M946.1649,-1253.4184C1067.8961,-1265.1902 1309.4776,-1288.552 1448.6238,-1302.0079"/>
<polygon fill="#de958e" stroke="#de958e" points="1448.5838,-1305.5202 1458.8743,-1302.9991 1449.2577,-1298.5527 1448.5838,-1305.5202"/>
</g>
<!-- schematics.types&#45;&gt;hidebound.core.specification_base -->
<g id="edge88" class="edge">
<title>schematics.types&#45;&gt;hidebound.core.specification_base</title>
<path fill="none" stroke="#de958e" d="M905.1133,-1228.0429C936.6496,-1209.7656 983.6743,-1179.1774 1016,-1143.1981 1037.8113,-1118.9215 1025.2207,-1097.8516 1052,-1079.1981 1056.8418,-1075.8254 1061.9495,-1072.8136 1067.2526,-1070.1268"/>
<polygon fill="#de958e" stroke="#de958e" points="1068.7515,-1073.2898 1076.3494,-1065.9058 1065.8052,-1066.9401 1068.7515,-1073.2898"/>
</g>
<!-- schematics.types&#45;&gt;hidebound.core.specifications -->
<g id="edge89" class="edge">
<title>schematics.types&#45;&gt;hidebound.core.specifications</title>
<path fill="none" stroke="#de958e" d="M911.6407,-1228.0816C944.8476,-1210.9757 990.5479,-1182.1373 1016,-1143.1981 1058.731,-1077.8237 1003.1323,-1032.1219 1052,-971.1981 1155.1753,-842.5685 1241.8092,-890.5181 1390,-818.1981 1431.9912,-797.7056 1479.1619,-772.7628 1512.0972,-755.0277"/>
<polygon fill="#de958e" stroke="#de958e" points="1513.8554,-758.056 1520.993,-750.2263 1510.5306,-751.896 1513.8554,-758.056"/>
</g>
<!-- schematics.types&#45;&gt;hidebound.exporters.girder_exporter -->
<g id="edge90" class="edge">
<title>schematics.types&#45;&gt;hidebound.exporters.girder_exporter</title>
<path fill="none" stroke="#de958e" d="M946.299,-1246.5883C970.6433,-1250.0479 996.4104,-1257.649 1016,-1273.1981 1047.175,-1297.9431 1023.2089,-1327.716 1052,-1355.1981 1072.7584,-1375.0127 1100.2024,-1388.9612 1126.9242,-1398.7075"/>
<polygon fill="#de958e" stroke="#de958e" points="1126.1278,-1402.136 1136.7227,-1402.1112 1128.4249,-1395.5236 1126.1278,-1402.136"/>
</g>
<!-- schematics.types&#45;&gt;hidebound.exporters.local_disk_exporter -->
<g id="edge91" class="edge">
<title>schematics.types&#45;&gt;hidebound.exporters.local_disk_exporter</title>
<path fill="none" stroke="#de958e" d="M946.0478,-1244.0651C974.33,-1243.2559 1007.901,-1242.2953 1041.6992,-1241.3283"/>
<polygon fill="#de958e" stroke="#de958e" points="1041.814,-1244.8265 1051.7098,-1241.0419 1041.6138,-1237.8294 1041.814,-1244.8265"/>
</g>
<!-- schematics.types&#45;&gt;hidebound.exporters.s3_exporter -->
<g id="edge92" class="edge">
<title>schematics.types&#45;&gt;hidebound.exporters.s3_exporter</title>
<path fill="none" stroke="#de958e" d="M946.1733,-1254.5458C969.0937,-1258.5829 994.0477,-1264.5159 1016,-1273.1981 1033.6559,-1280.181 1034.3525,-1289.1938 1052,-1296.1981 1062.9504,-1300.5443 1074.5395,-1304.3109 1086.3103,-1307.5733"/>
<polygon fill="#de958e" stroke="#de958e" points="1085.6681,-1311.0237 1096.2306,-1310.1968 1087.4578,-1304.2564 1085.6681,-1311.0237"/>
</g>
<!-- wrapt -->
<g id="node44" class="node">
<title>wrapt</title>
<polygon fill="#343434" stroke="#343434" points="621,-1173.1981 563,-1173.1981 563,-1137.1981 621,-1137.1981 621,-1173.1981"/>
<text text-anchor="middle" x="592" y="-1151.4981" font-family="Courier,monospace" font-size="14.00" fill="#de958e">wrapt</text>
</g>
<!-- wrapt&#45;&gt;hidebound.core.validators -->
<g id="edge93" class="edge">
<title>wrapt&#45;&gt;hidebound.core.validators</title>
<path fill="none" stroke="#de958e" d="M621.1204,-1151.1348C651.7958,-1146.8545 702.1559,-1139.8275 749.6982,-1133.1937"/>
<polygon fill="#de958e" stroke="#de958e" points="750.372,-1136.6337 759.7923,-1131.7852 749.4046,-1129.7008 750.372,-1136.6337"/>
</g>
<!-- pyparsing -->
<g id="node45" class="node">
<title>pyparsing</title>
<polygon fill="#343434" stroke="#343434" points="436.5,-1089.1981 345.5,-1089.1981 345.5,-1053.1981 436.5,-1053.1981 436.5,-1089.1981"/>
<text text-anchor="middle" x="391" y="-1067.4981" font-family="Courier,monospace" font-size="14.00" fill="#de958e">pyparsing</text>
</g>
<!-- pyparsing&#45;&gt;hidebound.core.parser -->
<g id="edge94" class="edge">
<title>pyparsing&#45;&gt;hidebound.core.parser</title>
<path fill="none" stroke="#de958e" d="M436.61,-1060.76C456.373,-1056.2371 480.221,-1050.7793 503.2365,-1045.5121"/>
<polygon fill="#de958e" stroke="#de958e" points="504.0679,-1048.9124 513.035,-1043.2697 502.5062,-1042.0888 504.0679,-1048.9124"/>
</g>
<!-- pyparsing&#45;&gt;hidebound.core.specification_base -->
<g id="edge95" class="edge">
<title>pyparsing&#45;&gt;hidebound.core.specification_base</title>
<path fill="none" stroke="#de958e" d="M436.5098,-1070.1563C554.2629,-1067.4607 873.2033,-1060.1597 1066.227,-1055.7411"/>
<polygon fill="#de958e" stroke="#de958e" points="1066.5481,-1059.2347 1076.4653,-1055.5067 1066.3878,-1052.2366 1066.5481,-1059.2347"/>
</g>
<!-- pyparsing&#45;&gt;hidebound.core.validators -->
<g id="edge96" class="edge">
<title>pyparsing&#45;&gt;hidebound.core.validators</title>
<path fill="none" stroke="#de958e" d="M400.9665,-1089.2927C416.5975,-1115.5491 449.6278,-1163.1502 493,-1182.1981 573.5723,-1217.5832 609.226,-1214.7097 691,-1182.1981 711.4508,-1174.0673 707.5547,-1158.5047 727,-1148.1981 734.5877,-1144.1764 742.6571,-1140.6593 750.9531,-1137.5837"/>
<polygon fill="#de958e" stroke="#de958e" points="752.108,-1140.8877 760.4022,-1134.2955 749.8074,-1134.2766 752.108,-1140.8877"/>
</g>
<!-- pandas -->
<g id="node46" class="node">
<title>pandas</title>
<polygon fill="#343434" stroke="#343434" points="625,-805.1981 559,-805.1981 559,-769.1981 625,-769.1981 625,-805.1981"/>
<text text-anchor="middle" x="592" y="-783.4981" font-family="Courier,monospace" font-size="14.00" fill="#de958e">pandas</text>
</g>
<!-- pandas&#45;&gt;hidebound.core.database -->
<g id="edge97" class="edge">
<title>pandas&#45;&gt;hidebound.core.database</title>
<path fill="none" stroke="#de958e" d="M599.8817,-769.0415C616.8909,-732.4582 660.9209,-650.6149 727,-618.1981 917.8016,-524.5953 1514.9454,-537.8228 1682,-669.1981 1791.9188,-755.6406 1830.7328,-932.305 1842.0161,-1000.9961"/>
<polygon fill="#de958e" stroke="#de958e" points="1838.5879,-1001.7274 1843.5973,-1011.0632 1845.5032,-1000.6412 1838.5879,-1001.7274"/>
</g>
<!-- pandas&#45;&gt;hidebound.core.database_tools -->
<g id="edge98" class="edge">
<title>pandas&#45;&gt;hidebound.core.database_tools</title>
<path fill="none" stroke="#de958e" d="M625.3523,-787.1528C735.4133,-787.5095 1096.7575,-792.7192 1390,-843.1981 1420.1416,-848.3867 1452.9203,-856.1452 1481.1942,-863.5216"/>
<polygon fill="#de958e" stroke="#de958e" points="1480.4333,-866.9405 1490.9955,-866.1099 1482.2206,-860.1725 1480.4333,-866.9405"/>
</g>
<!-- pandas&#45;&gt;hidebound.core.tools -->
<g id="edge99" class="edge">
<title>pandas&#45;&gt;hidebound.core.tools</title>
<path fill="none" stroke="#de958e" d="M625.1599,-792.7742C660.8135,-798.7696 719.2559,-808.5971 770.2701,-817.1755"/>
<polygon fill="#de958e" stroke="#de958e" points="769.923,-820.6662 780.365,-818.8731 771.0839,-813.7631 769.923,-820.6662"/>
</g>
<!-- pandas&#45;&gt;hidebound.core.validators -->
<g id="edge100" class="edge">
<title>pandas&#45;&gt;hidebound.core.validators</title>
<path fill="none" stroke="#de958e" d="M625.0846,-804.5292C645.5241,-816.2473 671.4831,-833.0434 691,-852.1981 767.1287,-926.9138 830.6503,-1038.1698 857.612,-1089.0426"/>
<polygon fill="#de958e" stroke="#de958e" points="854.6184,-1090.8704 862.363,-1098.1003 860.8174,-1087.6188 854.6184,-1090.8704"/>
</g>
<!-- pandas&#45;&gt;hidebound.server.components -->
<g id="edge101" class="edge">
<title>pandas&#45;&gt;hidebound.server.components</title>
<path fill="none" stroke="#de958e" d="M596.763,-768.9572C609.6052,-723.4442 649.3357,-604.0984 727,-542.1981 979.691,-340.7973 1109.5199,-407.4311 1426,-342.1981 1479.7864,-331.1116 1613.8383,-314.5737 1716.1522,-302.7231"/>
<polygon fill="#de958e" stroke="#de958e" points="1716.7312,-306.1796 1726.2635,-301.5552 1715.9279,-299.2258 1716.7312,-306.1796"/>
</g>
<!-- schematics.exceptions -->
<g id="node47" class="node">
<title>schematics.exceptions</title>
<polygon fill="#343434" stroke="#343434" points="687,-951.1981 497,-951.1981 497,-915.1981 687,-915.1981 687,-951.1981"/>
<text text-anchor="middle" x="592" y="-929.4981" font-family="Courier,monospace" font-size="14.00" fill="#de958e">schematics.exceptions</text>
</g>
<!-- schematics.exceptions&#45;&gt;hidebound.core.config -->
<g id="edge102" class="edge">
<title>schematics.exceptions&#45;&gt;hidebound.core.config</title>
<path fill="none" stroke="#de958e" d="M636.6169,-951.238C656.7679,-961.8044 678.7581,-977.251 691,-998.1981 750.4522,-1099.9269 640.9014,-1446.7596 727,-1527.1981 835.4399,-1628.5092 1256.3537,-1511.7103 1390,-1447.1981 1446.9467,-1419.7094 1501.1833,-1368.4792 1530.7921,-1337.644"/>
<polygon fill="#de958e" stroke="#de958e" points="1533.4401,-1339.9379 1537.7758,-1330.2708 1528.3579,-1335.1242 1533.4401,-1339.9379"/>
</g>
<!-- schematics.exceptions&#45;&gt;hidebound.core.database_tools -->
<g id="edge103" class="edge">
<title>schematics.exceptions&#45;&gt;hidebound.core.database_tools</title>
<path fill="none" stroke="#de958e" d="M687.0658,-921.7959C700.4604,-920.4343 714.0674,-919.1812 727,-918.1981 968.9211,-899.8074 1251.4627,-890.8858 1415.8128,-886.9426"/>
<polygon fill="#de958e" stroke="#de958e" points="1416.0648,-890.4377 1425.9789,-886.7014 1415.8987,-883.4397 1416.0648,-890.4377"/>
</g>
<!-- schematics.exceptions&#45;&gt;hidebound.core.specification_base -->
<g id="edge104" class="edge">
<title>schematics.exceptions&#45;&gt;hidebound.core.specification_base</title>
<path fill="none" stroke="#de958e" d="M687.054,-923.7117C777.309,-919.1343 913.9753,-924.0335 1016,-980.1981 1038.4373,-992.5498 1029.8657,-1012.3112 1052,-1025.1981 1056.8145,-1028.0012 1061.8304,-1030.5385 1066.9922,-1032.8339"/>
<polygon fill="#de958e" stroke="#de958e" points="1065.8494,-1036.1482 1076.4293,-1036.7096 1068.5087,-1029.673 1065.8494,-1036.1482"/>
</g>
<!-- schematics.exceptions&#45;&gt;hidebound.core.tools -->
<g id="edge105" class="edge">
<title>schematics.exceptions&#45;&gt;hidebound.core.tools</title>
<path fill="none" stroke="#de958e" d="M673.5791,-915.1025C679.6569,-912.5136 685.5395,-909.5619 691,-906.1981 711.3638,-893.6536 706.3391,-878.2471 727,-866.1981 740.2916,-858.4467 755.2715,-852.5708 770.4227,-848.117"/>
<polygon fill="#de958e" stroke="#de958e" points="771.6663,-851.4055 780.3879,-845.3902 769.8187,-844.6537 771.6663,-851.4055"/>
</g>
<!-- schematics.exceptions&#45;&gt;hidebound.core.validators -->
<g id="edge106" class="edge">
<title>schematics.exceptions&#45;&gt;hidebound.core.validators</title>
<path fill="none" stroke="#de958e" d="M619.5645,-951.2457C670.287,-984.4558 778.3974,-1055.2401 835.0885,-1092.358"/>
<polygon fill="#de958e" stroke="#de958e" points="833.4454,-1095.4656 843.7289,-1098.0152 837.2798,-1089.6092 833.4454,-1095.4656"/>
</g>
<!-- schematics.exceptions&#45;&gt;hidebound.server.api -->
<g id="edge107" class="edge">
<title>schematics.exceptions&#45;&gt;hidebound.server.api</title>
<path fill="none" stroke="#de958e" d="M681.1588,-915.0821C684.7414,-912.4857 688.0552,-909.5394 691,-906.1981 766.6773,-820.3297 645.107,-731.1605 727,-651.1981 773.1522,-606.134 1706.427,-583.4701 2019.857,-577.1082"/>
<polygon fill="#de958e" stroke="#de958e" points="2020.3674,-580.5987 2030.2948,-576.8977 2020.2262,-573.6001 2020.3674,-580.5987"/>
</g>
<!-- OpenEXR -->
<g id="node48" class="node">
<title>OpenEXR</title>
<polygon fill="#343434" stroke="#343434" points="629,-897.1981 555,-897.1981 555,-861.1981 629,-861.1981 629,-897.1981"/>
<text text-anchor="middle" x="592" y="-875.4981" font-family="Courier,monospace" font-size="14.00" fill="#de958e">OpenEXR</text>
</g>
<!-- OpenEXR&#45;&gt;hidebound.core.tools -->
<g id="edge108" class="edge">
<title>OpenEXR&#45;&gt;hidebound.core.tools</title>
<path fill="none" stroke="#de958e" d="M629.1154,-873.2224C665.0273,-867.4406 721.0914,-858.4141 770.2581,-850.4982"/>
<polygon fill="#de958e" stroke="#de958e" points="770.9964,-853.9245 780.3129,-848.8794 769.8836,-847.0135 770.9964,-853.9245"/>
</g>
<!-- hidebound.core&#45;&gt;hidebound.core.config -->
<g id="edge109" class="edge">
<title>hidebound.core&#45;&gt;hidebound.core.config</title>
<path fill="none" stroke="#a0d17b" d="M402.6179,-924.5098C418.1937,-950.1382 445.2443,-998.6852 457,-1044.1981 473.8411,-1109.3993 443.9888,-1603.0166 493,-1649.1981 644.7483,-1792.1851 864.9069,-1824.6846 1390,-1511.1981 1461.4451,-1468.5446 1515.5947,-1382.9308 1539.9032,-1339.2204"/>
<polygon fill="#a0d17b" stroke="#a0d17b" points="1543.0484,-1340.7634 1544.7672,-1330.3089 1536.904,-1337.4097 1543.0484,-1340.7634"/>
</g>
<!-- hidebound.core&#45;&gt;hidebound.core.database -->
<g id="edge110" class="edge">
<title>hidebound.core&#45;&gt;hidebound.core.database</title>
<path fill="none" stroke="#a0d17b" d="M393.0427,-888.0094C401.3562,-817.3597 434.9939,-562.4846 493,-510.1981 641.0663,-376.7316 1193.2605,-470.0968 1390,-502.1981 1522.2414,-523.7754 1582.7886,-487.1399 1682,-577.1981 1810.9883,-694.286 1838.6602,-920.8378 1844.4828,-1000.5833"/>
<polygon fill="#a0d17b" stroke="#a0d17b" points="1841.0088,-1001.0903 1845.1677,-1010.8348 1847.9933,-1000.6237 1841.0088,-1001.0903"/>
</g>
<!-- hidebound.core&#45;&gt;hidebound.core.database_tools -->
<g id="edge111" class="edge">
<title>hidebound.core&#45;&gt;hidebound.core.database_tools</title>
<path fill="none" stroke="#a0d17b" d="M397.2593,-888.0202C409.6267,-855.3319 440.6295,-787.4957 493,-760.1981 571.0354,-719.5229 603.0359,-757.6833 691,-760.1981 1002.0478,-769.0906 1089.7086,-718.6207 1390,-800.1981 1437.265,-813.0381 1486.655,-840.5653 1518.7223,-860.6191"/>
<polygon fill="#a0d17b" stroke="#a0d17b" points="1516.973,-863.6543 1527.2914,-866.0587 1520.7245,-857.7444 1516.973,-863.6543"/>
</g>
<!-- hidebound.core&#45;&gt;hidebound.core.logging -->
<g id="edge112" class="edge">
<title>hidebound.core&#45;&gt;hidebound.core.logging</title>
<path fill="none" stroke="#a0d17b" d="M401.1252,-924.4604C415.1966,-950.427 440.7619,-999.8024 457,-1044.1981 478.7732,-1103.7271 456.0416,-1130.7019 493,-1182.1981 505.4549,-1199.5522 524.1054,-1213.5259 541.8716,-1224.0048"/>
<polygon fill="#a0d17b" stroke="#a0d17b" points="540.6125,-1227.3124 551.044,-1229.1655 544.0449,-1221.2116 540.6125,-1227.3124"/>
</g>
<!-- hidebound.core&#45;&gt;hidebound.core.parser -->
<g id="edge113" class="edge">
<title>hidebound.core&#45;&gt;hidebound.core.parser</title>
<path fill="none" stroke="#a0d17b" d="M407.7932,-924.2627C426.7912,-943.7419 459.4725,-974.4699 493,-993.1981 499.7637,-996.9762 507.0399,-1000.3866 514.4671,-1003.4464"/>
<polygon fill="#a0d17b" stroke="#a0d17b" points="513.3401,-1006.7636 523.9283,-1007.136 515.8833,-1000.2419 513.3401,-1006.7636"/>
</g>
<!-- hidebound.core&#45;&gt;hidebound.core.specification_base -->
<g id="edge114" class="edge">
<title>hidebound.core&#45;&gt;hidebound.core.specification_base</title>
<path fill="none" stroke="#a0d17b" d="M418.3741,-924.2036C438.2555,-936.3847 466.2533,-951.7419 493,-960.1981 604.6946,-995.5114 899.7824,-1011.4951 1016,-1026.1981 1033.1925,-1028.3731 1051.1956,-1030.6531 1069.0915,-1032.9209"/>
<polygon fill="#a0d17b" stroke="#a0d17b" points="1068.656,-1036.3936 1079.0167,-1034.1788 1069.5362,-1029.4491 1068.656,-1036.3936"/>
</g>
<!-- hidebound.core&#45;&gt;hidebound.core.specifications -->
<g id="edge115" class="edge">
<title>hidebound.core&#45;&gt;hidebound.core.specifications</title>
<path fill="none" stroke="#a0d17b" d="M395.1656,-887.9919C408.3248,-832.1218 450.6447,-664.8621 493,-631.1981 805.159,-383.0935 1012.7545,-484.028 1390,-613.1981 1445.9084,-632.3413 1499.0612,-677.6027 1529.0005,-706.4614"/>
<polygon fill="#a0d17b" stroke="#a0d17b" points="1526.8662,-709.2706 1536.456,-713.7747 1531.7681,-704.2734 1526.8662,-709.2706"/>
</g>
<!-- hidebound.core&#45;&gt;hidebound.core.tools -->
<g id="edge116" class="edge">
<title>hidebound.core&#45;&gt;hidebound.core.tools</title>
<path fill="none" stroke="#a0d17b" d="M417.3403,-888.0794C437.1758,-875.5036 465.5574,-859.7107 493,-852.1981 584.3911,-827.1792 692.7585,-824.6151 770.0694,-827.1581"/>
<polygon fill="#a0d17b" stroke="#a0d17b" points="770.1699,-830.664 780.2906,-827.53 770.4245,-823.6686 770.1699,-830.664"/>
</g>
<!-- hidebound.core&#45;&gt;hidebound.core.traits -->
<g id="edge117" class="edge">
<title>hidebound.core&#45;&gt;hidebound.core.traits</title>
<path fill="none" stroke="#a0d17b" d="M396.4021,-888.0538C408.0446,-852.0459 438.9181,-771.2411 493,-727.1981 671.5503,-581.7908 961.2871,-598.4442 1115.9094,-620.7274"/>
<polygon fill="#a0d17b" stroke="#a0d17b" points="1115.4922,-624.2037 1125.8961,-622.2017 1116.5145,-617.2787 1115.4922,-624.2037"/>
</g>
<!-- hidebound.core&#45;&gt;hidebound.core.validators -->
<g id="edge118" class="edge">
<title>hidebound.core&#45;&gt;hidebound.core.validators</title>
<path fill="none" stroke="#a0d17b" d="M398.0497,-924.2919C411.3867,-955.9184 443.4886,-1020.8632 493,-1052.1981 569.2605,-1100.462 670.7533,-1115.573 749.4438,-1119.1003"/>
<polygon fill="#a0d17b" stroke="#a0d17b" points="749.7721,-1122.6157 759.9007,-1119.5074 750.0444,-1115.621 749.7721,-1122.6157"/>
</g>
<!-- selenium.webdriver.chrome.options -->
<g id="node50" class="node">
<title>selenium.webdriver.chrome.options</title>
<polygon fill="#343434" stroke="#343434" points="289,-978.1981 0,-978.1981 0,-942.1981 289,-942.1981 289,-978.1981"/>
<text text-anchor="middle" x="144.5" y="-956.4981" font-family="Courier,monospace" font-size="14.00" fill="#de958e">selenium.webdriver.chrome.options</text>
</g>
<!-- skimage.io -->
<g id="node51" class="node">
<title>skimage.io</title>
<polygon fill="#343434" stroke="#343434" points="921,-696.1981 822,-696.1981 822,-660.1981 921,-660.1981 921,-696.1981"/>
<text text-anchor="middle" x="871.5" y="-674.4981" font-family="Courier,monospace" font-size="14.00" fill="#de958e">skimage.io</text>
</g>
<!-- skimage.io&#45;&gt;hidebound.core.traits -->
<g id="edge119" class="edge">
<title>skimage.io&#45;&gt;hidebound.core.traits</title>
<path fill="none" stroke="#de958e" d="M921.2037,-672.794C971.5607,-667.3188 1051.0103,-658.6805 1115.471,-651.6719"/>
<polygon fill="#de958e" stroke="#de958e" points="1116.1181,-655.1223 1125.6812,-650.5618 1115.3614,-648.1633 1116.1181,-655.1223"/>
</g>
</g>
</svg>
