<?xml version="1.0" encoding="UTF-8" standalone="no"?>
<!DOCTYPE svg PUBLIC "-//W3C//DTD SVG 1.1//EN"
 "http://www.w3.org/Graphics/SVG/1.1/DTD/svg11.dtd">
<!-- Generated by graphviz version 2.40.1 (20161225.0304)
 -->
<!-- Title: %3 Pages: 1 -->
<svg width="2947pt" height="2083pt"
 viewBox="0.00 0.00 2947.00 2082.85" xmlns="http://www.w3.org/2000/svg" xmlns:xlink="http://www.w3.org/1999/xlink">
<g id="graph0" class="graph" transform="scale(1 1) rotate(0) translate(4 2078.854)">
<title>%3</title>
<polygon fill="#242424" stroke="transparent" points="-4,4 -4,-2078.854 2943,-2078.854 2943,4 -4,4"/>
<!-- cli -->
<g id="node1" class="node">
<title>cli</title>
<polygon fill="#343434" stroke="#343434" points="72.5,-1112 18.5,-1112 18.5,-1076 72.5,-1076 72.5,-1112"/>
<text text-anchor="middle" x="45.5" y="-1090.3" font-family="Courier,monospace" font-size="14.00" fill="#b6ecf3">cli</text>
</g>
<!-- hidebound.core.config -->
<g id="node2" class="node">
<title>hidebound.core.config</title>
<polygon fill="#343434" stroke="#343434" points="1669,-1335 1479,-1335 1479,-1299 1669,-1299 1669,-1335"/>
<text text-anchor="middle" x="1574" y="-1313.3" font-family="Courier,monospace" font-size="14.00" fill="#b6ecf3">hidebound.core.config</text>
</g>
<!-- hidebound.core.database -->
<g id="node3" class="node">
<title>hidebound.core.database</title>
<polygon fill="#343434" stroke="#343434" points="1936,-732 1730,-732 1730,-696 1936,-696 1936,-732"/>
<text text-anchor="middle" x="1833" y="-710.3" font-family="Courier,monospace" font-size="14.00" fill="#b6ecf3">hidebound.core.database</text>
</g>
<!-- hidebound.core.config&#45;&gt;hidebound.core.database -->
<g id="edge1" class="edge">
<title>hidebound.core.config&#45;&gt;hidebound.core.database</title>
<path fill="none" stroke="#b6ecf3" d="M1652.9112,-1298.887C1658.9753,-1295.0983 1664.4825,-1290.5233 1669,-1285 1709.5546,-1235.4154 1687.6875,-1060.6732 1705,-999 1732.8878,-899.6536 1790.013,-790.5745 1817.5212,-741.09"/>
<polygon fill="#b6ecf3" stroke="#b6ecf3" points="1820.6208,-742.7184 1822.455,-732.2835 1814.5139,-739.297 1820.6208,-742.7184"/>
</g>
<!-- hidebound.server.app -->
<g id="node17" class="node">
<title>hidebound.server.app</title>
<polygon fill="#343434" stroke="#343434" points="2939,-266 2757,-266 2757,-230 2939,-230 2939,-266"/>
<text text-anchor="middle" x="2848" y="-244.3" font-family="Courier,monospace" font-size="14.00" fill="#b6ecf3">hidebound.server.app</text>
</g>
<!-- hidebound.core.config&#45;&gt;hidebound.server.app -->
<g id="edge2" class="edge">
<title>hidebound.core.config&#45;&gt;hidebound.server.app</title>
<path fill="none" stroke="#b6ecf3" d="M1669.2066,-1317C1772.3847,-1317 1941.8759,-1317 2088,-1317 2088,-1317 2088,-1317 2330.5,-1317 2550.9938,-1317 2608.4822,-1200.624 2721,-1011 2797.414,-882.221 2837.0737,-398.7517 2846.0243,-276.3167"/>
<polygon fill="#b6ecf3" stroke="#b6ecf3" points="2849.5227,-276.4631 2846.751,-266.2373 2842.5409,-275.9597 2849.5227,-276.4631"/>
</g>
<!-- hidebound.server.api -->
<g id="node16" class="node">
<title>hidebound.server.api</title>
<polygon fill="#343434" stroke="#343434" points="2179,-979 1997,-979 1997,-943 2179,-943 2179,-979"/>
<text text-anchor="middle" x="2088" y="-957.3" font-family="Courier,monospace" font-size="14.00" fill="#b6ecf3">hidebound.server.api</text>
</g>
<!-- hidebound.core.database&#45;&gt;hidebound.server.api -->
<g id="edge3" class="edge">
<title>hidebound.core.database&#45;&gt;hidebound.server.api</title>
<path fill="none" stroke="#b6ecf3" d="M1851.7508,-732.1625C1896.6054,-775.61 2010.192,-885.633 2061.7841,-935.6066"/>
<polygon fill="#b6ecf3" stroke="#b6ecf3" points="2059.6038,-938.3674 2069.2218,-942.8109 2064.474,-933.3393 2059.6038,-938.3674"/>
</g>
<!-- hidebound.server.extension -->
<g id="node19" class="node">
<title>hidebound.server.extension</title>
<polygon fill="#343434" stroke="#343434" points="2446,-609 2215,-609 2215,-573 2446,-573 2446,-609"/>
<text text-anchor="middle" x="2330.5" y="-587.3" font-family="Courier,monospace" font-size="14.00" fill="#b6ecf3">hidebound.server.extension</text>
</g>
<!-- hidebound.core.database&#45;&gt;hidebound.server.extension -->
<g id="edge4" class="edge">
<title>hidebound.core.database&#45;&gt;hidebound.server.extension</title>
<path fill="none" stroke="#b6ecf3" d="M1905.8736,-695.983C1996.8469,-673.4911 2152.0763,-635.1128 2247.5277,-611.5138"/>
<polygon fill="#b6ecf3" stroke="#b6ecf3" points="2248.5638,-614.8631 2257.4315,-609.0652 2246.8837,-608.0677 2248.5638,-614.8631"/>
</g>
<!-- hidebound.core.database_tools -->
<g id="node4" class="node">
<title>hidebound.core.database_tools</title>
<polygon fill="#343434" stroke="#343434" points="1402,-674 1146,-674 1146,-638 1402,-638 1402,-674"/>
<text text-anchor="middle" x="1274" y="-652.3" font-family="Courier,monospace" font-size="14.00" fill="#b6ecf3">hidebound.core.database_tools</text>
</g>
<!-- hidebound.core.database_tools&#45;&gt;hidebound.core.database -->
<g id="edge5" class="edge">
<title>hidebound.core.database_tools&#45;&gt;hidebound.core.database</title>
<path fill="none" stroke="#b6ecf3" d="M1312.6299,-674.0041C1353.0769,-691.7856 1418.9463,-717.7606 1479,-728 1558.6047,-741.573 1649.6689,-737.5414 1719.5,-730.3926"/>
<polygon fill="#b6ecf3" stroke="#b6ecf3" points="1720.0698,-733.8519 1729.645,-729.317 1719.3316,-726.8909 1720.0698,-733.8519"/>
</g>
<!-- hidebound.core.logging -->
<g id="node5" class="node">
<title>hidebound.core.logging</title>
<polygon fill="#343434" stroke="#343434" points="731.5,-491 533.5,-491 533.5,-455 731.5,-455 731.5,-491"/>
<text text-anchor="middle" x="632.5" y="-469.3" font-family="Courier,monospace" font-size="14.00" fill="#b6ecf3">hidebound.core.logging</text>
</g>
<!-- hidebound.core.logging&#45;&gt;hidebound.core.database -->
<g id="edge6" class="edge">
<title>hidebound.core.logging&#45;&gt;hidebound.core.database</title>
<path fill="none" stroke="#b6ecf3" d="M652.5927,-454.7973C679.3634,-431.8999 729.2757,-393.7891 780,-379 1064.0062,-296.1959 1173.5598,-315.8606 1443,-438 1461.9693,-446.599 1460.3252,-458.7789 1479,-468 1556.632,-506.3324 1595.5032,-465.2363 1669,-511 1740.6632,-555.622 1794.8873,-642.829 1819.0941,-686.9917"/>
<polygon fill="#b6ecf3" stroke="#b6ecf3" points="1816.1121,-688.8364 1823.9328,-695.9839 1822.2764,-685.5194 1816.1121,-688.8364"/>
</g>
<!-- hidebound.exporters.exporter_base -->
<g id="node12" class="node">
<title>hidebound.exporters.exporter_base</title>
<polygon fill="#343434" stroke="#343434" points="1069,-1205 780,-1205 780,-1169 1069,-1169 1069,-1205"/>
<text text-anchor="middle" x="924.5" y="-1183.3" font-family="Courier,monospace" font-size="14.00" fill="#b6ecf3">hidebound.exporters.exporter_base</text>
</g>
<!-- hidebound.core.logging&#45;&gt;hidebound.exporters.exporter_base -->
<g id="edge7" class="edge">
<title>hidebound.core.logging&#45;&gt;hidebound.exporters.exporter_base</title>
<path fill="none" stroke="#b6ecf3" d="M660.7361,-491.0368C687.3164,-509.7456 725.697,-541.6164 744,-580 826.1636,-752.3068 708.9216,-830.8324 780,-1008 805.5077,-1071.5796 861.7052,-1130.3189 896.0151,-1162.1608"/>
<polygon fill="#b6ecf3" stroke="#b6ecf3" points="893.6594,-1164.7495 903.4013,-1168.9144 898.383,-1159.5834 893.6594,-1164.7495"/>
</g>
<!-- hidebound.core.logging&#45;&gt;hidebound.server.api -->
<g id="edge8" class="edge">
<title>hidebound.core.logging&#45;&gt;hidebound.server.api</title>
<path fill="none" stroke="#b6ecf3" d="M659.7542,-491.2287C685.7884,-510.1932 723.9427,-542.3512 744,-580 787.7004,-662.0286 712.3594,-722.2571 780,-786 827.0423,-830.3316 1004.9471,-810.3113 1069,-819 1352.5426,-857.462 1421.3721,-881.1718 1705,-919 1800.3419,-931.716 1909.4147,-943.398 1986.7127,-951.1957"/>
<polygon fill="#b6ecf3" stroke="#b6ecf3" points="1986.6281,-954.7048 1996.928,-952.2223 1987.3281,-947.7398 1986.6281,-954.7048"/>
</g>
<!-- hidebound.server.server_tools -->
<g id="node21" class="node">
<title>hidebound.server.server_tools</title>
<polygon fill="#343434" stroke="#343434" points="1961,-372 1705,-372 1705,-336 1961,-336 1961,-372"/>
<text text-anchor="middle" x="1833" y="-350.3" font-family="Courier,monospace" font-size="14.00" fill="#b6ecf3">hidebound.server.server_tools</text>
</g>
<!-- hidebound.core.logging&#45;&gt;hidebound.server.server_tools -->
<g id="edge9" class="edge">
<title>hidebound.core.logging&#45;&gt;hidebound.server.server_tools</title>
<path fill="none" stroke="#b6ecf3" d="M638.9358,-454.846C655.0278,-412.5395 701.456,-307.7487 780,-265 866.8093,-217.7528 1586.4893,-180.5928 1669,-235 1702.9091,-257.3595 1674.3676,-292.3273 1705,-319 1710.3115,-323.6249 1716.1797,-327.6443 1722.3959,-331.1369"/>
<polygon fill="#b6ecf3" stroke="#b6ecf3" points="1721.2283,-334.4698 1731.7281,-335.8861 1724.4033,-328.2312 1721.2283,-334.4698"/>
</g>
<!-- hidebound.core.parser -->
<g id="node6" class="node">
<title>hidebound.core.parser</title>
<polygon fill="#343434" stroke="#343434" points="485,-1185 295,-1185 295,-1149 485,-1149 485,-1185"/>
<text text-anchor="middle" x="390" y="-1163.3" font-family="Courier,monospace" font-size="14.00" fill="#b6ecf3">hidebound.core.parser</text>
</g>
<!-- hidebound.core.parser&#45;&gt;hidebound.core.database_tools -->
<g id="edge10" class="edge">
<title>hidebound.core.parser&#45;&gt;hidebound.core.database_tools</title>
<path fill="none" stroke="#b6ecf3" d="M393.3015,-1148.5396C406.7119,-1075.5978 459.3399,-808.7322 521,-753 565.6852,-712.6108 930.4563,-680.446 1135.436,-665.3522"/>
<polygon fill="#b6ecf3" stroke="#b6ecf3" points="1135.9606,-668.8233 1145.6784,-664.6024 1135.4495,-661.842 1135.9606,-668.8233"/>
</g>
<!-- hidebound.core.specification_base -->
<g id="node7" class="node">
<title>hidebound.core.specification_base</title>
<polygon fill="#343434" stroke="#343434" points="1069,-1335 780,-1335 780,-1299 1069,-1299 1069,-1335"/>
<text text-anchor="middle" x="924.5" y="-1313.3" font-family="Courier,monospace" font-size="14.00" fill="#b6ecf3">hidebound.core.specification_base</text>
</g>
<!-- hidebound.core.parser&#45;&gt;hidebound.core.specification_base -->
<g id="edge11" class="edge">
<title>hidebound.core.parser&#45;&gt;hidebound.core.specification_base</title>
<path fill="none" stroke="#b6ecf3" d="M471.5352,-1185.2186C476.3077,-1187.7714 480.8476,-1190.6819 485,-1194 511.1031,-1214.8584 493.5345,-1240.9713 521,-1260 560.8079,-1287.5798 673.4376,-1301.9628 769.6161,-1309.3762"/>
<polygon fill="#b6ecf3" stroke="#b6ecf3" points="769.5275,-1312.8793 779.7614,-1310.1374 770.0513,-1305.8989 769.5275,-1312.8793"/>
</g>
<!-- hidebound.core.validators -->
<g id="node11" class="node">
<title>hidebound.core.validators</title>
<polygon fill="#343434" stroke="#343434" points="744,-1251 521,-1251 521,-1215 744,-1215 744,-1251"/>
<text text-anchor="middle" x="632.5" y="-1229.3" font-family="Courier,monospace" font-size="14.00" fill="#b6ecf3">hidebound.core.validators</text>
</g>
<!-- hidebound.core.parser&#45;&gt;hidebound.core.validators -->
<g id="edge12" class="edge">
<title>hidebound.core.parser&#45;&gt;hidebound.core.validators</title>
<path fill="none" stroke="#b6ecf3" d="M456.2642,-1185.0348C487.2734,-1193.4744 524.3701,-1203.5708 556.5121,-1212.3188"/>
<polygon fill="#b6ecf3" stroke="#b6ecf3" points="555.7477,-1215.738 566.3159,-1214.987 557.5861,-1208.9837 555.7477,-1215.738"/>
</g>
<!-- hidebound.core.specification_base&#45;&gt;hidebound.core.config -->
<g id="edge13" class="edge">
<title>hidebound.core.specification_base&#45;&gt;hidebound.core.config</title>
<path fill="none" stroke="#b6ecf3" d="M1069.0484,-1317C1189.996,-1317 1359.739,-1317 1468.3011,-1317"/>
<polygon fill="#b6ecf3" stroke="#b6ecf3" points="1468.6125,-1320.5001 1478.6125,-1317 1468.6124,-1313.5001 1468.6125,-1320.5001"/>
</g>
<!-- hidebound.core.specification_base&#45;&gt;hidebound.core.database -->
<g id="edge14" class="edge">
<title>hidebound.core.specification_base&#45;&gt;hidebound.core.database</title>
<path fill="none" stroke="#b6ecf3" d="M1069.2312,-1310.6445C1177.6102,-1300.732 1326.6051,-1275.8634 1443,-1214 1650.8011,-1103.5546 1783.4937,-828.9364 1821.6235,-741.3227"/>
<polygon fill="#b6ecf3" stroke="#b6ecf3" points="1824.8773,-742.6158 1825.6096,-732.0463 1818.4459,-739.8522 1824.8773,-742.6158"/>
</g>
<!-- hidebound.core.specification_base&#45;&gt;hidebound.core.database_tools -->
<g id="edge15" class="edge">
<title>hidebound.core.specification_base&#45;&gt;hidebound.core.database_tools</title>
<path fill="none" stroke="#b6ecf3" d="M964.6856,-1298.9127C997.9205,-1281.8252 1043.6368,-1252.9972 1069,-1214 1112.531,-1147.0689 1080.7088,-1114.0569 1105,-1038 1149.0853,-899.9669 1227.3067,-744.6934 1259.5204,-683.1813"/>
<polygon fill="#b6ecf3" stroke="#b6ecf3" points="1262.7234,-684.6104 1264.2832,-674.1311 1256.5288,-681.3504 1262.7234,-684.6104"/>
</g>
<!-- hidebound.core.specifications -->
<g id="node8" class="node">
<title>hidebound.core.specifications</title>
<polygon fill="#343434" stroke="#343434" points="1402,-1731 1146,-1731 1146,-1695 1402,-1695 1402,-1731"/>
<text text-anchor="middle" x="1274" y="-1709.3" font-family="Courier,monospace" font-size="14.00" fill="#b6ecf3">hidebound.core.specifications</text>
</g>
<!-- hidebound.core.specification_base&#45;&gt;hidebound.core.specifications -->
<g id="edge16" class="edge">
<title>hidebound.core.specification_base&#45;&gt;hidebound.core.specifications</title>
<path fill="none" stroke="#b6ecf3" d="M956.1631,-1335.173C987.125,-1353.9038 1034.5152,-1385.2114 1069,-1420 1154.347,-1506.0988 1228.7699,-1631.3299 1259.2748,-1685.8964"/>
<polygon fill="#b6ecf3" stroke="#b6ecf3" points="1256.3773,-1687.8886 1264.2874,-1694.9371 1262.4993,-1684.4943 1256.3773,-1687.8886"/>
</g>
<!-- hidebound.core.tools -->
<g id="node9" class="node">
<title>hidebound.core.tools</title>
<polygon fill="#343434" stroke="#343434" points="723.5,-625 541.5,-625 541.5,-589 723.5,-589 723.5,-625"/>
<text text-anchor="middle" x="632.5" y="-603.3" font-family="Courier,monospace" font-size="14.00" fill="#b6ecf3">hidebound.core.tools</text>
</g>
<!-- hidebound.core.tools&#45;&gt;hidebound.core.database -->
<g id="edge17" class="edge">
<title>hidebound.core.tools&#45;&gt;hidebound.core.database</title>
<path fill="none" stroke="#b6ecf3" d="M723.7672,-604.854C742.3725,-604.498 761.8158,-604.1849 780,-604 1074.8608,-601.0017 1191.9495,-474.3211 1443,-629 1469.8016,-645.5132 1452.2062,-673.4741 1479,-690 1518.0615,-714.0924 1631.5837,-718.2694 1719.6516,-717.5526"/>
<polygon fill="#b6ecf3" stroke="#b6ecf3" points="1719.7515,-721.0518 1729.7148,-717.4487 1719.6792,-714.0522 1719.7515,-721.0518"/>
</g>
<!-- hidebound.core.tools&#45;&gt;hidebound.core.database_tools -->
<g id="edge18" class="edge">
<title>hidebound.core.tools&#45;&gt;hidebound.core.database_tools</title>
<path fill="none" stroke="#b6ecf3" d="M723.8459,-607.0867C812.3116,-607.9399 950.1389,-611.2995 1069,-623 1101.1288,-626.1627 1135.8669,-631.1513 1167.4565,-636.3011"/>
<polygon fill="#b6ecf3" stroke="#b6ecf3" points="1167.158,-639.7992 1177.5949,-637.9767 1168.2995,-632.8928 1167.158,-639.7992"/>
</g>
<!-- hidebound.core.tools&#45;&gt;hidebound.core.specification_base -->
<g id="edge19" class="edge">
<title>hidebound.core.tools&#45;&gt;hidebound.core.specification_base</title>
<path fill="none" stroke="#b6ecf3" d="M636.8523,-625.287C660.8047,-725.8812 775.6455,-1207.5656 780,-1214 803.8089,-1249.1811 843.8919,-1276.3455 875.8101,-1293.9225"/>
<polygon fill="#b6ecf3" stroke="#b6ecf3" points="874.5325,-1297.2087 885.0001,-1298.8459 877.8382,-1291.0383 874.5325,-1297.2087"/>
</g>
<!-- hidebound.core.traits -->
<g id="node10" class="node">
<title>hidebound.core.traits</title>
<polygon fill="#343434" stroke="#343434" points="1019.5,-1823 829.5,-1823 829.5,-1787 1019.5,-1787 1019.5,-1823"/>
<text text-anchor="middle" x="924.5" y="-1801.3" font-family="Courier,monospace" font-size="14.00" fill="#b6ecf3">hidebound.core.traits</text>
</g>
<!-- hidebound.core.tools&#45;&gt;hidebound.core.traits -->
<g id="edge20" class="edge">
<title>hidebound.core.tools&#45;&gt;hidebound.core.traits</title>
<path fill="none" stroke="#b6ecf3" d="M637.8073,-625.1354C655.7951,-687.3352 714.9439,-897.9974 744,-1076 772.6134,-1251.291 735.9014,-1301.9506 780,-1474 810.3904,-1592.5669 878.453,-1722.7721 909.0652,-1777.9261"/>
<polygon fill="#b6ecf3" stroke="#b6ecf3" points="906.0517,-1779.7083 913.9875,-1786.7279 912.1613,-1776.2916 906.0517,-1779.7083"/>
</g>
<!-- hidebound.core.tools&#45;&gt;hidebound.exporters.exporter_base -->
<g id="edge21" class="edge">
<title>hidebound.core.tools&#45;&gt;hidebound.exporters.exporter_base</title>
<path fill="none" stroke="#b6ecf3" d="M635.6335,-625.1987C646.9349,-687.3101 689.7889,-895.1496 780,-1041 810.524,-1090.3501 860.6208,-1135.9476 893.0789,-1162.6266"/>
<polygon fill="#b6ecf3" stroke="#b6ecf3" points="890.9568,-1165.4119 900.9283,-1168.9925 895.3661,-1159.9752 890.9568,-1165.4119"/>
</g>
<!-- hidebound.exporters.local_disk_exporter -->
<g id="node14" class="node">
<title>hidebound.exporters.local_disk_exporter</title>
<polygon fill="#343434" stroke="#343434" points="1443,-1205 1105,-1205 1105,-1169 1443,-1169 1443,-1205"/>
<text text-anchor="middle" x="1274" y="-1183.3" font-family="Courier,monospace" font-size="14.00" fill="#b6ecf3">hidebound.exporters.local_disk_exporter</text>
</g>
<!-- hidebound.core.tools&#45;&gt;hidebound.exporters.local_disk_exporter -->
<g id="edge22" class="edge">
<title>hidebound.core.tools&#45;&gt;hidebound.exporters.local_disk_exporter</title>
<path fill="none" stroke="#b6ecf3" d="M633.8598,-625.0328C639.502,-687.2031 666.43,-894.978 780,-1008 795.9511,-1023.8741 1080.9093,-1121.6585 1210.6223,-1165.6242"/>
<polygon fill="#b6ecf3" stroke="#b6ecf3" points="1209.8423,-1169.0553 1220.4366,-1168.9484 1212.088,-1162.4253 1209.8423,-1169.0553"/>
</g>
<!-- hidebound.exporters.s3_exporter -->
<g id="node15" class="node">
<title>hidebound.exporters.s3_exporter</title>
<polygon fill="#343434" stroke="#343434" points="1410,-1083 1138,-1083 1138,-1047 1410,-1047 1410,-1083"/>
<text text-anchor="middle" x="1274" y="-1061.3" font-family="Courier,monospace" font-size="14.00" fill="#b6ecf3">hidebound.exporters.s3_exporter</text>
</g>
<!-- hidebound.core.tools&#45;&gt;hidebound.exporters.s3_exporter -->
<g id="edge23" class="edge">
<title>hidebound.core.tools&#45;&gt;hidebound.exporters.s3_exporter</title>
<path fill="none" stroke="#b6ecf3" d="M639.9612,-625.2266C657.7546,-666.3696 706.7337,-766.9049 780,-819 888.714,-896.2997 950.4033,-838.936 1069,-900 1141.8086,-937.4882 1213.1628,-1003.3734 1249.4032,-1039.5093"/>
<polygon fill="#b6ecf3" stroke="#b6ecf3" points="1247.0615,-1042.1183 1256.5914,-1046.7478 1252.0285,-1037.1858 1247.0615,-1042.1183"/>
</g>
<!-- hidebound.core.tools&#45;&gt;hidebound.server.app -->
<g id="edge24" class="edge">
<title>hidebound.core.tools&#45;&gt;hidebound.server.app</title>
<path fill="none" stroke="#b6ecf3" d="M658.9421,-588.9516C684.7348,-569.8983 723.0527,-537.4686 744,-500 780.8391,-434.1058 728.3577,-389.0657 780,-334 884.8014,-222.2513 1300.8206,-202.0625 1443,-145 1459.7899,-138.2615 1461.439,-130.3498 1479,-126 1593.5907,-97.6161 2091.5977,-135.412 2721,-224 2729.8931,-225.2517 2739.1098,-226.6986 2748.3314,-228.2492"/>
<polygon fill="#b6ecf3" stroke="#b6ecf3" points="2747.8761,-231.7222 2758.3247,-229.968 2749.0627,-224.8235 2747.8761,-231.7222"/>
</g>
<!-- hidebound.core.tools&#45;&gt;hidebound.server.extension -->
<g id="edge25" class="edge">
<title>hidebound.core.tools&#45;&gt;hidebound.server.extension</title>
<path fill="none" stroke="#b6ecf3" d="M656.6745,-588.8526C681.4023,-569.2428 719.561,-535.9414 744,-500 767.7609,-465.0558 748.0466,-439.6524 780,-412 892.5648,-314.5866 960.1497,-365.3307 1105,-331 1254.8224,-295.4909 1329.3463,-358.8773 1443,-255 1481.5944,-219.7254 1436.7484,-173.7998 1479,-143 1564.2634,-80.8464 2110.0319,-242.5294 2179,-300 2265.0933,-371.7408 2308.3402,-505.0996 2323.7463,-562.9836"/>
<polygon fill="#b6ecf3" stroke="#b6ecf3" points="2320.4132,-564.0748 2326.303,-572.8816 2327.1907,-562.3241 2320.4132,-564.0748"/>
</g>
<!-- hidebound.core.traits&#45;&gt;hidebound.core.specifications -->
<g id="edge26" class="edge">
<title>hidebound.core.traits&#45;&gt;hidebound.core.specifications</title>
<path fill="none" stroke="#b6ecf3" d="M993.1329,-1786.9335C1051.3216,-1771.6163 1134.7741,-1749.6489 1195.5865,-1733.641"/>
<polygon fill="#b6ecf3" stroke="#b6ecf3" points="1196.7444,-1736.9555 1205.524,-1731.0251 1194.9625,-1730.1861 1196.7444,-1736.9555"/>
</g>
<!-- hidebound.core.validators&#45;&gt;hidebound.core.config -->
<g id="edge27" class="edge">
<title>hidebound.core.validators&#45;&gt;hidebound.core.config</title>
<path fill="none" stroke="#b6ecf3" d="M644.7364,-1251.2303C666.2151,-1283.6158 711.5017,-1353.646 744,-1416 762.3958,-1451.2958 746.6756,-1476.2357 780,-1498 903.9652,-1578.962 1326.7727,-1523.7248 1443,-1432 1474.564,-1407.0901 1449.3943,-1376.2084 1479,-1349 1482.5759,-1345.7136 1486.5011,-1342.7635 1490.6569,-1340.1153"/>
<polygon fill="#b6ecf3" stroke="#b6ecf3" points="1492.5168,-1343.084 1499.4732,-1335.0928 1489.0517,-1337.0017 1492.5168,-1343.084"/>
</g>
<!-- hidebound.core.validators&#45;&gt;hidebound.core.specification_base -->
<g id="edge28" class="edge">
<title>hidebound.core.validators&#45;&gt;hidebound.core.specification_base</title>
<path fill="none" stroke="#b6ecf3" d="M704.4096,-1251.0254C717.7575,-1255.1033 731.444,-1259.7904 744,-1265 760.9059,-1272.0144 762.8862,-1278.5091 780,-1285 791.2794,-1289.278 803.2817,-1293.0632 815.3624,-1296.3924"/>
<polygon fill="#b6ecf3" stroke="#b6ecf3" points="814.4921,-1299.7825 825.0553,-1298.9653 816.288,-1293.0168 814.4921,-1299.7825"/>
</g>
<!-- hidebound.core.validators&#45;&gt;hidebound.core.specifications -->
<g id="edge29" class="edge">
<title>hidebound.core.validators&#45;&gt;hidebound.core.specifications</title>
<path fill="none" stroke="#b6ecf3" d="M646.4336,-1251.1263C670.0929,-1282.7973 718.0717,-1351.0408 744,-1416 772.1468,-1486.5173 727.5283,-1528.1214 780,-1583 871.7833,-1678.9934 940.5625,-1625.1959 1069,-1659 1110.8208,-1670.007 1157.4381,-1682.286 1195.6386,-1692.3504"/>
<polygon fill="#b6ecf3" stroke="#b6ecf3" points="1195.1068,-1695.8297 1205.6685,-1694.993 1196.8902,-1689.0607 1195.1068,-1695.8297"/>
</g>
<!-- hidebound.core.validators&#45;&gt;hidebound.exporters.exporter_base -->
<g id="edge30" class="edge">
<title>hidebound.core.validators&#45;&gt;hidebound.exporters.exporter_base</title>
<path fill="none" stroke="#b6ecf3" d="M744.1426,-1215.4125C762.4301,-1212.5316 781.48,-1209.5305 800.0541,-1206.6045"/>
<polygon fill="#b6ecf3" stroke="#b6ecf3" points="800.6819,-1210.0488 810.0154,-1205.0352 799.5925,-1203.1341 800.6819,-1210.0488"/>
</g>
<!-- hidebound.exporters.girder_exporter -->
<g id="node13" class="node">
<title>hidebound.exporters.girder_exporter</title>
<polygon fill="#343434" stroke="#343434" points="1426.5,-1423 1121.5,-1423 1121.5,-1387 1426.5,-1387 1426.5,-1423"/>
<text text-anchor="middle" x="1274" y="-1401.3" font-family="Courier,monospace" font-size="14.00" fill="#b6ecf3">hidebound.exporters.girder_exporter</text>
</g>
<!-- hidebound.core.validators&#45;&gt;hidebound.exporters.girder_exporter -->
<g id="edge31" class="edge">
<title>hidebound.core.validators&#45;&gt;hidebound.exporters.girder_exporter</title>
<path fill="none" stroke="#b6ecf3" d="M744.0662,-1235.9234C833.843,-1241.0165 962.1967,-1254.5425 1069,-1290 1133.9911,-1311.5763 1201.8637,-1354.2796 1240.9145,-1381.1413"/>
<polygon fill="#b6ecf3" stroke="#b6ecf3" points="1239.0579,-1384.1132 1249.2664,-1386.9481 1243.0539,-1378.3659 1239.0579,-1384.1132"/>
</g>
<!-- hidebound.core.validators&#45;&gt;hidebound.exporters.local_disk_exporter -->
<g id="edge32" class="edge">
<title>hidebound.core.validators&#45;&gt;hidebound.exporters.local_disk_exporter</title>
<path fill="none" stroke="#b6ecf3" d="M744.3623,-1230.8224C832.6487,-1228.4544 958.8646,-1223.6312 1069,-1214 1092.1554,-1211.9751 1116.7119,-1209.2472 1140.4795,-1206.3015"/>
<polygon fill="#b6ecf3" stroke="#b6ecf3" points="1141.126,-1209.7479 1150.611,-1205.0272 1140.2523,-1202.8026 1141.126,-1209.7479"/>
</g>
<!-- hidebound.core.validators&#45;&gt;hidebound.exporters.s3_exporter -->
<g id="edge33" class="edge">
<title>hidebound.core.validators&#45;&gt;hidebound.exporters.s3_exporter</title>
<path fill="none" stroke="#b6ecf3" d="M662.8202,-1214.9555C691.9338,-1198.3734 737.6222,-1174.2687 780,-1160 847.2903,-1137.3432 1028.3857,-1105.1434 1151.5757,-1084.6628"/>
<polygon fill="#b6ecf3" stroke="#b6ecf3" points="1152.1605,-1088.1137 1161.4533,-1083.0251 1151.0155,-1081.208 1152.1605,-1088.1137"/>
</g>
<!-- hidebound.exporters.exporter_base&#45;&gt;hidebound.exporters.girder_exporter -->
<g id="edge34" class="edge">
<title>hidebound.exporters.exporter_base&#45;&gt;hidebound.exporters.girder_exporter</title>
<path fill="none" stroke="#b6ecf3" d="M966.612,-1205.0535C995.9892,-1218.2082 1035.7309,-1237.1384 1069,-1257 1134.097,-1295.8629 1204.6674,-1349.6528 1243.6952,-1380.5387"/>
<polygon fill="#b6ecf3" stroke="#b6ecf3" points="1241.5254,-1383.2849 1251.5313,-1386.7682 1245.8814,-1377.8054 1241.5254,-1383.2849"/>
</g>
<!-- hidebound.exporters.exporter_base&#45;&gt;hidebound.exporters.local_disk_exporter -->
<g id="edge35" class="edge">
<title>hidebound.exporters.exporter_base&#45;&gt;hidebound.exporters.local_disk_exporter</title>
<path fill="none" stroke="#b6ecf3" d="M1069.1779,-1187C1077.6139,-1187 1086.1463,-1187 1094.6932,-1187"/>
<polygon fill="#b6ecf3" stroke="#b6ecf3" points="1094.7283,-1190.5001 1104.7283,-1187 1094.7283,-1183.5001 1094.7283,-1190.5001"/>
</g>
<!-- hidebound.exporters.exporter_base&#45;&gt;hidebound.exporters.s3_exporter -->
<g id="edge36" class="edge">
<title>hidebound.exporters.exporter_base&#45;&gt;hidebound.exporters.s3_exporter</title>
<path fill="none" stroke="#b6ecf3" d="M1018.5005,-1168.9882C1035.4677,-1164.9453 1052.8803,-1160.2671 1069,-1155 1125.8995,-1136.4082 1188.5287,-1107.6146 1229.4022,-1087.6218"/>
<polygon fill="#b6ecf3" stroke="#b6ecf3" points="1231.1201,-1090.6773 1238.5447,-1083.119 1228.0273,-1084.3976 1231.1201,-1090.6773"/>
</g>
<!-- hidebound.exporters.girder_exporter&#45;&gt;hidebound.core.config -->
<g id="edge37" class="edge">
<title>hidebound.exporters.girder_exporter&#45;&gt;hidebound.core.config</title>
<path fill="none" stroke="#b6ecf3" d="M1335.4334,-1386.9795C1383.9883,-1372.7368 1451.8329,-1352.8357 1502.7645,-1337.8957"/>
<polygon fill="#b6ecf3" stroke="#b6ecf3" points="1503.781,-1341.2451 1512.3916,-1335.0718 1501.8107,-1334.5281 1503.781,-1341.2451"/>
</g>
<!-- hidebound.exporters.girder_exporter&#45;&gt;hidebound.core.database -->
<g id="edge38" class="edge">
<title>hidebound.exporters.girder_exporter&#45;&gt;hidebound.core.database</title>
<path fill="none" stroke="#b6ecf3" d="M1300.2936,-1386.9471C1338.165,-1361.7315 1411.006,-1316.13 1479,-1290 1559.8176,-1258.9418 1610.2254,-1310.5739 1669,-1247 1706.8042,-1206.1089 1689.4422,-1052.4714 1705,-999 1733.8273,-899.9221 1790.4957,-790.7125 1817.7072,-741.1432"/>
<polygon fill="#b6ecf3" stroke="#b6ecf3" points="1820.8094,-742.7658 1822.5861,-732.321 1814.6837,-739.3781 1820.8094,-742.7658"/>
</g>
<!-- hidebound.exporters.local_disk_exporter&#45;&gt;hidebound.core.config -->
<g id="edge39" class="edge">
<title>hidebound.exporters.local_disk_exporter&#45;&gt;hidebound.core.config</title>
<path fill="none" stroke="#b6ecf3" d="M1315.7137,-1205.0759C1369.8545,-1228.537 1464.2961,-1269.4616 1522.7444,-1294.7892"/>
<polygon fill="#b6ecf3" stroke="#b6ecf3" points="1521.5909,-1298.1038 1532.1581,-1298.8685 1524.3741,-1291.6809 1521.5909,-1298.1038"/>
</g>
<!-- hidebound.exporters.local_disk_exporter&#45;&gt;hidebound.core.database -->
<g id="edge40" class="edge">
<title>hidebound.exporters.local_disk_exporter&#45;&gt;hidebound.core.database</title>
<path fill="none" stroke="#b6ecf3" d="M1312.1739,-1168.883C1347.5079,-1151.3537 1400.7949,-1122.9523 1443,-1092 1598.3145,-978.0959 1754.071,-805.3065 1810.6828,-740.1189"/>
<polygon fill="#b6ecf3" stroke="#b6ecf3" points="1813.5005,-742.2114 1817.3948,-732.3582 1808.2059,-737.6323 1813.5005,-742.2114"/>
</g>
<!-- hidebound.exporters.s3_exporter&#45;&gt;hidebound.core.config -->
<g id="edge41" class="edge">
<title>hidebound.exporters.s3_exporter&#45;&gt;hidebound.core.config</title>
<path fill="none" stroke="#b6ecf3" d="M1315.5378,-1083.0999C1351.4618,-1099.9286 1403.6658,-1127.286 1443,-1160 1490.102,-1199.1745 1533.2317,-1256.8809 1556.339,-1290.3301"/>
<polygon fill="#b6ecf3" stroke="#b6ecf3" points="1553.514,-1292.3997 1562.0426,-1298.6857 1559.2954,-1288.4532 1553.514,-1292.3997"/>
</g>
<!-- hidebound.exporters.s3_exporter&#45;&gt;hidebound.core.database -->
<g id="edge42" class="edge">
<title>hidebound.exporters.s3_exporter&#45;&gt;hidebound.core.database</title>
<path fill="none" stroke="#b6ecf3" d="M1289.8098,-1046.7888C1321.817,-1011.0962 1398.1455,-931.7894 1479,-890 1556.374,-850.0095 1590.7672,-880.2832 1669,-842 1723.7302,-815.2177 1777.5477,-768.1469 1807.8874,-739.1586"/>
<polygon fill="#b6ecf3" stroke="#b6ecf3" points="1810.3259,-741.6694 1815.0813,-732.2017 1805.4597,-736.6374 1810.3259,-741.6694"/>
</g>
<!-- hidebound.server.api&#45;&gt;hidebound.server.extension -->
<g id="edge43" class="edge">
<title>hidebound.server.api&#45;&gt;hidebound.server.extension</title>
<path fill="none" stroke="#b6ecf3" d="M2099.8604,-942.9037C2139.3461,-882.6575 2266.4872,-688.669 2313.1323,-617.4992"/>
<polygon fill="#b6ecf3" stroke="#b6ecf3" points="2316.108,-619.3438 2318.6624,-609.0615 2310.2534,-615.5067 2316.108,-619.3438"/>
</g>
<!-- hidebound.server.components -->
<g id="node18" class="node">
<title>hidebound.server.components</title>
<polygon fill="#343434" stroke="#343434" points="1952.5,-1766 1713.5,-1766 1713.5,-1730 1952.5,-1730 1952.5,-1766"/>
<text text-anchor="middle" x="1833" y="-1744.3" font-family="Courier,monospace" font-size="14.00" fill="#b6ecf3">hidebound.server.components</text>
</g>
<!-- hidebound.server.components&#45;&gt;hidebound.server.app -->
<g id="edge44" class="edge">
<title>hidebound.server.components&#45;&gt;hidebound.server.app</title>
<path fill="none" stroke="#b6ecf3" d="M1952.7194,-1738.5779C2148.3543,-1716.2252 2533.5096,-1641.7175 2721,-1396 2791.2248,-1303.9662 2838.0979,-443.8136 2846.6051,-276.2252"/>
<polygon fill="#b6ecf3" stroke="#b6ecf3" points="2850.1023,-276.3669 2847.1098,-266.2035 2843.1111,-276.0148 2850.1023,-276.3669"/>
</g>
<!-- hidebound.server.extensions -->
<g id="node20" class="node">
<title>hidebound.server.extensions</title>
<polygon fill="#343434" stroke="#343434" points="2721,-1002 2482,-1002 2482,-966 2721,-966 2721,-1002"/>
<text text-anchor="middle" x="2601.5" y="-980.3" font-family="Courier,monospace" font-size="14.00" fill="#b6ecf3">hidebound.server.extensions</text>
</g>
<!-- hidebound.server.extension&#45;&gt;hidebound.server.extensions -->
<g id="edge45" class="edge">
<title>hidebound.server.extension&#45;&gt;hidebound.server.extensions</title>
<path fill="none" stroke="#b6ecf3" d="M2343.0274,-609.167C2386.5406,-672.2692 2531.2869,-882.1781 2582.9651,-957.121"/>
<polygon fill="#b6ecf3" stroke="#b6ecf3" points="2580.2347,-959.3268 2588.7929,-965.5724 2585.9974,-955.353 2580.2347,-959.3268"/>
</g>
<!-- hidebound.server.extensions&#45;&gt;hidebound.server.api -->
<g id="edge46" class="edge">
<title>hidebound.server.extensions&#45;&gt;hidebound.server.api</title>
<path fill="none" stroke="#b6ecf3" d="M2481.6875,-978.6335C2392.9227,-974.6577 2273.2883,-969.2992 2189.2761,-965.5362"/>
<polygon fill="#b6ecf3" stroke="#b6ecf3" points="2189.3584,-962.0365 2179.2118,-965.0854 2189.0451,-969.0295 2189.3584,-962.0365"/>
</g>
<!-- hidebound.server.extensions&#45;&gt;hidebound.server.app -->
<g id="edge47" class="edge">
<title>hidebound.server.extensions&#45;&gt;hidebound.server.app</title>
<path fill="none" stroke="#b6ecf3" d="M2607.5933,-965.8066C2640.6592,-867.0785 2798.5404,-395.6765 2838.6941,-275.7855"/>
<polygon fill="#b6ecf3" stroke="#b6ecf3" points="2842.042,-276.8101 2841.899,-266.2163 2835.4044,-274.587 2842.042,-276.8101"/>
</g>
<!-- hidebound.server.server_tools&#45;&gt;hidebound.server.api -->
<g id="edge48" class="edge">
<title>hidebound.server.server_tools&#45;&gt;hidebound.server.api</title>
<path fill="none" stroke="#b6ecf3" d="M1840.6316,-372.1663C1876.9981,-458.7328 2032.7529,-829.4902 2076.52,-933.673"/>
<polygon fill="#b6ecf3" stroke="#b6ecf3" points="2073.2981,-935.0406 2080.3981,-942.9045 2079.7518,-932.3294 2073.2981,-935.0406"/>
</g>
<!-- hidebound.server.server_tools&#45;&gt;hidebound.server.app -->
<g id="edge49" class="edge">
<title>hidebound.server.server_tools&#45;&gt;hidebound.server.app</title>
<path fill="none" stroke="#b6ecf3" d="M1872.1134,-335.9258C1971.3735,-291.1761 2242.1988,-176.0281 2482,-137 2586.8427,-119.9366 2621.5547,-99.6665 2721,-137 2765.9691,-153.8822 2805.4513,-194.7017 2828.0156,-221.852"/>
<polygon fill="#b6ecf3" stroke="#b6ecf3" points="2825.4439,-224.2374 2834.4626,-229.7974 2830.8796,-219.8268 2825.4439,-224.2374"/>
</g>
<!-- dash -->
<g id="node22" class="node">
<title>dash</title>
<polygon fill="#343434" stroke="#343434" points="1601,-1920 1547,-1920 1547,-1884 1601,-1884 1601,-1920"/>
<text text-anchor="middle" x="1574" y="-1898.3" font-family="Courier,monospace" font-size="14.00" fill="#de958e">dash</text>
</g>
<!-- dash&#45;&gt;hidebound.server.app -->
<g id="edge50" class="edge">
<title>dash&#45;&gt;hidebound.server.app</title>
<path fill="none" stroke="#de958e" d="M1601.1983,-1897.1126C1677.6217,-1883.82 1900.9187,-1848 2088,-1848 2088,-1848 2088,-1848 2330.5,-1848 2562.0872,-1848 2615.2888,-1709.0528 2721,-1503 2778.9524,-1390.039 2836.1228,-451.9439 2846.3755,-276.2815"/>
<polygon fill="#de958e" stroke="#de958e" points="2849.8714,-276.4513 2846.9573,-266.2651 2842.8832,-276.0453 2849.8714,-276.4513"/>
</g>
<!-- dash&#45;&gt;hidebound.server.components -->
<g id="edge51" class="edge">
<title>dash&#45;&gt;hidebound.server.components</title>
<path fill="none" stroke="#de958e" d="M1601.0732,-1898.5184C1621.0592,-1894.9882 1648.2727,-1888.0984 1669,-1875 1689.4995,-1862.0455 1686.7836,-1850.0067 1705,-1834 1732.2837,-1810.0259 1766.5968,-1787.3096 1792.8269,-1771.2508"/>
<polygon fill="#de958e" stroke="#de958e" points="1794.6477,-1774.2399 1801.3906,-1766.0678 1791.0232,-1768.2513 1794.6477,-1774.2399"/>
</g>
<!-- dash_cytoscape -->
<g id="node23" class="node">
<title>dash_cytoscape</title>
<polygon fill="#343434" stroke="#343434" points="1640,-1866 1508,-1866 1508,-1830 1640,-1830 1640,-1866"/>
<text text-anchor="middle" x="1574" y="-1844.3" font-family="Courier,monospace" font-size="14.00" fill="#de958e">dash_cytoscape</text>
</g>
<!-- dash_cytoscape&#45;&gt;hidebound.server.components -->
<g id="edge52" class="edge">
<title>dash_cytoscape&#45;&gt;hidebound.server.components</title>
<path fill="none" stroke="#de958e" d="M1640.0572,-1830.5362C1649.8337,-1827.5739 1659.7314,-1824.3607 1669,-1821 1709.7999,-1806.2062 1754.7392,-1785.9067 1787.2421,-1770.4687"/>
<polygon fill="#de958e" stroke="#de958e" points="1788.9753,-1773.5196 1796.488,-1766.049 1785.9563,-1767.204 1788.9753,-1773.5196"/>
</g>
<!-- hidebound.server -->
<g id="node24" class="node">
<title>hidebound.server</title>
<polygon fill="#343434" stroke="#343434" points="1648.5,-1427 1499.5,-1427 1499.5,-1391 1648.5,-1391 1648.5,-1427"/>
<text text-anchor="middle" x="1574" y="-1405.3" font-family="Courier,monospace" font-size="14.00" fill="#a0d17b">hidebound.server</text>
</g>
<!-- hidebound.server&#45;&gt;hidebound.server.api -->
<g id="edge53" class="edge">
<title>hidebound.server&#45;&gt;hidebound.server.api</title>
<path fill="none" stroke="#a0d17b" d="M1648.611,-1393.0777C1656.3185,-1388.9018 1663.372,-1383.6368 1669,-1377 1733.6471,-1300.7644 1634.5208,-1225.8787 1705,-1155 1786.3492,-1073.1897 1860.819,-1169.2223 1961,-1112 2013.015,-1082.2896 2053.2284,-1022.7094 2073.4921,-987.9309"/>
<polygon fill="#a0d17b" stroke="#a0d17b" points="2076.5339,-989.6623 2078.4408,-979.2405 2070.4509,-986.1985 2076.5339,-989.6623"/>
</g>
<!-- hidebound.server&#45;&gt;hidebound.server.app -->
<g id="edge54" class="edge">
<title>hidebound.server&#45;&gt;hidebound.server.app</title>
<path fill="none" stroke="#a0d17b" d="M1648.8443,-1402.6014C1748.8493,-1394.6171 1931.6215,-1382 2088,-1382 2088,-1382 2088,-1382 2330.5,-1382 2434.8858,-1382 2675.8706,-1232.6712 2721,-1164 2820.6918,-1012.304 2843.356,-413.9064 2847.288,-276.3127"/>
<polygon fill="#a0d17b" stroke="#a0d17b" points="2850.7907,-276.2586 2847.5674,-266.166 2843.7934,-276.0658 2850.7907,-276.2586"/>
</g>
<!-- hidebound.server&#45;&gt;hidebound.server.components -->
<g id="edge55" class="edge">
<title>hidebound.server&#45;&gt;hidebound.server.components</title>
<path fill="none" stroke="#a0d17b" d="M1587.925,-1427.2261C1630.9635,-1483.5584 1761.994,-1655.0617 1812.6802,-1721.4038"/>
<polygon fill="#a0d17b" stroke="#a0d17b" points="1810.1539,-1723.8624 1819.0062,-1729.6838 1815.7163,-1719.6126 1810.1539,-1723.8624"/>
</g>
<!-- hidebound.server&#45;&gt;hidebound.server.extension -->
<g id="edge56" class="edge">
<title>hidebound.server&#45;&gt;hidebound.server.extension</title>
<path fill="none" stroke="#a0d17b" d="M1648.616,-1391.7328C1656.1283,-1387.7903 1663.1342,-1382.9479 1669,-1377 1705.7138,-1339.772 1666.3031,-1300.1622 1705,-1265 1791.1981,-1186.6755 1859.0022,-1265.2253 1961,-1209 2081.8261,-1142.3958 2104.3672,-1104.0388 2179,-988 2259.8736,-862.2581 2307.6453,-686.8058 2324.042,-619.1483"/>
<polygon fill="#a0d17b" stroke="#a0d17b" points="2327.4898,-619.7785 2326.4045,-609.2394 2320.6807,-618.155 2327.4898,-619.7785"/>
</g>
<!-- hidebound.server&#45;&gt;hidebound.server.extensions -->
<g id="edge57" class="edge">
<title>hidebound.server&#45;&gt;hidebound.server.extensions</title>
<path fill="none" stroke="#a0d17b" d="M1631.857,-1390.9861C1773.9174,-1345.903 2149.8869,-1221.4048 2446,-1077 2488.5886,-1056.2309 2534.8955,-1027.7048 2565.8001,-1007.7408"/>
<polygon fill="#a0d17b" stroke="#a0d17b" points="2568.0077,-1010.4802 2574.4834,-1002.0947 2564.1919,-1004.6116 2568.0077,-1010.4802"/>
</g>
<!-- hidebound.server&#45;&gt;hidebound.server.server_tools -->
<g id="edge58" class="edge">
<title>hidebound.server&#45;&gt;hidebound.server.server_tools</title>
<path fill="none" stroke="#a0d17b" d="M1616.4781,-1390.8826C1635.9859,-1380.2252 1657.3337,-1364.7229 1669,-1344 1740.7306,-1216.5844 1674.3968,-829.9806 1705,-687 1730.3138,-568.7322 1791.4866,-437.1346 1819.0834,-381.3578"/>
<polygon fill="#a0d17b" stroke="#a0d17b" points="1822.3445,-382.6611 1823.6761,-372.1503 1816.0805,-379.5366 1822.3445,-382.6611"/>
</g>
<!-- dash.dependencies -->
<g id="node25" class="node">
<title>dash.dependencies</title>
<polygon fill="#343434" stroke="#343434" points="2680,-182 2523,-182 2523,-146 2680,-146 2680,-182"/>
<text text-anchor="middle" x="2601.5" y="-160.3" font-family="Courier,monospace" font-size="14.00" fill="#de958e">dash.dependencies</text>
</g>
<!-- dash.dependencies&#45;&gt;hidebound.server.app -->
<g id="edge59" class="edge">
<title>dash.dependencies&#45;&gt;hidebound.server.app</title>
<path fill="none" stroke="#de958e" d="M2674.6146,-182.0001C2690.0419,-186.2376 2706.1429,-190.9917 2721,-196 2746.8952,-204.7292 2775.0799,-216.0747 2798.3045,-225.9398"/>
<polygon fill="#de958e" stroke="#de958e" points="2797.0322,-229.2024 2807.6026,-229.9224 2799.7884,-222.7678 2797.0322,-229.2024"/>
</g>
<!-- flask -->
<g id="node26" class="node">
<title>flask</title>
<polygon fill="#343434" stroke="#343434" points="1603,-188 1545,-188 1545,-152 1603,-152 1603,-188"/>
<text text-anchor="middle" x="1574" y="-166.3" font-family="Courier,monospace" font-size="14.00" fill="#de958e">flask</text>
</g>
<!-- flask&#45;&gt;hidebound.server.api -->
<g id="edge60" class="edge">
<title>flask&#45;&gt;hidebound.server.api</title>
<path fill="none" stroke="#de958e" d="M1603.3281,-173.5428C1623.9149,-177.4102 1650.8953,-185.4354 1669,-202 1698.3655,-228.8676 1673.5998,-259.5414 1705,-284 1796.018,-354.8967 1878.1539,-246.7059 1961,-327 2049.8352,-413.0987 2079.843,-820.9128 2086.4696,-932.639"/>
<polygon fill="#de958e" stroke="#de958e" points="2082.9851,-933.0106 2087.0551,-942.7925 2089.9735,-932.6076 2082.9851,-933.0106"/>
</g>
<!-- flask&#45;&gt;hidebound.server.app -->
<g id="edge61" class="edge">
<title>flask&#45;&gt;hidebound.server.app</title>
<path fill="none" stroke="#de958e" d="M1603.003,-171.7757C1756.5883,-181.1789 2478.0342,-225.349 2746.7799,-241.8029"/>
<polygon fill="#de958e" stroke="#de958e" points="2746.725,-245.306 2756.9202,-242.4237 2747.1529,-238.319 2746.725,-245.306"/>
</g>
<!-- flask&#45;&gt;hidebound.server.components -->
<g id="edge62" class="edge">
<title>flask&#45;&gt;hidebound.server.components</title>
<path fill="none" stroke="#de958e" d="M1603.2878,-181.3252C1625.5982,-191.6603 1654.817,-209.2739 1669,-235 1721.285,-329.8384 1690.4189,-1101.69 1705,-1209 1732.0171,-1407.8335 1800.0128,-1640.5722 1824.2501,-1719.8914"/>
<polygon fill="#de958e" stroke="#de958e" points="1820.9597,-1721.0994 1827.2424,-1729.6305 1827.651,-1719.0435 1820.9597,-1721.0994"/>
</g>
<!-- flask&#45;&gt;hidebound.server.extension -->
<g id="edge63" class="edge">
<title>flask&#45;&gt;hidebound.server.extension</title>
<path fill="none" stroke="#de958e" d="M1603.3538,-175.4223C1623.1832,-180.1087 1649.2458,-188.3403 1669,-202 1689.7823,-216.3706 1683.0255,-233.5284 1705,-246 1805.0361,-302.775 1855.9873,-237.0643 1961,-284 2115.1218,-352.8851 2256.5215,-504.7641 2308.966,-565.3306"/>
<polygon fill="#de958e" stroke="#de958e" points="2306.3143,-567.6151 2315.4851,-572.9206 2311.6245,-563.0541 2306.3143,-567.6151"/>
</g>
<!-- flask&#45;&gt;hidebound.server.server_tools -->
<g id="edge64" class="edge">
<title>flask&#45;&gt;hidebound.server.server_tools</title>
<path fill="none" stroke="#de958e" d="M1603.0758,-172.7435C1624.0838,-176.2219 1651.6989,-184.1103 1669,-202 1707.7089,-242.0258 1664.7229,-283.5527 1705,-322 1708.3048,-325.1546 1711.8715,-328.0119 1715.6395,-330.5991"/>
<polygon fill="#de958e" stroke="#de958e" points="1713.8317,-333.5962 1724.1858,-335.8419 1717.4921,-327.6294 1713.8317,-333.5962"/>
</g>
<!-- jinja2 -->
<g id="node27" class="node">
<title>jinja2</title>
<polygon fill="#343434" stroke="#343434" points="1607,-280 1541,-280 1541,-244 1607,-244 1607,-280"/>
<text text-anchor="middle" x="1574" y="-258.3" font-family="Courier,monospace" font-size="14.00" fill="#de958e">jinja2</text>
</g>
<!-- jinja2&#45;&gt;hidebound.server.server_tools -->
<g id="edge65" class="edge">
<title>jinja2&#45;&gt;hidebound.server.server_tools</title>
<path fill="none" stroke="#de958e" d="M1607.2245,-270.2194C1625.9967,-275.5828 1649.5292,-283.54 1669,-294 1686.8562,-303.5926 1686.7748,-313.1284 1705,-322 1713.4072,-326.0924 1722.3878,-329.6933 1731.5451,-332.8555"/>
<polygon fill="#de958e" stroke="#de958e" points="1730.5427,-336.21 1741.1354,-335.9941 1732.7201,-329.5573 1730.5427,-336.21"/>
</g>
<!-- dash.exceptions -->
<g id="node28" class="node">
<title>dash.exceptions</title>
<polygon fill="#343434" stroke="#343434" points="2671.5,-90 2531.5,-90 2531.5,-54 2671.5,-54 2671.5,-90"/>
<text text-anchor="middle" x="2601.5" y="-68.3" font-family="Courier,monospace" font-size="14.00" fill="#de958e">dash.exceptions</text>
</g>
<!-- dash.exceptions&#45;&gt;hidebound.server.app -->
<g id="edge66" class="edge">
<title>dash.exceptions&#45;&gt;hidebound.server.app</title>
<path fill="none" stroke="#de958e" d="M2671.638,-83.4815C2688.6052,-88.1854 2706.1218,-94.7786 2721,-104 2769.6887,-134.1768 2810.2371,-188.7262 2831.6349,-221.3298"/>
<polygon fill="#de958e" stroke="#de958e" points="2828.7984,-223.3899 2837.1532,-229.9052 2834.685,-219.6018 2828.7984,-223.3899"/>
</g>
<!-- flasgger -->
<g id="node29" class="node">
<title>flasgger</title>
<polygon fill="#343434" stroke="#343434" points="1874.5,-1200 1791.5,-1200 1791.5,-1164 1874.5,-1164 1874.5,-1200"/>
<text text-anchor="middle" x="1833" y="-1178.3" font-family="Courier,monospace" font-size="14.00" fill="#de958e">flasgger</text>
</g>
<!-- flasgger&#45;&gt;hidebound.server.api -->
<g id="edge67" class="edge">
<title>flasgger&#45;&gt;hidebound.server.api</title>
<path fill="none" stroke="#de958e" d="M1874.7924,-1179.2189C1901.4787,-1175.6944 1935.6903,-1167.7671 1961,-1150 2020.16,-1108.4704 2059.5979,-1029.8514 2077.3071,-988.3085"/>
<polygon fill="#de958e" stroke="#de958e" points="2080.5407,-989.6477 2081.1463,-979.0702 2074.0766,-986.9614 2080.5407,-989.6477"/>
</g>
<!-- flasgger&#45;&gt;hidebound.server.extensions -->
<g id="edge68" class="edge">
<title>flasgger&#45;&gt;hidebound.server.extensions</title>
<path fill="none" stroke="#de958e" d="M1874.5307,-1173.0904C1973.8758,-1151.5355 2232.8339,-1093.9149 2446,-1034 2476.77,-1025.3514 2510.5881,-1014.6262 2538.8057,-1005.3294"/>
<polygon fill="#de958e" stroke="#de958e" points="2540.146,-1008.5725 2548.5388,-1002.1063 2537.9455,-1001.9274 2540.146,-1008.5725"/>
</g>
<!-- werkzeug.exceptions -->
<g id="node30" class="node">
<title>werkzeug.exceptions</title>
<polygon fill="#343434" stroke="#343434" points="1919.5,-1044 1746.5,-1044 1746.5,-1008 1919.5,-1008 1919.5,-1044"/>
<text text-anchor="middle" x="1833" y="-1022.3" font-family="Courier,monospace" font-size="14.00" fill="#de958e">werkzeug.exceptions</text>
</g>
<!-- werkzeug.exceptions&#45;&gt;hidebound.server.api -->
<g id="edge69" class="edge">
<title>werkzeug.exceptions&#45;&gt;hidebound.server.api</title>
<path fill="none" stroke="#de958e" d="M1905.7971,-1007.9246C1923.8445,-1003.4093 1943.132,-998.5548 1961,-994 1976.63,-990.0157 1993.3292,-985.7109 2009.3105,-981.5678"/>
<polygon fill="#de958e" stroke="#de958e" points="2010.3525,-984.9134 2019.1524,-979.0133 2008.5938,-978.1379 2010.3525,-984.9134"/>
</g>
<!-- requests -->
<g id="node31" class="node">
<title>requests</title>
<polygon fill="#343434" stroke="#343434" points="1615.5,-372 1532.5,-372 1532.5,-336 1615.5,-336 1615.5,-372"/>
<text text-anchor="middle" x="1574" y="-350.3" font-family="Courier,monospace" font-size="14.00" fill="#de958e">requests</text>
</g>
<!-- requests&#45;&gt;hidebound.core.database -->
<g id="edge70" class="edge">
<title>requests&#45;&gt;hidebound.core.database</title>
<path fill="none" stroke="#de958e" d="M1615.8818,-358.2471C1633.8657,-361.877 1654.1193,-368.5918 1669,-381 1768.3946,-463.8798 1812.7686,-621.6465 1827.28,-685.8078"/>
<polygon fill="#de958e" stroke="#de958e" points="1823.8715,-686.6046 1829.4302,-695.624 1830.7093,-685.1067 1823.8715,-686.6046"/>
</g>
<!-- requests&#45;&gt;hidebound.server.server_tools -->
<g id="edge71" class="edge">
<title>requests&#45;&gt;hidebound.server.server_tools</title>
<path fill="none" stroke="#de958e" d="M1615.6128,-354C1637.55,-354 1665.8579,-354 1694.7494,-354"/>
<polygon fill="#de958e" stroke="#de958e" points="1694.9835,-357.5001 1704.9835,-354 1694.9834,-350.5001 1694.9835,-357.5001"/>
</g>
<!-- flask_healthz -->
<g id="node32" class="node">
<title>flask_healthz</title>
<polygon fill="#343434" stroke="#343434" points="2392.5,-1025 2268.5,-1025 2268.5,-989 2392.5,-989 2392.5,-1025"/>
<text text-anchor="middle" x="2330.5" y="-1003.3" font-family="Courier,monospace" font-size="14.00" fill="#de958e">flask_healthz</text>
</g>
<!-- flask_healthz&#45;&gt;hidebound.server.extensions -->
<g id="edge72" class="edge">
<title>flask_healthz&#45;&gt;hidebound.server.extensions</title>
<path fill="none" stroke="#de958e" d="M2392.6729,-1001.7233C2416.263,-999.7212 2444.0964,-997.359 2471.6201,-995.023"/>
<polygon fill="#de958e" stroke="#de958e" points="2472.0698,-998.4975 2481.7379,-994.1643 2471.4777,-991.5226 2472.0698,-998.4975"/>
</g>
<!-- yaml -->
<g id="node33" class="node">
<title>yaml</title>
<polygon fill="#343434" stroke="#343434" points="1601,-426 1547,-426 1547,-390 1601,-390 1601,-426"/>
<text text-anchor="middle" x="1574" y="-404.3" font-family="Courier,monospace" font-size="14.00" fill="#de958e">yaml</text>
</g>
<!-- yaml&#45;&gt;hidebound.core.database -->
<g id="edge73" class="edge">
<title>yaml&#45;&gt;hidebound.core.database</title>
<path fill="none" stroke="#de958e" d="M1601.2315,-410.5568C1622.3785,-413.9371 1651.0361,-421.7845 1669,-440 1705.7138,-477.228 1680.4,-505.8625 1705,-552 1733.1756,-604.8437 1779.0919,-657.7114 1807.5929,-688.0651"/>
<polygon fill="#de958e" stroke="#de958e" points="1805.3677,-690.8047 1814.7912,-695.647 1810.4442,-685.985 1805.3677,-690.8047"/>
</g>
<!-- yaml&#45;&gt;hidebound.server.extension -->
<g id="edge74" class="edge">
<title>yaml&#45;&gt;hidebound.server.extension</title>
<path fill="none" stroke="#de958e" d="M1601.3712,-414.6212C1705.1937,-439.7362 2077.3377,-529.7591 2246.1553,-570.5967"/>
<polygon fill="#de958e" stroke="#de958e" points="2245.4556,-574.0283 2255.9982,-572.9778 2247.1015,-567.2246 2245.4556,-574.0283"/>
</g>
<!-- pandasql -->
<g id="node34" class="node">
<title>pandasql</title>
<polygon fill="#343434" stroke="#343434" points="1615.5,-610 1532.5,-610 1532.5,-574 1615.5,-574 1615.5,-610"/>
<text text-anchor="middle" x="1574" y="-588.3" font-family="Courier,monospace" font-size="14.00" fill="#de958e">pandasql</text>
</g>
<!-- pandasql&#45;&gt;hidebound.core.database -->
<g id="edge75" class="edge">
<title>pandasql&#45;&gt;hidebound.core.database</title>
<path fill="none" stroke="#de958e" d="M1615.7538,-604.2994C1632.5528,-609.7014 1651.9469,-616.519 1669,-624 1713.7208,-643.6184 1762.4854,-671.2397 1795.1155,-690.6947"/>
<polygon fill="#de958e" stroke="#de958e" points="1793.4989,-693.8064 1803.8742,-695.952 1797.1014,-687.8046 1793.4989,-693.8064"/>
</g>
<!-- boto3 -->
<g id="node35" class="node">
<title>boto3</title>
<polygon fill="#343434" stroke="#343434" points="953.5,-999 895.5,-999 895.5,-963 953.5,-963 953.5,-999"/>
<text text-anchor="middle" x="924.5" y="-977.3" font-family="Courier,monospace" font-size="14.00" fill="#de958e">boto3</text>
</g>
<!-- boto3&#45;&gt;hidebound.exporters.s3_exporter -->
<g id="edge76" class="edge">
<title>boto3&#45;&gt;hidebound.exporters.s3_exporter</title>
<path fill="none" stroke="#de958e" d="M953.6206,-987.1761C982.8458,-993.4386 1029.1262,-1003.5301 1069,-1013 1110.6475,-1022.8912 1156.877,-1034.5577 1194.8782,-1044.3312"/>
<polygon fill="#de958e" stroke="#de958e" points="1194.3024,-1047.7971 1204.8595,-1046.9034 1196.0493,-1041.0186 1194.3024,-1047.7971"/>
</g>
<!-- dask.distributed -->
<g id="node36" class="node">
<title>dask.distributed</title>
<polygon fill="#343434" stroke="#343434" points="1648.5,-556 1499.5,-556 1499.5,-520 1648.5,-520 1648.5,-556"/>
<text text-anchor="middle" x="1574" y="-534.3" font-family="Courier,monospace" font-size="14.00" fill="#de958e">dask.distributed</text>
</g>
<!-- dask.distributed&#45;&gt;hidebound.core.database -->
<g id="edge77" class="edge">
<title>dask.distributed&#45;&gt;hidebound.core.database</title>
<path fill="none" stroke="#de958e" d="M1648.9716,-555.7251C1655.9188,-558.425 1662.7052,-561.502 1669,-565 1727.587,-597.5569 1782.3932,-654.817 1811.4263,-688.0731"/>
<polygon fill="#de958e" stroke="#de958e" points="1809.0604,-690.6893 1818.2389,-695.9813 1814.3638,-686.1205 1809.0604,-690.6893"/>
</g>
<!-- json_logging -->
<g id="node37" class="node">
<title>json_logging</title>
<polygon fill="#343434" stroke="#343434" points="448,-491 332,-491 332,-455 448,-455 448,-491"/>
<text text-anchor="middle" x="390" y="-469.3" font-family="Courier,monospace" font-size="14.00" fill="#de958e">json_logging</text>
</g>
<!-- json_logging&#45;&gt;hidebound.core.logging -->
<g id="edge78" class="edge">
<title>json_logging&#45;&gt;hidebound.core.logging</title>
<path fill="none" stroke="#de958e" d="M448.0848,-473C470.5981,-473 497.1424,-473 522.9707,-473"/>
<polygon fill="#de958e" stroke="#de958e" points="523.2073,-476.5001 533.2073,-473 523.2073,-469.5001 523.2073,-476.5001"/>
</g>
<!-- lunchbox.tools -->
<g id="node38" class="node">
<title>lunchbox.tools</title>
<polygon fill="#343434" stroke="#343434" points="990.5,-457 858.5,-457 858.5,-421 990.5,-421 990.5,-457"/>
<text text-anchor="middle" x="924.5" y="-435.3" font-family="Courier,monospace" font-size="14.00" fill="#de958e">lunchbox.tools</text>
</g>
<!-- lunchbox.tools&#45;&gt;hidebound.core.database_tools -->
<g id="edge79" class="edge">
<title>lunchbox.tools&#45;&gt;hidebound.core.database_tools</title>
<path fill="none" stroke="#de958e" d="M966.592,-457.087C995.9601,-470.2571 1035.6991,-489.1919 1069,-509 1133.7368,-547.5069 1204.0194,-600.6246 1243.1753,-631.3397"/>
<polygon fill="#de958e" stroke="#de958e" points="1241.489,-634.4671 1251.5095,-637.9083 1245.8221,-628.9693 1241.489,-634.4671"/>
</g>
<!-- lunchbox.tools&#45;&gt;hidebound.server.server_tools -->
<g id="edge80" class="edge">
<title>lunchbox.tools&#45;&gt;hidebound.server.server_tools</title>
<path fill="none" stroke="#de958e" d="M990.6077,-423.9228C1116.0351,-395.604 1384.4518,-336.4531 1479,-327 1563.0255,-318.5989 1584.8364,-320.1182 1669,-327 1688.8053,-328.6194 1709.8228,-331.3214 1729.9671,-334.4063"/>
<polygon fill="#de958e" stroke="#de958e" points="1729.67,-337.9025 1740.0924,-335.9993 1730.7579,-330.9876 1729.67,-337.9025"/>
</g>
<!-- botocore.exceptions -->
<g id="node39" class="node">
<title>botocore.exceptions</title>
<polygon fill="#343434" stroke="#343434" points="1011,-945 838,-945 838,-909 1011,-909 1011,-945"/>
<text text-anchor="middle" x="924.5" y="-923.3" font-family="Courier,monospace" font-size="14.00" fill="#de958e">botocore.exceptions</text>
</g>
<!-- botocore.exceptions&#45;&gt;hidebound.exporters.s3_exporter -->
<g id="edge81" class="edge">
<title>botocore.exceptions&#45;&gt;hidebound.exporters.s3_exporter</title>
<path fill="none" stroke="#de958e" d="M1011.2396,-938.6671C1030.5549,-942.5116 1050.7176,-947.5227 1069,-954 1131.9534,-976.3039 1198.9277,-1015.9759 1238.5808,-1041.357"/>
<polygon fill="#de958e" stroke="#de958e" points="1236.7962,-1044.371 1247.0953,-1046.8569 1240.5944,-1038.491 1236.7962,-1044.371"/>
</g>
<!-- girder_client -->
<g id="node40" class="node">
<title>girder_client</title>
<polygon fill="#343434" stroke="#343434" points="986.5,-1465 862.5,-1465 862.5,-1429 986.5,-1429 986.5,-1465"/>
<text text-anchor="middle" x="924.5" y="-1443.3" font-family="Courier,monospace" font-size="14.00" fill="#de958e">girder_client</text>
</g>
<!-- girder_client&#45;&gt;hidebound.exporters.girder_exporter -->
<g id="edge82" class="edge">
<title>girder_client&#45;&gt;hidebound.exporters.girder_exporter</title>
<path fill="none" stroke="#de958e" d="M986.5809,-1439.5396C1022.142,-1435.2662 1068.5547,-1429.6887 1113.6759,-1424.2664"/>
<polygon fill="#de958e" stroke="#de958e" points="1114.3751,-1427.7077 1123.886,-1423.0394 1113.5398,-1420.7577 1114.3751,-1427.7077"/>
</g>
<!-- numpy -->
<g id="node41" class="node">
<title>numpy</title>
<polygon fill="#343434" stroke="#343434" points="953.5,-777 895.5,-777 895.5,-741 953.5,-741 953.5,-777"/>
<text text-anchor="middle" x="924.5" y="-755.3" font-family="Courier,monospace" font-size="14.00" fill="#de958e">numpy</text>
</g>
<!-- numpy&#45;&gt;hidebound.core.database -->
<g id="edge83" class="edge">
<title>numpy&#45;&gt;hidebound.core.database</title>
<path fill="none" stroke="#de958e" d="M953.7028,-760.3208C1053.7715,-764.4574 1391.9529,-775.2198 1669,-746 1693.9754,-743.3659 1720.8139,-738.8538 1745.3993,-734.0351"/>
<polygon fill="#de958e" stroke="#de958e" points="1746.3031,-737.4238 1755.4222,-732.0301 1744.9299,-730.5598 1746.3031,-737.4238"/>
</g>
<!-- numpy&#45;&gt;hidebound.core.database_tools -->
<g id="edge84" class="edge">
<title>numpy&#45;&gt;hidebound.core.database_tools</title>
<path fill="none" stroke="#de958e" d="M953.5317,-753.5959C982.8854,-747.8927 1029.4409,-738.1903 1069,-727 1119.8319,-712.6209 1176.4989,-692.6858 1217.3492,-677.5989"/>
<polygon fill="#de958e" stroke="#de958e" points="1218.7009,-680.8306 1226.8578,-674.0692 1216.2649,-674.2681 1218.7009,-680.8306"/>
</g>
<!-- numpy&#45;&gt;hidebound.server.api -->
<g id="edge85" class="edge">
<title>numpy&#45;&gt;hidebound.server.api</title>
<path fill="none" stroke="#de958e" d="M953.5549,-762.2235C1032.4847,-771.131 1257.3978,-797.5167 1443,-829 1642.5514,-862.8495 1874.6512,-913.0288 1998.791,-940.7506"/>
<polygon fill="#de958e" stroke="#de958e" points="1998.1134,-944.1855 2008.6363,-942.9527 1999.6414,-937.3543 1998.1134,-944.1855"/>
</g>
<!-- hidebound.exporters -->
<g id="node42" class="node">
<title>hidebound.exporters</title>
<polygon fill="#343434" stroke="#343434" points="719,-1121 546,-1121 546,-1085 719,-1085 719,-1121"/>
<text text-anchor="middle" x="632.5" y="-1099.3" font-family="Courier,monospace" font-size="14.00" fill="#a0d17b">hidebound.exporters</text>
</g>
<!-- hidebound.exporters&#45;&gt;hidebound.exporters.exporter_base -->
<g id="edge86" class="edge">
<title>hidebound.exporters&#45;&gt;hidebound.exporters.exporter_base</title>
<path fill="none" stroke="#a0d17b" d="M695.1413,-1121.0201C741.155,-1134.2569 803.7812,-1152.2727 851.9675,-1166.1345"/>
<polygon fill="#a0d17b" stroke="#a0d17b" points="851.133,-1169.5363 861.7109,-1168.9374 853.0683,-1162.8091 851.133,-1169.5363"/>
</g>
<!-- hidebound.exporters&#45;&gt;hidebound.exporters.girder_exporter -->
<g id="edge87" class="edge">
<title>hidebound.exporters&#45;&gt;hidebound.exporters.girder_exporter</title>
<path fill="none" stroke="#a0d17b" d="M661.5708,-1121.1724C687.7854,-1139.253 725.0427,-1169.5211 744,-1206 771.7094,-1259.3203 734.7695,-1434.439 780,-1474 828.3405,-1516.2811 1005.6222,-1484.3799 1069,-1474 1123.5498,-1465.0659 1183.1451,-1443.5931 1223.9482,-1426.9548"/>
<polygon fill="#a0d17b" stroke="#a0d17b" points="1225.4811,-1430.1085 1233.387,-1423.0554 1222.8082,-1423.6389 1225.4811,-1430.1085"/>
</g>
<!-- hidebound.exporters&#45;&gt;hidebound.exporters.local_disk_exporter -->
<g id="edge88" class="edge">
<title>hidebound.exporters&#45;&gt;hidebound.exporters.local_disk_exporter</title>
<path fill="none" stroke="#a0d17b" d="M719.0501,-1114.2735C807.1231,-1125.752 947.5693,-1144.0749 1069,-1160 1087.8781,-1162.4758 1107.7334,-1165.0847 1127.3506,-1167.6652"/>
<polygon fill="#a0d17b" stroke="#a0d17b" points="1126.8962,-1171.1355 1137.2673,-1168.97 1127.8094,-1164.1953 1126.8962,-1171.1355"/>
</g>
<!-- hidebound.exporters&#45;&gt;hidebound.exporters.s3_exporter -->
<g id="edge89" class="edge">
<title>hidebound.exporters&#45;&gt;hidebound.exporters.s3_exporter</title>
<path fill="none" stroke="#a0d17b" d="M719.0185,-1094.1157C739.0286,-1092.2477 760.2442,-1090.4167 780,-1089 896.8535,-1080.6203 1029.4711,-1074.3556 1127.8568,-1070.3316"/>
<polygon fill="#a0d17b" stroke="#a0d17b" points="1128.0206,-1073.8279 1137.8704,-1069.925 1127.7365,-1066.8337 1128.0206,-1073.8279"/>
</g>
<!-- schematics -->
<g id="node43" class="node">
<title>schematics</title>
<polygon fill="#343434" stroke="#343434" points="682,-1461 583,-1461 583,-1425 682,-1425 682,-1461"/>
<text text-anchor="middle" x="632.5" y="-1439.3" font-family="Courier,monospace" font-size="14.00" fill="#de958e">schematics</text>
</g>
<!-- schematics&#45;&gt;hidebound.core.config -->
<g id="edge90" class="edge">
<title>schematics&#45;&gt;hidebound.core.config</title>
<path fill="none" stroke="#de958e" d="M682.194,-1446.5075C702.9141,-1450.0157 726.2358,-1456.8396 744,-1470 769.2951,-1488.7395 752.6623,-1515.3903 780,-1531 908.144,-1604.1698 1331.3857,-1590.5244 1443,-1494 1493.2248,-1450.5655 1434.0004,-1397.8275 1479,-1349 1481.7735,-1345.9906 1484.8391,-1343.264 1488.1197,-1340.7937"/>
<polygon fill="#de958e" stroke="#de958e" points="1490.2429,-1343.5864 1496.6732,-1335.1661 1486.3954,-1337.7386 1490.2429,-1343.5864"/>
</g>
<!-- schematics&#45;&gt;hidebound.core.specification_base -->
<g id="edge91" class="edge">
<title>schematics&#45;&gt;hidebound.core.specification_base</title>
<path fill="none" stroke="#de958e" d="M682.0422,-1437.1184C702.8551,-1432.6549 726.2897,-1424.8049 744,-1411 769.131,-1391.4107 754.2781,-1367.8068 780,-1349 784.85,-1345.4539 790.0196,-1342.2886 795.4098,-1339.4641"/>
<polygon fill="#de958e" stroke="#de958e" points="797.1667,-1342.5034 804.6722,-1335.0255 794.1416,-1336.1908 797.1667,-1342.5034"/>
</g>
<!-- schematics&#45;&gt;hidebound.exporters.exporter_base -->
<g id="edge92" class="edge">
<title>schematics&#45;&gt;hidebound.exporters.exporter_base</title>
<path fill="none" stroke="#de958e" d="M647.895,-1424.9886C673.7106,-1395.2733 728.0226,-1334.8103 780,-1290 814.5104,-1260.2482 857.376,-1230.4946 887.4238,-1210.6717"/>
<polygon fill="#de958e" stroke="#de958e" points="889.4801,-1213.5089 895.927,-1205.1013 885.6442,-1207.6534 889.4801,-1213.5089"/>
</g>
<!-- schematics&#45;&gt;hidebound.exporters.girder_exporter -->
<g id="edge93" class="edge">
<title>schematics&#45;&gt;hidebound.exporters.girder_exporter</title>
<path fill="none" stroke="#de958e" d="M682.1963,-1448.8983C702.3401,-1452.8125 725.2286,-1459.2936 744,-1470 763.93,-1481.3672 758.8633,-1498.0748 780,-1507 898.3278,-1556.9651 943.9628,-1536.3884 1069,-1507 1133.0389,-1491.9485 1199.9473,-1453.7342 1239.2558,-1428.5926"/>
<polygon fill="#de958e" stroke="#de958e" points="1241.1994,-1431.5038 1247.6878,-1423.1282 1237.3924,-1425.6295 1241.1994,-1431.5038"/>
</g>
<!-- schematics.types -->
<g id="node44" class="node">
<title>schematics.types</title>
<polygon fill="#343434" stroke="#343434" points="707,-1515 558,-1515 558,-1479 707,-1479 707,-1515"/>
<text text-anchor="middle" x="632.5" y="-1493.3" font-family="Courier,monospace" font-size="14.00" fill="#de958e">schematics.types</text>
</g>
<!-- schematics.types&#45;&gt;hidebound.core.config -->
<g id="edge94" class="edge">
<title>schematics.types&#45;&gt;hidebound.core.config</title>
<path fill="none" stroke="#de958e" d="M650.5656,-1515.2171C676.9897,-1541.0262 728.6395,-1588.3836 780,-1618 909.7767,-1692.8341 1332.321,-1840.9568 1443,-1740 1507.466,-1681.1968 1424.8936,-1417.4556 1479,-1349 1481.1583,-1346.2693 1483.5593,-1343.7699 1486.1517,-1341.4824"/>
<polygon fill="#de958e" stroke="#de958e" points="1488.5666,-1344.0455 1494.4525,-1335.2361 1484.3576,-1338.4522 1488.5666,-1344.0455"/>
</g>
<!-- schematics.types&#45;&gt;hidebound.core.specification_base -->
<g id="edge95" class="edge">
<title>schematics.types&#45;&gt;hidebound.core.specification_base</title>
<path fill="none" stroke="#de958e" d="M707.251,-1490.2463C720.7883,-1486.0608 733.8183,-1479.6694 744,-1470 784.6843,-1431.3627 738.9382,-1387.2358 780,-1349 783.3701,-1345.8618 786.9765,-1343.0062 790.7697,-1340.409"/>
<polygon fill="#de958e" stroke="#de958e" points="792.6709,-1343.3487 799.3527,-1335.1265 789.0018,-1337.3873 792.6709,-1343.3487"/>
</g>
<!-- schematics.types&#45;&gt;hidebound.core.specifications -->
<g id="edge96" class="edge">
<title>schematics.types&#45;&gt;hidebound.core.specifications</title>
<path fill="none" stroke="#de958e" d="M673.4457,-1515.0723C702.837,-1527.764 743.5312,-1544.7668 780,-1558 927.4507,-1611.5046 1103.4239,-1664.0884 1200.5179,-1692.1448"/>
<polygon fill="#de958e" stroke="#de958e" points="1199.6598,-1695.5399 1210.2381,-1694.9477 1201.5994,-1688.814 1199.6598,-1695.5399"/>
</g>
<!-- schematics.types&#45;&gt;hidebound.exporters.exporter_base -->
<g id="edge97" class="edge">
<title>schematics.types&#45;&gt;hidebound.exporters.exporter_base</title>
<path fill="none" stroke="#de958e" d="M707.1054,-1491.2336C720.8995,-1487.0021 734.0656,-1480.3418 744,-1470 800.5182,-1411.1638 735.6684,-1358.4888 780,-1290 803.0069,-1254.4562 842.9573,-1227.3903 875.0283,-1209.9437"/>
<polygon fill="#de958e" stroke="#de958e" points="877.0652,-1212.826 884.2714,-1205.0594 873.7947,-1206.6369 877.0652,-1212.826"/>
</g>
<!-- schematics.types&#45;&gt;hidebound.exporters.girder_exporter -->
<g id="edge98" class="edge">
<title>schematics.types&#45;&gt;hidebound.exporters.girder_exporter</title>
<path fill="none" stroke="#de958e" d="M688.9072,-1515.027C773.3462,-1539.1373 936.8179,-1574.6272 1069,-1536 1139.8578,-1515.2934 1209.518,-1461.7978 1246.5868,-1429.9379"/>
<polygon fill="#de958e" stroke="#de958e" points="1249.1874,-1432.314 1254.4245,-1423.104 1244.5871,-1427.0379 1249.1874,-1432.314"/>
</g>
<!-- schematics.types&#45;&gt;hidebound.exporters.local_disk_exporter -->
<g id="edge99" class="edge">
<title>schematics.types&#45;&gt;hidebound.exporters.local_disk_exporter</title>
<path fill="none" stroke="#de958e" d="M707.2722,-1486.6719C720.2064,-1482.7668 733.0104,-1477.3929 744,-1470 766.7204,-1454.7157 756.6159,-1434.2482 780,-1420 890.8945,-1352.4306 951.9326,-1433.2 1069,-1377 1150.2389,-1338 1221.4904,-1255.5994 1254.4945,-1213.2878"/>
<polygon fill="#de958e" stroke="#de958e" points="1257.4385,-1215.2011 1260.7619,-1205.141 1251.8903,-1210.9328 1257.4385,-1215.2011"/>
</g>
<!-- schematics.types&#45;&gt;hidebound.exporters.s3_exporter -->
<g id="edge100" class="edge">
<title>schematics.types&#45;&gt;hidebound.exporters.s3_exporter</title>
<path fill="none" stroke="#de958e" d="M707.2315,-1489.4143C720.6127,-1485.2817 733.5888,-1479.1225 744,-1470 777.3356,-1440.7907 744.9202,-1404.0897 780,-1377 882.3211,-1297.9843 974.0246,-1431.7084 1069,-1344 1130.2175,-1287.4666 1056.1807,-1227.5298 1105,-1160 1129.8897,-1125.571 1171.3193,-1101.9981 1206.9281,-1086.9457"/>
<polygon fill="#de958e" stroke="#de958e" points="1208.383,-1090.1323 1216.3189,-1083.1129 1205.7377,-1083.6513 1208.383,-1090.1323"/>
</g>
<!-- pandas -->
<g id="node45" class="node">
<title>pandas</title>
<polygon fill="#343434" stroke="#343434" points="423,-729 357,-729 357,-693 423,-693 423,-729"/>
<text text-anchor="middle" x="390" y="-707.3" font-family="Courier,monospace" font-size="14.00" fill="#de958e">pandas</text>
</g>
<!-- pandas&#45;&gt;hidebound.core.database -->
<g id="edge101" class="edge">
<title>pandas&#45;&gt;hidebound.core.database</title>
<path fill="none" stroke="#de958e" d="M423.0793,-719.5734C489.9308,-736.4063 646.1557,-773.2472 780,-786 1173.4196,-823.4854 1280.0708,-837.1296 1669,-767 1706.4946,-760.2392 1747.2621,-747.0924 1778.7713,-735.5847"/>
<polygon fill="#de958e" stroke="#de958e" points="1780.0792,-738.8327 1788.2389,-732.0748 1777.6459,-732.2692 1780.0792,-738.8327"/>
</g>
<!-- pandas&#45;&gt;hidebound.core.database_tools -->
<g id="edge102" class="edge">
<title>pandas&#45;&gt;hidebound.core.database_tools</title>
<path fill="none" stroke="#de958e" d="M423.0095,-700.5486C449.2769,-692.692 487.1213,-682.3915 521,-677 733.422,-643.1948 983.7056,-644.1589 1135.5219,-649.1697"/>
<polygon fill="#de958e" stroke="#de958e" points="1135.7157,-652.6782 1145.8292,-649.5211 1135.9543,-645.6823 1135.7157,-652.6782"/>
</g>
<!-- pandas&#45;&gt;hidebound.core.tools -->
<g id="edge103" class="edge">
<title>pandas&#45;&gt;hidebound.core.tools</title>
<path fill="none" stroke="#de958e" d="M423.3416,-706.6962C442.5989,-703.0015 466.5775,-696.2412 485,-684 506.3325,-669.8252 499.6858,-653.2023 521,-639 526.5738,-635.286 532.5812,-631.9969 538.8155,-629.0851"/>
<polygon fill="#de958e" stroke="#de958e" points="540.2933,-632.2594 548.0877,-625.0832 537.5194,-625.8324 540.2933,-632.2594"/>
</g>
<!-- pandas&#45;&gt;hidebound.core.validators -->
<g id="edge104" class="edge">
<title>pandas&#45;&gt;hidebound.core.validators</title>
<path fill="none" stroke="#de958e" d="M392.2635,-729.1432C400.542,-790.1055 433.4017,-991.5164 521,-1130 540.9981,-1161.6149 573.1016,-1189.8386 597.7366,-1208.7111"/>
<polygon fill="#de958e" stroke="#de958e" points="595.6773,-1211.5416 605.7765,-1214.7442 599.8788,-1205.9427 595.6773,-1211.5416"/>
</g>
<!-- pandas&#45;&gt;hidebound.server.components -->
<g id="edge105" class="edge">
<title>pandas&#45;&gt;hidebound.server.components</title>
<path fill="none" stroke="#de958e" d="M395.1537,-729.2043C411.5683,-788.044 462.8444,-978.6488 485,-1140 494.9003,-1212.1001 471.9247,-1740.2594 521,-1794 808.2278,-2108.5329 1055.418,-1811.8221 1479,-1767 1552.935,-1759.1764 1635.9168,-1754.5057 1702.945,-1751.7544"/>
<polygon fill="#de958e" stroke="#de958e" points="1703.2864,-1755.2436 1713.1381,-1751.3457 1703.0059,-1748.2492 1703.2864,-1755.2436"/>
</g>
<!-- pyparsing -->
<g id="node46" class="node">
<title>pyparsing</title>
<polygon fill="#343434" stroke="#343434" points="238.5,-1285 147.5,-1285 147.5,-1249 238.5,-1249 238.5,-1285"/>
<text text-anchor="middle" x="193" y="-1263.3" font-family="Courier,monospace" font-size="14.00" fill="#de958e">pyparsing</text>
</g>
<!-- pyparsing&#45;&gt;hidebound.core.parser -->
<g id="edge106" class="edge">
<title>pyparsing&#45;&gt;hidebound.core.parser</title>
<path fill="none" stroke="#de958e" d="M213.9036,-1248.7197C233.6145,-1232.3229 264.593,-1208.6524 295,-1194 298.9738,-1192.0851 303.1084,-1190.2824 307.3312,-1188.5887"/>
<polygon fill="#de958e" stroke="#de958e" points="308.5709,-1191.8619 316.6887,-1185.0537 306.0971,-1185.3136 308.5709,-1191.8619"/>
</g>
<!-- pyparsing&#45;&gt;hidebound.core.specification_base -->
<g id="edge107" class="edge">
<title>pyparsing&#45;&gt;hidebound.core.specification_base</title>
<path fill="none" stroke="#de958e" d="M203.7157,-1285.1423C219.8267,-1310.4081 252.9349,-1355.1004 295,-1373 386.8113,-1412.0678 651.0096,-1409.1717 744,-1373 764.2286,-1365.1314 760.4547,-1349.4389 780,-1340 780.6862,-1339.6686 781.3763,-1339.3418 782.0698,-1339.0195"/>
<polygon fill="#de958e" stroke="#de958e" points="783.4565,-1342.2332 791.2731,-1335.0813 780.7025,-1335.7977 783.4565,-1342.2332"/>
</g>
<!-- pyparsing&#45;&gt;hidebound.core.validators -->
<g id="edge108" class="edge">
<title>pyparsing&#45;&gt;hidebound.core.validators</title>
<path fill="none" stroke="#de958e" d="M238.5583,-1264.5499C296.0423,-1261.3401 397.9231,-1255.2582 485,-1248 493.4798,-1247.2932 502.2292,-1246.5188 511.0372,-1245.706"/>
<polygon fill="#de958e" stroke="#de958e" points="511.3651,-1249.1907 520.9953,-1244.7737 510.7125,-1242.2212 511.3651,-1249.1907"/>
</g>
<!-- wrapt -->
<g id="node47" class="node">
<title>wrapt</title>
<polygon fill="#343434" stroke="#343434" points="419,-1239 361,-1239 361,-1203 419,-1203 419,-1239"/>
<text text-anchor="middle" x="390" y="-1217.3" font-family="Courier,monospace" font-size="14.00" fill="#de958e">wrapt</text>
</g>
<!-- wrapt&#45;&gt;hidebound.core.validators -->
<g id="edge109" class="edge">
<title>wrapt&#45;&gt;hidebound.core.validators</title>
<path fill="none" stroke="#de958e" d="M419.2512,-1222.4475C442.4686,-1223.5964 476.6038,-1225.2855 510.7879,-1226.9771"/>
<polygon fill="#de958e" stroke="#de958e" points="510.7413,-1230.479 520.9021,-1227.4776 511.0873,-1223.4876 510.7413,-1230.479"/>
</g>
<!-- jsoncomment -->
<g id="node48" class="node">
<title>jsoncomment</title>
<polygon fill="#343434" stroke="#343434" points="443.5,-373 336.5,-373 336.5,-337 443.5,-337 443.5,-373"/>
<text text-anchor="middle" x="390" y="-351.3" font-family="Courier,monospace" font-size="14.00" fill="#de958e">jsoncomment</text>
</g>
<!-- jsoncomment&#45;&gt;hidebound.core.database -->
<g id="edge110" class="edge">
<title>jsoncomment&#45;&gt;hidebound.core.database</title>
<path fill="none" stroke="#de958e" d="M443.6142,-337.1832C615.5499,-283.7719 1158.4573,-144.6451 1443,-413 1510.6159,-476.7692 1413.2451,-553.3135 1479,-619 1539.6367,-679.5736 1586.3216,-629.4111 1669,-652 1707.8506,-662.6145 1750.3509,-678.8189 1782.3501,-691.9996"/>
<polygon fill="#de958e" stroke="#de958e" points="1781.3508,-695.3745 1791.9281,-695.9835 1784.0391,-688.9113 1781.3508,-695.3745"/>
</g>
<!-- jsoncomment&#45;&gt;hidebound.core.tools -->
<g id="edge111" class="edge">
<title>jsoncomment&#45;&gt;hidebound.core.tools</title>
<path fill="none" stroke="#de958e" d="M411.6876,-373.3075C431.8454,-390.8733 462.1169,-418.6912 485,-446 503.5258,-468.1087 502.4843,-477.8829 521,-500 546.5304,-530.4962 579.8815,-561.553 603.4349,-582.2951"/>
<polygon fill="#de958e" stroke="#de958e" points="601.1865,-584.9784 611.0215,-588.9183 605.7901,-579.7051 601.1865,-584.9784"/>
</g>
<!-- jsoncomment&#45;&gt;hidebound.server.extension -->
<g id="edge112" class="edge">
<title>jsoncomment&#45;&gt;hidebound.server.extension</title>
<path fill="none" stroke="#de958e" d="M410.6136,-336.6944C435.1377,-315.9532 478.1704,-282.7359 521,-265 629.1639,-220.2088 664.3568,-235.23 780,-217 1299.4757,-135.1098 1445.4367,-40.2912 1961,-144 2061.593,-164.2349 2104.575,-149.3649 2179,-220 2281.5083,-317.2883 2316.7263,-493.7724 2326.9005,-562.5157"/>
<polygon fill="#de958e" stroke="#de958e" points="2323.4599,-563.183 2328.3248,-572.5949 2330.3911,-562.2035 2323.4599,-563.183"/>
</g>
<!-- OpenEXR -->
<g id="node49" class="node">
<title>OpenEXR</title>
<polygon fill="#343434" stroke="#343434" points="427,-675 353,-675 353,-639 427,-639 427,-675"/>
<text text-anchor="middle" x="390" y="-653.3" font-family="Courier,monospace" font-size="14.00" fill="#de958e">OpenEXR</text>
</g>
<!-- OpenEXR&#45;&gt;hidebound.core.tools -->
<g id="edge113" class="edge">
<title>OpenEXR&#45;&gt;hidebound.core.tools</title>
<path fill="none" stroke="#de958e" d="M427.0945,-649.3516C455.8381,-643.4251 497.0323,-634.9315 534.9946,-627.1042"/>
<polygon fill="#de958e" stroke="#de958e" points="535.9959,-630.4714 545.0831,-625.0241 534.5823,-623.6157 535.9959,-630.4714"/>
</g>
<!-- schematics.exceptions -->
<g id="node50" class="node">
<title>schematics.exceptions</title>
<polygon fill="#343434" stroke="#343434" points="485,-1331 295,-1331 295,-1295 485,-1295 485,-1331"/>
<text text-anchor="middle" x="390" y="-1309.3" font-family="Courier,monospace" font-size="14.00" fill="#de958e">schematics.exceptions</text>
</g>
<!-- schematics.exceptions&#45;&gt;hidebound.core.config -->
<g id="edge114" class="edge">
<title>schematics.exceptions&#45;&gt;hidebound.core.config</title>
<path fill="none" stroke="#de958e" d="M392.2985,-1331.1865C402.7739,-1411.0865 448.625,-1729.842 521,-1794 608.0608,-1871.1765 663.965,-1823.5331 780,-1832 1075.1266,-1853.5349 1241.922,-1988.0969 1443,-1771 1506.9555,-1701.9495 1420.8866,-1423.0345 1479,-1349 1481.1492,-1346.262 1483.5424,-1343.7566 1486.1283,-1341.464"/>
<polygon fill="#de958e" stroke="#de958e" points="1488.5439,-1344.0256 1494.4134,-1335.2052 1484.3245,-1338.4402 1488.5439,-1344.0256"/>
</g>
<!-- schematics.exceptions&#45;&gt;hidebound.core.database_tools -->
<g id="edge115" class="edge">
<title>schematics.exceptions&#45;&gt;hidebound.core.database_tools</title>
<path fill="none" stroke="#de958e" d="M429.7124,-1294.8848C449.2552,-1283.9916 471.4653,-1268.2787 485,-1248 528.3572,-1183.0392 488.7375,-1147.1258 521,-1076 600.0559,-901.7136 614.0396,-827.3033 780,-732 892.1534,-667.5955 941.3133,-718.553 1069,-698 1106.8672,-691.9047 1148.3666,-683.6938 1184.0622,-676.1488"/>
<polygon fill="#de958e" stroke="#de958e" points="1184.9159,-679.5455 1193.9684,-674.0407 1183.4589,-672.6988 1184.9159,-679.5455"/>
</g>
<!-- schematics.exceptions&#45;&gt;hidebound.core.specification_base -->
<g id="edge116" class="edge">
<title>schematics.exceptions&#45;&gt;hidebound.core.specification_base</title>
<path fill="none" stroke="#de958e" d="M485.2498,-1313.7128C564.0807,-1314.3028 677.6269,-1315.1525 769.5253,-1315.8402"/>
<polygon fill="#de958e" stroke="#de958e" points="769.7402,-1319.3418 779.7661,-1315.9169 769.7926,-1312.342 769.7402,-1319.3418"/>
</g>
<!-- schematics.exceptions&#45;&gt;hidebound.core.tools -->
<g id="edge117" class="edge">
<title>schematics.exceptions&#45;&gt;hidebound.core.tools</title>
<path fill="none" stroke="#de958e" d="M432.3195,-1294.7924C451.7883,-1284.1128 473.1491,-1268.6179 485,-1248 539.9612,-1152.3796 481.8993,-856.1268 521,-753 539.2936,-704.7513 578.9986,-659.1741 605.7449,-632.1626"/>
<polygon fill="#de958e" stroke="#de958e" points="608.2813,-634.5766 612.9166,-625.0495 603.3518,-629.6066 608.2813,-634.5766"/>
</g>
<!-- schematics.exceptions&#45;&gt;hidebound.core.validators -->
<g id="edge118" class="edge">
<title>schematics.exceptions&#45;&gt;hidebound.core.validators</title>
<path fill="none" stroke="#de958e" d="M444.7241,-1294.9467C481.2975,-1282.8812 529.567,-1266.9573 568.0077,-1254.2758"/>
<polygon fill="#de958e" stroke="#de958e" points="569.1558,-1257.5827 577.5559,-1251.1259 566.9628,-1250.9351 569.1558,-1257.5827"/>
</g>
<!-- schematics.exceptions&#45;&gt;hidebound.server.api -->
<g id="edge119" class="edge">
<title>schematics.exceptions&#45;&gt;hidebound.server.api</title>
<path fill="none" stroke="#de958e" d="M396.3165,-1331.3194C412.7684,-1379.5483 457.5644,-1514.2229 485,-1629 506.0991,-1717.2682 455.9418,-1766.7238 521,-1830 594.4476,-1901.4359 1370.0634,-1916.9575 1443,-1845 1516.4644,-1772.5217 1410.5262,-1459.2105 1479,-1382 1536.1393,-1317.5702 1609.4435,-1406.2022 1669,-1344 1741.1629,-1268.6314 1633.942,-1188.4112 1705,-1112 1784.5127,-1026.4972 1868.6323,-1124.4227 1961,-1053 1986.0119,-1033.6597 1972.7022,-1009.9435 1996.1754,-985.9802"/>
<polygon fill="#de958e" stroke="#de958e" points="1998.6543,-988.4606 2003.8339,-979.2182 1994.0211,-983.2133 1998.6543,-988.4606"/>
</g>
<!-- dask.dataframe -->
<g id="node51" class="node">
<title>dask.dataframe</title>
<polygon fill="#343434" stroke="#343434" points="456,-583 324,-583 324,-547 456,-547 456,-583"/>
<text text-anchor="middle" x="390" y="-561.3" font-family="Courier,monospace" font-size="14.00" fill="#de958e">dask.dataframe</text>
</g>
<!-- dask.dataframe&#45;&gt;hidebound.core.database -->
<g id="edge120" class="edge">
<title>dask.dataframe&#45;&gt;hidebound.core.database</title>
<path fill="none" stroke="#de958e" d="M456.1618,-560.3695C546.1142,-552.8372 700.768,-535.1058 744,-500 776.804,-473.3621 744.9158,-435.5538 780,-412 886.6411,-340.4064 942.5036,-389.7145 1069,-412 1243.1885,-442.6877 1318.908,-421.9661 1443,-548 1477.3173,-582.8543 1441.762,-620.2852 1479,-652 1488.3283,-659.9447 1619.5288,-681.4883 1719.505,-696.9478"/>
<polygon fill="#de958e" stroke="#de958e" points="1719.2723,-700.4532 1729.6889,-698.5183 1720.3392,-693.535 1719.2723,-700.4532"/>
</g>
<!-- dask.dataframe&#45;&gt;hidebound.core.database_tools -->
<g id="edge121" class="edge">
<title>dask.dataframe&#45;&gt;hidebound.core.database_tools</title>
<path fill="none" stroke="#de958e" d="M456.0398,-564.271C577.9882,-563.9241 846.3934,-567.8324 1069,-604 1114.7727,-611.4368 1165.277,-624.1921 1204.7036,-635.2082"/>
<polygon fill="#de958e" stroke="#de958e" points="1203.9042,-638.6192 1214.479,-637.9671 1205.8056,-631.8824 1203.9042,-638.6192"/>
</g>
<!-- dask.dataframe&#45;&gt;hidebound.core.tools -->
<g id="edge122" class="edge">
<title>dask.dataframe&#45;&gt;hidebound.core.tools</title>
<path fill="none" stroke="#de958e" d="M456.2642,-576.4767C479.4148,-580.4863 505.9585,-585.0835 531.3002,-589.4726"/>
<polygon fill="#de958e" stroke="#de958e" points="530.8672,-592.9496 541.3178,-591.2076 532.0618,-586.0523 530.8672,-592.9496"/>
</g>
<!-- hidebound -->
<g id="node52" class="node">
<title>hidebound</title>
<polygon fill="#343434" stroke="#343434" points="91,-1166 0,-1166 0,-1130 91,-1130 91,-1166"/>
<text text-anchor="middle" x="45.5" y="-1144.3" font-family="Courier,monospace" font-size="14.00" fill="#a0d17b">hidebound</text>
</g>
<!-- hidebound&#45;&gt;hidebound.server -->
<g id="edge123" class="edge">
<title>hidebound&#45;&gt;hidebound.server</title>
<path fill="none" stroke="#a0d17b" d="M48.3229,-1166.2427C68.4798,-1293.2942 195.3719,-2041 390,-2041 390,-2041 390,-2041 632.5,-2041 996.5199,-2041 1175.7377,-2170.1463 1443,-1923 1495.2422,-1874.6899 1461.8725,-1836.0635 1479,-1767 1509.5903,-1643.6504 1549.5682,-1497.3881 1566.2075,-1437.1064"/>
<polygon fill="#a0d17b" stroke="#a0d17b" points="1569.6545,-1437.7728 1568.9452,-1427.2017 1562.9075,-1435.9078 1569.6545,-1437.7728"/>
</g>
<!-- hidebound&#45;&gt;hidebound.exporters -->
<g id="edge124" class="edge">
<title>hidebound&#45;&gt;hidebound.exporters</title>
<path fill="none" stroke="#a0d17b" d="M91.0265,-1130.3914C102.5941,-1126.6217 115.1167,-1123.1348 127,-1121 267.5269,-1095.7547 433.4515,-1095.3157 535.8314,-1098.3567"/>
<polygon fill="#a0d17b" stroke="#a0d17b" points="535.7394,-1101.8555 545.8444,-1098.6713 535.9593,-1094.8589 535.7394,-1101.8555"/>
</g>
<!-- hidebound.core -->
<g id="node53" class="node">
<title>hidebound.core</title>
<polygon fill="#343434" stroke="#343434" points="259,-1166 127,-1166 127,-1130 259,-1130 259,-1166"/>
<text text-anchor="middle" x="193" y="-1144.3" font-family="Courier,monospace" font-size="14.00" fill="#a0d17b">hidebound.core</text>
</g>
<!-- hidebound&#45;&gt;hidebound.core -->
<g id="edge125" class="edge">
<title>hidebound&#45;&gt;hidebound.core</title>
<path fill="none" stroke="#a0d17b" d="M91.3614,-1148C99.4456,-1148 108.0541,-1148 116.7093,-1148"/>
<polygon fill="#a0d17b" stroke="#a0d17b" points="116.8627,-1151.5001 126.8626,-1148 116.8626,-1144.5001 116.8627,-1151.5001"/>
</g>
<!-- hidebound.core&#45;&gt;hidebound.core.config -->
<g id="edge126" class="edge">
<title>hidebound.core&#45;&gt;hidebound.core.config</title>
<path fill="none" stroke="#a0d17b" d="M210.7437,-1166.3296C226.4071,-1183.7462 248.3573,-1211.4506 259,-1240 320.2668,-1404.3497 232.8526,-1468.9813 295,-1633 369.5532,-1829.7599 422.0893,-1965 632.5,-1965 632.5,-1965 632.5,-1965 924.5,-1965 1161.0356,-1965 1288.7319,-2024.3054 1443,-1845 1510.3065,-1766.7698 1427.3491,-1471.3437 1479,-1382 1489.1356,-1364.4678 1506.1327,-1350.6307 1522.971,-1340.3104"/>
<polygon fill="#a0d17b" stroke="#a0d17b" points="1524.8305,-1343.278 1531.7247,-1335.2331 1521.3184,-1337.2228 1524.8305,-1343.278"/>
</g>
<!-- hidebound.core&#45;&gt;hidebound.core.database -->
<g id="edge127" class="edge">
<title>hidebound.core&#45;&gt;hidebound.core.database</title>
<path fill="none" stroke="#a0d17b" d="M193.4016,-1129.8456C196.0452,-1022.6337 213.4675,-472.0405 295,-328 381.0011,-176.065 457.9135,-127 632.5,-127 632.5,-127 632.5,-127 924.5,-127 1171.4937,-127 1272.4469,-148.3452 1443,-327 1477.9376,-363.5973 1440.6463,-402.0001 1479,-435 1543.9698,-490.9008 1597.1851,-421.2175 1669,-468 1751.8582,-521.9765 1802.886,-634.0341 1823.0653,-686.1836"/>
<polygon fill="#a0d17b" stroke="#a0d17b" points="1819.8822,-687.6618 1826.6901,-695.7798 1826.4306,-685.1881 1819.8822,-687.6618"/>
</g>
<!-- hidebound.core&#45;&gt;hidebound.core.database_tools -->
<g id="edge128" class="edge">
<title>hidebound.core&#45;&gt;hidebound.core.database_tools</title>
<path fill="none" stroke="#a0d17b" d="M194.237,-1129.874C201.6165,-1024.3643 241.3314,-492.4342 295,-446 370.4557,-380.7156 647.4123,-420.9716 744,-446 761.7182,-450.5912 763.3345,-458.4321 780,-466 904.2928,-522.4425 941.7952,-520.4682 1069,-570 1122.0517,-590.6576 1182.0292,-616.0625 1223.337,-633.8851"/>
<polygon fill="#a0d17b" stroke="#a0d17b" points="1222.0702,-637.1505 1232.6381,-637.9062 1224.848,-630.7252 1222.0702,-637.1505"/>
</g>
<!-- hidebound.core&#45;&gt;hidebound.core.logging -->
<g id="edge129" class="edge">
<title>hidebound.core&#45;&gt;hidebound.core.logging</title>
<path fill="none" stroke="#a0d17b" d="M193.3466,-1129.9515C195.4865,-1038.2953 209.7979,-625.3227 295,-538 297.0742,-535.8742 427.2191,-511.2311 525.2639,-492.9136"/>
<polygon fill="#a0d17b" stroke="#a0d17b" points="526.0577,-496.326 535.2454,-491.0499 524.7729,-489.4449 526.0577,-496.326"/>
</g>
<!-- hidebound.core&#45;&gt;hidebound.core.parser -->
<g id="edge130" class="edge">
<title>hidebound.core&#45;&gt;hidebound.core.parser</title>
<path fill="none" stroke="#a0d17b" d="M259.1462,-1154.3796C267.4213,-1155.1777 276.0391,-1156.0088 284.7275,-1156.8468"/>
<polygon fill="#a0d17b" stroke="#a0d17b" points="284.6533,-1160.3558 294.9431,-1157.8321 285.3253,-1153.3881 284.6533,-1160.3558"/>
</g>
<!-- hidebound.core&#45;&gt;hidebound.core.specification_base -->
<g id="edge131" class="edge">
<title>hidebound.core&#45;&gt;hidebound.core.specification_base</title>
<path fill="none" stroke="#a0d17b" d="M208.258,-1166.0377C222.7958,-1183.9067 244.5498,-1212.508 259,-1240 280.9774,-1281.8127 256.3535,-1312.8383 295,-1340 332.8779,-1366.6216 596.0828,-1347.9605 769.9446,-1332.2752"/>
<polygon fill="#a0d17b" stroke="#a0d17b" points="770.3241,-1335.7552 779.9667,-1331.3654 769.6912,-1328.7839 770.3241,-1335.7552"/>
</g>
<!-- hidebound.core&#45;&gt;hidebound.core.specifications -->
<g id="edge132" class="edge">
<title>hidebound.core&#45;&gt;hidebound.core.specifications</title>
<path fill="none" stroke="#a0d17b" d="M210.0235,-1166.1572C225.4104,-1183.6676 247.376,-1211.6233 259,-1240 298.2203,-1335.7452 256.4142,-1373.9973 295,-1470 360.4755,-1632.905 371.6626,-1701.6776 521,-1794 728.6616,-1922.3792 858.6634,-1955.9479 1069,-1832 1097.4513,-1815.2341 1079.4705,-1787.9479 1105,-1767 1122.5271,-1752.6183 1143.9469,-1742.0426 1165.5717,-1734.2732"/>
<polygon fill="#a0d17b" stroke="#a0d17b" points="1166.8346,-1737.5406 1175.1735,-1731.0051 1164.5791,-1730.9139 1166.8346,-1737.5406"/>
</g>
<!-- hidebound.core&#45;&gt;hidebound.core.tools -->
<g id="edge133" class="edge">
<title>hidebound.core&#45;&gt;hidebound.core.tools</title>
<path fill="none" stroke="#a0d17b" d="M193.7337,-1129.7718C197.5138,-1045.8769 217.7141,-698.0875 295,-630 329.0174,-600.0313 444.7533,-597.8442 531.2708,-600.8296"/>
<polygon fill="#a0d17b" stroke="#a0d17b" points="531.2798,-604.3323 541.4032,-601.2071 531.5405,-597.3371 531.2798,-604.3323"/>
</g>
<!-- hidebound.core&#45;&gt;hidebound.core.traits -->
<g id="edge134" class="edge">
<title>hidebound.core&#45;&gt;hidebound.core.traits</title>
<path fill="none" stroke="#a0d17b" d="M208.8688,-1166.2086C223.6464,-1183.9761 245.3853,-1212.3036 259,-1240 283.564,-1289.9706 262.7715,-1314.5933 295,-1360 450.9362,-1579.6987 750.862,-1729.0342 871.9169,-1782.8225"/>
<polygon fill="#a0d17b" stroke="#a0d17b" points="870.7898,-1786.1505 881.3519,-1786.9817 873.6134,-1779.7453 870.7898,-1786.1505"/>
</g>
<!-- hidebound.core&#45;&gt;hidebound.core.validators -->
<g id="edge135" class="edge">
<title>hidebound.core&#45;&gt;hidebound.core.validators</title>
<path fill="none" stroke="#a0d17b" d="M259.1013,-1134.9224C319.2489,-1125.6436 409.8486,-1118.2861 485,-1140 531.0581,-1153.3078 576.5783,-1185.7411 604.6,-1208.5441"/>
<polygon fill="#a0d17b" stroke="#a0d17b" points="602.4386,-1211.2986 612.3705,-1214.9878 606.907,-1205.9103 602.4386,-1211.2986"/>
</g>
<!-- rolling_pin.blob_etl -->
<g id="node54" class="node">
<title>rolling_pin.blob_etl</title>
<polygon fill="#343434" stroke="#343434" points="1665,-1812 1483,-1812 1483,-1776 1665,-1776 1665,-1812"/>
<text text-anchor="middle" x="1574" y="-1790.3" font-family="Courier,monospace" font-size="14.00" fill="#de958e">rolling_pin.blob_etl</text>
</g>
<!-- rolling_pin.blob_etl&#45;&gt;hidebound.server.components -->
<g id="edge136" class="edge">
<title>rolling_pin.blob_etl&#45;&gt;hidebound.server.components</title>
<path fill="none" stroke="#de958e" d="M1665.3137,-1777.7821C1683.4612,-1774.559 1702.7075,-1771.1407 1721.4429,-1767.8132"/>
<polygon fill="#de958e" stroke="#de958e" points="1722.2518,-1771.2244 1731.4856,-1766.0296 1721.0276,-1764.3323 1722.2518,-1771.2244"/>
</g>
<!-- skimage.io -->
<g id="node55" class="node">
<title>skimage.io</title>
<polygon fill="#343434" stroke="#343434" points="682,-1785 583,-1785 583,-1749 682,-1749 682,-1785"/>
<text text-anchor="middle" x="632.5" y="-1763.3" font-family="Courier,monospace" font-size="14.00" fill="#de958e">skimage.io</text>
</g>
<!-- skimage.io&#45;&gt;hidebound.core.traits -->
<g id="edge137" class="edge">
<title>skimage.io&#45;&gt;hidebound.core.traits</title>
<path fill="none" stroke="#de958e" d="M682.0338,-1773.4462C719.5523,-1778.3287 772.4542,-1785.2132 819.2741,-1791.3062"/>
<polygon fill="#de958e" stroke="#de958e" points="819.1056,-1794.8137 829.4737,-1792.6336 820.009,-1787.8723 819.1056,-1794.8137"/>
</g>
<!-- flask_monitoringdashboard -->
<g id="node56" class="node">
<title>flask_monitoringdashboard</title>
<polygon fill="#343434" stroke="#343434" points="2713,-36 2490,-36 2490,0 2713,0 2713,-36"/>
<text text-anchor="middle" x="2601.5" y="-14.3" font-family="Courier,monospace" font-size="14.00" fill="#de958e">flask_monitoringdashboard</text>
</g>
<!-- flask_monitoringdashboard&#45;&gt;hidebound.server.app -->
<g id="edge138" class="edge">
<title>flask_monitoringdashboard&#45;&gt;hidebound.server.app</title>
<path fill="none" stroke="#de958e" d="M2705.757,-36.0438C2711.1046,-38.6472 2716.2293,-41.6158 2721,-45 2783.7563,-89.517 2822.1525,-175.7724 2838.6095,-220.1451"/>
<polygon fill="#de958e" stroke="#de958e" points="2835.3741,-221.4911 2842.057,-229.7123 2841.9596,-219.1179 2835.3741,-221.4911"/>
</g>
</g>
</svg>
