<?xml version="1.0" encoding="UTF-8" standalone="no"?>
<!DOCTYPE svg PUBLIC "-//W3C//DTD SVG 1.1//EN"
 "http://www.w3.org/Graphics/SVG/1.1/DTD/svg11.dtd">
<!-- Generated by graphviz version 2.40.1 (20161225.0304)
 -->
<!-- Title: %3 Pages: 1 -->
<svg width="1249pt" height="332pt"
 viewBox="0.00 0.00 1248.50 332.00" xmlns="http://www.w3.org/2000/svg" xmlns:xlink="http://www.w3.org/1999/xlink">
<g id="graph0" class="graph" transform="scale(1 1) rotate(0) translate(4 328)">
<title>%3</title>
<polygon fill="#242424" stroke="transparent" points="-4,4 -4,-328 1244.5,-328 1244.5,4 -4,4"/>
<!-- cli -->
<g id="node1" class="node">
<title>cli</title>
<polygon fill="#343434" stroke="#343434" points="521,-324 467,-324 467,-288 521,-288 521,-324"/>
<text text-anchor="middle" x="494" y="-302.3" font-family="Courier,monospace" font-size="14.00" fill="#b6ecf3">cli</text>
</g>
<!-- hidebound.database -->
<g id="node2" class="node">
<title>hidebound.database</title>
<polygon fill="#343434" stroke="#343434" points="472.5,-36 307.5,-36 307.5,0 472.5,0 472.5,-36"/>
<text text-anchor="middle" x="390" y="-14.3" font-family="Courier,monospace" font-size="14.00" fill="#b6ecf3">hidebound.database</text>
</g>
<!-- hidebound.parser -->
<g id="node3" class="node">
<title>hidebound.parser</title>
<polygon fill="#343434" stroke="#343434" points="659.5,-252 510.5,-252 510.5,-216 659.5,-216 659.5,-252"/>
<text text-anchor="middle" x="585" y="-230.3" font-family="Courier,monospace" font-size="14.00" fill="#b6ecf3">hidebound.parser</text>
</g>
<!-- hidebound.parser&#45;&gt;hidebound.database -->
<g id="edge1" class="edge">
<title>hidebound.parser&#45;&gt;hidebound.database</title>
<path fill="none" stroke="#b6ecf3" d="M538.6625,-215.8826C518.1423,-206.7242 494.3301,-194.4703 475,-180 440.2484,-153.9852 428.8532,-146.6043 409,-108 399.1095,-88.7681 394.3662,-64.6984 392.0921,-46.2908"/>
<polygon fill="#b6ecf3" stroke="#b6ecf3" points="395.5555,-45.7605 391.0182,-36.1864 388.5947,-46.5003 395.5555,-45.7605"/>
</g>
<!-- hidebound.specification_base -->
<g id="node4" class="node">
<title>hidebound.specification_base</title>
<polygon fill="#343434" stroke="#343434" points="742,-108 494,-108 494,-72 742,-72 742,-108"/>
<text text-anchor="middle" x="618" y="-86.3" font-family="Courier,monospace" font-size="14.00" fill="#b6ecf3">hidebound.specification_base</text>
</g>
<!-- hidebound.parser&#45;&gt;hidebound.specification_base -->
<g id="edge2" class="edge">
<title>hidebound.parser&#45;&gt;hidebound.specification_base</title>
<path fill="none" stroke="#b6ecf3" d="M527.4861,-215.8912C510.8488,-207.6845 494.6021,-196.0979 485,-180 476.8036,-166.2589 476.0642,-157.2722 485,-144 494.2206,-130.3046 507.5761,-120.0812 522.3088,-112.4499"/>
<polygon fill="#b6ecf3" stroke="#b6ecf3" points="524.1006,-115.4739 531.6353,-108.0255 521.1003,-109.1494 524.1006,-115.4739"/>
</g>
<!-- hidebound.validators -->
<g id="node8" class="node">
<title>hidebound.validators</title>
<polygon fill="#343434" stroke="#343434" points="794,-180 612,-180 612,-144 794,-144 794,-180"/>
<text text-anchor="middle" x="703" y="-158.3" font-family="Courier,monospace" font-size="14.00" fill="#b6ecf3">hidebound.validators</text>
</g>
<!-- hidebound.parser&#45;&gt;hidebound.validators -->
<g id="edge3" class="edge">
<title>hidebound.parser&#45;&gt;hidebound.validators</title>
<path fill="none" stroke="#b6ecf3" d="M614.7764,-215.8314C629.8693,-206.6221 648.3757,-195.3301 664.5343,-185.4706"/>
<polygon fill="#b6ecf3" stroke="#b6ecf3" points="666.5198,-188.3593 673.2331,-180.1628 662.8737,-182.3838 666.5198,-188.3593"/>
</g>
<!-- hidebound.specification_base&#45;&gt;hidebound.database -->
<g id="edge4" class="edge">
<title>hidebound.specification_base&#45;&gt;hidebound.database</title>
<path fill="none" stroke="#b6ecf3" d="M560.7603,-71.9243C529.1848,-61.9531 489.8096,-49.5188 456.8294,-39.104"/>
<polygon fill="#b6ecf3" stroke="#b6ecf3" points="457.8531,-35.757 447.2633,-36.0831 455.7451,-42.4321 457.8531,-35.757"/>
</g>
<!-- hidebound.specifications -->
<g id="node5" class="node">
<title>hidebound.specifications</title>
<polygon fill="#343434" stroke="#343434" points="1133.5,-36 918.5,-36 918.5,0 1133.5,0 1133.5,-36"/>
<text text-anchor="middle" x="1026" y="-14.3" font-family="Courier,monospace" font-size="14.00" fill="#b6ecf3">hidebound.specifications</text>
</g>
<!-- hidebound.specification_base&#45;&gt;hidebound.specifications -->
<g id="edge5" class="edge">
<title>hidebound.specification_base&#45;&gt;hidebound.specifications</title>
<path fill="none" stroke="#b6ecf3" d="M720.166,-71.9707C779.0825,-61.5737 853.2404,-48.487 913.7766,-37.8041"/>
<polygon fill="#b6ecf3" stroke="#b6ecf3" points="914.5156,-41.2279 923.7552,-36.0432 913.2991,-34.3344 914.5156,-41.2279"/>
</g>
<!-- hidebound.tools -->
<g id="node6" class="node">
<title>hidebound.tools</title>
<polygon fill="#343434" stroke="#343434" points="324,-180 184,-180 184,-144 324,-144 324,-180"/>
<text text-anchor="middle" x="254" y="-158.3" font-family="Courier,monospace" font-size="14.00" fill="#b6ecf3">hidebound.tools</text>
</g>
<!-- hidebound.tools&#45;&gt;hidebound.database -->
<g id="edge6" class="edge">
<title>hidebound.tools&#45;&gt;hidebound.database</title>
<path fill="none" stroke="#b6ecf3" d="M270.6524,-143.9932C287.5418,-125.7692 314.4723,-96.8172 338,-72 346.8145,-62.7024 356.5388,-52.5708 365.1699,-43.6213"/>
<polygon fill="#b6ecf3" stroke="#b6ecf3" points="367.6897,-46.0505 372.119,-36.426 362.6545,-41.1876 367.6897,-46.0505"/>
</g>
<!-- hidebound.tools&#45;&gt;hidebound.specification_base -->
<g id="edge7" class="edge">
<title>hidebound.tools&#45;&gt;hidebound.specification_base</title>
<path fill="none" stroke="#b6ecf3" d="M324.1829,-148.1177C378.8798,-137.2985 455.5758,-122.1279 516.8927,-109.9992"/>
<polygon fill="#b6ecf3" stroke="#b6ecf3" points="517.8531,-113.3772 526.9838,-108.0032 516.4947,-106.5102 517.8531,-113.3772"/>
</g>
<!-- hidebound.traits -->
<g id="node7" class="node">
<title>hidebound.traits</title>
<polygon fill="#343434" stroke="#343434" points="1240.5,-252 1091.5,-252 1091.5,-216 1240.5,-216 1240.5,-252"/>
<text text-anchor="middle" x="1166" y="-230.3" font-family="Courier,monospace" font-size="14.00" fill="#b6ecf3">hidebound.traits</text>
</g>
<!-- hidebound.traits&#45;&gt;hidebound.specifications -->
<g id="edge8" class="edge">
<title>hidebound.traits&#45;&gt;hidebound.specifications</title>
<path fill="none" stroke="#b6ecf3" d="M1158.0858,-215.8105C1144.1817,-184.8149 1113.4565,-120.4183 1078,-72 1070.6847,-62.0105 1061.6254,-51.9883 1053.1284,-43.3371"/>
<polygon fill="#b6ecf3" stroke="#b6ecf3" points="1055.4259,-40.6861 1045.8641,-36.1229 1050.4932,-45.6529 1055.4259,-40.6861"/>
</g>
<!-- hidebound.validators&#45;&gt;hidebound.specification_base -->
<g id="edge9" class="edge">
<title>hidebound.validators&#45;&gt;hidebound.specification_base</title>
<path fill="none" stroke="#b6ecf3" d="M681.5509,-143.8314C671.1822,-135.0485 658.5771,-124.3712 647.3354,-114.8489"/>
<polygon fill="#b6ecf3" stroke="#b6ecf3" points="649.3349,-111.9556 639.4422,-108.1628 644.8105,-117.297 649.3349,-111.9556"/>
</g>
<!-- hidebound.validators&#45;&gt;hidebound.specifications -->
<g id="edge10" class="edge">
<title>hidebound.validators&#45;&gt;hidebound.specifications</title>
<path fill="none" stroke="#b6ecf3" d="M743.5811,-143.9081C802.6472,-117.5752 912.205,-68.7321 976.1162,-40.2392"/>
<polygon fill="#b6ecf3" stroke="#b6ecf3" points="977.8766,-43.2865 985.5849,-36.0179 975.0263,-36.8931 977.8766,-43.2865"/>
</g>
<!-- numpy -->
<g id="node9" class="node">
<title>numpy</title>
<polygon fill="#343434" stroke="#343434" points="476,-108 418,-108 418,-72 476,-72 476,-108"/>
<text text-anchor="middle" x="447" y="-86.3" font-family="Courier,monospace" font-size="14.00" fill="#de958e">numpy</text>
</g>
<!-- numpy&#45;&gt;hidebound.database -->
<g id="edge11" class="edge">
<title>numpy&#45;&gt;hidebound.database</title>
<path fill="none" stroke="#de958e" d="M432.6165,-71.8314C426.0514,-63.5386 418.1493,-53.557 410.9422,-44.4533"/>
<polygon fill="#de958e" stroke="#de958e" points="413.5284,-42.0813 404.5772,-36.4133 408.0401,-46.4262 413.5284,-42.0813"/>
</g>
<!-- humanfriendly -->
<g id="node10" class="node">
<title>humanfriendly</title>
<polygon fill="#343434" stroke="#343434" points="246,-252 122,-252 122,-216 246,-216 246,-252"/>
<text text-anchor="middle" x="184" y="-230.3" font-family="Courier,monospace" font-size="14.00" fill="#de958e">humanfriendly</text>
</g>
<!-- humanfriendly&#45;&gt;hidebound.tools -->
<g id="edge12" class="edge">
<title>humanfriendly&#45;&gt;hidebound.tools</title>
<path fill="none" stroke="#de958e" d="M201.664,-215.8314C209.9732,-207.2848 220.0264,-196.9443 229.0918,-187.6198"/>
<polygon fill="#de958e" stroke="#de958e" points="231.6369,-190.023 236.0982,-180.4133 226.6179,-185.1435 231.6369,-190.023"/>
</g>
<!-- hidebound -->
<g id="node11" class="node">
<title>hidebound</title>
<polygon fill="#343434" stroke="#343434" points="884.5,-324 793.5,-324 793.5,-288 884.5,-288 884.5,-324"/>
<text text-anchor="middle" x="839" y="-302.3" font-family="Courier,monospace" font-size="14.00" fill="#a0d17b">hidebound</text>
</g>
<!-- hidebound&#45;&gt;hidebound.database -->
<g id="edge13" class="edge">
<title>hidebound&#45;&gt;hidebound.database</title>
<path fill="none" stroke="#a0d17b" d="M884.4038,-287.9913C948.4222,-259.9544 1052.6966,-202.9395 1008,-144 945.5635,-61.6676 639.2981,-32.249 482.6553,-22.4732"/>
<polygon fill="#a0d17b" stroke="#a0d17b" points="482.7526,-18.9728 472.5581,-21.8574 482.3264,-25.9598 482.7526,-18.9728"/>
</g>
<!-- hidebound&#45;&gt;hidebound.parser -->
<g id="edge14" class="edge">
<title>hidebound&#45;&gt;hidebound.parser</title>
<path fill="none" stroke="#a0d17b" d="M793.2965,-293.0447C755.8509,-282.4302 702.1384,-267.2046 658.6363,-254.8733"/>
<polygon fill="#a0d17b" stroke="#a0d17b" points="659.5282,-251.4883 648.9527,-252.1283 657.6191,-258.2229 659.5282,-251.4883"/>
</g>
<!-- hidebound&#45;&gt;hidebound.specification_base -->
<g id="edge15" class="edge">
<title>hidebound&#45;&gt;hidebound.specification_base</title>
<path fill="none" stroke="#a0d17b" d="M840.5293,-287.9515C842.2846,-254.8158 840.9832,-184.017 803,-144 790.7358,-131.0791 756.664,-119.564 721.0492,-110.5208"/>
<polygon fill="#a0d17b" stroke="#a0d17b" points="721.5272,-107.0338 710.9799,-108.0365 719.8504,-113.83 721.5272,-107.0338"/>
</g>
<!-- hidebound&#45;&gt;hidebound.specifications -->
<g id="edge16" class="edge">
<title>hidebound&#45;&gt;hidebound.specifications</title>
<path fill="none" stroke="#a0d17b" d="M884.545,-300.2019C937.8337,-292.374 1021.2011,-276.516 1040,-252 1086.7024,-191.0947 1056.9994,-92.9372 1038.1171,-45.464"/>
<polygon fill="#a0d17b" stroke="#a0d17b" points="1041.3217,-44.0538 1034.2834,-36.1346 1034.847,-46.7145 1041.3217,-44.0538"/>
</g>
<!-- hidebound&#45;&gt;hidebound.tools -->
<g id="edge17" class="edge">
<title>hidebound&#45;&gt;hidebound.tools</title>
<path fill="none" stroke="#a0d17b" d="M793.4034,-301.7959C663.0928,-289.7421 298.0562,-255.6883 293,-252 273.1102,-237.4909 263.2472,-210.6655 258.4294,-190.0624"/>
<polygon fill="#a0d17b" stroke="#a0d17b" points="261.8509,-189.3242 256.3955,-180.2419 254.9964,-190.7439 261.8509,-189.3242"/>
</g>
<!-- hidebound&#45;&gt;hidebound.traits -->
<g id="edge18" class="edge">
<title>hidebound&#45;&gt;hidebound.traits</title>
<path fill="none" stroke="#a0d17b" d="M884.8123,-295.9129C935.6168,-284.7266 1018.6719,-266.4392 1081.3741,-252.6332"/>
<polygon fill="#a0d17b" stroke="#a0d17b" points="1082.2412,-256.0262 1091.2547,-250.4577 1080.7359,-249.19 1082.2412,-256.0262"/>
</g>
<!-- hidebound&#45;&gt;hidebound.validators -->
<g id="edge19" class="edge">
<title>hidebound&#45;&gt;hidebound.validators</title>
<path fill="none" stroke="#a0d17b" d="M794.3209,-287.8849C776.8943,-279.0944 757.826,-267.1209 744,-252 727.7951,-234.2773 717.0589,-209.0559 710.6529,-189.8195"/>
<polygon fill="#a0d17b" stroke="#a0d17b" points="713.9399,-188.6037 707.612,-180.1061 707.2596,-190.6951 713.9399,-188.6037"/>
</g>
<!-- pandas -->
<g id="node12" class="node">
<title>pandas</title>
<polygon fill="#343434" stroke="#343434" points="66,-252 0,-252 0,-216 66,-216 66,-252"/>
<text text-anchor="middle" x="33" y="-230.3" font-family="Courier,monospace" font-size="14.00" fill="#de958e">pandas</text>
</g>
<!-- pandas&#45;&gt;hidebound.database -->
<g id="edge20" class="edge">
<title>pandas&#45;&gt;hidebound.database</title>
<path fill="none" stroke="#de958e" d="M48.8884,-215.6518C66.5208,-196.0882 96.5282,-165.0812 127,-144 192.2016,-98.8917 276.0459,-61.822 331.3274,-39.8353"/>
<polygon fill="#de958e" stroke="#de958e" points="332.9438,-42.9605 340.9658,-36.0397 330.3788,-36.4473 332.9438,-42.9605"/>
</g>
<!-- pandas&#45;&gt;hidebound.tools -->
<g id="edge21" class="edge">
<title>pandas&#45;&gt;hidebound.tools</title>
<path fill="none" stroke="#de958e" d="M66.0859,-223.2209C98.3459,-212.7108 148.2965,-196.4373 188.5912,-183.3097"/>
<polygon fill="#de958e" stroke="#de958e" points="189.9222,-186.5572 198.3461,-180.1316 187.7537,-179.9015 189.9222,-186.5572"/>
</g>
<!-- schematics -->
<g id="node13" class="node">
<title>schematics</title>
<polygon fill="#343434" stroke="#343434" points="593.5,-180 494.5,-180 494.5,-144 593.5,-144 593.5,-180"/>
<text text-anchor="middle" x="544" y="-158.3" font-family="Courier,monospace" font-size="14.00" fill="#de958e">schematics</text>
</g>
<!-- schematics&#45;&gt;hidebound.specification_base -->
<g id="edge22" class="edge">
<title>schematics&#45;&gt;hidebound.specification_base</title>
<path fill="none" stroke="#de958e" d="M562.6733,-143.8314C571.5249,-135.219 582.2486,-124.7851 591.8895,-115.4048"/>
<polygon fill="#de958e" stroke="#de958e" points="594.6061,-117.645 599.3326,-108.1628 589.7246,-112.6279 594.6061,-117.645"/>
</g>
<!-- schematics.exceptions -->
<g id="node14" class="node">
<title>schematics.exceptions</title>
<polygon fill="#343434" stroke="#343434" points="492,-252 302,-252 302,-216 492,-216 492,-252"/>
<text text-anchor="middle" x="397" y="-230.3" font-family="Courier,monospace" font-size="14.00" fill="#de958e">schematics.exceptions</text>
</g>
<!-- schematics.exceptions&#45;&gt;hidebound.database -->
<g id="edge23" class="edge">
<title>schematics.exceptions&#45;&gt;hidebound.database</title>
<path fill="none" stroke="#de958e" d="M387.8423,-215.5129C383.2987,-205.3118 378.2998,-192.2593 376,-180 367.1495,-132.823 369.9281,-119.6144 376,-72 377.0854,-63.4887 379.0962,-54.4011 381.262,-46.1555"/>
<polygon fill="#de958e" stroke="#de958e" points="384.7045,-46.8414 384.0302,-36.2681 377.9637,-44.9542 384.7045,-46.8414"/>
</g>
<!-- schematics.exceptions&#45;&gt;hidebound.specification_base -->
<g id="edge24" class="edge">
<title>schematics.exceptions&#45;&gt;hidebound.specification_base</title>
<path fill="none" stroke="#de958e" d="M408.7036,-215.7294C422.407,-195.6456 446.8454,-163.6312 475,-144 494.6187,-130.3206 518.1472,-119.5801 540.4012,-111.4047"/>
<polygon fill="#de958e" stroke="#de958e" points="541.5894,-114.697 549.8454,-108.0569 539.2506,-108.0992 541.5894,-114.697"/>
</g>
<!-- schematics.exceptions&#45;&gt;hidebound.tools -->
<g id="edge25" class="edge">
<title>schematics.exceptions&#45;&gt;hidebound.tools</title>
<path fill="none" stroke="#de958e" d="M360.9151,-215.8314C342.2011,-206.4089 319.1568,-194.8062 299.26,-184.7883"/>
<polygon fill="#de958e" stroke="#de958e" points="300.5792,-181.5339 290.0734,-180.1628 297.4311,-187.7861 300.5792,-181.5339"/>
</g>
<!-- schematics.exceptions&#45;&gt;hidebound.validators -->
<g id="edge26" class="edge">
<title>schematics.exceptions&#45;&gt;hidebound.validators</title>
<path fill="none" stroke="#de958e" d="M473.8217,-215.9243C517.1911,-205.7198 571.5241,-192.9355 616.401,-182.3762"/>
<polygon fill="#de958e" stroke="#de958e" points="617.4796,-185.7181 626.4121,-180.0207 615.8763,-178.9042 617.4796,-185.7181"/>
</g>
<!-- pyparsing -->
<g id="node15" class="node">
<title>pyparsing</title>
<polygon fill="#343434" stroke="#343434" points="630.5,-324 539.5,-324 539.5,-288 630.5,-288 630.5,-324"/>
<text text-anchor="middle" x="585" y="-302.3" font-family="Courier,monospace" font-size="14.00" fill="#de958e">pyparsing</text>
</g>
<!-- pyparsing&#45;&gt;hidebound.parser -->
<g id="edge27" class="edge">
<title>pyparsing&#45;&gt;hidebound.parser</title>
<path fill="none" stroke="#de958e" d="M585,-287.8314C585,-280.131 585,-270.9743 585,-262.4166"/>
<polygon fill="#de958e" stroke="#de958e" points="588.5001,-262.4132 585,-252.4133 581.5001,-262.4133 588.5001,-262.4132"/>
</g>
<!-- pyparsing&#45;&gt;hidebound.specification_base -->
<g id="edge28" class="edge">
<title>pyparsing&#45;&gt;hidebound.specification_base</title>
<path fill="none" stroke="#de958e" d="M539.2964,-290.1704C536.1709,-289.3581 533.0517,-288.6224 530,-288 484.4325,-278.706 144.4385,-286.2695 113,-252 102.1838,-240.2098 107.4317,-230.9998 113,-216 171.8029,-57.5966 308.9701,-126.7781 483.8076,-108.048"/>
<polygon fill="#de958e" stroke="#de958e" points="484.2356,-111.5219 493.7639,-106.8893 483.4263,-104.5689 484.2356,-111.5219"/>
</g>
<!-- pyparsing&#45;&gt;hidebound.validators -->
<g id="edge29" class="edge">
<title>pyparsing&#45;&gt;hidebound.validators</title>
<path fill="none" stroke="#de958e" d="M623.136,-287.9049C638.7624,-278.9272 655.9651,-266.8083 668,-252 682.6311,-233.9972 691.6711,-209.1611 696.8896,-190.1388"/>
<polygon fill="#de958e" stroke="#de958e" points="700.3319,-190.8036 699.4068,-180.2493 693.5482,-189.0769 700.3319,-190.8036"/>
</g>
<!-- schematics.types -->
<g id="node16" class="node">
<title>schematics.types</title>
<polygon fill="#343434" stroke="#343434" points="998.5,-180 849.5,-180 849.5,-144 998.5,-144 998.5,-180"/>
<text text-anchor="middle" x="924" y="-158.3" font-family="Courier,monospace" font-size="14.00" fill="#de958e">schematics.types</text>
</g>
<!-- schematics.types&#45;&gt;hidebound.specification_base -->
<g id="edge30" class="edge">
<title>schematics.types&#45;&gt;hidebound.specification_base</title>
<path fill="none" stroke="#de958e" d="M849.144,-144.3868C805.4614,-134.1086 750.1618,-121.0969 704.6055,-110.3778"/>
<polygon fill="#de958e" stroke="#de958e" points="705.279,-106.9407 694.7431,-108.0572 703.6756,-113.7546 705.279,-106.9407"/>
</g>
<!-- schematics.types&#45;&gt;hidebound.specifications -->
<g id="edge31" class="edge">
<title>schematics.types&#45;&gt;hidebound.specifications</title>
<path fill="none" stroke="#de958e" d="M961.0027,-143.8024C975.711,-134.8734 991.5778,-122.8193 1002,-108 1014.8129,-89.7814 1020.7858,-65.1145 1023.5699,-46.2118"/>
<polygon fill="#de958e" stroke="#de958e" points="1027.0649,-46.4698 1024.8401,-36.1113 1020.1196,-45.5964 1027.0649,-46.4698"/>
</g>
<!-- wrapt -->
<g id="node17" class="node">
<title>wrapt</title>
<polygon fill="#343434" stroke="#343434" points="811,-252 753,-252 753,-216 811,-216 811,-252"/>
<text text-anchor="middle" x="782" y="-230.3" font-family="Courier,monospace" font-size="14.00" fill="#de958e">wrapt</text>
</g>
<!-- wrapt&#45;&gt;hidebound.validators -->
<g id="edge32" class="edge">
<title>wrapt&#45;&gt;hidebound.validators</title>
<path fill="none" stroke="#de958e" d="M762.065,-215.8314C752.5217,-207.1337 740.9401,-196.5783 730.5694,-187.1265"/>
<polygon fill="#de958e" stroke="#de958e" points="732.6772,-184.3121 722.9287,-180.1628 727.962,-189.4857 732.6772,-184.3121"/>
</g>
<!-- skimage.io -->
<g id="node18" class="node">
<title>skimage.io</title>
<polygon fill="#343434" stroke="#343434" points="1215.5,-324 1116.5,-324 1116.5,-288 1215.5,-288 1215.5,-324"/>
<text text-anchor="middle" x="1166" y="-302.3" font-family="Courier,monospace" font-size="14.00" fill="#de958e">skimage.io</text>
</g>
<!-- skimage.io&#45;&gt;hidebound.traits -->
<g id="edge33" class="edge">
<title>skimage.io&#45;&gt;hidebound.traits</title>
<path fill="none" stroke="#de958e" d="M1166,-287.8314C1166,-280.131 1166,-270.9743 1166,-262.4166"/>
<polygon fill="#de958e" stroke="#de958e" points="1169.5001,-262.4132 1166,-252.4133 1162.5001,-262.4133 1169.5001,-262.4132"/>
</g>
</g>
</svg>
