<?xml version="1.0" encoding="UTF-8" standalone="no"?>
<!DOCTYPE svg PUBLIC "-//W3C//DTD SVG 1.1//EN"
 "http://www.w3.org/Graphics/SVG/1.1/DTD/svg11.dtd">
<!-- Generated by graphviz version 2.40.1 (20161225.0304)
 -->
<!-- Title: %3 Pages: 1 -->
<svg width="1480pt" height="1432pt"
 viewBox="0.00 0.00 1480.00 1432.38" xmlns="http://www.w3.org/2000/svg" xmlns:xlink="http://www.w3.org/1999/xlink">
<g id="graph0" class="graph" transform="scale(1 1) rotate(0) translate(4 1428.3848)">
<title>%3</title>
<polygon fill="#242424" stroke="transparent" points="-4,4 -4,-1428.3848 1476,-1428.3848 1476,4 -4,4"/>
<!-- cli -->
<g id="node1" class="node">
<title>cli</title>
<polygon fill="#343434" stroke="#343434" points="72.5,-278.3848 18.5,-278.3848 18.5,-242.3848 72.5,-242.3848 72.5,-278.3848"/>
<text text-anchor="middle" x="45.5" y="-256.6848" font-family="Courier,monospace" font-size="14.00" fill="#b6ecf3">cli</text>
</g>
<!-- hidebound.app -->
<g id="node2" class="node">
<title>hidebound.app</title>
<polygon fill="#343434" stroke="#343434" points="1472,-1019.3848 1348,-1019.3848 1348,-983.3848 1472,-983.3848 1472,-1019.3848"/>
<text text-anchor="middle" x="1410" y="-997.6848" font-family="Courier,monospace" font-size="14.00" fill="#b6ecf3">hidebound.app</text>
</g>
<!-- hidebound.client -->
<g id="node3" class="node">
<title>hidebound.client</title>
<polygon fill="#343434" stroke="#343434" points="769.5,-1230.3848 620.5,-1230.3848 620.5,-1194.3848 769.5,-1194.3848 769.5,-1230.3848"/>
<text text-anchor="middle" x="695" y="-1208.6848" font-family="Courier,monospace" font-size="14.00" fill="#b6ecf3">hidebound.client</text>
</g>
<!-- hidebound.client&#45;&gt;hidebound.app -->
<g id="edge1" class="edge">
<title>hidebound.client&#45;&gt;hidebound.app</title>
<path fill="none" stroke="#b6ecf3" d="M769.5506,-1219.1475C891.602,-1226.6556 1137.8782,-1226.5873 1312,-1126.3848 1351.6827,-1103.5485 1381.1139,-1057.7549 1396.8993,-1028.388"/>
<polygon fill="#b6ecf3" stroke="#b6ecf3" points="1400.0236,-1029.9661 1401.5406,-1019.4804 1393.8158,-1026.7314 1400.0236,-1029.9661"/>
</g>
<!-- hidebound.config -->
<g id="node4" class="node">
<title>hidebound.config</title>
<polygon fill="#343434" stroke="#343434" points="1057.5,-630.3848 908.5,-630.3848 908.5,-594.3848 1057.5,-594.3848 1057.5,-630.3848"/>
<text text-anchor="middle" x="983" y="-608.6848" font-family="Courier,monospace" font-size="14.00" fill="#b6ecf3">hidebound.config</text>
</g>
<!-- hidebound.database -->
<g id="node5" class="node">
<title>hidebound.database</title>
<polygon fill="#343434" stroke="#343434" points="1312,-900.3848 1147,-900.3848 1147,-864.3848 1312,-864.3848 1312,-900.3848"/>
<text text-anchor="middle" x="1229.5" y="-878.6848" font-family="Courier,monospace" font-size="14.00" fill="#b6ecf3">hidebound.database</text>
</g>
<!-- hidebound.config&#45;&gt;hidebound.database -->
<g id="edge2" class="edge">
<title>hidebound.config&#45;&gt;hidebound.database</title>
<path fill="none" stroke="#b6ecf3" d="M999.5563,-630.5195C1042.3569,-677.4005 1156.7679,-802.7188 1206.2089,-856.8732"/>
<polygon fill="#b6ecf3" stroke="#b6ecf3" points="1203.6885,-859.3037 1213.0157,-864.329 1208.8582,-854.584 1203.6885,-859.3037"/>
</g>
<!-- hidebound.database&#45;&gt;hidebound.app -->
<g id="edge3" class="edge">
<title>hidebound.database&#45;&gt;hidebound.app</title>
<path fill="none" stroke="#b6ecf3" d="M1256.9141,-900.4584C1288.2804,-921.1375 1339.7496,-955.0701 1374.243,-977.811"/>
<polygon fill="#b6ecf3" stroke="#b6ecf3" points="1372.3489,-980.7544 1382.6242,-983.3365 1376.2019,-974.9102 1372.3489,-980.7544"/>
</g>
<!-- hidebound.database_test_base -->
<g id="node6" class="node">
<title>hidebound.database_test_base</title>
<polygon fill="#343434" stroke="#343434" points="1107,-485.3848 859,-485.3848 859,-449.3848 1107,-449.3848 1107,-485.3848"/>
<text text-anchor="middle" x="983" y="-463.6848" font-family="Courier,monospace" font-size="14.00" fill="#b6ecf3">hidebound.database_test_base</text>
</g>
<!-- hidebound.database_tools -->
<g id="node7" class="node">
<title>hidebound.database_tools</title>
<polygon fill="#343434" stroke="#343434" points="802.5,-904.3848 587.5,-904.3848 587.5,-868.3848 802.5,-868.3848 802.5,-904.3848"/>
<text text-anchor="middle" x="695" y="-882.6848" font-family="Courier,monospace" font-size="14.00" fill="#b6ecf3">hidebound.database_tools</text>
</g>
<!-- hidebound.database_tools&#45;&gt;hidebound.database -->
<g id="edge4" class="edge">
<title>hidebound.database_tools&#45;&gt;hidebound.database</title>
<path fill="none" stroke="#b6ecf3" d="M802.5211,-885.5802C900.3678,-884.8479 1043.3352,-883.778 1136.399,-883.0816"/>
<polygon fill="#b6ecf3" stroke="#b6ecf3" points="1136.6763,-886.5797 1146.6497,-883.0048 1136.6238,-879.5799 1136.6763,-886.5797"/>
</g>
<!-- hidebound.parser -->
<g id="node8" class="node">
<title>hidebound.parser</title>
<polygon fill="#343434" stroke="#343434" points="296.5,-470.3848 147.5,-470.3848 147.5,-434.3848 296.5,-434.3848 296.5,-470.3848"/>
<text text-anchor="middle" x="222" y="-448.6848" font-family="Courier,monospace" font-size="14.00" fill="#b6ecf3">hidebound.parser</text>
</g>
<!-- hidebound.parser&#45;&gt;hidebound.database_tools -->
<g id="edge5" class="edge">
<title>hidebound.parser&#45;&gt;hidebound.database_tools</title>
<path fill="none" stroke="#b6ecf3" d="M262.7766,-470.3939C282.356,-481.1772 304.2752,-496.8229 317,-517.3848 378.3895,-616.5837 272.2516,-693.19 353,-777.3848 409.9027,-836.7162 456.7462,-785.1963 535,-810.3848 577.3625,-824.0206 622.9595,-846.5262 654.5969,-863.5161"/>
<polygon fill="#b6ecf3" stroke="#b6ecf3" points="653.0831,-866.6767 663.5413,-868.3724 656.4231,-860.525 653.0831,-866.6767"/>
</g>
<!-- hidebound.specification_base -->
<g id="node9" class="node">
<title>hidebound.specification_base</title>
<polygon fill="#343434" stroke="#343434" points="819,-508.3848 571,-508.3848 571,-472.3848 819,-472.3848 819,-508.3848"/>
<text text-anchor="middle" x="695" y="-486.6848" font-family="Courier,monospace" font-size="14.00" fill="#b6ecf3">hidebound.specification_base</text>
</g>
<!-- hidebound.parser&#45;&gt;hidebound.specification_base -->
<g id="edge6" class="edge">
<title>hidebound.parser&#45;&gt;hidebound.specification_base</title>
<path fill="none" stroke="#b6ecf3" d="M296.6872,-458.3851C367.4293,-464.0684 475.2798,-472.7329 560.9214,-479.6132"/>
<polygon fill="#b6ecf3" stroke="#b6ecf3" points="560.7377,-483.1096 570.9859,-480.4217 561.2983,-476.1321 560.7377,-483.1096"/>
</g>
<!-- hidebound.validators -->
<g id="node14" class="node">
<title>hidebound.validators</title>
<polygon fill="#343434" stroke="#343434" points="535,-426.3848 353,-426.3848 353,-390.3848 535,-390.3848 535,-426.3848"/>
<text text-anchor="middle" x="444" y="-404.6848" font-family="Courier,monospace" font-size="14.00" fill="#b6ecf3">hidebound.validators</text>
</g>
<!-- hidebound.parser&#45;&gt;hidebound.validators -->
<g id="edge7" class="edge">
<title>hidebound.parser&#45;&gt;hidebound.validators</title>
<path fill="none" stroke="#b6ecf3" d="M296.5404,-437.6111C311.4198,-434.662 327.2825,-431.518 342.8828,-428.4261"/>
<polygon fill="#b6ecf3" stroke="#b6ecf3" points="343.9549,-431.7818 353.0836,-426.4043 342.5939,-424.9153 343.9549,-431.7818"/>
</g>
<!-- hidebound.specification_base&#45;&gt;hidebound.config -->
<g id="edge8" class="edge">
<title>hidebound.specification_base&#45;&gt;hidebound.config</title>
<path fill="none" stroke="#b6ecf3" d="M790.3281,-508.3902C800.3931,-512.1973 810.1642,-516.8062 819,-522.3848 840.0755,-535.6912 834.6112,-551.0484 855,-565.3848 869.7869,-575.7823 887.1408,-584.1587 904.2147,-590.7946"/>
<polygon fill="#b6ecf3" stroke="#b6ecf3" points="903.0604,-594.0995 913.6533,-594.304 905.4999,-587.5383 903.0604,-594.0995"/>
</g>
<!-- hidebound.specification_base&#45;&gt;hidebound.database -->
<g id="edge9" class="edge">
<title>hidebound.specification_base&#45;&gt;hidebound.database</title>
<path fill="none" stroke="#b6ecf3" d="M819.234,-505.658C925.4878,-521.0245 1067.8772,-547.8327 1111,-585.3848 1193.5702,-657.2885 1219.248,-794.68 1226.6864,-853.9776"/>
<polygon fill="#b6ecf3" stroke="#b6ecf3" points="1223.2333,-854.5825 1227.8727,-864.1076 1230.1857,-853.7683 1223.2333,-854.5825"/>
</g>
<!-- hidebound.specification_base&#45;&gt;hidebound.database_test_base -->
<g id="edge10" class="edge">
<title>hidebound.specification_base&#45;&gt;hidebound.database_test_base</title>
<path fill="none" stroke="#b6ecf3" d="M819.2276,-480.4639C828.9448,-479.6878 838.7844,-478.902 848.565,-478.121"/>
<polygon fill="#b6ecf3" stroke="#b6ecf3" points="849.0387,-481.5944 858.7283,-477.3093 848.4814,-474.6166 849.0387,-481.5944"/>
</g>
<!-- hidebound.specifications -->
<g id="node10" class="node">
<title>hidebound.specifications</title>
<polygon fill="#343434" stroke="#343434" points="1090.5,-310.3848 875.5,-310.3848 875.5,-274.3848 1090.5,-274.3848 1090.5,-310.3848"/>
<text text-anchor="middle" x="983" y="-288.6848" font-family="Courier,monospace" font-size="14.00" fill="#b6ecf3">hidebound.specifications</text>
</g>
<!-- hidebound.specification_base&#45;&gt;hidebound.specifications -->
<g id="edge11" class="edge">
<title>hidebound.specification_base&#45;&gt;hidebound.specifications</title>
<path fill="none" stroke="#b6ecf3" d="M721.3216,-472.2888C773.3608,-436.5118 889.4161,-356.7238 947.8929,-316.521"/>
<polygon fill="#b6ecf3" stroke="#b6ecf3" points="950.1693,-319.2033 956.4269,-310.6538 946.2036,-313.435 950.1693,-319.2033"/>
</g>
<!-- hidebound.test_specifications -->
<g id="node11" class="node">
<title>hidebound.test_specifications</title>
<polygon fill="#343434" stroke="#343434" points="1111,-180.3848 855,-180.3848 855,-144.3848 1111,-144.3848 1111,-180.3848"/>
<text text-anchor="middle" x="983" y="-158.6848" font-family="Courier,monospace" font-size="14.00" fill="#b6ecf3">hidebound.test_specifications</text>
</g>
<!-- hidebound.specification_base&#45;&gt;hidebound.test_specifications -->
<g id="edge12" class="edge">
<title>hidebound.specification_base&#45;&gt;hidebound.test_specifications</title>
<path fill="none" stroke="#b6ecf3" d="M705.5354,-472.2134C729.1887,-432.2585 789.5871,-334.8068 855,-265.3848 883.5057,-235.132 921.0357,-205.9452 948.0785,-186.4142"/>
<polygon fill="#b6ecf3" stroke="#b6ecf3" points="950.3628,-189.0838 956.4655,-180.4231 946.2939,-183.3878 950.3628,-189.0838"/>
</g>
<!-- hidebound.tools -->
<g id="node12" class="node">
<title>hidebound.tools</title>
<polygon fill="#343434" stroke="#343434" points="514,-1088.3848 374,-1088.3848 374,-1052.3848 514,-1052.3848 514,-1088.3848"/>
<text text-anchor="middle" x="444" y="-1066.6848" font-family="Courier,monospace" font-size="14.00" fill="#b6ecf3">hidebound.tools</text>
</g>
<!-- hidebound.tools&#45;&gt;hidebound.client -->
<g id="edge13" class="edge">
<title>hidebound.tools&#45;&gt;hidebound.client</title>
<path fill="none" stroke="#b6ecf3" d="M513.9828,-1088.5225C521.2119,-1091.1695 528.3414,-1094.1205 535,-1097.3848 585.1892,-1121.9899 636.4926,-1162.0358 667.041,-1187.7876"/>
<polygon fill="#b6ecf3" stroke="#b6ecf3" points="664.8358,-1190.5068 674.7178,-1194.3276 669.3753,-1185.1783 664.8358,-1190.5068"/>
</g>
<!-- hidebound.tools&#45;&gt;hidebound.database -->
<g id="edge14" class="edge">
<title>hidebound.tools&#45;&gt;hidebound.database</title>
<path fill="none" stroke="#b6ecf3" d="M514.2376,-1076.2931C665.7384,-1087.5875 1017.1263,-1105.5456 1111,-1038.3848 1146.3735,-1013.0773 1121.0219,-982.2688 1147,-947.3848 1158.8541,-931.4669 1175.5417,-917.3346 1190.8098,-906.347"/>
<polygon fill="#b6ecf3" stroke="#b6ecf3" points="1192.8964,-909.159 1199.1064,-900.5749 1188.8987,-903.4129 1192.8964,-909.159"/>
</g>
<!-- hidebound.tools&#45;&gt;hidebound.database_tools -->
<g id="edge15" class="edge">
<title>hidebound.tools&#45;&gt;hidebound.database_tools</title>
<path fill="none" stroke="#b6ecf3" d="M468.9845,-1052.0695C514.465,-1018.7292 610.7717,-948.1299 661.7439,-910.7638"/>
<polygon fill="#b6ecf3" stroke="#b6ecf3" points="664.1208,-913.3611 670.1166,-904.6261 659.9822,-907.7156 664.1208,-913.3611"/>
</g>
<!-- hidebound.tools&#45;&gt;hidebound.specification_base -->
<g id="edge16" class="edge">
<title>hidebound.tools&#45;&gt;hidebound.specification_base</title>
<path fill="none" stroke="#b6ecf3" d="M451.9265,-1052.0686C488.3376,-967.9314 639.6366,-618.3163 683.2098,-517.6291"/>
<polygon fill="#b6ecf3" stroke="#b6ecf3" points="686.4366,-518.9852 687.1962,-508.4176 680.0123,-516.205 686.4366,-518.9852"/>
</g>
<!-- hidebound.traits -->
<g id="node13" class="node">
<title>hidebound.traits</title>
<polygon fill="#343434" stroke="#343434" points="769.5,-226.3848 620.5,-226.3848 620.5,-190.3848 769.5,-190.3848 769.5,-226.3848"/>
<text text-anchor="middle" x="695" y="-204.6848" font-family="Courier,monospace" font-size="14.00" fill="#b6ecf3">hidebound.traits</text>
</g>
<!-- hidebound.traits&#45;&gt;hidebound.database_test_base -->
<g id="edge17" class="edge">
<title>hidebound.traits&#45;&gt;hidebound.database_test_base</title>
<path fill="none" stroke="#b6ecf3" d="M769.6234,-216.402C787.2888,-221.1762 805.0313,-228.6695 819,-240.3848 848.5638,-265.1794 834.168,-286.9069 855,-319.3848 885.0091,-366.1701 928.9451,-413.6077 956.7475,-441.7526"/>
<polygon fill="#b6ecf3" stroke="#b6ecf3" points="954.597,-444.5528 964.1364,-449.1628 959.5539,-439.6102 954.597,-444.5528"/>
</g>
<!-- hidebound.traits&#45;&gt;hidebound.specifications -->
<g id="edge18" class="edge">
<title>hidebound.traits&#45;&gt;hidebound.specifications</title>
<path fill="none" stroke="#b6ecf3" d="M767.6335,-226.4219C784.5414,-230.8163 802.4395,-235.6264 819,-240.3848 852.1573,-249.9122 888.7785,-261.4275 918.9886,-271.1976"/>
<polygon fill="#b6ecf3" stroke="#b6ecf3" points="917.9672,-274.5458 928.5593,-274.3037 920.1281,-267.8876 917.9672,-274.5458"/>
</g>
<!-- hidebound.traits&#45;&gt;hidebound.test_specifications -->
<g id="edge19" class="edge">
<title>hidebound.traits&#45;&gt;hidebound.test_specifications</title>
<path fill="none" stroke="#b6ecf3" d="M769.5417,-196.4789C797.2136,-192.0591 829.3853,-186.9205 860.2285,-181.9942"/>
<polygon fill="#b6ecf3" stroke="#b6ecf3" points="860.8657,-185.4368 870.1885,-180.4033 859.7616,-178.5244 860.8657,-185.4368"/>
</g>
<!-- hidebound.validators&#45;&gt;hidebound.config -->
<g id="edge20" class="edge">
<title>hidebound.validators&#45;&gt;hidebound.config</title>
<path fill="none" stroke="#b6ecf3" d="M459.7051,-426.4914C481.9596,-450.9611 525.0999,-494.1875 571,-517.3848 676.398,-570.6516 812.0367,-594.4874 898.282,-604.8464"/>
<polygon fill="#b6ecf3" stroke="#b6ecf3" points="897.9508,-608.3315 908.2892,-606.0145 898.7624,-601.3787 897.9508,-608.3315"/>
</g>
<!-- hidebound.validators&#45;&gt;hidebound.database_test_base -->
<g id="edge21" class="edge">
<title>hidebound.validators&#45;&gt;hidebound.database_test_base</title>
<path fill="none" stroke="#b6ecf3" d="M535.1291,-418.36C621.0339,-427.7633 750.8251,-441.9705 848.607,-452.6739"/>
<polygon fill="#b6ecf3" stroke="#b6ecf3" points="848.2437,-456.155 858.5652,-453.7639 849.0054,-449.1965 848.2437,-456.155"/>
</g>
<!-- hidebound.validators&#45;&gt;hidebound.specification_base -->
<g id="edge22" class="edge">
<title>hidebound.validators&#45;&gt;hidebound.specification_base</title>
<path fill="none" stroke="#b6ecf3" d="M489.8491,-426.5104C525.3595,-440.537 568.88,-457.6968 571,-458.3848 583.2175,-462.3498 596.236,-466.155 609.0716,-469.6705"/>
<polygon fill="#b6ecf3" stroke="#b6ecf3" points="608.269,-473.0789 618.8351,-472.3002 610.0895,-466.3198 608.269,-473.0789"/>
</g>
<!-- hidebound.validators&#45;&gt;hidebound.specifications -->
<g id="edge23" class="edge">
<title>hidebound.validators&#45;&gt;hidebound.specifications</title>
<path fill="none" stroke="#b6ecf3" d="M527.9229,-390.3235C625.8555,-369.2471 787.3437,-334.4927 889.2926,-312.5519"/>
<polygon fill="#b6ecf3" stroke="#b6ecf3" points="890.2348,-315.9294 899.2746,-310.4037 888.762,-309.086 890.2348,-315.9294"/>
</g>
<!-- hidebound.validators&#45;&gt;hidebound.test_specifications -->
<g id="edge24" class="edge">
<title>hidebound.validators&#45;&gt;hidebound.test_specifications</title>
<path fill="none" stroke="#b6ecf3" d="M472.4096,-390.111C492.8178,-375.5248 519.382,-353.2859 535,-327.3848 569.5106,-270.1521 519.3523,-223.8004 571,-181.3848 611.6659,-147.988 741.4474,-146.6772 844.6093,-151.6173"/>
<polygon fill="#b6ecf3" stroke="#b6ecf3" points="844.6591,-155.1241 854.8222,-152.1307 845.0106,-148.133 844.6591,-155.1241"/>
</g>
<!-- dash -->
<g id="node15" class="node">
<title>dash</title>
<polygon fill="#343434" stroke="#343434" points="471,-1358.3848 417,-1358.3848 417,-1322.3848 471,-1322.3848 471,-1358.3848"/>
<text text-anchor="middle" x="444" y="-1336.6848" font-family="Courier,monospace" font-size="14.00" fill="#de958e">dash</text>
</g>
<!-- dash&#45;&gt;hidebound.client -->
<g id="edge25" class="edge">
<title>dash&#45;&gt;hidebound.client</title>
<path fill="none" stroke="#de958e" d="M471.3805,-1334.3507C489.8228,-1329.7862 514.4388,-1322.7092 535,-1313.3848 581.8979,-1292.1169 631.3556,-1259.0236 662.6526,-1236.5623"/>
<polygon fill="#de958e" stroke="#de958e" points="664.937,-1239.2293 670.9812,-1230.5276 660.8298,-1233.5609 664.937,-1239.2293"/>
</g>
<!-- dash_core_components -->
<g id="node16" class="node">
<title>dash_core_components</title>
<polygon fill="#343434" stroke="#343434" points="535,-1304.3848 353,-1304.3848 353,-1268.3848 535,-1268.3848 535,-1304.3848"/>
<text text-anchor="middle" x="444" y="-1282.6848" font-family="Courier,monospace" font-size="14.00" fill="#de958e">dash_core_components</text>
</g>
<!-- dash_core_components&#45;&gt;hidebound.client -->
<g id="edge26" class="edge">
<title>dash_core_components&#45;&gt;hidebound.client</title>
<path fill="none" stroke="#de958e" d="M505.0805,-1268.377C540.9132,-1257.8128 586.3586,-1244.4145 623.8096,-1233.3732"/>
<polygon fill="#de958e" stroke="#de958e" points="625.0435,-1236.6585 633.6455,-1230.4734 623.0639,-1229.9442 625.0435,-1236.6585"/>
</g>
<!-- dash_html_components -->
<g id="node17" class="node">
<title>dash_html_components</title>
<polygon fill="#343434" stroke="#343434" points="535,-1250.3848 353,-1250.3848 353,-1214.3848 535,-1214.3848 535,-1250.3848"/>
<text text-anchor="middle" x="444" y="-1228.6848" font-family="Courier,monospace" font-size="14.00" fill="#de958e">dash_html_components</text>
</g>
<!-- dash_html_components&#45;&gt;hidebound.client -->
<g id="edge27" class="edge">
<title>dash_html_components&#45;&gt;hidebound.client</title>
<path fill="none" stroke="#de958e" d="M535.3268,-1225.1078C559.7339,-1223.163 586.0077,-1221.0695 610.0555,-1219.1533"/>
<polygon fill="#de958e" stroke="#de958e" points="610.5231,-1222.6272 620.2135,-1218.3439 609.9671,-1215.6494 610.5231,-1222.6272"/>
</g>
<!-- flasgger -->
<g id="node18" class="node">
<title>flasgger</title>
<polygon fill="#343434" stroke="#343434" points="485.5,-1142.3848 402.5,-1142.3848 402.5,-1106.3848 485.5,-1106.3848 485.5,-1142.3848"/>
<text text-anchor="middle" x="444" y="-1120.6848" font-family="Courier,monospace" font-size="14.00" fill="#de958e">flasgger</text>
</g>
<!-- flasgger&#45;&gt;hidebound.app -->
<g id="edge28" class="edge">
<title>flasgger&#45;&gt;hidebound.app</title>
<path fill="none" stroke="#de958e" d="M485.8887,-1127.4586C613.3945,-1135.4785 1006.6885,-1150.2977 1312,-1055.3848 1334.3181,-1048.4467 1357.304,-1036.1029 1375.4006,-1024.9669"/>
<polygon fill="#de958e" stroke="#de958e" points="1377.2767,-1027.9217 1383.8672,-1019.6261 1373.542,-1022.0011 1377.2767,-1027.9217"/>
</g>
<!-- flasgger&#45;&gt;hidebound.client -->
<g id="edge29" class="edge">
<title>flasgger&#45;&gt;hidebound.client</title>
<path fill="none" stroke="#de958e" d="M485.8874,-1136.0916C501.3976,-1140.6155 519.0782,-1145.9963 535,-1151.3848 570.5729,-1163.4239 609.9995,-1178.4354 640.8139,-1190.554"/>
<polygon fill="#de958e" stroke="#de958e" points="639.9136,-1193.9615 650.5002,-1194.3796 642.485,-1187.4509 639.9136,-1193.9615"/>
</g>
<!-- jinja2 -->
<g id="node19" class="node">
<title>jinja2</title>
<polygon fill="#343434" stroke="#343434" points="477,-1196.3848 411,-1196.3848 411,-1160.3848 477,-1160.3848 477,-1196.3848"/>
<text text-anchor="middle" x="444" y="-1174.6848" font-family="Courier,monospace" font-size="14.00" fill="#de958e">jinja2</text>
</g>
<!-- jinja2&#45;&gt;hidebound.client -->
<g id="edge30" class="edge">
<title>jinja2&#45;&gt;hidebound.client</title>
<path fill="none" stroke="#de958e" d="M477.072,-1182.8647C510.8674,-1187.4426 564.7283,-1194.7385 610.4471,-1200.9314"/>
<polygon fill="#de958e" stroke="#de958e" points="609.989,-1204.4013 620.3683,-1202.2754 610.9287,-1197.4646 609.989,-1204.4013"/>
</g>
<!-- dash.dependencies -->
<g id="node20" class="node">
<title>dash.dependencies</title>
<polygon fill="#343434" stroke="#343434" points="1308,-1046.3848 1151,-1046.3848 1151,-1010.3848 1308,-1010.3848 1308,-1046.3848"/>
<text text-anchor="middle" x="1229.5" y="-1024.6848" font-family="Courier,monospace" font-size="14.00" fill="#de958e">dash.dependencies</text>
</g>
<!-- dash.dependencies&#45;&gt;hidebound.app -->
<g id="edge31" class="edge">
<title>dash.dependencies&#45;&gt;hidebound.app</title>
<path fill="none" stroke="#de958e" d="M1308.1449,-1016.6208C1318.0162,-1015.1442 1328.0758,-1013.6394 1337.8408,-1012.1787"/>
<polygon fill="#de958e" stroke="#de958e" points="1338.5179,-1015.6165 1347.89,-1010.6755 1337.4823,-1008.6935 1338.5179,-1015.6165"/>
</g>
<!-- flask -->
<g id="node21" class="node">
<title>flask</title>
<polygon fill="#343434" stroke="#343434" points="1258.5,-992.3848 1200.5,-992.3848 1200.5,-956.3848 1258.5,-956.3848 1258.5,-992.3848"/>
<text text-anchor="middle" x="1229.5" y="-970.6848" font-family="Courier,monospace" font-size="14.00" fill="#de958e">flask</text>
</g>
<!-- flask&#45;&gt;hidebound.app -->
<g id="edge32" class="edge">
<title>flask&#45;&gt;hidebound.app</title>
<path fill="none" stroke="#de958e" d="M1258.5004,-978.7228C1279.8904,-981.9224 1309.9715,-986.4221 1337.6976,-990.5695"/>
<polygon fill="#de958e" stroke="#de958e" points="1337.3776,-994.0605 1347.7854,-992.0785 1338.4133,-987.1375 1337.3776,-994.0605"/>
</g>
<!-- pandasql -->
<g id="node22" class="node">
<title>pandasql</title>
<polygon fill="#343434" stroke="#343434" points="1024.5,-946.3848 941.5,-946.3848 941.5,-910.3848 1024.5,-910.3848 1024.5,-946.3848"/>
<text text-anchor="middle" x="983" y="-924.6848" font-family="Courier,monospace" font-size="14.00" fill="#de958e">pandasql</text>
</g>
<!-- pandasql&#45;&gt;hidebound.database -->
<g id="edge33" class="edge">
<title>pandasql&#45;&gt;hidebound.database</title>
<path fill="none" stroke="#de958e" d="M1024.5366,-920.6336C1055.1432,-914.922 1097.9855,-906.9271 1136.5925,-899.7225"/>
<polygon fill="#de958e" stroke="#de958e" points="1137.641,-903.0874 1146.8292,-897.8122 1136.3568,-896.2062 1137.641,-903.0874"/>
</g>
<!-- numpy -->
<g id="node23" class="node">
<title>numpy</title>
<polygon fill="#343434" stroke="#343434" points="473,-768.3848 415,-768.3848 415,-732.3848 473,-732.3848 473,-768.3848"/>
<text text-anchor="middle" x="444" y="-746.6848" font-family="Courier,monospace" font-size="14.00" fill="#de958e">numpy</text>
</g>
<!-- numpy&#45;&gt;hidebound.app -->
<g id="edge34" class="edge">
<title>numpy&#45;&gt;hidebound.app</title>
<path fill="none" stroke="#de958e" d="M473.2584,-749.42C567.0053,-746.8957 867.9886,-743.1942 1111,-789.3848 1203.3722,-806.9426 1237.0595,-798.5975 1312,-855.3848 1353.4545,-886.7976 1383.1376,-941.0656 1398.3564,-973.8536"/>
<polygon fill="#de958e" stroke="#de958e" points="1395.3105,-975.6135 1402.6121,-983.2906 1401.6917,-972.7358 1395.3105,-975.6135"/>
</g>
<!-- numpy&#45;&gt;hidebound.database -->
<g id="edge35" class="edge">
<title>numpy&#45;&gt;hidebound.database</title>
<path fill="none" stroke="#de958e" d="M473.0562,-757.9067C498.6686,-764.2688 537.0813,-773.1603 571,-778.3848 809.1379,-815.0651 878.4684,-763.2645 1111,-826.3848 1138.5999,-833.8768 1167.6618,-847.5102 1190.0977,-859.449"/>
<polygon fill="#de958e" stroke="#de958e" points="1188.5143,-862.5719 1198.9727,-864.2667 1191.8539,-856.4198 1188.5143,-862.5719"/>
</g>
<!-- numpy&#45;&gt;hidebound.database_test_base -->
<g id="edge36" class="edge">
<title>numpy&#45;&gt;hidebound.database_test_base</title>
<path fill="none" stroke="#de958e" d="M473.2965,-740.3281C537.9153,-717.5964 696.6456,-658.7196 819,-588.3848 869.1238,-559.5714 922.0749,-518.2449 953.8239,-492.1174"/>
<polygon fill="#de958e" stroke="#de958e" points="956.3452,-494.5735 961.8102,-485.4969 951.8778,-489.1844 956.3452,-494.5735"/>
</g>
<!-- numpy&#45;&gt;hidebound.database_tools -->
<g id="edge37" class="edge">
<title>numpy&#45;&gt;hidebound.database_tools</title>
<path fill="none" stroke="#de958e" d="M473.2482,-757.3016C491.8045,-762.4833 515.8392,-770.7033 535,-782.3848 553.7911,-793.8409 553.287,-803.3236 571,-816.3848 595.3471,-834.338 624.7502,-851.1217 648.8129,-863.752"/>
<polygon fill="#de958e" stroke="#de958e" points="647.2628,-866.8907 657.752,-868.3831 650.4829,-860.6753 647.2628,-866.8907"/>
</g>
<!-- hidebound -->
<g id="node24" class="node">
<title>hidebound</title>
<polygon fill="#343434" stroke="#343434" points="91,-608.3848 0,-608.3848 0,-572.3848 91,-572.3848 91,-608.3848"/>
<text text-anchor="middle" x="45.5" y="-586.6848" font-family="Courier,monospace" font-size="14.00" fill="#a0d17b">hidebound</text>
</g>
<!-- hidebound&#45;&gt;hidebound.app -->
<g id="edge38" class="edge">
<title>hidebound&#45;&gt;hidebound.app</title>
<path fill="none" stroke="#a0d17b" d="M45.7904,-608.659C47.5754,-702.5017 59.3578,-1130.1087 127,-1240.3848 212.1759,-1379.2457 281.0973,-1424.3848 444,-1424.3848 444,-1424.3848 444,-1424.3848 983,-1424.3848 1208.5232,-1424.3848 1357.595,-1122.8965 1398.5628,-1028.9759"/>
<polygon fill="#a0d17b" stroke="#a0d17b" points="1401.8762,-1030.1301 1402.6089,-1019.5606 1395.4449,-1027.3662 1401.8762,-1030.1301"/>
</g>
<!-- hidebound&#45;&gt;hidebound.client -->
<g id="edge39" class="edge">
<title>hidebound&#45;&gt;hidebound.client</title>
<path fill="none" stroke="#a0d17b" d="M47.0253,-608.471C54.0031,-688.8212 84.3821,-1013.5169 127,-1105.3848 191.7148,-1244.8853 213.188,-1303.3457 353,-1367.3848 426.5415,-1401.0696 460.0251,-1397.7456 535,-1367.3848 599.2161,-1341.3807 651.9068,-1275.8719 677.7577,-1238.8793"/>
<polygon fill="#a0d17b" stroke="#a0d17b" points="680.6874,-1240.7957 683.4497,-1230.5672 674.9118,-1236.8406 680.6874,-1240.7957"/>
</g>
<!-- hidebound&#45;&gt;hidebound.config -->
<g id="edge40" class="edge">
<title>hidebound&#45;&gt;hidebound.config</title>
<path fill="none" stroke="#a0d17b" d="M91.0367,-607.4698C150.3463,-628.7747 257.7189,-664.127 353,-678.3848 557.8381,-709.0368 616.0805,-723.8799 819,-682.3848 863.0296,-673.3812 909.8607,-652.0792 942.1575,-635.3221"/>
<polygon fill="#a0d17b" stroke="#a0d17b" points="944.069,-638.2709 951.2802,-630.5088 940.8025,-632.0798 944.069,-638.2709"/>
</g>
<!-- hidebound&#45;&gt;hidebound.database -->
<g id="edge41" class="edge">
<title>hidebound&#45;&gt;hidebound.database</title>
<path fill="none" stroke="#a0d17b" d="M63.9197,-608.4002C79.8145,-623.3912 103.8094,-644.7338 127,-660.3848 220.7532,-723.6575 244.8941,-744.1253 353,-777.3848 497.8968,-821.9633 942.2977,-860.3489 1136.759,-875.4906"/>
<polygon fill="#a0d17b" stroke="#a0d17b" points="1136.7134,-878.9974 1146.9541,-876.2809 1137.2545,-872.0184 1136.7134,-878.9974"/>
</g>
<!-- hidebound&#45;&gt;hidebound.database_test_base -->
<g id="edge42" class="edge">
<title>hidebound&#45;&gt;hidebound.database_test_base</title>
<path fill="none" stroke="#a0d17b" d="M91.3388,-589.4839C211.7985,-586.3815 546.7613,-573.0075 819,-517.3848 853.9997,-510.2338 892.2262,-498.7991 922.9622,-488.6685"/>
<polygon fill="#a0d17b" stroke="#a0d17b" points="924.2858,-491.9167 932.6646,-485.4323 922.0709,-485.2763 924.2858,-491.9167"/>
</g>
<!-- hidebound&#45;&gt;hidebound.database_tools -->
<g id="edge43" class="edge">
<title>hidebound&#45;&gt;hidebound.database_tools</title>
<path fill="none" stroke="#a0d17b" d="M48.5569,-608.6605C57.9329,-662.3542 88.0277,-817.7736 127,-848.3848 194.4095,-901.3325 431.249,-899.9736 576.9627,-893.5935"/>
<polygon fill="#a0d17b" stroke="#a0d17b" points="577.4614,-897.0746 587.293,-893.1261 577.145,-890.0817 577.4614,-897.0746"/>
</g>
<!-- hidebound&#45;&gt;hidebound.parser -->
<g id="edge44" class="edge">
<title>hidebound&#45;&gt;hidebound.parser</title>
<path fill="none" stroke="#a0d17b" d="M54.8852,-572.3546C67.9943,-548.8578 93.9401,-507.9924 127,-484.3848 131.8996,-480.8861 137.2098,-477.7486 142.7301,-474.9386"/>
<polygon fill="#a0d17b" stroke="#a0d17b" points="144.6108,-477.9228 152.1834,-470.5128 141.6427,-471.5831 144.6108,-477.9228"/>
</g>
<!-- hidebound&#45;&gt;hidebound.specification_base -->
<g id="edge45" class="edge">
<title>hidebound&#45;&gt;hidebound.specification_base</title>
<path fill="none" stroke="#a0d17b" d="M59.423,-572.1497C74.0724,-554.5449 98.8777,-528.9107 127,-517.3848 202.6029,-486.399 417.907,-484.1953 560.6451,-486.5078"/>
<polygon fill="#a0d17b" stroke="#a0d17b" points="560.7354,-490.0098 570.7939,-486.6818 560.8554,-483.0108 560.7354,-490.0098"/>
</g>
<!-- hidebound&#45;&gt;hidebound.specifications -->
<g id="edge46" class="edge">
<title>hidebound&#45;&gt;hidebound.specifications</title>
<path fill="none" stroke="#a0d17b" d="M48.897,-572.1632C62.5722,-499.2211 113.5069,-231.6246 127,-219.3848 355.1402,-12.4363 524.5119,-91.0942 819,-181.3848 873.615,-198.1299 926.42,-239.8968 956.7584,-267.1518"/>
<polygon fill="#a0d17b" stroke="#a0d17b" points="954.5968,-269.9178 964.3387,-274.0826 959.3202,-264.7517 954.5968,-269.9178"/>
</g>
<!-- hidebound&#45;&gt;hidebound.test_specifications -->
<g id="edge47" class="edge">
<title>hidebound&#45;&gt;hidebound.test_specifications</title>
<path fill="none" stroke="#a0d17b" d="M49.0091,-572.2986C56.9203,-531.2931 76.5801,-428.0838 91,-341.3848 99.8482,-288.1856 87.404,-137.999 127,-101.3848 360.111,114.1717 798.2866,-71.4155 938.5866,-139.6635"/>
<polygon fill="#a0d17b" stroke="#a0d17b" points="937.2606,-142.9115 947.7797,-144.1758 940.3449,-136.6276 937.2606,-142.9115"/>
</g>
<!-- hidebound&#45;&gt;hidebound.tools -->
<g id="edge48" class="edge">
<title>hidebound&#45;&gt;hidebound.tools</title>
<path fill="none" stroke="#a0d17b" d="M46.3565,-608.6866C50.1842,-682.2632 68.202,-955.3132 127,-1013.3848 135.4603,-1021.7406 272.6681,-1044.1629 363.7712,-1058.2662"/>
<polygon fill="#a0d17b" stroke="#a0d17b" points="363.3964,-1061.7497 373.8133,-1059.816 364.4642,-1054.8316 363.3964,-1061.7497"/>
</g>
<!-- hidebound&#45;&gt;hidebound.traits -->
<g id="edge49" class="edge">
<title>hidebound&#45;&gt;hidebound.traits</title>
<path fill="none" stroke="#a0d17b" d="M46.5336,-572.2156C50.0245,-526.7066 64.9432,-406.266 127,-333.3848 246.1818,-193.4145 483.1416,-189.3131 610.0659,-198.6179"/>
<polygon fill="#a0d17b" stroke="#a0d17b" points="609.8897,-202.1146 620.131,-199.4009 610.4327,-195.1357 609.8897,-202.1146"/>
</g>
<!-- hidebound&#45;&gt;hidebound.validators -->
<g id="edge50" class="edge">
<title>hidebound&#45;&gt;hidebound.validators</title>
<path fill="none" stroke="#a0d17b" d="M48.3677,-572.3138C55.0258,-537.0623 75.1156,-459.5853 127,-425.3848 161.3652,-402.7324 263.5393,-400.7259 342.6985,-402.9849"/>
<polygon fill="#a0d17b" stroke="#a0d17b" points="342.618,-406.484 352.722,-403.2969 342.8358,-399.4874 342.618,-406.484"/>
</g>
<!-- pandas -->
<g id="node25" class="node">
<title>pandas</title>
<polygon fill="#343434" stroke="#343434" points="255,-1004.3848 189,-1004.3848 189,-968.3848 255,-968.3848 255,-1004.3848"/>
<text text-anchor="middle" x="222" y="-982.6848" font-family="Courier,monospace" font-size="14.00" fill="#de958e">pandas</text>
</g>
<!-- pandas&#45;&gt;hidebound.database -->
<g id="edge51" class="edge">
<title>pandas&#45;&gt;hidebound.database</title>
<path fill="none" stroke="#de958e" d="M255.0438,-990.5769C281.4911,-993.7115 319.5587,-997.7296 353,-999.3848 433.79,-1003.3837 454.1699,-1002.4676 535,-999.3848 791.5593,-989.5999 866.8221,-1034.7295 1111,-955.3848 1143.6036,-944.7904 1176.4651,-923.5179 1199.2849,-906.6567"/>
<polygon fill="#de958e" stroke="#de958e" points="1201.6451,-909.2604 1207.5177,-900.442 1197.4277,-903.6734 1201.6451,-909.2604"/>
</g>
<!-- pandas&#45;&gt;hidebound.database_test_base -->
<g id="edge52" class="edge">
<title>pandas&#45;&gt;hidebound.database_test_base</title>
<path fill="none" stroke="#de958e" d="M255.0559,-987.5427C368.7236,-990.7694 740.8176,-994.8361 819,-913.3848 869.7774,-860.4844 821.9436,-650.8376 855,-585.3848 875.152,-545.4831 914.7426,-512.3008 944.5848,-491.3921"/>
<polygon fill="#de958e" stroke="#de958e" points="946.8292,-494.0975 953.1091,-485.5645 942.8786,-488.3189 946.8292,-494.0975"/>
</g>
<!-- pandas&#45;&gt;hidebound.database_tools -->
<g id="edge53" class="edge">
<title>pandas&#45;&gt;hidebound.database_tools</title>
<path fill="none" stroke="#de958e" d="M255.4381,-980.1892C312.7805,-969.4688 433.5097,-946.4804 535,-924.3848 559.8866,-918.9667 586.8579,-912.7103 611.4389,-906.8577"/>
<polygon fill="#de958e" stroke="#de958e" points="612.5387,-910.1935 621.4513,-904.4649 610.9116,-903.3853 612.5387,-910.1935"/>
</g>
<!-- pandas&#45;&gt;hidebound.tools -->
<g id="edge54" class="edge">
<title>pandas&#45;&gt;hidebound.tools</title>
<path fill="none" stroke="#de958e" d="M255.0957,-995.9044C273.6147,-1001.633 296.9417,-1009.5234 317,-1018.3848 333.7423,-1025.7813 336.307,-1030.8777 353,-1038.3848 360.99,-1041.9781 369.5144,-1045.439 378.0212,-1048.6717"/>
<polygon fill="#de958e" stroke="#de958e" points="376.9958,-1052.0242 387.5888,-1052.2194 379.4295,-1045.4609 376.9958,-1052.0242"/>
</g>
<!-- humanfriendly -->
<g id="node26" class="node">
<title>humanfriendly</title>
<polygon fill="#343434" stroke="#343434" points="284,-1096.3848 160,-1096.3848 160,-1060.3848 284,-1060.3848 284,-1096.3848"/>
<text text-anchor="middle" x="222" y="-1074.6848" font-family="Courier,monospace" font-size="14.00" fill="#de958e">humanfriendly</text>
</g>
<!-- humanfriendly&#45;&gt;hidebound.tools -->
<g id="edge55" class="edge">
<title>humanfriendly&#45;&gt;hidebound.tools</title>
<path fill="none" stroke="#de958e" d="M284.1346,-1076.1457C308.7077,-1075.2602 337.2729,-1074.2308 363.4025,-1073.2892"/>
<polygon fill="#de958e" stroke="#de958e" points="363.7969,-1076.7774 373.6643,-1072.9194 363.5447,-1069.7819 363.7969,-1076.7774"/>
</g>
<!-- schematics.exceptions -->
<g id="node27" class="node">
<title>schematics.exceptions</title>
<polygon fill="#343434" stroke="#343434" points="317,-562.3848 127,-562.3848 127,-526.3848 317,-526.3848 317,-562.3848"/>
<text text-anchor="middle" x="222" y="-540.6848" font-family="Courier,monospace" font-size="14.00" fill="#de958e">schematics.exceptions</text>
</g>
<!-- schematics.exceptions&#45;&gt;hidebound.app -->
<g id="edge56" class="edge">
<title>schematics.exceptions&#45;&gt;hidebound.app</title>
<path fill="none" stroke="#de958e" d="M262.7766,-526.3757C282.356,-515.5925 304.2752,-499.9467 317,-479.3848 378.3895,-380.1859 286.711,-315.3789 353,-219.3848 445.6728,-85.184 531.9107,-86.3848 695,-86.3848 695,-86.3848 695,-86.3848 983,-86.3848 1043.9148,-86.3848 1068.6466,-91.6035 1111,-135.3848 1356.5847,-389.249 1401.0929,-854.3235 1408.5772,-973.1539"/>
<polygon fill="#de958e" stroke="#de958e" points="1405.0902,-973.478 1409.1749,-983.2537 1412.0779,-973.0644 1405.0902,-973.478"/>
</g>
<!-- schematics.exceptions&#45;&gt;hidebound.config -->
<g id="edge57" class="edge">
<title>schematics.exceptions&#45;&gt;hidebound.config</title>
<path fill="none" stroke="#de958e" d="M237.5195,-562.5536C260.011,-587.3261 304.3341,-630.5439 353,-647.3848 546.828,-714.4593 794.136,-664.6956 913.0092,-633.1223"/>
<polygon fill="#de958e" stroke="#de958e" points="913.9802,-636.4856 922.7261,-630.5057 912.1599,-629.7264 913.9802,-636.4856"/>
</g>
<!-- schematics.exceptions&#45;&gt;hidebound.database_tools -->
<g id="edge58" class="edge">
<title>schematics.exceptions&#45;&gt;hidebound.database_tools</title>
<path fill="none" stroke="#de958e" d="M225.3514,-562.6547C235.2728,-611.2672 269.2089,-744.5549 353,-810.3848 416.2509,-860.0775 505.4193,-878.7105 576.8487,-885.1128"/>
<polygon fill="#de958e" stroke="#de958e" points="576.9997,-888.6371 587.2536,-885.9709 577.5751,-881.6608 576.9997,-888.6371"/>
</g>
<!-- schematics.exceptions&#45;&gt;hidebound.specification_base -->
<g id="edge59" class="edge">
<title>schematics.exceptions&#45;&gt;hidebound.specification_base</title>
<path fill="none" stroke="#de958e" d="M317.2947,-535.5096C379.3585,-529.5154 462.0532,-521.1261 535,-512.3848 543.3041,-511.3897 551.8453,-510.3278 560.4555,-509.2283"/>
<polygon fill="#de958e" stroke="#de958e" points="561.1147,-512.6723 570.5848,-507.9219 560.2193,-505.7298 561.1147,-512.6723"/>
</g>
<!-- schematics.exceptions&#45;&gt;hidebound.tools -->
<g id="edge60" class="edge">
<title>schematics.exceptions&#45;&gt;hidebound.tools</title>
<path fill="none" stroke="#de958e" d="M228.2377,-562.425C246.1224,-613.7349 299.7204,-764.6477 353,-886.3848 377.8154,-943.0848 410.8423,-1007.5367 429.5184,-1043.1274"/>
<polygon fill="#de958e" stroke="#de958e" points="426.6296,-1045.1534 434.3867,-1052.37 432.823,-1041.8912 426.6296,-1045.1534"/>
</g>
<!-- schematics.exceptions&#45;&gt;hidebound.validators -->
<g id="edge61" class="edge">
<title>schematics.exceptions&#45;&gt;hidebound.validators</title>
<path fill="none" stroke="#de958e" d="M251.4799,-526.3251C291.2037,-501.9897 361.9716,-458.6365 405.7527,-431.8156"/>
<polygon fill="#de958e" stroke="#de958e" points="407.6994,-434.7276 414.3982,-426.5193 404.0427,-428.7586 407.6994,-434.7276"/>
</g>
<!-- pyparsing -->
<g id="node28" class="node">
<title>pyparsing</title>
<polygon fill="#343434" stroke="#343434" points="91,-332.3848 0,-332.3848 0,-296.3848 91,-296.3848 91,-332.3848"/>
<text text-anchor="middle" x="45.5" y="-310.6848" font-family="Courier,monospace" font-size="14.00" fill="#de958e">pyparsing</text>
</g>
<!-- pyparsing&#45;&gt;hidebound.parser -->
<g id="edge62" class="edge">
<title>pyparsing&#45;&gt;hidebound.parser</title>
<path fill="none" stroke="#de958e" d="M64.3174,-332.5214C80.4548,-347.7577 104.5826,-369.7975 127,-387.3848 145.5112,-401.9076 167.0891,-416.8204 184.9976,-428.6927"/>
<polygon fill="#de958e" stroke="#de958e" points="183.1866,-431.6907 193.4648,-434.2617 187.0332,-425.8423 183.1866,-431.6907"/>
</g>
<!-- pyparsing&#45;&gt;hidebound.specification_base -->
<g id="edge63" class="edge">
<title>pyparsing&#45;&gt;hidebound.specification_base</title>
<path fill="none" stroke="#de958e" d="M91.2599,-304.0516C146.1178,-293.6166 240.2597,-281.9633 317,-304.3848 335.2247,-309.7096 335.7297,-319.4961 353,-327.3848 429.7468,-362.4411 466.6666,-331.8918 535,-381.3848 557.7652,-397.8733 549.4659,-415.3181 571,-433.3848 588.3932,-447.9774 610.1391,-459.6319 630.5422,-468.5033"/>
<polygon fill="#de958e" stroke="#de958e" points="629.226,-471.7465 639.8016,-472.384 631.9318,-465.2906 629.226,-471.7465"/>
</g>
<!-- pyparsing&#45;&gt;hidebound.validators -->
<g id="edge64" class="edge">
<title>pyparsing&#45;&gt;hidebound.validators</title>
<path fill="none" stroke="#de958e" d="M91.3497,-309.8811C146.7019,-306.1619 241.7296,-305.3374 317,-333.3848 335.7412,-340.3682 336.1023,-349.6859 353,-360.3848 366.9888,-369.2419 382.7781,-377.9781 397.23,-385.5197"/>
<polygon fill="#de958e" stroke="#de958e" points="396.0085,-388.8274 406.5015,-390.2924 399.2123,-382.6036 396.0085,-388.8274"/>
</g>
<!-- schematics -->
<g id="node29" class="node">
<title>schematics</title>
<polygon fill="#343434" stroke="#343434" points="493.5,-638.3848 394.5,-638.3848 394.5,-602.3848 493.5,-602.3848 493.5,-638.3848"/>
<text text-anchor="middle" x="444" y="-616.6848" font-family="Courier,monospace" font-size="14.00" fill="#de958e">schematics</text>
</g>
<!-- schematics&#45;&gt;hidebound.config -->
<g id="edge65" class="edge">
<title>schematics&#45;&gt;hidebound.config</title>
<path fill="none" stroke="#de958e" d="M493.7417,-619.6465C585.9523,-618.2779 784.3675,-615.333 898.1643,-613.644"/>
<polygon fill="#de958e" stroke="#de958e" points="898.2845,-617.1427 908.2314,-613.4946 898.1805,-610.1435 898.2845,-617.1427"/>
</g>
<!-- schematics&#45;&gt;hidebound.specification_base -->
<g id="edge66" class="edge">
<title>schematics&#45;&gt;hidebound.specification_base</title>
<path fill="none" stroke="#de958e" d="M478.9005,-602.3089C523.8247,-579.0413 601.9133,-538.597 650.9001,-513.2254"/>
<polygon fill="#de958e" stroke="#de958e" points="652.7222,-516.2233 659.9922,-508.5163 649.5029,-510.0075 652.7222,-516.2233"/>
</g>
<!-- schematics.types -->
<g id="node30" class="node">
<title>schematics.types</title>
<polygon fill="#343434" stroke="#343434" points="518.5,-318.3848 369.5,-318.3848 369.5,-282.3848 518.5,-282.3848 518.5,-318.3848"/>
<text text-anchor="middle" x="444" y="-296.6848" font-family="Courier,monospace" font-size="14.00" fill="#de958e">schematics.types</text>
</g>
<!-- schematics.types&#45;&gt;hidebound.config -->
<g id="edge67" class="edge">
<title>schematics.types&#45;&gt;hidebound.config</title>
<path fill="none" stroke="#de958e" d="M509.1943,-318.5589C518.2414,-322.4168 527.1224,-326.9937 535,-332.3848 555.2891,-346.27 550.7555,-360.4347 571,-374.3848 667.428,-440.8319 718.6203,-403.0731 819,-463.3848 826.7378,-468.034 911.3181,-545.9893 955.8805,-587.2378"/>
<polygon fill="#de958e" stroke="#de958e" points="953.7339,-590.0202 963.4492,-594.2468 958.4902,-584.8842 953.7339,-590.0202"/>
</g>
<!-- schematics.types&#45;&gt;hidebound.database_test_base -->
<g id="edge68" class="edge">
<title>schematics.types&#45;&gt;hidebound.database_test_base</title>
<path fill="none" stroke="#de958e" d="M518.8409,-314.4128C595.4027,-329.7653 717.223,-356.9824 819,-392.3848 860.9854,-406.9892 906.8465,-428.4644 939.369,-444.6965"/>
<polygon fill="#de958e" stroke="#de958e" points="938.0876,-447.9698 948.5937,-449.3385 941.2342,-441.7169 938.0876,-447.9698"/>
</g>
<!-- schematics.types&#45;&gt;hidebound.specification_base -->
<g id="edge69" class="edge">
<title>schematics.types&#45;&gt;hidebound.specification_base</title>
<path fill="none" stroke="#de958e" d="M515.066,-318.4604C522.3353,-322.2578 529.1751,-326.8451 535,-332.3848 565.6206,-361.5063 543.0538,-388.688 571,-420.3848 589.0413,-440.8474 614.5697,-456.6757 637.7781,-468.0628"/>
<polygon fill="#de958e" stroke="#de958e" points="636.3382,-471.2535 646.8748,-472.3632 639.3299,-464.925 636.3382,-471.2535"/>
</g>
<!-- schematics.types&#45;&gt;hidebound.specifications -->
<g id="edge70" class="edge">
<title>schematics.types&#45;&gt;hidebound.specifications</title>
<path fill="none" stroke="#de958e" d="M518.6625,-299.2767C608.2613,-297.9468 759.5841,-295.7008 865.0408,-294.1356"/>
<polygon fill="#de958e" stroke="#de958e" points="865.1526,-297.6344 875.0995,-293.9863 865.0487,-290.6352 865.1526,-297.6344"/>
</g>
<!-- schematics.types&#45;&gt;hidebound.test_specifications -->
<g id="edge71" class="edge">
<title>schematics.types&#45;&gt;hidebound.test_specifications</title>
<path fill="none" stroke="#de958e" d="M518.6764,-285.3905C524.6732,-282.1343 530.2416,-278.1815 535,-273.3848 575.7162,-232.3408 524.8078,-183.1512 571,-148.3848 676.3033,-69.1287 843.3009,-111.1424 928.7434,-140.9675"/>
<polygon fill="#de958e" stroke="#de958e" points="927.6558,-144.2955 938.2505,-144.3539 930.0047,-137.7013 927.6558,-144.2955"/>
</g>
<!-- wrapt -->
<g id="node31" class="node">
<title>wrapt</title>
<polygon fill="#343434" stroke="#343434" points="251,-378.3848 193,-378.3848 193,-342.3848 251,-342.3848 251,-378.3848"/>
<text text-anchor="middle" x="222" y="-356.6848" font-family="Courier,monospace" font-size="14.00" fill="#de958e">wrapt</text>
</g>
<!-- wrapt&#45;&gt;hidebound.validators -->
<g id="edge72" class="edge">
<title>wrapt&#45;&gt;hidebound.validators</title>
<path fill="none" stroke="#de958e" d="M251.0226,-366.66C276.3762,-372.1418 314.622,-380.4112 350.3957,-388.1461"/>
<polygon fill="#de958e" stroke="#de958e" points="349.8936,-391.6183 360.4074,-390.3108 351.373,-384.7764 349.8936,-391.6183"/>
</g>
<!-- skimage.io -->
<g id="node32" class="node">
<title>skimage.io</title>
<polygon fill="#343434" stroke="#343434" points="493.5,-264.3848 394.5,-264.3848 394.5,-228.3848 493.5,-228.3848 493.5,-264.3848"/>
<text text-anchor="middle" x="444" y="-242.6848" font-family="Courier,monospace" font-size="14.00" fill="#de958e">skimage.io</text>
</g>
<!-- skimage.io&#45;&gt;hidebound.database_test_base -->
<g id="edge73" class="edge">
<title>skimage.io&#45;&gt;hidebound.database_test_base</title>
<path fill="none" stroke="#de958e" d="M493.6575,-248.5246C568.0338,-253.4587 711.1409,-269.7397 819,-323.3848 877.7975,-352.6286 932.1494,-408.2759 961.1262,-441.173"/>
<polygon fill="#de958e" stroke="#de958e" points="958.7358,-443.7584 967.9338,-449.0165 964.0223,-439.1701 958.7358,-443.7584"/>
</g>
<!-- skimage.io&#45;&gt;hidebound.traits -->
<g id="edge74" class="edge">
<title>skimage.io&#45;&gt;hidebound.traits</title>
<path fill="none" stroke="#de958e" d="M493.5895,-238.8772C526.7704,-233.8539 571.291,-227.1137 610.0366,-221.2478"/>
<polygon fill="#de958e" stroke="#de958e" points="610.9098,-224.6556 620.2732,-219.698 609.8619,-217.7345 610.9098,-224.6556"/>
</g>
</g>
</svg>
