<?xml version="1.0" encoding="UTF-8" standalone="no"?>
<!DOCTYPE svg PUBLIC "-//W3C//DTD SVG 1.1//EN"
 "http://www.w3.org/Graphics/SVG/1.1/DTD/svg11.dtd">
<!-- Generated by graphviz version 2.40.1 (20161225.0304)
 -->
<!-- Title: %3 Pages: 1 -->
<svg width="1715pt" height="1492pt"
 viewBox="0.00 0.00 1715.00 1492.06" xmlns="http://www.w3.org/2000/svg" xmlns:xlink="http://www.w3.org/1999/xlink">
<g id="graph0" class="graph" transform="scale(1 1) rotate(0) translate(4 1488.0575)">
<title>%3</title>
<polygon fill="#242424" stroke="transparent" points="-4,4 -4,-1488.0575 1711,-1488.0575 1711,4 -4,4"/>
<!-- cli -->
<g id="node1" class="node">
<title>cli</title>
<polygon fill="#343434" stroke="#343434" points="72.5,-443.0575 18.5,-443.0575 18.5,-407.0575 72.5,-407.0575 72.5,-443.0575"/>
<text text-anchor="middle" x="45.5" y="-421.3575" font-family="Courier,monospace" font-size="14.00" fill="#b6ecf3">cli</text>
</g>
<!-- hidebound.app -->
<g id="node2" class="node">
<title>hidebound.app</title>
<polygon fill="#343434" stroke="#343434" points="1707,-916.0575 1583,-916.0575 1583,-880.0575 1707,-880.0575 1707,-916.0575"/>
<text text-anchor="middle" x="1645" y="-894.3575" font-family="Courier,monospace" font-size="14.00" fill="#b6ecf3">hidebound.app</text>
</g>
<!-- hidebound.components -->
<g id="node3" class="node">
<title>hidebound.components</title>
<polygon fill="#343434" stroke="#343434" points="1547,-1222.0575 1365,-1222.0575 1365,-1186.0575 1547,-1186.0575 1547,-1222.0575"/>
<text text-anchor="middle" x="1456" y="-1200.3575" font-family="Courier,monospace" font-size="14.00" fill="#b6ecf3">hidebound.components</text>
</g>
<!-- hidebound.components&#45;&gt;hidebound.app -->
<g id="edge1" class="edge">
<title>hidebound.components&#45;&gt;hidebound.app</title>
<path fill="none" stroke="#b6ecf3" d="M1483.2348,-1185.8936C1503.0436,-1171.5582 1529.3723,-1150.0293 1547,-1126.0575 1594.2413,-1061.8143 1624.3982,-971.2885 1637.481,-926.0637"/>
<polygon fill="#b6ecf3" stroke="#b6ecf3" points="1640.8735,-926.9289 1640.2275,-916.3538 1634.1378,-925.0236 1640.8735,-926.9289"/>
</g>
<!-- hidebound.config -->
<g id="node4" class="node">
<title>hidebound.config</title>
<polygon fill="#343434" stroke="#343434" points="1057.5,-717.0575 908.5,-717.0575 908.5,-681.0575 1057.5,-681.0575 1057.5,-717.0575"/>
<text text-anchor="middle" x="983" y="-695.3575" font-family="Courier,monospace" font-size="14.00" fill="#b6ecf3">hidebound.config</text>
</g>
<!-- hidebound.database -->
<g id="node5" class="node">
<title>hidebound.database</title>
<polygon fill="#343434" stroke="#343434" points="1320.5,-932.0575 1155.5,-932.0575 1155.5,-896.0575 1320.5,-896.0575 1320.5,-932.0575"/>
<text text-anchor="middle" x="1238" y="-910.3575" font-family="Courier,monospace" font-size="14.00" fill="#b6ecf3">hidebound.database</text>
</g>
<!-- hidebound.config&#45;&gt;hidebound.database -->
<g id="edge2" class="edge">
<title>hidebound.config&#45;&gt;hidebound.database</title>
<path fill="none" stroke="#b6ecf3" d="M997.9789,-717.3685C1034.8511,-762.2749 1128.3688,-875.0904 1147,-887.0575 1149.4698,-888.6439 1152.0365,-890.1402 1154.6745,-891.5514"/>
<polygon fill="#b6ecf3" stroke="#b6ecf3" points="1153.3585,-894.8032 1163.8823,-896.028 1156.4192,-888.5078 1153.3585,-894.8032"/>
</g>
<!-- hidebound.database&#45;&gt;hidebound.app -->
<g id="edge3" class="edge">
<title>hidebound.database&#45;&gt;hidebound.app</title>
<path fill="none" stroke="#b6ecf3" d="M1320.8531,-910.8004C1394.8436,-907.8917 1502.1373,-903.6737 1572.7164,-900.8991"/>
<polygon fill="#b6ecf3" stroke="#b6ecf3" points="1573.0003,-904.3908 1582.855,-900.5005 1572.7252,-897.3962 1573.0003,-904.3908"/>
</g>
<!-- hidebound.database&#45;&gt;hidebound.components -->
<g id="edge4" class="edge">
<title>hidebound.database&#45;&gt;hidebound.components</title>
<path fill="none" stroke="#b6ecf3" d="M1251.6369,-932.1983C1288.8751,-981.7354 1392.4193,-1119.4777 1436.1272,-1177.6212"/>
<polygon fill="#b6ecf3" stroke="#b6ecf3" points="1433.5617,-1180.0333 1442.3683,-1185.9236 1439.1571,-1175.8271 1433.5617,-1180.0333"/>
</g>
<!-- hidebound.database_test_base -->
<g id="node6" class="node">
<title>hidebound.database_test_base</title>
<polygon fill="#343434" stroke="#343434" points="1107,-530.0575 859,-530.0575 859,-494.0575 1107,-494.0575 1107,-530.0575"/>
<text text-anchor="middle" x="983" y="-508.3575" font-family="Courier,monospace" font-size="14.00" fill="#b6ecf3">hidebound.database_test_base</text>
</g>
<!-- hidebound.database_tools -->
<g id="node7" class="node">
<title>hidebound.database_tools</title>
<polygon fill="#343434" stroke="#343434" points="802.5,-970.0575 587.5,-970.0575 587.5,-934.0575 802.5,-934.0575 802.5,-970.0575"/>
<text text-anchor="middle" x="695" y="-948.3575" font-family="Courier,monospace" font-size="14.00" fill="#b6ecf3">hidebound.database_tools</text>
</g>
<!-- hidebound.database_tools&#45;&gt;hidebound.database -->
<g id="edge5" class="edge">
<title>hidebound.database_tools&#45;&gt;hidebound.database</title>
<path fill="none" stroke="#b6ecf3" d="M802.6965,-954.5966C886.9137,-955.2841 1006.7898,-953.4072 1111,-941.0575 1125.1863,-939.3763 1140.132,-936.8728 1154.5916,-934.0572"/>
<polygon fill="#b6ecf3" stroke="#b6ecf3" points="1155.3947,-937.4658 1164.5092,-932.0643 1154.0156,-930.603 1155.3947,-937.4658"/>
</g>
<!-- hidebound.parser -->
<g id="node8" class="node">
<title>hidebound.parser</title>
<polygon fill="#343434" stroke="#343434" points="296.5,-673.0575 147.5,-673.0575 147.5,-637.0575 296.5,-637.0575 296.5,-673.0575"/>
<text text-anchor="middle" x="222" y="-651.3575" font-family="Courier,monospace" font-size="14.00" fill="#b6ecf3">hidebound.parser</text>
</g>
<!-- hidebound.parser&#45;&gt;hidebound.database_tools -->
<g id="edge6" class="edge">
<title>hidebound.parser&#45;&gt;hidebound.database_tools</title>
<path fill="none" stroke="#b6ecf3" d="M252.5924,-673.2877C272.4672,-686.1118 298.0973,-704.5883 317,-725.0575 337.5835,-747.3468 330.1309,-763.1201 353,-783.0575 419.7373,-841.2395 455.6961,-824.6886 535,-864.0575 576.4802,-884.6496 622.7192,-910.3949 654.7795,-928.7073"/>
<polygon fill="#b6ecf3" stroke="#b6ecf3" points="653.4247,-931.9648 663.8411,-933.9009 656.9055,-925.8916 653.4247,-931.9648"/>
</g>
<!-- hidebound.specification_base -->
<g id="node9" class="node">
<title>hidebound.specification_base</title>
<polygon fill="#343434" stroke="#343434" points="819,-671.0575 571,-671.0575 571,-635.0575 819,-635.0575 819,-671.0575"/>
<text text-anchor="middle" x="695" y="-649.3575" font-family="Courier,monospace" font-size="14.00" fill="#b6ecf3">hidebound.specification_base</text>
</g>
<!-- hidebound.parser&#45;&gt;hidebound.specification_base -->
<g id="edge7" class="edge">
<title>hidebound.parser&#45;&gt;hidebound.specification_base</title>
<path fill="none" stroke="#b6ecf3" d="M287.4722,-637.0228C308.2546,-632.1204 331.4387,-627.4948 353,-625.0575 433.377,-615.9716 454.4144,-618.0594 535,-625.0575 555.5219,-626.8396 577.3594,-629.8845 598.0908,-633.3263"/>
<polygon fill="#b6ecf3" stroke="#b6ecf3" points="597.7226,-636.8139 608.1685,-635.044 598.8988,-629.9134 597.7226,-636.8139"/>
</g>
<!-- hidebound.validators -->
<g id="node14" class="node">
<title>hidebound.validators</title>
<polygon fill="#343434" stroke="#343434" points="535,-497.0575 353,-497.0575 353,-461.0575 535,-461.0575 535,-497.0575"/>
<text text-anchor="middle" x="444" y="-475.3575" font-family="Courier,monospace" font-size="14.00" fill="#b6ecf3">hidebound.validators</text>
</g>
<!-- hidebound.parser&#45;&gt;hidebound.validators -->
<g id="edge8" class="edge">
<title>hidebound.parser&#45;&gt;hidebound.validators</title>
<path fill="none" stroke="#b6ecf3" d="M296.9758,-638.3618C303.9966,-635.4495 310.7964,-632.0419 317,-628.0575 320.3431,-625.9103 386.5892,-547.3699 422.0412,-505.2067"/>
<polygon fill="#b6ecf3" stroke="#b6ecf3" points="424.9382,-507.1996 428.6932,-497.2925 419.5797,-502.6956 424.9382,-507.1996"/>
</g>
<!-- hidebound.specification_base&#45;&gt;hidebound.config -->
<g id="edge9" class="edge">
<title>hidebound.specification_base&#45;&gt;hidebound.config</title>
<path fill="none" stroke="#b6ecf3" d="M807.9986,-671.1059C838.0338,-675.9032 869.958,-681.0022 898.2028,-685.5135"/>
<polygon fill="#b6ecf3" stroke="#b6ecf3" points="898.0051,-689.0262 908.4319,-687.1473 899.1092,-682.1138 898.0051,-689.0262"/>
</g>
<!-- hidebound.specification_base&#45;&gt;hidebound.database -->
<g id="edge10" class="edge">
<title>hidebound.specification_base&#45;&gt;hidebound.database</title>
<path fill="none" stroke="#b6ecf3" d="M754.5014,-635.0232C843.815,-611.994 1012.5347,-584.7748 1111,-672.0575 1183.5018,-736.3253 1082.8143,-814.483 1147,-887.0575 1147.6448,-887.7866 1148.3083,-888.4964 1148.9893,-889.1874"/>
<polygon fill="#b6ecf3" stroke="#b6ecf3" points="1147.009,-892.0972 1156.8993,-895.8961 1151.5367,-886.7586 1147.009,-892.0972"/>
</g>
<!-- hidebound.specification_base&#45;&gt;hidebound.database_test_base -->
<g id="edge11" class="edge">
<title>hidebound.specification_base&#45;&gt;hidebound.database_test_base</title>
<path fill="none" stroke="#b6ecf3" d="M731.7679,-635.0565C784.0551,-609.4576 879.8584,-562.5539 936.8525,-534.6506"/>
<polygon fill="#b6ecf3" stroke="#b6ecf3" points="938.5536,-537.7147 945.996,-530.174 935.4756,-531.4277 938.5536,-537.7147"/>
</g>
<!-- hidebound.specifications -->
<g id="node10" class="node">
<title>hidebound.specifications</title>
<polygon fill="#343434" stroke="#343434" points="1090.5,-325.0575 875.5,-325.0575 875.5,-289.0575 1090.5,-289.0575 1090.5,-325.0575"/>
<text text-anchor="middle" x="983" y="-303.3575" font-family="Courier,monospace" font-size="14.00" fill="#b6ecf3">hidebound.specifications</text>
</g>
<!-- hidebound.specification_base&#45;&gt;hidebound.specifications -->
<g id="edge12" class="edge">
<title>hidebound.specification_base&#45;&gt;hidebound.specifications</title>
<path fill="none" stroke="#b6ecf3" d="M720.3728,-634.7767C747.0172,-614.7589 789.117,-580.7282 819,-545.0575 838.9707,-521.2189 837.9073,-511.0373 855,-485.0575 891.2584,-429.9472 937.0892,-367.8734 962.913,-333.5235"/>
<polygon fill="#b6ecf3" stroke="#b6ecf3" points="965.8051,-335.5013 969.0293,-325.409 960.2152,-331.2879 965.8051,-335.5013"/>
</g>
<!-- hidebound.test_specifications -->
<g id="node11" class="node">
<title>hidebound.test_specifications</title>
<polygon fill="#343434" stroke="#343434" points="1111,-271.0575 855,-271.0575 855,-235.0575 1111,-235.0575 1111,-271.0575"/>
<text text-anchor="middle" x="983" y="-249.3575" font-family="Courier,monospace" font-size="14.00" fill="#b6ecf3">hidebound.test_specifications</text>
</g>
<!-- hidebound.specification_base&#45;&gt;hidebound.test_specifications -->
<g id="edge13" class="edge">
<title>hidebound.specification_base&#45;&gt;hidebound.test_specifications</title>
<path fill="none" stroke="#b6ecf3" d="M702.5234,-634.8973C733.1859,-560.9636 847.4565,-286.2422 855,-280.0575 856.3886,-278.9191 857.8135,-277.8252 859.2711,-276.7742"/>
<polygon fill="#b6ecf3" stroke="#b6ecf3" points="861.4205,-279.5539 867.9527,-271.2124 857.6444,-273.6597 861.4205,-279.5539"/>
</g>
<!-- hidebound.tools -->
<g id="node12" class="node">
<title>hidebound.tools</title>
<polygon fill="#343434" stroke="#343434" points="514,-909.0575 374,-909.0575 374,-873.0575 514,-873.0575 514,-909.0575"/>
<text text-anchor="middle" x="444" y="-887.3575" font-family="Courier,monospace" font-size="14.00" fill="#b6ecf3">hidebound.tools</text>
</g>
<!-- hidebound.tools&#45;&gt;hidebound.components -->
<g id="edge14" class="edge">
<title>hidebound.tools&#45;&gt;hidebound.components</title>
<path fill="none" stroke="#b6ecf3" d="M514.2821,-890.6242C590.5221,-891.7174 715.2397,-898.0849 819,-925.0575 835.9459,-929.4626 838.8712,-934.2435 855,-941.0575 1064.0689,-1029.3836 1124.7779,-1032.039 1329,-1131.0575 1359.9786,-1146.0777 1393.7078,-1165.6259 1418.6157,-1180.713"/>
<polygon fill="#b6ecf3" stroke="#b6ecf3" points="1417.0118,-1183.8343 1427.3717,-1186.0529 1420.6565,-1177.858 1417.0118,-1183.8343"/>
</g>
<!-- hidebound.tools&#45;&gt;hidebound.database -->
<g id="edge15" class="edge">
<title>hidebound.tools&#45;&gt;hidebound.database</title>
<path fill="none" stroke="#b6ecf3" d="M514.3534,-885.543C636.2603,-877.1231 894.4878,-864.2968 1111,-887.0575 1125.5716,-888.5893 1140.931,-891.0839 1155.7389,-893.9536"/>
<polygon fill="#b6ecf3" stroke="#b6ecf3" points="1155.3922,-897.4539 1165.8858,-895.9931 1156.7716,-890.5911 1155.3922,-897.4539"/>
</g>
<!-- hidebound.tools&#45;&gt;hidebound.database_tools -->
<g id="edge16" class="edge">
<title>hidebound.tools&#45;&gt;hidebound.database_tools</title>
<path fill="none" stroke="#b6ecf3" d="M514.2513,-908.1305C544.2195,-915.4136 579.439,-923.973 610.7897,-931.5921"/>
<polygon fill="#b6ecf3" stroke="#b6ecf3" points="610.2773,-935.0693 620.821,-934.0299 611.9305,-928.2673 610.2773,-935.0693"/>
</g>
<!-- hidebound.tools&#45;&gt;hidebound.specification_base -->
<g id="edge17" class="edge">
<title>hidebound.tools&#45;&gt;hidebound.specification_base</title>
<path fill="none" stroke="#b6ecf3" d="M454.239,-872.9582C473.6132,-839.925 518.4383,-769.0377 571,-723.0575 592.7646,-704.0182 620.5283,-687.7633 644.2649,-675.7234"/>
<polygon fill="#b6ecf3" stroke="#b6ecf3" points="646.076,-678.7321 653.4812,-671.1549 642.9671,-672.4603 646.076,-678.7321"/>
</g>
<!-- hidebound.traits -->
<g id="node13" class="node">
<title>hidebound.traits</title>
<polygon fill="#343434" stroke="#343434" points="769.5,-275.0575 620.5,-275.0575 620.5,-239.0575 769.5,-239.0575 769.5,-275.0575"/>
<text text-anchor="middle" x="695" y="-253.3575" font-family="Courier,monospace" font-size="14.00" fill="#b6ecf3">hidebound.traits</text>
</g>
<!-- hidebound.traits&#45;&gt;hidebound.database_test_base -->
<g id="edge18" class="edge">
<title>hidebound.traits&#45;&gt;hidebound.database_test_base</title>
<path fill="none" stroke="#b6ecf3" d="M716.1426,-275.3114C740.888,-296.7129 783.0587,-333.3006 819,-365.0575 867.0749,-407.5353 922.5787,-457.4764 955.1235,-486.852"/>
<polygon fill="#b6ecf3" stroke="#b6ecf3" points="953.1169,-489.7558 962.8844,-493.8602 957.8083,-484.5605 953.1169,-489.7558"/>
</g>
<!-- hidebound.traits&#45;&gt;hidebound.specifications -->
<g id="edge19" class="edge">
<title>hidebound.traits&#45;&gt;hidebound.specifications</title>
<path fill="none" stroke="#b6ecf3" d="M769.5417,-269.9988C799.9561,-275.279 835.8064,-281.5031 869.3542,-287.3273"/>
<polygon fill="#b6ecf3" stroke="#b6ecf3" points="868.7628,-290.7769 879.2142,-289.0391 869.9603,-283.8801 868.7628,-290.7769"/>
</g>
<!-- hidebound.traits&#45;&gt;hidebound.test_specifications -->
<g id="edge20" class="edge">
<title>hidebound.traits&#45;&gt;hidebound.test_specifications</title>
<path fill="none" stroke="#b6ecf3" d="M769.5417,-256.0222C792.5684,-255.7024 818.711,-255.3393 844.6111,-254.9796"/>
<polygon fill="#b6ecf3" stroke="#b6ecf3" points="844.9543,-258.4752 854.9047,-254.8366 844.857,-251.4759 844.9543,-258.4752"/>
</g>
<!-- hidebound.validators&#45;&gt;hidebound.config -->
<g id="edge21" class="edge">
<title>hidebound.validators&#45;&gt;hidebound.config</title>
<path fill="none" stroke="#b6ecf3" d="M512.3673,-497.1945C520.4581,-501.0043 528.2315,-505.5781 535,-511.0575 558.8752,-530.3857 546.044,-552.1465 571,-570.0575 662.8012,-635.9433 711.7544,-590.4656 819,-626.0575 860.7285,-639.9061 906.2697,-660.6601 938.7493,-676.5034"/>
<polygon fill="#b6ecf3" stroke="#b6ecf3" points="937.4518,-679.7656 947.9697,-681.0402 940.5423,-673.4848 937.4518,-679.7656"/>
</g>
<!-- hidebound.validators&#45;&gt;hidebound.database_test_base -->
<g id="edge22" class="edge">
<title>hidebound.validators&#45;&gt;hidebound.database_test_base</title>
<path fill="none" stroke="#b6ecf3" d="M506.7792,-497.2165C516.5451,-501.1394 526.2775,-505.7398 535,-511.0575 553.7911,-522.5136 550.5492,-536.9267 571,-545.0575 688.7386,-591.8678 840.063,-558.4054 922.6302,-533.1349"/>
<polygon fill="#b6ecf3" stroke="#b6ecf3" points="923.8493,-536.421 932.3517,-530.0996 921.763,-529.7391 923.8493,-536.421"/>
</g>
<!-- hidebound.validators&#45;&gt;hidebound.specification_base -->
<g id="edge23" class="edge">
<title>hidebound.validators&#45;&gt;hidebound.specification_base</title>
<path fill="none" stroke="#b6ecf3" d="M516.3656,-497.2131C523.2231,-500.9902 529.6126,-505.551 535,-511.0575 570.9743,-547.8267 533.4857,-585.8609 571,-621.0575 574.3746,-624.2236 578.02,-627.0863 581.87,-629.6742"/>
<polygon fill="#b6ecf3" stroke="#b6ecf3" points="580.2235,-632.7679 590.5992,-634.9114 583.8248,-626.7654 580.2235,-632.7679"/>
</g>
<!-- hidebound.validators&#45;&gt;hidebound.specifications -->
<g id="edge24" class="edge">
<title>hidebound.validators&#45;&gt;hidebound.specifications</title>
<path fill="none" stroke="#b6ecf3" d="M505.7394,-460.9622C515.5403,-458.0254 525.5561,-454.9863 535,-452.0575 672.2105,-409.5043 832.1435,-357.0481 918.9512,-328.3352"/>
<polygon fill="#b6ecf3" stroke="#b6ecf3" points="920.2626,-331.5879 928.6565,-325.1232 918.0632,-324.9424 920.2626,-331.5879"/>
</g>
<!-- hidebound.validators&#45;&gt;hidebound.test_specifications -->
<g id="edge25" class="edge">
<title>hidebound.validators&#45;&gt;hidebound.test_specifications</title>
<path fill="none" stroke="#b6ecf3" d="M523.0465,-460.9192C527.3335,-458.3459 531.3657,-455.4091 535,-452.0575 567.5822,-422.0102 538.1618,-388.8249 571,-359.0575 594.4285,-337.8199 770.8941,-297.5589 885.1546,-273.2314"/>
<polygon fill="#b6ecf3" stroke="#b6ecf3" points="885.9259,-276.6458 894.9814,-271.1458 884.4726,-269.7983 885.9259,-276.6458"/>
</g>
<!-- dash -->
<g id="node15" class="node">
<title>dash</title>
<polygon fill="#343434" stroke="#343434" points="1265,-1484.0575 1211,-1484.0575 1211,-1448.0575 1265,-1448.0575 1265,-1484.0575"/>
<text text-anchor="middle" x="1238" y="-1462.3575" font-family="Courier,monospace" font-size="14.00" fill="#de958e">dash</text>
</g>
<!-- dash&#45;&gt;hidebound.components -->
<g id="edge26" class="edge">
<title>dash&#45;&gt;hidebound.components</title>
<path fill="none" stroke="#de958e" d="M1265.2566,-1463.5375C1284.8204,-1460.5001 1310.832,-1453.8059 1329,-1439.0575 1397.405,-1383.5278 1434.2255,-1280.9898 1448.6665,-1231.8001"/>
<polygon fill="#de958e" stroke="#de958e" points="1452.042,-1232.7254 1451.4117,-1222.1494 1445.3091,-1230.8102 1452.042,-1232.7254"/>
</g>
<!-- dash.dependencies -->
<g id="node16" class="node">
<title>dash.dependencies</title>
<polygon fill="#343434" stroke="#343434" points="1534.5,-1016.0575 1377.5,-1016.0575 1377.5,-980.0575 1534.5,-980.0575 1534.5,-1016.0575"/>
<text text-anchor="middle" x="1456" y="-994.3575" font-family="Courier,monospace" font-size="14.00" fill="#de958e">dash.dependencies</text>
</g>
<!-- dash.dependencies&#45;&gt;hidebound.app -->
<g id="edge27" class="edge">
<title>dash.dependencies&#45;&gt;hidebound.app</title>
<path fill="none" stroke="#de958e" d="M1526.04,-980.0351C1533.2581,-977.3661 1540.3695,-974.3784 1547,-971.0575 1572.6121,-958.2297 1598.4683,-938.6266 1617.1867,-922.9634"/>
<polygon fill="#de958e" stroke="#de958e" points="1619.6617,-925.4529 1625.0037,-916.3034 1615.1219,-920.1245 1619.6617,-925.4529"/>
</g>
<!-- dash.exceptions -->
<g id="node17" class="node">
<title>dash.exceptions</title>
<polygon fill="#343434" stroke="#343434" points="1526,-962.0575 1386,-962.0575 1386,-926.0575 1526,-926.0575 1526,-962.0575"/>
<text text-anchor="middle" x="1456" y="-940.3575" font-family="Courier,monospace" font-size="14.00" fill="#de958e">dash.exceptions</text>
</g>
<!-- dash.exceptions&#45;&gt;hidebound.app -->
<g id="edge28" class="edge">
<title>dash.exceptions&#45;&gt;hidebound.app</title>
<path fill="none" stroke="#de958e" d="M1526.108,-926.9942C1541.3613,-923.2817 1557.5248,-919.3478 1572.8554,-915.6165"/>
<polygon fill="#de958e" stroke="#de958e" points="1573.903,-918.9638 1582.7917,-913.1982 1572.2476,-912.1623 1573.903,-918.9638"/>
</g>
<!-- dash_ace_editor -->
<g id="node18" class="node">
<title>dash_ace_editor</title>
<polygon fill="#343434" stroke="#343434" points="1308,-1430.0575 1168,-1430.0575 1168,-1394.0575 1308,-1394.0575 1308,-1430.0575"/>
<text text-anchor="middle" x="1238" y="-1408.3575" font-family="Courier,monospace" font-size="14.00" fill="#de958e">dash_ace_editor</text>
</g>
<!-- dash_ace_editor&#45;&gt;hidebound.components -->
<g id="edge29" class="edge">
<title>dash_ace_editor&#45;&gt;hidebound.components</title>
<path fill="none" stroke="#de958e" d="M1308.353,-1396.4987C1315.6671,-1393.3537 1322.7129,-1389.581 1329,-1385.0575 1385.2775,-1344.5658 1425.3593,-1271.1184 1444.0864,-1231.37"/>
<polygon fill="#de958e" stroke="#de958e" points="1447.2767,-1232.8098 1448.2803,-1222.2626 1440.9184,-1229.8818 1447.2767,-1232.8098"/>
</g>
<!-- dash_core_components -->
<g id="node19" class="node">
<title>dash_core_components</title>
<polygon fill="#343434" stroke="#343434" points="1329,-1376.0575 1147,-1376.0575 1147,-1340.0575 1329,-1340.0575 1329,-1376.0575"/>
<text text-anchor="middle" x="1238" y="-1354.3575" font-family="Courier,monospace" font-size="14.00" fill="#de958e">dash_core_components</text>
</g>
<!-- dash_core_components&#45;&gt;hidebound.components -->
<g id="edge30" class="edge">
<title>dash_core_components&#45;&gt;hidebound.components</title>
<path fill="none" stroke="#de958e" d="M1310.9319,-1340.0299C1317.2199,-1337.4062 1323.3358,-1334.4291 1329,-1331.0575 1373.3837,-1304.6384 1413.5031,-1259.2351 1436.2936,-1230.4771"/>
<polygon fill="#de958e" stroke="#de958e" points="1439.1381,-1232.521 1442.5236,-1222.4816 1433.6164,-1228.2185 1439.1381,-1232.521"/>
</g>
<!-- dash_html_components -->
<g id="node20" class="node">
<title>dash_html_components</title>
<polygon fill="#343434" stroke="#343434" points="1329,-1322.0575 1147,-1322.0575 1147,-1286.0575 1329,-1286.0575 1329,-1322.0575"/>
<text text-anchor="middle" x="1238" y="-1300.3575" font-family="Courier,monospace" font-size="14.00" fill="#de958e">dash_html_components</text>
</g>
<!-- dash_html_components&#45;&gt;hidebound.components -->
<g id="edge31" class="edge">
<title>dash_html_components&#45;&gt;hidebound.components</title>
<path fill="none" stroke="#de958e" d="M1305.231,-1286.0526C1313.341,-1283.3131 1321.4271,-1280.3045 1329,-1277.0575 1361.0583,-1263.3119 1395.2199,-1243.3408 1420.0288,-1227.7607"/>
<polygon fill="#de958e" stroke="#de958e" points="1422.1589,-1230.5542 1428.7246,-1222.239 1418.4065,-1224.6449 1422.1589,-1230.5542"/>
</g>
<!-- dash_table -->
<g id="node21" class="node">
<title>dash_table</title>
<polygon fill="#343434" stroke="#343434" points="1287.5,-1268.0575 1188.5,-1268.0575 1188.5,-1232.0575 1287.5,-1232.0575 1287.5,-1268.0575"/>
<text text-anchor="middle" x="1238" y="-1246.3575" font-family="Courier,monospace" font-size="14.00" fill="#de958e">dash_table</text>
</g>
<!-- dash_table&#45;&gt;hidebound.components -->
<g id="edge32" class="edge">
<title>dash_table&#45;&gt;hidebound.components</title>
<path fill="none" stroke="#de958e" d="M1287.7404,-1239.5618C1309.3734,-1234.9971 1335.4808,-1229.4882 1360.6081,-1224.1861"/>
<polygon fill="#de958e" stroke="#de958e" points="1361.4881,-1227.5775 1370.55,-1222.0882 1360.0428,-1220.7284 1361.4881,-1227.5775"/>
</g>
<!-- flasgger -->
<g id="node22" class="node">
<title>flasgger</title>
<polygon fill="#343434" stroke="#343434" points="1279.5,-878.0575 1196.5,-878.0575 1196.5,-842.0575 1279.5,-842.0575 1279.5,-878.0575"/>
<text text-anchor="middle" x="1238" y="-856.3575" font-family="Courier,monospace" font-size="14.00" fill="#de958e">flasgger</text>
</g>
<!-- flasgger&#45;&gt;hidebound.app -->
<g id="edge33" class="edge">
<title>flasgger&#45;&gt;hidebound.app</title>
<path fill="none" stroke="#de958e" d="M1279.6435,-863.9456C1348.6592,-870.3893 1487.571,-883.359 1572.8186,-891.3182"/>
<polygon fill="#de958e" stroke="#de958e" points="1572.6582,-894.8184 1582.9403,-892.2632 1573.309,-887.8487 1572.6582,-894.8184"/>
</g>
<!-- flasgger&#45;&gt;hidebound.components -->
<g id="edge34" class="edge">
<title>flasgger&#45;&gt;hidebound.components</title>
<path fill="none" stroke="#de958e" d="M1279.8062,-863.4831C1297.1458,-866.9652 1316.1678,-873.7914 1329,-887.0575 1373.0694,-932.617 1342.5074,-965.7966 1365,-1025.0575 1386.2583,-1081.0665 1419.981,-1142.5385 1439.8553,-1176.9018"/>
<polygon fill="#de958e" stroke="#de958e" points="1437.0111,-1178.9724 1445.0718,-1185.8481 1443.0582,-1175.4464 1437.0111,-1178.9724"/>
</g>
<!-- jinja2 -->
<g id="node23" class="node">
<title>jinja2</title>
<polygon fill="#343434" stroke="#343434" points="1271,-1176.0575 1205,-1176.0575 1205,-1140.0575 1271,-1140.0575 1271,-1176.0575"/>
<text text-anchor="middle" x="1238" y="-1154.3575" font-family="Courier,monospace" font-size="14.00" fill="#de958e">jinja2</text>
</g>
<!-- jinja2&#45;&gt;hidebound.components -->
<g id="edge35" class="edge">
<title>jinja2&#45;&gt;hidebound.components</title>
<path fill="none" stroke="#de958e" d="M1271.1095,-1165.0439C1294.9652,-1170.0777 1328.4489,-1177.143 1360.3778,-1183.8803"/>
<polygon fill="#de958e" stroke="#de958e" points="1359.7172,-1187.318 1370.2244,-1185.9581 1361.1625,-1180.4688 1359.7172,-1187.318"/>
</g>
<!-- pandasql -->
<g id="node24" class="node">
<title>pandasql</title>
<polygon fill="#343434" stroke="#343434" points="1024.5,-932.0575 941.5,-932.0575 941.5,-896.0575 1024.5,-896.0575 1024.5,-932.0575"/>
<text text-anchor="middle" x="983" y="-910.3575" font-family="Courier,monospace" font-size="14.00" fill="#de958e">pandasql</text>
</g>
<!-- pandasql&#45;&gt;hidebound.database -->
<g id="edge36" class="edge">
<title>pandasql&#45;&gt;hidebound.database</title>
<path fill="none" stroke="#de958e" d="M1024.5377,-914.0575C1057.1973,-914.0575 1103.9425,-914.0575 1145.3681,-914.0575"/>
<polygon fill="#de958e" stroke="#de958e" points="1145.4957,-917.5576 1155.4956,-914.0575 1145.4956,-910.5576 1145.4957,-917.5576"/>
</g>
<!-- numpy -->
<g id="node25" class="node">
<title>numpy</title>
<polygon fill="#343434" stroke="#343434" points="473,-1077.0575 415,-1077.0575 415,-1041.0575 473,-1041.0575 473,-1077.0575"/>
<text text-anchor="middle" x="444" y="-1055.3575" font-family="Courier,monospace" font-size="14.00" fill="#de958e">numpy</text>
</g>
<!-- numpy&#45;&gt;hidebound.app -->
<g id="edge37" class="edge">
<title>numpy&#45;&gt;hidebound.app</title>
<path fill="none" stroke="#de958e" d="M473.1144,-1063.9486C553.8342,-1077.0692 787.4224,-1112.0575 983,-1112.0575 983,-1112.0575 983,-1112.0575 1238,-1112.0575 1380.6729,-1112.0575 1428.7669,-1104.9104 1547,-1025.0575 1585.1104,-999.3183 1614.8306,-953.9436 1631.1279,-924.9738"/>
<polygon fill="#de958e" stroke="#de958e" points="1634.2049,-926.6418 1635.9412,-916.1902 1628.0662,-923.2778 1634.2049,-926.6418"/>
</g>
<!-- numpy&#45;&gt;hidebound.database -->
<g id="edge38" class="edge">
<title>numpy&#45;&gt;hidebound.database</title>
<path fill="none" stroke="#de958e" d="M473.1169,-1057.3026C567.052,-1051.11 869.9699,-1026.9869 1111,-961.0575 1136.0014,-954.2188 1163.0233,-944.5533 1185.6883,-935.7642"/>
<polygon fill="#de958e" stroke="#de958e" points="1187.0878,-938.9749 1195.1165,-932.0619 1184.5291,-932.4593 1187.0878,-938.9749"/>
</g>
<!-- numpy&#45;&gt;hidebound.database_test_base -->
<g id="edge39" class="edge">
<title>numpy&#45;&gt;hidebound.database_test_base</title>
<path fill="none" stroke="#de958e" d="M473.0124,-1049.5992C498.5968,-1041.5007 536.9929,-1029.9335 571,-1022.0575 625.4911,-1009.4375 780.5506,-1019.68 819,-979.0575 866.2183,-929.1706 828.521,-735.4384 855,-672.0575 877.7549,-617.5908 924.7904,-566.5093 955.0689,-537.3089"/>
<polygon fill="#de958e" stroke="#de958e" points="957.5379,-539.791 962.3808,-530.3677 952.7186,-534.7141 957.5379,-539.791"/>
</g>
<!-- numpy&#45;&gt;hidebound.database_tools -->
<g id="edge40" class="edge">
<title>numpy&#45;&gt;hidebound.database_tools</title>
<path fill="none" stroke="#de958e" d="M473.3167,-1052.9988C492.1268,-1048.1288 516.4169,-1039.9341 535,-1027.0575 555.4869,-1012.8617 549.9245,-997.3639 571,-984.0575 577.0746,-980.2222 583.5913,-976.8452 590.3416,-973.8721"/>
<polygon fill="#de958e" stroke="#de958e" points="591.7367,-977.0831 599.6719,-970.0629 589.0908,-970.6023 591.7367,-977.0831"/>
</g>
<!-- hidebound -->
<g id="node26" class="node">
<title>hidebound</title>
<polygon fill="#343434" stroke="#343434" points="91,-497.0575 0,-497.0575 0,-461.0575 91,-461.0575 91,-497.0575"/>
<text text-anchor="middle" x="45.5" y="-475.3575" font-family="Courier,monospace" font-size="14.00" fill="#a0d17b">hidebound</text>
</g>
<!-- hidebound&#45;&gt;hidebound.app -->
<g id="edge41" class="edge">
<title>hidebound&#45;&gt;hidebound.app</title>
<path fill="none" stroke="#a0d17b" d="M83.4108,-460.8383C86.3325,-458.2384 88.9407,-455.3198 91,-452.0575 138.0482,-377.5229 65.3699,-120.0707 127,-57.0575 226.1452,44.3127 302.2055,-21.0575 444,-21.0575 444,-21.0575 444,-21.0575 1238,-21.0575 1376.537,-21.0575 1449.788,36.6457 1547,-62.0575 1605.0309,-120.9787 1637.0605,-729.3732 1643.6976,-869.4194"/>
<polygon fill="#a0d17b" stroke="#a0d17b" points="1640.2171,-869.9213 1644.1809,-879.7466 1647.2095,-869.5939 1640.2171,-869.9213"/>
</g>
<!-- hidebound&#45;&gt;hidebound.components -->
<g id="edge42" class="edge">
<title>hidebound&#45;&gt;hidebound.components</title>
<path fill="none" stroke="#a0d17b" d="M52.304,-497.1067C62.4594,-524.8344 81.4114,-579.7744 91,-628.0575 107.3069,-710.1704 83.1922,-931.718 127,-1003.0575 214.2967,-1145.2173 277.1764,-1204.0575 444,-1204.0575 444,-1204.0575 444,-1204.0575 983,-1204.0575 1111.1563,-1204.0575 1258.8443,-1204.0575 1354.6221,-1204.0575"/>
<polygon fill="#a0d17b" stroke="#a0d17b" points="1354.8816,-1207.5576 1364.8815,-1204.0575 1354.8815,-1200.5576 1354.8816,-1207.5576"/>
</g>
<!-- hidebound&#45;&gt;hidebound.config -->
<g id="edge43" class="edge">
<title>hidebound&#45;&gt;hidebound.config</title>
<path fill="none" stroke="#a0d17b" d="M50.3125,-497.1014C62.6828,-542.1252 96.7437,-657.5657 127,-682.0575 193.6182,-735.9833 238.0147,-681.7815 317,-715.0575 335.1883,-722.7201 334.2917,-734.7703 353,-741.0575 549.3326,-807.0383 613.8905,-774.8683 819,-746.0575 854.4646,-741.0759 893.0141,-730.3151 923.8227,-720.3456"/>
<polygon fill="#a0d17b" stroke="#a0d17b" points="925.1368,-723.5979 933.5398,-717.1449 922.9468,-716.9492 925.1368,-723.5979"/>
</g>
<!-- hidebound&#45;&gt;hidebound.database -->
<g id="edge44" class="edge">
<title>hidebound&#45;&gt;hidebound.database</title>
<path fill="none" stroke="#a0d17b" d="M83.3751,-460.8156C86.304,-458.2203 88.9237,-455.309 91,-452.0575 133.5563,-385.4136 68.3271,-151.0663 127,-98.0575 168.3646,-60.6861 422.73,-29.3083 819,-110.0575 955.8313,-137.9401 1029.4615,-112.6921 1111,-226.0575 1196.8964,-345.4818 1055.8349,-771.6051 1147,-887.0575 1147.4979,-887.688 1148.0098,-888.3043 1148.535,-888.9066"/>
<polygon fill="#a0d17b" stroke="#a0d17b" points="1146.3729,-891.6779 1156.0553,-895.9794 1151.1686,-886.5788 1146.3729,-891.6779"/>
</g>
<!-- hidebound&#45;&gt;hidebound.database_test_base -->
<g id="edge45" class="edge">
<title>hidebound&#45;&gt;hidebound.database_test_base</title>
<path fill="none" stroke="#a0d17b" d="M79.2968,-460.9547C83.4054,-458.1976 87.4127,-455.2111 91,-452.0575 110.4979,-434.9167 103.8665,-417.8396 127,-406.0575 264.1754,-336.1929 671.134,-395.2343 819,-438.0575 862.2831,-450.5926 908.8629,-472.4989 941.2794,-489.2343"/>
<polygon fill="#a0d17b" stroke="#a0d17b" points="939.9644,-492.4961 950.4483,-494.0251 943.2061,-486.292 939.9644,-492.4961"/>
</g>
<!-- hidebound&#45;&gt;hidebound.database_tools -->
<g id="edge46" class="edge">
<title>hidebound&#45;&gt;hidebound.database_tools</title>
<path fill="none" stroke="#a0d17b" d="M52.2716,-497.1132C62.3847,-524.8494 81.2821,-579.8002 91,-628.0575 106.6536,-705.7905 68.1706,-929.8922 127,-983.0575 159.5546,-1012.4777 420.6591,-986.1085 577.2912,-967.2321"/>
<polygon fill="#a0d17b" stroke="#a0d17b" points="577.9475,-970.6782 587.4537,-966.0002 577.1051,-963.7291 577.9475,-970.6782"/>
</g>
<!-- hidebound&#45;&gt;hidebound.parser -->
<g id="edge47" class="edge">
<title>hidebound&#45;&gt;hidebound.parser</title>
<path fill="none" stroke="#a0d17b" d="M50.3752,-497.1901C59.7793,-528.6479 83.445,-593.2955 127,-628.0575 130.3922,-630.7649 134.0424,-633.2008 137.8663,-635.3925"/>
<polygon fill="#a0d17b" stroke="#a0d17b" points="136.5652,-638.6576 147.0646,-640.0762 139.7414,-632.4197 136.5652,-638.6576"/>
</g>
<!-- hidebound&#45;&gt;hidebound.specification_base -->
<g id="edge48" class="edge">
<title>hidebound&#45;&gt;hidebound.specification_base</title>
<path fill="none" stroke="#a0d17b" d="M91.1634,-487.0648C178.6731,-503.0442 375.475,-542.0534 535,-596.0575 551.5845,-601.6719 554.6681,-605.7459 571,-612.0575 588.9276,-618.9857 608.5781,-625.821 626.8449,-631.8653"/>
<polygon fill="#a0d17b" stroke="#a0d17b" points="625.949,-635.2548 636.5417,-635.0435 628.1292,-628.603 625.949,-635.2548"/>
</g>
<!-- hidebound&#45;&gt;hidebound.specifications -->
<g id="edge49" class="edge">
<title>hidebound&#45;&gt;hidebound.specifications</title>
<path fill="none" stroke="#a0d17b" d="M82.6375,-460.9714C85.798,-458.3255 88.6707,-455.3604 91,-452.0575 139.0242,-383.9599 65.8065,-324.6168 127,-268.0575 353.1989,-58.9888 544.8541,-89.6307 819,-230.0575 843.3717,-242.5415 832.0552,-265.1121 855,-280.0575 858.586,-282.3933 862.3376,-284.5315 866.211,-286.4886"/>
<polygon fill="#a0d17b" stroke="#a0d17b" points="864.9015,-289.7386 875.4494,-290.734 867.8245,-283.3781 864.9015,-289.7386"/>
</g>
<!-- hidebound&#45;&gt;hidebound.test_specifications -->
<g id="edge50" class="edge">
<title>hidebound&#45;&gt;hidebound.test_specifications</title>
<path fill="none" stroke="#a0d17b" d="M83.3266,-460.7844C86.2653,-458.1954 88.9006,-455.2941 91,-452.0575 128.7407,-393.874 78.2562,-191.3903 127,-142.0575 198.176,-70.0215 251.9381,-119.5151 353,-113.0575 561.9431,-99.7066 620.4879,-115.5112 819,-182.0575 859.8305,-195.7449 904.5956,-215.4615 937.0262,-230.6458"/>
<polygon fill="#a0d17b" stroke="#a0d17b" points="935.7165,-233.8979 946.2538,-234.9998 938.7036,-227.5672 935.7165,-233.8979"/>
</g>
<!-- hidebound&#45;&gt;hidebound.tools -->
<g id="edge51" class="edge">
<title>hidebound&#45;&gt;hidebound.tools</title>
<path fill="none" stroke="#a0d17b" d="M50.9694,-497.0757C66.8735,-549.1272 112.8703,-697.1494 127,-715.0575 190.2506,-795.2217 300.6257,-844.4606 373.0069,-869.7785"/>
<polygon fill="#a0d17b" stroke="#a0d17b" points="371.9241,-873.1072 382.5187,-873.0446 374.1975,-866.4866 371.9241,-873.1072"/>
</g>
<!-- hidebound&#45;&gt;hidebound.traits -->
<g id="edge52" class="edge">
<title>hidebound&#45;&gt;hidebound.traits</title>
<path fill="none" stroke="#a0d17b" d="M81.5362,-460.807C84.9924,-458.1692 88.2337,-455.2513 91,-452.0575 118.3969,-420.4265 95.4546,-392.5529 127,-365.0575 263.1596,-246.3788 488.5348,-241.1789 610.4357,-248.5649"/>
<polygon fill="#a0d17b" stroke="#a0d17b" points="610.2613,-252.0609 620.4668,-249.2155 610.7143,-245.0756 610.2613,-252.0609"/>
</g>
<!-- hidebound&#45;&gt;hidebound.validators -->
<g id="edge53" class="edge">
<title>hidebound&#45;&gt;hidebound.validators</title>
<path fill="none" stroke="#a0d17b" d="M91.213,-479.0575C152.1859,-479.0575 261.8306,-479.0575 342.7545,-479.0575"/>
<polygon fill="#a0d17b" stroke="#a0d17b" points="342.9742,-482.5576 352.9742,-479.0575 342.9741,-475.5576 342.9742,-482.5576"/>
</g>
<!-- flask -->
<g id="node27" class="node">
<title>flask</title>
<polygon fill="#343434" stroke="#343434" points="1485,-107.0575 1427,-107.0575 1427,-71.0575 1485,-71.0575 1485,-107.0575"/>
<text text-anchor="middle" x="1456" y="-85.3575" font-family="Courier,monospace" font-size="14.00" fill="#de958e">flask</text>
</g>
<!-- flask&#45;&gt;hidebound.app -->
<g id="edge54" class="edge">
<title>flask&#45;&gt;hidebound.app</title>
<path fill="none" stroke="#de958e" d="M1485.1795,-91.434C1505.6992,-94.7305 1532.0643,-102.5522 1547,-121.0575 1595.0704,-180.6165 1634.3953,-736.5238 1643.1699,-869.5558"/>
<polygon fill="#de958e" stroke="#de958e" points="1639.6915,-870.0022 1643.837,-879.7524 1646.6766,-869.5452 1639.6915,-870.0022"/>
</g>
<!-- pyparsing -->
<g id="node28" class="node">
<title>pyparsing</title>
<polygon fill="#343434" stroke="#343434" points="91,-673.0575 0,-673.0575 0,-637.0575 91,-637.0575 91,-673.0575"/>
<text text-anchor="middle" x="45.5" y="-651.3575" font-family="Courier,monospace" font-size="14.00" fill="#de958e">pyparsing</text>
</g>
<!-- pyparsing&#45;&gt;hidebound.parser -->
<g id="edge55" class="edge">
<title>pyparsing&#45;&gt;hidebound.parser</title>
<path fill="none" stroke="#de958e" d="M91.4125,-655.0575C105.4051,-655.0575 121.2586,-655.0575 136.9755,-655.0575"/>
<polygon fill="#de958e" stroke="#de958e" points="137.2631,-658.5576 147.263,-655.0575 137.263,-651.5576 137.2631,-658.5576"/>
</g>
<!-- pyparsing&#45;&gt;hidebound.specification_base -->
<g id="edge56" class="edge">
<title>pyparsing&#45;&gt;hidebound.specification_base</title>
<path fill="none" stroke="#de958e" d="M91.4048,-673.1022C102.8542,-676.8093 115.2278,-680.1583 127,-682.0575 210.3665,-695.5072 236.1789,-706.5282 317,-682.0575 335.4045,-676.4851 334.6367,-663.7643 353,-658.0575 419.3412,-637.4405 496.4723,-634.623 560.6764,-637.6423"/>
<polygon fill="#de958e" stroke="#de958e" points="560.6969,-641.148 570.8661,-638.1751 561.0625,-634.1576 560.6969,-641.148"/>
</g>
<!-- pyparsing&#45;&gt;hidebound.validators -->
<g id="edge57" class="edge">
<title>pyparsing&#45;&gt;hidebound.validators</title>
<path fill="none" stroke="#de958e" d="M59.1621,-636.9988C73.9677,-618.6297 99.2274,-590.5826 127,-574.0575 193.57,-534.4475 277.9499,-510.209 342.9141,-496.1377"/>
<polygon fill="#de958e" stroke="#de958e" points="343.7036,-499.5482 352.7603,-494.0503 342.2518,-492.7004 343.7036,-499.5482"/>
</g>
<!-- schematics.exceptions -->
<g id="node29" class="node">
<title>schematics.exceptions</title>
<polygon fill="#343434" stroke="#343434" points="317,-619.0575 127,-619.0575 127,-583.0575 317,-583.0575 317,-619.0575"/>
<text text-anchor="middle" x="222" y="-597.3575" font-family="Courier,monospace" font-size="14.00" fill="#de958e">schematics.exceptions</text>
</g>
<!-- schematics.exceptions&#45;&gt;hidebound.app -->
<g id="edge58" class="edge">
<title>schematics.exceptions&#45;&gt;hidebound.app</title>
<path fill="none" stroke="#de958e" d="M237.59,-582.7437C258.6953,-557.0177 296.1138,-507.946 317,-460.0575 345.0999,-395.629 310.9312,-362.3678 353,-306.0575 526.6453,-73.6283 692.869,-135.0575 983,-135.0575 983,-135.0575 983,-135.0575 1238,-135.0575 1577.855,-135.0575 1634.9092,-731.6543 1643.5636,-869.7589"/>
<polygon fill="#de958e" stroke="#de958e" points="1640.0819,-870.1728 1644.1649,-879.9493 1647.0697,-869.7605 1640.0819,-870.1728"/>
</g>
<!-- schematics.exceptions&#45;&gt;hidebound.config -->
<g id="edge59" class="edge">
<title>schematics.exceptions&#45;&gt;hidebound.config</title>
<path fill="none" stroke="#de958e" d="M304.3613,-619.0891C308.8758,-621.6885 313.1376,-624.6603 317,-628.0575 347.4987,-654.883 319.0909,-689.698 353,-712.0575 440.1584,-769.5294 747.5482,-734.077 898.3276,-712.3158"/>
<polygon fill="#de958e" stroke="#de958e" points="899.0773,-715.7436 908.4683,-710.8387 898.0683,-708.8167 899.0773,-715.7436"/>
</g>
<!-- schematics.exceptions&#45;&gt;hidebound.database_tools -->
<g id="edge60" class="edge">
<title>schematics.exceptions&#45;&gt;hidebound.database_tools</title>
<path fill="none" stroke="#de958e" d="M305.6741,-619.1685C309.7516,-621.7532 313.5688,-624.6996 317,-628.0575 355.8838,-666.1107 312.7887,-708.4098 353,-745.0575 414.0741,-800.719 462.8537,-742.769 535,-783.0575 598.3564,-818.4375 651.5668,-887.356 677.6836,-925.34"/>
<polygon fill="#de958e" stroke="#de958e" points="674.9334,-927.5214 683.4337,-933.8457 680.7326,-923.6009 674.9334,-927.5214"/>
</g>
<!-- schematics.exceptions&#45;&gt;hidebound.specification_base -->
<g id="edge61" class="edge">
<title>schematics.exceptions&#45;&gt;hidebound.specification_base</title>
<path fill="none" stroke="#de958e" d="M317.2959,-600.1469C379.5397,-600.7478 462.4334,-603.8092 535,-614.0575 551.1633,-616.3402 584.7405,-624.3458 616.981,-632.5148"/>
<polygon fill="#de958e" stroke="#de958e" points="616.3683,-635.9705 626.923,-635.0491 618.0974,-629.1874 616.3683,-635.9705"/>
</g>
<!-- schematics.exceptions&#45;&gt;hidebound.tools -->
<g id="edge62" class="edge">
<title>schematics.exceptions&#45;&gt;hidebound.tools</title>
<path fill="none" stroke="#de958e" d="M306.388,-619.1725C310.231,-621.7597 313.8071,-624.7052 317,-628.0575 365.7761,-679.2686 321.3373,-719.8187 353,-783.0575 368.9356,-814.885 396.0612,-845.3455 416.5612,-865.7544"/>
<polygon fill="#de958e" stroke="#de958e" points="414.1804,-868.3216 423.781,-872.8026 419.0703,-863.3126 414.1804,-868.3216"/>
</g>
<!-- schematics.exceptions&#45;&gt;hidebound.validators -->
<g id="edge63" class="edge">
<title>schematics.exceptions&#45;&gt;hidebound.validators</title>
<path fill="none" stroke="#de958e" d="M284.1433,-583.0417C295.3189,-578.9874 306.6853,-574.3063 317,-569.0575 352.9202,-550.7791 390.0914,-523.252 414.8647,-503.4561"/>
<polygon fill="#de958e" stroke="#de958e" points="417.1953,-506.0726 422.771,-497.0636 412.7942,-500.6292 417.1953,-506.0726"/>
</g>
<!-- humanfriendly -->
<g id="node30" class="node">
<title>humanfriendly</title>
<polygon fill="#343434" stroke="#343434" points="284,-909.0575 160,-909.0575 160,-873.0575 284,-873.0575 284,-909.0575"/>
<text text-anchor="middle" x="222" y="-887.3575" font-family="Courier,monospace" font-size="14.00" fill="#de958e">humanfriendly</text>
</g>
<!-- humanfriendly&#45;&gt;hidebound.tools -->
<g id="edge64" class="edge">
<title>humanfriendly&#45;&gt;hidebound.tools</title>
<path fill="none" stroke="#de958e" d="M284.1346,-891.0575C308.7077,-891.0575 337.2729,-891.0575 363.4025,-891.0575"/>
<polygon fill="#de958e" stroke="#de958e" points="363.6643,-894.5576 373.6643,-891.0575 363.6643,-887.5576 363.6643,-894.5576"/>
</g>
<!-- pandas -->
<g id="node31" class="node">
<title>pandas</title>
<polygon fill="#343434" stroke="#343434" points="255,-974.0575 189,-974.0575 189,-938.0575 255,-938.0575 255,-974.0575"/>
<text text-anchor="middle" x="222" y="-952.3575" font-family="Courier,monospace" font-size="14.00" fill="#de958e">pandas</text>
</g>
<!-- pandas&#45;&gt;hidebound.database -->
<g id="edge65" class="edge">
<title>pandas&#45;&gt;hidebound.database</title>
<path fill="none" stroke="#de958e" d="M233.3463,-974.3248C253.2366,-1004.3885 297.6004,-1063.2345 353,-1086.0575 427.7908,-1116.8691 454.2899,-1091.4332 535,-1086.0575 793.2654,-1068.8558 870.5385,-1095.8448 1111,-1000.0575 1147.8941,-985.3608 1184.9044,-958.5997 1209.3737,-938.8193"/>
<polygon fill="#de958e" stroke="#de958e" points="1211.6718,-941.461 1217.1729,-932.4062 1207.2259,-936.0541 1211.6718,-941.461"/>
</g>
<!-- pandas&#45;&gt;hidebound.database_test_base -->
<g id="edge66" class="edge">
<title>pandas&#45;&gt;hidebound.database_test_base</title>
<path fill="none" stroke="#de958e" d="M255.263,-954.4097C325.2329,-950.5585 485.2813,-939.6171 535,-918.0575 736.7353,-830.5788 908.2975,-614.4049 963.9834,-538.7348"/>
<polygon fill="#de958e" stroke="#de958e" points="967.1281,-540.3628 970.1942,-530.2213 961.473,-536.2372 967.1281,-540.3628"/>
</g>
<!-- pandas&#45;&gt;hidebound.database_tools -->
<g id="edge67" class="edge">
<title>pandas&#45;&gt;hidebound.database_tools</title>
<path fill="none" stroke="#de958e" d="M255.2604,-955.7762C321.0593,-955.2198 470.6748,-953.9545 577.083,-953.0547"/>
<polygon fill="#de958e" stroke="#de958e" points="577.2714,-956.5533 587.2414,-952.9688 577.2121,-949.5536 577.2714,-956.5533"/>
</g>
<!-- pandas&#45;&gt;hidebound.tools -->
<g id="edge68" class="edge">
<title>pandas&#45;&gt;hidebound.tools</title>
<path fill="none" stroke="#de958e" d="M255.2356,-946.3263C286.1234,-937.2826 333.1559,-923.5118 372.5455,-911.9789"/>
<polygon fill="#de958e" stroke="#de958e" points="373.767,-915.2682 382.3806,-909.0992 371.8,-908.5503 373.767,-915.2682"/>
</g>
<!-- schematics -->
<g id="node32" class="node">
<title>schematics</title>
<polygon fill="#343434" stroke="#343434" points="493.5,-703.0575 394.5,-703.0575 394.5,-667.0575 493.5,-667.0575 493.5,-703.0575"/>
<text text-anchor="middle" x="444" y="-681.3575" font-family="Courier,monospace" font-size="14.00" fill="#de958e">schematics</text>
</g>
<!-- schematics&#45;&gt;hidebound.config -->
<g id="edge69" class="edge">
<title>schematics&#45;&gt;hidebound.config</title>
<path fill="none" stroke="#de958e" d="M493.7417,-686.3495C585.9523,-688.7446 784.3675,-693.8982 898.1643,-696.854"/>
<polygon fill="#de958e" stroke="#de958e" points="898.1438,-700.3545 908.2314,-697.1155 898.3257,-693.3569 898.1438,-700.3545"/>
</g>
<!-- schematics&#45;&gt;hidebound.specification_base -->
<g id="edge70" class="edge">
<title>schematics&#45;&gt;hidebound.specification_base</title>
<path fill="none" stroke="#de958e" d="M493.5895,-678.7353C513.241,-676.23 536.8701,-673.2175 560.9214,-670.1512"/>
<polygon fill="#de958e" stroke="#de958e" points="561.4003,-673.6186 570.8773,-668.8819 560.515,-666.6748 561.4003,-673.6186"/>
</g>
<!-- schematics.types -->
<g id="node33" class="node">
<title>schematics.types</title>
<polygon fill="#343434" stroke="#343434" points="518.5,-443.0575 369.5,-443.0575 369.5,-407.0575 518.5,-407.0575 518.5,-443.0575"/>
<text text-anchor="middle" x="444" y="-421.3575" font-family="Courier,monospace" font-size="14.00" fill="#de958e">schematics.types</text>
</g>
<!-- schematics.types&#45;&gt;hidebound.config -->
<g id="edge71" class="edge">
<title>schematics.types&#45;&gt;hidebound.config</title>
<path fill="none" stroke="#de958e" d="M512.2883,-443.1996C520.0561,-445.8847 527.7725,-448.843 535,-452.0575 552.133,-459.6776 554.131,-465.8695 571,-474.0575 676.7616,-525.3929 716.8791,-507.8153 819,-566.0575 872.7208,-596.6959 926.8593,-644.7118 957.5353,-673.8963"/>
<polygon fill="#de958e" stroke="#de958e" points="955.1778,-676.485 964.8142,-680.8884 960.0271,-671.4367 955.1778,-676.485"/>
</g>
<!-- schematics.types&#45;&gt;hidebound.database_test_base -->
<g id="edge72" class="edge">
<title>schematics.types&#45;&gt;hidebound.database_test_base</title>
<path fill="none" stroke="#de958e" d="M518.5446,-434.5507C594.3564,-444.4965 715.128,-461.1424 819,-479.0575 841.4379,-482.9274 865.5137,-487.522 888.1198,-492.0344"/>
<polygon fill="#de958e" stroke="#de958e" points="887.5555,-495.4909 898.049,-494.0297 888.9346,-488.6281 887.5555,-495.4909"/>
</g>
<!-- schematics.types&#45;&gt;hidebound.specification_base -->
<g id="edge73" class="edge">
<title>schematics.types&#45;&gt;hidebound.specification_base</title>
<path fill="none" stroke="#de958e" d="M518.6516,-442.3155C524.4393,-445.0948 529.9765,-448.3186 535,-452.0575 558.4364,-469.5008 553.5099,-483.656 571,-507.0575 603.7562,-550.8848 645.6275,-598.6838 671.3669,-627.2457"/>
<polygon fill="#de958e" stroke="#de958e" points="668.8729,-629.706 678.1779,-634.7723 674.0632,-625.0091 668.8729,-629.706"/>
</g>
<!-- schematics.types&#45;&gt;hidebound.specifications -->
<g id="edge74" class="edge">
<title>schematics.types&#45;&gt;hidebound.specifications</title>
<path fill="none" stroke="#de958e" d="M518.6625,-408.7121C615.8212,-387.4417 785.5593,-350.282 890.6904,-327.2663"/>
<polygon fill="#de958e" stroke="#de958e" points="891.6379,-330.6418 900.658,-325.0841 890.1409,-323.8038 891.6379,-330.6418"/>
</g>
<!-- schematics.types&#45;&gt;hidebound.test_specifications -->
<g id="edge75" class="edge">
<title>schematics.types&#45;&gt;hidebound.test_specifications</title>
<path fill="none" stroke="#de958e" d="M480.1723,-407.0377C499.0682,-395.9077 521.0903,-379.9444 535,-360.0575 569.3619,-310.9298 523.2847,-266.3551 571,-230.0575 677.6451,-148.9313 848.3883,-198.6296 932.636,-231.2905"/>
<polygon fill="#de958e" stroke="#de958e" points="931.396,-234.5638 941.9825,-234.9823 933.9676,-228.0533 931.396,-234.5638"/>
</g>
<!-- wrapt -->
<g id="node34" class="node">
<title>wrapt</title>
<polygon fill="#343434" stroke="#343434" points="251,-451.0575 193,-451.0575 193,-415.0575 251,-415.0575 251,-451.0575"/>
<text text-anchor="middle" x="222" y="-429.3575" font-family="Courier,monospace" font-size="14.00" fill="#de958e">wrapt</text>
</g>
<!-- wrapt&#45;&gt;hidebound.validators -->
<g id="edge76" class="edge">
<title>wrapt&#45;&gt;hidebound.validators</title>
<path fill="none" stroke="#de958e" d="M251.0226,-439.0712C275.5191,-444.147 312.0507,-451.7167 346.7595,-458.9086"/>
<polygon fill="#de958e" stroke="#de958e" points="346.4693,-462.4227 356.9715,-461.0246 347.8897,-455.5683 346.4693,-462.4227"/>
</g>
<!-- skimage.io -->
<g id="node35" class="node">
<title>skimage.io</title>
<polygon fill="#343434" stroke="#343434" points="493.5,-351.0575 394.5,-351.0575 394.5,-315.0575 493.5,-315.0575 493.5,-351.0575"/>
<text text-anchor="middle" x="444" y="-329.3575" font-family="Courier,monospace" font-size="14.00" fill="#de958e">skimage.io</text>
</g>
<!-- skimage.io&#45;&gt;hidebound.database_test_base -->
<g id="edge77" class="edge">
<title>skimage.io&#45;&gt;hidebound.database_test_base</title>
<path fill="none" stroke="#de958e" d="M493.7092,-336.0005C567.2393,-341.7396 708.2334,-358.0991 819,-403.0575 870.615,-424.0072 922.9639,-462.4456 954.2028,-487.6233"/>
<polygon fill="#de958e" stroke="#de958e" points="952.096,-490.4216 962.0561,-494.0335 956.5223,-484.9987 952.096,-490.4216"/>
</g>
<!-- skimage.io&#45;&gt;hidebound.traits -->
<g id="edge78" class="edge">
<title>skimage.io&#45;&gt;hidebound.traits</title>
<path fill="none" stroke="#de958e" d="M493.7803,-315.5953C525.932,-304.3546 563.1811,-291.4166 571,-289.0575 583.9317,-285.1558 597.7092,-281.3037 611.2028,-277.6974"/>
<polygon fill="#de958e" stroke="#de958e" points="612.1885,-281.0572 620.962,-275.1178 610.3995,-274.2896 612.1885,-281.0572"/>
</g>
</g>
</svg>
