<?xml version="1.0" encoding="UTF-8" standalone="no"?>
<!DOCTYPE svg PUBLIC "-//W3C//DTD SVG 1.1//EN"
 "http://www.w3.org/Graphics/SVG/1.1/DTD/svg11.dtd">
<!-- Generated by graphviz version 2.40.1 (20161225.0304)
 -->
<!-- Title: %3 Pages: 1 -->
<svg width="2644pt" height="2146pt"
 viewBox="0.00 0.00 2644.00 2146.49" xmlns="http://www.w3.org/2000/svg" xmlns:xlink="http://www.w3.org/1999/xlink">
<g id="graph0" class="graph" transform="scale(1 1) rotate(0) translate(4 2142.4851)">
<title>%3</title>
<polygon fill="#242424" stroke="transparent" points="-4,4 -4,-2142.4851 2640,-2142.4851 2640,4 -4,4"/>
<!-- cli -->
<g id="node1" class="node">
<title>cli</title>
<polygon fill="#343434" stroke="#343434" points="171.5,-988.5384 117.5,-988.5384 117.5,-952.5384 171.5,-952.5384 171.5,-988.5384"/>
<text text-anchor="middle" x="144.5" y="-966.8384" font-family="Courier,monospace" font-size="14.00" fill="#b6ecf3">cli</text>
</g>
<!-- hidebound.core.config -->
<g id="node2" class="node">
<title>hidebound.core.config</title>
<polygon fill="#343434" stroke="#343434" points="1867,-1500.5384 1677,-1500.5384 1677,-1464.5384 1867,-1464.5384 1867,-1500.5384"/>
<text text-anchor="middle" x="1772" y="-1478.8384" font-family="Courier,monospace" font-size="14.00" fill="#b6ecf3">hidebound.core.config</text>
</g>
<!-- hidebound.core.database -->
<g id="node3" class="node">
<title>hidebound.core.database</title>
<polygon fill="#343434" stroke="#343434" points="2134,-1091.5384 1928,-1091.5384 1928,-1055.5384 2134,-1055.5384 2134,-1091.5384"/>
<text text-anchor="middle" x="2031" y="-1069.8384" font-family="Courier,monospace" font-size="14.00" fill="#b6ecf3">hidebound.core.database</text>
</g>
<!-- hidebound.core.config&#45;&gt;hidebound.core.database -->
<g id="edge1" class="edge">
<title>hidebound.core.config&#45;&gt;hidebound.core.database</title>
<path fill="none" stroke="#b6ecf3" d="M1812.5156,-1464.4547C1831.5411,-1454.092 1853.0495,-1439.3709 1867,-1420.5384 1901.1589,-1374.4254 1880.5566,-1349.3544 1903,-1296.5384 1934.7308,-1221.8662 1985.9259,-1140.8182 2012.9524,-1100.0874"/>
<polygon fill="#b6ecf3" stroke="#b6ecf3" points="2016.0059,-1101.8174 2018.6509,-1091.5581 2010.1853,-1097.9287 2016.0059,-1101.8174"/>
</g>
<!-- hidebound.server.app -->
<g id="node17" class="node">
<title>hidebound.server.app</title>
<polygon fill="#343434" stroke="#343434" points="2636,-328.5384 2454,-328.5384 2454,-292.5384 2636,-292.5384 2636,-328.5384"/>
<text text-anchor="middle" x="2545" y="-306.8384" font-family="Courier,monospace" font-size="14.00" fill="#b6ecf3">hidebound.server.app</text>
</g>
<!-- hidebound.core.config&#45;&gt;hidebound.server.app -->
<g id="edge2" class="edge">
<title>hidebound.core.config&#45;&gt;hidebound.server.app</title>
<path fill="none" stroke="#b6ecf3" d="M1795.0665,-1464.4044C1859.3187,-1412.9996 2043.2043,-1259.7102 2159,-1100.5384 2309.7214,-893.3579 2306.7199,-816.3141 2418,-585.5384 2461.3793,-495.5772 2510.2911,-387.7454 2532.6526,-338.0685"/>
<polygon fill="#b6ecf3" stroke="#b6ecf3" points="2535.9769,-339.21 2536.8858,-328.6542 2529.5926,-336.3393 2535.9769,-339.21"/>
</g>
<!-- hidebound.server.api -->
<g id="node16" class="node">
<title>hidebound.server.api</title>
<polygon fill="#343434" stroke="#343434" points="2397.5,-529.5384 2215.5,-529.5384 2215.5,-493.5384 2397.5,-493.5384 2397.5,-529.5384"/>
<text text-anchor="middle" x="2306.5" y="-507.8384" font-family="Courier,monospace" font-size="14.00" fill="#b6ecf3">hidebound.server.api</text>
</g>
<!-- hidebound.core.database&#45;&gt;hidebound.server.api -->
<g id="edge3" class="edge">
<title>hidebound.core.database&#45;&gt;hidebound.server.api</title>
<path fill="none" stroke="#b6ecf3" d="M2039.8543,-1055.4761C2079.9644,-973.6546 2244.7561,-637.4914 2293.1063,-538.8606"/>
<polygon fill="#b6ecf3" stroke="#b6ecf3" points="2296.2811,-540.3356 2297.5402,-529.8158 2289.9957,-537.2543 2296.2811,-540.3356"/>
</g>
<!-- hidebound.core.database_tools -->
<g id="node4" class="node">
<title>hidebound.core.database_tools</title>
<polygon fill="#343434" stroke="#343434" points="1600,-821.5384 1344,-821.5384 1344,-785.5384 1600,-785.5384 1600,-821.5384"/>
<text text-anchor="middle" x="1472" y="-799.8384" font-family="Courier,monospace" font-size="14.00" fill="#b6ecf3">hidebound.core.database_tools</text>
</g>
<!-- hidebound.core.database_tools&#45;&gt;hidebound.core.database -->
<g id="edge4" class="edge">
<title>hidebound.core.database_tools&#45;&gt;hidebound.core.database</title>
<path fill="none" stroke="#b6ecf3" d="M1600.3358,-816.5576C1697.8764,-828.2366 1822.6003,-847.5425 1867,-873.5384 1939.202,-915.8124 1993.1806,-1002.5 2017.2138,-1046.554"/>
<polygon fill="#b6ecf3" stroke="#b6ecf3" points="2014.2119,-1048.3625 2022.0159,-1055.5284 2020.3839,-1045.06 2014.2119,-1048.3625"/>
</g>
<!-- hidebound.core.logging -->
<g id="node5" class="node">
<title>hidebound.core.logging</title>
<polygon fill="#343434" stroke="#343434" points="929.5,-825.5384 731.5,-825.5384 731.5,-789.5384 929.5,-789.5384 929.5,-825.5384"/>
<text text-anchor="middle" x="830.5" y="-803.8384" font-family="Courier,monospace" font-size="14.00" fill="#b6ecf3">hidebound.core.logging</text>
</g>
<!-- hidebound.core.logging&#45;&gt;hidebound.core.database -->
<g id="edge5" class="edge">
<title>hidebound.core.logging&#45;&gt;hidebound.core.database</title>
<path fill="none" stroke="#b6ecf3" d="M929.6888,-814.7017C1154.8621,-831.992 1698.1883,-879.7975 1867,-949.5384 1922.4198,-972.4338 1975.7252,-1018.676 2005.8272,-1047.7656"/>
<polygon fill="#b6ecf3" stroke="#b6ecf3" points="2003.7372,-1050.6184 2013.3262,-1055.1242 2008.6401,-1045.6221 2003.7372,-1050.6184"/>
</g>
<!-- hidebound.exporters.exporter_base -->
<g id="node12" class="node">
<title>hidebound.exporters.exporter_base</title>
<polygon fill="#343434" stroke="#343434" points="1267,-1309.5384 978,-1309.5384 978,-1273.5384 1267,-1273.5384 1267,-1309.5384"/>
<text text-anchor="middle" x="1122.5" y="-1287.8384" font-family="Courier,monospace" font-size="14.00" fill="#b6ecf3">hidebound.exporters.exporter_base</text>
</g>
<!-- hidebound.core.logging&#45;&gt;hidebound.exporters.exporter_base -->
<g id="edge6" class="edge">
<title>hidebound.core.logging&#45;&gt;hidebound.exporters.exporter_base</title>
<path fill="none" stroke="#b6ecf3" d="M843.1625,-825.783C866.5896,-860.4614 916.6166,-939.0095 942,-1012.5384 973.4727,-1103.7063 919.0666,-1150.1906 978,-1226.5384 993.1425,-1246.1553 1015.522,-1260.0151 1038.1699,-1269.7403"/>
<polygon fill="#b6ecf3" stroke="#b6ecf3" points="1036.9455,-1273.0205 1047.5281,-1273.5289 1039.5723,-1266.532 1036.9455,-1273.0205"/>
</g>
<!-- hidebound.server.progress -->
<g id="node19" class="node">
<title>hidebound.server.progress</title>
<polygon fill="#343434" stroke="#343434" points="2142.5,-561.5384 1919.5,-561.5384 1919.5,-525.5384 2142.5,-525.5384 2142.5,-561.5384"/>
<text text-anchor="middle" x="2031" y="-539.8384" font-family="Courier,monospace" font-size="14.00" fill="#b6ecf3">hidebound.server.progress</text>
</g>
<!-- hidebound.core.logging&#45;&gt;hidebound.server.progress -->
<g id="edge7" class="edge">
<title>hidebound.core.logging&#45;&gt;hidebound.server.progress</title>
<path fill="none" stroke="#b6ecf3" d="M832.4915,-789.4197C839.7331,-733.4396 870.2003,-562.9079 978,-494.5384 1144.8312,-388.7293 1671.5224,-465.9601 1867,-494.5384 1877.0378,-496.0059 1923.0292,-509.8495 1963.7623,-522.4487"/>
<polygon fill="#b6ecf3" stroke="#b6ecf3" points="1962.8483,-525.8297 1973.4362,-525.4479 1964.9212,-519.1436 1962.8483,-525.8297"/>
</g>
<!-- hidebound.core.parser -->
<g id="node6" class="node">
<title>hidebound.core.parser</title>
<polygon fill="#343434" stroke="#343434" points="683,-1832.5384 493,-1832.5384 493,-1796.5384 683,-1796.5384 683,-1832.5384"/>
<text text-anchor="middle" x="588" y="-1810.8384" font-family="Courier,monospace" font-size="14.00" fill="#b6ecf3">hidebound.core.parser</text>
</g>
<!-- hidebound.core.parser&#45;&gt;hidebound.core.database_tools -->
<g id="edge8" class="edge">
<title>hidebound.core.parser&#45;&gt;hidebound.core.database_tools</title>
<path fill="none" stroke="#b6ecf3" d="M622.4967,-1832.8153C642.6494,-1845.0555 667.1543,-1862.8778 683,-1884.5384 712.376,-1924.6944 678.5555,-1961.5608 719,-1990.5384 817.992,-2061.4637 1179.1824,-2074.906 1267,-1990.5384 1339.0105,-1921.3568 1274.9617,-1188.3792 1303,-1092.5384 1334.0987,-986.2363 1412.5401,-878.0594 1450.6119,-829.6993"/>
<polygon fill="#b6ecf3" stroke="#b6ecf3" points="1453.5292,-831.6541 1457.014,-821.6488 1448.0504,-827.2972 1453.5292,-831.6541"/>
</g>
<!-- hidebound.core.specification_base -->
<g id="node7" class="node">
<title>hidebound.core.specification_base</title>
<polygon fill="#343434" stroke="#343434" points="1267,-1737.5384 978,-1737.5384 978,-1701.5384 1267,-1701.5384 1267,-1737.5384"/>
<text text-anchor="middle" x="1122.5" y="-1715.8384" font-family="Courier,monospace" font-size="14.00" fill="#b6ecf3">hidebound.core.specification_base</text>
</g>
<!-- hidebound.core.parser&#45;&gt;hidebound.core.specification_base -->
<g id="edge9" class="edge">
<title>hidebound.core.parser&#45;&gt;hidebound.core.specification_base</title>
<path fill="none" stroke="#b6ecf3" d="M683.1402,-1818.225C755.1192,-1818.9081 855.9277,-1815.3353 942,-1795.5384 991.4291,-1784.1695 1044.5398,-1760.2453 1080.2588,-1742.2577"/>
<polygon fill="#b6ecf3" stroke="#b6ecf3" points="1082.0869,-1745.2542 1089.4028,-1737.5909 1078.9047,-1739.0193 1082.0869,-1745.2542"/>
</g>
<!-- hidebound.core.validators -->
<g id="node11" class="node">
<title>hidebound.core.validators</title>
<polygon fill="#343434" stroke="#343434" points="942,-1786.5384 719,-1786.5384 719,-1750.5384 942,-1750.5384 942,-1786.5384"/>
<text text-anchor="middle" x="830.5" y="-1764.8384" font-family="Courier,monospace" font-size="14.00" fill="#b6ecf3">hidebound.core.validators</text>
</g>
<!-- hidebound.core.parser&#45;&gt;hidebound.core.validators -->
<g id="edge10" class="edge">
<title>hidebound.core.parser&#45;&gt;hidebound.core.validators</title>
<path fill="none" stroke="#b6ecf3" d="M683.1464,-1796.49C696.9204,-1793.8772 711.1661,-1791.1749 725.1262,-1788.5268"/>
<polygon fill="#b6ecf3" stroke="#b6ecf3" points="726.0574,-1791.9126 735.2299,-1786.6102 724.7528,-1785.0353 726.0574,-1791.9126"/>
</g>
<!-- hidebound.core.specification_base&#45;&gt;hidebound.core.config -->
<g id="edge11" class="edge">
<title>hidebound.core.specification_base&#45;&gt;hidebound.core.config</title>
<path fill="none" stroke="#b6ecf3" d="M1267.1521,-1724.9815C1398.215,-1727.3583 1579.8861,-1723.5028 1641,-1687.5384 1709.1909,-1647.4093 1747.7303,-1556.2368 1763.4992,-1510.2128"/>
<polygon fill="#b6ecf3" stroke="#b6ecf3" points="1766.8657,-1511.1802 1766.6892,-1500.5868 1760.2211,-1508.9781 1766.8657,-1511.1802"/>
</g>
<!-- hidebound.core.specification_base&#45;&gt;hidebound.core.database -->
<g id="edge12" class="edge">
<title>hidebound.core.specification_base&#45;&gt;hidebound.core.database</title>
<path fill="none" stroke="#b6ecf3" d="M1267.2076,-1731.6034C1396.5721,-1740.2574 1575.5226,-1746.3531 1641,-1720.5384 1909.6377,-1614.6268 2004.667,-1212.3322 2026.0061,-1101.7911"/>
<polygon fill="#b6ecf3" stroke="#b6ecf3" points="2029.4876,-1102.2151 2027.8964,-1091.7405 2022.6082,-1100.9212 2029.4876,-1102.2151"/>
</g>
<!-- hidebound.core.specification_base&#45;&gt;hidebound.core.database_tools -->
<g id="edge13" class="edge">
<title>hidebound.core.specification_base&#45;&gt;hidebound.core.database_tools</title>
<path fill="none" stroke="#b6ecf3" d="M1151.0432,-1701.4049C1185.3972,-1677.7931 1241.6244,-1633.0324 1267,-1578.5384 1358.4307,-1382.1907 1238.6733,-1299.3573 1303,-1092.5384 1335.8945,-986.7782 1413.4582,-878.3365 1450.9639,-829.8056"/>
<polygon fill="#b6ecf3" stroke="#b6ecf3" points="1453.8762,-831.7627 1457.2681,-821.7254 1448.3572,-827.4567 1453.8762,-831.7627"/>
</g>
<!-- hidebound.core.specifications -->
<g id="node8" class="node">
<title>hidebound.core.specifications</title>
<polygon fill="#343434" stroke="#343434" points="1600,-1935.5384 1344,-1935.5384 1344,-1899.5384 1600,-1899.5384 1600,-1935.5384"/>
<text text-anchor="middle" x="1472" y="-1913.8384" font-family="Courier,monospace" font-size="14.00" fill="#b6ecf3">hidebound.core.specifications</text>
</g>
<!-- hidebound.core.specification_base&#45;&gt;hidebound.core.specifications -->
<g id="edge14" class="edge">
<title>hidebound.core.specification_base&#45;&gt;hidebound.core.specifications</title>
<path fill="none" stroke="#b6ecf3" d="M1230.5185,-1737.6285C1243.1149,-1741.4298 1255.5435,-1746.0142 1267,-1751.5384 1341.3264,-1787.3779 1412.5804,-1855.002 1448.2662,-1891.9134"/>
<polygon fill="#b6ecf3" stroke="#b6ecf3" points="1445.8891,-1894.4919 1455.3296,-1899.3013 1450.9488,-1889.6545 1445.8891,-1894.4919"/>
</g>
<!-- hidebound.core.tools -->
<g id="node9" class="node">
<title>hidebound.core.tools</title>
<polygon fill="#343434" stroke="#343434" points="921.5,-1125.5384 739.5,-1125.5384 739.5,-1089.5384 921.5,-1089.5384 921.5,-1125.5384"/>
<text text-anchor="middle" x="830.5" y="-1103.8384" font-family="Courier,monospace" font-size="14.00" fill="#b6ecf3">hidebound.core.tools</text>
</g>
<!-- hidebound.core.tools&#45;&gt;hidebound.core.database -->
<g id="edge15" class="edge">
<title>hidebound.core.tools&#45;&gt;hidebound.core.database</title>
<path fill="none" stroke="#b6ecf3" d="M921.5175,-1104.4966C1016.6617,-1101.3526 1170.3031,-1096.3763 1303,-1092.5384 1520.5226,-1086.2471 1774.633,-1079.8268 1917.8031,-1076.2949"/>
<polygon fill="#b6ecf3" stroke="#b6ecf3" points="1918.0069,-1079.791 1927.9176,-1076.0456 1917.8343,-1072.7931 1918.0069,-1079.791"/>
</g>
<!-- hidebound.core.tools&#45;&gt;hidebound.core.database_tools -->
<g id="edge16" class="edge">
<title>hidebound.core.tools&#45;&gt;hidebound.core.database_tools</title>
<path fill="none" stroke="#b6ecf3" d="M883.1471,-1089.5038C901.8982,-1082.7333 923.0558,-1074.6933 942,-1066.5384 1127.6663,-986.6144 1341.0638,-874.1602 1429.8501,-826.4138"/>
<polygon fill="#b6ecf3" stroke="#b6ecf3" points="1431.6573,-829.4159 1438.8015,-821.5921 1428.3376,-823.2531 1431.6573,-829.4159"/>
</g>
<!-- hidebound.core.tools&#45;&gt;hidebound.core.specification_base -->
<g id="edge17" class="edge">
<title>hidebound.core.tools&#45;&gt;hidebound.core.specification_base</title>
<path fill="none" stroke="#b6ecf3" d="M837.3899,-1125.5585C855.859,-1174.2469 907.4149,-1312.7096 942,-1430.5384 961.0657,-1495.4938 944.4731,-1519.728 978,-1578.5384 1005.7655,-1627.2424 1055.2427,-1670.1277 1088.4628,-1695.4532"/>
<polygon fill="#b6ecf3" stroke="#b6ecf3" points="1086.4349,-1698.3072 1096.5352,-1701.5064 1090.6344,-1692.7068 1086.4349,-1698.3072"/>
</g>
<!-- hidebound.core.traits -->
<g id="node10" class="node">
<title>hidebound.core.traits</title>
<polygon fill="#343434" stroke="#343434" points="1217.5,-1981.5384 1027.5,-1981.5384 1027.5,-1945.5384 1217.5,-1945.5384 1217.5,-1981.5384"/>
<text text-anchor="middle" x="1122.5" y="-1959.8384" font-family="Courier,monospace" font-size="14.00" fill="#b6ecf3">hidebound.core.traits</text>
</g>
<!-- hidebound.core.tools&#45;&gt;hidebound.core.traits -->
<g id="edge18" class="edge">
<title>hidebound.core.tools&#45;&gt;hidebound.core.traits</title>
<path fill="none" stroke="#b6ecf3" d="M838.3565,-1125.6967C858.9772,-1174.1702 914.9179,-1311.0664 942,-1430.5384 973.2493,-1568.3938 929.4703,-1613.7773 978,-1746.5384 1005.9996,-1823.136 1066.169,-1899.4088 1099.3525,-1937.868"/>
<polygon fill="#b6ecf3" stroke="#b6ecf3" points="1096.79,-1940.2548 1106.0026,-1945.4874 1102.0638,-1935.6519 1096.79,-1940.2548"/>
</g>
<!-- hidebound.core.tools&#45;&gt;hidebound.exporters.exporter_base -->
<g id="edge19" class="edge">
<title>hidebound.core.tools&#45;&gt;hidebound.exporters.exporter_base</title>
<path fill="none" stroke="#b6ecf3" d="M842.5147,-1125.592C865.0243,-1157.8958 916.8369,-1225.3921 978,-1259.5384 985.0977,-1263.5009 992.648,-1266.9728 1000.4306,-1270.0147"/>
<polygon fill="#b6ecf3" stroke="#b6ecf3" points="999.4301,-1273.3753 1010.024,-1273.5161 1001.8302,-1266.7996 999.4301,-1273.3753"/>
</g>
<!-- hidebound.exporters.local_disk_exporter -->
<g id="node14" class="node">
<title>hidebound.exporters.local_disk_exporter</title>
<polygon fill="#343434" stroke="#343434" points="1641,-1137.5384 1303,-1137.5384 1303,-1101.5384 1641,-1101.5384 1641,-1137.5384"/>
<text text-anchor="middle" x="1472" y="-1115.8384" font-family="Courier,monospace" font-size="14.00" fill="#b6ecf3">hidebound.exporters.local_disk_exporter</text>
</g>
<!-- hidebound.core.tools&#45;&gt;hidebound.exporters.local_disk_exporter -->
<g id="edge20" class="edge">
<title>hidebound.core.tools&#45;&gt;hidebound.exporters.local_disk_exporter</title>
<path fill="none" stroke="#b6ecf3" d="M921.73,-1109.2449C1017.9556,-1111.0449 1172.0564,-1113.9276 1292.7374,-1116.1851"/>
<polygon fill="#b6ecf3" stroke="#b6ecf3" points="1292.7703,-1119.6862 1302.834,-1116.3739 1292.9013,-1112.6874 1292.7703,-1119.6862"/>
</g>
<!-- hidebound.exporters.s3_exporter -->
<g id="node15" class="node">
<title>hidebound.exporters.s3_exporter</title>
<polygon fill="#343434" stroke="#343434" points="1608,-1500.5384 1336,-1500.5384 1336,-1464.5384 1608,-1464.5384 1608,-1500.5384"/>
<text text-anchor="middle" x="1472" y="-1478.8384" font-family="Courier,monospace" font-size="14.00" fill="#b6ecf3">hidebound.exporters.s3_exporter</text>
</g>
<!-- hidebound.core.tools&#45;&gt;hidebound.exporters.s3_exporter -->
<g id="edge21" class="edge">
<title>hidebound.core.tools&#45;&gt;hidebound.exporters.s3_exporter</title>
<path fill="none" stroke="#b6ecf3" d="M838.2984,-1125.7413C856.6191,-1166.3795 906.3337,-1265.1104 978,-1318.5384 1085.667,-1398.8052 1234.8045,-1441.1473 1340.9815,-1462.5468"/>
<polygon fill="#b6ecf3" stroke="#b6ecf3" points="1340.308,-1465.9813 1350.7974,-1464.4902 1341.6676,-1459.1146 1340.308,-1465.9813"/>
</g>
<!-- hidebound.core.traits&#45;&gt;hidebound.core.specifications -->
<g id="edge22" class="edge">
<title>hidebound.core.traits&#45;&gt;hidebound.core.specifications</title>
<path fill="none" stroke="#b6ecf3" d="M1217.5408,-1951.0294C1253.2601,-1946.3282 1294.6341,-1940.8827 1333.5048,-1935.7666"/>
<polygon fill="#b6ecf3" stroke="#b6ecf3" points="1334.4019,-1939.1788 1343.8596,-1934.4038 1333.4884,-1932.2387 1334.4019,-1939.1788"/>
</g>
<!-- hidebound.core.validators&#45;&gt;hidebound.core.config -->
<g id="edge23" class="edge">
<title>hidebound.core.validators&#45;&gt;hidebound.core.config</title>
<path fill="none" stroke="#b6ecf3" d="M842.5394,-1786.6889C877.6797,-1839.6623 977.6639,-1990.3581 978,-1990.5384 1238.3158,-2130.1166 1416.6986,-2136.724 1641,-1944.5384 1708.8328,-1886.4179 1754.8936,-1601.8844 1768.1025,-1510.7074"/>
<polygon fill="#b6ecf3" stroke="#b6ecf3" points="1771.6005,-1510.9694 1769.5498,-1500.575 1764.6709,-1509.9796 1771.6005,-1510.9694"/>
</g>
<!-- hidebound.core.validators&#45;&gt;hidebound.core.specification_base -->
<g id="edge24" class="edge">
<title>hidebound.core.validators&#45;&gt;hidebound.core.specification_base</title>
<path fill="none" stroke="#b6ecf3" d="M937.986,-1750.5013C959.7027,-1746.8571 982.6438,-1743.0074 1004.693,-1739.3073"/>
<polygon fill="#b6ecf3" stroke="#b6ecf3" points="1005.4706,-1742.7259 1014.7534,-1737.6191 1004.312,-1735.8224 1005.4706,-1742.7259"/>
</g>
<!-- hidebound.core.validators&#45;&gt;hidebound.core.specifications -->
<g id="edge25" class="edge">
<title>hidebound.core.validators&#45;&gt;hidebound.core.specifications</title>
<path fill="none" stroke="#b6ecf3" d="M861.7434,-1786.7529C885.223,-1801.2704 917.4312,-1823.0089 942,-1846.5384 961.0033,-1864.7378 954.6957,-1881.3213 978,-1893.5384 1037.5913,-1924.7786 1209.3572,-1926.7637 1333.6215,-1923.6049"/>
<polygon fill="#b6ecf3" stroke="#b6ecf3" points="1334.083,-1927.0939 1343.9855,-1923.3269 1333.8952,-1920.0964 1334.083,-1927.0939"/>
</g>
<!-- hidebound.core.validators&#45;&gt;hidebound.exporters.exporter_base -->
<g id="edge26" class="edge">
<title>hidebound.core.validators&#45;&gt;hidebound.exporters.exporter_base</title>
<path fill="none" stroke="#b6ecf3" d="M843.1755,-1750.4449C865.5385,-1717.897 912.4245,-1646.7751 942,-1581.5384 963.4145,-1534.3028 953.3001,-1516.142 978,-1470.5384 1010.753,-1410.0662 1064.822,-1349.9587 1096.7123,-1317.0854"/>
<polygon fill="#b6ecf3" stroke="#b6ecf3" points="1099.4326,-1319.3101 1103.9321,-1309.7182 1094.4331,-1314.4107 1099.4326,-1319.3101"/>
</g>
<!-- hidebound.exporters.girder_exporter -->
<g id="node13" class="node">
<title>hidebound.exporters.girder_exporter</title>
<polygon fill="#343434" stroke="#343434" points="1624.5,-1393.5384 1319.5,-1393.5384 1319.5,-1357.5384 1624.5,-1357.5384 1624.5,-1393.5384"/>
<text text-anchor="middle" x="1472" y="-1371.8384" font-family="Courier,monospace" font-size="14.00" fill="#b6ecf3">hidebound.exporters.girder_exporter</text>
</g>
<!-- hidebound.core.validators&#45;&gt;hidebound.exporters.girder_exporter -->
<g id="edge27" class="edge">
<title>hidebound.core.validators&#45;&gt;hidebound.exporters.girder_exporter</title>
<path fill="none" stroke="#b6ecf3" d="M872.8281,-1786.6321C901.8298,-1798.0172 941.5067,-1811.6354 978,-1817.5384 1041.3982,-1827.7934 1219.3941,-1860.6448 1267,-1817.5384 1326.9251,-1763.2771 1256.4307,-1521.6187 1303,-1455.5384 1322.5734,-1427.7644 1354.3938,-1409.3283 1385.174,-1397.2372"/>
<polygon fill="#b6ecf3" stroke="#b6ecf3" points="1386.5364,-1400.4645 1394.6784,-1393.6852 1384.0859,-1393.9075 1386.5364,-1400.4645"/>
</g>
<!-- hidebound.core.validators&#45;&gt;hidebound.exporters.local_disk_exporter -->
<g id="edge28" class="edge">
<title>hidebound.core.validators&#45;&gt;hidebound.exporters.local_disk_exporter</title>
<path fill="none" stroke="#b6ecf3" d="M888.111,-1786.539C981.4179,-1811.7172 1165.3729,-1844.1943 1267,-1746.5384 1331.0336,-1685.0069 1271.4678,-1431.5573 1303,-1348.5384 1334.9089,-1264.5275 1406.7793,-1184.3025 1445.7242,-1144.8875"/>
<polygon fill="#b6ecf3" stroke="#b6ecf3" points="1448.4561,-1147.1055 1453.0526,-1137.5597 1443.5065,-1142.1555 1448.4561,-1147.1055"/>
</g>
<!-- hidebound.core.validators&#45;&gt;hidebound.exporters.s3_exporter -->
<g id="edge29" class="edge">
<title>hidebound.core.validators&#45;&gt;hidebound.exporters.s3_exporter</title>
<path fill="none" stroke="#b6ecf3" d="M852.7463,-1786.891C880.1964,-1808.2318 929.2422,-1842.2302 978,-1855.5384 1039.9559,-1872.4489 1211.7232,-1888.2335 1267,-1855.5384 1398.2402,-1777.9125 1451.1007,-1583.0782 1466.6679,-1510.4259"/>
<polygon fill="#b6ecf3" stroke="#b6ecf3" points="1470.0975,-1511.1238 1468.699,-1500.6217 1463.2431,-1509.7038 1470.0975,-1511.1238"/>
</g>
<!-- hidebound.exporters.exporter_base&#45;&gt;hidebound.exporters.girder_exporter -->
<g id="edge30" class="edge">
<title>hidebound.exporters.exporter_base&#45;&gt;hidebound.exporters.girder_exporter</title>
<path fill="none" stroke="#b6ecf3" d="M1197.4765,-1309.5585C1253.126,-1322.9335 1329.0766,-1341.1877 1386.985,-1355.1056"/>
<polygon fill="#b6ecf3" stroke="#b6ecf3" points="1386.3055,-1358.5419 1396.8466,-1357.4757 1387.9414,-1351.7357 1386.3055,-1358.5419"/>
</g>
<!-- hidebound.exporters.exporter_base&#45;&gt;hidebound.exporters.local_disk_exporter -->
<g id="edge31" class="edge">
<title>hidebound.exporters.exporter_base&#45;&gt;hidebound.exporters.local_disk_exporter</title>
<path fill="none" stroke="#b6ecf3" d="M1164.533,-1273.4046C1193.5272,-1260.7077 1232.8492,-1243.1144 1267,-1226.5384 1324.0817,-1198.8321 1388.8173,-1164.5533 1429.9997,-1142.3774"/>
<polygon fill="#b6ecf3" stroke="#b6ecf3" points="1431.7869,-1145.3901 1438.926,-1137.5616 1428.4632,-1139.2295 1431.7869,-1145.3901"/>
</g>
<!-- hidebound.exporters.exporter_base&#45;&gt;hidebound.exporters.s3_exporter -->
<g id="edge32" class="edge">
<title>hidebound.exporters.exporter_base&#45;&gt;hidebound.exporters.s3_exporter</title>
<path fill="none" stroke="#b6ecf3" d="M1171.7649,-1309.6263C1201.0709,-1321.7437 1238.0555,-1339.5036 1267,-1361.5384 1286.2949,-1376.2271 1283.6393,-1387.9366 1303,-1402.5384 1335.5521,-1427.089 1376.8436,-1446.8066 1410.4628,-1460.5237"/>
<polygon fill="#b6ecf3" stroke="#b6ecf3" points="1409.594,-1463.9457 1420.1787,-1464.4094 1412.1934,-1457.4462 1409.594,-1463.9457"/>
</g>
<!-- hidebound.exporters.girder_exporter&#45;&gt;hidebound.core.config -->
<g id="edge33" class="edge">
<title>hidebound.exporters.girder_exporter&#45;&gt;hidebound.core.config</title>
<path fill="none" stroke="#b6ecf3" d="M1522.5517,-1393.5685C1574.7727,-1412.194 1656.2615,-1441.2583 1711.7836,-1461.0612"/>
<polygon fill="#b6ecf3" stroke="#b6ecf3" points="1710.897,-1464.4609 1721.4917,-1464.5237 1713.2486,-1457.8677 1710.897,-1464.4609"/>
</g>
<!-- hidebound.exporters.girder_exporter&#45;&gt;hidebound.core.database -->
<g id="edge34" class="edge">
<title>hidebound.exporters.girder_exporter&#45;&gt;hidebound.core.database</title>
<path fill="none" stroke="#b6ecf3" d="M1558.651,-1357.51C1642.1976,-1337.4499 1769.9043,-1299.5675 1867,-1238.5384 1927.7816,-1200.3343 1983.2223,-1135.6363 2011.4359,-1099.654"/>
<polygon fill="#b6ecf3" stroke="#b6ecf3" points="2014.3309,-1101.6319 2017.6852,-1091.5821 2008.7958,-1097.3466 2014.3309,-1101.6319"/>
</g>
<!-- hidebound.exporters.local_disk_exporter&#45;&gt;hidebound.core.config -->
<g id="edge35" class="edge">
<title>hidebound.exporters.local_disk_exporter&#45;&gt;hidebound.core.config</title>
<path fill="none" stroke="#b6ecf3" d="M1619.6387,-1137.5938C1627.2446,-1141.5071 1634.4392,-1146.1176 1641,-1151.5384 1644.1276,-1154.1225 1730.3313,-1375.3448 1761.164,-1454.6452"/>
<polygon fill="#b6ecf3" stroke="#b6ecf3" points="1758.0843,-1456.383 1764.9696,-1464.4356 1764.6087,-1453.8469 1758.0843,-1456.383"/>
</g>
<!-- hidebound.exporters.local_disk_exporter&#45;&gt;hidebound.core.database -->
<g id="edge36" class="edge">
<title>hidebound.exporters.local_disk_exporter&#45;&gt;hidebound.core.database</title>
<path fill="none" stroke="#b6ecf3" d="M1641.1641,-1105.9955C1711.0789,-1100.3563 1792.9506,-1093.6985 1867,-1087.5384 1883.4257,-1086.1719 1900.7751,-1084.7105 1917.7981,-1083.2663"/>
<polygon fill="#b6ecf3" stroke="#b6ecf3" points="1918.106,-1086.7529 1927.7738,-1082.4188 1917.5134,-1079.778 1918.106,-1086.7529"/>
</g>
<!-- hidebound.exporters.s3_exporter&#45;&gt;hidebound.core.config -->
<g id="edge37" class="edge">
<title>hidebound.exporters.s3_exporter&#45;&gt;hidebound.core.config</title>
<path fill="none" stroke="#b6ecf3" d="M1608.3936,-1482.5384C1627.9429,-1482.5384 1647.8031,-1482.5384 1666.6311,-1482.5384"/>
<polygon fill="#b6ecf3" stroke="#b6ecf3" points="1666.6748,-1486.0385 1676.6748,-1482.5384 1666.6747,-1479.0385 1666.6748,-1486.0385"/>
</g>
<!-- hidebound.exporters.s3_exporter&#45;&gt;hidebound.core.database -->
<g id="edge38" class="edge">
<title>hidebound.exporters.s3_exporter&#45;&gt;hidebound.core.database</title>
<path fill="none" stroke="#b6ecf3" d="M1531.2954,-1464.5263C1613.2945,-1437.486 1762.9526,-1380.253 1867,-1294.5384 1936.0277,-1237.6731 1991.7918,-1145.8106 2016.7836,-1100.533"/>
<polygon fill="#b6ecf3" stroke="#b6ecf3" points="2019.9351,-1102.0639 2021.6432,-1091.6077 2013.7873,-1098.7166 2019.9351,-1102.0639"/>
</g>
<!-- hidebound.server.api&#45;&gt;hidebound.server.app -->
<g id="edge39" class="edge">
<title>hidebound.server.api&#45;&gt;hidebound.server.app</title>
<path fill="none" stroke="#b6ecf3" d="M2330.3159,-493.3945C2353.1147,-475.8733 2388.3291,-448.4103 2418,-423.5384 2453.0501,-394.1573 2492.2038,-358.9395 2517.6489,-335.7179"/>
<polygon fill="#b6ecf3" stroke="#b6ecf3" points="2520.0688,-338.2478 2525.0858,-328.9161 2515.3445,-333.0824 2520.0688,-338.2478"/>
</g>
<!-- hidebound.server.components -->
<g id="node18" class="node">
<title>hidebound.server.components</title>
<polygon fill="#343434" stroke="#343434" points="2150.5,-301.5384 1911.5,-301.5384 1911.5,-265.5384 2150.5,-265.5384 2150.5,-301.5384"/>
<text text-anchor="middle" x="2031" y="-279.8384" font-family="Courier,monospace" font-size="14.00" fill="#b6ecf3">hidebound.server.components</text>
</g>
<!-- hidebound.server.components&#45;&gt;hidebound.server.app -->
<g id="edge40" class="edge">
<title>hidebound.server.components&#45;&gt;hidebound.server.app</title>
<path fill="none" stroke="#b6ecf3" d="M2150.5375,-289.8176C2239.4636,-294.4888 2359.5033,-300.7944 2443.7259,-305.2185"/>
<polygon fill="#b6ecf3" stroke="#b6ecf3" points="2443.645,-308.719 2453.8149,-305.7485 2444.0123,-301.7286 2443.645,-308.719"/>
</g>
<!-- hidebound.server.server_tools -->
<g id="node20" class="node">
<title>hidebound.server.server_tools</title>
<polygon fill="#343434" stroke="#343434" points="2159,-615.5384 1903,-615.5384 1903,-579.5384 2159,-579.5384 2159,-615.5384"/>
<text text-anchor="middle" x="2031" y="-593.8384" font-family="Courier,monospace" font-size="14.00" fill="#b6ecf3">hidebound.server.server_tools</text>
</g>
<!-- hidebound.server.server_tools&#45;&gt;hidebound.server.api -->
<g id="edge41" class="edge">
<title>hidebound.server.server_tools&#45;&gt;hidebound.server.api</title>
<path fill="none" stroke="#b6ecf3" d="M2125.8364,-579.4568C2137.0869,-576.7461 2148.3496,-573.7653 2159,-570.5384 2192.556,-560.3712 2229.1592,-545.7521 2257.5079,-533.61"/>
<polygon fill="#b6ecf3" stroke="#b6ecf3" points="2258.9992,-536.7784 2266.789,-529.5972 2256.2212,-530.3532 2258.9992,-536.7784"/>
</g>
<!-- hidebound.server.server_tools&#45;&gt;hidebound.server.app -->
<g id="edge42" class="edge">
<title>hidebound.server.server_tools&#45;&gt;hidebound.server.app</title>
<path fill="none" stroke="#b6ecf3" d="M2159.0336,-605.5155C2239.902,-604.3136 2342.9148,-590.6751 2418,-538.5384 2488.7081,-489.441 2524.4133,-387.6433 2538.1259,-338.4077"/>
<polygon fill="#b6ecf3" stroke="#b6ecf3" points="2541.5095,-339.3027 2540.7229,-328.7371 2534.7491,-337.4872 2541.5095,-339.3027"/>
</g>
<!-- dash -->
<g id="node21" class="node">
<title>dash</title>
<polygon fill="#343434" stroke="#343434" points="1799,-124.5384 1745,-124.5384 1745,-88.5384 1799,-88.5384 1799,-124.5384"/>
<text text-anchor="middle" x="1772" y="-102.8384" font-family="Courier,monospace" font-size="14.00" fill="#de958e">dash</text>
</g>
<!-- dash&#45;&gt;hidebound.server.app -->
<g id="edge43" class="edge">
<title>dash&#45;&gt;hidebound.server.app</title>
<path fill="none" stroke="#de958e" d="M1799.2477,-93.9018C1893.514,-52.2155 2211.3135,71.2009 2418,-56.5384 2499.5844,-106.9603 2530.5123,-227.4193 2540.6611,-282.3596"/>
<polygon fill="#de958e" stroke="#de958e" points="2537.2524,-283.1862 2542.4226,-292.4339 2544.1478,-281.9805 2537.2524,-283.1862"/>
</g>
<!-- dash&#45;&gt;hidebound.server.components -->
<g id="edge44" class="edge">
<title>dash&#45;&gt;hidebound.server.components</title>
<path fill="none" stroke="#de958e" d="M1798.742,-124.8138C1845.8778,-157.0263 1943.7048,-223.881 1996.0931,-259.6831"/>
<polygon fill="#de958e" stroke="#de958e" points="1994.1724,-262.6097 2004.4034,-265.3623 1998.122,-256.8304 1994.1724,-262.6097"/>
</g>
<!-- dash_cytoscape -->
<g id="node22" class="node">
<title>dash_cytoscape</title>
<polygon fill="#343434" stroke="#343434" points="1838,-247.5384 1706,-247.5384 1706,-211.5384 1838,-211.5384 1838,-247.5384"/>
<text text-anchor="middle" x="1772" y="-225.8384" font-family="Courier,monospace" font-size="14.00" fill="#de958e">dash_cytoscape</text>
</g>
<!-- dash_cytoscape&#45;&gt;hidebound.server.components -->
<g id="edge45" class="edge">
<title>dash_cytoscape&#45;&gt;hidebound.server.components</title>
<path fill="none" stroke="#de958e" d="M1838.0268,-243.3046C1867.3645,-249.4213 1902.4764,-256.742 1934.659,-263.4518"/>
<polygon fill="#de958e" stroke="#de958e" points="1934.0391,-266.8978 1944.543,-265.5126 1935.4679,-260.0451 1934.0391,-266.8978"/>
</g>
<!-- hidebound.server -->
<g id="node23" class="node">
<title>hidebound.server</title>
<polygon fill="#343434" stroke="#343434" points="1846.5,-393.5384 1697.5,-393.5384 1697.5,-357.5384 1846.5,-357.5384 1846.5,-393.5384"/>
<text text-anchor="middle" x="1772" y="-371.8384" font-family="Courier,monospace" font-size="14.00" fill="#a0d17b">hidebound.server</text>
</g>
<!-- hidebound.server&#45;&gt;hidebound.server.api -->
<g id="edge46" class="edge">
<title>hidebound.server&#45;&gt;hidebound.server.api</title>
<path fill="none" stroke="#a0d17b" d="M1846.763,-392.5753C1853.8261,-395.4197 1860.694,-398.7183 1867,-402.5384 1886.8981,-414.5924 1882.2614,-429.9958 1903,-440.5384 2005.2639,-492.5247 2046.349,-451.8533 2159,-473.5384 2183.5389,-478.2621 2210.0602,-484.6764 2233.7566,-490.8895"/>
<polygon fill="#a0d17b" stroke="#a0d17b" points="2233.1621,-494.3528 2243.7253,-493.5345 2234.9573,-487.5869 2233.1621,-494.3528"/>
</g>
<!-- hidebound.server&#45;&gt;hidebound.server.app -->
<g id="edge47" class="edge">
<title>hidebound.server&#45;&gt;hidebound.server.app</title>
<path fill="none" stroke="#a0d17b" d="M1846.634,-361.6851C1865.0117,-358.6388 1884.6761,-355.6853 1903,-353.5384 2093.3918,-331.2313 2317.0075,-319.5088 2443.7562,-314.204"/>
<polygon fill="#a0d17b" stroke="#a0d17b" points="2443.9912,-317.6974 2453.838,-313.7871 2443.7019,-310.7033 2443.9912,-317.6974"/>
</g>
<!-- hidebound.server&#45;&gt;hidebound.server.components -->
<g id="edge48" class="edge">
<title>hidebound.server&#45;&gt;hidebound.server.components</title>
<path fill="none" stroke="#a0d17b" d="M1835.3466,-357.5268C1846.1749,-353.5175 1857.1113,-348.8507 1867,-343.5384 1884.8562,-333.9457 1884.7748,-324.4099 1903,-315.5384 1911.4072,-311.446 1920.3878,-307.845 1929.5451,-304.6829"/>
<polygon fill="#a0d17b" stroke="#a0d17b" points="1930.7201,-307.9811 1939.1354,-301.5442 1928.5427,-301.3283 1930.7201,-307.9811"/>
</g>
<!-- hidebound.server&#45;&gt;hidebound.server.progress -->
<g id="edge49" class="edge">
<title>hidebound.server&#45;&gt;hidebound.server.progress</title>
<path fill="none" stroke="#a0d17b" d="M1846.6124,-390.1108C1853.9463,-393.4376 1860.9131,-397.5226 1867,-402.5384 1894.3043,-425.0378 1878.3755,-448.1339 1903,-473.5384 1922.6088,-493.7683 1949.3434,-509.6339 1973.3092,-521.1085"/>
<polygon fill="#a0d17b" stroke="#a0d17b" points="1972.1382,-524.4231 1982.6836,-525.4458 1975.0777,-518.0702 1972.1382,-524.4231"/>
</g>
<!-- hidebound.server&#45;&gt;hidebound.server.server_tools -->
<g id="edge50" class="edge">
<title>hidebound.server&#45;&gt;hidebound.server.server_tools</title>
<path fill="none" stroke="#a0d17b" d="M1846.6279,-387.9196C1854.2334,-391.6308 1861.2578,-396.4053 1867,-402.5384 1919.1901,-458.2816 1848.9177,-516.629 1903,-570.5384 1903.8244,-571.3601 1904.667,-572.1597 1905.5269,-572.9378"/>
<polygon fill="#a0d17b" stroke="#a0d17b" points="1903.6802,-575.9385 1913.7023,-579.3747 1908.0105,-570.4386 1903.6802,-575.9385"/>
</g>
<!-- flask -->
<g id="node24" class="node">
<title>flask</title>
<polygon fill="#343434" stroke="#343434" points="1801,-447.5384 1743,-447.5384 1743,-411.5384 1801,-411.5384 1801,-447.5384"/>
<text text-anchor="middle" x="1772" y="-425.8384" font-family="Courier,monospace" font-size="14.00" fill="#de958e">flask</text>
</g>
<!-- flask&#45;&gt;hidebound.server.api -->
<g id="edge51" class="edge">
<title>flask&#45;&gt;hidebound.server.api</title>
<path fill="none" stroke="#de958e" d="M1801.2153,-439.3739C1839.6229,-452.3008 1902.3491,-473.4003 1903,-473.5384 2004.5909,-495.0822 2123.1619,-504.4154 2205.365,-508.4567"/>
<polygon fill="#de958e" stroke="#de958e" points="2205.3026,-511.9576 2215.4572,-508.9353 2205.6342,-504.9654 2205.3026,-511.9576"/>
</g>
<!-- flask&#45;&gt;hidebound.server.app -->
<g id="edge52" class="edge">
<title>flask&#45;&gt;hidebound.server.app</title>
<path fill="none" stroke="#de958e" d="M1801.0214,-422.4288C1820.0082,-417.4999 1845.2367,-410.4226 1867,-402.5384 1883.4621,-396.5746 1886.0725,-391.0136 1903,-386.5384 2014.1842,-357.1436 2304.2283,-352.3304 2418,-335.5384 2428.1081,-334.0465 2438.6319,-332.2959 2449.1049,-330.4255"/>
<polygon fill="#de958e" stroke="#de958e" points="2449.9053,-333.8374 2459.1152,-328.6002 2448.6496,-326.9509 2449.9053,-333.8374"/>
</g>
<!-- flask&#45;&gt;hidebound.server.components -->
<g id="edge53" class="edge">
<title>flask&#45;&gt;hidebound.server.components</title>
<path fill="none" stroke="#de958e" d="M1801.1255,-426.2936C1821.0995,-422.9254 1847.4247,-416.1337 1867,-402.5384 1889.1956,-387.1232 1882.6622,-371.3329 1903,-353.5384 1925.2268,-334.091 1953.7612,-317.837 1978.2459,-305.902"/>
<polygon fill="#de958e" stroke="#de958e" points="1979.8839,-308.9986 1987.4101,-301.5416 1976.8763,-302.6777 1979.8839,-308.9986"/>
</g>
<!-- flask&#45;&gt;hidebound.server.progress -->
<g id="edge54" class="edge">
<title>flask&#45;&gt;hidebound.server.progress</title>
<path fill="none" stroke="#de958e" d="M1801.1956,-434.4788C1821.2018,-438.973 1847.5366,-447.1725 1867,-461.5384 1889.0316,-477.7998 1880.3363,-496.1701 1903,-511.5384 1908.3498,-515.1661 1914.0755,-518.3829 1920.0292,-521.2352"/>
<polygon fill="#de958e" stroke="#de958e" points="1918.9885,-524.6011 1929.5514,-525.4242 1921.8073,-518.1937 1918.9885,-524.6011"/>
</g>
<!-- flask&#45;&gt;hidebound.server.server_tools -->
<g id="edge55" class="edge">
<title>flask&#45;&gt;hidebound.server.server_tools</title>
<path fill="none" stroke="#de958e" d="M1801.2138,-444.1295C1821.7452,-455.5647 1848.7065,-473.1065 1867,-494.5384 1891.2651,-522.9663 1873.6614,-547.3827 1903,-570.5384 1904.6045,-571.8047 1906.2543,-573.0154 1907.9444,-574.1727"/>
<polygon fill="#de958e" stroke="#de958e" points="1906.3479,-577.2988 1916.706,-579.5261 1909.9976,-571.3256 1906.3479,-577.2988"/>
</g>
<!-- dash.dependencies -->
<g id="node25" class="node">
<title>dash.dependencies</title>
<polygon fill="#343434" stroke="#343434" points="2385,-263.5384 2228,-263.5384 2228,-227.5384 2385,-227.5384 2385,-263.5384"/>
<text text-anchor="middle" x="2306.5" y="-241.8384" font-family="Courier,monospace" font-size="14.00" fill="#de958e">dash.dependencies</text>
</g>
<!-- dash.dependencies&#45;&gt;hidebound.server.app -->
<g id="edge56" class="edge">
<title>dash.dependencies&#45;&gt;hidebound.server.app</title>
<path fill="none" stroke="#de958e" d="M2372.6188,-263.5582C2402.4735,-271.6947 2437.9128,-281.3532 2468.8713,-289.7905"/>
<polygon fill="#de958e" stroke="#de958e" points="2468.1841,-293.2308 2478.7526,-292.4835 2470.0248,-286.4771 2468.1841,-293.2308"/>
</g>
<!-- dash.exceptions -->
<g id="node26" class="node">
<title>dash.exceptions</title>
<polygon fill="#343434" stroke="#343434" points="2376.5,-209.5384 2236.5,-209.5384 2236.5,-173.5384 2376.5,-173.5384 2376.5,-209.5384"/>
<text text-anchor="middle" x="2306.5" y="-187.8384" font-family="Courier,monospace" font-size="14.00" fill="#de958e">dash.exceptions</text>
</g>
<!-- dash.exceptions&#45;&gt;hidebound.server.app -->
<g id="edge57" class="edge">
<title>dash.exceptions&#45;&gt;hidebound.server.app</title>
<path fill="none" stroke="#de958e" d="M2376.6158,-204.1004C2390.6635,-207.8333 2405.0691,-212.5727 2418,-218.5384 2455.3146,-235.7533 2492.7765,-264.6502 2517.2405,-285.4692"/>
<polygon fill="#de958e" stroke="#de958e" points="2515.1649,-288.3013 2525.0197,-292.1914 2519.7417,-283.0048 2515.1649,-288.3013"/>
</g>
<!-- rolling_pin.blob_etl -->
<g id="node27" class="node">
<title>rolling_pin.blob_etl</title>
<polygon fill="#343434" stroke="#343434" points="1863,-301.5384 1681,-301.5384 1681,-265.5384 1863,-265.5384 1863,-301.5384"/>
<text text-anchor="middle" x="1772" y="-279.8384" font-family="Courier,monospace" font-size="14.00" fill="#de958e">rolling_pin.blob_etl</text>
</g>
<!-- rolling_pin.blob_etl&#45;&gt;hidebound.server.components -->
<g id="edge58" class="edge">
<title>rolling_pin.blob_etl&#45;&gt;hidebound.server.components</title>
<path fill="none" stroke="#de958e" d="M1863.3137,-283.5384C1875.61,-283.5384 1888.4108,-283.5384 1901.2153,-283.5384"/>
<polygon fill="#de958e" stroke="#de958e" points="1901.4755,-287.0385 1911.4755,-283.5384 1901.4755,-280.0385 1901.4755,-287.0385"/>
</g>
<!-- flask_healthz -->
<g id="node28" class="node">
<title>flask_healthz</title>
<polygon fill="#343434" stroke="#343434" points="2368.5,-155.5384 2244.5,-155.5384 2244.5,-119.5384 2368.5,-119.5384 2368.5,-155.5384"/>
<text text-anchor="middle" x="2306.5" y="-133.8384" font-family="Courier,monospace" font-size="14.00" fill="#de958e">flask_healthz</text>
</g>
<!-- flask_healthz&#45;&gt;hidebound.server.app -->
<g id="edge59" class="edge">
<title>flask_healthz&#45;&gt;hidebound.server.app</title>
<path fill="none" stroke="#de958e" d="M2368.7618,-145.5344C2385.5733,-149.5355 2403.1935,-155.537 2418,-164.5384 2467.3304,-194.5279 2507.659,-250.0426 2528.8429,-283.3011"/>
<polygon fill="#de958e" stroke="#de958e" points="2526.0393,-285.4198 2534.3017,-292.0518 2531.9785,-281.7148 2526.0393,-285.4198"/>
</g>
<!-- flask_monitoringdashboard -->
<g id="node29" class="node">
<title>flask_monitoringdashboard</title>
<polygon fill="#343434" stroke="#343434" points="2418,-101.5384 2195,-101.5384 2195,-65.5384 2418,-65.5384 2418,-101.5384"/>
<text text-anchor="middle" x="2306.5" y="-79.8384" font-family="Courier,monospace" font-size="14.00" fill="#de958e">flask_monitoringdashboard</text>
</g>
<!-- flask_monitoringdashboard&#45;&gt;hidebound.server.app -->
<g id="edge60" class="edge">
<title>flask_monitoringdashboard&#45;&gt;hidebound.server.app</title>
<path fill="none" stroke="#de958e" d="M2402.9534,-101.6467C2408.2402,-104.2293 2413.3035,-107.1762 2418,-110.5384 2479.7449,-154.7407 2518.4835,-239.2052 2535.2861,-282.8713"/>
<polygon fill="#de958e" stroke="#de958e" points="2532.0299,-284.1563 2538.8138,-292.2944 2538.5856,-281.702 2532.0299,-284.1563"/>
</g>
<!-- jinja2 -->
<g id="node30" class="node">
<title>jinja2</title>
<polygon fill="#343434" stroke="#343434" points="1805,-539.5384 1739,-539.5384 1739,-503.5384 1805,-503.5384 1805,-539.5384"/>
<text text-anchor="middle" x="1772" y="-517.8384" font-family="Courier,monospace" font-size="14.00" fill="#de958e">jinja2</text>
</g>
<!-- jinja2&#45;&gt;hidebound.server.server_tools -->
<g id="edge61" class="edge">
<title>jinja2&#45;&gt;hidebound.server.server_tools</title>
<path fill="none" stroke="#de958e" d="M1805.3184,-531.7136C1823.6993,-537.5878 1846.822,-545.4078 1867,-553.5384 1883.412,-560.1515 1886.2294,-564.8962 1903,-570.5384 1909.7335,-572.8037 1916.7326,-574.9186 1923.8319,-576.8859"/>
<polygon fill="#de958e" stroke="#de958e" points="1922.9952,-580.285 1933.5592,-579.4775 1924.7973,-573.521 1922.9952,-580.285"/>
</g>
<!-- flasgger -->
<g id="node31" class="node">
<title>flasgger</title>
<polygon fill="#343434" stroke="#343434" points="2072.5,-431.5384 1989.5,-431.5384 1989.5,-395.5384 2072.5,-395.5384 2072.5,-431.5384"/>
<text text-anchor="middle" x="2031" y="-409.8384" font-family="Courier,monospace" font-size="14.00" fill="#de958e">flasgger</text>
</g>
<!-- flasgger&#45;&gt;hidebound.server.api -->
<g id="edge62" class="edge">
<title>flasgger&#45;&gt;hidebound.server.api</title>
<path fill="none" stroke="#de958e" d="M2072.756,-422.0276C2098.0378,-427.6463 2130.7482,-435.7711 2159,-445.5384 2194.4093,-457.7801 2233.015,-475.2107 2261.8461,-489.0849"/>
<polygon fill="#de958e" stroke="#de958e" points="2260.3223,-492.2358 2270.8469,-493.4535 2263.3788,-485.9383 2260.3223,-492.2358"/>
</g>
<!-- flasgger&#45;&gt;hidebound.server.app -->
<g id="edge63" class="edge">
<title>flasgger&#45;&gt;hidebound.server.app</title>
<path fill="none" stroke="#de958e" d="M2072.7502,-415.7934C2144.8867,-418.4455 2296.7733,-418.5253 2418,-381.5384 2451.9987,-371.1652 2486.9936,-350.7432 2511.6167,-334.454"/>
<polygon fill="#de958e" stroke="#de958e" points="2513.8648,-337.1595 2520.1981,-328.6659 2509.9505,-331.3561 2513.8648,-337.1595"/>
</g>
<!-- pandasql -->
<g id="node32" class="node">
<title>pandasql</title>
<polygon fill="#343434" stroke="#343434" points="1813.5,-1229.5384 1730.5,-1229.5384 1730.5,-1193.5384 1813.5,-1193.5384 1813.5,-1229.5384"/>
<text text-anchor="middle" x="1772" y="-1207.8384" font-family="Courier,monospace" font-size="14.00" fill="#de958e">pandasql</text>
</g>
<!-- pandasql&#45;&gt;hidebound.core.database -->
<g id="edge64" class="edge">
<title>pandasql&#45;&gt;hidebound.core.database</title>
<path fill="none" stroke="#de958e" d="M1813.7112,-1202.7408C1830.6834,-1198.3853 1850.2141,-1192.3581 1867,-1184.5384 1917.4939,-1161.0157 1969.7645,-1122.806 2001.3371,-1097.9221"/>
<polygon fill="#de958e" stroke="#de958e" points="2003.6464,-1100.5574 2009.2894,-1091.5903 1999.2861,-1095.0812 2003.6464,-1100.5574"/>
</g>
<!-- boto3 -->
<g id="node33" class="node">
<title>boto3</title>
<polygon fill="#343434" stroke="#343434" points="1151.5,-1569.5384 1093.5,-1569.5384 1093.5,-1533.5384 1151.5,-1533.5384 1151.5,-1569.5384"/>
<text text-anchor="middle" x="1122.5" y="-1547.8384" font-family="Courier,monospace" font-size="14.00" fill="#de958e">boto3</text>
</g>
<!-- boto3&#45;&gt;hidebound.exporters.s3_exporter -->
<g id="edge65" class="edge">
<title>boto3&#45;&gt;hidebound.exporters.s3_exporter</title>
<path fill="none" stroke="#de958e" d="M1151.5893,-1546.2562C1180.7906,-1540.9177 1227.0529,-1532.362 1267,-1524.5384 1302.5318,-1517.5795 1341.4676,-1509.6734 1375.772,-1502.6123"/>
<polygon fill="#de958e" stroke="#de958e" points="1376.7002,-1505.9946 1385.7876,-1500.5477 1375.2869,-1499.1388 1376.7002,-1505.9946"/>
</g>
<!-- json_logging -->
<g id="node34" class="node">
<title>json_logging</title>
<polygon fill="#343434" stroke="#343434" points="646,-825.5384 530,-825.5384 530,-789.5384 646,-789.5384 646,-825.5384"/>
<text text-anchor="middle" x="588" y="-803.8384" font-family="Courier,monospace" font-size="14.00" fill="#de958e">json_logging</text>
</g>
<!-- json_logging&#45;&gt;hidebound.core.logging -->
<g id="edge66" class="edge">
<title>json_logging&#45;&gt;hidebound.core.logging</title>
<path fill="none" stroke="#de958e" d="M646.0848,-807.5384C668.5981,-807.5384 695.1424,-807.5384 720.9707,-807.5384"/>
<polygon fill="#de958e" stroke="#de958e" points="721.2073,-811.0385 731.2073,-807.5384 721.2073,-804.0385 721.2073,-811.0385"/>
</g>
<!-- requests -->
<g id="node35" class="node">
<title>requests</title>
<polygon fill="#343434" stroke="#343434" points="1813.5,-1175.5384 1730.5,-1175.5384 1730.5,-1139.5384 1813.5,-1139.5384 1813.5,-1175.5384"/>
<text text-anchor="middle" x="1772" y="-1153.8384" font-family="Courier,monospace" font-size="14.00" fill="#de958e">requests</text>
</g>
<!-- requests&#45;&gt;hidebound.core.database -->
<g id="edge67" class="edge">
<title>requests&#45;&gt;hidebound.core.database</title>
<path fill="none" stroke="#de958e" d="M1813.6128,-1144.0423C1854.6828,-1130.7223 1918.0825,-1110.1603 1965.8358,-1094.6727"/>
<polygon fill="#de958e" stroke="#de958e" points="1967.0379,-1097.9624 1975.4703,-1091.548 1964.8783,-1091.3038 1967.0379,-1097.9624"/>
</g>
<!-- lunchbox.tools -->
<g id="node36" class="node">
<title>lunchbox.tools</title>
<polygon fill="#343434" stroke="#343434" points="1188.5,-539.5384 1056.5,-539.5384 1056.5,-503.5384 1188.5,-503.5384 1188.5,-539.5384"/>
<text text-anchor="middle" x="1122.5" y="-517.8384" font-family="Courier,monospace" font-size="14.00" fill="#de958e">lunchbox.tools</text>
</g>
<!-- lunchbox.tools&#45;&gt;hidebound.core.database_tools -->
<g id="edge68" class="edge">
<title>lunchbox.tools&#45;&gt;hidebound.core.database_tools</title>
<path fill="none" stroke="#de958e" d="M1149.4422,-539.5683C1178.9062,-559.5541 1227.2308,-593.1261 1267,-624.5384 1332.942,-676.6236 1406.2027,-742.7321 1444.7867,-778.2406"/>
<polygon fill="#de958e" stroke="#de958e" points="1442.7555,-781.1287 1452.4786,-785.3373 1447.5022,-775.9839 1442.7555,-781.1287"/>
</g>
<!-- lunchbox.tools&#45;&gt;hidebound.server.server_tools -->
<g id="edge69" class="edge">
<title>lunchbox.tools&#45;&gt;hidebound.server.server_tools</title>
<path fill="none" stroke="#de958e" d="M1188.8772,-524.556C1287.5776,-529.2875 1478.8251,-539.3948 1641,-553.5384 1724.6319,-560.8321 1818.0968,-571.2966 1892.5592,-580.1905"/>
<polygon fill="#de958e" stroke="#de958e" points="1892.5916,-583.7194 1902.9371,-581.4346 1893.4248,-576.7692 1892.5916,-583.7194"/>
</g>
<!-- botocore.exceptions -->
<g id="node37" class="node">
<title>botocore.exceptions</title>
<polygon fill="#343434" stroke="#343434" points="1209,-1515.5384 1036,-1515.5384 1036,-1479.5384 1209,-1479.5384 1209,-1515.5384"/>
<text text-anchor="middle" x="1122.5" y="-1493.8384" font-family="Courier,monospace" font-size="14.00" fill="#de958e">botocore.exceptions</text>
</g>
<!-- botocore.exceptions&#45;&gt;hidebound.exporters.s3_exporter -->
<g id="edge70" class="edge">
<title>botocore.exceptions&#45;&gt;hidebound.exporters.s3_exporter</title>
<path fill="none" stroke="#de958e" d="M1209.3423,-1493.8112C1244.5665,-1492.2995 1286.2342,-1490.5112 1325.8806,-1488.8096"/>
<polygon fill="#de958e" stroke="#de958e" points="1326.0709,-1492.3047 1335.9115,-1488.3791 1325.7706,-1485.3112 1326.0709,-1492.3047"/>
</g>
<!-- girder_client -->
<g id="node38" class="node">
<title>girder_client</title>
<polygon fill="#343434" stroke="#343434" points="1184.5,-1217.5384 1060.5,-1217.5384 1060.5,-1181.5384 1184.5,-1181.5384 1184.5,-1217.5384"/>
<text text-anchor="middle" x="1122.5" y="-1195.8384" font-family="Courier,monospace" font-size="14.00" fill="#de958e">girder_client</text>
</g>
<!-- girder_client&#45;&gt;hidebound.exporters.girder_exporter -->
<g id="edge71" class="edge">
<title>girder_client&#45;&gt;hidebound.exporters.girder_exporter</title>
<path fill="none" stroke="#de958e" d="M1184.6533,-1207.7677C1210.8206,-1212.6275 1241.1368,-1220.1387 1267,-1231.5384 1336.5609,-1262.1985 1406.6951,-1318.116 1444.1952,-1350.5108"/>
<polygon fill="#de958e" stroke="#de958e" points="1442.2939,-1353.497 1452.1293,-1357.4361 1446.8971,-1348.2234 1442.2939,-1353.497"/>
</g>
<!-- hidebound.exporters -->
<g id="node39" class="node">
<title>hidebound.exporters</title>
<polygon fill="#343434" stroke="#343434" points="917,-1057.5384 744,-1057.5384 744,-1021.5384 917,-1021.5384 917,-1057.5384"/>
<text text-anchor="middle" x="830.5" y="-1035.8384" font-family="Courier,monospace" font-size="14.00" fill="#a0d17b">hidebound.exporters</text>
</g>
<!-- hidebound.exporters&#45;&gt;hidebound.exporters.exporter_base -->
<g id="edge72" class="edge">
<title>hidebound.exporters&#45;&gt;hidebound.exporters.exporter_base</title>
<path fill="none" stroke="#a0d17b" d="M910.9317,-1057.6227C922.6748,-1063.2968 933.6127,-1070.7497 942,-1080.5384 994.7999,-1142.1603 921.1805,-1201.6019 978,-1259.5384 980.9025,-1262.4979 984.013,-1265.2115 987.2938,-1267.6984"/>
<polygon fill="#a0d17b" stroke="#a0d17b" points="985.5313,-1270.7314 995.7782,-1273.4243 989.4471,-1264.9291 985.5313,-1270.7314"/>
</g>
<!-- hidebound.exporters&#45;&gt;hidebound.exporters.girder_exporter -->
<g id="edge73" class="edge">
<title>hidebound.exporters&#45;&gt;hidebound.exporters.girder_exporter</title>
<path fill="none" stroke="#a0d17b" d="M917.1422,-1053.1602C1009.0269,-1070.4228 1155.9498,-1106.2539 1267,-1172.5384 1347.2377,-1220.4313 1419.401,-1306.3308 1452.645,-1349.406"/>
<polygon fill="#a0d17b" stroke="#a0d17b" points="1449.9166,-1351.6001 1458.7657,-1357.4261 1455.4812,-1347.3533 1449.9166,-1351.6001"/>
</g>
<!-- hidebound.exporters&#45;&gt;hidebound.exporters.local_disk_exporter -->
<g id="edge74" class="edge">
<title>hidebound.exporters&#45;&gt;hidebound.exporters.local_disk_exporter</title>
<path fill="none" stroke="#a0d17b" d="M917.3626,-1024.3687C1006.2808,-1011.7117 1147.9242,-999.5395 1267,-1025.5384 1328.9265,-1039.0593 1394.5114,-1073.0707 1434.363,-1096.2498"/>
<polygon fill="#a0d17b" stroke="#a0d17b" points="1432.8012,-1099.392 1443.1933,-1101.4544 1436.3556,-1093.3615 1432.8012,-1099.392"/>
</g>
<!-- hidebound.exporters&#45;&gt;hidebound.exporters.s3_exporter -->
<g id="edge75" class="edge">
<title>hidebound.exporters&#45;&gt;hidebound.exporters.s3_exporter</title>
<path fill="none" stroke="#a0d17b" d="M910.0057,-1057.6685C922.0035,-1063.3397 933.2653,-1070.7798 942,-1080.5384 986.573,-1130.3361 928.1933,-1181.9753 978,-1226.5384 1074.5468,-1312.9208 1169.8753,-1178.8062 1267,-1264.5384 1314.5209,-1306.4852 1262.5582,-1353.7302 1303,-1402.5384 1325.7112,-1429.948 1359.9739,-1448.5544 1391.7251,-1460.8701"/>
<polygon fill="#a0d17b" stroke="#a0d17b" points="1390.8897,-1464.2934 1401.4827,-1464.4931 1393.3263,-1457.7311 1390.8897,-1464.2934"/>
</g>
<!-- schematics -->
<g id="node40" class="node">
<title>schematics</title>
<polygon fill="#343434" stroke="#343434" points="880,-1475.5384 781,-1475.5384 781,-1439.5384 880,-1439.5384 880,-1475.5384"/>
<text text-anchor="middle" x="830.5" y="-1453.8384" font-family="Courier,monospace" font-size="14.00" fill="#de958e">schematics</text>
</g>
<!-- schematics&#45;&gt;hidebound.core.config -->
<g id="edge76" class="edge">
<title>schematics&#45;&gt;hidebound.core.config</title>
<path fill="none" stroke="#de958e" d="M866.926,-1475.5875C890.0383,-1488.1472 919.6829,-1506.3961 942,-1527.5384 962.1416,-1546.6197 953.3657,-1565.774 978,-1578.5384 1235.0859,-1711.749 1600.186,-1564.2399 1726.7433,-1504.9565"/>
<polygon fill="#de958e" stroke="#de958e" points="1728.2476,-1508.1168 1735.791,-1500.6773 1725.2547,-1501.7889 1728.2476,-1508.1168"/>
</g>
<!-- schematics&#45;&gt;hidebound.core.specification_base -->
<g id="edge77" class="edge">
<title>schematics&#45;&gt;hidebound.core.specification_base</title>
<path fill="none" stroke="#de958e" d="M874.0989,-1475.603C897.3218,-1487.271 924.6043,-1504.587 942,-1527.5384 976.1486,-1572.593 941.4371,-1606.4199 978,-1649.5384 996.4649,-1671.314 1023.2846,-1686.8702 1048.8182,-1697.698"/>
<polygon fill="#de958e" stroke="#de958e" points="1047.5667,-1700.9672 1058.1493,-1701.476 1050.1938,-1694.4788 1047.5667,-1700.9672"/>
</g>
<!-- schematics&#45;&gt;hidebound.exporters.exporter_base -->
<g id="edge78" class="edge">
<title>schematics&#45;&gt;hidebound.exporters.exporter_base</title>
<path fill="none" stroke="#de958e" d="M845.1274,-1439.1242C869.4427,-1409.8396 921.1606,-1352.9641 978,-1323.5384 985.792,-1319.5044 994.0764,-1315.9773 1002.5832,-1312.8935"/>
<polygon fill="#de958e" stroke="#de958e" points="1003.929,-1316.1327 1012.2677,-1309.5969 1001.6733,-1309.5061 1003.929,-1316.1327"/>
</g>
<!-- schematics&#45;&gt;hidebound.exporters.girder_exporter -->
<g id="edge79" class="edge">
<title>schematics&#45;&gt;hidebound.exporters.girder_exporter</title>
<path fill="none" stroke="#de958e" d="M880.324,-1450.6575C908.9015,-1446.7421 945.4568,-1441.7868 978,-1437.5384 1090.6842,-1422.8279 1217.9187,-1406.8746 1315.0383,-1394.8348"/>
<polygon fill="#de958e" stroke="#de958e" points="1315.7404,-1398.2747 1325.2341,-1393.5715 1314.8796,-1391.3278 1315.7404,-1398.2747"/>
</g>
<!-- schematics.types -->
<g id="node41" class="node">
<title>schematics.types</title>
<polygon fill="#343434" stroke="#343434" points="905,-1572.5384 756,-1572.5384 756,-1536.5384 905,-1536.5384 905,-1572.5384"/>
<text text-anchor="middle" x="830.5" y="-1550.8384" font-family="Courier,monospace" font-size="14.00" fill="#de958e">schematics.types</text>
</g>
<!-- schematics.types&#45;&gt;hidebound.core.config -->
<g id="edge80" class="edge">
<title>schematics.types&#45;&gt;hidebound.core.config</title>
<path fill="none" stroke="#de958e" d="M905.0189,-1562.7905C917.9092,-1566.1739 930.7632,-1570.9122 942,-1577.5384 963.1777,-1590.0264 955.6638,-1609.2652 978,-1619.5384 1041.3456,-1648.6732 1634.7734,-1601.1009 1641,-1598.5384 1687.534,-1579.3876 1728.6957,-1536.4521 1751.9541,-1508.5307"/>
<polygon fill="#de958e" stroke="#de958e" points="1754.7007,-1510.7007 1758.3064,-1500.7383 1749.2751,-1506.2777 1754.7007,-1510.7007"/>
</g>
<!-- schematics.types&#45;&gt;hidebound.core.specification_base -->
<g id="edge81" class="edge">
<title>schematics.types&#45;&gt;hidebound.core.specification_base</title>
<path fill="none" stroke="#de958e" d="M905.2738,-1565.3868C918.7297,-1570.1233 931.7231,-1576.8885 942,-1586.5384 976.7404,-1619.1592 942.2723,-1656.002 978,-1687.5384 981.6601,-1690.7691 985.5728,-1693.6965 989.6806,-1696.3479"/>
<polygon fill="#de958e" stroke="#de958e" points="987.9656,-1699.3994 998.3677,-1701.4111 991.4905,-1693.3516 987.9656,-1699.3994"/>
</g>
<!-- schematics.types&#45;&gt;hidebound.core.specifications -->
<g id="edge82" class="edge">
<title>schematics.types&#45;&gt;hidebound.core.specifications</title>
<path fill="none" stroke="#de958e" d="M839.6878,-1572.7174C859.6887,-1610.5235 910.8217,-1698.1226 978,-1746.5384 1092.5948,-1829.1275 1250.4464,-1874.4996 1356.599,-1897.3811"/>
<polygon fill="#de958e" stroke="#de958e" points="1355.8779,-1900.8059 1366.3867,-1899.4588 1357.3314,-1893.9585 1355.8779,-1900.8059"/>
</g>
<!-- schematics.types&#45;&gt;hidebound.exporters.exporter_base -->
<g id="edge83" class="edge">
<title>schematics.types&#45;&gt;hidebound.exporters.exporter_base</title>
<path fill="none" stroke="#de958e" d="M875.5384,-1536.5C898.7597,-1524.9707 925.5801,-1507.7791 942,-1484.5384 984.3091,-1424.654 926.1001,-1375.3321 978,-1323.5384 981.0691,-1320.4755 984.3615,-1317.6774 987.8344,-1315.1225"/>
<polygon fill="#de958e" stroke="#de958e" points="989.8126,-1318.0106 996.2452,-1309.592 985.9667,-1312.1617 989.8126,-1318.0106"/>
</g>
<!-- schematics.types&#45;&gt;hidebound.exporters.girder_exporter -->
<g id="edge84" class="edge">
<title>schematics.types&#45;&gt;hidebound.exporters.girder_exporter</title>
<path fill="none" stroke="#de958e" d="M855.1697,-1536.441C883.3579,-1516.7597 931.6035,-1486.043 978,-1470.5384 1100.8166,-1429.4959 1140.1279,-1459.4585 1267,-1433.5384 1314.5393,-1423.826 1367.188,-1408.8373 1407.2262,-1396.5303"/>
<polygon fill="#de958e" stroke="#de958e" points="1408.3463,-1399.8474 1416.8628,-1393.5452 1406.275,-1393.1609 1408.3463,-1399.8474"/>
</g>
<!-- schematics.types&#45;&gt;hidebound.exporters.local_disk_exporter -->
<g id="edge85" class="edge">
<title>schematics.types&#45;&gt;hidebound.exporters.local_disk_exporter</title>
<path fill="none" stroke="#de958e" d="M867.6979,-1536.473C890.8344,-1524.0269 920.2205,-1505.909 942,-1484.5384 962.8531,-1464.0767 955.2641,-1447.8853 978,-1429.5384 1085.0773,-1343.1312 1151.0589,-1392.6289 1267,-1318.5384 1344.3878,-1269.0848 1417.07,-1187.0677 1451.3708,-1145.4611"/>
<polygon fill="#de958e" stroke="#de958e" points="1454.0944,-1147.6594 1457.7092,-1137.7002 1448.6728,-1143.2314 1454.0944,-1147.6594"/>
</g>
<!-- schematics.types&#45;&gt;hidebound.exporters.s3_exporter -->
<g id="edge86" class="edge">
<title>schematics.types&#45;&gt;hidebound.exporters.s3_exporter</title>
<path fill="none" stroke="#de958e" d="M905.264,-1570.8425C993.0052,-1587.1885 1142.3549,-1606.2781 1267,-1578.5384 1329.4583,-1564.6383 1395.392,-1529.587 1435.1159,-1505.9117"/>
<polygon fill="#de958e" stroke="#de958e" points="1437.1573,-1508.7676 1443.9076,-1500.6016 1433.5382,-1502.7757 1437.1573,-1508.7676"/>
</g>
<!-- numpy -->
<g id="node42" class="node">
<title>numpy</title>
<polygon fill="#343434" stroke="#343434" points="1151.5,-669.5384 1093.5,-669.5384 1093.5,-633.5384 1151.5,-633.5384 1151.5,-669.5384"/>
<text text-anchor="middle" x="1122.5" y="-647.8384" font-family="Courier,monospace" font-size="14.00" fill="#de958e">numpy</text>
</g>
<!-- numpy&#45;&gt;hidebound.core.database -->
<g id="edge87" class="edge">
<title>numpy&#45;&gt;hidebound.core.database</title>
<path fill="none" stroke="#de958e" d="M1151.7077,-653.4995C1274.5106,-662.2316 1748.0902,-700.9263 1867,-785.5384 1959.653,-851.4671 2006.9916,-987.2474 2023.7612,-1045.7344"/>
<polygon fill="#de958e" stroke="#de958e" points="2020.399,-1046.7077 2026.4544,-1055.4015 2027.1422,-1044.829 2020.399,-1046.7077"/>
</g>
<!-- numpy&#45;&gt;hidebound.core.database_tools -->
<g id="edge88" class="edge">
<title>numpy&#45;&gt;hidebound.core.database_tools</title>
<path fill="none" stroke="#de958e" d="M1151.7526,-665.1946C1187.3417,-681.7237 1249.3269,-710.2388 1303,-733.5384 1341.18,-750.1123 1384.5624,-768.0632 1417.8132,-781.637"/>
<polygon fill="#de958e" stroke="#de958e" points="1416.7676,-784.9903 1427.3491,-785.5232 1419.4095,-778.508 1416.7676,-784.9903"/>
</g>
<!-- numpy&#45;&gt;hidebound.server.api -->
<g id="edge89" class="edge">
<title>numpy&#45;&gt;hidebound.server.api</title>
<path fill="none" stroke="#de958e" d="M1151.5602,-652.1963C1310.0321,-655.597 2066.2002,-669.3554 2159,-624.5384 2181.4442,-613.6991 2176.2155,-597.9206 2195,-581.5384 2215.5739,-563.5955 2241.2206,-547.1583 2262.7282,-534.7273"/>
<polygon fill="#de958e" stroke="#de958e" points="2264.6979,-537.6338 2271.6655,-529.6524 2261.2414,-531.5467 2264.6979,-537.6338"/>
</g>
<!-- hidebound -->
<g id="node43" class="node">
<title>hidebound</title>
<polygon fill="#343434" stroke="#343434" points="190,-1042.5384 99,-1042.5384 99,-1006.5384 190,-1006.5384 190,-1042.5384"/>
<text text-anchor="middle" x="144.5" y="-1020.8384" font-family="Courier,monospace" font-size="14.00" fill="#a0d17b">hidebound</text>
</g>
<!-- hidebound&#45;&gt;hidebound.server -->
<g id="edge90" class="edge">
<title>hidebound&#45;&gt;hidebound.server</title>
<path fill="none" stroke="#a0d17b" d="M190.0095,-1026.1005C220.7489,-1024.9113 260.7242,-1018.7483 289,-997.5384 524.4829,-820.9002 293.6308,-406.5384 588,-406.5384 588,-406.5384 588,-406.5384 1122.5,-406.5384 1325.0847,-406.5384 1562.8088,-391.3051 1686.8578,-382.1955"/>
<polygon fill="#a0d17b" stroke="#a0d17b" points="1687.3322,-385.6701 1697.0469,-381.4422 1686.816,-378.6891 1687.3322,-385.6701"/>
</g>
<!-- hidebound&#45;&gt;hidebound.exporters -->
<g id="edge91" class="edge">
<title>hidebound&#45;&gt;hidebound.exporters</title>
<path fill="none" stroke="#a0d17b" d="M190.0416,-1025.5342C300.3243,-1027.9456 583.6659,-1034.1411 733.7973,-1037.4239"/>
<polygon fill="#a0d17b" stroke="#a0d17b" points="733.8571,-1040.9259 743.9313,-1037.6455 734.0102,-1033.9276 733.8571,-1040.9259"/>
</g>
<!-- hidebound.core -->
<g id="node50" class="node">
<title>hidebound.core</title>
<polygon fill="#343434" stroke="#343434" points="457,-1656.5384 325,-1656.5384 325,-1620.5384 457,-1620.5384 457,-1656.5384"/>
<text text-anchor="middle" x="391" y="-1634.8384" font-family="Courier,monospace" font-size="14.00" fill="#a0d17b">hidebound.core</text>
</g>
<!-- hidebound&#45;&gt;hidebound.core -->
<g id="edge92" class="edge">
<title>hidebound&#45;&gt;hidebound.core</title>
<path fill="none" stroke="#a0d17b" d="M190.135,-1020.4891C222.1562,-1020.3032 263.6272,-1025.8419 289,-1051.5384 368.4923,-1132.0446 386.61,-1503.5963 390.1991,-1609.9959"/>
<polygon fill="#a0d17b" stroke="#a0d17b" points="386.7097,-1610.3882 390.5276,-1620.2712 393.7061,-1610.1644 386.7097,-1610.3882"/>
</g>
<!-- wrapt -->
<g id="node44" class="node">
<title>wrapt</title>
<polygon fill="#343434" stroke="#343434" points="617,-1702.5384 559,-1702.5384 559,-1666.5384 617,-1666.5384 617,-1702.5384"/>
<text text-anchor="middle" x="588" y="-1680.8384" font-family="Courier,monospace" font-size="14.00" fill="#de958e">wrapt</text>
</g>
<!-- wrapt&#45;&gt;hidebound.core.validators -->
<g id="edge93" class="edge">
<title>wrapt&#45;&gt;hidebound.core.validators</title>
<path fill="none" stroke="#de958e" d="M617.1406,-1694.2365C635.9568,-1700.5277 660.9521,-1708.939 683,-1716.5384 711.6926,-1726.428 743.4483,-1737.5946 770.1225,-1747.0378"/>
<polygon fill="#de958e" stroke="#de958e" points="769.1101,-1750.3922 779.7049,-1750.4333 771.4482,-1743.7942 769.1101,-1750.3922"/>
</g>
<!-- pyparsing -->
<g id="node45" class="node">
<title>pyparsing</title>
<polygon fill="#343434" stroke="#343434" points="436.5,-1832.5384 345.5,-1832.5384 345.5,-1796.5384 436.5,-1796.5384 436.5,-1832.5384"/>
<text text-anchor="middle" x="391" y="-1810.8384" font-family="Courier,monospace" font-size="14.00" fill="#de958e">pyparsing</text>
</g>
<!-- pyparsing&#45;&gt;hidebound.core.parser -->
<g id="edge94" class="edge">
<title>pyparsing&#45;&gt;hidebound.core.parser</title>
<path fill="none" stroke="#de958e" d="M436.6909,-1814.5384C450.6218,-1814.5384 466.5536,-1814.5384 482.73,-1814.5384"/>
<polygon fill="#de958e" stroke="#de958e" points="482.8181,-1818.0385 492.818,-1814.5384 482.818,-1811.0385 482.8181,-1818.0385"/>
</g>
<!-- pyparsing&#45;&gt;hidebound.core.specification_base -->
<g id="edge95" class="edge">
<title>pyparsing&#45;&gt;hidebound.core.specification_base</title>
<path fill="none" stroke="#de958e" d="M436.7021,-1829.3345C454.1238,-1834.2577 474.2899,-1839.104 493,-1841.5384 691.1039,-1867.3141 750.8868,-1878.7214 942,-1820.5384 997.7367,-1803.5697 1055.3276,-1767.5396 1090.0335,-1743.4261"/>
<polygon fill="#de958e" stroke="#de958e" points="1092.1874,-1746.1901 1098.3489,-1737.5711 1088.1574,-1740.4665 1092.1874,-1746.1901"/>
</g>
<!-- pyparsing&#45;&gt;hidebound.core.validators -->
<g id="edge96" class="edge">
<title>pyparsing&#45;&gt;hidebound.core.validators</title>
<path fill="none" stroke="#de958e" d="M436.5297,-1800.3756C454.0188,-1795.4947 474.2753,-1790.5122 493,-1787.5384 563.9717,-1776.2667 644.2652,-1771.4309 708.7254,-1769.4531"/>
<polygon fill="#de958e" stroke="#de958e" points="709.0359,-1772.9457 718.9311,-1769.1596 708.8346,-1765.9486 709.0359,-1772.9457"/>
</g>
<!-- pandas -->
<g id="node46" class="node">
<title>pandas</title>
<polygon fill="#343434" stroke="#343434" points="621,-733.5384 555,-733.5384 555,-697.5384 621,-697.5384 621,-733.5384"/>
<text text-anchor="middle" x="588" y="-711.8384" font-family="Courier,monospace" font-size="14.00" fill="#de958e">pandas</text>
</g>
<!-- pandas&#45;&gt;hidebound.core.database -->
<g id="edge97" class="edge">
<title>pandas&#45;&gt;hidebound.core.database</title>
<path fill="none" stroke="#de958e" d="M621.1458,-702.2675C780.9573,-640.6749 1480.0464,-398.8789 1867,-717.5384 1973.7041,-805.4101 2014.3295,-977.9772 2026.5582,-1045.5042"/>
<polygon fill="#de958e" stroke="#de958e" points="2023.1195,-1046.1594 2028.2828,-1055.4109 2030.0158,-1044.9588 2023.1195,-1046.1594"/>
</g>
<!-- pandas&#45;&gt;hidebound.core.database_tools -->
<g id="edge98" class="edge">
<title>pandas&#45;&gt;hidebound.core.database_tools</title>
<path fill="none" stroke="#de958e" d="M621.2426,-714.6955C720.4506,-712.8177 1022.6761,-711.731 1267,-759.5384 1283.5516,-762.7771 1286.6775,-767.2932 1303,-771.5384 1319.5487,-775.8424 1337.1497,-779.8219 1354.5042,-783.4069"/>
<polygon fill="#de958e" stroke="#de958e" points="1354.1878,-786.9139 1364.684,-785.4716 1355.5793,-780.0536 1354.1878,-786.9139"/>
</g>
<!-- pandas&#45;&gt;hidebound.core.tools -->
<g id="edge99" class="edge">
<title>pandas&#45;&gt;hidebound.core.tools</title>
<path fill="none" stroke="#de958e" d="M621.2526,-729.4673C642.5325,-740.1965 668.7369,-757.1689 683,-780.5384 749.743,-889.8938 639.26,-966.2649 719,-1066.5384 724.7035,-1073.7106 731.7858,-1079.6282 739.5964,-1084.5107"/>
<polygon fill="#de958e" stroke="#de958e" points="737.8938,-1087.5687 748.3269,-1089.4129 741.321,-1081.465 737.8938,-1087.5687"/>
</g>
<!-- pandas&#45;&gt;hidebound.core.validators -->
<g id="edge100" class="edge">
<title>pandas&#45;&gt;hidebound.core.validators</title>
<path fill="none" stroke="#de958e" d="M621.397,-728.8778C643.0311,-739.435 669.5893,-756.4406 683,-780.5384 726.3228,-858.3852 693.4146,-1496.2015 719,-1581.5384 737.8133,-1644.288 782.2573,-1707.7824 809.0052,-1742.253"/>
<polygon fill="#de958e" stroke="#de958e" points="806.4621,-1744.6809 815.3979,-1750.3733 811.9622,-1740.3509 806.4621,-1744.6809"/>
</g>
<!-- pandas&#45;&gt;hidebound.server.components -->
<g id="edge101" class="edge">
<title>pandas&#45;&gt;hidebound.server.components</title>
<path fill="none" stroke="#de958e" d="M599.9796,-697.4385C652.0812,-621.1249 867.8196,-329.5384 1122.5,-329.5384 1122.5,-329.5384 1122.5,-329.5384 1472,-329.5384 1647.7585,-329.5384 1692.2209,-329.067 1867,-310.5384 1885.1208,-308.6173 1904.2812,-306.0011 1922.8655,-303.1495"/>
<polygon fill="#de958e" stroke="#de958e" points="1923.4817,-306.5958 1932.8205,-301.5919 1922.3996,-299.6799 1923.4817,-306.5958"/>
</g>
<!-- jsoncomment -->
<g id="node47" class="node">
<title>jsoncomment</title>
<polygon fill="#343434" stroke="#343434" points="641.5,-985.5384 534.5,-985.5384 534.5,-949.5384 641.5,-949.5384 641.5,-985.5384"/>
<text text-anchor="middle" x="588" y="-963.8384" font-family="Courier,monospace" font-size="14.00" fill="#de958e">jsoncomment</text>
</g>
<!-- jsoncomment&#45;&gt;hidebound.core.database -->
<g id="edge102" class="edge">
<title>jsoncomment&#45;&gt;hidebound.core.database</title>
<path fill="none" stroke="#de958e" d="M641.7318,-969.9443C756.5749,-975.2187 1034.4287,-988.685 1267,-1005.5384 1498.4252,-1022.3087 1768.7604,-1047.7529 1917.8219,-1062.2938"/>
<polygon fill="#de958e" stroke="#de958e" points="1917.6099,-1065.7897 1927.9028,-1063.2786 1918.2905,-1058.8228 1917.6099,-1065.7897"/>
</g>
<!-- jsoncomment&#45;&gt;hidebound.core.tools -->
<g id="edge103" class="edge">
<title>jsoncomment&#45;&gt;hidebound.core.tools</title>
<path fill="none" stroke="#de958e" d="M610.3473,-985.7015C641.4821,-1010.7815 696.6065,-1054.3117 719,-1066.5384 732.4389,-1073.8759 747.4601,-1080.4057 762.0158,-1085.9792"/>
<polygon fill="#de958e" stroke="#de958e" points="760.8996,-1089.2982 771.4924,-1089.5025 763.339,-1082.737 760.8996,-1089.2982"/>
</g>
<!-- jsoncomment&#45;&gt;hidebound.server.server_tools -->
<g id="edge104" class="edge">
<title>jsoncomment&#45;&gt;hidebound.server.server_tools</title>
<path fill="none" stroke="#de958e" d="M622.625,-949.327C641.4015,-938.6627 664.4852,-924.2283 683,-908.5384 701.5003,-892.8607 697.7024,-879.1341 719,-867.5384 806.9935,-819.6295 870.3495,-904.5692 942,-834.5384 1009.7204,-768.3488 906.3928,-686.5022 978,-624.5384 1045.4974,-566.1309 1622.509,-581.1085 1892.6091,-591.5085"/>
<polygon fill="#de958e" stroke="#de958e" points="1892.7461,-595.0164 1902.8745,-591.9073 1893.0179,-588.0217 1892.7461,-595.0164"/>
</g>
<!-- schematics.exceptions -->
<g id="node48" class="node">
<title>schematics.exceptions</title>
<polygon fill="#343434" stroke="#343434" points="683,-1180.5384 493,-1180.5384 493,-1144.5384 683,-1144.5384 683,-1180.5384"/>
<text text-anchor="middle" x="588" y="-1158.8384" font-family="Courier,monospace" font-size="14.00" fill="#de958e">schematics.exceptions</text>
</g>
<!-- schematics.exceptions&#45;&gt;hidebound.core.config -->
<g id="edge105" class="edge">
<title>schematics.exceptions&#45;&gt;hidebound.core.config</title>
<path fill="none" stroke="#de958e" d="M683.1494,-1151.4544C815.8848,-1138.7935 1063.2623,-1125.4177 1267,-1172.5384 1445.9831,-1213.9337 1491.3009,-1242.0549 1641,-1348.5384 1685.1565,-1379.9476 1727.3079,-1427.2089 1751.3716,-1456.3992"/>
<polygon fill="#de958e" stroke="#de958e" points="1748.9253,-1458.9381 1757.9536,-1464.4827 1754.3535,-1454.5182 1748.9253,-1458.9381"/>
</g>
<!-- schematics.exceptions&#45;&gt;hidebound.core.database_tools -->
<g id="edge106" class="edge">
<title>schematics.exceptions&#45;&gt;hidebound.core.database_tools</title>
<path fill="none" stroke="#de958e" d="M627.8046,-1144.4844C647.3726,-1133.6078 669.5774,-1117.8915 683,-1097.5384 728.3956,-1028.7034 659.6971,-972.8287 719,-915.5384 740.9305,-894.3521 1122.6543,-845.4969 1333.9658,-819.8829"/>
<polygon fill="#de958e" stroke="#de958e" points="1334.3904,-823.3572 1343.8974,-818.681 1333.5493,-816.4079 1334.3904,-823.3572"/>
</g>
<!-- schematics.exceptions&#45;&gt;hidebound.core.specification_base -->
<g id="edge107" class="edge">
<title>schematics.exceptions&#45;&gt;hidebound.core.specification_base</title>
<path fill="none" stroke="#de958e" d="M591.1545,-1180.7464C604.1982,-1253.9347 656.1941,-1525.4304 719,-1581.5384 794.274,-1648.7847 859.9124,-1565.8028 942,-1624.5384 968.2268,-1643.3042 952.0333,-1668.4143 978,-1687.5384 982.7714,-1691.0524 987.8559,-1694.1931 993.1583,-1696.999"/>
<polygon fill="#de958e" stroke="#de958e" points="991.7451,-1700.2034 1002.2708,-1701.4121 994.7962,-1693.9033 991.7451,-1700.2034"/>
</g>
<!-- schematics.exceptions&#45;&gt;hidebound.core.tools -->
<g id="edge108" class="edge">
<title>schematics.exceptions&#45;&gt;hidebound.core.tools</title>
<path fill="none" stroke="#de958e" d="M667.4036,-1144.5293C690.956,-1139.1875 716.9096,-1133.3011 741.0529,-1127.8253"/>
<polygon fill="#de958e" stroke="#de958e" points="741.9399,-1131.2131 750.918,-1125.5879 740.3915,-1124.3865 741.9399,-1131.2131"/>
</g>
<!-- schematics.exceptions&#45;&gt;hidebound.core.validators -->
<g id="edge109" class="edge">
<title>schematics.exceptions&#45;&gt;hidebound.core.validators</title>
<path fill="none" stroke="#de958e" d="M590.9222,-1180.5814C601.5342,-1243.2005 641.5438,-1455.9696 719,-1614.5384 742.9689,-1663.6076 782.5267,-1713.5734 807.5132,-1742.7823"/>
<polygon fill="#de958e" stroke="#de958e" points="804.9594,-1745.1799 814.1492,-1750.4523 810.2531,-1740.5998 804.9594,-1745.1799"/>
</g>
<!-- schematics.exceptions&#45;&gt;hidebound.server.api -->
<g id="edge110" class="edge">
<title>schematics.exceptions&#45;&gt;hidebound.server.api</title>
<path fill="none" stroke="#de958e" d="M624.2785,-1144.3538C643.7932,-1133.078 667.0559,-1117.0273 683,-1097.5384 708.978,-1065.7846 687.1644,-1038.4161 719,-1012.5384 881.0573,-880.8089 1439.3354,-884.8208 1641,-830.5384 1876.0686,-767.2645 1975.3847,-812.3703 2159,-652.5384 2185.6861,-629.3089 2171.1508,-607.672 2195,-581.5384 2212.5929,-562.2603 2236.675,-546.253 2257.9571,-534.4343"/>
<polygon fill="#de958e" stroke="#de958e" points="2259.7353,-537.4519 2266.8794,-529.6282 2256.4156,-531.2891 2259.7353,-537.4519"/>
</g>
<!-- OpenEXR -->
<g id="node49" class="node">
<title>OpenEXR</title>
<polygon fill="#343434" stroke="#343434" points="625,-1088.5384 551,-1088.5384 551,-1052.5384 625,-1052.5384 625,-1088.5384"/>
<text text-anchor="middle" x="588" y="-1066.8384" font-family="Courier,monospace" font-size="14.00" fill="#de958e">OpenEXR</text>
</g>
<!-- OpenEXR&#45;&gt;hidebound.core.tools -->
<g id="edge111" class="edge">
<title>OpenEXR&#45;&gt;hidebound.core.tools</title>
<path fill="none" stroke="#de958e" d="M625.0945,-1076.1981C652.8668,-1080.4356 692.2626,-1086.4465 729.1359,-1092.0725"/>
<polygon fill="#de958e" stroke="#de958e" points="729.0439,-1095.5989 739.4574,-1093.6473 730.0997,-1088.679 729.0439,-1095.5989"/>
</g>
<!-- hidebound.core&#45;&gt;hidebound.core.config -->
<g id="edge112" class="edge">
<title>hidebound.core&#45;&gt;hidebound.core.config</title>
<path fill="none" stroke="#a0d17b" d="M400.6393,-1656.8582C414.8231,-1684.4891 441.326,-1738.7872 457,-1787.5384 481.0382,-1862.3051 444.6613,-1898.6411 493,-1960.5384 595.5284,-2091.8248 663.9221,-2123.5384 830.5,-2123.5384 830.5,-2123.5384 830.5,-2123.5384 1122.5,-2123.5384 1356.5439,-2123.5384 1470.7264,-2192.1107 1641,-2031.5384 1718.6389,-1958.323 1758.9955,-1612.2647 1769.3076,-1510.6535"/>
<polygon fill="#a0d17b" stroke="#a0d17b" points="1772.806,-1510.8428 1770.3156,-1500.5448 1765.8406,-1510.1482 1772.806,-1510.8428"/>
</g>
<!-- hidebound.core&#45;&gt;hidebound.core.database -->
<g id="edge113" class="edge">
<title>hidebound.core&#45;&gt;hidebound.core.database</title>
<path fill="none" stroke="#a0d17b" d="M391.5188,-1620.5371C395.3166,-1495.0014 420.7363,-753.4586 493,-688.5384 555.8177,-632.1043 598.5852,-686.2995 683,-688.5384 1110.42,-699.8746 1220.1961,-700.7722 1641,-776.5384 1741.9699,-794.7181 1782.1888,-765.8107 1867,-823.5384 1949.671,-879.8093 2000.7933,-992.9733 2021.0309,-1045.5299"/>
<polygon fill="#a0d17b" stroke="#a0d17b" points="2017.8708,-1047.0703 2024.6668,-1055.1983 2024.4228,-1044.6063 2017.8708,-1047.0703"/>
</g>
<!-- hidebound.core&#45;&gt;hidebound.core.database_tools -->
<g id="edge114" class="edge">
<title>hidebound.core&#45;&gt;hidebound.core.database_tools</title>
<path fill="none" stroke="#a0d17b" d="M391.74,-1620.4109C396.7655,-1501.7186 427.6683,-838.5634 493,-780.5384 554.269,-726.1216 1078.5338,-766.7152 1333.6583,-790.0752"/>
<polygon fill="#a0d17b" stroke="#a0d17b" points="1333.4591,-793.5715 1343.7376,-791.0019 1334.1001,-786.6009 1333.4591,-793.5715"/>
</g>
<!-- hidebound.core&#45;&gt;hidebound.core.logging -->
<g id="edge115" class="edge">
<title>hidebound.core&#45;&gt;hidebound.core.logging</title>
<path fill="none" stroke="#a0d17b" d="M391.3479,-1620.2925C393.5644,-1521.6282 408.4742,-1052.2328 493,-940.5384 525.1897,-898.0021 662.5595,-853.5231 751.8155,-828.2978"/>
<polygon fill="#a0d17b" stroke="#a0d17b" points="752.9584,-831.6125 761.6425,-825.5432 751.069,-824.8722 752.9584,-831.6125"/>
</g>
<!-- hidebound.core&#45;&gt;hidebound.core.parser -->
<g id="edge116" class="edge">
<title>hidebound.core&#45;&gt;hidebound.core.parser</title>
<path fill="none" stroke="#a0d17b" d="M406.7467,-1656.6981C426.0863,-1678.5638 460.3542,-1715.9158 493,-1744.5384 511.6659,-1760.9039 533.9453,-1777.4596 552.2356,-1790.359"/>
<polygon fill="#a0d17b" stroke="#a0d17b" points="550.6578,-1793.526 560.8608,-1796.3809 554.665,-1787.7865 550.6578,-1793.526"/>
</g>
<!-- hidebound.core&#45;&gt;hidebound.core.specification_base -->
<g id="edge117" class="edge">
<title>hidebound.core&#45;&gt;hidebound.core.specification_base</title>
<path fill="none" stroke="#a0d17b" d="M457.2216,-1641.426C516.4827,-1644.3482 605.6819,-1649.5806 683,-1657.5384 790.9444,-1668.6482 913.1225,-1686.2963 1001.2109,-1699.9276"/>
<polygon fill="#a0d17b" stroke="#a0d17b" points="1000.8223,-1703.4091 1011.2409,-1701.4851 1001.8965,-1696.492 1000.8223,-1703.4091"/>
</g>
<!-- hidebound.core&#45;&gt;hidebound.core.specifications -->
<g id="edge118" class="edge">
<title>hidebound.core&#45;&gt;hidebound.core.specifications</title>
<path fill="none" stroke="#a0d17b" d="M399.2982,-1656.8155C411.9764,-1684.841 436.8226,-1740.1645 457,-1787.5384 473.5588,-1826.4162 466.5119,-1842.6133 493,-1875.5384 569.5044,-1970.6345 602.6176,-1994.7779 719,-2031.5384 736.8019,-2037.1613 1258.6757,-2035.7302 1267,-2033.5384 1334.4631,-2015.7746 1403.0492,-1970.1724 1441.3022,-1941.7233"/>
<polygon fill="#a0d17b" stroke="#a0d17b" points="1443.5696,-1944.3972 1449.4474,-1935.5823 1439.3555,-1938.8078 1443.5696,-1944.3972"/>
</g>
<!-- hidebound.core&#45;&gt;hidebound.core.tools -->
<g id="edge119" class="edge">
<title>hidebound.core&#45;&gt;hidebound.core.tools</title>
<path fill="none" stroke="#a0d17b" d="M391.8722,-1620.3096C396.2115,-1537.9739 418.3352,-1201.9214 493,-1135.5384 526.9187,-1105.3819 642.6749,-1101.4151 729.2241,-1103.0171"/>
<polygon fill="#a0d17b" stroke="#a0d17b" points="729.2883,-1106.5192 739.3604,-1103.2323 729.4369,-1099.5208 729.2883,-1106.5192"/>
</g>
<!-- hidebound.core&#45;&gt;hidebound.core.traits -->
<g id="edge120" class="edge">
<title>hidebound.core&#45;&gt;hidebound.core.traits</title>
<path fill="none" stroke="#a0d17b" d="M398.992,-1656.6482C420.0817,-1704.094 476.7301,-1829.2134 493,-1841.5384 503.4727,-1849.4718 841.0085,-1912.0819 1017.4036,-1944.3894"/>
<polygon fill="#a0d17b" stroke="#a0d17b" points="1017.024,-1947.878 1027.4908,-1946.236 1018.2845,-1940.9924 1017.024,-1947.878"/>
</g>
<!-- hidebound.core&#45;&gt;hidebound.core.validators -->
<g id="edge121" class="edge">
<title>hidebound.core&#45;&gt;hidebound.core.validators</title>
<path fill="none" stroke="#a0d17b" d="M410.4327,-1656.6311C429.8244,-1673.6128 461.2329,-1698.3225 493,-1711.5384 561.2333,-1739.925 642.8223,-1754.1833 708.6872,-1761.341"/>
<polygon fill="#a0d17b" stroke="#a0d17b" points="708.3926,-1764.8292 718.7024,-1762.3882 709.1206,-1757.8672 708.3926,-1764.8292"/>
</g>
<!-- selenium.webdriver.chrome.options -->
<g id="node51" class="node">
<title>selenium.webdriver.chrome.options</title>
<polygon fill="#343434" stroke="#343434" points="289,-1096.5384 0,-1096.5384 0,-1060.5384 289,-1060.5384 289,-1096.5384"/>
<text text-anchor="middle" x="144.5" y="-1074.8384" font-family="Courier,monospace" font-size="14.00" fill="#de958e">selenium.webdriver.chrome.options</text>
</g>
<!-- skimage.io -->
<g id="node52" class="node">
<title>skimage.io</title>
<polygon fill="#343434" stroke="#343434" points="880,-1981.5384 781,-1981.5384 781,-1945.5384 880,-1945.5384 880,-1981.5384"/>
<text text-anchor="middle" x="830.5" y="-1959.8384" font-family="Courier,monospace" font-size="14.00" fill="#de958e">skimage.io</text>
</g>
<!-- skimage.io&#45;&gt;hidebound.core.traits -->
<g id="edge122" class="edge">
<title>skimage.io&#45;&gt;hidebound.core.traits</title>
<path fill="none" stroke="#de958e" d="M880.0338,-1963.5384C917.5523,-1963.5384 970.4542,-1963.5384 1017.2741,-1963.5384"/>
<polygon fill="#de958e" stroke="#de958e" points="1017.4737,-1967.0385 1027.4737,-1963.5384 1017.4737,-1960.0385 1017.4737,-1967.0385"/>
</g>
</g>
</svg>
